<svg width="56" height="56" viewBox="0 0 56 56" fill="none" xmlns="http://www.w3.org/2000/svg">
<g clip-path="url(#clip0_266_56168)">
<path d="M0 28C0 29.6486 0 29.8318 0.039289 31.2318C0.14406 34.3327 0.471469 37.8916 1.71562 41.6468C2.59308 44.3028 4.24322 47.1682 5.89335 48.9739C7.9888 51.2765 10.883 53.1605 14.0131 54.2335C17.2086 55.3325 20.666 55.869 27.3845 56H28.6287C35.3601 55.856 38.8045 55.3325 42 54.2335C45.1301 53.1605 48.0112 51.2765 50.1065 48.9739C51.757 47.1552 53.407 44.3028 54.2845 41.6468C55.5285 37.8916 55.869 34.3196 55.9605 31.2318C56 29.8449 56 29.6486 56 28C56 26.3514 56 26.1682 55.9605 24.7682C55.856 21.6673 55.5285 18.1084 54.2845 14.3532C53.407 11.6972 51.757 8.83175 50.1065 7.02615C48.0112 4.72337 45.117 2.83925 42 1.76636C38.8045 0.66729 35.347 0.130841 28.6287 0H27.3845C20.653 0.143925 17.2086 0.66729 14.0131 1.76636C10.883 2.83925 8.00185 4.72337 5.89335 7.02615C4.24322 8.84485 2.59308 11.6972 1.71562 14.3532C0.484565 18.1084 0.14406 21.6673 0.039289 24.7682C0 26.1551 0 26.3514 0 28Z" fill="#0E0060"/>
<path d="M13.2725 22.6836L9.35515 27.3596V22.6836H7.375V32.8852H9.35515V28.1969L13.402 32.8852H15.8826L11.4796 27.7874L15.7531 22.6836H13.2725Z" fill="white"/>
<mask id="mask0_266_56168" style="mask-type:luminance" maskUnits="userSpaceOnUse" x="7" y="22" width="42" height="12">
<path d="M48.5008 22.624H7.37579V33.124H48.5008V22.624Z" fill="white"/>
</mask>
<g mask="url(#mask0_266_56168)">
<path d="M20.6293 25.5789C19.8368 25.6001 19.0796 25.9115 18.5013 26.4539V22.6826H16.5212V29.4026C16.4942 29.9017 16.5735 30.4008 16.7536 30.867C16.9338 31.3332 17.2109 31.7559 17.5665 32.1071C17.9221 32.4583 18.3481 32.7301 18.8165 32.9045C19.2849 33.0789 19.785 33.1519 20.2837 33.1187C20.7829 33.1404 21.2811 33.0581 21.7469 32.8772C22.2126 32.6962 22.6357 32.4206 22.9894 32.0676C23.3431 31.7147 23.6197 31.2922 23.8016 30.8268C23.9835 30.3614 24.0668 29.8634 24.0462 29.3641C24.0462 27.2912 22.7101 25.5797 20.6337 25.5797M20.2837 31.2804C19.787 31.2747 19.3121 31.0752 18.9603 30.7244C18.6086 30.3737 18.4077 29.8993 18.4007 29.4026C18.4007 29.3851 18.4007 29.3667 18.4007 29.3484C18.4006 29.1344 18.4355 28.9219 18.504 28.7192C18.6266 28.343 18.8644 28.0148 19.1838 27.7811C19.5032 27.5475 19.888 27.4202 20.2837 27.4172C20.7886 27.428 21.2693 27.6361 21.6226 27.997C21.9759 28.3579 22.1737 28.8429 22.1737 29.3479C22.1737 29.853 21.9759 30.3379 21.6226 30.6988C21.2693 31.0597 20.7886 31.2679 20.2837 31.2786" fill="white"/>
<path d="M38.0406 25.579C37.1923 25.5707 36.3737 25.8916 35.7569 26.4741V25.8012H33.7768V32.8887H35.7569V28.9154C35.7569 28.528 35.9107 28.1566 36.1846 27.8827C36.4585 27.6088 36.8299 27.455 37.2173 27.455C37.6046 27.455 37.976 27.6088 38.2499 27.8827C38.5238 28.1566 38.6776 28.528 38.6776 28.9154V32.8887H40.67V28.3475C40.67 28.3204 40.67 28.2924 40.67 28.2652C40.674 27.5612 40.4 26.8839 39.9075 26.3808C39.415 25.8776 38.7438 25.5892 38.0398 25.5781" fill="white"/>
<path d="M28.7813 25.5843C28.2796 25.5601 27.7784 25.6403 27.3094 25.8198C26.8403 25.9993 26.4136 26.2742 26.0563 26.6271C25.6989 26.98 25.4187 27.4033 25.2333 27.8701C25.048 28.3368 24.9615 28.837 24.9794 29.3389C24.9428 29.8172 25.0045 30.298 25.1606 30.7516C25.3166 31.2052 25.5639 31.6221 25.887 31.9766C26.2102 32.3312 26.6024 32.6158 27.0397 32.8132C27.4769 33.0105 27.9499 33.1164 28.4295 33.1242C28.89 33.1148 29.3421 33.0003 29.7516 32.7895C30.161 32.5787 30.5169 32.2772 30.792 31.9079V32.8879H32.5832V29.3407H32.5665L32.5823 29.3004C32.6067 28.7986 32.5244 28.2973 32.3408 27.8296C32.1572 27.3619 31.8765 26.9384 31.5172 26.5872C31.1579 26.236 30.7281 25.965 30.2564 25.7922C29.7846 25.6193 29.2816 25.5484 28.7804 25.5843M28.8215 31.2718C28.4377 31.2814 28.0597 31.1763 27.7359 30.97C27.412 30.7637 27.157 30.4655 27.0035 30.1136C26.8499 29.7617 26.8047 29.372 26.8737 28.9943C26.9427 28.6166 27.1227 28.268 27.3908 27.9931C27.6588 27.7182 28.0028 27.5294 28.3786 27.4509C28.7545 27.3724 29.1452 27.4078 29.5009 27.5524C29.8566 27.697 30.161 27.9444 30.3754 28.263C30.5898 28.5815 30.7044 28.9567 30.7045 29.3407C30.7101 29.8458 30.5151 30.3326 30.1623 30.6941C29.8094 31.0557 29.3276 31.2625 28.8224 31.2692" fill="white"/>
<path d="M48.5011 32.7933L45.5358 29.274L48.4137 25.7591H46.283L43.7761 28.8033V22.624H41.8022V32.7933H43.7761V29.7422L46.3311 32.7942L48.5011 32.7933Z" fill="white"/>
</g>
</g>
<defs>
<clipPath id="clip0_266_56168">
<rect width="56" height="56" fill="white"/>
</clipPath>
</defs>
</svg>
