<svg width="24" height="24" viewBox="0 0 24 24" fill="none" xmlns="http://www.w3.org/2000/svg">
<g clip-path="url(#clip0_266_55189)">
<path d="M0 12C0 12.7065 0 12.785 0.0168342 13.385C0.0617254 14.714 0.202011 16.2393 0.735094 17.8486C1.11106 18.9869 1.8181 20.2149 2.52514 20.9888C3.42296 21.9756 4.66307 22.7831 6.0042 23.2429C7.3734 23.7139 8.8548 23.9439 11.7334 24H12.2666C15.1508 23.9383 16.6266 23.7139 17.9958 23.2429C19.3369 22.7831 20.5714 21.9756 21.4749 20.9888C22.182 20.2094 22.8889 18.9869 23.265 17.8486C23.7979 16.2393 23.9439 14.7084 23.9831 13.385C24 12.7907 24 12.7065 24 12C24 11.2935 24 11.2093 23.9831 10.6149C23.9383 9.28599 23.7979 7.76074 23.265 6.15139C22.8889 5.01309 22.182 3.78504 21.4749 3.01121C20.577 2.0243 19.3369 1.21682 17.9958 0.757009C16.6266 0.285981 15.1452 0.0560747 12.2666 0H11.7334C8.84919 0.0616821 7.3734 0.285981 6.0042 0.757009C4.66307 1.21682 3.42857 2.0243 2.52514 3.01121C1.8181 3.79065 1.11106 5.01309 0.735094 6.15139C0.207622 7.76074 0.0617254 9.28599 0.0168342 10.6149C0 11.2093 0 11.2935 0 12Z" fill="#ED3423"/>
<path d="M8.32101 8.14307C9.54308 9.39904 10.7906 10.6869 12.0063 11.9365C13.2793 10.6677 14.5459 9.39904 15.7998 8.14307H8.32101ZM15.7489 15.8574C14.5141 14.6205 13.2538 13.3645 11.9872 12.0958C10.7715 13.3327 9.52397 14.595 8.28282 15.8574H15.7489ZM16.0098 15.7681C16.0098 15.7681 16.048 15.7936 16.0671 15.8064C17.2956 14.544 18.5303 13.2753 19.7142 12.0576C18.5112 10.8208 17.2765 9.55204 16.0162 8.25145V15.7681H16.0098ZM4.28564 12.0193C5.55863 13.2753 6.80616 14.5058 8.07914 15.7617V8.27695C6.79979 9.53929 5.55227 10.7698 4.28564 12.0257" fill="white"/>
<path d="M8.32104 8.14307H15.7998C14.5459 9.39904 13.2793 10.6614 12.0064 11.9365C10.7906 10.6869 9.54312 9.39904 8.32104 8.14307Z" fill="white"/>
<path d="M15.749 15.8572H8.28296C9.52412 14.5949 10.7717 13.3325 11.9874 12.0957C13.254 13.3644 14.5142 14.6204 15.749 15.8572Z" fill="white"/>
<path d="M16.01 15.7681V8.25146C17.2766 9.55205 18.5051 10.8208 19.708 12.0576C18.5242 13.2753 17.2957 14.5376 16.0609 15.8064C16.0418 15.7936 16.0228 15.7809 16.0037 15.7681" fill="white"/>
<path d="M4.28564 12.0193C5.55227 10.7697 6.80616 9.53284 8.07914 8.27051V15.7616C6.80616 14.5057 5.55227 13.2688 4.28564 12.0193Z" fill="white"/>
</g>
<defs>
<clipPath id="clip0_266_55189">
<rect width="24" height="24" fill="white"/>
</clipPath>
</defs>
</svg>
