<svg width="32" height="32" viewBox="0 0 32 32" fill="none" xmlns="http://www.w3.org/2000/svg">
<g clip-path="url(#clip0_266_55427)">
<path d="M0 16C0 16.9421 0 17.0468 0.0299275 17.8468C0.0823005 19.6187 0.276829 21.6524 0.987606 23.7982C1.48889 25.3159 2.43161 26.9533 3.37433 27.9851C4.57143 29.3011 6.2249 30.3776 8.0056 30.9906C9.83117 31.6188 11.8064 31.9254 15.6446 32H16.3554C20.201 31.9177 22.1688 31.6188 23.9943 30.9906C25.7825 30.3776 27.4285 29.3011 28.6332 27.9851C29.5757 26.9458 30.5185 25.3159 31.0198 23.7982C31.7305 21.6524 31.9251 19.6113 31.9774 17.8468C32 17.0542 32 16.9421 32 16C32 15.058 32 14.9533 31.9774 14.1533C31.9177 12.3813 31.7305 10.3477 31.0198 8.20188C30.5185 6.68413 29.5757 5.04674 28.6332 4.01495C27.436 2.69907 25.7825 1.62243 23.9943 1.00935C22.1688 0.381311 20.1936 0.0747664 16.3554 0H15.6446C11.7989 0.082243 9.83117 0.381311 8.0056 1.00935C6.21744 1.62243 4.57143 2.69907 3.37433 4.01495C2.43161 5.05423 1.48889 6.68413 0.987606 8.20188C0.276829 10.3477 0.0823005 12.3813 0.0299275 14.1533C0 14.9458 0 15.058 0 16Z" fill="#29B54F"/>
<path d="M20.1506 18.6152C20.2083 18.3274 20.2083 18.0149 20.1918 17.7188C20.1341 16.8059 19.5076 16.0658 18.6256 15.8191C18.4773 15.778 18.3289 15.7368 18.1805 15.6957V15.6464C18.5762 15.4983 18.9471 15.301 19.2274 14.9802C19.5159 14.6513 19.689 14.273 19.7385 13.8453C19.7879 13.3601 19.722 12.9489 19.5736 12.6529C19.4417 12.3733 19.0378 11.6413 17.6777 11.5591H17.653V20.0955C17.9992 20.0955 18.5762 20.0133 18.9306 19.8981C19.5654 19.7008 20.0022 19.2731 20.1424 18.607L20.1506 18.6152Z" fill="white"/>
<path d="M21.395 7.15129H10.6131C8.70077 7.15129 7.14282 8.71384 7.14282 10.6218V21.3869C7.14282 23.2948 8.70899 24.8574 10.6131 24.8574H15.9876C16.0041 24.0761 15.9794 9.77472 15.9794 9.77472C18.9716 9.59378 20.3399 10.704 20.9499 11.8142C21.123 12.1268 21.2302 12.4228 21.3044 12.6942C21.4445 13.2205 21.4363 13.64 21.4363 13.7798C21.4363 13.9525 21.4115 14.1416 21.3785 14.3225C21.3538 14.4541 21.3126 14.5775 21.2631 14.7008C21.2384 14.7584 21.2219 14.816 21.189 14.8735C20.9664 15.293 20.6697 15.5068 20.6697 15.5068C20.6697 15.5068 20.8922 15.737 20.9994 15.8768C21.5104 16.543 21.8154 17.1516 21.8649 18.0315C21.9061 18.9032 21.733 19.6598 21.189 20.3013C21.1065 20.3918 21.0241 20.4822 20.9334 20.5727C20.6532 20.8359 20.3564 21.0415 20.0349 21.206C19.4744 21.4938 18.8315 21.6171 18.2627 21.6829C18.0071 21.7076 17.7269 21.724 17.628 21.7158C17.628 21.7652 17.628 23.6402 17.6197 24.586C17.6197 24.6024 17.6197 24.7751 17.6197 24.8491H21.3785C23.2909 24.8491 24.8571 23.2866 24.8571 21.3786V10.6136C24.8571 8.70561 23.2909 7.14307 21.3785 7.14307L21.395 7.15129ZM14.9572 19.0513C14.7759 20.2273 14.1494 21.0908 13.152 21.7158C13.0861 21.757 12.9954 21.7816 12.9129 21.7734C12.3112 21.757 11.7177 21.7323 11.116 21.7158C11.05 21.7158 10.9923 21.7076 10.9264 21.6994C10.9593 21.6171 12.3524 20.5316 12.8305 19.849C13.3498 19.1088 13.3581 18.4838 12.7646 17.8012C12.3936 17.3736 11.9568 17.0035 11.5364 16.617C10.5802 15.737 10.0279 14.6926 10.1268 13.3603C10.1433 13.1218 10.2422 11.6169 11.6435 10.5313C12.7399 9.67604 14.2153 9.73361 14.6852 9.77472C14.7182 9.77472 14.7759 9.78295 14.8171 9.79115H14.8253L14.8418 11.4524C14.8418 11.4524 14.5451 11.4524 14.4462 11.4524C12.3607 11.4771 11.998 12.8834 12.0474 12.7353C11.9403 13.0725 11.9155 13.4837 12.0062 13.862C12.1546 14.487 12.542 14.964 12.9707 15.4245C13.4405 15.9344 13.9269 16.4278 14.372 16.9624C14.8748 17.5628 15.0809 18.27 14.9572 19.0595V19.0513Z" fill="white"/>
</g>
<defs>
<clipPath id="clip0_266_55427">
<rect width="32" height="32" fill="white"/>
</clipPath>
</defs>
</svg>
