<svg width="40" height="40" viewBox="0 0 40 40" fill="none" xmlns="http://www.w3.org/2000/svg">
<g clip-path="url(#clip0_266_55954)">
<path d="M0 20.0003C0 21.1778 0 21.3089 0.0375 22.3089C0.102857 24.5239 0.346071 27.0661 1.23464 29.7482C1.86143 31.6453 3.03964 33.6921 4.21821 34.9818C5.71464 36.6268 7.78143 37.9725 10.0071 38.7389C12.2893 39.5239 14.7582 39.9071 19.5557 40.0007H20.4443C25.2514 39.8979 27.7111 39.5239 29.9929 38.7389C32.2282 37.9725 34.2857 36.6268 35.7914 34.9818C36.97 33.6828 38.1482 31.6453 38.775 29.7482C39.6636 27.0661 39.9068 24.5146 39.9721 22.3089C40.0004 21.3182 40.0004 21.1782 40.0004 20.0003C40.0004 18.8225 40.0004 18.6825 39.9721 17.6918C39.8975 15.4768 39.6636 12.9346 38.775 10.2525C38.1486 8.35535 36.97 6.30856 35.7914 5.01892C34.295 3.37393 32.2282 2.02821 29.9929 1.26178C27.7107 0.476785 25.2418 0.0935713 20.4443 0H19.5557C14.7486 0.102857 12.2889 0.476785 10.0071 1.26178C7.77179 2.02821 5.71429 3.37393 4.21821 5.01892C3.03964 6.31785 1.86143 8.35535 1.23464 10.2525C0.346071 12.935 0.102857 15.4771 0.0375 17.6918C0 18.6825 0 18.8225 0 20.0003Z" fill="#266798"/>
<path d="M8.92847 21.0632V20.1875C8.92847 20.1875 8.95065 20.1328 8.95065 20.1109C8.99497 19.7059 9.01711 19.3009 9.08361 18.8959C9.24986 17.8013 9.6045 16.7615 10.1032 15.7763C10.4135 15.1634 10.7793 14.5942 11.2004 14.0578C11.5994 13.5434 12.0426 13.0727 12.5303 12.6349C13.2285 12.011 13.9821 11.4856 14.8133 11.0478C15.3896 10.7522 15.9991 10.5005 16.6198 10.3035C17.4953 10.0298 18.3929 9.87656 19.3017 9.83278C19.8559 9.81089 20.41 9.84374 20.953 9.99696C21.5847 10.1721 22.1278 10.5005 22.5821 10.9711C23.2471 11.6826 23.9231 12.3722 24.5881 13.0727C25.0425 13.5434 25.4858 14.0141 25.9401 14.4847C26.6827 15.2619 27.4252 16.0281 28.1678 16.8053C28.3783 17.0242 28.6 17.2541 28.8105 17.473C27.8574 18.4471 26.9154 19.3994 25.9513 20.3955C23.9231 18.3815 21.9061 16.3893 19.9002 14.3972C17.7945 16.4769 15.6888 18.5566 13.6053 20.6035C15.6999 22.6832 17.8056 24.7629 19.9223 26.8535C19.9445 26.8316 19.9667 26.7879 19.9999 26.755C22.0391 24.741 24.0783 22.727 26.1175 20.7129C26.184 20.6472 26.2505 20.6144 26.3502 20.6144C27.7909 20.6144 29.2317 20.6144 30.6724 20.6144H30.8386C30.8275 20.8771 30.8386 21.1179 30.8054 21.3587C30.75 21.8622 30.6946 22.3657 30.5948 22.8692C30.3621 23.9748 29.952 25.0256 29.3646 26.0107C28.8105 26.9411 28.1345 27.7839 27.3365 28.5173C26.6384 29.1521 25.8736 29.6995 25.0425 30.1482C24.2113 30.5861 23.3468 30.9254 22.4381 31.1224C21.9172 31.2319 21.3852 31.2975 20.8533 31.3742C20.7203 31.396 20.5873 31.407 20.4432 31.4289H19.335C19.335 31.4289 19.2574 31.407 19.2241 31.407C18.9803 31.3851 18.7365 31.3851 18.5038 31.3523C17.6948 31.2428 16.9079 31.0567 16.1432 30.7831C15.1347 30.4219 14.1927 29.9184 13.3393 29.2835C12.364 28.5611 11.5329 27.7073 10.8458 26.7112C10.2473 25.8465 9.78182 24.9052 9.44936 23.9091C9.16122 23.0116 8.9839 22.0921 8.95065 21.1398C8.95065 21.107 8.92847 21.0851 8.92847 21.0522" fill="white"/>
<path d="M31.0714 15.2179C30.4729 15.809 29.8966 16.4001 29.2981 17.0021C29.143 16.8379 28.9878 16.6846 28.8438 16.5314C28.478 16.1483 28.1123 15.7652 27.7466 15.3821C27.0706 14.6706 26.3834 13.9591 25.7074 13.2477C25.3195 12.8427 24.9427 12.4377 24.5548 12.0327C24.0894 11.5401 23.6239 11.0585 23.1584 10.5659C22.7816 10.1609 22.3273 9.87636 21.8174 9.65743C21.1858 9.39475 20.5319 9.26339 19.8448 9.26339C19.6674 9.26339 19.4901 9.28528 19.2795 9.30718C19.3571 9.2415 19.4125 9.19771 19.4679 9.15393C19.8448 8.90218 20.2659 8.78175 20.6981 8.69421C21.1746 8.59568 21.6623 8.56286 22.1499 8.57378C23.103 8.59568 24.0339 8.77082 24.8984 9.20864C25.3971 9.46039 25.8071 9.83257 26.184 10.2266C26.6716 10.7411 27.1703 11.2446 27.669 11.7481C28.3561 12.4596 29.0543 13.1601 29.7415 13.8716C30.1515 14.2875 30.5616 14.7144 30.9716 15.1304C30.9938 15.1522 31.0159 15.1851 31.0492 15.2179" fill="white"/>
</g>
<defs>
<clipPath id="clip0_266_55954">
<rect width="40" height="40" fill="white"/>
</clipPath>
</defs>
</svg>
