<svg width="24" height="24" viewBox="0 0 24 24" fill="none" xmlns="http://www.w3.org/2000/svg">
<g clip-path="url(#clip0_266_55179)">
<path d="M0 12C0 12.7065 0 12.785 0.0168342 13.385C0.0617254 14.714 0.202011 16.2393 0.735094 17.8486C1.11106 18.9869 1.8181 20.2149 2.52514 20.9888C3.42296 21.9756 4.66307 22.7831 6.0042 23.2429C7.3734 23.7139 8.8548 23.9439 11.7334 24H12.2666C15.1508 23.9383 16.6266 23.7139 17.9958 23.2429C19.3369 22.7831 20.5714 21.9756 21.4749 20.9888C22.182 20.2094 22.8889 18.9869 23.265 17.8486C23.7979 16.2393 23.9439 14.7084 23.9831 13.385C24 12.7907 24 12.7065 24 12C24 11.2935 24 11.2093 23.9831 10.6149C23.9383 9.28599 23.7979 7.76074 23.265 6.15139C22.8889 5.01309 22.182 3.78504 21.4749 3.01121C20.577 2.0243 19.3369 1.21682 17.9958 0.757009C16.6266 0.285981 15.1452 0.0560747 12.2666 0H11.7334C8.84919 0.0616821 7.3734 0.285981 6.0042 0.757009C4.66307 1.21682 3.42857 2.0243 2.52514 3.01121C1.8181 3.79065 1.11106 5.01309 0.735094 6.15139C0.207622 7.76074 0.0617254 9.28599 0.0168342 10.6149C0 11.2093 0 11.2935 0 12Z" fill="#04A86C"/>
<path d="M15.8265 7.96157C15.4256 8.54756 15.207 8.84959 14.5632 9.55037C15.6746 8.88585 15.9783 8.84355 17.0108 8.2455C17.3934 8.81336 17.4967 10.1303 17.5088 11.1754C17.8429 10.5109 18.2498 8.02198 18.0797 7.56889C18.6992 7.16415 18.6992 7.00708 18.8571 6.73524C18.2376 6.7896 17.8854 6.80169 17.5453 6.90437C16.6889 6.37881 14.9215 5.84115 13.4821 5.73242C13.9316 5.91969 15.7597 6.91041 15.9905 7.21851C15.0248 7.34537 13.1785 7.88908 12.2432 8.3784C13.3121 8.14279 14.8061 8.02198 15.8326 7.96761L15.8265 7.96157Z" fill="white"/>
<path d="M12.6499 16.1232C12.3766 16.4856 12.1519 16.7575 11.8482 17.0897C11.3381 17.2287 10.9311 17.283 10.4392 17.283C10.7429 17.4401 11.0465 17.5368 11.3624 17.5972C11.0465 17.8871 10.7672 18.0925 10.4635 18.2859C10.9858 18.165 11.66 17.9415 12.1701 17.6455C12.4313 17.6515 12.6985 17.6455 12.8747 17.6092C12.8321 17.4522 12.7957 17.3374 12.7532 17.1381C13.233 16.7695 13.5792 16.4373 13.9679 16.0386C13.5488 16.3346 13.1844 16.5581 12.7046 16.7877C12.6803 16.5642 12.6681 16.3708 12.656 16.1232H12.6499Z" fill="white"/>
<path d="M6.83175 12.8668C6.83175 12.8668 8.38048 11.4351 9.04855 11.0726C9.04855 11.0726 9.38867 12.2385 9.63161 12.8185C9.63161 12.8185 9.85024 11.4713 10.2025 10.6981C10.2025 10.6981 10.2997 10.6376 10.7977 10.5893C11.2896 10.547 11.982 10.5168 13.3182 10.7464C13.3182 10.7464 12.0913 9.97314 10.579 9.76774C10.6398 9.56233 10.8523 9.12135 11.0406 8.88574C10.7613 8.92802 9.97778 9.2784 9.45546 9.68316C9.45546 9.68316 9.10928 9.64086 8.53232 9.65899C7.95533 9.68316 7.19616 9.82815 6.89856 9.94896C7.4634 9.97313 8.23472 10.1121 8.53232 10.4081C8.53232 10.4081 7.66988 11.1813 6.82568 12.8668H6.83175Z" fill="white"/>
<path d="M7.00167 16.5822C7.25675 17.138 7.52399 17.5125 7.96128 17.9354C7.85802 17.5729 7.8398 17.2769 7.87625 16.8963C8.42892 17.0534 8.88443 17.144 9.50393 17.1621C8.90873 16.9447 8.48358 16.6909 8.02201 16.256C8.1617 15.8754 8.32568 15.5733 8.58076 15.1928C8.10095 15.2592 7.75478 15.3196 7.34178 15.3982C7.00775 14.8122 6.85591 14.2443 6.68585 13.459C6.58868 14.2866 6.55831 14.8907 6.6737 15.5552C6.29108 15.6579 6.02386 15.7425 5.71411 15.8814C6.1514 16.1472 6.50973 16.3587 7.00167 16.5822Z" fill="white"/>
<path d="M12.7471 17.138C12.7896 17.3373 12.8261 17.4582 12.8686 17.6092C12.6864 17.6454 12.4252 17.6575 12.1641 17.6454C11.6539 17.9415 10.9798 18.165 10.4575 18.2858C10.7611 18.0925 11.0405 17.8871 11.3563 17.5971C11.0405 17.5306 10.7308 17.44 10.4332 17.283C10.9312 17.283 11.332 17.2286 11.8422 17.0896C12.1459 16.7574 12.3706 16.4795 12.6439 16.1231C12.656 16.3768 12.6682 16.5641 12.6925 16.7876C13.1723 16.558 13.5367 16.3285 13.9557 16.0385C13.561 16.4372 13.2208 16.7695 12.7411 17.138H12.7471ZM13.4759 5.7204C14.9153 5.82913 16.6827 6.37283 17.539 6.89237C17.8792 6.78966 18.2314 6.77758 18.8509 6.72321C18.693 6.99506 18.693 7.15213 18.0735 7.55687C18.2435 8.00996 17.8366 10.4989 17.5026 11.1634C17.4905 10.1183 17.3872 8.80133 17.0046 8.23348C15.9782 8.83155 15.6684 8.87987 14.557 9.53835C15.2068 8.83757 15.4255 8.54158 15.8203 7.94955C14.7939 8.00391 13.2998 8.13077 12.2309 8.36033C13.1662 7.87101 15.0125 7.32733 15.9782 7.20045C15.7474 6.89237 13.9254 5.8956 13.4699 5.71436L13.4759 5.7204ZM6.90449 9.94309C7.19603 9.82228 7.9552 9.67729 8.53825 9.65312C9.11521 9.63499 9.46141 9.67729 9.46141 9.67729C9.98371 9.26648 10.7672 8.92215 11.0466 8.87987C10.8583 9.11548 10.6396 9.55646 10.585 9.76187C12.0973 9.96726 13.3241 10.7405 13.3241 10.7405C11.9879 10.5049 11.2956 10.5412 10.8036 10.5834C10.3056 10.6318 10.2084 10.6922 10.2084 10.6922C9.85617 11.4654 9.63753 12.8126 9.63753 12.8126C9.3946 12.2326 9.05448 11.0667 9.05448 11.0667C8.3864 11.4231 6.8377 12.8609 6.8377 12.8609C7.6819 11.1755 8.54431 10.4022 8.54431 10.4022C8.24673 10.1062 7.47541 9.96726 6.91058 9.94309H6.90449ZM6.68585 13.4529C6.85591 14.2383 7.00775 14.8061 7.34178 15.3921C7.75478 15.3136 8.10704 15.2532 8.58076 15.1867C8.32568 15.5673 8.1617 15.8694 8.02201 16.2499C8.48967 16.6849 8.91479 16.9386 9.50393 17.1561C8.88443 17.138 8.42285 17.0474 7.87625 16.8903C7.8398 17.2709 7.85802 17.5669 7.96128 17.9294C7.52399 17.5005 7.25675 17.1319 7.00167 16.5762C6.50973 16.3527 6.1514 16.1412 5.71411 15.8754C6.02386 15.7365 6.29716 15.6519 6.6737 15.5492C6.55831 14.8847 6.58868 14.2806 6.68585 13.4529Z" fill="white"/>
</g>
<defs>
<clipPath id="clip0_266_55179">
<rect width="24" height="24" fill="white"/>
</clipPath>
</defs>
</svg>
