<svg width="32" height="32" viewBox="0 0 32 32" fill="none" xmlns="http://www.w3.org/2000/svg">
<g clip-path="url(#clip0_266_55386)">
<path d="M0 16C0 16.9421 0 17.0467 0.0224509 17.8467C0.08232 19.6187 0.269411 21.6523 0.980354 23.7981C1.48176 25.3159 2.4247 26.9533 3.36763 27.9851C4.56503 29.3009 6.21889 30.3774 8.00749 30.9906C9.83349 31.6186 11.8092 31.9251 15.6483 32H16.3592C20.2058 31.9177 22.174 31.6186 24 30.9906C25.7886 30.3774 27.435 29.3009 28.6323 27.9851C29.5754 26.9458 30.5183 25.3159 31.0197 23.7981C31.7306 21.6523 31.9251 19.6112 31.9774 17.8467C32 17.0542 32 16.9421 32 16C32 15.0579 32 14.9533 31.9774 14.1533C31.9177 12.3813 31.7306 10.3477 31.0197 8.20186C30.5183 6.68411 29.5754 5.04671 28.6323 4.01494C27.435 2.69907 25.7811 1.62243 24 1.00935C22.174 0.381309 20.1983 0.0747663 16.3592 0H15.6483C11.8017 0.0822429 9.83349 0.381309 8.00749 1.00935C6.21889 1.62243 4.57249 2.69907 3.36763 4.01494C2.4247 5.0542 1.48176 6.68411 0.980354 8.20186C0.276894 10.3477 0.08232 12.3813 0.0224509 14.1533C0 14.9458 0 15.0579 0 16Z" fill="#0E0060"/>
<path d="M7.58429 12.9619L5.34581 15.6339V12.9619H4.21429V18.7914H5.34581V16.1124L7.65829 18.7914H9.07578L6.55978 15.8784L9.00178 12.9619H7.58429Z" fill="white"/>
<mask id="mask0_266_55386" style="mask-type:luminance" maskUnits="userSpaceOnUse" x="4" y="12" width="24" height="7">
<path d="M27.7147 12.9277H4.21472V18.9277H27.7147V12.9277Z" fill="white"/>
</mask>
<g mask="url(#mask0_266_55386)">
<path d="M11.7881 14.6164C11.3352 14.6286 10.9025 14.8065 10.5721 15.1164V12.9614H9.44063V16.8014C9.4252 17.0866 9.47049 17.3718 9.57343 17.6382C9.6764 17.9046 9.83472 18.1461 10.0379 18.3469C10.2411 18.5475 10.4846 18.7029 10.7522 18.8025C11.0199 18.9021 11.3056 18.9439 11.5906 18.9249C11.8759 18.9373 12.1606 18.8903 12.4267 18.7869C12.6929 18.6835 12.9346 18.526 13.1367 18.3243C13.3389 18.1226 13.4969 17.8812 13.6008 17.6152C13.7048 17.3493 13.7524 17.0647 13.7406 16.7794C13.7406 15.5949 12.9771 14.6169 11.7906 14.6169M11.5906 17.8744C11.3068 17.8712 11.0354 17.7572 10.8344 17.5567C10.6334 17.3563 10.5186 17.0853 10.5146 16.8014C10.5146 16.7914 10.5146 16.7809 10.5146 16.7704C10.5145 16.6482 10.5345 16.5267 10.5736 16.4109C10.6437 16.1959 10.7796 16.0084 10.9621 15.8749C11.1446 15.7413 11.3645 15.6686 11.5906 15.6669C11.8791 15.6731 12.1538 15.792 12.3557 15.9982C12.5576 16.2045 12.6706 16.4816 12.6706 16.7702C12.6706 17.0588 12.5576 17.3359 12.3557 17.5421C12.1538 17.7483 11.8791 17.8673 11.5906 17.8734" fill="white"/>
<path d="M21.7375 14.6162C21.2527 14.6115 20.7849 14.7948 20.4324 15.1277V14.7432H19.301V18.7932H20.4324V16.5227C20.4324 16.3014 20.5204 16.0891 20.6769 15.9326C20.8334 15.7761 21.0456 15.6882 21.267 15.6882C21.4883 15.6882 21.7005 15.7761 21.857 15.9326C22.0135 16.0891 22.1014 16.3014 22.1014 16.5227V18.7932H23.24V16.1982C23.24 16.1827 23.24 16.1667 23.24 16.1512C23.2422 15.7489 23.0856 15.3619 22.8042 15.0744C22.5228 14.7869 22.1392 14.622 21.737 14.6157" fill="white"/>
<path d="M16.4464 14.6194C16.1598 14.6056 15.8734 14.6515 15.6053 14.754C15.3373 14.8566 15.0935 15.0137 14.8893 15.2153C14.6851 15.417 14.5249 15.6589 14.419 15.9256C14.3131 16.1923 14.2637 16.4781 14.2739 16.7649C14.253 17.0383 14.2882 17.313 14.3774 17.5722C14.4666 17.8314 14.6079 18.0696 14.7926 18.2722C14.9772 18.4748 15.2014 18.6375 15.4512 18.7503C15.701 18.863 15.9713 18.9235 16.2454 18.9279C16.5085 18.9226 16.7669 18.8572 17.0009 18.7367C17.2348 18.6163 17.4382 18.4439 17.5954 18.2329V18.7929H18.6189V16.7659H18.6094L18.6184 16.7429C18.6324 16.4562 18.5854 16.1697 18.4804 15.9025C18.3755 15.6352 18.2151 15.3932 18.0098 15.1925C17.8045 14.9919 17.5589 14.837 17.2893 14.7382C17.0198 14.6394 16.7323 14.5989 16.4459 14.6194M16.4694 17.8694C16.2501 17.8749 16.0341 17.8149 15.849 17.697C15.664 17.5791 15.5183 17.4087 15.4305 17.2076C15.3428 17.0065 15.317 16.7839 15.3564 16.568C15.3958 16.3522 15.4987 16.153 15.6518 15.9959C15.805 15.8388 16.0016 15.7309 16.2163 15.6861C16.4311 15.6412 16.6544 15.6614 16.8576 15.7441C17.0609 15.8267 17.2348 15.9681 17.3574 16.1501C17.4799 16.3321 17.5454 16.5465 17.5454 16.7659C17.5486 17.0546 17.4372 17.3327 17.2356 17.5393C17.0339 17.7459 16.7586 17.8641 16.4699 17.8679" fill="white"/>
<path d="M27.7149 18.7387L26.0204 16.7277L27.6649 14.7192H26.4474L25.0149 16.4587V12.9277H23.8869V18.7387H25.0149V16.9952L26.4749 18.7392L27.7149 18.7387Z" fill="white"/>
</g>
</g>
<defs>
<clipPath id="clip0_266_55386">
<rect width="32" height="32" fill="white"/>
</clipPath>
</defs>
</svg>
