<svg width="32" height="32" viewBox="0 0 32 32" fill="none" xmlns="http://www.w3.org/2000/svg">
<g clip-path="url(#clip0_266_55490)">
<mask id="mask0_266_55490" style="mask-type:luminance" maskUnits="userSpaceOnUse" x="0" y="0" width="32" height="32">
<path d="M32 0H0V32H32V0Z" fill="white"/>
</mask>
<g mask="url(#mask0_266_55490)">
<path d="M0 15.9995C0 16.9416 0 17.0462 0.0224456 17.8462C0.0823005 19.6182 0.269347 21.6518 0.980125 23.7976C1.48141 25.3154 2.42413 26.9528 3.36684 27.9845C4.56395 29.3003 6.21744 30.3771 8.0056 30.9901C9.83117 31.6183 11.8064 31.9246 15.6446 31.9995H16.3554C20.201 31.9172 22.1688 31.6183 23.9943 30.9901C25.7825 30.3771 27.4285 29.3003 28.6332 27.9845C29.5757 26.9453 30.5185 25.3154 31.0198 23.7976C31.7305 21.6518 31.9251 19.6107 31.9774 17.8462C32 17.0537 32 16.9416 32 15.9995C32 15.0574 32 14.9528 31.9774 14.1528C31.9177 12.3808 31.7305 10.3472 31.0198 8.20139C30.5185 6.68361 29.5757 5.04623 28.6332 4.01447C27.436 2.69857 25.7825 1.62194 23.9943 1.00886C22.1688 0.38082 20.1936 0.074278 16.3554 -0.000488281H15.6446C11.7989 0.0817546 9.83117 0.38082 8.0056 1.00886C6.21744 1.62194 4.57143 2.69857 3.36684 4.01447C2.42413 5.05371 1.48141 6.68361 0.980125 8.20139C0.276829 10.3472 0.0823005 12.3808 0.0224456 14.1528C0 14.9453 0 15.0574 0 15.9995Z" fill="#E3333F"/>
<path d="M25.4027 18.6497L23.5402 16.4072H23.5252L23.024 17.5658C23.024 17.5658 23.024 17.5808 23.024 17.5883L23.8394 18.6198C23.8992 18.6945 23.9591 18.717 24.0563 18.717" fill="white"/>
<path d="M24.0787 13.29C23.2933 13.29 22.8744 13.5292 22.635 14.0301L21.154 17.4386C21.0642 17.6404 20.9371 17.7376 20.6753 17.7376V13.3424C20.6753 13.3424 20.6528 13.29 20.6154 13.29H19.5308C19.5308 13.29 19.4709 13.3125 19.4709 13.3424V18.6122C19.4709 18.6645 19.5158 18.7094 19.5757 18.7094H20.7949C21.5803 18.7094 21.9394 18.4702 22.1787 17.9693L23.6374 14.6056C23.7571 14.3664 23.9216 14.2618 24.2657 14.2618" fill="white"/>
<path d="M10.981 16.0038C11.4149 15.8318 11.7814 15.4506 11.7814 14.8153C11.7814 13.8659 10.9137 13.2979 9.88143 13.2979H6.66497C6.66497 13.2979 6.60514 13.3203 6.60514 13.3502V14.2098C6.60514 14.2098 6.62757 14.2621 6.66497 14.2621H9.65703C10.1357 14.2621 10.4649 14.5387 10.4649 14.8825C10.4649 15.2264 10.1357 15.5029 9.65703 15.5029H7.87674V14.8601C7.87674 14.8601 7.85431 14.8078 7.81691 14.8078H6.65748C6.65748 14.8078 6.59766 14.8302 6.59766 14.8601V18.6573C6.59766 18.6573 6.62008 18.7097 6.65748 18.7097H9.82906C11.0109 18.7097 11.8637 18.1939 11.8637 17.1325C11.8637 16.6092 11.5345 16.1832 10.981 16.0038ZM9.71686 17.7678H7.87674V16.4971H9.71686C10.2105 16.4971 10.5472 16.7811 10.5472 17.1325C10.5472 17.4838 10.2105 17.7678 9.71686 17.7678Z" fill="white"/>
<path d="M13.9058 14.8076H12.8137C12.8137 14.8076 12.7539 14.83 12.7539 14.86V18.6572C12.7539 18.6572 12.7763 18.7095 12.8137 18.7095H13.9058C13.9058 18.7095 13.9657 18.6871 13.9657 18.6572V14.86C13.9657 14.86 13.9432 14.8076 13.9058 14.8076Z" fill="white"/>
<path d="M18.379 13.2902H17.2943C17.2943 13.2902 17.2345 13.3126 17.2345 13.3425V17.7377C16.9802 17.7377 16.853 17.6406 16.7632 17.4387L15.2822 14.0302C15.0428 13.5294 14.6239 13.2902 13.8385 13.2902H12.8137C12.8137 13.2902 12.7539 13.3126 12.7539 13.3425V14.2021C12.7539 14.2021 12.7763 14.2545 12.8137 14.2545H13.644C13.9881 14.2545 14.1602 14.3591 14.2724 14.5983L15.731 17.962C15.9704 18.4628 16.3294 18.702 17.1148 18.702H18.3341C18.3864 18.702 18.4313 18.6572 18.4313 18.6048V13.335C18.4313 13.335 18.4089 13.2827 18.3715 13.2827" fill="white"/>
</g>
</g>
<defs>
<clipPath id="clip0_266_55490">
<rect width="32" height="32" fill="white"/>
</clipPath>
</defs>
</svg>
