<svg width="32" height="32" viewBox="0 0 32 32" fill="none" xmlns="http://www.w3.org/2000/svg">
<g clip-path="url(#clip0_266_55543)">
<path d="M0 16.0001C0 16.9421 0 17.0468 0.0224456 17.8468C0.0823005 19.6188 0.269347 21.6524 0.980125 23.7982C1.48141 25.316 2.42413 26.9534 3.36684 27.9852C4.56395 29.3011 6.21744 30.3776 8.0056 30.9909C9.83117 31.6188 11.8064 31.918 15.6446 32H16.3554C20.201 31.918 22.1688 31.6188 23.9943 30.9909C25.7825 30.3776 27.4285 29.3011 28.6332 27.9852C29.5757 26.9459 30.5185 25.316 31.0198 23.7982C31.7305 21.6524 31.9251 19.6113 31.9774 17.8468C32 17.0543 32 16.9421 32 16.0001C32 15.058 32 14.9533 31.9774 14.1533C31.9177 12.3814 31.7305 10.3477 31.0198 8.20189C30.5185 6.68413 29.5757 5.04674 28.6332 4.01498C27.436 2.69908 25.7825 1.62244 23.9943 1.00935C22.1688 0.38131 20.1936 0.0747665 16.3554 0H15.6446C11.7989 0.0822435 9.83117 0.38131 8.0056 1.00935C6.21744 1.62244 4.57143 2.69908 3.36684 4.01498C2.42413 5.05423 1.48141 6.68413 0.980125 8.20189C0.276829 10.3477 0.0823005 12.3814 0.0224456 14.1533C0 14.9459 0 15.058 0 16.0001Z" fill="#DF242E"/>
<path d="M25.9924 15.0934C25.4849 14.7981 25.0151 14.5256 24.553 14.2455C24.4318 14.1698 24.3257 14.1622 24.197 14.2152C23.2045 14.6467 22.1818 15.0328 21.2197 15.5173C18.7879 16.7437 16.5606 18.2956 14.4242 19.9687C14.3864 19.999 14.3561 20.0293 14.3182 20.0747C14.8258 20.4684 15.3257 20.8469 15.8106 21.2406C15.9394 21.3466 16.0076 21.3238 16.1288 21.2406C17.2273 20.4078 18.3106 19.5448 19.447 18.7574C21.3409 17.4478 23.3257 16.2744 25.4394 15.328C25.6136 15.2523 25.7803 15.1766 26 15.0858M11.2727 17.9096C11.7197 18.22 12.1515 18.5076 12.5758 18.8104C12.697 18.8937 12.7727 18.8862 12.8864 18.8029C13.5455 18.3108 14.2045 17.8112 14.8788 17.3418C17.2879 15.6611 19.8409 14.253 22.6515 13.3522C22.697 13.337 22.7273 13.3143 22.7955 13.2764C22.3258 13.0418 21.8864 12.8146 21.4394 12.6027C21.3712 12.5724 21.2727 12.58 21.197 12.6027C20.2955 12.9131 19.3864 13.1856 18.5076 13.549C16.1591 14.5256 14.0151 15.858 11.9773 17.3721C11.7424 17.5462 11.5076 17.7279 11.2651 17.9171M8.46211 16.2819C8.8712 16.5166 9.25 16.721 9.6212 16.9481C9.75757 17.0314 9.84091 17.0238 9.96969 16.9254C10.6364 16.4333 11.3106 15.9564 12 15.5022C12.7803 14.9874 14.4545 14.0486 14.4849 14.0184C14.0909 13.8442 13.7045 13.6777 13.3333 13.496C13.197 13.4279 13.0909 13.443 12.9621 13.5111C11.7349 14.1773 10.8636 14.677 9.77271 15.381C9.28789 15.6914 9.05303 15.858 8.45454 16.2744M11.8485 12.9206C11.4545 12.7995 11.1136 12.686 10.7651 12.6027C10.6591 12.58 10.5227 12.5875 10.4242 12.633C9.75 12.9509 9.09849 13.284 8.44697 13.6398C7.67423 14.0714 6.0606 15.0631 6 15.1085C6.3788 15.275 6.73486 15.4416 7.09849 15.593C7.15151 15.6157 7.25 15.593 7.30303 15.5552C7.54546 15.4038 7.78789 15.2372 8.03031 15.0858C9.24243 14.306 10.4849 13.5641 11.8485 12.9206ZM12.0606 11.8986C12.1818 11.9365 12.25 11.9516 12.3106 11.9743C13.3106 12.3226 14.3182 12.6254 15.2879 13.0342C15.7727 13.2386 16.053 13.3067 16.5303 13.0645C16.9545 12.8828 17.0151 12.8525 17.2803 12.7314C17.2045 12.686 17.1667 12.6632 17.1288 12.6481C15.9545 12.1257 14.7424 11.7169 13.5 11.399C13.4545 11.3838 13.3939 11.3763 13.3561 11.399C12.9394 11.558 12.5227 11.7245 12.0606 11.8986ZM19.8636 11.8986C19.7955 11.8608 18.5076 11.346 17.8864 11.134C17.2955 10.9296 16.697 10.7479 16.0833 10.5965C16.0303 10.5814 15.9697 10.5662 15.9167 10.5738C15.7197 10.6268 15.5227 10.6798 15.3258 10.7328C15.1364 10.7858 14.9242 10.8463 14.7273 10.8993C14.8257 10.9296 15.5985 11.1492 15.9849 11.2703C16.8561 11.5428 17.7197 11.8608 18.5606 12.2242C18.6136 12.2469 18.6818 12.2469 18.7424 12.2242C19.0985 12.1257 19.4545 12.0198 19.8561 11.8986" fill="white"/>
</g>
<defs>
<clipPath id="clip0_266_55543">
<rect width="32" height="32" fill="white"/>
</clipPath>
</defs>
</svg>
