<svg width="56" height="56" viewBox="0 0 56 56" fill="none" xmlns="http://www.w3.org/2000/svg">
<g clip-path="url(#clip0_266_56188)">
<path d="M0 28C0 29.6486 0 29.8318 0.039289 31.2318C0.14406 34.3327 0.471469 37.8916 1.71562 41.6467C2.59308 44.3028 4.24322 47.1682 5.89335 48.9739C7.9888 51.2765 10.883 53.1605 14.0131 54.2335C17.2086 55.3325 20.666 55.869 27.3845 56H28.6287C35.3601 55.856 38.8045 55.3325 42 54.2335C45.1301 53.1605 48.0112 51.2765 50.1065 48.9739C51.757 47.1552 53.407 44.3028 54.2845 41.6467C55.5285 37.8916 55.869 34.3196 55.9605 31.2318C56 29.8449 56 29.6486 56 28C56 26.3514 56 26.1682 55.9605 24.7682C55.856 21.6673 55.5285 18.1084 54.2845 14.3532C53.407 11.6972 51.757 8.83175 50.1065 7.02615C48.0112 4.72337 45.117 2.83925 42 1.76636C38.8045 0.66729 35.347 0.130841 28.6287 0H27.3845C20.653 0.143925 17.2086 0.66729 14.0131 1.76636C10.883 2.83925 8.00185 4.72337 5.89335 7.02615C4.24322 8.84485 2.59308 11.6972 1.71562 14.3532C0.484565 18.1084 0.14406 21.6673 0.039289 24.7682C0 26.1551 0 26.3514 0 28Z" fill="#229DEE"/>
<path d="M0 28C0 29.6486 0 29.8318 0.039289 31.2318C0.14406 34.3327 0.471469 37.8916 1.71562 41.6467C2.59308 44.3028 4.24322 47.1682 5.89335 48.9739C7.9888 51.2765 10.883 53.1605 14.0131 54.2335C17.2086 55.3325 20.666 55.869 27.3845 56H28.6287C35.3601 55.856 38.8045 55.3325 42 54.2335C45.1301 53.1605 48.0112 51.2765 50.1065 48.9739C51.757 47.1552 53.407 44.3028 54.2845 41.6467C55.5285 37.8916 55.869 34.3196 55.9605 31.2318C56 29.8449 56 29.6486 56 28C56 26.3514 56 26.1682 55.9605 24.7682C55.856 21.6673 55.5285 18.1084 54.2845 14.3532C53.407 11.6972 51.757 8.83175 50.1065 7.02615C48.0112 4.72337 45.117 2.83925 42 1.76636C38.8045 0.66729 35.347 0.130841 28.6287 0H27.3845C20.653 0.143925 17.2086 0.66729 14.0131 1.76636C10.883 2.83925 8.00185 4.72337 5.89335 7.02615C4.24322 8.84485 2.59308 11.6972 1.71562 14.3532C0.484565 18.1084 0.14406 21.6673 0.039289 24.7682C0 26.1551 0 26.3514 0 28Z" fill="#52C3F1"/>
<path d="M0 28C0 29.6486 0 29.8318 0.039289 31.2318C0.14406 34.3327 0.471469 37.8916 1.71562 41.6467C2.59308 44.3028 4.24322 47.1682 5.89335 48.9739C7.9888 51.2765 10.883 53.1605 14.0131 54.2335C17.2086 55.3325 20.666 55.869 27.3845 56H28.6287C35.3601 55.856 38.8045 55.3325 42 54.2335C45.1301 53.1605 48.0112 51.2765 50.1065 48.9739C51.757 47.1552 53.407 44.3028 54.2845 41.6467C55.5285 37.8916 55.869 34.3196 55.9605 31.2318C56 29.8449 56 29.6486 56 28C56 26.3514 56 26.1682 55.9605 24.7682C55.856 21.6673 55.5285 18.1084 54.2845 14.3532C53.407 11.6972 51.757 8.83175 50.1065 7.02615C48.0112 4.72337 45.117 2.83925 42 1.76636C38.8045 0.66729 35.347 0.130841 28.6287 0H27.3845C20.653 0.143925 17.2086 0.66729 14.0131 1.76636C10.883 2.83925 8.00185 4.72337 5.89335 7.02615C4.24322 8.84485 2.59308 11.6972 1.71562 14.3532C0.484565 18.1084 0.14406 21.6673 0.039289 24.7682C0 26.1551 0 26.3514 0 28Z" fill="#53C3F1"/>
<path d="M11 32.3495C11.0315 37.8317 15.5761 42.2328 21.1429 42.2174C22.8413 42.2174 24.5081 41.785 26.0021 40.9665V34.6042C24.4452 36.6117 21.536 37.0132 19.476 35.4844C17.416 33.9556 17.0229 31.0987 18.5797 29.0757C18.674 28.9676 18.7684 28.8441 18.8627 28.736C18.0293 27.2535 17.6047 25.5857 17.6047 23.887C17.6047 23.6245 17.6047 23.3465 17.6361 23.084C13.6576 24.4892 11 28.1955 11 32.3495Z" fill="white"/>
<path d="M17.6046 23.887C17.6046 25.5857 18.0292 27.2535 18.8626 28.736C19.7433 27.794 20.9856 27.2689 22.2908 27.2689C22.8097 27.2689 23.3129 27.3462 23.8004 27.516C23.25 26.713 22.967 25.771 22.967 24.8136C22.9827 22.0802 25.2472 19.8874 28.0306 19.9028C29.9805 19.9028 31.7418 21.0301 32.5595 22.7597C33.33 22.5898 34.1163 22.4972 34.9026 22.4972C36.082 22.4972 37.2456 22.6979 38.3464 23.084C37.8589 17.4629 32.8268 13.3088 27.1028 13.7875C21.7404 14.2354 17.6203 18.6211 17.5889 23.9025" fill="white"/>
<path d="M32.575 22.7596C33.2984 24.3039 33.1569 26.0952 32.1976 27.5159C32.6851 27.3615 33.1883 27.2843 33.7073 27.2843C36.2705 27.2843 38.3463 29.3382 38.3305 31.8553C38.3148 34.3725 36.2391 36.4109 33.6758 36.3955C32.2291 36.3955 30.8767 35.7314 29.9961 34.6041V40.9665C34.8238 43.6535 40.9567 41.9857 43.6929 37.2294C46.4291 32.473 44.7308 26.4658 39.8873 23.7788C38.362 22.9295 36.6479 22.4971 34.8867 22.4971C34.1004 22.4971 33.3141 22.5897 32.5593 22.7596" fill="white"/>
</g>
<defs>
<clipPath id="clip0_266_56188">
<rect width="56" height="56" fill="white"/>
</clipPath>
</defs>
</svg>
