<svg width="56" height="56" viewBox="0 0 56 56" fill="none" xmlns="http://www.w3.org/2000/svg">
<g clip-path="url(#clip0_266_56182)">
<path d="M0 28.0001C0 29.6486 0 29.8318 0.0392798 31.2318C0.144026 34.3327 0.471357 37.8916 1.71522 41.6468C2.59247 44.3029 4.24222 47.1683 5.89197 48.9739C7.9869 51.2769 10.8805 53.1608 14.0098 54.2336C17.2045 55.3328 20.6612 55.8695 27.378 56H28.6219C35.3518 55.856 38.7954 55.3328 41.9901 54.2336C45.1194 53.1608 47.9999 51.2769 50.1081 48.9739C51.7575 47.1552 53.4074 44.3029 54.2846 41.6468C55.5284 37.8916 55.869 34.3197 55.9605 31.2318C56 29.8449 56 29.6486 56 28.0001C56 26.3515 56 26.1683 55.9605 24.7682C55.856 21.6673 55.5284 18.1084 54.2846 14.3533C53.4074 11.6972 51.7575 8.8318 50.1081 7.02617C48.013 4.72337 45.1194 2.83926 41.9901 1.76636C38.7954 0.667288 35.3388 0.130841 28.6219 0H27.378C20.6481 0.143925 17.2045 0.667288 14.0098 1.76636C10.8805 2.83926 8.00001 4.72337 5.89197 7.02617C4.24222 8.8449 2.59247 11.6972 1.71522 14.3533C0.484451 18.1084 0.144026 21.6673 0.0392798 24.7682C0 26.1552 0 26.3515 0 28.0001Z" fill="#B19C52"/>
<path d="M40.9196 30.4645C39.513 33.968 37.1358 34.949 37.1358 34.949C44.1125 27.9139 39.8506 19.7998 39.8506 19.7998C38.8238 17.978 40.1319 17.1932 40.1319 17.1932C37.1358 17.936 38.0783 20.4164 38.0783 20.4164C39.5833 23.99 39.2738 26.8909 38.7674 28.6847L37.7828 28.1382V28.1101C37.7828 28.1101 40.1318 18.931 30.6092 15.7217V13.998H28.5837V25.3774L37.9376 30.6887C37.7688 31.0391 37.5859 31.3614 37.4031 31.6697L28.007 26.2463L18.5688 31.6697C18.386 31.3614 18.2031 31.0391 18.0343 30.6887L27.3881 25.3774V13.998H25.3767V15.7217C15.84 18.931 18.1749 28.1101 18.1749 28.1101V28.1382L17.2044 28.6847C16.698 26.8909 16.3885 23.99 17.8937 20.4164C17.8937 20.4164 18.8361 17.95 15.84 17.1932C15.84 17.1932 17.1481 17.992 16.1213 19.7998C16.1213 19.7998 11.8594 27.9139 18.8361 34.949C18.8361 34.949 16.4589 33.968 15.0523 30.4645C15.0523 30.4645 14.2506 28.7548 12 29.1332L13.3504 31.0671C13.3504 31.0671 15.3758 37.4855 23.1824 38.4525V41.998H27.0224V36.7848C27.0224 36.7848 22.9574 36.7568 19.8488 33.3374L20.8053 32.7768C20.9881 32.945 23.942 35.6637 27.9648 35.7478H27.993H28.0211C32.0439 35.6777 35.0119 32.945 35.1948 32.7768L36.1512 33.3374C33.0426 36.7428 28.9776 36.7848 28.9776 36.7848V41.998H32.8176V38.4525C40.6242 37.4715 42.6497 31.0671 42.6497 31.0671C43.142 29.5256 44 29.1332 44 29.1332C41.7495 28.7548 40.9477 30.4645 40.9477 30.4645M35.9543 27.0731L30.6796 24.1302L30.6514 17.8379H30.6796C30.6796 17.8379 37.0373 19.5616 35.9683 27.0731M25.3626 17.8379H25.3908L25.3626 24.1302L20.0879 27.0731C19.0049 19.5616 25.3767 17.8379 25.3767 17.8379M33.3099 31.6557L33.2677 31.6277C31.3829 33.1131 29.5965 33.5896 28.0352 33.5896C26.4739 33.5896 24.6875 33.0991 22.8027 31.6277L22.7605 31.6557L28.0492 28.5726L33.3099 31.6417V31.6557Z" fill="white"/>
</g>
<defs>
<clipPath id="clip0_266_56182">
<rect width="56" height="56" fill="white"/>
</clipPath>
</defs>
</svg>
