<svg width="40" height="40" viewBox="0 0 40 40" fill="none" xmlns="http://www.w3.org/2000/svg">
<g clip-path="url(#clip0_266_55961)">
<path d="M0 20C0 21.1776 0 21.3084 0.028057 22.3084C0.102876 24.5234 0.336685 27.0654 1.22516 29.7477C1.85176 31.6449 3.03016 33.6916 4.20857 34.9813C5.70493 36.6261 7.77179 37.9718 10.007 38.7382C12.289 39.5232 14.758 39.9064 19.5557 40H20.4443C25.2514 39.8971 27.711 39.5232 29.993 38.7382C32.2282 37.9718 34.2857 36.6261 35.7914 34.9813C36.97 33.6823 38.1482 31.6449 38.775 29.7477C39.6632 27.0654 39.9064 24.514 39.9718 22.3084C40 21.3178 40 21.1776 40 20C40 18.8224 40 18.6823 39.9718 17.6916C39.8971 15.4766 39.6632 12.9346 38.775 10.2523C38.1482 8.35514 36.97 6.30839 35.7914 5.01868C34.2951 3.37383 32.2282 2.02804 29.993 1.26168C27.711 0.476636 25.242 0.0934579 20.4443 0H19.5557C14.7486 0.102804 12.289 0.476636 10.007 1.26168C7.77179 2.02804 5.71429 3.37383 4.20857 5.01868C3.03016 6.31775 1.85176 8.35514 1.22516 10.2523C0.346037 12.9346 0.102876 15.4766 0.028057 17.6916C0 18.6823 0 18.8224 0 20Z" fill="#04A86C"/>
<path d="M26.3775 13.269C25.7094 14.2456 25.345 14.749 24.272 15.917C26.1244 14.8094 26.6305 14.7389 28.3513 13.7422C28.989 14.6886 29.1611 16.8835 29.1813 18.6254C29.7381 17.5178 30.4163 13.3696 30.1328 12.6145C31.1653 11.9399 31.1653 11.6781 31.4285 11.2251C30.3961 11.3157 29.8089 11.3358 29.2421 11.507C27.8148 10.631 24.8692 9.73493 22.4702 9.55371C23.2193 9.86582 26.2661 11.517 26.6508 12.0305C25.0413 12.242 21.9641 13.1481 20.4053 13.9637C22.1868 13.571 24.6769 13.3696 26.3876 13.279L26.3775 13.269Z" fill="white"/>
<path d="M21.0835 26.8719C20.628 27.476 20.2534 27.9291 19.7473 28.4829C18.897 28.7144 18.2188 28.8051 17.3989 28.8051C17.905 29.0668 18.4111 29.2279 18.9375 29.3286C18.4111 29.8119 17.9455 30.1542 17.4394 30.4764C18.3099 30.275 19.4335 29.9025 20.2838 29.4091C20.7191 29.4192 21.1644 29.4092 21.458 29.3487C21.3871 29.087 21.3264 28.8957 21.2555 28.5634C22.0552 27.9492 22.6322 27.3955 23.28 26.731C22.5816 27.2243 21.9742 27.5969 21.1746 27.9794C21.1341 27.6069 21.1138 27.2847 21.0936 26.8719H21.0835Z" fill="white"/>
<path d="M11.3863 21.4451C11.3863 21.4451 13.9675 19.0589 15.081 18.4548C15.081 18.4548 15.6479 20.398 16.0528 21.3646C16.0528 21.3646 16.4171 19.1193 17.0043 17.8306C17.0043 17.8306 17.1662 17.7299 17.9962 17.6493C18.8161 17.5789 19.9701 17.5285 22.197 17.9111C22.197 17.9111 20.1523 16.6224 17.6318 16.2801C17.733 15.9377 18.0873 15.2027 18.4011 14.8101C17.9355 14.8805 16.6297 15.4645 15.7592 16.1391C15.7592 16.1391 15.1822 16.0686 14.2206 16.0988C13.259 16.1391 11.9937 16.3807 11.4977 16.5821C12.4391 16.6224 13.7246 16.854 14.2206 17.3473C14.2206 17.3473 12.7832 18.6361 11.3762 21.4451H11.3863Z" fill="white"/>
<path d="M11.6696 27.6375C12.0948 28.5638 12.5401 29.188 13.269 29.8928C13.0969 29.2887 13.0665 28.7954 13.1273 28.1611C14.0484 28.4228 14.8075 28.5738 15.84 28.6041C14.848 28.2416 14.1395 27.8187 13.3702 27.0938C13.603 26.4595 13.8763 25.9561 14.3014 25.3218C13.5018 25.4325 12.9248 25.5332 12.2365 25.6641C11.6798 24.6874 11.4267 23.741 11.1433 22.4321C10.9813 23.8115 10.9307 24.8183 11.123 25.9259C10.4853 26.097 10.0399 26.238 9.52368 26.4696C10.2525 26.9126 10.8497 27.265 11.6696 27.6375Z" fill="white"/>
<path d="M21.2454 28.5628C21.3162 28.8951 21.377 29.0964 21.4478 29.3482C21.1441 29.4086 20.7089 29.4287 20.2736 29.4086C19.4233 29.9019 18.2998 30.2744 17.4293 30.4758C17.9354 30.1536 18.401 29.8113 18.9274 29.328C18.401 29.2173 17.8848 29.0663 17.3888 28.8045C18.2188 28.8045 18.8869 28.7138 19.7371 28.4823C20.2433 27.9285 20.6178 27.4654 21.0733 26.8713C21.0935 27.2942 21.1138 27.6063 21.1543 27.9789C21.9539 27.5963 22.5613 27.2137 23.2597 26.7304C22.6018 27.3949 22.0349 27.9487 21.2353 28.5628H21.2454ZM22.46 9.53351C24.859 9.71472 27.8046 10.6209 29.2319 11.4868C29.7988 11.3156 30.3859 11.2955 31.4183 11.2049C31.1551 11.6579 31.1551 11.9197 30.1226 12.5943C30.4061 13.3494 29.7279 17.4976 29.1711 18.6052C29.1509 16.8633 28.9788 14.6684 28.3411 13.722C26.6305 14.7188 26.1142 14.7993 24.2618 15.8968C25.3449 14.7288 25.7093 14.2355 26.3673 13.2488C24.6566 13.3394 22.1665 13.5508 20.385 13.9334C21.9438 13.1179 25.021 12.2117 26.6305 12.0003C26.2458 11.4868 23.2091 9.82551 22.4499 9.52344L22.46 9.53351ZM11.5076 16.5713C11.9935 16.37 13.2588 16.1283 14.2306 16.088C15.1922 16.0578 15.7692 16.1283 15.7692 16.1283C16.6397 15.4437 17.9455 14.8698 18.4111 14.7993C18.0973 15.192 17.7329 15.9269 17.6418 16.2693C20.1623 16.6116 22.207 17.9004 22.207 17.9004C19.9801 17.5077 18.8261 17.5681 18.0062 17.6386C17.1762 17.7191 17.0142 17.8198 17.0142 17.8198C16.4271 19.1086 16.0627 21.3538 16.0627 21.3538C15.6578 20.3873 15.091 18.444 15.091 18.444C13.9775 19.0381 11.3963 21.4344 11.3963 21.4344C12.8033 18.6253 14.2407 17.3365 14.2407 17.3365C13.7447 16.8432 12.4592 16.6116 11.5178 16.5713H11.5076ZM11.1433 22.4211C11.4267 23.73 11.6798 24.6764 12.2365 25.653C12.9248 25.5222 13.5119 25.4215 14.3014 25.3107C13.8763 25.945 13.603 26.4484 13.3702 27.0828C14.1496 27.8077 14.8581 28.2306 15.84 28.593C14.8075 28.5628 14.0383 28.4118 13.1273 28.15C13.0665 28.7843 13.0969 29.2777 13.269 29.8818C12.5401 29.1669 12.0948 28.5528 11.6696 27.6265C10.8497 27.2539 10.2525 26.9015 9.52368 26.4585C10.0399 26.2269 10.4954 26.086 11.123 25.9148C10.9307 24.8073 10.9813 23.8005 11.1433 22.4211Z" fill="white"/>
</g>
<defs>
<clipPath id="clip0_266_55961">
<rect width="40" height="40" fill="white"/>
</clipPath>
</defs>
</svg>
