<svg width="56" height="56" viewBox="0 0 56 56" fill="none" xmlns="http://www.w3.org/2000/svg">
<g clip-path="url(#clip0_266_56045)">
<path d="M0 28C0 29.6486 0 29.8318 0.039289 31.2318C0.14406 34.3327 0.471469 37.8916 1.71562 41.6467C2.59308 44.3028 4.24322 47.1682 5.89335 48.9739C7.9888 51.2765 10.883 53.1605 14.0131 54.2335C17.2086 55.3325 20.666 55.869 27.3845 56H28.6287C35.3601 55.856 38.8045 55.3325 42 54.2335C45.1301 53.1605 48.0112 51.2765 50.1065 48.9739C51.757 47.1552 53.407 44.3028 54.2845 41.6467C55.5285 37.8916 55.869 34.3196 55.9605 31.2318C56 29.8449 56 29.6486 56 28C56 26.3514 56 26.1682 55.9605 24.7682C55.856 21.6673 55.5285 18.1084 54.2845 14.3532C53.407 11.6972 51.757 8.83175 50.1065 7.02615C48.0112 4.72337 45.117 2.83925 42 1.76636C38.8045 0.66729 35.347 0.130841 28.6287 0H27.3845C20.653 0.143925 17.2086 0.66729 14.0131 1.76636C10.883 2.83925 8.00185 4.72337 5.89335 7.02615C4.24322 8.84485 2.59308 11.6972 1.71562 14.3532C0.484565 18.1084 0.14406 21.6673 0.039289 24.7682C0 26.1551 0 26.3514 0 28Z" fill="#1D62E5"/>
<path d="M27.2805 12.0165C18.4502 12.4193 11.6187 19.899 12.0165 28.7244C12.4143 37.5498 19.8941 44.3862 28.7244 43.9835C37.5498 43.5808 44.3813 36.1059 43.9834 27.2756C43.5856 18.4551 36.1059 11.6187 27.2805 12.0165ZM29.1516 27.5457C31.9952 30.1683 33.5521 31.5778 33.5521 31.5778C38.5664 35.7523 36.8524 39.5683 34.937 40.8943C33.4784 41.906 31.8577 42.3824 29.7361 42.4954C29.5445 42.5199 29.1959 42.4119 29.1811 42.073C29.1664 41.7096 29.6968 41.6212 29.6968 41.6212C34.4312 40.6881 33.0462 37.5842 31.3715 36.0028C30.6692 35.3349 24.0784 29.6526 24.0784 29.6526C17.797 24.2454 18.2979 20.0218 18.2979 20.0218C18.6024 14.8257 23.1502 13.539 26.5929 13.8337C26.9956 13.8681 27.2216 14.1136 27.1479 14.4525C27.0742 14.8159 26.5389 14.8454 26.5389 14.8454C25.4437 14.9092 24.4664 15.0222 23.7199 15.5231C20.945 17.3894 21.7652 20.562 25.4633 24.0932C25.9299 24.5401 26.421 25.0066 26.9269 25.483C26.9269 25.483 27.6685 26.1362 29.1467 27.5457H29.1516ZM27.0055 40.9778C27.0349 41.4837 25.8022 41.7047 24.3976 41.5672C22.6296 41.3953 20.5178 40.8354 18.681 39.2491C16.9915 37.7856 15.9455 35.7769 15.4347 34.0138C14.9141 32.2064 14.698 30.0897 15.5575 30.2567C15.8227 30.3107 16.2794 31.4698 16.7754 32.3145C17.2862 33.1887 17.7086 33.67 18.0966 33.9647C18.2734 34.0973 18.8774 32.7565 19.7565 31.9953C20.2673 31.5729 20.8272 31.4305 20.9156 32.6877C21.0236 34.2299 20.7486 36.0617 21.1955 36.0617C21.6179 36.0617 22.5657 35.7474 24.6481 35.5706C25.429 35.5019 25.8759 35.6492 25.1294 36.7051C24.7561 37.2306 24.2552 37.9722 23.0765 38.8169C24.8445 40.4769 26.9711 40.2755 27.0104 40.9778H27.0055ZM28.4002 24.8495C28.2676 24.3289 28.2333 23.6757 28.3413 22.8408C28.5623 21.0924 29.0338 20.2723 29.5691 18.9217C30.291 17.1045 28.5378 16.0388 28.8275 15.3709C29.2253 14.4672 30.4826 15.6164 31.8774 15.6999C33.0806 15.7687 33.8075 15.7048 34.7455 15.8325C35.988 15.9995 37.481 16.4219 38.1391 17.1978C38.7481 17.91 37.8199 18.7793 36.7002 18.2341C35.8849 17.8363 34.8535 18.0819 35.4576 18.9315C36.1845 19.7418 36.5332 19.7615 37.2698 19.9579C39.308 20.4933 39.3473 22.443 37.9721 23.4547C36.4006 24.6039 34.8143 24.1275 34.1758 21.8733C33.8566 20.7486 33.061 20.1789 32.2506 20.4982C31.4403 20.8174 31.9216 22.2957 32.5355 23.6659C33.7682 26.809 30.7085 26.701 30.35 26.6617C28.7244 26.3179 28.3953 24.8446 28.3953 24.8446L28.4002 24.8495Z" fill="white"/>
</g>
<defs>
<clipPath id="clip0_266_56045">
<rect width="56" height="56" fill="white"/>
</clipPath>
</defs>
</svg>
