<svg width="40" height="40" viewBox="0 0 40 40" fill="none" xmlns="http://www.w3.org/2000/svg">
<g clip-path="url(#clip0_266_55990)">
<path d="M0 20C0 21.1775 0 21.3084 0.0280636 22.3084C0.1029 24.5233 0.336763 27.0654 1.22544 29.7476C1.8522 31.6448 3.03087 33.6915 4.20954 34.9812C5.70629 36.6262 7.77361 37.9718 10.0094 38.738C12.2919 39.5232 14.7615 39.9064 19.5603 40H20.449C25.2573 39.8971 27.7175 39.5232 30 38.738C32.2358 37.9718 34.2938 36.6262 35.7904 34.9812C36.9693 33.6822 38.1479 31.6448 38.7746 29.7476C39.6632 27.0654 39.9064 24.514 39.9718 22.3084C40 21.3177 40 21.1775 40 20C40 18.8224 40 18.6915 39.9718 17.6916C39.8971 15.4766 39.6632 12.9346 38.7746 10.2523C38.1479 8.35511 36.9693 6.3084 35.7904 5.01867C34.2938 3.37382 32.2264 2.02803 30 1.26168C27.7175 0.476634 25.2479 0.0934578 20.449 0H19.5603C14.7521 0.102804 12.2919 0.476634 10.0094 1.26168C7.77361 2.02803 5.71561 3.37382 4.20954 5.01867C3.03087 6.31772 1.8522 8.35511 1.22544 10.2523C0.346118 12.9346 0.1029 15.4766 0.0280636 17.6916C0 18.6822 0 18.8224 0 20Z" fill="#002561"/>
<path d="M34.9971 27.0016C35.0147 26.9238 34.9478 26.6832 34.9302 26.6019H34.9232V26.5701H34.9162L34.9127 26.5382H34.9021V26.5099H34.8915V26.4887H34.881V26.4569H34.8704L34.8599 26.4144H34.8493C34.8423 26.3154 34.7544 26.2305 34.7121 26.1421C34.6488 26.0218 34.5362 25.9228 34.4553 25.8202H34.4342L34.392 25.7601H34.3709C34.3568 25.7424 34.0473 25.3887 34.0297 25.3922V25.3851C34.0121 25.3639 33.502 24.9041 33.4915 24.8758H33.4739C33.3578 24.7379 33.1256 24.5398 33.0201 24.4018C33.006 24.4018 32.9779 24.3842 32.9673 24.3736L32.9603 24.3488C32.9357 24.3311 32.897 24.3205 32.8759 24.2957L32.8653 24.2745C32.8372 24.2498 32.7844 24.225 32.7527 24.2073V24.1967H32.7316V24.1826C32.6753 24.1295 32.5557 24.0163 32.503 23.9597V23.942L32.4713 23.9137V23.9067H32.4502L32.3693 23.8005H32.3482L32.3165 23.7546H32.2954L32.2743 23.7192H32.2532L32.2321 23.6838H32.211L32.2004 23.6591H32.1829C32.1653 23.6378 32.0034 23.4645 31.9859 23.4575V23.4398L31.9612 23.4256V23.4079L31.9401 23.3938V23.3867L31.919 23.3726V23.3549H31.9085L31.8768 23.2983H31.8557C31.8416 23.2771 31.4441 22.9021 31.4406 22.8774L31.4019 22.8597L31.3914 22.8385L31.3491 22.8208C31.226 22.6722 31.0466 22.4954 30.9235 22.3468H30.9059L30.8742 22.2973H30.8566L30.825 22.2513H30.8039L30.7828 22.216L30.7617 22.2089L30.6174 22.0426H30.6069L30.5963 22.0108L30.5752 21.9967V21.9754C30.5365 21.9754 29.9491 21.2645 29.9139 21.2574L29.9033 21.2256L29.8857 21.215V21.1938L29.8611 21.1796V21.1584L29.8295 21.1372V21.1159L29.8083 21.1018V21.0841L29.7556 21.0381V21.0204C29.7556 21.0204 29.6958 20.9674 29.6958 20.9426H29.6747C29.6395 20.8683 29.5375 20.8047 29.4953 20.7375H29.4742L29.4319 20.6773H29.4108L29.4038 20.6526H29.3827L29.3581 20.6172H29.3405L29.3264 20.5925C29.3264 20.5925 29.3053 20.5889 29.3053 20.5854V20.5818V20.5642H29.2948L29.2807 20.55L29.2068 20.4404V20.4298L29.1963 20.4227L29.1822 20.4015L29.1751 20.3767L29.1576 20.3661V20.3484H29.147L29.1365 20.3166L29.1153 20.3024V20.2847L29.0872 20.26L29.0731 20.2423V20.2317L29.0555 20.2175L29.0063 20.1433L28.9746 20.1256L28.957 20.1079L28.95 20.076H28.9289V20.0548H28.9078C28.8902 20.0301 28.7495 19.9063 28.746 19.8815H28.7284L28.7143 19.8532H28.6967L28.6756 19.8178L28.6369 19.8002L28.6264 19.7825L28.5947 19.7648V19.7577L28.5314 19.7294V19.7188H28.5138V19.7047L28.454 19.6764V19.6693L28.4012 19.6481V19.641H28.3801V19.6268H28.3485V19.6127L28.3274 19.6056V19.595H28.2957V19.5809H28.2746V19.5667L28.2042 19.542V19.5313H28.1726V19.5172L28.1304 19.5101V19.4995L28.0776 19.4924V19.4818L28.0284 19.4712V19.4606L27.863 19.4217V19.4146L27.4163 19.3474V19.3545L27.36 19.3474V19.3545L27.3107 19.3474V19.3545H27.2791V19.358L27.2369 19.3474V19.358L27.1946 19.351V19.3616L27.1735 19.3545V19.3651H27.1137V19.3722H27.0961V19.3757H27.068V19.3792H27.0258V19.3899H26.9941V19.3934L26.9343 19.4005V19.4111L26.9167 19.404V19.4182H26.8745L26.864 19.4358H26.8218L26.8112 19.4571H26.7866V19.4641H26.7584L26.7514 19.4854H26.7303L26.7127 19.5066L26.6916 19.4995L26.6705 19.5243H26.6494L26.6177 19.5561H26.5966C26.5509 19.5561 25.5131 20.1998 25.4604 20.1715V20.1822H25.4322L25.4217 20.1998H25.4006V20.2069C25.3935 20.2069 25.2915 20.267 25.1965 20.3272L23.7613 21.0063C23.7437 20.9745 23.705 20.9002 23.705 20.8719L23.6839 20.8577L23.6733 20.8153H23.6628L23.6522 20.7835L23.6311 20.7693V20.7516L23.61 20.7375V20.7198L23.5784 20.695V20.6773L23.5502 20.6526V20.6314L23.5045 20.596V20.5783H23.4939C23.4939 20.5783 23.311 20.313 23.2969 20.2953H23.2864L23.2653 20.2317H23.2547V20.214H23.2442V20.1928H23.2336V20.1715H23.2231V20.1503L23.1984 20.1256V20.1043C23.1773 20.1043 23.1175 19.9876 23.107 19.9735V19.9558L23.0859 19.9416V19.924L23.0542 19.8992V19.878C23.0155 19.8674 22.9135 19.6551 22.8924 19.6233H22.8818V19.5915H22.8713L22.8572 19.542H22.8467V19.5207H22.8361V19.4924H22.8256L22.815 19.45H22.8044V19.4288H22.7939V19.3969L22.7728 19.3863V19.3651H22.7622V19.3474H22.7517V19.3262L22.7306 19.3014V19.2837L22.7095 19.2661L22.6954 19.2236H22.6848L22.6743 19.1918L22.6532 19.1776V19.16L22.625 19.1352V19.1175L22.6004 19.1034V19.0857L22.5688 19.0609L22.5582 19.0291H22.5476C22.5195 18.9866 22.4597 18.8982 22.4351 18.8558H22.4245V18.8239H22.414V18.7921H22.4034V18.7638H22.3929V18.739H22.3823V18.7107H22.3718V18.6895H22.3612V18.6577H22.3507L22.3331 18.594H22.3225V18.5728H22.3084V18.5516H22.2979V18.5304H22.2873L22.2627 18.4667L22.2451 18.4561L22.2346 18.4136L22.2135 18.3995V18.3818H22.2029L22.1888 18.35L22.1677 18.3394V18.3217L22.1396 18.2969V18.2792L22.1079 18.2545V18.2368L22.0552 18.1908V18.1731L21.8793 17.922H21.8687L21.8582 17.8725H21.8476L21.8371 17.83H21.8265V17.8017H21.8159L21.8019 17.7593H21.7913L21.7808 17.7204L21.7597 17.7062L21.7386 17.6461L21.7175 17.632L21.7069 17.5895L21.6858 17.5789V17.5577L21.6576 17.5329V17.5117L21.6365 17.4975V17.4799L21.6049 17.4551V17.4374L21.5627 17.402V17.3844L21.5134 17.3384V17.3207L21.334 17.0696H21.3235L21.3129 17.0271H21.3024V16.9988H21.2918L21.2707 16.9352H21.2637L21.2531 16.8927L21.232 16.8821V16.8609H21.2214V16.8397L21.1968 16.8184V16.7972H21.1863L21.1757 16.7654L21.1546 16.7512V16.7335L21.1335 16.7229V16.7017L21.1018 16.6769V16.6593L21.0702 16.6345V16.6168L21.028 16.5814C21.0456 16.5567 20.8415 16.2525 20.8415 16.2348H20.831L20.8099 16.1712H20.7993V16.1535H20.7888V16.1322H20.7782V16.111H20.7676V16.0898H20.7571V16.0686H20.7465V16.0474H20.736V16.0261H20.7254L20.7184 16.0474C20.7219 16.0403 20.729 16.0191 20.7254 16.012V16.0014H20.7149C20.7149 16.0014 20.7149 15.9978 20.7149 15.9943C20.7149 15.9943 20.7149 15.9943 20.7184 15.9943C20.7184 15.9872 20.831 15.7396 20.838 15.7255L20.8591 15.7113V15.6937L20.8802 15.6866V15.6583H20.8873V15.6406H20.8978L20.9084 15.6088H20.9189V15.584H20.9295L20.94 15.5486H20.9506L21.0596 15.202H21.0667V15.1666H21.0772V15.1207H21.0878V15.0676H21.0983V15.011H21.1089L21.1054 14.9297H21.1194V14.8165H21.1229C21.1229 14.7882 21.2179 14.3213 21.2109 14.2965H21.2214V14.2682H21.232C21.2637 14.0808 21.2637 13.4017 21.232 13.2107H21.2214V13.1717H21.2109V13.1399H21.1968V13.1081H21.1898L21.1581 12.9772H21.1476V12.956H21.137L21.1265 12.8959H21.1159L21.1018 12.8534H21.0948L20.9893 12.528H20.9787L20.9682 12.4573H20.9576V12.429H20.9506V12.3971H20.9365V12.3759H20.9259V12.3441H20.9154V12.3229H20.9048V12.2946H20.8943L20.8697 12.2309H20.8626V12.2097H20.8521V12.1849H20.8415V12.1672H20.831V12.1425H20.8204V12.1248L20.7958 12.1V12.0823H20.7888L20.7747 12.0505L20.7571 12.0364V12.0151H20.7465L20.736 11.9798L20.7184 11.9691V11.9515L20.6832 11.9267V11.909C20.6656 11.8984 20.5073 11.7145 20.4897 11.6933V11.6756L20.4686 11.6614V11.6544H20.4475L20.4088 11.5942H20.3877L20.3561 11.5482H20.335L20.3244 11.5235H20.3033L20.2927 11.4987H20.2752L20.2646 11.474H20.2435L20.2329 11.4492H20.2118L20.2013 11.4244L20.1591 11.4068L20.1485 11.3855L20.1063 11.3679V11.3608L20.043 11.3325V11.3219H20.0113V11.3077L19.9691 11.29V11.2794H19.9375V11.2653H19.9163V11.2511H19.8847V11.237L19.853 11.2299V11.2193H19.8249V11.2051L19.7932 11.1981V11.1875L18.9877 11V11.0071L18.9349 11V11.0071L18.8927 11V11.0071L18.8505 11V11.0106H18.8188V11.0141L18.7871 11.0071V11.0177H18.759V11.0212H18.6992V11.0283H18.6781V11.0354L18.6499 11.0283V11.0354H18.6077V11.046H18.5761V11.0495L18.5163 11.0566V11.0672H18.4952V11.0743H18.4529L18.4424 11.092H18.4002L18.3896 11.1132C18.3826 11.1026 18.2067 11.1379 18.1961 11.1415V11.1521H18.1786V11.1556H18.1469V11.1592H18.1258V11.1627H18.0941V11.1662H18.0519V11.1769H18.0203H17.978V11.191L17.9499 11.1839L17.9394 11.2016H17.9182V11.2051H17.8971V11.2122H17.876L17.8584 11.2264H17.8373L17.8303 11.2405L17.7705 11.2476V11.2582H17.7388L17.7283 11.283H17.7072L17.6966 11.2971L17.6755 11.29V11.3006H17.6474L17.6333 11.3219H17.6122L17.5911 11.3431H17.5735L17.5313 11.3785H17.5102L17.482 11.4068H17.4609L17.38 11.474H17.3589L17.3413 11.4952H17.3167V11.5199L17.2252 11.5801V11.5978L17.183 11.619V11.6402L17.1443 11.6579V11.6756L17.1127 11.6862V11.7074L17.0916 11.7145V11.7322L17.0634 11.7463L17.0529 11.7817L17.0353 11.7888L17.0247 11.8135H17.0142L17.0036 11.8489L16.9825 11.856V11.8736H16.9755V11.8913L16.9544 11.909V11.9267L16.9333 11.9338V11.9515H16.9227V11.9656L16.6518 12.3335V12.3511L16.6096 12.3724V12.3936H16.5885V12.4077H16.5674V12.4325L16.5358 12.4431L16.5252 12.4714H16.5041V12.4962L16.483 12.5032V12.5209L16.4548 12.5315L16.4443 12.5669L16.4267 12.574L16.4162 12.6094H16.395L16.3845 12.6518H16.3669V12.6766L16.3458 12.6907V12.7084H16.3352V12.7261H16.3247V12.7438H16.3141V12.7614H16.3036L16.286 12.8145H16.2754L16.2649 12.8569H16.2543L16.2438 12.8923H16.2332V12.9171H16.2227V12.9348H16.2121L16.191 13.0126H16.1805V13.0303H16.1699V13.0656H16.1594V13.0939H16.1523V13.1222H16.1418V13.1505H16.1312L16.0011 13.3309V13.3486L15.9729 13.3663V13.384L15.9413 13.3981V13.4158L15.9201 13.4229V13.4406H15.899V13.4653L15.8744 13.4724V13.4901L15.8568 13.4972V13.5184H15.8357L15.8252 13.5573H15.8041V13.582H15.7935V13.5962H15.783V13.6139L15.7618 13.628V13.6457L15.7407 13.6528V13.6705H15.7337V13.6882H15.7231V13.7129H15.702V13.7447H15.6915V13.7624H15.6809L15.6704 13.7943H15.6633V13.8226H15.6528V13.8402H15.6422V13.865H15.6317V13.8827H15.6211V13.911H15.6106V13.9251H15.5965V13.964H15.5895V13.9888H15.5789V14.0171L15.4277 14.2364V14.2541L15.3784 14.2824V14.3036L15.3503 14.3177V14.3354H15.3256L15.3186 14.3673H15.3081V14.3849L15.2869 14.392V14.4097H15.2658V14.4345H15.2447V14.4592H15.2236V14.484L15.206 14.4911L15.1955 14.5229L15.1779 14.53V14.5583L15.1568 14.5653L15.1392 14.6184H15.1251V14.6361H15.1146V14.6538H15.104L15.0829 14.7068H15.0724V14.7316H15.0618V14.7493H15.0477L15.0407 14.7811H15.0301V14.8059H15.0196V14.8235H15.009L14.9985 14.8766H14.9879V14.8907H14.9774V14.919H14.9668V14.9473H14.9422V14.9721H14.9352V15.0075H14.9211L14.9246 15.0358H14.9141V15.0605H14.9035V15.103C14.893 15.1207 14.8015 15.2338 14.8015 15.2551L14.7593 15.2763V15.294L14.7311 15.3081L14.7382 15.3364H14.7135V15.3612L14.696 15.3682V15.3859L14.6749 15.393V15.4107L14.6537 15.4178V15.4354H14.6326L14.6221 15.4744L14.6045 15.4814L14.5939 15.5168L14.5728 15.5239V15.5416L14.5517 15.5557V15.5769H14.5412L14.5447 15.5946H14.5306V15.6123H14.5166L14.5201 15.63H14.506V15.6441H14.4954V15.6654H14.4849V15.6795H14.4743L14.4532 15.729H14.4462V15.7573H14.4321L14.4216 15.7927H14.411V15.8174H14.4005V15.8351H14.3899L14.3723 15.9165H14.3618V15.9306H14.3477L14.2281 16.1146V16.1322L14.1683 16.1676V16.1853L14.119 16.2136V16.2313L14.0768 16.249V16.2667H14.0557L14.0452 16.2985H14.0381V16.3162L14.0065 16.3303V16.348L13.9854 16.3551L13.9748 16.3905L13.9432 16.4011V16.4223H13.9256L13.9045 16.4824H13.8869V16.5072L13.8658 16.5213V16.539H13.8552V16.5532H13.8447V16.5708H13.8341V16.5885H13.8235V16.6062H13.813V16.6239H13.8024V16.6416H13.7919L13.7708 16.6946H13.7602V16.7194H13.7497L13.7391 16.7548H13.7286V16.7831H13.718V16.7972H13.7075L13.7004 16.8503H13.6864V16.868H13.6758L13.6652 16.9281H13.6547V16.9422H13.6477L13.4964 17.112V17.1297L13.4471 17.158V17.1757L13.3944 17.204L13.3873 17.2393L13.3557 17.2535V17.2712L13.324 17.2818L13.3135 17.3101L13.2924 17.3172V17.3348H13.2818V17.3525H13.2607L13.2537 17.395L13.2255 17.4091L13.215 17.4445H13.1939V17.4657L13.1728 17.4834V17.5011H13.1622V17.5188H13.1552V17.5365H13.1446V17.5541H13.1341V17.5718H13.1235V17.586H13.113V17.6037H13.1024V17.6213H13.0918L13.0848 17.6567H13.0707V17.6709L12.8034 17.9644H12.7858L12.7541 17.9927H12.7471V18.0104C12.7295 18.0104 12.7049 18.0352 12.6943 18.0458H12.6838V18.0635H12.6732L12.6556 18.0953H12.6345V18.1095C12.6205 18.1271 12.5783 18.1767 12.5501 18.1802V18.2014L12.5184 18.212L12.5114 18.2509L12.4798 18.2651V18.2828H12.4692V18.3005L12.4516 18.3075L12.4375 18.3429H12.42L12.4094 18.3853H12.3918V18.4101L12.3707 18.4242V18.4455H12.3601V18.4632H12.3496V18.4773H12.3355V18.4915H12.3285V18.5091H12.3179V18.5268H12.3074V18.541H12.2968L12.2792 18.594H12.2652V18.6223H12.2546V18.6365H12.2441V18.6648H12.2335L12.2089 18.6931H12.1983L11.9451 19.0043V19.022L11.9275 19.0291V19.0397H11.9099V19.0645L11.8571 19.0927V19.114L11.829 19.1281V19.1458L11.7973 19.1564V19.1741L11.7762 19.1812V19.2024L11.7586 19.2095V19.2272H11.741V19.2519H11.7199V19.2767H11.7094L11.7129 19.2944H11.6883L11.6812 19.3368H11.6566L11.6496 19.3792H11.6285V19.404L11.6109 19.4182V19.4394H11.5968V19.4535H11.5862V19.4712H11.5757V19.4889H11.5651V19.5066H11.5546L11.5335 19.5561H11.5229V19.5844H11.5124V19.6021H11.5018L11.4913 19.6339H11.4807L11.4596 19.6764L11.2485 19.9063H11.2309L11.2098 19.9169V19.9381L11.1711 19.9593V19.977L11.1219 20.0018V20.023L11.0691 20.0513V20.069L11.041 20.0831V20.1008L11.0128 20.115V20.1326H10.9917V20.1574H10.9706V20.1822L10.9495 20.1892V20.2105H10.9284L10.9179 20.2529H10.8968L10.8862 20.2953H10.8651C10.8545 20.3201 10.4289 20.9214 10.4148 20.9426V20.9603L10.362 20.9886V21.0063L10.3128 21.0346V21.0523H10.2917V21.077L10.26 21.0876V21.1053L10.2319 21.1195L10.2213 21.1548L10.1897 21.169L10.1791 21.2044H10.158L10.1475 21.2362H10.1404L10.1228 21.2893L10.1017 21.2963L10.0806 21.3494H10.0595C10.049 21.3777 9.65498 21.7491 9.66201 21.7809L9.56351 21.8481V21.8658L9.51426 21.8941V21.9118L9.4615 21.9401L9.45094 21.9648H9.43336L9.42632 22.0073L9.38059 22.0285V22.0462H9.363V22.0709H9.34189L9.33134 22.1028H9.32079L9.31375 22.1381C9.2645 22.2124 9.15193 22.269 9.09565 22.3291H9.07454L9.06399 22.3433H9.04288L9.00067 22.3787H8.97956L8.96197 22.4282H8.94087L8.87755 22.4777H8.85644C8.82126 22.5131 8.72628 22.6263 8.67703 22.6404V22.6581H8.65593V22.6722L8.61723 22.6935V22.7111H8.61019L8.55743 22.7359H8.53632V22.75C8.50114 22.7819 8.45189 22.8632 8.40616 22.8774L8.38506 22.9021V22.9198H8.36395V22.9446H8.34284V22.9658L8.32174 22.9835V23.0012H8.30063V23.0259H8.29008V23.0436C8.27601 23.0507 8.25842 23.0684 8.25138 23.0825V23.1002C8.1951 23.1391 7.92774 23.3301 7.88553 23.3726H7.85387L7.81518 23.4044V23.4221H7.80462L7.73427 23.4928H7.72371C7.64632 23.5989 7.4247 23.7616 7.31213 23.8324H7.29103L7.28047 23.8465L7.25937 23.8395L7.24881 23.8571H7.22771V23.8607H7.19956L7.19253 23.8819H7.17142L7.15031 23.9067L7.12921 23.8996L7.1081 23.9243H7.08699L7.07644 23.9385L6.99553 23.9703V23.988L6.89352 24.0375V24.0552L6.87593 24.0694H6.85482C6.85482 24.0694 6.78798 24.1189 6.77391 24.126V24.1472L6.71059 24.1719V24.1932L6.6719 24.2144V24.2321L6.62265 24.2604V24.2781L6.5734 24.3063V24.324L6.54526 24.3382V24.3594L6.5136 24.37L6.50304 24.4089L6.47138 24.4231V24.4408H6.45028V24.4655H6.42917L6.41862 24.4938H6.41158L6.38696 24.5469H6.36937V24.5681H6.35881V24.5858H6.34826V24.6035L6.32715 24.6176V24.6353L6.30956 24.6424L6.29901 24.6848L6.2779 24.6919L6.26735 24.7379H6.26032V24.7556H6.24976L6.22866 24.8051H6.21458L6.20755 24.8581H6.197L6.18644 24.89H6.17589L6.1583 24.9713H6.14423V24.989H6.13368V25.0279H6.12312V25.0527H6.11257V25.081H6.10202L6.09146 25.1411H6.08091V25.1765H6.07036V25.2224H6.06332L6.05628 25.3073H6.04573V25.3604H6.03518V25.417H6.02462L6.01055 25.7601H6L6.02462 26.1208H6.03518L6.04573 26.2588H6.05628V26.3189H6.07036V26.3578H6.07739V26.3967H6.08794L6.10202 26.4852H6.10905L6.12312 26.5559H6.13368V26.5842H6.14423V26.616H6.1583V26.6549H6.16534V26.6726H6.17589V26.7151H6.18644V26.7363H6.197L6.21107 26.7964H6.22162L6.23217 26.8389H6.24273V26.8672H6.25328L6.26383 26.9061H6.27439V26.9379L6.29549 26.9521V26.9803H6.30605V27.0016H6.31308V27.0228H6.32364V27.044H6.33419V27.0652H6.34474L6.3553 27.1077L6.3764 27.1218L6.39751 27.182L6.41862 27.1926L6.43972 27.2527L6.45731 27.2669V27.2845L6.47842 27.3022V27.3199L6.49953 27.3341V27.3517H6.51008L6.52063 27.3836L6.54174 27.3977V27.4154L6.56988 27.4402V27.4578L6.59099 27.472V27.4897L6.63672 27.5286V27.5463L6.67541 27.5816V27.5993L6.74929 27.6701V27.6878C6.80205 27.7373 6.91814 27.8681 6.96387 27.9283H6.98498L7.03775 27.999H7.05885L7.10107 28.0591H7.12217L7.14328 28.0945H7.16439L7.17494 28.1193H7.19605L7.21715 28.1546H7.23826L7.24881 28.1794L7.27695 28.1936V28.2042L7.29806 28.2077L7.31213 28.2289H7.33324L7.35435 28.2643L7.39656 28.2784L7.40711 28.2997L7.47043 28.3315L7.48099 28.3527H7.50209L7.5232 28.3775H7.54431V28.3916H7.56541V28.4058H7.583V28.4199H7.60763L7.61818 28.4447L7.64984 28.4518V28.4588H7.66743V28.473L7.70964 28.4907V28.4977H7.7413V28.5119H7.76241V28.526L7.8011 28.5437V28.5508L7.83276 28.5579V28.5649H7.85387V28.5791L7.91719 28.6003V28.6109H7.94885V28.6251H7.96644V28.6392L8.10012 28.6923V28.7029C8.23731 28.7559 8.58557 28.8868 8.72628 28.9045V28.9151L9.33838 29V28.9894C9.41928 29.0106 9.57055 28.9752 9.65146 28.9894V28.9823H9.68312V28.9752L9.71478 28.9823V28.9717H9.74644L9.78513 28.9788V28.9682H9.80624V28.9646H9.8977V28.9505H9.91881V28.9434H9.97861V28.9363L10.0384 28.9293V28.9222H10.0595V28.9116L10.0912 28.9222V28.9116L10.151 28.901V28.8939H10.1721V28.8868H10.2143L10.2249 28.8691H10.246V28.8621L10.2671 28.8691L10.2882 28.8514H10.3093L10.3198 28.8373H10.3585L10.3691 28.8196H10.4113L10.4183 28.8019H10.4394L10.457 28.7807H10.4992L10.5168 28.7559H10.5379L10.559 28.7347L10.5837 28.7418L10.5907 28.7241H10.6118C10.6118 28.7241 10.64 28.7029 10.654 28.6958V28.6887H10.6716L10.7068 28.6604H10.7244C10.7455 28.6604 11.3365 28.2501 11.3646 28.2537L11.3822 28.2608V28.2501H11.4033L11.4139 28.236H11.435V28.2325H11.4737V28.2112L11.544 28.1936C11.544 28.1936 11.5581 28.1582 11.5686 28.144L11.6003 28.1299H11.6214C11.639 28.1016 11.6988 28.0839 11.734 28.0768V28.0591C11.734 28.0591 11.8466 28.0132 11.8536 27.9884H11.8782L11.8958 27.9778V27.9601C11.931 27.9354 12.1034 27.8009 12.1385 27.7868V27.7656L12.1667 27.7514L12.1772 27.7231H12.1948V27.709C12.2089 27.6913 12.2511 27.6418 12.2757 27.6382V27.6206L12.2968 27.6135V27.5958C12.2968 27.5958 12.339 27.5887 12.3531 27.5852V27.5675L12.3707 27.5427L12.3918 27.5357V27.518L12.4094 27.5109L12.42 27.4755L12.4411 27.4685V27.4508C12.5255 27.3553 12.733 27.1041 12.8667 27.0758L12.8773 27.0511H12.8949L12.9054 27.0263L12.9758 26.9803V26.9627L13.0461 26.9202V26.9025L13.0883 26.8813V26.8636L13.1094 26.8566V26.8459H13.127V26.8247H13.1481V26.8L13.1798 26.7893V26.7717L13.2009 26.7646V26.7469L13.2185 26.7398V26.7221H13.2396V26.6974H13.2607V26.6726H13.2783L13.2888 26.6337C13.3135 26.6408 13.4929 26.4356 13.5105 26.4286L13.521 26.4109H13.5316L13.5421 26.3967H13.5597V26.3932L13.6019 26.3791V26.3614H13.6195V26.3543L13.6617 26.3331H13.6723V26.3154C13.6828 26.3083 13.7602 26.2729 13.7637 26.2588H13.7849L13.9889 26.0713H14.01V26.0572H14.0205L14.0276 26.0324L14.0698 26.0112V25.9935L14.1015 25.9794V25.9617L14.1296 25.9511L14.1401 25.9157L14.1718 25.9016L14.1788 25.8662L14.207 25.852L14.2175 25.8167L14.2351 25.8096L14.2457 25.7742H14.2668V25.7495L14.2879 25.7318V25.7141H14.2984V25.6964H14.309C14.309 25.6964 14.6326 25.3993 14.6432 25.3851H14.6643C14.6643 25.3851 14.7171 25.3321 14.7347 25.3356V25.3179L14.8437 25.2437V25.2224H14.8648V25.2083L14.8859 25.2012V25.1835H14.8965L14.9176 25.1517H14.9352V25.1376C14.9492 25.1199 14.9915 25.0703 15.0196 25.0668L15.0266 25.0314L15.0583 25.0173L15.0688 24.9784L15.0899 24.9713V24.9536L15.1111 24.9466V24.9289L15.1286 24.9218L15.1392 24.8864H15.1568V24.8617L15.1779 24.844V24.8263H15.1884V24.8121H15.199V24.7945L15.2201 24.7803V24.7626L15.2412 24.7556V24.7273H15.2518V24.7096H15.2623L15.2975 24.6636H15.3081V24.6353H15.3186V24.6176H15.3292V24.5928H15.3397L15.3467 24.5575H15.3573C15.3643 24.5009 15.5297 24.3134 15.5648 24.2674H15.586V24.2533L15.6247 24.2321V24.2144L15.6774 24.1861V24.1684L15.7196 24.1472V24.126L15.7407 24.1189V24.0977L15.7689 24.0835V24.0658L15.79 24.0588V24.0411L15.8111 24.034V24.0163H15.8287V23.9916L15.8533 23.9845V23.9668L15.8744 23.9597L15.885 23.9243L15.9026 23.9173V23.8996H15.9131V23.8784H15.9237V23.8642L15.9413 23.8501V23.8288H15.9624L15.9835 23.7758H15.994V23.7581H16.0046L16.0222 23.705H16.0327V23.6803H16.0433V23.6626H16.0538L16.0644 23.6308H16.0749L16.0855 23.5883H16.096L16.1066 23.5353H16.1136L16.1242 23.5034H16.1347V23.4681H16.1453C16.1453 23.4681 16.3141 23.2629 16.3247 23.2488V23.2275L16.3775 23.1993V23.1816L16.4267 23.1533V23.132L16.4584 23.1214L16.4689 23.0861L16.49 23.079L16.5006 23.0507L16.5287 23.0365L16.5393 23.0012L16.5674 22.987L16.578 22.9481H16.5991L16.6096 22.9092L16.6307 22.9021V22.8845L16.6518 22.8703V22.8526H16.6624V22.8349H16.6729V22.8173H16.6835V22.8031L16.7011 22.796V22.7713L16.7222 22.7642V22.7359H16.7328V22.7182H16.7433V22.7005H16.7539L16.775 22.651H16.7855V22.6227H16.7926V22.6086H16.8031L16.8137 22.5626H16.8242L16.8594 22.4883H16.8699V22.4706H16.8805V22.4353H16.8911L17.0423 22.2478V22.2301L17.0916 22.2018V22.1841L17.1338 22.1629V22.1452H17.1549V22.1205L17.183 22.1063V22.0886L17.2147 22.0745L17.2252 22.0391L17.2569 22.0285V22.0108L17.2745 22.0037V21.9825H17.285V21.9648L17.3026 21.9578L17.3132 21.9188H17.3343L17.3448 21.887H17.3554V21.8623L17.3765 21.8552V21.834L17.3976 21.8198V21.8021H17.4082V21.7844H17.4187V21.7668H17.4293V21.7526H17.4398L17.4609 21.6995H17.468V21.6748H17.482V21.6571H17.4891L17.4996 21.6217H17.5102C17.5278 21.604 17.7283 21.3175 17.7635 21.3317V21.3105L17.8338 21.268V21.2503L17.8725 21.1867V21.1655H17.8971L17.8795 21.1513L17.9007 21.1442V21.1265H17.9218V21.1018L17.9499 21.0876V21.07H17.971L17.9816 21.0381H17.9921V21.0204H18.0097V20.9957L18.0308 20.9886V20.9745L18.0519 20.9638L18.0695 20.9143L18.0906 20.9073L18.1117 20.8542H18.1328L18.1504 20.7976H18.1645V20.7799H18.1575C18.1575 20.7799 18.1821 20.7693 18.1891 20.7728V20.741H18.1997V20.7233H18.2067L18.2208 20.6915H18.2278L18.256 20.642H18.2665V20.6243H18.2771V20.5995H18.2876V20.5818H18.2982V20.5571H18.3087V20.5288H18.3193L18.3369 20.504H18.3439V20.4793H18.3545V20.4404H18.365V20.4156H18.3756C18.4072 20.359 18.5057 20.2281 18.555 20.1857V20.168L18.5866 20.1539V20.1326H18.5972L18.6077 20.1079H18.6288V20.0831L18.6605 20.069L18.6711 20.0336L18.6992 20.0195V20.0018L18.7203 19.9947L18.7414 19.9416L18.7625 19.9346V19.9169L18.7801 19.8992V19.8815H18.7907V19.8638H18.8118V19.8285H18.8223V19.8108L18.8434 19.8037V19.7754H18.8505V19.7577H18.861L18.8821 19.7082H18.8927V19.6799H18.9032L18.9103 19.6481H18.9208V19.6233H18.9314V19.6092H18.9419V19.5809H18.9525V19.5561H18.963V19.5384H18.9736L18.9806 19.4854H18.9841L18.9912 19.4889H18.9947V19.496H18.9877V19.4995L19.0404 19.5773V19.595L19.0615 19.6092V19.6304L19.0826 19.6445V19.6622L19.1002 19.6764V19.694H19.1108L19.1213 19.7259L19.1424 19.74V19.7612L19.1846 19.7966V19.8143L19.2269 19.8497V19.8709C19.3324 19.9346 19.459 20.2812 19.547 20.3625L19.5716 20.4262H19.5786L19.5927 20.458L19.6138 20.4687V20.4899L19.6349 20.5005V20.5182L19.6666 20.5429V20.5606L19.6982 20.5854V20.6066L19.751 20.6526V20.6703L19.9445 20.9426H19.955L19.9691 20.9851H19.9761V21.0169H19.9867L20.0254 21.0841H20.0359L20.0465 21.1265L20.0676 21.1407L20.0782 21.1796H20.0887V21.2008L20.1098 21.215V21.2327L20.1309 21.2468V21.2645L20.152 21.2822V21.2963L20.1767 21.3105V21.3282L20.1978 21.3423V21.36L20.2224 21.3954V21.413L20.3244 21.5192V21.5368L20.3666 21.5722V21.5864C20.4124 21.6359 20.4968 21.7491 20.5355 21.8057H20.5425L20.5601 21.8269H20.5707V21.8481H20.5812L20.5918 21.8905H20.6023L20.6129 21.9295L20.634 21.9436L20.6445 21.9825L20.6656 21.9931V22.0143L20.6867 22.0285V22.0462L20.7219 22.0745V22.0886L20.7501 22.1169V22.1346C20.7501 22.1346 20.8028 22.177 20.8028 22.2018C20.8275 22.2124 20.9295 22.3468 20.9506 22.3751H20.9435H20.9471C20.9365 22.3751 20.7888 22.4211 20.7782 22.4105V22.4176H20.7571V22.4246H20.7395L20.7184 22.4353H20.6973L20.6867 22.4494H20.6692L20.6551 22.4635H20.6375L20.6269 22.4777H20.5847L20.5742 22.4954L20.5531 22.4883L20.532 22.5131H20.5109L20.4933 22.5343L20.4722 22.5272L20.4546 22.552H20.437L20.4264 22.5626H20.3068V22.5697L20.2752 22.5626V22.5732L20.2435 22.5661V22.5767H20.1098V22.5873H20.0887V22.5944L20.0571 22.5873V22.598H20.0184V22.6086H19.9867H19.9445V22.6227L19.9163 22.6156L19.9093 22.6333H19.8882V22.6404H19.8706V22.6439H19.846L19.8249 22.6581H19.8073L19.7967 22.6722H19.7545V22.6864H19.7229L19.7123 22.7076H19.6736L19.6631 22.7253H19.642L19.6244 22.7465H19.6033L19.5822 22.7677H19.561L19.5259 22.8031H19.5048L19.4731 22.8314H19.4555L19.4344 22.842V22.8597L19.3852 22.8774L19.3676 22.9021L19.3465 22.9092V22.9269C19.3465 22.9269 19.3043 22.934 19.2937 22.9446V22.9658L19.255 22.987V23.0047L19.2058 23.033V23.0507L19.1741 23.0648V23.0861L19.146 23.0967V23.1179L19.1284 23.125L19.1178 23.1568L19.1002 23.1639V23.1851H19.0791L19.0686 23.2275L19.0475 23.2346V23.2523H19.0404V23.27H19.0299V23.2877L19.0123 23.3018V23.3195L18.9947 23.3266V23.3549H18.9841L18.9736 23.3903H18.9595V23.415H18.9525L18.9419 23.4504H18.9314V23.4787H18.9243V23.4928H18.9103L18.8821 23.6096H18.8716V23.6343H18.861V23.6591H18.8505C18.8505 23.7263 18.8188 24.5327 18.8399 24.5716H18.8505V24.6141H18.861L18.8716 24.6848H18.8821V24.7166H18.8927V24.7449H18.9032L18.9243 24.844H18.9349L18.9454 24.8829H18.956V24.9147H18.9665V24.9359H18.9771L18.9877 24.989H18.9982L19.0193 25.0527H19.0299V25.0739H19.0404V25.0951H19.051V25.1128L19.0721 25.1376V25.1552L19.0897 25.1694L19.1037 25.2118H19.1143L19.1248 25.2437L19.146 25.2578V25.2755H19.16L19.1706 25.3073L19.1917 25.3179V25.3392L19.2198 25.3639V25.3816L19.2515 25.4064V25.4241L19.2726 25.4382V25.4488L19.2937 25.463V25.4806L19.3465 25.5478H19.3641L19.4379 25.6504H19.459C19.4766 25.6716 19.554 25.7813 19.5822 25.7813L19.6033 25.8131H19.6244L19.6455 25.8485H19.6666L19.6877 25.8839H19.7088L19.7193 25.9086H19.7405L19.751 25.9334L19.7827 25.9475V25.9581L19.8249 25.9723L19.8354 25.9935L19.8988 26.0253L19.9093 26.0466L19.9515 26.0643V26.0713H19.9691V26.0855L20.0324 26.1138V26.1244H20.0641V26.1385L20.1063 26.1562V26.1633L20.1344 26.1704V26.181H20.1556V26.1951L20.1837 26.2022V26.2128H20.2048V26.227L20.2752 26.2482V26.2588L20.3068 26.2659V26.2765L20.4194 26.3154V26.326L20.4722 26.3366V26.3472L20.5144 26.3543V26.3649L20.5742 26.3755V26.3826L20.6586 26.4003V26.4109L20.7782 26.4356V26.4427L21.1581 26.5028V26.4958L21.239 26.5099V26.4993L21.2883 26.5099V26.4993L21.3375 26.5099V26.4993L21.3762 26.5064V26.4993L21.4184 26.5064V26.4958L21.4607 26.5028V26.4958C21.4677 26.517 21.8124 26.4463 21.8335 26.4427L21.8476 26.425H21.8793L21.8898 26.4144L21.9496 26.4073L21.9602 26.3897H21.9989L22.0094 26.3684H22.0481L22.0692 26.3437H22.0903L22.0974 26.3295H22.1185L22.1396 26.3083H22.1607L22.1818 26.2871H22.2029L22.2416 26.2553C22.2486 26.2694 22.4456 26.181 22.4562 26.181V26.1704L22.4878 26.1774V26.1704L22.516 26.1774V26.1668H22.5371V26.1598L22.5723 26.1668V26.1598H22.5934V26.1491L22.6215 26.1598V26.1491L22.6813 26.1421V26.1315H22.7024V26.1244H22.7235V26.1173H22.7411V26.1102L22.8044 26.1032L22.8115 26.0855H22.8537V26.0749H22.8818L22.8924 26.0536H22.9346L22.9452 26.036H22.9663L22.9874 26.0147H23.005L23.0225 25.9935L23.0437 26.0006L23.0859 25.9581H23.107C23.1281 25.9228 23.2512 25.8803 23.2899 25.8626V25.8556H23.318H23.3497V25.852L23.3778 25.8414V25.8343L23.4095 25.8414V25.8308H23.4271V25.8273H23.4588V25.8237L23.5186 25.8131V25.8061H23.5397V25.799H23.5608V25.7919H23.5819V25.7848H23.603V25.7778H23.6241V25.7707H23.6452L23.6628 25.7601H23.6874L23.6944 25.7459H23.7367L23.7472 25.7247H23.7683V25.7212C23.8387 25.7141 23.9407 25.6469 24.0005 25.6115H24.0251C24.0568 25.5868 24.1342 25.5196 24.1729 25.5019V25.4842L24.2221 25.4913L24.2714 25.4417H24.2925C24.2925 25.4417 24.2995 25.417 24.296 25.4099L24.3241 25.417V25.4064L24.3839 25.3993V25.3887L24.405 25.3958V25.3851H24.4226V25.3781H24.4648L24.4789 25.3604L24.5387 25.3533V25.3462H24.5704L24.5809 25.325H24.602V25.3215H24.6302L24.6407 25.3003H24.6618L24.6829 25.279H24.7005L24.7322 25.2507L24.7533 25.2578L24.785 25.226H24.8061L24.8729 25.1658H24.9046V25.1446C24.9292 25.1234 24.9855 25.0845 25.0136 25.0703V25.0527H25.0206L24.9925 25.0456V25.0633H24.9362H24.989V25.0421H25.0171L25.0699 25.0138L25.0805 24.9961H25.098L25.1086 24.9819L25.1684 24.9748L25.1789 24.9572H25.2001V24.9501H25.2212V24.9466H25.2423L25.2599 24.9359C25.2669 24.9359 25.281 24.9289 25.288 24.9253H25.2915L25.3056 24.9289L25.3126 24.9112H25.3372L25.3443 24.897H25.3689L25.3759 24.8864H25.3971V24.8793H25.4287L25.4393 24.8617H25.4604L25.492 24.8334H25.5131L25.5518 24.798H25.5729L25.6433 24.7379H25.6644V24.7308L25.6961 24.7166L25.7066 24.6883L25.777 24.6459V24.6282L25.8262 24.5999V24.5822H25.8473V24.5681H25.8684V24.5433L25.8931 24.5363V24.515H25.9106V24.4903L25.9423 24.4761C25.9529 24.4514 25.9845 24.416 26.0127 24.4089L26.0232 24.3912H26.0443L26.0514 24.3594L26.076 24.3665L26.083 24.3488H26.1041L26.1147 24.3346H26.1358L26.1463 24.3205H26.178L26.2202 24.2781H26.2413L26.2835 24.2391H26.3011V24.2321L26.3222 24.225V24.2073H26.3433L26.382 24.1719H26.3926V24.1578L26.4348 24.1436V24.126L26.4876 24.0941V24.0764L26.5263 24.0552V24.0375H26.5579V24.0198L26.6388 23.9668H26.681L26.6881 23.9314H26.7303V23.9208H26.7584L26.769 23.8996H26.7866V23.8925H26.8182L26.8253 23.8748H26.8464L26.864 23.8536H26.8851L26.8956 23.8395H26.9062L26.9167 23.8253H26.9378V23.8218L26.9765 23.8112V23.7935L27.17 23.6697V23.6485L27.1982 23.6378V23.6166C27.1982 23.6166 27.2298 23.5989 27.2474 23.5848L27.3248 23.6237C27.3248 23.6237 27.3389 23.6414 27.3459 23.6449V23.6626L27.4303 23.744V23.7616L27.462 23.7864V23.797H27.4796L27.564 23.8996H27.5816L27.6238 23.9562H27.6484L27.6555 23.9809L27.6801 23.988L27.6977 24.0198L27.7293 24.034L27.7399 24.0552H27.7575L27.7716 24.08L27.8102 24.0977L27.8208 24.1224L27.8525 24.1366V24.1436L27.9123 24.1755L27.9228 24.1932L27.965 24.2144V24.225L28.0037 24.2391V24.2498L28.0565 24.2674L28.067 24.2887H28.0882L28.1093 24.324H28.1198V24.3488L28.162 24.3842V24.4018C28.2007 24.4372 28.2816 24.5327 28.3168 24.5752H28.3379L28.3766 24.6318H28.4012V24.6353C28.4821 24.699 28.8058 25.0031 28.855 25.0774V25.0986C29.0626 25.3144 29.7908 25.9369 29.9983 26.1244L30.0194 26.1315L30.03 26.1491H30.0511L30.0687 26.1845L30.1074 26.1987L30.1179 26.2234L30.1601 26.2376L30.1707 26.2588L30.2305 26.2871V26.2942L30.2516 26.3012V26.3118H30.2727V26.326L30.336 26.3578V26.3684L30.6737 26.6479H30.6948L30.7406 26.708H30.7582L30.7687 26.7328H30.7863L30.8109 26.7717H30.832L30.8426 26.7964L30.8742 26.807V26.8212H30.8918C30.8953 26.8459 30.9481 26.8672 30.9657 26.8742L30.9798 26.8955L31.022 26.9131V26.9238H31.0431V26.9344L31.1029 26.9662V26.9768H31.1381V26.991L31.1768 27.0086V27.0193L31.4652 27.2421H31.4863L31.5285 27.3022H31.5497L32.021 27.6312L32.0527 27.6453V27.6559H32.0844V27.6701L32.116 27.6771V27.6878L32.1582 27.6948V27.7054L32.4537 27.8929V27.9L32.517 27.9318L32.5276 27.953L32.5698 27.9707V27.9813L32.612 27.9955V28.0061H32.6437V28.0202L32.6824 28.0344V28.045L32.7351 28.0627V28.0733C32.8583 28.137 33.5055 28.3209 33.6568 28.3103V28.2997L33.7061 28.3103V28.2997L33.7483 28.3067V28.2961L33.7905 28.3032V28.2926H33.8186H33.8468H33.8784V28.2891H33.9136V28.2855H33.9312V28.2784L33.9628 28.2855V28.2749H34.0051V28.2643L34.0965 28.2537L34.1071 28.236L34.1669 28.2289L34.1774 28.2112H34.2196V28.2006H34.2478L34.2583 28.1794H34.2759L34.2935 28.1617H34.3181L34.3357 28.1405H34.3568L34.3885 28.1122H34.4061C34.4448 28.0768 34.5292 28.0132 34.5785 27.9884V27.9672L34.6172 27.946V27.9247L34.6453 27.9106V27.8894L34.6734 27.8752V27.8575H34.6945L34.7051 27.8151H34.7262L34.7368 27.7833H34.7473L34.7649 27.7302H34.7755V27.7125H34.786V27.6948H34.7966V27.6807H34.8071L34.8247 27.6312H34.8353V27.6064H34.8458V27.5887H34.8564V27.5604H34.8669V27.5427H34.8775L34.888 27.4791H34.8986V27.4543H34.9091V27.4189H34.9197V27.3836H34.9302V27.3376H34.9408V27.2916H34.9513V27.2279H34.9584L34.9689 26.9839H34.9584L34.9971 27.0016ZM29.3475 20.6031L29.3546 20.6314L29.351 20.6031H29.337V20.5995H29.3546L29.3475 20.6031ZM25.4393 24.8723C25.4393 24.8723 25.492 24.8369 25.5096 24.8263C25.492 24.8369 25.4533 24.8581 25.4393 24.8723ZM25.5237 24.8228H25.5272H25.5202H25.5237Z" fill="white"/>
</g>
<defs>
<clipPath id="clip0_266_55990">
<rect width="40" height="40" fill="white"/>
</clipPath>
</defs>
</svg>
