<svg width="56" height="56" viewBox="0 0 56 56" fill="none" xmlns="http://www.w3.org/2000/svg">
<g clip-path="url(#clip0_266_56027)">
<path d="M0 28C0 29.6486 0 29.8318 0.039289 31.2318C0.14406 34.3327 0.471469 37.8916 1.71562 41.6467C2.59308 44.3028 4.24322 47.1682 5.89335 48.9739C7.9888 51.2765 10.883 53.1605 14.0131 54.2335C17.2086 55.3325 20.666 55.869 27.3845 56H28.6287C35.3601 55.856 38.8045 55.3325 42 54.2335C45.1301 53.1605 48.0112 51.2765 50.1065 48.9739C51.757 47.1552 53.407 44.3028 54.2845 41.6467C55.5285 37.8916 55.869 34.3196 55.9605 31.2318C56 29.8449 56 29.6486 56 28C56 26.3514 56 26.1682 55.9605 24.7682C55.856 21.6673 55.5285 18.1084 54.2845 14.3532C53.407 11.6972 51.757 8.83175 50.1065 7.02615C48.0112 4.72337 45.117 2.83925 42 1.76636C38.8045 0.66729 35.347 0.130841 28.6287 0H27.3845C20.653 0.143925 17.2086 0.66729 14.0131 1.76636C10.883 2.83925 8.00185 4.72337 5.89335 7.02615C4.24322 8.84485 2.59308 11.6972 1.71562 14.3532C0.484565 18.1084 0.14406 21.6673 0.039289 24.7682C0 26.1551 0 26.3514 0 28Z" fill="#1585B4"/>
<path d="M17.3823 9.59039C16.8443 9.83694 16.361 10.1883 15.9606 10.6241C15.5602 11.0598 15.2507 11.5711 15.0504 12.1279L7.61295 33.2338C7.4184 33.7798 7.3406 34.3606 7.38445 34.9386C7.4283 35.5166 7.5929 36.079 7.86755 36.5894C8.43855 37.6478 9.40475 38.4375 10.5555 38.7865L34.94 46.5189C36.1124 46.8904 37.382 46.8041 38.4935 46.2774C39.0314 46.0313 39.5146 45.68 39.9146 45.2442C40.3147 44.8084 40.6235 44.2969 40.8227 43.7399L48.2602 22.6367C48.4456 22.0788 48.516 21.4892 48.4674 20.9033C48.4186 20.3175 48.2518 19.7477 47.9767 19.2281C47.7017 18.7085 47.3243 18.25 46.8673 17.8803C46.4103 17.5106 45.8831 17.2373 45.3176 17.0769L20.9331 9.34719C19.7612 8.97689 18.4927 9.06279 17.3815 9.58779" fill="white"/>
<path d="M29.3008 29.865C27.9412 31.3024 26.267 32.4049 24.4095 33.0859L23.3079 33.4902V23.7077L24.3955 24.1058C26.2548 24.7823 27.932 25.8806 29.2955 27.3144C30.2682 25.844 30.8412 24.1456 30.958 22.3864C31.0594 20.11 30.4258 17.8615 29.1509 15.9729C27.876 14.0843 26.0275 12.6558 23.8784 11.8986L20.3582 10.7918C19.6107 10.546 18.7972 10.5986 18.0875 10.9386C17.3779 11.2785 16.8271 11.8796 16.5502 12.6161L9.09175 33.7351C8.9732 34.1015 8.93 34.4881 8.9648 34.8715C8.9996 35.255 9.11165 35.6275 9.2942 35.9665C9.47675 36.3056 9.726 36.6041 10.027 36.8442C10.328 37.0844 10.6745 37.2611 11.0456 37.3638L27.9716 42.7013C29.7426 40.9436 30.8116 38.6003 30.9781 36.1108C31.1207 33.9016 30.5312 31.7071 29.3008 29.8668M19.5182 34.0904H17.8356V23.1257H19.5182V34.0904Z" fill="#008AD3"/>
<path d="M28.3214 28.5896C27.3627 27.5231 26.2077 26.6512 24.9194 26.0215V31.1726C26.2102 30.54 27.3656 29.6633 28.3214 28.5896Z" fill="#EC4315"/>
<path d="M44.7783 18.4918L29.247 13.5918C31.1914 15.5474 32.373 18.1334 32.5785 20.8834C32.784 23.6335 32 26.3664 30.3679 28.5893C31.9569 30.738 32.7517 33.3713 32.6167 36.0403C32.4817 38.7093 31.4254 41.2489 29.6277 43.2263L35.4639 45.0638C36.2119 45.3079 37.0252 45.2539 37.7343 44.913C38.4434 44.5722 38.9936 43.9708 39.2702 43.2342L46.7304 22.1222C46.8482 21.7556 46.8908 21.369 46.8555 20.9856C46.8203 20.6021 46.708 20.2297 46.5254 19.8907C46.3428 19.5517 46.0936 19.2531 45.7928 19.0127C45.492 18.7723 45.1457 18.5952 44.7748 18.4918M40.6623 34.0537L38.5623 34.0624L34.2485 28.5762L38.6288 23.0943L40.7437 23.0873L36.3547 28.5841L40.6623 34.0537Z" fill="#004593"/>
</g>
<defs>
<clipPath id="clip0_266_56027">
<rect width="56" height="56" fill="white"/>
</clipPath>
</defs>
</svg>
