<svg width="40" height="40" viewBox="0 0 40 40" fill="none" xmlns="http://www.w3.org/2000/svg">
<g clip-path="url(#clip0_266_55660)">
<path d="M0 20C0 21.175 0 21.3107 0.0321429 22.3036C0.103571 24.5143 0.342857 27.0643 1.23214 29.7429C1.86071 31.6429 3.03571 33.6821 4.21429 34.9786C5.71429 36.6215 7.775 37.9679 10.0071 38.7358C12.2893 39.5215 14.7571 39.9 19.5571 40H20.4429C25.2429 39.9 27.7107 39.5215 29.9929 38.7358C32.225 37.9679 34.2857 36.6215 35.7857 34.9786C36.9679 33.6821 38.1393 31.6429 38.7679 29.7429C39.6571 27.0607 39.8964 24.5143 39.9679 22.3036C40 21.3107 40 21.175 40 20C40 18.825 40 18.6893 39.9679 17.6964C39.8964 15.4857 39.6571 12.9393 38.7679 10.2571C38.1393 8.35715 36.9679 6.31786 35.7857 5.02143C34.2857 3.37857 32.225 2.03214 29.9929 1.26071C27.7107 0.474999 25.2429 0.0964286 20.4429 0H19.5571C14.7571 0.1 12.2893 0.474999 10.0071 1.26071C7.775 2.02857 5.71429 3.375 4.21429 5.02143C3.03571 6.31429 1.86071 8.35715 1.23214 10.2571C0.342857 12.9357 0.103571 15.4857 0.0321429 17.6964C0 18.6893 0 18.825 0 20Z" fill="#0367B3"/>
<path d="M20.1785 31.0538C26.2418 31.0538 31.1571 26.1385 31.1571 20.0753C31.1571 14.0119 26.2418 9.09668 20.1785 9.09668C14.1152 9.09668 9.19992 14.0119 9.19992 20.0753C9.19992 26.1385 14.1152 31.0538 20.1785 31.0538Z" fill="#0098D5"/>
<path d="M20.1749 12.7286C25.1642 12.7286 29.4249 15.8 31.0642 20.1072C31.0642 20.0572 31.0678 20.0072 31.0678 19.9572C31.0678 13.9429 26.1714 9.06787 20.1321 9.06787C14.0928 9.06787 9.19992 13.9464 9.19992 19.9572C9.19992 20.0857 9.20349 20.2107 9.21064 20.3357C10.7821 15.9072 15.0999 12.725 20.1785 12.725L20.1749 12.7286Z" fill="#0083CA"/>
<path d="M20.1819 12.8183C25.1819 12.8183 29.4462 15.9004 31.064 20.2111C31.064 20.1754 31.064 20.1433 31.064 20.1076C29.4247 15.7969 25.164 12.729 20.1747 12.729C15.1854 12.729 10.7819 15.9111 9.20688 20.3397C9.20688 20.3754 9.20688 20.4147 9.20688 20.454C10.7569 16.0219 15.0854 12.8219 20.1747 12.8219L20.1819 12.8183Z" fill="#0083CA"/>
<path d="M20.1674 12.9218C25.196 12.9218 29.471 16.0325 31.0603 20.3611C31.0603 20.3111 31.0603 20.2611 31.0639 20.2146C29.446 15.9075 25.1817 12.8218 20.1817 12.8218C15.1817 12.8218 10.7639 16.0218 9.21387 20.4539C9.21387 20.4932 9.21387 20.5289 9.21744 20.5682C10.7424 16.1361 15.0639 12.9253 20.1674 12.9253V12.9218Z" fill="#0085CB"/>
<path d="M20.168 12.9214C15.0645 12.9214 10.743 16.1357 9.21805 20.5642C9.21805 20.5964 9.22519 20.6321 9.22519 20.6642C10.7323 16.2392 15.0609 13.0178 20.1716 13.0178C25.2823 13.0178 29.493 16.1464 31.0573 20.475C31.0573 20.4392 31.0573 20.4 31.0573 20.3607C29.4716 16.0321 25.193 12.9214 20.1645 12.9214H20.168Z" fill="#0086CC"/>
<path d="M20.1715 13.0182C15.0608 13.0182 10.7286 16.2396 9.22504 20.6646C9.22504 20.7004 9.23218 20.7361 9.23218 20.7718C10.7143 16.3468 15.05 13.1146 20.1715 13.1146C25.2929 13.1146 29.5072 16.2575 31.05 20.5861C31.05 20.5468 31.0536 20.5111 31.0572 20.4718C29.4929 16.1432 25.2108 13.0146 20.1715 13.0146V13.0182Z" fill="#0088CC"/>
<path d="M20.1713 13.2076C25.2284 13.2076 29.5213 16.3647 31.0427 20.6933C31.0427 20.6576 31.0499 20.6219 31.0499 20.5862C29.5106 16.254 25.2213 13.1147 20.1713 13.1147C15.1213 13.1147 10.7141 16.3469 9.23199 20.7719C9.23199 20.804 9.23557 20.8362 9.23914 20.8683C10.7034 16.4505 15.0463 13.2076 20.1713 13.2076Z" fill="#0089CD"/>
<path d="M20.1711 13.2075C15.0461 13.2075 10.7033 16.4504 9.23898 20.8682C9.23898 20.9039 9.24255 20.9397 9.24613 20.9754C10.6854 16.5611 15.0318 13.3039 20.164 13.3039C25.2961 13.3039 29.5354 16.4789 31.0283 20.8111C31.0283 20.7718 31.0354 20.7325 31.039 20.6932C29.5211 16.3647 25.2283 13.2075 20.1676 13.2075H20.1711Z" fill="#008BCE"/>
<path d="M20.168 13.4071C25.2466 13.4071 29.5502 16.5893 31.0252 20.9143C31.0252 20.8821 31.0287 20.8464 31.0323 20.8143C29.5394 16.4821 25.2359 13.3071 20.168 13.3071C15.1002 13.3071 10.6894 16.5643 9.25015 20.9786C9.25015 21.0143 9.25372 21.0464 9.2573 21.0821C10.6752 16.6714 15.0216 13.4071 20.168 13.4071Z" fill="#008DCF"/>
<path d="M20.1678 13.4072C15.0214 13.4072 10.675 16.6715 9.25711 21.0822C9.25711 21.1144 9.26425 21.1429 9.26782 21.1751C10.6643 16.7751 15.0143 13.5072 20.1607 13.5072C25.3071 13.5072 29.5678 16.7072 31.0143 21.0358C31.0178 20.9965 31.0214 20.9572 31.0214 20.9179C29.5464 16.5929 25.2428 13.4108 20.1643 13.4108L20.1678 13.4072Z" fill="#008ED0"/>
<path d="M20.1682 13.6034C25.2646 13.6034 29.5789 16.807 31.0075 21.1248C31.0075 21.0927 31.0146 21.0606 31.0182 21.032C29.5718 16.7034 25.2575 13.5034 20.1646 13.5034C15.0718 13.5034 10.6682 16.7748 9.27176 21.1713C9.27533 21.207 9.2789 21.2391 9.28605 21.2713C10.661 16.8784 15.0146 13.5998 20.1718 13.5998L20.1682 13.6034Z" fill="#0090D0"/>
<path d="M20.1679 13.6035C15.0108 13.6035 10.6572 16.8821 9.28223 21.2749C9.2858 21.3035 9.28937 21.3357 9.29294 21.3642C10.6501 16.9821 15.0037 13.6964 20.1644 13.6964C25.3251 13.6964 29.5929 16.9178 30.9929 21.2321C30.9965 21.1964 31.0037 21.1607 31.0072 21.1249C29.5787 16.8071 25.2644 13.6035 20.1679 13.6035Z" fill="#0092D1"/>
<path d="M20.157 13.7893C25.2748 13.7893 29.5998 17.0179 30.9784 21.3286C30.982 21.2964 30.9855 21.2607 30.9927 21.2286C29.5891 16.9107 25.2713 13.6929 20.1641 13.6929C15.057 13.6929 10.6498 16.9822 9.29269 21.3607C9.29627 21.3929 9.29984 21.425 9.30698 21.4572C10.6391 17.0822 14.9927 13.7857 20.1606 13.7857L20.157 13.7893Z" fill="#0093D2"/>
<path d="M20.1567 13.7896C14.9889 13.7896 10.6353 17.086 9.30316 21.461C9.30673 21.4896 9.3103 21.5217 9.31388 21.5503C10.6282 17.186 14.9817 13.886 20.1567 13.886C25.3317 13.886 29.6067 17.1288 30.9639 21.4324C30.9674 21.4003 30.971 21.3646 30.9782 21.3324C29.5996 17.0217 25.2746 13.7931 20.1567 13.7931V13.7896Z" fill="#0095D3"/>
<path d="M20.1642 13.9822C25.2928 13.9822 29.6178 17.2286 30.9571 21.5215C30.9607 21.4929 30.9642 21.4607 30.9678 21.4322C29.6107 17.1286 25.2857 13.8857 20.1607 13.8857C15.0357 13.8857 10.6321 17.1893 9.31781 21.55C9.32138 21.5822 9.32852 21.6143 9.3321 21.6465C10.625 17.2929 14.9857 13.9822 20.1642 13.9822Z" fill="#0097D4"/>
<path d="M20.1646 13.9824C14.986 13.9824 10.6253 17.2967 9.33246 21.6467C9.33603 21.6717 9.34317 21.7003 9.34674 21.7253C10.6217 17.3896 14.9789 14.0824 20.1539 14.0824C25.3289 14.0824 29.6289 17.3467 30.9396 21.6396C30.9467 21.6003 30.9503 21.561 30.9575 21.5217C29.6182 17.2289 25.2932 13.9824 20.1646 13.9824Z" fill="#0098D5"/>
<path d="M20.1535 14.1785C25.3 14.1785 29.6321 17.4427 30.925 21.7177C30.9285 21.6927 30.9357 21.6642 30.9393 21.6392C29.6321 17.3463 25.2964 14.082 20.1535 14.082C15.0107 14.082 10.6178 17.3892 9.34641 21.7249C9.34998 21.7499 9.35712 21.7785 9.36069 21.8035C10.6178 17.4856 14.975 14.1749 20.1571 14.1749L20.1535 14.1785Z" fill="#009AD5"/>
<path d="M20.154 14.1787C14.9719 14.1787 10.6183 17.4859 9.35757 21.8073C9.36115 21.8359 9.36829 21.868 9.37186 21.8966C10.6076 17.593 14.9683 14.2787 20.1504 14.2787C25.3326 14.2787 29.6326 17.5501 30.904 21.8109C30.9076 21.7823 30.9147 21.7501 30.9183 21.7216C29.6254 17.4465 25.2933 14.1822 20.1469 14.1822L20.154 14.1787Z" fill="#009CD6"/>
<path d="M20.1499 14.3718C25.3035 14.3718 29.6428 17.6504 30.8928 21.904C30.8999 21.8718 30.9035 21.8397 30.9106 21.8075C29.6392 17.5468 25.3035 14.2754 20.1571 14.2754C15.0106 14.2754 10.6142 17.5897 9.37848 21.8932C9.38205 21.9218 9.38919 21.9468 9.39277 21.9754C10.6106 17.6861 14.9678 14.3682 20.1535 14.3682L20.1499 14.3718Z" fill="#009ED7"/>
<path d="M20.1497 14.3716C14.9639 14.3716 10.6068 17.6894 9.38895 21.9787C9.39609 22.0109 9.39966 22.0394 9.4068 22.0716C10.5997 17.793 14.9568 14.4644 20.1497 14.4644C25.3425 14.4644 29.6497 17.7502 30.8782 21.9894C30.8818 21.9609 30.8889 21.9323 30.8925 21.9037C29.6425 17.6502 25.3032 14.3716 20.1497 14.3716Z" fill="#00A0D8"/>
<path d="M20.1464 14.5608C25.3178 14.5608 29.6571 17.8572 30.8606 22.0822C30.8678 22.0501 30.8714 22.0179 30.8785 21.9894C29.6535 17.7501 25.3142 14.4644 20.1499 14.4644C14.9856 14.4644 10.5999 17.7929 9.40707 22.0715C9.41422 22.1001 9.41779 22.1286 9.42136 22.1536C10.5964 17.8929 14.9464 14.5608 20.1464 14.5608Z" fill="#00A1D9"/>
<path d="M20.1467 14.561C14.9467 14.561 10.5967 17.8932 9.42172 22.1539C9.42887 22.1825 9.43601 22.2075 9.43958 22.236C10.5932 17.9932 14.9432 14.661 20.1432 14.661C25.3432 14.661 29.661 17.9575 30.8396 22.1718C30.8467 22.1432 30.8503 22.111 30.8574 22.0825C29.6539 17.8539 25.3146 14.561 20.1432 14.561H20.1467Z" fill="#00A3DA"/>
<path d="M20.1462 14.7569C25.3248 14.7569 29.6641 18.0605 30.8248 22.2569C30.8319 22.2283 30.8391 22.2033 30.8427 22.1748C29.6605 17.9605 25.3212 14.6641 20.1462 14.6641C14.9712 14.6641 10.5962 17.9962 9.44266 22.2391C9.4498 22.2641 9.45337 22.2891 9.46052 22.3141C10.5998 18.0926 14.9498 14.7605 20.1462 14.7605V14.7569Z" fill="#00A5DB"/>
<path d="M20.1465 14.757C14.9501 14.757 10.6001 18.0891 9.46078 22.3106C9.46793 22.3356 9.4715 22.3606 9.47864 22.382C10.6001 18.1856 14.9536 14.857 20.1501 14.857C25.3465 14.857 29.6679 18.1606 30.8072 22.3391C30.8144 22.3106 30.8215 22.282 30.8251 22.2534C29.6644 18.057 25.3251 14.7534 20.1465 14.7534V14.757Z" fill="#00A7DC"/>
<path d="M20.1425 14.9539C25.3247 14.9539 29.6675 18.2681 30.7854 22.4324C30.7925 22.4003 30.7997 22.3717 30.8068 22.3396C29.664 18.161 25.3282 14.8574 20.1497 14.8574C14.9711 14.8574 10.6032 18.186 9.47824 22.3824C9.48538 22.411 9.48895 22.436 9.4961 22.4646C10.5961 18.2824 14.9461 14.9539 20.1425 14.9539Z" fill="#00A9DD"/>
<path d="M20.1428 14.9536C14.9428 14.9536 10.5964 18.2822 9.49637 22.4643C9.50351 22.4893 9.50708 22.5143 9.51423 22.5393C10.5999 18.3822 14.9428 15.05 20.1428 15.05C25.3428 15.05 29.6678 18.3608 30.7678 22.5072C30.7749 22.4822 30.7785 22.4572 30.7857 22.4358C29.6678 18.2715 25.3285 14.9572 20.1428 14.9572V14.9536Z" fill="#00ABDE"/>
<path d="M20.1431 15.1467C25.3288 15.1467 29.6681 18.4646 30.7502 22.5896C30.7574 22.561 30.7609 22.536 30.7681 22.5074C29.6681 18.3646 25.3288 15.0503 20.1431 15.0503C14.9574 15.0503 10.5966 18.3824 9.5145 22.5396C9.52164 22.5682 9.52521 22.5932 9.53235 22.6217C10.5966 18.4824 14.9395 15.1467 20.1431 15.1467Z" fill="#00ADDE"/>
<path d="M20.1427 15.1466C14.9391 15.1466 10.5962 18.4788 9.53195 22.6216C9.53909 22.6466 9.54267 22.6681 9.54981 22.6931C10.5962 18.5752 14.9391 15.2431 20.1391 15.2431C25.3391 15.2431 29.6748 18.5645 30.7284 22.6752C30.7355 22.6466 30.7427 22.6181 30.7498 22.5859C29.6677 18.4609 25.332 15.1431 20.1427 15.1431V15.1466Z" fill="#00AFDF"/>
<path d="M20.1322 15.3357C25.3287 15.3357 29.6679 18.6571 30.7072 22.7464C30.7144 22.7214 30.7215 22.6964 30.7287 22.6714C29.6751 18.5607 25.3322 15.2393 20.1394 15.2393C14.9465 15.2393 10.5965 18.5678 9.55008 22.6893C9.55722 22.7143 9.56436 22.7393 9.57151 22.7607C10.6001 18.6678 14.9322 15.3357 20.1358 15.3357H20.1322Z" fill="#00B1E0"/>
<path d="M20.1318 15.3356C14.9282 15.3356 10.5961 18.6677 9.56754 22.7606C9.57468 22.782 9.58182 22.8035 9.58539 22.8249C10.5997 18.757 14.9354 15.4285 20.1354 15.4285C25.3354 15.4285 29.664 18.7463 30.6854 22.807C30.6925 22.7856 30.6997 22.7642 30.7032 22.7427C29.6675 18.6535 25.3282 15.332 20.1282 15.332L20.1318 15.3356Z" fill="#00B3E1"/>
<path d="M20.1357 15.5289C25.3285 15.5289 29.6607 18.8432 30.6642 22.886C30.6714 22.861 30.6785 22.836 30.6857 22.8146C29.6642 18.7539 25.3285 15.436 20.1357 15.436C14.9428 15.436 10.5999 18.761 9.58566 22.8325C9.59281 22.8575 9.59995 22.8825 9.60709 22.9075C10.6035 18.8575 14.9357 15.536 20.1357 15.536V15.5289Z" fill="#0DB5E2"/>
<path d="M20.1358 15.529C14.9358 15.529 10.6001 18.854 9.60727 22.9004C9.61441 22.9218 9.62155 22.9468 9.6287 22.9682C10.6073 18.9468 14.943 15.6254 20.1394 15.6254C25.3358 15.6254 29.6608 18.9432 30.6466 22.9611C30.6537 22.9361 30.6608 22.9075 30.668 22.8825C29.6644 18.8432 25.3287 15.5254 20.1394 15.5254L20.1358 15.529Z" fill="#19B7E3"/>
<path d="M20.1325 15.7213C25.3289 15.7213 29.661 19.0463 30.6218 23.0463C30.6289 23.0177 30.636 22.9891 30.6468 22.9641C29.661 18.9463 25.3325 15.6284 20.1396 15.6284C14.9468 15.6284 10.611 18.9498 9.62891 22.9713C9.63605 22.9927 9.64319 23.0177 9.64676 23.0391C10.611 19.0427 14.9396 15.7213 20.1325 15.7213Z" fill="#21B9E4"/>
<path d="M20.132 15.7217C14.9392 15.7217 10.6106 19.0431 9.64633 23.0395C9.6499 23.0574 9.65705 23.0753 9.66062 23.0931C10.6178 19.1181 14.9392 15.8145 20.132 15.8145C25.3249 15.8145 29.6499 19.1181 30.607 23.0931C30.6106 23.0788 30.6142 23.0645 30.6213 23.0467C29.6642 19.0467 25.332 15.7217 20.132 15.7217Z" fill="#28BBE5"/>
<path d="M20.1317 15.9073C25.3175 15.9073 29.6389 19.193 30.5925 23.1395C30.596 23.1252 30.5996 23.1109 30.6067 23.093C29.6496 19.118 25.3246 15.8145 20.1317 15.8145C14.9389 15.8145 10.6175 19.118 9.66031 23.093C9.66388 23.1073 9.66745 23.1216 9.67459 23.1359C10.6282 19.1895 14.946 15.9037 20.1317 15.9037V15.9073Z" fill="#37BDE6"/>
<path d="M20.1321 15.9072C14.9464 15.9072 10.6285 19.1929 9.67496 23.1394C9.67853 23.1537 9.6821 23.1679 9.68924 23.1858C10.6428 19.2608 14.9571 15.9894 20.1357 15.9894C25.3142 15.9894 29.6357 19.2644 30.5821 23.1929C30.5857 23.1751 30.5928 23.1608 30.5964 23.1429C29.6392 19.1929 25.3214 15.9108 20.1357 15.9108L20.1321 15.9072Z" fill="#43BFE6"/>
<path d="M20.1318 16.0821C25.3032 16.0821 29.614 19.3321 30.564 23.2357C30.5675 23.2214 30.5747 23.2071 30.5783 23.1928C29.6318 19.2607 25.314 15.9893 20.1318 15.9893C14.9497 15.9893 10.639 19.2607 9.68539 23.1857C9.68897 23.2035 9.69611 23.2178 9.70325 23.2357C10.6533 19.3357 14.9604 16.0857 20.1318 16.0857V16.0821Z" fill="#4DC0E7"/>
<path d="M20.1321 16.0822C14.9607 16.0822 10.6536 19.3322 9.70355 23.2322C9.70712 23.2465 9.71427 23.2572 9.71784 23.2715C10.6678 19.4 14.9643 16.1643 20.1321 16.1643C25.3 16.1643 29.6035 19.3965 30.5536 23.2715C30.5571 23.2572 30.5643 23.2465 30.5678 23.2322C29.6178 19.3286 25.3071 16.0786 20.1357 16.0786L20.1321 16.0822Z" fill="#56C2E8"/>
<path d="M20.1361 16.2498C25.2932 16.2498 29.5896 19.4605 30.5396 23.3105C30.5432 23.2962 30.5503 23.2855 30.5539 23.2712C29.6039 19.3962 25.3003 16.1641 20.1325 16.1641C14.9646 16.1641 10.6682 19.3998 9.7182 23.2712C9.72177 23.2855 9.72892 23.2998 9.73249 23.3141C10.6825 19.4641 14.9825 16.2533 20.1396 16.2533L20.1361 16.2498Z" fill="#5EC4E8"/>
<path d="M20.1358 16.25C14.9822 16.25 10.6822 19.4643 9.72867 23.3107C9.73224 23.3286 9.73938 23.3429 9.74653 23.3607C10.693 19.5357 14.9822 16.3429 20.1322 16.3429C25.2822 16.3429 29.5751 19.5357 30.5215 23.3607C30.5287 23.3429 30.5322 23.3286 30.5394 23.3107C29.5894 19.4607 25.293 16.25 20.1358 16.25Z" fill="#65C6E9"/>
<path d="M20.1318 16.4285C25.2747 16.4285 29.5604 19.5999 30.5068 23.3999C30.5104 23.3856 30.5175 23.3713 30.5211 23.3606C29.5747 19.5356 25.2818 16.3428 20.1318 16.3428C14.9818 16.3428 10.6961 19.5356 9.74609 23.3606C9.74967 23.3749 9.75681 23.3856 9.76038 23.3999C10.7068 19.6035 14.989 16.4285 20.1318 16.4285Z" fill="#6DC7EA"/>
<path d="M20.1322 16.4287C14.9893 16.4287 10.7072 19.6037 9.76074 23.4001C9.76431 23.4144 9.77146 23.4287 9.77503 23.443C10.725 19.6716 15.0072 16.5216 20.1357 16.5216C25.2643 16.5216 29.5429 19.6716 30.4929 23.443C30.4965 23.4287 30.5036 23.4144 30.5072 23.4001C29.5607 19.6037 25.275 16.4287 20.1322 16.4287Z" fill="#74C9EA"/>
<path d="M20.1324 16.6108C25.261 16.6108 29.5324 19.7465 30.4789 23.4929C30.486 23.4751 30.4896 23.4608 30.4967 23.4429C29.5467 19.6715 25.2682 16.5215 20.1396 16.5215C15.011 16.5215 10.7289 19.6715 9.77887 23.4429C9.78601 23.4572 9.78958 23.4751 9.79673 23.4893C10.7432 19.7429 15.011 16.6072 20.136 16.6072L20.1324 16.6108Z" fill="#7ACBEB"/>
<path d="M20.1321 16.6108C15.0071 16.6108 10.7357 19.7466 9.79282 23.493C9.79639 23.5073 9.80353 23.518 9.8071 23.5323C10.7535 19.8144 15.0178 16.7001 20.1357 16.7001C25.2535 16.7001 29.5214 19.8144 30.4678 23.5323C30.4714 23.518 30.475 23.5073 30.4821 23.493C29.5357 19.7466 25.2642 16.6108 20.1357 16.6108H20.1321Z" fill="#81CDEC"/>
<path d="M20.1361 16.789C25.2433 16.789 29.504 19.8783 30.4504 23.5711C30.454 23.5568 30.4611 23.5426 30.4647 23.5318C29.5183 19.8104 25.2504 16.6997 20.1326 16.6997C15.0147 16.6997 10.7504 19.814 9.80399 23.5318C9.80756 23.5461 9.8147 23.5604 9.81827 23.5711C10.7647 19.8783 15.029 16.789 20.1361 16.789Z" fill="#87CFEC"/>
<path d="M20.1358 16.7892C15.0286 16.7892 10.7644 19.8785 9.81793 23.5714C9.8215 23.5856 9.82865 23.5999 9.83222 23.6106C10.7786 19.9464 15.0322 16.8749 20.1322 16.8749C25.2322 16.8749 29.4894 19.9499 30.4322 23.6178C30.4394 23.5999 30.4429 23.5856 30.4501 23.5678C29.5036 19.8749 25.2465 16.7856 20.1358 16.7856V16.7892Z" fill="#8ED1ED"/>
<path d="M20.1282 16.9679C25.2282 16.9679 29.4782 20.025 30.4175 23.6679C30.4247 23.6536 30.4282 23.6357 30.4354 23.6179C29.4925 19.95 25.2354 16.875 20.1354 16.875C15.0354 16.875 10.7818 19.9464 9.83539 23.6107C9.84253 23.625 9.8461 23.6429 9.84967 23.6571C10.7925 20.0179 15.0318 16.9679 20.1282 16.9679Z" fill="#94D3EE"/>
<path d="M20.1286 16.9678C15.0322 16.9678 10.7929 20.0213 9.85004 23.6571C9.85361 23.6713 9.86075 23.6856 9.86432 23.6999C10.8072 20.0856 15.05 17.0499 20.1322 17.0499C25.2143 17.0499 29.4643 20.0892 30.4036 23.7071C30.4072 23.6928 30.4107 23.6821 30.4179 23.6678C29.4786 20.0249 25.2286 16.9678 20.1286 16.9678Z" fill="#9AD5EF"/>
<path d="M20.1318 17.1431C25.2068 17.1431 29.4461 20.1574 30.389 23.7467C30.3926 23.7324 30.3997 23.7217 30.4033 23.7074C29.464 20.0896 25.2176 17.0503 20.1318 17.0503C15.0461 17.0503 10.8068 20.086 9.86398 23.7003C9.86755 23.7146 9.8747 23.7253 9.87827 23.7396C10.8247 20.1539 15.0604 17.1431 20.1318 17.1431Z" fill="#A0D7F0"/>
<path d="M20.1322 17.1431C15.0608 17.1431 10.8251 20.1538 9.87863 23.7395C9.8822 23.7538 9.88935 23.7681 9.89649 23.7824C10.8393 20.2252 15.0608 17.2359 20.1286 17.2359C25.1965 17.2359 29.4286 20.2288 30.3715 23.7895C30.3786 23.7752 30.3822 23.7609 30.3893 23.7466C29.4465 20.1574 25.2072 17.1431 20.1322 17.1431Z" fill="#A6D9F0"/>
<path d="M20.1325 17.318C25.1896 17.318 29.411 20.2894 30.3575 23.8251C30.361 23.8144 30.3682 23.8001 30.3718 23.7894C29.4289 20.2251 25.2003 17.2358 20.1289 17.2358C15.0575 17.2358 10.8396 20.2251 9.89676 23.7823C9.90033 23.7966 9.90747 23.8073 9.91105 23.8216C10.861 20.293 15.0789 17.3216 20.1325 17.3216V17.318Z" fill="#ACDCF1"/>
<path d="M20.1321 17.3179C15.0786 17.3179 10.8571 20.2893 9.91071 23.8179C9.91428 23.8286 9.92142 23.8429 9.92499 23.8536C10.875 20.35 15.0857 17.4036 20.1321 17.4036C25.1786 17.4036 29.3964 20.3536 30.3428 23.8607C30.3464 23.85 30.3536 23.8357 30.3571 23.825C29.4107 20.2893 25.1893 17.3179 20.1321 17.3179Z" fill="#B2DEF2"/>
<path d="M20.1318 17.4967C25.1711 17.4967 29.3747 20.4217 30.3282 23.9002C30.3318 23.886 30.3389 23.8752 30.3425 23.861C29.3961 20.3538 25.1818 17.4038 20.1318 17.4038C15.0818 17.4038 10.8747 20.3502 9.92465 23.8538C9.93179 23.8681 9.93537 23.8824 9.94251 23.8967C10.8925 20.4217 15.0961 17.4931 20.1318 17.4931V17.4967Z" fill="#B8E0F3"/>
<path d="M20.1321 17.4966C15.0928 17.4966 10.8892 20.4216 9.94281 23.9002C9.94638 23.9144 9.95352 23.9252 9.9571 23.9394C10.9107 20.493 15.1071 17.5859 20.1321 17.5859C25.1571 17.5859 29.3607 20.493 30.3107 23.9466C30.3178 23.9323 30.3214 23.918 30.3285 23.9037C29.3785 20.4252 25.1714 17.5002 20.1321 17.5002V17.4966Z" fill="#BDE2F4"/>
<path d="M20.1325 17.675C25.1503 17.675 29.3432 20.5572 30.2967 23.9786C30.3003 23.9643 30.3075 23.9536 30.311 23.9393C29.361 20.4858 25.1646 17.5786 20.1325 17.5786C15.1003 17.5786 10.9075 20.4822 9.95746 23.9322C9.96103 23.9429 9.96817 23.9572 9.97174 23.9679C10.9289 20.5465 15.1182 17.6715 20.1325 17.6715V17.675Z" fill="#C3E5F5"/>
<path d="M20.1321 17.6753C15.1178 17.6753 10.925 20.5539 9.97141 23.9717C9.97498 23.9824 9.98212 23.9967 9.98569 24.0074C10.9428 20.6181 15.125 17.761 20.1321 17.761C25.1393 17.761 29.325 20.6217 30.2785 24.0146C30.2821 24.0039 30.2893 23.9896 30.2928 23.9789C29.3428 20.5539 25.15 17.6753 20.1285 17.6753H20.1321Z" fill="#C9E7F5"/>
<path d="M20.1361 17.8499C25.1325 17.8499 29.3075 20.6856 30.2646 24.0534C30.2682 24.0427 30.2753 24.0284 30.2789 24.0177C29.3253 20.6213 25.1432 17.7642 20.1325 17.7642C15.1218 17.7642 10.9432 20.6213 9.98605 24.0106C9.9932 24.0249 9.99677 24.0392 10.0039 24.057C10.9611 20.6927 15.1396 17.8534 20.1361 17.8534V17.8499Z" fill="#CEE9F6"/>
<path d="M20.1356 17.8501C15.1392 17.8501 10.9606 20.6894 10.0035 24.0537C10.0071 24.0644 10.0142 24.0787 10.0178 24.0894C10.9785 20.7501 15.1463 17.9358 20.1321 17.9358C25.1178 17.9358 29.2928 20.7537 30.2463 24.0965C30.2535 24.0822 30.257 24.068 30.2642 24.0537C29.307 20.6858 25.132 17.8501 20.1356 17.8501Z" fill="#D4ECF7"/>
<path d="M20.1317 18.0252C25.1139 18.0252 29.2746 20.8216 30.2317 24.1359C30.2353 24.1252 30.2424 24.1109 30.246 24.1002C29.2889 20.7573 25.1174 17.9395 20.1317 17.9395C15.146 17.9395 10.9781 20.7537 10.0174 24.093C10.021 24.1037 10.0281 24.118 10.0317 24.1287C10.9924 20.8216 15.1531 18.0252 20.1317 18.0252Z" fill="#DAEEF8"/>
<path d="M20.1321 18.0254C15.1535 18.0254 10.9928 20.8218 10.0321 24.129C10.0392 24.1432 10.0428 24.1575 10.0499 24.1754C11.0106 20.8932 15.1714 18.1182 20.1356 18.1182C25.0999 18.1182 29.2571 20.8897 30.2178 24.1754C30.2214 24.1647 30.2285 24.1504 30.2321 24.1361C29.2749 20.8218 25.1106 18.0254 20.1321 18.0254Z" fill="#DFF1F9"/>
<path d="M20.1287 18.2003C25.093 18.2003 29.243 20.9574 30.2001 24.2217C30.2073 24.2074 30.2144 24.1896 30.2216 24.1753C29.2609 20.8896 25.1037 18.1182 20.1394 18.1182C15.1751 18.1182 11.0144 20.8932 10.0537 24.1753C10.0573 24.186 10.0644 24.2003 10.068 24.211C11.0323 20.9539 15.1716 18.2003 20.1287 18.2003Z" fill="#E5F3FA"/>
<path d="M20.1284 18.2002C15.1712 18.2002 11.0284 20.9538 10.0677 24.2109C10.0712 24.2216 10.0784 24.2323 10.0819 24.2466C11.0498 21.0216 15.1819 18.2931 20.1284 18.2931C25.0748 18.2931 29.2212 21.0252 30.1819 24.2573C30.1855 24.2466 30.1927 24.2323 30.1998 24.2216C29.2427 20.9609 25.0927 18.2002 20.1284 18.2002Z" fill="#EBF6FB"/>
<path d="M20.1322 18.3783C25.0715 18.3783 29.2001 21.0891 30.1679 24.2891C30.1715 24.2783 30.1786 24.2641 30.1858 24.2533C29.2251 21.0212 25.0822 18.2891 20.1322 18.2891C15.1822 18.2891 11.0536 21.0176 10.0858 24.2426C10.0929 24.2569 10.1001 24.2712 10.1036 24.2855C11.0715 21.0891 15.2001 18.3783 20.1358 18.3783H20.1322Z" fill="#F1F8FD"/>
<path d="M20.1319 18.3784C15.1962 18.3784 11.0676 21.0856 10.0998 24.2856C10.1033 24.2963 10.1105 24.3106 10.1176 24.3213C11.089 21.1498 15.2105 18.4677 20.1319 18.4677C25.0533 18.4677 29.1819 21.1534 30.1498 24.3248C30.1533 24.3141 30.1605 24.3034 30.164 24.2891C29.1998 21.0856 25.0676 18.3784 20.1283 18.3784H20.1319Z" fill="#F7FBFE"/>
<path d="M31.6145 19.9572C31.6145 13.6465 26.4824 8.53223 20.136 8.53223C13.7895 8.53223 8.65024 13.6429 8.65024 19.9572C8.65024 20.5822 8.70381 21.1965 8.80024 21.7929C8.80381 21.8251 8.81095 21.8537 8.8181 21.8822C8.82524 21.9144 8.82881 21.9501 8.83595 21.9822C8.8431 22.0108 8.84667 22.0429 8.85381 22.0715C8.86095 22.1037 8.86452 22.1394 8.87167 22.1715C8.87881 22.2001 8.88238 22.2322 8.88595 22.2608C8.8931 22.2894 8.90024 22.3179 8.90738 22.3501C8.91452 22.3751 8.9181 22.4001 8.92524 22.4287C8.93238 22.4537 8.93595 22.4822 8.9431 22.5072C8.95024 22.5358 8.95738 22.5644 8.96452 22.5965C8.97167 22.6215 8.97524 22.6501 8.98238 22.6751C8.98952 22.7072 8.99667 22.7394 9.00381 22.7679C9.01095 22.7929 9.0181 22.8215 9.02524 22.8465C9.03238 22.8751 9.0431 22.9001 9.05024 22.9287C9.05738 22.9537 9.06452 22.9751 9.07167 23.0001C9.07881 23.0251 9.08595 23.0465 9.0931 23.0715C9.10024 23.1001 9.10738 23.1251 9.11809 23.1537C9.12524 23.1787 9.13238 23.2001 9.13952 23.2251C9.14667 23.2537 9.15381 23.2787 9.16452 23.3072C9.17167 23.3287 9.17881 23.3537 9.18595 23.3751C9.1931 23.4001 9.20381 23.4215 9.21095 23.4465C9.2181 23.4679 9.22524 23.4894 9.23238 23.5108C9.23952 23.5322 9.24667 23.5537 9.25381 23.5751C9.26095 23.6001 9.27167 23.6251 9.27881 23.6537C9.28595 23.6751 9.2931 23.7001 9.30024 23.7215C9.31095 23.7465 9.3181 23.7715 9.32524 23.8001C9.33238 23.8215 9.33952 23.8465 9.34667 23.8679C9.35381 23.8929 9.36452 23.9144 9.37524 23.9394C9.38238 23.9608 9.38952 23.9787 9.40024 24.0001C9.40738 24.0215 9.4181 24.0465 9.42881 24.0679C9.43595 24.0894 9.4431 24.1072 9.45381 24.1287C9.46095 24.1465 9.4681 24.1679 9.47881 24.1858C9.48595 24.2001 9.48952 24.2144 9.49667 24.2287C9.50024 24.2394 9.50381 24.2501 9.51095 24.2608C9.51452 24.2715 9.5181 24.2822 9.52524 24.2965C9.53238 24.3108 9.53595 24.3251 9.5431 24.3394C9.54667 24.3501 9.55024 24.3608 9.55738 24.3715C9.56095 24.3822 9.56452 24.3929 9.57167 24.4072C9.57881 24.4215 9.58238 24.4322 9.58952 24.4465C9.5931 24.4572 9.60024 24.4679 9.60381 24.4751C9.60738 24.4858 9.61452 24.4965 9.6181 24.5072C9.62524 24.5215 9.62881 24.5322 9.63595 24.5465C9.63952 24.5572 9.64667 24.5679 9.65024 24.5751C9.65381 24.5858 9.66095 24.5965 9.66452 24.6072C9.6681 24.6179 9.67524 24.6287 9.67881 24.6394C9.68595 24.6537 9.68952 24.6644 9.69667 24.6787C9.70024 24.6894 9.70738 24.7001 9.71095 24.7108C9.71452 24.7215 9.72167 24.7322 9.72524 24.7429C9.73238 24.7537 9.73595 24.7679 9.74309 24.7822C9.74667 24.7929 9.75381 24.8037 9.75738 24.8144C9.76095 24.8251 9.7681 24.8358 9.77167 24.8465C9.77881 24.8572 9.78238 24.8715 9.78952 24.8858C9.7931 24.8965 9.80024 24.9072 9.80381 24.9179C9.80738 24.9287 9.81452 24.9358 9.8181 24.9465C9.82167 24.9572 9.82881 24.9644 9.83238 24.9751C9.83952 24.9858 9.8431 24.9965 9.85024 25.0108C9.85381 25.0215 9.86095 25.0287 9.86452 25.0394C9.86809 25.0501 9.87524 25.0572 9.87881 25.0679C9.88595 25.0787 9.88952 25.0929 9.89667 25.1037C9.90024 25.1144 9.90738 25.1215 9.91095 25.1322C9.91452 25.1429 9.92167 25.1501 9.92524 25.1608C9.93238 25.1715 9.93595 25.1858 9.9431 25.1965C9.94667 25.2072 9.95381 25.2144 9.95738 25.2251C10.3181 25.9179 10.7467 26.5715 11.236 27.1715C11.236 27.1715 11.236 27.1715 11.2395 27.1751C11.2395 27.1751 11.2431 27.1822 11.2467 27.1858C11.2467 27.1858 11.2467 27.1858 11.2502 27.1894C11.2502 27.1894 11.2538 27.1965 11.2574 27.2001C11.2574 27.2001 11.261 27.2037 11.2645 27.2072C11.2645 27.2072 11.2681 27.2108 11.2717 27.2144C11.2717 27.2144 11.2717 27.2144 11.2752 27.2179C11.2752 27.2179 11.2752 27.2215 11.2788 27.2251C11.2788 27.2251 11.2788 27.2287 11.2824 27.2322C11.2824 27.2322 11.2824 27.2358 11.286 27.2394C11.286 27.2394 11.286 27.2429 11.2931 27.2465C11.2931 27.2465 11.2931 27.2465 11.2967 27.2501C11.2967 27.2501 11.2967 27.2501 11.3002 27.2537C11.3002 27.2537 11.3038 27.2572 11.3074 27.2608C11.3074 27.2608 11.3074 27.2608 11.311 27.2644C11.311 27.2644 11.311 27.2679 11.3145 27.2715C11.3145 27.2715 11.3145 27.2715 11.3181 27.2751C11.3181 27.2751 11.3181 27.2751 11.3181 27.2787C11.3181 27.2787 11.3181 27.2822 11.3217 27.2858C11.3217 27.2858 11.3217 27.2858 11.3217 27.2894C11.3217 27.2894 11.3252 27.2929 11.3288 27.2965C11.3288 27.2965 11.3288 27.2965 11.3324 27.3001C11.3324 27.3001 11.336 27.3037 11.3395 27.3072C11.3431 27.3144 11.3502 27.3179 11.3538 27.3251C11.3574 27.3287 11.361 27.3358 11.3645 27.3394C11.3717 27.3465 11.3752 27.3537 11.3824 27.3608C11.386 27.3679 11.3931 27.3715 11.3967 27.3787C11.4002 27.3822 11.4038 27.3858 11.4074 27.3929C11.411 27.4001 11.4181 27.4037 11.4217 27.4108C11.4252 27.4144 11.4324 27.4215 11.436 27.4251C11.4395 27.4287 11.4431 27.4358 11.4467 27.4394C11.4502 27.4429 11.4574 27.4501 11.461 27.4537C11.4645 27.4608 11.4717 27.4644 11.4752 27.4715C11.4788 27.4751 11.4824 27.4822 11.486 27.4858C11.4895 27.4929 11.4967 27.4965 11.5002 27.5037C11.5038 27.5072 11.5074 27.5144 11.5145 27.5179C11.5181 27.5215 11.5217 27.5287 11.5288 27.5322C11.5324 27.5358 11.5395 27.5429 11.5431 27.5465C11.5467 27.5537 11.5538 27.5572 11.5574 27.5644C11.561 27.5679 11.5645 27.5751 11.5681 27.5787C11.5717 27.5822 11.5788 27.5894 11.5824 27.5965C11.586 27.6001 11.5931 27.6072 11.5967 27.6144C11.6002 27.6179 11.6038 27.6251 11.611 27.6287C11.6145 27.6322 11.6217 27.6394 11.6252 27.6465C11.6288 27.6537 11.636 27.6572 11.6395 27.6644C11.6431 27.6679 11.6467 27.6715 11.6502 27.6751C11.6574 27.6822 11.661 27.6858 11.6681 27.6929C11.6717 27.7001 11.6788 27.7037 11.6824 27.7072C11.686 27.7144 11.6931 27.7179 11.6967 27.7215C11.7002 27.7287 11.7074 27.7322 11.711 27.7358C11.7145 27.7394 11.7217 27.7465 11.7252 27.7501C11.7288 27.7537 11.736 27.7608 11.7395 27.7644C11.7431 27.7679 11.7502 27.7751 11.7538 27.7787C11.7574 27.7858 11.7645 27.7894 11.7681 27.7965C13.8681 30.0144 16.8395 31.4001 20.136 31.4001C23.4324 31.4001 26.411 30.0072 28.5074 27.7858C28.511 27.7822 28.5181 27.7751 28.5217 27.7715C28.5252 27.7644 28.5324 27.7608 28.536 27.7537C28.5395 27.7501 28.5467 27.7429 28.5502 27.7394C28.5538 27.7322 28.561 27.7287 28.5645 27.7251C28.5681 27.7179 28.5752 27.7144 28.5788 27.7108C28.5824 27.7037 28.5895 27.7001 28.5931 27.6965C28.5967 27.6929 28.6002 27.6894 28.6038 27.6822C28.6038 27.6822 28.6074 27.6787 28.611 27.6751C28.611 27.6751 28.6181 27.6679 28.6217 27.6644C28.6252 27.6572 28.6324 27.6537 28.636 27.6465C28.6395 27.6429 28.6431 27.6394 28.6467 27.6322C28.6538 27.6251 28.6574 27.6179 28.6645 27.6144C28.6681 27.6108 28.6717 27.6037 28.6752 27.6001C28.6788 27.5965 28.6824 27.5894 28.686 27.5858C28.6895 27.5822 28.6967 27.5751 28.7002 27.5715C28.7038 27.5644 28.711 27.5608 28.7145 27.5537C28.7181 27.5501 28.7217 27.5429 28.7288 27.5394C28.7324 27.5358 28.736 27.5287 28.7431 27.5251C28.7502 27.5179 28.7538 27.5108 28.761 27.5072C28.7645 27.5037 28.7681 27.4965 28.7752 27.4929C28.7788 27.4894 28.7824 27.4822 28.7895 27.4787C28.7931 27.4751 28.8002 27.4679 28.8038 27.4644C28.8074 27.4572 28.8145 27.4537 28.8181 27.4465C28.8217 27.4429 28.8288 27.4358 28.8324 27.4322C28.836 27.4251 28.8431 27.4215 28.8467 27.4144C28.8502 27.4108 28.8538 27.4072 28.8574 27.4001C28.861 27.3965 28.8645 27.3894 28.8717 27.3858C28.8752 27.3787 28.8824 27.3751 28.886 27.3679C28.8895 27.3644 28.8931 27.3572 28.8967 27.3537C28.9002 27.3501 28.9038 27.3429 28.911 27.3394C28.9145 27.3322 28.9217 27.3287 28.9252 27.3215C28.9252 27.3215 28.9288 27.3179 28.9324 27.3144C28.9324 27.3144 28.9324 27.3144 28.936 27.3108C28.936 27.3108 28.9395 27.3072 28.9431 27.3037C28.9431 27.3037 28.9431 27.3037 28.9467 27.3001C28.9467 27.3001 28.9467 27.3001 28.9502 27.2965C28.9502 27.2965 28.9502 27.2965 28.9538 27.2929C28.9538 27.2929 28.9538 27.2894 28.9574 27.2858C28.9574 27.2858 28.9574 27.2822 28.961 27.2787C28.961 27.2787 28.961 27.2787 28.9645 27.2751C28.9645 27.2751 28.9645 27.2715 28.9681 27.2679C28.9681 27.2679 28.9717 27.2644 28.9752 27.2608C28.9752 27.2608 28.9752 27.2572 28.9788 27.2537C28.9788 27.2537 28.9824 27.2465 28.986 27.2465C28.986 27.2465 28.986 27.2429 28.9895 27.2394C28.9895 27.2394 28.9931 27.2358 28.9967 27.2322C28.9967 27.2322 28.9967 27.2322 29.0002 27.2287C29.0002 27.2287 29.0038 27.2251 29.0074 27.2215C29.0074 27.2215 29.0074 27.2179 29.011 27.2144C29.011 27.2144 29.0145 27.2072 29.0181 27.2072C29.0181 27.2072 29.0181 27.2072 29.0181 27.2037C29.0181 27.2037 29.0217 27.1965 29.0252 27.1965C29.0252 27.1965 29.0288 27.1929 29.0324 27.1894C29.0324 27.1894 29.036 27.1858 29.0395 27.1822C29.0395 27.1822 29.0431 27.1787 29.0467 27.1751C29.0467 27.1751 29.0502 27.1715 29.0538 27.1679C29.0538 27.1679 29.0574 27.1644 29.061 27.1608C29.061 27.1608 29.0645 27.1572 29.0681 27.1537C29.0681 27.1537 29.0717 27.1501 29.0752 27.1465C29.0752 27.1465 29.0752 27.1465 29.0752 27.1429C29.5538 26.5537 29.9717 25.9144 30.3252 25.2358C30.3288 25.2251 30.336 25.2179 30.3395 25.2072C30.3431 25.1965 30.3502 25.1894 30.3538 25.1787C30.3574 25.1679 30.3645 25.1608 30.3681 25.1501C30.3752 25.1358 30.3824 25.1215 30.3895 25.1072C30.3931 25.0965 30.4002 25.0894 30.4038 25.0787C30.4074 25.0679 30.4145 25.0608 30.4181 25.0501C30.4252 25.0394 30.4288 25.0287 30.436 25.0144C30.4395 25.0037 30.4467 24.9965 30.4502 24.9858C30.4538 24.9751 30.461 24.9679 30.4645 24.9572C30.4681 24.9465 30.4752 24.9394 30.4788 24.9287C30.486 24.9179 30.4895 24.9037 30.4967 24.8894C30.5002 24.8787 30.5074 24.8679 30.511 24.8572C30.5145 24.8465 30.5181 24.8358 30.5252 24.8287C30.5288 24.8179 30.5324 24.8072 30.5395 24.8001C30.5467 24.7858 30.5502 24.7751 30.5574 24.7608C30.561 24.7501 30.5681 24.7394 30.5717 24.7287C30.5752 24.7179 30.5824 24.7072 30.586 24.7001C30.5931 24.6858 30.5967 24.6751 30.6038 24.6608C30.611 24.6465 30.6145 24.6358 30.6217 24.6215C30.6252 24.6108 30.6324 24.6001 30.636 24.5894C30.6395 24.5787 30.6467 24.5679 30.6502 24.5608C30.6574 24.5465 30.661 24.5358 30.6681 24.5215C30.6717 24.5108 30.6788 24.5001 30.6824 24.4894C30.686 24.4787 30.6931 24.4679 30.6967 24.4572C30.7038 24.4429 30.7074 24.4322 30.7145 24.4179C30.7181 24.4072 30.7217 24.3965 30.7288 24.3858C30.7324 24.3751 30.736 24.3644 30.7431 24.3537C30.7467 24.3429 30.7538 24.3287 30.7574 24.3179C30.7645 24.3037 30.7681 24.2894 30.7752 24.2751C30.7788 24.2644 30.7824 24.2537 30.7895 24.2394C30.7931 24.2287 30.8002 24.2179 30.8038 24.2037C30.8145 24.1787 30.8252 24.1537 30.8324 24.1287C30.8431 24.1072 30.8502 24.0822 30.861 24.0608C30.8681 24.0394 30.8788 24.0144 30.8895 23.9929C30.8967 23.9715 30.9038 23.9537 30.9145 23.9322C30.9252 23.9072 30.9324 23.8858 30.9395 23.8608C30.9502 23.8322 30.9574 23.8037 30.9681 23.7751C30.9788 23.7501 30.986 23.7251 30.9931 23.6965C31.0002 23.6751 31.0074 23.6501 31.0145 23.6287C31.0252 23.6001 31.0359 23.5715 31.0431 23.5429C31.0502 23.5179 31.0609 23.4929 31.0681 23.4679C31.0752 23.4429 31.086 23.4215 31.0931 23.3965C31.1002 23.3715 31.1074 23.3465 31.1181 23.3179C31.1252 23.2894 31.1324 23.2644 31.1431 23.2358C31.1502 23.2108 31.1574 23.1822 31.1645 23.1572C31.1752 23.1251 31.1824 23.0965 31.1895 23.0644C31.1967 23.0358 31.2038 23.0108 31.2145 22.9822C31.2217 22.9572 31.2288 22.9358 31.236 22.9108C31.2467 22.8751 31.2574 22.8394 31.2645 22.8037C31.2717 22.7787 31.2752 22.7501 31.2824 22.7215C31.2895 22.6929 31.2967 22.6644 31.3038 22.6322C31.311 22.6037 31.3181 22.5751 31.3252 22.5429C31.3324 22.5108 31.3395 22.4787 31.3467 22.4465C31.3538 22.4215 31.3574 22.3929 31.3645 22.3679C31.3717 22.3358 31.3788 22.3037 31.386 22.2679C31.3931 22.2394 31.3967 22.2072 31.4038 22.1751C31.4109 22.1358 31.4181 22.1001 31.4252 22.0608C31.4324 22.0251 31.436 21.9929 31.4431 21.9572C31.4502 21.9251 31.4538 21.8894 31.461 21.8572C31.4645 21.8287 31.4717 21.8001 31.4752 21.7715C31.4824 21.7322 31.4895 21.6894 31.4931 21.6501C31.4967 21.6179 31.5002 21.5858 31.5038 21.5572C31.5788 21.0322 31.6181 20.5001 31.6181 19.9537H31.6145V19.9572ZM31.0645 20.1072C31.0645 20.1429 31.0645 20.1751 31.0645 20.2108C31.0645 20.2608 31.0645 20.3108 31.061 20.3572C31.061 20.3965 31.061 20.4322 31.061 20.4715C31.061 20.5108 31.0574 20.5465 31.0538 20.5858C31.0538 20.6215 31.0467 20.6572 31.0467 20.6929C31.0467 20.7322 31.0395 20.7715 31.036 20.8108C31.036 20.8429 31.0324 20.8787 31.0288 20.9108C31.0288 20.9501 31.0252 20.9894 31.0217 21.0287C31.0217 21.0608 31.0145 21.0929 31.011 21.1215C31.0074 21.1572 31.0002 21.1929 30.9967 21.2287C30.9931 21.2608 30.9895 21.2965 30.9824 21.3287C30.9788 21.3608 30.9752 21.3965 30.9681 21.4287C30.9645 21.4572 30.961 21.4894 30.9574 21.5179C30.9502 21.5572 30.9467 21.5965 30.9395 21.6358C30.936 21.6608 30.9288 21.6894 30.9252 21.7144C30.9217 21.7429 30.9145 21.7751 30.911 21.8037C30.9038 21.8358 30.9002 21.8679 30.8931 21.9001C30.8895 21.9287 30.8824 21.9572 30.8788 21.9858C30.8717 22.0179 30.8681 22.0501 30.861 22.0787C30.8538 22.1072 30.8502 22.1394 30.8431 22.1679C30.836 22.1965 30.8288 22.2251 30.8252 22.2501C30.8181 22.2787 30.811 22.3072 30.8074 22.3358C30.8002 22.3679 30.7931 22.3965 30.786 22.4287C30.7788 22.4537 30.7752 22.4787 30.7681 22.5001C30.761 22.5287 30.7574 22.5537 30.7502 22.5822C30.7431 22.6108 30.736 22.6394 30.7288 22.6715C30.7217 22.6965 30.7145 22.7215 30.7074 22.7465C30.7002 22.7679 30.6931 22.7894 30.6895 22.8108C30.6824 22.8358 30.6752 22.8608 30.6681 22.8822C30.661 22.9072 30.6538 22.9358 30.6467 22.9608C30.6395 22.9894 30.6324 23.0179 30.6217 23.0429C30.6181 23.0572 30.6145 23.0715 30.6074 23.0894C30.6038 23.1037 30.6002 23.1215 30.5931 23.1358C30.5895 23.1537 30.5824 23.1679 30.5788 23.1858C30.5752 23.2001 30.5681 23.2144 30.5645 23.2287C30.561 23.2429 30.5538 23.2537 30.5502 23.2679C30.5467 23.2822 30.5395 23.2929 30.5359 23.3072C30.5324 23.3251 30.5252 23.3394 30.5181 23.3572C30.5145 23.3715 30.5074 23.3858 30.5038 23.3965C30.5002 23.4108 30.4931 23.4251 30.4895 23.4394C30.4824 23.4572 30.4788 23.4715 30.4717 23.4894C30.4681 23.5037 30.4645 23.5144 30.4574 23.5287C30.4538 23.5429 30.4467 23.5572 30.4431 23.5679C30.4359 23.5858 30.4324 23.6001 30.4252 23.6179C30.4181 23.6322 30.4145 23.6501 30.4074 23.6679C30.4038 23.6822 30.4002 23.6929 30.3931 23.7072C30.3895 23.7215 30.3824 23.7322 30.3788 23.7465C30.3717 23.7608 30.3681 23.7751 30.361 23.7894C30.3574 23.8001 30.3502 23.8144 30.3467 23.8251C30.3431 23.8358 30.336 23.8501 30.3324 23.8608C30.3288 23.8751 30.3217 23.8858 30.3181 23.9001C30.311 23.9144 30.3074 23.9287 30.3002 23.9429C30.2967 23.9572 30.2895 23.9679 30.286 23.9822C30.2824 23.9929 30.2752 24.0072 30.2717 24.0179C30.2681 24.0287 30.261 24.0429 30.2574 24.0537C30.2502 24.0679 30.2467 24.0822 30.2395 24.0965C30.236 24.1072 30.2288 24.1215 30.2252 24.1322C30.2217 24.1465 30.2145 24.1572 30.211 24.1715C30.2038 24.1858 30.1967 24.2037 30.1895 24.2179C30.1859 24.2287 30.1788 24.2429 30.1717 24.2537C30.1681 24.2644 30.161 24.2787 30.1538 24.2894C30.1502 24.3001 30.1431 24.3108 30.1395 24.3251C29.736 25.2429 29.2074 26.0965 28.5788 26.8608C28.5788 26.8608 28.5788 26.8608 28.5752 26.8644C28.5752 26.8644 28.5717 26.8715 28.5681 26.8715C28.5681 26.8715 28.5645 26.8751 28.561 26.8787C28.561 26.8787 28.5574 26.8822 28.5538 26.8858C28.5538 26.8858 28.5502 26.8894 28.5467 26.8929C28.5467 26.8929 28.5431 26.8965 28.5395 26.9001C28.5395 26.9001 28.5359 26.9037 28.5324 26.9072C28.5324 26.9072 28.5288 26.9108 28.5252 26.9144C28.5252 26.9144 28.5217 26.9179 28.5181 26.9215C28.5181 26.9215 28.5145 26.9287 28.511 26.9287C28.511 26.9287 28.511 26.9322 28.5074 26.9358C28.5074 26.9358 28.5038 26.9394 28.5002 26.9429C28.5002 26.9429 28.5002 26.9429 28.4967 26.9465C28.4967 26.9465 28.4931 26.9501 28.4895 26.9537C28.4895 26.9537 28.4895 26.9572 28.486 26.9608C28.486 26.9608 28.4824 26.9679 28.4788 26.9679C28.4788 26.9679 28.4752 26.9715 28.4717 26.9751C28.4717 26.9751 28.4681 26.9787 28.4645 26.9822C28.4645 26.9822 28.461 26.9858 28.4574 26.9894C28.4574 26.9894 28.4574 26.9894 28.4538 26.9929C28.4538 26.9929 28.4502 26.9965 28.4467 27.0001C28.4467 27.0001 28.4467 27.0037 28.4431 27.0072C28.4431 27.0072 28.4431 27.0072 28.4395 27.0108C28.4395 27.0108 28.4395 27.0108 28.436 27.0144C28.436 27.0144 28.436 27.0144 28.4324 27.0179C28.4324 27.0179 28.4324 27.0215 28.4288 27.0251C28.4288 27.0251 28.4288 27.0251 28.4252 27.0287C28.4252 27.0287 28.4217 27.0322 28.4181 27.0358C28.4145 27.0429 28.4074 27.0465 28.4038 27.0537L28.3895 27.0679C28.3895 27.0679 28.3788 27.0787 28.3752 27.0822C28.3681 27.0894 28.3645 27.0965 28.3574 27.1001C28.3538 27.1037 28.3467 27.1108 28.3431 27.1144C28.3395 27.1179 28.336 27.1251 28.3324 27.1287C28.3288 27.1358 28.3217 27.1394 28.3181 27.1465C28.3145 27.1537 28.3074 27.1572 28.3038 27.1644C28.3002 27.1715 28.2931 27.1751 28.2895 27.1822C28.2859 27.1894 28.2788 27.1929 28.2752 27.2001C28.2717 27.2037 28.2645 27.2108 28.261 27.2144C28.2574 27.2179 28.2538 27.2251 28.2467 27.2287C28.2395 27.2358 28.236 27.2429 28.2288 27.2501C28.2252 27.2537 28.2181 27.2608 28.2145 27.2644C28.211 27.2679 28.2038 27.2751 28.2002 27.2787C28.1931 27.2858 28.1895 27.2894 28.1824 27.2965C28.1788 27.3037 28.1717 27.3072 28.1681 27.3144C28.1645 27.3179 28.1574 27.3251 28.1538 27.3287C28.1502 27.3322 28.1431 27.3394 28.1395 27.3429C28.1324 27.3501 28.1252 27.3572 28.1217 27.3644C28.1217 27.3644 28.1145 27.3715 28.111 27.3751C28.1181 27.3787 28.1252 27.3822 28.1324 27.3858C28.1252 27.3858 28.1181 27.3787 28.1074 27.3787C28.1002 27.3858 28.0967 27.3894 28.0895 27.3965C28.0824 27.4037 28.0788 27.4072 28.0717 27.4144C28.0681 27.4179 28.061 27.4251 28.0574 27.4287C28.0502 27.4358 28.0467 27.4394 28.0395 27.4465L28.0217 27.4644C28.0217 27.4644 28.011 27.4751 28.0038 27.4822C28.0002 27.4858 27.9931 27.4929 27.9895 27.4965C27.9824 27.5037 27.9788 27.5072 27.9717 27.5144C27.9645 27.5215 27.961 27.5251 27.9538 27.5322C27.5967 27.8965 27.2145 28.2358 26.811 28.5465C26.7967 28.5572 26.7859 28.5679 26.7717 28.5787C26.5752 28.7287 26.3717 28.8715 26.1645 29.0108C26.1538 29.0179 26.1431 29.0251 26.1324 29.0322C25.9431 29.1572 25.7467 29.2751 25.5467 29.3894C25.5181 29.4072 25.4895 29.4215 25.4574 29.4394C25.2431 29.5572 25.0288 29.6715 24.8038 29.7751C24.7967 29.7751 24.7895 29.7822 24.7824 29.7858C24.5681 29.8858 24.3502 29.9787 24.1288 30.0644C24.1002 30.0751 24.0717 30.0894 24.0395 30.1001C23.5681 30.2787 23.0824 30.4287 22.5824 30.5429C22.5681 30.5429 22.5538 30.5501 22.5395 30.5537C21.761 30.7287 20.9538 30.8251 20.1252 30.8251H20.1217C18.7288 30.8251 17.3967 30.5644 16.1717 30.0894C15.686 29.9037 15.2181 29.6822 14.7681 29.4322C14.7574 29.4251 14.7467 29.4179 14.7324 29.4108C14.5181 29.2894 14.3074 29.1608 14.1002 29.0251C14.0967 29.0251 14.0895 29.0179 14.086 29.0144C13.8788 28.8787 13.6788 28.7358 13.4824 28.5858C13.461 28.5679 13.4395 28.5537 13.4181 28.5358C13.2431 28.4001 13.0752 28.2608 12.911 28.1179C12.886 28.0965 12.8645 28.0787 12.8395 28.0572C12.6645 27.9001 12.4931 27.7394 12.3288 27.5715C12.3217 27.5644 12.3145 27.5572 12.3038 27.5501C12.2967 27.5429 12.2931 27.5394 12.286 27.5322C12.2788 27.5251 12.2752 27.5215 12.2717 27.5144C12.2681 27.5108 12.261 27.5037 12.2574 27.4965C12.2538 27.4929 12.2502 27.4894 12.2467 27.4858C12.2467 27.4858 12.2431 27.4822 12.2395 27.4787C12.2324 27.4715 12.2288 27.4679 12.2217 27.4608C12.2145 27.4537 12.211 27.4501 12.2038 27.4429C12.1967 27.4358 12.1931 27.4322 12.186 27.4251C12.1788 27.4179 12.1752 27.4144 12.1681 27.4072C12.1645 27.4037 12.161 27.4001 12.1538 27.3929C12.1467 27.3858 12.1431 27.3822 12.136 27.3751C12.1288 27.3679 12.1252 27.3644 12.1181 27.3572C12.1145 27.3537 12.1074 27.3465 12.1038 27.3429C12.0967 27.3358 12.0931 27.3322 12.086 27.3251C12.0788 27.3179 12.0752 27.3144 12.0681 27.3072C12.0645 27.3037 12.0574 27.2965 12.0538 27.2929C12.0467 27.2858 12.0431 27.2822 12.036 27.2751C12.0324 27.2679 12.0252 27.2644 12.0181 27.2572C12.0145 27.2537 12.0074 27.2465 12.0038 27.2429C12.0002 27.2394 11.9931 27.2322 11.9895 27.2287C11.986 27.2215 11.9788 27.2179 11.9752 27.2108C11.9717 27.2072 11.9645 27.2001 11.961 27.1965C11.9574 27.1894 11.9502 27.1858 11.9467 27.1787C11.9431 27.1715 11.936 27.1679 11.9324 27.1608C11.9288 27.1572 11.9252 27.1501 11.9181 27.1465C11.9145 27.1394 11.9074 27.1358 11.9038 27.1287C11.9002 27.1215 11.8931 27.1179 11.8895 27.1108C11.886 27.1072 11.8824 27.1001 11.8788 27.0965C11.8752 27.0894 11.8681 27.0858 11.8645 27.0787C11.8574 27.0715 11.8538 27.0644 11.8467 27.0572C11.8431 27.0537 11.8395 27.0465 11.836 27.0429C11.8324 27.0358 11.8252 27.0322 11.8217 27.0251C11.8217 27.0251 11.8181 27.0215 11.8145 27.0179C11.8145 27.0179 11.8145 27.0179 11.811 27.0144C11.811 27.0144 11.8074 27.0108 11.8074 27.0072C11.8074 27.0072 11.8074 27.0072 11.8038 27.0037C11.8038 27.0037 11.8002 27.0001 11.7967 26.9965C11.7967 26.9965 11.7967 26.9965 11.7931 26.9929C11.7931 26.9929 11.7931 26.9929 11.7895 26.9894C11.7895 26.9894 11.786 26.9858 11.7824 26.9822C11.7824 26.9822 11.7824 26.9822 11.7788 26.9787C11.7788 26.9787 11.7788 26.9751 11.7717 26.9715C11.7717 26.9715 11.7717 26.9715 11.7681 26.9679C11.7681 26.9679 11.7681 26.9644 11.7645 26.9608C11.7645 26.9608 11.761 26.9572 11.7574 26.9537C11.7574 26.9537 11.7574 26.9501 11.7538 26.9465C11.7538 26.9465 11.7538 26.9429 11.7502 26.9394C11.7502 26.9394 11.7502 26.9358 11.7467 26.9322C11.7467 26.9322 11.7467 26.9322 11.7431 26.9287C11.7431 26.9287 11.7395 26.9251 11.736 26.9215C11.736 26.9215 11.7324 26.9179 11.7288 26.9144C11.7288 26.9144 11.7252 26.9072 11.7217 26.9072C11.7217 26.9072 11.7217 26.9072 11.7181 26.9037C11.7181 26.9037 11.7145 26.8965 11.711 26.8965C11.711 26.8965 11.711 26.8965 11.7074 26.8929C11.5788 26.7394 11.4574 26.5822 11.3395 26.4251C11.311 26.3858 11.286 26.3465 11.2574 26.3108C11.1502 26.1608 11.0431 26.0072 10.9431 25.8501C10.9074 25.7965 10.8752 25.7429 10.8395 25.6929C10.7217 25.5072 10.611 25.3144 10.5038 25.1215C10.4788 25.0751 10.4574 25.0287 10.4324 24.9822C10.3502 24.8251 10.2717 24.6608 10.1967 24.5001C10.1788 24.4608 10.1574 24.4251 10.1431 24.3894C10.1431 24.3894 10.1431 24.3894 10.1467 24.3894C10.1395 24.3715 10.1288 24.3501 10.1217 24.3322C10.1181 24.3215 10.111 24.3072 10.1038 24.2965C10.0967 24.2822 10.0895 24.2679 10.086 24.2537C10.0824 24.2429 10.0752 24.2322 10.0717 24.2179C10.0681 24.2072 10.061 24.1929 10.0574 24.1822C10.0502 24.1679 10.0467 24.1537 10.0395 24.1358C10.036 24.1251 10.0288 24.1108 10.0252 24.1001C10.0217 24.0894 10.0145 24.0751 10.011 24.0644C10.0038 24.0501 10.0002 24.0358 9.9931 24.0179C9.98952 24.0072 9.98238 23.9929 9.97881 23.9822C9.97524 23.9715 9.9681 23.9572 9.96452 23.9465C9.96095 23.9322 9.95381 23.9215 9.95024 23.9072C9.9431 23.8929 9.93952 23.8787 9.93238 23.8644C9.92881 23.8537 9.92167 23.8394 9.9181 23.8287C9.91452 23.8144 9.90738 23.8037 9.90381 23.7894C9.89667 23.7751 9.8931 23.7608 9.88595 23.7465C9.88238 23.7322 9.87524 23.7215 9.87167 23.7072C9.8681 23.6929 9.86095 23.6787 9.85738 23.6644C9.85024 23.6501 9.84667 23.6322 9.8431 23.6179C9.83952 23.6037 9.83238 23.5894 9.82881 23.5787C9.82524 23.5644 9.8181 23.5501 9.81452 23.5394C9.81095 23.5251 9.80381 23.5144 9.80024 23.5001C9.7931 23.4858 9.78952 23.4679 9.78238 23.4537C9.77881 23.4394 9.77167 23.4251 9.7681 23.4108C9.76452 23.3965 9.75738 23.3858 9.75381 23.3715C9.74667 23.3537 9.7431 23.3394 9.73595 23.3215C9.73238 23.3072 9.72524 23.2929 9.72167 23.2787C9.7181 23.2644 9.71095 23.2537 9.70738 23.2394C9.70381 23.2215 9.69667 23.2072 9.68952 23.1894C9.68595 23.1751 9.68238 23.1608 9.67524 23.1429C9.67167 23.1287 9.6681 23.1144 9.66095 23.1001C9.65381 23.0822 9.65024 23.0644 9.64667 23.0465C9.63952 23.0251 9.63238 23.0001 9.62881 22.9787C9.62167 22.9572 9.61452 22.9322 9.60738 22.9108C9.60024 22.8858 9.5931 22.8608 9.58595 22.8358C9.57881 22.8144 9.57167 22.7929 9.5681 22.7715C9.56095 22.7465 9.55381 22.7215 9.54667 22.7001C9.53952 22.6751 9.53595 22.6537 9.52881 22.6287C9.52167 22.6001 9.5181 22.5751 9.51095 22.5465C9.50381 22.5215 9.50024 22.4965 9.4931 22.4715C9.48595 22.4429 9.47881 22.4179 9.47524 22.3894C9.46809 22.3644 9.46452 22.3429 9.45738 22.3179C9.45024 22.2929 9.44667 22.2679 9.43952 22.2429C9.43238 22.2144 9.42524 22.1894 9.42167 22.1608C9.41452 22.1322 9.41095 22.1072 9.40738 22.0787C9.40024 22.0465 9.39667 22.0179 9.38952 21.9858C9.38595 21.9572 9.37881 21.9322 9.37524 21.9037C9.37167 21.8751 9.36452 21.8429 9.36095 21.8144C9.35738 21.7894 9.35024 21.7608 9.34667 21.7358C9.3431 21.7108 9.33595 21.6822 9.33238 21.6572C9.32881 21.6251 9.32167 21.5929 9.3181 21.5608C9.31452 21.5322 9.31095 21.5001 9.30738 21.4715C9.30381 21.4394 9.30024 21.4072 9.2931 21.3751C9.28952 21.3465 9.28595 21.3144 9.28238 21.2858C9.27881 21.2501 9.27167 21.2179 9.26809 21.1858C9.26809 21.1537 9.26095 21.1251 9.25738 21.0929C9.25738 21.0572 9.25381 21.0251 9.25024 20.9894C9.25024 20.9537 9.24667 20.9179 9.2431 20.8822C9.2431 20.8501 9.23952 20.8179 9.23595 20.7858C9.23595 20.7501 9.22881 20.7144 9.22881 20.6787C9.22881 20.6465 9.22167 20.6108 9.22167 20.5787C9.22167 20.5394 9.22167 20.5037 9.2181 20.4644C9.2181 20.4287 9.2181 20.3894 9.2181 20.3501C9.21452 20.2251 9.20738 20.0965 9.20738 19.9715C9.20738 13.9608 14.1002 9.08223 20.1395 9.08223C26.1788 9.08223 31.0752 13.9572 31.0752 19.9715C31.0752 20.0215 31.0752 20.0715 31.0717 20.1215L31.0645 20.1072Z" fill="white"/>
<path d="M20.1322 22.7035H20.1357C23.8465 22.7035 27.2857 23.3249 30.125 24.3821C29.7215 25.2785 29.2 26.1106 28.5822 26.8571C28.5822 26.8571 28.5857 26.8571 28.5893 26.8606C29.2215 26.0963 29.7465 25.2428 30.15 24.3249C29.1822 21.1499 25.0572 18.4678 20.1322 18.4678C15.2072 18.4678 11.0893 21.1499 10.1179 24.3213C10.125 24.3392 10.1357 24.3606 10.1429 24.3785C12.9893 23.3213 16.425 22.6999 20.1322 22.6999V22.7035Z" fill="white"/>
<path d="M30.1252 24.3822C27.2859 23.325 23.8466 22.7036 20.1359 22.7036H20.1324C16.4252 22.7036 12.9895 23.325 10.1431 24.3822C10.1431 24.3822 10.1431 24.3822 10.1395 24.3822C10.1574 24.4215 10.1788 24.4572 10.1931 24.4929C10.2681 24.6572 10.3466 24.8179 10.4288 24.975C10.4538 25.0215 10.4752 25.0679 10.5002 25.1143C10.6074 25.3072 10.7181 25.5 10.8359 25.6858C10.8681 25.7393 10.9038 25.7929 10.9395 25.8429C11.0395 26 11.1466 26.1536 11.2538 26.3036C11.2824 26.3429 11.3074 26.3822 11.3359 26.4179C11.4538 26.5786 11.5752 26.7358 11.7038 26.8858C11.7038 26.8858 11.7038 26.8858 11.7074 26.8893C11.7074 26.8893 11.7109 26.8965 11.7145 26.8965C11.7145 26.8965 11.7145 26.8965 11.7181 26.9C11.7181 26.9 11.7216 26.9072 11.7252 26.9072C11.7252 26.9072 11.7288 26.9108 11.7324 26.9143C11.7324 26.9143 11.7359 26.9179 11.7395 26.9215C11.7395 26.9215 11.7395 26.9215 11.7431 26.925C11.7431 26.925 11.7431 26.9286 11.7466 26.9322C11.7466 26.9322 11.7466 26.9358 11.7502 26.9393C11.7502 26.9393 11.7502 26.9429 11.7538 26.9465C11.7538 26.9465 11.7574 26.95 11.7609 26.9536C11.7609 26.9536 11.7609 26.9572 11.7645 26.9608C11.7645 26.9608 11.7645 26.9608 11.7681 26.9643C11.7681 26.9643 11.7681 26.9679 11.7752 26.9715C11.7752 26.9715 11.7752 26.9715 11.7788 26.975C11.7788 26.975 11.7824 26.9786 11.7859 26.9822C11.7859 26.9822 11.7859 26.9822 11.7895 26.9858C11.7895 26.9858 11.7895 26.9858 11.7931 26.9893C11.7931 26.9893 11.7966 26.9929 11.8002 26.9965C11.8002 26.9965 11.8002 26.9965 11.8038 27C11.8038 27 11.8074 27.0036 11.8074 27.0072C11.8074 27.0072 11.8074 27.0072 11.8109 27.0108C11.8109 27.0108 11.8145 27.0143 11.8181 27.0179C11.8216 27.025 11.8288 27.0286 11.8324 27.0358C11.8359 27.0393 11.8395 27.0465 11.8431 27.05C11.8502 27.0572 11.8538 27.0643 11.8609 27.0715C11.8645 27.0786 11.8716 27.0822 11.8752 27.0893C11.8788 27.0929 11.8824 27.1 11.8859 27.1036C11.8895 27.1108 11.8966 27.1143 11.9002 27.1215C11.9038 27.1286 11.9109 27.1322 11.9145 27.1393C11.9181 27.1429 11.9216 27.15 11.9288 27.1536C11.9324 27.1608 11.9395 27.1643 11.9431 27.1715C11.9466 27.1786 11.9538 27.1822 11.9574 27.1893C11.9609 27.1929 11.9681 27.2 11.9716 27.2036C11.9752 27.2108 11.9824 27.2143 11.9859 27.2215C11.9895 27.225 11.9966 27.2322 12.0002 27.2358C12.0038 27.2393 12.0109 27.2465 12.0145 27.25C12.0181 27.2572 12.0252 27.2608 12.0324 27.2679C12.0395 27.275 12.0431 27.2786 12.0502 27.2858C12.0538 27.2893 12.0609 27.2965 12.0645 27.3C12.0716 27.3072 12.0752 27.3108 12.0824 27.3179C12.0895 27.325 12.0931 27.3286 12.1002 27.3358C12.1038 27.3393 12.1109 27.3465 12.1145 27.35C12.1216 27.3572 12.1252 27.3608 12.1324 27.3679C12.1395 27.375 12.1431 27.3786 12.1502 27.3858C12.1538 27.3893 12.1574 27.3929 12.1645 27.4C12.1716 27.4072 12.1752 27.4108 12.1824 27.4179C12.1895 27.425 12.1931 27.4286 12.2002 27.4358C12.2074 27.4429 12.2109 27.4465 12.2181 27.4536C12.2252 27.4608 12.2288 27.4643 12.2359 27.4715C12.2359 27.4715 12.2395 27.475 12.2431 27.4786C12.2466 27.4822 12.2502 27.4858 12.2538 27.4893C12.2574 27.4929 12.2645 27.5 12.2681 27.5072C12.2752 27.5143 12.2788 27.5179 12.2824 27.525C12.2895 27.5322 12.2931 27.5358 12.3002 27.5429C12.3074 27.55 12.3145 27.5572 12.3252 27.5643C12.4895 27.7322 12.6609 27.8929 12.8359 28.05C12.8574 28.0715 12.8824 28.0893 12.9074 28.1108C13.0716 28.2536 13.2431 28.3965 13.4145 28.5286C13.4359 28.5465 13.4574 28.5608 13.4788 28.5786C13.6752 28.7286 13.8752 28.8715 14.0824 29.0072C14.0859 29.0072 14.0931 29.0143 14.0966 29.0179C14.3038 29.1536 14.5145 29.2822 14.7288 29.4036C14.7395 29.4108 14.7502 29.4179 14.7645 29.425C15.2145 29.675 15.6824 29.8965 16.1681 30.0822C17.3931 30.5536 18.7252 30.8179 20.1181 30.8179C20.9466 30.8179 21.7574 30.7215 22.5324 30.5465C22.5466 30.5465 22.5609 30.5393 22.5752 30.5358C23.0752 30.4215 23.5609 30.275 24.0324 30.0929C24.0609 30.0822 24.0895 30.0715 24.1216 30.0572C24.3431 29.9715 24.5609 29.8786 24.7752 29.7786C24.7824 29.7786 24.7895 29.7715 24.7966 29.7679C25.0181 29.6643 25.2359 29.55 25.4502 29.4322C25.4788 29.4143 25.5074 29.4 25.5395 29.3822C25.7395 29.2679 25.9324 29.15 26.1252 29.025C26.1359 29.0179 26.1466 29.0108 26.1574 29.0036C26.3645 28.8679 26.5681 28.7215 26.7645 28.5715C26.7788 28.5608 26.7931 28.55 26.8038 28.5393C27.2074 28.2286 27.5895 27.8893 27.9466 27.525C27.9538 27.5179 27.9574 27.5143 27.9645 27.5072C27.9716 27.5 27.9752 27.4965 27.9824 27.4893C27.9859 27.4858 27.9931 27.4786 27.9966 27.475C28.0038 27.4679 28.0074 27.4643 28.0145 27.4572L28.0324 27.4393C28.0324 27.4393 28.0431 27.4286 28.0502 27.4215C28.0538 27.4179 28.0609 27.4108 28.0645 27.4072C28.0716 27.4 28.0752 27.3965 28.0824 27.3893C28.0895 27.3822 28.0931 27.3786 28.1002 27.3715C28.1074 27.3715 28.1145 27.3786 28.1252 27.3786C28.1181 27.375 28.1109 27.3715 28.1038 27.3679C28.1038 27.3679 28.1109 27.3608 28.1145 27.3572C28.1216 27.35 28.1288 27.3429 28.1324 27.3358C28.1359 27.3322 28.1431 27.325 28.1466 27.3215C28.1502 27.3179 28.1574 27.3108 28.1609 27.3072C28.1645 27.3 28.1716 27.2965 28.1752 27.2893C28.1824 27.2822 28.1859 27.2786 28.1931 27.2715C28.1966 27.2679 28.2038 27.2608 28.2074 27.2572C28.2109 27.2536 28.2181 27.2465 28.2216 27.2429C28.2288 27.2358 28.2324 27.2286 28.2395 27.2215C28.2431 27.2179 28.2466 27.2108 28.2538 27.2072C28.2574 27.2036 28.2645 27.1965 28.2681 27.1929C28.2716 27.1858 28.2788 27.1822 28.2824 27.175C28.2859 27.1679 28.2931 27.1643 28.2966 27.1572C28.3002 27.15 28.3074 27.1465 28.3109 27.1393C28.3145 27.1322 28.3216 27.1286 28.3252 27.1215C28.3288 27.1179 28.3324 27.1108 28.3359 27.1072C28.3395 27.1036 28.3466 27.0965 28.3502 27.0929C28.3574 27.0858 28.3609 27.0786 28.3681 27.075C28.3716 27.0715 28.3788 27.0643 28.3824 27.0608L28.3966 27.0465C28.3966 27.0465 28.4074 27.0358 28.4109 27.0286C28.4109 27.0286 28.4145 27.025 28.4181 27.0215C28.4181 27.0215 28.4181 27.0215 28.4216 27.0179C28.4216 27.0179 28.4216 27.0143 28.4252 27.0108C28.4252 27.0108 28.4252 27.0108 28.4288 27.0072C28.4288 27.0072 28.4288 27.0072 28.4324 27.0036C28.4324 27.0036 28.4324 27.0036 28.4359 27C28.4359 27 28.4359 26.9965 28.4395 26.9929C28.4395 26.9929 28.4431 26.9893 28.4466 26.9858C28.4466 26.9858 28.4466 26.9858 28.4502 26.9822C28.4502 26.9822 28.4538 26.9786 28.4574 26.975C28.4574 26.975 28.4609 26.9715 28.4645 26.9679C28.4645 26.9679 28.4681 26.9643 28.4716 26.9608C28.4716 26.9608 28.4752 26.9536 28.4788 26.9536C28.4788 26.9536 28.4788 26.95 28.4824 26.9465C28.4824 26.9465 28.4859 26.9429 28.4895 26.9393C28.4895 26.9393 28.4895 26.9393 28.4931 26.9358C28.4931 26.9358 28.4966 26.9322 28.5002 26.9286C28.5002 26.9286 28.5002 26.925 28.5038 26.9215C28.5038 26.9215 28.5074 26.9143 28.5109 26.9143C28.5109 26.9143 28.5145 26.9108 28.5181 26.9072C28.5181 26.9072 28.5216 26.9036 28.5252 26.9C28.5252 26.9 28.5288 26.8965 28.5324 26.8929C28.5324 26.8929 28.5359 26.8893 28.5395 26.8858C28.5395 26.8858 28.5431 26.8822 28.5466 26.8786C28.5466 26.8786 28.5502 26.875 28.5538 26.8715C28.5538 26.8715 28.5574 26.8679 28.5609 26.8643C28.5609 26.8643 28.5645 26.8572 28.5681 26.8572C28.5681 26.8572 28.5681 26.8572 28.5716 26.8536C28.5716 26.8536 28.5681 26.8536 28.5645 26.85C29.1824 26.1 29.7038 25.2715 30.1074 24.375L30.1252 24.3822Z" fill="#0367B3"/>
</g>
<defs>
<clipPath id="clip0_266_55660">
<rect width="40" height="40" fill="white"/>
</clipPath>
</defs>
</svg>
