<svg width="56" height="56" viewBox="0 0 56 56" fill="none" xmlns="http://www.w3.org/2000/svg">
<g clip-path="url(#clip0_266_56216)">
<path d="M0 28C0 29.6486 0 29.8318 0.039289 31.2318C0.14406 34.3327 0.471469 37.8916 1.71562 41.6467C2.59308 44.3028 4.24322 47.1682 5.89335 48.9739C7.9888 51.2765 10.883 53.1605 14.0131 54.2335C17.2086 55.3325 20.666 55.869 27.3845 56H28.6287C35.3601 55.856 38.8045 55.3325 42 54.2335C45.1301 53.1605 48.0112 51.2765 50.1065 48.9739C51.757 47.1552 53.407 44.3028 54.2845 41.6467C55.5285 37.8916 55.869 34.3196 55.9605 31.2318C56 29.8449 56 29.6486 56 28C56 26.3514 56 26.1682 55.9605 24.7682C55.856 21.6673 55.5285 18.1084 54.2845 14.3532C53.407 11.6972 51.757 8.83175 50.1065 7.02615C48.0112 4.72337 45.117 2.83925 42 1.76636C38.8045 0.66729 35.347 0.130841 28.6287 0H27.3845C20.653 0.143925 17.2086 0.66729 14.0131 1.76636C10.883 2.83925 8.00185 4.72337 5.89335 7.02615C4.24322 8.84485 2.59308 11.6972 1.71562 14.3532C0.484565 18.1084 0.14406 21.6673 0.039289 24.7682C0 26.1551 0 26.3514 0 28Z" fill="#0064FF"/>
<mask id="mask0_266_56216" style="mask-type:luminance" maskUnits="userSpaceOnUse" x="10" y="12" width="35" height="33">
<path d="M44.9993 12.25H10.9993V44.25H44.9993V12.25Z" fill="white"/>
</mask>
<g mask="url(#mask0_266_56216)">
<path d="M44.9993 12.25H10.9993V44.25H44.9993V12.25Z" fill="#0064FF"/>
<path d="M29.8615 19.2624L31.2787 12.5732C31.3424 12.2372 31.0559 11.9329 30.7213 12.0129C28.6674 12.3809 26.5338 13.0212 24.4162 13.9334C14.8949 17.9822 9.13116 25.9197 11.5513 31.6648C13.3824 35.9696 19.2894 37.8101 26.1517 36.7379L24.7347 43.4271C24.6711 43.7631 24.9576 44.0673 25.2921 43.9873C27.3461 43.6193 29.4797 42.9791 31.5973 42.0669C41.1188 38.0181 46.8666 30.0806 44.4465 24.3195C42.6313 20.0307 36.7239 18.1902 29.8615 19.2624Z" fill="white"/>
</g>
</g>
<defs>
<clipPath id="clip0_266_56216">
<rect width="56" height="56" fill="white"/>
</clipPath>
</defs>
</svg>
