<svg width="24" height="24" viewBox="0 0 24 24" fill="none" xmlns="http://www.w3.org/2000/svg">
<g clip-path="url(#clip0_266_55152)">
<path d="M0 12C0 12.7066 0 12.7851 0.0168342 13.3851C0.0617254 14.7141 0.20201 16.2393 0.735094 17.8487C1.11106 18.987 1.81809 20.215 2.52513 20.9889C3.42296 21.9758 4.66308 22.7832 6.0042 23.2432C7.37338 23.7141 8.8548 23.9385 11.7334 24H12.2665C15.1508 23.9385 16.6266 23.7141 17.9958 23.2432C19.3369 22.7832 20.5714 21.9758 21.4749 20.9889C22.1818 20.2094 22.8889 18.987 23.2648 17.8487C23.7979 16.2393 23.9438 14.7085 23.9831 13.3851C24 12.7907 24 12.7066 24 12C24 11.2935 24 11.215 23.9831 10.615C23.9383 9.28603 23.7979 7.76078 23.2648 6.15142C22.8889 5.0131 22.1818 3.78505 21.4749 3.01123C20.577 2.02431 19.3369 1.21683 17.9958 0.757013C16.6266 0.285983 15.1452 0.0560749 12.2665 0H11.7334C8.84918 0.0616826 7.37338 0.285983 6.0042 0.757013C4.66308 1.21683 3.42857 2.02431 2.52513 3.01123C1.81809 3.79067 1.11106 5.0131 0.735094 6.15142C0.207622 7.76078 0.0617254 9.28603 0.0168342 10.615C0 11.2094 0 11.2935 0 12Z" fill="#DF242E"/>
<path d="M19.4943 11.3199C19.1136 11.0984 18.7614 10.8941 18.4148 10.684C18.3239 10.6272 18.2443 10.6215 18.1477 10.6613C17.4034 10.9849 16.6364 11.2745 15.9148 11.6378C14.0909 12.5576 12.4204 13.7216 10.8182 14.9764C10.7898 14.9991 10.767 15.0218 10.7386 15.0559C11.1193 15.3512 11.4943 15.635 11.858 15.9303C11.9546 16.0098 12.0057 15.9928 12.0966 15.9303C12.9205 15.3057 13.733 14.6585 14.5852 14.068C16.0057 13.0857 17.4943 12.2056 19.0796 11.4959C19.2102 11.4391 19.3352 11.3824 19.5 11.3142M8.45454 13.432C8.78976 13.6648 9.11364 13.8806 9.43183 14.1077C9.52273 14.1702 9.57954 14.1645 9.66478 14.102C10.1591 13.733 10.6534 13.3582 11.1591 13.0062C12.9659 11.7457 14.8807 10.6897 16.9886 10.014C17.0227 10.0026 17.0455 9.9856 17.0966 9.95721C16.7443 9.78119 16.4148 9.61086 16.0796 9.45188C16.0284 9.42916 15.9545 9.43484 15.8977 9.45188C15.2216 9.68468 14.5398 9.88909 13.8807 10.1616C12.1193 10.8941 10.5114 11.8934 8.98296 13.0289C8.80682 13.1595 8.63068 13.2958 8.44886 13.4377M6.34659 12.2113C6.6534 12.3873 6.9375 12.5406 7.2159 12.711C7.31818 12.7734 7.38069 12.7677 7.47726 12.6939C7.97728 12.3249 8.48295 11.9672 9 11.6265C9.58524 11.2404 10.8409 10.5364 10.8636 10.5136C10.5682 10.3831 10.2784 10.2581 10 10.1219C9.89773 10.0708 9.81819 10.0821 9.72159 10.1332C8.80114 10.6329 8.14772 11.0076 7.32954 11.5357C6.96591 11.7684 6.78977 11.8934 6.34091 12.2056M8.88636 9.69036C8.59091 9.5995 8.33522 9.51434 8.07386 9.45188C7.99431 9.43484 7.89204 9.44052 7.81817 9.47459C7.3125 9.71307 6.82386 9.96289 6.33523 10.2298C5.75567 10.5534 4.54545 11.2972 4.5 11.3312C4.7841 11.4562 5.05114 11.5811 5.32386 11.6946C5.36364 11.7117 5.4375 11.6946 5.47727 11.6662C5.65909 11.5527 5.84091 11.4278 6.02274 11.3142C6.93182 10.7294 7.86364 10.173 8.88636 9.69036ZM9.04545 8.92384C9.13637 8.95223 9.1875 8.96359 9.23295 8.98062C9.98295 9.24181 10.7386 9.46891 11.4659 9.77551C11.8295 9.92881 12.0398 9.97992 12.3977 9.79823C12.7159 9.66196 12.7614 9.63925 12.9602 9.54841C12.9034 9.51434 12.875 9.49731 12.8466 9.48595C11.9659 9.09417 11.0568 8.78757 10.125 8.54911C10.0909 8.53776 10.0455 8.53208 10.017 8.54911C9.70455 8.66834 9.39204 8.79325 9.04545 8.92384ZM14.8977 8.92384C14.8466 8.89546 13.8807 8.50936 13.4148 8.35039C12.9716 8.19709 12.5227 8.06082 12.0625 7.94725C12.0227 7.93589 11.9773 7.92456 11.9375 7.93021C11.7898 7.96996 11.642 8.00971 11.4943 8.04946C11.3523 8.08921 11.1932 8.13462 11.0455 8.17437C11.1193 8.19709 11.6989 8.36174 11.9886 8.45258C12.642 8.65698 13.2898 8.89546 13.9204 9.16799C13.9602 9.18503 14.0114 9.18503 14.0568 9.16799C14.3239 9.09417 14.5909 9.01469 14.892 8.92384" fill="white"/>
</g>
<defs>
<clipPath id="clip0_266_55152">
<rect width="24" height="24" fill="white"/>
</clipPath>
</defs>
</svg>
