<svg width="24" height="24" viewBox="0 0 24 24" fill="none" xmlns="http://www.w3.org/2000/svg">
<g clip-path="url(#clip0_266_54995)">
<path d="M0 12C0 12.7065 0 12.785 0.0168382 13.385C0.06174 14.714 0.202058 16.2393 0.735266 17.8486C1.11132 18.9869 1.81852 20.2149 2.52572 20.9888C3.42377 21.9756 4.66416 22.7831 6.00561 23.2429C7.37511 23.7139 8.85688 23.9439 11.7362 24H12.2694C15.1544 23.9383 16.6305 23.7139 18 23.2429C19.3414 22.7831 20.5763 21.9756 21.4742 20.9888C22.1816 20.2094 22.8887 18.9869 23.2648 17.8486C23.7979 16.2393 23.9439 14.7084 23.9831 13.385C24 12.7907 24 12.7065 24 12C24 11.2935 24 11.2149 23.9831 10.6149C23.9383 9.28599 23.7979 7.76074 23.2648 6.15139C22.8887 5.01309 22.1816 3.78504 21.4742 3.01121C20.5763 2.0243 19.3358 1.21682 18 0.757009C16.6305 0.285981 15.1487 0.0560747 12.2694 0H11.7362C8.85126 0.0616821 7.37511 0.285981 6.00561 0.757009C4.66416 1.21682 3.42936 2.0243 2.52572 3.01121C1.81852 3.79065 1.11132 5.01309 0.735266 6.15139C0.207671 7.76074 0.06174 9.28599 0.0168382 10.6149C0 11.2093 0 11.2935 0 12Z" fill="#0E0060"/>
<path d="M5.68821 9.72168L4.00934 11.7257V9.72168H3.16071V14.0938H4.00934V12.0845L5.74371 14.0938H6.80682L4.91982 11.909L6.75132 9.72168H5.68821Z" fill="white"/>
<mask id="mask0_266_54995" style="mask-type:luminance" maskUnits="userSpaceOnUse" x="3" y="9" width="18" height="6">
<path d="M20.7861 9.6958H3.16107V14.1958H20.7861V9.6958Z" fill="white"/>
</mask>
<g mask="url(#mask0_266_54995)">
<path d="M8.84113 10.962C8.50147 10.9711 8.17695 11.1045 7.92913 11.337V9.7207H7.08052V12.6007C7.06895 12.8146 7.10291 13.0285 7.18012 13.2283C7.25735 13.4281 7.37608 13.6092 7.52848 13.7598C7.68088 13.9103 7.86348 14.0268 8.06422 14.1015C8.26496 14.1762 8.47927 14.2075 8.69302 14.1933C8.90694 14.2026 9.12048 14.1673 9.32008 14.0898C9.51969 14.0122 9.70102 13.8941 9.8526 13.7428C10.0042 13.5916 10.1227 13.4105 10.2007 13.2111C10.2786 13.0116 10.3143 12.7982 10.3055 12.5842C10.3055 11.6958 9.73288 10.9623 8.84302 10.9623M8.69302 13.4055C8.48013 13.403 8.2766 13.3175 8.12585 13.1672C7.9751 13.0169 7.88902 12.8136 7.88602 12.6007C7.88602 12.5932 7.88602 12.5853 7.88602 12.5775C7.88595 12.4858 7.90091 12.3947 7.93027 12.3078C7.98281 12.1466 8.08473 12.0059 8.22161 11.9058C8.3585 11.8056 8.52341 11.7511 8.69302 11.7498C8.9094 11.7544 9.1154 11.8436 9.26681 11.9983C9.41823 12.153 9.50302 12.3608 9.50302 12.5773C9.50302 12.7937 9.41823 13.0015 9.26681 13.1562C9.1154 13.3109 8.9094 13.4001 8.69302 13.4047" fill="white"/>
<path d="M16.3031 10.9623C15.9396 10.9587 15.5887 11.0962 15.3244 11.3459V11.0575H14.4758V14.095H15.3244V12.3922C15.3244 12.2262 15.3903 12.067 15.5077 11.9496C15.6251 11.8322 15.7843 11.7663 15.9503 11.7663C16.1163 11.7663 16.2754 11.8322 16.3928 11.9496C16.5102 12.067 16.5761 12.2262 16.5761 12.3922V14.095H17.43V12.1488C17.43 12.1372 17.43 12.1252 17.43 12.1135C17.4317 11.8118 17.3143 11.5215 17.1032 11.3059C16.8921 11.0903 16.6045 10.9666 16.3028 10.9619" fill="white"/>
<path d="M12.3348 10.9643C12.1198 10.954 11.905 10.9884 11.704 11.0653C11.503 11.1422 11.3201 11.26 11.167 11.4113C11.0138 11.5625 10.8937 11.7439 10.8143 11.944C10.7348 12.144 10.6978 12.3583 10.7054 12.5735C10.6898 12.7785 10.7162 12.9845 10.7831 13.1789C10.85 13.3733 10.9559 13.552 11.0944 13.7039C11.2329 13.8559 11.401 13.9779 11.5884 14.0625C11.7758 14.147 11.9785 14.1924 12.1841 14.1957C12.3814 14.1917 12.5752 14.1426 12.7507 14.0523C12.9261 13.962 13.0786 13.8327 13.1966 13.6745V14.0945H13.9642V12.5742H13.9571L13.9638 12.557C13.9743 12.3419 13.939 12.127 13.8603 11.9266C13.7816 11.7262 13.6613 11.5447 13.5073 11.3942C13.3534 11.2437 13.1692 11.1275 12.967 11.0534C12.7648 10.9793 12.5492 10.949 12.3344 10.9643M12.3521 13.4018C12.1876 13.4059 12.0256 13.3609 11.8868 13.2725C11.748 13.1841 11.6387 13.0563 11.5729 12.9055C11.5071 12.7547 11.4877 12.5877 11.5173 12.4258C11.5469 12.2639 11.624 12.1145 11.7389 11.9967C11.8538 11.8789 12.0012 11.798 12.1622 11.7643C12.3233 11.7307 12.4908 11.7458 12.6432 11.8078C12.7957 11.8698 12.9261 11.9758 13.018 12.1123C13.1099 12.2488 13.159 12.4096 13.1591 12.5742C13.1615 12.7907 13.0779 12.9993 12.9267 13.1543C12.7754 13.3092 12.5689 13.3978 12.3524 13.4007" fill="white"/>
<path d="M20.7862 14.0541L19.5153 12.5458L20.7487 11.0394H19.8356L18.7612 12.3441V9.6958H17.9152V14.0541H18.7612V12.7464L19.8562 14.0544L20.7862 14.0541Z" fill="white"/>
</g>
</g>
<defs>
<clipPath id="clip0_266_54995">
<rect width="24" height="24" fill="white"/>
</clipPath>
</defs>
</svg>
