<svg width="24" height="24" viewBox="0 0 24 24" fill="none" xmlns="http://www.w3.org/2000/svg">
<g clip-path="url(#clip0_266_54833)">
<path d="M0 12C0 12.7065 0 12.785 0.0168382 13.385C0.06174 14.714 0.202058 16.2393 0.735266 17.8486C1.11132 18.9869 1.81852 20.2149 2.52572 20.9888C3.42375 21.9756 4.66416 22.7831 6.00561 23.2429C7.37511 23.7139 8.85688 23.9439 11.7362 24H12.2694C15.1544 23.9383 16.6305 23.7139 18 23.2429C19.3415 22.7831 20.5762 21.9756 21.4742 20.9888C22.1816 20.2094 22.8887 18.9869 23.2648 17.8486C23.7979 16.2393 23.9439 14.7084 23.9831 13.385C24 12.7907 24 12.7065 24 12C24 11.2935 24 11.2149 23.9831 10.6149C23.9383 9.28599 23.7979 7.76074 23.2648 6.15139C22.8887 5.01309 22.1816 3.78504 21.4742 3.01121C20.5762 2.0243 19.3358 1.21682 18 0.757009C16.6305 0.285981 15.1487 0.0560747 12.2694 0H11.7362C8.85126 0.0616821 7.37511 0.285981 6.00561 0.757009C4.66416 1.21682 3.42936 2.0243 2.52572 3.01121C1.81852 3.79065 1.11132 5.01309 0.735266 6.15139C0.207671 7.76074 0.06174 9.28599 0.0168382 10.6149C0 11.2094 0 11.2935 0 12Z" fill="#0062B5"/>
<path d="M19.1092 9.00598H18.1732V11.4223H14.3392V9.00598H13.4032C13.1632 9.02998 12.9832 9.23983 13.0012 9.48566V14.5941C12.9832 14.8399 13.1632 15.0498 13.4032 15.0737H14.3392V12.4716H18.1732V15.0677H19.1092C19.3552 15.0438 19.5292 14.8339 19.5112 14.5881V9.47966C19.5292 9.23383 19.3492 9.02398 19.1092 9" fill="white"/>
<path d="M11.0881 8.95752H10.1521V13.6043L7.33208 9.89286C6.86408 9.35324 6.54008 8.95752 5.79008 8.95752H4.83608V14.5456C4.81808 14.7914 4.99808 15.0013 5.23808 15.0253H6.17408V10.3545L9.01208 14.0419C9.49208 14.5936 9.91808 15.0253 10.6141 15.0253H11.4901V9.43718C11.5081 9.19135 11.3281 8.9815 11.0881 8.95752Z" fill="white"/>
</g>
<defs>
<clipPath id="clip0_266_54833">
<rect width="24" height="24" fill="white"/>
</clipPath>
</defs>
</svg>
