<svg width="24" height="24" viewBox="0 0 24 24" fill="none" xmlns="http://www.w3.org/2000/svg">
<g clip-path="url(#clip0_266_54975)">
<path d="M0 12C0 12.7065 0 12.785 0.0168382 13.385C0.06174 14.714 0.202058 16.2393 0.735266 17.8486C1.11132 18.9869 1.81852 20.2149 2.52572 20.9888C3.42377 21.9756 4.66416 22.7831 6.00561 23.2429C7.37511 23.7139 8.85688 23.9439 11.7362 24H12.2694C15.1544 23.9383 16.6305 23.7139 18 23.2429C19.3414 22.7831 20.5763 21.9756 21.4742 20.9888C22.1816 20.2094 22.8887 18.9869 23.2648 17.8486C23.7979 16.2393 23.9439 14.7084 23.9831 13.385C24 12.7907 24 12.7065 24 12C24 11.2935 24 11.2149 23.9831 10.6149C23.9383 9.28599 23.7979 7.76074 23.2648 6.15139C22.8887 5.01309 22.1816 3.78504 21.4742 3.01121C20.5763 2.0243 19.3358 1.21682 18 0.757009C16.6305 0.285981 15.1487 0.0560747 12.2694 0H11.7362C8.85126 0.0616821 7.37511 0.285981 6.00561 0.757009C4.66416 1.21682 3.42936 2.0243 2.52572 3.01121C1.81852 3.79065 1.11132 5.01309 0.735266 6.15139C0.207671 7.76074 0.06174 9.28599 0.0168382 10.6149C0 11.2093 0 11.2935 0 12Z" fill="#FFDF00"/>
<path d="M15.0162 11.9993C15.3729 11.7894 15.6822 11.5088 15.9248 11.1752C16.1675 10.8416 16.3382 10.4621 16.4265 10.0602C16.5147 9.65833 16.5186 9.24277 16.4379 8.83935C16.3571 8.43594 16.1935 8.05333 15.9571 7.71532C15.6457 7.28079 15.2331 6.9272 14.7544 6.68452C14.2756 6.44184 13.7449 6.31727 13.2072 6.32139H7.69063C7.64143 6.32029 7.59379 6.33851 7.55809 6.37209C7.52237 6.40567 7.5015 6.45187 7.5 6.50064V17.4972C7.50118 17.5461 7.52188 17.5925 7.55754 17.6263C7.59321 17.66 7.64094 17.6784 7.69022 17.6773H13.2072C14.0574 17.6998 14.8817 17.3867 15.4991 16.8069C16.1166 16.2271 16.4766 15.428 16.5 14.5852C16.4955 14.0646 16.3569 13.5537 16.0972 13.1011C15.8375 12.6485 15.4654 12.2692 15.0162 11.9993ZM12.308 14.5832H11.2722V9.41505H12.308V14.5832Z" fill="#1E1E1E"/>
</g>
<defs>
<clipPath id="clip0_266_54975">
<rect width="24" height="24" fill="white"/>
</clipPath>
</defs>
</svg>
