<svg width="24" height="24" viewBox="0 0 24 24" fill="none" xmlns="http://www.w3.org/2000/svg">
<g clip-path="url(#clip0_266_54878)">
<path d="M0 12C0 12.705 0 12.7864 0.0192857 13.3821C0.0621429 14.7086 0.205714 16.2386 0.739286 17.8457C1.11643 18.9857 1.82143 20.2093 2.52857 20.9871C3.42857 21.9729 4.665 22.7807 6.00429 23.2415C7.37357 23.7129 8.85429 23.94 11.7343 24H12.2657C15.1457 23.94 16.6264 23.7129 17.9957 23.2415C19.335 22.7807 20.5714 21.9729 21.4714 20.9871C22.1807 20.2093 22.8836 18.9857 23.2607 17.8457C23.7943 16.2364 23.9379 14.7086 23.9807 13.3821C24 12.7864 24 12.705 24 12C24 11.295 24 11.2136 23.9807 10.6179C23.9379 9.29143 23.7943 7.76357 23.2607 6.15429C22.8836 5.01429 22.1807 3.79072 21.4714 3.01286C20.5714 2.02714 19.335 1.21929 17.9957 0.756428C16.6264 0.284999 15.1457 0.0578571 12.2657 0H11.7343C8.85429 0.06 7.37357 0.284999 6.00429 0.756428C4.665 1.21714 3.42857 2.025 2.52857 3.01286C1.82143 3.78857 1.11643 5.01429 0.739286 6.15429C0.205714 7.76143 0.0621429 9.29143 0.0192857 10.6179C0 11.2136 0 11.295 0 12Z" fill="#0367B3"/>
<path d="M12.1071 18.6323C15.7451 18.6323 18.6942 15.6831 18.6942 12.0452C18.6942 8.40716 15.7451 5.45801 12.1071 5.45801C8.46911 5.45801 5.51996 8.40716 5.51996 12.0452C5.51996 15.6831 8.46911 18.6323 12.1071 18.6323Z" fill="#0098D5"/>
<path d="M12.105 7.63735C15.0985 7.63735 17.655 9.4802 18.6385 12.0645C18.6385 12.0345 18.6407 12.0045 18.6407 11.9745C18.6407 8.36592 15.7028 5.44092 12.0792 5.44092C8.45567 5.44092 5.51996 8.36806 5.51996 11.9745C5.51996 12.0516 5.5221 12.1266 5.52639 12.2016C6.46924 9.54449 9.05996 7.6352 12.1071 7.6352L12.105 7.63735Z" fill="#0083CA"/>
<path d="M12.1091 7.69078C15.1091 7.69078 17.6677 9.54006 18.6384 12.1265C18.6384 12.1051 18.6384 12.0858 18.6384 12.0644C17.6549 9.47792 15.0984 7.63721 12.1049 7.63721C9.11128 7.63721 6.46914 9.54649 5.52414 12.2036C5.52414 12.2251 5.52414 12.2486 5.52414 12.2722C6.45414 9.61292 9.05128 7.69292 12.1049 7.69292L12.1091 7.69078Z" fill="#0083CA"/>
<path d="M12.1005 7.75287C15.1176 7.75287 17.6826 9.6193 18.6362 12.2164C18.6362 12.1864 18.6362 12.1564 18.6383 12.1286C17.6676 9.5443 15.109 7.69287 12.109 7.69287C9.10903 7.69287 6.45832 9.61287 5.52832 12.2722C5.52832 12.2957 5.52832 12.3172 5.53046 12.3407C6.44546 9.68144 9.03832 7.75501 12.1005 7.75501V7.75287Z" fill="#0085CB"/>
<path d="M12.1008 7.75293C9.03868 7.75293 6.44582 9.6815 5.53082 12.3386C5.53082 12.3579 5.53511 12.3794 5.53511 12.3986C6.43939 9.74364 9.03654 7.81079 12.103 7.81079C15.1694 7.81079 17.6958 9.68793 18.6344 12.2851C18.6344 12.2636 18.6344 12.2401 18.6344 12.2165C17.683 9.61936 15.1158 7.75293 12.0987 7.75293H12.1008Z" fill="#0086CC"/>
<path d="M12.1029 7.81074C9.03643 7.81074 6.43715 9.74359 5.535 12.3986C5.535 12.42 5.53929 12.4415 5.53929 12.4629C6.42858 9.80788 9.03 7.86859 12.1029 7.86859C15.1757 7.86859 17.7043 9.75431 18.63 12.3515C18.63 12.3279 18.6321 12.3065 18.6343 12.2829C17.6957 9.68574 15.1264 7.80859 12.1029 7.80859V7.81074Z" fill="#0088CC"/>
<path d="M12.1028 7.92437C15.1371 7.92437 17.7128 9.81865 18.6256 12.4158C18.6256 12.3944 18.6299 12.3729 18.6299 12.3515C17.7064 9.75222 15.1328 7.86865 12.1028 7.86865C9.07279 7.86865 6.4285 9.80794 5.53922 12.4629C5.53922 12.4822 5.54136 12.5015 5.5435 12.5208C6.42207 9.87008 9.02779 7.92437 12.1028 7.92437Z" fill="#0089CD"/>
<path d="M12.1027 7.92432C9.02768 7.92432 6.42197 9.87003 5.5434 12.5207C5.5434 12.5422 5.54554 12.5636 5.54768 12.585C6.41125 9.93646 9.01911 7.98217 12.0984 7.98217C15.1777 7.98217 17.7213 9.88717 18.617 12.4865C18.617 12.4629 18.6213 12.4393 18.6234 12.4157C17.7127 9.8186 15.137 7.92432 12.1005 7.92432H12.1027Z" fill="#008BCE"/>
<path d="M12.1008 8.04438C15.1479 8.04438 17.7301 9.95366 18.6151 12.5487C18.6151 12.5294 18.6172 12.5079 18.6194 12.4887C17.7236 9.88938 15.1415 7.98438 12.1008 7.98438C9.06008 7.98438 6.41365 9.93866 5.55008 12.5872C5.55008 12.6087 5.55222 12.6279 5.55437 12.6494C6.40508 10.0029 9.01294 8.04438 12.1008 8.04438Z" fill="#008DCF"/>
<path d="M12.1007 8.04443C9.01283 8.04443 6.40497 10.003 5.55426 12.6494C5.55426 12.6687 5.55855 12.6859 5.56069 12.7051C6.39855 10.0651 9.00855 8.10443 12.0964 8.10443C15.1843 8.10443 17.7407 10.0244 18.6085 12.6216C18.6107 12.598 18.6128 12.5744 18.6128 12.5509C17.7278 9.95586 15.1457 8.04658 12.0985 8.04658L12.1007 8.04443Z" fill="#008ED0"/>
<path d="M12.1009 8.16205C15.1588 8.16205 17.7473 10.0842 18.6045 12.6749C18.6045 12.6556 18.6088 12.6363 18.6109 12.6192C17.743 10.0221 15.1545 8.10205 12.0988 8.10205C9.04305 8.10205 6.40091 10.0649 5.56305 12.7028C5.56519 12.7242 5.56734 12.7435 5.57162 12.7628C6.39662 10.1271 9.00876 8.15991 12.103 8.15991L12.1009 8.16205Z" fill="#0090D0"/>
<path d="M12.1008 8.16211C9.00648 8.16211 6.39434 10.1293 5.56934 12.765C5.57148 12.7821 5.57362 12.8014 5.57576 12.8185C6.39005 10.1893 9.00219 8.21782 12.0986 8.21782C15.1951 8.21782 17.7558 10.1507 18.5958 12.7393C18.5979 12.7178 18.6022 12.6964 18.6043 12.675C17.7472 10.0843 15.1586 8.16211 12.1008 8.16211Z" fill="#0092D1"/>
<path d="M12.0942 8.27368C15.1649 8.27368 17.7599 10.2108 18.5871 12.7972C18.5892 12.778 18.5913 12.7565 18.5956 12.7372C17.7535 10.1465 15.1628 8.21582 12.0985 8.21582C9.03419 8.21582 6.38991 10.1894 5.57562 12.8165C5.57777 12.8358 5.57991 12.8551 5.58419 12.8744C6.38348 10.2494 8.99562 8.27153 12.0963 8.27153L12.0942 8.27368Z" fill="#0093D2"/>
<path d="M12.094 8.27344C8.99331 8.27344 6.38116 10.2513 5.58188 12.8763C5.58402 12.8934 5.58616 12.9127 5.58831 12.9299C6.37688 10.3113 8.98902 8.33129 12.094 8.33129C15.199 8.33129 17.764 10.277 18.5783 12.8592C18.5805 12.8399 18.5826 12.8184 18.5869 12.7992C17.7597 10.2127 15.1647 8.27558 12.094 8.27558V8.27344Z" fill="#0095D3"/>
<path d="M12.0985 8.3894C15.1757 8.3894 17.7707 10.3373 18.5742 12.913C18.5764 12.8958 18.5785 12.8765 18.5807 12.8594C17.7664 10.2773 15.1714 8.33154 12.0964 8.33154C9.02138 8.33154 6.37924 10.3137 5.59067 12.9301C5.59281 12.9494 5.5971 12.9687 5.59924 12.988C6.37495 10.3758 8.99138 8.3894 12.0985 8.3894Z" fill="#0097D4"/>
<path d="M12.0987 8.38916C8.9916 8.38916 6.37517 10.3777 5.59946 12.9877C5.6016 13.0027 5.60589 13.0199 5.60803 13.0349C6.37303 10.4334 8.98731 8.44916 12.0923 8.44916C15.1973 8.44916 17.7773 10.4077 18.5637 12.9834C18.568 12.9599 18.5702 12.9363 18.5745 12.9127C17.7709 10.337 15.1759 8.38916 12.0987 8.38916Z" fill="#0098D5"/>
<path d="M12.0921 8.50708C15.18 8.50708 17.7793 10.4656 18.555 13.0306C18.5571 13.0156 18.5614 12.9985 18.5636 12.9835C17.7793 10.4078 15.1778 8.44922 12.0921 8.44922C9.00642 8.44922 6.37071 10.4335 5.60785 13.0349C5.60999 13.0499 5.61428 13.0671 5.61642 13.0821C6.37071 10.4914 8.98499 8.50493 12.0943 8.50493L12.0921 8.50708Z" fill="#009AD5"/>
<path d="M12.0924 8.50732C8.9831 8.50732 6.37096 10.4916 5.61453 13.0845C5.61668 13.1016 5.62096 13.1209 5.6231 13.138C6.36453 10.5559 8.98096 8.5673 12.0902 8.5673C15.1995 8.5673 17.7795 10.5302 18.5424 13.0866C18.5445 13.0695 18.5488 13.0502 18.551 13.033C17.7752 10.468 15.176 8.50945 12.0881 8.50945L12.0924 8.50732Z" fill="#009CD6"/>
<path d="M12.09 8.6228C15.1821 8.6228 17.7857 10.5899 18.5357 13.1421C18.54 13.1228 18.5421 13.1035 18.5464 13.0842C17.7835 10.5278 15.1821 8.56494 12.0942 8.56494C9.00639 8.56494 6.36853 10.5535 5.62711 13.1357C5.62925 13.1528 5.63353 13.1678 5.63568 13.1849C6.36639 10.6114 8.98068 8.62066 12.0921 8.62066L12.09 8.6228Z" fill="#009ED7"/>
<path d="M12.0898 8.62305C8.97836 8.62305 6.36408 10.6138 5.63336 13.1873C5.63765 13.2066 5.63979 13.2238 5.64408 13.243C6.35979 10.6759 8.97408 8.67876 12.0898 8.67876C15.2055 8.67876 17.7898 10.6502 18.5269 13.1938C18.5291 13.1766 18.5334 13.1595 18.5355 13.1423C17.7855 10.5902 15.1819 8.62305 12.0898 8.62305Z" fill="#00A0D8"/>
<path d="M12.0878 8.73657C15.1907 8.73657 17.7943 10.7144 18.5164 13.2494C18.5207 13.2301 18.5228 13.2109 18.5271 13.1937C17.7921 10.6501 15.1885 8.67871 12.09 8.67871C8.9914 8.67871 6.35997 10.6759 5.64426 13.243C5.64854 13.2601 5.65069 13.2773 5.65283 13.2923C6.35783 10.7359 8.96783 8.73657 12.0878 8.73657Z" fill="#00A1D9"/>
<path d="M12.088 8.73633C8.96805 8.73633 6.35805 10.7356 5.65305 13.292C5.65733 13.3092 5.66162 13.3242 5.66376 13.3413C6.3559 10.7956 8.9659 8.79633 12.0859 8.79633C15.2059 8.79633 17.7966 10.7742 18.5038 13.3028C18.508 13.2856 18.5102 13.2663 18.5145 13.2492C17.7923 10.712 15.1888 8.73633 12.0859 8.73633H12.088Z" fill="#00A3DA"/>
<path d="M12.0877 8.85405C15.1949 8.85405 17.7984 10.8362 18.4949 13.3541C18.4992 13.3369 18.5034 13.3219 18.5056 13.3048C17.7963 10.7762 15.1927 8.79834 12.0877 8.79834C8.98273 8.79834 6.35773 10.7976 5.66559 13.3433C5.66987 13.3583 5.67202 13.3733 5.6763 13.3883C6.35987 10.8555 8.96987 8.8562 12.0877 8.8562V8.85405Z" fill="#00A5DB"/>
<path d="M12.0879 8.85419C8.97005 8.85419 6.36005 10.8535 5.67648 13.3863C5.68077 13.4013 5.68291 13.4163 5.6872 13.4292C6.36005 10.9113 8.9722 8.91419 12.0901 8.91419C15.2079 8.91419 17.8008 10.8963 18.4843 13.4035C18.4886 13.3863 18.4929 13.3692 18.4951 13.3521C17.7986 10.8342 15.1951 8.85205 12.0879 8.85205V8.85419Z" fill="#00A7DC"/>
<path d="M12.0855 8.97241C15.1948 8.97241 17.8005 10.961 18.4712 13.4596C18.4755 13.4403 18.4798 13.4231 18.4841 13.4038C17.7984 10.8967 15.197 8.91455 12.0898 8.91455C8.98266 8.91455 6.36195 10.9117 5.68695 13.4296C5.69124 13.4467 5.69338 13.4617 5.69766 13.4788C6.35766 10.9696 8.96767 8.97241 12.0855 8.97241Z" fill="#00A9DD"/>
<path d="M12.0857 8.97217C8.96567 8.97217 6.35781 10.9693 5.69781 13.4786C5.7021 13.4936 5.70424 13.5086 5.70853 13.5236C6.35996 11.0293 8.96567 9.03003 12.0857 9.03003C15.2057 9.03003 17.8007 11.0165 18.4607 13.5043C18.465 13.4893 18.4671 13.4743 18.4714 13.4615C17.8007 10.9629 15.1971 8.97431 12.0857 8.97431V8.97217Z" fill="#00ABDE"/>
<path d="M12.0859 9.08813C15.1973 9.08813 17.8009 11.0788 18.4501 13.5538C18.4544 13.5367 18.4566 13.5217 18.4609 13.5046C17.8009 11.0188 15.1973 9.03027 12.0859 9.03027C8.97442 9.03027 6.358 11.0296 5.70871 13.5238C5.713 13.541 5.71514 13.556 5.71942 13.5731C6.358 11.0896 8.96371 9.08813 12.0859 9.08813Z" fill="#00ADDE"/>
<path d="M12.0856 9.08808C8.96346 9.08808 6.35775 11.0874 5.71918 13.5731C5.72346 13.5881 5.72561 13.6009 5.72989 13.6159C6.35775 11.1452 8.96346 9.14594 12.0835 9.14594C15.2035 9.14594 17.8049 11.1388 18.437 13.6052C18.4413 13.5881 18.4456 13.5709 18.4499 13.5517C17.8006 11.0767 15.1992 9.08594 12.0856 9.08594V9.08808Z" fill="#00AFDF"/>
<path d="M12.0793 9.20141C15.1972 9.20141 17.8008 11.1943 18.4243 13.6478C18.4286 13.6328 18.4329 13.6178 18.4372 13.6028C17.805 11.1364 15.1993 9.14355 12.0836 9.14355C8.9679 9.14355 6.3579 11.1407 5.73004 13.6136C5.73433 13.6286 5.73861 13.6436 5.7429 13.6564C6.36004 11.2007 8.95933 9.20141 12.0815 9.20141H12.0793Z" fill="#00B1E0"/>
<path d="M12.0791 9.20136C8.95694 9.20136 6.35765 11.2006 5.74051 13.6564C5.74479 13.6692 5.74908 13.6821 5.75122 13.6949C6.35979 11.2542 8.96122 9.25708 12.0812 9.25708C15.2012 9.25708 17.7984 11.2478 18.4112 13.6842C18.4155 13.6714 18.4198 13.6585 18.4219 13.6456C17.8005 11.1921 15.1969 9.19922 12.0769 9.19922L12.0791 9.20136Z" fill="#00B3E1"/>
<path d="M12.0814 9.31743C15.1971 9.31743 17.7964 11.306 18.3985 13.7317C18.4028 13.7167 18.4071 13.7017 18.4114 13.6889C17.7985 11.2524 15.1971 9.26172 12.0814 9.26172C8.96569 9.26172 6.35998 11.2567 5.7514 13.6996C5.75569 13.7146 5.75998 13.7296 5.76426 13.7446C6.36212 11.3146 8.9614 9.32172 12.0814 9.32172V9.31743Z" fill="#0DB5E2"/>
<path d="M12.0815 9.31708C8.96152 9.31708 6.36009 11.3121 5.76437 13.7399C5.76866 13.7528 5.77295 13.7678 5.77723 13.7807C6.36437 11.3678 8.9658 9.37494 12.0837 9.37494C15.2015 9.37494 17.7965 11.3657 18.3879 13.7764C18.3922 13.7614 18.3965 13.7442 18.4008 13.7292C17.7987 11.3057 15.1972 9.31494 12.0837 9.31494L12.0815 9.31708Z" fill="#19B7E3"/>
<path d="M12.0795 9.43267C15.1973 9.43267 17.7966 11.4277 18.3731 13.8277C18.3773 13.8105 18.3816 13.7934 18.3881 13.7784C17.7966 11.3677 15.1995 9.37695 12.0838 9.37695C8.96806 9.37695 6.36663 11.3698 5.77734 13.7827C5.78163 13.7955 5.78592 13.8105 5.78806 13.8234C6.36663 11.4255 8.96377 9.43267 12.0795 9.43267Z" fill="#21B9E4"/>
<path d="M12.0792 9.43311C8.96353 9.43311 6.36638 11.426 5.78781 13.8238C5.78995 13.8345 5.79424 13.8452 5.79638 13.856C6.37067 11.471 8.96353 9.48882 12.0792 9.48882C15.195 9.48882 17.79 11.471 18.3642 13.856C18.3664 13.8474 18.3685 13.8388 18.3728 13.8281C17.7985 11.4281 15.1992 9.43311 12.0792 9.43311Z" fill="#28BBE5"/>
<path d="M12.079 9.54448C15.1905 9.54448 17.7833 11.5159 18.3555 13.8838C18.3576 13.8752 18.3597 13.8666 18.364 13.8559C17.7897 11.4709 15.1947 9.48877 12.079 9.48877C8.96332 9.48877 6.37046 11.4709 5.79617 13.8559C5.79832 13.8645 5.80046 13.8731 5.80474 13.8816C6.37689 11.5138 8.9676 9.54234 12.079 9.54234V9.54448Z" fill="#37BDE6"/>
<path d="M12.0792 9.54443C8.96782 9.54443 6.37711 11.5159 5.80496 13.8837C5.80711 13.8923 5.80925 13.9009 5.81353 13.9116C6.38568 11.5566 8.97425 9.59372 12.0814 9.59372C15.1885 9.59372 17.7814 11.5587 18.3492 13.9159C18.3514 13.9051 18.3557 13.8966 18.3578 13.8859C17.7835 11.5159 15.1928 9.54658 12.0814 9.54658L12.0792 9.54443Z" fill="#43BFE6"/>
<path d="M12.0791 9.64946C15.182 9.64946 17.7684 11.5995 18.3384 13.9416C18.3405 13.933 18.3448 13.9245 18.347 13.9159C17.7791 11.5566 15.1884 9.59375 12.0791 9.59375C8.96982 9.59375 6.38339 11.5566 5.81125 13.9116C5.81339 13.9223 5.81768 13.9309 5.82196 13.9416C6.39196 11.6016 8.97625 9.65161 12.0791 9.65161V9.64946Z" fill="#4DC0E7"/>
<path d="M12.0793 9.6496C8.9764 9.6496 6.39211 11.5996 5.82211 13.9396C5.82426 13.9482 5.82854 13.9546 5.83068 13.9632C6.40068 11.6403 8.97854 9.69889 12.0793 9.69889C15.18 9.69889 17.7621 11.6382 18.3321 13.9632C18.3343 13.9546 18.3385 13.9482 18.3407 13.9396C17.7707 11.5975 15.1843 9.64746 12.0814 9.64746L12.0793 9.6496Z" fill="#56C2E8"/>
<path d="M12.0816 9.75016C15.1759 9.75016 17.7538 11.6766 18.3238 13.9866C18.3259 13.978 18.3302 13.9716 18.3323 13.963C17.7623 11.638 15.1802 9.69873 12.0795 9.69873C8.97876 9.69873 6.4009 11.6402 5.8309 13.963C5.83304 13.9716 5.83733 13.9802 5.83947 13.9887C6.40947 11.6787 8.98947 9.7523 12.0838 9.7523L12.0816 9.75016Z" fill="#5EC4E8"/>
<path d="M12.0815 9.75C8.98933 9.75 6.40933 11.6786 5.83719 13.9864C5.83933 13.9971 5.84362 14.0057 5.8479 14.0164C6.41576 11.7214 8.98933 9.80571 12.0793 9.80571C15.1693 9.80571 17.745 11.7214 18.3129 14.0164C18.3172 14.0057 18.3193 13.9971 18.3236 13.9864C17.7536 11.6764 15.1758 9.75 12.0815 9.75Z" fill="#65C6E9"/>
<path d="M12.0791 9.85709C15.1648 9.85709 17.7362 11.7599 18.3041 14.0399C18.3062 14.0314 18.3105 14.0228 18.3127 14.0164C17.7448 11.7214 15.1691 9.80566 12.0791 9.80566C8.98908 9.80566 6.41766 11.7214 5.84766 14.0164C5.8498 14.025 5.85408 14.0314 5.85623 14.0399C6.42408 11.7621 8.99337 9.85709 12.0791 9.85709Z" fill="#6DC7EA"/>
<path d="M12.0793 9.85693C8.99359 9.85693 6.4243 11.7619 5.85645 14.0398C5.85859 14.0484 5.86287 14.0569 5.86502 14.0655C6.43502 11.8026 9.0043 9.91265 12.0814 9.91265C15.1586 9.91265 17.7257 11.8026 18.2957 14.0655C18.2979 14.0569 18.3022 14.0484 18.3043 14.0398C17.7364 11.7619 15.165 9.85693 12.0793 9.85693Z" fill="#74C9EA"/>
<path d="M12.0795 9.96617C15.1566 9.96617 17.7195 11.8476 18.2873 14.0955C18.2916 14.0847 18.2938 14.0762 18.2981 14.0655C17.7281 11.8026 15.1609 9.9126 12.0838 9.9126C9.00663 9.9126 6.43734 11.8026 5.86734 14.0655C5.87163 14.074 5.87377 14.0847 5.87805 14.0933C6.44591 11.8455 9.00663 9.96403 12.0816 9.96403L12.0795 9.96617Z" fill="#7ACBEB"/>
<path d="M12.0793 9.96631C9.00427 9.96631 6.44142 11.8477 5.8757 14.0956C5.87784 14.1042 5.88213 14.1106 5.88427 14.1192C6.45213 11.8885 9.0107 10.0199 12.0814 10.0199C15.1521 10.0199 17.7128 11.8885 18.2807 14.1192C18.2828 14.1106 18.285 14.1042 18.2893 14.0956C17.7214 11.8477 15.1586 9.96631 12.0814 9.96631H12.0793Z" fill="#81CDEC"/>
<path d="M12.0817 10.0736C15.146 10.0736 17.7024 11.9272 18.2702 14.1429C18.2724 14.1343 18.2767 14.1257 18.2788 14.1193C17.711 11.8864 15.1502 10.02 12.0795 10.02C9.00881 10.02 6.45024 11.8886 5.88239 14.1193C5.88453 14.1279 5.88881 14.1364 5.89096 14.1429C6.45881 11.9272 9.01739 10.0736 12.0817 10.0736Z" fill="#87CFEC"/>
<path d="M12.0815 10.0734C9.01721 10.0734 6.45863 11.927 5.89078 14.1427C5.89292 14.1513 5.89721 14.1599 5.89935 14.1663C6.46721 11.9677 9.01935 10.1249 12.0793 10.1249C15.1393 10.1249 17.6936 11.9699 18.2593 14.1706C18.2636 14.1599 18.2658 14.1513 18.2701 14.1406C17.7022 11.9249 15.1479 10.0713 12.0815 10.0713V10.0734Z" fill="#8ED1ED"/>
<path d="M12.0769 10.1807C15.1369 10.1807 17.6869 12.015 18.2505 14.2007C18.2548 14.1921 18.2569 14.1814 18.2612 14.1707C17.6955 11.97 15.1412 10.125 12.0812 10.125C9.02121 10.125 6.46907 11.9679 5.90121 14.1664C5.9055 14.175 5.90764 14.1857 5.90979 14.1943C6.4755 12.0107 9.01907 10.1807 12.0769 10.1807Z" fill="#94D3EE"/>
<path d="M12.0771 10.1807C9.01929 10.1807 6.47572 12.0128 5.91 14.1942C5.91215 14.2028 5.91643 14.2114 5.91858 14.22C6.48429 12.0514 9.03 10.23 12.0793 10.23C15.1286 10.23 17.6786 12.0535 18.2421 14.2242C18.2443 14.2157 18.2464 14.2092 18.2507 14.2007C17.6871 12.0149 15.1371 10.1807 12.0771 10.1807Z" fill="#9AD5EF"/>
<path d="M12.0791 10.2857C15.1241 10.2857 17.6677 12.0943 18.2334 14.2478C18.2355 14.2393 18.2398 14.2328 18.242 14.2243C17.6784 12.0536 15.1305 10.23 12.0791 10.23C9.02768 10.23 6.48411 12.0514 5.9184 14.22C5.92054 14.2286 5.92482 14.235 5.92697 14.2436C6.49482 12.0921 9.03625 10.2857 12.0791 10.2857Z" fill="#A0D7F0"/>
<path d="M12.0793 10.2856C9.03647 10.2856 6.49504 12.0921 5.92719 14.2435C5.92933 14.2521 5.93361 14.2606 5.9379 14.2692C6.50361 12.1349 9.03647 10.3414 12.0772 10.3414C15.1179 10.3414 17.6572 12.1371 18.2229 14.2735C18.2272 14.2649 18.2293 14.2564 18.2336 14.2478C17.6679 12.0942 15.1243 10.2856 12.0793 10.2856Z" fill="#A6D9F0"/>
<path d="M12.0795 10.3906C15.1138 10.3906 17.6466 12.1735 18.2145 14.2949C18.2166 14.2885 18.2209 14.2799 18.2231 14.2735C17.6573 12.1349 15.1202 10.3413 12.0773 10.3413C9.03448 10.3413 6.50376 12.1349 5.93805 14.2692C5.94019 14.2777 5.94448 14.2842 5.94662 14.2927C6.51662 12.1756 9.04734 10.3927 12.0795 10.3927V10.3906Z" fill="#ACDCF1"/>
<path d="M12.0793 10.3906C9.04716 10.3906 6.5143 12.1735 5.94644 14.2906C5.94858 14.2971 5.95287 14.3056 5.95501 14.3121C6.52501 12.2099 9.05144 10.4421 12.0793 10.4421C15.1072 10.4421 17.6379 12.2121 18.2057 14.3163C18.2079 14.3099 18.2122 14.3013 18.2143 14.2949C17.6464 12.1735 15.1136 10.3906 12.0793 10.3906Z" fill="#B2DEF2"/>
<path d="M12.0791 10.4981C15.1027 10.4981 17.6248 12.2531 18.1969 14.3402C18.1991 14.3317 18.2034 14.3252 18.2055 14.3167C17.6377 12.2124 15.1091 10.4424 12.0791 10.4424C9.04909 10.4424 6.5248 12.2102 5.9548 14.3124C5.95909 14.321 5.96123 14.3295 5.96552 14.3381C6.53552 12.2531 9.05766 10.496 12.0791 10.496V10.4981Z" fill="#B8E0F3"/>
<path d="M12.0792 10.498C9.05567 10.498 6.53352 12.253 5.96567 14.3402C5.96781 14.3488 5.9721 14.3552 5.97424 14.3638C6.54638 12.2959 9.06424 10.5516 12.0792 10.5516C15.0942 10.5516 17.6164 12.2959 18.1864 14.368C18.1907 14.3595 18.1928 14.3509 18.1971 14.3423C17.6271 12.2552 15.1028 10.5002 12.0792 10.5002V10.498Z" fill="#BDE2F4"/>
<path d="M12.0795 10.6052C15.0902 10.6052 17.6059 12.3345 18.178 14.3874C18.1802 14.3788 18.1845 14.3724 18.1866 14.3638C17.6166 12.2916 15.0987 10.5474 12.0795 10.5474C9.06017 10.5474 6.54446 12.2895 5.97446 14.3595C5.9766 14.3659 5.98089 14.3745 5.98303 14.3809C6.55731 12.3281 9.07089 10.6031 12.0795 10.6031V10.6052Z" fill="#C3E5F5"/>
<path d="M12.0793 10.605C9.07071 10.605 6.55499 12.3321 5.98285 14.3828C5.98499 14.3893 5.98928 14.3978 5.99142 14.4043C6.56571 12.3707 9.07499 10.6564 12.0793 10.6564C15.0836 10.6564 17.595 12.3728 18.1671 14.4086C18.1693 14.4021 18.1736 14.3936 18.1757 14.3871C17.6057 12.3321 15.09 10.605 12.0771 10.605H12.0793Z" fill="#C9E7F5"/>
<path d="M12.0816 10.7101C15.0795 10.7101 17.5845 12.4115 18.1588 14.4323C18.1609 14.4258 18.1652 14.4173 18.1674 14.4108C17.5952 12.373 15.0859 10.6587 12.0795 10.6587C9.07307 10.6587 6.56592 12.373 5.99164 14.4065C5.99592 14.4151 5.99807 14.4237 6.00235 14.4344C6.57664 12.4158 9.08378 10.7123 12.0816 10.7123V10.7101Z" fill="#CEE9F6"/>
<path d="M12.0814 10.71C9.08353 10.71 6.57639 12.4135 6.00211 14.4321C6.00425 14.4385 6.00853 14.4471 6.01068 14.4535C6.58711 12.45 9.08782 10.7614 12.0792 10.7614C15.0707 10.7614 17.5757 12.4521 18.1478 14.4578C18.1521 14.4492 18.1542 14.4407 18.1585 14.4321C17.5842 12.4114 15.0792 10.71 12.0814 10.71Z" fill="#D4ECF7"/>
<path d="M12.079 10.8151C15.0683 10.8151 17.5648 12.493 18.139 14.4815C18.1412 14.4751 18.1455 14.4665 18.1476 14.4601C17.5733 12.4544 15.0705 10.7637 12.079 10.7637C9.08761 10.7637 6.5869 12.4522 6.01047 14.4558C6.01261 14.4622 6.0169 14.4708 6.01904 14.4772C6.59547 12.493 9.0919 10.8151 12.079 10.8151Z" fill="#DAEEF8"/>
<path d="M12.0793 10.8149C9.09211 10.8149 6.59569 12.4928 6.01926 14.4771C6.02354 14.4857 6.02569 14.4942 6.02997 14.5049C6.6064 12.5357 9.10283 10.8707 12.0814 10.8707C15.06 10.8707 17.5543 12.5335 18.1307 14.5049C18.1328 14.4985 18.1371 14.4899 18.1393 14.4814C17.565 12.4928 15.0664 10.8149 12.0793 10.8149Z" fill="#DFF1F9"/>
<path d="M12.0772 10.9199C15.0558 10.9199 17.5458 12.5742 18.1201 14.5327C18.1244 14.5242 18.1287 14.5135 18.1329 14.5049C17.5565 12.5335 15.0622 10.8706 12.0837 10.8706C9.10508 10.8706 6.60866 12.5356 6.03223 14.5049C6.03437 14.5113 6.03865 14.5199 6.0408 14.5263C6.61937 12.572 9.10294 10.9199 12.0772 10.9199Z" fill="#E5F3FA"/>
<path d="M12.077 10.9199C9.10273 10.9199 6.61702 12.5721 6.04059 14.5264C6.04273 14.5328 6.04702 14.5392 6.04916 14.5478C6.62987 12.6128 9.10916 10.9756 12.077 10.9756C15.0449 10.9756 17.5327 12.6149 18.1092 14.5542C18.1113 14.5478 18.1156 14.5392 18.1199 14.5328C17.5456 12.5764 15.0556 10.9199 12.077 10.9199Z" fill="#EBF6FB"/>
<path d="M12.0793 11.0272C15.0429 11.0272 17.5201 12.6536 18.1008 14.5736C18.1029 14.5672 18.1072 14.5586 18.1115 14.5522C17.5351 12.6129 15.0493 10.9736 12.0793 10.9736C9.10934 10.9736 6.6322 12.6108 6.05148 14.5458C6.05577 14.5543 6.06005 14.5629 6.0622 14.5715C6.64291 12.6536 9.12005 11.0272 12.0815 11.0272H12.0793Z" fill="#F1F8FD"/>
<path d="M12.0791 11.0273C9.1177 11.0273 6.64056 12.6516 6.05984 14.5716C6.06199 14.5781 6.06627 14.5866 6.07056 14.5931C6.65342 12.6902 9.12627 11.0809 12.0791 11.0809C15.032 11.0809 17.5091 12.6923 18.0898 14.5952C18.092 14.5888 18.0963 14.5823 18.0984 14.5738C17.5198 12.6516 15.0406 11.0273 12.077 11.0273H12.0791Z" fill="#F7FBFE"/>
<path d="M18.9687 11.9746C18.9687 8.1882 15.8894 5.11963 12.0816 5.11963C8.27373 5.11963 5.19016 8.18606 5.19016 11.9746C5.19016 12.3496 5.2223 12.7182 5.28016 13.0761C5.2823 13.0953 5.28658 13.1125 5.29087 13.1296C5.29516 13.1489 5.2973 13.1703 5.30158 13.1896C5.30587 13.2068 5.30801 13.2261 5.3123 13.2432C5.31658 13.2625 5.31873 13.2839 5.32301 13.3032C5.3273 13.3203 5.32944 13.3396 5.33158 13.3568C5.33587 13.3739 5.34016 13.3911 5.34444 13.4103C5.34873 13.4253 5.35087 13.4403 5.35516 13.4575C5.35944 13.4725 5.36158 13.4896 5.36587 13.5046C5.37015 13.5218 5.37444 13.5389 5.37873 13.5582C5.38301 13.5732 5.38516 13.5903 5.38944 13.6053C5.39373 13.6246 5.39801 13.6439 5.4023 13.6611C5.40658 13.6761 5.41087 13.6932 5.41516 13.7082C5.41944 13.7253 5.42587 13.7403 5.43016 13.7575C5.43444 13.7725 5.43873 13.7853 5.44301 13.8003C5.4473 13.8153 5.45158 13.8282 5.45587 13.8432C5.46015 13.8603 5.46444 13.8753 5.47087 13.8925C5.47515 13.9075 5.47944 13.9203 5.48373 13.9353C5.48801 13.9525 5.4923 13.9675 5.49873 13.9846C5.50301 13.9975 5.5073 14.0125 5.51158 14.0253C5.51587 14.0403 5.5223 14.0532 5.52658 14.0682C5.53087 14.0811 5.53516 14.0939 5.53944 14.1068C5.54373 14.1196 5.54801 14.1325 5.5523 14.1453C5.55658 14.1603 5.56301 14.1753 5.5673 14.1925C5.57158 14.2053 5.57587 14.2203 5.58015 14.2332C5.58658 14.2482 5.59087 14.2632 5.59516 14.2803C5.59944 14.2932 5.60373 14.3082 5.60801 14.3211C5.6123 14.3361 5.61873 14.3489 5.62516 14.3639C5.62944 14.3768 5.63373 14.3875 5.64016 14.4003C5.64444 14.4132 5.65087 14.4282 5.6573 14.4411C5.66158 14.4539 5.66587 14.4646 5.6723 14.4775C5.67658 14.4882 5.68087 14.5011 5.6873 14.5118C5.69158 14.5203 5.69373 14.5289 5.69801 14.5375C5.70016 14.5439 5.7023 14.5503 5.70658 14.5568C5.70873 14.5632 5.71087 14.5696 5.71516 14.5782C5.71944 14.5868 5.72158 14.5953 5.72587 14.6039C5.72801 14.6103 5.73016 14.6168 5.73444 14.6232C5.73658 14.6296 5.73873 14.6361 5.74301 14.6446C5.7473 14.6532 5.74944 14.6596 5.75373 14.6682C5.75587 14.6746 5.76015 14.6811 5.7623 14.6853C5.76444 14.6918 5.76873 14.6982 5.77087 14.7046C5.77516 14.7132 5.7773 14.7196 5.78158 14.7282C5.78373 14.7346 5.78801 14.7411 5.79016 14.7453C5.7923 14.7518 5.79658 14.7582 5.79873 14.7646C5.80087 14.7711 5.80516 14.7775 5.8073 14.7839C5.81158 14.7925 5.81373 14.7989 5.81801 14.8075C5.82016 14.8139 5.82444 14.8203 5.82658 14.8268C5.82873 14.8332 5.83301 14.8396 5.83516 14.8461C5.83944 14.8525 5.84158 14.8611 5.84587 14.8696C5.84801 14.8761 5.8523 14.8825 5.85444 14.8889C5.85658 14.8953 5.86087 14.9018 5.86301 14.9082C5.8673 14.9146 5.86944 14.9232 5.87373 14.9318C5.87587 14.9382 5.88015 14.9446 5.8823 14.9511C5.88444 14.9575 5.88873 14.9618 5.89087 14.9682C5.89301 14.9746 5.8973 14.9789 5.89944 14.9853C5.90373 14.9918 5.90587 14.9982 5.91016 15.0068C5.9123 15.0132 5.91658 15.0175 5.91873 15.0239C5.92087 15.0303 5.92516 15.0346 5.9273 15.0411C5.93158 15.0475 5.93373 15.0561 5.93801 15.0625C5.94015 15.0689 5.94444 15.0732 5.94658 15.0796C5.94873 15.0861 5.95301 15.0903 5.95515 15.0968C5.95944 15.1032 5.96158 15.1118 5.96587 15.1182C5.96801 15.1246 5.9723 15.1289 5.97444 15.1353C6.19087 15.5511 6.44801 15.9432 6.74158 16.3032C6.74158 16.3032 6.74158 16.3032 6.74373 16.3053C6.74373 16.3053 6.74587 16.3096 6.74801 16.3118C6.74801 16.3118 6.74801 16.3118 6.75015 16.3139C6.75015 16.3139 6.7523 16.3182 6.75444 16.3203C6.75444 16.3203 6.75658 16.3225 6.75873 16.3246C6.75873 16.3246 6.76087 16.3268 6.76301 16.3289C6.76301 16.3289 6.76301 16.3289 6.76515 16.3311C6.76515 16.3311 6.76515 16.3332 6.7673 16.3353C6.7673 16.3353 6.7673 16.3375 6.76944 16.3396C6.76944 16.3396 6.76944 16.3418 6.77158 16.3439C6.77158 16.3439 6.77158 16.3461 6.77587 16.3482C6.77587 16.3482 6.77587 16.3482 6.77801 16.3503C6.77801 16.3503 6.77801 16.3503 6.78015 16.3525C6.78015 16.3525 6.7823 16.3546 6.78444 16.3568C6.78444 16.3568 6.78444 16.3568 6.78658 16.3589C6.78658 16.3589 6.78658 16.3611 6.78873 16.3632C6.78873 16.3632 6.78873 16.3632 6.79087 16.3653C6.79087 16.3653 6.79087 16.3653 6.79087 16.3675C6.79087 16.3675 6.79087 16.3696 6.79301 16.3718C6.79301 16.3718 6.79301 16.3718 6.79301 16.3739C6.79301 16.3739 6.79515 16.3761 6.7973 16.3782C6.7973 16.3782 6.7973 16.3782 6.79944 16.3803C6.79944 16.3803 6.80158 16.3825 6.80373 16.3846C6.80587 16.3889 6.81015 16.3911 6.8123 16.3953C6.81444 16.3975 6.81658 16.4018 6.81873 16.4039C6.82301 16.4082 6.82515 16.4125 6.82944 16.4168C6.83158 16.4211 6.83587 16.4232 6.83801 16.4275C6.84015 16.4296 6.8423 16.4318 6.84444 16.4361C6.84658 16.4403 6.85087 16.4425 6.85301 16.4468C6.85515 16.4489 6.85944 16.4532 6.86158 16.4553C6.86373 16.4575 6.86587 16.4618 6.86801 16.4639C6.87016 16.4661 6.87444 16.4703 6.87658 16.4725C6.87873 16.4768 6.88301 16.4789 6.88515 16.4832C6.8873 16.4853 6.88944 16.4896 6.89158 16.4918C6.89373 16.4961 6.89801 16.4982 6.90015 16.5025C6.9023 16.5046 6.90444 16.5089 6.90873 16.5111C6.91087 16.5132 6.91301 16.5175 6.9173 16.5196C6.91944 16.5218 6.92373 16.5261 6.92587 16.5282C6.92801 16.5325 6.9323 16.5346 6.93444 16.5389C6.93658 16.5411 6.93873 16.5453 6.94087 16.5475C6.94301 16.5496 6.9473 16.5539 6.94944 16.5582C6.95158 16.5603 6.95587 16.5646 6.95801 16.5689C6.96015 16.5711 6.9623 16.5753 6.96658 16.5775C6.96873 16.5796 6.97301 16.5839 6.97516 16.5882C6.9773 16.5925 6.98158 16.5946 6.98373 16.5989C6.98587 16.6011 6.98801 16.6032 6.99016 16.6053C6.99444 16.6096 6.99658 16.6118 7.00087 16.6161C7.00301 16.6203 7.0073 16.6225 7.00944 16.6246C7.01158 16.6289 7.01587 16.6311 7.01801 16.6332C7.02015 16.6375 7.02444 16.6396 7.02658 16.6418C7.02873 16.6439 7.03301 16.6482 7.03515 16.6503C7.0373 16.6525 7.04158 16.6568 7.04373 16.6589C7.04587 16.6611 7.05015 16.6653 7.0523 16.6675C7.05444 16.6718 7.05873 16.6739 7.06087 16.6782C8.32087 18.0089 10.1037 18.8403 12.0816 18.8403C14.0594 18.8403 15.8466 18.0046 17.1044 16.6718C17.1066 16.6696 17.1109 16.6653 17.113 16.6632C17.1152 16.6589 17.1194 16.6568 17.1216 16.6525C17.1237 16.6503 17.128 16.6461 17.1302 16.6439C17.1323 16.6396 17.1366 16.6375 17.1387 16.6353C17.1409 16.6311 17.1452 16.6289 17.1473 16.6268C17.1494 16.6225 17.1537 16.6203 17.1559 16.6182C17.158 16.6161 17.1602 16.6139 17.1623 16.6096C17.1623 16.6096 17.1644 16.6075 17.1666 16.6053C17.1666 16.6053 17.1709 16.6011 17.173 16.5989C17.1752 16.5946 17.1794 16.5925 17.1816 16.5882C17.1837 16.5861 17.1859 16.5839 17.188 16.5796C17.1923 16.5753 17.1944 16.5711 17.1987 16.5689C17.2009 16.5668 17.203 16.5625 17.2052 16.5603C17.2073 16.5582 17.2094 16.5539 17.2116 16.5518C17.2137 16.5496 17.218 16.5453 17.2202 16.5432C17.2223 16.5389 17.2266 16.5368 17.2287 16.5325C17.2309 16.5303 17.233 16.5261 17.2373 16.5239C17.2394 16.5218 17.2416 16.5175 17.2459 16.5153C17.2502 16.5111 17.2523 16.5068 17.2566 16.5046C17.2587 16.5025 17.2609 16.4982 17.2652 16.4961C17.2673 16.4939 17.2694 16.4896 17.2737 16.4875C17.2759 16.4853 17.2802 16.4811 17.2823 16.4789C17.2844 16.4746 17.2887 16.4725 17.2909 16.4682C17.293 16.4661 17.2973 16.4618 17.2994 16.4596C17.3016 16.4553 17.3059 16.4532 17.308 16.4489C17.3102 16.4468 17.3123 16.4446 17.3144 16.4403C17.3166 16.4382 17.3187 16.4339 17.323 16.4318C17.3252 16.4275 17.3294 16.4253 17.3316 16.4211C17.3337 16.4189 17.3359 16.4146 17.338 16.4125C17.3402 16.4103 17.3423 16.4061 17.3466 16.4039C17.3487 16.3996 17.353 16.3975 17.3552 16.3932C17.3552 16.3932 17.3573 16.3911 17.3594 16.3889C17.3594 16.3889 17.3594 16.3889 17.3616 16.3868C17.3616 16.3868 17.3637 16.3846 17.3659 16.3825C17.3659 16.3825 17.3659 16.3825 17.368 16.3803C17.368 16.3803 17.368 16.3803 17.3702 16.3782C17.3702 16.3782 17.3702 16.3782 17.3723 16.3761C17.3723 16.3761 17.3723 16.3739 17.3744 16.3718C17.3744 16.3718 17.3744 16.3696 17.3766 16.3675C17.3766 16.3675 17.3766 16.3675 17.3787 16.3653C17.3787 16.3653 17.3787 16.3632 17.3809 16.3611C17.3809 16.3611 17.383 16.3589 17.3852 16.3568C17.3852 16.3568 17.3852 16.3546 17.3873 16.3525C17.3873 16.3525 17.3894 16.3482 17.3916 16.3482C17.3916 16.3482 17.3916 16.3461 17.3937 16.3439C17.3937 16.3439 17.3959 16.3418 17.398 16.3396C17.398 16.3396 17.398 16.3396 17.4002 16.3375C17.4002 16.3375 17.4023 16.3353 17.4044 16.3332C17.4044 16.3332 17.4044 16.3311 17.4066 16.3289C17.4066 16.3289 17.4087 16.3246 17.4109 16.3246C17.4109 16.3246 17.4109 16.3246 17.4109 16.3225C17.4109 16.3225 17.413 16.3182 17.4152 16.3182C17.4152 16.3182 17.4173 16.3161 17.4194 16.3139C17.4194 16.3139 17.4216 16.3118 17.4237 16.3096C17.4237 16.3096 17.4259 16.3075 17.428 16.3053C17.428 16.3053 17.4302 16.3032 17.4323 16.3011C17.4323 16.3011 17.4344 16.2989 17.4366 16.2968C17.4366 16.2968 17.4387 16.2946 17.4409 16.2925C17.4409 16.2925 17.443 16.2903 17.4452 16.2882C17.4452 16.2882 17.4452 16.2882 17.4452 16.2861C17.7323 15.9325 17.983 15.5489 18.1952 15.1418C18.1973 15.1353 18.2016 15.1311 18.2037 15.1246C18.2059 15.1182 18.2102 15.1139 18.2123 15.1075C18.2144 15.1011 18.2187 15.0968 18.2209 15.0903C18.2252 15.0818 18.2294 15.0732 18.2337 15.0646C18.2359 15.0582 18.2402 15.0539 18.2423 15.0475C18.2444 15.0411 18.2487 15.0368 18.2509 15.0303C18.2552 15.0239 18.2573 15.0175 18.2616 15.0089C18.2637 15.0025 18.268 14.9982 18.2702 14.9918C18.2723 14.9853 18.2766 14.9811 18.2787 14.9746C18.2809 14.9682 18.2852 14.9639 18.2873 14.9575C18.2916 14.9511 18.2937 14.9425 18.298 14.9339C18.3002 14.9275 18.3044 14.9211 18.3066 14.9146C18.3087 14.9082 18.3109 14.9018 18.3152 14.8975C18.3173 14.8911 18.3194 14.8846 18.3237 14.8803C18.328 14.8718 18.3302 14.8653 18.3344 14.8568C18.3366 14.8503 18.3409 14.8439 18.343 14.8375C18.3452 14.8311 18.3494 14.8246 18.3516 14.8203C18.3559 14.8118 18.358 14.8053 18.3623 14.7968C18.3666 14.7882 18.3687 14.7818 18.373 14.7732C18.3752 14.7668 18.3794 14.7603 18.3816 14.7539C18.3837 14.7475 18.388 14.7411 18.3902 14.7368C18.3944 14.7282 18.3966 14.7218 18.4009 14.7132C18.403 14.7068 18.4073 14.7003 18.4094 14.6939C18.4116 14.6875 18.4159 14.6811 18.418 14.6746C18.4223 14.6661 18.4244 14.6596 18.4287 14.6511C18.4309 14.6446 18.433 14.6382 18.4373 14.6318C18.4394 14.6253 18.4416 14.6189 18.4459 14.6125C18.448 14.6061 18.4523 14.5975 18.4544 14.5911C18.4587 14.5825 18.4609 14.5739 18.4652 14.5653C18.4673 14.5589 18.4694 14.5525 18.4737 14.5439C18.4759 14.5375 18.4802 14.5311 18.4823 14.5225C18.4887 14.5075 18.4952 14.4925 18.4994 14.4775C18.5059 14.4646 18.5102 14.4496 18.5166 14.4368C18.5209 14.4239 18.5273 14.4089 18.5337 14.3961C18.538 14.3832 18.5423 14.3725 18.5487 14.3596C18.5552 14.3446 18.5594 14.3318 18.5637 14.3168C18.5702 14.2996 18.5744 14.2825 18.5809 14.2653C18.5873 14.2503 18.5916 14.2353 18.5959 14.2182C18.6002 14.2053 18.6044 14.1903 18.6087 14.1775C18.6152 14.1603 18.6216 14.1432 18.6259 14.1261C18.6302 14.1111 18.6366 14.0961 18.6409 14.0811C18.6452 14.0661 18.6516 14.0532 18.6559 14.0382C18.6602 14.0232 18.6644 14.0082 18.6709 13.9911C18.6752 13.9739 18.6794 13.9589 18.6859 13.9418C18.6902 13.9268 18.6944 13.9096 18.6987 13.8946C18.7052 13.8753 18.7094 13.8582 18.7137 13.8389C18.718 13.8218 18.7223 13.8068 18.7287 13.7896C18.733 13.7746 18.7373 13.7618 18.7416 13.7468C18.748 13.7253 18.7544 13.7039 18.7587 13.6825C18.763 13.6675 18.7652 13.6503 18.7694 13.6332C18.7737 13.6161 18.778 13.5989 18.7823 13.5796C18.7866 13.5625 18.7909 13.5453 18.7952 13.5261C18.7994 13.5068 18.8037 13.4875 18.808 13.4682C18.8123 13.4532 18.8144 13.4361 18.8187 13.4211C18.823 13.4018 18.8273 13.3825 18.8316 13.3611C18.8359 13.3439 18.838 13.3246 18.8423 13.3053C18.8466 13.2818 18.8509 13.2603 18.8552 13.2368C18.8594 13.2153 18.8616 13.1961 18.8659 13.1746C18.8702 13.1553 18.8723 13.1339 18.8766 13.1146C18.8787 13.0975 18.883 13.0803 18.8852 13.0632C18.8894 13.0396 18.8937 13.0139 18.8959 12.9903C18.898 12.9711 18.9002 12.9518 18.9023 12.9346C18.9473 12.6196 18.9709 12.3003 18.9709 11.9725H18.9687V11.9746ZM18.6387 12.0646C18.6387 12.0861 18.6387 12.1053 18.6387 12.1268C18.6387 12.1568 18.6387 12.1868 18.6366 12.2146C18.6366 12.2382 18.6366 12.2596 18.6366 12.2832C18.6366 12.3068 18.6344 12.3282 18.6323 12.3518C18.6323 12.3732 18.628 12.3946 18.628 12.4161C18.628 12.4396 18.6237 12.4632 18.6216 12.4868C18.6216 12.5061 18.6194 12.5275 18.6173 12.5468C18.6173 12.5703 18.6152 12.5939 18.613 12.6175C18.613 12.6368 18.6087 12.6561 18.6066 12.6732C18.6044 12.6946 18.6002 12.7161 18.598 12.7375C18.5959 12.7568 18.5937 12.7782 18.5894 12.7975C18.5873 12.8168 18.5852 12.8382 18.5809 12.8575C18.5787 12.8746 18.5766 12.8939 18.5744 12.9111C18.5702 12.9346 18.568 12.9582 18.5637 12.9818C18.5616 12.9968 18.5573 13.0139 18.5552 13.0289C18.553 13.0461 18.5487 13.0653 18.5466 13.0825C18.5423 13.1018 18.5402 13.1211 18.5359 13.1403C18.5337 13.1575 18.5294 13.1746 18.5273 13.1918C18.523 13.2111 18.5209 13.2303 18.5166 13.2475C18.5123 13.2646 18.5102 13.2839 18.5059 13.3011C18.5016 13.3182 18.4973 13.3353 18.4952 13.3503C18.4909 13.3675 18.4866 13.3846 18.4844 13.4018C18.4802 13.4211 18.4759 13.4382 18.4716 13.4575C18.4673 13.4725 18.4652 13.4875 18.4609 13.5003C18.4566 13.5175 18.4544 13.5325 18.4502 13.5496C18.4459 13.5668 18.4416 13.5839 18.4373 13.6032C18.433 13.6182 18.4287 13.6332 18.4244 13.6482C18.4202 13.6611 18.4159 13.6739 18.4137 13.6868C18.4094 13.7018 18.4052 13.7168 18.4009 13.7296C18.3966 13.7446 18.3923 13.7618 18.388 13.7768C18.3837 13.7939 18.3794 13.8111 18.373 13.8261C18.3709 13.8346 18.3687 13.8432 18.3644 13.8539C18.3623 13.8625 18.3602 13.8732 18.3559 13.8818C18.3537 13.8925 18.3494 13.9011 18.3473 13.9118C18.3452 13.9203 18.3409 13.9289 18.3387 13.9375C18.3366 13.9461 18.3323 13.9525 18.3302 13.9611C18.328 13.9696 18.3237 13.9761 18.3216 13.9846C18.3194 13.9953 18.3152 14.0039 18.3109 14.0146C18.3087 14.0232 18.3044 14.0318 18.3023 14.0382C18.3002 14.0468 18.2959 14.0553 18.2937 14.0639C18.2894 14.0746 18.2873 14.0832 18.283 14.0939C18.2809 14.1025 18.2787 14.1089 18.2744 14.1175C18.2723 14.1261 18.268 14.1346 18.2659 14.1411C18.2616 14.1518 18.2594 14.1603 18.2552 14.1711C18.2509 14.1796 18.2487 14.1903 18.2444 14.2011C18.2423 14.2096 18.2402 14.2161 18.2359 14.2246C18.2337 14.2332 18.2294 14.2396 18.2273 14.2482C18.223 14.2568 18.2209 14.2653 18.2166 14.2739C18.2144 14.2803 18.2102 14.2889 18.208 14.2953C18.2059 14.3018 18.2016 14.3103 18.1994 14.3168C18.1973 14.3253 18.193 14.3318 18.1909 14.3403C18.1866 14.3489 18.1844 14.3575 18.1802 14.3661C18.178 14.3746 18.1737 14.3811 18.1716 14.3896C18.1694 14.3961 18.1652 14.4046 18.163 14.4111C18.1609 14.4175 18.1566 14.4261 18.1544 14.4325C18.1502 14.4411 18.148 14.4496 18.1437 14.4582C18.1416 14.4646 18.1373 14.4732 18.1352 14.4796C18.133 14.4882 18.1287 14.4946 18.1266 14.5032C18.1223 14.5118 18.118 14.5225 18.1137 14.5311C18.1116 14.5375 18.1073 14.5461 18.103 14.5525C18.1009 14.5589 18.0966 14.5675 18.0923 14.5739C18.0902 14.5803 18.0859 14.5868 18.0837 14.5953C17.8416 15.1461 17.5244 15.6582 17.1473 16.1168C17.1473 16.1168 17.1473 16.1168 17.1452 16.1189C17.1452 16.1189 17.143 16.1232 17.1409 16.1232C17.1409 16.1232 17.1387 16.1253 17.1366 16.1275C17.1366 16.1275 17.1344 16.1296 17.1323 16.1318C17.1323 16.1318 17.1302 16.1339 17.128 16.1361C17.128 16.1361 17.1259 16.1382 17.1237 16.1403C17.1237 16.1403 17.1216 16.1425 17.1194 16.1446C17.1194 16.1446 17.1173 16.1468 17.1152 16.1489C17.1152 16.1489 17.113 16.1511 17.1109 16.1532C17.1109 16.1532 17.1087 16.1575 17.1066 16.1575C17.1066 16.1575 17.1066 16.1596 17.1044 16.1618C17.1044 16.1618 17.1023 16.1639 17.1002 16.1661C17.1002 16.1661 17.1002 16.1661 17.098 16.1682C17.098 16.1682 17.0959 16.1703 17.0937 16.1725C17.0937 16.1725 17.0937 16.1746 17.0916 16.1768C17.0916 16.1768 17.0894 16.1811 17.0873 16.1811C17.0873 16.1811 17.0852 16.1832 17.083 16.1853C17.083 16.1853 17.0809 16.1875 17.0787 16.1896C17.0787 16.1896 17.0766 16.1918 17.0744 16.1939C17.0744 16.1939 17.0744 16.1939 17.0723 16.1961C17.0723 16.1961 17.0702 16.1982 17.068 16.2003C17.068 16.2003 17.068 16.2025 17.0659 16.2046C17.0659 16.2046 17.0659 16.2046 17.0637 16.2068C17.0637 16.2068 17.0637 16.2068 17.0616 16.2089C17.0616 16.2089 17.0616 16.2089 17.0594 16.2111C17.0594 16.2111 17.0594 16.2132 17.0573 16.2153C17.0573 16.2153 17.0573 16.2153 17.0552 16.2175C17.0552 16.2175 17.053 16.2196 17.0509 16.2218C17.0487 16.2261 17.0444 16.2282 17.0423 16.2325L17.0337 16.2411C17.0337 16.2411 17.0273 16.2475 17.0252 16.2496C17.0209 16.2539 17.0187 16.2582 17.0144 16.2603C17.0123 16.2625 17.008 16.2668 17.0059 16.2689C17.0037 16.2711 17.0016 16.2753 16.9994 16.2775C16.9973 16.2818 16.993 16.2839 16.9909 16.2882C16.9887 16.2925 16.9844 16.2946 16.9823 16.2989C16.9802 16.3032 16.9759 16.3053 16.9737 16.3096C16.9716 16.3139 16.9673 16.3161 16.9652 16.3203C16.963 16.3225 16.9587 16.3268 16.9566 16.3289C16.9544 16.3311 16.9523 16.3353 16.948 16.3375C16.9437 16.3418 16.9416 16.3461 16.9373 16.3503C16.9352 16.3525 16.9309 16.3568 16.9287 16.3589C16.9266 16.3611 16.9223 16.3653 16.9202 16.3675C16.9159 16.3718 16.9137 16.3739 16.9094 16.3782C16.9073 16.3825 16.903 16.3846 16.9009 16.3889C16.8987 16.3911 16.8944 16.3953 16.8923 16.3975C16.8902 16.3996 16.8859 16.4039 16.8837 16.4061C16.8794 16.4103 16.8752 16.4146 16.873 16.4189C16.873 16.4189 16.8687 16.4232 16.8666 16.4253C16.8709 16.4275 16.8752 16.4296 16.8794 16.4318C16.8752 16.4318 16.8709 16.4275 16.8644 16.4275C16.8602 16.4318 16.858 16.4339 16.8537 16.4382C16.8494 16.4425 16.8473 16.4446 16.843 16.4489C16.8409 16.4511 16.8366 16.4553 16.8344 16.4575C16.8302 16.4618 16.828 16.4639 16.8237 16.4682L16.813 16.4789C16.813 16.4789 16.8066 16.4853 16.8023 16.4896C16.8002 16.4918 16.7959 16.4961 16.7937 16.4982C16.7894 16.5025 16.7873 16.5046 16.783 16.5089C16.7787 16.5132 16.7766 16.5153 16.7723 16.5196C16.558 16.7382 16.3287 16.9418 16.0866 17.1282C16.078 17.1346 16.0716 17.1411 16.063 17.1475C15.9452 17.2375 15.823 17.3232 15.6987 17.4068C15.6923 17.4111 15.6859 17.4153 15.6794 17.4196C15.5659 17.4946 15.448 17.5653 15.328 17.6339C15.3109 17.6446 15.2937 17.6532 15.2744 17.6639C15.1459 17.7346 15.0173 17.8032 14.8823 17.8653C14.878 17.8653 14.8737 17.8696 14.8694 17.8718C14.7409 17.9318 14.6102 17.9875 14.4773 18.0389C14.4602 18.0453 14.443 18.0539 14.4237 18.0603C14.1409 18.1675 13.8494 18.2575 13.5494 18.3261C13.5409 18.3261 13.5323 18.3303 13.5237 18.3325C13.0566 18.4375 12.5723 18.4953 12.0752 18.4953H12.073C11.2373 18.4953 10.438 18.3389 9.70301 18.0539C9.41158 17.9425 9.13087 17.8096 8.86087 17.6596C8.85444 17.6553 8.84801 17.6511 8.83944 17.6468C8.71087 17.5739 8.58444 17.4968 8.46016 17.4153C8.45801 17.4153 8.45373 17.4111 8.45158 17.4089C8.3273 17.3275 8.2073 17.2418 8.08944 17.1518C8.07658 17.1411 8.06373 17.1325 8.05087 17.1218C7.94587 17.0403 7.84515 16.9568 7.74658 16.8711C7.73158 16.8582 7.71873 16.8475 7.70373 16.8346C7.59873 16.7403 7.49587 16.6439 7.3973 16.5432C7.39301 16.5389 7.38873 16.5346 7.3823 16.5303C7.37801 16.5261 7.37587 16.5239 7.37158 16.5196C7.3673 16.5153 7.36515 16.5132 7.36301 16.5089C7.36087 16.5068 7.35658 16.5025 7.35444 16.4982C7.3523 16.4961 7.35015 16.4939 7.34801 16.4918C7.34801 16.4918 7.34587 16.4896 7.34373 16.4875C7.33944 16.4832 7.3373 16.4811 7.33301 16.4768C7.32873 16.4725 7.32658 16.4703 7.3223 16.4661C7.31801 16.4618 7.31587 16.4596 7.31158 16.4553C7.3073 16.4511 7.30516 16.4489 7.30087 16.4446C7.29873 16.4425 7.29658 16.4403 7.2923 16.4361C7.28801 16.4318 7.28587 16.4296 7.28158 16.4253C7.2773 16.4211 7.27515 16.4189 7.27087 16.4146C7.26873 16.4125 7.26444 16.4082 7.2623 16.4061C7.25801 16.4018 7.25587 16.3996 7.25158 16.3953C7.2473 16.3911 7.24515 16.3889 7.24087 16.3846C7.23873 16.3825 7.23444 16.3782 7.2323 16.3761C7.22801 16.3718 7.22587 16.3696 7.22158 16.3653C7.21944 16.3611 7.21515 16.3589 7.21087 16.3546C7.20873 16.3525 7.20444 16.3482 7.2023 16.3461C7.20015 16.3439 7.19587 16.3396 7.19373 16.3375C7.19158 16.3332 7.1873 16.3311 7.18516 16.3268C7.18301 16.3246 7.17873 16.3203 7.17658 16.3182C7.17444 16.3139 7.17015 16.3118 7.16801 16.3075C7.16587 16.3032 7.16158 16.3011 7.15944 16.2968C7.1573 16.2946 7.15516 16.2903 7.15087 16.2882C7.14873 16.2839 7.14444 16.2818 7.1423 16.2775C7.14015 16.2732 7.13587 16.2711 7.13373 16.2668C7.13158 16.2646 7.12944 16.2603 7.1273 16.2582C7.12515 16.2539 7.12087 16.2518 7.11873 16.2475C7.11444 16.2432 7.1123 16.2389 7.10801 16.2346C7.10587 16.2325 7.10373 16.2282 7.10158 16.2261C7.09944 16.2218 7.09516 16.2196 7.09301 16.2153C7.09301 16.2153 7.09087 16.2132 7.08873 16.2111C7.08873 16.2111 7.08873 16.2111 7.08658 16.2089C7.08658 16.2089 7.08444 16.2068 7.08444 16.2046C7.08444 16.2046 7.08444 16.2046 7.0823 16.2025C7.0823 16.2025 7.08016 16.2003 7.07801 16.1982C7.07801 16.1982 7.07801 16.1982 7.07587 16.1961C7.07587 16.1961 7.07587 16.1961 7.07373 16.1939C7.07373 16.1939 7.07158 16.1918 7.06944 16.1896C7.06944 16.1896 7.06944 16.1896 7.0673 16.1875C7.0673 16.1875 7.0673 16.1853 7.06301 16.1832C7.06301 16.1832 7.06301 16.1832 7.06087 16.1811C7.06087 16.1811 7.06087 16.1789 7.05873 16.1768C7.05873 16.1768 7.05658 16.1746 7.05444 16.1725C7.05444 16.1725 7.05444 16.1703 7.0523 16.1682C7.0523 16.1682 7.0523 16.1661 7.05015 16.1639C7.05015 16.1639 7.05016 16.1618 7.04801 16.1596C7.04801 16.1596 7.04801 16.1596 7.04587 16.1575C7.04587 16.1575 7.04373 16.1553 7.04158 16.1532C7.04158 16.1532 7.03944 16.1511 7.0373 16.1489C7.0373 16.1489 7.03516 16.1446 7.03301 16.1446C7.03301 16.1446 7.03301 16.1446 7.03087 16.1425C7.03087 16.1425 7.02873 16.1382 7.02658 16.1382C7.02658 16.1382 7.02658 16.1382 7.02444 16.1361C6.9473 16.0439 6.87444 15.9496 6.80373 15.8553C6.78658 15.8318 6.77158 15.8082 6.75444 15.7868C6.69016 15.6968 6.62587 15.6046 6.56587 15.5103C6.54444 15.4782 6.52516 15.4461 6.50373 15.4161C6.43301 15.3046 6.36658 15.1889 6.3023 15.0732C6.2873 15.0453 6.27444 15.0175 6.25944 14.9896C6.21015 14.8953 6.16301 14.7968 6.11801 14.7003C6.1073 14.6768 6.09444 14.6553 6.08587 14.6339C6.08587 14.6339 6.08587 14.6339 6.08801 14.6339C6.08373 14.6232 6.0773 14.6103 6.07301 14.5996C6.07087 14.5932 6.06658 14.5846 6.0623 14.5782C6.05801 14.5696 6.05373 14.5611 6.05158 14.5525C6.04944 14.5461 6.04515 14.5396 6.04301 14.5311C6.04087 14.5246 6.03658 14.5161 6.03444 14.5096C6.03016 14.5011 6.02801 14.4925 6.02373 14.4818C6.02158 14.4753 6.0173 14.4668 6.01516 14.4603C6.01301 14.4539 6.00873 14.4453 6.00658 14.4389C6.0023 14.4303 6.00015 14.4218 5.99587 14.4111C5.99373 14.4046 5.98944 14.3961 5.9873 14.3896C5.98516 14.3832 5.98087 14.3746 5.97873 14.3682C5.97658 14.3596 5.9723 14.3532 5.97016 14.3446C5.96587 14.3361 5.96373 14.3275 5.95944 14.3189C5.9573 14.3125 5.95301 14.3039 5.95087 14.2975C5.94873 14.2889 5.94444 14.2825 5.9423 14.2739C5.93801 14.2653 5.93587 14.2568 5.93158 14.2482C5.92944 14.2396 5.92515 14.2332 5.92301 14.2246C5.92087 14.2161 5.91658 14.2075 5.91444 14.1989C5.91016 14.1903 5.90801 14.1796 5.90587 14.1711C5.90373 14.1625 5.89944 14.1539 5.8973 14.1475C5.89516 14.1389 5.89087 14.1303 5.88873 14.1239C5.88658 14.1153 5.8823 14.1089 5.88016 14.1003C5.87587 14.0918 5.87373 14.0811 5.86944 14.0725C5.8673 14.0639 5.86301 14.0553 5.86087 14.0468C5.85873 14.0382 5.85444 14.0318 5.8523 14.0232C5.84801 14.0125 5.84587 14.0039 5.84158 13.9932C5.83944 13.9846 5.83515 13.9761 5.83301 13.9675C5.83087 13.9589 5.82658 13.9525 5.82444 13.9439C5.8223 13.9332 5.81801 13.9246 5.81373 13.9139C5.81158 13.9053 5.80944 13.8968 5.80516 13.8861C5.80301 13.8775 5.80087 13.8689 5.79658 13.8603C5.7923 13.8496 5.79016 13.8389 5.78801 13.8282C5.78373 13.8153 5.77944 13.8003 5.7773 13.7875C5.77301 13.7746 5.76873 13.7596 5.76444 13.7468C5.76016 13.7318 5.75587 13.7168 5.75158 13.7018C5.7473 13.6889 5.74301 13.6761 5.74087 13.6632C5.73658 13.6482 5.7323 13.6332 5.72801 13.6203C5.72373 13.6053 5.72158 13.5925 5.7173 13.5775C5.71301 13.5603 5.71087 13.5453 5.70658 13.5282C5.7023 13.5132 5.70016 13.4982 5.69587 13.4832C5.69158 13.4661 5.6873 13.4511 5.68515 13.4339C5.68087 13.4189 5.67873 13.4061 5.67444 13.3911C5.67016 13.3761 5.66801 13.3611 5.66373 13.3461C5.65944 13.3289 5.65515 13.3139 5.65301 13.2968C5.64873 13.2796 5.64658 13.2646 5.64444 13.2475C5.64016 13.2282 5.63801 13.2111 5.63373 13.1918C5.63158 13.1746 5.6273 13.1596 5.62516 13.1425C5.62301 13.1253 5.61873 13.1061 5.61658 13.0889C5.61444 13.0739 5.61016 13.0568 5.60801 13.0418C5.60587 13.0268 5.60158 13.0096 5.59944 12.9946C5.5973 12.9753 5.59301 12.9561 5.59087 12.9368C5.58873 12.9196 5.58658 12.9003 5.58444 12.8832C5.5823 12.8639 5.58016 12.8446 5.57587 12.8253C5.57373 12.8082 5.57158 12.7889 5.56944 12.7718C5.5673 12.7503 5.56301 12.7311 5.56087 12.7118C5.56087 12.6925 5.55658 12.6753 5.55444 12.6561C5.55444 12.6346 5.5523 12.6153 5.55016 12.5939C5.55016 12.5725 5.54801 12.5511 5.54587 12.5296C5.54587 12.5103 5.54373 12.4911 5.54158 12.4718C5.54158 12.4503 5.5373 12.4289 5.5373 12.4075C5.5373 12.3882 5.53301 12.3668 5.53301 12.3475C5.53301 12.3239 5.53301 12.3025 5.53087 12.2789C5.53087 12.2575 5.53087 12.2339 5.53087 12.2103C5.52873 12.1353 5.52444 12.0582 5.52444 11.9832C5.52444 8.37677 8.46016 5.44963 12.0837 5.44963C15.7073 5.44963 18.6452 8.37463 18.6452 11.9832C18.6452 12.0132 18.6452 12.0432 18.643 12.0732L18.6387 12.0646Z" fill="white"/>
<path d="M12.0793 13.622H12.0815C14.3079 13.622 16.3715 13.9949 18.075 14.6291C17.8329 15.167 17.52 15.6663 17.1493 16.1141C17.1493 16.1141 17.1515 16.1141 17.1536 16.1163C17.5329 15.6577 17.8479 15.1456 18.09 14.5949C17.5093 12.6899 15.0343 11.0806 12.0793 11.0806C9.12431 11.0806 6.6536 12.6899 6.07074 14.5927C6.07503 14.6034 6.08145 14.6163 6.08574 14.627C7.7936 13.9927 9.85502 13.6199 12.0793 13.6199V13.622Z" fill="white"/>
<path d="M18.0751 14.6292C16.3716 13.9949 14.308 13.6221 12.0816 13.6221H12.0794C9.85514 13.6221 7.79371 13.9949 6.08585 14.6292C6.08585 14.6292 6.08585 14.6292 6.08371 14.6292C6.09442 14.6528 6.10728 14.6742 6.11585 14.6956C6.16085 14.7942 6.208 14.8906 6.25728 14.9849C6.27228 15.0128 6.28514 15.0406 6.30014 15.0685C6.36442 15.1842 6.43085 15.2999 6.50157 15.4114C6.52085 15.4435 6.54228 15.4756 6.56371 15.5056C6.62371 15.5999 6.688 15.6921 6.75228 15.7821C6.76942 15.8056 6.78442 15.8292 6.80157 15.8506C6.87228 15.9471 6.94514 16.0414 7.02228 16.1314C7.02228 16.1314 7.02228 16.1314 7.02442 16.1335C7.02442 16.1335 7.02657 16.1378 7.02871 16.1378C7.02871 16.1378 7.02871 16.1378 7.03085 16.1399C7.03085 16.1399 7.033 16.1442 7.03514 16.1442C7.03514 16.1442 7.03728 16.1464 7.03942 16.1485C7.03942 16.1485 7.04157 16.1506 7.04371 16.1528C7.04371 16.1528 7.04371 16.1528 7.04585 16.1549C7.04585 16.1549 7.04585 16.1571 7.04799 16.1592C7.04799 16.1592 7.048 16.1614 7.05014 16.1635C7.05014 16.1635 7.05014 16.1656 7.05228 16.1678C7.05228 16.1678 7.05442 16.1699 7.05657 16.1721C7.05657 16.1721 7.05657 16.1742 7.05871 16.1764C7.05871 16.1764 7.05871 16.1764 7.06085 16.1785C7.06085 16.1785 7.06085 16.1806 7.06514 16.1828C7.06514 16.1828 7.06514 16.1828 7.06728 16.1849C7.06728 16.1849 7.06942 16.1871 7.07157 16.1892C7.07157 16.1892 7.07157 16.1892 7.07371 16.1914C7.07371 16.1914 7.07371 16.1914 7.07585 16.1935C7.07585 16.1935 7.078 16.1956 7.08014 16.1978C7.08014 16.1978 7.08014 16.1978 7.08228 16.1999C7.08228 16.1999 7.08442 16.2021 7.08442 16.2042C7.08442 16.2042 7.08442 16.2042 7.08657 16.2064C7.08657 16.2064 7.08871 16.2085 7.09085 16.2106C7.093 16.2149 7.09728 16.2171 7.09942 16.2214C7.10157 16.2235 7.10371 16.2278 7.10585 16.2299C7.11014 16.2342 7.11228 16.2385 7.11657 16.2428C7.11871 16.2471 7.123 16.2492 7.12514 16.2535C7.12728 16.2556 7.12942 16.2599 7.13157 16.2621C7.13371 16.2664 7.138 16.2685 7.14014 16.2728C7.14228 16.2771 7.14657 16.2792 7.14871 16.2835C7.15085 16.2856 7.153 16.2899 7.15728 16.2921C7.15942 16.2964 7.16371 16.2985 7.16585 16.3028C7.168 16.3071 7.17228 16.3092 7.17442 16.3135C7.17657 16.3156 7.18085 16.3199 7.183 16.3221C7.18514 16.3264 7.18942 16.3285 7.19157 16.3328C7.19371 16.3349 7.198 16.3392 7.20014 16.3414C7.20228 16.3435 7.20657 16.3478 7.20871 16.3499C7.21085 16.3542 7.21514 16.3564 7.21942 16.3606C7.22371 16.3649 7.22585 16.3671 7.23014 16.3714C7.23228 16.3735 7.23657 16.3778 7.23871 16.3799C7.243 16.3842 7.24514 16.3864 7.24942 16.3906C7.25371 16.3949 7.25585 16.3971 7.26014 16.4014C7.26228 16.4035 7.26657 16.4078 7.26871 16.4099C7.273 16.4142 7.27514 16.4164 7.27942 16.4206C7.28371 16.4249 7.28585 16.4271 7.29014 16.4314C7.29228 16.4335 7.29442 16.4356 7.29871 16.4399C7.303 16.4442 7.30514 16.4464 7.30942 16.4506C7.31371 16.4549 7.31585 16.4571 7.32014 16.4614C7.32442 16.4656 7.32657 16.4678 7.33085 16.4721C7.33514 16.4764 7.33728 16.4785 7.34157 16.4828C7.34157 16.4828 7.34371 16.4849 7.34585 16.4871C7.348 16.4892 7.35014 16.4914 7.35228 16.4935C7.35442 16.4956 7.35871 16.4999 7.36085 16.5042C7.36514 16.5085 7.36728 16.5106 7.36942 16.5149C7.37371 16.5192 7.37585 16.5214 7.38014 16.5256C7.38442 16.5299 7.38871 16.5342 7.39514 16.5385C7.49371 16.6392 7.59657 16.7356 7.70157 16.8299C7.71442 16.8428 7.72942 16.8535 7.74442 16.8664C7.84299 16.9521 7.94585 17.0378 8.04871 17.1171C8.06157 17.1278 8.07442 17.1364 8.08728 17.1471C8.20514 17.2371 8.32514 17.3228 8.44942 17.4042C8.45157 17.4042 8.45585 17.4085 8.458 17.4106C8.58228 17.4921 8.70871 17.5692 8.83728 17.6421C8.84371 17.6464 8.85014 17.6506 8.85871 17.6549C9.12871 17.8049 9.40942 17.9378 9.70085 18.0492C10.4359 18.3321 11.2351 18.4906 12.0709 18.4906C12.568 18.4906 13.0544 18.4328 13.5194 18.3278C13.528 18.3278 13.5366 18.3235 13.5451 18.3214C13.8451 18.2528 14.1366 18.1649 14.4194 18.0556C14.4366 18.0492 14.4537 18.0428 14.473 18.0342C14.6059 17.9828 14.7366 17.9271 14.8651 17.8671C14.8694 17.8671 14.8737 17.8628 14.878 17.8606C15.0109 17.7985 15.1416 17.7299 15.2701 17.6592C15.2873 17.6485 15.3044 17.6399 15.3237 17.6292C15.4437 17.5606 15.5594 17.4899 15.6751 17.4149C15.6816 17.4106 15.688 17.4064 15.6944 17.4021C15.8187 17.3206 15.9409 17.2328 16.0587 17.1428C16.0673 17.1364 16.0759 17.1299 16.0823 17.1235C16.3244 16.9371 16.5537 16.7335 16.768 16.5149C16.7723 16.5106 16.7744 16.5085 16.7787 16.5042C16.783 16.4999 16.7851 16.4978 16.7894 16.4935C16.7916 16.4914 16.7959 16.4871 16.798 16.4849C16.8023 16.4806 16.8044 16.4785 16.8087 16.4742L16.8194 16.4635C16.8194 16.4635 16.8259 16.4571 16.8301 16.4528C16.8323 16.4506 16.8366 16.4464 16.8387 16.4442C16.843 16.4399 16.8451 16.4378 16.8494 16.4335C16.8537 16.4292 16.8559 16.4271 16.8601 16.4228C16.8644 16.4228 16.8687 16.4271 16.8751 16.4271C16.8709 16.4249 16.8666 16.4228 16.8623 16.4206C16.8623 16.4206 16.8666 16.4164 16.8687 16.4142C16.873 16.4099 16.8773 16.4056 16.8794 16.4014C16.8816 16.3992 16.8859 16.3949 16.888 16.3928C16.8901 16.3906 16.8944 16.3864 16.8966 16.3842C16.8987 16.3799 16.903 16.3778 16.9051 16.3735C16.9094 16.3692 16.9116 16.3671 16.9159 16.3628C16.918 16.3606 16.9223 16.3564 16.9244 16.3542C16.9266 16.3521 16.9309 16.3478 16.933 16.3456C16.9373 16.3414 16.9394 16.3371 16.9437 16.3328C16.9459 16.3306 16.948 16.3264 16.9523 16.3242C16.9544 16.3221 16.9587 16.3178 16.9609 16.3156C16.963 16.3114 16.9673 16.3092 16.9694 16.3049C16.9716 16.3006 16.9759 16.2985 16.978 16.2942C16.9801 16.2899 16.9844 16.2878 16.9866 16.2835C16.9887 16.2792 16.993 16.2771 16.9951 16.2728C16.9973 16.2706 16.9994 16.2664 17.0016 16.2642C17.0037 16.2621 17.008 16.2578 17.0101 16.2556C17.0144 16.2514 17.0166 16.2471 17.0209 16.2449C17.023 16.2428 17.0273 16.2385 17.0294 16.2364L17.038 16.2278C17.038 16.2278 17.0444 16.2214 17.0466 16.2171C17.0466 16.2171 17.0487 16.2149 17.0509 16.2128C17.0509 16.2128 17.0509 16.2128 17.053 16.2106C17.053 16.2106 17.053 16.2085 17.0551 16.2064C17.0551 16.2064 17.0551 16.2064 17.0573 16.2042C17.0573 16.2042 17.0573 16.2042 17.0594 16.2021C17.0594 16.2021 17.0594 16.2021 17.0616 16.1999C17.0616 16.1999 17.0616 16.1978 17.0637 16.1956C17.0637 16.1956 17.0659 16.1935 17.068 16.1914C17.068 16.1914 17.068 16.1914 17.0701 16.1892C17.0701 16.1892 17.0723 16.1871 17.0744 16.1849C17.0744 16.1849 17.0766 16.1828 17.0787 16.1806C17.0787 16.1806 17.0809 16.1785 17.083 16.1764C17.083 16.1764 17.0851 16.1721 17.0873 16.1721C17.0873 16.1721 17.0873 16.1699 17.0894 16.1678C17.0894 16.1678 17.0916 16.1656 17.0937 16.1635C17.0937 16.1635 17.0937 16.1635 17.0959 16.1614C17.0959 16.1614 17.098 16.1592 17.1001 16.1571C17.1001 16.1571 17.1001 16.1549 17.1023 16.1528C17.1023 16.1528 17.1044 16.1485 17.1066 16.1485C17.1066 16.1485 17.1087 16.1464 17.1109 16.1442C17.1109 16.1442 17.113 16.1421 17.1151 16.1399C17.1151 16.1399 17.1173 16.1378 17.1194 16.1356C17.1194 16.1356 17.1216 16.1335 17.1237 16.1314C17.1237 16.1314 17.1259 16.1292 17.128 16.1271C17.128 16.1271 17.1301 16.1249 17.1323 16.1228C17.1323 16.1228 17.1344 16.1206 17.1366 16.1185C17.1366 16.1185 17.1387 16.1142 17.1409 16.1142C17.1409 16.1142 17.1409 16.1142 17.143 16.1121C17.143 16.1121 17.1409 16.1121 17.1387 16.1099C17.5094 15.6599 17.8223 15.1628 18.0644 14.6249L18.0751 14.6292Z" fill="#0367B3"/>
</g>
<defs>
<clipPath id="clip0_266_54878">
<rect width="24" height="24" fill="white"/>
</clipPath>
</defs>
</svg>
