<svg width="32" height="32" viewBox="0 0 32 32" fill="none" xmlns="http://www.w3.org/2000/svg">
<g clip-path="url(#clip0_266_55354)">
<path d="M0 16C0 16.9421 0 17.0467 0.0299275 17.8467C0.0823005 19.6187 0.276829 21.6524 0.987606 23.7981C1.48889 25.3159 2.43161 26.9533 3.37433 27.9851C4.57143 29.3008 6.2249 30.3776 8.0056 30.9906C9.83117 31.6188 11.8064 31.9251 15.6446 32H16.3554C20.201 31.9177 22.1688 31.6188 23.9943 30.9906C25.7825 30.3776 27.4285 29.3008 28.6332 27.9851C29.5757 26.9458 30.5185 25.3159 31.0198 23.7981C31.7305 21.6524 31.9251 19.6112 31.9774 17.8467C32 17.0542 32 16.9421 32 16C32 15.058 32 14.9533 31.9774 14.1533C31.9177 12.3813 31.7305 10.3477 31.0198 8.20186C30.5185 6.68411 29.5757 5.04673 28.6332 4.01494C27.436 2.69907 25.7825 1.62243 23.9943 1.00935C22.1688 0.381308 20.1936 0.0822429 16.3554 0H15.6446C11.7989 0.0822429 9.83117 0.381308 8.0056 1.00935C6.21744 1.62243 4.57143 2.69907 3.37433 4.01494C2.43161 5.05421 1.48889 6.68411 0.987606 8.20186C0.276829 10.3477 0.0823005 12.3813 0.0299275 14.1533C0 14.9458 0 15.058 0 16Z" fill="#0473EA"/>
<path d="M13.6063 24.7197C13.1127 25.0112 12.6713 25.1832 12.2001 25.1832C10.9883 25.1832 9.97849 24.1965 9.92615 23.0005L12.2824 21.5952L15.9476 23.2322L13.6138 24.7122L13.6063 24.7197Z" fill="white"/>
<path d="M15.0052 18.695L13.2548 17.9251C12.4769 17.5738 11.7363 17.2823 11.7363 16.4227C11.7363 15.9742 11.871 15.7425 12.0879 15.5107L15.7906 17.1403L14.878 17.671C14.6237 17.8279 14.4442 17.9625 14.4442 18.1569C14.4442 18.3661 14.6835 18.5455 15.0126 18.695" fill="white"/>
<path d="M16.7256 10.6223L14.9304 11.7062C14.7658 11.8034 14.5563 11.9603 14.5563 12.192C14.5563 12.4686 14.9752 12.6704 15.3418 12.8498L13.0977 11.8631C12.4395 11.5716 11.7737 11.2427 11.7737 10.4429C11.7737 10.1066 11.871 9.83744 12.0281 9.60573L16.8827 6.63818C17.4661 6.9671 18.0271 7.63236 18.0271 8.52933C18.0271 9.48613 17.5409 10.129 16.7256 10.6223Z" fill="white"/>
<path d="M20.5404 14.128L20.0916 14.3822L16.3815 12.7452L20.69 10.1514C21.2735 10.4877 21.842 11.1455 21.842 12.0425C21.842 12.9993 21.3707 13.6571 20.533 14.128" fill="white"/>
<path d="M17.4063 17.2749L19.598 18.2392C20.4208 18.6054 20.6751 19.039 20.6751 19.5846C20.6751 19.8986 20.5031 20.2051 20.2487 20.4218L16.561 18.7848L17.1819 18.4335C17.713 18.142 17.885 17.9626 17.885 17.7757C17.885 17.5888 17.7653 17.4394 17.4063 17.2824" fill="white"/>
<path d="M21.3183 25.3626C20.3833 24.6451 19.3885 24.1592 18.1767 23.606L12.589 21.1319C11.1827 20.504 10.2477 19.6743 10.2477 18.269C10.2477 16.8637 10.906 16.2433 11.7662 15.7051L12.0729 15.5107C11.856 15.7425 11.7213 15.9742 11.7213 16.4227C11.7213 17.2823 12.4619 17.5738 13.2398 17.9251L19.7475 20.7955C20.877 21.2813 21.9167 22.1111 21.9167 23.5388C21.9167 24.3236 21.625 25.0188 21.3109 25.3701" fill="white"/>
<path d="M20.6601 20.1602L20.2562 20.4143C20.5105 20.1975 20.6825 19.8911 20.6825 19.5771C20.6825 19.0315 20.4282 18.5979 19.6054 18.2316L12.6489 15.1669C11.2426 14.5465 10.3674 13.7467 10.3674 12.3489C10.3674 11.0632 11.0107 10.2186 12.0205 9.59814C11.8635 9.82986 11.7662 10.099 11.7662 10.4353C11.7662 11.2351 12.4319 11.564 13.0902 11.8556L19.8523 14.838C21.079 15.3837 22.0813 16.2059 22.0813 17.7009C22.0813 18.8745 21.5353 19.6145 20.6601 20.1527" fill="white"/>
</g>
<defs>
<clipPath id="clip0_266_55354">
<rect width="32" height="32" fill="white"/>
</clipPath>
</defs>
</svg>
