<svg width="32" height="32" viewBox="0 0 32 32" fill="none" xmlns="http://www.w3.org/2000/svg">
<g clip-path="url(#clip0_266_55269)">
<path d="M0 16C0 16.94 0 17.0486 0.0257143 17.8429C0.0828571 19.6114 0.274286 21.6514 0.985714 23.7943C1.48857 25.3143 2.42857 26.9457 3.37143 27.9829C4.57143 29.2972 6.22 30.3743 8.00571 30.9886C9.83143 31.6172 11.8057 31.92 15.6457 32H16.3543C20.1943 31.92 22.1686 31.6172 23.9943 30.9886C25.78 30.3743 27.4286 29.2972 28.6286 27.9829C29.5743 26.9457 30.5114 25.3143 31.0143 23.7943C31.7257 21.6486 31.9171 19.6114 31.9743 17.8429C32 17.0486 32 16.94 32 16C32 15.06 32 14.9514 31.9743 14.1571C31.9171 12.3886 31.7257 10.3514 31.0143 8.20572C30.5114 6.68572 29.5743 5.05429 28.6286 4.01715C27.4286 2.70286 25.78 1.62571 23.9943 1.00857C22.1686 0.379999 20.1943 0.0771429 16.3543 0H15.6457C11.8057 0.08 9.83143 0.379999 8.00571 1.00857C6.22 1.62286 4.57143 2.7 3.37143 4.01715C2.42857 5.05143 1.48857 6.68572 0.985714 8.20572C0.274286 10.3486 0.0828571 12.3886 0.0257143 14.1571C0 14.9514 0 15.06 0 16Z" fill="#0367B3"/>
<path d="M16.1428 24.8431C20.9934 24.8431 24.9256 20.9108 24.9256 16.0602C24.9256 11.2095 20.9934 7.27734 16.1428 7.27734C11.2921 7.27734 7.35992 11.2095 7.35992 16.0602C7.35992 20.9108 11.2921 24.8431 16.1428 24.8431Z" fill="#0098D5"/>
<path d="M16.1399 10.183C20.1314 10.183 23.5399 12.6401 24.8514 16.0858C24.8514 16.0458 24.8542 16.0058 24.8542 15.9658C24.8542 11.1544 20.9371 7.25439 16.1056 7.25439C11.2742 7.25439 7.35992 11.1573 7.35992 15.9658C7.35992 16.0687 7.36278 16.1687 7.3685 16.2687C8.62564 12.7258 12.0799 10.1801 16.1428 10.1801L16.1399 10.183Z" fill="#0083CA"/>
<path d="M16.1455 10.2545C20.1455 10.2545 23.5569 12.7202 24.8512 16.1688C24.8512 16.1402 24.8512 16.1145 24.8512 16.086C23.5398 12.6374 20.1312 10.1831 16.1398 10.1831C12.1484 10.1831 8.62551 12.7288 7.36551 16.2717C7.36551 16.3002 7.36551 16.3317 7.36551 16.3631C8.60551 12.8174 12.0684 10.2574 16.1398 10.2574L16.1455 10.2545Z" fill="#0083CA"/>
<path d="M16.134 10.3373C20.1568 10.3373 23.5768 12.8259 24.8482 16.2888C24.8482 16.2488 24.8482 16.2088 24.8511 16.1716C23.5568 12.7259 20.1454 10.2573 16.1454 10.2573C12.1454 10.2573 8.61109 12.8173 7.37109 16.363C7.37109 16.3945 7.37109 16.423 7.37395 16.4545C8.59395 12.9088 12.0511 10.3402 16.134 10.3402V10.3373Z" fill="#0085CB"/>
<path d="M16.1345 10.3369C12.0516 10.3369 8.59445 12.9083 7.37445 16.4512C7.37445 16.4769 7.38016 16.5055 7.38016 16.5312C8.58588 12.9912 12.0487 10.4141 16.1373 10.4141C20.2259 10.4141 23.5944 12.9169 24.8459 16.3798C24.8459 16.3512 24.8459 16.3198 24.8459 16.2883C23.5773 12.8255 20.1545 10.3369 16.1316 10.3369H16.1345Z" fill="#0086CC"/>
<path d="M16.1372 10.4145C12.0486 10.4145 8.58289 12.9916 7.38004 16.5316C7.38004 16.5602 7.38575 16.5888 7.38575 16.6173C8.57146 13.0773 12.04 10.4916 16.1372 10.4916C20.2343 10.4916 23.6058 13.0059 24.84 16.4688C24.84 16.4373 24.8429 16.4088 24.8457 16.3773C23.5943 12.9145 20.1686 10.4116 16.1372 10.4116V10.4145Z" fill="#0088CC"/>
<path d="M16.137 10.566C20.1827 10.566 23.617 13.0917 24.8342 16.5546C24.8342 16.526 24.8399 16.4974 24.8399 16.4688C23.6084 13.0031 20.177 10.4917 16.137 10.4917C12.097 10.4917 8.5713 13.0774 7.38559 16.6174C7.38559 16.6431 7.38845 16.6688 7.3913 16.6946C8.56273 13.1603 12.037 10.566 16.137 10.566Z" fill="#0089CD"/>
<path d="M16.1369 10.5659C12.0369 10.5659 8.5626 13.1602 7.39117 16.6945C7.39117 16.7231 7.39403 16.7516 7.39689 16.7802C8.54832 13.2488 12.0255 10.6431 16.1312 10.6431C20.2369 10.6431 23.6283 13.1831 24.8226 16.6488C24.8226 16.6173 24.8283 16.5859 24.8312 16.5545C23.6169 13.0916 20.1826 10.5659 16.134 10.5659H16.1369Z" fill="#008BCE"/>
<path d="M16.1344 10.7255C20.1973 10.7255 23.6401 13.2712 24.8201 16.7312C24.8201 16.7055 24.823 16.6769 24.8258 16.6512C23.6315 13.1855 20.1887 10.6455 16.1344 10.6455C12.0801 10.6455 8.55154 13.2512 7.40012 16.7827C7.40012 16.8112 7.40297 16.8369 7.40583 16.8655C8.54012 13.3369 12.0173 10.7255 16.1344 10.7255Z" fill="#008DCF"/>
<path d="M16.1343 10.7256C12.0171 10.7256 8.53999 13.337 7.4057 16.8656C7.4057 16.8913 7.41141 16.9142 7.41427 16.9399C8.53141 13.4199 12.0114 10.8056 16.1286 10.8056C20.2457 10.8056 23.6543 13.3656 24.8114 16.8284C24.8143 16.797 24.8171 16.7656 24.8171 16.7342C23.6371 13.2742 20.1943 10.7284 16.1314 10.7284L16.1343 10.7256Z" fill="#008ED0"/>
<path d="M16.1346 10.8827C20.2117 10.8827 23.6631 13.4456 24.806 16.8999C24.806 16.8742 24.8117 16.8484 24.8146 16.8256C23.6574 13.3627 20.206 10.8027 16.1317 10.8027C12.0574 10.8027 8.53456 13.4199 7.41742 16.937C7.42028 16.9656 7.42313 16.9913 7.42885 17.017C8.52885 13.5027 12.0117 10.8799 16.1374 10.8799L16.1346 10.8827Z" fill="#0090D0"/>
<path d="M16.1344 10.8828C12.0086 10.8828 8.52578 13.5057 7.42578 17.02C7.42864 17.0428 7.4315 17.0685 7.43435 17.0914C8.52007 13.5857 12.0029 10.9571 16.1315 10.9571C20.2601 10.9571 23.6744 13.5342 24.7944 16.9857C24.7972 16.9571 24.8029 16.9285 24.8058 16.9C23.6629 13.4457 20.2115 10.8828 16.1344 10.8828Z" fill="#0092D1"/>
<path d="M16.1256 11.0312C20.2199 11.0312 23.6799 13.6141 24.7827 17.0627C24.7856 17.037 24.7884 17.0084 24.7941 16.9827C23.6713 13.5284 20.217 10.9541 16.1313 10.9541C12.0456 10.9541 8.51986 13.5855 7.43414 17.0884C7.437 17.1141 7.43986 17.1398 7.44557 17.1655C8.51129 13.6655 11.9941 11.0284 16.1284 11.0284L16.1256 11.0312Z" fill="#0093D2"/>
<path d="M16.1254 11.0317C11.9911 11.0317 8.50825 13.6689 7.44254 17.1689C7.44539 17.1917 7.44825 17.2175 7.45111 17.2403C8.50254 13.7489 11.9854 11.1089 16.1254 11.1089C20.2654 11.1089 23.6854 13.7032 24.7711 17.146C24.774 17.1203 24.7768 17.0917 24.7825 17.066C23.6797 13.6175 20.2197 11.0346 16.1254 11.0346V11.0317Z" fill="#0095D3"/>
<path d="M16.1314 11.1855C20.2343 11.1855 23.6943 13.7827 24.7657 17.217C24.7685 17.1941 24.7714 17.1684 24.7743 17.1455C23.6885 13.7027 20.2285 11.1084 16.1285 11.1084C12.0285 11.1084 8.50568 13.7513 7.45425 17.2398C7.45711 17.2655 7.46283 17.2913 7.46568 17.317C8.49997 13.8341 11.9885 11.1855 16.1314 11.1855Z" fill="#0097D4"/>
<path d="M16.1317 11.186C11.9888 11.186 8.50026 13.8375 7.46597 17.3175C7.46883 17.3375 7.47454 17.3603 7.4774 17.3803C8.4974 13.9117 11.9831 11.266 16.1231 11.266C20.2631 11.266 23.7031 13.8775 24.7517 17.3117C24.7574 17.2803 24.7603 17.2489 24.766 17.2175C23.6945 13.7832 20.2345 11.186 16.1317 11.186Z" fill="#0098D5"/>
<path d="M16.1228 11.3428C20.24 11.3428 23.7057 13.9542 24.74 17.3742C24.7428 17.3542 24.7485 17.3313 24.7514 17.3113C23.7057 13.8771 20.2371 11.2656 16.1228 11.2656C12.0085 11.2656 8.49425 13.9113 7.47711 17.3799C7.47997 17.3999 7.48568 17.4228 7.48854 17.4428C8.49425 13.9885 11.98 11.3399 16.1257 11.3399L16.1228 11.3428Z" fill="#009AD5"/>
<path d="M16.1232 11.3428C11.9775 11.3428 8.49463 13.9885 7.48605 17.4456C7.48891 17.4685 7.49463 17.4942 7.49748 17.5171C8.48605 14.0742 11.9746 11.4227 16.1203 11.4227C20.2661 11.4227 23.7061 14.0399 24.7232 17.4485C24.7261 17.4256 24.7318 17.3999 24.7346 17.3771C23.7003 13.957 20.2346 11.3456 16.1175 11.3456L16.1232 11.3428Z" fill="#009CD6"/>
<path d="M16.1199 11.4976C20.2428 11.4976 23.7142 14.1204 24.7142 17.5233C24.7199 17.4976 24.7228 17.4718 24.7285 17.4461C23.7113 14.0376 20.2428 11.4204 16.1256 11.4204C12.0085 11.4204 8.49135 14.0718 7.50278 17.5147C7.50563 17.5376 7.51135 17.5576 7.51421 17.5804C8.48849 14.149 11.9742 11.4947 16.1228 11.4947L16.1199 11.4976Z" fill="#009ED7"/>
<path d="M16.1197 11.4971C11.9712 11.4971 8.48546 14.1514 7.51117 17.5828C7.51688 17.6085 7.51974 17.6314 7.52545 17.6571C8.47974 14.2342 11.9655 11.5714 16.1197 11.5714C20.274 11.5714 23.7197 14.1999 24.7026 17.5914C24.7055 17.5685 24.7112 17.5456 24.714 17.5228C23.714 14.1199 20.2426 11.4971 16.1197 11.4971Z" fill="#00A0D8"/>
<path d="M16.1171 11.6484C20.2542 11.6484 23.7257 14.2856 24.6885 17.6656C24.6942 17.6399 24.6971 17.6141 24.7028 17.5913C23.7228 14.1999 20.2514 11.5713 16.12 11.5713C11.9885 11.5713 8.47995 14.2341 7.52567 17.657C7.53138 17.6799 7.53424 17.7027 7.53709 17.7227C8.47709 14.3141 11.9571 11.6484 16.1171 11.6484Z" fill="#00A1D9"/>
<path d="M16.1174 11.6489C11.9574 11.6489 8.47738 14.3146 7.53738 17.7232C7.5431 17.7461 7.54881 17.7661 7.55167 17.7889C8.47453 14.3946 11.9545 11.7289 16.1145 11.7289C20.2745 11.7289 23.7288 14.3661 24.6717 17.7375C24.6774 17.7146 24.6802 17.6889 24.686 17.6661C23.7231 14.2832 20.2517 11.6489 16.1145 11.6489H16.1174Z" fill="#00A3DA"/>
<path d="M16.117 11.8057C20.2599 11.8057 23.7313 14.4486 24.6599 17.8057C24.6656 17.7829 24.6713 17.7629 24.6741 17.74C23.7284 14.3686 20.257 11.7314 16.117 11.7314C11.977 11.7314 8.477 14.3972 7.55414 17.7914C7.55985 17.8114 7.56271 17.8314 7.56842 17.8514C8.47985 14.4743 11.9599 11.8086 16.117 11.8086V11.8057Z" fill="#00A5DB"/>
<path d="M16.1172 11.8056C11.9601 11.8056 8.48006 14.4713 7.56863 17.8484C7.57435 17.8684 7.57721 17.8884 7.58292 17.9056C8.48006 14.5484 11.9629 11.8856 16.1201 11.8856C20.2772 11.8856 23.7343 14.5284 24.6458 17.8713C24.6515 17.8484 24.6572 17.8256 24.6601 17.8027C23.7315 14.4456 20.2601 11.8027 16.1172 11.8027V11.8056Z" fill="#00A7DC"/>
<path d="M16.114 11.9629C20.2597 11.9629 23.734 14.6143 24.6283 17.9457C24.634 17.92 24.6397 17.8972 24.6454 17.8715C23.7312 14.5286 20.2626 11.8857 16.1197 11.8857C11.9769 11.8857 8.48258 14.5486 7.58258 17.9057C7.58829 17.9286 7.59115 17.9486 7.59687 17.9715C8.47687 14.6257 11.9569 11.9629 16.114 11.9629Z" fill="#00A9DD"/>
<path d="M16.1143 11.9629C11.9542 11.9629 8.47711 14.6257 7.59711 17.9715C7.60282 17.9915 7.60568 18.0115 7.61139 18.0315C8.47996 14.7057 11.9542 12.04 16.1143 12.04C20.2743 12.04 23.7343 14.6886 24.6143 18.0057C24.62 17.9857 24.6228 17.9657 24.6285 17.9486C23.7343 14.6172 20.2628 11.9657 16.1143 11.9657V11.9629Z" fill="#00ABDE"/>
<path d="M16.1145 12.1172C20.263 12.1172 23.7345 14.7715 24.6002 18.0715C24.6059 18.0486 24.6087 18.0286 24.6145 18.0058C23.7345 14.6915 20.263 12.04 16.1145 12.04C11.9659 12.04 8.47732 14.7058 7.6116 18.0315C7.61732 18.0543 7.62017 18.0743 7.62589 18.0972C8.47732 14.7858 11.9516 12.1172 16.1145 12.1172Z" fill="#00ADDE"/>
<path d="M16.1141 12.1171C11.9513 12.1171 8.47698 14.7828 7.62555 18.0971C7.63126 18.1171 7.63412 18.1343 7.63984 18.1543C8.47698 14.86 11.9513 12.1943 16.1113 12.1943C20.2713 12.1943 23.7398 14.8514 24.5827 18.14C24.5884 18.1171 24.5941 18.0943 24.5998 18.0685C23.7341 14.7685 20.2655 12.1143 16.1141 12.1143V12.1171Z" fill="#00AFDF"/>
<path d="M16.1058 12.2685C20.2629 12.2685 23.7344 14.9257 24.5658 18.1971C24.5715 18.1771 24.5772 18.1571 24.5829 18.1371C23.7401 14.8485 20.2658 12.1914 16.1115 12.1914C11.9572 12.1914 8.47722 14.8543 7.64008 18.1514C7.64579 18.1714 7.6515 18.1914 7.65722 18.2085C8.48008 14.9343 11.9458 12.2685 16.1086 12.2685H16.1058Z" fill="#00B1E0"/>
<path d="M16.1054 12.2685C11.9426 12.2685 8.47688 14.9342 7.65402 18.2085C7.65974 18.2256 7.66545 18.2428 7.66831 18.2599C8.47974 15.0056 11.9483 12.3428 16.1083 12.3428C20.2683 12.3428 23.7312 14.9971 24.5483 18.2456C24.554 18.2285 24.5597 18.2113 24.5626 18.1942C23.734 14.9228 20.2626 12.2656 16.1026 12.2656L16.1054 12.2685Z" fill="#00B3E1"/>
<path d="M16.1085 12.4229C20.2628 12.4229 23.7285 15.0743 24.5314 18.3086C24.5371 18.2886 24.5428 18.2686 24.5485 18.2515C23.7314 15.0029 20.2628 12.3486 16.1085 12.3486C11.9542 12.3486 8.47995 15.0086 7.66852 18.2658C7.67423 18.2858 7.67995 18.3058 7.68566 18.3258C8.4828 15.0858 11.9485 12.4286 16.1085 12.4286V12.4229Z" fill="#0DB5E2"/>
<path d="M16.1087 12.4233C11.9487 12.4233 8.48011 15.0833 7.68582 18.3204C7.69154 18.3376 7.69725 18.3576 7.70296 18.3747C8.48582 15.1576 11.9544 12.5004 16.1115 12.5004C20.2687 12.5004 23.7287 15.1547 24.5173 18.369C24.523 18.349 24.5287 18.3261 24.5344 18.3061C23.7315 15.0747 20.263 12.4204 16.1115 12.4204L16.1087 12.4233Z" fill="#19B7E3"/>
<path d="M16.106 12.5772C20.2631 12.5772 23.7288 15.2372 24.4974 18.4372C24.5031 18.4144 24.5088 18.3915 24.5174 18.3715C23.7288 15.1572 20.266 12.5029 16.1117 12.5029C11.9574 12.5029 8.48884 15.1601 7.70312 18.3772C7.70884 18.3944 7.71455 18.4144 7.71741 18.4315C8.48884 15.2344 11.9517 12.5772 16.106 12.5772Z" fill="#21B9E4"/>
<path d="M16.1056 12.5771C11.9514 12.5771 8.4885 15.2343 7.71707 18.4314C7.71993 18.4457 7.72564 18.46 7.7285 18.4743C8.49421 15.2943 11.9514 12.6514 16.1056 12.6514C20.2599 12.6514 23.7199 15.2943 24.4856 18.4743C24.4885 18.4629 24.4914 18.4514 24.4971 18.4371C23.7314 15.2371 20.2656 12.5771 16.1056 12.5771Z" fill="#28BBE5"/>
<path d="M16.1054 12.7257C20.254 12.7257 23.7111 15.3542 24.474 18.5114C24.4768 18.4999 24.4797 18.4885 24.4854 18.4742C23.7197 15.2942 20.2597 12.6514 16.1054 12.6514C11.9511 12.6514 8.49396 15.2942 7.72824 18.4742C7.7311 18.4857 7.73395 18.4971 7.73967 18.5085C8.50253 15.3514 11.9568 12.7228 16.1054 12.7228V12.7257Z" fill="#37BDE6"/>
<path d="M16.1057 12.7256C11.9571 12.7256 8.50282 15.3542 7.73996 18.5113C7.74282 18.5227 7.74567 18.5342 7.75139 18.5484C8.51425 15.4084 11.9657 12.7913 16.1085 12.7913C20.2514 12.7913 23.7085 15.4113 24.4657 18.5542C24.4685 18.5399 24.4742 18.5284 24.4771 18.5142C23.7114 15.3542 20.2571 12.7284 16.1085 12.7284L16.1057 12.7256Z" fill="#43BFE6"/>
<path d="M16.1055 12.8658C20.2426 12.8658 23.6912 15.4658 24.4512 18.5886C24.454 18.5772 24.4598 18.5658 24.4626 18.5544C23.7055 15.4086 20.2512 12.7915 16.1055 12.7915C11.9597 12.7915 8.51118 15.4086 7.74832 18.5486C7.75118 18.5629 7.75689 18.5744 7.76261 18.5886C8.52261 15.4686 11.9683 12.8686 16.1055 12.8686V12.8658Z" fill="#4DC0E7"/>
<path d="M16.1057 12.8657C11.9686 12.8657 8.52285 15.4656 7.76285 18.5856C7.76571 18.5971 7.77142 18.6056 7.77428 18.6171C8.53428 15.5199 11.9714 12.9314 16.1057 12.9314C20.24 12.9314 23.6828 15.5171 24.4428 18.6171C24.4457 18.6056 24.4514 18.5971 24.4543 18.5856C23.6943 15.4628 20.2457 12.8628 16.1086 12.8628L16.1057 12.8657Z" fill="#56C2E8"/>
<path d="M16.1089 12.9997C20.2346 12.9997 23.6717 15.5683 24.4317 18.6483C24.4346 18.6369 24.4403 18.6283 24.4431 18.6169C23.6831 15.5169 20.2403 12.9312 16.106 12.9312C11.9717 12.9312 8.53457 15.5197 7.77457 18.6169C7.77742 18.6283 7.78314 18.6397 7.786 18.6512C8.546 15.5712 11.986 13.0026 16.1117 13.0026L16.1089 12.9997Z" fill="#5EC4E8"/>
<path d="M16.1086 13C11.9858 13 8.54579 15.5714 7.78293 18.6486C7.78579 18.6629 7.7915 18.6743 7.79721 18.6886C8.55436 15.6286 11.9858 13.0743 16.1058 13.0743C20.2258 13.0743 23.6601 15.6286 24.4172 18.6886C24.4229 18.6743 24.4258 18.6629 24.4315 18.6486C23.6715 15.5686 20.2344 13 16.1086 13Z" fill="#65C6E9"/>
<path d="M16.1054 13.1428C20.2197 13.1428 23.6483 15.6799 24.4054 18.7199C24.4083 18.7085 24.414 18.6971 24.4169 18.6885C23.6597 15.6285 20.2254 13.0742 16.1054 13.0742C11.9854 13.0742 8.55687 15.6285 7.79688 18.6885C7.79973 18.6999 7.80545 18.7085 7.8083 18.7199C8.56545 15.6828 11.9912 13.1428 16.1054 13.1428Z" fill="#6DC7EA"/>
<path d="M16.1057 13.1431C11.9915 13.1431 8.56574 15.6831 7.80859 18.7202C7.81145 18.7316 7.81717 18.7431 7.82002 18.7545C8.58002 15.7374 12.0057 13.2174 16.1086 13.2174C20.2115 13.2174 23.6343 15.7374 24.3943 18.7545C24.3972 18.7431 24.4029 18.7316 24.4057 18.7202C23.6486 15.6831 20.22 13.1431 16.1057 13.1431Z" fill="#74C9EA"/>
<path d="M16.1059 13.2887C20.2088 13.2887 23.6259 15.7973 24.3831 18.7944C24.3888 18.7801 24.3917 18.7687 24.3974 18.7544C23.6374 15.7373 20.2145 13.2173 16.1117 13.2173C12.0088 13.2173 8.58309 15.7373 7.82309 18.7544C7.8288 18.7659 7.83166 18.7801 7.83738 18.7916C8.59452 15.7944 12.0088 13.2859 16.1088 13.2859L16.1059 13.2887Z" fill="#7ACBEB"/>
<path d="M16.1057 13.2886C12.0057 13.2886 8.58854 15.7971 7.83426 18.7943C7.83712 18.8057 7.84283 18.8143 7.84569 18.8257C8.60283 15.8514 12.0143 13.36 16.1085 13.36C20.2028 13.36 23.6171 15.8514 24.3743 18.8257C24.3771 18.8143 24.38 18.8057 24.3857 18.7943C23.6285 15.7971 20.2114 13.2886 16.1085 13.2886H16.1057Z" fill="#81CDEC"/>
<path d="M16.1089 13.4313C20.1946 13.4313 23.6032 15.9027 24.3603 18.857C24.3632 18.8456 24.3689 18.8341 24.3718 18.8256C23.6146 15.8484 20.2003 13.3599 16.1061 13.3599C12.0118 13.3599 8.60034 15.8513 7.8432 18.8256C7.84606 18.837 7.85177 18.8484 7.85463 18.857C8.61177 15.9027 12.0232 13.4313 16.1089 13.4313Z" fill="#87CFEC"/>
<path d="M16.1086 13.4316C12.0229 13.4316 8.61148 15.903 7.85434 18.8573C7.8572 18.8687 7.86291 18.8801 7.86577 18.8887C8.62291 15.9573 12.0258 13.5001 16.1058 13.5001C20.1858 13.5001 23.5915 15.9601 24.3458 18.8944C24.3515 18.8801 24.3543 18.8687 24.3601 18.8544C23.6029 15.9001 20.1972 13.4287 16.1086 13.4287V13.4316Z" fill="#8ED1ED"/>
<path d="M16.1026 13.5743C20.1826 13.5743 23.5826 16.02 24.334 18.9343C24.3397 18.9229 24.3426 18.9086 24.3483 18.8943C23.594 15.96 20.1883 13.5 16.1083 13.5C12.0283 13.5 8.62546 15.9571 7.86832 18.8886C7.87403 18.9 7.87689 18.9143 7.87974 18.9257C8.63403 16.0143 12.0255 13.5743 16.1026 13.5743Z" fill="#94D3EE"/>
<path d="M16.1029 13.5742C12.0258 13.5742 8.63432 16.0171 7.88004 18.9256C7.88289 18.9371 7.88861 18.9485 7.89146 18.9599C8.64575 16.0685 12.04 13.6399 16.1058 13.6399C20.1715 13.6399 23.5715 16.0714 24.3229 18.9656C24.3257 18.9542 24.3286 18.9456 24.3343 18.9342C23.5829 16.0199 20.1829 13.5742 16.1029 13.5742Z" fill="#9AD5EF"/>
<path d="M16.1055 13.7144C20.1655 13.7144 23.5569 16.1258 24.3112 18.9973C24.314 18.9858 24.3197 18.9773 24.3226 18.9658C23.5712 16.0716 20.174 13.6401 16.1055 13.6401C12.0369 13.6401 8.64546 16.0687 7.89117 18.9601C7.89403 18.9716 7.89975 18.9801 7.9026 18.9916C8.65975 16.123 12.0483 13.7144 16.1055 13.7144Z" fill="#A0D7F0"/>
<path d="M16.1057 13.7144C12.0486 13.7144 8.66004 16.1229 7.90289 18.9915C7.90575 19.0029 7.91146 19.0144 7.91718 19.0258C8.67146 16.1801 12.0486 13.7886 16.1029 13.7886C20.1572 13.7886 23.5429 16.1829 24.2972 19.0315C24.3029 19.0201 24.3057 19.0086 24.3115 18.9972C23.5572 16.1258 20.1657 13.7144 16.1057 13.7144Z" fill="#A6D9F0"/>
<path d="M16.106 13.8543C20.1517 13.8543 23.5288 16.2314 24.286 19.06C24.2888 19.0514 24.2946 19.04 24.2974 19.0314C23.5431 16.18 20.1603 13.7886 16.1031 13.7886C12.046 13.7886 8.67171 16.18 7.91742 19.0257C7.92028 19.0371 7.92599 19.0457 7.92885 19.0571C8.68885 16.2343 12.0631 13.8571 16.106 13.8571V13.8543Z" fill="#ACDCF1"/>
<path d="M16.1057 13.8545C12.0628 13.8545 8.6857 16.2316 7.92856 19.0545C7.93142 19.0631 7.93713 19.0745 7.93999 19.0831C8.69999 16.2802 12.0686 13.9231 16.1057 13.9231C20.1428 13.9231 23.5171 16.2831 24.2743 19.0888C24.2771 19.0802 24.2828 19.0688 24.2857 19.0602C23.5286 16.2316 20.1514 13.8545 16.1057 13.8545Z" fill="#B2DEF2"/>
<path d="M16.1054 13.9971C20.1369 13.9971 23.4997 16.3371 24.2626 19.12C24.2654 19.1086 24.2712 19.1 24.274 19.0886C23.5169 16.2829 20.1454 13.9229 16.1054 13.9229C12.0654 13.9229 8.69973 16.28 7.93973 19.0829C7.94544 19.0943 7.9483 19.1057 7.95401 19.1171C8.71401 16.3371 12.0769 13.9943 16.1054 13.9943V13.9971Z" fill="#B8E0F3"/>
<path d="M16.1057 13.9971C12.0743 13.9971 8.7114 16.3371 7.95425 19.1199C7.95711 19.1314 7.96283 19.1399 7.96568 19.1514C8.72854 16.3942 12.0857 14.0685 16.1057 14.0685C20.1257 14.0685 23.4885 16.3942 24.2485 19.1571C24.2543 19.1456 24.2571 19.1342 24.2628 19.1228C23.5028 16.3399 20.1371 13.9999 16.1057 13.9999V13.9971Z" fill="#BDE2F4"/>
<path d="M16.106 14.1401C20.1203 14.1401 23.4745 16.4458 24.2374 19.183C24.2403 19.1716 24.246 19.163 24.2488 19.1516C23.4888 16.3887 20.1317 14.063 16.106 14.063C12.0803 14.063 8.72597 16.3858 7.96597 19.1458C7.96883 19.1544 7.97454 19.1658 7.9774 19.1744C8.74312 16.4373 12.0945 14.1373 16.106 14.1373V14.1401Z" fill="#C3E5F5"/>
<path d="M16.1057 14.1401C12.0943 14.1401 8.73997 16.443 7.97711 19.1773C7.97997 19.1859 7.98568 19.1973 7.98854 19.2059C8.75425 16.4944 12.1 14.2087 16.1057 14.2087C20.1114 14.2087 23.46 16.4973 24.2228 19.2116C24.2257 19.203 24.2314 19.1916 24.2343 19.183C23.4743 16.443 20.12 14.1401 16.1028 14.1401H16.1057Z" fill="#C9E7F5"/>
<path d="M16.1088 14.28C20.106 14.28 23.446 16.5486 24.2117 19.2429C24.2145 19.2343 24.2203 19.2229 24.2231 19.2143C23.4603 16.4971 20.1145 14.2114 16.106 14.2114C12.0974 14.2114 8.75454 16.4971 7.98883 19.2086C7.99454 19.22 7.9974 19.2314 8.00312 19.2457C8.76883 16.5543 12.1117 14.2829 16.1088 14.2829V14.28Z" fill="#CEE9F6"/>
<path d="M16.1085 14.2803C12.1113 14.2803 8.76849 16.5517 8.00278 19.2431C8.00563 19.2517 8.01135 19.2631 8.01421 19.2717C8.78278 16.6003 12.1171 14.3488 16.1056 14.3488C20.0942 14.3488 23.4342 16.6031 24.1971 19.2774C24.2028 19.266 24.2056 19.2546 24.2113 19.2431C23.4456 16.5488 20.1056 14.2803 16.1085 14.2803Z" fill="#D4ECF7"/>
<path d="M16.1054 14.4201C20.0911 14.4201 23.4197 16.6573 24.1854 19.3087C24.1882 19.3001 24.1939 19.2887 24.1968 19.2801C23.4311 16.6058 20.0939 14.3516 16.1054 14.3516C12.1168 14.3516 8.78252 16.603 8.01395 19.2744C8.0168 19.283 8.02252 19.2944 8.02537 19.303C8.79395 16.6573 12.1225 14.4201 16.1054 14.4201Z" fill="#DAEEF8"/>
<path d="M16.1057 14.4204C12.1228 14.4204 8.79424 16.6576 8.02567 19.3033C8.03138 19.3147 8.03424 19.3261 8.03995 19.3404C8.80852 16.7147 12.1371 14.4947 16.1085 14.4947C20.08 14.4947 23.4057 16.7118 24.1742 19.3404C24.1771 19.3318 24.1828 19.3204 24.1857 19.309C23.42 16.6576 20.0885 14.4204 16.1057 14.4204Z" fill="#DFF1F9"/>
<path d="M16.103 14.5603C20.0744 14.5603 23.3944 16.7661 24.1601 19.3775C24.1658 19.3661 24.1715 19.3518 24.1773 19.3403C23.4087 16.7118 20.083 14.4946 16.1115 14.4946C12.1401 14.4946 8.81154 16.7146 8.04297 19.3403C8.04583 19.3489 8.05154 19.3603 8.0544 19.3689C8.82583 16.7632 12.1373 14.5603 16.103 14.5603Z" fill="#E5F3FA"/>
<path d="M16.1027 14.5601C12.137 14.5601 8.82271 16.7629 8.05414 19.3686C8.057 19.3772 8.06271 19.3858 8.06557 19.3972C8.83985 16.8172 12.1456 14.6343 16.1027 14.6343C20.0599 14.6343 23.377 16.8201 24.1456 19.4058C24.1484 19.3972 24.1541 19.3858 24.1599 19.3772C23.3941 16.7686 20.0741 14.5601 16.1027 14.5601Z" fill="#EBF6FB"/>
<path d="M16.1058 14.7028C20.0572 14.7028 23.3601 16.8713 24.1343 19.4313C24.1372 19.4228 24.1429 19.4113 24.1486 19.4028C23.3801 16.8171 20.0658 14.6313 16.1058 14.6313C12.1458 14.6313 8.84292 16.8142 8.06863 19.3942C8.07435 19.4056 8.08006 19.4171 8.08292 19.4285C8.85721 16.8713 12.1601 14.7028 16.1086 14.7028H16.1058Z" fill="#F1F8FD"/>
<path d="M16.1055 14.7026C12.1569 14.7026 8.85409 16.8684 8.0798 19.4284C8.08266 19.4369 8.08837 19.4484 8.09409 19.4569C8.87123 16.9198 12.1684 14.7741 16.1055 14.7741C20.0427 14.7741 23.3455 16.9226 24.1198 19.4598C24.1227 19.4512 24.1284 19.4426 24.1312 19.4312C23.3598 16.8684 20.0541 14.7026 16.1027 14.7026H16.1055Z" fill="#F7FBFE"/>
<path d="M25.2916 15.9657C25.2916 10.9171 21.1859 6.82568 16.1088 6.82568C11.0316 6.82568 6.9202 10.9143 6.9202 15.9657C6.9202 16.4657 6.96305 16.9571 7.0402 17.4343C7.04305 17.46 7.04877 17.4828 7.05448 17.5057C7.0602 17.5314 7.06305 17.56 7.06877 17.5857C7.07448 17.6085 7.07734 17.6343 7.08305 17.6571C7.08877 17.6828 7.09163 17.7114 7.09734 17.7371C7.10305 17.76 7.10591 17.7857 7.10877 17.8085C7.11448 17.8314 7.1202 17.8543 7.12591 17.88C7.13163 17.9 7.13448 17.92 7.1402 17.9428C7.14591 17.9628 7.14877 17.9857 7.15448 18.0057C7.1602 18.0285 7.16591 18.0514 7.17163 18.0771C7.17734 18.0971 7.1802 18.12 7.18591 18.14C7.19163 18.1657 7.19734 18.1914 7.20305 18.2143C7.20877 18.2343 7.21448 18.2571 7.2202 18.2771C7.22591 18.3 7.23448 18.32 7.2402 18.3428C7.24591 18.3628 7.25163 18.38 7.25734 18.4C7.26305 18.42 7.26877 18.4371 7.27448 18.4571C7.2802 18.48 7.28591 18.5 7.29448 18.5228C7.3002 18.5428 7.30591 18.56 7.31163 18.58C7.31734 18.6028 7.32305 18.6228 7.33163 18.6457C7.33734 18.6628 7.34305 18.6828 7.34877 18.7C7.35448 18.72 7.36305 18.7371 7.36877 18.7571C7.37448 18.7743 7.3802 18.7914 7.38591 18.8085C7.39163 18.8257 7.39734 18.8428 7.40305 18.86C7.40877 18.88 7.41734 18.9 7.42305 18.9228C7.42877 18.94 7.43448 18.96 7.4402 18.9771C7.44877 18.9971 7.45448 19.0171 7.4602 19.04C7.46591 19.0571 7.47163 19.0771 7.47734 19.0943C7.48305 19.1143 7.49163 19.1314 7.5002 19.1514C7.50591 19.1685 7.51163 19.1828 7.5202 19.2C7.52591 19.2171 7.53448 19.2371 7.54305 19.2543C7.54877 19.2714 7.55448 19.2857 7.56305 19.3028C7.56877 19.3171 7.57448 19.3343 7.58305 19.3485C7.58877 19.36 7.59163 19.3714 7.59734 19.3828C7.6002 19.3914 7.60305 19.4 7.60877 19.4085C7.61162 19.4171 7.61448 19.4257 7.6202 19.4371C7.62591 19.4485 7.62877 19.46 7.63448 19.4714C7.63734 19.48 7.6402 19.4885 7.64591 19.4971C7.64877 19.5057 7.65162 19.5143 7.65734 19.5257C7.66305 19.5371 7.66591 19.5457 7.67163 19.5571C7.67448 19.5657 7.6802 19.5743 7.68305 19.58C7.68591 19.5885 7.69163 19.5971 7.69448 19.6057C7.7002 19.6171 7.70305 19.6257 7.70877 19.6371C7.71163 19.6457 7.71734 19.6543 7.7202 19.66C7.72305 19.6685 7.72877 19.6771 7.73163 19.6857C7.73448 19.6943 7.7402 19.7028 7.74305 19.7114C7.74877 19.7228 7.75163 19.7314 7.75734 19.7428C7.7602 19.7514 7.76591 19.76 7.76877 19.7685C7.77163 19.7771 7.77734 19.7857 7.7802 19.7943C7.78591 19.8028 7.78877 19.8143 7.79448 19.8257C7.79734 19.8343 7.80305 19.8428 7.80591 19.8514C7.80877 19.86 7.81448 19.8685 7.81734 19.8771C7.82305 19.8857 7.82591 19.8971 7.83163 19.9085C7.83448 19.9171 7.8402 19.9257 7.84305 19.9343C7.84591 19.9428 7.85163 19.9485 7.85448 19.9571C7.85734 19.9657 7.86305 19.9714 7.86591 19.98C7.87162 19.9885 7.87448 19.9971 7.8802 20.0085C7.88305 20.0171 7.88877 20.0228 7.89162 20.0314C7.89448 20.04 7.9002 20.0457 7.90305 20.0543C7.90877 20.0628 7.91162 20.0743 7.91734 20.0828C7.9202 20.0914 7.92591 20.0971 7.92877 20.1057C7.93163 20.1143 7.93734 20.12 7.9402 20.1285C7.94591 20.1371 7.94877 20.1485 7.95448 20.1571C7.95734 20.1657 7.96305 20.1714 7.96591 20.18C8.25448 20.7343 8.59734 21.2571 8.98877 21.7371C8.98877 21.7371 8.98877 21.7371 8.99162 21.74C8.99162 21.74 8.99448 21.7457 8.99734 21.7485C8.99734 21.7485 8.99734 21.7485 9.0002 21.7514C9.0002 21.7514 9.00305 21.7571 9.00591 21.76C9.00591 21.76 9.00877 21.7628 9.01162 21.7657C9.01162 21.7657 9.01448 21.7685 9.01734 21.7714C9.01734 21.7714 9.01734 21.7714 9.0202 21.7743C9.0202 21.7743 9.0202 21.7771 9.02305 21.78C9.02305 21.78 9.02305 21.7828 9.02591 21.7857C9.02591 21.7857 9.02591 21.7885 9.02877 21.7914C9.02877 21.7914 9.02877 21.7943 9.03448 21.7971C9.03448 21.7971 9.03448 21.7971 9.03734 21.8C9.03734 21.8 9.03734 21.8 9.0402 21.8028C9.0402 21.8028 9.04305 21.8057 9.04591 21.8085C9.04591 21.8085 9.04591 21.8085 9.04877 21.8114C9.04877 21.8114 9.04877 21.8143 9.05163 21.8171C9.05163 21.8171 9.05163 21.8171 9.05448 21.82C9.05448 21.82 9.05448 21.82 9.05448 21.8228C9.05448 21.8228 9.05448 21.8257 9.05734 21.8285C9.05734 21.8285 9.05734 21.8285 9.05734 21.8314C9.05734 21.8314 9.0602 21.8343 9.06305 21.8371C9.06305 21.8371 9.06305 21.8371 9.06591 21.84C9.06591 21.84 9.06877 21.8428 9.07162 21.8457C9.07448 21.8514 9.0802 21.8543 9.08305 21.86C9.08591 21.8628 9.08877 21.8685 9.09162 21.8714C9.09734 21.8771 9.1002 21.8828 9.10591 21.8885C9.10877 21.8943 9.11448 21.8971 9.11734 21.9028C9.1202 21.9057 9.12305 21.9085 9.12591 21.9143C9.12877 21.92 9.13448 21.9228 9.13734 21.9285C9.1402 21.9314 9.14591 21.9371 9.14877 21.94C9.15162 21.9428 9.15448 21.9485 9.15734 21.9514C9.1602 21.9543 9.16591 21.96 9.16877 21.9628C9.17162 21.9685 9.17734 21.9714 9.1802 21.9771C9.18305 21.98 9.18591 21.9857 9.18877 21.9885C9.19162 21.9943 9.19734 21.9971 9.2002 22.0028C9.20305 22.0057 9.20591 22.0114 9.21162 22.0143C9.21448 22.0171 9.21734 22.0228 9.22305 22.0257C9.22591 22.0285 9.23163 22.0343 9.23448 22.0371C9.23734 22.0428 9.24305 22.0457 9.24591 22.0514C9.24877 22.0543 9.25163 22.06 9.25448 22.0628C9.25734 22.0657 9.26305 22.0714 9.26591 22.0771C9.26877 22.08 9.27448 22.0857 9.27734 22.0914C9.2802 22.0943 9.28305 22.1 9.28877 22.1028C9.29163 22.1057 9.29734 22.1114 9.3002 22.1171C9.30305 22.1228 9.30877 22.1257 9.31162 22.1314C9.31448 22.1343 9.31734 22.1371 9.3202 22.14C9.32591 22.1457 9.32877 22.1485 9.33448 22.1543C9.33734 22.16 9.34305 22.1628 9.34591 22.1657C9.34877 22.1714 9.35448 22.1743 9.35734 22.1771C9.3602 22.1828 9.36591 22.1857 9.36877 22.1885C9.37162 22.1914 9.37734 22.1971 9.3802 22.2C9.38305 22.2028 9.38877 22.2085 9.39163 22.2114C9.39448 22.2143 9.4002 22.22 9.40305 22.2228C9.40591 22.2285 9.41162 22.2314 9.41448 22.2371C11.0945 24.0114 13.4716 25.12 16.1088 25.12C18.7459 25.12 21.1288 24.0057 22.8059 22.2285C22.8088 22.2257 22.8145 22.22 22.8173 22.2171C22.8202 22.2114 22.8259 22.2085 22.8288 22.2028C22.8316 22.2 22.8373 22.1943 22.8402 22.1914C22.8431 22.1857 22.8488 22.1828 22.8516 22.18C22.8545 22.1743 22.8602 22.1714 22.8631 22.1685C22.8659 22.1628 22.8716 22.16 22.8745 22.1571C22.8773 22.1543 22.8802 22.1514 22.8831 22.1457C22.8831 22.1457 22.8859 22.1428 22.8888 22.14C22.8888 22.14 22.8945 22.1343 22.8973 22.1314C22.9002 22.1257 22.9059 22.1228 22.9088 22.1171C22.9116 22.1143 22.9145 22.1114 22.9173 22.1057C22.923 22.1 22.9259 22.0943 22.9316 22.0914C22.9345 22.0885 22.9373 22.0828 22.9402 22.08C22.9431 22.0771 22.9459 22.0714 22.9488 22.0685C22.9516 22.0657 22.9573 22.06 22.9602 22.0571C22.9631 22.0514 22.9688 22.0485 22.9716 22.0428C22.9745 22.04 22.9773 22.0343 22.9831 22.0314C22.9859 22.0285 22.9888 22.0228 22.9945 22.02C23.0002 22.0143 23.003 22.0085 23.0088 22.0057C23.0116 22.0028 23.0145 21.9971 23.0202 21.9943C23.0231 21.9914 23.0259 21.9857 23.0316 21.9828C23.0345 21.98 23.0402 21.9743 23.0431 21.9714C23.0459 21.9657 23.0516 21.9628 23.0545 21.9571C23.0573 21.9543 23.0631 21.9485 23.0659 21.9457C23.0688 21.94 23.0745 21.9371 23.0773 21.9314C23.0802 21.9285 23.0831 21.9257 23.0859 21.92C23.0888 21.9171 23.0916 21.9114 23.0973 21.9085C23.1002 21.9028 23.1059 21.9 23.1088 21.8943C23.1116 21.8914 23.1145 21.8857 23.1173 21.8828C23.1202 21.88 23.1231 21.8743 23.1288 21.8714C23.1316 21.8657 23.1373 21.8628 23.1402 21.8571C23.1402 21.8571 23.1431 21.8543 23.1459 21.8514C23.1459 21.8514 23.1459 21.8514 23.1488 21.8485C23.1488 21.8485 23.1516 21.8457 23.1545 21.8428C23.1545 21.8428 23.1545 21.8428 23.1573 21.84C23.1573 21.84 23.1573 21.84 23.1602 21.8371C23.1602 21.8371 23.1602 21.8371 23.163 21.8343C23.163 21.8343 23.1631 21.8314 23.1659 21.8285C23.1659 21.8285 23.1659 21.8257 23.1688 21.8228C23.1688 21.8228 23.1688 21.8228 23.1716 21.82C23.1716 21.82 23.1716 21.8171 23.1745 21.8143C23.1745 21.8143 23.1773 21.8114 23.1802 21.8085C23.1802 21.8085 23.1802 21.8057 23.1831 21.8028C23.1831 21.8028 23.1859 21.7971 23.1888 21.7971C23.1888 21.7971 23.1888 21.7943 23.1916 21.7914C23.1916 21.7914 23.1945 21.7885 23.1973 21.7857C23.1973 21.7857 23.1973 21.7857 23.2002 21.7828C23.2002 21.7828 23.2031 21.78 23.2059 21.7771C23.2059 21.7771 23.2059 21.7743 23.2088 21.7714C23.2088 21.7714 23.2116 21.7657 23.2145 21.7657C23.2145 21.7657 23.2145 21.7657 23.2145 21.7628C23.2145 21.7628 23.2173 21.7571 23.2202 21.7571C23.2202 21.7571 23.2231 21.7543 23.2259 21.7514C23.2259 21.7514 23.2288 21.7485 23.2316 21.7457C23.2316 21.7457 23.2345 21.7428 23.2373 21.74C23.2373 21.74 23.2402 21.7371 23.243 21.7343C23.243 21.7343 23.2459 21.7314 23.2488 21.7285C23.2488 21.7285 23.2516 21.7257 23.2545 21.7228C23.2545 21.7228 23.2573 21.72 23.2602 21.7171C23.2602 21.7171 23.2602 21.7171 23.2602 21.7143C23.6431 21.2428 23.9773 20.7314 24.2602 20.1885C24.2631 20.18 24.2688 20.1743 24.2716 20.1657C24.2745 20.1571 24.2802 20.1514 24.2831 20.1428C24.2859 20.1343 24.2916 20.1285 24.2945 20.12C24.3002 20.1085 24.3059 20.0971 24.3116 20.0857C24.3145 20.0771 24.3202 20.0714 24.3231 20.0628C24.3259 20.0543 24.3316 20.0485 24.3345 20.04C24.3402 20.0314 24.3431 20.0228 24.3488 20.0114C24.3516 20.0028 24.3573 19.9971 24.3602 19.9885C24.3631 19.98 24.3688 19.9743 24.3716 19.9657C24.3745 19.9571 24.3802 19.9514 24.3831 19.9428C24.3888 19.9343 24.3916 19.9228 24.3973 19.9114C24.4002 19.9028 24.4059 19.8943 24.4088 19.8857C24.4116 19.8771 24.4145 19.8685 24.4202 19.8628C24.423 19.8543 24.4259 19.8457 24.4316 19.84C24.4373 19.8285 24.4402 19.82 24.4459 19.8085C24.4488 19.8 24.4545 19.7914 24.4573 19.7828C24.4602 19.7743 24.4659 19.7657 24.4688 19.76C24.4745 19.7485 24.4773 19.74 24.4831 19.7285C24.4888 19.7171 24.4916 19.7085 24.4973 19.6971C24.5002 19.6885 24.5059 19.68 24.5088 19.6714C24.5116 19.6628 24.5173 19.6543 24.5202 19.6485C24.5259 19.6371 24.5288 19.6285 24.5345 19.6171C24.5373 19.6085 24.5431 19.6 24.5459 19.5914C24.5488 19.5828 24.5545 19.5743 24.5573 19.5657C24.5631 19.5543 24.5659 19.5457 24.5716 19.5343C24.5745 19.5257 24.5773 19.5171 24.583 19.5085C24.5859 19.5 24.5888 19.4914 24.5945 19.4828C24.5973 19.4743 24.6031 19.4628 24.6059 19.4543C24.6116 19.4428 24.6145 19.4314 24.6202 19.42C24.6231 19.4114 24.6259 19.4028 24.6316 19.3914C24.6345 19.3828 24.6402 19.3743 24.6431 19.3628C24.6516 19.3428 24.6602 19.3228 24.6659 19.3028C24.6745 19.2857 24.6802 19.2657 24.6888 19.2485C24.6945 19.2314 24.7031 19.2114 24.7116 19.1943C24.7173 19.1771 24.7231 19.1628 24.7316 19.1457C24.7402 19.1257 24.7459 19.1085 24.7516 19.0885C24.7602 19.0657 24.7659 19.0428 24.7745 19.02C24.7831 19 24.7888 18.98 24.7945 18.9571C24.8002 18.94 24.8059 18.92 24.8116 18.9028C24.8202 18.88 24.8288 18.8571 24.8345 18.8343C24.8402 18.8143 24.8488 18.7943 24.8545 18.7743C24.8602 18.7543 24.8688 18.7371 24.8745 18.7171C24.8802 18.6971 24.8859 18.6771 24.8945 18.6543C24.9002 18.6314 24.9059 18.6114 24.9145 18.5885C24.9202 18.5685 24.9259 18.5457 24.9316 18.5257C24.9402 18.5 24.9459 18.4771 24.9516 18.4514C24.9573 18.4285 24.9631 18.4085 24.9716 18.3857C24.9773 18.3657 24.983 18.3485 24.9888 18.3285C24.9973 18.3 25.0059 18.2714 25.0116 18.2428C25.0173 18.2228 25.0202 18.2 25.0259 18.1771C25.0316 18.1543 25.0373 18.1314 25.0431 18.1057C25.0488 18.0828 25.0545 18.06 25.0602 18.0343C25.0659 18.0085 25.0716 17.9828 25.0773 17.9571C25.0831 17.9371 25.0859 17.9143 25.0916 17.8943C25.0973 17.8685 25.1031 17.8428 25.1088 17.8143C25.1145 17.7914 25.1173 17.7657 25.1231 17.74C25.1288 17.7085 25.1345 17.68 25.1402 17.6485C25.1459 17.62 25.1488 17.5943 25.1545 17.5657C25.1602 17.54 25.1631 17.5114 25.1688 17.4857C25.1716 17.4628 25.1773 17.44 25.1802 17.4171C25.1859 17.3857 25.1916 17.3514 25.1945 17.32C25.1973 17.2943 25.2002 17.2685 25.2031 17.2457C25.2631 16.8257 25.2945 16.4 25.2945 15.9628H25.2916V15.9657ZM24.8516 16.0857C24.8516 16.1143 24.8516 16.14 24.8516 16.1685C24.8516 16.2085 24.8516 16.2485 24.8488 16.2857C24.8488 16.3171 24.8488 16.3457 24.8488 16.3771C24.8488 16.4085 24.8459 16.4371 24.8431 16.4685C24.8431 16.4971 24.8373 16.5257 24.8373 16.5543C24.8373 16.5857 24.8316 16.6171 24.8288 16.6485C24.8288 16.6743 24.8259 16.7028 24.8231 16.7285C24.8231 16.76 24.8202 16.7914 24.8173 16.8228C24.8173 16.8485 24.8116 16.8743 24.8088 16.8971C24.8059 16.9257 24.8002 16.9543 24.7973 16.9828C24.7945 17.0085 24.7916 17.0371 24.7859 17.0628C24.7831 17.0885 24.7802 17.1171 24.7745 17.1428C24.7716 17.1657 24.7688 17.1914 24.7659 17.2143C24.7602 17.2457 24.7573 17.2771 24.7516 17.3085C24.7488 17.3285 24.7431 17.3514 24.7402 17.3714C24.7373 17.3943 24.7316 17.42 24.7288 17.4428C24.7231 17.4685 24.7202 17.4943 24.7145 17.52C24.7116 17.5428 24.7059 17.5657 24.7031 17.5885C24.6973 17.6143 24.6945 17.64 24.6888 17.6628C24.6831 17.6857 24.6802 17.7114 24.6745 17.7343C24.6688 17.7571 24.6631 17.78 24.6602 17.8C24.6545 17.8228 24.6488 17.8457 24.6459 17.8685C24.6402 17.8943 24.6345 17.9171 24.6288 17.9428C24.6231 17.9628 24.6202 17.9828 24.6145 18C24.6088 18.0228 24.6059 18.0428 24.6002 18.0657C24.5945 18.0885 24.5888 18.1114 24.583 18.1371C24.5773 18.1571 24.5716 18.1771 24.5659 18.1971C24.5602 18.2143 24.5545 18.2314 24.5516 18.2485C24.5459 18.2685 24.5402 18.2885 24.5345 18.3057C24.5288 18.3257 24.5231 18.3485 24.5173 18.3685C24.5116 18.3914 24.5059 18.4143 24.4973 18.4343C24.4945 18.4457 24.4916 18.4571 24.4859 18.4714C24.4831 18.4828 24.4802 18.4971 24.4745 18.5085C24.4716 18.5228 24.4659 18.5343 24.4631 18.5485C24.4602 18.56 24.4545 18.5714 24.4516 18.5828C24.4488 18.5943 24.4431 18.6028 24.4402 18.6143C24.4373 18.6257 24.4316 18.6343 24.4288 18.6457C24.4259 18.66 24.4202 18.6714 24.4145 18.6857C24.4116 18.6971 24.4059 18.7085 24.4031 18.7171C24.4002 18.7285 24.3945 18.74 24.3916 18.7514C24.3859 18.7657 24.3831 18.7771 24.3773 18.7914C24.3745 18.8028 24.3716 18.8114 24.3659 18.8228C24.3631 18.8343 24.3573 18.8457 24.3545 18.8543C24.3488 18.8685 24.3459 18.88 24.3402 18.8943C24.3345 18.9057 24.3316 18.92 24.3259 18.9343C24.323 18.9457 24.3202 18.9543 24.3145 18.9657C24.3116 18.9771 24.3059 18.9857 24.3031 18.9971C24.2973 19.0085 24.2945 19.02 24.2888 19.0314C24.2859 19.04 24.2802 19.0514 24.2773 19.06C24.2745 19.0685 24.2688 19.08 24.2659 19.0885C24.2631 19.1 24.2573 19.1085 24.2545 19.12C24.2488 19.1314 24.2459 19.1428 24.2402 19.1543C24.2373 19.1657 24.2316 19.1743 24.2288 19.1857C24.2259 19.1943 24.2202 19.2057 24.2173 19.2143C24.2145 19.2228 24.2088 19.2343 24.2059 19.2428C24.2002 19.2543 24.1973 19.2657 24.1916 19.2771C24.1888 19.2857 24.1831 19.2971 24.1802 19.3057C24.1773 19.3171 24.1716 19.3257 24.1688 19.3371C24.1631 19.3485 24.1573 19.3628 24.1516 19.3743C24.1488 19.3828 24.1431 19.3943 24.1373 19.4028C24.1345 19.4114 24.1288 19.4228 24.1231 19.4314C24.1202 19.44 24.1145 19.4485 24.1116 19.46C23.7888 20.1943 23.3659 20.8771 22.8631 21.4885C22.8631 21.4885 22.8631 21.4885 22.8602 21.4914C22.8602 21.4914 22.8573 21.4971 22.8545 21.4971C22.8545 21.4971 22.8516 21.5 22.8488 21.5028C22.8488 21.5028 22.8459 21.5057 22.8431 21.5085C22.8431 21.5085 22.8402 21.5114 22.8373 21.5143C22.8373 21.5143 22.8345 21.5171 22.8316 21.52C22.8316 21.52 22.8288 21.5228 22.8259 21.5257C22.8259 21.5257 22.8231 21.5285 22.8202 21.5314C22.8202 21.5314 22.8173 21.5343 22.8145 21.5371C22.8145 21.5371 22.8116 21.5428 22.8088 21.5428C22.8088 21.5428 22.8088 21.5457 22.8059 21.5485C22.8059 21.5485 22.8031 21.5514 22.8002 21.5543C22.8002 21.5543 22.8002 21.5543 22.7973 21.5571C22.7973 21.5571 22.7945 21.56 22.7916 21.5628C22.7916 21.5628 22.7916 21.5657 22.7888 21.5685C22.7888 21.5685 22.7859 21.5743 22.7831 21.5743C22.7831 21.5743 22.7802 21.5771 22.7773 21.58C22.7773 21.58 22.7745 21.5828 22.7716 21.5857C22.7716 21.5857 22.7688 21.5885 22.7659 21.5914C22.7659 21.5914 22.7659 21.5914 22.7631 21.5943C22.7631 21.5943 22.7602 21.5971 22.7573 21.6C22.7573 21.6 22.7573 21.6028 22.7545 21.6057C22.7545 21.6057 22.7545 21.6057 22.7516 21.6085C22.7516 21.6085 22.7516 21.6085 22.7488 21.6114C22.7488 21.6114 22.7488 21.6114 22.7459 21.6143C22.7459 21.6143 22.7459 21.6171 22.7431 21.62C22.7431 21.62 22.7431 21.62 22.7402 21.6228C22.7402 21.6228 22.7373 21.6257 22.7345 21.6285C22.7316 21.6343 22.7259 21.6371 22.7231 21.6428L22.7116 21.6543C22.7116 21.6543 22.7031 21.6628 22.7002 21.6657C22.6945 21.6714 22.6916 21.6771 22.6859 21.68C22.6831 21.6828 22.6773 21.6885 22.6745 21.6914C22.6716 21.6943 22.6688 21.7 22.6659 21.7028C22.6631 21.7085 22.6573 21.7114 22.6545 21.7171C22.6516 21.7228 22.6459 21.7257 22.6431 21.7314C22.6402 21.7371 22.6345 21.74 22.6316 21.7457C22.6288 21.7514 22.6231 21.7543 22.6202 21.76C22.6173 21.7628 22.6116 21.7685 22.6088 21.7714C22.6059 21.7743 22.6031 21.78 22.5973 21.7828C22.5916 21.7885 22.5888 21.7943 22.5831 21.8C22.5802 21.8028 22.5745 21.8085 22.5716 21.8114C22.5688 21.8143 22.5631 21.82 22.5602 21.8228C22.5545 21.8285 22.5516 21.8314 22.5459 21.8371C22.5431 21.8428 22.5373 21.8457 22.5345 21.8514C22.5316 21.8543 22.5259 21.86 22.5231 21.8628C22.5202 21.8657 22.5145 21.8714 22.5116 21.8743C22.5059 21.88 22.5002 21.8857 22.4973 21.8914C22.4973 21.8914 22.4916 21.8971 22.4888 21.9C22.4945 21.9028 22.5002 21.9057 22.5059 21.9085C22.5002 21.9085 22.4945 21.9028 22.4859 21.9028C22.4802 21.9085 22.4773 21.9114 22.4716 21.9171C22.4659 21.9228 22.463 21.9257 22.4573 21.9314C22.4545 21.9343 22.4488 21.94 22.4459 21.9428C22.4402 21.9485 22.4373 21.9514 22.4316 21.9571L22.4173 21.9714C22.4173 21.9714 22.4088 21.98 22.4031 21.9857C22.4002 21.9885 22.3945 21.9943 22.3916 21.9971C22.3859 22.0028 22.3831 22.0057 22.3773 22.0114C22.3716 22.0171 22.3688 22.02 22.3631 22.0257C22.0773 22.3171 21.7716 22.5885 21.4488 22.8371C21.4373 22.8457 21.4288 22.8543 21.4173 22.8628C21.2602 22.9828 21.0973 23.0971 20.9316 23.2085C20.9231 23.2143 20.9145 23.22 20.9059 23.2257C20.7545 23.3257 20.5973 23.42 20.4373 23.5114C20.4145 23.5257 20.3916 23.5371 20.3659 23.5514C20.1945 23.6457 20.0231 23.7371 19.8431 23.82C19.8373 23.82 19.8316 23.8257 19.8259 23.8285C19.6545 23.9085 19.4802 23.9828 19.3031 24.0514C19.2802 24.06 19.2573 24.0714 19.2316 24.08C18.8545 24.2228 18.4659 24.3428 18.0659 24.4343C18.0545 24.4343 18.0431 24.44 18.0316 24.4428C17.4088 24.5828 16.7631 24.66 16.1002 24.66H16.0973C14.9831 24.66 13.9173 24.4514 12.9373 24.0714C12.5488 23.9228 12.1745 23.7457 11.8145 23.5457C11.8059 23.54 11.7973 23.5343 11.7859 23.5285C11.6145 23.4314 11.4459 23.3285 11.2802 23.22C11.2773 23.22 11.2716 23.2143 11.2688 23.2114C11.1031 23.1028 10.9431 22.9885 10.7859 22.8685C10.7688 22.8543 10.7516 22.8428 10.7345 22.8285C10.5945 22.72 10.4602 22.6085 10.3288 22.4943C10.3088 22.4771 10.2916 22.4628 10.2716 22.4457C10.1316 22.32 9.99448 22.1914 9.86305 22.0571C9.85734 22.0514 9.85162 22.0457 9.84305 22.04C9.83734 22.0343 9.83448 22.0314 9.82877 22.0257C9.82305 22.02 9.8202 22.0171 9.81734 22.0114C9.81448 22.0085 9.80877 22.0028 9.80591 21.9971C9.80305 21.9943 9.8002 21.9914 9.79734 21.9885C9.79734 21.9885 9.79448 21.9857 9.79162 21.9828C9.78591 21.9771 9.78305 21.9743 9.77734 21.9685C9.77162 21.9628 9.76877 21.96 9.76305 21.9543C9.75734 21.9485 9.75448 21.9457 9.74877 21.94C9.74305 21.9343 9.7402 21.9314 9.73448 21.9257C9.73163 21.9228 9.72877 21.92 9.72305 21.9143C9.71734 21.9085 9.71448 21.9057 9.70877 21.9C9.70305 21.8943 9.7002 21.8914 9.69448 21.8857C9.69162 21.8828 9.68591 21.8771 9.68305 21.8743C9.67734 21.8685 9.67448 21.8657 9.66877 21.86C9.66305 21.8543 9.6602 21.8514 9.65448 21.8457C9.65162 21.8428 9.64591 21.8371 9.64305 21.8343C9.63734 21.8285 9.63448 21.8257 9.62877 21.82C9.62591 21.8143 9.6202 21.8114 9.61448 21.8057C9.61162 21.8028 9.60591 21.7971 9.60305 21.7943C9.6002 21.7914 9.59448 21.7857 9.59163 21.7828C9.58877 21.7771 9.58305 21.7743 9.5802 21.7685C9.57734 21.7657 9.57162 21.76 9.56877 21.7571C9.56591 21.7514 9.5602 21.7485 9.55734 21.7428C9.55448 21.7371 9.54877 21.7343 9.54591 21.7285C9.54305 21.7257 9.5402 21.72 9.53448 21.7171C9.53163 21.7114 9.52591 21.7085 9.52305 21.7028C9.5202 21.6971 9.51448 21.6943 9.51162 21.6885C9.50877 21.6857 9.50591 21.68 9.50305 21.6771C9.5002 21.6714 9.49448 21.6685 9.49162 21.6628C9.48591 21.6571 9.48305 21.6514 9.47734 21.6457C9.47448 21.6428 9.47163 21.6371 9.46877 21.6343C9.46591 21.6285 9.4602 21.6257 9.45734 21.62C9.45734 21.62 9.45448 21.6171 9.45162 21.6143C9.45162 21.6143 9.45163 21.6143 9.44877 21.6114C9.44877 21.6114 9.44591 21.6085 9.44591 21.6057C9.44591 21.6057 9.44591 21.6057 9.44305 21.6028C9.44305 21.6028 9.4402 21.6 9.43734 21.5971C9.43734 21.5971 9.43734 21.5971 9.43448 21.5943C9.43448 21.5943 9.43448 21.5943 9.43162 21.5914C9.43162 21.5914 9.42877 21.5885 9.42591 21.5857C9.42591 21.5857 9.42591 21.5857 9.42305 21.5828C9.42305 21.5828 9.42305 21.58 9.41734 21.5771C9.41734 21.5771 9.41734 21.5771 9.41448 21.5743C9.41448 21.5743 9.41448 21.5714 9.41163 21.5685C9.41163 21.5685 9.40877 21.5657 9.40591 21.5628C9.40591 21.5628 9.40591 21.56 9.40305 21.5571C9.40305 21.5571 9.40305 21.5543 9.4002 21.5514C9.4002 21.5514 9.4002 21.5485 9.39734 21.5457C9.39734 21.5457 9.39734 21.5457 9.39448 21.5428C9.39448 21.5428 9.39162 21.54 9.38877 21.5371C9.38877 21.5371 9.38591 21.5343 9.38305 21.5314C9.38305 21.5314 9.3802 21.5257 9.37734 21.5257C9.37734 21.5257 9.37734 21.5257 9.37448 21.5228C9.37448 21.5228 9.37162 21.5171 9.36877 21.5171C9.36877 21.5171 9.36877 21.5171 9.36591 21.5143C9.26305 21.3914 9.16591 21.2657 9.07162 21.14C9.04877 21.1085 9.02877 21.0771 9.00591 21.0485C8.9202 20.9285 8.83448 20.8057 8.75448 20.68C8.72591 20.6371 8.7002 20.5943 8.67163 20.5543C8.57734 20.4057 8.48877 20.2514 8.40305 20.0971C8.38305 20.06 8.36591 20.0228 8.34591 19.9857C8.2802 19.86 8.21734 19.7285 8.15734 19.6C8.14305 19.5685 8.12591 19.54 8.11448 19.5114C8.11448 19.5114 8.11448 19.5114 8.11734 19.5114C8.11163 19.4971 8.10305 19.48 8.09734 19.4657C8.09448 19.4571 8.08877 19.4457 8.08305 19.4371C8.07734 19.4257 8.07162 19.4143 8.06877 19.4028C8.06591 19.3943 8.0602 19.3857 8.05734 19.3743C8.05448 19.3657 8.04877 19.3543 8.04591 19.3457C8.0402 19.3343 8.03734 19.3228 8.03163 19.3085C8.02877 19.3 8.02305 19.2885 8.0202 19.28C8.01734 19.2714 8.01162 19.26 8.00877 19.2514C8.00305 19.24 8.0002 19.2285 7.99448 19.2143C7.99162 19.2057 7.98591 19.1943 7.98305 19.1857C7.9802 19.1771 7.97448 19.1657 7.97162 19.1571C7.96877 19.1457 7.96305 19.1371 7.9602 19.1257C7.95448 19.1143 7.95162 19.1028 7.94591 19.0914C7.94305 19.0828 7.93734 19.0714 7.93448 19.0628C7.93163 19.0514 7.92591 19.0428 7.92305 19.0314C7.91734 19.02 7.91448 19.0085 7.90877 18.9971C7.90591 18.9857 7.9002 18.9771 7.89734 18.9657C7.89448 18.9543 7.88877 18.9428 7.88591 18.9314C7.8802 18.92 7.87734 18.9057 7.87448 18.8943C7.87163 18.8828 7.86591 18.8714 7.86305 18.8628C7.8602 18.8514 7.85448 18.84 7.85163 18.8314C7.84877 18.82 7.84305 18.8114 7.8402 18.8C7.83448 18.7885 7.83162 18.7743 7.82591 18.7628C7.82305 18.7514 7.81734 18.74 7.81448 18.7285C7.81163 18.7171 7.80591 18.7085 7.80305 18.6971C7.79734 18.6828 7.79448 18.6714 7.78877 18.6571C7.78591 18.6457 7.7802 18.6343 7.77734 18.6228C7.77448 18.6114 7.76877 18.6028 7.76591 18.5914C7.76305 18.5771 7.75734 18.5657 7.75162 18.5514C7.74877 18.54 7.74591 18.5285 7.7402 18.5143C7.73734 18.5028 7.73448 18.4914 7.72877 18.48C7.72305 18.4657 7.7202 18.4514 7.71734 18.4371C7.71163 18.42 7.70591 18.4 7.70305 18.3828C7.69734 18.3657 7.69163 18.3457 7.68591 18.3285C7.6802 18.3085 7.67448 18.2885 7.66877 18.2685C7.66305 18.2514 7.65734 18.2343 7.65448 18.2171C7.64877 18.1971 7.64305 18.1771 7.63734 18.16C7.63163 18.14 7.62877 18.1228 7.62305 18.1028C7.61734 18.08 7.61448 18.06 7.60877 18.0371C7.60305 18.0171 7.6002 17.9971 7.59448 17.9771C7.58877 17.9543 7.58305 17.9343 7.5802 17.9114C7.57448 17.8914 7.57163 17.8743 7.56591 17.8543C7.5602 17.8343 7.55734 17.8143 7.55163 17.7943C7.54591 17.7714 7.5402 17.7514 7.53734 17.7285C7.53162 17.7057 7.52877 17.6857 7.52591 17.6628C7.5202 17.6371 7.51734 17.6143 7.51162 17.5885C7.50877 17.5657 7.50305 17.5457 7.5002 17.5228C7.49734 17.5 7.49162 17.4743 7.48877 17.4514C7.48591 17.4314 7.4802 17.4085 7.47734 17.3885C7.47448 17.3685 7.46877 17.3457 7.46591 17.3257C7.46305 17.3 7.45734 17.2743 7.45448 17.2485C7.45163 17.2257 7.44877 17.2 7.44591 17.1771C7.44305 17.1514 7.4402 17.1257 7.43448 17.1C7.43163 17.0771 7.42877 17.0514 7.42591 17.0285C7.42305 17 7.41734 16.9743 7.41448 16.9485C7.41448 16.9228 7.40877 16.9 7.40591 16.8743C7.40591 16.8457 7.40305 16.82 7.4002 16.7914C7.4002 16.7628 7.39734 16.7343 7.39448 16.7057C7.39448 16.68 7.39163 16.6543 7.38877 16.6285C7.38877 16.6 7.38305 16.5714 7.38305 16.5428C7.38305 16.5171 7.37734 16.4885 7.37734 16.4628C7.37734 16.4314 7.37734 16.4028 7.37448 16.3714C7.37448 16.3428 7.37448 16.3114 7.37448 16.28C7.37163 16.18 7.36591 16.0771 7.36591 15.9771C7.36591 11.1685 11.2802 7.26568 16.1116 7.26568C20.9431 7.26568 24.8602 11.1657 24.8602 15.9771C24.8602 16.0171 24.8602 16.0571 24.8573 16.0971L24.8516 16.0857Z" fill="white"/>
<path d="M16.1057 18.163H16.1086C19.0772 18.163 21.8286 18.6601 24.1 19.5058C23.7772 20.223 23.36 20.8887 22.8657 21.4858C22.8657 21.4858 22.8686 21.4858 22.8714 21.4887C23.3772 20.8773 23.7972 20.1944 24.12 19.4601C23.3457 16.9201 20.0457 14.7744 16.1057 14.7744C12.1657 14.7744 8.87144 16.9201 8.0943 19.4573C8.10001 19.4716 8.10859 19.4887 8.1143 19.503C10.3914 18.6573 13.14 18.1601 16.1057 18.1601V18.163Z" fill="white"/>
<path d="M24.1002 19.5059C21.8287 18.6602 19.0773 18.1631 16.1087 18.1631H16.1059C13.1402 18.1631 10.3916 18.6602 8.11446 19.5059C8.11446 19.5059 8.11446 19.5059 8.1116 19.5059C8.12589 19.5374 8.14303 19.5659 8.15446 19.5945C8.21446 19.7259 8.27732 19.8545 8.34303 19.9802C8.36303 20.0174 8.38017 20.0545 8.40017 20.0917C8.48589 20.2459 8.57446 20.4002 8.66875 20.5488C8.69446 20.5917 8.72303 20.6345 8.7516 20.6745C8.8316 20.8002 8.91732 20.9231 9.00303 21.0431C9.02589 21.0745 9.04589 21.1059 9.06875 21.1345C9.16303 21.2631 9.26017 21.3888 9.36303 21.5088C9.36303 21.5088 9.36303 21.5088 9.36589 21.5117C9.36589 21.5117 9.36874 21.5174 9.3716 21.5174C9.3716 21.5174 9.3716 21.5174 9.37446 21.5202C9.37446 21.5202 9.37732 21.5259 9.38017 21.5259C9.38017 21.5259 9.38303 21.5288 9.38589 21.5317C9.38589 21.5317 9.38874 21.5345 9.3916 21.5374C9.3916 21.5374 9.3916 21.5374 9.39446 21.5402C9.39446 21.5402 9.39446 21.5431 9.39732 21.5459C9.39732 21.5459 9.39732 21.5488 9.40017 21.5517C9.40017 21.5517 9.40017 21.5545 9.40303 21.5574C9.40303 21.5574 9.40589 21.5602 9.40875 21.5631C9.40875 21.5631 9.40875 21.5659 9.4116 21.5688C9.4116 21.5688 9.4116 21.5688 9.41446 21.5717C9.41446 21.5717 9.41446 21.5745 9.42017 21.5774C9.42017 21.5774 9.42017 21.5774 9.42303 21.5802C9.42303 21.5802 9.42589 21.5831 9.42875 21.5859C9.42875 21.5859 9.42875 21.5859 9.4316 21.5888C9.4316 21.5888 9.4316 21.5888 9.43446 21.5917C9.43446 21.5917 9.43732 21.5945 9.44017 21.5974C9.44017 21.5974 9.44017 21.5974 9.44303 21.6002C9.44303 21.6002 9.44589 21.6031 9.44589 21.6059C9.44589 21.6059 9.44589 21.6059 9.44875 21.6088C9.44875 21.6088 9.4516 21.6117 9.45446 21.6145C9.45732 21.6202 9.46303 21.6231 9.46589 21.6288C9.46875 21.6317 9.4716 21.6374 9.47446 21.6402C9.48017 21.6459 9.48303 21.6517 9.48874 21.6574C9.4916 21.6631 9.49732 21.6659 9.50017 21.6717C9.50303 21.6745 9.50589 21.6802 9.50875 21.6831C9.5116 21.6888 9.51732 21.6917 9.52017 21.6974C9.52303 21.7031 9.52875 21.7059 9.5316 21.7117C9.53446 21.7145 9.53732 21.7202 9.54303 21.7231C9.54589 21.7288 9.5516 21.7317 9.55446 21.7374C9.55732 21.7431 9.56303 21.7459 9.56589 21.7517C9.56875 21.7545 9.57446 21.7602 9.57732 21.7631C9.58017 21.7688 9.58589 21.7717 9.58875 21.7774C9.5916 21.7802 9.59732 21.7859 9.60017 21.7888C9.60303 21.7917 9.60874 21.7974 9.6116 21.8002C9.61446 21.8059 9.62017 21.8088 9.62589 21.8145C9.6316 21.8202 9.63446 21.8231 9.64017 21.8288C9.64303 21.8317 9.64875 21.8374 9.6516 21.8402C9.65732 21.8459 9.66017 21.8488 9.66589 21.8545C9.6716 21.8602 9.67446 21.8631 9.68017 21.8688C9.68303 21.8717 9.68875 21.8774 9.6916 21.8802C9.69732 21.8859 9.70017 21.8888 9.70589 21.8945C9.7116 21.9002 9.71446 21.9031 9.72017 21.9088C9.72303 21.9117 9.72589 21.9145 9.7316 21.9202C9.73732 21.9259 9.74017 21.9288 9.74589 21.9345C9.7516 21.9402 9.75446 21.9431 9.76017 21.9488C9.76589 21.9545 9.76874 21.9574 9.77446 21.9631C9.78017 21.9688 9.78303 21.9717 9.78875 21.9774C9.78875 21.9774 9.7916 21.9802 9.79446 21.9831C9.79732 21.9859 9.80017 21.9888 9.80303 21.9917C9.80589 21.9945 9.8116 22.0002 9.81446 22.0059C9.82017 22.0117 9.82303 22.0145 9.82589 22.0202C9.8316 22.0259 9.83446 22.0288 9.84017 22.0345C9.84589 22.0402 9.8516 22.0459 9.86017 22.0517C9.9916 22.1859 10.1287 22.3145 10.2687 22.4402C10.2859 22.4574 10.3059 22.4717 10.3259 22.4888C10.4573 22.6031 10.5945 22.7174 10.7316 22.8231C10.7487 22.8374 10.7659 22.8488 10.783 22.8631C10.9402 22.9831 11.1002 23.0974 11.2659 23.2059C11.2687 23.2059 11.2745 23.2117 11.2773 23.2145C11.443 23.3231 11.6116 23.4259 11.783 23.5231C11.7916 23.5288 11.8002 23.5345 11.8116 23.5402C12.1716 23.7402 12.5459 23.9174 12.9345 24.0659C13.9145 24.4431 14.9802 24.6545 16.0945 24.6545C16.7573 24.6545 17.4059 24.5774 18.0259 24.4374C18.0373 24.4374 18.0487 24.4317 18.0602 24.4288C18.4602 24.3374 18.8487 24.2202 19.2259 24.0745C19.2487 24.0659 19.2716 24.0574 19.2973 24.0459C19.4745 23.9774 19.6487 23.9031 19.8202 23.8231C19.8259 23.8231 19.8316 23.8174 19.8373 23.8145C20.0145 23.7317 20.1887 23.6402 20.3602 23.5459C20.383 23.5317 20.4059 23.5202 20.4316 23.5059C20.5916 23.4145 20.7459 23.3202 20.9002 23.2202C20.9087 23.2145 20.9173 23.2088 20.9259 23.2031C21.0916 23.0945 21.2545 22.9774 21.4116 22.8574C21.423 22.8488 21.4345 22.8402 21.443 22.8317C21.7659 22.5831 22.0716 22.3117 22.3573 22.0202C22.363 22.0145 22.3659 22.0117 22.3716 22.0059C22.3773 22.0002 22.3802 21.9974 22.3859 21.9917C22.3887 21.9888 22.3945 21.9831 22.3973 21.9802C22.403 21.9745 22.4059 21.9717 22.4116 21.9659L22.4259 21.9517C22.4259 21.9517 22.4345 21.9431 22.4402 21.9374C22.443 21.9345 22.4487 21.9288 22.4516 21.9259C22.4573 21.9202 22.4602 21.9174 22.4659 21.9117C22.4716 21.9059 22.4745 21.9031 22.4802 21.8974C22.4859 21.8974 22.4916 21.9031 22.5002 21.9031C22.4945 21.9002 22.4887 21.8974 22.483 21.8945C22.483 21.8945 22.4887 21.8888 22.4916 21.8859C22.4973 21.8802 22.503 21.8745 22.5059 21.8688C22.5087 21.8659 22.5145 21.8602 22.5173 21.8574C22.5202 21.8545 22.5259 21.8488 22.5287 21.8459C22.5316 21.8402 22.5373 21.8374 22.5402 21.8317C22.5459 21.8259 22.5487 21.8231 22.5545 21.8174C22.5573 21.8145 22.563 21.8088 22.5659 21.8059C22.5687 21.8031 22.5745 21.7974 22.5773 21.7945C22.583 21.7888 22.5859 21.7831 22.5916 21.7774C22.5945 21.7745 22.5973 21.7688 22.603 21.7659C22.6059 21.7631 22.6116 21.7574 22.6145 21.7545C22.6173 21.7488 22.623 21.7459 22.6259 21.7402C22.6287 21.7345 22.6345 21.7317 22.6373 21.7259C22.6402 21.7202 22.6459 21.7174 22.6487 21.7117C22.6516 21.7059 22.6573 21.7031 22.6602 21.6974C22.663 21.6945 22.6659 21.6888 22.6687 21.6859C22.6716 21.6831 22.6773 21.6774 22.6802 21.6745C22.6859 21.6688 22.6887 21.6631 22.6945 21.6602C22.6973 21.6574 22.703 21.6517 22.7059 21.6488L22.7173 21.6374C22.7173 21.6374 22.7259 21.6288 22.7287 21.6231C22.7287 21.6231 22.7316 21.6202 22.7345 21.6174C22.7345 21.6174 22.7345 21.6174 22.7373 21.6145C22.7373 21.6145 22.7373 21.6117 22.7402 21.6088C22.7402 21.6088 22.7402 21.6088 22.743 21.6059C22.743 21.6059 22.743 21.6059 22.7459 21.6031C22.7459 21.6031 22.7459 21.6031 22.7487 21.6002C22.7487 21.6002 22.7487 21.5974 22.7516 21.5945C22.7516 21.5945 22.7545 21.5917 22.7573 21.5888C22.7573 21.5888 22.7573 21.5888 22.7602 21.5859C22.7602 21.5859 22.763 21.5831 22.7659 21.5802C22.7659 21.5802 22.7687 21.5774 22.7716 21.5745C22.7716 21.5745 22.7745 21.5717 22.7773 21.5688C22.7773 21.5688 22.7802 21.5631 22.783 21.5631C22.783 21.5631 22.783 21.5602 22.7859 21.5574C22.7859 21.5574 22.7887 21.5545 22.7916 21.5517C22.7916 21.5517 22.7916 21.5517 22.7945 21.5488C22.7945 21.5488 22.7973 21.5459 22.8002 21.5431C22.8002 21.5431 22.8002 21.5402 22.803 21.5374C22.803 21.5374 22.8059 21.5317 22.8087 21.5317C22.8087 21.5317 22.8116 21.5288 22.8145 21.5259C22.8145 21.5259 22.8173 21.5231 22.8202 21.5202C22.8202 21.5202 22.823 21.5174 22.8259 21.5145C22.8259 21.5145 22.8287 21.5117 22.8316 21.5088C22.8316 21.5088 22.8345 21.5059 22.8373 21.5031C22.8373 21.5031 22.8402 21.5002 22.843 21.4974C22.843 21.4974 22.8459 21.4945 22.8487 21.4917C22.8487 21.4917 22.8516 21.4859 22.8545 21.4859C22.8545 21.4859 22.8545 21.4859 22.8573 21.4831C22.8573 21.4831 22.8545 21.4831 22.8516 21.4802C23.3459 20.8802 23.763 20.2174 24.0859 19.5002L24.1002 19.5059Z" fill="#0367B3"/>
</g>
<defs>
<clipPath id="clip0_266_55269">
<rect width="32" height="32" fill="white"/>
</clipPath>
</defs>
</svg>
