<svg width="24" height="24" viewBox="0 0 24 24" fill="none" xmlns="http://www.w3.org/2000/svg">
<g clip-path="url(#clip0_266_55208)">
<path d="M0 12C0 12.7065 0 12.785 0.0168382 13.385C0.06174 14.714 0.202058 16.2392 0.735266 17.8486C1.11132 18.9869 1.81852 20.2149 2.52572 20.9887C3.42377 21.9757 4.66416 22.7831 6.00561 23.2428C7.37511 23.7139 8.85688 23.9438 11.7362 24H12.2694C15.1544 23.9382 16.6305 23.7139 18 23.2428C19.3414 22.7831 20.5763 21.9757 21.4742 20.9887C22.1816 20.2093 22.8887 18.9869 23.2648 17.8486C23.7979 16.2392 23.9439 14.7084 23.9831 13.385C24 12.7906 24 12.7065 24 12C24 11.2934 24 11.2149 23.9831 10.6149C23.9383 9.28595 23.7979 7.76074 23.2648 6.15138C22.8887 5.01307 22.1816 3.78504 21.4742 3.0112C20.5763 2.02429 19.3358 1.21682 18 0.757007C16.6305 0.28598 15.1487 0.0560747 12.2694 0H11.7362C8.85126 0.0616822 7.37511 0.28598 6.00561 0.757007C4.66416 1.21682 3.42936 2.02429 2.52572 3.0112C1.81852 3.79063 1.11132 5.01307 0.735266 6.15138C0.207671 7.76074 0.06174 9.28595 0.0168382 10.6149C0 11.2093 0 11.2934 0 12Z" fill="#002561"/>
<path d="M20.9983 16.201C21.0089 16.1544 20.9688 16.01 20.9582 15.9612H20.954V15.9421H20.9498L20.9477 15.923H20.9414V15.9061H20.935V15.8933H20.9287V15.8742H20.9224L20.916 15.8488H20.9097C20.9055 15.7893 20.8527 15.7384 20.8274 15.6853C20.7894 15.6132 20.7218 15.5538 20.6733 15.4922H20.6606L20.6353 15.4561H20.6226C20.6142 15.4455 20.4285 15.2333 20.4179 15.2354V15.2312C20.4074 15.2185 20.1013 14.9426 20.095 14.9256H20.0844C20.0148 14.8428 19.8755 14.724 19.8121 14.6412C19.8037 14.6412 19.7868 14.6306 19.7805 14.6242L19.7763 14.6094C19.7615 14.5988 19.7383 14.5924 19.7256 14.5775L19.7193 14.5648C19.7024 14.55 19.6707 14.5351 19.6517 14.5245V14.5181H19.6391V14.5096C19.6053 14.4778 19.5335 14.4099 19.5019 14.3759V14.3653L19.4829 14.3483V14.3441H19.4702L19.4217 14.2804H19.409L19.39 14.2528H19.3774L19.3647 14.2316H19.352L19.3394 14.2104H19.3267L19.3204 14.1955H19.3098C19.2993 14.1828 19.2022 14.0788 19.1916 14.0746V14.064L19.1768 14.0555V14.0449L19.1642 14.0364V14.0321L19.1515 14.0236V14.013H19.1452L19.1262 13.9791H19.1135C19.1051 13.9663 18.8666 13.7414 18.8645 13.7265L18.8412 13.7159L18.8349 13.7032L18.8096 13.6926C18.7357 13.6034 18.6281 13.4973 18.5542 13.4082H18.5436L18.5246 13.3785H18.5141L18.4951 13.3509H18.4824L18.4698 13.3297L18.4571 13.3254L18.3706 13.2257H18.3642L18.3579 13.2066L18.3452 13.1981V13.1854C18.322 13.1854 17.9695 12.7588 17.9484 12.7545L17.9421 12.7354L17.9315 12.7291V12.7163L17.9168 12.7079V12.6951L17.8978 12.6824V12.6697L17.8851 12.6612V12.6506L17.8534 12.623V12.6124C17.8534 12.6124 17.8176 12.5805 17.8176 12.5657H17.8049C17.7838 12.5211 17.7226 12.4829 17.6973 12.4426H17.6846L17.6593 12.4065H17.6466L17.6424 12.3916H17.6297L17.6149 12.3704H17.6044L17.5959 12.3556C17.5959 12.3556 17.5833 12.3534 17.5833 12.3513V12.3492V12.3386H17.577L17.5685 12.3301L17.5242 12.2643V12.2579L17.5179 12.2537L17.5094 12.241L17.5052 12.2261L17.4946 12.2197V12.2091H17.4883L17.482 12.19L17.4693 12.1815V12.1709L17.4524 12.1561L17.444 12.1455V12.1391L17.4334 12.1306L17.4039 12.086L17.3849 12.0754L17.3743 12.0648L17.3701 12.0457H17.3574V12.033H17.3448C17.3342 12.0181 17.2498 11.9439 17.2477 11.929H17.2371L17.2287 11.912H17.2181L17.2055 11.8908L17.1823 11.8802L17.1759 11.8696L17.1569 11.859V11.8547L17.1189 11.8377V11.8314H17.1084V11.8229L17.0725 11.8059V11.8017L17.0408 11.7889V11.7847H17.0282V11.7762H17.0092V11.7677L16.9965 11.7635V11.7571H16.9775V11.7486H16.9649V11.7401L16.9226 11.7253V11.7189H16.9036V11.7104L16.8783 11.7062V11.6998L16.8467 11.6956V11.6892L16.8171 11.6828V11.6765L16.7179 11.6531V11.6489L16.4499 11.6085V11.6128L16.4161 11.6085V11.6128L16.3865 11.6085V11.6128H16.3675V11.6149L16.3422 11.6085V11.6149L16.3169 11.6107V11.617L16.3042 11.6128V11.6192H16.2683V11.6234H16.2578V11.6255H16.2409V11.6276H16.2156V11.634H16.1966V11.6361L16.1607 11.6404V11.6467L16.1501 11.6425V11.651H16.1248L16.1185 11.6616H16.0932L16.0868 11.6743H16.072V11.6786H16.0552L16.0509 11.6913H16.0383L16.0277 11.704L16.0151 11.6998L16.0024 11.7147H15.9897L15.9707 11.7338H15.9581C15.9306 11.7338 15.308 12.12 15.2763 12.103V12.1094H15.2594L15.2531 12.12H15.2404V12.1242C15.2362 12.1242 15.175 12.1603 15.118 12.1964L14.2569 12.6039C14.2463 12.5848 14.2231 12.5402 14.2231 12.5232L14.2104 12.5147L14.2041 12.4893H14.1978L14.1914 12.4702L14.1788 12.4617V12.4511L14.1661 12.4426V12.432L14.1471 12.4171V12.4065L14.1302 12.3916V12.3789L14.1028 12.3577V12.3471H14.0965C14.0965 12.3471 13.9867 12.1879 13.9783 12.1773H13.9719L13.9593 12.1391H13.9529V12.1285H13.9466V12.1158H13.9403V12.103H13.9339V12.0903L13.9192 12.0754V12.0627C13.9065 12.0627 13.8706 11.9927 13.8643 11.9842V11.9736L13.8516 11.9651V11.9545L13.8326 11.9396V11.9269C13.8094 11.9205 13.7482 11.7932 13.7355 11.7741H13.7292V11.755H13.7229L13.7144 11.7253H13.7081V11.7125H13.7018V11.6956H13.6954L13.6891 11.6701H13.6828V11.6574H13.6764V11.6383L13.6638 11.6319V11.6192H13.6574V11.6085H13.6511V11.5958L13.6384 11.581V11.5703L13.6258 11.5597L13.6173 11.5343H13.611L13.6047 11.5152L13.592 11.5067V11.4961L13.5751 11.4812V11.4706L13.5603 11.4621V11.4515L13.5414 11.4366L13.535 11.4175H13.5287C13.5118 11.3921 13.4759 11.339 13.4611 11.3136H13.4548V11.2945H13.4485V11.2754H13.4421V11.2584H13.4358V11.2435H13.4295V11.2265H13.4232V11.2138H13.4168V11.1947H13.4105L13.3999 11.1565H13.3936V11.1438H13.3852V11.131H13.3788V11.1183H13.3725L13.3577 11.0801L13.3472 11.0737L13.3408 11.0483L13.3282 11.0398V11.0292H13.3218L13.3134 11.0101L13.3007 11.0037V10.9931L13.2838 10.9782V10.9676L13.2649 10.9528V10.9422L13.2332 10.9146V10.904L13.1277 10.7533H13.1213L13.115 10.7236H13.1087L13.1023 10.6981H13.096V10.6811H13.0897L13.0812 10.6557H13.0749L13.0686 10.6323L13.0559 10.6238L13.0432 10.5878L13.0306 10.5793L13.0242 10.5538L13.0116 10.5474V10.5347L12.9947 10.5198V10.5071L12.982 10.4986V10.488L12.963 10.4732V10.4625L12.9377 10.4413V10.4307L12.9081 10.4031V10.3925L12.8005 10.2418H12.7942L12.7878 10.2164H12.7815V10.1994H12.7752L12.7625 10.1612H12.7583L12.752 10.1357L12.7393 10.1294V10.1166H12.733V10.1039L12.7182 10.0912V10.0784H12.7119L12.7055 10.0593L12.6929 10.0508V10.0402L12.6802 10.0339V10.0211L12.6612 10.0063V9.99566L12.6422 9.9808V9.97019L12.6169 9.94897C12.6274 9.93411 12.505 9.7516 12.505 9.74099H12.4987L12.486 9.70279H12.4797V9.69218H12.4734V9.67945H12.467V9.66671H12.4607V9.65398H12.4544V9.64125H12.448V9.62851H12.4417V9.61578H12.4354L12.4311 9.62851C12.4332 9.62427 12.4375 9.61153 12.4354 9.60729V9.60092H12.429C12.429 9.60092 12.429 9.5988 12.429 9.59668C12.429 9.59668 12.429 9.59668 12.4311 9.59668C12.4311 9.59243 12.4987 9.44388 12.5029 9.43539L12.5156 9.4269V9.41629L12.5282 9.41205V9.39507H12.5325V9.38446H12.5388L12.5451 9.36536H12.5514V9.3505H12.5578L12.5641 9.32928H12.5704L12.6359 9.1213H12.6401V9.10008H12.6464V9.07249H12.6528V9.04066H12.6591V9.0067H12.6654L12.6633 8.95789H12.6718V8.88998H12.6739C12.6739 8.873 12.7309 8.59287 12.7266 8.57801H12.733V8.56103H12.7393C12.7583 8.44856 12.7583 8.04109 12.7393 7.92649H12.733V7.90314H12.7266V7.88404H12.7182V7.86494H12.714L12.695 7.78642H12.6886V7.77369H12.6823L12.676 7.73761H12.6696L12.6612 7.71214H12.657L12.5937 7.5169H12.5873L12.581 7.47445H12.5747V7.45748H12.5704V7.43838H12.562V7.42564H12.5557V7.40654H12.5493V7.39381H12.543V7.37683H12.5367L12.5219 7.33863H12.5177V7.3259H12.5113V7.31104H12.505V7.30043H12.4987V7.28558H12.4923V7.27497L12.4776 7.26011V7.2495H12.4734L12.4649 7.2304L12.4544 7.22191V7.20918H12.448L12.4417 7.18795L12.4311 7.18159V7.17098L12.41 7.15612V7.14551C12.3995 7.13914 12.3045 7.02879 12.2939 7.01605V7.00544L12.2813 6.99695V6.99271H12.2686L12.2454 6.95663H12.2327L12.2137 6.92904H12.2011L12.1947 6.91419H12.1821L12.1757 6.89933H12.1652L12.1589 6.88448H12.1462L12.1399 6.86962H12.1272L12.1209 6.85476L12.0955 6.84415L12.0892 6.83142L12.0639 6.82081V6.81656L12.0259 6.79959V6.79322H12.0069V6.78473L11.9816 6.77412V6.76775H11.9626V6.75926H11.9499V6.75078H11.9309V6.74229L11.9119 6.73804V6.73168H11.895V6.72319L11.876 6.71894V6.71258L11.3927 6.6001V6.60434L11.361 6.6001V6.60434L11.3357 6.6001V6.60434L11.3104 6.6001V6.60646H11.2914V6.60859L11.2724 6.60434V6.61071H11.2555V6.61283H11.2196V6.61708H11.207V6.62132L11.1901 6.61708V6.62132H11.1647V6.62769H11.1457V6.62981L11.1099 6.63405V6.64042H11.0972V6.64466H11.0719L11.0655 6.65528H11.0402L11.0339 6.66801C11.0297 6.66164 10.9241 6.68286 10.9178 6.68499V6.69135H10.9072V6.69348H10.8882V6.6956H10.8756V6.69772H10.8566V6.69984H10.8313V6.70621H10.8123H10.7869V6.7147L10.77 6.71045L10.7637 6.72106H10.751V6.72319H10.7384V6.72743H10.7257L10.7152 6.73592H10.7025L10.6983 6.74441L10.6624 6.74865V6.75502H10.6434L10.6371 6.76988H10.6244L10.6181 6.77836L10.6054 6.77412V6.78049H10.5885L10.5801 6.79322H10.5674L10.5548 6.80595H10.5442L10.5189 6.82718H10.5062L10.4893 6.84415H10.4767L10.4281 6.88448H10.4154L10.4049 6.89721H10.3901V6.91206L10.3352 6.94814V6.95875L10.3099 6.97149V6.98422L10.2867 6.99483V7.00544L10.2677 7.01181V7.02454L10.255 7.02879V7.0394L10.2382 7.04789L10.2318 7.06911L10.2213 7.07335L10.2149 7.08821H10.2086L10.2023 7.10943L10.1896 7.11368V7.12429H10.1854V7.1349L10.1727 7.14551V7.15612L10.1601 7.16036V7.17098H10.1537V7.17946L9.9912 7.40018V7.41079L9.96588 7.42352V7.43625H9.95321V7.44474H9.94055V7.4596L9.92155 7.46597L9.91522 7.48294H9.90256V7.4978L9.88989 7.50204V7.51265L9.87301 7.51902L9.86667 7.54024L9.85612 7.54449L9.84979 7.56571H9.83713L9.83079 7.59118H9.82024V7.60603L9.80758 7.61452V7.62513H9.80124V7.63574H9.79491V7.64635H9.78858V7.65697H9.78225L9.7717 7.6888H9.76536L9.75903 7.71427H9.7527L9.74637 7.73549H9.74003V7.75034H9.7337V7.76095H9.72737L9.71471 7.80764H9.70837V7.81825H9.70204V7.83948H9.69571V7.85645H9.69149V7.87343H9.68516V7.89041H9.67883L9.60073 7.99864V8.00925L9.58385 8.01987V8.03048L9.56485 8.03897V8.04958L9.55219 8.05382V8.06443H9.53952V8.07929L9.52475 8.08353V8.09414L9.51419 8.09839V8.11112H9.50153L9.4952 8.13447H9.48253V8.14932H9.4762V8.15781H9.46987V8.16842L9.45721 8.17691V8.18752L9.44454 8.19177V8.20238H9.44032V8.21299H9.43399V8.22784H9.42132V8.24694H9.41499V8.25755H9.40866L9.40233 8.27665H9.39811V8.29363H9.39177V8.30424H9.38544V8.3191H9.37911V8.32971H9.37278V8.34669H9.36645V8.35518H9.358V8.37852H9.35378V8.39338H9.34745V8.41035L9.25669 8.54193V8.55254L9.22714 8.56952V8.58226L9.21026 8.59074V8.60136H9.19548L9.19126 8.62046H9.18493V8.63107L9.17227 8.63531V8.64592H9.1596V8.66078H9.14694V8.67563H9.13427V8.69049L9.12372 8.69473L9.11739 8.71383L9.10683 8.71808V8.73506L9.09417 8.7393L9.08362 8.77113H9.07517V8.78174H9.06884V8.79236H9.06251L9.04985 8.82419H9.04351V8.83904H9.03718V8.84966H9.02874L9.02452 8.86876H9.01819V8.88361H9.01185V8.89422H9.00552L8.99919 8.92606H8.99286V8.93454H8.98653V8.95152H8.98019V8.9685H8.96542V8.98336H8.9612V9.00458H8.95275L8.95487 9.02156H8.94853V9.03641H8.9422V9.06188C8.93587 9.07249 8.88099 9.1404 8.88099 9.15313L8.85566 9.16587V9.17648L8.83878 9.18497L8.843 9.20194H8.82823V9.2168L8.81767 9.22104V9.23166L8.80501 9.2359V9.24651L8.79234 9.25076V9.26137H8.77968L8.77335 9.28471L8.76279 9.28896L8.75646 9.31018L8.7438 9.31442V9.32503L8.73113 9.33352V9.34626H8.7248L8.72691 9.35687H8.71847V9.36748H8.71003L8.71214 9.37809H8.7037V9.38658H8.69736V9.39931H8.69103V9.4078H8.6847L8.67204 9.43751H8.66781V9.45449H8.65937L8.65304 9.47571H8.64671V9.49057H8.64038V9.50118H8.63404L8.62349 9.54999H8.61716V9.55848H8.60872L8.53695 9.66883V9.67945L8.50107 9.70067V9.71128L8.47152 9.72826V9.73887L8.44619 9.74948V9.76009H8.43353L8.4272 9.77919H8.42298V9.7898L8.40398 9.79829V9.8089L8.39132 9.81315L8.38498 9.83437L8.36599 9.84073V9.85347H8.35544L8.34277 9.88955H8.33222V9.9044L8.31955 9.91289V9.9235H8.31322V9.93199H8.30689V9.9426H8.30056V9.95321H8.29423V9.96382H8.28789V9.97443H8.28156V9.98505H8.27523L8.26257 10.0169H8.25623V10.0317H8.2499L8.24357 10.053H8.23724V10.0699H8.23091V10.0784H8.22457L8.22035 10.1103H8.21191V10.1209H8.20558L8.19925 10.1569H8.19291V10.1654H8.18869L8.09793 10.2673V10.2779L8.06838 10.2949V10.3055L8.03672 10.3225L8.0325 10.3437L8.01351 10.3522V10.3628L7.99451 10.3692L7.98818 10.3861L7.97552 10.3904V10.401H7.96918V10.4116H7.95652L7.9523 10.4371L7.93541 10.4456L7.92908 10.4668H7.91642V10.4795L7.90375 10.4901V10.5007H7.89742V10.5114H7.8932V10.522H7.88687V10.5326H7.88054V10.5432H7.8742V10.5517H7.86787V10.5623H7.86154V10.5729H7.85521L7.85099 10.5941H7.84254V10.6026L7.68213 10.7788H7.67158L7.65258 10.7957H7.64836V10.8063C7.63781 10.8063 7.62303 10.8212 7.6167 10.8276H7.61037V10.8382H7.60404L7.59348 10.8573H7.58082V10.8658C7.57238 10.8764 7.54705 10.9061 7.53016 10.9082V10.9209L7.51117 10.9273L7.50695 10.9507L7.48795 10.9591V10.9698H7.48162V10.9804L7.47107 10.9846L7.46262 11.0058H7.45207L7.44574 11.0313H7.43518V11.0462L7.42252 11.0546V11.0674H7.41619V11.078H7.40986V11.0865H7.40141V11.095H7.39719V11.1056H7.39086V11.1162H7.38453V11.1247H7.3782L7.36764 11.1565H7.3592V11.1735H7.35287V11.182H7.34654V11.199H7.3402L7.32543 11.2159H7.3191L7.16713 11.4027V11.4133L7.15658 11.4175V11.4239H7.14602V11.4388L7.11436 11.4557V11.4685L7.09748 11.477V11.4876L7.07848 11.4939V11.5046L7.06582 11.5088V11.5215L7.05526 11.5258V11.5364H7.04471V11.5512H7.03205V11.5661H7.02571L7.02782 11.5767H7.01305L7.00883 11.6022H6.99405L6.98983 11.6276H6.97717V11.6425L6.96662 11.651V11.6637H6.95817V11.6722H6.95184V11.6828H6.94551V11.6934H6.93918V11.704H6.93284L6.92018 11.7338H6.91385V11.7507H6.90752V11.7613H6.90118L6.89485 11.7804H6.88852L6.87586 11.8059L6.74922 11.9439H6.73866L6.726 11.9502V11.963L6.70278 11.9757V11.9863L6.67323 12.0012V12.0139L6.64157 12.0309V12.0415L6.62469 12.05V12.0606L6.6078 12.0691V12.0797H6.59514V12.0945H6.58247V12.1094L6.56981 12.1136V12.1264H6.55715L6.55081 12.1518H6.53815L6.53182 12.1773H6.51915C6.51282 12.1922 6.25743 12.5529 6.24899 12.5657V12.5763L6.21733 12.5933V12.6039L6.18778 12.6208V12.6315H6.17511V12.6463L6.15612 12.6527V12.6633L6.13923 12.6718L6.1329 12.693L6.1139 12.7015L6.10757 12.7227H6.09491L6.08858 12.7418H6.08436L6.0738 12.7736L6.06114 12.7779L6.04847 12.8097H6.03581C6.02948 12.8267 5.79308 13.0495 5.7973 13.0686L5.73821 13.109V13.1196L5.70866 13.1365V13.1472L5.677 13.1641L5.67066 13.179H5.66011L5.65589 13.2045L5.62845 13.2172V13.2278H5.6179V13.2427H5.60523L5.5989 13.2618H5.59257L5.58835 13.283C5.5588 13.3275 5.49126 13.3615 5.45749 13.3976H5.44482L5.43849 13.4061H5.42583L5.4005 13.4273H5.38783L5.37728 13.457H5.36462L5.32663 13.4867H5.31396C5.29285 13.5079 5.23587 13.5758 5.20632 13.5843V13.5949H5.19365V13.6034L5.17044 13.6162V13.6268H5.16621L5.13455 13.6416H5.12189V13.6501C5.10078 13.6692 5.07123 13.718 5.0438 13.7265L5.03113 13.7414V13.752H5.01847V13.7668H5.0058V13.7796L4.99314 13.7902V13.8008H4.98048V13.8157H4.97414V13.8263C4.9657 13.8305 4.95515 13.8411 4.95093 13.8496V13.8602C4.91716 13.8836 4.75674 13.9982 4.73142 14.0236H4.71242L4.6892 14.0427V14.0533H4.68287L4.64066 14.0958H4.63433C4.58789 14.1595 4.45492 14.2571 4.38738 14.2995H4.37471L4.36838 14.308L4.35572 14.3038L4.34939 14.3144H4.33672V14.3165H4.31984L4.31561 14.3292H4.30295L4.29029 14.3441L4.27762 14.3399L4.26496 14.3547H4.25229L4.24596 14.3632L4.19742 14.3823V14.3929L4.13621 14.4226V14.4332L4.12565 14.4417H4.11299C4.11299 14.4417 4.07289 14.4714 4.06444 14.4757V14.4884L4.02645 14.5033V14.516L4.00324 14.5287V14.5393L3.97369 14.5563V14.5669L3.94414 14.5839V14.5945L3.92725 14.603V14.6157L3.90826 14.6221L3.90192 14.6455L3.88293 14.6539V14.6646H3.87026V14.6794H3.8576L3.85127 14.6964H3.84705L3.83227 14.7282H3.82172V14.741H3.81539V14.7516H3.80905V14.7622L3.79639 14.7707V14.7813L3.78584 14.7855L3.7795 14.811L3.76684 14.8152L3.76051 14.8428H3.75629V14.8534H3.74996L3.73729 14.8831H3.72885L3.72463 14.915H3.7183L3.71196 14.9341H3.70563L3.69508 14.9829H3.68664V14.9935H3.6803V15.0168H3.67397V15.0317H3.66764V15.0487H3.66131L3.65498 15.0848H3.64864V15.106H3.64231V15.1336H3.63809L3.63387 15.1845H3.62754V15.2163H3.6212V15.2503H3.61487L3.60643 15.4561H3.6001L3.61487 15.6726H3.6212L3.62754 15.7554H3.63387V15.7915H3.64231V15.8148H3.64653V15.8381H3.65286L3.66131 15.8912H3.66553L3.67397 15.9336H3.6803V15.9506H3.68664V15.9697H3.69508V15.9931H3.6993V16.0037H3.70563V16.0291H3.71196V16.0419H3.7183L3.72674 16.078H3.73307L3.7394 16.1034H3.74573V16.1204H3.75207L3.7584 16.1437H3.76473V16.1628L3.77739 16.1713V16.1883H3.78373V16.201H3.78795V16.2138H3.79428V16.2265H3.80061V16.2392H3.80694L3.81328 16.2647L3.82594 16.2732L3.8386 16.3093L3.85127 16.3156L3.86393 16.3517L3.87448 16.3602V16.3708L3.88715 16.3814V16.392L3.89981 16.4005V16.4111H3.90614L3.91248 16.4302L3.92514 16.4387V16.4493L3.94203 16.4642V16.4748L3.95469 16.4833V16.4939L3.98213 16.5173V16.5279L4.00535 16.5491V16.5597L4.04967 16.6021V16.6128C4.08133 16.6425 4.15098 16.721 4.17842 16.7571H4.19109L4.22275 16.7995H4.23541L4.26074 16.8356H4.2734L4.28607 16.8568H4.29873L4.30506 16.8717H4.31773L4.33039 16.8929H4.34305L4.34939 16.9077L4.36627 16.9162V16.9226L4.37893 16.9247L4.38738 16.9375H4.40004L4.41271 16.9587L4.43803 16.9672L4.44437 16.9799L4.48236 16.999L4.48869 17.0117H4.50135L4.51402 17.0266H4.52668V17.0351H4.53935V17.0436H4.5499V17.0521H4.56467L4.57101 17.0669L4.59 17.0712V17.0754H4.60056V17.0839L4.62588 17.0945V17.0987H4.64488V17.1072H4.65754V17.1157L4.68076 17.1263V17.1306L4.69976 17.1348V17.1391H4.71242V17.1476L4.75041 17.1603V17.1667H4.76941V17.1751H4.77996V17.1836L4.86017 17.2155V17.2218C4.94248 17.2537 5.15144 17.3322 5.23587 17.3428V17.3492L5.60312 17.4001V17.3937C5.65167 17.4065 5.74243 17.3852 5.79097 17.3937V17.3895H5.80997V17.3852L5.82896 17.3895V17.3831H5.84796L5.87118 17.3874V17.381H5.88384V17.3789H5.93872V17.3704H5.95138V17.3661H5.98726V17.3619L6.02315 17.3577V17.3534H6.03581V17.347L6.05481 17.3534V17.347L6.09069 17.3407V17.3364H6.10335V17.3322H6.12868L6.13501 17.3216H6.14768V17.3173L6.16034 17.3216L6.173 17.311H6.18567L6.192 17.3025H6.21522L6.22155 17.2919H6.24688L6.2511 17.2813H6.26376L6.27432 17.2685H6.29964L6.3102 17.2537H6.32286L6.33553 17.2409L6.3503 17.2452L6.35452 17.2346H6.36719C6.36719 17.2346 6.38407 17.2218 6.39251 17.2176V17.2133H6.40307L6.42417 17.1964H6.43473C6.44739 17.1964 6.80198 16.9502 6.81887 16.9523L6.82942 16.9566V16.9502H6.84209L6.84842 16.9417H6.86108V16.9396H6.8843V16.9268L6.92651 16.9162C6.92651 16.9162 6.93496 16.895 6.94129 16.8865L6.96028 16.878H6.97295C6.9835 16.8611 7.01938 16.8504 7.04049 16.8462V16.8356C7.04049 16.8356 7.10803 16.808 7.11225 16.7931H7.12703L7.13758 16.7868V16.7762C7.15869 16.7613 7.26211 16.6807 7.28322 16.6722V16.6594L7.3001 16.651L7.30643 16.634H7.31699V16.6255C7.32543 16.6149 7.35076 16.5852 7.36553 16.583V16.5724L7.3782 16.5682V16.5576C7.3782 16.5576 7.40352 16.5533 7.41197 16.5512V16.5406L7.42252 16.5257L7.43518 16.5215V16.5109L7.44574 16.5066L7.45207 16.4854L7.46473 16.4812V16.4706C7.51539 16.4133 7.63992 16.2626 7.72012 16.2456L7.72646 16.2308H7.73701L7.74334 16.2159L7.78556 16.1883V16.1777L7.82777 16.1522V16.1416L7.8531 16.1289V16.1183L7.86576 16.114V16.1077H7.87631V16.0949H7.88898V16.0801L7.90797 16.0737V16.0631L7.92064 16.0589V16.0482L7.93119 16.044V16.0334H7.94386V16.0185H7.95652V16.0037H7.96707L7.9734 15.9803C7.98818 15.9846 8.09582 15.8615 8.10638 15.8572L8.11271 15.8466H8.11904L8.12537 15.8381H8.13593V15.836L8.16125 15.8275V15.8169H8.17181V15.8127L8.19714 15.7999H8.20347V15.7893C8.2098 15.7851 8.25623 15.7639 8.25835 15.7554H8.27101L8.39343 15.6429H8.40609V15.6344H8.41242L8.41665 15.6196L8.44197 15.6068V15.5962L8.46097 15.5877V15.5771L8.47785 15.5707L8.48419 15.5495L8.50318 15.541L8.5074 15.5198L8.52429 15.5113L8.53062 15.4901L8.54117 15.4859L8.54751 15.4646H8.56017V15.4498L8.57283 15.4392V15.4286H8.57917V15.4179H8.5855C8.5855 15.4179 8.77968 15.2397 8.78601 15.2312H8.79868C8.79868 15.2312 8.83034 15.1994 8.84089 15.2015V15.1909L8.90632 15.1463V15.1336H8.91898V15.1251L8.93165 15.1208V15.1102H8.93798L8.95064 15.0911H8.9612V15.0826C8.96964 15.072 8.99497 15.0423 9.01185 15.0402L9.01608 15.019L9.03507 15.0105L9.0414 14.9871L9.05407 14.9829V14.9723L9.06673 14.968V14.9574L9.07728 14.9532L9.08362 14.932H9.09417V14.9171L9.10683 14.9065V14.8959H9.11317V14.8874H9.1195V14.8768L9.13216 14.8683V14.8577L9.14483 14.8534V14.8365H9.15116V14.8258H9.15749L9.1786 14.7983H9.18493V14.7813H9.19126V14.7707H9.19759V14.7558H9.20393L9.20815 14.7346H9.21448C9.2187 14.7006 9.3179 14.5882 9.33901 14.5606H9.35167V14.5521L9.37489 14.5393V14.5287L9.40655 14.5118V14.5011L9.43188 14.4884V14.4757L9.44454 14.4714V14.4587L9.46143 14.4502V14.4396L9.47409 14.4353V14.4247L9.48675 14.4205V14.4099H9.49731V14.395L9.51208 14.3908V14.3802L9.52475 14.3759L9.53108 14.3547L9.54163 14.3505V14.3399H9.54796V14.3271H9.5543V14.3186L9.56485 14.3101V14.2974H9.57751L9.59018 14.2656H9.59651V14.255H9.60284L9.61339 14.2231H9.61973V14.2083H9.62606V14.1977H9.63239L9.63872 14.1786H9.64505L9.65139 14.1531H9.65772L9.66405 14.1213H9.66827L9.6746 14.1022H9.68094V14.0809H9.68727C9.68727 14.0809 9.78858 13.9578 9.79491 13.9494V13.9366L9.82657 13.9197V13.909L9.85612 13.8921V13.8793L9.87512 13.873L9.88145 13.8517L9.89411 13.8475L9.90045 13.8305L9.91733 13.822L9.92366 13.8008L9.94055 13.7923L9.94688 13.769H9.95954L9.96588 13.7456L9.97854 13.7414V13.7308L9.9912 13.7223V13.7117H9.99754V13.7011H10.0039V13.6904H10.0102V13.682L10.0208 13.6777V13.6629L10.0334 13.6586V13.6416H10.0397V13.631H10.0461V13.6204H10.0524L10.0651 13.5907H10.0714V13.5737H10.0756V13.5652H10.082L10.0883 13.5376H10.0946L10.1157 13.4931H10.1221V13.4825H10.1284V13.4612H10.1347L10.2255 13.3488V13.3382L10.255 13.3212V13.3106L10.2804 13.2978V13.2872H10.293V13.2724L10.3099 13.2639V13.2533L10.3289 13.2448L10.3352 13.2236L10.3542 13.2172V13.2066L10.3648 13.2023V13.1896H10.3711V13.179L10.3817 13.1747L10.388 13.1514H10.4007L10.407 13.1323H10.4133V13.1174L10.426 13.1132V13.1005L10.4387 13.092V13.0814H10.445V13.0708H10.4513V13.0601H10.4577V13.0517H10.464L10.4767 13.0198H10.4809V13.005H10.4893V12.9944H10.4935L10.4999 12.9731H10.5062C10.5168 12.9625 10.6371 12.7906 10.6582 12.7991V12.7864L10.7004 12.7609V12.7503L10.7236 12.7121V12.6994H10.7384L10.7278 12.6909L10.7405 12.6866V12.676H10.7532V12.6612L10.77 12.6527V12.6421H10.7827L10.789 12.623H10.7954V12.6124H10.8059V12.5975L10.8186 12.5933V12.5848L10.8313 12.5784L10.8418 12.5487L10.8545 12.5444L10.8671 12.5126H10.8798L10.8904 12.4787H10.8988V12.468H10.8946C10.8946 12.468 10.9093 12.4617 10.9136 12.4638V12.4447H10.9199V12.4341H10.9241L10.9326 12.415H10.9368L10.9537 12.3853H10.96V12.3747H10.9663V12.3598H10.9727V12.3492H10.979V12.3343H10.9853V12.3174H10.9917L11.0022 12.3025H11.0064V12.2877H11.0128V12.2643H11.0191V12.2495H11.0254C11.0444 12.2155 11.1035 12.137 11.1331 12.1115V12.1009L11.1521 12.0924V12.0797H11.1584L11.1647 12.0648H11.1774V12.05L11.1964 12.0415L11.2027 12.0203L11.2196 12.0118V12.0012L11.2323 11.9969L11.2449 11.9651L11.2576 11.9608V11.9502L11.2682 11.9396V11.929H11.2745V11.9184H11.2872V11.8972H11.2935V11.8866L11.3062 11.8823V11.8653H11.3104V11.8547H11.3167L11.3294 11.825H11.3357V11.808H11.342L11.3463 11.7889H11.3526V11.7741H11.3589V11.7656H11.3653V11.7486H11.3716V11.7338H11.3779V11.7231H11.3842L11.3885 11.6913H11.3906L11.3948 11.6934H11.3969V11.6977H11.3927V11.6998L11.4243 11.7465V11.7571L11.437 11.7656V11.7783L11.4497 11.7868V11.7974L11.4602 11.8059V11.8165H11.4666L11.4729 11.8356L11.4856 11.8441V11.8568L11.5109 11.8781V11.8887L11.5362 11.9099V11.9226C11.5995 11.9608 11.6755 12.1688 11.7283 12.2176L11.7431 12.2558H11.7473L11.7557 12.2749L11.7684 12.2813V12.294L11.7811 12.3004V12.311L11.8 12.3259V12.3365L11.819 12.3513V12.3641L11.8507 12.3916V12.4023L11.9668 12.5657H11.9731L11.9816 12.5911H11.9858V12.6102H11.9921L12.0153 12.6506H12.0217L12.028 12.676L12.0407 12.6845L12.047 12.7079H12.0533V12.7206L12.066 12.7291V12.7397L12.0787 12.7482V12.7588L12.0913 12.7694V12.7779L12.1061 12.7864V12.797L12.1188 12.8055V12.8161L12.1335 12.8373V12.8479L12.1947 12.9116V12.9222L12.2201 12.9434V12.9519C12.2475 12.9816 12.2982 13.0495 12.3214 13.0835H12.3256L12.3362 13.0962H12.3425V13.109H12.3488L12.3552 13.1344H12.3615L12.3678 13.1578L12.3805 13.1663L12.3868 13.1896L12.3995 13.196V13.2087L12.4121 13.2172V13.2278L12.4332 13.2448V13.2533L12.4501 13.2702V13.2809C12.4501 13.2809 12.4818 13.3063 12.4818 13.3212C12.4966 13.3275 12.5578 13.4082 12.5704 13.4252H12.5662H12.5683C12.562 13.4252 12.4734 13.4528 12.467 13.4464V13.4506H12.4544V13.4549H12.4438L12.4311 13.4612H12.4185L12.4121 13.4697H12.4016L12.3931 13.4782H12.3826L12.3763 13.4867H12.3509L12.3446 13.4973L12.3319 13.4931L12.3193 13.5079H12.3066L12.2961 13.5207L12.2834 13.5164L12.2728 13.5313H12.2623L12.256 13.5376H12.1842V13.5419L12.1652 13.5376V13.544L12.1462 13.5398V13.5461H12.066V13.5525H12.0533V13.5567L12.0343 13.5525V13.5589H12.0111V13.5652H11.9921H11.9668V13.5737L11.9499 13.5695L11.9457 13.5801H11.933V13.5843H11.9225V13.5865H11.9077L11.895 13.5949H11.8845L11.8781 13.6034H11.8528V13.6119H11.8338L11.8275 13.6247H11.8043L11.7979 13.6353H11.7853L11.7747 13.648H11.7621L11.7494 13.6607H11.7367L11.7156 13.682H11.703L11.684 13.6989H11.6734L11.6607 13.7053V13.7159L11.6312 13.7265L11.6206 13.7414L11.608 13.7456V13.7562C11.608 13.7562 11.5826 13.7605 11.5763 13.7668V13.7796L11.5531 13.7923V13.8029L11.5236 13.8199V13.8305L11.5046 13.839V13.8517L11.4877 13.8581V13.8708L11.4771 13.8751L11.4708 13.8942L11.4602 13.8984V13.9112H11.4476L11.4412 13.9366L11.4286 13.9409V13.9515H11.4243V13.9621H11.418V13.9727L11.4075 13.9812V13.9918L11.3969 13.996V14.013H11.3906L11.3842 14.0342H11.3758V14.0491H11.3716L11.3653 14.0703H11.3589V14.0873H11.3547V14.0958H11.3463L11.3294 14.1658H11.323V14.1807H11.3167V14.1955H11.3104C11.3104 14.2359 11.2914 14.7197 11.304 14.7431H11.3104V14.7685H11.3167L11.323 14.811H11.3294V14.8301H11.3357V14.8471H11.342L11.3547 14.9065H11.361L11.3674 14.9298H11.3737V14.9489H11.38V14.9617H11.3864L11.3927 14.9935H11.399L11.4117 15.0317H11.418V15.0444H11.4243V15.0572H11.4307V15.0678L11.4433 15.0826V15.0932L11.4539 15.1017L11.4623 15.1272H11.4687L11.475 15.1463L11.4877 15.1548V15.1654H11.4961L11.5024 15.1845L11.5151 15.1909V15.2036L11.532 15.2185V15.2291L11.551 15.2439V15.2545L11.5637 15.263V15.2694L11.5763 15.2779V15.2885L11.608 15.3288H11.6185L11.6629 15.3904H11.6755C11.6861 15.4031 11.7325 15.4689 11.7494 15.4689L11.7621 15.488H11.7747L11.7874 15.5092H11.8L11.8127 15.5304H11.8254L11.8317 15.5453H11.8444L11.8507 15.5601L11.8697 15.5686V15.575L11.895 15.5835L11.9014 15.5962L11.9394 15.6153L11.9457 15.628L11.971 15.6387V15.6429H11.9816V15.6514L12.0196 15.6684V15.6747H12.0386V15.6832L12.0639 15.6938V15.6981L12.0808 15.7023V15.7087H12.0934V15.7172L12.1103 15.7214V15.7278H12.123V15.7363L12.1652 15.749V15.7554L12.1842 15.7596V15.766L12.2517 15.7893V15.7957L12.2834 15.8021V15.8084L12.3087 15.8127V15.819L12.3446 15.8254V15.8297L12.3953 15.8403V15.8466L12.467 15.8615V15.8657L12.695 15.9018V15.8976L12.7435 15.9061V15.8997L12.7731 15.9061V15.8997L12.8026 15.9061V15.8997L12.8258 15.9039V15.8997L12.8512 15.9039V15.8976L12.8765 15.9018V15.8976C12.8807 15.9103 13.0876 15.8679 13.1002 15.8657L13.1087 15.8551H13.1277L13.134 15.8488L13.1699 15.8445L13.1762 15.8339H13.1994L13.2058 15.8212H13.229L13.2416 15.8063H13.2543L13.2585 15.7978H13.2712L13.2838 15.7851H13.2965L13.3092 15.7724H13.3218L13.3451 15.7533C13.3493 15.7617 13.4675 15.7087 13.4738 15.7087V15.7023L13.4928 15.7066V15.7023L13.5097 15.7066V15.7002H13.5224V15.696L13.5435 15.7002V15.696H13.5561V15.6896L13.573 15.696V15.6896L13.6089 15.6853V15.679H13.6216V15.6747H13.6342V15.6705H13.6448V15.6662L13.6828 15.662L13.687 15.6514H13.7123V15.645H13.7292L13.7355 15.6323H13.7609L13.7672 15.6217H13.7799L13.7925 15.6089H13.8031L13.8136 15.5962L13.8263 15.6005L13.8516 15.575H13.8643C13.8769 15.5538 13.9508 15.5283 13.974 15.5177V15.5134H13.9909H14.0099V15.5113L14.0268 15.505V15.5007L14.0458 15.505V15.4986H14.0564V15.4965H14.0753V15.4943L14.1112 15.488V15.4837H14.1239V15.4795H14.1366V15.4752H14.1492V15.471H14.1619V15.4668H14.1746V15.4625H14.1872L14.1978 15.4561H14.2125L14.2168 15.4477H14.2421L14.2484 15.4349H14.2611V15.4328C14.3033 15.4286 14.3645 15.3882 14.4004 15.367H14.4152C14.4342 15.3522 14.4806 15.3118 14.5038 15.3012V15.2906L14.5334 15.2949L14.5629 15.2651H14.5756C14.5756 15.2651 14.5798 15.2503 14.5777 15.246L14.5946 15.2503V15.2439L14.6305 15.2397V15.2333L14.6431 15.2376V15.2312H14.6537V15.2269H14.679L14.6874 15.2163L14.7233 15.2121V15.2078H14.7423L14.7487 15.1951H14.7613V15.193H14.7782L14.7845 15.1803H14.7972L14.8099 15.1675H14.8204L14.8394 15.1505L14.8521 15.1548L14.8711 15.1357H14.8837L14.9238 15.0996H14.9428V15.0869C14.9576 15.0741 14.9914 15.0508 15.0083 15.0423V15.0317H15.0125L14.9956 15.0275V15.0381H14.9618H14.9935V15.0253H15.0104L15.042 15.0084L15.0484 14.9977H15.0589L15.0653 14.9893L15.1011 14.985L15.1075 14.9744H15.1201V14.9702H15.1328V14.968H15.1455L15.156 14.9617C15.1602 14.9617 15.1687 14.9574 15.1729 14.9553H15.175L15.1835 14.9574L15.1877 14.9468H15.2024L15.2067 14.9383H15.2214L15.2257 14.932H15.2383V14.9277H15.2573L15.2637 14.9171H15.2763L15.2953 14.9001H15.308L15.3312 14.8789H15.3439L15.3861 14.8428H15.3987V14.8386L15.4177 14.8301L15.4241 14.8131L15.4663 14.7876V14.777L15.4958 14.7601V14.7494H15.5085V14.741H15.5212V14.7261L15.5359 14.7219V14.7091H15.5465V14.6943L15.5655 14.6858C15.5718 14.6709 15.5908 14.6497 15.6077 14.6455L15.614 14.6348H15.6267L15.6309 14.6157L15.6457 14.62L15.6499 14.6094H15.6626L15.6689 14.6009H15.6816L15.6879 14.5924H15.7069L15.7322 14.5669H15.7449L15.7702 14.5436H15.7808V14.5393L15.7934 14.5351V14.5245H15.8061L15.8293 14.5033H15.8356V14.4948L15.861 14.4863V14.4757L15.8926 14.4566V14.446L15.9159 14.4332V14.4226H15.9348V14.412L15.9834 14.3802H16.0087L16.0129 14.359H16.0383V14.3526H16.0552L16.0615 14.3399H16.072V14.3356H16.091L16.0953 14.325H16.1079L16.1185 14.3123H16.1311L16.1375 14.3038H16.1438L16.1501 14.2953H16.1628V14.2932L16.186 14.2868V14.2762L16.3021 14.2019V14.1892L16.319 14.1828V14.1701C16.319 14.1701 16.338 14.1595 16.3485 14.151L16.395 14.1743C16.395 14.1743 16.4034 14.1849 16.4076 14.187V14.1977L16.4583 14.2465V14.2571L16.4773 14.2719V14.2783H16.4878L16.5385 14.3399H16.5491L16.5744 14.3738H16.5892L16.5934 14.3887L16.6082 14.3929L16.6187 14.412L16.6377 14.4205L16.644 14.4332H16.6546L16.663 14.4481L16.6862 14.4587L16.6926 14.4735L16.7116 14.482V14.4863L16.7475 14.5054L16.7538 14.516L16.7791 14.5287V14.5351L16.8023 14.5436V14.55L16.834 14.5606L16.8403 14.5733H16.853L16.8657 14.5945H16.872V14.6094L16.8973 14.6306V14.6412C16.9205 14.6624 16.9691 14.7197 16.9902 14.7452H17.0028L17.0261 14.7792H17.0408V14.7813C17.0894 14.8195 17.2836 15.002 17.3131 15.0466V15.0593C17.4376 15.1887 17.8746 15.5623 17.9991 15.6747L18.0117 15.679L18.0181 15.6896H18.0307L18.0413 15.7108L18.0645 15.7193L18.0708 15.7342L18.0962 15.7426L18.1025 15.7554L18.1384 15.7724V15.7766L18.1511 15.7808V15.7872H18.1637V15.7957L18.2017 15.8148V15.8212L18.4043 15.9888H18.417L18.4444 16.0249H18.455L18.4613 16.0398H18.4719L18.4866 16.0631H18.4993L18.5056 16.078L18.5246 16.0843V16.0928H18.5352C18.5373 16.1077 18.569 16.1204 18.5795 16.1246L18.588 16.1374L18.6133 16.148V16.1544H18.626V16.1607L18.6618 16.1798V16.1862H18.6829V16.1947L18.7062 16.2053V16.2117L18.8792 16.3454H18.8919L18.9172 16.3814H18.9299L19.2127 16.5788L19.2317 16.5873V16.5937H19.2507V16.6021L19.2697 16.6064V16.6128L19.295 16.617V16.6234L19.4723 16.7358V16.7401L19.5103 16.7592L19.5167 16.7719L19.542 16.7825V16.7889L19.5673 16.7974V16.8038H19.5863V16.8122L19.6095 16.8207V16.8271L19.6412 16.8377V16.8441C19.7151 16.8823 20.1034 16.9926 20.1942 16.9863V16.9799L20.2237 16.9863V16.9799L20.2491 16.9841V16.9778L20.2744 16.982V16.9757H20.2913H20.3082H20.3272V16.9735H20.3483V16.9714H20.3588V16.9672L20.3778 16.9714V16.965H20.4031V16.9587L20.458 16.9523L20.4643 16.9417L20.5002 16.9375L20.5066 16.9268H20.5319V16.9205H20.5488L20.5551 16.9077H20.5657L20.5762 16.8971H20.591L20.6015 16.8844H20.6142L20.6332 16.8674H20.6438C20.667 16.8462 20.7176 16.808 20.7472 16.7931V16.7804L20.7704 16.7677V16.7549L20.7873 16.7465V16.7337L20.8042 16.7252V16.7146H20.8168L20.8232 16.6892H20.8358L20.8422 16.6701H20.8485L20.859 16.6382H20.8654V16.6276H20.8717V16.617H20.878V16.6085H20.8844L20.8949 16.5788H20.9013V16.5639H20.9076V16.5533H20.9139V16.5364H20.9202V16.5257H20.9266L20.9329 16.4875H20.9392V16.4727H20.9456V16.4515H20.9519V16.4302H20.9582V16.4027H20.9646V16.3751H20.9709V16.3369H20.9751L20.9815 16.1904H20.9751L20.9983 16.201ZM17.6086 12.3619L17.6128 12.3789L17.6107 12.3619H17.6023V12.3598H17.6128L17.6086 12.3619ZM15.2637 14.9235C15.2637 14.9235 15.2953 14.9022 15.3059 14.8959C15.2953 14.9022 15.2721 14.915 15.2637 14.9235ZM15.3143 14.8938H15.3164H15.3122H15.3143Z" fill="white"/>
</g>
<defs>
<clipPath id="clip0_266_55208">
<rect width="24" height="24" fill="white"/>
</clipPath>
</defs>
</svg>
