<svg width="32" height="32" viewBox="0 0 32 32" fill="none" xmlns="http://www.w3.org/2000/svg">
<g clip-path="url(#clip0_266_55503)">
<path fill-rule="evenodd" clip-rule="evenodd" d="M3.68384 3.68514L7.9979 8.00069L15.9986 0H15.6482C11.8017 0.0822429 9.83347 0.381309 8.00747 1.00935C6.3707 1.57038 4.85304 2.51961 3.68384 3.68514Z" fill="#008CCF"/>
<path fill-rule="evenodd" clip-rule="evenodd" d="M0 15.9985L7.99791 8.00063L3.68386 3.68506C3.57537 3.7932 3.46991 3.90317 3.36763 4.01489C2.4247 5.05414 1.48176 6.68406 0.980354 8.2018C0.276894 10.3476 0.08232 12.3813 0.0224509 14.1532C1.10354e-05 14.9453 0 15.0578 0 15.9985Z" fill="#0098D7"/>
<path fill-rule="evenodd" clip-rule="evenodd" d="M3.10149e-05 16.2857H16.2857L8.00289 8L0 16.0001C0 16.105 9.7186e-09 16.1995 3.10149e-05 16.2857Z" fill="#008CCF"/>
<path fill-rule="evenodd" clip-rule="evenodd" d="M16.0013 0L8.00342 7.99791L16.0013 15.9986V0Z" fill="#007AC6"/>
<path fill-rule="evenodd" clip-rule="evenodd" d="M16.0015 0V15.9986L23.9966 8.00068L16.0015 0Z" fill="#0067B6"/>
<path fill-rule="evenodd" clip-rule="evenodd" d="M32.0001 15.9987L24.0022 7.99805L16.0015 15.9987H32.0001Z" fill="#004294"/>
<path fill-rule="evenodd" clip-rule="evenodd" d="M0 15.9985L7.99791 24.002L15.9986 15.9985H0Z" fill="#007AC6"/>
<path fill-rule="evenodd" clip-rule="evenodd" d="M0.0224509 17.8467C0 17.0467 0 16.942 0 15.9999V15.9985L7.99791 24.002L3.68294 28.3155C3.57466 28.2071 3.46949 28.0969 3.36763 27.985C2.4247 26.9532 1.48176 25.3158 0.980354 23.7981C0.269411 21.6523 0.08232 19.6186 0.0224509 17.8467Z" fill="#0067B6"/>
<path fill-rule="evenodd" clip-rule="evenodd" d="M15.5107 31.9972H16.0013L8.0034 23.9966L3.68286 28.3156C4.84732 29.4809 6.37098 30.4298 8.0074 30.9906C9.81149 31.6112 11.7617 31.9178 15.5107 31.9972Z" fill="#0054A7"/>
<path fill-rule="evenodd" clip-rule="evenodd" d="M16.0013 15.9985V31.9971L8.00342 23.9965L16.0013 15.9985Z" fill="#004898"/>
<path fill-rule="evenodd" clip-rule="evenodd" d="M23.9966 24.002L16.0015 15.9985H31.9972L23.9966 24.002Z" fill="#092C86"/>
<path fill-rule="evenodd" clip-rule="evenodd" d="M16.0015 31.9971V15.9985L23.9966 24.002L16.0015 31.9971Z" fill="#004294"/>
<path fill-rule="evenodd" clip-rule="evenodd" d="M28.3185 28.3144L24.0022 23.9966L16.0015 31.9972H16.4855C20.2492 31.9112 22.1942 31.6118 24.0001 30.9906C25.6371 30.4295 27.155 29.4801 28.3185 28.3144Z" fill="#092C86"/>
<path fill-rule="evenodd" clip-rule="evenodd" d="M32.0001 15.9985L24.0022 23.9965L28.3185 28.3143C28.4263 28.2063 28.531 28.0965 28.6324 27.985C29.5755 26.9457 30.5184 25.3158 31.0198 23.7981C31.7307 21.6523 31.9253 19.6111 31.9775 17.8467C32.0001 17.0542 32.0001 16.942 32.0001 16.0001C32.0001 15.9996 32.0001 15.999 32.0001 15.9985Z" fill="#092C86"/>
<path fill-rule="evenodd" clip-rule="evenodd" d="M16.0015 0L23.9966 8.00069L28.315 3.68231C27.1509 2.51807 25.6286 1.56993 24.0001 1.00935C22.1741 0.381309 20.1984 0.0747663 16.3593 0H16.0015Z" fill="#0054A7"/>
<path fill-rule="evenodd" clip-rule="evenodd" d="M28.3164 3.68359L24.0022 7.99782L32.0001 15.9985C32.0001 15.0577 32.0001 14.9528 31.9775 14.1532C31.9178 12.3812 31.7307 10.3476 31.0198 8.20177C30.5184 6.68402 29.5755 5.04662 28.6324 4.01485C28.5304 3.90265 28.425 3.79219 28.3164 3.68359Z" fill="#004898"/>
<path fill-rule="evenodd" clip-rule="evenodd" d="M31.8475 19.8577L21.7539 10.2432L6.20825 25.8277L11.8802 31.4995L21.7539 21.7732L28.3245 28.3081C28.4301 28.2021 28.5328 28.0943 28.6324 27.9849C29.5753 26.9456 30.5184 25.3157 31.0198 23.7979C31.4738 22.4268 31.7175 21.0985 31.8475 19.8577Z" fill="white"/>
</g>
<defs>
<clipPath id="clip0_266_55503">
<rect width="32" height="32" fill="white"/>
</clipPath>
</defs>
</svg>
