<svg width="56" height="56" viewBox="0 0 56 56" fill="none" xmlns="http://www.w3.org/2000/svg">
<g clip-path="url(#clip0_266_56362)">
<path d="M0 28C0 29.6486 0 29.8318 0.0392798 31.2318C0.144026 34.3327 0.471358 37.8916 1.71522 41.6467C2.59247 44.3028 4.24223 47.1682 5.892 48.9739C7.9869 51.2765 10.8805 53.1605 14.0098 54.2335C17.2046 55.3325 20.6612 55.869 27.378 56H28.622C35.3519 55.856 38.7954 55.3325 41.9902 54.2335C45.1194 53.1605 48 51.2765 50.108 48.9739C51.758 47.1552 53.4075 44.3028 54.285 41.6467C55.5285 37.8916 55.869 34.3196 55.9605 31.2318C56 29.8449 56 29.6486 56 28C56 26.3514 56 26.1551 55.9605 24.7682C55.856 21.6673 55.5285 18.1084 54.285 14.3532C53.4075 11.6972 51.758 8.83175 50.108 7.02615C48.0131 4.72337 45.1194 2.83925 41.9902 1.76636C38.7954 0.66729 35.3388 0.130841 28.622 0H27.378C20.6481 0.143925 17.2046 0.66729 14.0098 1.76636C10.8805 2.83925 8 4.72337 5.892 7.02615C4.24223 8.84485 2.59247 11.6972 1.71522 14.3532C0.484452 18.1084 0.144026 21.6673 0.0392798 24.7682C0 26.1551 0 26.3514 0 28Z" fill="#ED3423"/>
<path d="M19.4158 19C22.2673 21.9306 25.1782 24.9355 28.0149 27.8512C30.9852 24.8909 33.9406 21.9306 36.8663 19H19.4158ZM36.7476 37C33.8664 34.114 30.9258 31.1835 27.9703 28.2232C25.1337 31.1091 22.2227 34.0546 19.3267 37H36.7476ZM37.3564 36.7918C37.3564 36.7918 37.4456 36.8512 37.4901 36.881C40.3565 33.9356 43.2376 30.9752 46 28.1339C43.1931 25.2479 40.3119 22.2876 37.3713 19.2529V36.7918H37.3564ZM10 28.0446C12.9703 30.9752 15.8812 33.8463 18.8515 36.7769V19.3124C15.8663 22.2579 12.9555 25.1289 10 28.0595" fill="white"/>
<path d="M19.416 19H36.8665C33.9408 21.9306 30.9853 24.876 28.0151 27.8512C25.1784 24.9355 22.2675 21.9306 19.416 19Z" fill="white"/>
<path d="M36.7475 37H19.3267C22.2227 34.0545 25.1336 31.1091 27.9703 28.2231C30.9257 31.1835 33.8663 34.1141 36.7475 37Z" fill="white"/>
<path d="M37.3566 36.7918V19.2529C40.3121 22.2876 43.1784 25.248 45.9853 28.1339C43.223 30.9752 40.3566 33.9207 37.4754 36.881C37.4309 36.8513 37.3863 36.8215 37.3418 36.7918" fill="white"/>
<path d="M10 28.0445C12.9555 25.1288 15.8812 22.2428 18.8515 19.2974V36.7767C15.8812 33.8461 12.9555 30.9602 10 28.0445Z" fill="white"/>
</g>
<defs>
<clipPath id="clip0_266_56362">
<rect width="56" height="56" fill="white"/>
</clipPath>
</defs>
</svg>
