<svg width="56" height="56" viewBox="0 0 56 56" fill="none" xmlns="http://www.w3.org/2000/svg">
<g clip-path="url(#clip0_266_56240)">
<path fill-rule="evenodd" clip-rule="evenodd" d="M6.44678 6.449L13.9964 14.0012L27.9976 0H27.3845C20.653 0.143925 17.2086 0.66729 14.0131 1.76636C11.1488 2.74817 8.49288 4.40932 6.44678 6.449Z" fill="#008CCF"/>
<path fill-rule="evenodd" clip-rule="evenodd" d="M0 27.9973L13.9963 14.001L6.44675 6.44873C6.2569 6.63798 6.07235 6.83043 5.89335 7.02593C4.24322 8.84463 2.59308 11.697 1.71562 14.353C0.484565 18.1082 0.14406 21.6671 0.039289 24.768C1.93119e-05 26.1542 0 26.351 0 27.9973Z" fill="#0098D7"/>
<path fill-rule="evenodd" clip-rule="evenodd" d="M5.4276e-05 28.5H28.5L14.005 14L0 28.0001C0 28.1837 1.70076e-08 28.3491 5.4276e-05 28.5Z" fill="#008CCF"/>
<path fill-rule="evenodd" clip-rule="evenodd" d="M28.0025 0L14.0061 13.9964L28.0025 27.9975V0Z" fill="#007AC6"/>
<path fill-rule="evenodd" clip-rule="evenodd" d="M28.0024 0V27.9975L41.9939 14.0012L28.0024 0Z" fill="#0067B6"/>
<path fill-rule="evenodd" clip-rule="evenodd" d="M56 27.9978L42.0036 13.9966L28.0024 27.9978H56Z" fill="#004294"/>
<path fill-rule="evenodd" clip-rule="evenodd" d="M0 27.9976L13.9964 42.0037L27.9975 27.9976H0Z" fill="#007AC6"/>
<path fill-rule="evenodd" clip-rule="evenodd" d="M0.039289 31.2318C0 29.8318 0 29.6486 0 28V27.9976L13.9963 42.0037L6.44515 49.5522C6.25565 49.3626 6.0716 49.1698 5.89335 48.9739C4.24322 47.1682 2.59308 44.3028 1.71562 41.6467C0.471469 37.8916 0.14406 34.3327 0.039289 31.2318Z" fill="#0067B6"/>
<path fill-rule="evenodd" clip-rule="evenodd" d="M27.1439 55.9952H28.0024L14.006 41.9941L6.44507 49.5524C8.48287 51.5917 11.1493 53.2522 14.013 54.2337C17.1702 55.3197 20.583 55.8562 27.1439 55.9952Z" fill="#0054A7"/>
<path fill-rule="evenodd" clip-rule="evenodd" d="M28.0025 27.9976V55.995L14.0061 41.9939L28.0025 27.9976Z" fill="#004898"/>
<path fill-rule="evenodd" clip-rule="evenodd" d="M41.9939 42.0037L28.0024 27.9976H55.995L41.9939 42.0037Z" fill="#092C86"/>
<path fill-rule="evenodd" clip-rule="evenodd" d="M28.0024 55.995V27.9976L41.9939 42.0037L28.0024 55.995Z" fill="#004294"/>
<path fill-rule="evenodd" clip-rule="evenodd" d="M49.5572 49.5503L42.0036 41.9941L28.0024 55.9952H28.8496C35.4359 55.8447 38.8396 55.3207 42 54.2337C44.8647 53.2517 47.521 51.5902 49.5572 49.5503Z" fill="#092C86"/>
<path fill-rule="evenodd" clip-rule="evenodd" d="M56 27.9976L42.0037 41.9939L49.5573 49.5501C49.7458 49.3612 49.9291 49.169 50.1065 48.9738C51.757 47.1551 53.407 44.3028 54.2845 41.6467C55.5285 37.8916 55.869 34.3196 55.9605 31.2318C56 29.8449 56 29.6486 56 28.0002C56 27.9995 56 27.9983 56 27.9976Z" fill="#092C86"/>
<path fill-rule="evenodd" clip-rule="evenodd" d="M28.0024 0L41.9939 14.0012L49.5511 6.44405C47.5139 4.40663 44.85 2.74738 42 1.76636C38.8045 0.66729 35.347 0.130841 28.6286 0H28.0024Z" fill="#0054A7"/>
<path fill-rule="evenodd" clip-rule="evenodd" d="M49.5536 6.44629L42.0037 13.9962L56 27.9974C56 26.351 56 26.1673 55.9605 24.768C55.856 21.6671 55.5285 18.1082 54.2845 14.3531C53.407 11.697 51.757 8.83159 50.1065 7.02599C49.928 6.82964 49.7435 6.63634 49.5536 6.44629Z" fill="#004898"/>
<path fill-rule="evenodd" clip-rule="evenodd" d="M55.733 34.7512L38.0691 17.9258L10.8643 45.1987L20.7901 55.1244L38.0691 38.1033L49.5677 49.5394C49.7525 49.3539 49.9322 49.1652 50.1065 48.9737C51.7565 47.155 53.407 44.3027 54.2845 41.6466C55.079 39.2472 55.5055 36.9225 55.733 34.7512Z" fill="white"/>
</g>
<defs>
<clipPath id="clip0_266_56240">
<rect width="56" height="56" fill="white"/>
</clipPath>
</defs>
</svg>
