<svg width="24" height="24" viewBox="0 0 24 24" fill="none" xmlns="http://www.w3.org/2000/svg">
<g clip-path="url(#clip0_266_45641)">
<mask id="mask0_266_45641" style="mask-type:luminance" maskUnits="userSpaceOnUse" x="0" y="0" width="24" height="24">
<path d="M12.0006 0H11.7342C8.8542 0.06 7.3746 0.2862 6.0042 0.7584C4.67824 1.21297 3.48467 1.98718 2.529 3.0126C1.73541 3.9346 1.12765 5.00139 0.7392 6.1542C0.282959 7.59875 0.0403929 9.10226 0.0192 10.617C3.7998e-08 11.2128 0 11.2956 0 12.0006C0 12.7056 3.7998e-08 12.7872 0.0192 13.3806C0.0404135 14.8957 0.282977 16.3996 0.7392 17.8446C1.12751 18.9982 1.73527 20.0658 2.529 20.9886C3.48483 22.0138 4.67835 22.788 6.0042 23.2428C7.3746 23.715 8.8542 23.9418 11.7342 24H12.2664C15.1464 23.94 16.626 23.715 17.9964 23.2428C19.3224 22.7879 20.516 22.0137 21.4722 20.9886C22.2656 20.0662 22.873 18.999 23.2608 17.8458C23.7175 16.401 23.9601 14.897 23.9808 13.3818C24 12.786 24 12.7038 24 12.0018C24 11.2998 24 11.214 23.9808 10.6182C23.9601 9.10341 23.7175 7.59984 23.2608 6.1554C22.873 5.00255 22.2656 3.93571 21.4722 3.0138C20.5162 1.98848 19.3225 1.2143 17.9964 0.7596C16.626 0.2874 15.1476 0.0606 12.2664 0.00119998L12.0006 0Z" fill="white"/>
</mask>
<g mask="url(#mask0_266_45641)">
<path d="M36.5945 -0.934082H-2.23511V24.9343H36.5945V-0.934082Z" fill="#FF0811"/>
<path d="M36.5945 3.39966H-2.23511V20.6023H36.5945V3.39966Z" fill="white"/>
<path d="M36.5945 7.6626H-2.23511V16.338H36.5945V7.6626Z" fill="#001E81"/>
</g>
</g>
<defs>
<clipPath id="clip0_266_45641">
<rect width="24" height="24" fill="white"/>
</clipPath>
</defs>
</svg>
