<svg width="24" height="24" viewBox="0 0 24 24" fill="none" xmlns="http://www.w3.org/2000/svg">
<g clip-path="url(#clip0_266_46406)">
<mask id="mask0_266_46406" style="mask-type:luminance" maskUnits="userSpaceOnUse" x="0" y="0" width="24" height="24">
<path d="M12 0H11.7336C8.8536 0.06 7.374 0.2862 6.0042 0.7572C4.67827 1.21278 3.48465 1.9873 2.5284 3.0126C1.73475 3.93446 1.12716 5.0013 0.7392 6.1542C0.282723 7.5987 0.0401524 9.10224 0.0192003 10.617C3.241e-07 11.217 0 11.2956 0 12.0006C0 12.7056 3.241e-07 12.7866 0.0192003 13.3806C0.0401406 14.896 0.28271 16.4001 0.7392 17.8452C1.12716 18.9981 1.73475 20.0649 2.5284 20.9868C3.48436 22.0126 4.67806 22.7874 6.0042 23.2428C7.374 23.715 8.853 23.9406 11.7336 24H12.2658C15.1458 23.94 16.626 23.715 17.9958 23.2428C19.3218 22.7883 20.5154 22.0141 21.471 20.9886C22.2649 20.0668 22.8727 18.9999 23.2608 17.847C23.7173 16.4019 23.9599 14.8978 23.9808 13.3824C24 12.7866 24 12.705 24 12.0024C24 11.2998 24 11.2158 23.9808 10.6188C23.9599 9.10404 23.7173 7.6005 23.2608 6.156C22.8727 5.00305 22.2649 3.93621 21.471 3.0144C20.5153 1.98875 19.3218 1.21416 17.9958 0.759C16.626 0.288 15.1464 0.0612 12.2658 0.00180001L12 0Z" fill="white"/>
</mask>
<g mask="url(#mask0_266_46406)">
<path d="M33.5166 -1.08716H-9.51782V23.9976H33.5166V-1.08716Z" fill="#C8172B"/>
<path fill-rule="evenodd" clip-rule="evenodd" d="M14.0285 12.6468L15.2819 16.503L11.9999 14.1192L8.71792 16.503L9.97132 12.6468L6.68872 10.2642H10.7459L11.9999 6.40796L13.2539 10.2642H17.3105L14.0285 12.6468Z" fill="#FCFF2C"/>
</g>
</g>
<defs>
<clipPath id="clip0_266_46406">
<rect width="24" height="24" fill="white"/>
</clipPath>
</defs>
</svg>
