<svg width="24" height="24" viewBox="0 0 24 24" fill="none" xmlns="http://www.w3.org/2000/svg">
<g clip-path="url(#clip0_266_45319)">
<mask id="mask0_266_45319" style="mask-type:luminance" maskUnits="userSpaceOnUse" x="0" y="0" width="24" height="24">
<path d="M11.7342 0C8.85404 0.060003 7.37377 0.286214 6.0039 0.757838C4.67777 1.21287 3.484 1.98728 2.52793 3.01275C1.73407 3.93431 1.12643 5.00104 0.738637 6.15391C0.281878 7.59862 0.0392883 9.10247 0.0186004 10.6175C-4.89528e-07 11.2134 0 11.2962 0 12.0006C0 12.705 -4.89528e-07 12.7872 0.0186004 13.3807C0.0393265 14.8961 0.281914 16.4004 0.738637 17.8455C1.12657 18.9981 1.7342 20.0646 2.52793 20.986C3.484 22.0115 4.67777 22.7859 6.0039 23.241C7.37377 23.7126 8.85224 23.9382 11.7342 23.9988H12.2652C15.1454 23.9388 16.6262 23.7126 17.9961 23.241C19.3221 22.7859 20.5156 22.0115 21.4715 20.986C22.2652 20.0646 22.8728 18.9981 23.2608 17.8455C23.7175 16.4004 23.9601 14.8961 23.9808 13.3807C24 12.7848 24 12.7032 24 12.0006C24 11.298 24 11.2134 23.9808 10.6175C23.9601 9.10247 23.7175 7.59862 23.2608 6.15391C22.873 5.00104 22.2653 3.93431 21.4715 3.01275C20.5156 1.98729 19.3221 1.21287 17.9961 0.757838C16.6262 0.286214 15.149 0.060003 12.2652 0H11.7342Z" fill="white"/>
</mask>
<g mask="url(#mask0_266_45319)">
<path d="M30.3315 0H-6.33212V24.0012H30.3315V0Z" fill="white"/>
<path d="M30.3315 0H21.1655V24.0012H30.3315V0Z" fill="#EE312D"/>
<path d="M2.83394 0H-6.33212V24.0012H2.83394V0Z" fill="#EE312D"/>
<path d="M12.3432 19.7469L12.1716 16.4534C12.1674 16.3574 12.2014 16.2636 12.2662 16.1926C12.331 16.1217 12.4212 16.0793 12.5172 16.0748C12.5433 16.0737 12.5695 16.0753 12.5952 16.0796L15.8756 16.6562L15.4334 15.4345C15.4151 15.3862 15.4126 15.3332 15.4262 15.2834C15.4397 15.2335 15.4687 15.1891 15.509 15.1567L19.1032 12.249L18.2937 11.8709C18.2394 11.8452 18.1962 11.8006 18.1723 11.7454C18.1483 11.6902 18.1452 11.6282 18.1635 11.5709L18.8733 9.38862L16.8038 9.82664C16.7478 9.83839 16.6894 9.83041 16.6386 9.80406C16.5877 9.77771 16.5475 9.7346 16.5248 9.68203L16.124 8.73998L14.5087 10.4717C14.4718 10.5106 14.4233 10.5365 14.3704 10.5455C14.3175 10.5545 14.2631 10.5462 14.2154 10.5217C14.1676 10.4973 14.1291 10.458 14.1055 10.4099C14.0819 10.3617 14.0745 10.3072 14.0845 10.2545L14.8645 6.23966L13.6159 6.95969C13.5589 6.99277 13.4912 7.002 13.4275 6.98536C13.3638 6.96873 13.3092 6.92758 13.2757 6.87089L13.2685 6.85649L11.9988 4.36816L10.7315 6.85649C10.7021 6.91533 10.6504 6.96007 10.588 6.98088C10.5256 7.0017 10.4574 6.99688 10.3985 6.96749L10.3847 6.96029L9.13546 6.24026L9.9155 10.2551C9.92547 10.3078 9.91811 10.3623 9.89452 10.4105C9.87093 10.4586 9.83237 10.4979 9.78463 10.5223C9.73688 10.5468 9.68251 10.5551 9.62963 10.5461C9.57675 10.5371 9.52822 10.5112 9.49128 10.4723L7.876 8.74058L7.47518 9.68263C7.45267 9.73523 7.41262 9.77839 7.36185 9.80476C7.31108 9.83113 7.25274 9.83907 7.19677 9.82724L5.12666 9.38922L5.8371 11.5715C5.85513 11.6288 5.85189 11.6907 5.82797 11.7458C5.80405 11.8009 5.76106 11.8456 5.70689 11.8715L4.89685 12.2496L8.48863 15.1567C8.52895 15.1891 8.55806 15.2334 8.57184 15.2832C8.58563 15.3331 8.58338 15.386 8.56543 15.4345L8.12201 16.6562L11.4024 16.0796C11.4494 16.0714 11.4975 16.0725 11.5441 16.083C11.5907 16.0934 11.6347 16.1129 11.6737 16.1404C11.7127 16.1679 11.7459 16.2028 11.7714 16.2431C11.797 16.2834 11.8143 16.3284 11.8224 16.3754C11.8268 16.4011 11.8282 16.4273 11.8266 16.4534L11.6556 19.7469H12.3432Z" fill="#EE312D"/>
<path d="M12.2545 0.5L13.2623 0.530273C15.1519 0.606399 16.3244 0.779225 17.3375 1.07324L17.8336 1.23047C19.0751 1.65782 20.1927 2.38279 21.0894 3.3418H21.0904C21.8419 4.214 22.4173 5.22338 22.7848 6.31445C23.17 7.53543 23.3973 8.79993 23.4615 10.0771L23.4791 10.627V10.6367C23.4986 11.225 23.4986 11.3037 23.4986 12.0029C23.4986 12.7022 23.4986 12.778 23.4791 13.3662V13.376C23.4616 14.6592 23.2794 15.9344 22.9381 17.1699L22.7848 17.6885C22.4178 18.7789 21.8429 19.7873 21.0924 20.6592C20.1945 21.6188 19.0757 22.3448 17.8326 22.7715H17.8316C16.533 23.2184 15.1132 23.4414 12.2545 23.501H11.7437C9.2411 23.4494 7.84158 23.2719 6.66074 22.9287L6.16562 22.7715L5.9332 22.6875C4.7799 22.2517 3.74158 21.5555 2.89902 20.6523C2.15062 19.7814 1.57712 18.7739 1.21054 17.6855C0.770679 16.2898 0.537391 14.8373 0.517181 13.374L0.516205 13.3643C0.497252 12.7784 0.49765 12.7018 0.49765 12.001C0.49765 11.3 0.497436 11.2227 0.518158 10.6348V10.624C0.53843 9.16103 0.772728 7.7089 1.21249 6.31348C1.58007 5.22306 2.15521 4.21385 2.90585 3.3418C3.74707 2.44223 4.78315 1.74924 5.9332 1.31445L6.16562 1.23047C7.30201 0.83935 8.53184 0.619078 10.7369 0.530273L11.7437 0.5H12.2545Z" stroke="#F6F6F6"/>
</g>
</g>
<defs>
<clipPath id="clip0_266_45319">
<rect width="24" height="23.9988" fill="white"/>
</clipPath>
</defs>
</svg>
