<svg width="24" height="24" viewBox="0 0 24 24" fill="none" xmlns="http://www.w3.org/2000/svg">
<g clip-path="url(#clip0_266_45412)">
<mask id="mask0_266_45412" style="mask-type:luminance" maskUnits="userSpaceOnUse" x="0" y="0" width="24" height="24">
<path d="M11.9997 0H11.7357C8.85578 0.0599985 7.37621 0.285593 6.00585 0.757781C4.67916 1.21185 3.48493 1.98609 2.52894 3.01192C1.73526 3.9335 1.12768 5.00013 0.739781 6.15285C0.282392 7.59771 0.0398063 9.10194 0.0197995 10.6173C-4.47024e-09 11.2125 0 11.2935 0 11.9973C0 12.7011 -4.47024e-09 12.7839 0.0197995 13.3809C0.0398976 14.8959 0.282482 16.3997 0.739781 17.8442C1.1274 18.9968 1.73502 20.0633 2.52894 20.9845C3.48448 22.0104 4.678 22.7852 6.00405 23.2404C7.37441 23.712 8.85278 23.9376 11.7339 23.9976H12.2661C15.146 23.9376 16.6256 23.712 17.9959 23.2404C19.322 22.7852 20.5155 22.0104 21.4711 20.9845C22.2649 20.0634 22.8727 18.9971 23.2608 17.8448C23.717 16.4 23.9595 14.8964 23.9808 13.3815C24 12.7815 24 12.7029 24 11.9979C24 11.2929 24 11.2113 23.9808 10.6179C23.9596 9.10264 23.7171 7.59858 23.2608 6.15345C22.8725 5.0008 22.2647 3.93422 21.4711 3.01252C20.5156 1.98694 19.322 1.21271 17.9959 0.758381C16.6256 0.285593 15.1466 0.0599985 12.2661 0H11.9997Z" fill="white"/>
</mask>
<g mask="url(#mask0_266_45412)">
<path d="M35.6115 24.2826H-1.16394L-0.853748 12.0339H35.6115V24.2826Z" fill="#E80506"/>
<path d="M35.6115 12.0338H-0.853748L-1.16394 -0.214844H35.6115V12.0338Z" fill="#17108C"/>
<path d="M-1.16394 -0.214844L16.7366 12.0338L-1.16394 24.2825" fill="white"/>
<path d="M6.67911 12.034C6.69509 12.6302 6.47375 13.2085 6.0637 13.6417C5.65366 14.0749 5.08843 14.3277 4.49217 14.3445C3.90361 14.309 3.35081 14.0502 2.94663 13.6209C2.54245 13.1916 2.31738 12.6242 2.31738 12.0346C2.31738 11.4449 2.54245 10.8775 2.94663 10.4482C3.35081 10.0189 3.90361 9.76012 4.49217 9.72461C5.08849 9.74156 5.65371 9.99446 6.06374 10.4278C6.47377 10.8611 6.69509 11.4394 6.67911 12.0358" fill="#F9C900"/>
<path d="M4.49148 7.2124L4.03369 7.74819L4.26229 9.80074H4.71947L4.94807 7.74819L4.49148 7.2124Z" fill="#F9C900"/>
<path d="M5.06274 9.8607L5.44673 8.30914L5.19354 7.97314L4.90015 9.8007L5.06274 9.8607Z" fill="#F9C900"/>
<path d="M3.91977 9.8607L3.53638 8.30914L3.78897 7.97314L4.08296 9.8007L3.91977 9.8607Z" fill="#F9C900"/>
<path d="M7.7393 8.59717L7.05771 8.63377L5.84814 10.2579L6.00954 10.4295L6.17154 10.5987L7.7051 9.31775L7.7393 8.59717Z" fill="#F9C900"/>
<path d="M6.37429 10.8993L7.68346 10.0858L7.72846 9.65918L6.2981 10.7332L6.37429 10.8993Z" fill="#F9C900"/>
<path d="M5.56494 10.0448L6.33112 8.66064L6.73431 8.61084L5.72094 10.1228L5.56494 10.0448Z" fill="#F9C900"/>
<path d="M9.04299 12.0339L8.5354 11.554L6.59265 11.7939V12.2781L8.5354 12.5181L9.04299 12.0339Z" fill="#F9C900"/>
<path d="M6.53625 12.6392L8.00622 13.0436L8.32421 12.776L6.59385 12.467L6.53625 12.6392Z" fill="#F9C900"/>
<path d="M6.53442 11.4314L8.00319 11.0247L8.32238 11.2917L6.59262 11.6048L6.53442 11.4314Z" fill="#F9C900"/>
<path d="M7.73685 15.4538L7.70265 14.7338L6.16848 13.4504L6.00709 13.6208L5.84509 13.7924L7.05586 15.4172L7.73685 15.4538Z" fill="#F9C900"/>
<path d="M5.56128 14.0047L6.32686 15.3901L6.73065 15.4399L5.71728 13.9243L5.56128 14.0047Z" fill="#F9C900"/>
<path d="M6.37066 13.1516L7.67983 13.9664L7.72543 14.393L6.29626 13.3184L6.37066 13.1516Z" fill="#F9C900"/>
<path d="M4.49874 16.8565L4.95173 16.3165L4.71174 14.2664H4.48254H4.25515L4.03735 16.3201L4.49874 16.8565Z" fill="#F9C900"/>
<path d="M3.91077 14.2112L3.53638 15.7645L3.79197 16.0999L4.07516 14.2706L3.91077 14.2112Z" fill="#F9C900"/>
<path d="M5.05371 14.2029L5.4467 15.7532L5.19591 16.0916L4.89111 14.2659L5.05371 14.2029Z" fill="#F9C900"/>
<path d="M1.25159 15.4219L1.93317 15.3907L3.16074 13.7815L3.00114 13.6087L2.83975 13.4365L1.29599 14.7013L1.25159 15.4219Z" fill="#F9C900"/>
<path d="M2.64052 13.136L1.32055 13.9322L1.27075 14.36L2.71072 13.3022L2.64052 13.136Z" fill="#F9C900"/>
<path d="M3.44095 13.9989L2.66097 15.3789L2.25598 15.4221L3.28616 13.9221L3.44095 13.9989Z" fill="#F9C900"/>
<path d="M-0.0725098 12.0249L0.430878 12.5109L2.37603 12.2865V12.0465V11.8065L0.438078 11.5449L-0.0725098 12.0249Z" fill="#F9C900"/>
<path d="M2.43594 11.4429L0.969572 11.0229L0.64978 11.2875L2.37774 11.6121L2.43594 11.4429Z" fill="#F9C900"/>
<path d="M2.43002 12.6488L0.958261 13.0447L0.640869 12.7736L2.37603 12.4766L2.43002 12.6488Z" fill="#F9C900"/>
<path d="M1.24866 8.61987L1.28286 9.33985L2.81522 10.6244L2.97781 10.454L3.13921 10.2836L1.93024 8.66007L1.24866 8.61987Z" fill="#F9C900"/>
<path d="M3.42235 10.0726L2.65737 8.68601L2.25598 8.63501L3.26816 10.1506L3.42235 10.0726Z" fill="#F9C900"/>
<path d="M2.61236 10.9221L1.30439 10.1097L1.25879 9.68188L2.68795 10.7583L2.61236 10.9221Z" fill="#F9C900"/>
<path d="M13.9455 13.2477L13.4445 12.4863L12.6045 12.7563L13.1349 12.0165L12.6321 11.2558L13.4613 11.5594L13.9917 10.8196L13.9743 11.7472L14.8034 12.0519L13.9635 12.3213L13.9455 13.2477Z" fill="#F9C900"/>
<path d="M1.41058 3.60407L0.553802 3.40247L0.108613 4.20165L0.023415 3.27887L-0.832764 3.07908L-0.0281838 2.70769L-0.112182 1.78491L0.469804 2.48029L1.27438 2.1089L0.829195 2.90868L1.41058 3.60407Z" fill="#F9C900"/>
<path d="M1.26899 21.837L0.456007 21.4824L-0.113978 22.1874L-0.04318 21.2646L-0.85376 20.9082L-0.000581205 20.6922L0.0690172 19.7646L0.527406 20.5554L1.37998 20.3394L0.810598 21.045L1.26899 21.837Z" fill="#F9C900"/>
<path d="M12.2559 0.5L13.2637 0.530273C15.4682 0.619089 16.6971 0.839353 17.835 1.23047V1.22949C19.0803 1.65815 20.2016 2.38623 21.0996 3.34961C21.7536 4.11076 22.2735 4.97653 22.6387 5.90918L22.7861 6.31445C23.2263 7.71004 23.4595 9.16269 23.4795 10.626V10.6357C23.499 11.2241 23.499 11.3028 23.499 12.002C23.499 12.7011 23.499 12.777 23.4795 13.3652V13.375C23.4596 14.8385 23.2264 16.2917 22.7861 17.6875C22.4202 18.7749 21.8472 19.7812 21.0996 20.6514C20.2569 21.554 19.2185 22.2498 18.0654 22.6855L17.833 22.7695C16.5344 23.2165 15.1145 23.4395 12.2559 23.499H11.7451C8.88558 23.4401 7.46654 23.2164 6.16797 22.7695H6.16699C4.92386 22.3429 3.80482 21.6172 2.90723 20.6572C2.24997 19.8939 1.72691 19.0259 1.36035 18.0898L1.21289 17.6846C0.772995 16.2889 0.539744 14.8363 0.519531 13.373L0.518555 13.3633C0.499601 12.7774 0.5 12.7008 0.5 12C0.5 11.2993 0.499803 11.2223 0.520508 10.6348V10.624C0.540742 9.16084 0.774972 7.7081 1.21484 6.3125C1.5824 5.2222 2.15665 4.21279 2.90723 3.34082C3.80458 2.38123 4.92434 1.65715 6.16699 1.23047L6.16797 1.22949C7.30416 0.838474 8.53366 0.619068 10.7383 0.530273L11.7451 0.5H12.2559Z" stroke="#F6F6F6"/>
</g>
</g>
<defs>
<clipPath id="clip0_266_45412">
<rect width="24" height="23.9976" fill="white"/>
</clipPath>
</defs>
</svg>
