<svg width="32" height="32" viewBox="0 0 32 32" fill="none" xmlns="http://www.w3.org/2000/svg">
<g clip-path="url(#clip0_266_48255)">
<mask id="mask0_266_48255" style="mask-type:luminance" maskUnits="userSpaceOnUse" x="0" y="0" width="32" height="32">
<path d="M15.9996 0H15.6452C11.8051 0.080002 9.83145 0.38161 8.005 1.00963C6.23705 1.61701 4.6457 2.65007 3.37128 4.0177C2.3127 5.24645 1.50227 6.6687 0.984825 8.2058C0.375792 10.1318 0.0523468 12.1366 0.0248007 14.1564C1.10271e-07 14.9508 0 15.0612 0 16.0004C0 16.9396 1.10271e-07 17.05 0.0248007 17.8404C0.0522803 19.8605 0.375727 21.8656 0.984825 23.7918C1.50209 25.329 2.31253 26.7513 3.37128 27.9799C4.64514 29.3478 6.23671 30.3805 8.005 30.9864C9.83145 31.6152 11.8035 31.9176 15.6452 31.9976H16.354C20.1941 31.9176 22.1678 31.6152 23.9942 30.9864C25.7625 30.3801 27.3543 29.3475 28.6287 27.9799C29.6872 26.7512 30.4974 25.3289 31.0144 23.7918C31.6235 21.8656 31.9469 19.8605 31.9744 17.8404C32 17.046 32 16.9372 32 16.0004C32 15.0636 32 14.9508 31.9744 14.1564C31.9469 12.1366 31.6234 10.1318 31.0144 8.2058C30.4972 6.66875 29.687 5.24649 28.6287 4.0177C27.3534 2.65153 25.7619 1.61965 23.9942 1.01283C22.1678 0.38161 20.1957 0.080002 16.354 0H15.9996Z" fill="white"/>
</mask>
<g mask="url(#mask0_266_48255)">
<path d="M-8.18091 -0.107422H24.0599L-8.18091 32.1086V-0.107422Z" fill="#00953A"/>
<path d="M-8.18091 32.1086L24.0599 -0.107422H40.1803L7.93949 32.1086H-8.18091Z" fill="#FFDE36"/>
<path d="M40.1811 -0.107422V32.1086H7.93945L40.1811 -0.107422Z" fill="#FF1F19"/>
</g>
</g>
<defs>
<clipPath id="clip0_266_48255">
<rect width="32" height="31.9976" fill="white"/>
</clipPath>
</defs>
</svg>
