<svg width="32" height="32" viewBox="0 0 32 32" fill="none" xmlns="http://www.w3.org/2000/svg">
<g clip-path="url(#clip0_266_47047)">
<mask id="mask0_266_47047" style="mask-type:luminance" maskUnits="userSpaceOnUse" x="0" y="0" width="33" height="32">
<path d="M16.0008 0H15.6472C11.8072 0.08001 9.8344 0.380047 8.0072 1.00893C6.239 1.61585 4.64738 2.64876 3.3728 4.0165C2.3145 5.24525 1.50411 6.66734 0.986401 8.20423C0.376993 10.1308 0.0535473 12.1364 0.0264 14.157C-5.96046e-09 14.9515 0 15.0619 0 16.0012C0 16.9405 -5.96046e-09 17.0509 0.0264 17.8414C0.053423 19.8622 0.376871 21.8681 0.986401 23.795C1.50384 25.332 2.31425 26.7541 3.3728 27.9827C4.64694 29.3506 6.23835 30.3835 8.0064 30.9903C9.8336 31.6192 11.8048 31.9208 15.6464 32H16.356C20.196 31.92 22.1688 31.6192 23.996 30.9903C25.7641 30.3835 27.3555 29.3506 28.6296 27.9827C29.6882 26.7541 30.4986 25.332 31.016 23.795C31.6248 21.8679 31.9482 19.8622 31.976 17.8414C32.0024 17.0477 32.0024 16.9381 32.0024 16.0012C32.0024 15.0643 32.0024 14.9515 31.976 14.157C31.9481 12.1365 31.6246 10.131 31.016 8.20423C30.4983 6.66734 29.6879 5.24525 28.6296 4.0165C27.3552 2.64887 25.7639 1.61597 23.996 1.00893C22.1688 0.380047 20.1968 0.0784098 16.356 0H16.0008Z" fill="white"/>
</mask>
<g mask="url(#mask0_266_47047)">
<path d="M40.8928 -0.543945H-8.67281V32.4794H40.8928V-0.543945Z" fill="#003399"/>
<path d="M16.1096 3.17188L16.5336 4.47347H17.9032L16.7944 5.27907L17.2184 6.57988L16.1096 5.77667L15.0008 6.57667L15.4248 5.27588L14.316 4.47347H15.6856L16.1096 3.17188Z" fill="#FFCC00"/>
<path d="M16.1096 25.3535L16.5336 26.6591H17.9032L16.7944 27.4591L17.2184 28.7607L16.1096 27.9567L15.0008 28.7607L15.4248 27.4591L14.316 26.6591H15.6856L16.1096 25.3535Z" fill="#FFCC00"/>
<path d="M21.6584 4.65674L22.0816 5.95834H23.452L22.3432 6.76394L22.7672 8.06634L21.6584 7.26234L20.5504 8.06634L20.9736 6.76394L19.8648 5.95914H21.2344L21.6584 4.65674Z" fill="#FFCC00"/>
<path d="M27.208 14.2627L27.6312 15.5643H29.0016L27.8928 16.3691L28.3168 17.6723L27.208 16.8667L26.0992 17.6723L26.5232 16.3691L25.4144 15.5643H26.7848L27.208 14.2627Z" fill="#FFCC00"/>
<path d="M25.7208 19.8081L26.144 21.1105H27.5144L26.4064 21.9153L26.8296 23.2169L25.7208 22.4121L24.6128 23.2185L25.036 21.9169L23.9272 21.1105H25.2976L25.7208 19.8081Z" fill="#FFCC00"/>
<path d="M21.6584 23.8677L22.0816 25.1693H23.452L22.3432 25.9741L22.7672 27.2765L21.6584 26.4717L20.5504 27.2765L20.9736 25.9741L19.8648 25.1693H21.2344L21.6584 23.8677Z" fill="#FFCC00"/>
<path d="M10.5608 23.8677L10.9848 25.1693H12.3544L11.2472 25.9741L11.6696 27.2765L10.5616 26.4717L9.45278 27.2765L9.87678 25.9741L8.76718 25.1693H10.1376L10.5608 23.8677Z" fill="#FFCC00"/>
<path d="M6.49839 19.8081L6.92159 21.1105H8.29199L7.18399 21.9153L7.6064 23.2169L6.49839 22.4121L5.38959 23.2185L5.81359 21.9169L4.70399 21.1121H6.07519L6.49839 19.8081Z" fill="#FFCC00"/>
<path d="M5.01199 14.2627L5.43519 15.5643H6.80559L5.69759 16.3691L6.11999 17.6723L5.01199 16.8667L3.90319 17.6723L4.32719 16.3691L3.21919 15.5643H4.58879L5.01199 14.2627Z" fill="#FFCC00"/>
<path d="M6.49839 8.71631L6.92159 10.0187H8.29199L7.18399 10.8243L7.6064 12.1251L6.49839 11.3211L5.38959 12.1251L5.81359 10.8243L4.70399 10.0171H6.07519L6.49839 8.71631Z" fill="#FFCC00"/>
<path d="M10.5608 4.65674L10.9848 5.95834H12.3544L11.2472 6.76394L11.6696 8.06634L10.5608 7.26234L9.45198 8.06634L9.87598 6.76394L8.76718 5.95914H10.1376L10.5608 4.65674Z" fill="#FFCC00"/>
<path d="M25.7208 8.71631L26.144 10.0187H27.5144L26.4064 10.8243L26.8296 12.1251L25.7208 11.3211L24.6128 12.1251L25.036 10.8243L23.9272 10.0171H25.2976L25.7208 8.71631Z" fill="#FFCC00"/>
</g>
</g>
<defs>
<clipPath id="clip0_266_47047">
<rect width="32.0024" height="32" fill="white"/>
</clipPath>
</defs>
</svg>
