<svg width="32" height="32" viewBox="0 0 32 32" fill="none" xmlns="http://www.w3.org/2000/svg">
<g clip-path="url(#clip0_266_48650)">
<mask id="mask0_266_48650" style="mask-type:luminance" maskUnits="userSpaceOnUse" x="0" y="0" width="32" height="33">
<path d="M16.0008 0H15.6464C11.8062 0.080004 9.83169 0.380819 8.0052 1.01045C6.23711 1.61686 4.64562 2.64946 3.37137 4.017C2.31302 5.24553 1.50283 6.66756 0.985649 8.20441C0.376954 10.1313 0.0535112 12.1369 0.025601 14.1575C-3.30822e-07 14.9519 0 15.0608 0 15.9976C0 16.9344 -3.30822e-07 17.0473 0.025601 17.8377C0.0529721 19.8596 0.376423 21.8666 0.985649 23.7948C1.50283 25.3319 2.31301 26.7542 3.37137 27.983C4.64578 29.3505 6.2372 30.3834 8.0052 30.9903C9.83169 31.6192 11.8038 31.9216 15.6464 32.0008H16.3544C20.1946 31.9208 22.1683 31.6192 23.9956 30.9903C25.7637 30.3832 27.3554 29.3504 28.6302 27.983C29.6883 26.7541 30.4982 25.3318 31.0152 23.7948C31.6238 21.8684 31.9473 19.8633 31.9752 17.8433C32 17.0497 32 16.9384 32 16.0032C32 15.068 32 14.9543 31.9752 14.1631C31.9473 12.1425 31.6239 10.1369 31.0152 8.21001C30.4982 6.67321 29.6883 5.25117 28.6302 4.0226C27.3559 2.65306 25.7639 1.61853 23.9948 1.01045C22.1683 0.380819 20.197 0.0784039 16.3544 0H16.0008Z" fill="white"/>
</mask>
<g mask="url(#mask0_266_48650)">
<path d="M40.4914 21.4023H-8.16699V32.2069H40.4914V21.4023Z" fill="#E4142C"/>
<path d="M40.4914 10.5981H-8.16699V21.4027H40.4914V10.5981Z" fill="#34A836"/>
<path d="M40.4914 -0.206543H-8.16699V10.598H40.4914V-0.206543Z" fill="#FFCB00"/>
<path d="M20.4915 18.5496L27.515 13.4485H18.833L16.1488 5.19531L13.4655 13.4485H4.78027L11.8062 18.5496L9.12289 26.8028L16.1488 21.7017L23.1756 26.8028L20.4915 18.5496Z" fill="white"/>
</g>
</g>
<defs>
<clipPath id="clip0_266_48650">
<rect width="32" height="32.0008" fill="white"/>
</clipPath>
</defs>
</svg>
