<svg width="32" height="32" viewBox="0 0 32 32" fill="none" xmlns="http://www.w3.org/2000/svg">
<g clip-path="url(#clip0_266_47102)">
<mask id="mask0_266_47102" style="mask-type:luminance" maskUnits="userSpaceOnUse" x="0" y="0" width="33" height="32">
<path d="M15.6464 0C11.806 0.080008 9.83218 0.381638 8.0056 1.0105C6.23734 1.61724 4.64557 2.64984 3.37074 4.0172C2.31221 5.24601 1.50198 6.66839 0.984898 8.20562C0.375856 10.132 0.052387 12.1372 0.0248018 14.1574C-6.52736e-07 14.9519 0 15.0623 0 16.0016C0 16.9409 -6.52736e-07 17.0505 0.0248018 17.8418C0.0524379 19.8625 0.375904 21.8682 0.984898 23.7952C1.50216 25.3321 2.31238 26.7542 3.37074 27.9828C4.64557 29.3502 6.23734 30.3828 8.0056 30.9895C9.83218 31.6184 11.8036 31.9192 15.6464 32H16.3544C20.1948 31.92 22.1694 31.6184 23.996 30.9895C25.764 30.3828 27.3555 29.3502 28.6301 27.9828C29.6884 26.7542 30.4986 25.3321 31.0159 23.7952C31.6249 21.8682 31.9484 19.8625 31.976 17.8418C32.0016 17.0473 32.0016 16.9385 32.0016 16.0016C32.0016 15.0647 32.0016 14.9519 31.976 14.1574C31.9484 12.1372 31.6249 10.132 31.0159 8.20562C30.4988 6.66839 29.6886 5.24601 28.6301 4.0172C27.3555 2.64985 25.764 1.61724 23.996 1.0105C22.1694 0.381638 20.1996 0.080008 16.3544 0H15.6464Z" fill="white"/>
</mask>
<g mask="url(#mask0_266_47102)">
<path d="M40.4441 0H-8.44324V32.0032H40.4441V0Z" fill="white"/>
<path d="M40.4441 0H28.222V32.0032H40.4441V0Z" fill="#EE312D"/>
<path d="M3.77879 0H-8.44324V32.0032H3.77879V0Z" fill="#EE312D"/>
<path d="M16.4584 26.3308L16.2296 21.9391C16.224 21.8111 16.2693 21.6861 16.3557 21.5914C16.4421 21.4968 16.5625 21.4403 16.6905 21.4343C16.7253 21.4328 16.7601 21.435 16.7945 21.4407L21.1685 22.2095L20.5789 20.5806C20.5545 20.5161 20.5511 20.4455 20.5692 20.379C20.5873 20.3125 20.626 20.2534 20.6797 20.2101L25.4721 16.333L24.3928 15.8289C24.3204 15.7945 24.2628 15.7351 24.2309 15.6615C24.199 15.5879 24.1948 15.5053 24.2192 15.4289L25.1657 12.519L22.4062 13.103C22.3315 13.1187 22.2536 13.1081 22.1859 13.0729C22.1181 13.0378 22.0645 12.9803 22.0342 12.9102L21.4997 11.6541L19.3459 13.9631C19.2967 14.015 19.232 14.0495 19.1615 14.0615C19.091 14.0736 19.0184 14.0625 18.9548 14.0299C18.8911 13.9973 18.8397 13.9449 18.8083 13.8807C18.7768 13.8165 18.767 13.7438 18.7803 13.6735L19.8204 8.32016L18.1554 9.28025C18.0795 9.32436 17.9892 9.33666 17.9042 9.31448C17.8192 9.2923 17.7465 9.23743 17.7018 9.16184L17.6922 9.14264L15.9992 5.82471L14.3094 9.14264C14.2701 9.2211 14.2013 9.28076 14.118 9.30851C14.0348 9.33626 13.9439 9.32984 13.8654 9.29065L13.847 9.28105L12.1812 8.32096L13.2213 13.6743C13.2346 13.7446 13.2248 13.8173 13.1933 13.8815C13.1619 13.9457 13.1105 13.9981 13.0468 14.0307C12.9831 14.0633 12.9106 14.0744 12.8401 14.0623C12.7696 14.0503 12.7049 14.0158 12.6557 13.9639L10.5018 11.6549L9.96739 12.911C9.93738 12.9811 9.88398 13.0387 9.81628 13.0739C9.74858 13.109 9.67079 13.1196 9.59616 13.1038L6.83588 12.5198L7.78317 15.4297C7.80722 15.5061 7.8029 15.5886 7.77101 15.6621C7.73912 15.7356 7.68179 15.7951 7.60956 15.8297L6.52945 16.3338L11.3187 20.2101C11.3725 20.2534 11.4113 20.3124 11.4297 20.3788C11.4481 20.4453 11.4451 20.5159 11.4211 20.5806L10.8299 22.2095L15.2039 21.4407C15.2666 21.4297 15.3308 21.4313 15.3929 21.4452C15.455 21.4591 15.5137 21.4852 15.5657 21.5218C15.6177 21.5584 15.662 21.6049 15.696 21.6587C15.7301 21.7125 15.7531 21.7724 15.764 21.8351C15.7698 21.8695 15.7717 21.9043 15.7696 21.9391L15.5416 26.3308H16.4584Z" fill="#EE312D"/>
<path d="M16.3435 0.5L17.6902 0.540039C20.6391 0.658802 22.2955 0.953674 23.8338 1.48242C25.5211 2.06323 27.0401 3.04979 28.2566 4.35547C29.1422 5.38546 29.8464 6.55693 30.3406 7.81934L30.5398 8.36719C31.1323 10.2445 31.4465 12.1985 31.4734 14.167L31.4744 14.1768C31.5005 14.9638 31.4998 15.0712 31.4998 16.0049C31.4998 16.9383 31.5005 17.0413 31.4744 17.8281H31.4734V17.8379C31.4466 19.8066 31.1323 21.7611 30.5398 23.6387C30.0445 25.1106 29.269 26.4728 28.2566 27.6504C27.039 28.9552 25.5198 29.9411 23.8318 30.5205H23.8308C22.0754 31.1247 20.1624 31.4234 16.3435 31.5029H15.656C11.8358 31.4242 9.92327 31.1247 8.16776 30.5205H8.16678C6.47876 29.9413 4.9592 28.9556 3.74197 27.6504C2.85564 26.6198 2.15081 25.4478 1.65604 24.1846L1.45584 23.6357C0.863693 21.758 0.549412 19.8037 0.522247 17.835V17.8252L0.499786 16.9707C0.496623 16.7298 0.496857 16.4698 0.496857 16.002C0.496857 15.0661 0.496478 14.9614 0.5242 14.1748L0.525177 14.1641C0.552425 12.1956 0.866676 10.2417 1.45877 8.36426C1.95584 6.88982 2.73372 5.52581 3.74881 4.34668C4.96489 3.04478 6.48174 2.06091 8.16678 1.48242H8.16776C9.70372 0.953821 11.3609 0.658794 14.3094 0.540039L15.656 0.5H16.3435Z" stroke="#F6F6F6"/>
</g>
</g>
<defs>
<clipPath id="clip0_266_47102">
<rect width="32.0016" height="32" fill="white"/>
</clipPath>
</defs>
</svg>
