<svg width="32" height="32" viewBox="0 0 32 32" fill="none" xmlns="http://www.w3.org/2000/svg">
<g clip-path="url(#clip0_266_48236)">
<mask id="mask0_266_48236" style="mask-type:luminance" maskUnits="userSpaceOnUse" x="0" y="0" width="32" height="32">
<path d="M15.9988 0H15.6436C11.8039 0.080004 9.83206 0.380819 8.0042 1.00885C6.23684 1.61664 4.646 2.64967 3.37175 4.017C2.31313 5.24525 1.503 6.66736 0.986326 8.20441C0.377401 10.1307 0.0539899 12.1358 0.026398 14.1559C-5.96002e-09 14.9503 0 15.0608 0 16C0 16.9392 -5.96002e-09 17.0497 0.026398 17.8401C0.0538568 19.8607 0.377269 21.8664 0.986326 23.7932C1.503 25.3302 2.31313 26.7524 3.37175 27.9806C4.64584 29.3479 6.23675 30.3807 8.0042 30.9879C9.83206 31.616 11.8031 31.9184 15.6436 31.9976H16.3532C20.1929 31.9176 22.1655 31.616 23.9926 30.9879C25.7604 30.381 27.3516 29.3481 28.6259 27.9806C29.6841 26.7529 30.4949 25.3321 31.0137 23.7964C31.6224 21.8695 31.9458 19.8639 31.9736 17.8433C32 17.0497 32 16.94 32 16.0032C32 15.0664 32 14.9535 31.9736 14.1591C31.9457 12.1391 31.6223 10.134 31.0137 8.20761C30.4958 6.67094 29.6855 5.249 28.6275 4.0202C27.353 2.65269 25.7619 1.61963 23.9942 1.01205C22.1655 0.380819 20.1945 0.079204 16.3532 0H15.9988Z" fill="white"/>
</mask>
<g mask="url(#mask0_266_48236)">
<path d="M40.4202 21.3638H-8.42334V32.2115H40.4202V21.3638Z" fill="black"/>
<path d="M40.4202 10.5156H-8.42334V21.3634H40.4202V10.5156Z" fill="white"/>
<path d="M40.4202 -0.331055H-8.42334V10.5167H40.4202V-0.331055Z" fill="#CE1126"/>
<path d="M20.5935 13.7846C20.556 13.7326 20.5784 13.7302 20.7319 13.7726C20.8363 13.8146 20.9503 13.8271 21.0613 13.8087C21.1723 13.7904 21.2761 13.7419 21.3615 13.6686L21.5167 13.5374L21.6999 13.631C21.7731 13.6747 21.855 13.702 21.9399 13.711C22.0563 13.6443 22.1424 13.535 22.1798 13.4062C22.1734 13.3166 22.2502 13.339 22.2862 13.4382C22.3041 13.4831 22.3124 13.5312 22.3108 13.5795C22.3092 13.6278 22.2976 13.6753 22.2768 13.7189C22.256 13.7626 22.2264 13.8014 22.1899 13.8331C22.1534 13.8648 22.1108 13.8886 22.0646 13.903C21.9572 13.927 21.845 13.9154 21.7447 13.8702C21.5743 13.8102 21.5447 13.811 21.4591 13.8766C21.358 13.9491 21.2382 13.991 21.114 13.9974C20.9898 14.0038 20.8663 13.9743 20.7583 13.9126C20.6961 13.881 20.64 13.8384 20.5928 13.787M21.5455 13.1054C21.5615 12.8509 21.5367 12.7757 21.4271 12.7413C21.3655 12.7221 21.3415 12.7357 21.3191 12.8045C21.3156 12.974 21.3573 13.1413 21.4399 13.2894C21.5023 13.3694 21.5327 13.3134 21.5455 13.1054ZM14.8628 15.3319C14.4628 15.5607 13.8661 15.5935 13.8669 16.2223C12.9981 16.2623 11.9702 16.2927 11.0431 16.2751C11.3558 15.8751 13.0693 14.2062 13.5389 13.7374C13.6189 13.691 13.7365 13.7094 13.8285 13.6686C13.6933 13.599 13.3949 13.2118 13.4173 13.0566C12.6645 13.7862 11.8046 14.5622 11.6822 14.6846C10.4551 15.9095 10.4775 15.8951 10.2951 16.0743C10.2951 16.3143 10.2991 16.6415 10.2991 16.7991H14.5348C14.7444 16.7991 14.4876 16.0655 14.7572 16.0655C15.0396 16.0655 14.9452 16.6383 14.9452 16.9951C13.1389 16.9951 11.2311 17.0079 9.46159 17.0079V15.8687C9.24451 16.103 8.97504 16.2826 8.67525 16.3927C8.89523 16.4351 8.90963 16.7735 8.88483 17.0608C8.14089 17.08 7.13856 17.1736 7.41694 16.3279C7.16167 16.5221 6.87557 16.6719 6.5706 16.7711C6.93527 17.2405 7.10695 17.8315 7.05057 18.4232C6.90578 18.768 6.50341 18.8544 6.26343 19.1041C6.41867 19.1517 6.58222 19.1659 6.74337 19.146C6.90452 19.126 7.05963 19.0722 7.19857 18.9882C7.33751 18.9041 7.45714 18.7917 7.54963 18.6582C7.64213 18.5247 7.7054 18.3732 7.73532 18.2136H15.6547C15.6547 17.5792 15.6547 16.7007 15.6547 16.1175C15.5907 15.6303 15.074 15.6551 14.8684 15.3319M25.7364 18.212C25.7484 17.812 25.422 17.3096 25.37 16.7975C25.1772 16.9199 25.0924 17.1488 24.6876 17.06V13.8598C24.7228 13.6998 24.8564 13.643 24.898 13.4934C24.5813 13.3764 24.2816 13.2177 24.0069 13.0214V18.208L25.7364 18.212ZM23.4029 13.2094V18.2056H19.4288C19.3696 17.1656 19.36 16.0951 20.5696 16.3255V15.9023C20.5328 15.8303 20.4664 15.9199 20.4504 15.8263C20.6423 15.6343 20.7079 15.5863 21.2279 15.1311C21.2279 15.6791 21.2375 16.9711 21.2375 16.9711H21.6959C21.6959 16.9711 21.6999 14.8062 21.6999 14.731C21.6999 14.731 22.3294 14.2006 22.3294 14.1798V16.9687H22.7742C22.7742 15.9063 22.7606 14.8286 22.7606 13.8406C22.9959 13.6523 23.2087 13.4375 23.3949 13.2006M20.5616 16.8479C20.5128 16.6703 20.1312 16.7383 20.2 16.9375C20.2848 17.0656 20.5752 17.0632 20.5616 16.8479ZM8.69524 18.5592C8.64778 18.5592 8.60138 18.5733 8.56192 18.5997C8.52245 18.626 8.49169 18.6635 8.47353 18.7074C8.45537 18.7512 8.45061 18.7995 8.45987 18.8461C8.46913 18.8926 8.49199 18.9354 8.52555 18.969C8.55911 19.0025 8.60187 19.0254 8.64843 19.0346C8.69498 19.0439 8.74323 19.0391 8.78708 19.021C8.83093 19.0028 8.86841 18.9721 8.89478 18.9326C8.92115 18.8931 8.93523 18.8467 8.93523 18.7992C8.93523 18.7356 8.90994 18.6745 8.86494 18.6295C8.81993 18.5845 8.75889 18.5592 8.69524 18.5592ZM16.8666 17.0656V13.8654C16.901 13.7054 17.0346 13.6486 17.077 13.499C16.76 13.382 16.4601 13.2233 16.1851 13.027V18.2144H17.9154C17.9265 17.8144 17.601 17.3112 17.5482 16.7999C17.3562 16.9215 17.2706 17.1504 16.8666 17.0616" fill="#007A3D"/>
</g>
</g>
<defs>
<clipPath id="clip0_266_48236">
<rect width="32" height="31.9976" fill="white"/>
</clipPath>
</defs>
</svg>
