<svg width="24" height="24" viewBox="0 0 24 24" fill="none" xmlns="http://www.w3.org/2000/svg">
<g clip-path="url(#clip0_266_45264)">
<mask id="mask0_266_45264" style="mask-type:luminance" maskUnits="userSpaceOnUse" x="0" y="0" width="24" height="24">
<path d="M11.9997 0H11.7345C8.85474 0.060003 7.37525 0.285014 6.00495 0.756638C4.6789 1.2118 3.48527 1.98642 2.52941 3.01215C1.73574 3.93365 1.128 5.00013 0.739745 6.15271C0.282724 7.59755 0.0401574 9.10165 0.0197985 10.6169C-4.47001e-09 11.2128 0 11.2956 0 12C0 12.7044 -4.47001e-09 12.7872 0.0197985 13.3801C0.0400642 14.8956 0.282632 16.3999 0.739745 17.8449C1.12779 18.9976 1.73556 20.0641 2.52941 20.9854C3.48494 22.0113 4.67841 22.7859 6.00435 23.241C7.37465 23.7126 8.85294 23.9388 11.7339 23.9982H12.2661C15.1459 23.9382 16.6254 23.7126 17.9956 23.241C19.3216 22.7859 20.5151 22.0113 21.4706 20.9854C22.2644 20.0641 22.8722 18.9976 23.2603 17.8449C23.7168 16.3997 23.9593 14.8955 23.9802 13.3801C24 12.7848 24 12.7026 24 12C24 11.2974 24 11.2128 23.9802 10.6169C23.9592 9.1017 23.7167 7.59769 23.2603 6.15271C22.872 5.00013 22.2643 3.93365 21.4706 3.01215C20.5149 1.9865 19.3215 1.21188 17.9956 0.756638C16.6254 0.285014 15.1465 0.0588029 12.2661 0H11.9997Z" fill="white"/>
</mask>
<g mask="url(#mask0_266_45264)">
<path d="M30.6673 -0.407959H-6.5041V24.3577H30.6673V-0.407959Z" fill="#003399"/>
<path d="M12.0813 2.37842L12.3993 3.35454H13.4264L12.5949 3.9587L12.9129 4.93423L12.0813 4.33187L11.2498 4.93183L11.5678 3.9563L10.7362 3.35454H11.7633L12.0813 2.37842Z" fill="#FFCC00"/>
<path d="M12.0813 19.0137L12.3993 19.9928H13.4264L12.5949 20.5928L12.9129 21.5689L12.0813 20.9659L11.2498 21.5689L11.5678 20.5928L10.7362 19.9928H11.7633L12.0813 19.0137Z" fill="#FFCC00"/>
<path d="M16.2426 3.49219L16.56 4.46831H17.5877L16.7562 5.07247L17.0741 6.0492L16.2426 5.44624L15.4117 6.0492L15.729 5.07247L14.8975 4.46891H15.9246L16.2426 3.49219Z" fill="#FFCC00"/>
<path d="M20.4045 10.696L20.7219 11.6722H21.7496L20.918 12.2757L21.236 13.2531L20.4045 12.6489L19.5729 13.2531L19.8909 12.2757L19.0594 11.6722H20.0871L20.4045 10.696Z" fill="#FFCC00"/>
<path d="M19.2892 14.855L19.6065 15.8317H20.6343L19.8033 16.4353L20.1207 17.4114L19.2892 16.8078L18.4582 17.4126L18.7756 16.4365L17.9441 15.8317H18.9718L19.2892 14.855Z" fill="#FFCC00"/>
<path d="M16.2426 17.8994L16.56 18.8755H17.5877L16.7562 19.4791L17.0741 20.4558L16.2426 19.8523L15.4117 20.4558L15.729 19.4791L14.8975 18.8755H15.9246L16.2426 17.8994Z" fill="#FFCC00"/>
<path d="M7.92001 17.8994L8.23798 18.8755H9.2651L8.43477 19.4791L8.75154 20.4558L7.9206 19.8523L7.08907 20.4558L7.40704 19.4791L6.57491 18.8755H7.60263L7.92001 17.8994Z" fill="#FFCC00"/>
<path d="M4.87344 14.855L5.19082 15.8317H6.21854L5.3876 16.4353L5.70438 17.4114L4.87344 16.8078L4.0419 17.4126L4.35988 16.4365L3.52774 15.8329H4.55606L4.87344 14.855Z" fill="#FFCC00"/>
<path d="M3.75871 10.696L4.07609 11.6722H5.10381L4.27288 12.2757L4.58965 13.2531L3.75871 12.6489L2.92718 13.2531L3.24515 12.2757L2.41422 11.6722H3.44134L3.75871 10.696Z" fill="#FFCC00"/>
<path d="M4.87344 6.53662L5.19082 7.51335H6.21854L5.3876 8.1175L5.70438 9.09303L4.87344 8.49007L4.0419 9.09303L4.35988 8.1175L3.52774 7.51215H4.55606L4.87344 6.53662Z" fill="#FFCC00"/>
<path d="M7.92001 3.49219L8.23798 4.46831H9.2651L8.43477 5.07247L8.75154 6.0492L7.92001 5.44624L7.08847 6.0492L7.40644 5.07247L6.57491 4.46891H7.60263L7.92001 3.49219Z" fill="#FFCC00"/>
<path d="M19.2892 6.53662L19.6065 7.51335H20.6343L19.8033 8.1175L20.1207 9.09303L19.2892 8.49007L18.4582 9.09303L18.7756 8.1175L17.9441 7.51215H18.9718L19.2892 6.53662Z" fill="#FFCC00"/>
</g>
</g>
<defs>
<clipPath id="clip0_266_45264">
<rect width="24" height="23.9982" fill="white"/>
</clipPath>
</defs>
</svg>
