<svg width="32" height="32" viewBox="0 0 32 32" fill="none" xmlns="http://www.w3.org/2000/svg">
<g clip-path="url(#clip0_266_47195)">
<mask id="mask0_266_47195" style="mask-type:luminance" maskUnits="userSpaceOnUse" x="0" y="0" width="32" height="32">
<path d="M15.9996 0H15.6476C11.8077 0.079998 9.83495 0.38079 8.0078 1.01037C6.23889 1.6158 4.64658 2.64812 3.37192 4.0159C2.31369 5.24467 1.50358 6.66684 0.986375 8.20379C0.376522 10.1303 0.053075 12.1359 0.0263993 14.1564C-5.96031e-09 14.95 0 15.058 0 15.9964C0 16.9348 -5.96031e-09 17.0452 0.0263993 17.8412C0.0531968 19.8611 0.376643 21.8662 0.986375 23.7922C1.50321 25.3291 2.31336 26.7511 3.37192 27.9793C4.64597 29.3472 6.23734 30.3803 8.0054 30.9872C9.83255 31.616 11.8037 31.9168 15.6452 31.9968H16.3548C20.1947 31.9168 22.1674 31.616 23.9946 30.9872C25.7627 30.3803 27.354 29.3472 28.6281 27.9793C29.6865 26.7511 30.4969 25.3295 31.0144 23.793C31.6226 21.8667 31.946 19.8618 31.9744 17.842C32 17.042 32 16.9372 32 15.9972C32 15.0572 32 14.9484 31.9744 14.1572C31.9461 12.1369 31.6227 10.1314 31.0144 8.20459C30.4966 6.66774 29.6863 5.24562 28.6281 4.0167C27.3541 2.64925 25.7626 1.61695 23.9946 1.01117C22.1674 0.38079 20.1955 0.079998 16.3548 0H15.9996Z" fill="white"/>
</mask>
<g mask="url(#mask0_266_47195)">
<path d="M47.482 32.3765H-1.552L-1.13841 16.0449H47.482V32.3765Z" fill="#E80506"/>
<path d="M47.482 16.045H-1.13841L-1.552 -0.286621H47.482V16.045Z" fill="#17108C"/>
<path d="M-1.552 -0.286621L22.3154 16.045L-1.552 32.3766" fill="white"/>
<path d="M8.90536 16.0449C8.92666 16.84 8.63154 17.611 8.08481 18.1886C7.53809 18.7663 6.78446 19.1033 5.98943 19.1257C5.20469 19.0783 4.46762 18.7332 3.92872 18.1608C3.38981 17.5884 3.08972 16.8319 3.08972 16.0457C3.08972 15.2596 3.38981 14.5031 3.92872 13.9307C4.46762 13.3583 5.20469 13.0132 5.98943 12.9658C6.78453 12.9884 7.53816 13.3256 8.08486 13.9034C8.63157 14.4811 8.92666 15.2522 8.90536 16.0473" fill="#F9C900"/>
<path d="M5.98856 9.61621L5.37817 10.3306L5.68297 13.0673H6.29255L6.59734 10.3306L5.98856 9.61621Z" fill="#F9C900"/>
<path d="M6.75024 13.1476L7.26223 11.0788L6.92464 10.6309L6.53345 13.0676L6.75024 13.1476Z" fill="#F9C900"/>
<path d="M5.22627 13.1476L4.71509 11.0788L5.05188 10.6309L5.44387 13.0676L5.22627 13.1476Z" fill="#F9C900"/>
<path d="M10.3189 11.4629L9.41012 11.5117L7.79736 13.6772L8.01256 13.906L8.22855 14.1316L10.2733 12.4237L10.3189 11.4629Z" fill="#F9C900"/>
<path d="M8.49894 14.532L10.2445 13.4472L10.3045 12.8784L8.39734 14.3104L8.49894 14.532Z" fill="#F9C900"/>
<path d="M7.4198 13.3929L8.44137 11.5474L8.97896 11.481L7.62779 13.4969L7.4198 13.3929Z" fill="#F9C900"/>
<path d="M12.0573 16.0448L11.3805 15.4048L8.79016 15.7248V16.3704L11.3805 16.6904L12.0573 16.0448Z" fill="#F9C900"/>
<path d="M8.71497 16.8522L10.6749 17.3913L11.0989 17.0345L8.79176 16.6226L8.71497 16.8522Z" fill="#F9C900"/>
<path d="M8.71252 15.2416L10.6709 14.6992L11.0965 15.0552L8.79012 15.4728L8.71252 15.2416Z" fill="#F9C900"/>
<path d="M10.3157 20.6047L10.2701 19.6448L8.22452 17.9336L8.00933 18.1608L7.79333 18.3896L9.40769 20.5559L10.3157 20.6047Z" fill="#F9C900"/>
<path d="M7.41492 18.6731L8.43569 20.5203L8.97408 20.5867L7.62291 18.5659L7.41492 18.6731Z" fill="#F9C900"/>
<path d="M8.49409 17.5352L10.2397 18.6215L10.3005 19.1903L8.3949 17.7576L8.49409 17.5352Z" fill="#F9C900"/>
<path d="M5.99824 22.475L6.60223 21.755L6.28223 19.0215H5.97664H5.67345L5.38306 21.7598L5.99824 22.475Z" fill="#F9C900"/>
<path d="M5.21428 18.9482L4.71509 21.0194L5.05588 21.4666L5.43347 19.0274L5.21428 18.9482Z" fill="#F9C900"/>
<path d="M6.73816 18.937L7.26214 21.0042L6.92775 21.4553L6.52136 19.021L6.73816 18.937Z" fill="#F9C900"/>
<path d="M1.6687 20.5627L2.57748 20.5211L4.21424 18.3755L4.00144 18.1451L3.78625 17.9155L1.7279 19.6019L1.6687 20.5627Z" fill="#F9C900"/>
<path d="M3.52069 17.5146L1.76073 18.5762L1.69434 19.1466L3.61429 17.7362L3.52069 17.5146Z" fill="#F9C900"/>
<path d="M4.5879 18.6649L3.54792 20.5049L3.00793 20.5625L4.3815 18.5625L4.5879 18.6649Z" fill="#F9C900"/>
<path d="M-0.0968018 16.033L0.574381 16.681L3.16792 16.3818V16.0619V15.7419L0.583981 15.3931L-0.0968018 16.033Z" fill="#F9C900"/>
<path d="M3.24787 15.2568L1.29272 14.6968L0.866333 15.0496L3.17028 15.4824L3.24787 15.2568Z" fill="#F9C900"/>
<path d="M3.23991 16.8648L1.27756 17.3928L0.85437 17.0312L3.16791 16.6353L3.23991 16.8648Z" fill="#F9C900"/>
<path d="M1.66467 11.4932L1.71027 12.4531L3.75342 14.1659L3.97022 13.9387L4.18541 13.7115L2.57345 11.5468L1.66467 11.4932Z" fill="#F9C900"/>
<path d="M4.5631 13.4299L3.54312 11.5812L3.00793 11.5132L4.3575 13.5339L4.5631 13.4299Z" fill="#F9C900"/>
<path d="M3.4831 14.5627L1.73914 13.4796L1.67834 12.9092L3.5839 14.3443L3.4831 14.5627Z" fill="#F9C900"/>
<path d="M18.5939 17.6633L17.9259 16.6481L16.8059 17.0081L17.5131 16.0217L16.8427 15.0074L17.9483 15.4122L18.6555 14.4258L18.6323 15.6625L19.7378 16.0689L18.6179 16.4281L18.5939 17.6633Z" fill="#F9C900"/>
<path d="M1.88065 4.80542L0.73828 4.53663L0.144695 5.6022L0.0310978 4.37183L-1.11047 4.10544L-0.0377005 3.61025L-0.149698 2.37988L0.626283 3.30706L1.69906 2.81187L1.10547 3.87824L1.88065 4.80542Z" fill="#F9C900"/>
<path d="M1.6919 29.1157L0.607929 28.6429L-0.152052 29.5829L-0.0576549 28.3525L-1.13843 27.8773L-0.00085628 27.5893L0.0919415 26.3525L0.703126 27.4069L1.8399 27.1189L1.08072 28.0597L1.6919 29.1157Z" fill="#F9C900"/>
<path d="M15.6465 -0.000488281C11.807 0.0795097 9.83372 0.380302 8.0068 1.00909C6.2393 1.61585 4.64841 2.64864 3.37469 4.01621C2.31638 5.24479 1.50586 6.66664 0.987852 8.20331C0.379311 10.1298 0.0559328 12.135 0.0279961 14.1552C2.59241e-07 14.9495 0 15.0599 0 15.9991C0 16.9383 5.06563e-08 17.0479 0.0255962 17.8391C0.0534665 19.8595 0.376845 21.865 0.985452 23.7917C1.50358 25.33 2.31496 26.7533 3.37469 27.9828C4.64846 29.3501 6.23935 30.3827 8.0068 30.9891C9.83372 31.6179 11.8054 31.9195 15.6465 31.9987H16.3551C20.1946 31.9187 22.1671 31.6179 23.994 30.9891C25.7616 30.3825 27.3527 29.35 28.6269 27.9828C29.6854 26.7542 30.4957 25.332 31.0129 23.7949C31.6219 21.8682 31.9453 19.8627 31.9728 17.8423C31.9992 17.0479 31.9992 16.9391 31.9992 16.0023C31.9992 15.0655 31.9992 14.9527 31.9728 14.1584C31.9453 12.1382 31.6219 10.1329 31.0129 8.20651C30.4955 6.66975 29.6852 5.24784 28.6269 4.01941C27.3538 2.65115 25.7635 1.6173 23.9964 1.00909C22.1671 0.380302 20.1954 0.0795097 16.3551 -0.000488281H15.6465Z" stroke="#F6F6F6"/>
</g>
</g>
<defs>
<clipPath id="clip0_266_47195">
<rect width="32" height="31.9968" fill="white"/>
</clipPath>
</defs>
</svg>
