<svg width="24" height="24" viewBox="0 0 24 24" fill="none" xmlns="http://www.w3.org/2000/svg">
<g clip-path="url(#clip0_266_46454)">
<mask id="mask0_266_46454" style="mask-type:luminance" maskUnits="userSpaceOnUse" x="0" y="0" width="24" height="24">
<path d="M11.9991 0H11.7327C8.85293 0.060003 7.37405 0.285614 6.00315 0.756638C4.67763 1.21248 3.4845 1.98725 2.52881 3.01275C1.73485 3.93394 1.12725 5.00052 0.739744 6.15331C0.283051 7.59802 0.0404924 9.10187 0.0197985 10.6169C-4.47001e-09 11.2128 0 11.2956 0 12C0 12.7044 -4.47001e-09 12.7872 0.0197985 13.3801C0.0403926 14.8955 0.282952 16.3998 0.739744 17.8449C1.12725 18.9977 1.73485 20.0643 2.52881 20.9854C3.48438 22.011 4.67756 22.7856 6.00315 23.241C7.37405 23.712 8.85233 23.9388 11.7327 23.9982H12.2649C15.1447 23.9382 16.6242 23.712 17.9944 23.241C19.3203 22.7857 20.5137 22.0111 21.4694 20.9854C22.2631 20.0647 22.8712 18.999 23.2603 17.8473C23.7168 16.4021 23.9593 14.8979 23.9802 13.3825C24 12.7872 24 12.705 24 12.0024C24 11.2998 24 11.2152 23.9802 10.6193C23.9592 9.1043 23.7167 7.60049 23.2603 6.15571C22.8718 5.0032 22.2641 3.93675 21.4706 3.01515C20.5148 1.98951 19.3214 1.21472 17.9957 0.759038C16.6242 0.285614 15.1459 0.059403 12.2649 0H11.9991Z" fill="white"/>
</mask>
<g mask="url(#mask0_266_46454)">
<path d="M30.315 16.0227H-6.31763V24.1585H30.315V16.0227Z" fill="black"/>
<path d="M30.315 7.88696H-6.31763V16.0228H30.315V7.88696Z" fill="white"/>
<path d="M30.315 -0.248291H-6.31763V7.88752H30.315V-0.248291Z" fill="#CE1126"/>
<path d="M15.4451 10.3387C15.4169 10.2997 15.4337 10.2979 15.5489 10.3297C15.6272 10.3612 15.7126 10.3706 15.7959 10.3568C15.8792 10.343 15.957 10.3067 16.0211 10.2517L16.1375 10.1533L16.2748 10.2235C16.3298 10.2563 16.3912 10.2768 16.4548 10.2835C16.5422 10.2335 16.6067 10.1515 16.6348 10.0549C16.63 9.98767 16.6876 10.0045 16.7146 10.0789C16.728 10.1126 16.7343 10.1487 16.7331 10.1849C16.7318 10.2211 16.7232 10.2567 16.7076 10.2894C16.692 10.3222 16.6698 10.3513 16.6424 10.3751C16.615 10.3988 16.583 10.4167 16.5484 10.4275C16.4679 10.4455 16.3837 10.4368 16.3084 10.4029C16.1806 10.3579 16.1584 10.3585 16.0943 10.4077C16.0184 10.462 15.9286 10.4935 15.8354 10.4983C15.7423 10.5031 15.6497 10.481 15.5687 10.4347C15.522 10.411 15.4799 10.3791 15.4445 10.3405M16.1591 9.82926C16.1711 9.63845 16.1525 9.58205 16.0703 9.55625C16.0241 9.54185 16.0061 9.55205 15.9893 9.60365C15.9867 9.73075 16.0179 9.85625 16.0799 9.96727C16.1267 10.0273 16.1495 9.98527 16.1591 9.82926ZM11.147 11.4991C10.847 11.6708 10.3995 11.6954 10.4001 12.167C9.74853 12.197 8.97759 12.2198 8.28224 12.2066C8.51682 11.9066 9.80193 10.6549 10.1541 10.3033C10.2141 10.2685 10.3023 10.2823 10.3713 10.2517C10.2699 10.1995 10.0461 9.90906 10.0629 9.79266C9.49835 10.3399 8.8534 10.9219 8.76161 11.0137C7.84127 11.9324 7.85807 11.9216 7.72128 12.056C7.72128 12.236 7.72428 12.4814 7.72428 12.5996H10.901C11.0582 12.5996 10.8656 12.0494 11.0678 12.0494C11.2796 12.0494 11.2088 12.479 11.2088 12.7466C9.85412 12.7466 8.42323 12.7562 7.09613 12.7562V11.9018C6.93332 12.0775 6.73122 12.2122 6.50637 12.2948C6.67136 12.3266 6.68216 12.5804 6.66356 12.7958C6.1056 12.8102 5.35386 12.8804 5.56264 12.2462C5.37119 12.3918 5.15662 12.5042 4.92789 12.5786C5.20139 12.9306 5.33015 13.3739 5.28787 13.8177C5.17927 14.0763 4.8775 14.1411 4.69751 14.3283C4.81394 14.364 4.93661 14.3747 5.05747 14.3597C5.17833 14.3448 5.29466 14.3044 5.39887 14.2414C5.50307 14.1783 5.59279 14.094 5.66216 13.9939C5.73153 13.8938 5.77899 13.7802 5.80143 13.6605H11.741C11.741 13.1846 11.741 12.5258 11.741 12.0884C11.693 11.723 11.3054 11.7416 11.1512 11.4991M19.3022 13.6593C19.3112 13.3592 19.0664 12.9824 19.0274 12.5984C18.8828 12.6902 18.8193 12.8618 18.5157 12.7952V10.3951C18.5421 10.2751 18.6423 10.2325 18.6735 10.1203C18.4359 10.0326 18.2111 9.9135 18.0051 9.76626V13.6563L19.3022 13.6593ZM17.5521 9.90726V13.6545H14.5716C14.5272 12.8744 14.52 12.0716 15.4271 12.2444V11.927C15.3995 11.873 15.3497 11.9402 15.3377 11.87C15.4817 11.726 15.5309 11.69 15.9209 11.3485C15.9209 11.7596 15.9281 12.7286 15.9281 12.7286H16.2718C16.2718 12.7286 16.2748 11.1049 16.2748 11.0485C16.2748 11.0485 16.747 10.6507 16.747 10.6351V12.7268H17.0806C17.0806 11.93 17.0704 11.1217 17.0704 10.3807C17.2469 10.2395 17.4065 10.0784 17.5461 9.90066M15.4211 12.6362C15.3845 12.503 15.0983 12.554 15.1499 12.7034C15.2135 12.7994 15.4313 12.7976 15.4211 12.6362ZM6.52137 13.9197C6.48577 13.9197 6.45098 13.9302 6.42138 13.95C6.39178 13.9698 6.36871 13.9979 6.35509 14.0308C6.34146 14.0637 6.3379 14.0999 6.34484 14.1348C6.35179 14.1697 6.36893 14.2018 6.3941 14.227C6.41927 14.2521 6.45134 14.2693 6.48626 14.2762C6.52117 14.2832 6.55736 14.2796 6.59025 14.266C6.62314 14.2524 6.65125 14.2293 6.67103 14.1997C6.6908 14.1701 6.70136 14.1353 6.70136 14.0997C6.70136 14.0519 6.6824 14.0061 6.64864 13.9724C6.61489 13.9386 6.56911 13.9197 6.52137 13.9197ZM12.6499 12.7994V10.3993C12.6757 10.2793 12.7759 10.2367 12.8077 10.1245C12.57 10.0368 12.345 9.9177 12.1388 9.77046V13.6611H13.4365C13.4449 13.361 13.2007 12.9836 13.1611 12.6002C13.0171 12.6914 12.9529 12.863 12.6499 12.7964" fill="#007A3D"/>
</g>
</g>
<defs>
<clipPath id="clip0_266_46454">
<rect width="24" height="23.9982" fill="white"/>
</clipPath>
</defs>
</svg>
