<svg width="24" height="24" viewBox="0 0 24 24" fill="none" xmlns="http://www.w3.org/2000/svg">
<g clip-path="url(#clip0_266_46443)">
<mask id="mask0_266_46443" style="mask-type:luminance" maskUnits="userSpaceOnUse" x="0" y="0" width="24" height="24">
<path d="M12.0009 0H11.7345C8.85442 0.0600015 7.37418 0.286207 6.00435 0.757819C4.67807 1.21246 3.48425 1.98691 2.52846 3.01268C1.73471 3.93427 1.1271 5.00096 0.739218 6.15375C0.282723 7.59849 0.0401461 9.10227 0.0192002 10.6173C-2.48111e-07 11.2137 0 11.2953 0 12.0003C0 12.7053 -2.48111e-07 12.7869 0.0192002 13.3803C0.040103 14.8953 0.282681 16.3991 0.739218 17.8438C1.1275 18.9968 1.73506 20.0638 2.52846 20.9861C3.48476 22.0111 4.67843 22.7853 6.00435 23.2404C7.37418 23.7126 8.85322 23.9382 11.7345 23.9982H12.2661C15.1462 23.9382 16.6264 23.7126 17.9962 23.2404C19.3211 22.7854 20.5141 22.0122 21.4703 20.9885C22.2642 20.0667 22.8724 19.0001 23.2614 17.8474C23.7176 16.4026 23.9602 14.8989 23.9814 13.3839C24 12.7881 24 12.7059 24 12.0039C24 11.3019 24 11.2173 23.9814 10.6209C23.9602 9.10589 23.7176 7.60216 23.2614 6.15735C22.8734 5.00315 22.2651 3.93519 21.4703 3.01268C20.5149 1.9874 19.3217 1.21301 17.9962 0.757819C16.6264 0.286207 15.1474 0.0594015 12.2661 0H12.0009Z" fill="white"/>
</mask>
<g mask="url(#mask0_266_46443)">
<path d="M14.6936 11.9998L8.49243 16.1309H33.2977V7.86865H8.49243L14.6936 11.9998Z" fill="white"/>
<path d="M-3.9104 -0.393066L8.49251 7.86914H33.2977V-0.393066H-3.9104Z" fill="black"/>
<path d="M-3.9104 24.3931H33.2977V16.1309H8.49251L-3.9104 24.3931Z" fill="#007A3D"/>
<path d="M14.6937 11.9996L8.49251 7.86854L-3.9104 -0.393066V24.3924L8.49251 16.1307L14.6937 11.9996Z" fill="#CE1126"/>
<path d="M4.41354 10.2273L4.79815 11.1999L5.79897 10.8933L5.27756 11.8005L6.14098 12.3915L5.10656 12.5494L5.18216 13.5928L4.41354 12.8854L3.64492 13.5952L3.72112 12.5518L2.6897 12.3939L3.55312 11.8029L3.03171 10.8957L4.03193 11.2023L4.41354 10.2273Z" fill="white"/>
</g>
</g>
<defs>
<clipPath id="clip0_266_46443">
<rect width="24" height="23.9982" fill="white"/>
</clipPath>
</defs>
</svg>
