<svg width="24" height="24" viewBox="0 0 24 24" fill="none" xmlns="http://www.w3.org/2000/svg">
<g clip-path="url(#clip0_266_46553)">
<mask id="mask0_266_46553" style="mask-type:luminance" maskUnits="userSpaceOnUse" x="0" y="0" width="24" height="24">
<path d="M11.9979 0H11.7321C8.85234 0.0599955 7.37225 0.286178 6.00195 0.757143C4.67672 1.21245 3.48407 1.98722 2.52941 3.01297C1.73562 3.93417 1.12804 5.00058 0.740344 6.15314C0.283532 7.59765 0.0409712 9.10132 0.0203981 10.6162C-3.35251e-07 11.212 0 11.2942 0 11.9991C0 12.704 -3.35251e-07 12.7862 0.0203981 13.382C0.0410076 14.8971 0.283567 16.4009 0.740344 17.8457C1.12832 18.9979 1.73587 20.0641 2.52941 20.9852C3.48478 22.0111 4.6783 22.7857 6.00435 23.2405C7.37465 23.712 8.85353 23.9382 11.7345 23.9982H12.2661C15.1459 23.9382 16.6254 23.712 17.9963 23.2405C19.3223 22.7857 20.5158 22.0111 21.4712 20.9852C22.2649 20.0641 22.8727 18.9979 23.2609 17.8457C23.7168 16.4007 23.9593 14.897 23.9808 13.382C24 12.7862 24 12.704 24 11.9991C24 11.2942 24 11.212 23.9808 10.6162C23.9593 9.1014 23.7168 7.59785 23.2609 6.15314C22.8729 5.00055 22.2652 3.93413 21.4712 3.01297C20.5151 1.98679 19.3207 1.21218 17.9939 0.757743C16.623 0.286179 15.1447 0.0599955 12.2637 0H11.9979Z" fill="white"/>
</mask>
<g mask="url(#mask0_266_46553)">
<path d="M40.7538 20.0234H-7.96973V24.0803H40.7538V20.0234Z" fill="#09529C"/>
<path d="M40.7538 19.3474H-7.96973V20.0236H40.7538V19.3474Z" fill="white"/>
<path d="M40.7538 4.47095H-7.96973V19.3474H40.7538V4.47095Z" fill="#E31921"/>
<path d="M8.97551 6.54422C7.85479 6.39806 6.71644 6.6065 5.72022 7.14028C4.724 7.67406 3.91993 8.50639 3.42086 9.52044C2.92179 10.5345 2.75278 11.6794 2.93755 12.7944C3.12231 13.9094 3.65159 14.9385 4.45107 15.7374C5.25056 16.5363 6.28013 17.0648 7.39527 17.2487C8.51042 17.4326 9.65516 17.2627 10.6688 16.7628C11.6825 16.263 12.5142 15.4583 13.0472 14.4616C13.5802 13.465 13.7878 12.3265 13.6408 11.2059C13.4848 10.0236 12.9431 8.92592 12.0995 8.08304C11.256 7.24016 10.1579 6.69924 8.97551 6.54422Z" fill="white"/>
<path d="M10.1766 12.5276L13.2591 10.2898H9.44883L8.27112 6.66846L7.09401 10.2898H3.28369L6.36626 12.5276L5.18855 16.1489L8.27112 13.9105L11.3543 16.1489L10.1766 12.5276Z" fill="#E31921"/>
<path d="M40.7538 3.79468H-7.96973V4.47083H40.7538V3.79468Z" fill="white"/>
<path d="M40.7538 -0.262207H-7.96973V3.79469H40.7538V-0.262207Z" fill="#09529C"/>
</g>
</g>
<defs>
<clipPath id="clip0_266_46553">
<rect width="24" height="23.9982" fill="white"/>
</clipPath>
</defs>
</svg>
