<svg width="24" height="24" viewBox="0 0 24 24" fill="none" xmlns="http://www.w3.org/2000/svg">
<g clip-path="url(#clip0_266_46589)">
<mask id="mask0_266_46589" style="mask-type:luminance" maskUnits="userSpaceOnUse" x="0" y="0" width="24" height="24">
<path d="M11.9994 0H11.7336C8.85376 0.060009 7.37423 0.286843 6.0039 0.758514C4.67785 1.2123 3.48409 1.98604 2.52827 3.01125C1.73446 3.93265 1.12687 4.99931 0.739163 6.15212C0.282475 7.59699 0.0399107 9.10099 0.019199 10.6162C2.23506e-09 11.2121 0 11.2943 0 12C0 12.7057 2.23506e-09 12.7867 0.019199 13.3802C0.0397726 14.8954 0.28234 16.3994 0.739163 17.8443C1.12718 18.9971 1.73473 20.0639 2.52827 20.9858C3.48399 22.0116 4.67772 22.7862 6.0039 23.2409C7.37423 23.7132 8.85316 23.9394 11.7336 23.9988H12.2652C15.145 23.9388 16.6252 23.7132 17.9955 23.2409C19.3214 22.786 20.5149 22.0115 21.4705 20.9858C22.2643 20.064 22.872 18.9972 23.2602 17.8443C23.7168 16.3994 23.9593 14.8954 23.9802 13.3802C24 12.7843 24 12.7021 24 12C24 11.2979 24 11.2121 23.9802 10.6162C23.9592 9.10101 23.7166 7.59706 23.2602 6.15212C22.8723 4.99927 22.2645 3.93262 21.4705 3.01125C20.5151 1.9853 19.3215 1.21074 17.9955 0.756114C16.6252 0.286843 15.1486 0.060009 12.2652 0H11.9994Z" fill="white"/>
</mask>
<g mask="url(#mask0_266_46589)">
<path d="M-0.0908203 19.3445V-0.229243H19.4772C20.4598 -0.230597 21.4202 0.0632907 22.2339 0.61433C23.0475 1.16537 23.677 1.94815 24.0406 2.86122C24.2634 3.43536 24.3787 4.04561 24.3808 4.66149V19.3445C24.38 19.9876 24.2525 20.6243 24.0056 21.2181C23.7587 21.8119 23.3972 22.3512 22.9418 22.8053C22.4864 23.2593 21.9461 23.6191 21.3516 23.8642C20.7571 24.1092 20.1202 24.2347 19.4772 24.2334H-0.0908203V19.3445Z" fill="#254AA3"/>
<path d="M7.45871 4.82715L7.7629 5.7547H8.73785L7.94649 6.33067L8.25067 7.25763L7.45871 6.68166L6.66735 7.25763L6.97094 6.33067L6.18018 5.7547H7.15993L7.45871 4.82715Z" fill="white"/>
<path d="M16.6751 4.82715L16.9799 5.7547H17.9543L17.1629 6.32527L17.4665 7.25763L16.6751 6.68166L15.8838 7.25763L16.1874 6.32527L15.396 5.7547H16.3709L16.6751 4.82715Z" fill="white"/>
<path d="M19.5882 5.90063L19.8882 6.82819H20.8686L20.0772 7.40416L20.3808 8.33111L19.5882 7.76054L18.7969 8.33111L19.1004 7.40416L18.3091 6.82819H19.2882L19.5882 5.90063Z" fill="white"/>
<path d="M4.54345 5.90063L4.84763 6.82819H5.82259L5.03602 7.40416L5.33601 8.33111L4.54405 7.76054L3.75749 8.33111L4.05747 7.40416L3.26611 6.82819H4.24466L4.54345 5.90063Z" fill="white"/>
<path d="M10.5201 4.28687L10.8201 5.21382H11.8005L11.0091 5.79039L11.3133 6.71734L10.5213 6.14137L9.72996 6.71734L10.0335 5.79039L9.24219 5.21382H10.2165L10.5201 4.28687Z" fill="white"/>
<path d="M13.6136 4.28687L13.9178 5.21382H14.8927L14.1062 5.79039L14.4062 6.71734L13.6148 6.14137L12.8282 6.71734L13.1282 5.79039L12.3345 5.21382H13.3148L13.6136 4.28687Z" fill="white"/>
<path d="M11.0153 6.25247C11.0261 6.26267 10.9157 6.26267 10.9055 6.32028C10.8953 6.37789 10.7957 6.37309 10.7957 6.41989C10.7957 6.4667 10.659 6.5039 10.659 6.5039L10.4754 6.4883C10.4754 6.4883 10.4598 6.42829 10.4334 6.4565C10.4081 6.47698 10.3765 6.4882 10.344 6.4883L10.224 6.4775C10.224 6.4775 10.104 6.4775 10.119 6.52491C10.134 6.57232 10.1976 6.60352 10.2342 6.64013C10.2489 6.65072 10.2605 6.66502 10.2679 6.68157C10.2752 6.69812 10.2781 6.71633 10.2762 6.73434C10.2762 6.77095 10.2444 6.78175 10.2444 6.80275C10.2444 6.82375 10.2396 6.89156 10.3128 6.89156H10.4754C10.5076 6.89918 10.5378 6.91349 10.5642 6.93357C10.596 6.96477 10.5858 7.04879 10.5858 7.04879C10.5858 7.04879 10.491 7.05959 10.5438 7.1118C10.5966 7.164 10.6434 7.25342 10.68 7.25342C10.7155 7.25396 10.7501 7.26456 10.7798 7.284C10.8096 7.30344 10.8332 7.33091 10.8479 7.36323C10.8535 7.39545 10.8522 7.42849 10.844 7.46015C10.8358 7.49181 10.821 7.52137 10.8005 7.54686L10.7111 7.63567C10.7057 7.64108 10.5642 7.63027 10.5642 7.66208C10.5751 7.7006 10.591 7.73752 10.6116 7.7719C10.6116 7.7719 10.7009 7.7773 10.7009 7.8193C10.7009 7.86131 10.6224 7.87931 10.6536 7.91352C10.6745 7.95037 10.6872 7.99131 10.6907 8.03353C10.6619 8.0362 10.6345 8.04703 10.6116 8.06474C10.5858 8.08574 10.47 8.07014 10.47 8.11695C10.4523 8.18471 10.4259 8.24988 10.3914 8.31078C10.3914 8.31078 10.2498 8.33718 10.2498 8.31078C10.2498 8.28437 10.2606 8.23757 10.203 8.23757C10.1454 8.23757 10.083 8.23216 10.083 8.28977C10.083 8.34738 9.97259 8.36358 9.95159 8.42119C9.93059 8.4788 9.85259 8.59402 9.85259 8.59402C9.85259 8.59402 9.6846 8.54181 9.663 8.54181C9.6414 8.54181 9.6372 8.58322 9.5952 8.62522C9.55321 8.66723 9.48001 8.73024 9.48001 8.73024C9.47344 8.73038 9.46697 8.73187 9.46099 8.73461C9.45502 8.73735 9.44967 8.74129 9.44529 8.74619C9.4409 8.75108 9.43756 8.75683 9.43549 8.76306C9.43341 8.7693 9.43264 8.7759 9.43321 8.78245V8.87186C9.43321 8.91867 9.53821 8.91387 9.53821 8.98168C9.53821 9.04949 9.47461 9.03388 9.53821 9.09689C9.6018 9.1599 9.6264 9.1569 9.6528 9.20671C9.6792 9.25652 9.7368 9.26672 9.7632 9.31713C9.7896 9.36754 9.6894 9.42154 9.6894 9.43714C9.6894 9.45275 9.48001 9.40054 9.44281 9.43714C9.40405 9.47352 9.36907 9.51373 9.33842 9.55716C9.33842 9.56797 9.21842 9.52596 9.18602 9.59437C9.15409 9.65149 9.10695 9.69865 9.04983 9.73059C8.99883 9.72185 8.94934 9.70589 8.90284 9.68318C8.88244 9.66218 8.81944 9.62317 8.77745 9.64118C8.72445 9.65949 8.67008 9.67353 8.61485 9.68318C8.58261 9.69413 8.54917 9.70118 8.51526 9.70419C8.47326 9.70419 8.35267 9.63577 8.35267 9.66218C8.32446 9.72873 8.28927 9.7921 8.24767 9.85121C8.24767 9.85121 8.18767 9.86141 8.16368 9.83501C8.13968 9.8086 8.10368 9.75639 8.08508 9.775C8.06648 9.7936 7.98548 9.83801 7.97529 9.84881C7.96509 9.85961 7.95429 9.83801 7.90689 9.88541C7.85949 9.93282 7.79709 9.97423 7.79709 10.0318C7.79709 10.0894 7.6867 10.1519 7.6399 10.1519C7.5931 10.1519 7.48751 10.1573 7.53971 10.2119C7.5919 10.2665 7.47191 10.3115 7.47191 10.3481C7.47191 10.3847 7.49351 10.4111 7.44551 10.4111C7.39751 10.4111 7.35132 10.4531 7.27812 10.4321C7.20492 10.4111 7.09813 10.3901 7.09813 10.3901C7.09813 10.3901 7.08793 10.3691 7.03813 10.3691C6.98833 10.3691 6.87014 10.4165 6.82274 10.3691C6.77535 10.3217 6.79154 10.3061 6.72855 10.2749C6.66555 10.2437 6.62355 10.1699 6.54856 10.2221C6.48816 10.2769 6.41649 10.3179 6.33857 10.3421C6.29117 10.3421 6.22817 10.3577 6.22817 10.4021C6.22817 10.4465 6.19157 10.4705 6.13878 10.4861C6.08598 10.5017 6.02898 10.5461 6.06018 10.6115C6.09138 10.6769 5.98698 10.7315 6.00018 10.7795C6.01992 10.8351 6.05238 10.8852 6.09498 10.926C6.13218 10.9626 6.05838 11.031 6.16278 11.0622C6.26717 11.0934 6.33077 11.0622 6.40936 11.094C6.46566 11.1062 6.51905 11.1292 6.56656 11.1618C6.62624 11.1981 6.69216 11.2229 6.76095 11.235C6.76095 11.235 6.88634 11.3346 6.88634 11.361C6.88634 11.3874 6.89714 11.3766 6.83954 11.4342C6.78546 11.4991 6.73803 11.5693 6.69795 11.6437C6.69795 11.6437 6.67695 11.8063 6.71895 11.8483C6.76095 11.8903 6.74475 11.9947 6.74475 12.0211C6.74475 12.0475 6.65655 12.0811 6.68475 12.1099C6.71295 12.1388 6.74475 12.2048 6.77415 12.23C6.80354 12.2552 6.74295 12.2618 6.81674 12.335C6.86749 12.385 6.92909 12.4225 6.99673 12.4448C7.0822 12.47 7.16232 12.5107 7.23312 12.5648C7.27935 12.6074 7.30891 12.665 7.31652 12.7274C7.33688 12.7895 7.37283 12.8453 7.42091 12.8895C7.44251 12.9105 7.39511 12.9843 7.42091 13.0155C7.44671 13.0467 7.53671 13.0257 7.53671 13.0521C7.53671 13.0785 7.41671 13.1121 7.52051 13.1673C7.6243 13.2225 7.6099 13.1937 7.6525 13.2357C7.67305 13.2513 7.68884 13.2723 7.69806 13.2964C7.70729 13.3204 7.70959 13.3466 7.7047 13.3719C7.6939 13.4139 7.6153 13.4553 7.6153 13.4872C7.61762 13.5401 7.63581 13.5911 7.6675 13.6336C7.6993 13.6654 7.6993 13.6234 7.7413 13.66C7.77146 13.7254 7.78407 13.7976 7.7779 13.8694C7.7779 13.9222 7.7359 13.9636 7.7779 14.0056C7.81989 14.0476 7.78269 14.1419 7.81989 14.1737C7.85709 14.2055 7.81449 14.2469 7.90329 14.2625C7.96797 14.268 8.033 14.268 8.09768 14.2625C8.14988 14.2625 8.16068 14.2835 8.20747 14.2835C8.27423 14.2705 8.3394 14.2504 8.40186 14.2235C8.47506 14.2025 8.49606 14.1293 8.55366 14.2235C8.61125 14.3177 8.56386 14.3387 8.66405 14.3651C8.76425 14.3915 8.86324 14.3651 8.88424 14.4173C8.90524 14.4695 8.90464 14.5373 8.93644 14.5691C8.96824 14.6009 8.99643 14.5223 9.09363 14.5847C9.19082 14.6471 9.18303 14.6057 9.25622 14.6741C9.32942 14.7425 9.5862 15.0096 9.639 15.0618C9.6918 15.114 9.6912 15.1668 9.7542 15.2346C9.81719 15.3024 9.84359 15.2346 9.82259 15.3498C9.80159 15.4651 9.7494 15.4813 9.82259 15.5593C9.89579 15.6373 9.88259 15.7327 9.91139 15.7693C9.94019 15.8059 10.0266 15.9889 10.0008 16.0153C9.97499 16.0417 9.93239 16.0465 9.95339 16.1047C9.97439 16.163 9.92219 16.2248 9.93779 16.2878C9.95339 16.3508 9.92219 16.3928 9.96899 16.4348C10.0158 16.4768 10.0644 16.4948 10.1262 16.55C10.188 16.6052 10.2216 16.61 10.2216 16.691C10.2216 16.772 10.1016 16.8273 10.2156 16.9743C10.3296 17.1213 10.3884 17.2047 10.4148 17.2311C10.4412 17.2575 10.4358 17.3253 10.4358 17.3253C10.4358 17.3253 10.3626 17.3517 10.3836 17.3727C10.4046 17.3937 10.4436 17.4826 10.4148 17.509C10.3731 17.55 10.3362 17.5957 10.305 17.6452C10.305 17.6608 10.242 17.6974 10.2264 17.7052C10.1957 17.741 10.1622 17.7744 10.1262 17.8048C10.11 17.8385 10.1021 17.8755 10.103 17.9129C10.1039 17.9502 10.1137 17.9868 10.1316 18.0196C10.1844 18.0982 10.2312 18.1301 10.2576 18.1823C10.284 18.2345 10.2156 18.2711 10.3098 18.2711C10.404 18.2711 10.3788 18.2609 10.4412 18.2345C10.5036 18.2081 10.53 18.1511 10.5612 18.1511C10.5993 18.1566 10.6345 18.175 10.6608 18.2033C10.6866 18.2297 10.6973 18.2711 10.7285 18.2711C10.7882 18.2745 10.8478 18.2638 10.9025 18.2399C10.9907 18.2033 10.9121 18.1799 11.0747 18.1199C11.2373 18.0598 11.2169 18.0598 11.2427 17.9998C11.2685 17.9398 11.3027 17.8798 11.3627 17.8798C11.4227 17.8798 11.3993 17.7538 11.4305 17.7538C11.4617 17.7538 11.5307 17.7274 11.4671 17.6938C11.417 17.6614 11.3698 17.6246 11.3261 17.584C11.3286 17.5311 11.3356 17.4784 11.3471 17.4267C11.3627 17.3667 11.3153 17.3427 11.3153 17.2953C11.3153 17.2479 11.2787 17.1909 11.2787 17.1381V16.9809C11.2787 16.9605 11.1893 16.8975 11.2523 16.8291C11.3153 16.7606 11.3123 16.7246 11.3123 16.7246C11.3156 16.6396 11.3408 16.5569 11.3855 16.4846C11.4455 16.4246 11.3807 16.385 11.4905 16.3484C11.5467 16.3177 11.6102 16.3032 11.6741 16.3064C11.7459 16.2981 11.8117 16.2624 11.8577 16.2068C11.8997 16.16 11.8889 16.1648 11.9675 16.1648C12.0461 16.1648 12.0725 16.1912 12.1409 16.1648C12.1723 16.1526 12.2011 16.1343 12.2254 16.1109C12.2497 16.0875 12.2691 16.0595 12.2825 16.0285C12.2825 16.0075 12.4025 15.7927 12.5285 15.8137C12.6545 15.8347 12.6179 15.9187 12.7486 15.8299C12.8794 15.7411 12.7696 15.6463 12.9796 15.6463C13.1896 15.6463 13.1842 15.6355 13.294 15.5677C13.4038 15.4999 13.3726 15.4476 13.4512 15.4104C13.5608 15.3557 13.6748 15.3101 13.792 15.2742C13.8286 15.2742 13.8448 15.3342 13.8874 15.3342C13.93 15.3342 13.9474 15.2868 14.0446 15.3498C14.1418 15.4128 14.065 15.4494 14.1538 15.5335C14.2426 15.6175 14.311 15.5701 14.3272 15.6799C14.3381 15.7588 14.3582 15.8361 14.3872 15.9103C14.4238 15.9889 14.3272 16.0465 14.3872 16.1095C14.4323 16.1561 14.4908 16.1874 14.5546 16.199C14.69 16.2066 14.8258 16.1959 14.9583 16.1672C14.9907 16.136 14.9217 16.0051 15.0057 16.0885C15.0897 16.172 15.1155 16.1624 15.1419 16.1414C15.1683 16.1203 15.0819 15.9103 15.0579 15.8845C15.048 15.8491 15.0462 15.8118 15.0527 15.7756C15.0591 15.7393 15.0736 15.705 15.0951 15.6751C15.1308 15.644 15.1547 15.6017 15.1629 15.5551C15.1629 15.5341 15.0789 15.366 15.2259 15.2982C15.3729 15.2304 15.3411 15.267 15.3885 15.2196C15.4359 15.1722 15.4197 15.1254 15.4881 15.057C15.5565 14.9886 15.5769 14.9628 15.5769 14.9628C15.5769 14.9628 15.6555 14.895 15.7083 14.9262C15.7611 14.9574 15.6927 15.036 15.8133 15.036C15.8363 15.0353 15.8589 15.0297 15.8795 15.0195C15.9001 15.0093 15.9182 14.9947 15.9327 14.9768C15.9471 14.9589 15.9575 14.9381 15.9631 14.9157C15.9687 14.8934 15.9693 14.8702 15.9651 14.8476C15.9495 14.7689 15.8919 14.7323 15.9651 14.6957C16.0383 14.6591 16.0125 14.6429 16.0755 14.6429C16.1385 14.6429 16.1853 14.6015 16.2273 14.6381C16.2693 14.6747 16.2873 14.7059 16.3425 14.7059C16.3977 14.7059 16.3479 14.826 16.4265 14.8686C16.5051 14.9112 16.6155 14.9364 16.6467 14.9052C16.6779 14.874 16.6989 14.9652 16.7462 14.8842C16.7936 14.8032 16.757 14.7797 16.8062 14.7269C16.8179 14.7192 16.8274 14.7086 16.834 14.6963C16.8406 14.6839 16.844 14.6701 16.844 14.6561C16.844 14.6421 16.8406 14.6283 16.834 14.616C16.8274 14.6036 16.8179 14.5931 16.8062 14.5853C16.7782 14.5455 16.7635 14.4978 16.7642 14.4491C16.7642 14.4491 16.7043 14.3501 16.6857 14.3657C16.6671 14.3813 16.6707 14.4443 16.6179 14.3969C16.5651 14.3495 16.5231 14.3447 16.5231 14.2973C16.5231 14.2499 16.4763 14.2085 16.4919 14.1665C16.5059 14.1296 16.5132 14.0906 16.5135 14.0512L16.5861 13.9042C16.5861 13.9042 16.6389 13.8574 16.6647 13.8832C16.6905 13.909 16.7246 13.999 16.7642 13.9252C16.8038 13.8514 16.8008 13.7368 16.88 13.768C16.9592 13.7992 16.9328 13.828 16.9898 13.828C17.0468 13.828 17.09 13.8544 17.1422 13.8022C17.1944 13.75 17.1212 13.7236 17.2208 13.6222C17.3204 13.5208 17.378 13.5436 17.336 13.4752C17.294 13.4067 17.2364 13.3809 17.2364 13.3389C17.2364 13.2969 17.1524 13.0989 17.1836 13.0665C17.2148 13.0341 17.3306 13.0617 17.399 12.9933C17.4674 12.9249 17.441 12.9093 17.4986 12.8571C17.5562 12.8049 17.6084 12.7418 17.6186 12.731C17.6265 12.7064 17.6389 12.6834 17.6552 12.6632C17.6762 12.6368 17.6024 12.4958 17.6552 12.4958C17.708 12.4958 17.6288 12.4118 17.681 12.3644C17.7263 12.3262 17.7778 12.2961 17.8334 12.2756H17.9486C17.9598 12.2312 17.9776 12.1887 18.0014 12.1496C18.0221 12.0599 18.0221 11.9667 18.0014 11.8771C17.9777 11.8463 17.9576 11.8129 17.9414 11.7775L18.0566 11.7097L18.1166 11.6497L18.1958 11.5711C18.2108 11.5555 18.1586 11.5027 18.2216 11.5027C18.2846 11.5027 18.3476 11.5393 18.3476 11.4426C18.3522 11.4143 18.349 11.3852 18.3384 11.3585C18.3279 11.3318 18.3103 11.3084 18.2876 11.2908C18.251 11.2488 18.1568 11.16 18.1418 11.139C18.1268 11.118 18.0518 11.0394 18.0416 11.0292C18.0314 11.019 17.9816 11.013 17.942 11.0184C17.9024 11.0238 17.732 10.992 17.7164 11.0028C17.7008 11.0136 17.6378 11.0292 17.6378 11.0814C17.6399 11.0993 17.6382 11.1175 17.6327 11.1347C17.6272 11.1518 17.6181 11.1676 17.606 11.181C17.585 11.202 17.546 11.2488 17.5064 11.2488C17.4668 11.2488 17.3966 11.2332 17.381 11.1966C17.3645 11.1555 17.3505 11.1134 17.339 11.0706C17.339 11.0496 17.3228 10.9818 17.2652 10.9974C17.2123 11.0152 17.1566 11.0232 17.1008 11.0208C17.1008 11.0208 16.9958 10.9998 16.9754 10.9608C16.9643 10.9232 16.9589 10.8842 16.9592 10.845L16.8548 10.7405C16.8498 10.7269 16.8403 10.7153 16.8279 10.7077C16.8155 10.7001 16.8009 10.6968 16.7864 10.6985C16.7264 10.6985 16.6665 10.7195 16.6395 10.7195C16.6031 10.7139 16.566 10.7139 16.5297 10.7195C16.4769 10.7297 16.3881 10.6595 16.3671 10.6409C16.3461 10.6223 16.2099 10.6145 16.2099 10.6145C16.2099 10.6145 16.1313 10.5623 16.0995 10.5935C16.0677 10.6247 15.9795 10.6409 15.9795 10.6043C15.9806 10.591 15.9781 10.5776 15.9721 10.5656C15.9661 10.5536 15.9569 10.5436 15.9455 10.5365C15.9342 10.5294 15.9211 10.5256 15.9077 10.5255C15.8943 10.5254 15.8812 10.529 15.8697 10.5359C15.8091 10.5612 15.7456 10.5789 15.6807 10.5887C15.6339 10.5887 15.5499 10.5725 15.5499 10.5203C15.5499 10.4681 15.6021 10.4315 15.6339 10.4051C15.6657 10.3787 15.6939 10.3739 15.6939 10.3451C15.6939 10.3163 15.6519 10.2983 15.6735 10.2665C15.6902 10.2231 15.6972 10.1766 15.6939 10.1302C15.6939 10.099 15.7359 10.057 15.7539 10.0414C15.7719 10.0258 15.8169 10.0258 15.8169 10.0258C15.8169 10.0258 15.8637 9.93642 15.8169 9.91002C15.7701 9.88361 15.7959 9.8212 15.8061 9.7948C15.8163 9.7684 15.7959 9.75339 15.8331 9.71619C15.8703 9.67898 15.8217 9.66938 15.8931 9.64298C15.9645 9.61657 15.9615 9.58297 15.9405 9.53316C15.8927 9.47969 15.8278 9.44448 15.7569 9.43355C15.7251 9.43355 15.6621 9.47555 15.6369 9.47555C15.5999 9.47886 15.5629 9.46955 15.5319 9.44915C15.5055 9.42274 15.4719 9.36514 15.4425 9.38134C15.4131 9.39754 15.3429 9.37594 15.3429 9.34953C15.3429 9.32313 15.3303 9.24452 15.3045 9.24452C15.2787 9.24452 15.0363 9.1605 15.0045 9.19171C14.9727 9.22291 14.9445 9.33873 14.8845 9.27572C14.8405 9.22953 14.8016 9.17862 14.7687 9.1239L14.6746 9.02968C14.6484 8.99859 14.6281 8.96301 14.6146 8.92467C14.5993 8.89436 14.5758 8.86898 14.5468 8.85146C14.5468 8.85146 14.5516 8.80405 14.5516 8.78305C14.5516 8.76204 14.5102 8.71524 14.5258 8.67863C14.5414 8.64203 14.5306 8.64683 14.536 8.57362C14.5414 8.5004 14.5102 8.4896 14.5102 8.4428C14.5102 8.39599 14.4994 8.34318 14.4994 8.29037C14.4994 8.23757 14.4394 8.19136 14.4208 8.17516C14.4022 8.15895 14.3476 8.13375 14.3266 8.14935C14.3056 8.16495 14.2738 8.16495 14.2666 8.21716C14.2594 8.26937 14.188 8.31138 14.167 8.29037C14.146 8.26937 14.0932 8.24357 14.0932 8.21716C14.0878 8.19092 14.0772 8.16602 14.062 8.14395C14.062 8.14395 14.083 8.06534 14.0254 8.03413C13.9678 8.00293 13.9312 8.00233 13.942 7.95012C13.9523 7.90165 13.9523 7.85157 13.942 7.8031C13.9312 7.76169 13.8784 7.71429 13.8784 7.68308C13.8784 7.65188 13.9048 7.63568 13.9204 7.59367C13.936 7.55166 13.999 7.52046 13.9522 7.47365C13.9178 7.43956 13.8861 7.40285 13.8574 7.36383C13.831 7.34283 13.7476 7.31163 13.7266 7.33263C13.7056 7.35363 13.6318 7.29062 13.6162 7.25882C13.6006 7.22701 13.5562 7.17 13.5274 7.21201C13.4986 7.25402 13.5064 7.29602 13.4536 7.32723C13.4044 7.35435 13.3537 7.37879 13.3018 7.40044C13.2862 7.40044 13.2076 7.30623 13.2076 7.30623C13.1768 7.2722 13.1417 7.24234 13.1032 7.21741C13.066 7.20121 12.9874 7.149 12.9712 7.149C12.955 7.149 12.7672 7.149 12.736 7.18021C12.7048 7.21141 12.6623 7.24862 12.6623 7.24862C12.6239 7.23477 12.5869 7.21728 12.5519 7.19641C12.5267 7.18021 12.4319 7.1646 12.4319 7.128C12.4319 7.09139 12.4061 7.03919 12.3719 7.03919C12.3377 7.03919 12.3119 6.98638 12.2561 6.98638C12.2037 6.97675 12.1548 6.95334 12.1145 6.91857C12.1043 6.90296 11.9525 6.91857 11.9525 6.91857C11.9525 6.91857 11.8925 6.85016 11.8523 6.85016C11.8121 6.85016 11.6795 6.85016 11.7323 6.79795C11.7851 6.74574 11.7923 6.70373 11.8271 6.70373C11.8619 6.70373 11.8487 6.69293 11.8637 6.64073C11.8787 6.58852 11.8637 6.53091 11.9237 6.53091C11.9577 6.53661 11.9926 6.53113 12.0233 6.51531C12.0755 6.4943 12.1433 6.39949 12.1019 6.35808C12.0622 6.32516 12.0201 6.29528 11.9759 6.26867C11.9603 6.25307 11.8607 6.16425 11.8607 6.12225C11.8607 6.08024 11.7665 6.06224 11.7665 6.02743C11.7665 5.99263 11.7191 5.98063 11.6669 5.99623C11.6147 6.01183 11.5091 5.98603 11.5307 6.04844C11.5523 6.11085 11.5985 6.14325 11.5565 6.15885C11.5145 6.17446 11.4467 6.15885 11.4305 6.17446C11.4143 6.19006 11.3417 6.08024 11.2889 6.13785C11.2519 6.17141 11.2069 6.19478 11.1581 6.20566C11.1581 6.20566 11.0849 6.15885 11.0741 6.16425C11.0633 6.16965 10.9541 6.19006 11.0141 6.25307" fill="#FFDE36"/>
</g>
</g>
<defs>
<clipPath id="clip0_266_46589">
<rect width="24" height="23.9988" fill="white"/>
</clipPath>
</defs>
</svg>
