<svg width="32" height="32" viewBox="0 0 32 32" fill="none" xmlns="http://www.w3.org/2000/svg">
<g clip-path="url(#clip0_266_47168)">
<mask id="mask0_266_47168" style="mask-type:luminance" maskUnits="userSpaceOnUse" x="0" y="0" width="32" height="32">
<path d="M16.0016 0H15.6464C11.8062 0.080004 9.83329 0.381619 8.006 1.01045C6.23786 1.61715 4.64637 2.65002 3.37217 4.0178C2.31401 5.2466 1.50361 6.66854 0.985649 8.20521C0.377322 10.1319 0.053887 12.1372 0.025601 14.1575C-3.30822e-07 14.952 0 15.0624 0 16.0016C0 16.9408 -3.30822e-07 17.0513 0.025601 17.8417C0.0539922 19.8622 0.377424 21.8678 0.985649 23.7948C1.50361 25.3315 2.31401 26.7534 3.37217 27.9822C4.6462 29.35 6.23776 30.3826 8.006 30.9888C9.83329 31.6176 11.8054 31.92 15.6464 31.9992H16.356C20.1962 31.9192 22.1691 31.6176 23.9972 30.9888C25.7652 30.3826 27.3565 29.35 28.6302 27.9822C29.6871 26.7542 30.4964 25.3334 31.0136 23.798C31.6226 21.8712 31.946 19.8655 31.9736 17.8449C32 17.0513 32 16.9416 32 16.0048C32 15.068 32 14.9551 31.9736 14.1607C31.9461 12.1404 31.6227 10.1349 31.0136 8.20841C30.4971 6.67076 29.6878 5.24768 28.6302 4.0178C27.3563 2.65003 25.7651 1.61715 23.9972 1.01045C22.1691 0.377619 20.1978 0.079204 16.356 0H16.0016Z" fill="white"/>
</mask>
<g mask="url(#mask0_266_47168)">
<path d="M42.8813 -0.662598H-7.14838V32.6647H42.8813V-0.662598Z" fill="#FF3C30"/>
<path d="M42.8813 11.8028H15.4768V-0.662598H6.59631V11.8028H-7.14838V20.0896H6.59631V32.6647H15.4768V20.0896H42.8813V11.8028Z" fill="white"/>
<path d="M42.8813 13.7709H13.3991V-0.662598H8.67882V13.7709H-7.14838V18.2344H8.67482V32.6647H13.3951V18.2344H42.8813V13.7709Z" fill="#00357B"/>
</g>
</g>
<defs>
<clipPath id="clip0_266_47168">
<rect width="32" height="31.9992" fill="white"/>
</clipPath>
</defs>
</svg>
