<svg width="32" height="32" viewBox="0 0 32 32" fill="none" xmlns="http://www.w3.org/2000/svg">
<g clip-path="url(#clip0_266_47424)">
<mask id="mask0_266_47424" style="mask-type:luminance" maskUnits="userSpaceOnUse" x="0" y="0" width="32" height="32">
<path d="M16.0008 0H15.6456C11.8056 0.08 9.8328 0.3816 8.0056 1.0112C6.23765 1.61729 4.64623 2.64957 3.372 4.0168C2.31388 5.24613 1.50353 6.66852 0.9856 8.2056C0.377278 10.1317 0.0538572 12.1363 0.0256001 14.156C5.06639e-08 14.9504 0 15.0608 0 16.0008C0 16.9408 5.06639e-08 17.0496 0.0256001 17.8408C0.0538847 19.861 0.377303 21.8662 0.9856 23.7928C1.50334 25.3309 2.31369 26.7544 3.372 27.9848C4.64644 29.3518 6.2378 30.384 8.0056 30.9904C9.8328 31.62 11.8056 31.9224 15.6456 32H16.3552C20.1952 31.92 22.168 31.62 23.9952 30.9904C25.7631 30.3838 27.3547 29.3516 28.6296 27.9848C29.6875 26.755 30.4973 25.332 31.0144 23.7944C31.6234 21.8679 31.9468 19.8626 31.9744 17.8424C32 17.048 32 16.9384 32 16.0024C32 15.0664 32 14.952 31.9744 14.1576C31.9468 12.1379 31.6234 10.1331 31.0144 8.2072C30.4974 6.67006 29.6875 5.24761 28.6296 4.0184C27.3549 2.65131 25.7633 1.61907 23.9952 1.0128C22.168 0.3832 20.1968 0.0808 16.3552 0.00159998L16.0008 0Z" fill="white"/>
</mask>
<g mask="url(#mask0_266_47424)">
<path d="M48.7928 -1.24561H-2.97998V33.2456H48.7928V-1.24561Z" fill="#FF0811"/>
<path d="M48.7928 4.53271H-2.97998V27.4695H48.7928V4.53271Z" fill="white"/>
<path d="M48.7928 10.2168H-2.97998V21.784H48.7928V10.2168Z" fill="#001E81"/>
</g>
</g>
<defs>
<clipPath id="clip0_266_47424">
<rect width="32" height="32" fill="white"/>
</clipPath>
</defs>
</svg>
