<svg width="24" height="24" viewBox="0 0 24 24" fill="none" xmlns="http://www.w3.org/2000/svg">
<g clip-path="url(#clip0_266_45557)">
<mask id="mask0_266_45557" style="mask-type:luminance" maskUnits="userSpaceOnUse" x="0" y="0" width="24" height="24">
<path d="M12 0H11.7342C8.8542 0.060012 7.3746 0.286857 6.0042 0.758552C4.6781 1.21328 3.48435 1.98762 2.5284 3.0132C1.73471 3.93499 1.12711 5.00186 0.7392 6.15483C0.282374 7.60015 0.039796 9.10464 0.0192003 10.6203C3.241e-07 11.2156 0 11.2985 0 12.0006C0 12.7027 3.241e-07 12.788 0.0192003 13.3809C0.0398095 14.8962 0.282388 16.4003 0.7392 17.8452C1.12683 18.9983 1.73446 20.0652 2.5284 20.9868C3.48412 22.0129 4.67791 22.7877 6.0042 23.2426C7.3746 23.7137 8.853 23.94 11.7342 24H12.2658C15.1458 23.94 16.6254 23.7137 17.9958 23.2426C19.3221 22.7877 20.5159 22.0129 21.4716 20.9868C22.2655 20.0652 22.8732 18.9983 23.2608 17.8452C23.7173 16.4002 23.9599 14.8961 23.9808 13.3809C24 12.7856 24 12.7027 24 12.0006C24 11.2985 24 11.2132 23.9808 10.6203C23.9599 9.10466 23.7173 7.60022 23.2608 6.15483C22.8729 5.00186 22.2653 3.93499 21.4716 3.0132C20.5156 1.98762 19.3219 1.21328 17.9958 0.758552C16.6248 0.288058 15.1464 0.060012 12.2652 0H12Z" fill="white"/>
</mask>
<g mask="url(#mask0_266_45557)">
<path d="M39.0684 -1.14014H-5.33997V24.7484H39.0684V-1.14014Z" fill="white"/>
<path fill-rule="evenodd" clip-rule="evenodd" d="M6.0708 -1.14014L12.5508 1.44818L6.0708 4.0365L12.5508 6.62722L6.0708 9.21494L12.5508 11.8027L6.0708 14.3934L12.5508 16.9811L6.0708 19.57L12.5508 22.1607L6.0708 24.7484H39.0708V-1.14014H6.0708Z" fill="#BC0030"/>
<path d="M12.2559 0.5L13.2637 0.530273C15.4684 0.619079 16.697 0.839345 17.835 1.23047V1.22949C19.0766 1.65684 20.1941 2.38274 21.0908 3.3418H21.0918C21.7493 4.10497 22.2721 4.97309 22.6387 5.90918L22.7861 6.31543C23.2262 7.7108 23.4605 9.16294 23.4805 10.626V10.6357C23.5 11.224 23.5 11.303 23.5 12.002C23.5 12.3515 23.5005 12.5457 23.498 12.7256L23.4805 13.3662V13.376C23.4605 14.8393 23.2263 16.2918 22.7861 17.6875C22.4201 18.7753 21.8475 19.7819 21.0996 20.6523C20.2008 21.6149 19.0796 22.342 17.834 22.7695H17.833C16.5344 23.2165 15.1146 23.4404 12.2559 23.5H11.7451C9.24305 23.4484 7.84375 23.2709 6.66309 22.9277L6.16797 22.7695C4.92609 22.3434 3.80733 21.6196 2.91016 20.6611C2.15756 19.788 1.58086 18.7771 1.21289 17.6846C0.773039 16.2889 0.539716 14.8363 0.519531 13.373L0.518555 13.3643L0.501953 12.7246C0.499596 12.5447 0.5 12.3503 0.5 12C0.5 11.2991 0.499793 11.2226 0.520508 10.6348V10.624C0.540743 9.16075 0.774933 7.70817 1.21484 6.3125C1.53675 5.35765 2.01804 4.46553 2.63672 3.67285L2.91016 3.33887C3.75105 2.44042 4.78641 1.74782 5.93555 1.31348L6.16797 1.23047C7.30423 0.839396 8.5336 0.619085 10.7383 0.530273L11.7451 0.5H12.2559Z" stroke="#F6F6F6"/>
</g>
</g>
<defs>
<clipPath id="clip0_266_45557">
<rect width="24" height="24" fill="white"/>
</clipPath>
</defs>
</svg>
