<svg width="24" height="24" viewBox="0 0 24 24" fill="none" xmlns="http://www.w3.org/2000/svg">
<g clip-path="url(#clip0_266_46968)">
<mask id="mask0_266_46968" style="mask-type:luminance" maskUnits="userSpaceOnUse" x="0" y="0" width="24" height="24">
<path d="M12.0006 0H11.7348C8.85464 0.060003 7.37377 0.285614 6.0039 0.756638C4.678 1.21267 3.48452 1.98765 2.52853 3.01335C1.73484 3.93525 1.12722 5.00215 0.739237 6.15511C0.28268 7.59987 0.0400956 9.10369 0.0192009 10.6187C-1.5647e-08 11.2146 0 11.2968 0 12.0018C0 12.7068 -1.5647e-08 12.7884 0.0192009 13.3819C0.0403142 14.8973 0.282892 16.4015 0.739237 17.8467C1.12743 18.999 1.73504 20.0653 2.52853 20.9867C3.48405 22.0125 4.67772 22.787 6.0039 23.2416C7.37377 23.7138 8.85284 23.94 11.7348 23.9994H12.2658C15.146 23.9394 16.6262 23.7138 17.9967 23.2416C19.323 22.7868 20.5168 22.0124 21.4727 20.9867C22.2659 20.0652 22.8733 18.999 23.2614 17.8467C23.7174 16.4014 23.96 14.8973 23.9814 13.3819C24 12.786 24 12.7044 24 12.0018C24 11.2992 24 11.2146 23.9814 10.6187C23.9602 9.10372 23.7176 7.59994 23.2614 6.15511C22.8736 5.0022 22.2661 3.9353 21.4727 3.01335C20.5162 1.98821 19.3226 1.21369 17.9967 0.757838C16.6262 0.285614 15.1478 0.059403 12.2658 0H12.0006Z" fill="white"/>
</mask>
<g mask="url(#mask0_266_46968)">
<path d="M41.3161 -0.166748H-0.287598V7.91626H41.3161V-0.166748Z" fill="#C0003B"/>
<path d="M41.3161 7.91577H-0.287598V16H41.3161V7.91577Z" fill="white"/>
<path d="M41.3161 15.9998H-0.287598V24.0828H41.3161V15.9998Z" fill="black"/>
<path fill-rule="evenodd" clip-rule="evenodd" d="M-0.287598 -0.166748V24.0829L15.8916 11.9581L-0.287598 -0.166748Z" fill="#2F742E"/>
</g>
</g>
<defs>
<clipPath id="clip0_266_46968">
<rect width="24" height="23.9994" fill="white"/>
</clipPath>
</defs>
</svg>
