<svg width="24" height="24" viewBox="0 0 24 24" fill="none" xmlns="http://www.w3.org/2000/svg">
<g clip-path="url(#clip0_266_45591)">
<mask id="mask0_266_45591" style="mask-type:luminance" maskUnits="userSpaceOnUse" x="0" y="0" width="24" height="24">
<path d="M12.0009 0H11.7352C8.85581 0.06 7.37654 0.2868 6.00585 0.759C4.68032 1.2135 3.48721 1.98773 2.53203 3.0132C1.73701 3.93434 1.12829 5.00106 0.739633 6.1542C0.282975 7.59884 0.0404512 9.10262 0.019795 10.6176C-5.76545e-07 11.2134 0 11.2962 0 12.0012C0 12.7062 -5.76545e-07 12.7872 0.019795 13.3812C0.0403878 14.8968 0.282911 16.4012 0.739633 17.8464C1.12765 18.9992 1.73532 20.0658 2.52903 20.9874C3.48437 22.0127 4.67743 22.7869 6.00285 23.2416C7.37354 23.7138 8.85161 23.9406 11.7322 23.9994H12.2642C15.1436 23.9394 16.6229 23.7138 17.993 23.2416C19.3186 22.787 20.5119 22.0128 21.4674 20.9874C22.2619 20.0659 22.8706 18.9993 23.2598 17.8464C23.7162 16.4013 23.9587 14.8972 23.9796 13.3818C24 12.786 24 12.7038 24 12.0018C24 11.2998 24 11.214 23.9796 10.6182C23.9587 9.10324 23.7162 7.5995 23.2598 6.1548C22.8718 5.002 22.2641 3.93534 21.4704 3.0138C20.5151 1.98819 19.3217 1.21394 17.996 0.7596C16.6259 0.2874 15.1472 0.0606 12.2672 0.000599957L12.0009 0Z" fill="white"/>
</mask>
<g mask="url(#mask0_266_45591)">
<path d="M42.4265 22.884H-1.20044V24.699H42.4265V22.884Z" fill="white"/>
<path d="M42.0252 0.111572H-3.77148V2.02077H42.0252V0.111572Z" fill="#D80031"/>
<path d="M42.0252 2.02075H-3.77148V3.92695H42.0252V2.02075Z" fill="white"/>
<path d="M42.0252 3.927H-3.77148V5.8356H42.0252V3.927Z" fill="#D80031"/>
<path d="M42.0252 5.83545H-3.77148V7.74165H42.0252V5.83545Z" fill="white"/>
<path d="M42.0252 7.7417H-3.77148V9.6491H42.0252V7.7417Z" fill="#D80031"/>
<path d="M42.0252 9.64917H-3.77148V11.5566H42.0252V9.64917Z" fill="white"/>
<path d="M42.0252 11.5566H-3.77148V13.4628H42.0252V11.5566Z" fill="#D80031"/>
<path d="M42.0252 13.4619H-3.77148V15.3705H42.0252V13.4619Z" fill="white"/>
<path d="M42.0252 15.3713H-3.77148V17.2763H42.0252V15.3713Z" fill="#D80031"/>
<path d="M42.0252 17.2756H-3.77148V19.1842H42.0252V17.2756Z" fill="white"/>
<path d="M42.0252 19.1843H-3.77148V21.0917H42.0252V19.1843Z" fill="#D80031"/>
<path d="M42.0252 21.0918H-3.77148V22.9992H42.0252V21.0918Z" fill="white"/>
<path d="M42.0252 22.999H-3.77148V24.9064H42.0252V22.999Z" fill="#D80031"/>
<path d="M13.8988 -3.99365H-12.8174V11.2661H13.8988V-3.99365Z" fill="#2530A9"/>
<path fill-rule="evenodd" clip-rule="evenodd" d="M5.08855 7.27067C5.08907 6.75017 5.22825 6.2392 5.49176 5.79036C5.75526 5.34151 6.13358 4.97101 6.58778 4.71697C7.04198 4.46293 7.55565 4.33453 8.07594 4.34499C8.59622 4.35545 9.10432 4.50438 9.54795 4.77647C9.06671 4.34649 8.47136 4.06499 7.83372 3.96591C7.19609 3.86683 6.54341 3.95442 5.95444 4.2181C5.36546 4.48179 4.86535 4.9103 4.51444 5.45195C4.16353 5.9936 3.97681 6.62524 3.97681 7.27067C3.97681 7.9161 4.16353 8.54774 4.51444 9.08939C4.86535 9.63104 5.36546 10.0596 5.95444 10.3232C6.54341 10.5869 7.19609 10.6745 7.83372 10.5754C8.47136 10.4764 9.06671 10.1948 9.54795 9.76487C9.10432 10.037 8.59622 10.1859 8.07594 10.1964C7.55565 10.2068 7.04198 10.0784 6.58778 9.82438C6.13358 9.57034 5.75526 9.19983 5.49176 8.75099C5.22825 8.30214 5.08907 7.79118 5.08855 7.27067Z" fill="#F5D028"/>
<path fill-rule="evenodd" clip-rule="evenodd" d="M11.7819 7.27087L13.3847 6.65047L11.6709 6.78787L12.846 5.53387L11.3614 6.39967L11.876 4.75927L10.9163 6.18427L10.6679 4.48267L10.488 5.70187L10.437 6.05347L10.4172 6.18427L9.45739 4.75927L9.97268 6.39967L8.48801 5.53387L9.66254 6.78787L7.94873 6.65047L9.55277 7.27087L7.94873 7.89067L9.66254 7.75507L8.48801 9.00907L9.97268 8.14207L9.45559 9.78247L10.4154 8.35807L10.4352 8.48827L10.4862 8.83987L10.6661 10.0585L10.9145 8.35807L11.8742 9.78247L11.3596 8.14207L12.8442 9.00907L11.6691 7.75507L13.3829 7.89067L11.7819 7.27087Z" fill="#F5D028"/>
</g>
</g>
<defs>
<clipPath id="clip0_266_45591">
<rect width="24" height="23.9994" fill="white"/>
</clipPath>
</defs>
</svg>
