<svg width="28" height="28" viewBox="0 0 28 28" fill="none" xmlns="http://www.w3.org/2000/svg">
<path d="M21.674 26.0001H6.32501C5.45328 26.0091 4.61355 25.6721 3.99002 25.0628C3.36649 24.4535 3.0101 23.6218 2.99902 22.7501V7.75005C3.00007 7.65043 3.02074 7.55198 3.05986 7.46035C3.09898 7.36872 3.1558 7.2857 3.22704 7.21604C3.29827 7.14638 3.38254 7.09145 3.47502 7.05439C3.56751 7.01733 3.66639 6.99887 3.76602 7.00005H24.235C24.3346 6.99887 24.4335 7.01733 24.526 7.05439C24.6185 7.09145 24.7028 7.14638 24.774 7.21604C24.8452 7.2857 24.9021 7.36872 24.9412 7.46035C24.9803 7.55198 25.001 7.65043 25.002 7.75005V22.7501C24.9909 23.6221 24.6343 24.4541 24.0103 25.0635C23.3864 25.6728 22.5461 26.0097 21.674 26.0001ZM4.53502 8.50005V22.7501C4.54108 23.2194 4.73303 23.6672 5.06877 23.9953C5.40451 24.3233 5.85664 24.5049 6.32602 24.5001H21.675C22.1444 24.5049 22.5965 24.3233 22.9323 23.9953C23.268 23.6672 23.46 23.2194 23.466 22.7501V8.50005H4.53502Z" fill="white"/>
<path d="M24.235 8.50001H3.76703C3.63711 8.50057 3.50916 8.46832 3.39501 8.40627C3.28086 8.34421 3.18421 8.25435 3.11403 8.14501C3.04539 8.03679 3.00615 7.91254 3.00019 7.78452C2.99423 7.6565 3.02175 7.52914 3.08004 7.41501L5.63804 2.41501C5.70332 2.28936 5.80199 2.18413 5.92319 2.11092C6.0444 2.0377 6.18343 1.99933 6.32503 2.00001H21.674C21.8156 1.99933 21.9547 2.0377 22.0759 2.11092C22.1971 2.18413 22.2958 2.28936 22.361 2.41501L24.919 7.41501C24.9773 7.52914 25.0049 7.6565 24.9989 7.78452C24.9929 7.91254 24.9537 8.03679 24.885 8.14501C24.8152 8.25399 24.7191 8.34363 24.6055 8.40567C24.4919 8.46771 24.3645 8.50015 24.235 8.50001ZM5.00904 7.00001H22.991L21.2 3.50001H6.80004L5.00904 7.00001Z" fill="white"/>
<path d="M14.0001 17.0001C12.8561 17.0088 11.7462 16.6117 10.8674 15.8793C9.98854 15.147 9.39778 14.1268 9.20006 13.0001H8.37207C8.17316 13.0001 7.98239 12.921 7.84174 12.7804C7.70108 12.6397 7.62207 12.449 7.62207 12.2501C7.62207 12.0511 7.70108 11.8604 7.84174 11.7197C7.98239 11.5791 8.17316 11.5001 8.37207 11.5001H9.90706C10.0067 11.4989 10.1056 11.5173 10.1981 11.5544C10.2905 11.5915 10.3748 11.6464 10.4461 11.716C10.5173 11.7857 10.5741 11.8687 10.6132 11.9604C10.6523 12.052 10.673 12.1504 10.6741 12.2501C10.6892 13.122 11.0462 13.9532 11.6682 14.5645C12.2902 15.1758 13.1274 15.5184 13.9996 15.5184C14.8717 15.5184 15.7089 15.1758 16.3309 14.5645C16.9529 13.9532 17.3099 13.122 17.3251 12.2501C17.3261 12.1504 17.3468 12.052 17.3859 11.9604C17.425 11.8687 17.4818 11.7857 17.5531 11.716C17.6243 11.6464 17.7086 11.5915 17.8011 11.5544C17.8936 11.5173 17.9924 11.4989 18.0921 11.5001H19.6271C19.826 11.5001 20.0167 11.5791 20.1574 11.7197C20.298 11.8604 20.3771 12.0511 20.3771 12.2501C20.3771 12.449 20.298 12.6397 20.1574 12.7804C20.0167 12.921 19.826 13.0001 19.6271 13.0001H18.7991C18.6014 14.1266 18.0108 15.1467 17.1322 15.879C16.2535 16.6113 15.1438 17.0085 14.0001 17.0001Z" fill="white"/>
</svg>
