<svg width="28" height="28" viewBox="0 0 28 28" fill="none" xmlns="http://www.w3.org/2000/svg">
<path d="M14.0325 3.5C13.4866 3.5 12.9071 3.66821 12.2623 4.01402L4.31045 8.95519C3.79409 9.45079 3.5 10.1623 3.5 10.9252V21.8726C3.5 23.3213 4.573 24.5 5.89189 24.5H22.1081C23.427 24.5 24.5 23.3213 24.5 21.8726V10.9252C24.5 10.1623 24.2059 9.45079 23.6895 8.95519L15.7228 4.00477C15.125 3.66516 14.5719 3.5 14.0325 3.5ZM14.0325 2C14.8404 2 15.6487 2.23259 16.4908 2.71602L24.5989 7.75426C25.4941 8.54044 26 9.6935 26 10.9252V21.8726C26 24.1525 24.2616 26 22.1081 26H5.89189C3.73838 26 2 24.1525 2 21.8726V10.9252C2 9.6935 2.50595 8.54044 3.40108 7.75426L11.5092 2.71602C12.3738 2.24526 13.203 2 14.0325 2Z" fill="white"/>
<path d="M8.99902 21H18.999" stroke="white" stroke-width="1.5" stroke-linecap="round"/>
</svg>
