<svg width="40" height="40" viewBox="0 0 40 40" fill="none" xmlns="http://www.w3.org/2000/svg">
<path d="M0 20C0 21.1694 0 21.3094 0.0300075 22.3089C0.060015 24.8276 0.470118 27.3363 1.23031 29.7451C1.88047 31.6642 2.89072 33.4433 4.21104 34.9825C5.80146 36.6918 7.79196 37.9811 10.0025 38.7407C12.2831 39.5304 14.7537 39.9 19.5549 40H20.4451C25.2463 39.9 27.7169 39.5204 29.9975 38.7407C32.208 37.9811 34.1985 36.6918 35.7889 34.9825C37.1093 33.4433 38.1296 31.6742 38.7696 29.7451C39.53 27.3363 39.94 24.8376 39.97 22.3089C40 21.3194 40 21.1794 40 20C40 18.8206 40 18.6906 39.97 17.7011C39.94 15.1824 39.53 12.6737 38.7696 10.2649C38.1196 8.34582 37.1093 6.56671 35.7889 5.0275C34.1985 3.31834 32.208 2.02899 29.9975 1.26936C27.7169 0.479761 25.2463 0.09995 20.4451 0H19.5549C14.7537 0.09995 12.2831 0.479761 10.0025 1.25937C7.79196 2.01899 5.80146 3.30835 4.21104 5.0175C2.89072 6.55671 1.87047 8.32582 1.23031 10.2549C0.470118 12.6737 0.0700175 15.1724 0.0300075 17.7011C0 18.6906 0 18.8306 0 20Z" fill="#DF007E"/>
<path d="M23.1246 13.4482L16.572 20.0054L23.1292 26.558L29.6818 20.0008L23.1246 13.4482Z" fill="white"/>
<path d="M15.3201 13.75H10.3201V18.75H15.3201V13.75Z" fill="white"/>
<path d="M15.3201 21.25H10.3201V26.25H15.3201V21.25Z" fill="white"/>
</svg>
