<svg width="56" height="56" viewBox="0 0 56 56" fill="none" xmlns="http://www.w3.org/2000/svg">
<path d="M0 28C0 29.6372 0 29.8331 0.0420105 31.2324C0.084021 34.7586 0.658165 38.2709 1.72243 41.6432C2.63266 44.3298 4.04701 46.8206 5.89545 48.9755C8.12205 51.3685 10.9088 53.1735 14.0035 54.237C17.1963 55.3425 20.6551 55.86 27.3769 56H28.6231C35.3448 55.86 38.8037 55.3285 41.9965 54.237C45.0912 53.1735 47.8779 51.3685 50.1045 48.9755C51.953 46.8206 53.3815 44.3438 54.2775 41.6432C55.342 38.2709 55.916 34.7726 55.958 31.2324C56 29.8471 56 29.6512 56 28C56 26.3489 56 26.1669 55.958 24.7816C55.916 21.2554 55.342 17.7432 54.2775 14.3708C53.3675 11.6841 51.953 9.1934 50.1045 7.0385C47.8779 4.64568 45.0912 2.84058 41.9965 1.77711C38.8037 0.671665 35.3448 0.13993 28.6231 0H27.3769C20.6551 0.13993 17.1963 0.671665 14.0035 1.76312C10.9088 2.82659 8.12205 4.63168 5.89545 7.0245C4.04701 9.1794 2.61865 11.6561 1.72243 14.3568C0.658165 17.7432 0.0980245 21.2414 0.0420105 24.7816C0 26.1669 0 26.3628 0 28Z" fill="#DF007E"/>
<path d="M32.3748 18.8232L23.2012 28.0032L32.3812 37.1769L41.5548 27.9968L32.3748 18.8232Z" fill="white"/>
<path d="M21.4485 19.25H14.4485V26.25H21.4485V19.25Z" fill="white"/>
<path d="M21.4485 29.75H14.4485V36.75H21.4485V29.75Z" fill="white"/>
</svg>
