<svg width="40" height="40" viewBox="0 0 40 40" fill="none" xmlns="http://www.w3.org/2000/svg">
<g clip-path="url(#clip0_266_65462)">
<path d="M0 20C0 21.1776 0 21.3084 0.0280636 22.3084C0.1029 24.5234 0.336763 27.0654 1.22544 29.7476C1.8522 31.6449 3.03087 33.6916 4.20954 34.9813C5.70629 36.6261 7.77361 37.9718 10.0094 38.7382C12.2919 39.5232 14.7615 39.9064 19.5603 40H20.449C25.2573 39.8971 27.7175 39.5232 30 38.7382C32.2358 37.9718 34.2938 36.6261 35.7904 34.9813C36.9693 33.6823 38.1479 31.6449 38.7746 29.7476C39.6632 27.0654 39.9064 24.514 39.9718 22.3084C40 21.3178 40 21.1776 40 20C40 18.8224 40 18.6916 39.9718 17.6916C39.8971 15.4766 39.6632 12.9346 38.7746 10.2523C38.1479 8.35514 36.9693 6.30839 35.7904 5.01868C34.2938 3.37383 32.2264 2.02804 30 1.26168C27.7175 0.476636 25.2479 0.0934579 20.449 0H19.5603C14.7521 0.102804 12.2919 0.476636 10.0094 1.26168C7.77361 2.02804 5.71561 3.37383 4.20954 5.01868C3.03087 6.31775 1.8522 8.35514 1.22544 10.2523C0.346118 12.9346 0.1029 15.4766 0.0280636 17.6916C0 18.6823 0 18.8224 0 20Z" fill="black"/>
<path d="M29.3887 31.0711L20.8833 8.94629H31.4286V31.0711H29.3887Z" fill="#FBAF17"/>
<path fill-rule="evenodd" clip-rule="evenodd" d="M24.9447 31.0535H27.0574L23.7973 22.3475C23.6577 22.0357 23.1963 21.4121 22.4677 21.4121H22.0671C21.7878 21.4121 21.1455 21.5992 20.8104 22.3475L17.5685 31.0535H19.663V31.0356L20.4826 28.7691H24.1252L24.9447 31.0535ZM22.3039 23.4448L21.029 27.1502H23.5788L22.3039 23.4448Z" fill="white"/>
<path d="M17.1497 18.5881V8.92871H18.4064C19.0984 8.92871 19.1531 9.39639 19.1713 9.70218V18.5881H17.1497Z" fill="white"/>
<path d="M8.57141 17.2926V8.94629H9.8463C10.4874 8.94629 10.6113 9.43797 10.5931 9.68379V16.9328H15.4559V18.5517H9.90095C8.86645 18.5517 8.58355 17.7123 8.57141 17.2926Z" fill="white"/>
<path fill-rule="evenodd" clip-rule="evenodd" d="M8.57141 31.0355V21.4229H9.83941H10.1377C10.4109 21.4229 10.6841 21.52 10.9027 21.9157L14.3558 27.56V21.43H15.6057C16.2941 21.43 16.3484 21.8954 16.3665 22.1997V31.0426H14.4542L14.3696 30.8974L10.6113 24.756V31.0355H8.57141Z" fill="white"/>
</g>
<defs>
<clipPath id="clip0_266_65462">
<rect width="40" height="40" fill="white"/>
</clipPath>
</defs>
</svg>
