<svg width="32" height="32" viewBox="0 0 32 32" fill="none" xmlns="http://www.w3.org/2000/svg">
<g clip-path="url(#clip0_266_65071)">
<path d="M0 16V17.84C0 19.84 0.32 21.84 0.96 23.76C1.44 25.28 2.32 26.72 3.36 27.92C4.64 29.28 6.24 30.32 8 30.96C9.84 31.6 11.76 31.92 15.6 32H16.32C20.16 32 22.16 31.6 24 30.96C25.76 30.32 27.36 29.36 28.64 27.92C29.68 26.72 30.48 25.28 31.04 23.76C31.68 21.84 32 19.84 32 17.84V14.16C32 12.16 31.68 10.16 31.04 8.24C30.56 6.72 29.68 5.28 28.64 4.08C27.36 2.72 25.76 1.68 24 1.04C22.16 0.4 20.24 0.08 16.4 0H15.68C11.84 0.08 9.84 0.4 8 1.04C6.24 1.68 4.64 2.64 3.36 4.08C2.32 5.28 1.52 6.72 0.96 8.24C0.4 10.16 0 12.16 0 14.16V16Z" fill="#7E7266"/>
<path d="M0 16V17.84C0 19.84 0.32 21.84 0.96 23.76C1.44 25.28 2.32 26.72 3.36 27.92C4.64 29.28 6.24 30.32 8 30.96C9.84 31.6 11.76 31.92 15.6 32H16.32C20.16 32 22.16 31.6 24 30.96C25.76 30.32 27.36 29.36 28.64 27.92C29.68 26.72 30.48 25.28 31.04 23.76C31.68 21.84 32 19.84 32 17.84V14.16C32 12.16 31.68 10.16 31.04 8.24C30.56 6.72 29.68 5.28 28.64 4.08C27.36 2.72 25.76 1.68 24 1.04C22.16 0.4 20.24 0.08 16.4 0H15.68C11.84 0.08 9.84 0.4 8 1.04C6.24 1.68 4.64 2.64 3.36 4.08C2.32 5.28 1.52 6.72 0.96 8.24C0.4 10.16 0 12.16 0 14.16V16Z" fill="#60584C"/>
<path d="M25.6001 16.1604H25.4401C24.8001 15.4404 23.8401 15.1204 22.9601 15.2804C22.1601 15.2804 21.4401 15.6004 20.8001 16.0004V14.2404C20.8001 13.9204 20.8001 13.6804 20.6401 13.4404C20.6401 13.4404 20.5601 13.3604 20.4801 13.3604C20.1601 13.3604 19.7601 13.5204 19.4401 13.6804V13.8404C19.4401 14.3204 19.2801 14.7204 19.2001 15.2004C19.0401 16.4804 19.0401 17.6004 19.2001 18.7204C19.2001 18.8004 19.4401 18.9604 19.5201 19.0404C19.8401 19.0404 20.1601 19.0404 20.4801 18.8804H20.5601C20.6401 18.8804 20.7201 18.8004 20.7201 18.7204V18.4004C20.9601 17.4404 21.7601 16.6404 22.8001 16.4004C23.2801 16.3204 23.8401 16.4004 24.1601 16.8004C24.2401 17.2804 24.1601 17.7604 23.9201 18.1604C23.6001 18.7204 23.0401 19.2004 22.4001 19.3604C21.6001 19.6004 20.8001 19.7604 20.0001 19.6804L19.1201 19.1204C18.3201 18.5604 17.5201 18.0004 16.6401 17.6004C16.4001 17.5204 16.2401 17.3604 16.0801 17.2004H16.0001C15.5201 16.7204 14.6401 16.1604 13.8401 15.6804L13.4401 15.4404C13.4401 15.3604 13.9201 15.0404 13.9201 15.0404C14.3201 14.8804 14.6401 14.6404 14.9601 14.4004H15.0401L16.6401 13.5204C18.1601 12.8004 19.6001 11.8404 20.8801 10.8004V9.92039C20.8801 9.92039 20.8801 9.84039 20.7201 9.76039C19.7601 9.76039 18.8801 10.2404 18.2401 10.8804C18.0801 11.0404 17.9201 11.1204 17.7601 11.2004H17.6001C16.6401 11.7604 14.5601 13.1204 13.5201 13.7604C13.6001 12.3204 13.8401 10.9604 14.0801 9.52039V9.36039L13.9201 9.12039V8.96039H13.8401C13.6801 8.88039 13.5201 8.88039 13.2801 8.96039H13.0401C13.0401 9.04039 12.7201 9.12039 12.7201 9.12039C12.7201 9.12039 12.6401 9.12039 12.5601 9.20039C12.0001 10.8004 11.6001 12.4804 11.5201 14.1604C10.7201 13.6804 9.92012 13.2004 9.04012 12.8004C8.80012 12.8004 8.64012 12.6404 8.48012 12.5604L8.08012 12.3204L7.44012 11.9204H7.28012C6.96012 12.0004 6.64012 12.2404 6.40012 12.5604V12.9604C6.96012 13.4404 7.52012 13.8404 8.16012 14.1604L8.96012 14.6404L10.2401 15.3604L10.4801 15.5204H10.6401V15.6004L8.32012 17.1204L7.12012 17.9204C6.88012 18.0804 6.64012 18.1604 6.40012 18.2404C6.16012 18.2404 6.00012 18.4804 5.84012 18.7204V18.8004H5.92012L6.08012 18.9604H6.24012C6.24012 19.0404 6.40012 19.0404 6.40012 19.0404C6.80012 19.0404 7.20012 18.8804 7.52012 18.6404C8.08012 18.4004 9.52012 17.5204 10.1601 17.1204L10.4001 16.9604C10.5601 16.9604 10.6401 16.9604 10.7201 16.8004C10.8801 16.6404 11.1201 16.5604 11.2801 16.4804H11.4401C11.4401 18.0004 11.5201 19.4404 11.7601 20.8804C11.9201 21.2004 12.0001 21.5204 12.0801 21.9204L12.3201 22.7204C12.5601 22.8804 12.8801 22.9604 13.1201 22.9604V21.6804C13.0401 20.3204 12.9601 18.4004 12.9601 17.0404C13.2001 17.0404 14.1601 17.6804 14.1601 17.6804C15.8401 18.8004 18.4801 20.4804 20.0001 20.8804H20.2401L20.4801 20.7204C20.5601 20.6404 20.6401 20.4804 20.6401 20.3204C22.2401 20.3204 23.6801 19.6804 24.8001 18.4804C25.1201 18.0004 25.3601 17.5204 25.3601 16.8804C25.3601 16.5604 25.2801 16.1604 25.0401 15.9204" fill="white"/>
</g>
<defs>
<clipPath id="clip0_266_65071">
<rect width="32" height="32" fill="white"/>
</clipPath>
</defs>
</svg>
