<svg width="40" height="40" viewBox="0 0 40 40" fill="none" xmlns="http://www.w3.org/2000/svg">
<g clip-path="url(#clip0_266_65297)">
<path d="M0 20.005C0 21.1747 0 21.3147 0.0300075 22.3144C0.060015 24.8338 0.470118 27.3432 1.23031 29.7526C1.88047 31.6721 2.89072 33.4516 4.21105 34.9813C5.80145 36.6908 7.79195 37.9805 10.0025 38.7403C12.2831 39.5301 14.7537 39.9 19.5549 40H20.4451C25.2463 39.9 27.7169 39.5201 29.9975 38.7403C32.208 37.9805 34.1985 36.6908 35.7889 34.9813C37.1093 33.4416 38.1295 31.6721 38.7697 29.7526C39.5299 27.3432 39.94 24.8438 39.97 22.3144C40 21.3247 40 21.1847 40 20.005C40 18.8253 40 18.6953 39.97 17.7056C39.94 15.1862 39.5299 12.6768 38.7697 10.2674C38.1195 8.34791 37.1093 6.56836 35.7889 5.02874C34.1985 3.31917 32.208 2.02949 29.9975 1.26968C27.7169 0.47988 25.2463 0.099975 20.4451 0H19.5549C14.7537 0.099975 12.2831 0.47988 10.0025 1.25969C7.79195 2.0195 5.80145 3.30917 4.21105 5.01875C2.89072 6.55836 1.87047 8.32792 1.23031 10.2574C0.470118 12.6768 0.0700175 15.1762 0.0300075 17.7056C0 18.6953 0 18.8353 0 20.005Z" fill="#E72511"/>
<path d="M32.8452 22.7147H27.2499V15.7266H25.369V24.2147H33.9285L32.8452 22.7147Z" fill="white"/>
<path d="M12.25 15.7139C12.1548 15.8448 6.17858 24.071 6.07144 24.202H8.16669L9.84526 21.8924H12.6072V20.4163H10.9167L13.1905 17.2853V24.202H15.0595V15.7139H12.25Z" fill="white"/>
<path d="M23.8571 20.2025C23.6309 19.8692 23.3333 19.5954 22.9762 19.4168C23.3928 19.0359 23.6071 18.5001 23.5833 17.9406C23.6071 17.3216 23.3452 16.7263 22.8809 16.3335C22.3571 15.9168 21.7023 15.7025 21.0357 15.7382H16.5238V24.2263H21.2142C22.0119 24.262 22.7976 24.012 23.4166 23.5239C23.9642 23.0478 24.2738 22.3573 24.25 21.6311C24.25 21.1311 24.119 20.643 23.8452 20.2263M18.3809 17.2382H20.6666C20.9523 17.2263 21.2262 17.3096 21.4523 17.4763C21.7976 17.8216 21.8095 18.393 21.4642 18.7501C21.2619 18.9168 21 19.0001 20.7381 18.9882H18.3809V17.2382ZM21.9642 22.4287C21.6666 22.643 21.3095 22.7501 20.9405 22.7382H18.3809V20.4763H20.8928C21.2738 20.4525 21.6428 20.5716 21.9523 20.7978C22.2023 21.0001 22.3333 21.3096 22.3214 21.6311C22.3333 21.9406 22.2023 22.2382 21.9642 22.4406" fill="white"/>
</g>
<defs>
<clipPath id="clip0_266_65297">
<rect width="40" height="40" fill="white"/>
</clipPath>
</defs>
</svg>
