<svg width="24" height="24" viewBox="0 0 24 24" fill="none" xmlns="http://www.w3.org/2000/svg">
<g clip-path="url(#clip0_266_64902)">
<path d="M0 12C0 12.7065 0 12.785 0.0168382 13.385C0.06174 14.714 0.202058 16.2393 0.735266 17.8486C1.11132 18.9869 1.81852 20.2149 2.52572 20.9888C3.42377 21.9756 4.66416 22.7831 6.00561 23.2429C7.37511 23.7139 8.85688 23.9439 11.7362 24H12.2694C15.1544 23.9383 16.6305 23.7139 18 23.2429C19.3414 22.7831 20.5763 21.9756 21.4742 20.9888C22.1816 20.2094 22.8887 18.9869 23.2648 17.8486C23.7979 16.2393 23.9439 14.7084 23.9831 13.385C24 12.7907 24 12.7065 24 12C24 11.2935 24 11.2149 23.9831 10.6149C23.9383 9.28599 23.7979 7.76074 23.2648 6.15139C22.8887 5.01309 22.1816 3.78504 21.4742 3.01121C20.5763 2.0243 19.3358 1.21682 18 0.757009C16.6305 0.285981 15.1487 0.0560747 12.2694 0H11.7362C8.85126 0.0616821 7.37511 0.285981 6.00561 0.757009C4.66416 1.21682 3.42936 2.0243 2.52572 3.01121C1.81852 3.79065 1.11132 5.01309 0.735266 6.15139C0.207671 7.76074 0.06174 9.28599 0.0168382 10.6149C0 11.2093 0 11.2935 0 12Z" fill="black"/>
<path d="M17.6332 18.6431L12.5299 5.36816H18.8571V18.6431H17.6332Z" fill="#FBAF17"/>
<path fill-rule="evenodd" clip-rule="evenodd" d="M14.9669 18.6325H16.2345L14.2784 13.4089C14.1946 13.2218 13.9178 12.8477 13.4807 12.8477H13.2403C13.0727 12.8477 12.6873 12.9599 12.4863 13.4089L10.5411 18.6325H11.7979V18.6217L12.2896 17.2619H14.4752L14.9669 18.6325ZM13.3824 14.0672L12.6174 16.2905H14.1473L13.3824 14.0672Z" fill="white"/>
<path d="M10.2898 11.1531V5.35742H11.0438C11.4591 5.35742 11.4919 5.63803 11.5028 5.8215V11.1531H10.2898Z" fill="white"/>
<path d="M5.14282 10.3759V5.36816H5.90776C6.29242 5.36816 6.36674 5.66317 6.35581 5.81066V10.1601H9.2735V11.1314H5.94054C5.31984 11.1314 5.15011 10.6278 5.14282 10.3759Z" fill="white"/>
<path fill-rule="evenodd" clip-rule="evenodd" d="M5.14282 18.6211V12.8535H5.90362H6.08262C6.24652 12.8535 6.41043 12.9118 6.54157 13.1492L8.61346 16.5358V12.8578H9.36339C9.77641 12.8578 9.809 13.1371 9.81987 13.3197V18.6254H8.67247L8.62175 18.5382L6.36674 14.8534V18.6211H5.14282Z" fill="white"/>
</g>
<defs>
<clipPath id="clip0_266_64902">
<rect width="24" height="24" fill="white"/>
</clipPath>
</defs>
</svg>
