<svg width="56" height="56" viewBox="0 0 56 56" fill="none" xmlns="http://www.w3.org/2000/svg">
<g clip-path="url(#clip0_266_65585)">
<path d="M0 28C0 29.6486 0 29.8318 0.0392798 31.2318C0.144026 34.3327 0.471358 37.8916 1.71522 41.6468C2.59247 44.3028 4.24223 47.1682 5.892 48.9739C7.9869 51.2765 10.8805 53.1605 14.0098 54.2335C17.2046 55.3325 20.6612 55.869 27.378 56H28.622C35.3519 55.856 38.7954 55.3325 41.9902 54.2335C45.1194 53.1605 48 51.2765 50.108 48.9739C51.758 47.1552 53.4075 44.3028 54.285 41.6468C55.5285 37.8916 55.869 34.3196 55.9605 31.2318C56 29.8449 56 29.6486 56 28C56 26.3514 56 26.1551 55.9605 24.7682C55.856 21.6673 55.5285 18.1084 54.285 14.3532C53.4075 11.6972 51.758 8.83175 50.108 7.02615C48.0131 4.72337 45.1194 2.83925 41.9902 1.76636C38.7954 0.66729 35.3388 0.130841 28.622 0H27.378C20.6481 0.143925 17.2046 0.66729 14.0098 1.76636C10.8805 2.83925 8 4.72337 5.892 7.02615C4.24223 8.84485 2.59247 11.6972 1.71522 14.3532C0.484452 18.1084 0.144026 21.6673 0.0392798 24.7682C0 26.1551 0 26.3514 0 28Z" fill="#04A86C"/>
<path d="M36.9285 18.5764C35.9931 19.9437 35.483 20.6484 33.9808 22.2836C36.5742 20.733 37.2827 20.6343 39.6919 19.2388C40.5846 20.5638 40.8256 23.6367 40.8539 26.0753C41.6333 24.5247 42.5828 18.7173 42.186 17.6601C43.6315 16.7157 43.6315 16.3492 43.9999 15.7149C42.5545 15.8417 41.7325 15.87 40.9389 16.1096C38.9408 14.8833 34.8169 13.6287 31.4583 13.375C32.507 13.8119 36.7726 16.1237 37.3111 16.8426C35.0578 17.1386 30.7498 18.4072 28.5674 19.549C31.0615 18.9992 34.5477 18.7173 36.9426 18.5905L36.9285 18.5764Z" fill="white"/>
<path d="M29.5167 37.6212C28.879 38.4669 28.3547 39.1012 27.6461 39.8765C26.4557 40.2007 25.5062 40.3276 24.3584 40.3276C25.0669 40.694 25.7755 40.9196 26.5124 41.0605C25.7755 41.7371 25.1236 42.2164 24.4151 42.6675C25.6338 42.3855 27.2068 41.864 28.3972 41.1733C29.0066 41.1874 29.6301 41.1733 30.0411 41.0887C29.9419 40.7222 29.8568 40.4544 29.7576 39.9893C30.8772 39.1294 31.6849 38.3541 32.5919 37.4238C31.6141 38.1145 30.7638 38.6361 29.6443 39.1717C29.5876 38.6502 29.5592 38.1991 29.5309 37.6212H29.5167Z" fill="white"/>
<path d="M15.9409 30.0235C15.9409 30.0235 19.5546 26.6828 21.1135 25.837C21.1135 25.837 21.9071 28.5575 22.4739 29.9107C22.4739 29.9107 22.9841 26.7674 23.806 24.9631C23.806 24.9631 24.0327 24.8221 25.1948 24.7094C26.3427 24.6107 27.9582 24.5402 31.0759 25.0759C31.0759 25.0759 28.2133 23.2716 24.6846 22.7924C24.8263 22.3131 25.3223 21.2841 25.7616 20.7344C25.1098 20.833 23.2817 21.6506 22.0629 22.595C22.0629 22.595 21.2552 22.4963 19.9089 22.5386C18.5626 22.595 16.7912 22.9333 16.0968 23.2152C17.4148 23.2716 19.2145 23.5958 19.9089 24.2865C19.9089 24.2865 17.8966 26.0908 15.9268 30.0235H15.9409Z" fill="white"/>
<path d="M16.3373 38.6918C16.9325 39.9886 17.5561 40.8625 18.5764 41.8492C18.3355 41.0035 18.293 40.3128 18.378 39.4248C19.6676 39.7913 20.7304 40.0027 22.1759 40.045C20.7871 39.5375 19.7951 38.9455 18.7181 37.9306C19.0441 37.0426 19.4267 36.3378 20.0219 35.4498C18.9023 35.6048 18.0946 35.7458 17.1309 35.929C16.3515 34.5617 15.9972 33.2367 15.6004 31.4043C15.3737 33.3354 15.3028 34.745 15.5721 36.2955C14.6793 36.5351 14.0558 36.7325 13.333 37.0567C14.3534 37.6769 15.1895 38.1702 16.3373 38.6918Z" fill="white"/>
<path d="M29.7434 39.9882C29.8426 40.4533 29.9276 40.7352 30.0268 41.0876C29.6017 41.1722 28.9923 41.2004 28.3829 41.1722C27.1925 41.8629 25.6195 42.3844 24.4008 42.6664C25.1094 42.2153 25.7612 41.736 26.4982 41.0594C25.7612 40.9044 25.0385 40.693 24.3441 40.3265C25.5062 40.3265 26.4415 40.1996 27.6319 39.8754C28.3404 39.1001 28.8648 38.4517 29.5025 37.6201C29.5308 38.2121 29.5592 38.6491 29.6158 39.1706C30.7354 38.635 31.5856 38.0993 32.5635 37.4227C31.6423 38.3531 30.8487 39.1283 29.7292 39.9882H29.7434ZM31.4439 13.3471C34.8025 13.6008 38.9264 14.8695 40.9245 16.0817C41.7181 15.8421 42.5401 15.8139 43.9855 15.687C43.6171 16.3213 43.6171 16.6878 42.1716 17.6322C42.5684 18.6894 41.6189 24.4969 40.8395 26.0474C40.8112 23.6089 40.5702 20.536 39.6775 19.211C37.2825 20.6065 36.5598 20.7192 33.9664 22.2557C35.4827 20.6205 35.9929 19.9299 36.914 18.5485C34.5191 18.6753 31.033 18.9713 28.5388 19.507C30.7212 18.3652 35.0293 17.0966 37.2825 16.8006C36.744 16.0817 32.4926 13.7559 31.4298 13.333L31.4439 13.3471ZM16.1106 23.2001C16.7908 22.9182 18.5622 22.5799 19.9227 22.5235C21.2689 22.4812 22.0767 22.5799 22.0767 22.5799C23.2954 21.6213 25.1235 20.8179 25.7754 20.7192C25.3361 21.269 24.8259 22.2979 24.6984 22.7772C28.2271 23.2565 31.0897 25.0607 31.0897 25.0607C27.972 24.511 26.3564 24.5956 25.2086 24.6942C24.0465 24.807 23.8198 24.948 23.8198 24.948C22.9978 26.7522 22.4877 29.8956 22.4877 29.8956C21.9208 28.5424 21.1272 25.8219 21.1272 25.8219C19.5684 26.6535 15.9547 30.0083 15.9547 30.0083C17.9245 26.0756 19.9368 24.2714 19.9368 24.2714C19.2425 23.5807 17.4427 23.2565 16.1248 23.2001H16.1106ZM15.6004 31.3897C15.9972 33.2222 16.3515 34.5472 17.1309 35.9145C18.0946 35.7312 18.9165 35.5903 20.0219 35.4352C19.4267 36.3233 19.0441 37.028 18.7181 37.9161C19.8093 38.931 20.8013 39.523 22.1759 40.0305C20.7304 39.9882 19.6534 39.7767 18.378 39.4102C18.293 40.2983 18.3355 40.989 18.5764 41.8347C17.5561 40.8339 16.9325 39.9741 16.3373 38.6773C15.1895 38.1557 14.3534 37.6624 13.333 37.0421C14.0558 36.7179 14.6935 36.5206 15.5721 36.281C15.3028 34.7304 15.3737 33.3209 15.6004 31.3897Z" fill="white"/>
</g>
<defs>
<clipPath id="clip0_266_65585">
<rect width="56" height="56" fill="white"/>
</clipPath>
</defs>
</svg>
