<svg width="24" height="24" viewBox="0 0 24 24" fill="none" xmlns="http://www.w3.org/2000/svg">
<g clip-path="url(#clip0_266_64828)">
<path d="M0 12C0 12.7065 0 12.785 0.0168382 13.385C0.06174 14.714 0.202058 16.2393 0.735266 17.8486C1.11132 18.9869 1.81852 20.2149 2.52572 20.9888C3.42377 21.9756 4.66416 22.7831 6.00561 23.2429C7.37511 23.7139 8.85688 23.9439 11.7362 24H12.2694C15.1544 23.9383 16.6305 23.7139 18 23.2429C19.3414 22.7831 20.5763 21.9756 21.4742 20.9888C22.1816 20.2094 22.8887 18.9869 23.2648 17.8486C23.7979 16.2393 23.9439 14.7084 23.9831 13.385C24 12.7907 24 12.7065 24 12C24 11.2935 24 11.2149 23.9831 10.6149C23.9383 9.28599 23.7979 7.76074 23.2648 6.15139C22.8887 5.01309 22.1816 3.78504 21.4742 3.01121C20.5763 2.0243 19.3358 1.21682 18 0.757009C16.6305 0.285981 15.1487 0.0560747 12.2694 0H11.7362C8.85126 0.0616821 7.37511 0.285981 6.00561 0.757009C4.66416 1.21682 3.42936 2.0243 2.52572 3.01121C1.81852 3.79065 1.11132 5.01309 0.735266 6.15139C0.207671 7.76074 0.06174 9.28599 0.0168382 10.6149C0 11.2093 0 11.2935 0 12Z" fill="#48AF36"/>
<mask id="mask0_266_64828" style="mask-type:luminance" maskUnits="userSpaceOnUse" x="5" y="6" width="14" height="12">
<path d="M18.4286 6.85742H5.57141V17.1431H18.4286V6.85742Z" fill="white"/>
</mask>
<g mask="url(#mask0_266_64828)">
<path d="M17.9598 9.25697C17.2902 8.57616 16.1797 8.69336 15.5268 9.38533C14.673 10.2782 14.0145 10.613 13.2277 10.5795C12.1283 10.5293 11.5815 9.68109 11.0178 8.60406C10.4319 7.48243 9.52787 6.85742 8.40065 6.85742C6.63167 6.85742 5.57141 8.29157 5.57141 9.88755C5.57141 12.3485 7.30132 13.8161 8.49551 14.4356C9.48881 14.9545 10.5937 15.1722 11.5815 15.1945C11.5257 15.7804 11.3527 16.5561 11.1573 17.1085H13.183C12.9821 16.5561 12.8091 15.719 12.7533 15.1275C15.7165 14.7425 17.1283 13.3976 17.8984 12.1141C18.2444 11.5505 18.4286 10.9646 18.4286 10.44C18.4286 9.98241 18.2779 9.56389 17.9598 9.24581M8.41738 10.786C7.84263 10.8195 7.35155 10.3898 7.31248 9.81502C7.27899 9.24581 7.7087 8.74916 8.28345 8.71569C8.85266 8.67662 9.34374 9.11747 9.37721 9.68666C9.41628 10.2559 8.98102 10.7525 8.41181 10.786" fill="white"/>
</g>
</g>
<defs>
<clipPath id="clip0_266_64828">
<rect width="24" height="24" fill="white"/>
</clipPath>
</defs>
</svg>
