<svg width="24" height="24" viewBox="0 0 24 24" fill="none" xmlns="http://www.w3.org/2000/svg">
<g clip-path="url(#clip0_266_64850)">
<path d="M0 12C0 12.705 0 12.7872 0.0186 13.3836C0.0395969 14.8986 0.282167 16.4023 0.7386 17.847C1.12668 18.9996 1.73449 20.0661 2.5284 20.9874C3.48384 22.0134 4.67745 22.788 6.0036 23.2428C7.374 23.7144 8.853 23.9406 11.7342 24.0006H12.2652C15.1452 23.9406 16.6254 23.7144 17.9958 23.2428C19.322 22.788 20.5156 22.0134 21.471 20.9874C22.2654 20.0665 22.873 18.9999 23.2602 17.847C23.7172 16.4024 23.9598 14.8986 23.9802 13.3836C24 12.7866 24 12.7044 24 12C24 11.2956 24 11.2134 23.9802 10.62C23.9598 9.10479 23.7173 7.60077 23.2602 6.156C22.8731 5.00198 22.2655 3.93418 21.471 3.012C20.515 1.98678 19.3216 1.21243 17.9958 0.7572C16.6254 0.2856 15.147 0.06 12.2652 0H11.7342C8.8542 0.06 7.374 0.2856 6.0036 0.7572C4.67782 1.21243 3.48436 1.98678 2.5284 3.012C1.73473 3.93372 1.12695 5.00033 0.7386 6.153C0.282117 7.59791 0.0395471 9.10184 0.0186 10.617C0 11.2128 0 11.295 0 12Z" fill="#1D8097"/>
<path d="M11.7762 17.6139H6.5886V9.36387C6.55145 8.81411 6.68171 8.266 6.96222 7.79174C7.24273 7.31748 7.66033 6.93931 8.16 6.70707C8.78752 6.41016 9.47835 6.27191 10.1718 6.30447V7.86447C9.71151 7.83146 9.25044 7.91698 8.8326 8.11287C8.6177 8.2122 8.43744 8.37355 8.31501 8.57618C8.19258 8.77881 8.13358 9.01343 8.1456 9.24987L8.1492 9.32847V16.0545H10.215V12.9663H13.5096V14.5263H11.7762V17.6139Z" fill="white"/>
<path d="M13.5294 17.6957H13.5072L13.5126 16.1357H13.5288C15.6084 16.1357 15.8208 14.7209 15.8424 14.4359C15.9427 13.7344 15.7909 13.02 15.414 12.4199L15.0096 11.9549L15.3696 11.4533C15.5123 11.1619 15.5823 10.8404 15.5736 10.5161V7.95648H13.5072V11.0243H10.233V9.46428H11.946V6.39648H17.1336V10.4999C17.1381 10.9637 17.0595 11.4246 16.9014 11.8607C17.3238 12.6891 17.497 13.6221 17.4 14.5469C17.34 15.6269 16.458 17.6957 13.5294 17.6957Z" fill="white"/>
</g>
<defs>
<clipPath id="clip0_266_64850">
<rect width="24" height="24" fill="white"/>
</clipPath>
</defs>
</svg>
