<svg width="32" height="32" viewBox="0 0 32 32" fill="none" xmlns="http://www.w3.org/2000/svg">
<g clip-path="url(#clip0_266_65145)">
<path d="M0 16C0 16.9421 0 17.0467 0.0224509 17.8467C0.08232 19.6187 0.269411 21.6523 0.980354 23.7981C1.48176 25.3159 2.4247 26.9533 3.36763 27.9851C4.56503 29.3009 6.21889 30.3774 8.00749 30.9906C9.83349 31.6186 11.8092 31.9251 15.6483 32H16.3592C20.2058 31.9177 22.174 31.6186 24 30.9906C25.7886 30.3774 27.435 29.3009 28.6323 27.9851C29.5754 26.9458 30.5183 25.3159 31.0197 23.7981C31.7306 21.6523 31.9251 19.6112 31.9774 17.8467C32 17.0542 32 16.9421 32 16C32 15.0579 32 14.9533 31.9774 14.1533C31.9177 12.3813 31.7306 10.3477 31.0197 8.20186C30.5183 6.68411 29.5754 5.04671 28.6323 4.01494C27.435 2.69907 25.7811 1.62243 24 1.00935C22.174 0.381309 20.1983 0.0747663 16.3592 0H15.6483C11.8017 0.0822429 9.83349 0.381309 8.00749 1.00935C6.21889 1.62243 4.57249 2.69907 3.36763 4.01494C2.4247 5.0542 1.48176 6.68411 0.980354 8.20186C0.276894 10.3477 0.08232 12.3813 0.0224509 14.1533C0 14.9458 0 15.0579 0 16Z" fill="#009DAD"/>
<mask id="mask0_266_65145" style="mask-type:luminance" maskUnits="userSpaceOnUse" x="4" y="13" width="25" height="6">
<path d="M28.0018 13.7148H4.28748V18.572H28.0018V13.7148Z" fill="white"/>
</mask>
<g mask="url(#mask0_266_65145)">
<path d="M10.2103 14.6367C9.42487 14.6367 8.79688 15.2731 8.79688 16.0513C8.79688 16.1258 8.82762 16.2002 8.88193 16.2534C8.93622 16.3066 9.01042 16.3367 9.08825 16.3367H11.3342C11.4103 16.3367 11.4863 16.3066 11.5406 16.2534C11.5949 16.2002 11.6256 16.1275 11.6256 16.0513C11.6256 15.2713 10.9976 14.6367 10.2122 14.6367M9.42667 15.7659C9.49907 15.4451 9.85199 15.1863 10.2103 15.1845C10.5687 15.1845 10.8782 15.4344 10.994 15.7659H9.42667Z" fill="#FDC500"/>
<path d="M11.3763 16.5579C11.2605 16.4746 11.0524 16.4976 10.9691 16.6058C10.7917 16.838 10.5203 16.9745 10.2108 16.9745C9.90131 16.9745 9.62802 16.838 9.45245 16.6058C9.37102 16.4976 9.16108 16.4728 9.04525 16.5579C8.91677 16.6519 8.8896 16.8398 8.98554 16.9674C9.26425 17.3361 9.70945 17.5772 10.2108 17.5772C10.7121 17.5772 11.1591 17.3361 11.4361 16.9674C11.532 16.8415 11.5048 16.6519 11.3763 16.5579Z" fill="#FDC500"/>
<path d="M5.96053 14.0527C5.72888 14.0527 5.54065 14.2371 5.54065 14.464C5.54065 14.6909 5.72888 14.8752 5.96053 14.877C6.19399 14.877 6.38042 14.6926 6.38042 14.464C6.38042 14.2353 6.19219 14.0527 5.96053 14.0527Z" fill="white"/>
<path d="M15.0748 16.1079C15.0748 15.7002 14.9101 15.3332 14.6404 15.0727C14.3707 14.8103 13.9979 14.6561 13.5889 14.6543C13.5889 14.6543 13.578 14.6543 13.5762 14.6543C13.1056 14.6543 12.731 14.9273 12.7328 14.9344C12.7147 14.7997 12.5663 14.6791 12.4143 14.6774C12.2351 14.6791 12.0958 14.8174 12.0922 14.9876V18.2582C12.094 18.4319 12.2351 18.5702 12.4089 18.5719C12.588 18.5702 12.7292 18.4319 12.731 18.2599V17.2867C12.9862 17.4906 13.2504 17.5704 13.5636 17.5739H13.5834C13.9943 17.5739 14.3689 17.4197 14.6404 17.1573C14.9064 16.8985 15.0711 16.5351 15.0748 16.131V16.1079ZM13.5834 16.9606C13.1056 16.9552 12.7364 16.6131 12.731 16.115C12.7364 15.6186 13.1056 15.2748 13.5834 15.2694C14.0739 15.2765 14.4268 15.608 14.4341 16.115C14.4268 16.6202 14.0739 16.9517 13.5816 16.9588" fill="white"/>
<path d="M22.3698 15.0337C22.1291 14.7979 21.7925 14.6543 21.4178 14.6543C21.4178 14.6543 21.4088 14.6543 21.407 14.6543C21.036 14.6543 20.6993 14.7979 20.4604 15.0337C20.2197 15.2694 20.075 15.5974 20.075 15.9554V17.2424C20.0768 17.4162 20.2179 17.5526 20.3935 17.5562C20.5726 17.5544 20.7138 17.4162 20.7156 17.2442V15.9519C20.7247 15.5602 20.9889 15.2854 21.4178 15.2765C21.8432 15.2836 22.1092 15.5602 22.1164 15.9537V17.2442C22.1182 17.4179 22.2594 17.5544 22.435 17.558C22.6142 17.5562 22.7553 17.4179 22.7571 17.2477V15.959C22.7571 15.6009 22.6142 15.273 22.3734 15.0372" fill="white"/>
<path d="M19.1903 15.0835C19.1903 15.0835 19.0799 14.9824 19.0781 14.9842C18.8229 14.7786 18.4917 14.6562 18.1261 14.6562C18.1261 14.6562 18.1171 14.6562 18.1153 14.6562C17.6972 14.6562 17.3208 14.8193 17.0547 15.0852C16.7887 15.3494 16.6312 15.7163 16.6312 16.1152V16.1187C16.6312 16.5176 16.7887 16.8845 17.0565 17.1504C17.3208 17.4145 17.6972 17.5777 18.1171 17.5794H18.1569C18.1569 17.5794 18.6582 17.567 18.975 17.2763L18.9858 17.3188C19.0202 17.4571 19.1433 17.5564 19.2935 17.5581C19.4727 17.5564 19.6138 17.4181 19.6157 17.2461V16.101C19.612 15.7075 19.4546 15.3476 19.1921 15.0852M18.1225 16.9607C17.6248 16.9554 17.2773 16.608 17.2701 16.1152C17.2773 15.6224 17.6248 15.2767 18.1225 15.2714C18.6202 15.2767 18.9677 15.6241 18.975 16.1169C18.9677 16.608 18.6221 16.9554 18.1225 16.9607Z" fill="white"/>
<path d="M4.92816 14.0407C4.92816 13.8687 4.78336 13.7305 4.60782 13.7305C4.43228 13.7305 4.2911 13.8687 4.28748 14.0389V17.2439C4.28748 17.4159 4.43228 17.5542 4.60782 17.5542C4.78336 17.5542 4.92453 17.4159 4.92816 17.2457V14.0407Z" fill="white"/>
<path d="M16.1735 14.0407C16.1735 13.8687 16.0287 13.7305 15.8532 13.7305C15.6776 13.7305 15.5364 13.8687 15.5328 14.0389V17.2439C15.5328 17.4159 15.6776 17.5542 15.8532 17.5542C16.0287 17.5542 16.1699 17.4159 16.1735 17.2457V14.0407Z" fill="white"/>
<path d="M6.27792 15.5387C6.27792 15.3668 6.13312 15.2285 5.95758 15.2285C5.78204 15.2285 5.64087 15.3668 5.63904 15.5369V17.2441C5.63904 17.416 5.78384 17.5543 5.95938 17.5543C6.13495 17.5543 6.27612 17.416 6.27972 17.2458C6.27972 17.2441 6.27972 15.5387 6.27972 15.5387" fill="white"/>
<path d="M27.5316 17.5545C27.5316 17.5545 27.5479 17.5545 27.5551 17.5545C27.7252 17.5545 27.8682 17.4268 27.8809 17.2584C27.8935 17.0812 27.7687 16.9429 27.5786 16.9163C27.2746 16.8383 27.2999 16.537 27.2999 16.4182V15.5052H27.6746C27.8555 15.5052 28.0021 15.3617 28.0021 15.1862C28.0021 15.0107 27.8555 14.8671 27.6746 14.8671H27.2999V14.0339C27.2999 13.8567 27.1533 13.7148 26.9723 13.7148C26.7914 13.7148 26.6448 13.8584 26.6448 14.0339V14.8635H26.471C26.29 14.8635 26.1453 15.0071 26.1453 15.1826C26.1453 15.3581 26.2919 15.5017 26.471 15.5017H26.6448V16.6238C26.6448 16.7284 26.7117 17.5509 27.528 17.5509" fill="white"/>
<path d="M8.22743 14.8653C8.40843 14.8653 8.5532 15.0089 8.5532 15.1844C8.5532 15.3599 8.4066 15.5035 8.22743 15.5035H7.84194V17.2336C7.84194 17.4109 7.69534 17.5545 7.51617 17.5545C7.337 17.5545 7.1886 17.4109 7.1886 17.2336V15.5035H7.01486C6.83386 15.5035 6.68909 15.3599 6.68909 15.1844C6.68909 15.0089 6.83566 14.8653 7.01486 14.8653H7.1886C7.19403 14.7749 7.18497 14.3424 7.39492 14.0977C7.47634 14.0038 7.56323 13.9063 7.67543 13.846C7.82746 13.7645 7.99397 13.7308 8.17494 13.7166C8.35594 13.7042 8.51157 13.8354 8.52426 14.0127C8.53692 14.1881 8.403 14.3424 8.222 14.3548C8.09712 14.3637 7.965 14.4541 7.91794 14.5427C7.8872 14.6012 7.84194 14.6881 7.84194 14.8653H8.22743Z" fill="white"/>
<path d="M24.5806 14.6367C23.7951 14.6367 23.1671 15.2731 23.1671 16.0513C23.1671 16.1258 23.1979 16.2002 23.2522 16.2534C23.3065 16.3066 23.3807 16.3367 23.4585 16.3367H25.7045C25.7805 16.3367 25.8565 16.3066 25.9108 16.2534C25.9651 16.2002 25.9959 16.1275 25.9959 16.0513C25.9959 15.2713 25.3679 14.6367 24.5824 14.6367M23.7969 15.7659C23.8693 15.4451 24.2222 15.1863 24.5806 15.1845C24.9389 15.1845 25.2484 15.4344 25.3643 15.7659H23.7969Z" fill="#FDC500"/>
<path d="M25.7467 16.5579C25.6308 16.4746 25.4227 16.4976 25.3395 16.6058C25.1621 16.838 24.8906 16.9745 24.5812 16.9745C24.2717 16.9745 23.9984 16.838 23.8228 16.6058C23.7414 16.4976 23.5314 16.4728 23.4156 16.5579C23.2871 16.6519 23.26 16.8398 23.3559 16.9674C23.6346 17.3361 24.0798 17.5772 24.5812 17.5772C25.0825 17.5772 25.5295 17.3361 25.8064 16.9674C25.9023 16.8415 25.8752 16.6519 25.7467 16.5579Z" fill="#FDC500"/>
</g>
</g>
<defs>
<clipPath id="clip0_266_65145">
<rect width="32" height="32" fill="white"/>
</clipPath>
</defs>
</svg>
