<svg width="56" height="56" viewBox="0 0 56 56" fill="none" xmlns="http://www.w3.org/2000/svg">
<g clip-path="url(#clip0_266_65979)">
<mask id="mask0_266_65979" style="mask-type:luminance" maskUnits="userSpaceOnUse" x="0" y="0" width="56" height="56">
<path d="M56 0H0V56H56V0Z" fill="white"/>
</mask>
<g mask="url(#mask0_266_65979)">
<path d="M0 27.9996C0 29.6428 0 29.8371 0.0455 31.2248C0.092177 34.7631 0.657612 38.2754 1.72375 41.6496C2.62909 44.3388 4.04707 46.8271 5.89925 48.9768C8.12792 51.3661 10.9098 53.1708 14 54.2321C18.3344 55.5448 22.8539 56.1418 27.3805 55.9996H28.6195C33.1432 56.1408 37.6596 55.5438 41.9913 54.2321C45.0853 53.1701 47.8704 51.3628 50.1007 48.9698C51.952 46.8224 53.3694 44.3365 54.2745 41.6496C55.3398 38.2782 55.9052 34.7689 55.9528 31.2336C56 29.8371 56 29.6428 56 27.9996C56 26.3563 56 26.1621 55.9545 24.7743C55.9073 21.236 55.3413 17.7236 54.2745 14.3496C53.3694 11.6602 51.9514 9.17188 50.099 7.02233C47.8687 4.63087 45.0834 2.8259 41.9895 1.76708C37.6589 0.453415 33.1427 -0.143622 28.6195 -0.000415865H27.3805C22.8538 -0.144644 18.334 0.452402 14 1.76708C10.9085 2.82919 8.1263 4.63652 5.89925 7.02933C4.04814 9.17715 2.63024 11.6629 1.72375 14.3496C0.658214 17.7215 0.0927847 21.2314 0.0455 24.7673C0 26.1621 0 26.3563 0 27.9996Z" fill="#1D93DC"/>
<path d="M43.8568 25.9521C44.0691 26.6138 44.1766 27.3047 44.1753 27.9996C44.1753 33.6871 36.9338 38.3001 28.0018 38.3001C25.583 38.3125 23.1763 37.9585 20.8635 37.2501C22.337 35.8239 24.024 34.5674 28.5863 34.0389C33.1905 33.5139 44.1613 32.9714 43.8585 25.9574" fill="white"/>
<path d="M36.5417 24.8621C36.5417 23.9626 35.8154 23.5059 34.3419 23.5059C34.0812 23.5059 33.7802 23.5199 33.4669 23.5461C33.3389 24.443 33.2932 25.3498 33.3304 26.2551V26.7066H33.7399C35.6194 26.7066 36.5417 25.9961 36.5417 24.8621Z" fill="white"/>
<path d="M17.9024 23.4493C17.4732 23.4466 17.0451 23.4936 16.6267 23.5893C16.5316 24.5194 16.4971 25.4547 16.5234 26.3893V28.3668C16.5234 29.6023 16.5497 30.3688 16.5847 30.6576C16.6512 31.1161 16.9872 31.2246 18.0827 31.2246C20.1967 31.2246 21.3832 29.8246 21.3832 27.4148C21.3832 24.8931 20.1337 23.4546 17.9007 23.4546" fill="white"/>
<path d="M41.748 24.6584C41.6609 23.8397 41.3927 23.0506 40.9629 22.3484C40.5331 21.6462 39.9524 21.0484 39.263 20.5984C35.8406 18.6258 31.9459 17.6222 27.9965 17.6951C19.0715 17.6951 11.8247 22.3116 11.8247 27.9939C11.8247 32.0434 15.4997 35.5486 20.8285 37.2356C22.1042 34.8679 25.3522 33.7356 30.723 32.7556C32.1462 32.515 33.5548 32.1948 34.9422 31.7966H34.7952C34.0235 31.7966 33.3095 31.7161 32.6742 31.7161H31.6417C32.004 31.3819 32.018 30.0764 32.018 27.7436V27.1836C32.018 24.7476 32.018 23.3774 31.6417 23.0239H32.9192C33.8905 23.0239 34.7987 22.9294 35.665 22.9294C37.1857 22.9294 38.003 23.5524 38.003 24.5709C38.003 25.5439 37.212 26.3034 35.6527 26.7794C37.485 26.9719 38.4877 27.8294 38.4877 29.1279C38.4924 29.6738 38.3026 30.2036 37.9522 30.6224C39.1235 30.1405 40.1171 29.3082 40.797 28.2396C41.4768 27.1709 41.8096 25.9182 41.7497 24.6531M18.1877 31.7984C17.3232 31.7984 16.5865 31.7301 15.9687 31.7301H15.0937C15.4719 30.442 15.582 29.09 15.4175 27.7576V27.1976C15.5895 25.8033 15.4794 24.3887 15.0937 23.0379H16.0352C17.1045 23.0379 18.046 22.8734 18.8982 22.8734C19.4312 22.848 19.9633 22.9395 20.4572 23.1416C20.951 23.3436 21.3947 23.6513 21.757 24.043C22.1194 24.4347 22.3916 24.901 22.5547 25.409C22.7178 25.9171 22.7677 26.4547 22.701 26.9841C22.7702 27.6072 22.7035 28.238 22.5055 28.8328C22.3075 29.4277 21.983 29.9726 21.5542 30.43C21.1254 30.8874 20.6026 31.2464 20.0217 31.4823C19.4408 31.7183 18.8157 31.8255 18.1895 31.7966M30.5095 29.8436C30.4723 30.4523 30.5206 31.0631 30.653 31.6584C29.2705 31.7459 28.2905 31.8929 27.7095 31.8929C27.1264 31.9668 26.5343 31.9081 25.9771 31.7212C25.4199 31.5344 24.9121 31.2241 24.4915 30.8137C24.0709 30.4032 23.7485 29.903 23.5481 29.3506C23.3478 28.7981 23.2747 28.2075 23.3345 27.6229C23.3075 26.9572 23.4256 26.2936 23.6805 25.678C23.9354 25.0625 24.3211 24.5097 24.8108 24.0579C25.3005 23.6062 25.8825 23.2663 26.5166 23.0617C27.1506 22.8572 27.8216 22.7929 28.483 22.8734C29.1615 22.8805 29.8387 22.9355 30.5095 23.0379L30.4955 24.6251C30.191 24.2602 29.8074 23.9694 29.3738 23.7747C28.9402 23.58 28.468 23.4866 27.993 23.5016C25.9577 23.5016 24.668 24.9891 24.668 27.4041C24.6095 27.9076 24.6631 28.4179 24.8249 28.8983C24.9867 29.3787 25.2527 29.8174 25.6039 30.1829C25.9551 30.5485 26.3828 30.8319 26.8563 31.0129C27.3298 31.1938 27.8375 31.2678 28.343 31.2296C28.6649 31.2345 28.9861 31.1975 29.2985 31.1194C29.3729 30.5896 29.4068 30.0548 29.4 29.5199C29.4868 28.7859 29.3756 28.0421 29.078 27.3656H30.8035C30.5128 28.1578 30.4115 29.007 30.5077 29.8454" fill="white"/>
<path d="M33.3183 28.8762C33.2933 29.5698 33.3349 30.2642 33.4426 30.9499C33.5143 31.1687 33.9396 31.2999 34.6536 31.2999C34.9427 31.3424 35.2376 31.3203 35.5171 31.2352C35.7967 31.1502 36.0539 31.0043 36.2704 30.8081C36.4869 30.6118 36.6572 30.3701 36.7692 30.1002C36.8812 29.8303 36.932 29.539 36.9181 29.2472C36.9181 27.9872 36.0098 27.2119 34.2791 27.2119H33.3183V28.8762Z" fill="white"/>
</g>
</g>
<defs>
<clipPath id="clip0_266_65979">
<rect width="56" height="56" fill="white"/>
</clipPath>
</defs>
</svg>
