<svg width="32" height="32" viewBox="0 0 32 32" fill="none" xmlns="http://www.w3.org/2000/svg">
<g clip-path="url(#clip0_266_65198)">
<path d="M0 16C0 16.9421 0 17.0467 0.0224509 17.8467C0.08232 19.6187 0.269411 21.6523 0.980354 23.7981C1.48176 25.3159 2.4247 26.9533 3.36763 27.9851C4.56503 29.3009 6.21889 30.3774 8.00749 30.9906C9.83349 31.6186 11.8092 31.9251 15.6483 32H16.3592C20.2058 31.9177 22.174 31.6186 24 30.9906C25.7886 30.3774 27.435 29.3009 28.6323 27.9851C29.5754 26.9458 30.5183 25.3159 31.0197 23.7981C31.7306 21.6523 31.9251 19.6112 31.9774 17.8467C32 17.0542 32 16.9421 32 16C32 15.0579 32 14.9533 31.9774 14.1533C31.9177 12.3813 31.7306 10.3477 31.0197 8.20186C30.5183 6.68411 29.5754 5.04671 28.6323 4.01494C27.435 2.69907 25.7811 1.62243 24 1.00935C22.174 0.381309 20.1983 0.0747663 16.3592 0H15.6483C11.8017 0.0822429 9.83349 0.381309 8.00749 1.00935C6.21889 1.62243 4.57249 2.69907 3.36763 4.01494C2.4247 5.0542 1.48176 6.68411 0.980354 8.20186C0.276894 10.3477 0.08232 12.3813 0.0224509 14.1533C0 14.9458 0 15.0579 0 16Z" fill="#E82118"/>
<mask id="mask0_266_65198" style="mask-type:luminance" maskUnits="userSpaceOnUse" x="3" y="12" width="26" height="8">
<path d="M28.2857 12H3.71423V19.0984H28.2857V12Z" fill="white"/>
</mask>
<g mask="url(#mask0_266_65198)">
<path d="M8.99106 14.3115C8.72103 14.2936 8.45109 14.3473 8.20843 14.4671C7.9658 14.5869 7.75903 14.7686 7.60912 14.9939C7.47643 14.7676 7.28246 14.5835 7.04958 14.4627C6.81672 14.342 6.55446 14.2896 6.29306 14.3115C6.0448 14.3072 5.79912 14.3621 5.57638 14.4718C5.3536 14.5814 5.16023 14.7426 5.01223 14.942V14.4436H3.71423V18.7928H5.07575V16.2942C5.0706 16.2005 5.08406 16.1068 5.11529 16.0183C5.14655 15.9299 5.19498 15.8485 5.25778 15.7788C5.3206 15.7092 5.39655 15.6526 5.48129 15.6124C5.56606 15.5722 5.65795 15.5492 5.75163 15.5446C5.77109 15.5436 5.79058 15.5436 5.81003 15.5446C5.98723 15.5318 6.16229 15.5896 6.29706 15.7053C6.43186 15.8211 6.51538 15.9854 6.52949 16.1625C6.5316 16.2017 6.53055 16.2409 6.52626 16.2798V18.8002H7.87055V16.2891C7.86663 16.1955 7.88126 16.1021 7.91352 16.0141C7.94575 15.9262 7.99498 15.8454 8.05843 15.7765C8.12189 15.7077 8.19835 15.652 8.28338 15.6126C8.36838 15.5733 8.46026 15.5511 8.55386 15.5474C8.57378 15.5474 8.59423 15.5474 8.61463 15.5474C8.71186 15.54 8.80952 15.5542 8.90063 15.5889C8.99175 15.6236 9.074 15.6781 9.14163 15.7483C9.20926 15.8186 9.26055 15.9029 9.29183 15.9953C9.32309 16.0876 9.33355 16.1857 9.32249 16.2826V18.803H10.6385V15.9855C10.6571 15.7845 10.6356 15.5817 10.5755 15.3891C10.5153 15.1964 10.4175 15.0175 10.2879 14.8628C10.1583 14.7081 9.99932 14.5805 9.82018 14.4875C9.64103 14.3944 9.44526 14.3378 9.24412 14.3208C9.16012 14.311 9.07555 14.3079 8.99106 14.3115Z" fill="white"/>
<path d="M17.3697 15.0292V14.4395H16.0518V18.7887H17.4132V16.8881C17.4132 16.0221 17.9065 15.7074 18.4525 15.7074C18.5954 15.7063 18.738 15.7209 18.8776 15.7509V14.4372C18.7606 14.4071 18.6402 14.3925 18.5193 14.3936C18.2879 14.3842 18.0582 14.4385 17.8555 14.5505C17.6528 14.6626 17.4848 14.8282 17.3697 15.0292Z" fill="white"/>
<path d="M20.7092 14.4434H19.3486V18.7926H20.7092V14.4434Z" fill="white"/>
<path d="M23.1725 13.1709H21.9543V13.7304C21.963 13.8147 21.9549 13.8999 21.9306 13.9811C21.9063 14.0623 21.8662 14.1378 21.8125 14.2035C21.7589 14.2691 21.6928 14.3234 21.6181 14.3634C21.5434 14.4034 21.4615 14.4282 21.3771 14.4364C21.3396 14.4396 21.302 14.4396 21.2645 14.4364H21.0415V15.6005H21.8296V17.4645C21.8196 17.6394 21.8443 17.8146 21.9022 17.9799C21.9601 18.1453 22.0502 18.2976 22.1672 18.428C22.2841 18.5585 22.4256 18.6646 22.5837 18.7402C22.7418 18.8158 22.9132 18.8594 23.0881 18.8686C23.1654 18.8741 23.2429 18.8727 23.3199 18.8644C23.562 18.8761 23.8036 18.8343 24.0278 18.7421V17.6392C23.9102 17.6662 23.7901 17.6808 23.6694 17.6828C23.3742 17.6828 23.1762 17.5864 23.1762 17.228V15.6009H24.0454V14.4411H23.1725V13.1709Z" fill="white"/>
<path d="M20.0202 12C19.787 12.0013 19.5639 12.095 19.3997 12.2605C19.2355 12.4261 19.1436 12.65 19.1443 12.8832C19.1449 13.1164 19.238 13.3398 19.4031 13.5044C19.5682 13.6691 19.7919 13.7615 20.0251 13.7615C20.2583 13.7615 20.4819 13.6691 20.647 13.5044C20.8121 13.3398 20.9052 13.1164 20.9058 12.8832C20.9065 12.65 20.8146 12.4261 20.6504 12.2605C20.4862 12.095 20.2631 12.0013 20.0299 12H20.0202Z" fill="white"/>
<path d="M13.3286 14.2839C12.7151 14.3043 12.1343 14.5657 11.7122 15.0115C11.2901 15.4573 11.0608 16.0514 11.0739 16.6652C11.087 17.2789 11.3415 17.8627 11.7823 18.2901C12.223 18.7174 12.8144 18.9538 13.4283 18.9479C13.8374 18.9751 14.2452 18.8792 14.5994 18.6727C14.9535 18.4661 15.2378 18.1584 15.4156 17.789L14.2901 17.3718C14.206 17.5175 14.082 17.6361 13.9327 17.7136C13.7833 17.7911 13.6149 17.8241 13.4473 17.8089C13.2004 17.8251 12.9566 17.7461 12.7662 17.588C12.5758 17.43 12.4532 17.2049 12.4238 16.9592H15.557C15.577 16.8211 15.5864 16.6816 15.5849 16.542C15.6105 16.2704 15.5821 15.9963 15.5013 15.7357C15.4206 15.4751 15.2891 15.2331 15.1144 15.0235C14.9398 14.8139 14.7254 14.6409 14.4836 14.5146C14.2418 14.3882 13.9773 14.3109 13.7055 14.2872C13.5802 14.2753 13.4541 14.2742 13.3286 14.2839ZM12.4478 16.0891C12.4753 15.8747 12.5833 15.6788 12.7499 15.5411C12.9164 15.4033 13.1292 15.3341 13.3449 15.3474C13.555 15.3198 13.7676 15.3764 13.9362 15.5048C14.1048 15.6332 14.2159 15.8231 14.2452 16.033C14.2452 16.0515 14.2493 16.0715 14.2502 16.0909L12.4478 16.0891Z" fill="white"/>
<path d="M26.2168 17.6275L28.25 15.5359V14.4414H24.6054V15.6054H26.4879L24.5516 17.6182V18.7906H28.2857V17.6266L26.2168 17.6275Z" fill="white"/>
</g>
</g>
<defs>
<clipPath id="clip0_266_65198">
<rect width="32" height="32" fill="white"/>
</clipPath>
</defs>
</svg>
