<svg width="24" height="24" viewBox="0 0 24 24" fill="none" xmlns="http://www.w3.org/2000/svg">
<g clip-path="url(#clip0_266_64887)">
<path d="M0 12C0 12.7065 0 12.785 0.0168382 13.385C0.06174 14.714 0.202058 16.2393 0.735266 17.8486C1.11132 18.9869 1.81852 20.2149 2.52572 20.9888C3.42377 21.9756 4.66416 22.7831 6.00561 23.2429C7.37511 23.7139 8.85688 23.9439 11.7362 24H12.2694C15.1544 23.9383 16.6305 23.7139 18 23.2429C19.3414 22.7831 20.5763 21.9756 21.4742 20.9888C22.1816 20.2094 22.8887 18.9869 23.2648 17.8486C23.7979 16.2393 23.9439 14.7084 23.9831 13.385C24 12.7907 24 12.7065 24 12C24 11.2935 24 11.2149 23.9831 10.6149C23.9383 9.28599 23.7979 7.76074 23.2648 6.15139C22.8887 5.01309 22.1816 3.78504 21.4742 3.01121C20.5763 2.0243 19.3358 1.21682 18 0.757009C16.6305 0.285981 15.1487 0.0560747 12.2694 0H11.7362C8.85126 0.0616821 7.37511 0.285981 6.00561 0.757009C4.66416 1.21682 3.42936 2.0243 2.52572 3.01121C1.81852 3.79065 1.11132 5.01309 0.735266 6.15139C0.207671 7.76074 0.06174 9.28599 0.0168382 10.6149C0 11.2093 0 11.2935 0 12Z" fill="#0099D9"/>
<mask id="mask0_266_64887" style="mask-type:luminance" maskUnits="userSpaceOnUse" x="2" y="9" width="20" height="6">
<path d="M21.6429 9.21387H2.35718V14.571H21.6429V9.21387Z" fill="white"/>
</mask>
<g mask="url(#mask0_266_64887)">
<path d="M14.0614 11.0144C13.3972 11.6783 13.3972 12.7543 14.0614 13.4182L14.9852 14.3416C15.2906 14.6468 15.7869 14.6468 16.0923 14.3416L14.6111 12.8611C14.2523 12.5025 14.2523 11.9225 14.6111 11.5638C14.9699 11.2052 15.5502 11.2052 15.9091 11.5638L18.6805 14.334C18.9859 14.6392 19.4822 14.6392 19.7876 14.334L16.4588 11.0067C15.7945 10.3428 14.718 10.3428 14.0538 11.0067" fill="white"/>
<path d="M17.3902 10.0914C16.2144 8.91615 14.3133 8.91615 13.1376 10.0914C11.9618 11.2666 11.9618 13.1668 13.1376 14.342C13.443 14.6472 13.9392 14.6472 14.2446 14.342L13.6873 13.7849C12.8016 12.9302 12.7787 11.526 13.6338 10.6408C14.4889 9.7556 15.8938 9.73271 16.7794 10.5874C16.8023 10.6027 16.8176 10.6256 16.8328 10.6408L20.5281 14.3343C20.8335 14.6396 21.3298 14.6396 21.6352 14.3343L17.3826 10.0838L17.3902 10.0914Z" fill="white"/>
<path d="M14.9853 11.9377C14.8326 12.0903 14.8326 12.3422 14.9853 12.4948L16.8329 14.3416C17.1383 14.6468 17.6346 14.6468 17.94 14.3416L15.535 11.9377C15.3823 11.7851 15.1303 11.7851 14.9776 11.9377" fill="white"/>
<path d="M9.93857 11.0145C10.6028 11.6785 10.6028 12.7545 9.93857 13.4184L9.01474 14.3418C8.70936 14.647 8.21307 14.647 7.9077 14.3418L9.38886 12.8613C9.7477 12.5026 9.7477 11.9227 9.38886 11.564C9.03002 11.2053 8.44977 11.2053 8.09093 11.564L5.31947 14.3341C5.01407 14.6394 4.5178 14.6394 4.2124 14.3341L7.53357 11.0145C8.19782 10.3506 9.27432 10.3506 9.93857 11.0145Z" fill="white"/>
<path d="M6.60981 10.0914C7.78557 8.91615 9.68667 8.91615 10.8624 10.0914C12.0382 11.2666 12.0382 13.1668 10.8624 14.342C10.557 14.6472 10.0608 14.6472 9.75537 14.342L10.3127 13.7849C11.1907 12.9302 11.206 11.5184 10.3509 10.6408C9.49578 9.76323 8.08334 9.74797 7.20533 10.6027C7.19005 10.6179 7.18242 10.6256 7.16716 10.6408L3.46424 14.342C3.15884 14.6472 2.66258 14.6472 2.35718 14.342L6.60981 10.0914Z" fill="white"/>
<path d="M9.00719 11.9377C9.15989 12.0903 9.15989 12.3422 9.00719 12.4948L7.15955 14.3416C6.85415 14.6468 6.35789 14.6468 6.05249 14.3416L8.45748 11.9377C8.61018 11.7851 8.86214 11.7851 9.01484 11.9377" fill="white"/>
</g>
</g>
<defs>
<clipPath id="clip0_266_64887">
<rect width="24" height="24" fill="white"/>
</clipPath>
</defs>
</svg>
