<svg width="56" height="56" viewBox="0 0 56 56" fill="none" xmlns="http://www.w3.org/2000/svg">
<g clip-path="url(#clip0_266_65804)">
<path d="M0 28C0 29.6486 0 29.8318 0.039289 31.2318C0.14406 34.3327 0.471469 37.8916 1.71562 41.6467C2.59308 44.3028 4.24322 47.1682 5.89335 48.9739C7.9888 51.2765 10.883 53.1605 14.0131 54.2335C17.2086 55.3325 20.666 55.869 27.3845 56H28.6287C35.3601 55.856 38.8045 55.3325 42 54.2335C45.1301 53.1605 48.0112 51.2765 50.1065 48.9739C51.757 47.1552 53.407 44.3028 54.2845 41.6467C55.5285 37.8916 55.869 34.3196 55.9605 31.2318C56 29.8449 56 29.6486 56 28C56 26.3514 56 26.1682 55.9605 24.7682C55.856 21.6673 55.5285 18.1084 54.2845 14.3532C53.407 11.6972 51.757 8.83175 50.1065 7.02615C48.0112 4.72337 45.117 2.83925 42 1.76636C38.8045 0.66729 35.347 0.130841 28.6287 0H27.3845C20.653 0.143925 17.2086 0.66729 14.0131 1.76636C10.883 2.83925 8.00185 4.72337 5.89335 7.02615C4.24322 8.84485 2.59308 11.6972 1.71562 14.3532C0.484565 18.1084 0.14406 21.6673 0.039289 24.7682C0 26.1551 0 26.3514 0 28Z" fill="#003CDC"/>
<path d="M11.7611 27.8787L12.6686 26.6471C11.9949 26.3229 11.3073 25.8303 10.802 25.1688C10.2962 24.5339 9.95933 23.7561 9.95933 22.8353V21.7726H8.27343V22.8613C8.27343 23.7948 7.94928 24.6247 7.43073 25.3378C6.91213 26.0636 6.22458 26.6343 5.49878 27.0487L6.50993 28.2288C7.09333 27.8786 7.66348 27.4377 8.13048 26.9324C8.58478 26.4525 8.94718 25.9212 9.16768 25.4154C9.69953 26.4005 10.5167 27.2044 11.7611 27.8787ZM15.0803 25.5839H16.9602V24.2225H15.0803V21.5H13.4725V28.3452H15.0803V25.5839ZM8.27343 33.7775H15.0798V28.8122H8.27343V33.7775ZM13.472 30.1735V32.4296H9.86798V30.1735H13.472ZM23.5849 28.0859L24.4924 26.8288C23.8054 26.4786 23.1184 26.0121 22.6386 25.3894C22.1333 24.78 21.8219 24.0281 21.8219 23.0557V21.7726H20.11V23.0818C20.11 23.9633 19.8119 24.7411 19.3321 25.4154C18.8523 26.1024 18.1392 26.6991 17.3486 27.2171L18.3465 28.4233C18.9692 28.0471 19.5266 27.5546 19.9931 27.0748C20.4473 26.595 20.797 26.0897 20.9915 25.6227C21.1987 26.0376 21.5488 26.4913 22.0026 26.9191C22.4569 27.3733 23.0142 27.775 23.5849 28.0859ZM25.8149 28.41H27.4227V21.5H25.8149V23.6525H23.5461V25.0786H25.8149V28.41ZM27.2277 31.107C27.2277 30.2771 26.8908 29.5769 26.3335 29.0715C25.7628 28.5662 24.9722 28.2676 24.0386 28.2676C23.1051 28.2676 22.3272 28.5657 21.7698 29.0715C21.1992 29.5769 20.8751 30.2771 20.8751 31.107C20.8751 31.9753 21.1992 32.6756 21.7698 33.1814C22.3272 33.6612 23.1051 33.946 24.0386 33.946C24.9722 33.946 25.7628 33.6607 26.3335 33.1814C26.8908 32.6756 27.2277 31.9753 27.2277 31.107ZM25.6464 31.107C25.6464 32.0013 24.9722 32.5975 24.0386 32.5975C23.1051 32.5975 22.4569 32.0013 22.4569 31.107C22.4569 30.225 23.1051 29.6289 24.0386 29.6289C24.5052 29.6289 24.8941 29.7845 25.1922 30.0438C25.3361 30.181 25.4505 30.3459 25.5286 30.5287C25.6067 30.7115 25.6468 30.9083 25.6464 31.107ZM33.8529 28.1901L34.7732 26.9711C33.4247 26.1412 32.6213 24.8968 32.6213 23.1726V21.941H31.0135V23.1987C31.0135 24.1317 30.7669 24.9096 30.3652 25.5711C29.9503 26.2449 29.3669 26.7895 28.7319 27.2693L29.7425 28.4748C30.6766 27.8138 31.48 26.9064 31.8562 26.0249C32.0506 26.4398 32.3487 26.8671 32.7116 27.2432C33.0479 27.6086 33.4317 27.9271 33.8529 28.1901ZM37.5346 28.5396H39.0903V21.5H37.5346V24.145H36.5494V21.6297H34.9937V28.0471H36.5494V25.493H37.5346V28.5396ZM38.9995 31.2622C38.9995 30.4716 38.6498 29.7846 38.0792 29.3048C37.5085 28.825 36.6919 28.5396 35.7583 28.5396C34.812 28.5396 33.9953 28.8255 33.4247 29.3048C32.8413 29.7846 32.4916 30.4716 32.4916 31.2622C32.4916 32.0921 32.8413 32.7925 33.4247 33.2718C33.9953 33.7388 34.812 34.0108 35.7583 34.0108C36.6924 34.0108 37.509 33.7388 38.0792 33.2718C38.6498 32.792 38.9995 32.0921 38.9995 31.2622ZM37.3789 31.2622C37.3789 32.1049 36.7051 32.6496 35.7583 32.6496C34.7732 32.6496 34.0862 32.1049 34.0862 31.2622C34.0862 30.4328 34.7732 29.8754 35.7583 29.8754C36.7051 29.8754 37.3789 30.4328 37.3789 31.2622ZM48.9046 28.3325H50.4993V21.5H48.9046V22.9133H46.5837V21.9671H41.0222V27.5673H46.5837V26.7251H48.9046V28.3325ZM50.3048 31.107C50.3048 30.2771 49.9678 29.5769 49.4104 29.0715C48.8398 28.5662 48.0491 28.2676 47.1156 28.2676C46.182 28.2676 45.4041 28.5657 44.8468 29.0715C44.2761 29.5769 43.952 30.2771 43.952 31.107C43.952 31.9753 44.2761 32.6756 44.8468 33.1814C45.4041 33.6612 46.182 33.946 47.1156 33.946C48.0491 33.946 48.8398 33.6607 49.4104 33.1814C49.9678 32.6756 50.3048 31.9753 50.3048 31.107ZM48.7229 31.107C48.7229 32.0013 48.0491 32.5975 47.1151 32.5975C46.182 32.5975 45.5338 32.0013 45.5338 31.107C45.5338 30.225 46.182 29.6289 47.1156 29.6289C47.5821 29.6289 47.971 29.7845 48.2691 30.0438C48.413 30.181 48.5275 30.3459 48.6056 30.5287C48.6837 30.7115 48.7233 30.9083 48.7229 31.107ZM44.9764 23.3151V26.2061H42.6168V23.3151H44.9764ZM48.9046 24.2746V25.3633H46.5837V24.2746H48.9046Z" fill="white"/>
</g>
<defs>
<clipPath id="clip0_266_65804">
<rect width="56" height="56" fill="white"/>
</clipPath>
</defs>
</svg>
