<svg width="24" height="24" viewBox="0 0 24 24" fill="none" xmlns="http://www.w3.org/2000/svg">
<g clip-path="url(#clip0_266_64844)">
<path d="M0 12C0 12.7065 0 12.785 0.0168382 13.385C0.06174 14.714 0.202058 16.2393 0.735266 17.8486C1.11132 18.9869 1.81852 20.2149 2.52572 20.9888C3.42377 21.9756 4.66416 22.7831 6.00561 23.2429C7.37511 23.7139 8.85688 23.9439 11.7362 24H12.2694C15.1544 23.9383 16.6305 23.7139 18 23.2429C19.3414 22.7831 20.5763 21.9756 21.4742 20.9888C22.1816 20.2094 22.8887 18.9869 23.2648 17.8486C23.7979 16.2393 23.9439 14.7084 23.9831 13.385C24 12.7907 24 12.7065 24 12C24 11.2935 24 11.2149 23.9831 10.6149C23.9383 9.28599 23.7979 7.76074 23.2648 6.15139C22.8887 5.01309 22.1816 3.78504 21.4742 3.01121C20.5763 2.0243 19.3358 1.21682 18 0.757009C16.6305 0.285981 15.1487 0.0560747 12.2694 0H11.7362C8.85126 0.0616821 7.37511 0.285981 6.00561 0.757009C4.66416 1.21682 3.42936 2.0243 2.52572 3.01121C1.81852 3.79065 1.11132 5.01309 0.735266 6.15139C0.207671 7.76074 0.06174 9.28599 0.0168382 10.6149C0 11.2093 0 11.2935 0 12Z" fill="#1D62E5"/>
<path d="M11.6916 5.14966C7.90719 5.32226 4.9794 8.52787 5.14991 12.3102C5.32039 16.0925 8.526 19.0224 12.3104 18.8498C16.0927 18.6772 19.0205 15.4737 18.85 11.6893C18.6795 7.90906 15.4739 4.97917 11.6916 5.14966ZM12.4935 11.805C13.7122 12.929 14.3794 13.5331 14.3794 13.5331C16.5284 15.3221 15.7938 16.9576 14.973 17.5259C14.3479 17.9594 13.6533 18.1636 12.744 18.212C12.6619 18.2225 12.5125 18.1763 12.5062 18.031C12.4998 17.8753 12.7272 17.8374 12.7272 17.8374C14.7562 17.4375 14.1626 16.1072 13.4449 15.4295C13.1439 15.1432 10.3193 12.708 10.3193 12.708C7.62724 10.3906 7.84194 8.58048 7.84194 8.58048C7.97244 6.3536 9.92147 5.80216 11.3969 5.92843C11.5695 5.94318 11.6664 6.04841 11.6348 6.19363C11.6032 6.3494 11.3738 6.36202 11.3738 6.36202C10.9044 6.38938 10.4856 6.43779 10.1656 6.65248C8.97641 7.45231 9.32792 8.81201 10.9128 10.3254C11.1128 10.5169 11.3233 10.7168 11.5401 10.921C11.5401 10.921 11.8579 11.201 12.4914 11.805H12.4935ZM11.5737 17.5616C11.5864 17.7784 11.0581 17.8731 10.4561 17.8142C9.69836 17.7405 8.7933 17.5006 8.0061 16.8207C7.28205 16.1935 6.83374 15.3327 6.61483 14.577C6.39174 13.8025 6.29912 12.8953 6.66746 12.9669C6.78111 12.99 6.97686 13.4868 7.18944 13.8488C7.40835 14.2234 7.58936 14.4297 7.75564 14.556C7.83141 14.6128 8.09029 14.0382 8.46705 13.712C8.68596 13.531 8.9259 13.4699 8.96379 14.0087C9.01009 14.6697 8.89224 15.4547 9.08376 15.4547C9.26477 15.4547 9.67099 15.32 10.5634 15.2443C10.8981 15.2148 11.0896 15.2779 10.7697 15.7305C10.6097 15.9557 10.395 16.2735 9.88991 16.6355C10.6476 17.3469 11.559 17.2607 11.5758 17.5616H11.5737ZM12.1715 10.6495C12.1147 10.4264 12.0999 10.1465 12.1462 9.78864C12.241 9.03933 12.443 8.68783 12.6724 8.10901C12.9818 7.33023 12.2304 6.8735 12.3546 6.58723C12.5251 6.19996 13.0639 6.69247 13.6617 6.72826C14.1774 6.75772 14.4889 6.73036 14.8909 6.78509C15.4234 6.85666 16.0633 7.03766 16.3453 7.37021C16.6063 7.67542 16.2085 8.04798 15.7286 7.81434C15.3792 7.64386 14.9372 7.74909 15.1961 8.11321C15.5076 8.4605 15.657 8.46892 15.9727 8.55311C16.8462 8.78255 16.8631 9.61816 16.2737 10.0517C15.6002 10.5443 14.9204 10.3401 14.6467 9.374C14.5099 8.89198 14.169 8.64783 13.8217 8.78465C13.4744 8.92145 13.6806 9.55501 13.9437 10.1422C14.472 11.4893 13.1607 11.443 13.0071 11.4262C12.3104 11.2788 12.1694 10.6474 12.1694 10.6474L12.1715 10.6495Z" fill="white"/>
</g>
<defs>
<clipPath id="clip0_266_64844">
<rect width="24" height="24" fill="white"/>
</clipPath>
</defs>
</svg>
