<svg width="24" height="24" viewBox="0 0 24 24" fill="none" xmlns="http://www.w3.org/2000/svg">
<g clip-path="url(#clip0_266_64964)">
<path d="M0 12C0 12.7065 0 12.785 0.0168382 13.385C0.06174 14.714 0.202058 16.2393 0.735266 17.8486C1.11132 18.9869 1.81852 20.2149 2.52572 20.9888C3.42377 21.9756 4.66416 22.7831 6.00561 23.2429C7.37511 23.7139 8.85688 23.9439 11.7362 24H12.2694C15.1544 23.9383 16.6305 23.7139 18 23.2429C19.3414 22.7831 20.5763 21.9756 21.4742 20.9888C22.1816 20.2094 22.8887 18.9869 23.2648 17.8486C23.7979 16.2393 23.9439 14.7084 23.9831 13.385C24 12.7907 24 12.7065 24 12C24 11.2935 24 11.2149 23.9831 10.6149C23.9383 9.28599 23.7979 7.76074 23.2648 6.15139C22.8887 5.01309 22.1816 3.78504 21.4742 3.01121C20.5763 2.0243 19.3358 1.21682 18 0.757009C16.6305 0.285981 15.1487 0.0560747 12.2694 0H11.7362C8.85126 0.0616821 7.37511 0.285981 6.00561 0.757009C4.66416 1.21682 3.42936 2.0243 2.52572 3.01121C1.81852 3.79065 1.11132 5.01309 0.735266 6.15139C0.207671 7.76074 0.06174 9.28599 0.0168382 10.6149C0 11.2093 0 11.2935 0 12Z" fill="#003CDC"/>
<path d="M5.04053 11.9476L5.42948 11.4197C5.14073 11.2808 4.84607 11.0697 4.62951 10.7862C4.41272 10.5141 4.26835 10.1807 4.26835 9.78612V9.33067H3.54583V9.79728C3.54583 10.1974 3.4069 10.553 3.18467 10.8586C2.96241 11.1697 2.66775 11.4143 2.35669 11.5919L2.79004 12.0976C3.04007 11.9476 3.28442 11.7586 3.48456 11.542C3.67926 11.3364 3.83458 11.1087 3.92908 10.8919C4.15701 11.3141 4.50722 11.6586 5.04053 11.9476ZM6.46307 10.9641H7.26872V10.3807H6.46307V9.21387H5.77401V12.1475H6.46307V10.9641ZM3.54583 14.4757H6.46285V12.3477H3.54583V14.4757ZM5.77378 12.9311V13.898H4.2292V12.9311H5.77378ZM10.1079 12.0364L10.4968 11.4976C10.2024 11.3476 9.90795 11.1476 9.70232 10.8807C9.48576 10.6196 9.3523 10.2973 9.3523 9.88062V9.33067H8.61863V9.89178C8.61863 10.2695 8.49088 10.6029 8.28525 10.8919C8.07962 11.1863 7.77403 11.4421 7.4352 11.6641L7.86285 12.181C8.12972 12.0198 8.3686 11.8087 8.56853 11.603C8.76321 11.3974 8.91306 11.1809 8.99642 10.9807C9.08522 11.1586 9.23528 11.353 9.42975 11.5363C9.62445 11.731 9.86331 11.9032 10.1079 12.0364ZM11.0636 12.1753H11.7526V9.21387H11.0636V10.1363H10.0912V10.7475H11.0636V12.1753ZM11.6691 13.3312C11.6691 12.9755 11.5247 12.6754 11.2858 12.4588C11.0413 12.2422 10.7024 12.1143 10.3023 12.1143C9.90225 12.1143 9.56888 12.242 9.33 12.4588C9.08543 12.6754 8.94653 12.9755 8.94653 13.3312C8.94653 13.7033 9.08543 14.0034 9.33 14.2202C9.56888 14.4258 9.90225 14.5479 10.3023 14.5479C10.7024 14.5479 11.0413 14.4256 11.2858 14.2202C11.5247 14.0034 11.6691 13.7033 11.6691 13.3312ZM10.9914 13.3312C10.9914 13.7144 10.7024 13.9699 10.3023 13.9699C9.90225 13.9699 9.62445 13.7144 9.62445 13.3312C9.62445 12.9532 9.90225 12.6977 10.3023 12.6977C10.5023 12.6977 10.669 12.7644 10.7967 12.8755C10.8584 12.9343 10.9074 13.005 10.9409 13.0833C10.9744 13.1617 10.9916 13.246 10.9914 13.3312ZM14.5085 12.081L14.9029 11.5586C14.3249 11.203 13.9806 10.6696 13.9806 9.93072V9.40287H13.2916V9.94186C13.2916 10.3417 13.1859 10.6751 13.0137 10.9586C12.8359 11.2474 12.5859 11.4808 12.3138 11.6864L12.7469 12.2031C13.1472 11.9198 13.4915 11.5309 13.6527 11.1531C13.7361 11.3309 13.8638 11.514 14.0193 11.6752C14.1634 11.8318 14.328 11.9683 14.5085 12.081ZM16.0863 12.2309H16.7531V9.21387H16.0863V10.3474H15.6641V9.26943H14.9974V12.0198H15.6641V10.9252H16.0863V12.2309ZM16.7141 13.3977C16.7141 13.0588 16.5643 12.7644 16.3197 12.5588C16.0752 12.3532 15.7252 12.2309 15.3251 12.2309C14.9195 12.2309 14.5695 12.3534 14.3249 12.5588C14.0749 12.7644 13.9251 13.0588 13.9251 13.3977C13.9251 13.7534 14.0749 14.0535 14.3249 14.2589C14.5695 14.459 14.9195 14.5756 15.3251 14.5756C15.7254 14.5756 16.0754 14.459 16.3197 14.2589C16.5643 14.0533 16.7141 13.7534 16.7141 13.3977ZM16.0196 13.3977C16.0196 13.7588 15.7308 13.9922 15.3251 13.9922C14.9029 13.9922 14.6084 13.7588 14.6084 13.3977C14.6084 13.0422 14.9029 12.8033 15.3251 12.8033C15.7308 12.8033 16.0196 13.0422 16.0196 13.3977ZM20.9592 12.1421H21.6426V9.21387H20.9592V9.81959H19.9645V9.41403H17.581V11.8141H19.9645V11.4532H20.9592V12.1421ZM21.5593 13.3312C21.5593 12.9755 21.4148 12.6754 21.176 12.4588C20.9314 12.2422 20.5926 12.1143 20.1925 12.1143C19.7924 12.1143 19.459 12.242 19.2201 12.4588C18.9756 12.6754 18.8367 12.9755 18.8367 13.3312C18.8367 13.7033 18.9756 14.0034 19.2201 14.2202C19.459 14.4258 19.7924 14.5479 20.1925 14.5479C20.5926 14.5479 20.9314 14.4256 21.176 14.2202C21.4148 14.0034 21.5593 13.7033 21.5593 13.3312ZM20.8813 13.3312C20.8813 13.7144 20.5926 13.9699 20.1922 13.9699C19.7924 13.9699 19.5145 13.7144 19.5145 13.3312C19.5145 12.9532 19.7924 12.6977 20.1925 12.6977C20.3924 12.6977 20.5591 12.7644 20.6868 12.8755C20.7485 12.9343 20.7976 13.005 20.831 13.0833C20.8645 13.1617 20.8815 13.246 20.8813 13.3312ZM19.2757 9.99175V11.2307H18.2644V9.99175H19.2757ZM20.9592 10.403V10.8696H19.9645V10.403H20.9592Z" fill="white"/>
</g>
<defs>
<clipPath id="clip0_266_64964">
<rect width="24" height="24" fill="white"/>
</clipPath>
</defs>
</svg>
