<svg width="32" height="32" viewBox="0 0 32 32" fill="none" xmlns="http://www.w3.org/2000/svg">
<g clip-path="url(#clip0_266_65264)">
<path d="M0 16C0 16.9355 0 17.0475 0.024006 17.8471C0.048012 19.8621 0.376094 21.8691 0.984246 23.7961C1.50438 25.3313 2.31258 26.7546 3.36883 27.986C4.64117 29.3534 6.23357 30.3849 8.002 30.9926C9.82646 31.6243 11.8029 31.92 15.6439 32H16.3561C20.1971 31.92 22.1735 31.6163 23.998 30.9926C25.7664 30.3849 27.3588 29.3534 28.6311 27.986C29.6874 26.7546 30.5037 25.3393 31.0157 23.7961C31.624 21.8691 31.952 19.8701 31.976 17.8471C32 17.0555 32 16.9435 32 16C32 15.0565 32 14.9525 31.976 14.1609C31.952 12.1459 31.624 10.1389 31.0157 8.21189C30.4957 6.67666 29.6874 5.25337 28.6311 4.022C27.3588 2.65467 25.7664 1.62319 23.998 1.01549C22.1735 0.383809 20.1971 0.07996 16.3561 0H15.6439C11.8029 0.07996 9.82646 0.383809 8.002 1.0075C6.23357 1.61519 4.64117 2.64668 3.36883 4.014C2.31258 5.24537 1.49637 6.66066 0.984246 8.20389C0.376094 10.1389 0.056014 12.1379 0.024006 14.1609C0 14.9525 0 15.0645 0 16Z" fill="#DF007E"/>
<path d="M18.4996 10.7588L13.2576 16.0045L18.5033 21.2466L23.7454 16.0008L18.4996 10.7588Z" fill="white"/>
<path d="M12.2561 11H8.2561V15H12.2561V11Z" fill="white"/>
<path d="M12.2561 17H8.2561V21H12.2561V17Z" fill="white"/>
</g>
<defs>
<clipPath id="clip0_266_65264">
<rect width="32" height="32" fill="white"/>
</clipPath>
</defs>
</svg>
