<svg width="56" height="56" viewBox="0 0 56 56" fill="none" xmlns="http://www.w3.org/2000/svg">
<g clip-path="url(#clip0_266_65818)">
<path d="M0 27.993C0 29.6306 0 29.8265 0.0420105 31.2262C0.084021 34.7533 0.658165 38.2664 1.72243 41.6396C2.63266 44.3269 4.04701 46.8183 5.89547 48.9738C8.12203 51.3672 10.9087 53.1727 14.0035 54.2364C17.1963 55.3282 20.6552 55.86 27.3768 56H28.6232C35.3448 55.86 38.8037 55.3282 41.9965 54.2364C45.0913 53.1727 47.878 51.3672 50.1045 48.9738C51.953 46.8183 53.3813 44.3409 54.2776 41.6396C55.3418 38.2664 55.916 34.7673 55.958 31.2262C56 29.8405 56 29.6446 56 27.993C56 26.3414 56 26.1595 55.958 24.7738C55.916 21.2327 55.3418 17.7336 54.2776 14.3604C53.3673 11.6731 51.953 9.1817 50.1045 7.02624C47.878 4.63284 45.0913 2.82729 41.9965 1.76356C38.8037 0.657836 35.3448 0.139965 28.6232 0H27.3768C20.6552 0.139965 17.1963 0.671832 14.0035 1.76356C10.9087 2.82729 8.12203 4.63284 5.89547 7.02624C4.04701 9.1817 2.61865 11.6591 1.72243 14.3604C0.658165 17.7196 0.0980245 21.2327 0.0420105 24.7598C0 26.1455 0 26.3414 0 27.993Z" fill="#0B3268"/>
<path fill-rule="evenodd" clip-rule="evenodd" d="M25.3669 24.3169C29.1307 24.3169 32.1839 21.28 32.2 17.5161C32.2 17.5161 32.2 17.5161 32.2 17.5H38.5V38.4838H30.6169V29.5669H25.3669V38.5H17.5V17.5H25.3831V24.3331L25.3669 24.3169Z" fill="white"/>
</g>
<defs>
<clipPath id="clip0_266_65818">
<rect width="56" height="56" fill="white"/>
</clipPath>
</defs>
</svg>
