<svg width="40" height="40" viewBox="0 0 40 40" fill="none" xmlns="http://www.w3.org/2000/svg">
<g clip-path="url(#clip0_266_65538)">
<path d="M0 19.995C0 21.1647 0 21.3047 0.0300075 22.3044C0.060015 24.8238 0.470118 27.3332 1.23031 29.7426C1.88047 31.6621 2.89072 33.4416 4.21105 34.9813C5.80145 36.6908 7.79195 37.9805 10.0025 38.7403C12.2831 39.5201 14.7537 39.9 19.5549 40H20.4451C25.2463 39.9 27.7169 39.5201 29.9975 38.7403C32.208 37.9805 34.1985 36.6908 35.7889 34.9813C37.1093 33.4416 38.1295 31.6721 38.7697 29.7426C39.5299 27.3332 39.94 24.8338 39.97 22.3044C40 21.3147 40 21.1747 40 19.995C40 18.8153 40 18.6853 39.97 17.6956C39.94 15.1662 39.5299 12.6668 38.7697 10.2574C38.1195 8.33792 37.1093 6.55836 35.7889 5.01875C34.1985 3.30917 32.208 2.0195 29.9975 1.25969C27.7169 0.469883 25.2463 0.099975 20.4451 0H19.5549C14.7537 0.099975 12.2831 0.47988 10.0025 1.25969C7.79195 2.0195 5.80145 3.30917 4.21105 5.01875C2.89072 6.55836 1.87047 8.32792 1.23031 10.2574C0.470118 12.6568 0.0700175 15.1662 0.0300075 17.6856C0 18.6753 0 18.8153 0 19.995Z" fill="#0B3268"/>
<path fill-rule="evenodd" clip-rule="evenodd" d="M18.1192 17.3692C20.8077 17.3692 22.9885 15.2 23 12.5115C23 12.5115 23 12.5115 23 12.5H27.5V27.4885H21.8692V21.1192H18.1192V27.5H12.5V12.5H18.1308V17.3808L18.1192 17.3692Z" fill="white"/>
</g>
<defs>
<clipPath id="clip0_266_65538">
<rect width="40" height="40" fill="white"/>
</clipPath>
</defs>
</svg>
