<svg width="24" height="24" viewBox="0 0 24 24" fill="none" xmlns="http://www.w3.org/2000/svg">
<g clip-path="url(#clip0_266_64934)">
<path d="M0 12C0 12.7065 0 12.785 0.0168342 13.385C0.0617254 14.714 0.202011 16.2393 0.735094 17.8486C1.11106 18.9869 1.8181 20.2149 2.52514 20.9888C3.42296 21.9756 4.66307 22.7831 6.0042 23.2429C7.3734 23.7139 8.8548 23.9439 11.7334 24H12.2666C15.1508 23.9383 16.6266 23.7139 17.9958 23.2429C19.3369 22.7831 20.5714 21.9756 21.4749 20.9888C22.182 20.2094 22.8889 18.9869 23.265 17.8486C23.7979 16.2393 23.9439 14.7084 23.9831 13.385C24 12.7907 24 12.7065 24 12C24 11.2935 24 11.2093 23.9831 10.6149C23.9383 9.28599 23.7979 7.76074 23.265 6.15139C22.8889 5.01309 22.182 3.78504 21.4749 3.01121C20.577 2.0243 19.3369 1.21682 17.9958 0.757009C16.6266 0.285981 15.1452 0.0560747 12.2666 0H11.7334C8.84919 0.0616821 7.3734 0.285981 6.0042 0.757009C4.66307 1.21682 3.42857 2.0243 2.52514 3.01121C1.8181 3.79065 1.11106 5.01309 0.735094 6.15139C0.207622 7.76074 0.0617254 9.28599 0.0168342 10.6149C0 11.2093 0 11.2935 0 12Z" fill="#1861A0"/>
<path d="M16.639 7.28613C16.4748 7.28613 16.2541 7.33709 15.971 7.43898C14.7653 7.85787 13.6897 8.55415 12.7047 9.55047L12.0198 10.36L12.2858 10.7392C12.7387 11.3789 13.2142 12.4601 13.435 13.3715C13.5708 13.8923 13.6218 14.2206 13.6444 14.7584C13.6444 14.849 13.6501 14.9452 13.6557 15.0471C13.6557 15.149 13.6557 15.2622 13.6557 15.3868C13.6557 16.0321 13.6671 16.7737 13.5991 16.7737H16.8315L17.0126 16.5869C17.1258 16.4227 17.1428 15.8453 17.1428 11.9959C17.1428 8.14658 17.1315 7.57484 17.007 7.4333C16.9164 7.33709 16.8032 7.28613 16.6333 7.28613H16.639Z" fill="white"/>
<path d="M7.38929 7.28613C7.22513 7.28613 7.11192 7.32575 7.01003 7.41633C6.86283 7.54653 6.85718 7.80128 6.85718 11.9789C6.85718 15.8453 6.87417 16.4227 6.98738 16.5869L7.11758 16.7737H10.3273C12.8067 16.7737 13.5539 16.751 13.6049 16.6718C13.6388 16.6152 13.6672 16.0378 13.6615 15.3924C13.6558 14.4131 13.6162 14.0735 13.4351 13.3772C13.0388 11.8487 12.2916 10.4732 11.2103 9.4429C10.2707 8.54849 9.1951 7.8409 8.03463 7.43898C7.75724 7.34275 7.5478 7.29179 7.38363 7.29179L7.38929 7.28613Z" fill="white"/>
<path d="M12.0198 10.3535L11.816 10.6026C11.4537 11.0441 10.7914 12.5159 10.5706 13.3707C10.3895 14.067 10.3498 14.4067 10.3442 15.3917C10.3442 16.037 10.3272 16.7729 10.3951 16.7729H13.6048C13.6727 16.7729 13.6671 16.0313 13.6614 15.386C13.6557 14.4067 13.6048 14.0727 13.435 13.3707C13.2142 12.4593 12.7387 11.3781 12.2858 10.7384L12.0198 10.3592V10.3535Z" fill="#1861A0"/>
<path d="M12.0197 11.0615L11.8499 11.2823C11.5555 11.6786 11.0121 12.9862 10.8309 13.7448C10.6838 14.3674 10.6498 14.6675 10.6441 15.5392C10.6441 16.1167 10.6328 16.7676 10.6838 16.7676H13.3104C13.367 16.7676 13.3613 16.111 13.3557 15.5336C13.35 14.6618 13.3104 14.3618 13.1689 13.7391C12.9877 12.9296 12.6028 11.9673 12.2292 11.4012L12.014 11.0615H12.0197Z" fill="white"/>
</g>
<defs>
<clipPath id="clip0_266_64934">
<rect width="24" height="24" fill="white"/>
</clipPath>
</defs>
</svg>
