<svg width="48" height="48" viewBox="0 0 48 48" fill="none" xmlns="http://www.w3.org/2000/svg">
<path d="M31.25 2H11.25C8.35051 2 6 4.35051 6 7.25V35.25C6 38.1495 8.35051 40.5 11.25 40.5H31.25C34.1495 40.5 36.5 38.1495 36.5 35.25V7.25C36.5 4.35051 34.1495 2 31.25 2Z" fill="#303030" stroke="#909090" stroke-width="1.5"/>
<path d="M26.25 10H12.75C12.3358 10 12 10.3358 12 10.75C12 11.1642 12.3358 11.5 12.75 11.5H26.25C26.6642 11.5 27 11.1642 27 10.75C27 10.3358 26.6642 10 26.25 10Z" fill="#909090"/>
<path d="M21.25 16H12.75C12.3358 16 12 16.3358 12 16.75C12 17.1642 12.3358 17.5 12.75 17.5H21.25C21.6642 17.5 22 17.1642 22 16.75C22 16.3358 21.6642 16 21.25 16Z" fill="#909090"/>
<path d="M41.4135 28.007C41.1422 27.932 40.204 27.668 38.9288 27.249C36.2744 26.4085 33.7037 25.3208 31.25 24C27.9853 25.7059 24.5492 27.0572 21.0001 28.031V34.631C20.9945 36.1697 21.3659 37.6861 22.0814 39.046C22.551 39.9359 23.1395 40.7569 23.8307 41.486C25.9171 43.5561 28.4589 45.1026 31.25 46C31.25 46 41.5 43.011 41.5 34.634V28.034L41.4145 28.01" fill="#B3B3B3"/>
<path d="M31.2499 29.5C32.2441 29.5011 33.1973 29.9047 33.9003 30.6221C34.6033 31.3395 34.9989 32.3126 34.9999 33.3271C34.9998 34.0839 34.7801 34.8239 34.3681 35.4531C34.1795 35.7411 33.9524 35.9978 33.6982 36.2217V39.2373C33.6982 39.5004 33.5649 39.7455 33.3456 39.8838C33.1265 40.022 32.8525 40.0344 32.622 39.917L31.2499 39.2168L29.8769 39.917C29.6464 40.0344 29.3724 40.022 29.1532 39.8838C28.934 39.7455 28.8007 39.5004 28.8007 39.2373V36.2246C28.7311 36.1633 28.6639 36.0989 28.5985 36.0322C28.0741 35.4971 27.7169 34.8155 27.5722 34.0732C27.4275 33.331 27.5013 32.5615 27.7851 31.8623C28.0689 31.1631 28.5502 30.565 29.1669 30.1445C29.7835 29.7242 30.5084 29.5 31.2499 29.5ZM32.2108 37.0234C31.7788 37.1404 31.3302 37.1773 30.8847 37.1328L31.3612 37.6182C31.4371 37.6299 31.5116 37.6536 31.5819 37.6895L32.2108 38.0098V37.0234Z" fill="white"/>
</svg>
