<svg width="28" height="28" viewBox="0 0 28 28" fill="none" xmlns="http://www.w3.org/2000/svg">
<path d="M14 28C21.732 28 28 21.732 28 14C28 6.26801 21.732 0 14 0C6.26801 0 0 6.26801 0 14C0 21.732 6.26801 28 14 28Z" fill="#52A39C"/>
<path d="M13.96 9.82336C16.28 9.82336 18.16 11.7034 18.16 14.0234C18.16 16.3434 16.28 18.2234 13.96 18.2234C11.64 18.2234 9.75998 16.3434 9.75998 14.0234C9.75998 11.7034 11.64 9.82336 13.96 9.82336ZM13.96 8.77344C11.065 8.77344 8.70996 11.1284 8.70996 14.0234C8.70996 16.9184 11.065 19.2734 13.96 19.2734C16.855 19.2734 19.21 16.9184 19.21 14.0234C19.21 11.1284 16.855 8.77344 13.96 8.77344Z" fill="white"/>
<path d="M13.2404 9.61719H12.1904V18.4323H13.2404V9.61719Z" fill="white"/>
<path d="M15.7053 9.80627C15.7053 9.51632 15.4702 9.28125 15.1803 9.28125C14.8903 9.28125 14.6553 9.51632 14.6553 9.80627V16.3013C14.6553 16.5912 14.8903 16.8262 15.1803 16.8262C15.4702 16.8262 15.7053 16.5912 15.7053 16.3013V9.80627Z" fill="white"/>
<path d="M17.9946 8.17224C18.0996 8.17224 18.2146 8.21713 18.3096 8.31213L19.7096 9.71216C19.9096 9.91216 19.8946 10.2122 19.6796 10.2922L18.5346 10.7122C18.4996 10.7222 18.4646 10.7322 18.4296 10.7322C18.3196 10.7322 18.2046 10.6822 18.1146 10.5922L17.4446 9.92224C17.3196 9.79724 17.2746 9.63219 17.3196 9.49719L17.7396 8.35217C17.7796 8.23717 17.8846 8.17725 17.9996 8.17725M17.9946 7.12219C17.4296 7.12219 16.9396 7.46218 16.7496 7.98218L16.3296 9.1272C16.1396 9.6422 16.2846 10.2422 16.6946 10.6572L17.3646 11.3271C17.6496 11.6121 18.0346 11.7772 18.4246 11.7772C18.5846 11.7772 18.7446 11.7471 18.8946 11.6921L20.0396 11.2722C20.4596 11.1172 20.7696 10.7621 20.8696 10.3221C20.9746 9.84214 20.8196 9.33216 20.4546 8.96716L19.0546 7.56714C18.7696 7.28214 18.3846 7.11719 17.9946 7.11719V7.12219Z" fill="white"/>
<path d="M9.57489 17.2688C9.68489 17.2688 9.79989 17.3188 9.88989 17.4088L10.5599 18.0787C10.6849 18.2037 10.7299 18.3688 10.6849 18.5038L10.2649 19.6488C10.2249 19.7638 10.1199 19.8237 10.0049 19.8237C9.89988 19.8237 9.78488 19.7788 9.68988 19.6838L8.28989 18.2838C8.08989 18.0838 8.10488 17.7837 8.31988 17.7037L9.46487 17.2838C9.49987 17.2738 9.53488 17.2638 9.56988 17.2638M9.57489 16.2188C9.41489 16.2188 9.25489 16.2488 9.10489 16.3038L7.95987 16.7238C7.53987 16.8788 7.22988 17.2338 7.12988 17.6738C7.02488 18.1538 7.17989 18.6638 7.54489 19.0288L8.94488 20.4288C9.22988 20.7138 9.61488 20.8788 10.0049 20.8788C10.5699 20.8788 11.0599 20.5388 11.2499 20.0188L11.6699 18.8738C11.8599 18.3588 11.7149 17.7587 11.3049 17.3438L10.6349 16.6738C10.3499 16.3888 9.96489 16.2238 9.57489 16.2238V16.2188Z" fill="white"/>
</svg>
