<svg width="29" height="29" viewBox="0 0 29 29" fill="none" xmlns="http://www.w3.org/2000/svg">
<path d="M21.4793 13.8835C19.1181 12.2901 16.0966 12.9405 14.51 15.3377C13.1836 17.3401 11.1826 17.5872 10.4079 17.5872C7.88378 17.5872 6.15432 15.8234 5.64263 13.9971C5.63691 13.9801 5.63406 13.9659 5.62834 13.946C5.62262 13.9261 5.6169 13.9062 5.61119 13.8835C5.41108 13.1223 5.35963 12.7588 5.35963 11.9493C5.35963 7.58093 9.86765 2.72121 16.3624 2.72121C22.8572 2.72121 26.8163 7.75135 27.7968 10.5462C27.7797 10.4951 27.7654 10.4468 27.7454 10.3985C25.8644 4.93095 20.6475 1 14.5043 1C6.77178 1 0.5 7.22873 0.5 14.9117C0.5 21.7795 5.48541 27.6589 12.4032 27.6589C17.9203 27.6589 21.6251 24.5857 23.326 20.3508C24.2579 18.036 23.5975 15.3122 21.4793 13.8807V13.8835Z" fill="#003763"/>
<path d="M27.8881 10.8214C27.0706 8.09469 23.2372 2.72656 16.3651 2.72656C9.87033 2.72656 5.3623 7.58628 5.3623 11.9546C5.3623 12.7641 5.4109 13.1277 5.61386 13.8889C5.53096 13.5566 5.48522 13.2214 5.48522 12.8976C5.48522 8.35032 10.0676 5.20045 14.7786 5.20045C21.1561 5.20045 26.3245 10.3357 26.3245 16.6723C26.3245 21.64 23.4487 25.9373 19.2666 28.0022C24.6522 26.068 28.4999 20.9413 28.4999 14.9199C28.4999 13.4941 28.3083 12.2387 27.8853 10.827L27.8881 10.8214Z" fill="#E4022D"/>
</svg>
