<svg width="28" height="28" viewBox="0 0 28 28" fill="none" xmlns="http://www.w3.org/2000/svg">
<path d="M14 28C21.732 28 28 21.732 28 14C28 6.26801 21.732 0 14 0C6.26801 0 0 6.26801 0 14C0 21.732 6.26801 28 14 28Z" fill="#90959E"/>
<path d="M12.2502 9.83943C12.2502 8.81943 13.1202 8.00444 14.1602 8.09444C15.0752 8.17444 15.7502 9.00451 15.7502 9.92451V10.9895C15.7502 11.2795 15.9852 11.5145 16.2752 11.5145C16.5652 11.5145 16.8002 11.2795 16.8002 10.9895V9.94942C16.8002 8.45442 15.6752 7.13951 14.1802 7.04451C12.5552 6.94451 11.2002 8.23443 11.2002 9.83943V10.9945C11.2002 11.2845 11.4352 11.5195 11.7252 11.5195C12.0152 11.5195 12.2502 11.2845 12.2502 10.9945V9.83943Z" fill="#FFFDFD"/>
<path d="M18.8998 19.5563C18.8998 19.7513 18.7448 19.9062 18.5498 19.9062H9.44983C9.25483 19.9062 9.09982 19.7513 9.09982 19.5563V10.4562H18.5498C18.7448 10.4562 18.8998 10.6113 18.8998 10.8063V16.6112C18.8998 16.9012 19.1348 17.1362 19.4248 17.1362C19.7148 17.1362 19.9498 16.9012 19.9498 16.6112V10.8063C19.9498 10.0313 19.3248 9.40625 18.5498 9.40625H8.0498V19.5563C8.0498 20.3313 8.67483 20.9562 9.44983 20.9562H18.5498C19.3248 20.9562 19.9498 20.3313 19.9498 19.5563V18.7112C19.9498 18.4212 19.7148 18.1862 19.4248 18.1862C19.1348 18.1862 18.8998 18.4212 18.8998 18.7112V19.5563Z" fill="#FFFDFD"/>
<path d="M14.6197 13.7268C14.6197 13.2768 14.3347 12.9369 13.8197 12.9369C13.5397 12.9369 13.2847 13.0418 13.0647 13.2168C12.9197 13.3268 12.7247 13.3318 12.5897 13.2118C12.4297 13.0668 12.4247 12.8119 12.5897 12.6769C12.9497 12.3719 13.3997 12.1719 13.9297 12.1719C14.8747 12.1719 15.5347 12.7119 15.5347 13.6619C15.5347 14.7369 14.3547 15.1969 14.2247 16.1719C14.1997 16.3619 14.0546 16.5068 13.8646 16.5068H13.7447C13.5397 16.5068 13.3697 16.3368 13.3847 16.1368C13.4597 15.0368 14.6197 14.5318 14.6197 13.7268ZM13.1947 17.8768C13.1947 17.4918 13.4647 17.2068 13.8247 17.2068C14.1847 17.2068 14.4497 17.4918 14.4497 17.8768C14.4497 18.2618 14.1747 18.5319 13.8247 18.5319C13.4747 18.5319 13.1947 18.2618 13.1947 17.8768Z" fill="#FFFDFD"/>
</svg>
