<svg width="28" height="28" viewBox="0 0 28 28" fill="none" xmlns="http://www.w3.org/2000/svg">
<path d="M14 28C21.732 28 28 21.732 28 14C28 6.26801 21.732 0 14 0C6.26801 0 0 6.26801 0 14C0 21.732 6.26801 28 14 28Z" fill="#5FA376"/>
<path d="M14 21.75C9.725 21.75 6.25 18.275 6.25 14C6.25 9.725 9.725 6.25 14 6.25C18.275 6.25 21.75 9.725 21.75 14C21.75 18.275 18.275 21.75 14 21.75ZM14 7.75C10.555 7.75 7.75 10.555 7.75 14C7.75 17.445 10.555 20.25 14 20.25C17.445 20.25 20.25 17.445 20.25 14C20.25 10.555 17.445 7.75 14 7.75Z" fill="white"/>
<path d="M15.5396 16.6633C15.3746 16.6633 15.2146 16.5832 15.1146 16.4432L12.9846 13.4832V16.1383C12.9846 16.4283 12.7496 16.6633 12.4596 16.6633C12.1696 16.6633 11.9346 16.4283 11.9346 16.1383V11.8532C11.9346 11.6232 12.0796 11.4232 12.2996 11.3532C12.5146 11.2832 12.7546 11.3633 12.8846 11.5483L15.0146 14.5082V11.8532C15.0146 11.5632 15.2496 11.3282 15.5396 11.3282C15.8296 11.3282 16.0646 11.5632 16.0646 11.8532V16.1383C16.0646 16.3683 15.9196 16.5683 15.6996 16.6383C15.6446 16.6533 15.5946 16.6633 15.5396 16.6633Z" fill="white"/>
</svg>
