<svg width="36" height="36" viewBox="0 0 36 36" fill="none" xmlns="http://www.w3.org/2000/svg">
<path d="M17.9999 3.97266C15.2256 3.97266 12.5137 4.79533 10.2069 6.33663C7.90019 7.87794 6.10232 10.0687 5.04065 12.6318C3.97898 15.1949 3.7012 18.0152 4.24243 20.7362C4.78367 23.4572 6.11961 25.9565 8.08132 27.9182C10.043 29.88 12.5424 31.2159 15.2634 31.7571C17.9843 32.2984 20.8047 32.0206 23.3678 30.9589C25.9309 29.8972 28.1216 28.0994 29.6629 25.7926C31.2042 23.4859 32.0269 20.7739 32.0269 17.9997C32.0269 14.2795 30.5491 10.7116 27.9185 8.08107C25.2879 5.4505 21.7201 3.97266 17.9999 3.97266ZM17.9999 25.0137C16.6127 25.0137 15.2566 24.6023 14.1031 23.8316C12.9497 23.0609 12.0507 21.9654 11.5198 20.6838C10.9889 19.4022 10.85 17.9919 11.1207 16.6313C11.3913 15.2707 12.0593 14.0209 13.0403 13.04C14.0212 12.0591 15.271 11.3911 16.6315 11.1204C17.9921 10.8498 19.4024 10.9887 20.684 11.5196C21.9657 12.0504 23.0611 12.9494 23.8318 14.1029C24.6025 15.2563 25.0139 16.6124 25.0139 17.9997C25.014 18.9208 24.8327 19.8329 24.4803 20.684C24.1278 21.535 23.6112 22.3083 22.9598 22.9596C22.3085 23.6109 21.5352 24.1276 20.6842 24.48C19.8332 24.8325 18.921 25.0138 17.9999 25.0137Z" fill="white"/>
<path d="M17.9999 4.90766C20.5893 4.90766 23.1205 5.67549 25.2734 7.11406C27.4264 8.55262 29.1044 10.5973 30.0953 12.9896C31.0862 15.3818 31.3455 18.0142 30.8403 20.5538C30.3352 23.0934 29.0883 25.4261 27.2573 27.2571C25.4264 29.088 23.0936 30.3349 20.554 30.8401C18.0144 31.3453 15.3821 31.086 12.9898 30.0951C10.5976 29.1042 8.55287 27.4262 7.11431 25.2732C5.67574 23.1202 4.90791 20.589 4.90791 17.9997C4.91188 14.5287 6.29248 11.201 8.74685 8.7466C11.2012 6.29223 14.5289 4.91163 17.9999 4.90766ZM17.9999 25.9487C19.5721 25.9487 21.1089 25.4825 22.4161 24.609C23.7233 23.7356 24.7422 22.4941 25.3438 21.0416C25.9455 19.5891 26.1029 17.9908 25.7962 16.4489C25.4895 14.9069 24.7324 13.4906 23.6207 12.3789C22.509 11.2672 21.0926 10.5101 19.5507 10.2034C18.0087 9.89668 16.4104 10.0541 14.958 10.6557C13.5055 11.2574 12.264 12.2762 11.3906 13.5834C10.5171 14.8906 10.0509 16.4275 10.0509 17.9997C10.0533 20.1071 10.8915 22.1276 12.3817 23.6178C13.872 25.108 15.8924 25.9463 17.9999 25.9487ZM17.9999 3.97266C15.2256 3.97266 12.5137 4.79533 10.2069 6.33663C7.90019 7.87794 6.10232 10.0687 5.04065 12.6318C3.97898 15.1949 3.7012 18.0152 4.24243 20.7362C4.78367 23.4572 6.11961 25.9565 8.08132 27.9182C10.043 29.88 12.5424 31.2159 15.2634 31.7571C17.9843 32.2984 20.8047 32.0206 23.3678 30.9589C25.9309 29.8972 28.1216 28.0994 29.6629 25.7926C31.2042 23.4859 32.0269 20.7739 32.0269 17.9997C32.0269 14.2795 30.5491 10.7116 27.9185 8.08107C25.2879 5.4505 21.7201 3.97266 17.9999 3.97266ZM17.9999 25.0137C16.6127 25.0137 15.2566 24.6023 14.1031 23.8316C12.9497 23.0609 12.0507 21.9654 11.5198 20.6838C10.9889 19.4022 10.85 17.9919 11.1207 16.6313C11.3913 15.2707 12.0593 14.0209 13.0403 13.04C14.0212 12.0591 15.271 11.3911 16.6315 11.1204C17.9921 10.8498 19.4024 10.9887 20.684 11.5196C21.9657 12.0504 23.0611 12.9494 23.8318 14.1029C24.6025 15.2563 25.0139 16.6124 25.0139 17.9997C25.014 18.9208 24.8327 19.8329 24.4803 20.684C24.1278 21.535 23.6112 22.3083 22.9598 22.9596C22.3085 23.6109 21.5352 24.1276 20.6842 24.48C19.8332 24.8325 18.921 25.0138 17.9999 25.0137Z" fill="#111111"/>
<path d="M32.0268 18.0017C32.0319 20.5716 31.3262 23.0928 29.9878 25.2867L24.0118 21.6167C24.6507 20.5521 24.9957 19.3372 25.0116 18.0958C25.0276 16.8543 24.7139 15.6309 24.1025 14.5503C23.4912 13.4698 22.6041 12.5707 21.5317 11.945C20.4594 11.3193 19.2403 10.9893 17.9988 10.9887V3.97266C19.8411 3.97239 21.6655 4.33509 23.3676 5.04003C25.0697 5.74498 26.6163 6.77835 27.919 8.08113C29.2217 9.38391 30.255 10.9306 30.9598 12.6328C31.6646 14.3349 32.0272 16.1593 32.0268 18.0017Z" fill="#B9B5EF"/>
<path d="M18.9348 4.94266C21.0929 5.09866 23.1787 5.7868 25.006 6.94559C26.8333 8.10439 28.3451 9.69775 29.4063 11.5834C30.4676 13.4689 31.0453 15.5881 31.0877 17.7514C31.1302 19.9147 30.6362 22.0548 29.6498 23.9807L25.2498 21.2757C25.7633 20.137 26.0014 18.8933 25.9448 17.6455C25.8882 16.3976 25.5385 15.1806 24.924 14.0931C24.3096 13.0056 23.4476 12.078 22.4079 11.3856C21.3683 10.6932 20.1801 10.2554 18.9398 10.1077L18.9348 4.94266ZM17.9988 3.97266V10.9887C19.2403 10.9893 20.4594 11.3193 21.5317 11.945C22.6041 12.5707 23.4912 13.4698 24.1025 14.5503C24.7139 15.6309 25.0276 16.8543 25.0116 18.0958C24.9957 19.3372 24.6507 20.5521 24.0118 21.6167L29.9878 25.2867C31.2804 23.1593 31.9837 20.7264 32.0256 18.2375C32.0674 15.7486 31.4463 13.2934 30.2259 11.1238C29.0055 8.95427 27.2299 7.14847 25.0812 5.89176C22.9324 4.63506 20.488 3.9727 17.9988 3.97266Z" fill="#111111"/>
</svg>
