<svg width="36" height="36" viewBox="0 0 36 36" fill="none" xmlns="http://www.w3.org/2000/svg">
<path d="M11.016 32.4954H5.37903V27.7324C5.37903 27.3346 5.53706 26.9531 5.81837 26.6718C6.09967 26.3905 6.4812 26.2324 6.87903 26.2324H9.51603C9.91385 26.2324 10.2954 26.3905 10.5767 26.6718C10.858 26.9531 11.016 27.3346 11.016 27.7324V32.4954Z" fill="white"/>
<path d="M11.016 32.9944H5.37903C5.24642 32.9944 5.11924 32.9417 5.02548 32.848C4.93171 32.7542 4.87903 32.627 4.87903 32.4944V27.7324C4.87903 27.202 5.08974 26.6933 5.46481 26.3182C5.83989 25.9431 6.3486 25.7324 6.87903 25.7324H9.51603C10.0465 25.7324 10.5552 25.9431 10.9302 26.3182C11.3053 26.6933 11.516 27.202 11.516 27.7324V32.4944C11.516 32.627 11.4634 32.7542 11.3696 32.848C11.2758 32.9417 11.1486 32.9944 11.016 32.9944ZM5.87903 31.9944H10.516V27.7324C10.516 27.4672 10.4107 27.2129 10.2231 27.0253C10.0356 26.8378 9.78124 26.7324 9.51603 26.7324H6.87903C6.61381 26.7324 6.35946 26.8378 6.17192 27.0253C5.98439 27.2129 5.87903 27.4672 5.87903 27.7324V31.9944Z" fill="#111111"/>
<path d="M20.4104 32.4938H14.7734V21.4678C14.7734 21.0699 14.9315 20.6884 15.2128 20.4071C15.4941 20.1258 15.8756 19.9678 16.2734 19.9678H18.9114C19.3093 19.9678 19.6908 20.1258 19.9721 20.4071C20.2534 20.6884 20.4114 21.0699 20.4114 21.4678L20.4104 32.4938Z" fill="white"/>
<path d="M20.4104 32.9938H14.7734C14.6408 32.9938 14.5137 32.9411 14.4199 32.8473C14.3261 32.7536 14.2734 32.6264 14.2734 32.4938V21.4678C14.2734 20.9373 14.4841 20.4286 14.8592 20.0536C15.2343 19.6785 15.743 19.4678 16.2734 19.4678H18.9114C19.4419 19.4678 19.9506 19.6785 20.3256 20.0536C20.7007 20.4286 20.9114 20.9373 20.9114 21.4678V32.4938C20.9114 32.6264 20.8588 32.7536 20.765 32.8473C20.6712 32.9411 20.543 32.9938 20.4104 32.9938ZM15.2744 31.9938H19.9114V21.4678C19.9114 21.2026 19.8061 20.9482 19.6185 20.7607C19.431 20.5731 19.1767 20.4678 18.9114 20.4678H16.2734C16.0082 20.4678 15.7539 20.5731 15.5663 20.7607C15.3788 20.9482 15.2734 21.2026 15.2734 21.4678L15.2744 31.9938Z" fill="#111111"/>
<path d="M8.25 21.2988C9.2165 21.2988 10 20.5153 10 19.5488C10 18.5823 9.2165 17.7988 8.25 17.7988C7.2835 17.7988 6.5 18.5823 6.5 19.5488C6.5 20.5153 7.2835 21.2988 8.25 21.2988Z" fill="white"/>
<path d="M17.551 14.2988C18.5175 14.2988 19.301 13.5153 19.301 12.5488C19.301 11.5823 18.5175 10.7988 17.551 10.7988C16.5845 10.7988 15.801 11.5823 15.801 12.5488C15.801 13.5153 16.5845 14.2988 17.551 14.2988Z" fill="white"/>
<path d="M26.949 7.49902C27.9155 7.49902 28.699 6.71552 28.699 5.74902C28.699 4.78253 27.9155 3.99902 26.949 3.99902C25.9825 3.99902 25.199 4.78253 25.199 5.74902C25.199 6.71552 25.9825 7.49902 26.949 7.49902Z" fill="white"/>
<path d="M32.5 32.9951H3.5C3.36739 32.9951 3.24021 32.9424 3.14645 32.8487C3.05268 32.7549 3 32.6277 3 32.4951C3 32.3625 3.05268 32.2353 3.14645 32.1416C3.24021 32.0478 3.36739 31.9951 3.5 31.9951H32.5C32.6326 31.9951 32.7598 32.0478 32.8536 32.1416C32.9473 32.2353 33 32.3625 33 32.4951C33 32.6277 32.9473 32.7549 32.8536 32.8487C32.7598 32.9424 32.6326 32.9951 32.5 32.9951Z" fill="#111111"/>
<path d="M8.40374 22.0106C7.97981 22.0106 7.56541 21.8849 7.21295 21.6493C6.86049 21.4137 6.58582 21.0789 6.42368 20.6872C6.26154 20.2955 6.21922 19.8646 6.30207 19.4488C6.38492 19.033 6.58922 18.6512 6.88912 18.3516C7.18903 18.0519 7.57106 17.848 7.98689 17.7655C8.40272 17.6831 8.83367 17.7258 9.22522 17.8883C9.61677 18.0508 9.95132 18.3258 10.1866 18.6785C10.4218 19.0312 10.5471 19.4457 10.5467 19.8696C10.5459 20.4377 10.3199 20.9823 9.9182 21.3841C9.51648 21.7858 8.97186 22.0118 8.40374 22.0126M8.40374 18.7256C8.17772 18.7256 7.95677 18.7926 7.76883 18.9182C7.58089 19.0437 7.43438 19.2222 7.34784 19.431C7.2613 19.6398 7.23861 19.8695 7.28263 20.0912C7.32665 20.3129 7.43541 20.5166 7.59517 20.6765C7.75492 20.8364 7.95849 20.9453 8.18014 20.9895C8.4018 21.0337 8.63158 21.0112 8.84046 20.9249C9.04933 20.8385 9.22791 20.6922 9.35363 20.5044C9.47934 20.3165 9.54654 20.0956 9.54674 19.8696C9.54648 19.5665 9.42597 19.276 9.21167 19.0617C8.99738 18.8474 8.7068 18.7269 8.40374 18.7266" fill="#111111"/>
<path d="M17.592 14.9559C17.1681 14.9559 16.7538 14.8302 16.4014 14.5948C16.049 14.3593 15.7743 14.0246 15.6121 13.633C15.4499 13.2414 15.4075 12.8105 15.4902 12.3948C15.5728 11.9791 15.7769 11.5973 16.0766 11.2976C16.3763 10.9979 16.7582 10.7938 17.1739 10.7111C17.5896 10.6284 18.0205 10.6709 18.4121 10.833C18.8036 10.9952 19.1383 11.2699 19.3738 11.6223C19.6093 11.9748 19.735 12.3891 19.735 12.8129C19.7342 13.381 19.5081 13.9257 19.1064 14.3274C18.7047 14.7291 18.1601 14.9551 17.592 14.9559ZM17.592 11.6689C17.3659 11.6689 17.1449 11.736 16.957 11.8616C16.769 11.9871 16.6225 12.1657 16.536 12.3745C16.4495 12.5834 16.4268 12.8132 16.4709 13.0349C16.515 13.2566 16.6239 13.4603 16.7838 13.6201C16.9436 13.78 17.1473 13.8889 17.369 13.933C17.5907 13.9771 17.8205 13.9544 18.0294 13.8679C18.2382 13.7814 18.4168 13.6349 18.5423 13.4469C18.6679 13.259 18.735 13.038 18.735 12.8119C18.7347 12.5089 18.6142 12.2183 18.3999 12.004C18.1856 11.7897 17.895 11.6692 17.592 11.6689Z" fill="#111111"/>
<path d="M27.184 7.78307C26.7602 7.78307 26.3458 7.65739 25.9934 7.42191C25.641 7.18643 25.3663 6.85174 25.2041 6.46016C25.0419 6.06858 24.9995 5.63769 25.0822 5.22199C25.1649 4.80629 25.369 4.42445 25.6687 4.12474C25.9684 3.82504 26.3502 3.62094 26.7659 3.53825C27.1816 3.45556 27.6125 3.498 28.0041 3.6602C28.3957 3.8224 28.7304 4.09707 28.9659 4.44948C29.2013 4.8019 29.327 5.21623 29.327 5.64007C29.3262 6.20819 29.1002 6.75281 28.6985 7.15452C28.2968 7.55624 27.7521 7.78228 27.184 7.78307ZM27.184 4.49707C26.958 4.49707 26.737 4.56408 26.5491 4.68963C26.3612 4.81518 26.2147 4.99364 26.1281 5.20243C26.0416 5.41123 26.0189 5.641 26.0629 5.86269C26.1069 6.08438 26.2157 6.28805 26.3754 6.44794C26.5352 6.60783 26.7388 6.71677 26.9604 6.76099C27.1821 6.8052 27.4119 6.78271 27.6207 6.69635C27.8296 6.60999 28.0082 6.46365 28.1339 6.27582C28.2596 6.08798 28.3268 5.86709 28.327 5.64107C28.3268 5.33792 28.2063 5.04724 27.992 4.83279C27.7777 4.61833 27.4872 4.4976 27.184 4.49707Z" fill="#111111"/>
<mask id="path-12-inside-1_262_10366" fill="white">
<path d="M10.048 19.3668C9.94242 19.3683 9.83911 19.3363 9.75284 19.2755C9.66656 19.2147 9.60174 19.1282 9.56767 19.0283C9.53359 18.9284 9.532 18.8202 9.56313 18.7194C9.59426 18.6185 9.65651 18.5301 9.74096 18.4668L15.641 13.8808C15.7459 13.8013 15.8779 13.7664 16.0084 13.7836C16.1388 13.8008 16.2573 13.8688 16.338 13.9728C16.4187 14.0768 16.4551 14.2084 16.4394 14.339C16.4236 14.4697 16.357 14.5889 16.254 14.6708L10.354 19.2568C10.2661 19.3249 10.1581 19.3619 10.047 19.3618"/>
</mask>
<path d="M10.048 19.3668C9.94242 19.3683 9.83911 19.3363 9.75284 19.2755C9.66656 19.2147 9.60174 19.1282 9.56767 19.0283C9.53359 18.9284 9.532 18.8202 9.56313 18.7194C9.59426 18.6185 9.65651 18.5301 9.74096 18.4668L15.641 13.8808C15.7459 13.8013 15.8779 13.7664 16.0084 13.7836C16.1388 13.8008 16.2573 13.8688 16.338 13.9728C16.4187 14.0768 16.4551 14.2084 16.4394 14.339C16.4236 14.4697 16.357 14.5889 16.254 14.6708L10.354 19.2568C10.2661 19.3249 10.1581 19.3619 10.047 19.3618" fill="#212121"/>
<path d="M9.74096 18.4668L10.3408 19.2669L10.3478 19.2617L10.3547 19.2563L9.74096 18.4668ZM15.641 13.8808L15.037 13.0837L15.0273 13.0913L15.641 13.8808ZM16.254 14.6708L16.8677 15.4604L16.876 15.4538L16.254 14.6708ZM10.354 19.2568L10.9671 20.0468L10.9677 20.0463L10.354 19.2568ZM10.048 19.3668L10.0338 18.3669C10.1394 18.3654 10.2427 18.3973 10.3289 18.4582L9.75284 19.2755L9.17672 20.0929C9.43555 20.2753 9.74547 20.3712 10.0621 20.3667L10.048 19.3668ZM9.75284 19.2755L10.3289 18.4582C10.4152 18.519 10.48 18.6055 10.5141 18.7054L9.56767 19.0283L8.62122 19.3511C8.72345 19.6508 8.9179 19.9105 9.17672 20.0929L9.75284 19.2755ZM9.56767 19.0283L10.5141 18.7054C10.5482 18.8053 10.5498 18.9134 10.5187 19.0143L9.56313 18.7194L8.60761 18.4245C8.51422 18.727 8.51899 19.0514 8.62122 19.3511L9.56767 19.0283ZM9.56313 18.7194L10.5187 19.0143C10.4875 19.1152 10.4253 19.2036 10.3408 19.2669L9.74096 18.4668L9.14109 17.6667C8.88774 17.8566 8.70099 18.1219 8.60761 18.4245L9.56313 18.7194ZM9.74096 18.4668L10.3547 19.2563L16.2547 14.6703L15.641 13.8808L15.0273 13.0913L9.12726 17.6773L9.74096 18.4668ZM15.641 13.8808L16.2449 14.6778C16.14 14.7573 16.008 14.7922 15.8775 14.775L16.0084 13.7836L16.1392 12.7922C15.7477 12.7405 15.3517 12.8453 15.037 13.0838L15.641 13.8808ZM16.0084 13.7836L15.8775 14.775C15.747 14.7578 15.6286 14.6898 15.5479 14.5858L16.338 13.9728L17.128 13.3597C16.886 13.0478 16.5307 12.8439 16.1392 12.7922L16.0084 13.7836ZM16.338 13.9728L15.5479 14.5858C15.4672 14.4818 15.4308 14.3502 15.4465 14.2196L16.4394 14.339L17.4322 14.4585C17.4794 14.0665 17.3701 13.6717 17.128 13.3597L16.338 13.9728ZM16.4394 14.339L15.4465 14.2196C15.4622 14.0889 15.5289 13.9697 15.6319 13.8878L16.254 14.6708L16.876 15.4538C17.1852 15.2082 17.385 14.8506 17.4322 14.4585L16.4394 14.339ZM16.254 14.6708L15.6403 13.8812L9.74026 18.4672L10.354 19.2568L10.9677 20.0463L16.8677 15.4603L16.254 14.6708ZM10.354 19.2568L9.74085 18.4668C9.82867 18.3986 9.9367 18.3617 10.0479 18.3618L10.047 19.3618L10.0461 20.3618C10.3795 20.3621 10.7036 20.2512 10.9671 20.0468L10.354 19.2568Z" fill="white" mask="url(#path-12-inside-1_262_10366)"/>
<mask id="path-14-inside-2_262_10366" fill="white">
<path d="M19.2365 12.1704C19.1328 12.1707 19.0317 12.1387 18.947 12.0789C18.8623 12.0191 18.7983 11.9345 18.7638 11.8368C18.7294 11.7391 18.7261 11.633 18.7545 11.5333C18.7829 11.4337 18.8416 11.3453 18.9225 11.2804L25.2275 6.21944C25.2787 6.17834 25.3375 6.14773 25.4005 6.12935C25.4636 6.11098 25.5296 6.1052 25.5949 6.11235C25.6602 6.1195 25.7234 6.13944 25.781 6.17102C25.8386 6.20261 25.8894 6.24523 25.9305 6.29644C25.9716 6.34766 26.0022 6.40647 26.0206 6.46952C26.0389 6.53256 26.0447 6.59861 26.0376 6.66389C26.0304 6.72917 26.0105 6.7924 25.9789 6.84998C25.9473 6.90755 25.9047 6.95834 25.8535 6.99944L19.5485 12.0604C19.46 12.1315 19.3499 12.1702 19.2365 12.1704Z"/>
</mask>
<path d="M19.2365 12.1704C19.1328 12.1707 19.0317 12.1387 18.947 12.0789C18.8623 12.0191 18.7983 11.9345 18.7638 11.8368C18.7294 11.7391 18.7261 11.633 18.7545 11.5333C18.7829 11.4337 18.8416 11.3453 18.9225 11.2804L25.2275 6.21944C25.2787 6.17834 25.3375 6.14773 25.4005 6.12935C25.4636 6.11098 25.5296 6.1052 25.5949 6.11235C25.6602 6.1195 25.7234 6.13944 25.781 6.17102C25.8386 6.20261 25.8894 6.24523 25.9305 6.29644C25.9716 6.34766 26.0022 6.40647 26.0206 6.46952C26.0389 6.53256 26.0447 6.59861 26.0376 6.66389C26.0304 6.72917 26.0105 6.7924 25.9789 6.84998C25.9473 6.90755 25.9047 6.95834 25.8535 6.99944L19.5485 12.0604C19.46 12.1315 19.3499 12.1702 19.2365 12.1704Z" fill="#212121"/>
<path d="M19.2365 12.1704L19.2347 11.1704L19.2342 11.1704L19.2365 12.1704ZM18.9225 11.2804L19.5482 12.0604L19.5484 12.0603L18.9225 11.2804ZM25.2275 6.21944L24.6016 5.43955L24.6015 5.4396L25.2275 6.21944ZM25.8535 6.99944L25.2275 6.21955L25.2275 6.2196L25.8535 6.99944ZM19.5485 12.0604L20.1742 12.8404L20.1744 12.8403L19.5485 12.0604ZM19.2365 12.1704L19.2342 11.1704C19.3379 11.1702 19.439 11.2022 19.5237 11.262L18.947 12.0789L18.3703 12.8959C18.6243 13.0752 18.9278 13.1711 19.2387 13.1704L19.2365 12.1704ZM18.947 12.0789L19.5237 11.262C19.6084 11.3217 19.6724 11.4064 19.7069 11.5041L18.7638 11.8368L17.8208 12.1695C17.9243 12.4627 18.1163 12.7165 18.3703 12.8959L18.947 12.0789ZM18.7638 11.8368L19.7069 11.5041C19.7413 11.6018 19.7446 11.7079 19.7162 11.8075L18.7545 11.5333L17.7928 11.2592C17.7076 11.5582 17.7174 11.8763 17.8208 12.1695L18.7638 11.8368ZM18.7545 11.5333L19.7162 11.8075C19.6878 11.9072 19.6291 11.9956 19.5482 12.0604L18.9225 11.2804L18.2967 10.5004C18.0542 10.695 17.8781 10.9601 17.7928 11.2592L18.7545 11.5333ZM18.9225 11.2804L19.5484 12.0603L25.8534 6.99929L25.2275 6.21944L24.6015 5.4396L18.2965 10.5006L18.9225 11.2804ZM25.2275 6.21944L25.8534 6.99934C25.8022 7.04043 25.7434 7.07103 25.6804 7.0894L25.4005 6.12935L25.1207 5.1693C24.9316 5.22442 24.7552 5.31625 24.6016 5.43955L25.2275 6.21944ZM25.4005 6.12935L25.6804 7.0894C25.6173 7.10777 25.5513 7.11355 25.486 7.1064L25.5949 6.11235L25.7038 5.11829C25.508 5.09684 25.3098 5.11418 25.1207 5.1693L25.4005 6.12935ZM25.5949 6.11235L25.486 7.1064C25.4208 7.09925 25.3576 7.07932 25.3 7.04774L25.781 6.17102L26.262 5.2943C26.0893 5.19955 25.8996 5.13974 25.7038 5.11829L25.5949 6.11235ZM25.781 6.17102L25.3 7.04774C25.2424 7.01617 25.1917 6.97356 25.1506 6.92236L25.9305 6.29644L26.7104 5.67053C26.5871 5.51689 26.4347 5.38905 26.262 5.2943L25.781 6.17102ZM25.9305 6.29644L25.1506 6.92236C25.1095 6.87115 25.0789 6.81235 25.0605 6.74933L26.0206 6.46952L26.9806 6.1897C26.9255 6.00059 26.8337 5.82417 26.7104 5.67053L25.9305 6.29644ZM26.0206 6.46952L25.0605 6.74933C25.0421 6.68629 25.0364 6.62026 25.0435 6.55501L26.0376 6.66389L27.0316 6.77277C27.0531 6.57696 27.0357 6.37883 26.9806 6.1897L26.0206 6.46952ZM26.0376 6.66389L25.0435 6.55501C25.0506 6.48976 25.0706 6.42655 25.1022 6.36898L25.9789 6.84998L26.8556 7.33098C26.9504 7.15826 27.0102 6.96858 27.0316 6.77277L26.0376 6.66389ZM25.9789 6.84998L25.1022 6.36898C25.1337 6.31143 25.1763 6.26065 25.2275 6.21955L25.8535 6.99944L26.4794 7.77934C26.633 7.65603 26.7609 7.50367 26.8556 7.33098L25.9789 6.84998ZM25.8535 6.99944L25.2275 6.2196L18.9225 11.2806L19.5485 12.0604L20.1744 12.8403L26.4794 7.77929L25.8535 6.99944ZM19.5485 12.0604L18.9227 11.2804C19.0112 11.2094 19.1212 11.1706 19.2347 11.1704L19.2365 12.1704L19.2382 13.1704C19.5787 13.1698 19.9087 13.0535 20.1742 12.8404L19.5485 12.0604Z" fill="white" mask="url(#path-14-inside-2_262_10366)"/>
<path d="M29.9114 32.4953H24.2734V12.4463C24.2734 12.0485 24.4315 11.6669 24.7128 11.3856C24.9941 11.1043 25.3756 10.9463 25.7734 10.9463H28.4114C28.8093 10.9463 29.1908 11.1043 29.4721 11.3856C29.7534 11.6669 29.9114 12.0485 29.9114 12.4463V32.4953Z" fill="#B9B5EF"/>
<path d="M30.4114 32.9953H23.7734V12.4463C23.7734 11.9159 23.9841 11.4071 24.3592 11.0321C24.7343 10.657 25.243 10.4463 25.7734 10.4463H28.4114C28.9419 10.4463 29.4506 10.657 29.8256 11.0321C30.2007 11.4071 30.4114 11.9159 30.4114 12.4463V32.9953ZM24.7734 31.9953H29.4114V12.4463C29.4114 12.1811 29.3061 11.9267 29.1185 11.7392C28.931 11.5516 28.6767 11.4463 28.4114 11.4463H25.7734C25.5082 11.4463 25.2539 11.5516 25.0663 11.7392C24.8788 11.9267 24.7734 12.1811 24.7734 12.4463V31.9953Z" fill="#111111"/>
</svg>
