<svg width="36" height="36" viewBox="0 0 36 36" fill="none" xmlns="http://www.w3.org/2000/svg">
<path d="M30.2662 31.42H5.7332C4.88451 31.42 4.07058 31.0829 3.47046 30.4827C2.87034 29.8826 2.5332 29.0687 2.5332 28.22V12H33.4662V28.22C33.4662 29.0687 33.1291 29.8826 32.5289 30.4827C31.9288 31.0829 31.1149 31.42 30.2662 31.42Z" fill="white"/>
<path d="M30.267 31.9538H5.733C4.74335 31.9525 3.79462 31.5588 3.09483 30.859C2.39504 30.1592 2.00132 29.2104 2 28.2208V11.4668H34V28.2208C33.9987 29.2104 33.605 30.1592 32.9052 30.859C32.2054 31.5588 31.2566 31.9525 30.267 31.9538ZM3.067 12.5338V28.2208C3.06779 28.9279 3.34904 29.6058 3.84902 30.1058C4.34901 30.6058 5.02691 30.887 5.734 30.8878H30.267C30.9741 30.887 31.652 30.6058 32.152 30.1058C32.652 29.6058 32.9332 28.9279 32.934 28.2208V12.5338H3.067Z" fill="#111111"/>
<path d="M5.7332 4.5332H30.2662C31.1149 4.5332 31.9288 4.87034 32.5289 5.47046C33.1291 6.07058 33.4662 6.88451 33.4662 7.7332V12.0002H2.5332V7.7332C2.5332 6.88451 2.87034 6.07058 3.47046 5.47046C4.07058 4.87034 4.88451 4.5332 5.7332 4.5332Z" fill="#B9B5EF"/>
<path d="M34 12.531H2V7.731C2.00185 6.7417 2.39581 5.79348 3.09554 5.09412C3.79527 4.39477 4.7437 4.00132 5.733 4H30.267C31.2563 4.00132 32.2047 4.39477 32.9045 5.09412C33.6042 5.79348 33.9981 6.7417 34 7.731V12.531ZM3.067 11.467H32.933V7.731C32.9322 7.02391 32.651 6.34601 32.151 5.84602C31.651 5.34604 30.9731 5.06479 30.266 5.064H5.733C5.02608 5.06506 4.34844 5.34642 3.84867 5.84638C3.3489 6.34633 3.06779 7.02408 3.067 7.731V11.467Z" fill="#111111"/>
<path d="M8.67513 18.1308C8.92472 18.1298 9.17363 18.157 9.41713 18.2118C9.63688 18.2595 9.8508 18.3309 10.0551 18.4248L9.82813 19.3488C9.65321 19.273 9.47267 19.2108 9.28813 19.1628C9.08866 19.1155 8.88411 19.093 8.67913 19.0958C8.45498 19.0896 8.23262 19.1373 8.03075 19.2349C7.82889 19.3326 7.65343 19.4772 7.51913 19.6568C7.20657 20.0965 7.0525 20.6292 7.08213 21.1678V21.2028C7.28299 21.0195 7.51725 20.8766 7.77213 20.7818C8.04849 20.6807 8.34088 20.6306 8.63513 20.6338C8.92437 20.6214 9.21257 20.6759 9.47726 20.7932C9.74195 20.9104 9.97599 21.0872 10.1611 21.3098C10.5394 21.8246 10.7365 22.4502 10.7217 23.0888C10.7068 23.7274 10.4809 24.3432 10.0791 24.8398C9.86632 25.0734 9.60513 25.2577 9.31377 25.38C9.02241 25.5023 8.70789 25.5595 8.39213 25.5478C8.05312 25.5566 7.71626 25.4914 7.40503 25.3567C7.09381 25.222 6.81571 25.021 6.59013 24.7678C6.0889 24.1648 5.83642 23.3935 5.88413 22.6108V21.2378C5.84474 20.4106 6.13001 19.6007 6.67913 18.9808C6.93198 18.7038 7.24144 18.4845 7.58653 18.3377C7.93161 18.1908 8.30424 18.12 8.67913 18.1298M8.33813 21.5678C8.0717 21.5598 7.80714 21.6149 7.56613 21.7288C7.36612 21.8253 7.19785 21.9769 7.08113 22.1658V22.6798C7.0499 23.1769 7.17926 23.6708 7.45013 24.0888C7.55452 24.2421 7.69509 24.3673 7.8594 24.4533C8.02371 24.5393 8.20669 24.5834 8.39213 24.5818C8.557 24.5855 8.71997 24.5459 8.86486 24.4672C9.00975 24.3884 9.13153 24.2732 9.21813 24.1328C9.42724 23.8024 9.5318 23.4166 9.51813 23.0258C9.53703 22.6477 9.42625 22.2744 9.20413 21.9678C9.10217 21.8369 8.97035 21.7323 8.8197 21.6627C8.66904 21.5931 8.50392 21.5606 8.33813 21.5678Z" fill="#111111"/>
<path d="M11.5871 22.2174L12.0021 18.2344H15.8021V19.2774H13.0031L12.7851 21.0774C12.9357 20.9678 13.1014 20.8805 13.2771 20.8184C13.4801 20.748 13.6931 20.7105 13.9081 20.7074C14.204 20.6885 14.5005 20.7365 14.7754 20.8478C15.0503 20.9591 15.2966 21.1309 15.4961 21.3504C15.9019 21.8541 16.1064 22.4905 16.0701 23.1364C16.0965 23.7689 15.8821 24.3878 15.4701 24.8684C15.2453 25.1005 14.9727 25.2809 14.6712 25.3972C14.3697 25.5134 14.0465 25.5626 13.7241 25.5414C13.1444 25.5589 12.5766 25.3744 12.1181 25.0194C11.9 24.8425 11.7286 24.615 11.6186 24.3567C11.5086 24.0984 11.4635 23.8171 11.4871 23.5374L11.4971 23.5124L12.6201 23.4724C12.6112 23.6219 12.634 23.7715 12.6869 23.9116C12.7398 24.0517 12.8216 24.1791 12.9271 24.2854C13.0347 24.3841 13.1608 24.4606 13.2981 24.5105C13.4353 24.5605 13.5811 24.5828 13.7271 24.5764C13.8905 24.5857 14.0538 24.5548 14.2026 24.4862C14.3513 24.4177 14.4809 24.3137 14.5801 24.1834C14.789 23.8774 14.8922 23.5115 14.8741 23.1414C14.8915 22.7646 14.7862 22.3923 14.5741 22.0804C14.4739 21.946 14.3417 21.8388 14.1896 21.7684C14.0376 21.6981 13.8703 21.6668 13.7031 21.6774C13.4476 21.6593 13.1923 21.7156 12.9681 21.8394C12.804 21.9525 12.6814 22.1161 12.6191 22.3054L11.5871 22.2174Z" fill="#111111"/>
<path d="M19.0681 19.8426C19.0326 20.4779 19.1555 21.112 19.4257 21.688C19.6959 22.264 20.1049 22.7638 20.6161 23.1426L20.1061 23.8426C19.3771 23.3449 18.8547 22.5981 18.6371 21.7426C18.4176 22.6716 17.8592 23.4851 17.0711 24.0236L16.5171 23.3376C17.0639 22.9503 17.5038 22.431 17.796 21.8279C18.0881 21.2249 18.223 20.5578 18.1881 19.8886V18.4526H19.0671L19.0681 19.8426ZM20.9331 17.8716H21.7861V25.2966H20.9331V21.2416H19.7631V20.5026H20.9331V17.8716ZM23.4141 25.6716H22.5521V17.7236H23.4141V25.6716Z" fill="#111111"/>
<path d="M27.8621 26.1198C27.7207 26.1198 27.5852 26.0637 27.4852 25.9637C27.3853 25.8638 27.3291 25.7282 27.3291 25.5868V19.1868C27.3291 19.0453 27.3853 18.9096 27.4854 18.8096C27.5854 18.7095 27.7211 18.6533 27.8626 18.6533C28.0041 18.6533 28.1398 18.7095 28.2398 18.8096C28.3399 18.9096 28.3961 19.0453 28.3961 19.1868V25.5868C28.3961 25.7282 28.3399 25.8638 28.24 25.9637C28.14 26.0637 28.0035 26.1198 27.8621 26.1198Z" fill="#111111"/>
<path d="M25.7701 20.997C25.6648 20.9972 25.5618 20.9663 25.474 20.908C25.3863 20.8498 25.3178 20.7669 25.2772 20.6698C25.2365 20.5726 25.2255 20.4656 25.2456 20.3623C25.2657 20.2589 25.316 20.1638 25.3901 20.089L27.4901 17.956C27.5894 17.8553 27.7246 17.7981 27.8661 17.797C27.9368 17.7921 28.0077 17.8035 28.0734 17.8302C28.1391 17.8569 28.1978 17.8982 28.2451 17.951L30.4091 20.084C30.4589 20.1332 30.4986 20.1917 30.5258 20.2562C30.553 20.3207 30.5673 20.3899 30.5677 20.46C30.5682 20.53 30.5549 20.5994 30.5285 20.6643C30.5021 20.7291 30.4633 20.7882 30.4141 20.838C30.3649 20.8878 30.3064 20.9275 30.2419 20.9547C30.1774 20.9819 30.1081 20.9962 30.0381 20.9966C29.9681 20.9971 29.8987 20.9838 29.8338 20.9574C29.7689 20.9311 29.7099 20.8922 29.6601 20.843L27.8761 19.084L26.1481 20.838C26.0985 20.8884 26.0393 20.9285 25.9741 20.9558C25.9088 20.9831 25.8388 20.9971 25.7681 20.997" fill="#111111"/>
</svg>
