<svg width="36" height="36" viewBox="0 0 36 36" fill="none" xmlns="http://www.w3.org/2000/svg">
<path d="M24.591 31H6.41098C5.56176 31.051 4.72679 30.7643 4.08804 30.2023C3.44929 29.6404 3.05855 28.8488 3.00098 28V7.99995C3.05855 7.15115 3.44929 6.35951 4.08804 5.79756C4.72679 5.23562 5.56176 4.94892 6.41098 4.99995H24.591C25.44 4.94919 26.2747 5.23601 26.9133 5.79793C27.5518 6.35985 27.9424 7.15133 28 7.99995V28C27.9424 28.8486 27.5518 29.6401 26.9133 30.202C26.2747 30.7639 25.44 31.0507 24.591 31Z" fill="white"/>
<path d="M22.501 31.5H6.50098C5.57272 31.5 4.68248 31.1313 4.0261 30.4749C3.36973 29.8185 3.00098 28.9283 3.00098 28V8C3.00098 7.07174 3.36973 6.1815 4.0261 5.52513C4.68248 4.86875 5.57272 4.5 6.50098 4.5H24.501C24.9606 4.5 25.4157 4.59053 25.8404 4.76642C26.265 4.94231 26.6508 5.20012 26.9758 5.52513C27.3009 5.85013 27.5587 6.23597 27.7346 6.66061C27.9104 7.08525 28.001 7.54037 28.001 8V28C28.001 28.4596 27.9104 28.9148 27.7346 29.3394C27.5587 29.764 27.3009 30.1499 26.9758 30.4749C26.6508 30.7999 26.265 31.0577 25.8404 31.2336C25.4157 31.4095 24.9606 31.5 24.501 31.5M6.50098 5.5C5.83793 5.5 5.20205 5.76339 4.73321 6.23223C4.26437 6.70107 4.00098 7.33696 4.00098 8V28C4.00098 28.663 4.26437 29.2989 4.73321 29.7678C5.20205 30.2366 5.83793 30.5 6.50098 30.5H24.501C25.164 30.5 25.7999 30.2366 26.2687 29.7678C26.7376 29.2989 27.001 28.663 27.001 28V8C27.001 7.33696 26.7376 6.70107 26.2687 6.23223C25.7999 5.76339 25.164 5.5 24.501 5.5H6.50098Z" fill="#111111"/>
<path d="M31.75 23.9873H24.25C23.7859 23.9873 23.3408 23.8029 23.0126 23.4747C22.6844 23.1466 22.5 22.7014 22.5 22.2373C22.5 21.7732 22.6844 21.3281 23.0126 20.9999C23.3408 20.6717 23.7859 20.4873 24.25 20.4873H31.75C32.2141 20.4873 32.6592 20.6717 32.9874 20.9999C33.3156 21.3281 33.5 21.7732 33.5 22.2373C33.5 22.7014 33.3156 23.1466 32.9874 23.4747C32.6592 23.8029 32.2141 23.9873 31.75 23.9873Z" fill="#FEE456"/>
<path d="M31.75 24.4883H24.25C23.6533 24.4883 23.081 24.2512 22.659 23.8293C22.2371 23.4073 22 22.835 22 22.2383C22 21.6415 22.2371 21.0692 22.659 20.6473C23.081 20.2253 23.6533 19.9883 24.25 19.9883H31.75C32.3467 19.9883 32.919 20.2253 33.341 20.6473C33.7629 21.0692 34 21.6415 34 22.2383C34 22.835 33.7629 23.4073 33.341 23.8293C32.919 24.2512 32.3467 24.4883 31.75 24.4883ZM24.25 20.9883C23.9185 20.9883 23.6005 21.12 23.3661 21.3544C23.1317 21.5888 23 21.9068 23 22.2383C23 22.5698 23.1317 22.8877 23.3661 23.1222C23.6005 23.3566 23.9185 23.4883 24.25 23.4883H31.75C32.0815 23.4883 32.3995 23.3566 32.6339 23.1222C32.8683 22.8877 33 22.5698 33 22.2383C33 21.9068 32.8683 21.5888 32.6339 21.3544C32.3995 21.12 32.0815 20.9883 31.75 20.9883H24.25Z" fill="#111111"/>
<path d="M31.75 27.5H24.25C23.7859 27.5 23.3408 27.3156 23.0126 26.9874C22.6844 26.6592 22.5 26.2141 22.5 25.75C22.5 25.2859 22.6844 24.8408 23.0126 24.5126C23.3408 24.1844 23.7859 24 24.25 24H31.75C32.2141 24 32.6592 24.1844 32.9874 24.5126C33.3156 24.8408 33.5 25.2859 33.5 25.75C33.5 26.2141 33.3156 26.6592 32.9874 26.9874C32.6592 27.3156 32.2141 27.5 31.75 27.5Z" fill="#FEE456"/>
<path d="M31.75 28H24.25C23.6533 28 23.081 27.7629 22.659 27.341C22.2371 26.919 22 26.3467 22 25.75C22 25.1533 22.2371 24.581 22.659 24.159C23.081 23.7371 23.6533 23.5 24.25 23.5H31.75C32.3467 23.5 32.919 23.7371 33.341 24.159C33.7629 24.581 34 25.1533 34 25.75C34 26.3467 33.7629 26.919 33.341 27.341C32.919 27.7629 32.3467 28 31.75 28ZM24.25 24.5C23.9185 24.5 23.6005 24.6317 23.3661 24.8661C23.1317 25.1005 23 25.4185 23 25.75C23 26.0815 23.1317 26.3995 23.3661 26.6339C23.6005 26.8683 23.9185 27 24.25 27H31.75C32.0815 27 32.3995 26.8683 32.6339 26.6339C32.8683 26.3995 33 26.0815 33 25.75C33 25.4185 32.8683 25.1005 32.6339 24.8661C32.3995 24.6317 32.0815 24.5 31.75 24.5H24.25Z" fill="#111111"/>
<path d="M31.75 31H24.25C23.7859 31 23.3408 30.8156 23.0126 30.4874C22.6844 30.1592 22.5 29.7141 22.5 29.25C22.5 28.7859 22.6844 28.3408 23.0126 28.0126C23.3408 27.6844 23.7859 27.5 24.25 27.5H31.75C32.2141 27.5 32.6592 27.6844 32.9874 28.0126C33.3156 28.3408 33.5 28.7859 33.5 29.25C33.5 29.7141 33.3156 30.1592 32.9874 30.4874C32.6592 30.8156 32.2141 31 31.75 31Z" fill="#FEE456"/>
<path d="M31.75 31.5H24.25C23.6533 31.5 23.081 31.2629 22.659 30.841C22.2371 30.419 22 29.8467 22 29.25C22 28.6533 22.2371 28.081 22.659 27.659C23.081 27.2371 23.6533 27 24.25 27H31.75C32.3467 27 32.919 27.2371 33.341 27.659C33.7629 28.081 34 28.6533 34 29.25C34 29.8467 33.7629 30.419 33.341 30.841C32.919 31.2629 32.3467 31.5 31.75 31.5ZM24.25 28C23.9185 28 23.6005 28.1317 23.3661 28.3661C23.1317 28.6005 23 28.9185 23 29.25C23 29.5815 23.1317 29.8995 23.3661 30.1339C23.6005 30.3683 23.9185 30.5 24.25 30.5H31.75C32.0815 30.5 32.3995 30.3683 32.6339 30.1339C32.8683 29.8995 33 29.5815 33 29.25C33 28.9185 32.8683 28.6005 32.6339 28.3661C32.3995 28.1317 32.0815 28 31.75 28H24.25Z" fill="#111111"/>
<path d="M12.6898 14.9298C12.7072 15.3368 12.5753 15.7362 12.3188 16.0528C12.2078 16.191 12.0666 16.3022 11.9062 16.3777C11.7457 16.4533 11.5702 16.4912 11.3928 16.4888C11.2094 16.4908 11.0277 16.4536 10.8598 16.3798C10.6602 16.281 10.4765 16.1529 10.3148 15.9998C10.1837 15.8734 10.0388 15.762 9.88284 15.6678C9.79476 15.6248 9.69781 15.6033 9.59984 15.6048C9.52 15.6016 9.44062 15.6182 9.36874 15.6531C9.29687 15.688 9.23473 15.7401 9.18784 15.8048C9.08161 15.9608 9.02897 16.1472 9.03784 16.3358H8.28384C8.2663 15.9384 8.39231 15.5479 8.63884 15.2358C8.75094 15.0972 8.89359 14.9865 9.05563 14.9122C9.21767 14.838 9.39469 14.8022 9.57284 14.8078C9.76191 14.8069 9.94902 14.8461 10.1218 14.9228C10.3215 15.0175 10.5048 15.1434 10.6648 15.2958C10.7901 15.4191 10.929 15.5278 11.0788 15.6198C11.1666 15.664 11.2636 15.6866 11.3618 15.6858C11.4454 15.687 11.5279 15.6677 11.6022 15.6295C11.6765 15.5913 11.7403 15.5354 11.7878 15.4668C11.9014 15.3075 11.959 15.1152 11.9518 14.9198L12.6898 14.9298ZM14.4698 14.7228H15.0478C15.2986 14.7351 15.5452 14.6558 15.7418 14.4998C15.8305 14.4179 15.8997 14.3172 15.9444 14.205C15.989 14.0929 16.008 13.9722 15.9998 13.8518C16.0141 13.6217 15.9377 13.3951 15.7868 13.2208C15.6993 13.1409 15.5962 13.08 15.484 13.0419C15.3718 13.0039 15.2529 12.9895 15.1348 12.9998C14.9047 12.9908 14.6798 13.0698 14.5058 13.2208C14.425 13.2928 14.3611 13.3818 14.3186 13.4813C14.2761 13.5809 14.256 13.6886 14.2598 13.7968H13.3108C13.3081 13.5141 13.3888 13.2368 13.5428 12.9998C13.7023 12.756 13.9268 12.5617 14.1908 12.4388C14.4822 12.302 14.801 12.2335 15.1228 12.2388C15.6065 12.2108 16.0832 12.3633 16.4608 12.6668C16.6248 12.8166 16.7535 13.001 16.8375 13.2066C16.9216 13.4122 16.9589 13.634 16.9468 13.8558C16.9453 14.1161 16.8597 14.369 16.7028 14.5768C16.5422 14.8004 16.3242 14.9766 16.0718 15.0868C16.3566 15.1734 16.6064 15.3486 16.7848 15.5868C16.951 15.8274 17.0364 16.1145 17.0288 16.4068C17.0381 16.6365 16.9953 16.8654 16.9037 17.0763C16.8121 17.2872 16.674 17.4747 16.4998 17.6248C16.1118 17.9393 15.6218 18.1004 15.1228 18.0778C14.6369 18.0983 14.1598 17.9432 13.7788 17.6408C13.6081 17.4999 13.4722 17.3217 13.3815 17.1198C13.2908 16.918 13.2478 16.6979 13.2558 16.4768H14.2048C14.2008 16.5904 14.2212 16.7036 14.2647 16.8087C14.3081 16.9137 14.3737 17.0082 14.4568 17.0858C14.6439 17.2489 14.887 17.3328 15.1348 17.3198C15.3897 17.3353 15.6406 17.2515 15.8348 17.0858C15.9232 16.9971 15.9915 16.8905 16.0353 16.7732C16.0791 16.6559 16.0974 16.5307 16.0888 16.4058C16.0968 16.2782 16.0772 16.1505 16.0313 16.0312C15.9854 15.912 15.9143 15.804 15.8228 15.7148C15.5995 15.5381 15.3179 15.4517 15.0338 15.4728H14.4748L14.4698 14.7228ZM17.6798 13.4068C17.6743 13.2505 17.7009 13.0948 17.758 12.9493C17.8151 12.8038 17.9015 12.6715 18.0118 12.5608C18.1271 12.4496 18.2637 12.3631 18.4135 12.3064C18.5632 12.2496 18.7229 12.2239 18.8828 12.2308C19.0438 12.2233 19.2046 12.2487 19.3553 12.3054C19.5061 12.3622 19.6438 12.449 19.7598 12.5608C19.8708 12.6749 19.9573 12.8105 20.014 12.9592C20.0708 13.108 20.0966 13.2667 20.0898 13.4258V13.7068C20.0953 13.8619 20.0688 14.0165 20.012 14.161C19.9552 14.3055 19.8694 14.4368 19.7598 14.5468C19.6447 14.6574 19.5084 14.7436 19.359 14.8C19.2096 14.8563 19.0503 14.8818 18.8908 14.8748C18.57 14.8864 18.2576 14.7706 18.0218 14.5528C17.9066 14.4404 17.8165 14.3048 17.7576 14.155C17.6986 14.0052 17.6721 13.8446 17.6798 13.6838V13.4068ZM18.3438 13.7068C18.338 13.8667 18.3938 14.0228 18.4998 14.1428C18.5502 14.1982 18.6122 14.2417 18.6813 14.2704C18.7504 14.2991 18.8251 14.3122 18.8998 14.3088C18.9732 14.3115 19.0463 14.2981 19.1138 14.2694C19.1814 14.2407 19.2418 14.1975 19.2908 14.1428C19.3951 14.0164 19.4479 13.8554 19.4388 13.6918V13.4068C19.4459 13.2474 19.3923 13.0912 19.2888 12.9698C19.2387 12.9139 19.1769 12.8699 19.1077 12.8408C19.0385 12.8118 18.9638 12.7984 18.8888 12.8018C18.8148 12.7987 18.7409 12.8123 18.6729 12.8418C18.6048 12.8712 18.5443 12.9157 18.4958 12.9718C18.394 13.0978 18.3421 13.2569 18.3498 13.4188L18.3438 13.7068ZM20.4138 16.6068C20.4076 16.4495 20.4347 16.2926 20.4933 16.1465C20.5519 16.0003 20.6407 15.8682 20.7538 15.7588C20.8699 15.6503 21.0062 15.5658 21.155 15.5102C21.3038 15.4546 21.4621 15.429 21.6208 15.4348C21.7799 15.4284 21.9387 15.4538 22.0879 15.5094C22.2371 15.5651 22.3737 15.6498 22.4898 15.7588C22.6042 15.8729 22.6934 16.0097 22.7516 16.1605C22.8098 16.3112 22.8358 16.4724 22.8278 16.6338V16.9108C22.8326 17.0652 22.806 17.219 22.7496 17.3629C22.6932 17.5067 22.6082 17.6377 22.4998 17.7478C22.3847 17.8596 22.2478 17.9467 22.0976 18.0034C21.9474 18.0602 21.7872 18.0855 21.6268 18.0778C21.4657 18.0851 21.3046 18.06 21.1533 18.004C21.002 17.948 20.8634 17.8622 20.7458 17.7518C20.6337 17.6391 20.5461 17.5045 20.4886 17.3563C20.4311 17.2081 20.405 17.0496 20.4118 16.8908L20.4138 16.6068ZM21.0778 16.9068C21.0713 17.0665 21.1265 17.2226 21.2318 17.3428C21.2819 17.3988 21.3437 17.443 21.4129 17.4724C21.482 17.5018 21.5568 17.5156 21.6318 17.5128C21.7052 17.5163 21.7785 17.5036 21.8464 17.4756C21.9143 17.4476 21.9753 17.405 22.0248 17.3508C22.1249 17.2225 22.1747 17.0622 22.1648 16.8998V16.6068C22.1728 16.4469 22.1183 16.2902 22.0128 16.1698C21.9638 16.1149 21.9035 16.0712 21.836 16.0419C21.7685 16.0125 21.6954 15.9982 21.6218 15.9998C21.5484 15.997 21.4752 16.0103 21.4073 16.0386C21.3395 16.0669 21.2786 16.1096 21.2288 16.1638C21.1228 16.29 21.0691 16.4522 21.0788 16.6168L21.0778 16.9068ZM19.0868 17.5738L18.5998 17.2928L21.3758 12.8478L21.8638 13.1288L19.0868 17.5738Z" fill="#111111"/>
</svg>
