<svg width="36" height="36" viewBox="0 0 36 36" fill="none" xmlns="http://www.w3.org/2000/svg">
<path d="M30.2662 33.0167H5.7332C4.88451 33.0167 4.07058 32.6795 3.47046 32.0794C2.87034 31.4793 2.5332 30.6654 2.5332 29.8167V13.5967H33.4662V29.8167C33.4662 30.6654 33.1291 31.4793 32.5289 32.0794C31.9288 32.6795 31.1149 33.0167 30.2662 33.0167Z" fill="white"/>
<path d="M30.267 33.5505H5.733C4.74335 33.5492 3.79462 33.1554 3.09483 32.4556C2.39504 31.7559 2.00132 30.8071 2 29.8175V13.0635H34V29.8175C33.9987 30.8071 33.605 31.7559 32.9052 32.4556C32.2054 33.1554 31.2566 33.5492 30.267 33.5505ZM3.067 14.1305V29.8175C3.06779 30.5246 3.34904 31.2025 3.84902 31.7025C4.34901 32.2024 5.02691 32.4837 5.734 32.4845H30.267C30.9741 32.4837 31.652 32.2024 32.152 31.7025C32.652 31.2025 32.9332 30.5246 32.934 29.8175V14.1305H3.067Z" fill="#111111"/>
<path d="M5.7332 6.12988H30.2662C31.1149 6.12988 31.9288 6.46702 32.5289 7.06714C33.1291 7.66726 33.4662 8.48119 33.4662 9.32988V13.5969H2.5332V9.32988C2.5332 8.48119 2.87034 7.66726 3.47046 7.06714C4.07058 6.46702 4.88451 6.12988 5.7332 6.12988Z" fill="#B9B5EF"/>
<path d="M34 14.1277H2V9.32768C2.00185 8.33838 2.39581 7.39016 3.09554 6.6908C3.79527 5.99145 4.7437 5.598 5.733 5.59668H30.267C31.2563 5.598 32.2047 5.99145 32.9045 6.6908C33.6042 7.39016 33.9981 8.33838 34 9.32768V14.1277ZM3.067 13.0637H32.933V9.32768C32.9322 8.62059 32.651 7.94269 32.151 7.4427C31.651 6.94272 30.9731 6.66147 30.266 6.66068H5.733C5.02608 6.66174 4.34844 6.9431 3.84867 7.44306C3.3489 7.94301 3.06779 8.62076 3.067 9.32768V13.0637Z" fill="#111111"/>
<path d="M10.2669 9.93444C10.0217 9.93444 9.77879 9.88612 9.55221 9.79223C9.32563 9.69834 9.11977 9.56073 8.94639 9.38725C8.77301 9.21378 8.63551 9.00785 8.54174 8.78122C8.44798 8.55459 8.39978 8.3117 8.39991 8.06644V5.40044C8.39416 5.15169 8.43818 4.9043 8.52939 4.67281C8.6206 4.44132 8.75717 4.23039 8.93106 4.05243C9.10495 3.87447 9.31266 3.73306 9.54198 3.63651C9.7713 3.53997 10.0176 3.49023 10.2664 3.49023C10.5152 3.49023 10.7615 3.53997 10.9909 3.63651C11.2202 3.73306 11.4279 3.87447 11.6018 4.05243C11.7757 4.23039 11.9122 4.44132 12.0034 4.67281C12.0947 4.9043 12.1387 5.15169 12.1329 5.40044V8.06644C12.133 8.31162 12.0849 8.55442 11.9912 8.78099C11.8975 9.00755 11.7601 9.21344 11.5868 9.3869C11.4135 9.56036 11.2078 9.69799 10.9813 9.79194C10.7548 9.88589 10.5121 9.93431 10.2669 9.93444Z" fill="white"/>
<path d="M10.2672 10.467C9.63067 10.467 9.02022 10.2141 8.57013 9.76406C8.12004 9.31397 7.86719 8.70352 7.86719 8.067V5.4C7.86719 4.76348 8.12004 4.15303 8.57013 3.70294C9.02022 3.25286 9.63067 3 10.2672 3C10.9037 3 11.5142 3.25286 11.9642 3.70294C12.4143 4.15303 12.6672 4.76348 12.6672 5.4V8.067C12.6672 8.70352 12.4143 9.31397 11.9642 9.76406C11.5142 10.2141 10.9037 10.467 10.2672 10.467ZM10.2672 4.067C9.91382 4.06753 9.57507 4.20814 9.3252 4.45801C9.07533 4.70788 8.93472 5.04663 8.93419 5.4V8.067C8.93419 8.24212 8.96868 8.41552 9.03569 8.57731C9.10271 8.7391 9.20093 8.8861 9.32476 9.00993C9.44859 9.13375 9.59559 9.23198 9.75738 9.29899C9.91917 9.36601 10.0926 9.4005 10.2677 9.4005C10.4428 9.4005 10.6162 9.36601 10.778 9.29899C10.9398 9.23198 11.0868 9.13375 11.2106 9.00993C11.3344 8.8861 11.4327 8.7391 11.4997 8.57731C11.5667 8.41552 11.6012 8.24212 11.6012 8.067V5.4C11.6007 5.04646 11.4599 4.70756 11.2098 4.45766C10.9597 4.20776 10.6207 4.06726 10.2672 4.067Z" fill="#111111"/>
<path d="M25.7342 9.93397C25.4889 9.93397 25.2461 9.88564 25.0195 9.79175C24.7929 9.69787 24.587 9.56025 24.4137 9.38678C24.2403 9.21331 24.1028 9.00737 24.009 8.78074C23.9153 8.55411 23.8671 8.31123 23.8672 8.06597V5.39997C23.8785 4.91242 24.0801 4.44864 24.4289 4.10782C24.7777 3.76699 25.246 3.57617 25.7337 3.57617C26.2214 3.57617 26.6897 3.76699 27.0385 4.10782C27.3873 4.44864 27.5889 4.91242 27.6002 5.39997V8.06597C27.6003 8.31114 27.5522 8.55395 27.4585 8.78051C27.3648 9.00708 27.2273 9.21297 27.0541 9.38643C26.8808 9.55989 26.675 9.69752 26.4486 9.79147C26.2221 9.88541 25.9794 9.93384 25.7342 9.93397Z" fill="white"/>
<path d="M25.733 10.467C25.0965 10.467 24.486 10.2141 24.0359 9.76406C23.5859 9.31397 23.333 8.70352 23.333 8.067V5.4C23.333 4.76348 23.5859 4.15303 24.0359 3.70294C24.486 3.25286 25.0965 3 25.733 3C26.3695 3 26.98 3.25286 27.4301 3.70294C27.8802 4.15303 28.133 4.76348 28.133 5.4V8.067C28.133 8.70352 27.8802 9.31397 27.4301 9.76406C26.98 10.2141 26.3695 10.467 25.733 10.467ZM25.733 4.067C25.3796 4.06753 25.0409 4.20814 24.791 4.45801C24.5411 4.70788 24.4005 5.04663 24.4 5.4V8.067C24.4 8.42067 24.5405 8.75985 24.7906 9.00993C25.0407 9.26001 25.3798 9.4005 25.7335 9.4005C26.0872 9.4005 26.4264 9.26001 26.6764 9.00993C26.9265 8.75985 27.067 8.42067 27.067 8.067V5.4C27.0665 5.04646 26.9257 4.70756 26.6756 4.45766C26.4256 4.20776 26.0866 4.06726 25.733 4.067Z" fill="#111111"/>
<path d="M11.9424 27.0351H10.7424V20.9731H9.27637V20.0881L11.9434 19.8301L11.9424 27.0351Z" fill="#111111"/>
<path d="M18.7372 23.7973C17.5928 23.9953 16.4325 24.0867 15.2712 24.0703H14.6562V19.8703H15.5623V23.3213C16.597 23.3217 17.6298 23.2331 18.6493 23.0563L18.7372 23.7973ZM20.9893 26.3753V27.1143H15.6273V24.6683H16.5333V26.3753H20.9893ZM19.8813 22.5133H17.7692V21.7913H19.8802V21.0083H17.7692V20.2863H19.8802V19.3213H20.7862V25.1893H19.8802L19.8813 22.5133Z" fill="#111111"/>
<path d="M25.4383 27.7165C25.3683 27.7165 25.299 27.7027 25.2343 27.6759C25.1696 27.6491 25.1109 27.6099 25.0614 27.5604C25.0119 27.5109 24.9726 27.4521 24.9458 27.3875C24.9191 27.3228 24.9053 27.2535 24.9053 27.1835V20.7835C24.9053 20.642 24.9615 20.5063 25.0615 20.4063C25.1616 20.3062 25.2973 20.25 25.4388 20.25C25.5803 20.25 25.716 20.3062 25.816 20.4063C25.9161 20.5063 25.9723 20.642 25.9723 20.7835V27.1835C25.9723 27.2535 25.9585 27.3228 25.9317 27.3875C25.9049 27.4521 25.8657 27.5109 25.8162 27.5604C25.7667 27.6099 25.7079 27.6491 25.6432 27.6759C25.5786 27.7027 25.5083 27.7165 25.4383 27.7165Z" fill="#111111"/>
<path d="M23.3428 22.5916C23.2375 22.5918 23.1345 22.5609 23.0468 22.5027C22.9591 22.4444 22.8906 22.3615 22.8499 22.2644C22.8093 22.1672 22.7983 22.0602 22.8184 21.9569C22.8385 21.8535 22.8887 21.7584 22.9628 21.6836L25.0628 19.5506C25.1622 19.4499 25.2974 19.3927 25.4388 19.3916C25.5795 19.3961 25.7139 19.4507 25.8178 19.5456L27.9818 21.6786C28.0825 21.7779 28.1396 21.9132 28.1405 22.0546C28.1414 22.196 28.0862 22.332 27.9868 22.4326C27.8875 22.5333 27.7523 22.5903 27.6109 22.5913C27.4695 22.5922 27.3335 22.5369 27.2328 22.4376L25.4478 20.6786L23.7198 22.4326C23.6702 22.483 23.6111 22.5231 23.5458 22.5504C23.4806 22.5777 23.4106 22.5917 23.3398 22.5916" fill="#111111"/>
</svg>
