<svg width="36" height="36" viewBox="0 0 36 36" fill="none" xmlns="http://www.w3.org/2000/svg">
<path d="M24.591 31H6.41098C5.56176 31.051 4.72679 30.7643 4.08804 30.2023C3.44929 29.6404 3.05855 28.8488 3.00098 28V7.99995C3.05855 7.15115 3.44929 6.35951 4.08804 5.79756C4.72679 5.23562 5.56176 4.94892 6.41098 4.99995H24.591C25.44 4.94919 26.2747 5.23601 26.9133 5.79793C27.5518 6.35985 27.9424 7.15133 28 7.99995V28C27.9424 28.8486 27.5518 29.6401 26.9133 30.202C26.2747 30.7639 25.44 31.0507 24.591 31Z" fill="white"/>
<path d="M22.501 31.5H6.50098C5.57272 31.5 4.68248 31.1313 4.0261 30.4749C3.36973 29.8185 3.00098 28.9283 3.00098 28V8C3.00098 7.07174 3.36973 6.1815 4.0261 5.52513C4.68248 4.86875 5.57272 4.5 6.50098 4.5H24.501C24.9606 4.5 25.4157 4.59053 25.8404 4.76642C26.265 4.94231 26.6508 5.20012 26.9758 5.52513C27.3009 5.85013 27.5587 6.23597 27.7346 6.66061C27.9104 7.08525 28.001 7.54037 28.001 8V28C28.001 28.4596 27.9104 28.9148 27.7346 29.3394C27.5587 29.764 27.3009 30.1499 26.9758 30.4749C26.6508 30.7999 26.265 31.0577 25.8404 31.2336C25.4157 31.4095 24.9606 31.5 24.501 31.5M6.50098 5.5C5.83793 5.5 5.20205 5.76339 4.73321 6.23223C4.26437 6.70107 4.00098 7.33696 4.00098 8V28C4.00098 28.663 4.26437 29.2989 4.73321 29.7678C5.20205 30.2366 5.83793 30.5 6.50098 30.5H24.501C25.164 30.5 25.7999 30.2366 26.2687 29.7678C26.7376 29.2989 27.001 28.663 27.001 28V8C27.001 7.33696 26.7376 6.70107 26.2687 6.23223C25.7999 5.76339 25.164 5.5 24.501 5.5H6.50098Z" fill="#111111"/>
<path d="M31.75 23.9873H24.25C23.7859 23.9873 23.3408 23.8029 23.0126 23.4747C22.6844 23.1466 22.5 22.7014 22.5 22.2373C22.5 21.7732 22.6844 21.3281 23.0126 20.9999C23.3408 20.6717 23.7859 20.4873 24.25 20.4873H31.75C32.2141 20.4873 32.6592 20.6717 32.9874 20.9999C33.3156 21.3281 33.5 21.7732 33.5 22.2373C33.5 22.7014 33.3156 23.1466 32.9874 23.4747C32.6592 23.8029 32.2141 23.9873 31.75 23.9873Z" fill="#FEE456"/>
<path d="M31.75 24.4883H24.25C23.6533 24.4883 23.081 24.2512 22.659 23.8293C22.2371 23.4073 22 22.835 22 22.2383C22 21.6415 22.2371 21.0692 22.659 20.6473C23.081 20.2253 23.6533 19.9883 24.25 19.9883H31.75C32.3467 19.9883 32.919 20.2253 33.341 20.6473C33.7629 21.0692 34 21.6415 34 22.2383C34 22.835 33.7629 23.4073 33.341 23.8293C32.919 24.2512 32.3467 24.4883 31.75 24.4883ZM24.25 20.9883C23.9185 20.9883 23.6005 21.12 23.3661 21.3544C23.1317 21.5888 23 21.9068 23 22.2383C23 22.5698 23.1317 22.8877 23.3661 23.1222C23.6005 23.3566 23.9185 23.4883 24.25 23.4883H31.75C32.0815 23.4883 32.3995 23.3566 32.6339 23.1222C32.8683 22.8877 33 22.5698 33 22.2383C33 21.9068 32.8683 21.5888 32.6339 21.3544C32.3995 21.12 32.0815 20.9883 31.75 20.9883H24.25Z" fill="#111111"/>
<path d="M31.75 27.5H24.25C23.7859 27.5 23.3408 27.3156 23.0126 26.9874C22.6844 26.6592 22.5 26.2141 22.5 25.75C22.5 25.2859 22.6844 24.8408 23.0126 24.5126C23.3408 24.1844 23.7859 24 24.25 24H31.75C32.2141 24 32.6592 24.1844 32.9874 24.5126C33.3156 24.8408 33.5 25.2859 33.5 25.75C33.5 26.2141 33.3156 26.6592 32.9874 26.9874C32.6592 27.3156 32.2141 27.5 31.75 27.5Z" fill="#FEE456"/>
<path d="M31.75 28H24.25C23.6533 28 23.081 27.7629 22.659 27.341C22.2371 26.919 22 26.3467 22 25.75C22 25.1533 22.2371 24.581 22.659 24.159C23.081 23.7371 23.6533 23.5 24.25 23.5H31.75C32.3467 23.5 32.919 23.7371 33.341 24.159C33.7629 24.581 34 25.1533 34 25.75C34 26.3467 33.7629 26.919 33.341 27.341C32.919 27.7629 32.3467 28 31.75 28ZM24.25 24.5C23.9185 24.5 23.6005 24.6317 23.3661 24.8661C23.1317 25.1005 23 25.4185 23 25.75C23 26.0815 23.1317 26.3995 23.3661 26.6339C23.6005 26.8683 23.9185 27 24.25 27H31.75C32.0815 27 32.3995 26.8683 32.6339 26.6339C32.8683 26.3995 33 26.0815 33 25.75C33 25.4185 32.8683 25.1005 32.6339 24.8661C32.3995 24.6317 32.0815 24.5 31.75 24.5H24.25Z" fill="#111111"/>
<path d="M31.75 31H24.25C23.7859 31 23.3408 30.8156 23.0126 30.4874C22.6844 30.1592 22.5 29.7141 22.5 29.25C22.5 28.7859 22.6844 28.3408 23.0126 28.0126C23.3408 27.6844 23.7859 27.5 24.25 27.5H31.75C32.2141 27.5 32.6592 27.6844 32.9874 28.0126C33.3156 28.3408 33.5 28.7859 33.5 29.25C33.5 29.7141 33.3156 30.1592 32.9874 30.4874C32.6592 30.8156 32.2141 31 31.75 31Z" fill="#FEE456"/>
<path d="M31.75 31.5H24.25C23.6533 31.5 23.081 31.2629 22.659 30.841C22.2371 30.419 22 29.8467 22 29.25C22 28.6533 22.2371 28.081 22.659 27.659C23.081 27.2371 23.6533 27 24.25 27H31.75C32.3467 27 32.919 27.2371 33.341 27.659C33.7629 28.081 34 28.6533 34 29.25C34 29.8467 33.7629 30.419 33.341 30.841C32.919 31.2629 32.3467 31.5 31.75 31.5ZM24.25 28C23.9185 28 23.6005 28.1317 23.3661 28.3661C23.1317 28.6005 23 28.9185 23 29.25C23 29.5815 23.1317 29.8995 23.3661 30.1339C23.6005 30.3683 23.9185 30.5 24.25 30.5H31.75C32.0815 30.5 32.3995 30.3683 32.6339 30.1339C32.8683 29.8995 33 29.5815 33 29.25C33 28.9185 32.8683 28.6005 32.6339 28.3661C32.3995 28.1317 32.0815 28 31.75 28H24.25Z" fill="#111111"/>
<path d="M25.1891 18.5674H24.4684V16.5996H20.5006V16.0322H25.1891V18.5674Z" fill="#111111"/>
<path fill-rule="evenodd" clip-rule="evenodd" d="M17.0533 12.2344C17.3166 12.2153 17.5805 12.2599 17.8229 12.3643C18.0652 12.4686 18.279 12.6297 18.4459 12.834C18.7898 13.3646 18.9556 13.9919 18.9176 14.623L18.9186 15.6055C18.9635 16.2547 18.8028 16.9022 18.4596 17.4551C18.2958 17.6661 18.0816 17.8338 17.8375 17.9424C17.5934 18.051 17.3257 18.0978 17.0592 18.0781C16.7967 18.0954 16.5336 18.0498 16.2926 17.9443C16.0516 17.8388 15.8388 17.6763 15.6735 17.4717C15.325 16.9387 15.1566 16.3066 15.194 15.6709V14.6875C15.1479 14.0413 15.309 13.3966 15.653 12.8477C15.8187 12.6394 16.0332 12.474 16.277 12.3672C16.5209 12.2604 16.7878 12.2149 17.0533 12.2344ZM16.9528 13C16.852 13.0073 16.753 13.0353 16.6627 13.082C16.5424 13.1444 16.4407 13.239 16.3698 13.3545C16.2005 13.6952 16.1215 14.0742 16.1403 14.4541V15.7432C16.1153 16.151 16.1915 16.5597 16.3629 16.9307C16.4305 17.0554 16.533 17.1584 16.6569 17.2275C16.7806 17.2966 16.9216 17.3292 17.0631 17.3213C17.1978 17.3291 17.3327 17.2997 17.4518 17.2363C17.5709 17.1727 17.6703 17.0763 17.7389 16.96C17.9094 16.6085 17.989 16.2192 17.9694 15.8291L17.9684 14.543C17.9955 14.1398 17.9206 13.7358 17.7506 13.3691C17.6805 13.2489 17.5777 13.1511 17.4547 13.0859C17.3626 13.0371 17.262 13.0076 17.1588 13H16.9528Z" fill="#111111"/>
<path d="M13.4342 18H12.4889V13.4346L11.0944 13.9111V13.1113L13.3131 12.2949H13.4342V18Z" fill="#111111"/>
<path d="M7.06799 14.8076C7.25687 14.8067 7.44415 14.8453 7.61682 14.9219C7.81629 15.0165 7.99982 15.1428 8.15979 15.2949C8.28494 15.4181 8.42419 15.5273 8.57385 15.6191C8.66146 15.6633 8.75896 15.6863 8.85706 15.6855C8.94036 15.6868 9.02315 15.6669 9.09729 15.6289C9.17142 15.5908 9.23529 15.5343 9.28284 15.4658C9.39622 15.3067 9.45399 15.1142 9.4469 14.9189L10.1813 14.9307C10.1984 15.3374 10.0664 15.7373 9.81018 16.0537C9.69919 16.1916 9.55728 16.3025 9.3971 16.3779C9.23688 16.4532 9.06143 16.4917 8.8844 16.4893C8.70109 16.4912 8.51901 16.4537 8.3512 16.3799C8.1517 16.2812 7.96788 16.1531 7.80628 16C7.67517 15.8737 7.53043 15.7621 7.37463 15.668C7.28789 15.6253 7.192 15.6039 7.09534 15.6045C7.01558 15.6014 6.9357 15.6175 6.86389 15.6523C6.79222 15.6872 6.73001 15.7401 6.68323 15.8047C6.57739 15.9605 6.52407 16.1468 6.53284 16.335H5.77893C5.76149 15.9379 5.88816 15.5474 6.1344 15.2354C6.24641 15.0969 6.38954 14.9864 6.55139 14.9121C6.71324 14.838 6.89006 14.8021 7.06799 14.8076Z" fill="#111111"/>
<path d="M25.1803 15.6719H24.4684V13.8877L23.3483 13.8838V13.2998H24.4684V11.5713H25.1803V15.6719Z" fill="#111111"/>
<path fill-rule="evenodd" clip-rule="evenodd" d="M21.317 11.9199C21.5505 11.9099 21.7838 11.9473 22.0026 12.0293C22.2213 12.1114 22.4221 12.2364 22.5914 12.3975C22.7609 12.5587 22.897 12.7531 22.9899 12.9678C23.0827 13.1824 23.1309 13.4137 23.1324 13.6475C23.1292 13.8783 23.0792 14.1066 22.985 14.3174C22.8908 14.5281 22.7543 14.7176 22.5846 14.874C22.4148 15.0303 22.2144 15.151 21.9967 15.2275C21.779 15.304 21.5473 15.335 21.317 15.3193C21.0868 15.3351 20.8551 15.304 20.6373 15.2275C20.4195 15.151 20.2193 15.0304 20.0494 14.874C19.8795 14.7176 19.7424 14.5282 19.6481 14.3174C19.5539 14.1066 19.5039 13.8783 19.5006 13.6475C19.5023 13.4136 19.5512 13.1824 19.6442 12.9678C19.7371 12.7533 19.8723 12.5596 20.0416 12.3984C20.211 12.2373 20.4116 12.1115 20.6305 12.0293C20.8494 11.9472 21.0834 11.91 21.317 11.9199ZM21.317 12.5361C21.1706 12.5322 21.0242 12.5578 20.8883 12.6123C20.7524 12.6669 20.629 12.7494 20.526 12.8535C20.4229 12.9577 20.3419 13.0822 20.2887 13.2188C20.2356 13.3552 20.211 13.5012 20.2164 13.6475C20.2119 13.7931 20.237 13.9387 20.2907 14.0742C20.3443 14.2097 20.4259 14.3325 20.5289 14.4355C20.632 14.5385 20.7548 14.6202 20.8903 14.6738C21.0257 14.7274 21.1715 14.7526 21.317 14.748C21.4629 14.7542 21.6087 14.7297 21.7448 14.6768C21.8808 14.6237 22.0047 14.5427 22.108 14.4395C22.2113 14.3361 22.2923 14.2123 22.3453 14.0762C22.3984 13.9399 22.4228 13.7935 22.4166 13.6475C22.4245 13.5005 22.4015 13.3534 22.3492 13.2158C22.297 13.0783 22.2163 12.9533 22.1129 12.8486C22.0094 12.744 21.8847 12.6612 21.7477 12.6074C21.6108 12.5538 21.4639 12.5299 21.317 12.5361Z" fill="#111111"/>
</svg>
