<svg width="36" height="36" viewBox="0 0 36 36" fill="none" xmlns="http://www.w3.org/2000/svg">
<path d="M15.057 3.81677L3.326 9.71477C3.07768 9.83967 2.86896 10.0311 2.7231 10.2677C2.57725 10.5043 2.50001 10.7768 2.5 11.0548V12.3868C2.5 12.7846 2.65804 13.1661 2.93934 13.4474C3.22064 13.7287 3.60218 13.8868 4 13.8868H5.2V29.9698C5.2 30.5002 5.41071 31.0089 5.78579 31.384C6.16086 31.7591 6.66957 31.9698 7.2 31.9698H25.607C26.1374 31.9698 26.6461 31.7591 27.0212 31.384C27.3963 31.0089 27.607 30.5002 27.607 29.9698V13.8868H28.807C29.2048 13.8868 29.5864 13.7287 29.8677 13.4474C30.149 13.1661 30.307 12.7846 30.307 12.3868V11.0548C30.307 10.7768 30.2298 10.5043 30.0839 10.2677C29.938 10.0311 29.7293 9.83967 29.481 9.71477L17.75 3.81477C17.3319 3.60459 16.8705 3.49512 16.4025 3.49512C15.9346 3.49512 15.4731 3.60459 15.055 3.81477" fill="white"/>
<path d="M25.607 32.4683H7.20001C6.53697 32.4683 5.90108 32.2049 5.43224 31.736C4.9634 31.2672 4.70001 30.6313 4.70001 29.9683V14.3863H4.00001C3.46958 14.3863 2.96087 14.1755 2.5858 13.8005C2.21072 13.4254 2.00001 12.9167 2.00001 12.3863V11.0543C1.9988 10.6835 2.10113 10.3198 2.29548 10.0041C2.48982 9.68835 2.76846 9.43316 3.10001 9.26725L14.833 3.37025C15.3211 3.12612 15.8593 2.99902 16.405 2.99902C16.9507 2.99902 17.4889 3.12612 17.977 3.37025L29.708 9.27025C30.0396 9.43616 30.3182 9.69135 30.5125 10.0071C30.7069 10.3228 30.8092 10.6865 30.808 11.0573V12.3863C30.808 12.9167 30.5973 13.4254 30.2222 13.8005C29.8472 14.1755 29.3384 14.3863 28.808 14.3863H28.108V29.9683C28.108 30.6313 27.8446 31.2672 27.3758 31.736C26.9069 32.2049 26.2701 32.4683 25.607 32.4683ZM16.4 3.99925C16.0102 3.99903 15.6256 4.08977 15.277 4.26425L3.55101 10.1613C3.38546 10.2444 3.24627 10.372 3.14897 10.5297C3.05168 10.6874 3.00011 10.869 3.00001 11.0543V12.3863C3.00001 12.6515 3.10537 12.9058 3.2929 13.0934C3.48044 13.2809 3.73479 13.3863 4.00001 13.3863H5.70001V29.9683C5.70001 30.3661 5.85805 30.7476 6.13935 31.0289C6.42065 31.3102 6.80219 31.4683 7.20001 31.4683H25.607C26.0048 31.4683 26.3864 31.3102 26.6677 31.0289C26.949 30.7476 27.107 30.3661 27.107 29.9683V13.3863H28.807C29.0722 13.3863 29.3266 13.2809 29.5141 13.0934C29.7017 12.9058 29.807 12.6515 29.807 12.3863V11.0543C29.8069 10.869 29.7553 10.6874 29.658 10.5297C29.5608 10.372 29.4216 10.2444 29.256 10.1613L17.526 4.26125C17.1763 4.08714 16.7907 3.99741 16.4 3.99925Z" fill="#111111"/>
<path d="M19.6269 31.9687H12.6919V21.2637C12.6919 20.8658 12.8499 20.4843 13.1312 20.203C13.4125 19.9217 13.7941 19.7637 14.1919 19.7637H18.1259C18.5237 19.7637 18.9052 19.9217 19.1866 20.203C19.4679 20.4843 19.6259 20.8658 19.6259 21.2637L19.6269 31.9687Z" fill="white"/>
<path d="M20.1269 32.4687H12.1919V21.2637C12.1919 20.7332 12.4026 20.2245 12.7777 19.8495C13.1528 19.4744 13.6615 19.2637 14.1919 19.2637H18.1259C18.6563 19.2637 19.165 19.4744 19.5401 19.8495C19.9152 20.2245 20.1259 20.7332 20.1259 21.2637L20.1269 32.4687ZM13.1929 31.4687H19.1269V21.2637C19.1269 20.9985 19.0215 20.7441 18.834 20.5566C18.6465 20.369 18.3921 20.2637 18.1269 20.2637H14.1919C13.9267 20.2637 13.6723 20.369 13.4848 20.5566C13.2973 20.7441 13.1919 20.9985 13.1919 21.2637L13.1929 31.4687Z" fill="#111111"/>
<path d="M31.4662 23.8346H23.8592C23.3197 23.8346 22.8024 23.6203 22.4209 23.2389C22.0395 22.8574 21.8252 22.3401 21.8252 21.8006C21.8252 21.2612 22.0395 20.7438 22.4209 20.3623C22.8024 19.9809 23.3197 19.7666 23.8592 19.7666H31.4662C32.0056 19.7666 32.523 19.9809 32.9044 20.3623C33.2859 20.7438 33.5002 21.2612 33.5002 21.8006C33.5002 22.3401 33.2859 22.8574 32.9044 23.2389C32.523 23.6203 32.0056 23.8346 31.4662 23.8346Z" fill="#FEE456"/>
<path d="M31.4652 24.3336H23.8592C23.1871 24.3336 22.5426 24.0666 22.0674 23.5914C21.5922 23.1162 21.3252 22.4717 21.3252 21.7996C21.3252 21.1276 21.5922 20.483 22.0674 20.0078C22.5426 19.5326 23.1871 19.2656 23.8592 19.2656H31.4662C32.1383 19.2656 32.7828 19.5326 33.258 20.0078C33.7332 20.483 34.0002 21.1276 34.0002 21.7996C34.0002 22.4717 33.7332 23.1162 33.258 23.5914C32.7828 24.0666 32.1373 24.3336 31.4652 24.3336ZM23.8592 20.2636C23.4524 20.2636 23.0622 20.4252 22.7745 20.7129C22.4868 21.0006 22.3252 21.3908 22.3252 21.7976C22.3252 22.2045 22.4868 22.5946 22.7745 22.8823C23.0622 23.17 23.4524 23.3316 23.8592 23.3316H31.4652C31.6666 23.3316 31.8661 23.2919 32.0522 23.2149C32.2383 23.1378 32.4075 23.0248 32.5499 22.8823C32.6923 22.7399 32.8053 22.5708 32.8824 22.3847C32.9595 22.1985 32.9992 21.9991 32.9992 21.7976C32.9992 21.5962 32.9595 21.3967 32.8824 21.2106C32.8053 21.0245 32.6923 20.8554 32.5499 20.7129C32.4075 20.5705 32.2383 20.4575 32.0522 20.3804C31.8661 20.3033 31.6666 20.2636 31.4652 20.2636H23.8592Z" fill="#111111"/>
<path d="M31.4662 27.902H23.8592C23.592 27.902 23.3274 27.8494 23.0806 27.7471C22.8337 27.6448 22.6095 27.4949 22.4206 27.3059C22.2317 27.1169 22.0819 26.8926 21.9797 26.6457C21.8776 26.3988 21.8251 26.1342 21.8252 25.867C21.8252 25.5998 21.8778 25.3352 21.9801 25.0884C22.0824 24.8416 22.2323 24.6173 22.4213 24.4284C22.6103 24.2395 22.8346 24.0897 23.0815 23.9875C23.3284 23.8854 23.593 23.8329 23.8602 23.833H31.4662C32.0056 23.833 32.523 24.0473 32.9044 24.4288C33.2859 24.8102 33.5002 25.3276 33.5002 25.867C33.5002 26.4065 33.2859 26.9238 32.9044 27.3053C32.523 27.6867 32.0056 27.902 31.4662 27.902Z" fill="#FEE456"/>
<path d="M31.4652 28.4011H23.8592C23.1869 28.4011 22.5421 28.134 22.0667 27.6586C21.5913 27.1832 21.3242 26.5384 21.3242 25.8661C21.3242 25.1937 21.5913 24.5489 22.0667 24.0735C22.5421 23.5981 23.1869 23.3311 23.8592 23.3311H31.4652C32.1375 23.3311 32.7823 23.5981 33.2577 24.0735C33.7331 24.5489 34.0002 25.1937 34.0002 25.8661C34.0002 26.5384 33.7331 27.1832 33.2577 27.6586C32.7823 28.134 32.1375 28.4011 31.4652 28.4011ZM23.8592 24.3311C23.4521 24.3311 23.0617 24.4928 22.7738 24.7806C22.4859 25.0685 22.3242 25.4589 22.3242 25.8661C22.3242 26.2732 22.4859 26.6636 22.7738 26.9515C23.0617 27.2393 23.4521 27.4011 23.8592 27.4011H31.4652C31.8723 27.4011 32.2628 27.2393 32.5506 26.9515C32.8385 26.6636 33.0002 26.2732 33.0002 25.8661C33.0002 25.4589 32.8385 25.0685 32.5506 24.7806C32.2628 24.4928 31.8723 24.3311 31.4652 24.3311H23.8592Z" fill="#111111"/>
<path d="M31.4662 31.9694H23.8592C23.3197 31.9694 22.8024 31.7551 22.4209 31.3736C22.0395 30.9922 21.8252 30.4748 21.8252 29.9354C21.8252 29.3959 22.0395 28.8786 22.4209 28.4971C22.8024 28.1157 23.3197 27.9014 23.8592 27.9014H31.4652C32.0046 27.9014 32.522 28.1157 32.9035 28.4971C33.2849 28.8786 33.4992 29.3959 33.4992 29.9354C33.4992 30.4748 33.2849 30.9922 32.9035 31.3736C32.522 31.7551 32.0056 31.9694 31.4662 31.9694Z" fill="#FEE456"/>
<path d="M31.4662 32.4694H23.8592C23.1871 32.4694 22.5426 32.2024 22.0674 31.7272C21.5922 31.252 21.3252 30.6074 21.3252 29.9354C21.3252 29.2633 21.5922 28.6188 22.0674 28.1436C22.5426 27.6683 23.1871 27.4014 23.8592 27.4014H31.4652C32.1373 27.4014 32.7818 27.6683 33.257 28.1436C33.7322 28.6188 33.9992 29.2633 33.9992 29.9354C33.9992 30.6074 33.7322 31.252 33.257 31.7272C32.7818 32.2024 32.1383 32.4694 31.4662 32.4694ZM23.8592 28.3974C23.4524 28.3974 23.0622 28.559 22.7745 28.8467C22.4868 29.1343 22.3252 29.5245 22.3252 29.9314C22.3252 30.3382 22.4868 30.7284 22.7745 31.0161C23.0622 31.3037 23.4524 31.4654 23.8592 31.4654H31.4662C31.873 31.4654 32.2632 31.3037 32.5509 31.0161C32.8386 30.7284 33.0002 30.3382 33.0002 29.9314C33.0002 29.5245 32.8386 29.1343 32.5509 28.8467C32.2632 28.559 31.873 28.3974 31.4662 28.3974H23.8592Z" fill="#111111"/>
</svg>
