<svg width="36" height="36" viewBox="0 0 36 36" fill="none" xmlns="http://www.w3.org/2000/svg">
<path d="M24.591 31H6.41098C5.56176 31.051 4.72679 30.7643 4.08804 30.2023C3.44929 29.6404 3.05855 28.8488 3.00098 28V7.99995C3.05855 7.15115 3.44929 6.35951 4.08804 5.79756C4.72679 5.23562 5.56176 4.94892 6.41098 4.99995H24.591C25.44 4.94919 26.2747 5.23601 26.9133 5.79793C27.5518 6.35985 27.9424 7.15133 28 7.99995V28C27.9424 28.8486 27.5518 29.6401 26.9133 30.202C26.2747 30.7639 25.44 31.0507 24.591 31Z" fill="white"/>
<path d="M22.501 31.5H6.50098C5.57272 31.5 4.68248 31.1313 4.0261 30.4749C3.36973 29.8185 3.00098 28.9283 3.00098 28V8C3.00098 7.07174 3.36973 6.1815 4.0261 5.52513C4.68248 4.86875 5.57272 4.5 6.50098 4.5H24.501C24.9606 4.5 25.4157 4.59053 25.8404 4.76642C26.265 4.94231 26.6508 5.20012 26.9758 5.52513C27.3009 5.85013 27.5587 6.23597 27.7346 6.66061C27.9104 7.08525 28.001 7.54037 28.001 8V28C28.001 28.4596 27.9104 28.9148 27.7346 29.3394C27.5587 29.764 27.3009 30.1499 26.9758 30.4749C26.6508 30.7999 26.265 31.0577 25.8404 31.2336C25.4157 31.4095 24.9606 31.5 24.501 31.5M6.50098 5.5C5.83793 5.5 5.20205 5.76339 4.73321 6.23223C4.26437 6.70107 4.00098 7.33696 4.00098 8V28C4.00098 28.663 4.26437 29.2989 4.73321 29.7678C5.20205 30.2366 5.83793 30.5 6.50098 30.5H24.501C25.164 30.5 25.7999 30.2366 26.2687 29.7678C26.7376 29.2989 27.001 28.663 27.001 28V8C27.001 7.33696 26.7376 6.70107 26.2687 6.23223C25.7999 5.76339 25.164 5.5 24.501 5.5H6.50098Z" fill="#111111"/>
<path d="M31.75 23.9873H24.25C23.7859 23.9873 23.3408 23.8029 23.0126 23.4747C22.6844 23.1466 22.5 22.7014 22.5 22.2373C22.5 21.7732 22.6844 21.3281 23.0126 20.9999C23.3408 20.6717 23.7859 20.4873 24.25 20.4873H31.75C32.2141 20.4873 32.6592 20.6717 32.9874 20.9999C33.3156 21.3281 33.5 21.7732 33.5 22.2373C33.5 22.7014 33.3156 23.1466 32.9874 23.4747C32.6592 23.8029 32.2141 23.9873 31.75 23.9873Z" fill="#FEE456"/>
<path d="M31.75 24.4883H24.25C23.6533 24.4883 23.081 24.2512 22.659 23.8293C22.2371 23.4073 22 22.835 22 22.2383C22 21.6415 22.2371 21.0692 22.659 20.6473C23.081 20.2253 23.6533 19.9883 24.25 19.9883H31.75C32.3467 19.9883 32.919 20.2253 33.341 20.6473C33.7629 21.0692 34 21.6415 34 22.2383C34 22.835 33.7629 23.4073 33.341 23.8293C32.919 24.2512 32.3467 24.4883 31.75 24.4883ZM24.25 20.9883C23.9185 20.9883 23.6005 21.12 23.3661 21.3544C23.1317 21.5888 23 21.9068 23 22.2383C23 22.5698 23.1317 22.8877 23.3661 23.1222C23.6005 23.3566 23.9185 23.4883 24.25 23.4883H31.75C32.0815 23.4883 32.3995 23.3566 32.6339 23.1222C32.8683 22.8877 33 22.5698 33 22.2383C33 21.9068 32.8683 21.5888 32.6339 21.3544C32.3995 21.12 32.0815 20.9883 31.75 20.9883H24.25Z" fill="#111111"/>
<path d="M31.75 27.5H24.25C23.7859 27.5 23.3408 27.3156 23.0126 26.9874C22.6844 26.6592 22.5 26.2141 22.5 25.75C22.5 25.2859 22.6844 24.8408 23.0126 24.5126C23.3408 24.1844 23.7859 24 24.25 24H31.75C32.2141 24 32.6592 24.1844 32.9874 24.5126C33.3156 24.8408 33.5 25.2859 33.5 25.75C33.5 26.2141 33.3156 26.6592 32.9874 26.9874C32.6592 27.3156 32.2141 27.5 31.75 27.5Z" fill="#FEE456"/>
<path d="M31.75 28H24.25C23.6533 28 23.081 27.7629 22.659 27.341C22.2371 26.919 22 26.3467 22 25.75C22 25.1533 22.2371 24.581 22.659 24.159C23.081 23.7371 23.6533 23.5 24.25 23.5H31.75C32.3467 23.5 32.919 23.7371 33.341 24.159C33.7629 24.581 34 25.1533 34 25.75C34 26.3467 33.7629 26.919 33.341 27.341C32.919 27.7629 32.3467 28 31.75 28ZM24.25 24.5C23.9185 24.5 23.6005 24.6317 23.3661 24.8661C23.1317 25.1005 23 25.4185 23 25.75C23 26.0815 23.1317 26.3995 23.3661 26.6339C23.6005 26.8683 23.9185 27 24.25 27H31.75C32.0815 27 32.3995 26.8683 32.6339 26.6339C32.8683 26.3995 33 26.0815 33 25.75C33 25.4185 32.8683 25.1005 32.6339 24.8661C32.3995 24.6317 32.0815 24.5 31.75 24.5H24.25Z" fill="#111111"/>
<path d="M31.75 31H24.25C23.7859 31 23.3408 30.8156 23.0126 30.4874C22.6844 30.1592 22.5 29.7141 22.5 29.25C22.5 28.7859 22.6844 28.3408 23.0126 28.0126C23.3408 27.6844 23.7859 27.5 24.25 27.5H31.75C32.2141 27.5 32.6592 27.6844 32.9874 28.0126C33.3156 28.3408 33.5 28.7859 33.5 29.25C33.5 29.7141 33.3156 30.1592 32.9874 30.4874C32.6592 30.8156 32.2141 31 31.75 31Z" fill="#FEE456"/>
<path d="M31.75 31.5H24.25C23.6533 31.5 23.081 31.2629 22.659 30.841C22.2371 30.419 22 29.8467 22 29.25C22 28.6533 22.2371 28.081 22.659 27.659C23.081 27.2371 23.6533 27 24.25 27H31.75C32.3467 27 32.919 27.2371 33.341 27.659C33.7629 28.081 34 28.6533 34 29.25C34 29.8467 33.7629 30.419 33.341 30.841C32.919 31.2629 32.3467 31.5 31.75 31.5ZM24.25 28C23.9185 28 23.6005 28.1317 23.3661 28.3661C23.1317 28.6005 23 28.9185 23 29.25C23 29.5815 23.1317 29.8995 23.3661 30.1339C23.6005 30.3683 23.9185 30.5 24.25 30.5H31.75C32.0815 30.5 32.3995 30.3683 32.6339 30.1339C32.8683 29.8995 33 29.5815 33 29.25C33 28.9185 32.8683 28.6005 32.6339 28.3661C32.3995 28.1317 32.0815 28 31.75 28H24.25Z" fill="#111111"/>
<path d="M9.0382 17.9999H8.0932V13.4339L6.7002 13.9099V13.1099L8.9192 12.2939H9.0402L9.0382 17.9999ZM14.5222 15.6049C14.5673 16.2545 14.4067 16.9017 14.0632 17.4549C13.8993 17.6661 13.6857 17.8336 13.4415 17.9423C13.1972 18.051 12.9298 18.0975 12.6632 18.0779C12.4006 18.0951 12.1377 18.0489 11.8967 17.9433C11.6556 17.8377 11.4435 17.6756 11.2782 17.4709C10.9296 16.9378 10.7617 16.3067 10.7992 15.6709V14.6869C10.7531 14.0404 10.9139 13.396 11.2582 12.8469C11.424 12.6385 11.6382 12.4737 11.8822 12.3669C12.1262 12.26 12.3926 12.2144 12.6582 12.2339C12.9215 12.2148 13.1855 12.2593 13.428 12.3638C13.6704 12.4682 13.8842 12.6294 14.0512 12.8339C14.3948 13.3641 14.5598 13.9902 14.5222 14.6209V15.6049ZM13.5732 14.5429C13.6 14.1394 13.5247 13.7356 13.3542 13.3689C13.2842 13.2488 13.182 13.1506 13.0592 13.0855C12.9364 13.0203 12.7979 12.9906 12.6592 12.9999C12.5238 12.9911 12.3885 13.0194 12.268 13.0818C12.1475 13.1442 12.0462 13.2382 11.9752 13.3539C11.8056 13.6948 11.7264 14.0736 11.7452 14.4539V15.7429C11.7198 16.1508 11.7961 16.5587 11.9672 16.9299C12.0347 17.0548 12.1364 17.1579 12.2604 17.2271C12.3843 17.2963 12.5254 17.3289 12.6672 17.3209C12.8022 17.3287 12.9367 17.2992 13.056 17.2355C13.1752 17.1718 13.2746 17.0764 13.3432 16.9599C13.5138 16.6082 13.5929 16.2192 13.5732 15.8289V14.5429ZM18.8732 15.6059C18.9169 16.2555 18.7549 16.9025 18.4102 17.4549C18.2463 17.6661 18.0327 17.8336 17.7885 17.9423C17.5442 18.051 17.2768 18.0975 17.0102 18.0779C16.7476 18.0951 16.4847 18.0489 16.2437 17.9433C16.0026 17.8377 15.7905 17.6756 15.6252 17.4709C15.2766 16.9378 15.1087 16.3067 15.1462 15.6709V14.6869C15.1001 14.0404 15.2609 13.396 15.6052 12.8469C15.771 12.6385 15.9852 12.4737 16.2292 12.3669C16.4732 12.26 16.7396 12.2144 17.0052 12.2339C17.2685 12.2148 17.5325 12.2593 17.775 12.3638C18.0174 12.4682 18.2312 12.6294 18.3982 12.8339C18.7422 13.3646 18.9072 13.9916 18.8692 14.6229L18.8732 15.6059ZM17.9202 14.5429C17.9467 14.1393 17.871 13.7355 17.7002 13.3689C17.6302 13.2488 17.528 13.1506 17.4052 13.0855C17.2824 13.0203 17.1439 12.9906 17.0052 12.9999C16.8698 12.9911 16.7345 13.0194 16.614 13.0818C16.4935 13.1442 16.3922 13.2382 16.3212 13.3539C16.1516 13.6948 16.0724 14.0736 16.0912 14.4539V15.7429C16.0661 16.1509 16.1427 16.5588 16.3142 16.9299C16.3817 17.0548 16.4834 17.1579 16.6074 17.2271C16.7313 17.2963 16.8724 17.3289 17.0142 17.3209C17.1492 17.3287 17.2837 17.2992 17.403 17.2355C17.5222 17.1718 17.6216 17.0764 17.6902 16.9599C17.8608 16.6082 17.9399 16.2192 17.9202 15.8289V14.5429ZM19.4702 13.4059C19.4645 13.25 19.4908 13.0945 19.5476 12.9492C19.6044 12.8038 19.6903 12.6717 19.8002 12.5609C19.9155 12.4498 20.0521 12.3632 20.2018 12.3065C20.3515 12.2497 20.5112 12.224 20.6712 12.2309C20.8321 12.2234 20.9929 12.2488 21.1437 12.3055C21.2945 12.3623 21.4321 12.4491 21.5482 12.5609C21.6592 12.675 21.7457 12.8106 21.8024 12.9594C21.8591 13.1081 21.8849 13.2668 21.8782 13.4259V13.7069C21.8836 13.862 21.8571 14.0166 21.8004 14.1611C21.7436 14.3056 21.6578 14.4369 21.5482 14.5469C21.4331 14.6575 21.2967 14.7437 21.1474 14.8001C20.998 14.8564 20.8387 14.8819 20.6792 14.8749C20.3584 14.8865 20.046 14.7707 19.8102 14.5529C19.695 14.4405 19.6049 14.3049 19.5459 14.1551C19.487 14.0053 19.4605 13.8447 19.4682 13.6839L19.4702 13.4059ZM20.1342 13.7059C20.1267 13.865 20.1804 14.021 20.2842 14.1419C20.3346 14.1973 20.3965 14.2409 20.4657 14.2695C20.5348 14.2982 20.6094 14.3113 20.6842 14.3079C20.7576 14.3106 20.8306 14.2972 20.8982 14.2685C20.9658 14.2398 21.0262 14.1966 21.0752 14.1419C21.1794 14.0155 21.2323 13.8545 21.2232 13.6909V13.4059C21.2302 13.2465 21.1766 13.0903 21.0732 12.9689C21.0231 12.913 20.9612 12.869 20.8921 12.8399C20.8229 12.8109 20.7481 12.7975 20.6732 12.8009C20.5991 12.7978 20.5253 12.8115 20.4572 12.8409C20.3892 12.8703 20.3287 12.9148 20.2802 12.9709C20.1784 13.097 20.1264 13.256 20.1342 13.4179V13.7059ZM22.2042 16.6059C22.198 16.4486 22.225 16.2917 22.2836 16.1456C22.3422 15.9994 22.431 15.8673 22.5442 15.7579C22.6602 15.6494 22.7966 15.5649 22.9453 15.5093C23.0941 15.4537 23.2525 15.4281 23.4112 15.4339C23.5703 15.4275 23.7291 15.4529 23.8783 15.5085C24.0275 15.5642 24.1641 15.6489 24.2802 15.7579C24.3946 15.872 24.4837 16.0088 24.5419 16.1596C24.6002 16.3103 24.6261 16.4715 24.6182 16.6329V16.9099C24.6233 17.0643 24.5971 17.2183 24.5411 17.3623C24.485 17.5063 24.4004 17.6375 24.2922 17.7479C24.177 17.8597 24.0401 17.9468 23.89 18.0035C23.7398 18.0603 23.5796 18.0856 23.4192 18.0779C23.258 18.0852 23.097 18.0601 22.9457 18.0041C22.7944 17.9481 22.6558 17.8623 22.5382 17.7519C22.4253 17.6396 22.337 17.5051 22.2788 17.3569C22.2206 17.2087 22.1939 17.05 22.2002 16.8909L22.2042 16.6059ZM22.8682 16.9059C22.8617 17.0656 22.9168 17.2217 23.0222 17.3419C23.0723 17.3979 23.1341 17.4421 23.2032 17.4715C23.2724 17.5009 23.3471 17.5147 23.4222 17.5119C23.4956 17.5154 23.5688 17.5027 23.6368 17.4747C23.7047 17.4467 23.7656 17.4041 23.8152 17.3499C23.9147 17.2218 23.9641 17.0618 23.9542 16.8999V16.6069C23.9621 16.4461 23.9068 16.2885 23.8002 16.1679C23.7512 16.1136 23.6911 16.0705 23.624 16.0415C23.5569 16.0125 23.4843 15.9983 23.4112 15.9999C23.3377 15.9972 23.2645 16.0104 23.1967 16.0387C23.1288 16.067 23.0679 16.1097 23.0182 16.1639C22.9121 16.2902 22.8584 16.4523 22.8682 16.6169V16.9059ZM20.8762 17.5739L20.3872 17.2929L23.1652 12.8479L23.6532 13.1289L20.8762 17.5739Z" fill="#111111"/>
</svg>
