<svg width="36" height="36" viewBox="0 0 36 36" fill="none" xmlns="http://www.w3.org/2000/svg">
<path d="M30.2662 31.42H5.7332C4.88451 31.42 4.07058 31.0829 3.47046 30.4827C2.87034 29.8826 2.5332 29.0687 2.5332 28.22V12H33.4662V28.22C33.4662 28.6402 33.3834 29.0563 33.2226 29.4446C33.0618 29.8328 32.8261 30.1856 32.5289 30.4827C32.2318 30.7799 31.879 31.0156 31.4908 31.1764C31.1025 31.3372 30.6864 31.42 30.2662 31.42Z" fill="white"/>
<path d="M30.267 31.9538H5.733C4.74335 31.9525 3.79462 31.5588 3.09483 30.859C2.39504 30.1592 2.00132 29.2104 2 28.2208V11.4668H34V28.2208C33.9987 29.2104 33.605 30.1592 32.9052 30.859C32.2054 31.5588 31.2566 31.9525 30.267 31.9538ZM3.067 12.5338V28.2208C3.06806 28.9275 3.34928 29.605 3.84902 30.1048C4.34876 30.6045 5.02626 30.8857 5.733 30.8868H30.267C30.9741 30.886 31.652 30.6048 32.152 30.1048C32.652 29.6048 32.9332 28.9269 32.934 28.2198V12.5338H3.067Z" fill="#111111"/>
<path d="M5.7332 4.5332H30.2662C31.1149 4.5332 31.9288 4.87034 32.5289 5.47046C33.1291 6.07058 33.4662 6.88451 33.4662 7.7332V12.0002H2.5332V7.7332C2.5332 6.88451 2.87034 6.07058 3.47046 5.47046C4.07058 4.87034 4.88451 4.5332 5.7332 4.5332Z" fill="#B9B5EF"/>
<path d="M34 12.53H2V7.73C2.00212 6.74087 2.39619 5.79291 3.09589 5.09377C3.79559 4.39463 4.74387 4.00132 5.733 4H30.267C31.2561 4.00132 32.2044 4.39463 32.9041 5.09377C33.6038 5.79291 33.9979 6.74087 34 7.73V12.53ZM3.067 11.467H32.933V7.73C32.9322 7.02291 32.651 6.34501 32.151 5.84502C31.651 5.34504 30.9731 5.06379 30.266 5.063H5.733C5.02608 5.06406 4.34844 5.34542 3.84867 5.84538C3.3489 6.34534 3.06779 7.02308 3.067 7.73V11.467Z" fill="#111111"/>
<path d="M21.2711 27.418C20.9347 27.419 20.6014 27.3531 20.2905 27.2244C19.9797 27.0957 19.6974 26.9066 19.4601 26.668L12.9181 20.126C12.6803 19.8882 12.4916 19.6059 12.3629 19.2952C12.2342 18.9844 12.168 18.6514 12.168 18.315C12.168 17.9787 12.2342 17.6457 12.3629 17.3349C12.4916 17.0242 12.6803 16.7419 12.9181 16.504C13.1559 16.2662 13.4383 16.0776 13.749 15.9489C14.0597 15.8202 14.3928 15.7539 14.7291 15.7539C15.0654 15.7539 15.3985 15.8202 15.7092 15.9489C16.0199 16.0776 16.3023 16.2662 16.5401 16.504L23.0821 23.044C23.4403 23.4022 23.6843 23.8586 23.7831 24.3554C23.8819 24.8522 23.8312 25.3671 23.6374 25.8351C23.4435 26.3031 23.1152 26.7031 22.694 26.9845C22.2728 27.2659 21.7777 27.4161 21.2711 27.416M14.7291 16.816C14.4337 16.816 14.1448 16.9036 13.8991 17.0677C13.6535 17.2318 13.4619 17.465 13.3488 17.738C13.2357 18.0109 13.206 18.3112 13.2636 18.601C13.3211 18.8908 13.4633 19.1571 13.6721 19.366L20.2131 25.908C20.4979 26.1798 20.8764 26.3315 21.2701 26.3315C21.6638 26.3315 22.0423 26.1798 22.3271 25.908C22.4659 25.7693 22.5759 25.6046 22.651 25.4233C22.7261 25.2421 22.7648 25.0478 22.7648 24.8515C22.7648 24.6553 22.7261 24.461 22.651 24.2798C22.5759 24.0985 22.4659 23.9338 22.3271 23.795L15.7851 17.253C15.6464 17.1141 15.4816 17.004 15.3002 16.929C15.1188 16.854 14.9244 16.8156 14.7281 16.816" fill="#111111"/>
<path d="M14.7301 27.418C14.3936 27.419 14.0603 27.3532 13.7494 27.2244C13.4386 27.0957 13.1563 26.9066 12.9191 26.668C12.6812 26.4303 12.4926 26.148 12.3639 25.8374C12.2352 25.5267 12.1689 25.1938 12.1689 24.8575C12.1689 24.5213 12.2352 24.1883 12.3639 23.8777C12.4926 23.567 12.6812 23.2848 12.9191 23.047L19.4601 16.505C19.9404 16.0247 20.5918 15.7549 21.2711 15.7549C21.9503 15.7549 22.6018 16.0247 23.0821 16.505C23.5624 16.9853 23.8322 17.6368 23.8322 18.316C23.8322 18.9953 23.5624 19.6467 23.0821 20.127L16.5401 26.669C16.3028 26.9076 16.0206 27.0968 15.7097 27.2255C15.3989 27.3543 15.0655 27.42 14.7291 27.419M21.2711 16.819C21.0748 16.8186 20.8803 16.857 20.6989 16.932C20.5175 17.007 20.3527 17.1171 20.2141 17.256L13.6741 23.801C13.5353 23.9398 13.4252 24.1045 13.3501 24.2857C13.275 24.467 13.2364 24.6613 13.2364 24.8575C13.2364 25.0537 13.275 25.248 13.3501 25.4293C13.4252 25.6106 13.5353 25.7753 13.6741 25.914C13.9587 26.1857 14.3371 26.3374 14.7306 26.3374C15.1241 26.3374 15.5024 26.1857 15.7871 25.914L22.3291 19.372C22.5379 19.163 22.6801 18.8968 22.7376 18.607C22.7952 18.3172 22.7655 18.0169 22.6524 17.7439C22.5392 17.471 22.3477 17.2378 22.102 17.0737C21.8563 16.9096 21.5675 16.822 21.2721 16.822" fill="#111111"/>
</svg>
