<svg width="36" height="36" viewBox="0 0 36 36" fill="none" xmlns="http://www.w3.org/2000/svg">
<path d="M18.0001 20.0678C19.768 20.068 21.4801 20.6866 22.8398 21.8163C24.1995 22.9461 25.1212 24.5159 25.4451 26.2538C25.5122 26.6401 25.7129 26.9906 26.0121 27.2439C26.3113 27.4973 26.6901 27.6374 27.0821 27.6398H31.8451C32.0797 27.6402 32.3116 27.591 32.5258 27.4954C32.7399 27.3998 32.9315 27.2601 33.0878 27.0853C33.2442 26.9105 33.3618 26.7047 33.4331 26.4812C33.5043 26.2578 33.5275 26.0218 33.5011 25.7888C33.0466 21.9975 31.2182 18.5042 28.362 15.9699C25.5057 13.4357 21.8196 12.0361 18.0011 12.0361C14.1827 12.0361 10.4966 13.4357 7.64032 15.9699C4.78406 18.5042 2.95569 21.9975 2.50114 25.7888C2.47495 26.0218 2.49826 26.2577 2.56956 26.4811C2.64085 26.7044 2.75851 26.9102 2.91484 27.085C3.07118 27.2597 3.26265 27.3995 3.47673 27.4951C3.69082 27.5907 3.92268 27.64 4.15714 27.6398H9.51114C9.75229 27.6381 9.98433 27.5475 10.1628 27.3853C10.3412 27.2231 10.4535 27.0007 10.4781 26.7608C10.6936 24.9172 11.5786 23.217 12.9651 21.9829C14.3516 20.7489 16.143 20.067 17.9991 20.0668" fill="#D10F0F"/>
<path d="M31.8441 28.1321H27.0811C26.5755 28.1285 26.087 27.948 25.7005 27.622C25.314 27.296 25.0538 26.8449 24.9651 26.3471C24.6531 24.6821 23.7549 23.184 22.4332 22.1244C21.1116 21.0648 19.4541 20.5137 17.7611 20.5712C16.0681 20.6286 14.4517 21.2907 13.2049 22.4375C11.9582 23.5843 11.1635 25.1398 10.9651 26.8221C10.926 27.181 10.7562 27.5129 10.488 27.7545C10.2198 27.9961 9.87207 28.1305 9.51109 28.1321H4.15509C3.85128 28.1326 3.55081 28.0687 3.27345 27.9447C2.99609 27.8207 2.74813 27.6394 2.54588 27.4127C2.34363 27.186 2.19168 26.919 2.10002 26.6293C2.00837 26.3397 1.97908 26.0339 2.01409 25.7321C2.48292 21.8221 4.36857 18.2194 7.3143 15.6058C10.26 12.9922 14.0615 11.5488 17.9996 11.5488C21.9377 11.5488 25.7392 12.9922 28.6849 15.6058C31.6306 18.2194 33.5163 21.8221 33.9851 25.7321C34.02 26.0319 33.9912 26.3357 33.9003 26.6235C33.8095 26.9113 33.6588 27.1767 33.4581 27.4021C33.2555 27.6301 33.0069 27.8125 32.7287 27.9375C32.4506 28.0624 32.1491 28.1271 31.8441 28.1271M18.0001 19.5811C19.8823 19.5801 21.7054 20.2381 23.153 21.441C24.6006 22.6438 25.5814 24.3156 25.9251 26.1661C25.9723 26.4398 26.1139 26.6883 26.3252 26.8684C26.5366 27.0485 26.8044 27.1489 27.0821 27.1521H31.8451C32.0125 27.1518 32.1779 27.116 32.3305 27.047C32.483 26.9781 32.6192 26.8776 32.7301 26.7521C32.8401 26.6301 32.9227 26.4859 32.9722 26.3293C33.0217 26.1726 33.037 26.0072 33.0171 25.8441C32.5787 22.1696 30.8082 18.7833 28.0408 16.3264C25.2734 13.8696 21.7012 12.5127 18.0006 12.5127C14.3 12.5127 10.7278 13.8696 7.96041 16.3264C5.19301 18.7833 3.4225 22.1696 2.98409 25.8441C2.96405 26.0072 2.9793 26.1727 3.02882 26.3293C3.07833 26.486 3.16096 26.6302 3.27109 26.7521C3.38175 26.8775 3.51777 26.978 3.67016 27.047C3.82255 27.116 3.98783 27.1518 4.15509 27.1521H9.51109C9.63213 27.1497 9.74808 27.103 9.83693 27.0208C9.92578 26.9386 9.98135 26.8266 9.99309 26.7061C10.2208 24.7429 11.1626 22.9319 12.6391 21.6181C14.1156 20.3042 16.0237 19.5792 18.0001 19.5811Z" fill="#111111"/>
<path d="M17.653 7.77921L14.991 22.4892C14.8938 23.0262 15.0132 23.5799 15.323 24.0292L17.709 27.4892C17.7415 27.5362 17.7849 27.5747 17.8355 27.6012C17.8861 27.6278 17.9424 27.6417 17.9995 27.6417C18.0567 27.6417 18.113 27.6278 18.1636 27.6012C18.2142 27.5747 18.2576 27.5362 18.29 27.4892L20.673 24.0312C20.9836 23.5815 21.1036 23.0271 21.007 22.4892L18.348 7.77921C18.3335 7.69765 18.2907 7.6238 18.2271 7.57062C18.1636 7.51743 18.0834 7.48828 18.0005 7.48828C17.9177 7.48828 17.8374 7.51743 17.7739 7.57062C17.7104 7.6238 17.6676 7.69765 17.653 7.77921Z" fill="white"/>
<path d="M18.0042 28.1279C17.868 28.128 17.7339 28.095 17.6134 28.0318C17.4928 27.9685 17.3895 27.8769 17.3122 27.7649L14.9242 24.3059C14.734 24.0318 14.5997 23.7229 14.5292 23.3969C14.4587 23.0708 14.4532 22.7341 14.5131 22.4059L17.1721 7.69189C17.2073 7.49804 17.3094 7.32268 17.4606 7.19641C17.6119 7.07014 17.8026 7.00098 17.9997 7.00098C18.1967 7.00098 18.3874 7.07014 18.5387 7.19641C18.6899 7.32268 18.792 7.49804 18.8272 7.69189L21.4862 22.4009C21.546 22.7291 21.5405 23.0658 21.47 23.3919C21.3995 23.7179 21.2653 24.0268 21.0752 24.3009L18.6922 27.7589C18.6149 27.8709 18.5115 27.9625 18.3909 28.0258C18.2704 28.089 18.1363 28.122 18.0002 28.1219M18.0042 8.60089L15.4732 22.5759C15.436 22.7791 15.4392 22.9877 15.4828 23.1897C15.5264 23.3917 15.6094 23.5831 15.7271 23.7529L18.0002 27.0529L20.2731 23.7529C20.3909 23.5831 20.4739 23.3917 20.5175 23.1897C20.5611 22.9877 20.5643 22.7791 20.5271 22.5759L18.0042 8.60089Z" fill="#111111"/>
</svg>
