<svg width="36" height="36" viewBox="0 0 36 36" fill="none" xmlns="http://www.w3.org/2000/svg">
<path d="M30.2662 33.0167H5.7332C4.88451 33.0167 4.07058 32.6795 3.47046 32.0794C2.87034 31.4793 2.5332 30.6654 2.5332 29.8167V13.5967H33.4662V29.8167C33.4662 30.2369 33.3834 30.653 33.2226 31.0413C33.0618 31.4295 32.8261 31.7823 32.5289 32.0794C32.2318 32.3766 31.879 32.6123 31.4908 32.7731C31.1025 32.9339 30.6864 33.0167 30.2662 33.0167Z" fill="white"/>
<path d="M30.267 33.5515H5.733C4.74335 33.5501 3.79462 33.1564 3.09483 32.4566C2.39504 31.7568 2.00132 30.8081 2 29.8185V13.0645H34V29.8185C33.9987 30.8081 33.605 31.7568 32.9052 32.4566C32.2054 33.1564 31.2566 33.5501 30.267 33.5515ZM3.067 14.1315V29.8185C3.06806 30.5252 3.34928 31.2027 3.84902 31.7024C4.34876 32.2022 5.02626 32.4834 5.733 32.4845H30.267C30.9741 32.4837 31.652 32.2024 32.152 31.7024C32.652 31.2024 32.9332 30.5245 32.934 29.8175V14.1315H3.067Z" fill="#111111"/>
<path d="M5.7332 6.13086H30.2662C31.1149 6.13086 31.9288 6.468 32.5289 7.06812C33.1291 7.66823 33.4662 8.48217 33.4662 9.33086V13.5979H2.5332V9.33086C2.5332 8.48217 2.87034 7.66823 3.47046 7.06812C4.07058 6.468 4.88451 6.13086 5.7332 6.13086Z" fill="#B9B5EF"/>
<path d="M34 14.1267H2V9.32668C2.00212 8.33755 2.39619 7.38959 3.09589 6.69045C3.79559 5.99131 4.74387 5.598 5.733 5.59668H30.267C31.2561 5.598 32.2044 5.99131 32.9041 6.69045C33.6038 7.38959 33.9979 8.33755 34 9.32668V14.1267ZM3.067 13.0637H32.933V9.32668C32.9322 8.61959 32.651 7.94169 32.151 7.4417C31.651 6.94172 30.9731 6.66047 30.266 6.65968H5.733C5.02608 6.66074 4.34844 6.9421 3.84867 7.44206C3.3489 7.94201 3.06779 8.61976 3.067 9.32668V13.0637Z" fill="#111111"/>
<path d="M10.2669 9.93344C10.0217 9.93344 9.77896 9.88515 9.55244 9.79132C9.32593 9.6975 9.12011 9.55998 8.94675 9.38661C8.77338 9.21324 8.63586 9.00742 8.54203 8.78091C8.44821 8.5544 8.39991 8.31162 8.39991 8.06644V5.40044C8.39416 5.15169 8.43818 4.9043 8.52939 4.67281C8.6206 4.44132 8.75717 4.23039 8.93106 4.05243C9.10495 3.87447 9.31266 3.73306 9.54198 3.63651C9.7713 3.53997 10.0176 3.49023 10.2664 3.49023C10.5152 3.49023 10.7615 3.53997 10.9909 3.63651C11.2202 3.73306 11.4279 3.87447 11.6018 4.05243C11.7757 4.23039 11.9122 4.44132 12.0034 4.67281C12.0947 4.9043 12.1387 5.15169 12.1329 5.40044V8.06644C12.1329 8.56143 11.9363 9.03615 11.5864 9.38626C11.2365 9.73636 10.7619 9.93318 10.2669 9.93344Z" fill="white"/>
<path d="M10.2672 10.467C9.63067 10.467 9.02022 10.2141 8.57013 9.76406C8.12004 9.31397 7.86719 8.70352 7.86719 8.067V5.4C7.86719 4.76348 8.12004 4.15303 8.57013 3.70294C9.02022 3.25286 9.63067 3 10.2672 3C10.9037 3 11.5142 3.25286 11.9642 3.70294C12.4143 4.15303 12.6672 4.76348 12.6672 5.4V8.067C12.6672 8.70352 12.4143 9.31397 11.9642 9.76406C11.5142 10.2141 10.9037 10.467 10.2672 10.467ZM10.2672 4.067C9.91382 4.06753 9.57507 4.20814 9.3252 4.45801C9.07533 4.70788 8.93472 5.04663 8.93419 5.4V8.067C8.93419 8.24212 8.96868 8.41552 9.03569 8.57731C9.10271 8.7391 9.20093 8.8861 9.32476 9.00993C9.44859 9.13375 9.59559 9.23198 9.75738 9.29899C9.91917 9.36601 10.0926 9.4005 10.2677 9.4005C10.4428 9.4005 10.6162 9.36601 10.778 9.29899C10.9398 9.23198 11.0868 9.13375 11.2106 9.00993C11.3344 8.8861 11.4327 8.7391 11.4997 8.57731C11.5667 8.41552 11.6012 8.24212 11.6012 8.067V5.4C11.6007 5.04646 11.4599 4.70756 11.2098 4.45766C10.9597 4.20776 10.6207 4.06726 10.2672 4.067Z" fill="#111111"/>
<path d="M25.7342 9.93297C25.239 9.93297 24.7642 9.73627 24.414 9.38613C24.0639 9.036 23.8672 8.56113 23.8672 8.06597V5.39997C23.8785 4.91242 24.0801 4.44864 24.4289 4.10782C24.7777 3.76699 25.246 3.57617 25.7337 3.57617C26.2214 3.57617 26.6897 3.76699 27.0385 4.10782C27.3873 4.44864 27.5889 4.91242 27.6002 5.39997V8.06597C27.6002 8.56095 27.4036 9.03568 27.0537 9.38578C26.7038 9.73588 26.2292 9.9327 25.7342 9.93297Z" fill="white"/>
<path d="M25.733 10.467C25.0965 10.467 24.486 10.2141 24.0359 9.76406C23.5859 9.31397 23.333 8.70352 23.333 8.067V5.4C23.333 4.76348 23.5859 4.15303 24.0359 3.70294C24.486 3.25286 25.0965 3 25.733 3C26.3695 3 26.98 3.25286 27.4301 3.70294C27.8802 4.15303 28.133 4.76348 28.133 5.4V8.067C28.133 8.70352 27.8802 9.31397 27.4301 9.76406C26.98 10.2141 26.3695 10.467 25.733 10.467ZM25.733 4.067C25.3796 4.06753 25.0409 4.20814 24.791 4.45801C24.5411 4.70788 24.4005 5.04663 24.4 5.4V8.067C24.4 8.42067 24.5405 8.75985 24.7906 9.00993C25.0407 9.26001 25.3798 9.4005 25.7335 9.4005C26.0872 9.4005 26.4264 9.26001 26.6764 9.00993C26.9265 8.75985 27.067 8.42067 27.067 8.067V5.4C27.0665 5.04646 26.9257 4.70756 26.6756 4.45766C26.4256 4.20776 26.0866 4.06726 25.733 4.067Z" fill="#111111"/>
<path d="M8.14144 19.7265C8.39103 19.7255 8.63995 19.7526 8.88344 19.8075C9.10351 19.8552 9.31776 19.9266 9.52244 20.0205L9.29444 20.9445C9.11952 20.8687 8.93898 20.8065 8.75444 20.7585C8.5553 20.7113 8.35109 20.6888 8.14644 20.6915C7.92212 20.6851 7.69956 20.7328 7.49751 20.8304C7.29546 20.928 7.11983 21.0728 6.98544 21.2525C6.67253 21.692 6.5181 22.2248 6.54744 22.7635V22.7985C6.74863 22.6154 6.98325 22.4728 7.23844 22.3785C7.51466 22.2768 7.80711 22.2263 8.10144 22.2295C8.39068 22.2171 8.67887 22.2716 8.94357 22.3889C9.20826 22.5061 9.4423 22.6829 9.62744 22.9055C10.0057 23.4203 10.2028 24.0459 10.188 24.6845C10.1731 25.3231 9.94719 25.9389 9.54544 26.4355C9.33267 26.6691 9.07149 26.8535 8.78012 26.9758C8.48875 27.0981 8.17421 27.1553 7.85844 27.1435C7.51943 27.1523 7.18257 27.0871 6.87134 26.9524C6.56012 26.8177 6.28202 26.6167 6.05644 26.3635C5.55521 25.7605 5.30273 24.9892 5.35044 24.2065V22.8335C5.31105 22.0063 5.59632 21.1964 6.14544 20.5765C6.39829 20.2996 6.70775 20.0802 7.05284 19.9334C7.39792 19.7865 7.77055 19.7157 8.14544 19.7255M7.80444 23.1635C7.538 23.1555 7.27345 23.2106 7.03244 23.3245C6.83268 23.4214 6.6645 23.5729 6.54744 23.7615V24.2755C6.51614 24.7726 6.64551 25.2666 6.91644 25.6845C7.02078 25.8379 7.16132 25.9632 7.32562 26.0494C7.48992 26.1356 7.67292 26.1799 7.85844 26.1785C8.02341 26.1821 8.18643 26.1424 8.33133 26.0635C8.47623 25.9845 8.59796 25.869 8.68444 25.7285C8.89355 25.3981 8.99811 25.0123 8.98444 24.6215C9.00329 24.2432 8.89213 23.8699 8.66944 23.5635C8.56742 23.4326 8.43559 23.3281 8.28495 23.2585C8.13431 23.1889 7.97022 23.1563 7.80444 23.1635Z" fill="#111111"/>
<path d="M14.1787 20.3213C14.2478 21.3894 14.0084 22.4548 13.4889 23.3906C12.9694 24.3264 12.1918 25.0931 11.2487 25.5993L10.7207 24.9573C11.453 24.5902 12.0754 24.0362 12.5249 23.3514C12.9744 22.6666 13.2351 21.8752 13.2807 21.0573H11.0547V20.3213H14.1787ZM17.5217 19.3213V27.2663H16.6597V23.1663H15.7537V26.8963H14.8997V19.5303H15.7527V22.4213H16.6587V19.3213H17.5217Z" fill="#111111"/>
<path d="M20.8937 22.8463C20.2077 22.8733 19.5477 22.8733 18.9497 22.8733L18.8438 22.2223C20.3748 22.2223 22.2927 22.2133 23.9727 22.0383L24.0347 22.6093C23.3037 22.7153 22.5478 22.7763 21.8088 22.8093V23.9793H20.8937V22.8463ZM19.4157 20.6463C19.4157 19.9163 20.2067 19.4593 21.3947 19.4593C22.5827 19.4593 23.3617 19.9203 23.3617 20.6483C23.3617 21.3763 22.5708 21.8363 21.3908 21.8363C20.2108 21.8363 19.4118 21.3783 19.4118 20.6483M25.6667 26.5483V27.1913H20.0317V25.3913H24.5448V24.8623H20.0137V24.2383H25.4417V25.9703H20.9287V26.5503L25.6667 26.5483ZM20.2668 20.6483C20.2668 21.0173 20.7067 21.2293 21.3927 21.2293C22.0787 21.2293 22.5098 21.0173 22.5098 20.6483C22.5098 20.2793 22.0697 20.0673 21.3927 20.0673C20.7157 20.0673 20.2668 20.2783 20.2668 20.6483ZM24.5337 23.0483V19.3203H25.4398V23.9563H24.5337V23.6133H23.0337V23.0503L24.5337 23.0483Z" fill="#111111"/>
<path d="M29.0066 26.8561C28.8653 26.8561 28.7297 26.8 28.6297 26.7C28.5298 26.6001 28.4736 26.4645 28.4736 26.3231V19.9231C28.4736 19.7817 28.5298 19.646 28.6299 19.5459C28.7299 19.4459 28.8656 19.3896 29.0071 19.3896C29.1486 19.3896 29.2843 19.4459 29.3844 19.5459C29.4844 19.646 29.5406 19.7817 29.5406 19.9231V26.3231C29.5406 26.4645 29.4845 26.6001 29.3845 26.7C29.2846 26.8 29.148 26.8561 29.0066 26.8561Z" fill="#111111"/>
<path d="M28.9994 27.7167C28.8594 27.7164 28.7251 27.6611 28.6254 27.5627L26.4614 25.4297C26.4116 25.3805 26.3719 25.322 26.3447 25.2575C26.3175 25.193 26.3032 25.1237 26.3027 25.0537C26.3023 24.9837 26.3156 24.9143 26.342 24.8494C26.3683 24.7846 26.4072 24.7255 26.4564 24.6757C26.5056 24.6259 26.5641 24.5862 26.6286 24.559C26.6931 24.5318 26.7624 24.5175 26.8324 24.517C26.9024 24.5166 26.9718 24.5299 27.0367 24.5563C27.1015 24.5826 27.1606 24.6215 27.2104 24.6707L28.9954 26.4297L30.7224 24.6727C30.8217 24.5719 30.957 24.5147 31.0985 24.5137C31.24 24.5127 31.3761 24.5679 31.4769 24.6672C31.5777 24.7665 31.6349 24.9018 31.6359 25.0433C31.6369 25.1848 31.5817 25.3209 31.4824 25.4217L29.3824 27.5547C29.3333 27.6046 29.2747 27.6443 29.2102 27.6716C29.1457 27.6989 29.0765 27.7132 29.0064 27.7137L28.9994 27.7167Z" fill="#111111"/>
</svg>
