<svg width="36" height="36" viewBox="0 0 36 36" fill="none" xmlns="http://www.w3.org/2000/svg">
<path d="M30.2662 33.0167H5.7332C4.88451 33.0167 4.07058 32.6795 3.47046 32.0794C2.87034 31.4793 2.5332 30.6654 2.5332 29.8167V13.5967H33.4662V29.8167C33.4662 30.2369 33.3834 30.653 33.2226 31.0413C33.0618 31.4295 32.8261 31.7823 32.5289 32.0794C32.2318 32.3766 31.879 32.6123 31.4908 32.7731C31.1025 32.9339 30.6864 33.0167 30.2662 33.0167Z" fill="white"/>
<path d="M30.267 33.5505H5.733C4.74335 33.5492 3.79462 33.1554 3.09483 32.4556C2.39504 31.7559 2.00132 30.8071 2 29.8175V13.0635H34V29.8175C33.9987 30.8071 33.605 31.7559 32.9052 32.4556C32.2054 33.1554 31.2566 33.5492 30.267 33.5505ZM3.067 14.1305V29.8175C3.06779 30.5246 3.34904 31.2025 3.84902 31.7025C4.34901 32.2024 5.02691 32.4837 5.734 32.4845H30.267C30.9741 32.4837 31.652 32.2024 32.152 31.7025C32.652 31.2025 32.9332 30.5246 32.934 29.8175V14.1305H3.067Z" fill="#111111"/>
<path d="M5.7332 6.13086H30.2662C31.1149 6.13086 31.9288 6.468 32.5289 7.06812C33.1291 7.66823 33.4662 8.48217 33.4662 9.33086V13.5979H2.5332V9.33086C2.5332 8.48217 2.87034 7.66823 3.47046 7.06812C4.07058 6.468 4.88451 6.13086 5.7332 6.13086Z" fill="#B9B5EF"/>
<path d="M34 14.1277H2V9.32768C2.00185 8.33838 2.39581 7.39016 3.09554 6.6908C3.79527 5.99145 4.7437 5.598 5.733 5.59668H30.267C31.2563 5.598 32.2047 5.99145 32.9045 6.6908C33.6042 7.39016 33.9981 8.33838 34 9.32768V14.1277ZM3.067 13.0637H32.933V9.32768C32.9322 8.62059 32.651 7.94269 32.151 7.4427C31.651 6.94272 30.9731 6.66147 30.266 6.66068H5.733C5.02608 6.66174 4.34844 6.9431 3.84867 7.44306C3.3489 7.94301 3.06779 8.62076 3.067 9.32768V13.0637Z" fill="#111111"/>
<path d="M10.2669 9.93344C10.0217 9.93344 9.77896 9.88515 9.55244 9.79132C9.32593 9.6975 9.12011 9.55998 8.94675 9.38661C8.77338 9.21324 8.63586 9.00742 8.54203 8.78091C8.44821 8.5544 8.39991 8.31162 8.39991 8.06644V5.40044C8.39416 5.15169 8.43818 4.9043 8.52939 4.67281C8.6206 4.44132 8.75717 4.23039 8.93106 4.05243C9.10495 3.87447 9.31266 3.73306 9.54198 3.63651C9.7713 3.53997 10.0176 3.49023 10.2664 3.49023C10.5152 3.49023 10.7615 3.53997 10.9909 3.63651C11.2202 3.73306 11.4279 3.87447 11.6018 4.05243C11.7757 4.23039 11.9122 4.44132 12.0034 4.67281C12.0947 4.9043 12.1387 5.15169 12.1329 5.40044V8.06644C12.1329 8.56143 11.9363 9.03615 11.5864 9.38626C11.2365 9.73636 10.7619 9.93318 10.2669 9.93344Z" fill="white"/>
<path d="M10.2672 10.467C9.63067 10.467 9.02022 10.2141 8.57013 9.76406C8.12004 9.31397 7.86719 8.70352 7.86719 8.067V5.4C7.86719 4.76348 8.12004 4.15303 8.57013 3.70294C9.02022 3.25286 9.63067 3 10.2672 3C10.9037 3 11.5142 3.25286 11.9642 3.70294C12.4143 4.15303 12.6672 4.76348 12.6672 5.4V8.067C12.6672 8.70352 12.4143 9.31397 11.9642 9.76406C11.5142 10.2141 10.9037 10.467 10.2672 10.467ZM10.2672 4.067C9.91382 4.06753 9.57507 4.20814 9.3252 4.45801C9.07533 4.70788 8.93472 5.04663 8.93419 5.4V8.067C8.93419 8.24212 8.96868 8.41552 9.03569 8.57731C9.10271 8.7391 9.20093 8.8861 9.32476 9.00993C9.44859 9.13375 9.59559 9.23198 9.75738 9.29899C9.91917 9.36601 10.0926 9.4005 10.2677 9.4005C10.4428 9.4005 10.6162 9.36601 10.778 9.29899C10.9398 9.23198 11.0868 9.13375 11.2106 9.00993C11.3344 8.8861 11.4327 8.7391 11.4997 8.57731C11.5667 8.41552 11.6012 8.24212 11.6012 8.067V5.4C11.6007 5.04646 11.4599 4.70756 11.2098 4.45766C10.9597 4.20776 10.6207 4.06726 10.2672 4.067Z" fill="#111111"/>
<path d="M25.7342 9.93297C25.239 9.93297 24.7642 9.73627 24.414 9.38613C24.0639 9.036 23.8672 8.56113 23.8672 8.06597V5.39997C23.8785 4.91242 24.0801 4.44864 24.4289 4.10782C24.7777 3.76699 25.246 3.57617 25.7337 3.57617C26.2214 3.57617 26.6897 3.76699 27.0385 4.10782C27.3873 4.44864 27.5889 4.91242 27.6002 5.39997V8.06597C27.6002 8.56095 27.4036 9.03568 27.0537 9.38578C26.7038 9.73588 26.2292 9.9327 25.7342 9.93297Z" fill="white"/>
<path d="M25.733 10.467C25.0965 10.467 24.486 10.2141 24.0359 9.76406C23.5859 9.31397 23.333 8.70352 23.333 8.067V5.4C23.333 4.76348 23.5859 4.15303 24.0359 3.70294C24.486 3.25286 25.0965 3 25.733 3C26.3695 3 26.98 3.25286 27.4301 3.70294C27.8802 4.15303 28.133 4.76348 28.133 5.4V8.067C28.133 8.70352 27.8802 9.31397 27.4301 9.76406C26.98 10.2141 26.3695 10.467 25.733 10.467ZM25.733 4.067C25.3796 4.06753 25.0409 4.20814 24.791 4.45801C24.5411 4.70788 24.4005 5.04663 24.4 5.4V8.067C24.4 8.42067 24.5405 8.75985 24.7906 9.00993C25.0407 9.26001 25.3798 9.4005 25.7335 9.4005C26.0872 9.4005 26.4264 9.26001 26.6764 9.00993C26.9265 8.75985 27.067 8.42067 27.067 8.067V5.4C27.0665 5.04646 26.9257 4.70756 26.6756 4.45766C26.4256 4.20776 26.0866 4.06726 25.733 4.067Z" fill="#111111"/>
<path d="M10.32 22.889H11.156C11.3088 22.9036 11.4629 22.8853 11.608 22.8352C11.753 22.7852 11.8857 22.7046 11.997 22.599C12.1814 22.3674 12.273 22.0754 12.254 21.78C12.2713 21.4871 12.1717 21.1994 11.977 20.98C11.8673 20.8795 11.7383 20.8025 11.5978 20.7536C11.4573 20.7048 11.3083 20.6852 11.16 20.696C10.8673 20.6837 10.5811 20.7839 10.36 20.976C10.2581 21.0684 10.1776 21.1819 10.1242 21.3087C10.0708 21.4355 10.0458 21.5725 10.051 21.71H8.89498L8.88498 21.681C8.87131 21.4173 8.91995 21.1542 9.02698 20.9128C9.134 20.6715 9.29639 20.4588 9.50098 20.292C9.96064 19.9071 10.5469 19.7068 11.146 19.73C11.7531 19.6983 12.3511 19.8881 12.829 20.264C13.0416 20.4533 13.2085 20.6883 13.3173 20.9514C13.426 21.2145 13.4738 21.4988 13.457 21.783C13.4538 22.1014 13.3556 22.4116 13.175 22.674C12.9781 22.9692 12.7004 23.2014 12.375 23.343C12.7407 23.4564 13.0577 23.6896 13.275 24.005C13.4696 24.3069 13.5705 24.6597 13.565 25.019C13.5787 25.3131 13.5245 25.6065 13.4066 25.8763C13.2886 26.1462 13.1102 26.3852 12.885 26.575C12.3915 26.966 11.7741 27.1672 11.145 27.142C10.5407 27.1616 9.94782 26.9739 9.46498 26.61C9.24289 26.4379 9.06716 26.2132 8.95367 25.9562C8.84019 25.6992 8.79252 25.418 8.81498 25.138L8.82498 25.108H9.98298C9.97745 25.2526 10.0034 25.3967 10.059 25.5303C10.1146 25.664 10.1985 25.7839 10.305 25.882C10.5416 26.087 10.8483 26.1927 11.161 26.177C11.4825 26.1954 11.7985 26.0877 12.042 25.877C12.1529 25.7654 12.2389 25.6316 12.2944 25.4844C12.3499 25.3372 12.3736 25.18 12.364 25.023C12.378 24.8608 12.3591 24.6975 12.3084 24.5428C12.2578 24.3882 12.1763 24.2453 12.069 24.123C11.8147 23.91 11.4865 23.8062 11.156 23.834H10.32V22.889Z" fill="#111111"/>
<path d="M18.7372 23.7973C17.5928 23.9953 16.4325 24.0867 15.2712 24.0703H14.6562V19.8703H15.5623V23.3203C16.597 23.3208 17.6298 23.2321 18.6493 23.0553L18.7372 23.7973ZM20.9893 26.3753V27.1143H15.6273V24.6683H16.5333V26.3753H20.9893ZM19.8813 22.5133H17.7692V21.7913H19.8802V21.0083H17.7692V20.2863H19.8802V19.3203H20.7862V25.1883H19.8802L19.8813 22.5133Z" fill="#111111"/>
<path d="M25.4378 27.7175C25.3678 27.7175 25.2985 27.7037 25.2338 27.6769C25.1691 27.6501 25.1104 27.6109 25.0609 27.5614C25.0114 27.5119 24.9721 27.4531 24.9454 27.3884C24.9186 27.3238 24.9048 27.2545 24.9048 27.1845V20.7845C24.9048 20.643 24.961 20.5073 25.061 20.4072C25.1611 20.3072 25.2968 20.251 25.4383 20.251C25.5798 20.251 25.7155 20.3072 25.8155 20.4072C25.9156 20.5073 25.9718 20.643 25.9718 20.7845V27.1845C25.9718 27.2545 25.958 27.3238 25.9312 27.3884C25.9044 27.4531 25.8652 27.5119 25.8157 27.5614C25.7662 27.6109 25.7074 27.6501 25.6428 27.6769C25.5781 27.7037 25.5078 27.7175 25.4378 27.7175Z" fill="#111111"/>
<path d="M23.3428 22.5916C23.2375 22.5918 23.1345 22.5609 23.0468 22.5027C22.9591 22.4444 22.8906 22.3615 22.8499 22.2644C22.8093 22.1672 22.7983 22.0602 22.8184 21.9569C22.8385 21.8535 22.8887 21.7584 22.9628 21.6836L25.0628 19.5506C25.1622 19.4499 25.2974 19.3927 25.4388 19.3916C25.5795 19.3961 25.7139 19.4507 25.8178 19.5456L27.9818 21.6786C28.0825 21.7779 28.1396 21.9132 28.1405 22.0546C28.1414 22.196 28.0862 22.332 27.9868 22.4326C27.8875 22.5333 27.7523 22.5903 27.6109 22.5913C27.4695 22.5922 27.3335 22.5369 27.2328 22.4376L25.4478 20.6786L23.7198 22.4326C23.6702 22.483 23.6111 22.5231 23.5458 22.5504C23.4806 22.5777 23.4106 22.5917 23.3398 22.5916" fill="#111111"/>
</svg>
