<svg width="56" height="56" viewBox="0 0 56 56" fill="none" xmlns="http://www.w3.org/2000/svg">
<g clip-path="url(#clip0_266_62116)">
<path d="M0 28C0 29.638 0 29.834 0.0420105 31.234C0.0980245 34.776 0.658165 38.276 1.72243 41.65C2.63266 44.338 4.04701 46.83 5.89545 48.972C8.12205 51.366 10.9088 53.172 14.0035 54.236C17.1963 55.342 20.6551 55.86 27.3769 56H28.6231C35.3448 55.86 38.8037 55.328 41.9965 54.236C45.0912 53.172 47.8779 51.366 50.1045 48.972C51.953 46.816 53.3815 44.338 54.2775 41.65C55.342 38.276 55.916 34.776 55.958 31.234C56 29.848 56 29.652 56 28.014C56 26.376 56 26.18 55.958 24.794C55.916 21.252 55.342 17.752 54.2775 14.378C53.3675 11.69 51.953 9.198 50.1045 7.042C47.8779 4.648 45.0912 2.842 41.9965 1.778C38.8037 0.672 35.3448 0.14 28.6231 0H27.3769C20.6551 0.14 17.1963 0.672 14.0035 1.764C10.9088 2.828 8.12205 4.634 5.89545 7.028C4.04701 9.184 2.61865 11.662 1.72243 14.364C0.658165 17.724 0.0980245 21.238 0.0420105 24.78C0 26.166 0 26.362 0 28Z" fill="#00448D"/>
<path d="M33.2598 30.8635H36.0477L43.0022 24.6719H33.2598V30.8635Z" fill="#D5B55D"/>
<path d="M31.3952 13.125L25.2285 18.6169V22.8004H31.3952V13.125Z" fill="#D5B55D"/>
<path d="M19.9565 24.6719L13.002 30.8483H25.2292V43.1252L31.3959 37.6485V24.6719H19.9414H19.9565Z" fill="white"/>
</g>
<defs>
<clipPath id="clip0_266_62116">
<rect width="56" height="56" fill="white"/>
</clipPath>
</defs>
</svg>
