<svg width="40" height="40" viewBox="0 0 40 40" fill="none" xmlns="http://www.w3.org/2000/svg">
<g clip-path="url(#clip0_266_61420)">
<path d="M0 20C0 21.1776 0 21.3084 0.0280636 22.3084C0.1029 24.5234 0.336763 27.0654 1.22544 29.7476C1.8522 31.6449 3.03087 33.6916 4.20954 34.9813C5.70625 36.6261 7.77361 37.9718 10.0094 38.7382C12.2919 39.5232 14.7615 39.9064 19.5603 40H20.449C25.2573 39.8971 27.7175 39.5232 30 38.7382C32.2357 37.9718 34.2937 36.6261 35.7904 34.9813C36.9693 33.6823 38.1479 31.6449 38.7746 29.7476C39.6632 27.0654 39.9064 24.514 39.9718 22.3084C40 21.3178 40 21.1776 40 20C40 18.8224 40 18.6916 39.9718 17.6916C39.8971 15.4766 39.6632 12.9346 38.7746 10.2523C38.1479 8.35514 36.9693 6.30839 35.7904 5.01868C34.2937 3.37383 32.2264 2.02804 30 1.26168C27.7175 0.476636 25.2479 0.0934579 20.449 0H19.5603C14.7521 0.102804 12.2919 0.476636 10.0094 1.26168C7.77361 2.02804 5.71561 3.37383 4.20954 5.01868C3.03087 6.31775 1.8522 8.35514 1.22544 10.2523C0.346118 12.9346 0.1029 15.4766 0.0280636 17.6916C0 18.6823 0 18.8224 0 20Z" fill="#0062B5"/>
<path d="M31.2699 14.9299H29.7099V18.9571H23.3199V14.9299H21.7599C21.3599 14.9699 21.0599 15.3196 21.0899 15.7294V24.2434C21.0599 24.6531 21.3599 25.0028 21.7599 25.0428H23.3199V20.7059H29.7099V25.0328H31.2699C31.6799 24.9928 31.9699 24.6431 31.9399 24.2334V15.7194C31.9699 15.3096 31.6699 14.9599 31.2699 14.9199" fill="white"/>
<path d="M18.4801 14.9297H16.9201V22.6743L12.2201 16.4886C11.4401 15.5892 10.9001 14.9297 9.65011 14.9297H8.06011V24.2432C8.03011 24.6529 8.33011 25.0026 8.73011 25.0426H10.2901V17.258L15.0201 23.4037C15.8201 24.3231 16.5301 25.0426 17.6901 25.0426H19.1501V15.7291C19.1801 15.3194 18.8801 14.9697 18.4801 14.9297Z" fill="white"/>
</g>
<defs>
<clipPath id="clip0_266_61420">
<rect width="40" height="40" fill="white"/>
</clipPath>
</defs>
</svg>
