<svg width="56" height="56" viewBox="0 0 56 56" fill="none" xmlns="http://www.w3.org/2000/svg">
<g clip-path="url(#clip0_266_61949)">
<path d="M0 28C0 29.6486 0 29.8318 0.039289 31.2318C0.14406 34.3327 0.471469 37.8916 1.71562 41.6467C2.59308 44.3028 4.24322 47.1682 5.89335 48.9739C7.9888 51.2765 10.883 53.1605 14.0131 54.2335C17.2086 55.3325 20.666 55.869 27.3845 56H28.6287C35.3601 55.856 38.8045 55.3325 42 54.2335C45.1301 53.1605 48.0112 51.2765 50.1065 48.9739C51.757 47.1552 53.407 44.3028 54.2845 41.6467C55.5285 37.8916 55.869 34.3196 55.9605 31.2318C56 29.8449 56 29.6486 56 28C56 26.3514 56 26.1682 55.9605 24.7682C55.856 21.6673 55.5285 18.1084 54.2845 14.3532C53.407 11.6972 51.757 8.83175 50.1065 7.02615C48.0112 4.72337 45.117 2.83925 42 1.76636C38.8045 0.66729 35.347 0.130841 28.6287 0H27.3845C20.653 0.143925 17.2086 0.66729 14.0131 1.76636C10.883 2.83925 8.00185 4.72337 5.89335 7.02615C4.24322 8.84485 2.59308 11.6972 1.71562 14.3532C0.484565 18.1084 0.14406 21.6673 0.039289 24.7682C0 26.1551 0 26.3514 0 28Z" fill="#003D76"/>
<path d="M13.5 21.0146V45.75H20.6278V35.9701L27.2847 45.75H35.8265L26.4595 31.9889H20.6278V21.0146H13.5Z" fill="white"/>
<mask id="mask0_266_61949" style="mask-type:luminance" maskUnits="userSpaceOnUse" x="13" y="10" width="30" height="36">
<path d="M42.5 10.75H13.5V45.75H42.5V10.75Z" fill="white"/>
</mask>
<g mask="url(#mask0_266_61949)">
<path d="M38.1415 33.969L42.5003 10.75L19.7801 18.2357C22.7103 19.0063 25.5252 20.1596 28.1514 21.6657L19.0015 32.0414L24.3805 36.65L33.5305 26.2752C35.4059 28.6231 36.9568 31.2107 38.1415 33.969Z" fill="#E4007F"/>
</g>
</g>
<defs>
<clipPath id="clip0_266_61949">
<rect width="56" height="56" fill="white"/>
</clipPath>
</defs>
</svg>
