<svg width="24" height="24" viewBox="0 0 24 24" fill="none" xmlns="http://www.w3.org/2000/svg">
<g clip-path="url(#clip0_266_60705)">
<path d="M0 12C0 12.7065 0 12.785 0.0168382 13.385C0.06174 14.714 0.202058 16.2393 0.735266 17.8486C1.11132 18.9869 1.81852 20.2149 2.52572 20.9888C3.42377 21.9756 4.66416 22.7831 6.00561 23.2429C7.37511 23.7139 8.85688 23.9439 11.7362 24H12.2694C15.1544 23.9383 16.6305 23.7139 18 23.2429C19.3414 22.7831 20.5763 21.9756 21.4742 20.9888C22.1816 20.2094 22.8887 18.9869 23.2648 17.8486C23.7979 16.2393 23.9439 14.7084 23.9831 13.385C24 12.7907 24 12.7065 24 12C24 11.2935 24 11.2149 23.9831 10.6149C23.9383 9.28599 23.7979 7.76074 23.2648 6.15139C22.8887 5.01309 22.1816 3.78504 21.4742 3.01121C20.5763 2.0243 19.3358 1.21682 18 0.757009C16.6305 0.285981 15.1487 0.0560747 12.2694 0H11.7362C8.85126 0.0616821 7.37511 0.285981 6.00561 0.757009C4.66416 1.21682 3.42936 2.0243 2.52572 3.01121C1.81852 3.79065 1.11132 5.01309 0.735266 6.15139C0.207671 7.76074 0.06174 9.28599 0.0168382 10.6149C0 11.2093 0 11.2935 0 12Z" fill="#48AF36"/>
<mask id="mask0_266_60705" style="mask-type:luminance" maskUnits="userSpaceOnUse" x="5" y="6" width="14" height="12">
<path d="M18.4286 6.85693H5.57144V17.1426H18.4286V6.85693Z" fill="white"/>
</mask>
<g mask="url(#mask0_266_60705)">
<path d="M17.9598 9.25648C17.2902 8.57568 16.1797 8.69287 15.5268 9.38484C14.673 10.2777 14.0145 10.6125 13.2277 10.579C12.1284 10.5288 11.5815 9.6806 11.0179 8.60358C10.4319 7.48194 9.52791 6.85693 8.40068 6.85693C6.63171 6.85693 5.57144 8.29108 5.57144 9.88706C5.57144 12.348 7.30135 13.8156 8.49554 14.4351C9.48884 14.954 10.5938 15.1717 11.5815 15.194C11.5257 15.7799 11.3527 16.5556 11.1574 17.108H13.183C12.9821 16.5556 12.8092 15.7185 12.7534 15.127C15.7165 14.742 17.1284 13.3971 17.8984 12.1136C18.2444 11.55 18.4286 10.9641 18.4286 10.4395C18.4286 9.98193 18.2779 9.56341 17.9598 9.24532M8.41741 10.7855C7.84266 10.819 7.35158 10.3893 7.31251 9.81453C7.27902 9.24532 7.70873 8.74867 8.28348 8.7152C8.85269 8.67613 9.34377 9.11698 9.37724 9.68617C9.41631 10.2554 8.98105 10.752 8.41184 10.7855" fill="white"/>
</g>
</g>
<defs>
<clipPath id="clip0_266_60705">
<rect width="24" height="24" fill="white"/>
</clipPath>
</defs>
</svg>
