<svg width="40" height="40" viewBox="0 0 40 40" fill="none" xmlns="http://www.w3.org/2000/svg">
<g clip-path="url(#clip0_266_61514)">
<path d="M0 20C0 21.1776 0 21.3084 0.0280636 22.3084C0.1029 24.5234 0.336763 27.0654 1.22544 29.7476C1.8522 31.6449 3.03087 33.6916 4.20954 34.9813C5.70629 36.6261 7.77361 37.9718 10.0094 38.7382C12.2919 39.5232 14.7615 39.9064 19.5603 40H20.449C25.2573 39.8971 27.7175 39.5232 30 38.7382C32.2358 37.9718 34.2938 36.6261 35.7904 34.9813C36.9693 33.6823 38.1479 31.6449 38.7746 29.7476C39.6632 27.0654 39.9064 24.514 39.9718 22.3084C40 21.3178 40 21.1776 40 20C40 18.8224 40 18.6916 39.9718 17.6916C39.8971 15.4766 39.6632 12.9346 38.7746 10.2523C38.1479 8.35514 36.9693 6.30839 35.7904 5.01868C34.2938 3.37383 32.2264 2.02804 30 1.26168C27.7175 0.476636 25.2479 0.0934579 20.449 0H19.5603C14.7521 0.102804 12.2919 0.476636 10.0094 1.26168C7.77361 2.02804 5.71561 3.37383 4.20954 5.01868C3.03087 6.31775 1.8522 8.35514 1.22544 10.2523C0.346118 12.9346 0.1029 15.4766 0.0280636 17.6916C0 18.6823 0 18.8224 0 20Z" fill="#D80029"/>
<mask id="mask0_266_61514" style="mask-type:luminance" maskUnits="userSpaceOnUse" x="5" y="8" width="30" height="24">
<path d="M35 8.21387H5V31.9639H35V8.21387Z" fill="white"/>
</mask>
<g mask="url(#mask0_266_61514)">
<path d="M9.41375 25.6445C8.57936 25.2495 7.89436 24.9308 7.89436 24.2858C7.89436 23.7926 8.28375 23.4339 9.05436 23.4339C9.30775 23.4357 9.56039 23.4618 9.80875 23.512C9.93057 23.5355 10.0541 23.549 10.1781 23.5526C10.8506 23.5526 11.2306 23.1464 11.4831 22.3764L11.5881 22.0639C10.7515 21.7145 9.85471 21.532 8.94811 21.5264C6.6675 21.5264 5.46436 23.0089 5.46436 24.5439C5.442 25.1921 5.66118 25.8256 6.07936 26.3214C6.59404 26.8591 7.212 27.2872 7.89625 27.5801C8.83375 28.0464 9.68311 28.3926 9.68311 29.0801C9.68311 29.6933 9.05811 30.042 8.22 30.042C7.4075 30.0028 6.62046 29.7459 5.94125 29.2983L5 31.0889C6.02354 31.6844 7.19107 31.9871 8.375 31.9639C10.5 31.9639 12.1144 30.7283 12.1144 28.8283C12.1144 26.9383 10.6213 26.2376 9.41125 25.6445" fill="white"/>
<path d="M17.7382 26.5261L21.5982 21.7373H18.8482L15.7688 25.8704H15.7232V21.7379H13.4563V31.8829H13.5913C13.8777 31.9118 14.1669 31.8772 14.4384 31.7816C14.7098 31.6859 14.9569 31.5316 15.1619 31.3296C15.3669 31.1276 15.5248 30.8828 15.6244 30.6128C15.724 30.3427 15.7629 30.0541 15.7382 29.7673V27.4379H15.7838L18.9219 31.7561H21.8069L17.7382 26.5261Z" fill="white"/>
<path d="M21.727 10.8707C21.1995 10.9577 20.717 11.2207 20.358 11.6169C19.9991 12.0131 19.7848 12.5191 19.7501 13.0526C19.7501 14.2301 20.7045 14.9439 20.707 16.4857C20.7137 16.9616 20.5961 17.4309 20.3659 17.8474C20.1357 18.2639 19.8009 18.6132 19.3945 18.8607C19.6708 18.8357 19.9739 18.8201 20.3064 18.8189C20.6895 18.8132 21.0725 18.8366 21.452 18.8889L25.0326 14.4426C24.1325 13.0797 23.0157 11.8729 21.7264 10.8701" fill="white"/>
<path d="M24.7345 22.8767C25.1857 22.1667 25.2426 21.0355 25.2807 19.8824C25.3232 18.8074 25.5445 17.9986 26.9682 17.993C27.2807 17.993 27.5832 18.0361 28.1263 18.0342C29.6391 18.0283 31.1214 17.6098 32.4138 16.8236C30.2106 15.3861 27.663 14.5639 25.0351 14.4424C24.8307 15.0242 23.2457 19.4855 23.1257 19.8455C23.3699 20.141 23.585 20.4594 23.7682 20.7961C24.1651 21.4525 24.4897 22.1498 24.7363 22.8761" fill="white"/>
<path d="M17.1713 19.2332C16.9901 19.2332 16.9007 19.1126 16.8757 18.9014C16.8507 18.6901 15.9569 10.4014 15.8238 9.14764C15.8044 8.96449 15.7613 8.62764 15.7613 8.50764C15.7575 8.47021 15.7617 8.43246 15.7735 8.39678C15.7853 8.3611 15.8046 8.32832 15.8299 8.30057C15.8553 8.27285 15.8862 8.25078 15.9207 8.23585C15.9552 8.22089 15.9925 8.21342 16.0301 8.21389C17.9124 8.56599 19.6879 9.34867 21.2176 10.5007C20.6624 10.6441 20.1689 10.9642 19.8117 11.4127C19.4546 11.8612 19.253 12.4138 19.2376 12.987C19.2419 14.3507 20.2069 15.1014 20.2119 16.4695C20.2194 18.6945 17.6919 19.2326 17.1688 19.2332" fill="white"/>
<path d="M24.9376 23.4688C24.9675 23.5551 25.0047 23.6388 25.0488 23.7188C25.0686 23.7607 25.0998 23.7961 25.1388 23.821C25.1779 23.8458 25.2231 23.8592 25.2694 23.8594C25.3405 23.8548 25.41 23.8361 25.4738 23.8044C25.6613 23.7163 33.1401 20.1944 34.2676 19.6682C34.4313 19.5888 34.7413 19.4488 34.8432 19.3882C34.8888 19.3662 34.9275 19.3322 34.9552 19.2898C34.9828 19.2474 34.9983 19.1982 35.0001 19.1476C34.9993 19.0952 34.9844 19.044 34.9569 18.9994C34.3637 18.2791 33.6645 17.653 32.8832 17.1426C31.4725 18.0157 29.8514 18.4899 28.1926 18.5144C27.6463 18.5144 27.5226 18.4782 27.1488 18.4794C26.0601 18.4832 25.7882 18.9544 25.7482 19.9207C25.7413 20.1032 25.7382 20.3488 25.7276 20.6182C25.7658 21.6273 25.4898 22.6234 24.9376 23.4688Z" fill="white"/>
</g>
</g>
<defs>
<clipPath id="clip0_266_61514">
<rect width="40" height="40" fill="white"/>
</clipPath>
</defs>
</svg>
