<svg width="56" height="56" viewBox="0 0 56 56" fill="none" xmlns="http://www.w3.org/2000/svg">
<g clip-path="url(#clip0_266_61847)">
<path d="M0 28C0 29.6372 0 29.8331 0.0420105 31.2324C0.0980245 34.7586 0.658165 38.2709 1.72243 41.6432C2.63266 44.3298 4.04701 46.8206 5.89545 48.9755C8.12205 51.3685 10.9088 53.1735 14.0035 54.237C17.1963 55.3285 20.6551 55.86 27.3769 56H28.6231C35.3448 55.86 38.8037 55.3285 41.9965 54.237C45.0912 53.1735 47.8779 51.3685 50.1045 48.9755C51.953 46.8206 53.3815 44.3438 54.2775 41.6432C55.342 38.2709 55.916 34.7726 55.958 31.2324C56 29.8471 56 29.6512 56 28C56 26.3488 56 26.1669 55.958 24.7676C55.916 21.2414 55.342 17.7291 54.2775 14.3568C53.3675 11.6702 51.953 9.17939 50.1045 7.02449C47.8779 4.63168 45.0912 2.82659 41.9965 1.76312C38.8037 0.657673 35.3448 0.13993 28.6231 0H27.3769C20.6551 0.13993 17.1963 0.671663 14.0035 1.76312C10.9088 2.82659 8.12205 4.63168 5.89545 7.02449C4.04701 9.17939 2.61865 11.6562 1.72243 14.3568C0.658165 17.7291 0.0980245 21.2414 0.0420105 24.7676C0 26.1529 0 26.3488 0 28Z" fill="#143B9B"/>
<path d="M13.3484 27.7469L15.8822 26.0467V24.1104L10.5 27.7311L15.8822 31.3991V29.4628L13.3484 27.7311V27.7469Z" fill="white"/>
<path d="M45.5 27.7939L28 16.0029L15.8822 24.126V26.0623L28 17.9392L42.6515 27.8097L28 37.7431L15.8822 29.4784V31.4147L28 39.6794L45.5 27.8097V27.7939Z" fill="white"/>
<path d="M32.5482 26.8182L33.4609 27.4164L24.6322 33.5559L28.0787 35.8858L39.929 27.7627L31.7298 22.2529L28.8026 24.3309L29.9357 25.0866H29.9515L32.5639 26.8182H32.5482ZM31.7298 22.4261L39.6929 27.7785L28.063 35.7441L24.8526 33.5717L33.6969 27.4322L29.0387 24.3467L31.7298 22.4418V22.4261Z" fill="white"/>
<path d="M24.8526 33.5558L28.0787 35.7282L39.7087 27.7626L31.7456 22.4102L29.0387 24.3307L33.697 27.4162L24.8526 33.5558ZM29.259 24.3307L31.7298 22.5833L39.4569 27.7783L28.063 35.5865L25.0729 33.5715L33.9173 27.432L29.259 24.3465V24.3307Z" fill="white"/>
<path d="M23.6723 32.9102L32.5482 26.8336L29.9358 25.102L27.9528 26.4086L25.6867 24.9131L30.644 21.5127L27.9371 19.6709L16.1026 27.7782L23.6723 32.9102ZM25.4663 27.9671L23.4992 29.3052L21.4376 27.9041L23.4047 26.566L25.4663 27.9671Z" fill="white"/>
<path d="M32.5482 26.8177L29.9358 25.0703H29.92L32.5324 26.8177H32.5482Z" fill="white"/>
</g>
<defs>
<clipPath id="clip0_266_61847">
<rect width="56" height="56" fill="white"/>
</clipPath>
</defs>
</svg>
