<svg width="32" height="32" viewBox="0 0 32 32" fill="none" xmlns="http://www.w3.org/2000/svg">
<g clip-path="url(#clip0_266_61099)">
<path d="M0 16C0 16.9421 0 17.0467 0.0224508 17.8467C0.0823196 19.6187 0.26941 21.6523 0.980352 23.7981C1.48175 25.3159 2.42469 26.9533 3.36762 27.985C4.56501 29.3008 6.21889 30.3776 8.00746 30.9906C9.83345 31.6188 11.8091 31.9251 15.6482 32H16.3592C20.2057 31.9177 22.1739 31.6188 23.9999 30.9906C25.7885 30.3776 27.4349 29.3008 28.6322 27.985C29.5752 26.9458 30.5182 25.3159 31.0195 23.7981C31.7304 21.6523 31.9251 19.6112 31.9774 17.8467C32 17.0542 32 16.9421 32 16C32 15.0579 32 14.9458 31.9774 14.1533C31.9177 12.3813 31.7304 10.3477 31.0195 8.20188C30.5182 6.6841 29.5752 5.04671 28.6322 4.01496C27.4349 2.69906 25.781 1.62243 23.9999 1.00935C22.1739 0.381308 20.1983 0.0747663 16.3592 0H15.6482C11.8017 0.0822429 9.83345 0.381308 8.00746 1.00935C6.21889 1.62243 4.57249 2.69906 3.36762 4.01496C2.42469 5.0542 1.48175 6.6841 0.980352 8.20188C0.276893 10.3477 0.0823196 12.3813 0.0224508 14.1533C0 14.9458 0 15.0579 0 16Z" fill="#E78001"/>
<path d="M10.8965 11.8501C10.8579 12.091 10.3495 15.4932 10.3033 15.8168H11.4434C11.4742 15.576 11.9903 12.1738 12.0365 11.8501H10.8965Z" fill="white"/>
<path d="M20.2254 11.8501C20.1869 12.091 19.6785 15.4932 19.6323 15.8168H22.3053C22.3284 15.6437 22.3977 15.1846 22.4363 14.9588H20.8186L20.9264 14.2286H22.3977C22.4286 14.0555 22.4825 13.649 22.521 13.4308H21.0497L21.1575 12.7082H22.7367C22.7598 12.535 22.8291 12.0759 22.8677 11.8576H20.2331L20.2254 11.8501Z" fill="white"/>
<path d="M7.52249 14.1159C7.52249 14.1159 8.47771 12.0234 8.55474 11.8428H9.98754C9.98754 12.1213 9.79497 15.5235 9.79497 15.8095H8.76271L8.9322 13.0321C8.9322 13.0321 7.769 15.6289 7.69197 15.8095H6.8754L6.50566 13.0321C6.48254 13.16 6.08969 15.0117 5.88169 15.8095H4.85714C4.965 15.4557 5.75071 12.0535 5.81234 11.8428H7.19126L7.5148 14.1159H7.52249Z" fill="white"/>
<path d="M18.2223 15.0116C18.2223 15.0116 18.2993 15.659 18.3224 15.8095H19.4163C19.3547 15.4858 18.7615 12.0761 18.7153 11.8428H17.3287C17.2517 12.0084 15.6725 15.4181 15.4799 15.8095H16.5892C16.6508 15.674 16.9281 15.0116 16.9281 15.0116H18.2146H18.2223ZM17.244 14.1912L17.8987 12.7159L18.1145 14.1912H17.244Z" fill="white"/>
<path d="M13.6234 12.5953H13.8776C14.0548 12.5953 14.2474 12.6103 14.3629 12.7458C14.4477 12.8436 14.4785 12.9716 14.4554 13.1447C14.4554 13.1447 14.4169 13.4458 14.2166 13.5437C14.2166 13.5437 14.0702 13.634 13.8314 13.6415H13.3153L14.2936 15.8168H15.4029L14.5632 14.1458C15.0716 14.0555 15.4645 13.9125 15.5647 13.1598C15.5801 13.0619 15.5878 12.9716 15.5878 12.8888C15.5878 12.6103 15.5107 12.3845 15.3644 12.2189C15.087 11.9178 14.6171 11.8501 14.2705 11.8501H12.7067C12.6682 12.091 12.1598 15.4932 12.1136 15.8093H13.1535C13.1843 15.591 13.6311 12.5877 13.6311 12.5877" fill="white"/>
<path d="M27.1429 11.4287C26.4805 14.0632 24.0924 15.5008 22.6827 16.2686L22.6211 16.1933C23.1989 15.7492 25.1709 14.3492 25.8026 12.0384L27.1352 11.4287H27.1429Z" fill="white"/>
<path d="M17.5753 18.075C17.5753 18.075 17.6137 18.0675 17.6367 18.0601C17.6137 18.0601 17.5984 18.0675 17.5753 18.075Z" fill="white"/>
<path d="M15.7571 18.4062C15.7571 18.4062 15.7111 18.4063 15.6881 18.4212C15.7111 18.4212 15.7341 18.4137 15.7571 18.4062Z" fill="white"/>
<path d="M18.0145 17.9697C17.9374 17.9923 17.8527 18.0074 17.7757 18.0225C17.8527 17.9999 17.9374 17.9848 18.0145 17.9697Z" fill="white"/>
<path d="M19.817 17.4805C19.7014 17.5181 19.5859 17.5483 19.4626 17.5859C19.5859 17.5483 19.7014 17.5106 19.817 17.4805Z" fill="white"/>
<path d="M18.2994 17.9097C18.2455 17.9246 18.1993 17.9321 18.1454 17.9471C18.1916 17.9321 18.2455 17.9246 18.2994 17.9097Z" fill="white"/>
<path d="M14.7789 18.0601L14.4785 17.9171C14.3784 17.8569 14.155 17.7365 14.155 17.5182C14.155 17.4128 14.2012 17.3225 14.2705 17.2623C14.3629 17.187 14.5093 17.1569 14.6634 17.187C14.856 17.2171 15.0871 17.3375 15.3336 17.5408C15.4491 17.3225 15.6725 16.916 15.7573 16.7655C15.4722 16.5397 15.2026 16.4192 14.7866 16.3515C14.2782 16.2837 13.7929 16.3816 13.454 16.63C13.1612 16.8407 12.9841 17.1493 12.9378 17.5257C12.9301 17.5859 12.9224 17.6537 12.9224 17.7139C12.9224 17.9171 12.9687 18.0978 13.0611 18.2483C13.6774 18.2333 14.3244 18.2031 14.9792 18.1505C14.9176 18.1203 14.856 18.0827 14.7866 18.0526" fill="white"/>
<path d="M19.3933 16.4946C19.3702 16.6602 19.2855 17.1796 19.2469 17.4355C20.0481 17.2172 21.0264 16.9086 21.9277 16.4946H19.3933Z" fill="white"/>
<path d="M19.8171 17.4804C19.7015 17.518 19.586 17.5481 19.4627 17.5858C19.4396 17.5933 19.4165 17.6008 19.3857 17.6083C19.3395 17.6234 19.2933 17.6384 19.2393 17.6535C19.2162 17.6535 19.1854 17.6686 19.1623 17.6761C19.0005 17.7212 18.8311 17.7664 18.6539 17.8116C18.6231 17.8191 18.5923 17.8266 18.5537 17.8341C18.5075 17.8492 18.4536 17.8567 18.4074 17.8718C18.3689 17.8793 18.3303 17.8868 18.2995 17.9019C18.2456 17.9094 18.1994 17.9245 18.1455 17.9395C18.0992 17.947 18.053 17.9621 18.0068 17.9696C17.9298 17.9922 17.8527 18.0073 17.768 18.0223C17.7218 18.0298 17.6756 18.0449 17.6293 18.0524C17.6062 18.0524 17.5908 18.06 17.5677 18.0675C17.0978 18.1728 16.6048 18.2632 16.0733 18.3535C16.0656 18.3535 16.0501 18.3535 16.0425 18.3535C15.95 18.3686 15.8499 18.3836 15.7497 18.3987H15.6804C15.5803 18.4212 15.4724 18.4438 15.3723 18.4514C15.3646 18.4514 15.3569 18.4514 15.3491 18.4514C14.7868 18.5342 14.1859 18.6019 13.562 18.6546C13.4695 18.6621 13.3694 18.6696 13.2693 18.6772C13.2615 18.6772 13.2461 18.6772 13.2384 18.6772C13.146 18.6772 13.0459 18.6922 12.9457 18.6998C12.938 18.6998 12.9226 18.6998 12.9149 18.6998C12.8148 18.6998 12.7146 18.7148 12.6145 18.7148C12.6068 18.7148 12.5991 18.7148 12.5914 18.7148C12.4912 18.7148 12.3834 18.7223 12.2832 18.7298H12.2755C11.744 18.7524 11.2048 18.7675 10.6424 18.7675H10.5962C10.4729 18.7675 10.3497 18.7675 10.2187 18.7675C10.1956 18.7675 10.1648 18.7675 10.1417 18.7675C9.6872 18.7675 9.225 18.7449 8.7474 18.7223H8.73972C8.02329 18.6847 7.27606 18.6245 6.51343 18.5417L7.39932 17.7514C7.39932 17.7514 7.91546 17.8944 8.62414 18.0223C8.4932 17.2546 8.36994 16.5846 8.35454 16.4868H6.96794C6.8832 16.6524 5.30403 20.0621 5.11914 20.4535H6.22843C6.29006 20.318 6.6598 19.4675 6.6598 19.4675H7.81532C7.81532 19.4675 7.93086 20.2955 7.95397 20.4535H9.04783C9.02472 20.3256 8.91689 19.731 8.79363 19.0309C9.57166 19.0761 10.3574 19.0836 11.0815 19.0686C11.12 19.1288 11.1354 19.189 11.1354 19.2568C11.1354 19.2793 11.1354 19.3019 11.1354 19.332C11.12 19.4223 11.0738 19.4976 10.9968 19.5428C10.8427 19.6406 10.627 19.618 10.4807 19.5955C10.1263 19.5352 9.84897 19.2793 9.61789 19.0686C9.47923 19.2868 9.1788 19.7535 9.07866 19.9041C9.49463 20.2654 9.94912 20.4912 10.4267 20.5514C10.912 20.6191 11.3897 20.5138 11.744 20.2654C12.0521 20.0471 12.2447 19.731 12.3063 19.3396C12.3217 19.2266 12.3295 19.1213 12.3295 19.0234C13.1075 18.9933 13.7623 18.9481 14.1783 18.9105C14.3169 19.0084 14.3862 19.1213 14.3862 19.2492C14.3862 19.2718 14.3862 19.2944 14.3862 19.3245C14.3708 19.4148 14.3246 19.4901 14.2476 19.5352C14.0935 19.6331 13.8778 19.6105 13.7315 19.5879C13.3771 19.5277 13.0998 19.2718 12.8687 19.061C12.73 19.2793 12.4296 19.746 12.3295 19.8966C12.7454 20.2578 13.1999 20.4836 13.6775 20.5439C14.1629 20.6116 14.6405 20.5062 14.9948 20.2578C15.3029 20.0396 15.5032 19.7234 15.5649 19.332C15.6034 19.1137 15.5957 18.9256 15.5417 18.7524C15.7189 18.7298 15.8884 18.6998 16.0501 18.6772C15.9269 19.5127 15.8113 20.288 15.7883 20.431H18.4613C18.4844 20.2578 18.5537 19.7987 18.5923 19.5729H16.9669L17.0747 18.8428H18.546C18.5691 18.6922 18.6231 18.346 18.6539 18.1202C18.8542 18.06 18.9543 18.0223 18.9543 18.0223C18.9543 18.0223 19.455 17.8793 20.0944 17.6535C20.002 18.2707 19.7169 20.1675 19.6784 20.4385H20.8339C20.8647 20.2052 21.2807 17.4578 21.2807 17.4578H22.1204C22.1435 17.2847 22.2282 16.7427 22.259 16.4943C21.8277 16.7277 21.0034 17.089 19.8325 17.4578" fill="white"/>
<path d="M11.8903 18.2558C11.7901 18.1805 11.6746 18.1128 11.5359 18.0601L11.2355 17.9171H11.2278C11.1276 17.8569 10.9042 17.7365 10.9042 17.5182C10.9042 17.4128 10.9427 17.3225 11.0198 17.2623C11.1122 17.187 11.2586 17.1569 11.4127 17.187C11.6129 17.2171 11.8363 17.3375 12.0829 17.5408C12.1984 17.3225 12.4218 16.916 12.5065 16.7655C12.2215 16.5397 11.9519 16.4192 11.5359 16.3515C11.0275 16.2837 10.5422 16.3816 10.2032 16.63C9.91051 16.8407 9.73334 17.1493 9.68711 17.5257C9.6794 17.5859 9.6794 17.6537 9.6794 17.7139C9.6794 17.887 9.71023 18.0451 9.77185 18.1806C9.79497 18.1806 9.81805 18.1806 9.84117 18.1806C10.3573 18.2182 11.066 18.2483 11.8826 18.2558" fill="white"/>
<path d="M17.2826 17.3525H18.8617C18.8925 17.1794 18.9542 16.7202 18.9927 16.502H16.3659C16.3505 16.6073 16.2503 17.2772 16.1348 18.045C16.4968 17.9998 16.8589 17.9472 17.2132 17.8944L17.2903 17.36L17.2826 17.3525Z" fill="white"/>
</g>
<defs>
<clipPath id="clip0_266_61099">
<rect width="32" height="32" fill="white"/>
</clipPath>
</defs>
</svg>
