<svg width="40" height="40" viewBox="0 0 40 40" fill="none" xmlns="http://www.w3.org/2000/svg">
<g clip-path="url(#clip0_266_61543)">
<path d="M0 20C0 21.1776 0 21.3084 0.0280635 22.3084C0.1029 24.5234 0.336762 27.0654 1.22544 29.7476C1.85219 31.6448 3.03086 33.6916 4.20953 34.9813C5.70626 36.626 7.77361 37.972 9.99996 38.7383C12.2825 39.5235 14.7521 39.9064 19.5509 40H20.4396C25.2385 39.8971 27.708 39.5235 29.9906 38.7383C32.2263 37.972 34.2843 36.626 35.7902 34.9813C36.9689 33.6822 38.1477 31.6448 38.7744 29.7476C39.6631 27.0654 39.9064 24.514 39.9718 22.3084C40 21.3177 40 21.1776 40 20C40 18.8224 40 18.6916 39.9718 17.6916C39.8971 15.4766 39.6631 12.9346 38.7744 10.2523C38.1477 8.35512 36.9689 6.30839 35.7902 5.0187C34.2936 3.37383 32.2263 2.02804 29.9906 1.26168C27.708 0.476635 25.2385 0.0934579 20.4396 0H19.5509C14.7427 0.102804 12.2825 0.476635 9.99996 1.26168C7.76425 2.02804 5.70626 3.37383 4.20953 5.0187C3.03086 6.31775 1.85219 8.35512 1.22544 10.2523C0.346117 12.9346 0.1029 15.4766 0.0280635 17.6916C0 18.6822 0 18.8224 0 20Z" fill="#D4332C"/>
<path d="M20.0094 30.5617C14.1561 30.5617 9.38757 25.7965 9.38757 19.9474C9.38757 17.5181 10.1917 15.2289 11.7158 13.3321L11.7719 13.2854C12.9219 12.5659 14.0159 12.4818 14.6891 13.0518C15.2314 13.5097 15.3623 14.3132 15.0257 15.1261C14.8013 15.6774 14.1655 16.1072 13.5577 16.5183C13.1931 16.7706 12.8097 17.0228 12.5386 17.2938C11.7064 18.1254 11.3511 19.4335 11.6316 20.6482C11.8373 21.5171 12.3141 22.1432 12.9593 22.3581C13.0902 22.4048 13.2679 22.4421 13.352 22.3861C13.5016 22.2833 13.511 21.8161 13.5203 21.377C13.5297 20.5641 13.5484 19.4615 14.3619 18.7794C15.3249 18.0413 17.1014 18.3496 17.9523 19.4055C18.3357 19.882 19.0089 21.1621 17.0547 22.8159C16.4563 23.255 16.2599 23.4606 15.9701 23.7596C15.8859 23.853 15.7831 23.9558 15.6709 24.0679C14.8761 24.8621 14.6798 25.7498 15.1099 26.6187C15.8672 28.1698 18.4011 29.3564 20.4208 29.1135C23.1043 28.7864 23.8803 27.0672 24.2824 24.3949C24.46 23.1896 24.432 22.3767 24.4039 21.6479C24.3759 20.9191 24.3478 20.2371 24.5442 19.3307V19.3027C25.0678 17.8918 25.9935 17.6022 26.7041 17.6115C28.4058 17.6302 30.2571 19.3401 30.6311 20.4333V20.4706L30.6405 20.508C30.3413 26.1422 25.6849 30.5617 20.0468 30.5617H20.0094ZM12.015 13.6124C10.5657 15.4344 9.79897 17.6208 9.79897 19.9381C9.79897 25.5629 14.3805 30.1413 20.0094 30.1413C25.6381 30.1413 29.8831 25.9179 30.1917 20.5267C29.827 19.5549 28.0973 18.0319 26.6666 18.0226C25.8345 18.0226 25.2641 18.4898 24.9182 19.4335C24.7405 20.2838 24.7592 20.9098 24.7873 21.6386C24.8153 22.3767 24.8527 23.2177 24.6657 24.4604C24.2543 27.2448 23.3754 29.1695 20.4488 29.5246C18.2328 29.7956 15.5587 28.5248 14.7171 26.8056C14.2123 25.7685 14.446 24.6939 15.3623 23.7783C15.4745 23.6662 15.568 23.5634 15.6615 23.4793C15.9607 23.1709 16.1758 22.9467 16.7929 22.4888C17.9804 21.4797 18.2796 20.48 17.625 19.6671C16.9238 18.8075 15.381 18.5085 14.6143 19.0971C13.9504 19.6484 13.9411 20.6108 13.9224 21.377C13.9224 22.003 13.913 22.4888 13.5858 22.7224C13.3988 22.8533 13.1463 22.8626 12.8191 22.7505C12.0336 22.4795 11.4539 21.7507 11.2202 20.7416C10.9116 19.3961 11.3044 17.9292 12.2394 17.0042C12.5386 16.7052 12.9313 16.4342 13.3146 16.1726C13.8756 15.7895 14.4554 15.4064 14.633 14.9673C14.9041 14.3132 14.82 13.7059 14.4179 13.3602C14.0159 13.0144 13.1744 12.9117 12.0243 13.6124H12.015Z" fill="white"/>
<path d="M19.9346 9.44531C16.5592 9.44531 13.5578 11.015 11.6036 13.4631C13.857 12.0615 15.3156 13.3976 14.6144 15.0888C14.2778 15.9111 12.8659 16.4904 12.1179 17.2379C10.3881 18.9664 10.8462 22.162 12.6321 22.7786C14.2684 23.3392 12.7256 20.3586 14.2684 19.0692C15.914 17.8078 20.1497 20.0129 16.7555 22.8814C15.9608 23.4701 15.8392 23.6569 15.325 24.1802C12.5386 26.9552 17.0548 30.104 20.3554 29.7022C23.2819 29.3472 24.0861 27.4224 24.4881 24.6941C24.8528 22.1993 24.3572 21.3304 24.7499 19.5271C25.9935 16.098 30.0047 19.0132 30.5751 20.6763C30.5844 20.4895 30.6031 20.3026 30.6031 20.1063C30.6031 14.2292 25.8252 9.44531 19.9346 9.44531ZM27.0314 16.3782C26.5358 17.0603 25.3109 17.0136 24.2918 16.2755C23.2726 15.5373 22.8425 14.3881 23.338 13.706C23.8243 13.0239 25.0585 13.0706 26.0777 13.8088C27.0968 14.5376 27.5269 15.6868 27.0314 16.3689V16.3782Z" fill="white"/>
</g>
<defs>
<clipPath id="clip0_266_61543">
<rect width="40" height="40" fill="white"/>
</clipPath>
</defs>
</svg>
