<svg width="24" height="24" viewBox="0 0 24 24" fill="none" xmlns="http://www.w3.org/2000/svg">
<g clip-path="url(#clip0_266_60921)">
<path d="M0 12C0 12.7065 0 12.785 0.0168382 13.385C0.06174 14.714 0.202058 16.2393 0.735266 17.8486C1.11132 18.9869 1.81852 20.2149 2.52572 20.9888C3.42377 21.9756 4.66416 22.7831 6.00561 23.2429C7.37511 23.7139 8.85688 23.9439 11.7362 24H12.2694C15.1544 23.9383 16.6305 23.7139 18 23.2429C19.3414 22.7831 20.5763 21.9756 21.4742 20.9888C22.1816 20.2094 22.8887 18.9869 23.2648 17.8486C23.7979 16.2393 23.9439 14.7084 23.9831 13.385C24 12.7907 24 12.7065 24 12C24 11.2935 24 11.2149 23.9831 10.6149C23.9383 9.28599 23.7979 7.76074 23.2648 6.15139C22.8887 5.01309 22.1816 3.78504 21.4742 3.01121C20.5763 2.0243 19.3358 1.21682 18 0.757009C16.6305 0.285981 15.1487 0.0560747 12.2694 0H11.7362C8.85126 0.0616821 7.37511 0.285981 6.00561 0.757009C4.66416 1.21682 3.42936 2.0243 2.52572 3.01121C1.81852 3.79065 1.11132 5.01309 0.735266 6.15139C0.207671 7.76074 0.06174 9.28599 0.0168382 10.6149C0 11.2093 0 11.2935 0 12Z" fill="#1585B4"/>
<path d="M7.44955 4.11003C7.219 4.21569 7.01183 4.36629 6.84023 4.55304C6.66863 4.73977 6.53601 4.9589 6.45019 5.19755L3.26269 14.2429C3.17931 14.4769 3.14597 14.7258 3.16476 14.9735C3.18355 15.2213 3.2541 15.4623 3.3718 15.681C3.61652 16.1346 4.0306 16.4731 4.5238 16.6227L14.9743 19.9366C15.4768 20.0957 16.0209 20.0588 16.4972 19.833C16.7277 19.7276 16.9348 19.577 17.1063 19.3902C17.2777 19.2035 17.41 18.9843 17.4954 18.7456L20.6829 9.7013C20.7624 9.46222 20.7926 9.20951 20.7717 8.95844C20.7508 8.70738 20.6793 8.46316 20.5615 8.24049C20.4436 8.01781 20.2819 7.82131 20.086 7.66286C19.8901 7.5044 19.6642 7.38729 19.4218 7.31855L8.9713 4.0058C8.46906 3.8471 7.92542 3.88391 7.44919 4.10891" fill="white"/>
<path d="M12.5576 12.7992C11.9749 13.4152 11.2574 13.8877 10.4613 14.1796L9.9892 14.3529V10.1604L10.4553 10.331C11.2522 10.6209 11.971 11.0916 12.5553 11.7061C12.9722 11.0759 13.2178 10.348 13.2678 9.59411C13.3113 8.61853 13.0397 7.65486 12.4933 6.84546C11.947 6.03606 11.1547 5.42387 10.2337 5.09933L8.72507 4.62499C8.40471 4.51965 8.05605 4.54217 7.75191 4.68788C7.44778 4.83358 7.21172 5.09117 7.09307 5.40683L3.89657 14.4578C3.84576 14.6148 3.82725 14.7805 3.84216 14.9449C3.85708 15.1092 3.9051 15.2689 3.98333 15.4142C4.06157 15.5595 4.16839 15.6874 4.29739 15.7903C4.42641 15.8932 4.57489 15.969 4.73395 16.013L11.988 18.3005C12.7469 17.5472 13.2051 16.5429 13.2765 15.476C13.3375 14.5292 13.0849 13.5887 12.5576 12.8M8.36507 14.6101H7.64395V9.91097H8.36507V14.6101Z" fill="#008AD3"/>
<path d="M12.1377 12.2525C11.7268 11.7954 11.2318 11.4218 10.6797 11.1519V13.3595C11.2329 13.0884 11.7281 12.7126 12.1377 12.2525Z" fill="#EC4315"/>
<path d="M19.1907 7.92522L12.5344 5.8252C13.3677 6.66331 13.8741 7.77162 13.9622 8.95019C14.0503 10.1288 13.7143 11.3 13.0148 12.2527C13.6958 13.1736 14.0364 14.3021 13.9786 15.446C13.9207 16.5898 13.468 17.6783 12.6976 18.5257L15.1988 19.3132C15.5194 19.4178 15.8679 19.3947 16.1718 19.2486C16.4757 19.1025 16.7115 18.8448 16.8301 18.5291L20.0273 9.48108C20.0778 9.32397 20.096 9.15828 20.0809 8.99397C20.0658 8.82963 20.0177 8.67003 19.9394 8.52475C19.8612 8.37946 19.7544 8.25147 19.6255 8.14844C19.4965 8.04543 19.3482 7.96951 19.1892 7.92522M17.4267 14.5946L16.5267 14.5983L14.6779 12.2471L16.5552 9.89772L17.4616 9.89472L15.5806 12.2505L17.4267 14.5946Z" fill="#004593"/>
</g>
<defs>
<clipPath id="clip0_266_60921">
<rect width="24" height="24" fill="white"/>
</clipPath>
</defs>
</svg>
