<svg width="32" height="32" viewBox="0 0 32 32" fill="none" xmlns="http://www.w3.org/2000/svg">
<g clip-path="url(#clip0_266_61168)">
<mask id="mask0_266_61168" style="mask-type:luminance" maskUnits="userSpaceOnUse" x="0" y="0" width="32" height="32">
<path d="M32 0H0V32H32V0Z" fill="white"/>
</mask>
<g mask="url(#mask0_266_61168)">
<path d="M0 16C0 16.9421 0 17.0467 0.0224509 17.8467C0.08232 19.6187 0.269411 21.6523 0.980354 23.7981C1.48176 25.3159 2.4247 26.9533 3.36763 27.9851C4.565 29.3009 6.21889 30.3774 8.00749 30.9906C9.83349 31.6186 11.8092 31.9251 15.6483 32H16.3592C20.2058 31.9177 22.174 31.6186 24 30.9906C25.7886 30.3774 27.435 29.3009 28.6323 27.9851C29.5754 26.9458 30.5183 25.3159 31.0197 23.7981C31.7306 21.6523 31.9251 19.6112 31.9774 17.8467C32 17.0542 32 16.9421 32 16C32 15.0579 32 14.9533 31.9774 14.1533C31.9177 12.3813 31.7306 10.3477 31.0197 8.20186C30.5183 6.68411 29.5754 5.04671 28.6323 4.01494C27.435 2.69907 25.7811 1.62243 24 1.00935C22.174 0.381309 20.1983 0.0747663 16.3592 0H15.6483C11.8017 0.0822429 9.83349 0.381309 8.00749 1.00935C6.21889 1.62243 4.57249 2.69907 3.36763 4.01494C2.4247 5.0542 1.48176 6.68411 0.980354 8.20186C0.276894 10.3477 0.08232 12.3813 0.0224509 14.1533C0 14.9458 0 15.0579 0 16Z" fill="#0A1E5A"/>
<mask id="mask1_266_61168" style="mask-type:luminance" maskUnits="userSpaceOnUse" x="5" y="10" width="23" height="12">
<path d="M28.0001 10.5713H5.14288V21.1427H28.0001V10.5713Z" fill="white"/>
</mask>
<g mask="url(#mask1_266_61168)">
<path d="M18.5521 17.1606C19.1521 17.1606 19.4855 17.2455 19.4944 17.6472C19.4983 17.8678 19.3484 18.1243 19.1857 18.2501C18.8188 18.5335 18.4966 18.5636 16.7749 18.5636H8.28088L9.92191 11.7116H7.08394C6.89448 11.7116 6.82328 11.7659 6.76679 11.9911L5.21097 18.4135C4.91819 19.6901 5.57688 20.8578 7.04751 20.8578C8.51788 20.8578 9.69502 20.8578 10.9438 20.8578C11.9305 20.8578 13.2515 19.7806 13.7873 18.7855C13.8165 18.7307 13.8354 18.6954 13.8576 18.6496C13.8576 18.6496 13.8689 18.6358 13.8723 18.6556C13.8723 18.6566 13.8728 18.6566 13.8728 18.6566C13.7873 19.0143 13.489 20.2788 13.44 20.4847C13.3773 20.7533 13.5173 20.8551 13.6464 20.8551C13.6464 20.8551 16.8232 20.8551 17.8381 20.8551C21.3932 20.8551 22.7806 19.1641 22.9025 17.1338C22.9703 15.9929 22.2486 15.2548 20.2064 15.2548C20.2064 15.2548 19.1965 15.2548 18.638 15.2548C18.0802 15.2548 17.5089 15.0713 17.5089 14.6188C17.5089 14.1653 18.1292 13.7716 18.9718 13.7716H22.789C22.789 13.7716 23.1228 12.4352 23.1887 12.1557C23.2713 11.804 23.1655 11.7021 22.9087 11.7021H18.1905C15.4501 11.7021 14.2203 13.5351 14.2203 14.8423C14.2203 16.151 15.2749 17.1584 17.995 17.1584L18.5521 17.1606Z" fill="white"/>
<path d="M20.406 10.5713H28L24.094 12.5777C24.094 12.5777 24.2514 11.9205 24.2987 11.725C24.3477 11.5167 24.2818 11.3601 23.9876 11.3007C23.6951 11.2415 20.406 10.5713 20.406 10.5713Z" fill="#ED164B"/>
</g>
</g>
</g>
<defs>
<clipPath id="clip0_266_61168">
<rect width="32" height="32" fill="white"/>
</clipPath>
</defs>
</svg>
