<svg width="56" height="56" viewBox="0 0 56 56" fill="none" xmlns="http://www.w3.org/2000/svg">
<g clip-path="url(#clip0_266_61793)">
<path d="M0 28C0 29.6486 0 29.8318 0.039289 31.2318C0.14406 34.3327 0.471469 37.8916 1.71562 41.6467C2.59308 44.3028 4.24322 47.1682 5.89335 48.9739C7.9888 51.2765 10.883 53.1605 14.0131 54.2335C17.2086 55.3325 20.666 55.869 27.3845 56H28.6287C35.3601 55.856 38.8045 55.3325 42 54.2335C45.1301 53.1605 48.0112 51.2765 50.1065 48.9739C51.757 47.1552 53.407 44.3028 54.2845 41.6467C55.5285 37.8916 55.869 34.3196 55.9605 31.2318C56 29.8449 56 29.6486 56 28C56 26.3514 56 26.1682 55.9605 24.7682C55.856 21.6673 55.5285 18.1084 54.2845 14.3532C53.407 11.6972 51.757 8.83175 50.1065 7.02615C48.0112 4.72337 45.117 2.83925 42 1.76636C38.8045 0.66729 35.347 0.130841 28.6287 0H27.3845C20.653 0.143925 17.2086 0.66729 14.0131 1.76636C10.883 2.83925 8.00185 4.72337 5.89335 7.02615C4.24322 8.84485 2.59308 11.6972 1.71562 14.3532C0.484565 18.1084 0.14406 21.6673 0.039289 24.7682C0 26.1551 0 26.3514 0 28Z" fill="#48AF36"/>
<mask id="mask0_266_61793" style="mask-type:luminance" maskUnits="userSpaceOnUse" x="13" y="16" width="30" height="24">
<path d="M43 16H13V40H43V16Z" fill="white"/>
</mask>
<g mask="url(#mask0_266_61793)">
<path d="M41.9062 21.5989C40.3438 20.0104 37.7526 20.2839 36.2291 21.8985C34.237 23.9818 32.7005 24.763 30.8646 24.6849C28.2995 24.5677 27.0234 22.5886 25.7083 20.0755C24.3411 17.4584 22.2317 16 19.6015 16C15.4739 16 13 19.3463 13 23.0703C13 28.8125 17.0365 32.237 19.8229 33.6823C22.1406 34.8933 24.7188 35.401 27.0235 35.4531C26.8933 36.8203 26.4896 38.6302 26.0338 39.9193H30.7604C30.2917 38.6302 29.888 36.6771 29.7578 35.2969C36.6718 34.3985 39.9662 31.2604 41.763 28.2656C42.5703 26.9505 43 25.5834 43 24.3594C43 23.2917 42.6485 22.3151 41.9062 21.5729M19.6406 25.1667C18.2995 25.2448 17.1536 24.2422 17.0625 22.9011C16.9843 21.5729 17.987 20.4141 19.3281 20.336C20.6562 20.2448 21.8021 21.2734 21.8802 22.6015C21.9713 23.9297 20.9557 25.0886 19.6276 25.1667" fill="white"/>
</g>
</g>
<defs>
<clipPath id="clip0_266_61793">
<rect width="56" height="56" fill="white"/>
</clipPath>
</defs>
</svg>
