<svg width="32" height="32" viewBox="0 0 32 32" fill="none" xmlns="http://www.w3.org/2000/svg">
<g clip-path="url(#clip0_266_61233)">
<path d="M0 16C0 16.9421 0 17.0467 0.0224509 17.8467C0.08232 19.6187 0.269411 21.6523 0.980354 23.7981C1.48176 25.3159 2.4247 26.9533 3.36763 27.9851C4.56503 29.3009 6.21889 30.3774 8.00749 30.9906C9.83349 31.6186 11.8092 31.9251 15.6483 32H16.3592C20.2058 31.9177 22.174 31.6186 24 30.9906C25.7886 30.3774 27.435 29.3009 28.6323 27.9851C29.5754 26.9458 30.5183 25.3159 31.0197 23.7981C31.7306 21.6523 31.9251 19.6112 31.9774 17.8467C32 17.0542 32 16.9421 32 16C32 15.0579 32 14.9533 31.9774 14.1533C31.9177 12.3813 31.7306 10.3477 31.0197 8.20186C30.5183 6.68411 29.5754 5.04671 28.6323 4.01494C27.435 2.69907 25.7811 1.62243 24 1.00935C22.174 0.381309 20.1983 0.0747663 16.3592 0H15.6483C11.8017 0.0822429 9.83349 0.381309 8.00749 1.00935C6.21889 1.62243 4.57249 2.69907 3.36763 4.01494C2.4247 5.0542 1.48176 6.68411 0.980354 8.20186C0.276894 10.3477 0.08232 12.3813 0.0224509 14.1533C0 14.9458 0 15.0579 0 16Z" fill="#0064FF"/>
<mask id="mask0_266_61233" style="mask-type:luminance" maskUnits="userSpaceOnUse" x="6" y="7" width="20" height="19">
<path d="M25.7139 7H6.28528V25.2857H25.7139V7Z" fill="white"/>
</mask>
<g mask="url(#mask0_266_61233)">
<path d="M25.7139 7.00049H6.28528V25.2862H25.7139V7.00049Z" fill="#0064FF"/>
<path d="M17.0637 11.0074L17.8735 7.18495C17.9099 6.99295 17.7462 6.81909 17.555 6.86481C16.3813 7.07509 15.1622 7.44095 13.9521 7.9622C8.51133 10.2758 5.21779 14.8115 6.6007 18.0944C7.64705 20.5543 11.0225 21.606 14.9438 20.9933L14.1341 24.8158C14.0977 25.0078 14.2615 25.1816 14.4526 25.1359C15.6263 24.9256 16.8455 24.5598 18.0556 24.0385C23.4964 21.7249 26.7809 17.1892 25.398 13.8971C24.3607 11.4464 20.985 10.3947 17.0637 11.0074Z" fill="white"/>
</g>
</g>
<defs>
<clipPath id="clip0_266_61233">
<rect width="32" height="32" fill="white"/>
</clipPath>
</defs>
</svg>
