<svg width="32" height="32" viewBox="0 0 32 32" fill="none" xmlns="http://www.w3.org/2000/svg">
<g clip-path="url(#clip0_266_61400)">
<path d="M0 16C0 16.9435 0 17.0475 0.024006 17.8471C0.056014 19.862 0.376094 21.869 0.984246 23.7961C1.50438 25.3313 2.31258 26.7546 3.36884 27.986C4.64116 29.3533 6.23356 30.3848 8.002 30.9925C9.82646 31.6162 11.803 31.92 15.6439 32H16.3561C20.197 31.92 22.1735 31.6162 23.998 30.9925C25.7664 30.3848 27.3588 29.3533 28.6312 27.986C29.6874 26.7546 30.5036 25.3393 31.0158 23.7961C31.6239 21.869 31.944 19.87 31.976 17.8471C32 17.0555 32 16.9435 32 16C32 15.0565 32 14.9525 31.976 14.1609C31.944 12.1459 31.6239 10.1389 31.0158 8.21188C30.4956 6.67665 29.6874 5.25336 28.6312 4.02198C27.3588 2.65467 25.7664 1.62319 23.998 1.01549C22.1735 0.383807 20.197 0.07996 16.3561 0H15.6439C11.803 0.07996 9.82646 0.383807 8.002 1.00749C6.23356 1.61519 4.64116 2.64667 3.36884 4.01398C2.31258 5.24537 1.49637 6.66066 0.984246 8.20389C0.376094 10.1389 0.056014 12.1379 0.024006 14.1609C0 14.9525 0 15.0645 0 16Z" fill="#0F206C"/>
<path d="M7.44791 13.2563H4.15991C4.15991 13.2563 4.68791 13.8243 4.68791 14.1203V18.8723H7.39991C7.39991 18.8723 10.0959 18.8163 10.0959 16.1443C10.0959 14.6403 8.94391 13.3843 7.43991 13.2563M7.43991 18.0803H5.70391V14.0083C5.70391 14.0083 6.31991 13.9683 6.96791 13.9683C8.03991 13.9283 8.94391 14.7683 8.97591 15.8483C8.97591 15.9443 8.97591 16.0323 8.96791 16.1283C8.96791 18.0883 7.43991 18.0883 7.43991 18.0883" fill="white"/>
<path d="M15.104 18.9283H16.288L13.584 13.2563H12.208C12.392 13.4083 12.512 13.6243 12.544 13.8643C12.544 14.2083 10.248 18.9283 10.248 18.9283H11.144L11.704 17.6963H14.512L15.104 18.9283ZM12.016 17.0163L13.08 14.6883L14.192 17.0163H12.016Z" fill="white"/>
<path d="M19.5681 12.8963C17.8561 12.8723 16.4481 14.2483 16.4241 15.9603C16.4001 17.6723 17.7761 19.0803 19.4881 19.1043C21.2001 19.1283 22.6081 17.7523 22.6321 16.0403C22.6321 16.0243 22.6321 16.0163 22.6321 16.0003C22.6401 14.2963 21.2721 12.9123 19.5681 12.8963ZM19.5041 18.0483C18.3681 18.0483 17.4561 17.1283 17.4561 15.9923C17.4561 14.8563 18.3761 13.9443 19.5121 13.9443C20.6481 13.9443 21.5601 14.8643 21.5601 16.0003C21.5601 17.1363 20.6401 18.0483 19.5041 18.0483Z" fill="white"/>
<path d="M23.1919 13.2563C23.4319 13.4643 23.5839 13.7523 23.6239 14.0643V18.9843H27.8399V18.1443H24.7519V13.2563H23.1999H23.1919Z" fill="white"/>
</g>
<defs>
<clipPath id="clip0_266_61400">
<rect width="32" height="32" fill="white"/>
</clipPath>
</defs>
</svg>
