<svg width="56" height="56" viewBox="0 0 56 56" fill="none" xmlns="http://www.w3.org/2000/svg">
<g clip-path="url(#clip0_266_61858)">
<path d="M0 28C0 29.6486 0 29.8318 0.039289 31.2318C0.14406 34.3327 0.471469 37.8916 1.71562 41.6467C2.59308 44.3028 4.24322 47.1682 5.89335 48.9739C7.9888 51.2765 10.883 53.1605 14.0131 54.2335C17.2086 55.3325 20.666 55.869 27.3845 56H28.6287C35.3601 55.856 38.8045 55.3325 42 54.2335C45.1301 53.1605 48.0112 51.2765 50.1065 48.9739C51.757 47.1552 53.407 44.3028 54.2845 41.6467C55.5285 37.8916 55.869 34.3196 55.9605 31.2318C56 29.8449 56 29.6486 56 28C56 26.3514 56 26.1682 55.9605 24.7682C55.856 21.6673 55.5285 18.1084 54.2845 14.3532C53.407 11.6972 51.757 8.83175 50.1065 7.02615C48.0112 4.72337 45.117 2.83925 42 1.76636C38.8045 0.66729 35.347 0.130841 28.6287 0H27.3845C20.653 0.143925 17.2086 0.66729 14.0131 1.76636C10.883 2.83925 8.00185 4.72337 5.89335 7.02615C4.24322 8.84485 2.59308 11.6972 1.71562 14.3532C0.484565 18.1084 0.14406 21.6673 0.039289 24.7682C0 26.1551 0 26.3514 0 28Z" fill="#003CDC"/>
<path d="M11.7348 27.8512L12.6384 26.6249C11.9676 26.3022 11.283 25.8117 10.7799 25.1531C10.2762 24.5208 9.94085 23.7464 9.94085 22.8295V21.7709H8.2627V22.8554C8.2627 23.785 7.93995 24.6108 7.4236 25.3208C6.90725 26.044 6.2227 26.6117 5.5 27.0249L6.5068 28.1999C7.0877 27.8512 7.65535 27.4121 8.1204 26.909C8.5727 26.4313 8.93355 25.9017 9.1531 25.3986C9.68265 26.3794 10.4958 27.1799 11.7348 27.8512ZM15.0398 25.5658H16.9116V24.2108H15.0393V21.5H13.4384V28.3158H15.0393L15.0398 25.5658ZM8.2627 33.7247H15.0393V28.7808H8.2627V33.7247ZM13.4389 30.1362V32.3825H9.85035V30.1362H13.4389ZM23.5077 28.0576L24.4114 26.8053C23.7273 26.4572 23.0433 25.9922 22.5655 25.3727C22.0624 24.7658 21.7523 24.0172 21.7523 23.049V21.7709H20.0483V23.0755C20.0483 23.9532 19.7515 24.7277 19.2738 25.399C18.7961 26.0831 18.086 26.6768 17.2988 27.1931L18.2924 28.394C18.9125 28.0194 19.4674 27.529 19.9319 27.0513C20.3842 26.5736 20.7324 26.0704 20.926 25.6054C21.1324 26.0186 21.481 26.4704 21.9328 26.8963C22.3851 27.3486 22.9396 27.7481 23.5077 28.0576ZM25.7281 28.3803H27.3291V21.5H25.7281V23.6427H23.4692V25.0626H25.7281V28.3803ZM27.1349 31.0652C27.1349 30.2394 26.7995 29.5421 26.2445 29.0389C25.6763 28.5353 24.8891 28.2385 23.9596 28.2385C23.0301 28.2385 22.2555 28.5353 21.7006 29.0389C21.1323 29.5421 20.8096 30.2394 20.8096 31.0652C20.8096 31.9302 21.1323 32.6274 21.7006 33.1306C22.2555 33.6083 23.0301 33.8924 23.9596 33.8924C24.8891 33.8924 25.6763 33.6083 26.2445 33.1306C26.7995 32.6274 27.1349 31.9302 27.1349 31.0652ZM25.5604 31.0652C25.5604 31.9561 24.8891 32.5497 23.9596 32.5497C23.0301 32.5497 22.3846 31.9561 22.3846 31.0657C22.3846 30.1875 23.0301 29.5939 23.9596 29.5939C24.4241 29.5939 24.8113 29.7489 25.1082 30.0071C25.2514 30.1435 25.3653 30.3078 25.4431 30.4897C25.5208 30.6716 25.5607 30.8674 25.5604 31.0652ZM35.1648 23.1395H37.8624V21.7968H30.4526V23.1395H33.1634C32.9703 23.6426 32.4793 24.1077 31.8725 24.469C31.2657 24.8436 30.5563 25.1399 29.9363 25.2568L30.5949 26.573C31.3003 26.4079 31.9783 26.1427 32.6085 25.7853C33.2285 25.4372 33.7962 24.9981 34.1702 24.5208C34.5448 24.9853 35.1002 25.3986 35.7325 25.7472C36.352 26.0953 37.062 26.3667 37.7461 26.5345L38.4047 25.2435C37.6815 25.0499 36.9329 24.7918 36.352 24.4304C35.7711 24.0818 35.3198 23.6558 35.1648 23.1395ZM28.8903 28.5093H39.4496V27.1539H28.8908L28.8903 28.5093ZM37.4487 31.698C37.4487 30.9102 37.0874 30.2907 36.5065 29.8389C35.8997 29.413 35.0993 29.168 34.1697 29.168C33.2793 29.168 32.4662 29.413 31.8594 29.8389C31.2525 30.2653 30.8785 30.9107 30.8785 31.698C30.8785 32.5243 31.2785 33.1566 31.8979 33.5824C32.518 33.9956 33.3439 34.2024 34.1697 34.2024C34.9829 34.2024 35.796 33.9829 36.416 33.5697C37.0361 33.1565 37.4487 32.5243 37.4487 31.698ZM35.8997 31.698C35.8997 32.0593 35.706 32.3561 35.3965 32.563C35.0865 32.7692 34.6475 32.8983 34.1697 32.8983C33.137 32.8983 32.427 32.4207 32.427 31.698C32.427 30.9753 33.137 30.4716 34.1702 30.4716C34.648 30.4716 35.0865 30.6007 35.396 30.8071C35.706 31.0266 35.8997 31.3366 35.8997 31.698ZM40.3283 26.1604L40.4828 27.6057C41.3827 27.5803 42.2822 27.5417 43.181 27.4899V29.2325H44.7554V27.3862C46.0982 27.2831 47.415 27.1539 48.7318 26.9989V28.0967H46.3304V29.3098H48.7318V30.6525H50.3195V21.5H48.7318V25.708C48.1763 25.7726 47.6213 25.8244 47.0536 25.8757C47.234 24.7526 47.3117 23.6172 47.2985 22.5068V22.0936H41.2837V23.475H45.6727C45.6981 24.2236 45.6342 25.0758 45.5051 25.9921C43.801 26.1085 42.071 26.1598 40.3283 26.1598V26.1604ZM43.3614 33.5051H50.5V32.1371H44.9364V29.9293H43.3614V33.5051Z" fill="white"/>
</g>
<defs>
<clipPath id="clip0_266_61858">
<rect width="56" height="56" fill="white"/>
</clipPath>
</defs>
</svg>
