<svg width="32" height="32" viewBox="0 0 32 32" fill="none" xmlns="http://www.w3.org/2000/svg">
<g clip-path="url(#clip0_266_61282)">
<path d="M0 16C0 16.9421 0 17.0467 0.0224509 17.8467C0.08232 19.6187 0.269411 21.6523 0.980354 23.7981C1.48176 25.3159 2.4247 26.9533 3.36763 27.9851C4.56503 29.3009 6.21889 30.3774 8.00749 30.9906C9.83349 31.6186 11.8092 31.9251 15.6483 32H16.3592C20.2058 31.9177 22.174 31.6186 24 30.9906C25.7886 30.3774 27.435 29.3009 28.6323 27.9851C29.5754 26.9458 30.5183 25.3159 31.0197 23.7981C31.7306 21.6523 31.9251 19.6112 31.9774 17.8467C32 17.0542 32 16.9421 32 16C32 15.0579 32 14.9533 31.9774 14.1533C31.9177 12.3813 31.7306 10.3477 31.0197 8.20186C30.5183 6.68411 29.5754 5.04671 28.6323 4.01494C27.435 2.69907 25.7811 1.62243 24 1.00935C22.174 0.381309 20.1983 0.0747663 16.3592 0H15.6483C11.8017 0.0822429 9.83349 0.381309 8.00749 1.00935C6.21889 1.62243 4.57249 2.69907 3.36763 4.01494C2.4247 5.0542 1.48176 6.68411 0.980354 8.20186C0.276894 10.3477 0.08232 12.3813 0.0224509 14.1533C0 14.9458 0 15.0579 0 16Z" fill="#1585B4"/>
<path d="M9.93274 5.48036C9.62534 5.62125 9.34911 5.82205 9.12031 6.07105C8.89151 6.32002 8.71468 6.61219 8.60025 6.93039L4.35025 18.9909C4.23908 19.3029 4.19462 19.6348 4.21968 19.965C4.24474 20.2953 4.3388 20.6167 4.49574 20.9084C4.82202 21.5132 5.37414 21.9644 6.03174 22.1639L19.9657 26.5824C20.6357 26.7946 21.3612 26.7453 21.9963 26.4444C22.3037 26.3038 22.5798 26.103 22.8084 25.854C23.037 25.6049 23.2134 25.3127 23.3273 24.9944L27.5773 12.9354C27.6832 12.6166 27.7235 12.2797 27.6956 11.9449C27.6678 11.6102 27.5724 11.2845 27.4153 10.9876C27.2581 10.6907 27.0425 10.4287 26.7813 10.2175C26.5202 10.0062 26.2189 9.85005 25.8957 9.75839L11.9617 5.34139C11.2921 5.12979 10.5672 5.17888 9.93225 5.47888" fill="white"/>
<path d="M16.7432 17.0658C15.9663 17.8871 15.0096 18.5171 13.9482 18.9063L13.3187 19.1373V13.5473L13.9402 13.7748C15.0027 14.1614 15.9611 14.789 16.7402 15.6083C17.296 14.7681 17.6235 13.7975 17.6902 12.7923C17.7481 11.4915 17.386 10.2066 16.6576 9.12745C15.9291 8.04825 14.8728 7.23199 13.6447 6.79928L11.6332 6.16682C11.206 6.02636 10.7412 6.05639 10.3356 6.25068C9.93012 6.44493 9.61538 6.78839 9.45718 7.20928L5.19518 19.2773C5.12744 19.4866 5.10275 19.7075 5.12264 19.9267C5.14252 20.1458 5.20655 20.3586 5.31087 20.5524C5.41518 20.7461 5.55761 20.9167 5.72961 21.0539C5.90164 21.1911 6.09961 21.2921 6.31169 21.3508L15.9837 24.4008C16.9957 23.3964 17.6065 22.0574 17.7017 20.6348C17.7832 19.3724 17.4463 18.1184 16.7432 17.0668M11.1532 19.4803H10.1917V13.2148H11.1532V19.4803Z" fill="#008AD3"/>
<path d="M16.1837 16.3366C15.6359 15.7273 14.9759 15.229 14.2397 14.8691V17.8127C14.9773 17.4512 15.6376 16.9502 16.1837 16.3366Z" fill="#EC4315"/>
<path d="M25.5876 10.5666L16.7126 7.7666C17.8237 8.88409 18.4989 10.3618 18.6163 11.9333C18.7338 13.5047 18.2858 15.0664 17.3532 16.3366C18.2612 17.5645 18.7153 19.0692 18.6382 20.5943C18.561 22.1195 17.9574 23.5707 16.9302 24.7006L20.2652 25.7506C20.6926 25.8901 21.1573 25.8593 21.5625 25.6645C21.9677 25.4697 22.2821 25.126 22.4402 24.7051L26.7032 12.6411C26.7705 12.4316 26.7948 12.2107 26.7746 11.9916C26.7545 11.7725 26.6904 11.5597 26.586 11.366C26.4816 11.1723 26.3392 11.0016 26.1674 10.8643C25.9955 10.7269 25.7976 10.6257 25.5856 10.5666M23.2356 19.4591L22.0356 19.4641L19.5706 16.3291L22.0736 13.1966L23.2822 13.1926L20.7742 16.3336L23.2356 19.4591Z" fill="#004593"/>
</g>
<defs>
<clipPath id="clip0_266_61282">
<rect width="32" height="32" fill="white"/>
</clipPath>
</defs>
</svg>
