<svg width="32" height="32" viewBox="0 0 32 32" fill="none" xmlns="http://www.w3.org/2000/svg">
<g clip-path="url(#clip0_266_61120)">
<path d="M0 16C0 16.9355 0 17.0475 0.024006 17.8471C0.056014 19.8621 0.376094 21.8691 0.984246 23.7961C1.50438 25.3313 2.31258 26.7546 3.36883 27.986C4.64117 29.3534 6.23357 30.3849 8.002 30.9926C9.82646 31.6163 11.8029 31.92 15.6439 32H16.3561C20.1971 31.92 22.1735 31.6163 23.998 30.9926C25.7664 30.3849 27.3588 29.3534 28.6311 27.986C29.6874 26.7546 30.5037 25.3393 31.0157 23.7961C31.624 21.8691 31.952 19.8701 31.976 17.8471C32 17.0555 32 16.9435 32 16C32 15.0565 32 14.9525 31.976 14.1529C31.952 12.1379 31.624 10.1309 31.0157 8.20391C30.4957 6.66868 29.6874 5.24536 28.6311 4.01399C27.3588 2.64668 25.7664 1.61519 23.998 1.0075C22.1735 0.375813 20.1971 0.0799601 16.3561 0H15.6439C11.8029 0.0799601 9.82646 0.383807 8.002 1.0075C6.23357 1.61519 4.64117 2.64668 3.36883 4.01399C2.31258 5.24536 1.49637 6.66068 0.984246 8.20391C0.376094 10.1309 0.056014 12.1379 0.024006 14.1529C0 14.9445 0 15.0565 0 16Z" fill="#143B9B"/>
<path d="M7.62769 15.8539L9.07554 14.8823V13.7759L6 15.8449L9.07554 17.9409V16.8344L7.62769 15.8449V15.8539Z" fill="white"/>
<path d="M26 15.8808L16 9.14307L9.07552 13.7848V14.8913L16 10.2495L24.3723 15.8898L16 21.566L9.07552 16.8433V17.9498L16 22.6725L26 15.8898V15.8808Z" fill="white"/>
<path d="M18.5989 15.3231L19.1205 15.6649L14.0755 19.1732L16.045 20.5046L22.8166 15.8628L18.1313 12.7144L16.4586 13.9018L17.1061 14.3336H17.1151L18.6079 15.3231H18.5989ZM18.1313 12.8133L22.6817 15.8718L16.036 20.4236L14.2015 19.1822L19.2554 15.6739L16.5935 13.9108L18.1313 12.8223V12.8133Z" fill="white"/>
<path d="M14.2015 19.1731L16.045 20.4145L22.6907 15.8627L18.1403 12.8042L16.5935 13.9017L19.2554 15.6648L14.2015 19.1731ZM16.7194 13.9017L18.1313 12.9031L22.5468 15.8717L16.036 20.3335L14.3273 19.1821L19.3813 15.6738L16.7194 13.9107V13.9017Z" fill="white"/>
<path d="M13.527 18.8041L18.5989 15.3318L17.1061 14.3423L15.973 15.0889L14.6781 14.2343L17.5108 12.2913L15.9641 11.2388L9.20146 15.8715L13.527 18.8041ZM14.5522 15.9795L13.4281 16.7441L12.25 15.9435L13.3741 15.1789L14.5522 15.9795Z" fill="white"/>
<path d="M18.599 15.3227L17.1062 14.3242H17.0972L18.59 15.3227H18.599Z" fill="white"/>
</g>
<defs>
<clipPath id="clip0_266_61120">
<rect width="32" height="32" fill="white"/>
</clipPath>
</defs>
</svg>
