<svg width="40" height="40" viewBox="0 0 40 40" fill="none" xmlns="http://www.w3.org/2000/svg">
<g clip-path="url(#clip0_266_61550)">
<path d="M0 20C0 21.1776 0 21.3084 0.028057 22.3084C0.102876 24.5234 0.336685 27.0654 1.22516 29.7476C1.85176 31.6449 3.03016 33.6916 4.20857 34.9813C5.70493 36.6261 7.77179 37.9718 10.007 38.7382C12.289 39.5232 14.758 39.9064 19.5557 40H20.4443C25.2514 39.8971 27.711 39.5232 29.993 38.7382C32.2282 37.9718 34.2857 36.6261 35.7914 34.9813C36.97 33.6823 38.1389 31.6449 38.775 29.7476C39.6632 27.0654 39.9064 24.514 39.9718 22.3084C40 21.3178 40 21.1776 40 20C40 18.8224 40 18.6916 39.9718 17.6916C39.8971 15.4766 39.6632 12.9346 38.775 10.2523C38.1389 8.35514 36.97 6.30839 35.7914 5.01868C34.2951 3.37383 32.2282 2.02804 29.993 1.26168C27.711 0.476636 25.242 0.0934579 20.4443 0H19.5557C14.758 0.102804 12.289 0.476636 10.007 1.26168C7.77179 2.02804 5.71429 3.37383 4.20857 5.01868C3.03016 6.31775 1.85176 8.35514 1.22516 10.2523C0.346037 12.9346 0.102876 15.4766 0.028057 17.6916C0 18.6823 0 18.8224 0 20Z" fill="#0480CC"/>
<path d="M9.28571 20.2897C9.28571 20.127 9.41728 19.9846 9.57924 19.9846L15.1566 19.9541C15.3185 19.9541 15.4602 20.0863 15.4602 20.249C15.4602 20.2897 15.4602 20.3304 15.44 20.3609L12.6969 27.2155C12.6564 27.3172 12.545 27.3986 12.4236 27.3986C12.3426 27.3986 12.2717 27.3579 12.211 27.3172C12.211 27.3172 12.2009 27.3172 12.2009 27.307C10.4801 25.4663 9.38692 23.0153 9.28571 20.2999V20.2897Z" fill="white"/>
<path d="M15.1869 29.2294L18.4969 20.9714C18.4969 20.9714 18.4969 20.9714 18.4969 20.9612C18.7297 20.3612 19.3168 19.9238 20.0051 19.9238C20.6529 19.9238 21.2096 20.29 21.4728 20.8391L24.9548 29.1786C24.9548 29.1786 24.975 29.2599 24.975 29.3006C24.975 29.4125 24.9143 29.504 24.8333 29.565C24.8333 29.565 24.8333 29.565 24.8232 29.565C23.4061 30.2871 21.7866 30.6939 20.086 30.7143C18.3754 30.7244 16.766 30.338 15.3287 29.6362C15.2375 29.5854 15.1667 29.4837 15.1667 29.3718C15.1667 29.3311 15.1667 29.3006 15.1869 29.2599" fill="white"/>
<path d="M24.5804 20.2999C24.5804 20.2999 24.5602 20.2185 24.55 20.1778C24.55 20.0151 24.6817 19.8727 24.8436 19.8727L30.4209 19.832C30.5829 19.832 30.7144 19.9642 30.7144 20.127C30.6638 22.8424 29.601 25.3137 27.9005 27.185C27.8398 27.2358 27.7689 27.2765 27.6879 27.2765C27.5665 27.2765 27.4551 27.2053 27.4146 27.0935L24.5804 20.2795V20.2999Z" fill="white"/>
<path d="M29.854 16.7611L23.3252 16.812H23.2949C23.1835 16.812 23.0823 16.7306 23.0418 16.6289L22.5155 15.3678C21.7968 13.5067 21.4526 11.727 21.4526 10.0896V9.59124C21.4526 9.42853 21.5741 9.28613 21.7462 9.28613H21.7867H21.7968C25.6736 9.94717 28.8519 12.7033 30.1172 16.3645C30.1172 16.3645 30.1273 16.4255 30.1273 16.4662C30.1273 16.6289 29.9957 16.7611 29.8338 16.7611" fill="white"/>
<path d="M17.4138 15.3975L16.9077 16.6688C16.8672 16.7603 16.7862 16.8315 16.6951 16.8518H16.6647H16.6344L10.0955 16.9027C9.92338 16.9027 9.79181 16.7705 9.79181 16.5976C9.79181 16.5671 9.79181 16.5366 9.81206 16.5061C11.0267 12.8347 14.1646 10.0176 18.0413 9.30566C18.0413 9.30566 18.0717 9.30566 18.0818 9.30566C18.2438 9.30566 18.3855 9.43788 18.3855 9.60059V10.1091C18.4159 11.7465 18.1021 13.5262 17.4037 15.3975" fill="white"/>
</g>
<defs>
<clipPath id="clip0_266_61550">
<rect width="40" height="40" fill="white"/>
</clipPath>
</defs>
</svg>
