<svg width="24" height="24" viewBox="0 0 24 24" fill="none" xmlns="http://www.w3.org/2000/svg">
<g clip-path="url(#clip0_266_60807)">
<mask id="mask0_266_60807" style="mask-type:luminance" maskUnits="userSpaceOnUse" x="0" y="0" width="24" height="24">
<path d="M24 0H0V24H24V0Z" fill="white"/>
</mask>
<g mask="url(#mask0_266_60807)">
<path d="M0 12C0 12.7065 0 12.785 0.0168382 13.385C0.06174 14.714 0.202058 16.2393 0.735266 17.8486C1.11132 18.9869 1.81852 20.2149 2.52572 20.9888C3.42375 21.9756 4.66416 22.7831 6.00561 23.2429C7.37511 23.7139 8.85688 23.9439 11.7362 24H12.2694C15.1544 23.9383 16.6305 23.7139 18 23.2429C19.3414 22.7831 20.5762 21.9756 21.4742 20.9888C22.1816 20.2094 22.8887 18.9869 23.2648 17.8486C23.7979 16.2393 23.9439 14.7084 23.9831 13.385C24 12.7907 24 12.7065 24 12C24 11.2935 24 11.2149 23.9831 10.6149C23.9383 9.28599 23.7979 7.76074 23.2648 6.15139C22.8887 5.01309 22.1816 3.78504 21.4742 3.01121C20.5762 2.0243 19.3358 1.21682 18 0.757009C16.6305 0.285981 15.1487 0.0560747 12.2694 0H11.7362C8.85126 0.0616821 7.37511 0.285981 6.00561 0.757009C4.66416 1.21682 3.42936 2.0243 2.52572 3.01121C1.81852 3.79065 1.11132 5.01309 0.735266 6.15139C0.207671 7.76074 0.06174 9.28599 0.0168382 10.6149C0 11.2093 0 11.2935 0 12Z" fill="#0A1E5A"/>
<mask id="mask1_266_60807" style="mask-type:luminance" maskUnits="userSpaceOnUse" x="3" y="7" width="18" height="9">
<path d="M21 7.92871H3.85712V15.8573H21V7.92871Z" fill="white"/>
</mask>
<g mask="url(#mask1_266_60807)">
<path d="M13.914 12.8707C14.3641 12.8707 14.614 12.9344 14.6208 13.2356C14.6236 13.4011 14.5112 13.5935 14.3892 13.6878C14.1141 13.9003 13.8724 13.923 12.5812 13.923H6.21061L7.44139 8.78393H5.31291C5.17081 8.78393 5.11741 8.82464 5.07505 8.99354L3.90818 13.8104C3.6886 14.7678 4.18261 15.6436 5.28559 15.6436C6.38836 15.6436 7.27122 15.6436 8.20782 15.6436C8.94786 15.6436 9.93859 14.8357 10.3405 14.0893C10.3624 14.0482 10.3765 14.0218 10.3931 13.9874C10.3931 13.9874 10.4016 13.9771 10.4042 13.9919C10.4042 13.9927 10.4046 13.9927 10.4046 13.9927C10.3405 14.2609 10.1167 15.2093 10.08 15.3637C10.0329 15.5652 10.1379 15.6416 10.2348 15.6416C10.2348 15.6416 12.6174 15.6416 13.3786 15.6416C16.0449 15.6416 17.0854 14.3734 17.1768 12.8506C17.2277 11.9949 16.6864 11.4413 15.1548 11.4413C15.1548 11.4413 14.3974 11.4413 13.9785 11.4413C13.5601 11.4413 13.1317 11.3038 13.1317 10.9643C13.1317 10.6242 13.5969 10.3289 14.2288 10.3289H17.0917C17.0917 10.3289 17.3421 9.32663 17.3915 9.11699C17.4534 8.85325 17.3741 8.77686 17.1815 8.77686H13.6429C11.5875 8.77686 10.6652 10.1515 10.6652 11.132C10.6652 12.1135 11.4561 12.8691 13.4962 12.8691L13.914 12.8707Z" fill="white"/>
<path d="M15.3044 7.92871H21L18.0705 9.43355C18.0705 9.43355 18.1885 8.94063 18.224 8.794C18.2607 8.63778 18.2113 8.52029 17.9906 8.47576C17.7712 8.4314 15.3044 7.92871 15.3044 7.92871Z" fill="#ED164B"/>
</g>
</g>
</g>
<defs>
<clipPath id="clip0_266_60807">
<rect width="24" height="24" fill="white"/>
</clipPath>
</defs>
</svg>
