<svg width="32" height="32" viewBox="0 0 32 32" fill="none" xmlns="http://www.w3.org/2000/svg">
<g clip-path="url(#clip0_266_61066)">
<path d="M0 16C0 16.9421 0 17.0467 0.0224509 17.8467C0.08232 19.6187 0.269411 21.6523 0.980354 23.7981C1.48176 25.3159 2.4247 26.9533 3.36763 27.9851C4.56503 29.3009 6.21889 30.3774 8.00749 30.9906C9.83349 31.6186 11.8092 31.9251 15.6483 32H16.3592C20.2058 31.9177 22.174 31.6186 24 30.9906C25.7886 30.3774 27.435 29.3009 28.6323 27.9851C29.5754 26.9458 30.5183 25.3159 31.0197 23.7981C31.7306 21.6523 31.9251 19.6112 31.9774 17.8467C32 17.0542 32 16.9421 32 16C32 15.0579 32 14.9533 31.9774 14.1533C31.9177 12.3813 31.7306 10.3477 31.0197 8.20186C30.5183 6.68411 29.5754 5.04671 28.6323 4.01494C27.435 2.69907 25.7811 1.62243 24 1.00935C22.174 0.381309 20.1983 0.0747663 16.3592 0H15.6483C11.8017 0.0822429 9.83349 0.381309 8.00749 1.00935C6.21889 1.62243 4.57249 2.69907 3.36763 4.01494C2.4247 5.0542 1.48176 6.68411 0.980354 8.20186C0.276894 10.3477 0.08232 12.3813 0.0224509 14.1533C0 14.9458 0 15.0579 0 16Z" fill="#48AF36"/>
<mask id="mask0_266_61066" style="mask-type:luminance" maskUnits="userSpaceOnUse" x="7" y="9" width="18" height="14">
<path d="M24.5714 9.14307H7.42856V22.8574H24.5714V9.14307Z" fill="white"/>
</mask>
<g mask="url(#mask0_266_61066)">
<path d="M23.9464 12.3425C23.0536 11.4347 21.5729 11.591 20.7024 12.5136C19.564 13.7041 18.686 14.1505 17.6369 14.1059C16.1711 14.0389 15.442 12.908 14.6905 11.4719C13.9092 9.97641 12.7038 9.14307 11.2009 9.14307C8.84224 9.14307 7.42856 11.0553 7.42856 13.1832C7.42856 16.4645 9.7351 18.4214 11.3274 19.2472C12.6518 19.9392 14.125 20.2294 15.442 20.2591C15.3676 21.0404 15.1369 22.0746 14.8765 22.8112H17.5774C17.3095 22.0746 17.0788 20.9586 17.0044 20.1699C20.9553 19.6565 22.8378 17.8633 23.8646 16.152C24.3259 15.4005 24.5714 14.6193 24.5714 13.9198C24.5714 13.3097 24.3705 12.7517 23.9464 12.3276M11.2232 14.3812C10.4568 14.4258 9.80207 13.8529 9.74999 13.0865C9.70533 12.3276 10.2783 11.6654 11.0446 11.6208C11.8036 11.5687 12.4583 12.1565 12.503 12.9154C12.555 13.6743 11.9747 14.3365 11.2158 14.3812" fill="white"/>
</g>
</g>
<defs>
<clipPath id="clip0_266_61066">
<rect width="32" height="32" fill="white"/>
</clipPath>
</defs>
</svg>
