<svg width="40" height="40" viewBox="0 0 40 40" fill="none" xmlns="http://www.w3.org/2000/svg">
<g clip-path="url(#clip0_266_61750)">
<path d="M0 20C0 21.17 0 21.31 0.0300075 22.31C0.0700175 24.84 0.470118 27.34 1.23031 29.75C1.88047 31.67 2.89072 33.45 4.21104 34.98C5.80146 36.69 7.79196 37.98 10.0025 38.74C12.2831 39.53 14.7537 39.9 19.5549 40H20.4451C25.2463 39.9 27.7169 39.52 29.9975 38.74C32.208 37.98 34.1985 36.69 35.7889 34.98C37.1093 33.44 38.1296 31.67 38.7696 29.75C39.53 27.34 39.94 24.84 39.97 22.31C40 21.32 40 21.18 40 20.01C40 18.84 40 18.7 39.97 17.71C39.94 15.18 39.53 12.68 38.7696 10.27C38.1196 8.35 37.1093 6.57 35.7889 5.03C34.1985 3.32 32.208 2.03 29.9975 1.27C27.7169 0.48 25.2463 0.1 20.4451 0H19.5549C14.7537 0.1 12.2831 0.48 10.0025 1.26C7.79196 2.02 5.80146 3.31 4.21104 5.02C2.89072 6.56 1.87047 8.33 1.23031 10.26C0.470118 12.66 0.0700175 15.17 0.0300075 17.7C0 18.69 0 18.83 0 20Z" fill="#00448D"/>
<path d="M23.7571 22.0457H25.7484L30.716 17.623H23.7571V22.0457Z" fill="#D5B55D"/>
<path d="M22.425 9.375L18.0203 13.2978V16.286H22.425V9.375Z" fill="#D5B55D"/>
<path d="M14.2546 17.623L9.28711 22.0348H18.0209V30.804L22.4256 26.8921V17.623H14.2438H14.2546Z" fill="white"/>
</g>
<defs>
<clipPath id="clip0_266_61750">
<rect width="40" height="40" fill="white"/>
</clipPath>
</defs>
</svg>
