<svg width="56" height="56" viewBox="0 0 56 56" fill="none" xmlns="http://www.w3.org/2000/svg">
<g clip-path="url(#clip0_266_61995)">
<path d="M0 28C0 29.6486 0 29.8318 0.039289 31.2318C0.14406 34.3327 0.471469 37.8916 1.71562 41.6467C2.59308 44.3028 4.24322 47.1682 5.89335 48.9739C7.9888 51.2765 10.883 53.1605 14.0131 54.2335C17.2086 55.3325 20.666 55.869 27.3845 56H28.6287C35.3601 55.856 38.8045 55.3325 42 54.2335C45.1301 53.1605 48.0112 51.2765 50.1065 48.9739C51.757 47.1552 53.407 44.3028 54.2845 41.6467C55.5285 37.8916 55.869 34.3196 55.9605 31.2318C56 29.8449 56 29.6486 56 28C56 26.3514 56 26.1682 55.9605 24.7682C55.856 21.6673 55.5285 18.1084 54.2845 14.3532C53.407 11.6972 51.757 8.83175 50.1065 7.02615C48.0112 4.72337 45.117 2.83925 42 1.76636C38.8045 0.66729 35.347 0.130841 28.6287 0H27.3845C20.653 0.143925 17.2086 0.66729 14.0131 1.76636C10.883 2.83925 8.00185 4.72337 5.89335 7.02615C4.24322 8.84485 2.59308 11.6972 1.71562 14.3532C0.484565 18.1084 0.14406 21.6673 0.039289 24.7682C0 26.1551 0 26.3514 0 28Z" fill="#5A280B"/>
<path d="M26.6203 32.2349C26.9101 32.2349 27.422 32.4942 28.1217 33.3003C31.3098 37.0302 35.0602 40.2306 39.2352 42.7838C39.7282 43.0718 40 43.2864 40 43.5684C40 43.7647 39.9725 43.9844 39.5438 43.9844C37.4219 43.725 35.3346 43.232 33.3191 42.5141C32.1737 41.945 29.7061 39.8181 26.7661 34.435C26.4203 33.9526 26.1859 33.3983 26.0802 32.8126C26.0713 32.6694 26.1189 32.5284 26.2128 32.4206C26.3066 32.3128 26.439 32.2469 26.5809 32.2373C26.5939 32.2345 26.6071 32.2338 26.6203 32.2349Z" fill="#488AC9"/>
<path d="M36.2592 15.578C36.2592 15.578 37.0094 17.1478 29.7018 18.2402C30.4983 15.8462 31.0222 14.2712 31.0222 14.2712C31.1886 13.8831 31.2013 13.4455 31.0578 13.0482C30.9143 12.6509 30.6254 12.3241 30.2506 12.1349C30.0751 12.0534 29.8854 12.0076 29.6924 12C29.316 12.0401 28.9602 12.1935 28.6713 12.4403C28.3825 12.6871 28.174 13.0158 28.0728 13.3838L25.901 18.6596C23.9338 18.8165 21.9574 18.8165 19.9902 18.6596C18.6681 18.5203 18.3277 19.297 18.3277 20.0919C18.3277 21.4757 20.6289 22.882 22.1002 22.7289C23.0236 22.6364 23.5672 22.594 24.3165 22.5136L16.2391 42.0973C15.9322 42.829 15.6852 44 17.0682 44C18.4512 44 21.5746 42.6525 22.0959 41.0983C22.3154 40.4427 23.9247 35.6045 25.7158 30.2154C27.3877 29.8825 29.0764 29.6428 30.7745 29.4975C31.6318 29.4975 32.0674 29.9075 32.0674 30.3944C32.0674 31.5188 29.5184 34.7578 24.5738 38.7458C24.0294 39.1835 24.4812 39.5303 24.7581 39.5303C26.8763 38.5301 28.8484 37.2416 30.6192 35.7006C32.4661 34.2173 35.7096 30.3521 35.7096 27.6355C35.7096 26.5639 35.2629 25.583 33.2343 25.583C31.1684 25.6643 29.108 25.8522 27.0611 26.1461C27.5412 24.7 28.0145 23.2799 28.4578 21.9531C32.2791 21.3918 34.553 21.0268 35.9051 20.7284C37.7519 20.3106 39.23 19.1846 39.23 18.0231C39.2429 15.5486 36.2592 15.578 36.2592 15.578Z" fill="white"/>
</g>
<defs>
<clipPath id="clip0_266_61995">
<rect width="56" height="56" fill="white"/>
</clipPath>
</defs>
</svg>
