<svg width="40" height="40" viewBox="0 0 40 40" fill="none" xmlns="http://www.w3.org/2000/svg">
<g clip-path="url(#clip0_266_61605)">
<path d="M0 20C0 21.1776 0 21.3084 0.0280636 22.3084C0.1029 24.5234 0.336763 27.0654 1.22544 29.7476C1.8522 31.6449 3.03087 33.6916 4.20954 34.9813C5.70629 36.6261 7.77361 37.9718 10.0094 38.7382C12.2919 39.5232 14.7615 39.9064 19.5603 40H20.449C25.2573 39.8971 27.7175 39.5232 30 38.7382C32.2358 37.9718 34.2938 36.6261 35.7904 34.9813C36.9693 33.6823 38.1479 31.6449 38.7746 29.7476C39.6632 27.0654 39.9064 24.514 39.9718 22.3084C40 21.3178 40 21.1776 40 20C40 18.8224 40 18.6916 39.9718 17.6916C39.8971 15.4766 39.6632 12.9346 38.7746 10.2523C38.1479 8.35514 36.9693 6.30839 35.7904 5.01868C34.2938 3.37383 32.2264 2.02804 30 1.26168C27.7175 0.476636 25.2479 0.0934579 20.449 0H19.5603C14.7521 0.102804 12.2919 0.476636 10.0094 1.26168C7.77361 2.02804 5.71561 3.37383 4.20954 5.01868C3.03087 6.31775 1.8522 8.35514 1.22544 10.2523C0.346118 12.9346 0.1029 15.4766 0.0280636 17.6916C0 18.6823 0 18.8224 0 20Z" fill="#009E9F"/>
<path d="M20 40C31.0457 40 40 31.0457 40 20C40 8.95432 31.0457 0 20 0C8.95432 0 0 8.95432 0 20C0 31.0457 8.95432 40 20 40Z" fill="#009E9F"/>
<mask id="mask0_266_61605" style="mask-type:luminance" maskUnits="userSpaceOnUse" x="0" y="0" width="40" height="40">
<path d="M20 40C31.0457 40 40 31.0457 40 20C40 8.95432 31.0457 0 20 0C8.95432 0 0 8.95432 0 20C0 31.0457 8.95432 40 20 40Z" fill="white"/>
</mask>
<g mask="url(#mask0_266_61605)">
<path d="M23.5379 21.8934C23.4892 21.5816 23.3996 21.2777 23.2714 20.9893C22.906 20.1268 22.2778 19.4016 21.4763 18.9168C20.8444 18.5441 20.1232 18.3498 19.3897 18.3546C18.6561 18.3594 17.9376 18.5631 17.3106 18.944C16.7254 19.2933 16.25 19.7999 15.9388 20.4062C15.8344 20.6122 15.7474 20.8265 15.6787 21.047C15.4877 21.62 15.4145 22.2258 15.4633 22.8278C15.5121 23.4299 15.6819 24.0159 15.9627 24.5507C16.1577 24.8774 16.4525 25.1329 16.8036 25.2796C16.9792 25.35 17.1686 25.3791 17.3572 25.3648C17.5459 25.3504 17.7287 25.293 17.8916 25.1969C18.0722 25.0578 18.2074 24.8682 18.28 24.6521C18.3525 24.436 18.3592 24.2032 18.299 23.9833C18.1571 23.4252 18.1708 22.8387 18.3387 22.2878C18.4024 22.1072 18.505 21.9428 18.6395 21.8064C18.7739 21.6834 18.9338 21.5916 19.1077 21.5374C19.2816 21.4833 19.4654 21.4681 19.6459 21.4931C19.8572 21.5385 20.0548 21.6333 20.2226 21.7695C20.3904 21.9059 20.5236 22.0799 20.6114 22.2775C20.7825 22.6739 20.8714 23.1011 20.8725 23.5329C20.8786 25.4339 20.5957 27.3247 20.0337 29.1406C19.9836 29.3272 19.9325 29.51 19.8803 29.6954C19.8406 29.8369 19.7672 30.0218 19.8575 30.1568C19.8985 30.214 19.9551 30.2584 20.0206 30.2846C20.1476 30.321 20.2829 30.3168 20.4074 30.2726C20.5319 30.2284 20.6396 30.1465 20.7153 30.0381C21.7793 28.9037 22.5637 27.5365 23.0064 26.0455C23.1908 25.4989 23.3379 24.9404 23.4465 24.3739C23.6166 23.5583 23.6449 22.7197 23.5303 21.8945" fill="white"/>
<path d="M31.4279 13.2448C31.4251 13.1822 31.41 13.1207 31.3833 13.064C31.3566 13.0072 31.319 12.9563 31.2726 12.9142C31.2262 12.8721 31.1719 12.8396 31.1129 12.8185C31.0538 12.7975 30.9912 12.7884 30.9286 12.7917H30.9095C30.6396 12.83 30.3778 12.9122 30.1344 13.0348C25.1935 14.796 19.8909 15.2952 14.7081 14.4872C13.8345 14.3594 12.949 14.1842 12.0699 14.0488C11.5205 13.9639 10.9771 13.8388 10.4223 13.7991C9.924 13.7011 9.40711 13.7985 8.97861 14.0711C8.75946 14.311 8.62336 14.6151 8.59043 14.9384C8.5575 15.2617 8.62957 15.587 8.79586 15.8661C9.17171 16.5036 9.71421 17.0264 10.3651 17.3784C10.9684 17.8057 11.6827 18.0487 12.4213 18.0779C14.3741 17.9535 16.321 17.7651 18.2619 17.5127C21.6348 17.2395 24.958 16.5298 28.1484 15.4016C29.1797 14.9953 30.1521 14.4529 31.0395 13.7888C31.1973 13.668 31.4252 13.4733 31.4252 13.2448" fill="white"/>
<path d="M17.5238 11.5869C17.5238 12.0928 17.7248 12.578 18.0826 12.9358C18.4403 13.2936 18.9256 13.4945 19.4315 13.4945C19.9374 13.4945 20.4226 13.2936 20.7804 12.9358C21.1382 12.578 21.3392 12.0928 21.3392 11.5869C21.3385 11.4305 21.3036 11.2763 21.2369 11.1348C21.0737 10.79 20.8871 10.6219 20.9067 10.2101C20.9306 9.65308 20.2121 9.64494 19.8253 9.64494C19.3958 9.63151 18.9688 9.71618 18.5769 9.89243C18.2733 10.0466 18.0154 10.2776 17.829 10.5626C17.64 10.857 17.5352 11.1975 17.526 11.5471V11.5901" fill="white"/>
</g>
</g>
<defs>
<clipPath id="clip0_266_61605">
<rect width="40" height="40" fill="white"/>
</clipPath>
</defs>
</svg>
