<svg width="24" height="24" viewBox="0 0 24 24" fill="none" xmlns="http://www.w3.org/2000/svg">
<g clip-path="url(#clip0_266_60930)">
<path d="M0 12.003C0 12.7048 0 12.7888 0.0180045 13.3887C0.036009 14.9003 0.282071 16.4059 0.738184 17.8515C1.12828 19.0033 1.73443 20.071 2.52662 20.9887C3.48088 22.0144 4.67518 22.7882 6.0015 23.2442C7.36984 23.718 8.85221 23.94 11.7329 24H12.2671C15.1478 23.94 16.6242 23.712 17.9985 23.2442C19.3248 22.7882 20.5191 22.0144 21.4734 20.9887C22.2656 20.065 22.8778 19.0033 23.2618 17.8515C23.718 16.4059 23.964 14.9063 23.982 13.3887C24 12.7948 24 12.7108 24 12.003C24 11.2952 24 11.2172 23.982 10.6233C23.964 9.11172 23.718 7.60611 23.2618 6.16045C22.8718 5.00875 22.2656 3.94101 21.4734 3.01724C20.5191 1.9915 19.3248 1.21769 17.9985 0.761811C16.6302 0.287928 15.1478 0.059985 12.2671 0H11.7329C8.85221 0.059985 7.36984 0.287928 6.0015 0.755811C4.67518 1.2117 3.48088 1.9855 2.52662 3.01124C1.73443 3.93501 1.12828 4.99675 0.738184 6.15445C0.282071 7.60611 0.0420105 9.10572 0.0180045 10.6233C0 11.2172 0 11.3012 0 12.003Z" fill="#00854A"/>
<path d="M9.96312 10.5876C9.58295 10.2355 9.12095 9.94558 8.56295 9.74895C8.28329 9.64952 7.82129 9.50537 7.4276 9.50537C7.08963 9.50537 6.80161 9.6129 6.72719 9.95205C6.58801 10.5993 6.65277 16.1545 6.70334 16.7965C6.73878 17.2698 6.93661 17.5458 7.48752 17.5347C11.3288 17.4726 12.3363 12.7903 9.96312 10.5876Z" fill="white"/>
<path d="M14.3645 6.12649C14.0195 5.80677 13.5958 5.54344 13.0935 5.36592C12.8387 5.27393 12.4199 5.14307 12.0622 5.14307C11.7526 5.14307 11.493 5.24316 11.4237 5.55055C11.2971 6.13622 11.3577 11.18 11.4015 11.7653C11.435 12.1926 11.6131 12.4426 12.1135 12.4355C15.602 12.3769 16.5196 8.12575 14.3645 6.12649Z" fill="white"/>
<path d="M15.9047 10.8149C15.472 10.4139 14.9381 10.0822 14.308 9.85897C13.9858 9.74399 13.4587 9.58008 13.0115 9.58008C12.6239 9.58008 12.2941 9.70349 12.2096 10.0906C12.0479 10.8278 12.1259 17.1644 12.1816 17.8994C12.2248 18.4397 12.4468 18.7506 13.0744 18.7416C17.4598 18.671 18.6126 13.3278 15.9047 10.8149Z" fill="white"/>
</g>
<defs>
<clipPath id="clip0_266_60930">
<rect width="24" height="24" fill="white"/>
</clipPath>
</defs>
</svg>
