<svg width="24" height="24" viewBox="0 0 24 24" fill="none" xmlns="http://www.w3.org/2000/svg">
<path d="M16.996 8H7.99597" stroke="white" stroke-width="1.5" stroke-linecap="round" stroke-linejoin="round"/>
<path d="M14 16H16.996" stroke="white" stroke-width="1.5" stroke-linecap="round" stroke-linejoin="round"/>
<path d="M16.996 12H14" stroke="white" stroke-width="1.5" stroke-linecap="round" stroke-linejoin="round"/>
<path d="M13 21H18C18.7956 21 19.5587 20.6839 20.1213 20.1213C20.6839 19.5587 21 18.7956 21 18V6C21 5.20435 20.6839 4.44129 20.1213 3.87868C19.5587 3.31607 18.7956 3 18 3H7C6.20435 3 5.44129 3.31607 4.87868 3.87868C4.31607 4.44129 4 5.20435 4 6V10" stroke="white" stroke-width="1.5" stroke-linecap="round" stroke-linejoin="round"/>
<path d="M8.5 13H4.5C3.67157 13 3 13.6716 3 14.5V15.5C3 16.3284 3.67157 17 4.5 17H8.5C9.32843 17 10 16.3284 10 15.5V14.5C10 13.6716 9.32843 13 8.5 13Z" stroke="white" stroke-width="1.5" stroke-linecap="round" stroke-linejoin="round"/>
<path d="M8.5 17H4.5C3.67157 17 3 17.6716 3 18.5V19.5C3 20.3284 3.67157 21 4.5 21H8.5C9.32843 21 10 20.3284 10 19.5V18.5C10 17.6716 9.32843 17 8.5 17Z" stroke="white" stroke-width="1.5" stroke-linecap="round" stroke-linejoin="round"/>
</svg>
