<svg width="24" height="24" viewBox="0 0 24 24" fill="none" xmlns="http://www.w3.org/2000/svg">
<path d="M12 2C6.475 2 2 6.475 2 12C2 17.525 6.475 22 12 22C17.525 22 22 17.525 22 12C22 6.475 17.525 2 12 2ZM12 20.5C7.315 20.5 3.5 16.685 3.5 12C3.5 7.315 7.315 3.5 12 3.5C16.685 3.5 20.5 7.315 20.5 12C20.5 16.685 16.685 20.5 12 20.5Z" fill="#707070"/>
<path d="M14.1752 12.2802C13.9752 12.0802 13.7351 11.9002 13.4451 11.7402C13.1551 11.5802 12.7902 11.4101 12.3402 11.2301C11.8902 11.0501 11.5852 10.8752 11.4202 10.7052C11.2552 10.5352 11.1752 10.3052 11.1752 10.0202C11.1752 9.71516 11.2602 9.47516 11.4252 9.30016C11.5952 9.12516 11.8302 9.04015 12.1402 9.04015C12.4502 9.04015 12.7001 9.15015 12.8851 9.37515C12.9751 9.48515 13.0452 9.62515 13.0952 9.79015C13.1902 10.1351 13.5052 10.3802 13.8652 10.3802C14.4252 10.3802 14.8052 9.82015 14.6152 9.29015C14.5252 9.03015 14.3951 8.80015 14.2251 8.59515C13.8501 8.13515 13.3302 7.86015 12.6702 7.76515V7.23515C12.6702 6.98515 12.4702 6.78516 12.2202 6.78516C11.9702 6.78516 11.7702 6.98515 11.7702 7.23515V7.74515C11.1002 7.81015 10.5601 8.05015 10.1601 8.45515C9.76014 8.86015 9.55516 9.37515 9.55516 10.0101C9.55516 10.3751 9.61515 10.6952 9.73015 10.9602C9.85015 11.2252 10.0101 11.4552 10.2251 11.6552C10.4351 11.8502 10.6902 12.0252 10.9852 12.1752C11.2802 12.3252 11.6301 12.4801 12.0401 12.6351C12.4501 12.7901 12.7351 12.9551 12.9101 13.1351C13.0801 13.3151 13.1651 13.5601 13.1651 13.8701C13.1651 14.1801 13.0701 14.4001 12.8801 14.5751C12.6901 14.7501 12.4301 14.8352 12.1001 14.8352C11.7051 14.8352 11.4002 14.7151 11.1852 14.4801C11.0852 14.3651 11.0102 14.2302 10.9552 14.0702C10.8352 13.7102 10.5102 13.4552 10.1252 13.4552C9.60017 13.4552 9.23016 13.9752 9.39516 14.4752C9.50016 14.7902 9.66017 15.0652 9.87517 15.3002C10.2952 15.7602 10.8901 16.0352 11.6601 16.1152V16.6002C11.6601 16.8452 11.8601 17.0452 12.1051 17.0452C12.3501 17.0452 12.5502 16.8452 12.5502 16.6002V16.1102C13.2452 16.0402 13.7952 15.8052 14.1902 15.4102C14.5852 15.0152 14.7851 14.4952 14.7851 13.8602C14.7851 13.5202 14.7351 13.2201 14.6301 12.9651C14.5251 12.7101 14.3752 12.4802 14.1752 12.2802Z" fill="#707070"/>
</svg>
