<svg width="24" height="24" viewBox="0 0 24 24" fill="none" xmlns="http://www.w3.org/2000/svg">
<path d="M14.0026 20.525C13.0648 20.8332 12.0626 21 11.0213 21C5.76283 21 1.5 16.7467 1.5 11.5C1.5 6.25329 5.76283 2 11.0213 2C15.6906 2 19.575 5.35365 20.3867 9.77855" stroke="white" stroke-linecap="round" stroke-linejoin="round"/>
<path d="M11.0687 21C8.40741 21 6.25 16.7467 6.25 11.5C6.25 6.25329 8.40741 2 11.0687 2C13.3346 2 15.2353 5.08342 15.75 9.2381" stroke="white" stroke-linecap="round" stroke-linejoin="round"/>
<path d="M2.5 8H19.5" stroke="white" stroke-linecap="round" stroke-linejoin="round"/>
<path d="M2.5 15H11.5" stroke="white" stroke-linecap="round" stroke-linejoin="round"/>
<path d="M17.75 11C20.1131 11 22 12.8486 22 15.0938C22 16.3487 21.4765 17.5668 20.7529 18.6455C20.0315 19.7209 19.1362 20.6199 18.4551 21.2256C18.0438 21.5913 17.4562 21.5913 17.0449 21.2256C16.3638 20.6199 15.4685 19.7209 14.7471 18.6455C14.0235 17.5668 13.5 16.3487 13.5 15.0938C13.5 12.8486 15.3869 11 17.75 11ZM17.75 13.3438C16.6842 13.3438 15.8252 14.2124 15.8252 15.2773C15.8252 16.3423 16.6842 17.2109 17.75 17.2109C18.8158 17.2109 19.6748 16.3423 19.6748 15.2773C19.6748 14.2124 18.8158 13.3438 17.75 13.3438Z" stroke="white" stroke-linecap="round" stroke-linejoin="round"/>
</svg>
