<svg width="24" height="24" viewBox="0 0 24 24" fill="none" xmlns="http://www.w3.org/2000/svg">
<path d="M16.864 7.80074L13.199 4.13574" stroke="#D3D3D3" stroke-width="1.5" stroke-linecap="round" stroke-linejoin="round"/>
<path d="M5.328 19H2V15.672C1.99986 15.5375 2.02629 15.4043 2.07777 15.2801C2.12925 15.1558 2.20477 15.043 2.3 14.948L15.948 1.29901C16.1403 1.10751 16.4006 1 16.672 1C16.9434 1 17.2037 1.10751 17.396 1.29901L19.696 3.599C19.8877 3.79116 19.9954 4.05154 19.9954 4.323C19.9954 4.59446 19.8877 4.85484 19.696 5.047L6.051 18.701C5.95606 18.7959 5.84334 18.8712 5.71928 18.9225C5.59522 18.9738 5.46225 19.0001 5.328 19Z" stroke="#D3D3D3" stroke-width="1.5" stroke-linecap="round" stroke-linejoin="round"/>
<path d="M2 22H22" stroke="#D3D3D3" stroke-width="1.5" stroke-linecap="round"/>
</svg>
