<svg width="24" height="24" viewBox="0 0 24 24" fill="none" xmlns="http://www.w3.org/2000/svg">
<path d="M22 18V6C22 4.89543 21.1046 4 20 4L4 4C2.89543 4 2 4.89543 2 6V18C2 19.1046 2.89543 20 4 20H20C21.1046 20 22 19.1046 22 18Z" stroke="#D3D3D3" stroke-width="1.5" stroke-linecap="round" stroke-linejoin="round"/>
<path d="M14 9.5H17" stroke="#D3D3D3" stroke-width="1.5" stroke-linecap="round"/>
<path d="M19 12.5H14" stroke="#D3D3D3" stroke-width="1.5" stroke-linecap="round"/>
<path d="M8.49976 11.5C9.60433 11.5 10.4998 10.6046 10.4998 9.5C10.4998 8.39543 9.60433 7.5 8.49976 7.5C7.39519 7.5 6.49976 8.39543 6.49976 9.5C6.49976 10.6046 7.39519 11.5 8.49976 11.5Z" stroke="#D3D3D3" stroke-width="1.5" stroke-linecap="round" stroke-linejoin="round"/>
<path d="M11.9949 16.5C11.8429 15.8817 11.5818 15.2956 11.2239 14.769C11.0034 14.4027 10.6969 14.0957 10.3309 13.8746C9.96501 13.6535 9.55066 13.5249 9.12384 13.5H7.86584C7.43903 13.5249 7.02474 13.6535 6.65881 13.8746C6.29289 14.0957 5.98639 14.4027 5.76587 14.769C5.40801 15.2956 5.14693 15.8818 4.99487 16.5" stroke="#D3D3D3" stroke-width="1.5" stroke-linecap="round" stroke-linejoin="round"/>
</svg>
