<svg width="24" height="24" viewBox="0 0 24 24" fill="none" xmlns="http://www.w3.org/2000/svg">
<mask id="mask0_262_3431" style="mask-type:luminance" maskUnits="userSpaceOnUse" x="2" y="2" width="20" height="20">
<path d="M21.25 2.75V21.25H2.75V2.75H21.25Z" fill="white" stroke="white"/>
</mask>
<g mask="url(#mask0_262_3431)">
<path d="M16 12.0002C16 12.7914 15.7654 13.5647 15.3259 14.2225C14.8864 14.8803 14.2617 15.393 13.5308 15.6958C12.7998 15.9985 11.9956 16.0777 11.2197 15.9234C10.4437 15.769 9.731 15.3881 9.17159 14.8287C8.61218 14.2693 8.23122 13.5565 8.07688 12.7806C7.92254 12.0047 8.00175 11.2004 8.3045 10.4695C8.60725 9.7386 9.11994 9.11389 9.77774 8.67436C10.4355 8.23484 11.2089 8.00024 12 8.00024C13.0609 8.00024 14.0783 8.42167 14.8284 9.17181C15.5786 9.92196 16 10.9394 16 12.0002ZM16 12.0002V13.5002C16 14.1633 16.2634 14.7992 16.7323 15.268C17.2011 15.7368 17.837 16.0002 18.5 16.0002C19.1631 16.0002 19.7989 15.7368 20.2678 15.268C20.7366 14.7992 21 14.1633 21 13.5002V12.0002C21.006 9.97595 20.3323 8.00823 19.087 6.41231C17.8417 4.81639 16.0968 3.68463 14.1317 3.19833C12.1667 2.71203 10.0953 2.89934 8.24943 3.73025C6.40352 4.56115 4.88991 5.98758 3.95108 7.781C3.01224 9.57443 2.70252 11.6311 3.07151 13.6215C3.44051 15.6118 4.46688 17.4208 5.9862 18.7585C7.50552 20.0962 9.42986 20.8852 11.4509 20.9993C13.472 21.1133 15.4729 20.5456 17.133 19.3872" stroke="white" stroke-width="1.5" stroke-linecap="round" stroke-linejoin="round"/>
</g>
</svg>
