<svg width="24" height="24" viewBox="0 0 24 24" fill="none" xmlns="http://www.w3.org/2000/svg">
<path d="M12.253 11.006C13.4973 11.006 14.506 9.9973 14.506 8.753C14.506 7.5087 13.4973 6.5 12.253 6.5C11.0087 6.5 10 7.5087 10 8.753C10 9.9973 11.0087 11.006 12.253 11.006Z" stroke="#707070" stroke-width="1.5" stroke-linecap="round" stroke-linejoin="round"/>
<path d="M15.9421 16.379C15.771 15.6826 15.4771 15.0222 15.0741 14.429C14.8257 14.0165 14.4805 13.6708 14.0684 13.4218C13.6563 13.1728 13.1898 13.028 12.7091 13H11.2921C10.8114 13.028 10.3448 13.1728 9.93274 13.4218C9.52064 13.6708 9.17544 14.0165 8.92706 14.429C8.52374 15.0222 8.22951 15.6825 8.05811 16.379" stroke="#707070" stroke-width="1.5" stroke-linecap="round" stroke-linejoin="round"/>
<path d="M21 12.6128C21 17.0538 15.774 20.3528 13.283 21.6778C12.8893 21.8885 12.4496 21.9988 12.003 21.9988C11.5564 21.9988 11.1167 21.8885 10.723 21.6778C8.23198 20.3538 3.00099 17.0468 3.00099 12.6108V6.19778C2.99943 5.91313 3.1016 5.63764 3.28841 5.42285C3.47522 5.20807 3.73386 5.06871 4.01598 5.03079C6.41874 4.8346 8.71337 3.94721 10.623 2.47577C11.0158 2.16661 11.5011 1.99854 12.001 1.99854C12.5009 1.99854 12.9862 2.16661 13.379 2.47577C15.2886 3.94721 17.5832 4.8346 19.986 5.03079C20.2683 5.06898 20.527 5.20874 20.7136 5.42392C20.9003 5.6391 21.0021 5.91492 21 6.19977V12.6128Z" stroke="#707070" stroke-width="1.5" stroke-linecap="round" stroke-linejoin="round"/>
</svg>
