<svg width="24" height="24" viewBox="0 0 24 24" fill="none" xmlns="http://www.w3.org/2000/svg">
<path d="M10.6828 8.68281L9.71899 7.73298C9.65011 7.65975 9.56705 7.60132 9.47487 7.56126C9.3827 7.52121 9.28334 7.50037 9.18285 7.5C8.7047 7.58259 8.27199 7.83412 7.96335 8.20888C6.7359 9.43052 8.12648 12.499 10.0383 14.3987C11.7153 16.0584 13.4978 16.9983 14.8386 16.9983C15.1036 17.0093 15.3682 16.9669 15.6165 16.8735C15.8648 16.7801 16.0918 16.6377 16.2839 16.4547C16.5893 16.156 17.396 15.3416 16.7654 14.7103L15.8025 13.7595C15.7393 13.6667 15.655 13.5903 15.5564 13.5368C15.4577 13.4833 15.3477 13.4542 15.2356 13.4519C14.8953 13.4851 14.5819 13.6519 14.3642 13.9158C14.2983 13.9793 14.2203 14.0287 14.1348 14.061C14.0493 14.0934 13.9581 14.108 13.8668 14.104C13.0058 13.9162 12.225 13.4637 11.6338 12.8097C9.715 10.8951 10.5147 10.1085 10.5147 10.1085C11.4766 9.16569 10.6828 8.68281 10.6828 8.68281Z" fill="#B0B0B0"/>
<circle cx="12" cy="12" r="9.25" stroke="#B0B0B0" stroke-width="1.5"/>
</svg>
