<svg width="24" height="24" viewBox="0 0 24 24" fill="none" xmlns="http://www.w3.org/2000/svg">
<path d="M15.721 18.8759V19.0479C15.721 19.4192 15.5735 19.7753 15.3109 20.0378C15.0484 20.3004 14.6923 20.4479 14.321 20.4479H4.09299C3.72169 20.4479 3.36559 20.3004 3.10304 20.0378C2.84049 19.7753 2.69299 19.4192 2.69299 19.0479V5.09287C2.69299 4.72157 2.84049 4.36547 3.10304 4.10292C3.36559 3.84037 3.72169 3.69287 4.09299 3.69287H14.326C14.6973 3.69287 15.0534 3.84037 15.3159 4.10292C15.5785 4.36547 15.726 4.72157 15.726 5.09287V13.9299" stroke="white" stroke-width="1.5" stroke-linecap="round" stroke-linejoin="round"/>
<path d="M15.7209 9.27881H16.9209C17.3539 9.27858 17.781 9.37961 18.1679 9.57381L18.7759 9.87381C19.2105 10.0908 19.5807 10.4176 19.8499 10.8218L21.2989 12.9958" stroke="white" stroke-width="1.5" stroke-linecap="round" stroke-linejoin="round"/>
<path d="M15.72 13.9309L13.51 11.5829C13.2656 11.3313 12.9364 11.1795 12.5863 11.1572C12.2363 11.1348 11.8904 11.2435 11.616 11.462C11.3416 11.6805 11.1583 11.9932 11.1018 12.3394C11.0452 12.6856 11.1194 13.0404 11.31 13.3349L14.089 17.5149C14.5478 18.2044 15.2234 18.7213 16.009 18.9839L20.376 20.4429" stroke="white" stroke-width="1.5" stroke-linecap="round" stroke-linejoin="round"/>
<path d="M17.1159 13.9297H15.7209" stroke="white" stroke-width="1.5" stroke-linecap="round" stroke-linejoin="round"/>
<path d="M5.48804 13.4648H7.34804" stroke="white" stroke-width="1.5" stroke-linecap="round" stroke-linejoin="round"/>
<path d="M5.48804 16.2559H9.20904" stroke="white" stroke-width="1.5" stroke-linecap="round" stroke-linejoin="round"/>
<path d="M12 6.48779L9.20904 9.27879L7.34804 8.34779L5.48804 10.2088" stroke="white" stroke-width="1.5" stroke-linecap="round" stroke-linejoin="round"/>
</svg>
