<svg width="24" height="24" viewBox="0 0 24 24" fill="none" xmlns="http://www.w3.org/2000/svg">
<path d="M17 20.5C17.55 20.5 18 20.05 18 19.5V4.5C18 3.945 17.55 3.5 17 3.5H6V19.5C6 20.05 6.445 20.5 7 20.5H17ZM17 22H7C5.62 22 4.5 20.88 4.5 19.5V2H17C18.38 2 19.5 3.12 19.5 4.5V19.5C19.5 20.88 18.38 22 17 22Z" fill="#B0B0B0"/>
<path d="M13.4199 6.5H10.9199C10.5049 6.5 10.1699 6.165 10.1699 5.75C10.1699 5.335 10.5049 5 10.9199 5H13.4199C13.8349 5 14.1699 5.335 14.1699 5.75C14.1699 6.165 13.8349 6.5 13.4199 6.5Z" fill="#B0B0B0"/>
<path d="M11.4551 16.0003H11.3901C11.1951 16.0003 11.0051 15.9303 10.8601 15.7853C10.8051 15.7303 10.7751 15.6653 10.7401 15.6053L8.86008 13.7253C8.57008 13.4353 8.57008 12.9603 8.86008 12.6653C9.00508 12.5203 9.20008 12.4453 9.39008 12.4453C9.58008 12.4453 9.77508 12.5203 9.92008 12.6653L11.4201 14.1653L14.9201 10.6653C15.0651 10.5203 15.2601 10.4453 15.4501 10.4453C15.7001 10.4453 15.9501 10.5703 16.1001 10.8203C16.2801 11.1203 16.2001 11.5103 15.9501 11.7553L12.1001 15.6053C12.0651 15.6703 12.0351 15.7353 11.9801 15.7853C11.8351 15.9303 11.6401 16.0003 11.4501 16.0003H11.4551Z" fill="#B0B0B0"/>
</svg>
