<svg width="24" height="24" viewBox="0 0 24 24" fill="none" xmlns="http://www.w3.org/2000/svg">
<path d="M8.5 12.25C5.88 12.25 3.75 10.12 3.75 7.5C3.75 4.88 5.88 2.75 8.5 2.75C11.12 2.75 13.25 4.88 13.25 7.5C13.25 10.12 11.12 12.25 8.5 12.25ZM8.5 4.25C6.71 4.25 5.25 5.71 5.25 7.5C5.25 9.29 6.71 10.75 8.5 10.75C10.29 10.75 11.75 9.29 11.75 7.5C11.75 5.71 10.29 4.25 8.5 4.25Z" fill="#212121"/>
<path d="M16.75 21.75H15.25V19.25C15.25 17.46 13.79 16 12 16H5C3.21 16 1.75 17.46 1.75 19.25V21.75H0.25V19.25C0.25 16.63 2.38 14.5 5 14.5H12C14.62 14.5 16.75 16.63 16.75 19.25V21.75Z" fill="#212121"/>
<path d="M19.2507 14.8097L16.7207 12.2797L17.7807 11.2197L19.2507 12.6897L22.4707 9.46973L23.5307 10.5297L19.2507 14.8097Z" fill="#212121"/>
</svg>
