<svg width="28" height="28" viewBox="0 0 28 28" fill="none" xmlns="http://www.w3.org/2000/svg">
<path d="M21.25 26H6.75C5.49071 25.9984 4.28345 25.4975 3.393 24.607C2.50254 23.7165 2.00159 22.5093 2 21.25V6.75C2.00159 5.49071 2.50254 4.28345 3.393 3.393C4.28345 2.50254 5.49071 2.00159 6.75 2H21.25C22.5093 2.00159 23.7165 2.50254 24.607 3.393C25.4975 4.28345 25.9984 5.49071 26 6.75V21.25C25.9984 22.5093 25.4975 23.7165 24.607 24.607C23.7165 25.4975 22.5093 25.9984 21.25 26ZM6.75 3.5C5.88837 3.50106 5.06234 3.84381 4.45307 4.45307C3.84381 5.06234 3.50106 5.88837 3.5 6.75V21.25C3.50106 22.1116 3.84381 22.9377 4.45307 23.5469C5.06234 24.1562 5.88837 24.4989 6.75 24.5H21.25C22.1116 24.4989 22.9377 24.1562 23.5469 23.5469C24.1562 22.9377 24.4989 22.1116 24.5 21.25V6.75C24.4989 5.88837 24.1562 5.06234 23.5469 4.45307C22.9377 3.84381 22.1116 3.50106 21.25 3.5H6.75Z" fill="white"/>
<path d="M8.89994 10.9101L10.5649 15.6101C10.5719 15.6295 10.5847 15.6461 10.6015 15.6579C10.6184 15.6697 10.6384 15.676 10.6589 15.676C10.6795 15.676 10.6995 15.6697 10.7163 15.6579C10.7331 15.6461 10.7459 15.6295 10.7529 15.6101L12.4089 10.9101C12.4434 10.8128 12.5072 10.7285 12.5916 10.6689C12.6759 10.6093 12.7766 10.5772 12.8799 10.5771H14.0039C14.1365 10.5771 14.2637 10.6298 14.3575 10.7236C14.4513 10.8174 14.5039 10.9445 14.5039 11.0771V17.3851C14.5039 17.5178 14.4513 17.6449 14.3575 17.7387C14.2637 17.8325 14.1365 17.8851 14.0039 17.8851H13.4999C13.3673 17.8851 13.2402 17.8325 13.1464 17.7387C13.0526 17.6449 12.9999 17.5178 12.9999 17.3851V15.8851L13.1139 13.0851C13.1149 13.0613 13.1073 13.0378 13.0925 13.0191C13.0777 13.0003 13.0567 12.9875 13.0332 12.9829C13.0098 12.9783 12.9855 12.9823 12.9647 12.994C12.9439 13.0058 12.928 13.0247 12.9199 13.0471L11.2919 17.5471C11.257 17.6438 11.1931 17.7273 11.109 17.7864C11.0249 17.8454 10.9247 17.8771 10.8219 17.8772H10.4889C10.3862 17.8771 10.2859 17.8454 10.2018 17.7864C10.1177 17.7273 10.0539 17.6438 10.0189 17.5471L8.39294 13.0471C8.38484 13.0247 8.36897 13.0058 8.34818 12.994C8.3274 12.9823 8.30308 12.9783 8.27963 12.9829C8.25618 12.9875 8.23515 13.0003 8.22035 13.0191C8.20555 13.0378 8.19795 13.0613 8.19894 13.0851L8.32094 15.8751V17.3751C8.32094 17.5078 8.26826 17.6349 8.17449 17.7287C8.08072 17.8225 7.95355 17.8751 7.82094 17.8751H7.31494C7.18233 17.8751 7.05516 17.8225 6.96139 17.7287C6.86762 17.6349 6.81494 17.5078 6.81494 17.3751V11.0771C6.81494 10.9445 6.86762 10.8174 6.96139 10.7236C7.05516 10.6298 7.18233 10.5771 7.31494 10.5771H8.42894C8.53223 10.5772 8.63296 10.6093 8.7173 10.6689C8.80164 10.7285 8.86544 10.8128 8.89994 10.9101Z" fill="white"/>
<path d="M18.431 13.6722L19.722 10.8722C19.7619 10.7853 19.8259 10.7118 19.9064 10.6602C19.9869 10.6086 20.0804 10.5812 20.176 10.5812H20.683C20.7686 10.5812 20.8528 10.6032 20.9275 10.6451C21.0023 10.6869 21.0649 10.7473 21.1096 10.8204C21.1543 10.8935 21.1794 10.9768 21.1826 11.0624C21.1859 11.148 21.167 11.233 21.128 11.3092L19.128 15.2182C19.1207 15.2324 19.1169 15.2482 19.117 15.2642V17.3902C19.117 17.5228 19.0643 17.65 18.9705 17.7437C18.8768 17.8375 18.7496 17.8902 18.617 17.8902H18.081C17.9484 17.8902 17.8212 17.8375 17.7274 17.7437C17.6337 17.65 17.581 17.5228 17.581 17.3902V15.2592C17.5811 15.2432 17.5773 15.2274 17.57 15.2132L15.557 11.3052C15.5177 11.2289 15.4987 11.1438 15.5018 11.0581C15.5049 10.9724 15.53 10.8889 15.5747 10.8157C15.6194 10.7424 15.6822 10.6819 15.757 10.64C15.8318 10.5981 15.9162 10.5761 16.002 10.5762H16.508C16.6036 10.5762 16.6971 10.6036 16.7776 10.6552C16.858 10.7068 16.922 10.7804 16.962 10.8672L18.253 13.6672C18.2609 13.6838 18.2733 13.6979 18.2887 13.708C18.3041 13.718 18.3221 13.7236 18.3405 13.7241C18.3589 13.7246 18.3771 13.7201 18.393 13.7109C18.409 13.7017 18.4221 13.6883 18.431 13.6722Z" fill="white"/>
</svg>
