<svg width="28" height="28" viewBox="0 0 28 28" fill="none" xmlns="http://www.w3.org/2000/svg">
<circle cx="14" cy="14" r="11.25" stroke="white" stroke-width="1.5"/>
<path d="M12.8552 15.1931C12.7447 15.1931 12.6552 15.2826 12.6552 15.3931V17.9103C12.6552 18.0208 12.5656 18.1103 12.4552 18.1103H11.2C11.0895 18.1103 11 18.0208 11 17.9103V10.2C11 10.0895 11.0895 10 11.2 10H14.5483C15.3069 10 15.9069 10.2345 16.3483 10.7034C16.7828 11.1655 17 11.8 17 12.6069C16.9931 13.1793 16.8379 13.7 16.5345 14.169C16.0862 14.8517 15.4034 15.1931 14.4862 15.1931H12.8552ZM12.6552 13.6069C12.6552 13.7174 12.7447 13.8069 12.8552 13.8069H14.1241C14.6483 13.8069 15.0069 13.6379 15.2 13.3C15.3034 13.1138 15.3552 12.8586 15.3552 12.5345C15.3552 12.1345 15.2379 11.8448 15.0034 11.6655C14.7759 11.4862 14.4138 11.3966 13.9172 11.3966H12.8552C12.7447 11.3966 12.6552 11.4861 12.6552 11.5966V13.6069Z" fill="white"/>
</svg>
