<svg width="40" height="40" viewBox="0 0 40 40" fill="none" xmlns="http://www.w3.org/2000/svg">
<path d="M30.5 10V4C30.5 2.34315 29.1569 1 27.5 1H12.5C10.8431 1 9.5 2.34315 9.5 4V10" stroke="white" stroke-width="1.5" stroke-linecap="round" stroke-linejoin="round"/>
<circle cx="20" cy="35" r="1" fill="white"/>
<path d="M30.5 30V36C30.5 37.6569 29.1569 39 27.5 39H12.5C10.8431 39 9.5 37.6569 9.5 36V30" stroke="white" stroke-width="1.5" stroke-linecap="round" stroke-linejoin="round"/>
<path d="M23 5H17" stroke="white" stroke-width="1.5" stroke-linecap="round" stroke-linejoin="round"/>
<path d="M5.5 10L3.5 10C2.94771 10 2.5 10.4477 2.5 11L2.5 29C2.5 29.5523 2.94772 30 3.5 30L5.5 30" stroke="white" stroke-width="1.5" stroke-linecap="round" stroke-linejoin="round"/>
<path d="M34.5 10L36.5 10C37.0523 10 37.5 10.4477 37.5 11L37.5 29C37.5 29.5523 37.0523 30 36.5 30L34.5 30" stroke="white" stroke-width="1.5" stroke-linecap="round" stroke-linejoin="round"/>
<path d="M8 15V25" stroke="white" stroke-width="1.5" stroke-linecap="round" stroke-linejoin="round"/>
<path d="M11 15V25" stroke="white" stroke-width="1.5" stroke-linecap="round" stroke-linejoin="round"/>
<path d="M14 15V25" stroke="white" stroke-width="1.5" stroke-linecap="round" stroke-linejoin="round"/>
<path d="M20 15V25" stroke="white" stroke-width="1.5" stroke-linecap="round" stroke-linejoin="round"/>
<path d="M26 15V25" stroke="white" stroke-width="1.5" stroke-linecap="round" stroke-linejoin="round"/>
<path d="M29 15V25" stroke="white" stroke-width="1.5" stroke-linecap="round" stroke-linejoin="round"/>
<path d="M32 15V25" stroke="white" stroke-width="1.5" stroke-linecap="round" stroke-linejoin="round"/>
<path d="M33.5 20H5.5" stroke="#E24949" stroke-width="1.5" stroke-linecap="round" stroke-linejoin="round"/>
</svg>
