<svg width="28" height="28" viewBox="0 0 28 28" fill="none" xmlns="http://www.w3.org/2000/svg">
<path d="M14 28C21.732 28 28 21.732 28 14C28 6.26801 21.732 0 14 0C6.26801 0 0 6.26801 0 14C0 21.732 6.26801 28 14 28Z" fill="#9871C7"/>
<path d="M18.8998 19.4688C18.8998 19.6637 18.7448 19.8187 18.5498 19.8187H9.4498C9.2548 19.8187 9.09981 19.6637 9.09981 19.4688V10.0188H18.5498C18.7448 10.0188 18.8998 10.1738 18.8998 10.3688V16.1738C18.8998 16.4638 19.1348 16.6987 19.4248 16.6987C19.7148 16.6987 19.9498 16.4638 19.9498 16.1738V10.3688C19.9498 9.59377 19.3248 8.96875 18.5498 8.96875H8.0498V19.4688C8.0498 20.2437 8.6748 20.8688 9.4498 20.8688H18.5498C19.3248 20.8688 19.9498 20.2437 19.9498 19.4688V18.6238C19.9498 18.3338 19.7148 18.0988 19.4248 18.0988C19.1348 18.0988 18.8998 18.3338 18.8998 18.6238V19.4688Z" fill="white"/>
<path d="M13.3754 16.8281H10.9254C10.6355 16.8281 10.4004 17.0632 10.4004 17.3531C10.4004 17.6431 10.6355 17.8782 10.9254 17.8782H13.3754C13.6653 17.8782 13.9004 17.6431 13.9004 17.3531C13.9004 17.0632 13.6653 16.8281 13.3754 16.8281Z" fill="white"/>
<path d="M15.5 7.13961C14.585 7.22461 13.915 8.04957 13.915 8.97457C13.915 8.97457 13.92 8.98959 13.93 8.98959H14.965V8.93466C14.965 8.57966 15.205 8.24455 15.56 8.19455C15.995 8.12955 16.3651 8.46461 16.3651 8.88461V13.0346C16.3651 13.3896 16.1251 13.7246 15.7701 13.7746C15.3351 13.8396 14.965 13.5046 14.965 13.0846V11.1396C14.965 10.8496 14.73 10.6146 14.44 10.6146C14.15 10.6146 13.915 10.8496 13.915 11.1396V12.9946C13.915 13.9146 14.585 14.7446 15.5 14.8296C16.54 14.9246 17.415 14.1046 17.415 13.0846V8.88461C17.415 7.86461 16.54 7.04961 15.5 7.13961Z" fill="white"/>
</svg>
