<svg width="28" height="28" viewBox="0 0 28 28" fill="none" xmlns="http://www.w3.org/2000/svg">
<path d="M14 28C21.732 28 28 21.732 28 14C28 6.26801 21.732 0 14 0C6.26801 0 0 6.26801 0 14C0 21.732 6.26801 28 14 28Z" fill="#5C9CB8"/>
<path d="M17.1699 18.2938L18.2949 17.2188L18.8249 18.8038C18.8349 18.8288 18.8099 18.8538 18.7799 18.8488L17.1699 18.2938Z" fill="white"/>
<path d="M17.4948 13.2804C17.2248 13.3754 17.0798 13.6703 17.1698 13.9403L18.6698 18.4403C18.7098 18.5603 18.6198 18.6704 18.5048 18.6704C18.4848 18.6704 18.4648 18.6704 18.4448 18.6604L10.2298 15.8203C10.2298 15.8203 10.2098 15.7954 10.2198 15.7804L15.7548 10.4953C15.7898 10.4603 15.8348 10.4453 15.8748 10.4453C15.9448 10.4453 16.0148 10.4903 16.0398 10.5653L16.4998 11.9453C16.5898 12.2203 16.8948 12.3704 17.1698 12.2754C17.4398 12.1804 17.5848 11.8853 17.4948 11.6153L17.0548 10.3004C16.9048 9.85539 16.5398 9.49038 16.0748 9.41538C15.6848 9.35038 15.3048 9.47533 15.0248 9.74033L9.4598 15.0504L8.2398 16.2153C8.2398 16.2153 8.22981 16.2503 8.24981 16.2553L9.83981 16.8054L18.0898 19.6604C18.2198 19.7054 18.3548 19.7303 18.4898 19.7303C18.8798 19.7303 19.2548 19.5403 19.4848 19.2203C19.7148 18.9003 19.7748 18.4903 19.6548 18.1153L18.1548 13.6153C18.0648 13.3403 17.7598 13.1904 17.4848 13.2854L17.4948 13.2804Z" fill="white"/>
<path d="M13.1447 7.40784C13.1447 7.11789 12.9097 6.88281 12.6197 6.88281C12.3298 6.88281 12.0947 7.11789 12.0947 7.40784V9.10278C12.0947 9.39273 12.3298 9.62781 12.6197 9.62781C12.9097 9.62781 13.1447 9.39273 13.1447 9.10278V7.40784Z" fill="white"/>
<path d="M9.62151 8.93348C9.41649 8.72846 9.08406 8.72844 8.87904 8.93346C8.67401 9.13849 8.67404 9.47091 8.87906 9.67594L10.0776 10.8744C10.2826 11.0795 10.615 11.0795 10.82 10.8745C11.0251 10.6694 11.025 10.337 10.82 10.132L9.62151 8.93348Z" fill="white"/>
<path d="M9.09021 13.1672C9.38016 13.1672 9.61523 12.9321 9.61523 12.6422C9.61523 12.3522 9.38016 12.1172 9.09021 12.1172H7.39526C7.10531 12.1172 6.87024 12.3522 6.87024 12.6422C6.87024 12.9321 7.10531 13.1672 7.39526 13.1672H9.09021Z" fill="white"/>
</svg>
