<svg width="28" height="28" viewBox="0 0 28 28" fill="none" xmlns="http://www.w3.org/2000/svg">
<path d="M14 28C21.732 28 28 21.732 28 14C28 6.26801 21.732 0 14 0C6.26801 0 0 6.26801 0 14C0 21.732 6.26801 28 14 28Z" fill="#C27E9F"/>
<path d="M21.8746 18.5312H6.12461C5.83466 18.5312 5.59961 18.7663 5.59961 19.0563C5.59961 19.3462 5.83466 19.5812 6.12461 19.5812H21.8746C22.1646 19.5812 22.3996 19.3462 22.3996 19.0563C22.3996 18.7663 22.1646 18.5312 21.8746 18.5312Z" fill="white"/>
<path d="M8.24043 13.8484C8.24043 10.6634 10.8304 8.07336 14.0154 8.07336C17.2004 8.07336 19.7904 10.6634 19.7904 13.8484C19.7904 15.2234 19.3054 16.4884 18.5004 17.4784H19.7854C20.4504 16.4234 20.8404 15.1834 20.8404 13.8484C20.8404 10.0834 17.7804 7.02344 14.0154 7.02344C10.2504 7.02344 7.19043 10.0834 7.19043 13.8484C7.19043 15.1834 7.58043 16.4234 8.24543 17.4784H9.53043C8.72543 16.4834 8.24043 15.2234 8.24043 13.8484Z" fill="white"/>
<path d="M17.5503 12.923H16.8903L17.1853 12.2079C17.2953 11.9379 17.1653 11.633 16.9003 11.523C16.6353 11.413 16.3253 11.543 16.2153 11.808L15.2903 14.0679L14.4953 11.808C14.4253 11.603 14.2353 11.4629 14.0153 11.4579C13.7953 11.4429 13.6003 11.578 13.5153 11.778L12.5753 14.003L11.9103 11.803C11.8253 11.523 11.5303 11.3679 11.2553 11.4529C10.9753 11.5379 10.8203 11.828 10.9053 12.108L11.1503 12.923H10.4703C10.1803 12.923 9.94531 13.1579 9.94531 13.4479C9.94531 13.7379 10.1803 13.973 10.4703 13.973H11.4703L11.9953 15.6979C12.0603 15.9079 12.2503 16.0579 12.4703 16.0679C12.4803 16.0679 12.4903 16.0679 12.5003 16.0679C12.7103 16.0679 12.9003 15.943 12.9853 15.748L13.9603 13.433L14.7603 15.7129C14.8303 15.9179 15.0253 16.0579 15.2403 16.0629C15.4653 16.0779 15.6553 15.938 15.7403 15.738L16.4653 13.9629H17.5553C17.8453 13.9629 18.0803 13.7279 18.0803 13.4379C18.0803 13.1479 17.8453 12.913 17.5553 12.913L17.5503 12.923Z" fill="white"/>
</svg>
