<svg width="28" height="28" viewBox="0 0 28 28" fill="none" xmlns="http://www.w3.org/2000/svg">
<g clip-path="url(#clip0_262_7315)">
<path d="M3.28516 16.5971C3.46335 16.2965 3.70203 16.0362 3.98596 15.8326C4.2699 15.629 4.593 15.4865 4.93481 15.4141C5.27663 15.3418 5.62971 15.3411 5.9718 15.4122C6.31389 15.4833 6.63754 15.6245 6.92224 15.827L11.3832 18.809C11.3832 18.809 12.4612 23.4231 12.1202 23.3371C11.7792 23.2511 3.40723 18.9301 3.40723 18.9301L3.28516 16.5971Z" fill="#E4A562"/>
<path d="M27.9923 27.996L24.0414 25.8C23.4831 25.454 22.8502 25.2555 22.1991 25.2222C21.548 25.1889 20.899 25.3218 20.3101 25.6091C18.9795 26.2575 17.6094 26.8164 16.2084 27.2822C15.5657 27.6444 14.8446 27.8342 14.1117 27.8342C13.3787 27.8342 12.6576 27.6444 12.0149 27.2822C9.75907 26.0366 0.680666 20.0132 0.680666 20.0132C0.307423 19.6299 0.0723384 19.1273 0.0141594 18.5882C-0.0440196 18.0491 0.0781797 17.5058 0.360616 17.0477C1.41843 15.5654 3.2169 16.6162 4.64503 17.67C6.07317 18.7238 8.79409 20.5102 8.8376 20.5391C8.8376 20.5162 8.8579 19.2467 11.0489 18.8182C13.4182 18.4313 15.7006 17.61 17.7874 16.3935C19.5404 15.2006 27.9932 17.1004 27.9932 17.1004L28 28L27.9923 27.996Z" fill="#F3C894"/>
<g filter="url(#filter0_i_262_7315)">
<path d="M19.9364 1.75211C18.991 0.70166 17.6778 0.074277 16.2821 0.00618229C14.8863 -0.0619125 13.5207 0.434777 12.4814 1.38841L12.2934 1.55919L12.1054 1.38841C11.0671 0.434832 9.70219 -0.0619218 8.30717 0.00618229C6.91215 0.0742864 5.59981 0.701744 4.65538 1.75211C3.72724 2.80385 3.2439 4.18746 3.31082 5.60143C3.37773 7.0154 3.98941 8.34508 5.01255 9.30057L12.2953 16L19.5781 9.30057C19.7511 9.13811 19.9138 8.96458 20.0653 8.7811C20.8871 7.79494 21.3275 6.53622 21.3038 5.24171C21.28 3.9472 20.7937 2.70617 19.9364 1.75211Z" fill="#E8504E"/>
</g>
</g>
<defs>
<filter id="filter0_i_262_7315" x="-0.695312" y="0" width="22" height="16" filterUnits="userSpaceOnUse" color-interpolation-filters="sRGB">
<feFlood flood-opacity="0" result="BackgroundImageFix"/>
<feBlend mode="normal" in="SourceGraphic" in2="BackgroundImageFix" result="shape"/>
<feColorMatrix in="SourceAlpha" type="matrix" values="0 0 0 0 0 0 0 0 0 0 0 0 0 0 0 0 0 0 127 0" result="hardAlpha"/>
<feOffset dx="-4"/>
<feGaussianBlur stdDeviation="2"/>
<feComposite in2="hardAlpha" operator="arithmetic" k2="-1" k3="1"/>
<feColorMatrix type="matrix" values="0 0 0 0 0.882353 0 0 0 0 0.407843 0 0 0 0 0.403922 0 0 0 1 0"/>
<feBlend mode="normal" in2="shape" result="effect1_innerShadow_262_7315"/>
</filter>
<clipPath id="clip0_262_7315">
<rect width="28" height="28" fill="white"/>
</clipPath>
</defs>
</svg>
