<svg width="32" height="32" viewBox="0 0 32 32" fill="none" xmlns="http://www.w3.org/2000/svg">
<g clip-path="url(#clip0_266_55590)">
<path d="M0 16.0003C0 16.9423 0 17.0471 0.03 17.8471C0.0822857 19.6191 0.276857 21.6529 0.987714 23.7986C1.48914 25.3163 2.43171 26.9537 3.37457 27.9854C4.57171 29.3014 6.22514 30.378 8.00571 30.9911C9.83143 31.6191 11.8066 31.9257 15.6446 32.0006H16.3554C20.2011 31.9183 22.1689 31.6191 23.9943 30.9911C25.7826 30.378 27.4286 29.3014 28.6331 27.9854C29.576 26.9463 30.5186 25.3163 31.02 23.7986C31.7309 21.6529 31.9254 19.6117 31.9777 17.8471C32.0003 17.0546 32.0003 16.9426 32.0003 16.0003C32.0003 15.058 32.0003 14.946 31.9777 14.1534C31.918 12.3814 31.7309 10.3477 31.02 8.20199C30.5189 6.68428 29.576 5.04685 28.6331 4.01514C27.436 2.69914 25.7826 1.62257 23.9943 1.00943C22.1686 0.381428 20.1934 0.074857 16.3554 0H15.6446C11.7989 0.0822856 9.83114 0.381428 8.00571 1.00943C6.21743 1.62257 4.57143 2.69914 3.37457 4.01514C2.43171 5.05428 1.48914 6.68428 0.987714 8.20199C0.276857 10.348 0.0822857 12.3817 0.03 14.1534C0 14.946 0 15.058 0 16.0003Z" fill="#0C7DCA"/>
<path d="M12.5313 19.1415H7.73358C7.71758 19.0523 7.69358 18.9552 7.68558 18.8497C7.66158 16.8735 7.63758 14.8972 7.62158 12.9209C7.62158 12.7589 7.66158 12.5403 7.76587 12.4349C9.31187 10.8392 10.8656 9.25975 12.5236 7.71289V19.1415H12.5313Z" fill="white"/>
<path d="M8.03506 19.5562H19.0482V24.329C18.9459 24.337 18.8359 24.3607 18.7179 24.3607C16.7985 24.3687 14.8791 24.3847 12.9519 24.3767C12.7711 24.3767 12.5351 24.2973 12.4091 24.1699C10.9302 22.6267 9.45906 21.0676 8.02734 19.5562" fill="white"/>
<path d="M12.991 12.4449V7.6243H15.4767C16.6724 7.6243 17.8681 7.6083 19.0715 7.6243C19.2524 7.6243 19.4807 7.70373 19.6144 7.82316C21.1327 9.31058 22.6353 10.814 24.1375 12.3097C24.1533 12.3257 24.1533 12.3574 24.177 12.4369H12.991V12.4449Z" fill="white"/>
<path d="M19.487 24.3078V12.8872H24.3433C24.3433 12.9521 24.3593 13.0415 24.3593 13.1226C24.3673 15.1032 24.3833 17.0918 24.3833 19.0724C24.3833 19.2752 24.295 19.5269 24.1505 19.6729C22.6493 21.2152 21.1325 22.7492 19.6233 24.2832C19.6073 24.2995 19.567 24.2912 19.4788 24.3158" fill="white"/>
</g>
<defs>
<clipPath id="clip0_266_55590">
<rect width="32" height="32" fill="white"/>
</clipPath>
</defs>
</svg>
