<svg width="40" height="40" viewBox="0 0 40 40" fill="none" xmlns="http://www.w3.org/2000/svg">
<g clip-path="url(#clip0_266_55849)">
<path fill-rule="evenodd" clip-rule="evenodd" d="M4.60486 4.60643L9.99743 10.0009L19.9983 0H19.5604C14.7521 0.102804 12.2919 0.476636 10.0094 1.26168C7.96343 1.96298 6.06636 3.14951 4.60486 4.60643Z" fill="#008CCF"/>
<path fill-rule="evenodd" clip-rule="evenodd" d="M0 19.9983L9.99739 10.0009L4.60482 4.60645C4.46921 4.74162 4.33739 4.87909 4.20954 5.01873C3.03087 6.3178 1.8522 8.35519 1.22544 10.2524C0.346118 12.9346 0.1029 15.4767 0.0280636 17.6916C1.37942e-05 18.6818 0 18.8223 0 19.9983Z" fill="#0098D7"/>
<path fill-rule="evenodd" clip-rule="evenodd" d="M3.87686e-05 20.3571H20.3571L10.0036 10L0 20.0001C0 20.1312 1.21483e-08 20.2494 3.87686e-05 20.3571Z" fill="#008CCF"/>
<path fill-rule="evenodd" clip-rule="evenodd" d="M20.0018 0L10.0044 9.99739L20.0018 19.9982V0Z" fill="#007AC6"/>
<path fill-rule="evenodd" clip-rule="evenodd" d="M20.0017 0V19.9982L29.9956 10.0009L20.0017 0Z" fill="#0067B6"/>
<path fill-rule="evenodd" clip-rule="evenodd" d="M40 19.9984L30.0026 9.99756L20.0017 19.9984H40Z" fill="#004294"/>
<path fill-rule="evenodd" clip-rule="evenodd" d="M0 19.998L9.99739 30.0024L19.9982 19.998H0Z" fill="#007AC6"/>
<path fill-rule="evenodd" clip-rule="evenodd" d="M0.0280636 22.3082C0 21.3082 0 21.1774 0 19.9998V19.998L9.99739 30.0024L4.60368 35.3942C4.46832 35.2588 4.33686 35.121 4.20954 34.9811C3.03087 33.6914 1.8522 31.6447 1.22544 29.7474C0.336763 27.0652 0.1029 24.5232 0.0280636 22.3082Z" fill="#0067B6"/>
<path fill-rule="evenodd" clip-rule="evenodd" d="M19.3885 39.9964H20.0017L10.0043 29.9956L4.60364 35.3944C6.05921 36.851 7.96378 38.0371 10.0093 38.7382C12.2644 39.5139 14.7022 39.8971 19.3885 39.9964Z" fill="#0054A7"/>
<path fill-rule="evenodd" clip-rule="evenodd" d="M20.0018 19.998V39.9962L10.0044 29.9954L20.0018 19.998Z" fill="#004898"/>
<path fill-rule="evenodd" clip-rule="evenodd" d="M29.9956 30.0024L20.0017 19.998H39.9964L29.9956 30.0024Z" fill="#092C86"/>
<path fill-rule="evenodd" clip-rule="evenodd" d="M20.0017 39.9962V19.998L29.9956 30.0024L20.0017 39.9962Z" fill="#004294"/>
<path fill-rule="evenodd" clip-rule="evenodd" d="M35.398 35.3929L30.0026 29.9956L20.0017 39.9964H20.6068C25.3113 39.8889 27.7426 39.5146 30 38.7382C32.0462 38.0367 33.9436 36.85 35.398 35.3929Z" fill="#092C86"/>
<path fill-rule="evenodd" clip-rule="evenodd" d="M40 19.998L30.0026 29.9954L35.398 35.3927C35.5327 35.2578 35.6636 35.1205 35.7903 34.9811C36.9692 33.682 38.1478 31.6447 38.7746 29.7474C39.6632 27.0652 39.9064 24.5138 39.9717 22.3082C40 21.3176 40 21.1774 40 19.9999C40 19.9994 40 19.9986 40 19.998Z" fill="#092C86"/>
<path fill-rule="evenodd" clip-rule="evenodd" d="M20.0017 0L29.9956 10.0009L35.3936 4.60289C33.9385 3.14759 32.0357 1.96241 30 1.26168C27.7175 0.476636 25.2479 0.0934579 20.449 0H20.0017Z" fill="#0054A7"/>
<path fill-rule="evenodd" clip-rule="evenodd" d="M35.3953 4.60449L30.0026 9.99728L40 19.9981C40 18.8222 40 18.691 39.9717 17.6915C39.8971 15.4765 39.6632 12.9345 38.7746 10.2522C38.1478 8.35503 36.9692 6.30828 35.7903 5.01856C35.6628 4.87831 35.531 4.74024 35.3953 4.60449Z" fill="#004898"/>
<path fill-rule="evenodd" clip-rule="evenodd" d="M39.8092 24.8224L27.1922 12.8042L7.76013 32.2849L14.85 39.3746L27.1922 27.2167L35.4054 35.3854C35.5375 35.2528 35.6658 35.1181 35.7903 34.9813C36.9689 33.6822 38.1478 31.6448 38.7746 29.7476C39.3421 28.0338 39.6467 26.3733 39.8092 24.8224Z" fill="white"/>
</g>
<defs>
<clipPath id="clip0_266_55849">
<rect width="40" height="40" fill="white"/>
</clipPath>
</defs>
</svg>
