<svg width="24" height="24" viewBox="0 0 24 24" fill="none" xmlns="http://www.w3.org/2000/svg">
<g clip-path="url(#clip0_266_55166)">
<path d="M0 12C0 12.7065 0 12.785 0.0168342 13.385C0.0617254 14.714 0.202011 16.2393 0.735094 17.8486C1.11106 18.9869 1.8181 20.2149 2.52514 20.9888C3.42296 21.9756 4.66307 22.783 6.0042 23.2429C7.3734 23.7139 8.8548 23.9438 11.7334 24H12.2666C15.1508 23.9383 16.6266 23.7139 17.9958 23.2429C19.3369 22.783 20.5714 21.9756 21.4749 20.9888C22.182 20.2093 22.8889 18.9869 23.265 17.8486C23.7979 16.2393 23.9439 14.7084 23.9831 13.385C24 12.7906 24 12.7065 24 12C24 11.2935 24 11.2093 23.9831 10.6149C23.9383 9.28598 23.7979 7.76074 23.265 6.15139C22.8889 5.01308 22.182 3.78504 21.4749 3.01121C20.577 2.0243 19.3369 1.21682 17.9958 0.757008C16.6266 0.285981 15.1452 0.0560747 12.2666 0H11.7334C8.84919 0.0616821 7.3734 0.285981 6.0042 0.757008C4.66307 1.21682 3.42857 2.0243 2.52514 3.01121C1.8181 3.79065 1.11106 5.01308 0.735094 6.15139C0.207622 7.76074 0.0617254 9.28598 0.0168342 10.6149C0 11.2093 0 11.2935 0 12Z" fill="#A30236"/>
<path d="M18.8571 12.093C18.8571 8.30562 15.7873 5.23535 11.9995 5.23535C8.21261 5.23535 5.14282 8.30562 5.14282 12.093C5.14282 15.8789 8.21261 18.9506 11.9995 18.9506C15.7873 18.9506 18.8571 15.8789 18.8571 12.093ZM11.21 9.29459H10.3625C9.45948 9.29459 8.72741 10.0257 8.72741 10.9302V13.2557C8.72741 14.1597 9.45948 14.8909 10.3625 14.8909H11.21V17.4159C8.61157 17.0324 6.61908 14.796 6.61908 12.093C6.61908 9.38992 8.61157 7.1531 11.21 6.76955V9.29459ZM13.6341 10.7732C13.7234 10.7732 13.7934 10.8452 13.7934 10.9316V13.2539C13.7934 13.3403 13.7234 13.4118 13.6341 13.4118H10.3649C10.2766 13.4118 10.207 13.3403 10.207 13.2539V10.9316C10.207 10.8452 10.2766 10.7732 10.3649 10.7732H13.6341ZM17.3799 12.093C17.3799 14.796 15.3874 17.0324 12.7913 17.4159V14.8909H13.6369C14.5395 14.8909 15.273 14.1597 15.273 13.2557V10.9302C15.273 10.0257 14.5395 9.29459 13.6369 9.29459H12.7913V6.76955C15.3874 7.1531 17.3799 9.38992 17.3799 12.093Z" fill="white"/>
</g>
<defs>
<clipPath id="clip0_266_55166">
<rect width="24" height="24" fill="white"/>
</clipPath>
</defs>
</svg>
