<svg width="32" height="32" viewBox="0 0 32 32" fill="none" xmlns="http://www.w3.org/2000/svg">
<g clip-path="url(#clip0_266_55341)">
<path d="M0 16C0 16.9421 0 17.0467 0.0224509 17.8467C0.08232 19.6187 0.269411 21.6523 0.980354 23.7981C1.48176 25.3159 2.4247 26.9533 3.36763 27.9851C4.56503 29.3009 6.21889 30.3774 8.00749 30.9906C9.83349 31.6186 11.8092 31.9251 15.6483 32H16.3592C20.2058 31.9177 22.174 31.6186 24 30.9906C25.7886 30.3774 27.435 29.3009 28.6323 27.9851C29.5754 26.9458 30.5183 25.3159 31.0197 23.7981C31.7306 21.6523 31.9251 19.6112 31.9774 17.8467C32 17.0542 32 16.9421 32 16C32 15.0579 32 14.9533 31.9774 14.1533C31.9177 12.3813 31.7306 10.3477 31.0197 8.20186C30.5183 6.68411 29.5754 5.04671 28.6323 4.01494C27.435 2.69907 25.7811 1.62243 24 1.00935C22.174 0.381309 20.1983 0.0747663 16.3592 0H15.6483C11.8017 0.0822429 9.83349 0.381309 8.00749 1.00935C6.21889 1.62243 4.57249 2.69907 3.36763 4.01494C2.4247 5.0542 1.48176 6.68411 0.980354 8.20186C0.276894 10.3477 0.08232 12.3813 0.0224509 14.1533C0 14.9458 0 15.0579 0 16Z" fill="#009E9F"/>
<path d="M16 32C24.8365 32 32 24.8365 32 16C32 7.16346 24.8365 0 16 0C7.16346 0 0 7.16346 0 16C0 24.8365 7.16346 32 16 32Z" fill="#009E9F"/>
<mask id="mask0_266_55341" style="mask-type:luminance" maskUnits="userSpaceOnUse" x="0" y="0" width="32" height="32">
<path d="M16 32C24.8365 32 32 24.8365 32 16C32 7.16346 24.8365 0 16 0C7.16346 0 0 7.16346 0 16C0 24.8365 7.16346 32 16 32Z" fill="white"/>
</mask>
<g mask="url(#mask0_266_55341)">
<path d="M18.8302 17.5147C18.7913 17.2653 18.7196 17.0221 18.617 16.7915C18.3247 16.1015 17.8221 15.5213 17.1809 15.1335C16.6754 14.8353 16.0985 14.6798 15.5116 14.6837C14.9248 14.6875 14.35 14.8505 13.8484 15.1552C13.3802 15.4346 12.9999 15.8399 12.7509 16.325C12.6674 16.4898 12.5978 16.6612 12.5429 16.8376C12.3901 17.296 12.3315 17.7806 12.3705 18.2622C12.4096 18.7439 12.5454 19.2127 12.77 19.6405C12.9261 19.9019 13.1619 20.1063 13.4428 20.2237C13.5833 20.28 13.7348 20.3033 13.8857 20.2918C14.0366 20.2803 14.1828 20.2344 14.3132 20.1575C14.4577 20.0463 14.5658 19.8946 14.6239 19.7217C14.6819 19.5488 14.6872 19.3625 14.6391 19.1867C14.5256 18.7401 14.5365 18.271 14.6709 17.8302C14.7218 17.6857 14.8039 17.5542 14.9115 17.4451C15.019 17.3467 15.1469 17.2733 15.2861 17.2299C15.4252 17.1866 15.5722 17.1745 15.7166 17.1945C15.8856 17.2308 16.0438 17.3066 16.178 17.4156C16.3122 17.5247 16.4188 17.6639 16.489 17.822C16.6259 18.1391 16.697 18.4809 16.6979 18.8263C16.7028 20.3471 16.4765 21.8597 16.0268 23.3125C15.9868 23.4617 15.9459 23.608 15.9042 23.7563C15.8724 23.8695 15.8136 24.0175 15.8859 24.1254C15.9187 24.1712 15.964 24.2067 16.0164 24.2277C16.118 24.2568 16.2262 24.2534 16.3258 24.2181C16.4254 24.1827 16.5116 24.1172 16.5722 24.0305C17.4233 23.1229 18.0509 22.0292 18.405 20.8364C18.5526 20.3991 18.6702 19.9523 18.7571 19.4991C18.8932 18.8467 18.9158 18.1757 18.8241 17.5156" fill="white"/>
<path d="M25.1423 10.5955C25.1401 10.5453 25.1279 10.4962 25.1066 10.4508C25.0853 10.4054 25.0552 10.3647 25.018 10.331C24.9809 10.2973 24.9375 10.2713 24.8902 10.2544C24.843 10.2376 24.7929 10.2303 24.7428 10.2329H24.7276C24.5117 10.2636 24.3022 10.3293 24.1074 10.4275C20.1547 11.8364 15.9127 12.2358 11.7665 11.5894C11.0676 11.4871 10.3591 11.347 9.65589 11.2386C9.21637 11.1707 8.78166 11.0707 8.3378 11.0389C7.93914 10.9605 7.52563 11.0384 7.18283 11.2565C7.00752 11.4484 6.89863 11.6917 6.87229 11.9503C6.84595 12.209 6.9036 12.4692 7.03663 12.6925C7.33732 13.2025 7.77132 13.6207 8.29206 13.9023C8.77466 14.2441 9.34609 14.4385 9.937 14.4619C11.4993 14.3624 13.0568 14.2117 14.6095 14.0098C17.3078 13.7912 19.9663 13.2235 22.5186 12.3209C23.3437 11.9959 24.1216 11.5619 24.8316 11.0306C24.9578 10.934 25.1401 10.7782 25.1401 10.5955" fill="white"/>
<path d="M14.019 9.269C14.019 9.67377 14.1798 10.0619 14.466 10.3482C14.7522 10.6344 15.1404 10.7951 15.5451 10.7951C15.9499 10.7951 16.338 10.6344 16.6242 10.3482C16.9104 10.0619 17.0712 9.67377 17.0712 9.269C17.0707 9.14395 17.0428 9.02052 16.9894 8.90737C16.8589 8.63149 16.7096 8.497 16.7253 8.16757C16.7444 7.72197 16.1696 7.71546 15.8602 7.71546C15.5166 7.70472 15.175 7.77246 14.8614 7.91346C14.6185 8.03677 14.4122 8.22163 14.2631 8.44957C14.1119 8.68509 14.0281 8.95749 14.0207 9.23723V9.27163" fill="white"/>
</g>
</g>
<defs>
<clipPath id="clip0_266_55341">
<rect width="32" height="32" fill="white"/>
</clipPath>
</defs>
</svg>
