<svg width="24" height="24" viewBox="0 0 24 24" fill="none" xmlns="http://www.w3.org/2000/svg">
<g clip-path="url(#clip0_266_54847)">
<path d="M0 12V13.38C0 14.88 0.24 16.38 0.72 17.82C1.08 18.96 1.74 20.04 2.52 20.94C3.48 21.96 4.68 22.74 6 23.22C7.38 23.7 8.82 23.94 11.7 24H12.24C15.12 24 16.62 23.7 18 23.22C19.32 22.74 20.52 22.02 21.48 20.94C22.26 20.04 22.86 18.96 23.28 17.82C23.76 16.38 24 14.88 24 13.38V10.62C24 9.12 23.76 7.62 23.28 6.18C22.92 5.04 22.26 3.96 21.48 3.06C20.52 2.04 19.32 1.26 18 0.78C16.62 0.3 15.18 0.06 12.3 0H11.76C8.88 0.06 7.38 0.3 6 0.78C4.68 1.26 3.48 1.98 2.52 3.06C1.74 3.96 1.14 5.04 0.72 6.18C0.3 7.62 0 9.12 0 10.62V12Z" fill="#7E7266"/>
<path d="M0 12V13.38C0 14.88 0.24 16.38 0.72 17.82C1.08 18.96 1.74 20.04 2.52 20.94C3.48 21.96 4.68 22.74 6 23.22C7.38 23.7 8.82 23.94 11.7 24H12.24C15.12 24 16.62 23.7 18 23.22C19.32 22.74 20.52 22.02 21.48 20.94C22.26 20.04 22.86 18.96 23.28 17.82C23.76 16.38 24 14.88 24 13.38V10.62C24 9.12 23.76 7.62 23.28 6.18C22.92 5.04 22.26 3.96 21.48 3.06C20.52 2.04 19.32 1.26 18 0.78C16.62 0.3 15.18 0.06 12.3 0H11.76C8.88 0.06 7.38 0.3 6 0.78C4.68 1.26 3.48 1.98 2.52 3.06C1.74 3.96 1.14 5.04 0.72 6.18C0.3 7.62 0 9.12 0 10.62V12Z" fill="#60584C"/>
<path d="M19.2001 12.1198H19.0801C18.6001 11.5798 17.8801 11.3398 17.2201 11.4598C16.6201 11.4598 16.0801 11.6998 15.6001 11.9998V10.6798C15.6001 10.4398 15.6001 10.2598 15.4801 10.0798C15.4801 10.0798 15.4201 10.0198 15.3601 10.0198C15.1201 10.0198 14.8201 10.1398 14.5801 10.2598V10.3798C14.5801 10.7398 14.4601 11.0398 14.4001 11.3998C14.2801 12.3598 14.2801 13.1998 14.4001 14.0398C14.4001 14.0998 14.5801 14.2198 14.6401 14.2798C14.8801 14.2798 15.1201 14.2798 15.3601 14.1598H15.4201C15.4801 14.1598 15.5401 14.0998 15.5401 14.0398V13.7998C15.7201 13.0798 16.3201 12.4798 17.1001 12.2998C17.4601 12.2398 17.8801 12.2998 18.1201 12.5998C18.1801 12.9598 18.1201 13.3198 17.9401 13.6198C17.7001 14.0398 17.2801 14.3998 16.8001 14.5198C16.2001 14.6998 15.6001 14.8198 15.0001 14.7598L14.3401 14.3398C13.7401 13.9198 13.1401 13.4998 12.4801 13.1998C12.3001 13.1398 12.1801 13.0198 12.0601 12.8998H12.0001C11.6401 12.5398 10.9801 12.1198 10.3801 11.7598L10.0801 11.5798C10.0801 11.5198 10.4401 11.2798 10.4401 11.2798C10.7401 11.1598 10.9801 10.9798 11.2201 10.7998H11.2801L12.4801 10.1398C13.6201 9.5998 14.7001 8.8798 15.6601 8.0998V7.4398C15.6601 7.4398 15.6601 7.3798 15.5401 7.3198C14.8201 7.3198 14.1601 7.6798 13.6801 8.1598C13.5601 8.2798 13.4401 8.33981 13.3201 8.39981H13.2001C12.4801 8.8198 10.9201 9.8398 10.1401 10.3198C10.2001 9.2398 10.3801 8.2198 10.5601 7.1398V7.0198L10.4401 6.8398V6.7198H10.3801C10.2601 6.6598 10.1401 6.6598 9.96008 6.7198H9.78008C9.78008 6.7798 9.54008 6.8398 9.54008 6.8398C9.54008 6.8398 9.48008 6.83981 9.42008 6.89981C9.00008 8.0998 8.70008 9.3598 8.64008 10.6198C8.04008 10.2598 7.44008 9.8998 6.78008 9.5998C6.60008 9.5998 6.48008 9.4798 6.36008 9.4198L6.06008 9.2398L5.58008 8.9398H5.46008C5.22008 8.9998 4.98008 9.1798 4.80008 9.4198V9.71981C5.22008 10.0798 5.64008 10.3798 6.12008 10.6198L6.72008 10.9798L7.68008 11.5198L7.86008 11.6398H7.98008V11.6998L6.24008 12.8398L5.34008 13.4398C5.16008 13.5598 4.98008 13.6198 4.80008 13.6798C4.62008 13.6798 4.50008 13.8598 4.38008 14.0398V14.0998H4.44008L4.56008 14.2198H4.68008C4.68008 14.2798 4.80008 14.2798 4.80008 14.2798C5.10008 14.2798 5.40008 14.1598 5.64008 13.9798C6.06008 13.7998 7.14008 13.1398 7.62008 12.8398L7.80008 12.7198C7.92008 12.7198 7.98008 12.7198 8.04008 12.5998C8.16008 12.4798 8.34008 12.4198 8.46008 12.3598H8.58008C8.58008 13.4998 8.64008 14.5798 8.82008 15.6598C8.94008 15.8998 9.00008 16.1398 9.06008 16.4398L9.24008 17.0398C9.42008 17.1598 9.66008 17.2198 9.84008 17.2198V16.2598C9.78008 15.2398 9.72008 13.7998 9.72008 12.7798C9.90008 12.7798 10.6201 13.2598 10.6201 13.2598C11.8801 14.0998 13.8601 15.3598 15.0001 15.6598H15.1801L15.3601 15.5398C15.4201 15.4798 15.4801 15.3598 15.4801 15.2398C16.6801 15.2398 17.7601 14.7598 18.6001 13.8598C18.8401 13.4998 19.0201 13.1398 19.0201 12.6598C19.0201 12.4198 18.9601 12.1198 18.7801 11.9398" fill="white"/>
</g>
<defs>
<clipPath id="clip0_266_54847">
<rect width="24" height="24" fill="white"/>
</clipPath>
</defs>
</svg>
