<svg width="56" height="56" viewBox="0 0 56 56" fill="none" xmlns="http://www.w3.org/2000/svg">
<g clip-path="url(#clip0_266_56325)">
<path d="M0 28.0001C0 29.6487 0 29.8319 0.0392798 31.2319C0.144026 34.3329 0.471357 37.8917 1.71522 41.6469C2.59247 44.303 4.24222 47.1684 5.89197 48.974C7.9869 51.2769 10.8805 53.1608 14.0098 54.2341C17.2045 55.3328 20.6612 55.8565 27.378 56H28.6219C35.3518 55.8565 38.7954 55.3328 41.9901 54.2341C45.1194 53.1608 47.9999 51.2769 50.1081 48.974C51.7575 47.1553 53.4074 44.303 54.2846 41.6469C55.5284 37.8917 55.869 34.3198 55.9605 31.2319C56 29.845 56 29.6487 56 28.0001C56 26.3515 56 26.1683 55.9605 24.7683C55.856 21.6674 55.5284 18.1085 54.2846 14.3533C53.4074 11.6972 51.7575 8.83179 50.1081 7.02621C48.013 4.72338 45.1194 2.83926 41.9901 1.76636C38.7954 0.667293 35.3388 0.130841 28.6219 0H27.378C20.6481 0.143926 17.2045 0.667293 14.0098 1.76636C10.8805 2.83926 8.00001 4.72338 5.89197 7.02621C4.24222 8.8449 2.59247 11.6972 1.71522 14.3533C0.484451 18.1085 0.144026 21.6674 0.0392798 24.7683C0 26.1553 0 26.3515 0 28.0001Z" fill="#DF242E"/>
<path d="M45.4868 26.4103C44.5985 25.8936 43.7765 25.4167 42.9678 24.9265C42.7557 24.794 42.57 24.7808 42.3447 24.8735C40.608 25.6287 38.8182 26.3043 37.1344 27.1522C32.8788 29.2984 28.981 32.0143 25.2424 34.9422C25.1761 34.9952 25.1231 35.0482 25.0568 35.1277C25.9451 35.8166 26.8201 36.479 27.6686 37.1679C27.894 37.3534 28.0133 37.3137 28.2254 37.1679C30.1478 35.7106 32.0436 34.2003 34.0322 32.8225C37.3466 30.5305 40.8201 28.4771 44.519 26.821C44.8239 26.6885 45.1156 26.5561 45.5 26.3971M19.7272 31.3387C20.5094 31.8819 21.2652 32.3853 22.0076 32.9152C22.2197 33.061 22.3522 33.0477 22.5511 32.902C23.7045 32.0408 24.858 31.1665 26.0379 30.3451C30.2538 27.4039 34.7216 24.9398 39.6401 23.3632C39.7197 23.3367 39.7728 23.297 39.8921 23.2307C39.0701 22.82 38.3012 22.4226 37.519 22.0516C37.3996 21.9986 37.2272 22.0119 37.0947 22.0516C35.517 22.5948 33.9261 23.0718 32.3882 23.7077C28.2784 25.4167 24.5265 27.7484 20.9603 30.3981C20.5493 30.7028 20.1383 31.0207 19.714 31.3519M14.8087 28.4903C15.5246 28.901 16.1875 29.2587 16.8371 29.6562C17.0757 29.8019 17.2216 29.7886 17.447 29.6164C18.6137 28.7553 19.7936 27.9206 21 27.1257C22.3656 26.2248 25.2954 24.5821 25.3485 24.5291C24.6591 24.2244 23.9829 23.9329 23.3333 23.6149C23.0947 23.4957 22.9091 23.5222 22.6837 23.6414C20.536 24.8073 19.0113 25.6817 17.1022 26.9138C16.2538 27.4569 15.8428 27.7484 14.7955 28.4771M20.7348 22.6081C20.0455 22.3961 19.4489 22.1974 18.839 22.0516C18.6534 22.0119 18.4147 22.0251 18.2424 22.1046C17.0625 22.6611 15.9223 23.244 14.7822 23.8667C13.4299 24.6218 10.606 26.3573 10.5 26.4368C11.1629 26.7283 11.786 27.0197 12.4223 27.2847C12.5151 27.3245 12.6875 27.2847 12.7803 27.2185C13.2046 26.9535 13.6288 26.662 14.0531 26.3971C16.1743 25.0325 18.3485 23.7342 20.7348 22.6081ZM21.1061 20.8195C21.3182 20.8858 21.4375 20.9123 21.5436 20.952C23.2936 21.5615 25.0568 22.0914 26.7538 22.8068C27.6022 23.1645 28.0928 23.2837 28.928 22.8598C29.6704 22.5418 29.7765 22.4888 30.2405 22.2769C30.1079 22.1974 30.0417 22.1576 29.9754 22.1311C27.9205 21.217 25.7992 20.5016 23.625 19.9452C23.5455 19.9187 23.4394 19.9054 23.3731 19.9452C22.644 20.2234 21.9148 20.5148 21.1061 20.8195ZM34.7613 20.8195C34.642 20.7533 32.3882 19.8524 31.3011 19.4815C30.267 19.1238 29.2197 18.8058 28.1458 18.5408C28.053 18.5143 27.947 18.4879 27.8542 18.5011C27.5095 18.5938 27.1648 18.6866 26.8201 18.7793C26.4887 18.8721 26.1174 18.978 25.7728 19.0708C25.9451 19.1238 27.2973 19.508 27.9735 19.7199C29.4981 20.1969 31.0094 20.7533 32.481 21.3892C32.5738 21.429 32.6932 21.429 32.7993 21.3892C33.4224 21.217 34.0455 21.0315 34.7481 20.8195" fill="white"/>
</g>
<defs>
<clipPath id="clip0_266_56325">
<rect width="56" height="56" fill="white"/>
</clipPath>
</defs>
</svg>
