<svg width="56" height="56" viewBox="0 0 56 56" fill="none" xmlns="http://www.w3.org/2000/svg">
<g clip-path="url(#clip0_266_56136)">
<path d="M0 28C0 29.6486 0 29.8318 0.0523732 31.2318C0.144026 34.3327 0.484451 37.8916 1.72831 41.6467C2.60556 44.3028 4.25531 47.1682 5.90507 48.9739C8.00001 51.2764 10.8936 53.1608 14.0098 54.2336C17.2045 55.3328 20.6612 55.869 27.378 56H28.6219C35.3518 55.856 38.7954 55.3328 41.9901 54.2336C45.1194 53.1608 47.9999 51.2764 50.1081 48.9739C51.7575 47.1551 53.4074 44.3028 54.2846 41.6467C55.5284 37.8916 55.869 34.3196 55.9605 31.2318C56 29.8449 56 29.6486 56 28C56 26.3514 56 26.1682 55.9605 24.7682C55.856 21.6673 55.5284 18.1084 54.2846 14.3533C53.4074 11.6972 51.7575 8.83177 50.1081 7.02615C48.013 4.72337 45.1194 2.83925 41.9901 1.76636C38.7954 0.667289 35.3388 0.143925 28.6219 0H27.378C20.6481 0.143925 17.2045 0.667289 14.0098 1.76636C10.8805 2.83925 8.00001 4.72337 5.90507 7.02615C4.25531 8.84488 2.60556 11.6972 1.72831 14.3533C0.484451 18.1084 0.144026 21.6673 0.0523732 24.7682C0 26.1551 0 26.3514 0 28Z" fill="#0473EA"/>
<path d="M23.8111 43.257C22.9471 43.7671 22.1748 44.068 21.3501 44.068C19.2295 44.068 17.4623 42.3413 17.3707 40.2483L21.4941 37.7891L27.9083 40.6538L23.8242 43.2439L23.8111 43.257Z" fill="white"/>
<path d="M26.259 32.7136L23.1959 31.3663C21.8345 30.7515 20.5386 30.2413 20.5386 28.737C20.5386 27.9521 20.7742 27.5466 21.1538 27.1411L27.6335 29.9928L26.0365 30.9215C25.5914 31.1962 25.2773 31.4317 25.2773 31.7718C25.2773 32.1381 25.6962 32.452 26.2721 32.7136" fill="white"/>
<path d="M29.2698 18.586L26.1281 20.4827C25.8401 20.6528 25.4736 20.9275 25.4736 21.333C25.4736 21.817 26.2066 22.1702 26.8481 22.4841L22.921 20.7574C21.7691 20.2473 20.604 19.6717 20.604 18.272C20.604 17.6834 20.7742 17.2125 21.0491 16.807L29.5447 11.6138C30.5657 12.1894 31.5475 13.3536 31.5475 14.9233C31.5475 16.5977 30.6966 17.7226 29.2698 18.586Z" fill="white"/>
<path d="M35.9458 24.7209L35.1604 25.1656L28.6676 22.3009L36.2076 17.7617C37.2286 18.3504 38.2235 19.5015 38.2235 21.0713C38.2235 22.7456 37.3988 23.8968 35.9327 24.7209" fill="white"/>
<path d="M30.461 30.228L34.2965 31.9155C35.7364 32.5565 36.1815 33.3152 36.1815 34.2701C36.1815 34.8195 35.8804 35.3558 35.4353 35.7352L28.9818 32.8704L30.0683 32.2556C30.9977 31.7454 31.2988 31.4315 31.2988 31.1045C31.2988 30.7774 31.0894 30.5158 30.461 30.2411" fill="white"/>
<path d="M37.3071 44.3819C35.6708 43.1262 33.9298 42.2759 31.8092 41.3079L22.0308 36.9781C19.5698 35.8793 17.9336 34.4273 17.9336 31.968C17.9336 29.5088 19.0855 28.4231 20.5909 27.4812L21.1276 27.1411C20.748 27.5466 20.5123 27.9521 20.5123 28.737C20.5123 30.2413 21.8083 30.7515 23.1697 31.3663L34.5582 36.3894C36.5348 37.2397 38.3543 38.6917 38.3543 41.1902C38.3543 42.5637 37.8438 43.7802 37.294 44.395" fill="white"/>
<path d="M36.1552 35.2775L35.4484 35.7222C35.8934 35.3429 36.1945 34.8065 36.1945 34.2571C36.1945 33.3022 35.7494 32.5435 34.3095 31.9025L22.1356 26.5393C19.6746 25.4536 18.1431 24.0539 18.1431 21.6078C18.1431 19.3578 19.2689 17.8797 21.036 16.7939C20.7611 17.1994 20.591 17.6704 20.591 18.259C20.591 19.6587 21.756 20.2342 22.9079 20.7444L34.7415 25.9637C36.8883 26.9187 38.6424 28.3576 38.6424 30.9738C38.6424 33.0275 37.6868 34.3225 36.1552 35.2644" fill="white"/>
</g>
<defs>
<clipPath id="clip0_266_56136">
<rect width="56" height="56" fill="white"/>
</clipPath>
</defs>
</svg>
