<svg width="56" height="56" viewBox="0 0 56 56" fill="none" xmlns="http://www.w3.org/2000/svg">
<g clip-path="url(#clip0_266_56123)">
<path d="M0 28C0 29.6486 0 29.8318 0.039289 31.2318C0.14406 34.3327 0.471469 37.8916 1.71562 41.6467C2.59308 44.3028 4.24322 47.1682 5.89335 48.9739C7.9888 51.2765 10.883 53.1605 14.0131 54.2335C17.2086 55.3325 20.666 55.869 27.3845 56H28.6287C35.3601 55.856 38.8045 55.3325 42 54.2335C45.1301 53.1605 48.0112 51.2765 50.1065 48.9739C51.757 47.1552 53.407 44.3028 54.2845 41.6467C55.5285 37.8916 55.869 34.3196 55.9605 31.2318C56 29.8449 56 29.6486 56 28C56 26.3514 56 26.1682 55.9605 24.7682C55.856 21.6673 55.5285 18.1084 54.2845 14.3532C53.407 11.6972 51.757 8.83175 50.1065 7.02615C48.0112 4.72337 45.117 2.83925 42 1.76636C38.8045 0.66729 35.347 0.130841 28.6287 0H27.3845C20.653 0.143925 17.2086 0.66729 14.0131 1.76636C10.883 2.83925 8.00185 4.72337 5.89335 7.02615C4.24322 8.84485 2.59308 11.6972 1.71562 14.3532C0.484565 18.1084 0.14406 21.6673 0.039289 24.7682C0 26.1551 0 26.3514 0 28Z" fill="#009E9F"/>
<path d="M28 56C43.464 56 56 43.464 56 28C56 12.536 43.464 0 28 0C12.536 0 0 12.536 0 28C0 43.464 12.536 56 28 56Z" fill="#009E9F"/>
<mask id="mask0_266_56123" style="mask-type:luminance" maskUnits="userSpaceOnUse" x="0" y="0" width="56" height="56">
<path d="M28 56C43.464 56 56 43.464 56 28C56 12.536 43.464 0 28 0C12.536 0 0 12.536 0 28C0 43.464 12.536 56 28 56Z" fill="white"/>
</mask>
<g mask="url(#mask0_266_56123)">
<path d="M32.9529 30.6508C32.8848 30.2143 32.7593 29.7887 32.5798 29.3851C32.0682 28.1776 31.1888 27.1622 30.0667 26.4836C29.1821 25.9618 28.1724 25.6897 27.1454 25.6964C26.1184 25.7031 25.1125 25.9883 24.2348 26.5217C23.4154 27.0106 22.7499 27.7199 22.3142 28.5687C22.1681 28.8571 22.0463 29.1572 21.9501 29.4658C21.6827 30.2681 21.5801 31.1161 21.6485 31.9589C21.7168 32.8018 21.9546 33.6222 22.3476 34.3709C22.6207 34.8284 23.0334 35.1861 23.525 35.3914C23.7708 35.49 24.036 35.5308 24.3 35.5107C24.5641 35.4906 24.82 35.4102 25.0481 35.2756C25.301 35.081 25.4902 34.8155 25.5918 34.513C25.6934 34.2104 25.7027 33.8845 25.6185 33.5767C25.4198 32.7952 25.439 31.9742 25.6741 31.2029C25.7632 30.95 25.9069 30.7199 26.0952 30.5289C26.2834 30.3568 26.5072 30.2283 26.7507 30.1524C26.9942 30.0766 27.2514 30.0554 27.5041 30.0903C27.7999 30.1539 28.0766 30.2866 28.3115 30.4774C28.5464 30.6682 28.7329 30.9119 28.8558 31.1885C29.0954 31.7435 29.2198 32.3415 29.2213 32.9461C29.2299 35.6074 28.8339 38.2545 28.047 40.7969C27.977 41.0581 27.9054 41.314 27.8323 41.5736C27.7767 41.7716 27.6739 42.0306 27.8003 42.2195C27.8578 42.2997 27.9371 42.3618 28.0287 42.3984C28.2066 42.4494 28.3959 42.4435 28.5702 42.3817C28.7446 42.3198 28.8953 42.2051 29.0013 42.0534C30.4909 40.4651 31.5891 38.5511 32.2089 36.4637C32.467 35.6984 32.6729 34.9166 32.825 34.1234C33.0631 32.9817 33.1027 31.8075 32.9423 30.6523" fill="white"/>
<path d="M43.999 18.5421C43.9951 18.4544 43.9739 18.3684 43.9366 18.2889C43.8992 18.2095 43.8466 18.1382 43.7816 18.0792C43.7166 18.0203 43.6406 17.9747 43.5579 17.9453C43.4752 17.9158 43.3876 17.9031 43.2999 17.9077H43.2733C42.8954 17.9614 42.5288 18.0764 42.188 18.2481C35.2708 20.7137 27.8472 21.4126 20.5913 20.2814C19.3683 20.1025 18.1285 19.8572 16.8978 19.6676C16.1287 19.5488 15.3679 19.3737 14.5912 19.3181C13.8935 19.1809 13.1699 19.3172 12.57 19.6988C12.2632 20.0347 12.0726 20.4605 12.0265 20.9131C11.9804 21.3657 12.0813 21.8211 12.3141 22.2119C12.8403 23.1043 13.5998 23.8363 14.5111 24.3291C15.3557 24.9273 16.3557 25.2675 17.3898 25.3084C20.1237 25.1343 22.8494 24.8705 25.5666 24.5172C30.2887 24.1346 34.9411 23.1411 39.4076 21.5616C40.8515 20.9928 42.2128 20.2334 43.4553 19.3036C43.6761 19.1345 43.9952 18.8619 43.9952 18.5421" fill="white"/>
<path d="M24.5332 16.2211C24.5332 16.9295 24.8146 17.6088 25.3155 18.1097C25.8163 18.6105 26.4957 18.8919 27.204 18.8919C27.9123 18.8919 28.5916 18.6105 29.0924 18.1097C29.5933 17.6088 29.8747 16.9295 29.8747 16.2211C29.8738 16.0023 29.8249 15.7863 29.7316 15.5883C29.5031 15.1055 29.2418 14.8701 29.2693 14.2936C29.3028 13.5138 28.2968 13.5024 27.7554 13.5024C27.154 13.4836 26.5563 13.6022 26.0076 13.8489C25.5825 14.0647 25.2214 14.3882 24.9605 14.7871C24.6959 15.1993 24.5492 15.676 24.5363 16.1655V16.2257" fill="white"/>
</g>
</g>
<defs>
<clipPath id="clip0_266_56123">
<rect width="56" height="56" fill="white"/>
</clipPath>
</defs>
</svg>
