<svg width="24" height="24" viewBox="0 0 24 24" fill="none" xmlns="http://www.w3.org/2000/svg">
<g clip-path="url(#clip0_266_54963)">
<path d="M0 12C0 12.7065 0 12.7851 0.0224456 13.385C0.0617254 14.714 0.207622 16.2393 0.740705 17.8486C1.11667 18.9869 1.82371 20.215 2.53074 20.9888C3.42857 21.9756 4.66868 22.7832 6.0042 23.243C7.37338 23.7141 8.8548 23.9438 11.7334 24H12.2665C15.1508 23.9383 16.6266 23.7141 17.9958 23.243C19.3369 22.7832 20.5714 21.9756 21.4749 20.9888C22.1818 20.2093 22.8889 18.9869 23.2648 17.8486C23.7979 16.2393 23.9438 14.7084 23.9831 13.385C24 12.7907 24 12.7065 24 12C24 11.2935 24 11.215 23.9831 10.615C23.9383 9.28597 23.7979 7.76074 23.2648 6.1514C22.8889 5.01308 22.1818 3.78505 21.4749 3.01121C20.577 2.0243 19.3369 1.21682 17.9958 0.75701C16.6266 0.285981 15.1452 0.0616822 12.2665 0H11.7334C8.84918 0.0616822 7.37338 0.285981 6.0042 0.75701C4.66308 1.21682 3.42857 2.0243 2.53074 3.01121C1.82371 3.79066 1.11667 5.01308 0.740705 6.1514C0.207622 7.76074 0.0617254 9.28597 0.0224456 10.615C0 11.2093 0 11.2935 0 12Z" fill="#0473EA"/>
<path d="M10.2047 18.5397C9.83447 18.7583 9.50348 18.8872 9.15004 18.8872C8.24121 18.8872 7.48384 18.1473 7.44458 17.2503L9.21175 16.1963L11.9607 17.424L10.2103 18.5341L10.2047 18.5397Z" fill="white"/>
<path d="M11.2539 14.021L9.94111 13.4436C9.35765 13.1801 8.80225 12.9615 8.80225 12.3168C8.80225 11.9804 8.90324 11.8066 9.06592 11.6328L11.8429 12.8549L11.1585 13.253C10.9678 13.3707 10.8331 13.4716 10.8331 13.6174C10.8331 13.7744 11.0126 13.9089 11.2595 14.021" fill="white"/>
<path d="M12.5442 7.9666L11.1977 8.77949C11.0743 8.85239 10.9172 8.97012 10.9172 9.14391C10.9172 9.35134 11.2314 9.50271 11.5063 9.63724L9.82326 8.89722C9.32957 8.67859 8.83026 8.43192 8.83026 7.83205C8.83026 7.57979 8.9032 7.37796 9.021 7.20417L12.662 4.97852C13.0995 5.2252 13.5203 5.72414 13.5203 6.39687C13.5203 7.11447 13.1556 7.59659 12.5442 7.9666Z" fill="white"/>
<path d="M15.4053 10.5958L15.0687 10.7864L12.2861 9.55863L15.5175 7.61328C15.9551 7.86556 16.3815 8.35891 16.3815 9.03166C16.3815 9.74924 16.0281 10.2426 15.3997 10.5958" fill="white"/>
<path d="M13.0547 12.9561L14.6985 13.6792C15.3156 13.954 15.5063 14.2791 15.5063 14.6884C15.5063 14.9238 15.3773 15.1537 15.1866 15.3163L12.4208 14.0885L12.8864 13.825C13.2847 13.6064 13.4138 13.4718 13.4138 13.3317C13.4138 13.1915 13.324 13.0794 13.0547 12.9617" fill="white"/>
<path d="M15.9888 19.0217C15.2875 18.4835 14.5414 18.1191 13.6326 17.7043L9.44182 15.8486C8.3871 15.3777 7.68585 14.7554 7.68585 13.7015C7.68585 12.6475 8.17955 12.1822 8.8247 11.7786L9.05471 11.6328C8.89202 11.8066 8.79103 11.9804 8.79103 12.3168C8.79103 12.9615 9.34644 13.1801 9.9299 13.4436L14.8107 15.5964C15.6578 15.9608 16.4376 16.583 16.4376 17.6538C16.4376 18.2425 16.2188 18.7639 15.9832 19.0273" fill="white"/>
<path d="M15.4951 15.1203L15.1921 15.3109C15.3829 15.1483 15.5119 14.9184 15.5119 14.683C15.5119 14.2737 15.3212 13.9486 14.7041 13.6738L9.48667 11.3753C8.43195 10.91 7.77557 10.3102 7.77557 9.26181C7.77557 8.29754 8.25806 7.66405 9.01541 7.19873C8.8976 7.37252 8.82467 7.57435 8.82467 7.82663C8.82467 8.42648 9.32396 8.67314 9.81765 8.8918L14.8892 11.1286C15.8093 11.5379 16.561 12.1546 16.561 13.2758C16.561 14.156 16.1515 14.711 15.4951 15.1146" fill="white"/>
</g>
<defs>
<clipPath id="clip0_266_54963">
<rect width="24" height="24" fill="white"/>
</clipPath>
</defs>
</svg>
