<svg width="32" height="32" viewBox="0 0 32 32" fill="none" xmlns="http://www.w3.org/2000/svg">
<g clip-path="url(#clip0_266_55416)">
<path d="M0 16C0 16.9421 0 17.0467 0.0224456 17.8467C0.0823006 19.6187 0.269348 21.6523 0.980126 23.7981C1.48141 25.3159 2.42413 26.9533 3.36686 27.9851C4.56394 29.3009 6.21743 30.3774 8.0056 30.9906C9.8312 31.6186 11.8064 31.9251 15.6446 32H16.3554C20.2011 31.9177 22.1688 31.6186 23.9944 30.9906C25.7825 30.3774 27.4286 29.3009 28.6331 27.9851C29.576 26.9458 30.5186 25.3159 31.02 23.7981C31.7306 21.6523 31.9251 19.6112 31.9774 17.8467C32 17.0542 32 16.9421 32 16C32 15.0579 32 14.9533 31.9774 14.1533C31.9177 12.3813 31.7306 10.3477 31.02 8.20186C30.5186 6.68411 29.576 5.04671 28.6331 4.01494C27.4361 2.69907 25.7825 1.62243 23.9944 1.00935C22.1688 0.381309 20.1936 0.0747663 16.3554 0H15.6446C11.7989 0.0822429 9.8312 0.381309 8.0056 1.00935C6.21743 1.62243 4.57143 2.69907 3.36686 4.01494C2.42413 5.0542 1.48141 6.68411 0.980126 8.20186C0.276829 10.3477 0.0823006 12.3813 0.0224456 14.1533C0 14.9458 0 15.0579 0 16Z" fill="#E94335"/>
<path d="M6.0167 15.8205C6.0167 15.8205 5.97913 15.8721 6.0167 15.8942L9.10493 17.8904L9.99156 13.8096L6.02421 15.8205H6.0167Z" fill="white"/>
<path d="M24.3133 13.8091H23.5318C23.4943 13.8091 23.4266 13.8239 23.3891 13.846L19.4743 15.8201C19.4743 15.8201 19.4368 15.8716 19.4743 15.8937L22.5099 17.8531C22.5475 17.8752 22.6076 17.8899 22.6452 17.8899H23.4266C23.4642 17.8899 23.4717 17.8752 23.4417 17.8531L20.3384 15.8495L24.3208 13.8386C24.3208 13.8386 24.3509 13.8018 24.3133 13.8018" fill="white"/>
<path d="M22.6375 13.8091H17.1974L16.3108 17.8899H21.7508C21.7884 17.8899 21.7959 17.8752 21.7659 17.8531L18.6702 15.8495L22.645 13.8386C22.645 13.8386 22.6751 13.8018 22.6375 13.8018" fill="white"/>
<path d="M25.9813 13.8091H25.1998C25.1622 13.8091 25.0946 13.8239 25.057 13.846L21.1423 15.8201C21.1423 15.8201 21.1047 15.8716 21.1423 15.8937L24.1779 17.8531C24.208 17.8752 24.2756 17.8899 24.3132 17.8899H25.0946C25.1322 17.8899 25.1397 17.8752 25.1096 17.8531L22.0064 15.8495L25.9888 13.8386C25.9888 13.8386 26.0188 13.8018 25.9813 13.8018" fill="white"/>
<path d="M22.397 11.1431H9.58585C8.87205 11.1431 8.36859 11.585 8.25591 12.1301C8.18828 12.4321 8.30851 12.6973 8.54142 12.8815L13.1474 15.8647L22.4121 11.1873C22.4121 11.1873 22.4421 11.1504 22.4046 11.1504" fill="white"/>
<path d="M20.3682 20.5276L13.1474 15.8501L7.24898 18.8334C6.93341 19.0175 6.70047 19.2827 6.64036 19.5847C6.52016 20.1298 6.82821 20.5718 7.54204 20.5718H20.3532C20.3908 20.5718 20.3983 20.557 20.3682 20.5276Z" fill="white"/>
</g>
<defs>
<clipPath id="clip0_266_55416">
<rect width="32" height="32" fill="white"/>
</clipPath>
</defs>
</svg>
