<svg width="32" height="32" viewBox="0 0 32 32" fill="none" xmlns="http://www.w3.org/2000/svg">
<g clip-path="url(#clip0_266_55536)">
<path d="M0 16.0001C0 16.9421 0 17.0468 0.0224456 17.8468C0.0823005 19.6188 0.269347 21.6524 0.980125 23.7982C1.48141 25.316 2.42413 26.9534 3.36684 27.9852C4.56395 29.3011 6.21744 30.3776 8.0056 30.9909C9.83117 31.6188 11.8064 31.918 15.6446 32H16.3554C20.201 31.918 22.1688 31.6188 23.9943 30.9909C25.7825 30.3776 27.4285 29.3011 28.6332 27.9852C29.5757 26.9459 30.5185 25.316 31.0198 23.7982C31.7305 21.6524 31.9251 19.6113 31.9774 17.8468C32 17.0543 32 16.9421 32 16.0001C32 15.058 32 14.9533 31.9774 14.1533C31.9177 12.3814 31.7305 10.3477 31.0198 8.20189C30.5185 6.68413 29.5757 5.04674 28.6332 4.01498C27.436 2.69908 25.7825 1.62244 23.9943 1.00935C22.1688 0.38131 20.1936 0.0747665 16.3554 0H15.6446C11.7989 0.0822435 9.83117 0.38131 8.0056 1.00935C6.21744 1.62244 4.57143 2.69908 3.36684 4.01498C2.42413 5.05423 1.48141 6.68413 0.980125 8.20189C0.276829 10.3477 0.0823005 12.3814 0.0224456 14.1533C0 14.9459 0 15.058 0 16.0001Z" fill="#4041B4"/>
<path d="M8.04126 8.05078C8.04126 8.50675 8.04126 23.9574 8.04126 23.9574C8.04126 23.9574 23.3531 23.9499 23.959 23.9499V8.05078H8.04126ZM21.7149 21.7074H10.2703V10.2634H21.7149V21.6999V21.7074Z" fill="white"/>
<path d="M14.2944 20.1453L20.4207 11.8481H17.7203L11.5417 20.1229L14.2944 20.1453Z" fill="white"/>
</g>
<defs>
<clipPath id="clip0_266_55536">
<rect width="32" height="32" fill="white"/>
</clipPath>
</defs>
</svg>
