<svg width="40" height="40" viewBox="0 0 40 40" fill="none" xmlns="http://www.w3.org/2000/svg">
<g clip-path="url(#clip0_266_55940)">
<path d="M0 20.0001C0 21.1777 0 21.3085 0.028057 22.3085C0.102876 24.5235 0.336684 27.0655 1.22516 29.7478C1.85176 31.645 3.03016 33.6917 4.20855 34.9815C5.70493 36.6263 7.7718 37.972 10.007 38.7386C12.289 39.5235 14.758 39.8975 19.5557 40H20.4442C25.2513 39.8975 27.711 39.5235 29.9929 38.7386C32.2282 37.972 34.2857 36.6263 35.7915 34.9815C36.9697 33.6824 38.1481 31.645 38.7747 29.7478C39.6631 27.0655 39.9064 24.5141 39.9718 22.3085C40 21.3178 40 21.1777 40 20.0001C40 18.8225 40 18.6917 39.9718 17.6917C39.8971 15.4767 39.6631 12.9346 38.7747 10.2524C38.1481 8.35516 36.9697 6.30842 35.7915 5.01872C34.295 3.37384 32.2282 2.02805 29.9929 1.26169C27.711 0.476638 25.242 0.0934582 20.4442 0H19.5557C14.7486 0.102804 12.289 0.476638 10.007 1.26169C7.7718 2.02805 5.71429 3.37384 4.20855 5.01872C3.03016 6.31778 1.85176 8.35516 1.22516 10.2524C0.346036 12.9346 0.102876 15.4767 0.028057 17.6917C0 18.6823 0 18.8225 0 20.0001Z" fill="#C40103"/>
<path d="M19.9903 8.56984C13.6596 8.56984 8.56176 13.6579 8.57155 19.969C8.57155 26.2703 13.6694 31.3975 19.9708 31.4269C26.2721 31.4562 31.4385 26.2801 31.4287 19.9494C31.4189 13.6285 26.321 8.56005 19.9903 8.56984ZM19.9903 29.7634C14.6087 29.7634 10.2056 25.3506 10.2056 19.969C10.2056 14.5874 14.6185 10.1941 20.0001 10.2039C25.3915 10.2039 29.7848 14.607 29.775 19.9886C29.775 25.3701 25.3622 29.7634 19.9805 29.7634" fill="white"/>
<path d="M15.7338 22.4345H19.2661V17.2486H15.9393V15.3308H19.2563V13.9414H14.2759V18.8827H17.456V20.8788H14.2563V25.595H19.2661V24.0979H15.7338V22.4345Z" fill="white"/>
<path d="M24.442 22.4345H20.8999V17.2486H24.2267V15.3308H20.9097V13.9414H25.8901V18.8827H22.7101V20.8788H25.9097V25.595H20.8999V24.0979H24.442V22.4345Z" fill="white"/>
</g>
<defs>
<clipPath id="clip0_266_55940">
<rect width="40" height="40" fill="white"/>
</clipPath>
</defs>
</svg>
