<svg width="32" height="32" viewBox="0 0 32 32" fill="none" xmlns="http://www.w3.org/2000/svg">
<g clip-path="url(#clip0_266_55524)">
<path d="M0 16C0 16.9421 0 17.0467 0.0224509 17.8467C0.08232 19.6187 0.269411 21.6523 0.980354 23.7981C1.48176 25.3159 2.4247 26.9533 3.36763 27.9851C4.565 29.3009 6.21889 30.3774 8.00749 30.9906C9.83349 31.6186 11.8092 31.9251 15.6483 32H16.3592C20.2058 31.9177 22.174 31.6186 24 30.9906C25.7886 30.3774 27.435 29.3009 28.6323 27.9851C29.5754 26.9458 30.5183 25.3159 31.0197 23.7981C31.7306 21.6523 31.9251 19.6112 31.9774 17.8467C32 17.0542 32 16.9421 32 16C32 15.0579 32 14.9533 31.9774 14.1533C31.9177 12.3813 31.7306 10.3477 31.0197 8.20186C30.5183 6.68411 29.5754 5.04671 28.6323 4.01494C27.435 2.69907 25.7811 1.62243 24 1.00935C22.174 0.381309 20.1983 0.0747663 16.3592 0H15.6483C11.8017 0.0822429 9.83349 0.381309 8.00749 1.00935C6.21889 1.62243 4.57249 2.69907 3.36763 4.01494C2.4247 5.0542 1.48176 6.68411 0.980354 8.20186C0.276894 10.3477 0.08232 12.3813 0.0224509 14.1533C0 14.9458 0 15.0579 0 16Z" fill="#0072BB"/>
<path fill-rule="evenodd" clip-rule="evenodd" d="M29.1429 16.7305V16.699C29.1429 16.6633 29.1426 16.6276 29.142 16.5921C29.1426 16.6391 29.1426 16.6852 29.1429 16.7305ZM2.87841 17.222C2.86432 17.0489 2.85718 16.8745 2.85718 16.699C2.85718 16.5939 2.85972 16.4892 2.86481 16.385C2.95258 16.1502 3.68161 14.642 7.94926 14.305C7.94926 14.305 10.0929 14.1733 12.2387 14.5621C12.2387 14.5621 8.47004 13.0093 12.0366 11.1815C12.0366 11.1815 14.984 9.48652 20.9595 10.7054C20.9595 10.7054 21.651 10.9649 20.9595 11.2399C20.9595 11.2399 18.4951 11.7001 17.901 13.1047C17.901 13.1047 17.5838 13.8768 18.2536 14.5227C18.2536 14.5227 18.7769 14.9135 17.8778 14.895C17.8778 14.895 13.9965 14.305 11.1022 15.9796C11.1022 15.9796 9.01352 17.0876 10.6572 18.566C10.6572 18.566 11.2921 18.9713 10.4693 19.0821C10.4693 19.0821 4.57003 19.8573 2.90821 17.2733L2.87841 17.222ZM15.8449 7.57192C15.8933 7.57155 15.9417 7.57137 15.9902 7.57137C16.1059 7.57137 16.2213 7.57232 16.3363 7.57423C16.2245 7.57226 16.1124 7.57129 16 7.57129C15.9483 7.57129 15.8966 7.57149 15.8449 7.57192ZM28.6966 14.332C28.7175 14.3922 28.7372 14.4527 28.7563 14.5136C27.6446 14.1857 26.5031 14.1733 26.5031 14.1733C22.1728 13.7315 20.0063 14.9479 20.0063 14.9479C16.5387 16.6853 20.0063 18.323 20.0063 18.323C16.7034 17.7699 14.1819 18.3814 14.1819 18.3814C12.3922 18.6713 11.4588 19.3941 11.4588 19.3941C9.40298 20.8141 11.6831 22.0309 11.6831 22.0309C14.1819 23.401 18.1036 22.9169 18.1036 22.9169C19.3012 22.9169 18.441 22.2161 18.441 22.2161C17.2065 21.3486 18.1783 20.3359 18.1783 20.3359C19.2224 19.2279 20.4564 19.0821 20.4564 19.0821C22.9572 18.305 25.8349 18.6713 25.8349 18.6713C26.7289 18.8196 25.9819 18.0475 25.9819 18.0475C25.4227 17.6032 25.7596 16.6429 25.7596 16.6429C26.9477 15.1411 28.8852 14.8993 28.8852 14.8993C28.8886 14.9091 28.8917 14.9189 28.8949 14.9286C28.8975 14.936 28.8997 14.9435 28.902 14.9509C28.8437 14.7419 28.7752 14.5355 28.6966 14.332ZM13.6481 12.9143C13.5506 12.9542 13.446 12.9747 13.3404 12.9747C12.8929 12.9747 12.5357 12.6209 12.5357 12.1841C12.5357 11.7399 12.8929 11.3855 13.3404 11.3855C13.446 11.3855 13.5506 11.4061 13.6481 11.446C13.7457 11.486 13.8343 11.5445 13.909 11.6183C13.9837 11.6921 14.0429 11.7797 14.0833 11.8761C14.1237 11.9725 14.1445 12.0758 14.1445 12.1801C14.1445 12.2845 14.1237 12.3878 14.0833 12.4842C14.0429 12.5806 13.9837 12.6682 13.909 12.742C13.8343 12.8158 13.7457 12.8743 13.6481 12.9143ZM5.61263 16.9553C5.82632 16.9553 6.03123 16.8714 6.18232 16.7221C6.33341 16.5728 6.41829 16.3703 6.41829 16.1592C6.41829 15.948 6.33341 15.7455 6.18232 15.5963C6.03123 15.4469 5.82632 15.3631 5.61263 15.3631C5.50443 15.3593 5.39658 15.3771 5.29546 15.4154C5.19438 15.4537 5.10215 15.5117 5.02423 15.586C4.94635 15.6603 4.88438 15.7493 4.84206 15.8478C4.79975 15.9463 4.77795 16.0522 4.77795 16.1592C4.77795 16.2662 4.79975 16.3721 4.84206 16.4705C4.88438 16.569 4.94635 16.658 5.02423 16.7323C5.10215 16.8066 5.19438 16.8647 5.29546 16.903C5.39658 16.9413 5.50443 16.9591 5.61263 16.9553ZM13.4726 19.082C13.2592 19.0828 13.0548 19.1669 12.904 19.3161C12.7531 19.4652 12.6681 19.6673 12.6674 19.8781C12.6674 20.3223 13.0326 20.6722 13.4726 20.6722C13.9206 20.6722 14.2788 20.3223 14.2788 19.8781C14.2788 19.4384 13.9206 19.082 13.4726 19.082ZM20.9117 15.209C21.0093 15.1692 21.1139 15.1488 21.2195 15.1489C21.6661 15.1489 22.0232 15.5028 22.0232 15.9425C22.0232 16.1533 21.9384 16.3555 21.7876 16.5046C21.6367 16.6536 21.4321 16.7374 21.2188 16.7374C21.0054 16.7374 20.8008 16.6536 20.65 16.5046C20.4991 16.3555 20.4144 16.1533 20.4144 15.9425C20.4145 15.8382 20.4354 15.7349 20.476 15.6385C20.5165 15.5422 20.5759 15.4546 20.6506 15.3809C20.7254 15.3073 20.8141 15.2488 20.9117 15.209Z" fill="white"/>
</g>
<defs>
<clipPath id="clip0_266_55524">
<rect width="32" height="32" fill="white"/>
</clipPath>
</defs>
</svg>
