<svg width="24" height="24" viewBox="0 0 24 24" fill="none" xmlns="http://www.w3.org/2000/svg">
<g clip-path="url(#clip0_266_55043)">
<path d="M0 12C0 12.7065 0 12.785 0.0168382 13.385C0.06174 14.714 0.202058 16.2393 0.735266 17.8486C1.11132 18.9869 1.81852 20.2149 2.52572 20.9888C3.42377 21.9756 4.66416 22.7831 6.00561 23.2429C7.37511 23.7139 8.85688 23.9439 11.7362 24H12.2694C15.1544 23.9383 16.6305 23.7139 18 23.2429C19.3414 22.7831 20.5763 21.9756 21.4742 20.9888C22.1816 20.2094 22.8887 18.9869 23.2648 17.8486C23.7979 16.2393 23.9439 14.7084 23.9831 13.385C24 12.7907 24 12.7065 24 12C24 11.2935 24 11.2149 23.9831 10.6149C23.9383 9.28599 23.7979 7.76074 23.2648 6.15139C22.8887 5.01309 22.1816 3.78504 21.4742 3.01121C20.5763 2.0243 19.3358 1.21682 18 0.757009C16.6305 0.285981 15.1487 0.0560747 12.2694 0H11.7362C8.85126 0.0616821 7.37511 0.285981 6.00561 0.757009C4.66416 1.21682 3.42936 2.0243 2.52572 3.01121C1.81852 3.79065 1.11132 5.01309 0.735266 6.15139C0.207671 7.76074 0.06174 9.28599 0.0168382 10.6149C0 11.2093 0 11.2935 0 12Z" fill="#0064FF"/>
<mask id="mask0_266_55043" style="mask-type:luminance" maskUnits="userSpaceOnUse" x="4" y="5" width="16" height="14">
<path d="M19.2854 5.25H4.71399V18.9643H19.2854V5.25Z" fill="white"/>
</mask>
<g mask="url(#mask0_266_55043)">
<path d="M19.2854 5.25H4.71399V18.9643H19.2854V5.25Z" fill="#0064FF"/>
<path d="M12.7978 8.25553L13.4052 5.38871C13.4325 5.24471 13.3097 5.11432 13.1663 5.1486C12.286 5.30632 11.3716 5.58071 10.4641 5.97165C6.38353 7.70688 3.91337 11.1087 4.95056 13.5708C5.73531 15.4158 8.26689 16.2045 11.2079 15.745L10.6006 18.6118C10.5733 18.7558 10.6961 18.8862 10.8395 18.8519C11.7198 18.6942 12.6342 18.4198 13.5417 18.0289C17.6223 16.2937 20.0857 12.8919 19.0485 10.4229C18.2706 8.58478 15.7388 7.79602 12.7978 8.25553Z" fill="white"/>
</g>
</g>
<defs>
<clipPath id="clip0_266_55043">
<rect width="24" height="24" fill="white"/>
</clipPath>
</defs>
</svg>
