<svg width="32" height="32" viewBox="0 0 32 32" fill="none" xmlns="http://www.w3.org/2000/svg">
<g clip-path="url(#clip0_266_55231)">
<path d="M0 16C0 16.9421 0 17.0467 0.0224509 17.8467C0.08232 19.6187 0.269411 21.6523 0.980354 23.7981C1.48176 25.3159 2.4247 26.9533 3.36763 27.9851C4.565 29.3009 6.21889 30.3774 8.00749 30.9906C9.83349 31.6186 11.8092 31.9251 15.6483 32H16.3592C20.2058 31.9177 22.174 31.6186 24 30.9906C25.7886 30.3774 27.435 29.3009 28.6323 27.9851C29.5754 26.9458 30.5183 25.3159 31.0197 23.7981C31.7306 21.6523 31.9251 19.6112 31.9774 17.8467C32 17.0542 32 16.9421 32 16C32 15.0579 32 14.9533 31.9774 14.1533C31.9177 12.3813 31.7306 10.3477 31.0197 8.20186C30.5183 6.68411 29.5754 5.04671 28.6323 4.01494C27.435 2.69907 25.7811 1.62243 24 1.00935C22.174 0.381309 20.1983 0.0747663 16.3592 0H15.6483C11.8017 0.0822429 9.83349 0.381309 8.00749 1.00935C6.21889 1.62243 4.57249 2.69907 3.36763 4.01494C2.4247 5.0542 1.48176 6.68411 0.980354 8.20186C0.276894 10.3477 0.08232 12.3813 0.0224509 14.1533C0 14.9458 0 15.0579 0 16Z" fill="#0062B5"/>
<path d="M25.0159 11.9435H23.7679V15.1653H18.6559V11.9435H17.4079C17.0879 11.9755 16.8479 12.2553 16.8719 12.5831V19.3943C16.8479 19.7221 17.0879 20.0019 17.4079 20.0339H18.6559V16.5643H23.7679V20.0259H25.0159C25.3439 19.9939 25.5759 19.7141 25.5519 19.3863V12.5751C25.5759 12.2473 25.3359 11.9675 25.0159 11.9355" fill="white"/>
<path d="M14.7841 11.9438H13.5361V18.1395L9.7761 13.191C9.1521 12.4715 8.7201 11.9438 7.7201 11.9438H6.4481V19.3946C6.4241 19.7224 6.6641 20.0022 6.9841 20.0342H8.2321V13.8065L12.0161 18.7231C12.6561 19.4586 13.2241 20.0342 14.1521 20.0342H15.3201V12.5834C15.3441 12.2556 15.1041 11.9758 14.7841 11.9438Z" fill="white"/>
</g>
<defs>
<clipPath id="clip0_266_55231">
<rect width="32" height="32" fill="white"/>
</clipPath>
</defs>
</svg>
