<svg width="56" height="56" viewBox="0 0 56 56" fill="none" xmlns="http://www.w3.org/2000/svg">
<g clip-path="url(#clip0_266_56381)">
<path d="M0 27.9999C0 29.6485 0 29.8317 0.039289 31.2317C0.14406 34.3326 0.471469 37.8915 1.71562 41.6466C2.59308 44.3027 4.24322 47.1681 5.89335 48.9737C7.9888 51.2767 10.883 53.1605 14.0131 54.2333C17.2086 55.3325 20.666 55.8689 27.3845 56H28.6287C35.3601 55.8559 38.8045 55.3325 42 54.2333C45.1301 53.1605 48.0112 51.2767 50.1065 48.9737C51.757 47.155 53.407 44.3027 54.2845 41.6466C55.5285 37.8915 55.869 34.3196 55.9605 31.2317C56 29.8448 56 29.6485 56 27.9999C56 26.3513 56 26.1682 55.9605 24.7682C55.856 21.6672 55.5285 18.1084 54.2845 14.3532C53.407 11.6972 51.757 8.83175 50.1065 7.02614C48.0112 4.72335 45.117 2.83924 42 1.76635C38.8045 0.667287 35.347 0.130841 28.6287 0H27.3845C20.653 0.143925 17.2086 0.667287 14.0131 1.76635C10.883 2.83924 8.00185 4.72335 5.89335 7.02614C4.24322 8.84481 2.59308 11.6972 1.71562 14.3532C0.484565 18.1084 0.14406 21.6672 0.039289 24.7682C0 26.1551 0 26.3513 0 27.9999Z" fill="#002561"/>
<path d="M48.9958 37.8021C49.0204 37.6932 48.9269 37.3564 48.9022 37.2425H48.8924V37.198H48.8825L48.8776 37.1534H48.8628V37.1138H48.8481V37.0841H48.8333V37.0395H48.8185L48.8037 36.9801H48.789C48.7791 36.8414 48.656 36.7226 48.5969 36.5988C48.5082 36.4304 48.3506 36.2918 48.2374 36.1482H48.2078L48.1487 36.064H48.1192C48.0995 36.0392 47.6661 35.5441 47.6415 35.549V35.5391C47.6168 35.5094 46.9027 34.8657 46.888 34.826H46.8633C46.7008 34.6329 46.3758 34.3556 46.228 34.1625C46.2083 34.1625 46.1689 34.1377 46.1541 34.1229L46.1443 34.0882C46.1098 34.0635 46.0556 34.0486 46.0261 34.0139L46.0113 33.9842C45.9719 33.9496 45.898 33.9149 45.8537 33.8901V33.8753H45.8242V33.8555C45.7454 33.7812 45.5779 33.6227 45.5041 33.5435V33.5187L45.4597 33.4791V33.4692H45.4302L45.3169 33.3207H45.2874L45.243 33.2563H45.2135L45.1839 33.2068H45.1544L45.1248 33.1573H45.0953L45.0805 33.1226H45.0559C45.0313 33.0929 44.8047 32.8502 44.7801 32.8403V32.8156L44.7456 32.7958V32.771L44.7161 32.7512V32.7413L44.6865 32.7215V32.6967H44.6718L44.6274 32.6175H44.5979C44.5782 32.5878 44.0217 32.0629 44.0167 32.0282L43.9626 32.0035L43.9478 31.9738L43.8887 31.949C43.7163 31.741 43.4652 31.4934 43.2928 31.2855H43.2682L43.2238 31.2161H43.1992L43.1549 31.1518H43.1253L43.0958 31.1022L43.0662 31.0923L42.8643 30.8596H42.8495L42.8348 30.815L42.8052 30.7952V30.7655C42.751 30.7655 41.9286 29.7702 41.8793 29.7603L41.8646 29.7157L41.8399 29.7009V29.6712L41.8055 29.6513V29.6216L41.7611 29.5919V29.5622L41.7316 29.5424V29.5176L41.6577 29.4533V29.4285C41.6577 29.4285 41.574 29.3542 41.574 29.3196H41.5444C41.4952 29.2156 41.3524 29.1265 41.2933 29.0324H41.2637L41.2046 28.9482H41.1751L41.1652 28.9135H41.1357L41.1012 28.864H41.0766L41.0569 28.8293C41.0569 28.8293 41.0273 28.8244 41.0273 28.8194V28.8145V28.7897H41.0126L40.9929 28.7699L40.8894 28.6164V28.6016L40.8747 28.5916L40.855 28.5619L40.8451 28.5273L40.8205 28.5124V28.4877H40.8057L40.7909 28.4431L40.7614 28.4233V28.3985L40.722 28.3639L40.7023 28.3391V28.3242L40.6777 28.3044L40.6087 28.2005L40.5644 28.1757L40.5398 28.1509L40.5299 28.1064H40.5004V28.0767H40.4708C40.4462 28.042 40.2492 27.8687 40.2443 27.834H40.2196L40.1999 27.7944H40.1753L40.1458 27.7449L40.0916 27.7201L40.0768 27.6954L40.0325 27.6706V27.6607L39.9439 27.6211V27.6062H39.9192V27.5864L39.8355 27.5468V27.5369L39.7616 27.5072V27.4973H39.7321V27.4775H39.6878V27.4577L39.6582 27.4478V27.4329H39.6139V27.4131H39.5843V27.3933L39.4858 27.3586V27.3438H39.4415V27.324L39.3824 27.3141V27.2992L39.3085 27.2893V27.2745L39.2396 27.2596V27.2447L39.0081 27.1903V27.1804L38.3827 27.0863V27.0962L38.3039 27.0863V27.0962L38.2349 27.0863V27.0962H38.1906V27.1011L38.1315 27.0863V27.1011L38.0724 27.0912V27.1061L38.0428 27.0962V27.111H37.9591V27.1209H37.9345V27.1259H37.8951V27.1309H37.836V27.1457H37.7917V27.1507L37.7079 27.1606V27.1754L37.6833 27.1655V27.1853H37.6242L37.6095 27.2101H37.5504L37.5356 27.2398H37.5011V27.2497H37.4617L37.4519 27.2794H37.4223L37.3977 27.3091L37.3681 27.2992L37.3386 27.3339H37.309L37.2647 27.3784H37.2352C37.1711 27.3784 35.7183 28.2797 35.6444 28.2401V28.2549H35.605L35.5902 28.2797H35.5607V28.2896C35.5508 28.2896 35.408 28.3738 35.2751 28.4579L33.2657 29.4087C33.2411 29.3641 33.1869 29.2601 33.1869 29.2205L33.1573 29.2007L33.1426 29.1413H33.1278L33.113 29.0967L33.0835 29.0769V29.0522L33.0539 29.0324V29.0076L33.0096 28.9729V28.9482L32.9702 28.9135V28.8838L32.9062 28.8343V28.8095H32.8914C32.8914 28.8095 32.6353 28.4381 32.6156 28.4134H32.6008L32.5713 28.3242H32.5565V28.2995H32.5417V28.2698H32.527V28.2401H32.5122V28.2104L32.4777 28.1757V28.146C32.4482 28.146 32.3644 27.9826 32.3497 27.9628V27.938L32.3201 27.9182V27.8934L32.2758 27.8588V27.8291C32.2216 27.8142 32.0788 27.5171 32.0492 27.4725H32.0345V27.428H32.0197L32 27.3586H31.9852V27.3289H31.9704V27.2893H31.9557L31.9409 27.2299H31.9261V27.2002H31.9113V27.1556L31.8818 27.1408V27.111H31.867V27.0863H31.8522V27.0566L31.8227 27.0219V26.9972L31.7932 26.9724L31.7735 26.913H31.7587L31.7439 26.8684L31.7144 26.8486V26.8238L31.675 26.7892V26.7644L31.6405 26.7446V26.7198L31.5962 26.6852L31.5814 26.6406H31.5666C31.5272 26.5812 31.4435 26.4574 31.409 26.398H31.3942V26.3534H31.3795V26.3088H31.3647V26.2692H31.3499V26.2346H31.3351V26.195H31.3204V26.1652H31.3056V26.1207H31.2908L31.2662 26.0315H31.2514V26.0018H31.2317V25.9721H31.2169V25.9424H31.2022L31.1677 25.8533L31.1431 25.8384L31.1283 25.779L31.0987 25.7592V25.7344H31.084L31.0643 25.6899L31.0347 25.675V25.6502L30.9953 25.6156V25.5908L30.951 25.5562V25.5314L30.8771 25.467V25.4423L30.6309 25.0907H30.6161L30.6013 25.0214H30.5866L30.5718 24.9619H30.557V24.9223H30.5422L30.5225 24.8629H30.5078L30.493 24.8084L30.4634 24.7886L30.4339 24.7044L30.4043 24.6846L30.3896 24.6252L30.36 24.6104V24.5806L30.3206 24.546V24.5163L30.2911 24.4965V24.4717L30.2467 24.437V24.4123L30.1876 24.3628V24.338L30.1187 24.2736V24.2489L29.8675 23.8973H29.8527L29.838 23.8379H29.8232V23.7983H29.8084L29.7789 23.7091H29.769L29.7542 23.6497L29.7247 23.6348V23.6051H29.7099V23.5754L29.6754 23.5457V23.516H29.6607L29.6459 23.4714L29.6163 23.4516V23.4269L29.5868 23.412V23.3823L29.5425 23.3476V23.3229L29.4981 23.2882V23.2635L29.4391 23.2139C29.4637 23.1793 29.178 22.7534 29.178 22.7287H29.1633L29.1337 22.6395H29.1189V22.6148H29.1042V22.585H29.0894V22.5553H29.0746V22.5256H29.0598V22.4959H29.0451V22.4662H29.0303V22.4365H29.0155L29.0057 22.4662C29.0106 22.4563 29.0204 22.4266 29.0155 22.4167V22.4018H29.0007C29.0007 22.4018 29.0007 22.3969 29.0007 22.3919C29.0007 22.3919 29.0007 22.3919 29.0057 22.3919C29.0057 22.382 29.1633 22.0354 29.1731 22.0156L29.2027 21.9958V21.971L29.2322 21.9611V21.9215H29.2421V21.8967H29.2568L29.2716 21.8522H29.2864V21.8175H29.3012L29.3159 21.768H29.3307L29.4834 21.2827H29.4932V21.2332H29.508V21.1688H29.5228V21.0945H29.5375V21.0153H29.5523L29.5474 20.9014H29.5671V20.743H29.572C29.572 20.7033 29.705 20.0497 29.6951 20.015H29.7099V19.9754H29.7247C29.769 19.713 29.769 18.7622 29.7247 18.4948H29.7099V18.4403H29.6951V18.3958H29.6754V18.3512H29.6656L29.6213 18.168H29.6065V18.1383H29.5917L29.5769 18.0541H29.5622L29.5425 17.9947H29.5326L29.3849 17.5391H29.3701L29.3553 17.4401H29.3406V17.4005H29.3307V17.3559H29.311V17.3262H29.2962V17.2816H29.2815V17.2519H29.2667V17.2123H29.2519L29.2174 17.1231H29.2076V17.0934H29.1928V17.0588H29.178V17.034H29.1633V16.9994H29.1485V16.9746L29.114 16.9399V16.9152H29.1042L29.0845 16.8706L29.0598 16.8508V16.8211H29.0451L29.0303 16.7716L29.0057 16.7567V16.732L28.9564 16.6973V16.6725C28.9318 16.6577 28.7102 16.4002 28.6855 16.3705V16.3457L28.656 16.3259V16.316H28.6264L28.5723 16.2318H28.5427L28.4984 16.1674H28.4688L28.4541 16.1328H28.4245L28.4097 16.0981H28.3851L28.3703 16.0635H28.3408L28.326 16.0288H28.2965L28.2817 15.9941L28.2226 15.9694L28.2078 15.9397L28.1487 15.9149V15.905L28.0601 15.8654V15.8505H28.0158V15.8307L27.9567 15.806V15.7911H27.9123V15.7713H27.8828V15.7515H27.8385V15.7317L27.7941 15.7218V15.7069H27.7547V15.6871L27.7104 15.6772V15.6624L26.5826 15.3999V15.4098L26.5087 15.3999V15.4098L26.4496 15.3999V15.4098L26.3905 15.3999V15.4148H26.3462V15.4197L26.3019 15.4098V15.4247H26.2625V15.4296H26.1788V15.4395H26.1492V15.4494L26.1098 15.4395V15.4494H26.0507V15.4643H26.0064V15.4692L25.9227 15.4791V15.494H25.8931V15.5039H25.834L25.8193 15.5287H25.7602L25.7454 15.5584C25.7355 15.5435 25.4893 15.593 25.4745 15.598V15.6128H25.4499V15.6178H25.4056V15.6227H25.376V15.6277H25.3317V15.6326H25.2726V15.6475H25.2283H25.1692V15.6673L25.1298 15.6574L25.115 15.6822H25.0854V15.6871H25.0559V15.697H25.0263L25.0017 15.7168H24.9722L24.9623 15.7366L24.8786 15.7465V15.7614H24.8343L24.8195 15.7961H24.79L24.7752 15.8159L24.7456 15.806V15.8208H24.7062L24.6865 15.8505H24.657L24.6274 15.8802H24.6028L24.5437 15.9298H24.5142L24.4748 15.9694H24.4452L24.3319 16.0635H24.3024L24.2778 16.0932H24.2433V16.1278L24.1152 16.212V16.2368L24.0561 16.2665V16.2962L24.002 16.3209V16.3457L23.9576 16.3606V16.3903L23.9281 16.4002V16.4249L23.8887 16.4447L23.8739 16.4943L23.8493 16.5042L23.8345 16.5388H23.8197L23.805 16.5883L23.7754 16.5983V16.623H23.7656V16.6478L23.736 16.6725V16.6973L23.7065 16.7072V16.732H23.6917V16.7518L23.3125 17.2668V17.2915L23.2534 17.3212V17.3509H23.2238V17.3707H23.1943V17.4054L23.15 17.4203L23.1352 17.4599H23.1056V17.4945L23.0761 17.5044V17.5292L23.0367 17.5441L23.0219 17.5936L22.9973 17.6035L22.9825 17.653H22.953L22.9382 17.7124H22.9136V17.7471L22.884 17.7669V17.7916H22.8692V17.8164H22.8545V17.8412H22.8397V17.8659H22.8249L22.8003 17.9402H22.7855L22.7707 17.9996H22.756L22.7412 18.0491H22.7264V18.0838H22.7116V18.1086H22.6969L22.6673 18.2175H22.6525V18.2423H22.6378V18.2918H22.623V18.3314H22.6131V18.371H22.5984V18.4106H22.5836L22.4014 18.6632V18.6879L22.362 18.7127V18.7375L22.3177 18.7573V18.782L22.2881 18.7919V18.8167H22.2586V18.8513L22.2241 18.8613V18.886L22.1995 18.8959V18.9256H22.1699L22.1551 18.9801H22.1256V19.0148H22.1108V19.0346H22.096V19.0593L22.0665 19.0791V19.1039L22.0369 19.1138V19.1386H22.0271V19.1633H22.0123V19.198H21.9828V19.2425H21.968V19.2673H21.9532L21.9384 19.3119H21.9286V19.3515H21.9138V19.3762H21.899V19.4109H21.8843V19.4357H21.8695V19.4753H21.8547V19.4951H21.835V19.5496H21.8252V19.5842H21.8104V19.6238L21.5986 19.9309V19.9556L21.5297 19.9952V20.0249L21.4903 20.0447V20.0695H21.4558L21.4459 20.1141H21.4312V20.1388L21.4016 20.1487V20.1735H21.3721V20.2082H21.3425V20.2428H21.313V20.2775L21.2884 20.2874L21.2736 20.332L21.249 20.3419V20.3815L21.2194 20.3914L21.1948 20.4657H21.1751V20.4904H21.1603V20.5152H21.1455L21.116 20.5894H21.1012V20.6241H21.0864V20.6489H21.0667L21.0569 20.6934H21.0421V20.7281H21.0273V20.7529H21.0126L20.9978 20.8271H20.983V20.8469H20.9682V20.8866H20.9535V20.9262H20.919V20.9608H20.9091V21.0104H20.8894L20.8944 21.05H20.8796V21.0846H20.8648V21.1441C20.85 21.1688 20.722 21.3273 20.722 21.357L20.6629 21.3867V21.4115L20.6235 21.4313L20.6333 21.4709H20.5989V21.5055L20.5742 21.5154V21.5402L20.5447 21.5501V21.5749L20.5151 21.5848V21.6095H20.4856L20.4708 21.664L20.4462 21.6739L20.4314 21.7234L20.4019 21.7333V21.7581L20.3723 21.7779V21.8076H20.3575L20.3625 21.8324H20.3428V21.8571H20.3231L20.328 21.8819H20.3083V21.9017H20.2935V21.9314H20.2787V21.9512H20.264L20.2344 22.0205H20.2246V22.0602H20.2049L20.1901 22.1097H20.1753V22.1443H20.1606V22.1691H20.1458L20.1212 22.283H20.1064V22.3028H20.0867L19.9192 22.5603V22.585L19.8355 22.6346V22.6593L19.7666 22.6989V22.7237L19.7075 22.7485V22.7732H19.6779L19.6631 22.8178H19.6533V22.8425L19.609 22.8624V22.8871L19.5794 22.897L19.5646 22.9465L19.5203 22.9614V22.9911H19.4957L19.4661 23.0753H19.4415V23.1099L19.412 23.1298V23.1545H19.3972V23.1743H19.3824V23.1991H19.3676V23.2238H19.3529V23.2486H19.3381V23.2734H19.3233V23.2981H19.3085L19.279 23.3724H19.2642V23.4071H19.2494L19.2347 23.4566H19.2199V23.4962H19.2051V23.516H19.1903L19.1805 23.5903H19.1608V23.615H19.146L19.1312 23.6992H19.1165V23.719H19.1066L18.8949 23.9567V23.9815L18.8259 24.0211V24.0458L18.752 24.0855L18.7422 24.135L18.6979 24.1548V24.1795L18.6535 24.1944L18.6388 24.234L18.6092 24.2439V24.2687H18.5944V24.2934H18.5649L18.555 24.3529L18.5156 24.3727L18.5009 24.4222H18.4713V24.4519L18.4418 24.4767V24.5014H18.427V24.5262H18.4171V24.5509H18.4024V24.5757H18.3876V24.6005H18.3728V24.6203H18.358V24.645H18.3433V24.6698H18.3285L18.3186 24.7193H18.2989V24.7391L17.9246 25.1501H17.9L17.8557 25.1897H17.8458V25.2145C17.8212 25.2145 17.7868 25.2491 17.772 25.264H17.7572V25.2888H17.7424L17.7178 25.3333H17.6883V25.3531C17.6686 25.3779 17.6095 25.4472 17.5701 25.4522V25.4819L17.5257 25.4967L17.5159 25.5512L17.4716 25.571V25.5958H17.4568V25.6205L17.4322 25.6304L17.4125 25.68H17.3878L17.3731 25.7394H17.3484V25.774L17.3189 25.7938V25.8236H17.3041V25.8483H17.2893V25.8681H17.2696V25.8879H17.2598V25.9127H17.245V25.9375H17.2302V25.9573H17.2155L17.1908 26.0315H17.1711V26.0712H17.1564V26.091H17.1416V26.1306H17.1268L17.0923 26.1702H17.0776L16.723 26.606V26.6307L16.6983 26.6406V26.6555H16.6737V26.6901L16.5999 26.7298V26.7595L16.5605 26.7793V26.804L16.5161 26.8189V26.8436L16.4866 26.8535V26.8833L16.462 26.8932V26.9179H16.4373V26.9526H16.4078V26.9872H16.393L16.3979 27.012H16.3635L16.3536 27.0714H16.3191L16.3093 27.1309H16.2797V27.1655L16.2551 27.1853V27.215H16.2354V27.2348H16.2206V27.2596H16.2059V27.2844H16.1911V27.3091H16.1763L16.1468 27.3784H16.132V27.4181H16.1172V27.4428H16.1024L16.0877 27.4874H16.0729L16.0433 27.5468L15.7478 27.8687H15.7232L15.6937 27.8835V27.9132L15.6395 27.943V27.9677L15.5705 28.0024V28.0321L15.4967 28.0717V28.0965L15.4573 28.1163V28.141L15.4179 28.1608V28.1856H15.3883V28.2203H15.3588V28.2549L15.3292 28.2648V28.2945H15.2997L15.2849 28.354H15.2554L15.2406 28.4134H15.211C15.1963 28.448 14.6003 29.2899 14.5806 29.3196V29.3443L14.5068 29.3839V29.4087L14.4378 29.4483V29.4731H14.4083V29.5077L14.3639 29.5226V29.5474L14.3246 29.5672L14.3098 29.6167L14.2655 29.6365L14.2507 29.686H14.2211L14.2064 29.7306H14.1965L14.1719 29.8049L14.1423 29.8148L14.1128 29.889H14.0832C14.0685 29.9287 13.5169 30.4486 13.5267 30.4932L13.3888 30.5872V30.612L13.3199 30.6516V30.6764L13.246 30.716L13.2312 30.7507H13.2066L13.1967 30.8101L13.1327 30.8398V30.8646H13.1081V30.8992H13.0786L13.0638 30.9438H13.049L13.0392 30.9933C12.9702 31.0973 12.8126 31.1765 12.7338 31.2607H12.7043L12.6895 31.2805H12.6599L12.6008 31.33H12.5713L12.5467 31.3994H12.5171L12.4285 31.4687H12.3989C12.3497 31.5182 12.2167 31.6767 12.1477 31.6965V31.7212H12.1182V31.741L12.064 31.7707V31.7955H12.0542L11.9803 31.8302H11.9508V31.85C11.9015 31.8945 11.8326 32.0084 11.7685 32.0282L11.739 32.0629V32.0877H11.7094V32.1223H11.6799V32.152L11.6503 32.1768V32.2016H11.6208V32.2362H11.606V32.261C11.5863 32.2709 11.5617 32.2956 11.5518 32.3154V32.3402C11.473 32.3947 11.0987 32.6621 11.0396 32.7215H10.9953L10.9411 32.7661V32.7908H10.9264L10.8279 32.8899H10.8131C10.7048 33.0384 10.3945 33.2662 10.2369 33.3652H10.2073L10.1926 33.385L10.163 33.3751L10.1482 33.3999H10.1187V33.4049H10.0793L10.0694 33.4346H10.0399L10.0103 33.4692L9.98079 33.4593L9.95124 33.494H9.92169L9.90692 33.5138L9.79365 33.5584V33.5831L9.65083 33.6524V33.6772L9.6262 33.697H9.59665C9.59665 33.697 9.50308 33.7663 9.48338 33.7762V33.806L9.39473 33.8406V33.8703L9.34056 33.9V33.9248L9.27161 33.9644V33.9892L9.20266 34.0288V34.0535L9.16326 34.0734V34.1031L9.11894 34.1179L9.10416 34.1724L9.05984 34.1922V34.217H9.03029V34.2516H9.00074L8.98596 34.2912H8.97611L8.94164 34.3655H8.91702V34.3952H8.90224V34.42H8.88747V34.4447L8.85792 34.4646V34.4893L8.83329 34.4992L8.81852 34.5586L8.78897 34.5685L8.77419 34.6329H8.76434V34.6577H8.74957L8.72002 34.727H8.70032L8.69047 34.8013H8.6757L8.66092 34.8458H8.64615L8.62152 34.9597H8.60182V34.9845H8.58705V35.039H8.57227V35.0736H8.5575V35.1132H8.54272L8.52795 35.1974H8.51317V35.2469H8.4984V35.3113H8.48855L8.4787 35.4302H8.46393V35.5044H8.44915V35.5837H8.43438L8.41468 36.064H8.3999L8.43438 36.5691H8.44915L8.46393 36.7622H8.4787V36.8464H8.4984V36.9009H8.50825V36.9553H8.52302L8.54272 37.0791H8.55257L8.57227 37.1782H8.58705V37.2178H8.60182V37.2624H8.62152V37.3168H8.63137V37.3416H8.64615V37.401H8.66092V37.4307H8.6757L8.6954 37.5149H8.71017L8.72495 37.5743H8.73972V37.6139H8.75449L8.76927 37.6684H8.78404V37.713L8.81359 37.7328V37.7724H8.82837V37.8021H8.83822V37.8318H8.85299V37.8615H8.86777V37.8912H8.88254L8.89732 37.9507L8.92687 37.9705L8.95642 38.0546L8.98596 38.0695L9.01551 38.1537L9.04014 38.1735V38.1983L9.06969 38.223V38.2478L9.09924 38.2676V38.2923H9.11401L9.12879 38.3369L9.15834 38.3567V38.3815L9.19774 38.4161V38.4409L9.22728 38.4607V38.4855L9.29131 38.5399V38.5647L9.34548 38.6142V38.639L9.4489 38.738V38.7628C9.52278 38.8321 9.6853 39.0153 9.74932 39.0995H9.77887L9.85275 39.1985H9.8823L9.94139 39.2827H9.97094L10.0005 39.3322H10.03L10.0448 39.3669H10.0744L10.1039 39.4164H10.1335L10.1482 39.4511L10.1876 39.4709V39.4857L10.2172 39.4907L10.2369 39.5204H10.2664L10.296 39.5699L10.3551 39.5897L10.3699 39.6194L10.4585 39.664L10.4733 39.6937H10.5028L10.5324 39.7284H10.5619V39.7482H10.5915V39.768H10.6161V39.7878H10.6506L10.6654 39.8225L10.7097 39.8324V39.8423H10.7343V39.8621L10.7934 39.8868V39.8967H10.8377V39.9165H10.8673V39.9364L10.9214 39.9611V39.971L10.9658 39.9809V39.9908H10.9953V40.0106L11.084 40.0403V40.0552H11.1283V40.075H11.1529V40.0948L11.3401 40.1691V40.1839C11.5321 40.2582 12.0197 40.4414 12.2167 40.4662V40.4811L13.0736 40.5999V40.585C13.1869 40.6148 13.3987 40.5652 13.5119 40.585V40.5751H13.5563V40.5652L13.6006 40.5751V40.5603H13.6449L13.6991 40.5702V40.5553H13.7286V40.5504H13.8567V40.5306H13.8862V40.5207H13.97V40.5108L14.0537 40.5009V40.491H14.0832V40.4761L14.1276 40.491V40.4761L14.2113 40.4613V40.4513H14.2408V40.4414H14.2999L14.3147 40.4167H14.3442V40.4068L14.3738 40.4167L14.4033 40.3919H14.4329L14.4477 40.3721H14.5018L14.5166 40.3474H14.5757L14.5856 40.3226H14.6151L14.6397 40.2929H14.6988L14.7235 40.2582H14.753L14.7826 40.2285L14.817 40.2384L14.8269 40.2137H14.8564C14.8564 40.2137 14.8958 40.1839 14.9155 40.174V40.1641H14.9402L14.9894 40.1245H15.014C15.0436 40.1245 15.871 39.5501 15.9104 39.5551L15.935 39.565V39.5501H15.9645L15.9793 39.5303H16.0089V39.5254H16.063V39.4956L16.1615 39.4709C16.1615 39.4709 16.1812 39.4214 16.196 39.4016L16.2403 39.3817H16.2699C16.2945 39.3421 16.3782 39.3174 16.4275 39.3075V39.2827C16.4275 39.2827 16.5851 39.2183 16.5949 39.1837H16.6294L16.654 39.1688V39.1441C16.7033 39.1094 16.9446 38.9212 16.9938 38.9014V38.8717L17.0332 38.8519L17.048 38.8123H17.0726V38.7925C17.0923 38.7677 17.1514 38.6984 17.1859 38.6934V38.6687L17.2155 38.6588V38.634C17.2155 38.634 17.2746 38.6241 17.2943 38.6192V38.5944L17.3189 38.5597L17.3484 38.5498V38.5251L17.3731 38.5152L17.3878 38.4657L17.4174 38.4557V38.431C17.5356 38.2973 17.8261 37.9457 18.0133 37.9061L18.0281 37.8714H18.0527L18.0675 37.8368L18.166 37.7724V37.7476L18.2645 37.6882V37.6635L18.3236 37.6337V37.609L18.3531 37.5991V37.5842H18.3777V37.5545H18.4073V37.5198L18.4516 37.505V37.4802L18.4812 37.4703V37.4456L18.5058 37.4357V37.4109H18.5353V37.3762H18.5649V37.3416H18.5895L18.6043 37.2871C18.6388 37.297 18.8899 37.0098 18.9146 36.9999L18.9293 36.9751H18.9441L18.9589 36.9553H18.9835V36.9504L19.0426 36.9306V36.9058H19.0672V36.8959L19.1263 36.8662H19.1411V36.8414C19.1559 36.8315 19.2642 36.782 19.2691 36.7622H19.2987L19.5843 36.4998H19.6139V36.48H19.6287L19.6385 36.4453L19.6976 36.4156V36.3908L19.7419 36.371V36.3463L19.7813 36.3314L19.7961 36.2819L19.8404 36.2621L19.8503 36.2126L19.8897 36.1928L19.9045 36.1432L19.9291 36.1333L19.9439 36.0838H19.9734V36.0491L20.003 36.0244V35.9996H20.0177V35.9749H20.0325C20.0325 35.9749 20.4856 35.5589 20.5004 35.5391H20.5299C20.5299 35.5391 20.6038 35.4648 20.6284 35.4698V35.445L20.7811 35.341V35.3113H20.8106V35.2915L20.8402 35.2816V35.2568H20.855L20.8845 35.2123H20.9091V35.1925C20.9288 35.1677 20.9879 35.0984 21.0273 35.0934L21.0372 35.0439L21.0815 35.0241L21.0963 34.9696L21.1258 34.9597V34.935L21.1554 34.9251V34.9003L21.18 34.8904L21.1948 34.8409H21.2194V34.8062L21.249 34.7815V34.7567H21.2637V34.7369H21.2785V34.7121L21.3081 34.6923V34.6676L21.3376 34.6577V34.6181H21.3524V34.5933H21.3671L21.4164 34.5289H21.4312V34.4893H21.4459V34.4646H21.4607V34.4299H21.4755L21.4853 34.3804H21.5001C21.51 34.3011 21.7414 34.0387 21.7907 33.9743H21.8202V33.9545L21.8744 33.9248V33.9L21.9483 33.8604V33.8357L22.0074 33.806V33.7762L22.0369 33.7663V33.7366L22.0763 33.7168V33.6921L22.1059 33.6822V33.6574L22.1354 33.6475V33.6227H22.1601V33.5881L22.1945 33.5782V33.5534L22.2241 33.5435L22.2389 33.494L22.2635 33.4841V33.4593H22.2783V33.4296H22.293V33.4098L22.3177 33.39V33.3603H22.3472L22.3768 33.286H22.3915V33.2613H22.4063L22.4309 33.187H22.4457V33.1523H22.4605V33.1276H22.4753L22.49 33.083H22.5048L22.5196 33.0236H22.5343L22.5491 32.9493H22.559L22.5737 32.9047H22.5885V32.8552H22.6033C22.6033 32.8552 22.8397 32.568 22.8545 32.5482V32.5185L22.9283 32.4789V32.4541L22.9973 32.4145V32.3848L23.0416 32.3699L23.0564 32.3204L23.0859 32.3105L23.1007 32.2709L23.1401 32.2511L23.1549 32.2016L23.1943 32.1817L23.2091 32.1273H23.2386L23.2534 32.0728L23.2829 32.0629V32.0381L23.3125 32.0183V31.9936H23.3273V31.9688H23.342V31.9441H23.3568V31.9242L23.3814 31.9143V31.8797L23.411 31.8698V31.8302H23.4258V31.8054H23.4405V31.7806H23.4553L23.4849 31.7113H23.4996V31.6717H23.5095V31.6519H23.5243L23.539 31.5875H23.5538L23.6031 31.4835H23.6178V31.4588H23.6326V31.4093H23.6474L23.8591 31.1468V31.122L23.9281 31.0824V31.0577L23.9872 31.028V31.0032H24.0167V30.9685L24.0561 30.9487V30.924L24.1005 30.9042L24.1152 30.8546L24.1596 30.8398V30.815L24.1842 30.8051V30.7754H24.199V30.7507L24.2236 30.7408L24.2384 30.6863H24.2679L24.2827 30.6417H24.2975V30.6071L24.327 30.5972V30.5674L24.3566 30.5476V30.5229H24.3713V30.4981H24.3861V30.4734H24.4009V30.4535H24.4157L24.4452 30.3793H24.4551V30.3446H24.4748V30.3198H24.4846L24.4994 30.2703H24.5142C24.5388 30.2456 24.8195 29.8445 24.8687 29.8643V29.8346L24.9672 29.7751V29.7504L25.0214 29.6613V29.6315H25.0559L25.0313 29.6117L25.0608 29.6018V29.5771H25.0904V29.5424L25.1298 29.5226V29.4978H25.1593L25.1741 29.4533H25.1889V29.4285H25.2135V29.3939L25.243 29.3839V29.3641L25.2726 29.3493L25.2972 29.28L25.3268 29.2701L25.3563 29.1958H25.3859L25.4105 29.1165H25.4302V29.0918H25.4203C25.4203 29.0918 25.4548 29.0769 25.4647 29.0819V29.0373H25.4794V29.0126H25.4893L25.509 28.968H25.5188L25.5582 28.8987H25.573V28.8739H25.5878V28.8392H25.6026V28.8145H25.6173V28.7798H25.6321V28.7402H25.6469L25.6715 28.7055H25.6814V28.6709H25.6961V28.6164H25.7109V28.5817H25.7257C25.77 28.5025 25.9079 28.3193 25.9769 28.2599V28.2351L26.0212 28.2153V28.1856H26.0359L26.0507 28.1509H26.0803V28.1163L26.1246 28.0965L26.1394 28.0469L26.1788 28.0271V28.0024L26.2083 27.9925L26.2379 27.9182L26.2674 27.9083V27.8835L26.292 27.8588V27.834H26.3068V27.8093H26.3364V27.7597H26.3511V27.735L26.3807 27.7251V27.6855H26.3905V27.6607H26.4053L26.4349 27.5914H26.4496V27.5518H26.4644L26.4743 27.5072H26.489V27.4725H26.5038V27.4527H26.5186V27.4131H26.5334V27.3784H26.5481V27.3537H26.5629L26.5728 27.2794H26.5777L26.5875 27.2844H26.5925V27.2943H26.5826V27.2992L26.6565 27.4082V27.4329L26.686 27.4527V27.4824L26.7156 27.5022V27.527L26.7402 27.5468V27.5716H26.755L26.7698 27.6161L26.7993 27.6359V27.6657L26.8584 27.7152V27.7399L26.9175 27.7894V27.8192C27.0653 27.9083 27.2425 28.3936 27.3657 28.5075L27.4001 28.5966H27.41L27.4297 28.6412L27.4592 28.656V28.6857L27.4888 28.7006V28.7253L27.5331 28.76V28.7848L27.5774 28.8194V28.8491L27.6513 28.9135V28.9383L27.9222 29.3196H27.937L27.9567 29.379H27.9665V29.4236H27.9813L28.0355 29.5176H28.0502L28.065 29.5771L28.0946 29.5969L28.1093 29.6513H28.1241V29.6811L28.1537 29.7009V29.7256L28.1832 29.7454V29.7702L28.2128 29.795V29.8148L28.2472 29.8346V29.8593L28.2768 29.8791V29.9039L28.3113 29.9534V29.9782L28.4541 30.1267V30.1515L28.5132 30.201V30.2208C28.5772 30.2901 28.6954 30.4486 28.7496 30.5278H28.7594L28.784 30.5575H28.7988V30.5872H28.8136L28.8284 30.6467H28.8431L28.8579 30.7011L28.8875 30.7209L28.9022 30.7754L28.9318 30.7903V30.82L28.9613 30.8398V30.8646L29.0106 30.9042V30.924L29.05 30.9636V30.9883C29.05 30.9883 29.1239 31.0478 29.1239 31.0824C29.1583 31.0973 29.3012 31.2855 29.3307 31.3251H29.3209H29.3258C29.311 31.3251 29.1042 31.3894 29.0894 31.3746V31.3845H29.0598V31.3944H29.0352L29.0057 31.4093H28.9761L28.9613 31.4291H28.9367L28.917 31.4489H28.8924L28.8776 31.4687H28.8185L28.8037 31.4934L28.7742 31.4835L28.7446 31.5182H28.7151L28.6905 31.5479L28.6609 31.538L28.6363 31.5727H28.6117L28.5969 31.5875H28.4294V31.5974L28.3851 31.5875V31.6024L28.3408 31.5925V31.6073H28.1537V31.6222H28.1241V31.6321L28.0798 31.6222V31.637H28.0256V31.6519H27.9813H27.9222V31.6717L27.8828 31.6618L27.8729 31.6866H27.8434V31.6965H27.8188V31.7014H27.7843L27.7547 31.7212H27.7301L27.7153 31.741H27.6562V31.7608H27.6119L27.5971 31.7905H27.543L27.5282 31.8153H27.4986L27.474 31.845H27.4445L27.4149 31.8747H27.3854L27.3361 31.9242H27.3066L27.2622 31.9639H27.2376L27.2081 31.9787V32.0035L27.1391 32.0282L27.1145 32.0629L27.085 32.0728V32.0976C27.085 32.0976 27.0259 32.1075 27.0111 32.1223V32.152L26.9569 32.1817V32.2065L26.888 32.2461V32.2709L26.8436 32.2907V32.3204L26.8042 32.3353V32.365L26.7796 32.3749L26.7648 32.4194L26.7402 32.4293V32.4591H26.7107L26.6959 32.5185L26.6663 32.5284V32.5531H26.6565V32.5779H26.6417V32.6027L26.6171 32.6225V32.6472L26.5925 32.6571V32.6967H26.5777L26.5629 32.7463H26.5432V32.7809H26.5334L26.5186 32.8304H26.5038V32.8701H26.494V32.8899H26.4743L26.4349 33.0533H26.4201V33.0879H26.4053V33.1226H26.3905C26.3905 33.2167 26.3462 34.3457 26.3758 34.4002H26.3905V34.4596H26.4053L26.4201 34.5586H26.4349V34.6032H26.4496V34.6428H26.4644L26.494 34.7815H26.5087L26.5235 34.8359H26.5383V34.8805H26.5531V34.9102H26.5678L26.5826 34.9845H26.5974L26.6269 35.0736H26.6417V35.1033H26.6565V35.1331H26.6713V35.1578L26.7008 35.1925V35.2172L26.7254 35.237L26.7451 35.2965H26.7599L26.7747 35.341L26.8042 35.3608V35.3856H26.8239L26.8387 35.4302L26.8683 35.445V35.4747L26.9077 35.5094V35.5342L26.952 35.5688V35.5936L26.9815 35.6134V35.6282L27.0111 35.648V35.6728L27.085 35.7669H27.1096L27.213 35.9105H27.2425C27.2672 35.9402 27.3755 36.0937 27.4149 36.0937L27.4445 36.1383H27.474L27.5036 36.1878H27.5331L27.5627 36.2373H27.5922L27.607 36.272H27.6365L27.6513 36.3066L27.6956 36.3264V36.3413L27.7547 36.3611L27.7695 36.3908L27.8582 36.4354L27.8729 36.4651L27.932 36.4899V36.4998H27.9567V36.5196L28.0453 36.5592V36.574H28.0896V36.5938L28.1487 36.6186V36.6285L28.1881 36.6384V36.6533H28.2177V36.6731L28.2571 36.683V36.6978H28.2866V36.7176L28.3851 36.7474V36.7622L28.4294 36.7721V36.787L28.587 36.8414V36.8563L28.6609 36.8712V36.886L28.72 36.8959V36.9108L28.8037 36.9256V36.9355L28.9219 36.9603V36.9751L29.0894 37.0098V37.0197L29.6213 37.1039V37.094L29.7345 37.1138V37.0989L29.8035 37.1138V37.0989L29.8724 37.1138V37.0989L29.9266 37.1088V37.0989L29.9857 37.1088V37.094L30.0448 37.1039V37.094C30.0547 37.1237 30.5373 37.0247 30.5669 37.0197L30.5866 36.995H30.6309L30.6457 36.9801L30.7294 36.9702L30.7441 36.9454H30.7983L30.8131 36.9157H30.8673L30.8968 36.8811H30.9264L30.9362 36.8612H30.9658L30.9953 36.8315H31.0249L31.0544 36.8018H31.084L31.1381 36.7573C31.148 36.7771 31.4238 36.6533 31.4386 36.6533V36.6384L31.4829 36.6483V36.6384L31.5223 36.6483V36.6335H31.5518V36.6236L31.6011 36.6335V36.6236H31.6306V36.6087L31.67 36.6236V36.6087L31.7538 36.5988V36.5839H31.7833V36.574H31.8129V36.5641H31.8375V36.5542L31.9261 36.5443L31.936 36.5196H31.9951V36.5047H32.0345L32.0492 36.475H32.1083L32.1231 36.4502H32.1527L32.1822 36.4205H32.2068L32.2315 36.3908L32.261 36.4007L32.3201 36.3413H32.3497C32.3792 36.2918 32.5516 36.2324 32.6058 36.2076V36.1977H32.6452H32.6895V36.1928L32.7289 36.1779V36.168L32.7732 36.1779V36.163H32.7978V36.1581H32.8422V36.1531L32.9259 36.1383V36.1284H32.9554V36.1185H32.985V36.1086H33.0145V36.0987H33.0441V36.0888H33.0736V36.0789H33.1032L33.1278 36.064H33.1623L33.1721 36.0442H33.2312L33.246 36.0145H33.2755V36.0095C33.374 35.9996 33.5169 35.9055 33.6006 35.856H33.6351C33.6794 35.8214 33.7877 35.7273 33.8419 35.7025V35.6778L33.9109 35.6877L33.9798 35.6183H34.0094C34.0094 35.6183 34.0192 35.5837 34.0143 35.5738L34.0537 35.5837V35.5688L34.1374 35.5589V35.5441L34.167 35.554V35.5391H34.1916V35.5292H34.2507L34.2704 35.5044L34.3541 35.4945V35.4846H34.3984L34.4132 35.4549H34.4427V35.45H34.4821L34.4969 35.4203H34.5265L34.556 35.3905H34.5806L34.625 35.3509L34.6545 35.3608L34.6988 35.3163H34.7284L34.822 35.2321H34.8663V35.2024C34.9008 35.1727 34.9796 35.1182 35.019 35.0984V35.0736H35.0288L34.9894 35.0637V35.0885H34.9106H34.9845V35.0588H35.0239L35.0978 35.0192L35.1125 34.9944H35.1372L35.1519 34.9746L35.2357 34.9647L35.2504 34.9399H35.28V34.93H35.3095V34.9251H35.3391L35.3637 34.9102C35.3736 34.9102 35.3932 34.9003 35.4031 34.8954H35.408L35.4277 34.9003L35.4376 34.8756H35.472L35.4819 34.8557H35.5164L35.5262 34.8409H35.5558V34.831H35.6001L35.6149 34.8062H35.6444L35.6887 34.7666H35.7183L35.7725 34.7171H35.802L35.9005 34.6329H35.9301V34.623L35.9744 34.6032L35.9892 34.5636L36.0877 34.5042V34.4794L36.1566 34.4398V34.415H36.1862V34.3952H36.2157V34.3606L36.2502 34.3507V34.3209H36.2748V34.2863L36.3191 34.2665C36.3339 34.2318 36.3782 34.1823 36.4176 34.1724L36.4324 34.1476H36.462L36.4718 34.1031L36.5063 34.113L36.5161 34.0882H36.5457L36.5604 34.0684H36.59L36.6048 34.0486H36.6491L36.7082 33.9892H36.7377L36.7968 33.9347H36.8215V33.9248L36.851 33.9149V33.8901H36.8806L36.9347 33.8406H36.9495V33.8208L37.0086 33.801V33.7762L37.0825 33.7317V33.7069L37.1367 33.6772V33.6524H37.181V33.6277L37.2943 33.5534H37.3534L37.3632 33.5039H37.4223V33.489H37.4617L37.4765 33.4593H37.5011V33.4494H37.5454L37.5553 33.4247H37.5848L37.6095 33.395H37.639L37.6538 33.3751H37.6686L37.6833 33.3553H37.7129V33.3504L37.767 33.3355V33.3108L38.0379 33.1375V33.1077L38.0773 33.0929V33.0632C38.0773 33.0632 38.1216 33.0384 38.1463 33.0186L38.2546 33.0731C38.2546 33.0731 38.2743 33.0978 38.2842 33.1028V33.1276L38.4024 33.2414V33.2662L38.4467 33.3009V33.3157H38.4713L38.5895 33.4593H38.6141L38.6732 33.5386H38.7077L38.7176 33.5732L38.752 33.5831L38.7767 33.6277L38.821 33.6475L38.8358 33.6772H38.8604L38.8801 33.7119L38.9342 33.7366L38.949 33.7713L38.9933 33.7911V33.801L39.0771 33.8456L39.0918 33.8703L39.1509 33.9V33.9149L39.2051 33.9347V33.9496L39.279 33.9743L39.2938 34.004H39.3233L39.3529 34.0535H39.3676V34.0882L39.4267 34.1377V34.1625C39.4809 34.212 39.5942 34.3457 39.6434 34.4051H39.673L39.7272 34.4844H39.7616V34.4893C39.8749 34.5784 40.328 35.0043 40.3969 35.1083V35.138C40.6875 35.4401 41.707 36.3116 41.9975 36.574L42.0271 36.5839L42.0419 36.6087H42.0714L42.096 36.6582L42.1502 36.678L42.165 36.7127L42.2241 36.7325L42.2389 36.7622L42.3226 36.8018V36.8117L42.3521 36.8216V36.8365H42.3817V36.8563L42.4703 36.9009V36.9157L42.9431 37.3069H42.9727L43.0367 37.3911H43.0613L43.0761 37.4258H43.1007L43.1352 37.4802H43.1647L43.1795 37.5149L43.2238 37.5298V37.5496H43.2485C43.2534 37.5842 43.3273 37.6139 43.3519 37.6238L43.3716 37.6535L43.4307 37.6783V37.6932H43.4602V37.708L43.5439 37.7526V37.7674H43.5932V37.7872L43.6474 37.812V37.8269L44.0512 38.1388H44.0808L44.1399 38.223H44.1694L44.8293 38.6835L44.8737 38.7033V38.7182H44.918V38.738L44.9623 38.7479V38.7628L45.0214 38.7727V38.7875L45.4351 39.05V39.0599L45.5238 39.1044L45.5385 39.1342L45.5976 39.1589V39.1738L45.6567 39.1936V39.2084H45.7011V39.2282L45.7552 39.248V39.2629L45.8291 39.2877V39.3025C46.0015 39.3916 46.9077 39.6491 47.1194 39.6343V39.6194L47.1884 39.6343V39.6194L47.2475 39.6293V39.6145L47.3066 39.6244V39.6095H47.346H47.3854H47.4297V39.6046H47.4789V39.5996H47.5036V39.5897L47.5479 39.5996V39.5848H47.607V39.5699L47.735 39.5551L47.7498 39.5303L47.8335 39.5204L47.8483 39.4956H47.9074V39.4808H47.9468L47.9616 39.4511H47.9862L48.0108 39.4263H48.0453L48.0699 39.3966H48.0995L48.1438 39.357H48.1684C48.2226 39.3075 48.3408 39.2183 48.4097 39.1837V39.154L48.4639 39.1242V39.0945L48.5033 39.0747V39.045L48.5427 39.0252V39.0005H48.5723L48.587 38.941H48.6166L48.6314 38.8965H48.6461L48.6708 38.8222H48.6855V38.7974H48.7003V38.7727H48.7151V38.7529H48.7299L48.7545 38.6835H48.7693V38.6489H48.784V38.6241H48.7988V38.5845H48.8136V38.5597H48.8284L48.8431 38.4706H48.8579V38.4359H48.8727V38.3864H48.8875V38.3369H48.9022V38.2725H48.917V38.2082H48.9318V38.119H48.9416L48.9564 37.7773H48.9416L48.9958 37.8021ZM41.0864 28.8442L41.0963 28.8838L41.0914 28.8442H41.0717V28.8392H41.0963L41.0864 28.8442ZM35.6149 34.8211C35.6149 34.8211 35.6887 34.7716 35.7134 34.7567C35.6887 34.7716 35.6346 34.8013 35.6149 34.8211ZM35.7331 34.7518H35.738H35.7281H35.7331Z" fill="white"/>
</g>
<defs>
<clipPath id="clip0_266_56381">
<rect width="56" height="56" fill="white"/>
</clipPath>
</defs>
</svg>
