<svg width="56" height="56" viewBox="0 0 56 56" fill="none" xmlns="http://www.w3.org/2000/svg">
<g clip-path="url(#clip0_266_56345)">
<path d="M0 28.0005C0 29.649 0 29.8325 0.0525 31.2325C0.144 34.3335 0.4845 37.8925 1.7285 41.6475C2.606 44.3035 4.2555 47.169 5.9055 48.9745C8.0005 51.2775 10.894 53.1615 14.01 54.2345C17.205 55.3335 20.6615 55.87 27.378 56.001H28.622C35.352 55.857 38.7955 55.3335 41.99 54.2345C45.1195 53.1615 48 51.2775 50.108 48.9745C51.758 47.156 53.4075 44.3035 54.285 41.6475C55.529 37.8925 55.8695 34.3205 55.961 31.2325C56.0005 29.8455 56.0005 29.6495 56.0005 28.0005C56.0005 26.3515 56.0005 26.1555 55.961 24.7685C55.8565 21.6675 55.529 18.1085 54.285 14.3535C53.408 11.6975 51.758 8.83199 50.108 7.02649C48.013 4.7235 45.1195 2.8395 41.99 1.7665C38.795 0.667498 35.3385 0.131 28.622 0H27.378C20.648 0.144 17.2045 0.667498 14.01 1.7665C10.8805 2.8395 8 4.7235 5.9055 7.02649C4.2555 8.84499 2.606 11.6975 1.7285 14.3535C0.4845 18.109 0.144 21.668 0.0525 24.7685C0 26.1555 0 26.3515 0 28.0005Z" fill="#266798"/>
<path d="M12.5 29.4885V28.2625C12.5 28.2625 12.531 28.1859 12.531 28.1553C12.5931 27.5883 12.6241 27.0213 12.7172 26.4543C12.95 24.9219 13.4465 23.4661 14.1447 22.0869C14.5791 21.2287 15.0911 20.4319 15.6807 19.681C16.2393 18.9608 16.8598 18.3018 17.5425 17.6889C18.52 16.8154 19.5751 16.0798 20.7388 15.4669C21.5456 15.0531 22.3989 14.7007 23.2678 14.4248C24.4935 14.0417 25.7503 13.8272 27.0226 13.7659C27.7984 13.7352 28.5741 13.7812 29.3344 13.9957C30.2188 14.2409 30.979 14.7007 31.6152 15.3596C32.5461 16.3557 33.4925 17.3211 34.4235 18.3018C35.0596 18.9608 35.6802 19.6197 36.3163 20.2786C37.3559 21.3667 38.3955 22.4393 39.435 23.5274C39.7298 23.8338 40.0401 24.1557 40.3349 24.4621C39.0005 25.826 37.6818 27.1592 36.3319 28.5537C33.4926 25.734 30.6687 22.945 27.8604 20.156C24.9124 23.0676 21.9645 25.9792 19.0476 28.8448C21.98 31.7564 24.9279 34.668 27.8914 37.5949C27.9224 37.5643 27.9535 37.503 28 37.457C30.8549 34.6374 33.7098 31.8177 36.5646 28.9981C36.6577 28.9061 36.7508 28.8602 36.8904 28.8602C38.9074 28.8602 40.9245 28.8602 42.9415 28.8602H43.1743C43.1587 29.2279 43.1743 29.5651 43.1277 29.9022C43.0501 30.6071 42.9726 31.312 42.8329 32.0169C42.5071 33.5647 41.933 35.0358 41.1106 36.415C40.3349 37.7175 39.3885 38.8975 38.2713 39.9242C37.2939 40.813 36.2233 41.5792 35.0596 42.2075C33.896 42.8205 32.6857 43.2955 31.4135 43.5713C30.6842 43.7246 29.9394 43.8165 29.1947 43.9238C29.0086 43.9544 28.8223 43.9698 28.6206 44.0004H27.0691C27.0691 44.0004 26.9605 43.9698 26.9139 43.9698C26.5726 43.9391 26.2313 43.9391 25.9055 43.8932C24.7728 43.7399 23.6712 43.4794 22.6006 43.0963C21.1887 42.5906 19.8699 41.8857 18.6752 40.9969C17.3098 39.9855 16.1462 38.7902 15.1842 37.3957C14.3464 36.1851 13.6947 34.8672 13.2292 33.4727C12.8258 32.2162 12.5776 30.9289 12.531 29.5957C12.531 29.5498 12.5 29.5191 12.5 29.4731" fill="white"/>
<path d="M43.4998 21.305C42.6619 22.1326 41.8551 22.9601 41.0173 23.8029C40.8001 23.573 40.5828 23.3585 40.3811 23.1439C39.8691 22.6076 39.3571 22.0713 38.8451 21.5349C37.8987 20.5388 36.9367 19.5428 35.9902 18.5467C35.4472 17.9797 34.9197 17.4127 34.3766 16.8457C33.725 16.1561 33.0733 15.4819 32.4217 14.7923C31.8941 14.2253 31.258 13.8269 30.5443 13.5204C29.6599 13.1526 28.7445 12.9687 27.7825 12.9687C27.5343 12.9687 27.286 12.9994 26.9912 13.03C27.0998 12.9381 27.1774 12.8768 27.255 12.8155C27.7825 12.463 28.3721 12.2944 28.9772 12.1719C29.6444 12.0339 30.3271 11.988 31.0098 12.0033C32.3441 12.0339 33.6474 12.2791 34.8576 12.8921C35.5558 13.2445 36.1299 13.7656 36.6574 14.3172C37.3401 15.0375 38.0383 15.7424 38.7365 16.4473C39.6985 17.4434 40.6759 18.4241 41.6379 19.4202C42.212 20.0025 42.7861 20.6001 43.3601 21.1825C43.3912 21.2131 43.4222 21.2591 43.4687 21.305" fill="white"/>
</g>
<defs>
<clipPath id="clip0_266_56345">
<rect width="56" height="56" fill="white"/>
</clipPath>
</defs>
</svg>
