<svg width="40" height="40" viewBox="0 0 40 40" fill="none" xmlns="http://www.w3.org/2000/svg">
<g clip-path="url(#clip0_266_55763)">
<path d="M0 20C0 21.1776 0 21.3084 0.0280636 22.3084C0.1029 24.5234 0.336763 27.0654 1.22544 29.7476C1.8522 31.6449 3.03087 33.6916 4.20954 34.9813C5.70625 36.6261 7.77361 37.9718 10.0094 38.7382C12.2919 39.5232 14.7615 39.9064 19.5603 40H20.449C25.2573 39.8971 27.7175 39.5232 30 38.7382C32.2358 37.9718 34.2937 36.6261 35.7904 34.9813C36.9693 33.6823 38.1479 31.6449 38.7746 29.7476C39.6632 27.0654 39.9064 24.514 39.9718 22.3084C40 21.3178 40 21.1776 40 20C40 18.8224 40 18.6916 39.9718 17.6916C39.8971 15.4766 39.6632 12.9346 38.7746 10.2523C38.1479 8.35514 36.9693 6.30839 35.7904 5.01868C34.2937 3.37383 32.2264 2.02804 30 1.26168C27.7175 0.476636 25.2479 0.0934579 20.449 0H19.5603C14.7521 0.102804 12.2919 0.476636 10.0094 1.26168C7.77361 2.02804 5.71561 3.37383 4.20954 5.01868C3.03087 6.31775 1.8522 8.35514 1.22544 10.2523C0.346118 12.9346 0.1029 15.4766 0.0280636 17.6916C0 18.6823 0 18.8224 0 20Z" fill="url(#paint0_linear_266_55763)"/>
<mask id="mask0_266_55763" style="mask-type:luminance" maskUnits="userSpaceOnUse" x="7" y="11" width="26" height="17">
<path d="M32.5 11.0713H7.5V27.1427H32.5V11.0713Z" fill="white"/>
</mask>
<g mask="url(#mask0_266_55763)">
<path d="M15.1884 23.9293L15.1431 23.9728C14.4309 24.6909 13.6068 25.0704 12.758 25.0704C10.9851 25.0704 9.69895 23.754 9.69895 21.9383C9.69895 20.1254 10.9851 18.8069 12.758 18.8069C13.6068 18.8069 14.4309 19.1884 15.1431 19.9094L15.1884 19.9522L16.3286 18.5874L16.2981 18.5509C15.35 17.4422 14.212 16.9028 12.8132 16.9028C11.4109 16.9028 10.127 17.3706 9.20296 18.2129C8.19674 19.126 7.66742 20.4136 7.66742 21.9383C7.66742 23.4629 8.19674 24.7534 9.20296 25.6665C10.127 26.5137 11.4109 26.9779 12.8132 26.9779C14.212 26.9779 15.35 26.4379 16.2981 25.3284L16.3286 25.2948L15.1884 23.9293Z" fill="white"/>
<path d="M17.4805 26.792H19.4943V17.0605H17.4805V26.792Z" fill="white"/>
<path d="M27.3832 24.6763C26.8454 25.0003 26.3458 25.1637 25.8966 25.1637C25.2454 25.1637 24.9506 24.8228 24.9506 24.0654V18.9016H27.0034V17.0698H24.9506V14.0415L22.9772 15.0879V17.0698H21.2737V18.9016H22.9772V24.3943C22.9772 25.8902 23.8729 26.9141 25.2107 26.9408C26.1184 26.9583 26.6654 26.6904 26.9971 26.4941L27.0183 26.4808L27.5023 24.604L27.3832 24.6763Z" fill="white"/>
<path d="M29.0507 26.792H31.0673V17.0605H29.0507V26.792Z" fill="white"/>
<path d="M32.2418 15.3544C30.4016 12.775 27.3462 11.2363 24.2376 11.2363C21.1297 11.2363 18.0735 12.775 16.2369 15.3544L16.1419 15.487H18.459L18.4845 15.4596C20.0611 13.848 22.1203 12.9966 24.2376 12.9966C26.3549 12.9966 28.4126 13.848 29.9928 15.4596L30.0183 15.487H32.334L32.2418 15.3544Z" fill="#EE1C25"/>
</g>
</g>
<defs>
<linearGradient id="paint0_linear_266_55763" x1="20" y1="0" x2="20" y2="40" gradientUnits="userSpaceOnUse">
<stop stop-color="#02BDF4"/>
<stop offset="1" stop-color="#014B8A"/>
</linearGradient>
<clipPath id="clip0_266_55763">
<rect width="40" height="40" fill="white"/>
</clipPath>
</defs>
</svg>
