<svg width="24" height="24" viewBox="0 0 24 24" fill="none" xmlns="http://www.w3.org/2000/svg">
<g clip-path="url(#clip0_266_55036)">
<path d="M0 12C0 12.7066 0 12.7851 0.0224456 13.3851C0.0617254 14.714 0.207622 16.2393 0.740705 17.8486C1.11667 18.987 1.82371 20.215 2.53074 20.9888C3.42857 21.9758 4.66868 22.7832 6.0042 23.243C7.37338 23.7141 8.8548 23.9441 11.7334 24H12.2665C15.1508 23.9383 16.6266 23.7141 17.9958 23.243C19.3369 22.7832 20.5714 21.9758 21.4749 20.9888C22.1818 20.2094 22.8889 18.987 23.2648 17.8486C23.7979 16.2393 23.9438 14.7084 23.9831 13.3851C24 12.7907 24 12.7066 24 12C24 11.2935 24 11.215 23.9831 10.615C23.9383 9.28599 23.7979 7.76076 23.2648 6.15141C22.8889 5.01309 22.1818 3.78506 21.4749 3.01122C20.577 2.0243 19.3369 1.21683 17.9958 0.75701C16.6266 0.285983 15.1452 0.0560748 12.2665 0H11.7334C8.84918 0.0616823 7.37338 0.285983 6.0042 0.75701C4.66308 1.21683 3.42857 2.0243 2.53074 3.01122C1.82371 3.79067 1.11667 5.01309 0.740705 6.15141C0.207622 7.76076 0.0617254 9.28599 0.0224456 10.615C0 11.2094 0 11.2935 0 12Z" fill="#29B54F"/>
<path d="M15.1129 13.9615C15.1561 13.7456 15.1561 13.5113 15.1438 13.2892C15.1005 12.6046 14.6306 12.0495 13.9691 11.8644C13.8579 11.8336 13.7466 11.8027 13.6353 11.7719V11.7349C13.932 11.6239 14.2103 11.4758 14.4204 11.2353C14.6368 10.9886 14.7667 10.7049 14.8038 10.3841C14.8409 10.0202 14.7914 9.71183 14.6801 9.48978C14.5812 9.28006 14.2783 8.73113 13.2582 8.66943H13.2396V15.0718C13.4993 15.0718 13.932 15.0101 14.1979 14.9237C14.6739 14.7757 15.0016 14.455 15.1067 13.9553L15.1129 13.9615Z" fill="white"/>
<path d="M16.0463 5.36359H7.95991C6.52563 5.36359 5.35718 6.5355 5.35718 7.96646V16.0403C5.35718 17.4712 6.53181 18.6431 7.95991 18.6431H11.9908C12.0031 18.0572 11.9846 7.33116 11.9846 7.33116C14.2288 7.19546 15.255 8.02813 15.7125 8.8608C15.8423 9.09519 15.9227 9.31723 15.9783 9.52078C16.0834 9.91551 16.0773 10.2301 16.0773 10.3349C16.0773 10.4645 16.0587 10.6063 16.034 10.742C16.0154 10.8407 15.9845 10.9332 15.9474 11.0258C15.9289 11.0689 15.9165 11.1121 15.8918 11.1553C15.7249 11.4698 15.5023 11.6302 15.5023 11.6302C15.5023 11.6302 15.6692 11.8029 15.7496 11.9077C16.1329 12.4074 16.3616 12.8638 16.3987 13.5238C16.4296 14.1776 16.2998 14.745 15.8918 15.2261C15.83 15.294 15.7681 15.3618 15.7001 15.4296C15.4899 15.627 15.2674 15.7812 15.0263 15.9046C14.6059 16.1205 14.1236 16.213 13.6971 16.2623C13.5054 16.2808 13.2952 16.2931 13.221 16.287C13.221 16.324 13.221 17.7303 13.2148 18.4396C13.2148 18.4519 13.2148 18.5815 13.2148 18.637H16.034C17.4683 18.637 18.6429 17.4651 18.6429 16.0341V7.96029C18.6429 6.52933 17.4683 5.35742 16.034 5.35742L16.0463 5.36359ZM11.218 14.2886C11.082 15.1706 10.6121 15.8182 9.86406 16.287C9.8146 16.3178 9.74659 16.3363 9.68476 16.3302C9.23346 16.3178 8.78834 16.2993 8.33703 16.287C8.28758 16.287 8.24429 16.2808 8.19484 16.2747C8.21956 16.213 9.26438 15.3988 9.62294 14.8869C10.0124 14.3318 10.0186 13.863 9.57349 13.351C9.29528 13.0303 8.96764 12.7528 8.65233 12.4629C7.93518 11.8029 7.52097 11.0196 7.59516 10.0204C7.60752 9.8415 7.68171 8.71277 8.73269 7.89861C9.55495 7.25715 10.6616 7.30033 11.014 7.33116C11.0387 7.33116 11.082 7.33734 11.1129 7.34349H11.1191L11.1314 8.58941C11.1314 8.58941 10.9089 8.58941 10.8347 8.58941C9.27055 8.60792 8.99854 9.66264 9.03563 9.55161C8.95527 9.80449 8.93671 10.1129 9.00473 10.3966C9.11601 10.8654 9.40658 11.2231 9.72805 11.5685C10.0804 11.9509 10.4452 12.321 10.779 12.7219C11.1562 13.1722 11.3107 13.7026 11.218 14.2947V14.2886Z" fill="white"/>
</g>
<defs>
<clipPath id="clip0_266_55036">
<rect width="24" height="24" fill="white"/>
</clipPath>
</defs>
</svg>
