<svg width="32" height="32" viewBox="0 0 32 32" fill="none" xmlns="http://www.w3.org/2000/svg">
<g clip-path="url(#clip0_266_55580)">
<path d="M0 16C0 16.9421 0 17.0467 0.0224456 17.8467C0.0823006 19.6187 0.269348 21.6523 0.980126 23.7981C1.48141 25.3159 2.42413 26.9533 3.36686 27.9851C4.56394 29.3009 6.21743 30.3774 8.0056 30.9906C9.8312 31.6186 11.8064 31.9251 15.6446 32H16.3554C20.2011 31.9177 22.1688 31.6186 23.9944 30.9906C25.7825 30.3774 27.4286 29.3009 28.6331 27.9851C29.576 26.9458 30.5186 25.3159 31.02 23.7981C31.7306 21.6523 31.9251 19.6112 31.9774 17.8467C32 17.0542 32 16.9421 32 16C32 15.0579 32 14.9458 31.9774 14.1533C31.9177 12.3813 31.7306 10.3477 31.02 8.20186C30.5186 6.68411 29.576 5.04671 28.6331 4.01494C27.4361 2.69907 25.7825 1.62243 23.9944 1.00935C22.1688 0.381309 20.1936 0.0747663 16.3554 0H15.6446C11.7989 0.0822429 9.8312 0.381309 8.0056 1.00935C6.21743 1.62243 4.57143 2.69907 3.36686 4.01494C2.42413 5.0542 1.48141 6.68411 0.980126 8.20186C0.276829 10.3477 0.0823006 12.3813 0.0224456 14.1533C0 14.9458 0 15.0579 0 16Z" fill="#ED3423"/>
<path d="M11.0948 10.8569C12.7243 12.5316 14.3876 14.2487 16.0086 15.9148C17.7059 14.2232 19.3947 12.5316 21.0666 10.8569H11.0948ZM20.9987 21.1426C19.3523 19.4935 17.6719 17.8189 15.9831 16.1273C14.3622 17.7764 12.6988 19.4595 11.0439 21.1426H20.9987ZM21.3466 21.0236C21.3466 21.0236 21.3975 21.0576 21.423 21.0746C23.0609 19.3915 24.7073 17.6999 26.2858 16.0763C24.6818 14.4272 23.0354 12.7356 21.3551 11.0014V21.0236H21.3466ZM5.71436 16.0253C7.41167 17.6999 9.07504 19.3405 10.7724 21.0151V11.0354C9.06656 12.7186 7.40318 14.3592 5.71436 16.0338" fill="white"/>
<path d="M11.095 10.8569H21.0667C19.3948 12.5316 17.706 14.2147 16.0087 15.9148C14.3878 14.2487 12.7244 12.5316 11.095 10.8569Z" fill="white"/>
<path d="M20.9984 21.1428H11.0437C12.6986 19.4597 14.362 17.7766 15.9829 16.1274C17.6717 17.8191 19.352 19.4937 20.9984 21.1428Z" fill="white"/>
<path d="M21.3466 21.0242V11.002C23.0354 12.7361 24.6734 14.4277 26.2773 16.0768C24.6988 17.7004 23.0609 19.3835 21.4145 21.0752C21.389 21.0582 21.3636 21.0412 21.3381 21.0242" fill="white"/>
<path d="M5.71436 16.0257C7.40318 14.3596 9.07504 12.7105 10.7724 11.0273V21.0155C9.07504 19.3409 7.40318 17.6918 5.71436 16.0257Z" fill="white"/>
</g>
<defs>
<clipPath id="clip0_266_55580">
<rect width="32" height="32" fill="white"/>
</clipPath>
</defs>
</svg>
