<svg width="24" height="24" viewBox="0 0 24 24" fill="none" xmlns="http://www.w3.org/2000/svg">
<g clip-path="url(#clip0_266_55133)">
<path d="M0 12C0 12.7065 0 12.785 0.0168382 13.385C0.06174 14.714 0.202058 16.2393 0.735266 17.8486C1.11132 18.9869 1.81852 20.2149 2.52572 20.9888C3.42375 21.9756 4.66416 22.7831 6.00561 23.2429C7.37511 23.7139 8.85688 23.9439 11.7362 24H12.2694C15.1544 23.9383 16.6305 23.7139 18 23.2429C19.3414 22.7831 20.5762 21.9756 21.4742 20.9888C22.1816 20.2094 22.8887 18.9869 23.2648 17.8486C23.7979 16.2393 23.9439 14.7084 23.9831 13.385C24 12.7907 24 12.7065 24 12C24 11.2935 24 11.2149 23.9831 10.6149C23.9383 9.28599 23.7979 7.76074 23.2648 6.15139C22.8887 5.01309 22.1816 3.78504 21.4742 3.01121C20.5762 2.0243 19.3358 1.21682 18 0.757009C16.6305 0.285981 15.1487 0.0560747 12.2694 0H11.7362C8.85126 0.0616821 7.37511 0.285981 6.00561 0.757009C4.66416 1.21682 3.42936 2.0243 2.52572 3.01121C1.81852 3.79065 1.11132 5.01309 0.735266 6.15139C0.207671 7.76074 0.06174 9.28599 0.0168382 10.6149C0 11.2093 0 11.2935 0 12Z" fill="#0072BB"/>
<path fill-rule="evenodd" clip-rule="evenodd" d="M21.8571 12.5481V12.5245C21.8571 12.4977 21.8569 12.471 21.8565 12.4443C21.8569 12.4795 21.8569 12.5141 21.8571 12.5481ZM2.15874 12.9167C2.14818 12.7869 2.14282 12.6561 2.14282 12.5245C2.14282 12.4457 2.14473 12.3672 2.14854 12.289C2.21437 12.1129 2.76114 10.9818 5.96189 10.729C5.96189 10.729 7.56965 10.6302 9.17896 10.9218C9.17896 10.9218 6.35247 9.75723 9.02741 8.38638C9.02741 8.38638 11.2379 7.11513 15.7196 8.02928C15.7196 8.02928 16.2382 8.22393 15.7196 8.43018C15.7196 8.43018 13.8712 8.77533 13.4257 9.82874C13.4257 9.82874 13.1878 10.4078 13.6901 10.8922C13.6901 10.8922 14.0826 11.1853 13.4083 11.1715C13.4083 11.1715 10.4973 10.729 8.32657 11.9849C8.32657 11.9849 6.76008 12.816 7.99282 13.9248C7.99282 13.9248 8.46901 14.2287 7.85189 14.3118C7.85189 14.3118 3.42747 14.8932 2.18109 12.9552L2.15874 12.9167ZM11.8836 5.67918C11.9199 5.6789 11.9562 5.67878 11.9926 5.67878C12.0794 5.67878 12.1659 5.67948 12.2521 5.68092C12.1683 5.67944 12.0843 5.67871 12 5.67871C11.9611 5.67871 11.9224 5.67886 11.8836 5.67918ZM21.5224 10.7492C21.538 10.7944 21.5528 10.8398 21.5672 10.8854C20.7334 10.6395 19.8773 10.6302 19.8773 10.6302C16.6295 10.2989 15.0047 11.2112 15.0047 11.2112C12.404 12.5143 15.0047 13.7425 15.0047 13.7425C12.5275 13.3277 10.6363 13.7863 10.6363 13.7863C9.29411 14.0038 8.59402 14.5458 8.59402 14.5458C7.05217 15.6108 8.76224 16.5235 8.76224 16.5235C10.6363 17.551 13.5776 17.1879 13.5776 17.1879C14.4758 17.1879 13.8307 16.6623 13.8307 16.6623C12.9048 16.0117 13.6337 15.2522 13.6337 15.2522C14.4167 14.4212 15.3422 14.3118 15.3422 14.3118C17.2179 13.729 19.3761 14.0038 19.3761 14.0038C20.0466 14.1149 19.4863 13.5358 19.4863 13.5358C19.067 13.2027 19.3197 12.4824 19.3197 12.4824C20.2107 11.356 21.6638 11.1747 21.6638 11.1747C21.6664 11.182 21.6688 11.1894 21.6711 11.1967C21.673 11.2023 21.6747 11.2078 21.6765 11.2134C21.6327 11.0567 21.5813 10.9019 21.5224 10.7492ZM10.236 9.68594C10.1629 9.7159 10.0844 9.7313 10.0052 9.7313C9.66959 9.7313 9.40175 9.46589 9.40175 9.13835C9.40175 8.80518 9.66959 8.5394 10.0052 8.5394C10.0844 8.5394 10.1629 8.55481 10.236 8.58477C10.3092 8.61473 10.3757 8.65861 10.4317 8.71396C10.4877 8.76929 10.5321 8.83499 10.5624 8.90729C10.5928 8.97959 10.6083 9.0571 10.6083 9.13535C10.6083 9.21361 10.5928 9.29112 10.5624 9.36342C10.5321 9.43572 10.4877 9.50142 10.4317 9.55675C10.3757 9.6121 10.3092 9.65598 10.236 9.68594ZM4.20941 12.7167C4.36968 12.7167 4.52337 12.6538 4.63668 12.5418C4.74999 12.4298 4.81366 12.278 4.81366 12.1196C4.81366 11.9613 4.74999 11.8094 4.63668 11.6974C4.52337 11.5855 4.36968 11.5226 4.20941 11.5226C4.12827 11.5197 4.04737 11.5331 3.97154 11.5618C3.89572 11.5905 3.82655 11.634 3.76811 11.6897C3.7097 11.7455 3.66322 11.8123 3.63149 11.8861C3.59975 11.96 3.5834 12.0394 3.5834 12.1196C3.5834 12.1999 3.59975 12.2793 3.63149 12.3531C3.66322 12.427 3.7097 12.4938 3.76811 12.5495C3.82655 12.6052 3.89572 12.6487 3.97154 12.6775C4.04737 12.7062 4.12827 12.7195 4.20941 12.7167ZM10.1044 14.3117C9.94434 14.3123 9.79104 14.3754 9.67792 14.4873C9.5648 14.5991 9.50103 14.7507 9.50051 14.9088C9.50051 15.242 9.77441 15.5044 10.1044 15.5044C10.4404 15.5044 10.709 15.242 10.709 14.9088C10.709 14.579 10.4404 14.3117 10.1044 14.3117ZM15.6837 11.407C15.757 11.3771 15.8354 11.3618 15.9146 11.3619C16.2495 11.3619 16.5173 11.6273 16.5173 11.9571C16.5173 12.1152 16.4537 12.2669 16.3406 12.3787C16.2275 12.4905 16.074 12.5533 15.914 12.5533C15.754 12.5533 15.6006 12.4905 15.4874 12.3787C15.3743 12.2669 15.3107 12.1152 15.3107 11.9571C15.3108 11.8789 15.3265 11.8014 15.3569 11.7291C15.3873 11.6569 15.4318 11.5912 15.4879 11.536C15.544 11.4807 15.6105 11.4369 15.6837 11.407Z" fill="white"/>
</g>
<defs>
<clipPath id="clip0_266_55133">
<rect width="24" height="24" fill="white"/>
</clipPath>
</defs>
</svg>
