<svg width="96" height="28" viewBox="0 0 96 28" fill="none" xmlns="http://www.w3.org/2000/svg">
<path fill-rule="evenodd" clip-rule="evenodd" d="M82.4639 18.2595V12.368H84.8617L84.8577 20.9609H81.3102L78.5514 14.9625L78.5279 20.9589H76.1066V12.366H79.6954L82.4639 18.2595ZM72.7808 17.8961V17.3045L72.7592 16.9673L72.7102 16.6524L72.6376 16.3616L72.5453 16.0911L72.4355 15.8428L72.3079 15.6166L72.1627 15.4127L72.0038 15.227L71.8331 15.0634L71.6506 14.9221L71.4583 14.803L71.2582 14.702L71.0502 14.6233L70.8383 14.5627L70.6205 14.5264L70.4027 14.5062L70.1829 14.5102L69.9651 14.5324L69.7493 14.5748L69.5374 14.6374L69.3314 14.7222L69.1332 14.8272L68.9448 14.9504L68.7643 15.0957L68.5956 15.2613L68.4406 15.445L68.3012 15.6509L68.1757 15.8791L68.0717 16.1274L67.9834 16.3939L67.9186 16.6827L67.8755 16.9916V17.9021H72.7808V17.8961ZM65.6641 17.462L65.6916 16.8159L65.7701 16.2122L65.8976 15.6489L66.0664 15.13L66.2802 14.6536L66.5314 14.2195L66.8179 13.8258L67.1357 13.4745L67.4811 13.1676L67.848 12.9031L68.2365 12.681L68.6427 12.4993L69.0606 12.362L69.4883 12.2671L69.922 12.2126L70.3615 12.1985L70.799 12.2267L71.2346 12.2974L71.6604 12.4064L72.0764 12.5599L72.4786 12.7517L72.8612 12.9838L73.2262 13.2564L73.5656 13.5714L73.8737 13.9227L74.1563 14.3144L74.3996 14.7424L74.6056 15.2128L74.7684 15.7196L74.8881 16.2647L74.9588 16.8462L74.9784 17.462V20.967H72.7769L72.7847 18.316L71.7173 19.4063L70.3438 20.8115L68.9703 19.4063L67.8813 18.2918V20.967H65.6681L65.672 17.462H65.6641ZM53.336 12.362H56.0163V20.9549H53.3321L53.336 12.362ZM40.5881 15.0957L40.5724 14.9584L40.5665 14.9241L40.5606 14.8898L40.5527 14.8575L40.5449 14.8232L40.537 14.7909L40.5292 14.7606L40.5194 14.7303L40.5076 14.7L40.4958 14.6717L40.4841 14.6455L40.4703 14.6172L40.4566 14.591L40.4409 14.5647L40.4272 14.5385L40.4115 14.5142L40.3938 14.49L40.3761 14.4658L40.3585 14.4456L40.3389 14.4234L40.3192 14.4012L40.2996 14.381L40.28 14.3628L40.2565 14.3406L40.2349 14.3204L40.2113 14.3063L40.1858 14.2901L40.1623 14.272L40.1348 14.2558L40.1093 14.2417L40.0818 14.2255L40.0544 14.2114L40.0288 14.2013L40.0033 14.1892L39.9759 14.1771L39.9464 14.167L39.919 14.1569L39.8895 14.1488L39.8601 14.1387L39.8307 14.1286L39.7993 14.1205L39.7679 14.1125L39.7365 14.1024L39.7031 14.0943L39.6698 14.0862L39.6364 14.0802L39.6011 14.0741L39.5697 14.068H39.5422L39.5108 14.06L39.4814 14.0559H39.4481L39.4108 14.0499H39.3755L39.3382 14.0458H39.2989L39.2577 14.0398H39.2165L39.1734 14.0378H39.1302H39.087H39.0399H38.9928H38.8869H38.8575H38.828L38.7986 14.0418H38.7711L38.7436 14.0479H38.7142L38.6867 14.0539L38.6573 14.058L38.6298 14.062L38.6024 14.066L38.5749 14.0721L38.5474 14.0761L38.52 14.0822L38.4925 14.0882L38.465 14.0963L38.4395 14.1024L38.414 14.1104L38.3885 14.1185L38.363 14.1266L38.3375 14.1367L38.312 14.1468L38.2865 14.1549L38.261 14.165L38.2374 14.1751L38.2119 14.1872L38.1864 14.1993L38.1629 14.2114L38.1393 14.2215L38.1138 14.2356L38.0903 14.2457L38.0432 14.276L37.998 14.3023L37.9509 14.3325L37.9078 14.3648L37.8666 14.3971L37.8254 14.4315L37.7842 14.4678L37.7449 14.5042L37.7076 14.5425L37.6704 14.5829L37.635 14.6233L37.6017 14.6657L37.5683 14.7121L37.5369 14.7606L37.5075 14.807L37.4761 14.8575L37.4624 14.8837L37.4467 14.91L37.431 14.9382L37.4172 14.9625L37.4035 14.9907L37.3898 15.015L37.3741 15.0432L37.3603 15.0695L37.3466 15.0977L37.3348 15.124L37.3211 15.1502L37.3093 15.1785L37.2995 15.2047L37.2897 15.233L37.2779 15.2593L37.2662 15.2855L37.2564 15.3138L37.2465 15.34L37.2367 15.3703L37.2269 15.3966L37.2171 15.4228L37.2093 15.4511L37.1995 15.4793L37.1916 15.5076L37.1818 15.5359L37.1739 15.5641L37.1661 15.5904L37.1582 15.6186L37.1504 15.6469L37.1425 15.6752L37.1386 15.7014L37.1308 15.7317L37.121 15.766L37.1151 15.7983L37.1053 15.8286L37.0994 15.8609L37.0935 15.8932L37.0876 15.9235L37.0817 15.9558L37.0758 15.9881L37.0719 16.0204L37.066 16.0527L37.0601 16.087L37.0562 16.1194L37.0503 16.1517L37.0464 16.184L37.0425 16.2183L37.0386 16.2526L37.0346 16.2849L37.0307 16.3192V16.3556L37.0248 16.3899L37.0209 16.4242V16.4585L37.017 16.4929V16.5292L37.013 16.5635V16.5999V16.6362V16.6726V16.7089V16.7836V16.8199V16.9068V16.9492V17.0319L37.015 17.0723L37.0189 17.1107V17.1511L37.0229 17.1874L37.0268 17.2237L37.0307 17.2601L37.0346 17.2944L37.0386 17.3287L37.0444 17.3631L37.0503 17.3954L37.0562 17.4236L37.0641 17.4539L37.0739 17.4862L37.0817 17.5165L37.0915 17.5448L37.1013 17.573L37.1072 17.5993L37.117 17.6255L37.1249 17.6498L37.1327 17.672L37.1406 17.6942L37.1465 17.7164L37.1524 17.7366L37.1582 17.7568L37.1622 17.7729L37.1661 17.7911V17.8012L37.1838 17.8678L37.2073 17.9324L37.2269 17.997L37.2505 18.0637L37.274 18.1262L37.2995 18.1868L37.327 18.2454L37.3564 18.3059L37.3898 18.3604L37.4212 18.4129L37.4565 18.4675L37.4918 18.5179L37.531 18.5684L37.5723 18.6148L37.6135 18.6613L37.6586 18.7037L37.7057 18.7461L37.7528 18.7865L37.8038 18.8248L37.8568 18.8591L37.9117 18.8935L37.9686 18.9258L38.0314 18.9561L38.0942 18.9843L38.1609 19.0106L38.2296 19.0308L38.3022 19.053L38.3767 19.0732L38.4552 19.0893L38.5357 19.1034L38.6181 19.1135L38.7005 19.1216L40.6253 19.1014V17.8113H38.8535V15.9578H43.2958V20.9084L38.3414 20.9185H38.2708L38.1982 20.9205H37.9313L37.8685 20.9185H37.8057L37.7449 20.9145H37.6841L37.6252 20.9064L37.5644 20.9024L37.5055 20.8963L37.4467 20.8903L37.3878 20.8822L37.3289 20.8741L37.272 20.864L37.2132 20.8519L37.1563 20.8398L37.0974 20.8256L37.0386 20.8095L36.9817 20.7913L36.9228 20.7732L36.8639 20.753L36.8031 20.7287L36.7423 20.7045L36.6814 20.6803L36.6206 20.652L36.5559 20.6217L36.4931 20.5914L36.4283 20.5571L36.3616 20.5228L36.3028 20.4885L36.2439 20.4521L36.185 20.4178L36.1281 20.3794L36.0712 20.3431L36.0143 20.3047L35.9594 20.2664L35.9044 20.224L35.8495 20.1816L35.7965 20.1412L35.7455 20.0988L35.6925 20.0564L35.6435 20.012L35.5944 19.9656L35.5454 19.9211L35.4963 19.8747L35.4492 19.8262L35.4021 19.7778L35.357 19.7293L35.3099 19.6789L35.2648 19.6284L35.2216 19.5779L35.1785 19.5234L35.1372 19.4709L35.0941 19.4184L35.0529 19.3639L35.0136 19.3074L34.9744 19.2528L34.9351 19.1963L34.8959 19.1378L34.8586 19.0792L34.8194 19.0207L34.8037 18.9884L34.786 18.9621L34.7723 18.9338L34.7566 18.9036L34.7409 18.8753L34.7252 18.847L34.7115 18.8147L34.6958 18.7865L34.682 18.7562L34.6703 18.7239L34.6546 18.6936L34.6408 18.6613L34.6251 18.629L34.6114 18.5967L34.5996 18.5623L34.5859 18.53L34.5722 18.4957L34.5584 18.4614L34.5447 18.4271L34.5329 18.3907L34.5192 18.3564L34.5074 18.3221L34.4937 18.2857L34.4819 18.2514L34.4682 18.2131L34.4544 18.1767L34.4427 18.1424L34.4309 18.102L34.4191 18.0657L34.4073 18.0253L34.3956 17.9869L34.3838 17.9445L34.374 17.9062L34.3642 17.8678L34.3544 17.8315L34.3465 17.7931L34.3367 17.7568L34.3288 17.7184L34.321 17.68L34.3151 17.6417L34.3073 17.6053L34.3014 17.567L34.2955 17.5286L34.2876 17.4903L34.2818 17.4539L34.2759 17.4156L34.27 17.3772L34.2621 17.3388L34.2582 17.2985L34.2543 17.2601L34.2504 17.2217L34.2464 17.1834L34.2425 17.143L34.2386 17.1046L34.2347 17.0642V17.0259L34.2327 16.9855L34.2288 16.9451V16.9047L34.2249 16.8644V16.824V16.7836V16.5413L34.2268 16.4868L34.2307 16.4343V16.3798L34.2366 16.3273L34.2406 16.2748L34.2445 16.2203L34.2484 16.1678L34.2543 16.1173L34.2602 16.0648L34.268 16.0103L34.2739 15.9578L34.2818 15.9074L34.2896 15.8569L34.2975 15.8044L34.3053 15.7539L34.3131 15.7014L34.323 15.6509L34.3328 15.6005L34.3406 15.552L34.3524 15.4995L34.3642 15.4511L34.3779 15.4006L34.3916 15.3501L34.4034 15.2996L34.4171 15.2512L34.4309 15.2027L34.4446 15.1543L34.4603 15.1058L34.474 15.0574L34.4897 15.0089L34.5074 14.9625L34.5251 14.914L34.5427 14.8656L34.5623 14.8171L34.582 14.7686L34.6016 14.7202L34.6212 14.6717L34.6428 14.6253L34.6644 14.5768L34.686 14.5304L34.7075 14.4819L34.7311 14.4355L34.7566 14.3871L34.7801 14.3386L34.8056 14.2922L34.8312 14.2457L34.8586 14.1993L34.8841 14.1528L34.9136 14.1044L34.941 14.06L34.9685 14.0135L34.9979 13.9671L35.0293 13.9207L35.0588 13.8762L35.0902 13.8298L35.1235 13.7854L35.1569 13.741L35.1902 13.6966L35.2216 13.6521L35.2569 13.6077L35.2923 13.5593L35.3688 13.4724L35.4453 13.3876L35.5238 13.3069L35.6062 13.2302L35.6906 13.1555L35.7769 13.0828L35.8672 13.0141L35.9613 12.9475L36.0555 12.8829L36.1536 12.8203L36.2537 12.7618L36.3577 12.7052L36.4636 12.6547L36.5735 12.6023L36.6854 12.5558L36.7972 12.5094L36.9149 12.469L37.0327 12.4286L37.1524 12.3923L37.276 12.358L37.4035 12.3277L37.531 12.2994L37.6605 12.2732L37.794 12.2509L37.9313 12.2308L38.0706 12.2126L38.2099 12.1964L38.3532 12.1843L38.4984 12.1742L38.6475 12.1661L38.7966 12.1621H38.9516H39.0125H39.138L39.1989 12.1641H39.2597H39.3186H39.3755L39.4363 12.1682H39.4932L39.5481 12.1722L39.607 12.1762H39.6639L39.7208 12.1823H39.7757L39.8307 12.1884L39.8856 12.1924L39.9386 12.1964L39.9916 12.2025L40.0445 12.2065L40.0975 12.2106L40.1485 12.2146L40.2015 12.2207L40.2506 12.2267L40.3016 12.2308L40.3487 12.2368L40.3958 12.2429L40.4448 12.2509L40.4939 12.257L40.5429 12.2631L40.5881 12.2711L40.6351 12.2772L40.6822 12.2832L40.7293 12.2913L40.7745 12.3014L40.8176 12.3115L40.8628 12.3196L40.9059 12.3297L40.9491 12.3398L40.9923 12.3499L41.0354 12.362L41.0786 12.3721L41.1198 12.3822L41.163 12.3963L41.2061 12.4084L41.2493 12.4205L41.2905 12.4327L41.3317 12.4468L41.3749 12.4609L41.4141 12.4751L41.4553 12.4892L41.4946 12.5033L41.5358 12.5175L41.575 12.5316L41.6182 12.5477L41.6574 12.5639L41.6967 12.578L41.7339 12.5942L41.7751 12.6123L41.8124 12.6285L41.8517 12.6467L41.8889 12.6628L41.9262 12.679L41.9655 12.6992L42.0028 12.7173L42.0773 12.7557L42.146 12.7961L42.2147 12.8405L42.2814 12.8849L42.3442 12.9313L42.407 12.9818L42.4658 13.0323L42.5247 13.0848L42.5796 13.1413L42.6306 13.1999L42.6817 13.2584L42.7307 13.321L42.7758 13.3836L42.819 13.4502L42.8602 13.5189L42.8994 13.5895L42.9367 13.6622L42.9681 13.7369L43.0015 13.8116L43.0309 13.8884L43.0584 13.9671L43.0819 14.0499L43.1035 14.1327L43.1231 14.2175L43.1428 14.3023L43.1585 14.3911L43.1702 14.4819L43.182 14.5728L43.1898 14.6657L43.1938 14.7606L43.1997 14.8575V15.0695H40.5704L40.5881 15.0957ZM86.3548 12.368H88.988V15.8104L91.6251 12.3701H94.7802L91.6644 16.1759L95 20.9629H91.7154L89.0076 16.7796L88.9841 20.9629H86.3548V12.368ZM61.0727 14.2255H60.0289V15.6873H61.2454L61.3043 15.6832H61.3631L61.4161 15.6752L61.4691 15.6671L61.5181 15.657L61.5652 15.6469L61.6104 15.6348L61.6516 15.6227L61.6947 15.6085L61.734 15.5944L61.7693 15.5762L61.8027 15.5581L61.836 15.5359L61.8654 15.5177L61.8929 15.4975L61.9204 15.4713L61.9439 15.447L61.9675 15.4208L61.9871 15.3925L62.0067 15.3622L62.0244 15.334L62.042 15.2996L62.0558 15.2653L62.0695 15.229L62.0813 15.1926L62.0891 15.1523L62.0989 15.1099L62.1048 15.0654L62.1107 15.019L62.1146 14.9726V14.9221V14.8777L62.1107 14.8353L62.1048 14.7949L62.0989 14.7545L62.0891 14.7202L62.0793 14.6838L62.0675 14.6495L62.0538 14.6192L62.0381 14.589L62.0205 14.5587L62.0028 14.5324L61.9832 14.5042L61.9616 14.4799L61.9361 14.4557L61.9106 14.4335L61.8831 14.4113L61.8537 14.3911L61.8203 14.3709L61.787 14.3527L61.7497 14.3366L61.7124 14.3204L61.6712 14.3043L61.63 14.2922L61.5829 14.28L61.5358 14.2699L61.4867 14.2599L61.4338 14.2538L61.3808 14.2477L61.3239 14.2397L61.265 14.2336H61.1414H61.0668L61.0727 14.2255ZM61.0727 17.5205H60.0289V19.0913H61.3592L61.3926 19.0873H61.424L61.4573 19.0853L61.4867 19.0812L61.5181 19.0772L61.5476 19.0732L61.5731 19.0691L61.6025 19.0651L61.628 19.061L61.6535 19.055L61.679 19.0489L61.7045 19.0449L61.7281 19.0388L61.7497 19.0328L61.7713 19.0247L61.7928 19.0166L61.8164 19.0106L61.836 19.0025L61.8537 18.9924L61.8733 18.9843L61.8909 18.9742L61.9086 18.9641L61.9263 18.954L61.9439 18.9439L61.9577 18.9338L61.9734 18.9197L61.9891 18.9096L62.0028 18.8955L62.0146 18.8834L62.0401 18.8571L62.0636 18.8309L62.0852 18.8046L62.1087 18.7764L62.1284 18.7481L62.148 18.7158L62.1656 18.6875L62.1794 18.6572L62.1951 18.6249L62.2069 18.5906L62.2186 18.5563L62.2284 18.5199L62.2382 18.4836L62.2441 18.4432L62.252 18.4028L62.2559 18.3685V18.3261L62.2539 18.3019V18.2777L62.2481 18.2534V18.2272L62.2422 18.2009L62.2363 18.1767L62.2304 18.1505L62.2245 18.1222L62.2167 18.096L62.2108 18.0677L62.201 18.0414L62.1931 18.0152L62.1794 17.9869L62.1715 17.9647L62.1578 17.9425L62.1441 17.9163L62.1264 17.892L62.1107 17.8678L62.093 17.8456L62.0754 17.8234L62.0577 17.8032L62.0381 17.781L62.0185 17.7608L61.9989 17.7426L61.9773 17.7224L61.9577 17.7043L61.9361 17.6881L61.9125 17.672L61.8909 17.6578L61.8654 17.6417L61.8399 17.6255L61.8144 17.6114L61.7909 17.5973L61.7673 17.5851L61.7418 17.573L61.7163 17.5629L61.6928 17.5549L61.6692 17.5448L61.6457 17.5387L61.6202 17.5327L61.5966 17.5286L61.5711 17.5246H61.5456L61.5201 17.5185H61.4691H61.0747L61.0727 17.5205ZM61.5358 12.366H61.6064L61.6731 12.3721L61.7438 12.3761L61.8085 12.3802L61.8792 12.3862L61.9459 12.3923L62.0146 12.3983L62.0852 12.4064L62.1519 12.4145L62.2206 12.4246L62.2893 12.4327L62.356 12.4428L62.4246 12.4528L62.4933 12.4629L62.562 12.4771L62.6307 12.4912L62.7013 12.5033L62.77 12.5175L62.8387 12.5336L62.9073 12.5498L62.976 12.5639L63.0447 12.5821L63.1134 12.5982L63.1801 12.6164L63.2487 12.6346L63.3174 12.6547L63.3861 12.677L63.4548 12.6971L63.5234 12.7194L63.5921 12.7416L63.6588 12.7678L63.7236 12.7941L63.7864 12.8243L63.8492 12.8546L63.908 12.8869L63.9669 12.9213L64.0238 12.9596L64.0768 12.996L64.1317 13.0384L64.1827 13.0808L64.2298 13.1232L64.2769 13.1676L64.322 13.218L64.3652 13.2665L64.4084 13.317L64.4496 13.3695L64.4869 13.424L64.5241 13.4805L64.5575 13.537L64.5908 13.5956L64.6222 13.6562L64.6497 13.7208L64.6772 13.7834L64.7027 13.85L64.7262 13.9186L64.7478 13.9873L64.7674 14.06L64.7851 14.1327L64.8028 14.2074L64.8165 14.2821L64.8322 14.3648L64.8459 14.6273V14.6697L64.842 14.7121V14.7525L64.8361 14.7929V14.8332L64.8283 14.8736L64.8243 14.914L64.8165 14.9524L64.8086 14.9907L64.8008 15.0311L64.7929 15.0695L64.7812 15.1078L64.7694 15.1462L64.7596 15.1825L64.7478 15.2209L64.7341 15.2572L64.7203 15.2936L64.7066 15.3299L64.6909 15.3642L64.6752 15.4006L64.6595 15.4369L64.6399 15.4733L64.6222 15.5076L64.6046 15.5419L64.583 15.5762L64.5634 15.6085L64.5418 15.6409L64.5202 15.6752L64.4967 15.7075L64.4751 15.7398L64.4496 15.7721L64.4221 15.8044L64.3907 15.8407L64.3574 15.8771L64.324 15.9114L64.2867 15.9457L64.2494 15.98L64.2122 16.0144L64.1729 16.0467L64.1317 16.079L64.0885 16.1093L64.0454 16.1375L64.0042 16.1678L63.959 16.1981L63.9139 16.2243L63.8688 16.2506L63.8197 16.2768L63.7707 16.3031L63.7216 16.3273L63.6706 16.3536L63.6196 16.3778L63.5666 16.4L63.5117 16.4222L63.4587 16.4424L63.4038 16.4646L63.3468 16.4848L63.2939 16.5009L63.3115 16.505L63.6372 16.6261L63.6843 16.6423L63.7334 16.6625L63.7824 16.6806L63.8295 16.6988L63.8766 16.721L63.9237 16.7412L63.9688 16.7634L64.014 16.7856L64.0571 16.8099L64.1003 16.8341L64.1415 16.8603L64.1827 16.8866L64.222 16.9148L64.2612 16.9451L64.3004 16.9734L64.3338 17.0017L64.3711 17.0299L64.4103 17.0602L64.4476 17.0925L64.4849 17.1268L64.5202 17.1632L64.5555 17.1995L64.5869 17.2399L64.6222 17.2803L64.6556 17.3207L64.687 17.3651L64.7164 17.4095L64.7459 17.4539L64.7733 17.5004L64.8008 17.5468L64.8263 17.5952L64.8557 17.6477L64.8695 17.676L64.8812 17.7023L64.893 17.7285L64.9048 17.7568L64.9146 17.783L64.9264 17.8072L64.9342 17.8355L64.944 17.8638L64.9519 17.89L64.9597 17.9183L64.9676 17.9466L64.9774 17.9728L64.9852 17.999L64.9931 18.0273L64.999 18.0536L65.0029 18.0838L65.0107 18.1121L65.0147 18.1404L65.0225 18.1686L65.0264 18.1969L65.0304 18.2252L65.0343 18.2534L65.0382 18.2837V18.312L65.0421 18.3403V18.3705L65.048 18.3988V18.4271V18.4553V18.4836V18.5159V18.5442L65.0441 18.6916L65.0343 18.8349L65.0166 18.9742L64.9911 19.1095L64.9597 19.2407L64.9205 19.3659L64.8714 19.4891L64.8184 19.6062L64.7557 19.7152L64.687 19.8242L64.6124 19.9272L64.53 20.0241L64.4398 20.119L64.3436 20.2058L64.2396 20.2886L64.1297 20.3673L64.014 20.44L63.8884 20.5066L63.7589 20.5713L63.6216 20.6278L63.4783 20.6803L63.3292 20.7287L63.1722 20.7732L63.0094 20.8115L62.8387 20.8458L62.6621 20.8761L62.4796 20.9004L62.2912 20.9185L62.095 20.9347L61.8949 20.9468L61.6869 20.9508H61.471L61.0767 20.9528H57.378V12.36H61.0767H61.3357H61.4024H61.471H61.5378L61.5358 12.366ZM48.3718 14.2235H47.2573V15.9154H48.4444L48.5151 15.9074L48.5838 15.8973L48.6485 15.8892L48.7133 15.8811L48.7741 15.869L48.8329 15.8569L48.8879 15.8407L48.9389 15.8246L48.9899 15.8064L49.035 15.7862L49.0802 15.766L49.1233 15.7418L49.1626 15.7176L49.2018 15.6933L49.2352 15.6651L49.2685 15.6368L49.2999 15.6065L49.3274 15.5783L49.3529 15.5439L49.3784 15.5096L49.4 15.4753L49.4196 15.4369L49.4373 15.3986L49.453 15.3582L49.4667 15.3138L49.4785 15.2694L49.4863 15.2229L49.4961 15.1745L49.5001 15.124L49.504 15.0715V15.015V14.9705L49.5001 14.9241L49.4961 14.8817L49.4863 14.8393L49.4785 14.7989L49.4667 14.7606L49.453 14.7242L49.4373 14.6899L49.4196 14.6556L49.4 14.6253L49.3804 14.595L49.3549 14.5647L49.3294 14.5365L49.3019 14.5082L49.2725 14.4819L49.2411 14.4577L49.2057 14.4335L49.1685 14.4113L49.1292 14.3891L49.088 14.3689L49.0409 14.3507L48.9938 14.3325L48.9428 14.3164L48.8898 14.3002L48.8349 14.2881L48.778 14.274L48.7172 14.2619L48.6524 14.2518L48.5877 14.2437L48.519 14.2356L48.4484 14.2296L48.3777 14.2255L48.3718 14.2235ZM49.4177 12.4064L49.502 12.4165L49.5884 12.4266L49.6727 12.4387L49.7571 12.4508L49.8395 12.4629L49.9219 12.4771L50.0043 12.4932L50.0848 12.5074L50.1652 12.5255L50.2418 12.5437L50.3202 12.5619L50.3987 12.5821L50.4733 12.6023L50.5478 12.6265L50.6244 12.6467L50.6989 12.6709L50.7696 12.6951L50.8402 12.7214L50.9108 12.7456L50.9815 12.7739L51.0502 12.8021L51.1169 12.8284L51.1855 12.8566L51.2523 12.889L51.317 12.9213L51.3798 12.9576L51.4426 12.9919L51.5014 13.0303L51.5583 13.0707L51.6113 13.1131L51.6663 13.1555L51.7173 13.2019L51.7644 13.2483L51.8095 13.2968L51.8546 13.3473L51.8978 13.3998L51.937 13.4523L51.9743 13.5108L52.0077 13.5673L52.041 13.6279L52.0705 13.6885L52.0979 13.749L52.1234 13.8137L52.147 13.8783L52.1666 13.9429L52.1862 14.0115L52.2019 14.0802L52.2176 14.1528L52.2314 14.2255L52.2412 14.2982L52.251 14.3729L52.2549 14.4496L52.2588 14.5284V14.7283L52.2549 14.7868L52.251 14.8454L52.2451 14.9039L52.2372 14.9584L52.2294 15.015L52.2196 15.0715L52.2078 15.126L52.196 15.1805L52.1823 15.233L52.1686 15.2835L52.1509 15.336L52.1333 15.3885L52.1156 15.4369L52.094 15.4834L52.0724 15.5318L52.0508 15.5783L52.0273 15.6247L52.0018 15.6691L51.9763 15.7135L51.9488 15.7559L51.9194 15.7983L51.888 15.8387L51.8566 15.8791L51.8252 15.9175L51.7918 15.9558L51.7565 15.9962L51.7192 16.0325L51.682 16.0689L51.6427 16.1052L51.6035 16.1395L51.5623 16.1718L51.5191 16.2062L51.4779 16.2385L51.4328 16.2667L51.3896 16.299L51.3445 16.3293L51.2974 16.3576L51.2523 16.3859L51.2071 16.4121L51.16 16.4384L51.1129 16.4626L51.0619 16.4868L51.0109 16.5131L50.9619 16.5332L50.9108 16.5555L50.8598 16.5777L50.8069 16.5979L50.7539 16.618L50.7009 16.6362L50.646 16.6524L50.5891 16.6705H50.5812L50.6028 16.6746L50.6577 16.6847L50.7107 16.6988L50.7617 16.7109L50.8127 16.7271L50.8638 16.7432L50.9089 16.7614L50.956 16.7796L51.0011 16.7977L51.0443 16.8179L51.0874 16.8401L51.1306 16.8644L51.1698 16.8866L51.2091 16.9128L51.2464 16.9391L51.2817 16.9673L51.315 16.9976L51.3484 17.0259L51.3778 17.0582L51.4073 17.0905L51.4367 17.1248L51.4622 17.1571L51.4877 17.1914L51.5113 17.2258L51.5348 17.2641L51.5603 17.3005L51.5819 17.3408L51.6054 17.3812L51.6251 17.4216L51.6447 17.464L51.6682 17.5084L51.6859 17.5528L51.7055 17.6013L51.7251 17.6498L51.7448 17.7002L51.7624 17.7487L51.7781 17.8032L51.7958 17.8557L51.8115 17.9102L51.8291 17.9667L51.8429 18.0253L51.8586 18.0838L51.8723 18.1424L51.886 18.205L51.8998 18.2696L51.9135 18.3342L51.9253 18.4008L51.937 18.4695L51.9508 18.5381L51.9625 18.6088L51.9724 18.6774L51.9841 18.7501L51.992 18.8268L52.0018 18.9015L52.0096 18.9762L52.0195 19.0489L52.0312 19.1196L52.041 19.1903L52.0508 19.2609L52.0626 19.3296L52.0705 19.3962L52.0822 19.4648L52.094 19.5315L52.1058 19.5961L52.1176 19.6587L52.1293 19.7213L52.1431 19.7859L52.1548 19.8485L52.1666 19.909L52.1803 19.9696L52.1941 20.0281L52.2078 20.0867L52.2196 20.1432L52.2353 20.1998L52.251 20.2563L52.2647 20.3108L52.2785 20.3653L52.2941 20.4178L52.3098 20.4683L52.3255 20.5188L52.3393 20.5692L52.355 20.6177L52.3746 20.6661L52.3923 20.7146L52.4099 20.761L52.4884 20.9609H49.5982L49.5707 20.862L49.5648 20.8438L49.5589 20.8236L49.555 20.8034L49.5491 20.7812L49.5452 20.761L49.5393 20.7388L49.5334 20.7166L49.5275 20.6924L49.5217 20.6661L49.5158 20.6399L49.5099 20.6137L49.502 20.5854L49.4961 20.5571L49.4903 20.5268V20.4966L49.4785 20.4642L49.4726 20.434L49.4667 20.3996L49.4608 20.3653L49.453 20.331L49.4471 20.2947L49.4412 20.2603L49.4334 20.224L49.4275 20.1856L49.4216 20.1473L49.4157 20.1069L49.4098 20.0685L49.4039 20.0281L49.3961 19.9857L49.3882 19.9413L49.3823 19.8949L49.1979 18.4634L49.192 18.3988L49.1842 18.3423L49.1724 18.2898L49.1606 18.2393L49.1449 18.1949L49.1273 18.1525L49.1076 18.1141L49.0861 18.0798L49.0645 18.0475L49.0409 18.0172L49.0154 17.991L48.988 17.9667L48.9566 17.9445L48.9252 17.9264L48.8918 17.9102L48.8545 17.8941L48.8349 17.89L48.8094 17.8819L48.7839 17.8739L48.7584 17.8678L48.7309 17.8638L48.7015 17.8577L48.672 17.8517L48.6407 17.8476L48.6073 17.8416L48.5759 17.8375L48.5425 17.8315L48.5072 17.8274L48.4699 17.8234H48.4327L48.3915 17.8153L48.3503 17.8113L48.3149 17.8052L48.2816 17.8012H48.2443L48.207 17.7951L48.1678 17.7911H48.1325L48.0913 17.787H48.052L48.0108 17.785L47.9676 17.781H47.8833L47.8381 17.779H47.7479H47.6988H47.2495L47.2456 20.9629H44.5673L44.5692 12.3701H48.6897L48.7839 12.3741L48.8781 12.3781H48.9664L49.0586 12.3862L49.1469 12.3923L49.2371 12.3983L49.3235 12.4044L49.4118 12.4125L49.4177 12.4064Z" fill="#AE1C3F"/>
<path fill-rule="evenodd" clip-rule="evenodd" d="M19.6226 15.7884L19.6618 14.8516L19.7756 13.9733L19.9601 13.1576L20.2093 12.4025L20.5173 11.71L20.8823 11.0781L21.2963 10.5067L21.7554 9.99791L22.2558 9.55171L22.7914 9.16608L23.3546 8.84506L23.9432 8.58259L24.5495 8.38271L25.1735 8.2434L25.8053 8.16466L26.443 8.14648L27.0767 8.18686L27.7066 8.28983L28.3286 8.44933L28.9329 8.66941L29.5196 8.94601L30.0749 9.2852L30.6046 9.67891L31.0952 10.1332L31.5484 10.644L31.9526 11.2133L32.3078 11.8392L32.6041 12.5217L32.8434 13.2586L33.0161 14.0521L33.1162 14.898L33.1436 15.7945V20.8864H29.9434L29.9571 17.0321L28.4031 18.6191L26.4096 20.6582L24.4161 18.6191L22.8346 16.9998V20.8844H19.6187V15.7924L19.6226 15.7884ZM29.963 16.4183L29.9669 15.5603L29.9316 15.0696L29.861 14.6113L29.757 14.1873L29.6236 13.7957L29.4627 13.4343L29.2763 13.1052L29.0663 12.8063L28.8368 12.5398L28.5876 12.3036L28.3207 12.0977L28.0421 11.922L27.7497 11.7767L27.4476 11.6616L27.1395 11.5748L26.8256 11.5182L26.5097 11.492L26.1898 11.496L25.872 11.5303L25.56 11.5909L25.2519 11.6818L24.9517 11.8049L24.6633 11.9543L24.3886 12.136L24.1257 12.348L23.8824 12.5863L23.6567 12.8548L23.4527 13.1536L23.2721 13.4847L23.1171 13.8441L22.9916 14.2338L22.8954 14.6537L22.8346 15.1019V16.4224H29.9591L29.963 16.4183Z" fill="#AE1C3F"/>
<path fill-rule="evenodd" clip-rule="evenodd" d="M17.5192 6.80356C17.5192 6.3614 17.1719 6 16.7383 6H1.78093C1.34926 6 1 6.3614 1 6.80356V22.1964C1 22.6406 1.34926 23 1.78093 23H16.7402C17.1719 23 17.5212 22.6406 17.5212 22.1964V6.80356H17.5192Z" fill="white" stroke="#BBBDBF" stroke-width="0.22" stroke-miterlimit="2.61"/>
<path fill-rule="evenodd" clip-rule="evenodd" d="M1.68872 7.35685L2.25185 7.11457V7.10043H1.68872V6.98535H2.47357V7.12668L1.93399 7.35685H2.47357V7.48405H1.68872V7.35685Z" fill="#006940"/>
<path fill-rule="evenodd" clip-rule="evenodd" d="M1.68872 8.08319L1.78487 8.07108C1.74955 8.03272 1.67499 7.99436 1.67499 7.87927C1.67499 7.74198 1.81038 7.59863 2.08115 7.59863C2.30091 7.59863 2.49908 7.7016 2.49908 7.90552C2.49908 8.08319 2.34015 8.15992 2.22831 8.15992V8.03272C2.26559 8.03272 2.3637 7.99436 2.3637 7.90552C2.3637 7.81669 2.27736 7.73996 2.08115 7.73996C1.87316 7.73996 1.81234 7.81467 1.81234 7.90552C1.81234 7.93177 1.82411 8.03272 1.98304 8.05695V7.91764H2.11843V8.15992H1.68872V8.08319Z" fill="#006940"/>
<path fill-rule="evenodd" clip-rule="evenodd" d="M1.68872 8.69769L1.86139 8.65933V8.44128L1.68872 8.40494V8.26562L2.47357 8.48166V8.62299L1.68872 8.83902V8.69971V8.69769ZM2.57168 8.59674L2.63447 8.55636L2.57168 8.50589V8.42916L2.6953 8.50589V8.59674L2.57168 8.67144V8.59674ZM2.30091 8.55838V8.54829L1.99678 8.48166V8.6351L2.30091 8.55838Z" fill="#006940"/>
<path fill-rule="evenodd" clip-rule="evenodd" d="M1.68872 9.31088L2.25185 9.05447H1.68872V8.94141H2.47357V9.0686L1.93203 9.31088H2.47357V9.42597H1.68872V9.31088Z" fill="#006940"/>
<path fill-rule="evenodd" clip-rule="evenodd" d="M1.68872 10.2198H2.04387V9.98761H1.68872V9.8584L2.47357 9.86042V9.98761H2.17925V10.2198H2.47357V10.347H1.68872V10.2198Z" fill="#006940"/>
<path fill-rule="evenodd" clip-rule="evenodd" d="M1.68671 10.894L1.85937 10.8557V10.6376L1.68671 10.5993V10.46L2.47352 10.678V10.8315L1.68671 11.0374V10.8961V10.894ZM2.57163 10.7164L2.69328 10.6134V10.7164L2.57163 10.781V10.7164ZM2.30085 10.7547L1.9928 10.678V10.8315L2.30085 10.7547Z" fill="#006940"/>
<path fill-rule="evenodd" clip-rule="evenodd" d="M1.68671 11.5198L2.2518 11.2634H1.68671V11.1523H2.47352V11.2775L1.93197 11.5198L2.47352 11.5218V11.6349H1.68671V11.5198Z" fill="#006940"/>
<path fill-rule="evenodd" clip-rule="evenodd" d="M1.68676 12.2487L1.78487 12.2366C1.74955 12.1983 1.67499 12.1619 1.67499 12.0448C1.67499 11.9055 1.81038 11.7783 2.08115 11.7783C2.30091 11.7783 2.49908 11.8692 2.49908 12.0711C2.49908 12.2508 2.33819 12.3255 2.22831 12.3255V12.1983C2.26559 12.1983 2.3637 12.1599 2.3637 12.0691C2.3637 11.9782 2.27736 11.9035 2.08115 11.9035C1.87316 11.9035 1.81234 11.9923 1.81234 12.0691C1.81234 12.1074 1.82411 12.1963 1.98501 12.2225V12.0812H2.11843V12.3356H1.68872V12.2467L1.68676 12.2487Z" fill="#006940"/>
<path fill-rule="evenodd" clip-rule="evenodd" d="M1.68671 13.1069L2.2518 12.8626V12.8505H1.68671V12.7334H2.47352V12.8747L1.93197 13.1069H2.47352V13.2321H1.68671V13.1069Z" fill="#006940"/>
<path fill-rule="evenodd" clip-rule="evenodd" d="M1.67499 13.6424C1.67499 13.5656 1.71227 13.3496 2.08115 13.3496C2.45003 13.3496 2.49712 13.5677 2.49712 13.6444C2.49712 13.7211 2.45003 13.9392 2.08115 13.9392C1.71227 13.9392 1.67499 13.7211 1.67499 13.6444V13.6424ZM2.55795 13.6949L2.64624 13.6424L2.55795 13.5919V13.5152L2.70511 13.5919V13.6949L2.55795 13.7716V13.6949ZM2.36173 13.6424C2.36173 13.5798 2.30091 13.4748 2.07919 13.4748C1.85747 13.4748 1.80841 13.5778 1.80841 13.6424C1.80841 13.707 1.85747 13.8079 2.07919 13.8079C2.30091 13.8079 2.36173 13.707 2.36173 13.6424Z" fill="#006940"/>
<path fill-rule="evenodd" clip-rule="evenodd" d="M1.68671 14.4072L2.2518 14.1649H1.68671V14.0498H2.47352V14.179L1.93197 14.4213H2.47352V14.5364H1.68671V14.4072Z" fill="#006940"/>
<path fill-rule="evenodd" clip-rule="evenodd" d="M1.68671 15.1359L1.78482 15.1238C1.74753 15.0834 1.67297 15.0491 1.67297 14.932C1.67297 14.7907 1.81032 14.6514 2.07914 14.6514C2.29889 14.6514 2.49511 14.7523 2.49511 14.9583C2.49511 15.1359 2.33618 15.2147 2.22433 15.2147V15.0855C2.26161 15.0855 2.35972 15.0491 2.35972 14.9583C2.35972 14.8674 2.27339 14.7927 2.07717 14.7927C1.86722 14.7927 1.80836 14.8694 1.80836 14.9583C1.80836 14.9825 1.82013 15.0834 1.98103 15.1097V14.9704H2.11445V15.2127H1.68671V15.1339V15.1359Z" fill="#006940"/>
<path fill-rule="evenodd" clip-rule="evenodd" d="M1.724 15.8285L2.28713 15.5741H1.724V15.457H2.50885V15.5862L1.9673 15.8285H2.50885V15.9436H1.724V15.8285Z" fill="#006940"/>
<path fill-rule="evenodd" clip-rule="evenodd" d="M1.72406 16.531L1.82021 16.5189C1.78489 16.4927 1.71033 16.4402 1.71033 16.3392C1.71033 16.1878 1.84571 16.0586 2.11649 16.0586C2.33821 16.0586 2.53442 16.1494 2.53442 16.3534C2.53442 16.5331 2.37745 16.6098 2.26561 16.6219V16.4947C2.30093 16.4947 2.401 16.4442 2.401 16.3534C2.401 16.2625 2.31466 16.1878 2.11649 16.1878C1.9085 16.1878 1.84768 16.2766 1.84768 16.3655C1.84768 16.3917 1.85945 16.4826 2.02034 16.5068V16.3655H2.15573V16.6219H1.72799V16.5331L1.72406 16.531Z" fill="#006940"/>
<path fill-rule="evenodd" clip-rule="evenodd" d="M1.724 17.1068H2.07915V16.8646L1.724 16.8625V16.7354H2.50885V16.8646H2.21453L2.21257 17.1068H2.50885V17.2219H1.724V17.1068Z" fill="#006940"/>
<path d="M2.50885 17.3486H1.724V17.4758H2.50885V17.3486Z" fill="#006940"/>
<path fill-rule="evenodd" clip-rule="evenodd" d="M2.60701 17.8716L2.66784 17.8211L2.60701 17.7807V17.706L2.72867 17.7807V17.8716L2.60701 17.9483V17.8716ZM1.72209 17.6172H2.50891V18.0513H2.37352V17.7323H2.21263V18.025H2.0635V17.7323H1.86925V18.0634H1.72209V17.6172ZM1.52588 17.7706H1.62399V17.8837H1.52588V17.7706Z" fill="#006940"/>
<path fill-rule="evenodd" clip-rule="evenodd" d="M2.00465 18.4736V18.3202H1.72211V18.2051H2.50892V18.4756C2.50892 18.5907 2.41082 18.6654 2.26366 18.6654C2.19106 18.6654 2.00662 18.627 2.00662 18.4756L2.00465 18.4736ZM2.37354 18.4231V18.3202H2.14004V18.4474C2.14004 18.5362 2.23815 18.5362 2.26169 18.5362C2.34999 18.5362 2.37354 18.4978 2.37354 18.4231Z" fill="#006940"/>
<path fill-rule="evenodd" clip-rule="evenodd" d="M1.72211 19.2907V19.1756L2.50696 18.9717V19.113L1.92028 19.2402L2.50696 19.3674V19.4946L1.72211 19.2907Z" fill="#006940"/>
<path fill-rule="evenodd" clip-rule="evenodd" d="M1.73383 19.9819L1.89276 19.9315L1.88099 19.7134L1.72009 19.675V19.5479L2.50691 19.7255L2.51868 19.879L1.73187 20.1091V19.9799L1.73383 19.9819ZM2.60698 19.7639L2.72863 19.6609V19.7639L2.60698 19.8285V19.7639ZM2.3362 19.8022L2.03011 19.7376V19.8931L2.3362 19.8022Z" fill="#006940"/>
<path fill-rule="evenodd" clip-rule="evenodd" d="M2.24986 20.7996L2.18707 20.6724L1.94181 20.7996L1.88098 20.6825L2.59324 20.3271L2.70508 20.5694C2.75217 20.6724 2.69134 20.7875 2.55596 20.8501C2.49513 20.8884 2.32246 20.9389 2.24986 20.7996ZM2.55596 20.5937L2.52064 20.5048L2.31069 20.6078L2.35974 20.7087C2.39702 20.7996 2.48336 20.7491 2.5069 20.737C2.58146 20.6986 2.59324 20.6603 2.55596 20.5957V20.5937Z" fill="#006940"/>
<path fill-rule="evenodd" clip-rule="evenodd" d="M2.44614 21.5663L2.70514 21.324L2.55798 21.1565L2.29898 21.3987L2.21265 21.3099L2.78951 20.7607L2.87585 20.8496L2.65413 21.0555L2.80325 21.2332L3.02301 21.0293L3.10934 21.1181L2.53247 21.6673L2.44614 21.5663Z" fill="#006940"/>
<path fill-rule="evenodd" clip-rule="evenodd" d="M3.06022 22.039L3.10928 21.8856L2.92484 21.7705L2.81496 21.8856L2.70508 21.821L3.28195 21.2335L3.4036 21.3102L3.1701 22.1158L3.06022 22.039ZM3.41537 21.2072L3.36632 21.1709L3.4762 21.082L3.56253 21.1446L3.41537 21.2092V21.2072ZM3.2427 21.4273L3.02098 21.6696L3.15637 21.7443L3.2427 21.4253V21.4273Z" fill="#006940"/>
<path fill-rule="evenodd" clip-rule="evenodd" d="M3.78426 21.6145L3.62532 22.2565L3.50171 22.2282L3.67438 21.5781L3.50171 21.5256L3.53899 21.3984L3.9942 21.5256L3.95692 21.669L3.78426 21.6145Z" fill="#006940"/>
<path fill-rule="evenodd" clip-rule="evenodd" d="M4.49653 21.6691V22.3314H4.38665V21.6691H4.20221V21.5137H4.68097V21.6691H4.49653Z" fill="#006940"/>
<path fill-rule="evenodd" clip-rule="evenodd" d="M5.14794 22.3314C5.13421 22.293 5.13421 22.2567 5.13421 22.1658C5.13421 22.0628 5.12243 22.0144 5.03806 22.0144H4.91641V22.3314H4.79083V21.5137H5.08711C5.24605 21.5137 5.26959 21.6792 5.26959 21.7438C5.26959 21.8347 5.23427 21.9094 5.18522 21.9478C5.22054 21.974 5.25782 21.9982 5.25782 22.1517C5.25782 22.2668 5.25782 22.3051 5.28333 22.3051V22.3293H5.14794V22.3314ZM5.06161 21.655H4.91641V21.8731H5.04983C5.1087 21.8731 5.14794 21.8448 5.14794 21.7701C5.14794 21.7176 5.13421 21.655 5.06161 21.655Z" fill="#053F2B"/>
<path d="M5.51774 21.5137H5.39325V22.3314H5.51774V21.5137Z" fill="#006940"/>
<path fill-rule="evenodd" clip-rule="evenodd" d="M6.05644 21.3623H5.99366C6.04271 21.3239 6.05644 21.2734 6.05644 21.2452C6.05644 21.2209 6.04467 21.2068 6.0329 21.2068C6.01916 21.2068 5.99366 21.2068 5.98188 21.2209L5.97011 21.1704C6.00739 21.1543 6.01916 21.1543 6.04467 21.1543C6.09372 21.1543 6.11923 21.1947 6.11923 21.231C6.11923 21.2956 6.09372 21.334 6.05644 21.3602V21.3623ZM5.93479 21.4269H6.00739L5.93479 21.2976H5.84846L5.78763 21.4269H5.84846L5.89751 21.3481L5.93479 21.4269ZM5.67383 22.3314V21.5137H6.1055V21.6691H5.7994V21.8347H6.07999V21.974H5.7994V22.19H6.11923V22.3294H5.67579L5.67383 22.3314Z" fill="#006940"/>
<path fill-rule="evenodd" clip-rule="evenodd" d="M6.59599 22.3314L6.35072 21.758V22.3314H6.24084V21.5137H6.36446L6.59599 22.0891V21.5137H6.70783V22.3314H6.59599Z" fill="#006940"/>
<path fill-rule="evenodd" clip-rule="evenodd" d="M7.47898 22.3314L7.23567 21.758V22.3314H7.12579V21.5137L7.24941 21.5157L7.47898 22.0891V21.5157H7.59082V22.3314H7.47898Z" fill="#006940"/>
<path fill-rule="evenodd" clip-rule="evenodd" d="M8.05583 21.4275L8.00874 21.3507L7.95969 21.4275H7.88513L7.95969 21.2861H8.05583L8.13236 21.4275H8.05583ZM8.00874 22.3602C7.93418 22.3602 7.7262 22.3098 7.7262 21.9262C7.7262 21.5425 7.93418 21.5042 8.00874 21.5042C8.08331 21.5042 8.29129 21.5425 8.29129 21.9262C8.29129 22.3098 8.08331 22.3602 8.00874 22.3602ZM8.00874 21.6435C7.94792 21.6435 7.84785 21.696 7.84785 21.9262C7.84785 22.1563 7.94792 22.2209 8.00874 22.2209C8.06957 22.2209 8.16768 22.1583 8.16768 21.9262C8.16768 21.694 8.07153 21.6435 8.00874 21.6435Z" fill="#006940"/>
<path fill-rule="evenodd" clip-rule="evenodd" d="M8.77007 22.3333L8.53658 21.7579V22.3333H8.41296V21.5156H8.54835L8.77007 22.089H8.78185V21.5156H8.89369V22.3333H8.77007Z" fill="#006940"/>
<path fill-rule="evenodd" clip-rule="evenodd" d="M9.47059 22.3337L9.45489 22.2307C9.43134 22.2832 9.38425 22.36 9.28615 22.36C9.13899 22.36 9.01733 22.2186 9.01733 21.9259C9.01733 21.7078 9.10171 21.5039 9.29792 21.5039C9.47059 21.5039 9.54319 21.6574 9.55888 21.7724H9.43527C9.43527 21.7462 9.38621 21.6432 9.30969 21.6432C9.22532 21.6432 9.13899 21.7199 9.13899 21.938C9.13899 22.156 9.22532 22.2186 9.30969 22.2186C9.3352 22.2186 9.42153 22.1924 9.44508 22.0389H9.30969V21.8996H9.55692V22.3337H9.47059Z" fill="#006940"/>
<path fill-rule="evenodd" clip-rule="evenodd" d="M10.1946 21.6691V22.3333H10.0729V21.6691H9.90027V21.5156H10.3673V21.6691H10.1946Z" fill="#006940"/>
<path fill-rule="evenodd" clip-rule="evenodd" d="M10.8088 22.3333V21.976H10.589L10.587 22.3333H10.4654V21.5156H10.589V21.8346H10.8088V21.5156H10.9304V22.3333H10.8088Z" fill="#006940"/>
<path fill-rule="evenodd" clip-rule="evenodd" d="M11.3365 22.3602C11.2502 22.3602 11.054 22.3098 11.054 21.9241C11.054 21.5385 11.2502 21.5022 11.3365 21.5022C11.4111 21.5022 11.6073 21.5405 11.6053 21.9241C11.6053 22.3077 11.4091 22.3602 11.3345 22.3602H11.3365ZM11.3738 21.4275L11.3385 21.3507L11.2874 21.4275H11.2011L11.2874 21.2861H11.3738L11.4601 21.4275H11.3738ZM11.3365 21.6435C11.2639 21.6435 11.1776 21.696 11.1776 21.9241C11.1776 22.1523 11.2639 22.2189 11.3365 22.2189C11.3973 22.2189 11.4837 22.1543 11.4837 21.9241C11.4837 21.694 11.3973 21.6435 11.3365 21.6435Z" fill="#006940"/>
<path fill-rule="evenodd" clip-rule="evenodd" d="M12.0723 22.3333L11.8388 21.7599V22.3333H11.7152V21.5156H11.8526L12.0861 22.091V21.5156H12.1959V22.3333H12.0723Z" fill="#006940"/>
<path fill-rule="evenodd" clip-rule="evenodd" d="M12.8474 22.3333H12.7237L12.5393 21.5176H12.6629L12.7846 22.1414L12.92 21.5176H13.0436L12.8474 22.3333Z" fill="#006940"/>
<path d="M13.2544 21.5176H13.1299V22.3353H13.2544V21.5176Z" fill="#006940"/>
<path fill-rule="evenodd" clip-rule="evenodd" d="M13.6322 21.427L13.595 21.3503L13.5479 21.427H13.4851L13.5479 21.2998H13.6322L13.7048 21.427H13.6322ZM13.387 22.3356V21.5179H13.8029V21.6693H13.4969V21.8369H13.7931V21.9762H13.4969V22.1922H13.8285V22.3335H13.385L13.387 22.3356ZM13.5341 22.4365H13.646V22.5395H13.5341V22.4365Z" fill="#006940"/>
<path fill-rule="evenodd" clip-rule="evenodd" d="M14.1856 21.669V22.3353H14.0619V21.669H13.8912V21.5176H14.3563V21.669H14.1856Z" fill="#006940"/>
<path fill-rule="evenodd" clip-rule="evenodd" d="M15.0332 22.3353L14.7997 21.7599H14.7879V22.3353H14.6761V21.5176H14.8115L15.0332 22.091V21.5176H15.1548V22.3353H15.0332Z" fill="#006940"/>
<path fill-rule="evenodd" clip-rule="evenodd" d="M15.6709 22.3353L15.6336 22.1697H15.4138L15.3765 22.3353H15.2549L15.4511 21.5176H15.5983L15.7945 22.3353H15.6728H15.6709ZM15.5237 21.7074L15.4491 22.0284H15.5963L15.5237 21.7074Z" fill="#006940"/>
<path fill-rule="evenodd" clip-rule="evenodd" d="M16.3479 22.3353V21.6569L16.236 22.3353H16.1124L16.0143 21.6569H16.0025V22.3353H15.8926V21.5176H16.0771L16.1752 22.1677L16.2851 21.5176H16.4577V22.3353H16.3479Z" fill="#006940"/>
<path fill-rule="evenodd" clip-rule="evenodd" d="M7.55158 20.953H15.7298C16.2811 20.953 16.7344 20.4886 16.7344 19.9192V11.5L7.54962 20.953H7.55158Z" fill="#006940"/>
<path fill-rule="evenodd" clip-rule="evenodd" d="M16.7403 7.81895C16.7403 7.2395 16.2851 6.7832 15.7337 6.7832H12.7238L2.97394 16.8298V19.9148C2.97394 20.4842 3.41346 20.9505 3.97855 20.9505H6.93941L16.7403 10.8656V7.81693V7.81895Z" fill="#AE2638"/>
<path fill-rule="evenodd" clip-rule="evenodd" d="M3.98247 6.78125C3.41737 6.78125 2.97589 7.23754 2.97589 7.817V16.1878L12.1116 6.78529H3.98247V6.78125Z" fill="#006940"/>
<path fill-rule="evenodd" clip-rule="evenodd" d="M4.96346 12.7854C4.96346 12.9369 4.93795 13.0641 4.87713 13.1408C4.8163 13.2276 4.72997 13.266 4.59458 13.266C4.52198 13.266 4.47096 13.2417 4.44546 13.1892C4.43368 13.165 4.43368 13.1266 4.43368 13.0762V12.2807C4.59458 12.2807 4.70446 12.2948 4.77902 12.3453C4.89871 12.42 4.9615 12.5714 4.9615 12.7874L4.96346 12.7854ZM5.46773 12.7733C5.45596 12.5855 5.38139 12.4462 5.23423 12.3312C5.14986 12.2807 5.06157 12.2443 4.95169 12.2181V12.1918C5.04979 12.1676 5.14986 12.1171 5.23423 12.0404C5.32057 11.9657 5.36962 11.8648 5.36962 11.7275C5.36962 11.5094 5.25974 11.3701 5.03802 11.2833C4.92618 11.2449 4.77902 11.2207 4.60635 11.2207H3.70966V11.3075C3.79599 11.3075 3.85682 11.3217 3.88036 11.3338C3.94511 11.3721 3.96866 11.4347 3.96866 11.5236V13.0661C3.96866 13.1549 3.94511 13.2175 3.88036 13.2559C3.84504 13.268 3.79599 13.2801 3.70966 13.2942V13.3689H4.64167C4.8889 13.3689 5.08315 13.3205 5.23227 13.2054C5.37943 13.0903 5.46577 12.951 5.46577 12.7733H5.46773ZM4.8889 11.7497C4.87713 11.9152 4.85162 12.0263 4.78883 12.0909C4.728 12.1535 4.60439 12.1777 4.43368 12.1777V11.4711C4.43368 11.4065 4.44742 11.3681 4.469 11.3459C4.49451 11.3317 4.53179 11.3196 4.59262 11.3196C4.7025 11.3196 4.77706 11.358 4.82611 11.4468C4.86339 11.5215 4.88694 11.6245 4.88694 11.7497H4.8889Z" fill="white"/>
<path fill-rule="evenodd" clip-rule="evenodd" d="M5.82298 7.97232C5.7857 8.01068 5.75038 8.07327 5.71114 8.17422L4.98711 10.0317H4.90078L4.07864 8.12374C4.0551 8.05914 4.01585 7.99655 3.98054 7.9703C3.94326 7.93396 3.8942 7.90973 3.81964 7.90973V7.83301H4.889V7.91175C4.77716 7.92386 4.70456 7.92386 4.66728 7.93598C4.63196 7.94809 4.61823 7.98645 4.61823 8.03693V8.0874L4.63196 8.12576L5.11073 9.30284H5.13427L5.55221 8.22671L5.57575 8.15201C5.58752 8.11567 5.60126 8.07731 5.60126 8.06116C5.60126 7.99857 5.57575 7.96222 5.54043 7.94809C5.50315 7.92386 5.42859 7.92386 5.31871 7.91175V7.83301H6.00742V7.91175C5.91912 7.91175 5.87203 7.938 5.82298 7.97434V7.97232Z" fill="white"/>
<path fill-rule="evenodd" clip-rule="evenodd" d="M16.075 19.7436C15.8651 19.9576 15.5708 20.0727 15.2019 20.0727H14.1816V19.9697C14.2306 20.0081 14.2797 19.9839 14.3287 19.9556C14.3896 19.9314 14.4406 19.9172 14.4779 19.8809V18.2899C14.4779 18.1991 14.417 18.086 14.3562 18.0476C14.317 18.0355 14.2561 18.0214 14.1835 18.0093V17.9346H15.1646C15.557 17.9346 15.8651 18.0375 16.075 18.2374C16.2713 18.4272 16.3556 18.6796 16.3674 19.0067C16.3674 19.2974 16.2693 19.5377 16.075 19.7396V19.7436ZM15.6571 18.4535C15.5237 18.2273 15.3981 18.0497 15.1175 18.0497C15.043 18.1244 14.935 18.0113 14.935 18.1627V19.7557C14.935 19.8203 14.935 19.8708 14.9821 19.9071C15.0214 19.9455 15.043 19.9455 15.1057 19.9455C15.2784 19.9314 15.4746 19.8809 15.5963 19.7295C15.8062 19.4771 15.7689 19.3257 15.7689 19.047C15.7689 18.8088 15.7807 18.6554 15.6571 18.4535Z" fill="white"/>
<path fill-rule="evenodd" clip-rule="evenodd" d="M13.0044 20.0722L12.3412 19.0849H12.2548V19.7047C12.2548 19.8178 12.2803 19.8945 12.3157 19.9329C12.351 19.9712 12.4255 19.9955 12.5374 19.9955V20.0722H11.47V19.9955C11.5681 19.9955 11.6407 19.9712 11.678 19.9329C11.727 19.9086 11.7388 19.8299 11.7388 19.7047V18.2995C11.7388 18.1743 11.727 18.0976 11.678 18.0592C11.6407 18.035 11.5681 18.0229 11.47 18.0088V17.9199H12.4883C12.6963 17.9199 12.867 17.9462 13.0024 17.9946C13.2496 18.0835 13.3831 18.251 13.3831 18.4772C13.3831 18.6528 13.3105 18.7921 13.1868 18.881C13.0887 18.9557 12.9906 19.0061 12.8807 19.0304L13.5184 19.9288L13.5793 19.9793L13.6519 20.0056V20.0681H13.0004L13.0044 20.0722ZM12.7826 18.2127C12.7218 18.0996 12.6237 18.035 12.4648 18.035C12.3784 18.035 12.3176 18.0491 12.2941 18.0734C12.2686 18.0855 12.2568 18.1238 12.2568 18.1743V18.9839C12.4648 18.9718 12.6119 18.9456 12.6983 18.8951C12.7964 18.8325 12.8317 18.7053 12.8317 18.5155C12.8317 18.3903 12.8199 18.2874 12.7826 18.2127Z" fill="white"/>
<path fill-rule="evenodd" clip-rule="evenodd" d="M5.83465 18.5909V18.5162C5.93079 18.502 6.00536 18.502 6.04264 18.4778C6.06618 18.4657 6.09169 18.4395 6.09169 18.3769C6.09169 18.3506 6.07992 18.3264 6.06814 18.2618C6.05637 18.2376 6.0446 18.1972 6.01909 18.1608L5.94453 17.971H5.2205C5.17145 18.0861 5.1479 18.1729 5.13417 18.2113C5.09885 18.2981 5.08511 18.3506 5.08511 18.387C5.08511 18.4374 5.1224 18.4637 5.18322 18.4899C5.2205 18.5 5.26956 18.5 5.34215 18.5142V18.5889H4.69269V18.5142C4.76725 18.5 4.82808 18.4637 4.87713 18.4011C4.90067 18.3627 4.94973 18.2739 5.01252 18.1366L5.72477 16.4043H5.80914L6.5214 18.074C6.60773 18.2618 6.65678 18.3769 6.7078 18.4273C6.74508 18.4899 6.80591 18.5142 6.87851 18.5142V18.5889H5.83661L5.83465 18.5909ZM5.58742 17.0988H5.56191L5.26759 17.8317H5.89548L5.58742 17.0988Z" fill="white"/>
<path fill-rule="evenodd" clip-rule="evenodd" d="M7.89886 20.8091C7.89886 20.8091 8.42079 20.593 8.9074 20.5083C9.08792 20.4659 10.1514 20.2074 10.0965 19.0828C10.0827 18.7921 9.66086 19.1636 9.66086 19.1636C9.66086 19.1636 8.82303 19.2827 8.47181 19.5088C8.29522 19.6138 7.90475 20.058 7.90083 20.8091H7.89886Z" fill="#FFDD00"/>
<path d="M7.89886 20.8091C7.89886 20.8091 8.42079 20.593 8.9074 20.5083C9.08792 20.4659 10.1514 20.2074 10.0965 19.0828C10.0827 18.7921 9.66086 19.1636 9.66086 19.1636C9.66086 19.1636 8.82303 19.2827 8.47181 19.5088C8.29522 19.6138 7.90475 20.058 7.90083 20.8091" stroke="#9A212B" stroke-width="0.29" stroke-miterlimit="2.61"/>
<path fill-rule="evenodd" clip-rule="evenodd" d="M11.5013 17.207C11.5013 17.207 11.6995 18.481 10.7145 18.8868C10.2966 19.0665 9.67064 19.2664 9.57253 19.3674C9.57253 19.3674 9.35081 18.481 10.0768 17.95C10.3103 17.7764 10.7871 17.6108 11.0971 17.4957C11.3914 17.3827 11.5013 17.207 11.5013 17.207Z" fill="#FFDD00"/>
<path fill-rule="evenodd" clip-rule="evenodd" d="M11.5013 17.207C11.5013 17.207 11.6995 18.481 10.7145 18.8868C10.2966 19.0665 9.67064 19.2664 9.57253 19.3674C9.57253 19.3674 9.35081 18.481 10.0768 17.95C10.3103 17.7764 10.7871 17.6108 11.0971 17.4957C11.3914 17.3827 11.5013 17.207 11.5013 17.207Z" stroke="#9A212B" stroke-width="0.29" stroke-miterlimit="2.61"/>
<path fill-rule="evenodd" clip-rule="evenodd" d="M12.0096 15.6329C12.0096 15.6329 12.6237 16.4041 11.937 17.2885C11.7878 17.4924 11.052 17.983 10.8676 18.2111C10.8676 18.2111 10.5007 17.3894 10.9422 16.7191C11.0638 16.5293 11.4817 16.176 11.6662 16.0367C11.8506 15.8974 12.0096 15.6309 12.0096 15.6309V15.6329Z" fill="#FFDD00"/>
<path d="M12.0096 15.6329C12.0096 15.6329 12.6237 16.4041 11.937 17.2885C11.7878 17.4924 11.052 17.983 10.8676 18.2111C10.8676 18.2111 10.5007 17.3894 10.9422 16.7191C11.0638 16.5293 11.4817 16.176 11.6662 16.0367C11.8506 15.8974 12.0096 15.6309 12.0096 15.6309" stroke="#9A212B" stroke-width="0.29" stroke-miterlimit="2.61"/>
<path fill-rule="evenodd" clip-rule="evenodd" d="M11.2639 13.9531C11.2639 13.9531 10.689 14.2964 11.0716 15.2816C11.1089 15.3967 11.5543 16.2164 11.568 16.4426C11.568 16.4426 12.3627 15.9358 12.0409 14.9C11.9919 14.7103 11.621 14.1045 11.2639 13.9551V13.9531Z" fill="#FFDD00"/>
<path d="M11.2639 13.9531C11.2639 13.9531 10.689 14.2964 11.0716 15.2816C11.1089 15.3967 11.5543 16.2164 11.568 16.4426C11.568 16.4426 12.3627 15.9358 12.0409 14.9C11.9919 14.7103 11.621 14.1045 11.2639 13.9551" stroke="#9A212B" stroke-width="0.29" stroke-miterlimit="2.61"/>
<path fill-rule="evenodd" clip-rule="evenodd" d="M9.80019 12.6104C9.80019 12.6104 9.60202 13.2302 10.069 13.8137C10.2672 14.0519 11.1482 14.3305 11.5308 14.6233C11.5308 14.6233 11.9978 13.0545 9.80019 12.6124V12.6104Z" fill="#FFDD00"/>
<path d="M9.80019 12.6104C9.80019 12.6104 9.60202 13.2302 10.069 13.8137C10.2672 14.0519 11.1482 14.3305 11.5308 14.6233C11.5308 14.6233 11.9978 13.0545 9.80019 12.6124" stroke="#9A212B" stroke-width="0.29" stroke-miterlimit="2.61"/>
<path fill-rule="evenodd" clip-rule="evenodd" d="M8.57373 11.498C8.57373 11.498 10.4868 11.6394 10.2298 13.4403C10.2298 13.4403 9.79614 13.1617 9.44492 13.0163C9.29188 12.9376 8.52861 12.6893 8.5757 11.9523C8.58943 11.7504 8.5757 11.498 8.5757 11.498H8.57373Z" fill="#FFDD00"/>
<path d="M8.57373 11.498C8.57373 11.498 10.4868 11.6394 10.2298 13.4403C10.2298 13.4403 9.79614 13.1617 9.44492 13.0163C9.29188 12.9376 8.52861 12.6893 8.5757 11.9523C8.58943 11.7504 8.5757 11.498 8.5757 11.498" stroke="#9A212B" stroke-width="0.29" stroke-miterlimit="2.61"/>
<path fill-rule="evenodd" clip-rule="evenodd" d="M8.60922 9.78766C8.60922 9.78766 7.89893 10.3429 8.25211 11.2777C8.3149 11.4554 8.68378 11.9621 8.87999 12.051C8.87999 12.051 9.10171 11.4049 9.2371 10.9385C9.28616 10.7487 9.42154 10.0017 8.9781 9.71296C8.74461 9.57566 8.60922 9.78968 8.60922 9.78968V9.78766Z" fill="#FFDD00"/>
<path d="M8.60922 9.78766C8.60922 9.78766 7.89893 10.3429 8.25211 11.2777C8.3149 11.4554 8.68378 11.9621 8.87999 12.051C8.87999 12.051 9.10171 11.4049 9.2371 10.9385C9.28616 10.7487 9.42154 10.0017 8.9781 9.71296C8.74461 9.57566 8.60922 9.78968 8.60922 9.78968" stroke="#9A212B" stroke-width="0.29" stroke-miterlimit="2.61"/>
<path fill-rule="evenodd" clip-rule="evenodd" d="M8.46204 10.3407C8.46204 10.3407 7.91068 8.67303 9.88655 8.21875C9.88655 8.21875 10.328 8.86281 9.604 9.53312C9.40778 9.72291 8.58565 10.153 8.46204 10.3407Z" fill="#FFDD00"/>
<path fill-rule="evenodd" clip-rule="evenodd" d="M8.46204 10.3407C8.46204 10.3407 7.91068 8.67303 9.88655 8.21875C9.88655 8.21875 10.328 8.86281 9.604 9.53312C9.40778 9.72291 8.58565 10.153 8.46204 10.3407Z" stroke="#9A212B" stroke-width="0.29" stroke-miterlimit="2.61"/>
<path fill-rule="evenodd" clip-rule="evenodd" d="M11.5426 6.95129C11.5426 6.95129 9.49218 6.90283 9.57852 8.79262C9.57852 8.79262 10.8618 8.3868 11.2091 7.99511C11.3798 7.79321 11.5662 7.4096 11.5426 6.95331V6.95129Z" fill="#FFDD00"/>
<path d="M11.5426 6.95129C11.5426 6.95129 9.49218 6.90283 9.57852 8.79262C9.57852 8.79262 10.8618 8.3868 11.2091 7.99511C11.3798 7.79321 11.5662 7.4096 11.5426 6.95331" stroke="#9A212B" stroke-width="0.29" stroke-miterlimit="2.61"/>
</svg>
