<svg width="32" height="32" viewBox="0 0 32 32" fill="none" xmlns="http://www.w3.org/2000/svg">
<g clip-path="url(#clip0_266_65085)">
<path d="M0 16C0 16.9421 0 17.0467 0.0299274 17.8467C0.0823006 19.6187 0.27683 21.6523 0.987609 23.7981C1.48889 25.3159 2.43161 26.9533 3.37431 27.9851C4.57143 29.3009 6.22491 30.3774 8.0056 30.9906C9.8312 31.6186 11.8064 31.9251 15.6446 32H16.3554C20.2011 31.9177 22.1688 31.6186 23.9944 30.9906C25.7825 30.3774 27.4286 29.3009 28.6331 27.9851C29.576 26.9458 30.5186 25.3159 31.02 23.7981C31.7306 21.6523 31.9251 19.6112 31.9774 17.8467C32 17.0542 32 16.9421 32 16C32 15.0579 32 14.9533 31.9774 14.1533C31.9177 12.3813 31.7306 10.3477 31.02 8.20186C30.5186 6.68411 29.576 5.04671 28.6331 4.01494C27.4361 2.69907 25.7825 1.62243 23.9944 1.00935C22.1688 0.381309 20.1936 0.0822429 16.3554 0H15.6446C11.7989 0.0822429 9.8312 0.381309 8.0056 1.00935C6.21743 1.62243 4.57143 2.69907 3.37431 4.01494C2.43161 5.0542 1.48889 6.68411 0.987609 8.20186C0.27683 10.3477 0.0823006 12.3813 0.0299274 14.1533C0 14.9458 0 15.0579 0 16Z" fill="#345D98"/>
<path d="M14.494 21.7152L10.166 14.9656C9.75569 14.3353 9.43052 13.013 9.75569 12.375L7.06909 16.5646C6.79034 16.9951 6.7826 17.7023 7.06909 18.1482L10.1273 22.9221C10.4061 23.3449 11.0409 23.7139 11.6835 23.7139H15.787L14.5018 21.7152H14.494Z" fill="white"/>
<path d="M10.6617 14.6581L12.5586 17.6101C12.334 17.1642 12.4657 16.6107 12.6128 16.3801L16.1975 10.7529H12.1637C11.4514 10.7529 10.8862 11.0681 10.5765 11.5447L10.2359 12.0675C9.91066 12.7055 10.2359 14.0201 10.6462 14.6504" fill="white"/>
<path d="M24.9233 13.8518L21.8651 9.07793C21.5864 8.65513 20.9515 8.28613 20.3088 8.28613H16.2054L21.8186 17.0344C22.229 17.6647 22.5542 18.9793 22.2367 19.625L24.9311 15.4354C25.202 15.0049 25.2253 14.2977 24.9311 13.8518" fill="white"/>
<path d="M21.3148 17.3182L19.4179 14.3662C19.6424 14.8121 19.5108 15.3656 19.3637 15.5962L15.779 21.2234H19.8128C20.5251 21.2234 21.0903 20.9082 21.4 20.4316L21.7406 19.9088C22.0658 19.2708 21.7406 17.9562 21.3226 17.3182" fill="white"/>
</g>
<defs>
<clipPath id="clip0_266_65085">
<rect width="32" height="32" fill="white"/>
</clipPath>
</defs>
</svg>
