<svg width="40" height="40" viewBox="0 0 40 40" fill="none" xmlns="http://www.w3.org/2000/svg">
<g clip-path="url(#clip0_266_65425)">
<path d="M0 20C0 21.1776 0 21.3084 0.0280636 22.3084C0.1029 24.5234 0.336763 27.0654 1.22544 29.7476C1.8522 31.6449 3.03087 33.6916 4.20954 34.9813C5.70629 36.6261 7.77361 37.9718 10.0094 38.7382C12.2919 39.5232 14.7615 39.9064 19.5603 40H20.449C25.2573 39.8971 27.7175 39.5232 30 38.7382C32.2358 37.9718 34.2938 36.6261 35.7904 34.9813C36.9693 33.6823 38.1479 31.6449 38.7746 29.7476C39.6632 27.0654 39.9064 24.514 39.9718 22.3084C40 21.3178 40 21.1776 40 20C40 18.8224 40 18.6916 39.9718 17.6916C39.8971 15.4766 39.6632 12.9346 38.7746 10.2523C38.1479 8.35514 36.9693 6.30839 35.7904 5.01868C34.2938 3.37383 32.2264 2.02804 30 1.26168C27.7175 0.476636 25.2479 0.0934579 20.449 0H19.5603C14.7521 0.102804 12.2919 0.476636 10.0094 1.26168C7.77361 2.02804 5.71561 3.37383 4.20954 5.01868C3.03087 6.31775 1.8522 8.35514 1.22544 10.2523C0.346118 12.9346 0.1029 15.4766 0.0280636 17.6916C0 18.6823 0 18.8224 0 20Z" fill="#009DAD"/>
<mask id="mask0_266_65425" style="mask-type:luminance" maskUnits="userSpaceOnUse" x="5" y="17" width="30" height="7">
<path d="M35 17.1426H5.35718V23.214H35V17.1426Z" fill="white"/>
</mask>
<g mask="url(#mask0_266_65425)">
<path d="M12.7616 18.2949C11.7798 18.2949 10.9948 19.0904 10.9948 20.0632C10.9948 20.1562 11.0332 20.2493 11.1011 20.3158C11.1689 20.3822 11.2617 20.4199 11.359 20.4199H14.1665C14.2615 20.4199 14.3565 20.3822 14.4244 20.3158C14.4923 20.2493 14.5307 20.1585 14.5307 20.0632C14.5307 19.0882 13.7457 18.2949 12.7639 18.2949M11.782 19.7064C11.8725 19.3054 12.3136 18.9819 12.7616 18.9796C13.2095 18.9796 13.5964 19.2921 13.7412 19.7064H11.782Z" fill="#FDC500"/>
<path d="M14.2186 20.6966C14.0738 20.5925 13.8137 20.6213 13.7096 20.7565C13.4879 21.0467 13.1486 21.2174 12.7617 21.2174C12.3748 21.2174 12.0332 21.0467 11.8138 20.7565C11.712 20.6213 11.4496 20.5903 11.3048 20.6966C11.1442 20.8141 11.1102 21.049 11.2301 21.2085C11.5785 21.6694 12.135 21.9708 12.7617 21.9708C13.3883 21.9708 13.9471 21.6694 14.2933 21.2085C14.4132 21.0512 14.3792 20.8141 14.2186 20.6966Z" fill="#FDC500"/>
<path d="M7.44746 17.5654C7.15789 17.5654 6.92261 17.7959 6.92261 18.0795C6.92261 18.3631 7.15789 18.5936 7.44746 18.5958C7.73929 18.5958 7.97232 18.3653 7.97232 18.0795C7.97232 17.7936 7.73704 17.5654 7.44746 17.5654Z" fill="white"/>
<path d="M18.8404 20.1344C18.8404 19.6247 18.6346 19.1661 18.2975 18.8403C17.9604 18.5124 17.4944 18.3196 16.9831 18.3174C16.9831 18.3174 16.9695 18.3174 16.9673 18.3174C16.379 18.3174 15.9108 18.6586 15.913 18.6675C15.8904 18.4991 15.7049 18.3484 15.5149 18.3462C15.2909 18.3484 15.1167 18.5212 15.1122 18.734V22.8222C15.1144 23.0394 15.2909 23.2122 15.5081 23.2144C15.732 23.2122 15.9085 23.0394 15.9108 22.8244V21.6079C16.2298 21.8627 16.56 21.9625 16.9514 21.9669H16.9763C17.4898 21.9669 17.9581 21.7741 18.2975 21.4462C18.63 21.1227 18.8359 20.6684 18.8404 20.1632V20.1344ZM16.9763 21.2002C16.379 21.1936 15.9175 20.7659 15.9108 20.1432C15.9175 19.5228 16.379 19.093 16.9763 19.0863C17.5894 19.0952 18.0305 19.5095 18.0396 20.1432C18.0305 20.7748 17.5894 21.1891 16.974 21.198" fill="white"/>
<path d="M27.9599 18.7916C27.659 18.4969 27.2382 18.3174 26.7699 18.3174C26.7699 18.3174 26.7586 18.3174 26.7563 18.3174C26.2926 18.3174 25.8718 18.4969 25.5732 18.7916C25.2723 19.0863 25.0913 19.4962 25.0913 19.9438V21.5525C25.0936 21.7697 25.27 21.9403 25.4895 21.9447C25.7134 21.9425 25.8899 21.7697 25.8922 21.5547V19.9394C25.9035 19.4497 26.2338 19.1062 26.7699 19.0952C27.3016 19.104 27.6341 19.4497 27.6432 19.9416V21.5547C27.6454 21.7719 27.8219 21.9425 28.0413 21.947C28.2653 21.9447 28.4418 21.7719 28.444 21.5592V19.9483C28.444 19.5007 28.2653 19.0907 27.9644 18.796" fill="white"/>
<path d="M23.9849 18.8534C23.9849 18.8534 23.8469 18.7271 23.8446 18.7293C23.5257 18.4722 23.1117 18.3193 22.6547 18.3193C22.6547 18.3193 22.6434 18.3193 22.6411 18.3193C22.1185 18.3193 21.6479 18.5232 21.3154 18.8556C20.9828 19.1857 20.786 19.6444 20.786 20.143V20.1474C20.786 20.646 20.9828 21.1047 21.3177 21.437C21.6479 21.7672 22.1185 21.9711 22.6434 21.9733H22.6931C22.6931 21.9733 23.3198 21.9578 23.7157 21.5944L23.7293 21.6476C23.7722 21.8204 23.9261 21.9445 24.1138 21.9467C24.3378 21.9445 24.5143 21.7717 24.5165 21.5567V20.1253C24.512 19.6333 24.3152 19.1835 23.9872 18.8556M22.6502 21.1999C22.028 21.1933 21.5937 20.759 21.5846 20.143C21.5937 19.527 22.028 19.0949 22.6502 19.0883C23.2723 19.0949 23.7066 19.5292 23.7157 20.1452C23.7066 20.759 23.2745 21.1933 22.6502 21.1999Z" fill="white"/>
<path d="M6.15803 17.5499C6.15803 17.3349 5.97704 17.1621 5.75761 17.1621C5.53818 17.1621 5.36171 17.3349 5.35718 17.5477V21.5539C5.35718 21.7689 5.53818 21.9417 5.75761 21.9417C5.97704 21.9417 6.1535 21.7689 6.15803 21.5561V17.5499Z" fill="white"/>
<path d="M20.2137 17.5499C20.2137 17.3349 20.0327 17.1621 19.8133 17.1621C19.5938 17.1621 19.4173 17.3349 19.4128 17.5477V21.5539C19.4128 21.7689 19.5938 21.9417 19.8133 21.9417C20.0327 21.9417 20.2092 21.7689 20.2137 21.5561V17.5499Z" fill="white"/>
<path d="M7.84573 19.4229C7.84573 19.208 7.66473 19.0352 7.4453 19.0352C7.22587 19.0352 7.0494 19.208 7.04712 19.4207V21.5546C7.04712 21.7695 7.22812 21.9423 7.44755 21.9423C7.66701 21.9423 7.84348 21.7695 7.84798 21.5568C7.84798 21.5546 7.84798 19.4229 7.84798 19.4229" fill="white"/>
<path d="M34.4118 21.9421C34.4118 21.9421 34.4322 21.9421 34.4413 21.9421C34.6539 21.9421 34.8327 21.7826 34.8485 21.5721C34.8643 21.3505 34.7082 21.1776 34.4707 21.1444C34.0906 21.0469 34.1223 20.6702 34.1223 20.5218V19.3806H34.5906C34.8168 19.3806 35.0001 19.2011 35.0001 18.9817C35.0001 18.7624 34.8168 18.5829 34.5906 18.5829H34.1223V17.5414C34.1223 17.3199 33.9391 17.1426 33.7128 17.1426C33.4866 17.1426 33.3033 17.3221 33.3033 17.5414V18.5784H33.0862C32.8599 18.5784 32.679 18.7579 32.679 18.9773C32.679 19.1967 32.8622 19.3762 33.0862 19.3762H33.3033V20.7788C33.3033 20.9095 33.3871 21.9377 34.4073 21.9377" fill="white"/>
<path d="M10.2822 18.5804C10.5084 18.5804 10.6894 18.7599 10.6894 18.9793C10.6894 19.1986 10.5061 19.3781 10.2822 19.3781H9.80032V21.5408C9.80032 21.7624 9.61707 21.9419 9.39311 21.9419C9.16915 21.9419 8.98365 21.7624 8.98365 21.5408V19.3781H8.76647C8.54022 19.3781 8.35925 19.1986 8.35925 18.9793C8.35925 18.7599 8.54247 18.5804 8.76647 18.5804H8.98365C8.99043 18.4674 8.97911 17.9268 9.24154 17.621C9.34332 17.5035 9.45193 17.3816 9.59218 17.3063C9.78222 17.2044 9.99036 17.1623 10.2166 17.1446C10.4428 17.129 10.6374 17.293 10.6532 17.5146C10.669 17.734 10.5016 17.9268 10.2754 17.9423C10.1193 17.9534 9.95415 18.0664 9.89532 18.1771C9.8569 18.2503 9.80032 18.3589 9.80032 18.5804H10.2822Z" fill="white"/>
<path d="M30.7243 18.2949C29.7424 18.2949 28.9574 19.0904 28.9574 20.0632C28.9574 20.1562 28.9959 20.2493 29.0637 20.3158C29.1316 20.3822 29.2243 20.4199 29.3216 20.4199H32.1291C32.2241 20.4199 32.3191 20.3822 32.387 20.3158C32.4549 20.2493 32.4934 20.1585 32.4934 20.0632C32.4934 19.0882 31.7083 18.2949 30.7265 18.2949M29.7446 19.7064C29.8351 19.3054 30.2763 18.9819 30.7243 18.9796C31.1722 18.9796 31.559 19.2921 31.7038 19.7064H29.7446Z" fill="#FDC500"/>
<path d="M32.1813 20.6966C32.0364 20.5925 31.7763 20.6213 31.6722 20.7565C31.4505 21.0467 31.1112 21.2174 30.7243 21.2174C30.3375 21.2174 29.9959 21.0467 29.7764 20.7565C29.6746 20.6213 29.4122 20.5903 29.2674 20.6966C29.1068 20.8141 29.0728 21.049 29.1928 21.2085C29.5412 21.6694 30.0977 21.9708 30.7243 21.9708C31.351 21.9708 31.9098 21.6694 32.2559 21.2085C32.3758 21.0512 32.3419 20.8141 32.1813 20.6966Z" fill="#FDC500"/>
</g>
</g>
<defs>
<clipPath id="clip0_266_65425">
<rect width="40" height="40" fill="white"/>
</clipPath>
</defs>
</svg>
