<svg width="32" height="32" viewBox="0 0 32 32" fill="none" xmlns="http://www.w3.org/2000/svg">
<g clip-path="url(#clip0_266_65192)">
<path d="M0 16C0 16.9356 0 17.0475 0.024006 17.8471C0.048012 19.8621 0.376094 21.8691 0.984246 23.7961C1.50438 25.3314 2.31258 26.7547 3.36884 27.9861C4.64116 29.3533 6.23356 30.3848 8.002 30.9925C9.82646 31.6242 11.803 31.92 15.6439 32H16.3561C20.197 31.92 22.1655 31.6162 23.998 30.9925C25.7664 30.3848 27.3588 29.3533 28.6312 27.9861C29.6874 26.7547 30.5036 25.3394 31.0158 23.7961C31.6239 21.8691 31.952 19.8701 31.976 17.8471C32 17.0555 32 16.9436 32 16C32 15.0565 32 14.9526 31.976 14.1609C31.952 12.138 31.6239 10.139 31.0158 8.21192C30.4956 6.67668 29.6874 5.25339 28.6312 4.022C27.3588 2.65468 25.7664 1.62319 23.998 1.01549C22.1735 0.383809 20.197 0.0799601 16.3561 0H15.6439C11.803 0.0799601 9.82646 0.383809 8.002 1.0075C6.23356 1.6152 4.64116 2.64668 3.36884 4.01401C2.31258 5.24539 1.50438 6.66069 0.984246 8.20392C0.376094 10.131 0.056014 12.138 0.024006 14.1609C0 14.9526 0 15.0645 0 16Z" fill="#E2071E"/>
<path d="M22.638 12.7014L19.2924 9.35583C17.4683 7.54806 14.5235 7.54806 12.7076 9.35583L9.36198 12.7014C7.54601 14.5174 7.54601 17.4622 9.36198 19.2863L12.7076 22.6319C14.5317 24.4397 17.4765 24.4397 19.2924 22.6319L22.638 19.2863C24.454 17.4703 24.454 14.5256 22.638 12.7014ZM14.0327 20.8977H14.0082C13.7301 20.8977 13.5092 20.6605 13.5174 20.3824C13.5174 20.1043 13.7546 19.8834 14.0327 19.8916C14.3108 19.8998 14.5317 20.1288 14.5235 20.4069C14.5235 20.6769 14.3027 20.8977 14.0327 20.8977ZM19.9796 18.8364C19.456 19.7853 18.6053 20.5051 17.5828 20.865C17.5828 20.865 17.5665 20.865 17.5583 20.865C17.411 20.8896 17.2638 20.9059 17.1166 20.9059C16.6994 20.9059 16.2904 20.7751 15.9468 20.5297C15.6687 20.3415 15.4152 20.1043 15.2106 19.8343C13.7955 18.0184 13.6974 14.6155 13.6974 14.2311C13.5992 13.2168 13.9018 12.2025 14.5235 11.4008C14.8671 11.0573 15.3252 10.8773 15.8078 10.8855H15.8896C16.3722 10.8773 16.8385 11.0573 17.182 11.4008C17.8119 12.2025 18.0982 13.2168 18.0082 14.2393C18 15.7853 17.5992 17.3067 16.8385 18.6483C16.7158 18.8609 16.4376 18.9264 16.2331 18.8037C16.0205 18.681 15.955 18.4029 16.0777 18.1984C16.7812 16.9959 17.1411 15.6217 17.1166 14.2311C17.2147 13.454 17.0102 12.6769 16.5522 12.0389C16.3804 11.8671 16.135 11.7689 15.8896 11.7771H15.8078C15.5624 11.7689 15.317 11.8589 15.1452 12.0389C14.6871 12.6769 14.4908 13.454 14.5808 14.2311C14.6053 15.5071 14.908 18.0102 15.9141 19.3027C16.0614 19.499 16.2331 19.6626 16.4376 19.8016C16.634 19.9489 16.8794 20.0307 17.1248 20.0307C17.2147 20.0307 17.3047 20.0225 17.3947 20.0061C18.18 19.6871 18.8262 19.1145 19.227 18.3701C19.3088 18.2393 19.4479 18.1657 19.6033 18.1657C19.6851 18.1657 19.7669 18.1902 19.8405 18.2311C19.9387 18.2965 20.0123 18.3947 20.0368 18.5092C20.0614 18.6237 20.0368 18.7464 19.9796 18.8446" fill="white"/>
</g>
<defs>
<clipPath id="clip0_266_65192">
<rect width="32" height="32" fill="white"/>
</clipPath>
</defs>
</svg>
