<svg width="40" height="40" viewBox="0 0 40 40" fill="none" xmlns="http://www.w3.org/2000/svg">
<g clip-path="url(#clip0_266_65956)">
<mask id="mask0_266_65956" style="mask-type:luminance" maskUnits="userSpaceOnUse" x="0" y="0" width="40" height="40">
<path d="M40 0H0V40H40V0Z" fill="white"/>
</mask>
<g mask="url(#mask0_266_65956)">
<path d="M0 20.0004C0 21.1742 0 21.3129 0.0325 22.3042C0.0658407 24.8315 0.469723 27.3403 1.23125 29.7504C1.87792 31.6713 2.89077 33.4487 4.21375 34.9841C5.80566 36.6908 7.79272 37.9799 10 38.7379C13.096 39.6756 16.3242 40.102 19.5575 40.0004H20.4425C23.6737 40.1013 26.8997 39.6749 29.9938 38.7379C32.2038 37.9793 34.1931 36.6884 35.7863 34.9791C37.1086 33.4453 38.121 31.6696 38.7675 29.7504C39.5284 27.3423 39.9323 24.8356 39.9662 22.3104C40 21.3129 40 21.1742 40 20.0004C40 18.8267 40 18.6879 39.9675 17.6966C39.9338 15.1692 39.5295 12.6604 38.7675 10.2504C38.121 8.32942 37.1081 6.55204 35.785 5.01665C34.1919 3.30846 32.2024 2.0192 29.9925 1.2629C26.8992 0.324565 23.6734 -0.101889 20.4425 0.000400499H19.5575C16.3241 -0.10262 13.0957 0.323842 10 1.2629C7.7918 2.02155 5.8045 3.3125 4.21375 5.02165C2.89153 6.55581 1.87874 8.33138 1.23125 10.2504C0.470153 12.6589 0.0662748 15.166 0.0325 17.6917C0 18.6879 0 18.8267 0 20.0004Z" fill="#1D93DC"/>
<path d="M31.3263 18.5381C31.478 19.0107 31.5548 19.5042 31.5538 20.0006C31.5538 24.0631 26.3813 27.3581 20.0013 27.3581C18.2736 27.3669 16.5546 27.114 14.9026 26.6081C15.9551 25.5893 17.1601 24.6918 20.4188 24.3143C23.7076 23.9393 31.5438 23.5518 31.3276 18.5418" fill="white"/>
<path d="M26.1013 17.7588C26.1013 17.1163 25.5826 16.79 24.5301 16.79C24.3438 16.79 24.1288 16.8 23.9051 16.8188C23.8136 17.4595 23.7809 18.1072 23.8076 18.7538V19.0763H24.1001C25.4426 19.0763 26.1013 18.5688 26.1013 17.7588Z" fill="white"/>
<path d="M12.7875 16.7501C12.4809 16.7482 12.1751 16.7817 11.8762 16.8501C11.8083 17.5144 11.7837 18.1825 11.8025 18.8501V20.2626C11.8025 21.1451 11.8212 21.6926 11.8462 21.8988C11.8937 22.2263 12.1337 22.3038 12.9162 22.3038C14.4262 22.3038 15.2737 21.3038 15.2737 19.5826C15.2737 17.7813 14.3812 16.7538 12.7862 16.7538" fill="white"/>
<path d="M29.82 17.6141C29.7578 17.0293 29.5663 16.4657 29.2593 15.9641C28.9523 15.4625 28.5375 15.0355 28.045 14.7141C25.6005 13.3052 22.8185 12.5883 19.9975 12.6403C13.6225 12.6403 8.44629 15.9378 8.44629 19.9966C8.44629 22.8891 11.0713 25.3928 14.8775 26.5978C15.7888 24.9066 18.1088 24.0978 21.945 23.3978C22.9616 23.226 23.9678 22.9973 24.9588 22.7128H24.8538C24.3025 22.7128 23.7925 22.6553 23.3388 22.6553H22.6013C22.86 22.4166 22.87 21.4841 22.87 19.8178V19.4178C22.87 17.6778 22.87 16.6991 22.6013 16.4466H23.5138C24.2075 16.4466 24.8563 16.3791 25.475 16.3791C26.5613 16.3791 27.145 16.8241 27.145 17.5516C27.145 18.2466 26.58 18.7891 25.4663 19.1291C26.775 19.2666 27.4913 19.8791 27.4913 20.8066C27.4947 21.1966 27.3591 21.575 27.1088 21.8741C27.9454 21.5299 28.6552 20.9354 29.1408 20.1721C29.6264 19.4088 29.8641 18.514 29.8213 17.6103M12.9913 22.7141C12.3738 22.7141 11.8475 22.6653 11.4063 22.6653H10.7813C11.0514 21.7452 11.1301 20.7795 11.0125 19.8278V19.4278C11.1354 18.4319 11.0568 17.4215 10.7813 16.4566H11.4538C12.2175 16.4566 12.89 16.3391 13.4988 16.3391C13.8795 16.321 14.2596 16.3864 14.6123 16.5307C14.9651 16.675 15.282 16.8948 15.5408 17.1746C15.7996 17.4543 15.9941 17.7874 16.1106 18.1503C16.227 18.5132 16.2627 18.8972 16.215 19.2753C16.2645 19.7204 16.2168 20.1709 16.0754 20.5959C15.934 21.0208 15.7022 21.41 15.3959 21.7367C15.0897 22.0634 14.7162 22.3198 14.3013 22.4884C13.8864 22.6569 13.4399 22.7335 12.9925 22.7128M21.7925 21.3178C21.766 21.7526 21.8005 22.1889 21.895 22.6141C20.9075 22.6766 20.2075 22.7816 19.7925 22.7816C19.3761 22.8344 18.9531 22.7925 18.5551 22.659C18.1571 22.5255 17.7944 22.3039 17.494 22.0107C17.1936 21.7175 16.9633 21.3603 16.8202 20.9657C16.677 20.571 16.6249 20.1492 16.6675 19.7316C16.6483 19.2561 16.7326 18.7821 16.9147 18.3424C17.0968 17.9027 17.3723 17.5079 17.7221 17.1852C18.0718 16.8625 18.4876 16.6198 18.9405 16.4737C19.3934 16.3276 19.8726 16.2816 20.345 16.3391C20.8297 16.3442 21.3134 16.3834 21.7925 16.4566L21.7825 17.5903C21.565 17.3297 21.2911 17.1219 20.9814 16.9829C20.6717 16.8439 20.3344 16.7772 19.995 16.7878C18.5413 16.7878 17.62 17.8503 17.62 19.5753C17.5783 19.935 17.6166 20.2995 17.7321 20.6426C17.8477 20.9858 18.0377 21.2991 18.2886 21.5602C18.5394 21.8213 18.8449 22.0238 19.1831 22.153C19.5214 22.2823 19.884 22.3351 20.245 22.3078C20.475 22.3114 20.7044 22.2849 20.9275 22.2291C20.9807 21.8507 21.0049 21.4687 21 21.0866C21.0621 20.5623 20.9827 20.031 20.77 19.5478H22.0025C21.7949 20.1137 21.7226 20.7203 21.7913 21.3191" fill="white"/>
<path d="M23.7987 20.6263C23.7809 21.1217 23.8106 21.6177 23.8875 22.1075C23.9387 22.2637 24.2425 22.3575 24.7525 22.3575C24.959 22.3878 25.1696 22.372 25.3693 22.3113C25.569 22.2506 25.7527 22.1464 25.9073 22.0062C26.062 21.866 26.1837 21.6933 26.2636 21.5006C26.3436 21.3078 26.3799 21.0997 26.37 20.8913C26.37 19.9913 25.7212 19.4375 24.485 19.4375H23.7987V20.6263Z" fill="white"/>
</g>
</g>
<defs>
<clipPath id="clip0_266_65956">
<rect width="40" height="40" fill="white"/>
</clipPath>
</defs>
</svg>
