<svg width="56" height="56" viewBox="0 0 56 56" fill="none" xmlns="http://www.w3.org/2000/svg">
<g clip-path="url(#clip0_266_65752)">
<path d="M0 28.0001C0 29.6372 0 29.8331 0.0420105 31.2324C0.084021 34.7587 0.658165 38.2709 1.72243 41.6433C2.63266 44.3299 4.04701 46.8207 5.89547 48.9756C8.12203 51.3683 10.9087 53.1734 14.0035 54.2369C17.1963 55.3423 20.6552 55.8601 27.3768 56H28.6232C35.3448 55.8601 38.7897 55.3283 41.9965 54.2369C45.0913 53.1734 47.878 51.3683 50.1045 48.9756C51.953 46.8207 53.3813 44.3439 54.2776 41.6433C55.3418 38.2709 55.916 34.7727 55.958 31.2324C56 29.8471 56 29.6512 56 28.0001C56 26.3489 56 26.167 55.958 24.7817C55.916 21.2414 55.3418 17.7432 54.2776 14.3709C53.3673 11.6842 51.953 9.19343 50.1045 7.03851C47.878 4.64569 45.0913 2.84058 41.9965 1.77712C38.8037 0.671666 35.3448 0.13993 28.6232 0H27.3768C20.6552 0.13993 17.1963 0.671666 14.0035 1.76312C10.9087 2.82659 8.12203 4.63169 5.89547 7.02451C4.04701 9.17944 2.63266 11.6562 1.72243 14.3569C0.658165 17.7292 0.0980245 21.2414 0.0420105 24.7817C0 26.167 0 26.3629 0 28.0001Z" fill="#E2071E"/>
<path d="M39.6166 22.2304L33.7618 16.3756C30.5696 13.212 25.4162 13.212 22.2383 16.3756L16.3835 22.2304C13.2055 25.4083 13.2055 30.5617 16.3835 33.7539L22.2383 39.6088C25.4305 42.7724 30.5839 42.7724 33.7618 39.6088L39.6166 33.7539C42.7945 30.576 42.7945 25.4227 39.6166 22.2304ZM24.5573 36.574H24.5143C24.0276 36.574 23.6411 36.1589 23.6554 35.6721C23.6554 35.1854 24.0706 34.7989 24.5573 34.8133C25.044 34.8276 25.4305 35.2284 25.4162 35.7151C25.4162 36.1875 25.0297 36.574 24.5573 36.574ZM34.9642 32.9666C34.0481 34.6272 32.5593 35.8869 30.77 36.5167C30.77 36.5167 30.7413 36.5167 30.727 36.5167C30.4693 36.5597 30.2117 36.5883 29.954 36.5883C29.224 36.5883 28.5082 36.3593 27.907 35.9298C27.4203 35.6006 26.9765 35.1854 26.6186 34.713C24.1422 31.5351 23.9704 25.5801 23.9704 24.9073C23.7986 23.1323 24.3282 21.3572 25.4162 19.9544C26.0174 19.3531 26.819 19.0382 27.6636 19.0525H27.8068C28.6514 19.0382 29.4673 19.3531 30.0685 19.9544C31.1708 21.3572 31.6718 23.1323 31.5143 24.9216C31.5 27.6272 30.7986 30.2897 29.4673 32.6374C29.2526 33.0096 28.7659 33.1241 28.408 32.9094C28.0358 32.6946 27.9213 32.2079 28.136 31.8501C29.3671 29.7458 29.997 27.3409 29.954 24.9073C30.1258 23.5474 29.7679 22.1875 28.9663 21.0709C28.6657 20.7703 28.2362 20.5985 27.8068 20.6128H27.6636C27.2342 20.5985 26.8047 20.756 26.5041 21.0709C25.7025 22.1875 25.3589 23.5474 25.5164 24.9073C25.5593 27.1404 26.089 31.5208 27.8497 33.7826C28.1074 34.1261 28.408 34.4124 28.7659 34.6558C29.1094 34.9135 29.5389 35.0566 29.9683 35.0566C30.1258 35.0566 30.2833 35.0423 30.4407 35.0137C31.8149 34.4554 32.9458 33.4533 33.6473 32.1507C33.7904 31.9216 34.0338 31.7928 34.3057 31.7928C34.4489 31.7928 34.592 31.8357 34.7209 31.9073C34.8927 32.0218 35.0215 32.1936 35.0644 32.394C35.1074 32.5944 35.0644 32.8092 34.9642 32.9809" fill="white"/>
</g>
<defs>
<clipPath id="clip0_266_65752">
<rect width="56" height="56" fill="white"/>
</clipPath>
</defs>
</svg>
