<svg width="32" height="32" viewBox="0 0 32 32" fill="none" xmlns="http://www.w3.org/2000/svg">
<g clip-path="url(#clip0_266_65167)">
<path d="M0 16C0 16.9421 0 17.0467 0.0224509 17.8467C0.08232 19.6187 0.269411 21.6523 0.980354 23.7981C1.48176 25.3159 2.4247 26.9533 3.36763 27.9851C4.56503 29.3009 6.21889 30.3774 8.00749 30.9906C9.83349 31.6186 11.8092 31.9251 15.6483 32H16.3592C20.2058 31.9177 22.174 31.6186 24 30.9906C25.7886 30.3774 27.435 29.3009 28.6323 27.9851C29.5754 26.9458 30.5183 25.3159 31.0197 23.7981C31.7306 21.6523 31.9251 19.6112 31.9774 17.8467C32 17.0542 32 16.9421 32 16C32 15.0579 32 14.9533 31.9774 14.1533C31.9177 12.3813 31.7306 10.3477 31.0197 8.20186C30.5183 6.68411 29.5754 5.04671 28.6323 4.01494C27.435 2.69907 25.7811 1.62243 24 1.00935C22.174 0.381309 20.1983 0.0747663 16.3592 0H15.6483C11.8017 0.0822429 9.83349 0.381309 8.00749 1.00935C6.21889 1.62243 4.57249 2.69907 3.36763 4.01494C2.4247 5.0542 1.48176 6.68411 0.980354 8.20186C0.276894 10.3477 0.08232 12.3813 0.0224509 14.1533C0 14.9458 0 15.0579 0 16Z" fill="#0099D9"/>
<mask id="mask0_266_65167" style="mask-type:luminance" maskUnits="userSpaceOnUse" x="3" y="12" width="26" height="8">
<path d="M28.8571 12.2861H3.14282V19.429H28.8571V12.2861Z" fill="white"/>
</mask>
<g mask="url(#mask0_266_65167)">
<path d="M18.7485 14.6878C17.8628 15.573 17.8628 17.0077 18.7485 17.8929L19.9802 19.1241C20.3874 19.5311 21.0491 19.5311 21.4563 19.1241L19.4814 17.1501C19.003 16.6719 19.003 15.8986 19.4814 15.4204C19.9598 14.9422 20.7335 14.9422 21.212 15.4204L24.9073 19.1139C25.3145 19.5209 25.9762 19.5209 26.3833 19.1139L21.9449 14.6776C21.0593 13.7924 19.6239 13.7924 18.7383 14.6776" fill="white"/>
<path d="M23.1869 13.4565C21.6192 11.8895 19.0844 11.8895 17.5167 13.4565C15.949 15.0234 15.949 17.557 17.5167 19.124C17.9239 19.531 18.5856 19.531 18.9928 19.124L18.2497 18.3812C17.0688 17.2416 17.0383 15.3694 18.1784 14.1891C19.3186 13.0088 21.1916 12.9783 22.3725 14.1179C22.403 14.1382 22.4234 14.1687 22.4438 14.1891L27.3708 19.1138C27.778 19.5208 28.4397 19.5208 28.8468 19.1138L23.1767 13.4463L23.1869 13.4565Z" fill="white"/>
<path d="M19.9802 15.9192C19.7766 16.1227 19.7766 16.4585 19.9802 16.662L22.4437 19.1244C22.8509 19.5314 23.5126 19.5314 23.9198 19.1244L20.7132 15.9192C20.5096 15.7157 20.1736 15.7157 19.97 15.9192" fill="white"/>
<path d="M13.2513 14.6874C14.137 15.5726 14.137 17.0072 13.2513 17.8925L12.0196 19.1236C11.6124 19.5306 10.9507 19.5306 10.5435 19.1236L12.5184 17.1497C12.9969 16.6715 12.9969 15.8982 12.5184 15.42C12.0399 14.9417 11.2663 14.9417 10.7878 15.42L7.09254 19.1135C6.68534 19.5205 6.02366 19.5205 5.61646 19.1135L10.0447 14.6874C10.9303 13.8021 12.3657 13.8021 13.2513 14.6874Z" fill="white"/>
<path d="M8.81299 13.4565C10.3807 11.8895 12.9155 11.8895 14.4832 13.4565C16.0508 15.0234 16.0508 17.557 14.4832 19.124C14.076 19.531 13.4143 19.531 13.0071 19.124L13.7502 18.3812C14.9209 17.2416 14.9413 15.3592 13.8011 14.1891C12.661 13.0189 10.7777 12.9986 9.60702 14.1382C9.58665 14.1585 9.57648 14.1687 9.55614 14.1891L4.61891 19.124C4.21171 19.531 3.55002 19.531 3.14282 19.124L8.81299 13.4565Z" fill="white"/>
<path d="M12.0094 15.9192C12.213 16.1227 12.213 16.4585 12.0094 16.662L9.54591 19.1244C9.13871 19.5314 8.47702 19.5314 8.06982 19.1244L11.2765 15.9192C11.4801 15.7157 11.816 15.7157 12.0196 15.9192" fill="white"/>
</g>
</g>
<defs>
<clipPath id="clip0_266_65167">
<rect width="32" height="32" fill="white"/>
</clipPath>
</defs>
</svg>
