<svg width="24" height="24" viewBox="0 0 24 24" fill="none" xmlns="http://www.w3.org/2000/svg">
<g clip-path="url(#clip0_266_64745)">
<path d="M0 12C0 12.7065 0 12.785 0.0168342 13.385C0.0617254 14.714 0.202011 16.2393 0.735094 17.8486C1.11106 18.9869 1.8181 20.2149 2.52514 20.9888C3.42296 21.9756 4.66307 22.7831 6.0042 23.2429C7.3734 23.7139 8.8548 23.9439 11.7334 24H12.2666C15.1508 23.9383 16.6266 23.7139 17.9958 23.2429C19.3369 22.7831 20.5714 21.9756 21.4749 20.9888C22.182 20.2094 22.8889 18.9869 23.265 17.8486C23.7979 16.2393 23.9439 14.7084 23.9831 13.385C24 12.7907 24 12.7065 24 12C24 11.2935 24 11.2093 23.9831 10.6149C23.9383 9.28599 23.7979 7.76074 23.265 6.15139C22.8889 5.01309 22.182 3.78504 21.4749 3.01121C20.577 2.0243 19.3369 1.21682 17.9958 0.757009C16.6266 0.285981 15.1452 0.0560747 12.2666 0H11.7334C8.84919 0.0616821 7.3734 0.285981 6.0042 0.757009C4.66307 1.21682 3.42857 2.0243 2.52514 3.01121C1.8181 3.79065 1.11106 5.01309 0.735094 6.15139C0.207622 7.76074 0.0617254 9.28599 0.0168342 10.6149C0 11.2093 0 11.2935 0 12Z" fill="#04A86C"/>
<path d="M15.8265 7.96157C15.4256 8.54756 15.207 8.84959 14.5632 9.55037C15.6746 8.88585 15.9783 8.84355 17.0108 8.2455C17.3934 8.81336 17.4967 10.1303 17.5088 11.1754C17.8429 10.5109 18.2498 8.02198 18.0797 7.56889C18.6992 7.16415 18.6992 7.00708 18.8571 6.73524C18.2376 6.7896 17.8854 6.80169 17.5453 6.90437C16.6889 6.37881 14.9215 5.84115 13.4821 5.73242C13.9316 5.91969 15.7597 6.91041 15.9905 7.21851C15.0248 7.34537 13.1785 7.88908 12.2432 8.3784C13.3121 8.14279 14.8061 8.02198 15.8326 7.96761L15.8265 7.96157Z" fill="white"/>
<path d="M12.65 16.1236C12.3767 16.4861 12.152 16.7579 11.8483 17.0902C11.3382 17.2291 10.9312 17.2835 10.4393 17.2835C10.743 17.4406 11.0466 17.5372 11.3625 17.5976C11.0466 17.8876 10.7673 18.093 10.4636 18.2863C10.9859 18.1655 11.66 17.942 12.1702 17.646C12.4314 17.652 12.6986 17.646 12.8747 17.6097C12.8322 17.4527 12.7958 17.3379 12.7533 17.1385C13.2331 16.77 13.5793 16.4378 13.9679 16.0391C13.5489 16.3351 13.1845 16.5586 12.7047 16.7881C12.6804 16.5646 12.6682 16.3713 12.6561 16.1236H12.65Z" fill="white"/>
<path d="M6.83181 12.8668C6.83181 12.8668 8.38054 11.4351 9.04862 11.0726C9.04862 11.0726 9.38873 12.2385 9.63167 12.8185C9.63167 12.8185 9.8503 11.4713 10.2026 10.6981C10.2026 10.6981 10.2997 10.6376 10.7977 10.5893C11.2897 10.547 11.9821 10.5168 13.3182 10.7464C13.3182 10.7464 12.0914 9.97314 10.5791 9.76774C10.6398 9.56233 10.8524 9.12135 11.0407 8.88574C10.7613 8.92802 9.97785 9.2784 9.45552 9.68316C9.45552 9.68316 9.10934 9.64086 8.53238 9.65899C7.95539 9.68316 7.19622 9.82815 6.89862 9.94896C7.46346 9.97313 8.23478 10.1121 8.53238 10.4081C8.53238 10.4081 7.66994 11.1813 6.82574 12.8668H6.83181Z" fill="white"/>
<path d="M7.0017 16.5822C7.25678 17.138 7.52402 17.5125 7.96131 17.9354C7.85805 17.5729 7.83983 17.2769 7.87628 16.8963C8.42895 17.0534 8.88446 17.144 9.50396 17.1621C8.90876 16.9447 8.48361 16.6909 8.02204 16.256C8.16173 15.8754 8.32571 15.5733 8.58079 15.1928C8.10098 15.2592 7.75481 15.3196 7.34181 15.3982C7.00778 14.8122 6.85594 14.2443 6.68588 13.459C6.58871 14.2866 6.55834 14.8907 6.67373 15.5552C6.29111 15.6579 6.02389 15.7425 5.71414 15.8814C6.15143 16.1472 6.50976 16.3587 7.0017 16.5822Z" fill="white"/>
<path d="M12.7471 17.1375C12.7897 17.3369 12.8261 17.4577 12.8686 17.6087C12.6864 17.645 12.4253 17.657 12.1641 17.645C11.6539 17.941 10.9798 18.1645 10.4575 18.2853C10.7611 18.092 11.0405 17.8866 11.3563 17.5966C11.0405 17.5302 10.7308 17.4396 10.4332 17.2825C10.9312 17.2825 11.332 17.2281 11.8422 17.0892C12.1459 16.7569 12.3706 16.479 12.6439 16.1226C12.6561 16.3763 12.6682 16.5636 12.6925 16.7871C13.1723 16.5576 13.5367 16.328 13.9558 16.038C13.561 16.4367 13.2209 16.769 12.7411 17.1375H12.7471ZM13.476 5.71991C14.9154 5.82864 16.6827 6.37235 17.5391 6.89188C17.8792 6.78917 18.2314 6.77709 18.8509 6.72272C18.693 6.99457 18.693 7.15164 18.0735 7.55638C18.2436 8.00947 17.8367 10.4984 17.5026 11.1629C17.4905 10.1178 17.3872 8.80085 17.0046 8.23299C15.9782 8.83106 15.6685 8.87938 14.557 9.53786C15.2069 8.83708 15.4255 8.54109 15.8203 7.94906C14.7939 8.00342 13.2998 8.13028 12.2309 8.35985C13.1662 7.87052 15.0125 7.32684 15.9782 7.19996C15.7474 6.89188 13.9254 5.89511 13.4699 5.71387L13.476 5.71991ZM6.90452 9.9426C7.19606 9.82179 7.95523 9.6768 8.53828 9.65263C9.11524 9.6345 9.46144 9.6768 9.46144 9.6768C9.98374 9.266 10.7672 8.92166 11.0466 8.87938C10.8583 9.11499 10.6397 9.55597 10.585 9.76138C12.0973 9.96677 13.3241 10.74 13.3241 10.74C11.988 10.5044 11.2956 10.5407 10.8037 10.583C10.3056 10.6313 10.2085 10.6917 10.2085 10.6917C9.8562 11.465 9.63756 12.8121 9.63756 12.8121C9.39463 12.2322 9.05451 11.0662 9.05451 11.0662C8.38643 11.4227 6.83773 12.8604 6.83773 12.8604C7.68193 11.175 8.54434 10.4017 8.54434 10.4017C8.24676 10.1057 7.47544 9.96677 6.91061 9.9426H6.90452ZM6.68588 13.4525C6.85594 14.2378 7.00778 14.8056 7.34181 15.3916C7.75481 15.3131 8.10707 15.2527 8.58079 15.1862C8.32571 15.5668 8.16173 15.8689 8.02204 16.2495C8.4897 16.6844 8.91482 16.9382 9.50396 17.1556C8.88446 17.1375 8.42288 17.0469 7.87628 16.8898C7.83983 17.2704 7.85805 17.5664 7.96131 17.9289C7.52402 17.5 7.25678 17.1315 7.0017 16.5757C6.50976 16.3522 6.15143 16.1407 5.71414 15.8749C6.02389 15.736 6.29719 15.6514 6.67373 15.5487C6.55834 14.8842 6.58871 14.2801 6.68588 13.4525Z" fill="white"/>
</g>
<defs>
<clipPath id="clip0_266_64745">
<rect width="24" height="24" fill="white"/>
</clipPath>
</defs>
</svg>
