<svg width="40" height="40" viewBox="0 0 40 40" fill="none" xmlns="http://www.w3.org/2000/svg">
<g clip-path="url(#clip0_266_65560)">
<path d="M0 20C0 21.1776 0 21.3084 0.0280636 22.3084C0.1029 24.5234 0.336763 27.0654 1.22544 29.7476C1.8522 31.6449 3.03087 33.6916 4.20954 34.9813C5.70629 36.6261 7.77361 37.9718 10.0094 38.7382C12.2919 39.5232 14.7615 39.9064 19.5603 40H20.449C25.2573 39.8971 27.7175 39.5232 30 38.7382C32.2358 37.9718 34.2938 36.6261 35.7904 34.9813C36.9693 33.6823 38.1479 31.6449 38.7746 29.7476C39.6632 27.0654 39.9064 24.514 39.9718 22.3084C40 21.3178 40 21.1776 40 20C40 18.8224 40 18.6916 39.9718 17.6916C39.8971 15.4766 39.6632 12.9346 38.7746 10.2523C38.1479 8.35514 36.9693 6.30839 35.7904 5.01868C34.2938 3.37383 32.2264 2.02804 30 1.26168C27.7175 0.476636 25.2479 0.0934579 20.449 0H19.5603C14.7521 0.102804 12.2919 0.476636 10.0094 1.26168C7.77361 2.02804 5.71561 3.37383 4.20954 5.01868C3.03087 6.31775 1.8522 8.35514 1.22544 10.2523C0.346118 12.9346 0.1029 15.4766 0.0280636 17.6916C0 18.6823 0 18.8224 0 20Z" fill="#009E9F"/>
<path d="M20 40C31.0457 40 40 31.0457 40 20C40 8.95432 31.0457 0 20 0C8.95432 0 0 8.95432 0 20C0 31.0457 8.95432 40 20 40Z" fill="#009E9F"/>
<mask id="mask0_266_65560" style="mask-type:luminance" maskUnits="userSpaceOnUse" x="0" y="0" width="40" height="40">
<path d="M20 40C31.0457 40 40 31.0457 40 20C40 8.95432 31.0457 0 20 0C8.95432 0 0 8.95432 0 20C0 31.0457 8.95432 40 20 40Z" fill="white"/>
</mask>
<g mask="url(#mask0_266_65560)">
<path d="M23.5378 21.8934C23.4891 21.5816 23.3995 21.2777 23.2712 20.9893C22.9058 20.1268 22.2777 19.4016 21.4762 18.9168C20.8443 18.5441 20.1231 18.3498 19.3896 18.3546C18.6559 18.3594 17.9374 18.5631 17.3105 18.944C16.7252 19.2933 16.2499 19.7999 15.9387 20.4062C15.8343 20.6122 15.7473 20.8265 15.6786 21.047C15.4876 21.62 15.4143 22.2258 15.4632 22.8278C15.5119 23.4299 15.6818 24.0159 15.9626 24.5507C16.1576 24.8774 16.4524 25.1329 16.8035 25.2796C16.9791 25.35 17.1685 25.3791 17.3571 25.3648C17.5457 25.3504 17.7286 25.293 17.8914 25.1969C18.0721 25.0578 18.2073 24.8682 18.2798 24.6521C18.3524 24.436 18.3591 24.2032 18.2989 23.9833C18.1569 23.4252 18.1707 22.8387 18.3386 22.2878C18.4022 22.1072 18.5049 21.9428 18.6394 21.8064C18.7738 21.6834 18.9337 21.5916 19.1076 21.5374C19.2815 21.4833 19.4653 21.4681 19.6457 21.4931C19.8571 21.5385 20.0547 21.6333 20.2225 21.7695C20.3903 21.9059 20.5235 22.0799 20.6113 22.2775C20.7824 22.6739 20.8712 23.1011 20.8723 23.5329C20.8784 25.4339 20.5956 27.3247 20.0336 29.1406C19.9835 29.3272 19.9324 29.51 19.8802 29.6954C19.8405 29.8369 19.7671 30.0218 19.8573 30.1568C19.8984 30.214 19.955 30.2584 20.0205 30.2846C20.1475 30.321 20.2827 30.3168 20.4073 30.2726C20.5318 30.2284 20.6395 30.1465 20.7152 30.0381C21.7792 28.9037 22.5636 27.5365 23.0063 26.0455C23.1907 25.4989 23.3378 24.9404 23.4464 24.3739C23.6164 23.5583 23.6448 22.7197 23.5302 21.8945" fill="white"/>
<path d="M31.4278 13.2448C31.425 13.1822 31.4098 13.1207 31.3832 13.064C31.3565 13.0072 31.3189 12.9563 31.2725 12.9142C31.2261 12.8721 31.1718 12.8396 31.1127 12.8185C31.0537 12.7975 30.9911 12.7884 30.9284 12.7917H30.9094C30.6395 12.83 30.3777 12.9122 30.1342 13.0348C25.1933 14.796 19.8908 15.2952 14.708 14.4872C13.8344 14.3594 12.9488 14.1842 12.0698 14.0488C11.5204 13.9639 10.977 13.8388 10.4222 13.7991C9.92388 13.7011 9.40698 13.7985 8.97848 14.0711C8.75934 14.311 8.62324 14.6151 8.59031 14.9384C8.55738 15.2617 8.62945 15.587 8.79573 15.8661C9.17159 16.5036 9.71409 17.0264 10.365 17.3784C10.9683 17.8057 11.6826 18.0487 12.4212 18.0779C14.374 17.9535 16.3209 17.7651 18.2618 17.5127C21.6347 17.2395 24.9579 16.5298 28.1482 15.4016C29.1796 14.9953 30.1519 14.4529 31.0394 13.7888C31.1972 13.668 31.4251 13.4733 31.4251 13.2448" fill="white"/>
<path d="M17.5237 11.5869C17.5237 12.0928 17.7247 12.578 18.0824 12.9358C18.4402 13.2936 18.9254 13.4945 19.4314 13.4945C19.9373 13.4945 20.4225 13.2936 20.7803 12.9358C21.138 12.578 21.339 12.0928 21.339 11.5869C21.3384 11.4305 21.3035 11.2763 21.2368 11.1348C21.0736 10.79 20.887 10.6219 20.9066 10.2101C20.9305 9.65308 20.212 9.64494 19.8252 9.64494C19.3957 9.63151 18.9687 9.71618 18.5768 9.89243C18.2731 10.0466 18.0153 10.2776 17.8289 10.5626C17.6399 10.857 17.5351 11.1975 17.5259 11.5471V11.5901" fill="white"/>
</g>
</g>
<defs>
<clipPath id="clip0_266_65560">
<rect width="40" height="40" fill="white"/>
</clipPath>
</defs>
</svg>
