<svg width="24" height="24" viewBox="0 0 24 24" fill="none" xmlns="http://www.w3.org/2000/svg">
<g clip-path="url(#clip0_266_64755)">
<path d="M0 12.0049C0 12.7068 0 12.7908 0.0180045 13.3906C0.036009 14.9022 0.282071 16.4079 0.738184 17.8535C1.12828 19.0052 1.73443 20.0729 2.52662 20.9907C3.48088 22.0164 4.67518 22.7902 6.0015 23.2462C7.36984 23.72 8.85221 23.942 11.7329 24.002H12.2671C15.1478 23.942 16.6242 23.714 17.9985 23.2462C19.3248 22.7902 20.5191 22.0164 21.4734 20.9907C22.2656 20.0669 22.8778 19.0052 23.2618 17.8535C23.718 16.4079 23.964 14.9082 23.982 13.3906C24 12.7968 24 12.7128 24 12.0049C24 11.2971 24 11.2191 23.982 10.6253C23.964 9.11368 23.718 7.60806 23.2618 6.1624C22.8718 5.0107 22.2656 3.94296 21.4734 3.0192C20.5191 1.99345 19.3248 1.21965 17.9985 0.763764C16.6302 0.289882 15.1478 0.0619382 12.2671 0.00195312H11.7329C8.85221 0.0619382 7.36984 0.289882 6.0015 0.757764C4.67518 1.21365 3.48088 1.98746 2.52662 3.0132C1.73443 3.93696 1.12828 4.9987 0.738184 6.1564C0.282071 7.60806 0.0420105 9.10768 0.0180045 10.6253C0 11.2191 0 11.3031 0 12.0049Z" fill="#00854A"/>
<path d="M9.96316 10.5871C9.583 10.235 9.121 9.94509 8.563 9.74846C8.28333 9.64903 7.82133 9.50488 7.42765 9.50488C7.08968 9.50488 6.80165 9.61241 6.72723 9.95156C6.58805 10.5988 6.65281 16.154 6.70338 16.796C6.73883 17.2693 6.93665 17.5453 7.48756 17.5343C11.3289 17.4721 12.3363 12.7898 9.96316 10.5871Z" fill="white"/>
<path d="M14.3644 6.126C14.0194 5.80629 13.5957 5.54295 13.0934 5.36544C12.8386 5.27344 12.4198 5.14258 12.0622 5.14258C11.7526 5.14258 11.4929 5.24267 11.4236 5.55006C11.297 6.13573 11.3576 11.1795 11.4014 11.7648C11.4349 12.1921 11.6131 12.4422 12.1134 12.435C15.6019 12.3764 16.5195 8.12526 14.3644 6.126Z" fill="white"/>
<path d="M15.9047 10.8149C15.472 10.4139 14.9382 10.0822 14.308 9.85897C13.9858 9.74399 13.4588 9.58008 13.0116 9.58008C12.624 9.58008 12.2941 9.70349 12.2097 10.0906C12.048 10.8278 12.1259 17.1644 12.1816 17.8994C12.2248 18.4397 12.4468 18.7506 13.0744 18.7416C17.4599 18.671 18.6126 13.3278 15.9047 10.8149Z" fill="white"/>
</g>
<defs>
<clipPath id="clip0_266_64755">
<rect width="24" height="24" fill="white"/>
</clipPath>
</defs>
</svg>
