<svg width="40" height="40" viewBox="0 0 40 40" fill="none" xmlns="http://www.w3.org/2000/svg">
<g clip-path="url(#clip0_266_65417)">
<path d="M0 19.995C0 21.1647 0 21.3047 0.0300075 22.3044C0.060015 24.8238 0.470118 27.3332 1.23031 29.7426C1.88047 31.6621 2.89072 33.4416 4.21105 34.9813C5.80145 36.6908 7.79195 37.9805 10.0025 38.7403C12.2831 39.5201 14.7537 39.9 19.5549 40H20.4451C25.2463 39.9 27.7169 39.5201 29.9975 38.7403C32.208 37.9805 34.1985 36.6908 35.7889 34.9813C37.1093 33.4416 38.1295 31.6721 38.7697 29.7426C39.5299 27.3332 39.94 24.8338 39.97 22.3044C40 21.3147 40 21.1747 40 19.995C40 18.8153 40 18.6853 39.97 17.6956C39.94 15.1662 39.5299 12.6668 38.7697 10.2574C38.1195 8.33792 37.1093 6.55836 35.7889 5.01875C34.1985 3.30917 32.208 2.0195 29.9975 1.25969C27.7169 0.469883 25.2463 0.099975 20.4451 0H19.5549C14.7537 0.099975 12.2831 0.47988 10.0025 1.25969C7.79195 2.0195 5.80145 3.30917 4.21105 5.01875C2.89072 6.55836 1.87047 8.32792 1.23031 10.2574C0.470118 12.6568 0.0700175 15.1662 0.0300075 17.6856C0 18.6753 0 18.8153 0 19.995Z" fill="#F4731C"/>
<path d="M17.2601 20.2401C16.9901 17.7701 19.5801 15.7901 23.0501 15.8101C26.5201 15.8301 29.5501 17.8601 29.8201 20.3301C30.0901 22.8001 27.5001 24.7801 24.0301 24.7501C20.5601 24.7201 17.5301 22.7001 17.2601 20.2301M30.4601 21.0001C30.1501 17.9301 26.6601 15.4301 22.6601 15.3901C18.6601 15.3501 15.6801 17.8101 16.0001 20.8801C16.3201 23.9501 19.8001 26.4501 23.8001 26.4901C27.8001 26.5301 30.7701 24.0701 30.4601 21.0001Z" fill="white"/>
<path d="M24.4399 26.5502C22.5999 28.6002 19.4399 28.7702 17.3899 26.9302C15.4599 24.9602 15.4999 21.8002 17.4599 19.8802C19.2999 17.8302 22.4599 17.6602 24.5099 19.5002C26.4399 21.4702 26.3999 24.6202 24.4399 26.5502ZM17.1499 19.8102C14.8599 22.0502 14.8299 25.7202 17.0699 28.0102C19.4599 30.1502 23.1199 29.9502 25.2599 27.5702C27.5499 25.3302 27.5799 21.6602 25.3399 19.3702C22.9499 17.2302 19.2899 17.4302 17.1499 19.8102Z" fill="white"/>
<path d="M17.3603 12.1298C21.4503 10.5998 25.4903 12.1498 26.3903 15.5898C27.2903 19.0298 24.7003 23.0698 20.6103 24.5998C16.5203 26.1298 12.4803 24.5798 11.5803 21.1398C10.6803 17.6998 13.2703 13.6698 17.3603 12.1298ZM13.5603 13.4498C9.32035 16.7998 8.24035 21.6698 11.1503 24.3098C14.0603 26.9498 19.8603 26.3698 24.1003 23.0198C28.3403 19.6698 29.4303 14.7998 26.5103 12.1598C23.5903 9.51984 17.8003 10.0898 13.5603 13.4498Z" fill="white"/>
</g>
<defs>
<clipPath id="clip0_266_65417">
<rect width="40" height="40" fill="white"/>
</clipPath>
</defs>
</svg>
