<svg width="24" height="24" viewBox="0 0 24 24" fill="none" xmlns="http://www.w3.org/2000/svg">
<g clip-path="url(#clip0_266_64737)">
<path d="M0 12.003C0 12.7048 0 12.7888 0.0180045 13.3887C0.036009 14.9003 0.282071 16.4059 0.738185 17.8515C1.12828 19.0033 1.73443 20.071 2.52663 20.9888C3.48087 22.0145 4.67517 22.7883 6.0015 23.2442C7.36984 23.7181 8.85221 23.94 11.7329 24H12.2671C15.1478 23.94 16.6302 23.7121 17.9985 23.2442C19.3248 22.7883 20.5191 22.0145 21.4734 20.9888C22.2656 20.065 22.8777 19.0033 23.2618 17.8515C23.7179 16.4059 23.964 14.9063 23.982 13.3887C24 12.7948 24 12.7108 24 12.003C24 11.2952 24 11.2172 23.982 10.6233C23.964 9.11172 23.7179 7.6061 23.2618 6.16046C22.8717 5.00875 22.2656 3.94101 21.4734 3.01725C20.5191 1.9915 19.3248 1.2177 17.9985 0.76181C16.6302 0.287928 15.1478 0.059985 12.2671 0H11.7329C8.85221 0.059985 7.36984 0.287928 6.0015 0.755811C4.67517 1.2117 3.48087 1.9855 2.52663 3.01125C1.73443 3.93502 1.12228 4.99675 0.738185 6.15446C0.282071 7.6061 0.0420105 9.10572 0.0180045 10.6233C0 11.2172 0 11.3012 0 12.003Z" fill="#E72511"/>
<path d="M19.7071 13.6284H16.35V9.43555H15.2214V14.5284H20.3571L19.7071 13.6284Z" fill="white"/>
<path d="M7.35 9.42871C7.29285 9.50729 3.70714 14.443 3.64285 14.5216H4.9L5.90715 13.1359H7.56428V12.2501H6.55L7.91427 10.3716V14.5216H9.03572V9.42871H7.35Z" fill="white"/>
<path d="M14.3143 12.1213C14.1786 11.9213 14 11.757 13.7857 11.6499C14.0357 11.4213 14.1643 11.0999 14.15 10.7642C14.1643 10.3928 14.0071 10.0356 13.7286 9.79989C13.4143 9.54988 13.0214 9.42131 12.6214 9.44274H9.91428V14.5356H12.7286C13.2071 14.557 13.6786 14.407 14.05 14.1142C14.3786 13.8285 14.5643 13.4142 14.55 12.9784C14.55 12.6784 14.4714 12.3856 14.3071 12.1356M11.0286 10.3427H12.4C12.5714 10.3356 12.7357 10.3856 12.8714 10.4856C13.0786 10.6928 13.0857 11.0356 12.8786 11.2499C12.7571 11.3499 12.6 11.3999 12.4428 11.3927H11.0286V10.3427ZM13.1786 13.457C13 13.5856 12.7857 13.6499 12.5643 13.6427H11.0286V12.2856H12.5357C12.7643 12.2713 12.9857 12.3428 13.1714 12.4785C13.3214 12.5999 13.4 12.7856 13.3928 12.9784C13.4 13.1642 13.3214 13.3427 13.1786 13.4642" fill="white"/>
</g>
<defs>
<clipPath id="clip0_266_64737">
<rect width="24" height="24" fill="white"/>
</clipPath>
</defs>
</svg>
