<svg width="24" height="24" viewBox="0 0 24 24" fill="none" xmlns="http://www.w3.org/2000/svg">
<g clip-path="url(#clip0_266_64978)">
<path d="M0 11.997C0 12.6988 0 12.7828 0.0180045 13.3827C0.036009 14.8943 0.282071 16.3999 0.738185 17.8455C1.12828 18.9973 1.73443 20.065 2.52663 20.9888C3.48087 22.0145 4.67517 22.7883 6.0015 23.2442C7.36984 23.7121 8.85221 23.94 11.7329 24H12.2671C15.1478 23.94 16.6302 23.7121 17.9985 23.2442C19.3248 22.7883 20.5191 22.0145 21.4734 20.9888C22.2656 20.065 22.8777 19.0033 23.2618 17.8455C23.7179 16.3999 23.964 14.9003 23.982 13.3827C24 12.7888 24 12.7048 24 11.997C24 11.2892 24 11.2112 23.982 10.6173C23.964 9.09973 23.7179 7.6001 23.2618 6.15446C22.8717 5.00275 22.2656 3.93502 21.4734 3.01125C20.5191 1.9855 19.3248 1.2117 17.9985 0.755811C16.6302 0.28193 15.1478 0.059985 12.2671 0H11.7329C8.85221 0.059985 7.36984 0.287928 6.0015 0.755811C4.67517 1.2117 3.48087 1.9855 2.52663 3.01125C1.73443 3.93502 1.12228 4.99675 0.738185 6.15446C0.282071 7.5941 0.0420105 9.09973 0.0180045 10.6113C0 11.2052 0 11.2892 0 11.997Z" fill="#0B3268"/>
<path fill-rule="evenodd" clip-rule="evenodd" d="M10.8715 10.4215C12.4846 10.4215 13.7931 9.12 13.8 7.50692C13.8 7.50692 13.8 7.50692 13.8 7.5H16.5V16.4931H13.1215V12.6715H10.8715V16.5H7.5V7.5H10.8785V10.4285L10.8715 10.4215Z" fill="white"/>
</g>
<defs>
<clipPath id="clip0_266_64978">
<rect width="24" height="24" fill="white"/>
</clipPath>
</defs>
</svg>
