<svg width="56" height="56" viewBox="0 0 56 56" fill="none" xmlns="http://www.w3.org/2000/svg">
<g clip-path="url(#clip0_266_65810)">
<path d="M0 27.993C0 29.6306 0 29.8265 0.0420105 31.2262C0.084021 34.7533 0.658165 38.2664 1.72243 41.6396C2.63266 44.3269 4.04701 46.8183 5.89547 48.9738C8.12203 51.3672 10.9087 53.1727 14.0035 54.2364C17.1963 55.3282 20.6552 55.86 27.3768 56H28.6232C35.3448 55.86 38.8037 55.3282 41.9965 54.2364C45.0913 53.1727 47.878 51.3672 50.1045 48.9738C51.953 46.8183 53.3813 44.3409 54.2776 41.6396C55.3418 38.2664 55.916 34.7673 55.958 31.2262C56 29.8405 56 29.6446 56 27.993C56 26.3414 56 26.1595 55.958 24.7738C55.916 21.2327 55.3418 17.7336 54.2776 14.3604C53.3673 11.6731 51.953 9.1817 50.1045 7.02624C47.878 4.63284 45.0913 2.82729 41.9965 1.76356C38.8037 0.657836 35.3448 0.139965 28.6232 0H27.3768C20.6552 0.139965 17.1963 0.671832 14.0035 1.76356C10.9087 2.82729 8.12203 4.63284 5.89547 7.02624C4.04701 9.1817 2.61865 11.6591 1.72243 14.3604C0.658165 17.7196 0.0980245 21.2327 0.0420105 24.7598C0 26.1455 0 26.3414 0 27.993Z" fill="#F4731C"/>
<path d="M24.1641 28.3356C23.7861 24.8776 27.4121 22.1056 32.2701 22.1336C37.1281 22.1616 41.3701 25.0036 41.7481 28.4616C42.1261 31.9196 38.5001 34.6916 33.6421 34.6496C28.7841 34.6076 24.5421 31.7796 24.1641 28.3216M42.6441 29.3996C42.2101 25.1016 37.3241 21.6016 31.7241 21.5456C26.1241 21.4896 21.9521 24.9336 22.4001 29.2316C22.8481 33.5296 27.7201 37.0296 33.3201 37.0856C38.9201 37.1416 43.0781 33.6976 42.6441 29.3996Z" fill="white"/>
<path d="M34.2158 37.1699C31.6398 40.0399 27.2158 40.2779 24.3458 37.7019C21.6438 34.9439 21.6998 30.5199 24.4438 27.8319C27.0198 24.9619 31.4438 24.7239 34.3138 27.2999C37.0158 30.0579 36.9598 34.4679 34.2158 37.1699ZM24.0098 27.7339C20.8038 30.8699 20.7618 36.0079 23.8978 39.2139C27.2438 42.2099 32.3678 41.9299 35.3638 38.5979C38.5698 35.4619 38.6118 30.3239 35.4758 27.1179C32.1298 24.1219 27.0058 24.4019 24.0098 27.7339Z" fill="white"/>
<path d="M24.3045 16.9816C30.0305 14.8396 35.6865 17.0096 36.9465 21.8256C38.2065 26.6416 34.5805 32.2976 28.8545 34.4396C23.1285 36.5816 17.4725 34.4116 16.2125 29.5956C14.9525 24.7796 18.5785 19.1376 24.3045 16.9816ZM18.9845 18.8296C13.0485 23.5196 11.5365 30.3376 15.6105 34.0336C19.6845 37.7296 27.8045 36.9176 33.7405 32.2276C39.6765 27.5376 41.2025 20.7196 37.1145 17.0236C33.0265 13.3276 24.9205 14.1256 18.9845 18.8296Z" fill="white"/>
</g>
<defs>
<clipPath id="clip0_266_65810">
<rect width="56" height="56" fill="white"/>
</clipPath>
</defs>
</svg>
