<svg width="40" height="40" viewBox="0 0 40 40" fill="none" xmlns="http://www.w3.org/2000/svg">
<g clip-path="url(#clip0_266_65323)">
<path d="M0 20.005C0 21.1747 0 21.3147 0.0300075 22.3144C0.060015 24.8338 0.470118 27.3432 1.23031 29.7526C1.88047 31.6721 2.89072 33.4516 4.21104 34.9812C5.80146 36.6907 7.79196 37.9804 10.0025 38.7404C12.2831 39.53 14.7537 39.9 19.5549 40H20.4451C25.2463 39.9 27.7069 39.52 29.9975 38.7404C32.208 37.9804 34.1985 36.6907 35.7889 34.9812C37.1093 33.4416 38.1296 31.6721 38.7696 29.7526C39.53 27.3432 39.94 24.8438 39.97 22.3144C40 21.3247 40 21.1847 40 20.005C40 18.8253 40 18.6953 39.97 17.7056C39.94 15.1862 39.53 12.6768 38.7696 10.2674C38.1196 8.34792 37.1093 6.56835 35.7889 5.02874C34.1985 3.31917 32.208 2.02949 29.9975 1.26968C27.7169 0.479881 25.2463 0.0999751 20.4451 0H19.5549C14.7537 0.0999751 12.2831 0.479881 10.0025 1.25968C7.79196 2.0195 5.80146 3.30917 4.21104 5.01874C2.89072 6.55835 1.88047 8.32792 1.23031 10.2574C0.470118 12.6768 0.0700175 15.1762 0.0300075 17.7056C0 18.6953 0 18.8353 0 20.005Z" fill="#00854A"/>
<path d="M16.6053 17.6475C15.9717 17.0606 15.2017 16.5774 14.2717 16.2497C13.8056 16.084 13.0356 15.8438 12.3794 15.8438C11.8161 15.8438 11.3361 16.023 11.2121 16.5882C10.9801 17.6669 11.088 26.9257 11.1723 27.9957C11.2314 28.7844 11.5611 29.2444 12.4793 29.226C18.8815 29.1224 20.5605 21.3186 16.6053 17.6475Z" fill="white"/>
<path d="M23.9407 10.2133C23.3656 9.6804 22.6595 9.2415 21.8224 8.94565C21.3977 8.79233 20.6996 8.57422 20.1036 8.57422C19.5876 8.57422 19.1548 8.74104 19.0393 9.25336C18.8283 10.2295 18.9293 18.6358 19.0023 19.6113C19.0581 20.3234 19.3551 20.7402 20.189 20.7283C26.0032 20.6306 27.5325 13.5454 23.9407 10.2133Z" fill="white"/>
<path d="M26.5079 18.0268C25.7867 17.3584 24.897 16.8055 23.8467 16.4336C23.3097 16.2419 22.4313 15.9688 21.686 15.9688C21.04 15.9688 20.4902 16.1744 20.3495 16.8196C20.0799 18.0483 20.2098 28.6093 20.3027 29.8343C20.3747 30.7348 20.7447 31.253 21.7907 31.2379C29.0998 31.1202 31.021 22.215 26.5079 18.0268Z" fill="white"/>
</g>
<defs>
<clipPath id="clip0_266_65323">
<rect width="40" height="40" fill="white"/>
</clipPath>
</defs>
</svg>
