<svg width="32" height="32" viewBox="0 0 32 32" fill="none" xmlns="http://www.w3.org/2000/svg">
<g clip-path="url(#clip0_266_65244)">
<path d="M0 16C0 16.9421 0 17.0467 0.0224509 17.8467C0.08232 19.6187 0.269411 21.6523 0.980354 23.7981C1.48176 25.3159 2.4247 26.9533 3.36763 27.9851C4.56503 29.3009 6.21889 30.3774 8.00749 30.9906C9.83349 31.6186 11.8092 31.9251 15.6483 32H16.3592C20.2058 31.9177 22.174 31.6186 24 30.9906C25.7886 30.3774 27.435 29.3009 28.6323 27.9851C29.5754 26.9458 30.5183 25.3159 31.0197 23.7981C31.7306 21.6523 31.9251 19.6112 31.9774 17.8467C32 17.0542 32 16.9421 32 16C32 15.0579 32 14.9533 31.9774 14.1533C31.9177 12.3813 31.7306 10.3477 31.0197 8.20186C30.5183 6.68411 29.5754 5.04671 28.6323 4.01494C27.435 2.69907 25.7811 1.62243 24 1.00935C22.174 0.381309 20.1983 0.0747663 16.3592 0H15.6483C11.8017 0.0822429 9.83349 0.381309 8.00749 1.00935C6.21889 1.62243 4.57249 2.69907 3.36763 4.01494C2.4247 5.0542 1.48176 6.68411 0.980354 8.20186C0.276894 10.3477 0.08232 12.3813 0.0224509 14.1533C0 14.9458 0 15.0579 0 16Z" fill="#003CDC"/>
<path d="M6.72055 15.9301L7.23915 15.2263C6.85415 15.0411 6.46126 14.7596 6.17252 14.3816C5.88346 14.0188 5.69098 13.5743 5.69098 13.0482V12.4409H4.7276V13.063C4.7276 13.5965 4.54238 14.0707 4.24606 14.4782C3.94972 14.893 3.55683 15.219 3.14209 15.4559L3.71989 16.1302C4.05326 15.9301 4.37906 15.6781 4.64592 15.3894C4.90552 15.1152 5.1126 14.8116 5.2386 14.5225C5.54252 15.0854 6.00946 15.5448 6.72055 15.9301ZM8.61726 14.6188H9.69146V13.8409H8.61726V12.2852H7.69852V16.1967H8.61726V14.6188ZM4.7276 19.3009H8.61698V16.4636H4.7276V19.3009ZM7.6982 17.2414V18.5306H5.63878V17.2414H7.6982ZM13.477 16.0485L13.9956 15.3302C13.603 15.1301 13.2104 14.8635 12.9363 14.5076C12.6475 14.1594 12.4696 13.7298 12.4696 13.1742V12.4409H11.4913V13.189C11.4913 13.6927 11.321 14.1372 11.0468 14.5225C10.7727 14.9151 10.3652 15.2561 9.91343 15.5521L10.4836 16.2413C10.8395 16.0264 11.158 15.7449 11.4245 15.4707C11.6841 15.1966 11.8839 14.9078 11.9951 14.641C12.1135 14.8781 12.3135 15.1374 12.5728 15.3818C12.8324 15.6414 13.1509 15.8709 13.477 16.0485ZM14.7513 16.2337H15.67V12.2852H14.7513V13.5151H13.4548V14.33H14.7513V16.2337ZM15.5586 17.7749C15.5586 17.3006 15.3661 16.9005 15.0476 16.6117C14.7215 16.323 14.2697 16.1524 13.7363 16.1524C13.2028 16.1524 12.7583 16.3227 12.4398 16.6117C12.1137 16.9005 11.9285 17.3006 11.9285 17.7749C11.9285 18.271 12.1137 18.6712 12.4398 18.9602C12.7583 19.2344 13.2028 19.3972 13.7363 19.3972C14.2697 19.3972 14.7215 19.2341 15.0476 18.9602C15.3661 18.6712 15.5586 18.271 15.5586 17.7749ZM14.655 17.7749C14.655 18.2859 14.2697 18.6266 13.7363 18.6266C13.2028 18.6266 12.8324 18.2859 12.8324 17.7749C12.8324 17.2709 13.2028 16.9302 13.7363 16.9302C14.0029 16.9302 14.2251 17.0192 14.3955 17.1674C14.4777 17.2457 14.5431 17.34 14.5877 17.4444C14.6323 17.5489 14.6553 17.6613 14.655 17.7749ZM19.3445 16.108L19.8703 15.4115C19.0997 14.9373 18.6407 14.2262 18.6407 13.241V12.5372H17.7219V13.2558C17.7219 13.789 17.581 14.2335 17.3515 14.6115C17.1144 14.9965 16.781 15.3077 16.4182 15.5819L16.9957 16.2708C17.5294 15.8931 17.9885 15.3745 18.2035 14.8708C18.3146 15.1079 18.4849 15.352 18.6923 15.567C18.8844 15.7758 19.1038 15.9578 19.3445 16.108ZM21.4483 16.3078H22.3373V12.2852H21.4483V13.7966H20.8853V12.3592H19.9963V16.0264H20.8853V14.5669H21.4483V16.3078ZM22.2853 17.8636C22.2853 17.4118 22.0855 17.0192 21.7595 16.745C21.4334 16.4709 20.9667 16.3078 20.4333 16.3078C19.8925 16.3078 19.4258 16.4712 19.0997 16.745C18.7664 17.0192 18.5666 17.4118 18.5666 17.8636C18.5666 18.3378 18.7664 18.738 19.0997 19.0119C19.4258 19.2787 19.8925 19.4342 20.4333 19.4342C20.967 19.4342 21.4337 19.2787 21.7595 19.0119C22.0855 18.7377 22.2853 18.3378 22.2853 17.8636ZM21.3593 17.8636C21.3593 18.3451 20.9743 18.6563 20.4333 18.6563C19.8703 18.6563 19.4777 18.3451 19.4777 17.8636C19.4777 17.3896 19.8703 17.0711 20.4333 17.0711C20.9743 17.0711 21.3593 17.3896 21.3593 17.8636ZM27.9454 16.1894H28.8567V12.2852H27.9454V13.0928H26.6192V12.552H23.4412V15.7522H26.6192V15.271H27.9454V16.1894ZM28.7455 17.7749C28.7455 17.3006 28.5529 16.9005 28.2345 16.6117C27.9084 16.323 27.4566 16.1524 26.9231 16.1524C26.3897 16.1524 25.9451 16.3227 25.6267 16.6117C25.3006 16.9005 25.1154 17.3006 25.1154 17.7749C25.1154 18.271 25.3006 18.6712 25.6267 18.9602C25.9451 19.2344 26.3897 19.3972 26.9231 19.3972C27.4566 19.3972 27.9084 19.2341 28.2345 18.9602C28.5529 18.6712 28.7455 18.271 28.7455 17.7749ZM27.8416 17.7749C27.8416 18.2859 27.4566 18.6266 26.9228 18.6266C26.3897 18.6266 26.0192 18.2859 26.0192 17.7749C26.0192 17.2709 26.3897 16.9302 26.9231 16.9302C27.1897 16.9302 27.4119 17.0192 27.5823 17.1674C27.6645 17.2457 27.7299 17.34 27.7745 17.4444C27.8192 17.5489 27.8418 17.6613 27.8416 17.7749ZM25.7007 13.3223V14.9743H24.3524V13.3223H25.7007ZM27.9454 13.8706V14.4928H26.6192V13.8706H27.9454Z" fill="white"/>
</g>
<defs>
<clipPath id="clip0_266_65244">
<rect width="32" height="32" fill="white"/>
</clipPath>
</defs>
</svg>
