<svg width="40" height="40" viewBox="0 0 40 40" fill="none" xmlns="http://www.w3.org/2000/svg">
<g clip-path="url(#clip0_266_65410)">
<path d="M0 20C0 21.17 0 21.31 0.0300075 22.31C0.060015 24.83 0.470118 27.34 1.23031 29.75C1.88047 31.67 2.89072 33.45 4.21105 34.98C5.80145 36.69 7.79195 37.98 10.0025 38.74C12.2831 39.53 14.7537 39.9 19.5549 40H20.4451C25.2463 39.9 27.7169 39.52 29.9975 38.74C32.208 37.98 34.1985 36.69 35.7889 34.98C37.1093 33.45 38.1295 31.67 38.7697 29.75C39.5299 27.34 39.94 24.84 39.97 22.31C40 21.32 40 21.18 40 20C40 18.82 40 18.69 39.97 17.7C39.94 15.17 39.5299 12.67 38.7697 10.26C38.1195 8.34 37.1093 6.56 35.7889 5.02C34.1985 3.31 32.208 2.02 29.9975 1.26C27.7169 0.47 25.2463 0.1 20.4451 0H19.5549C14.7537 0.1 12.2831 0.48 10.0025 1.26C7.79195 2.02 5.80145 3.31 4.21105 5.02C2.89072 6.56 1.87047 8.33 1.23031 10.26C0.470118 12.66 0.0700175 15.17 0.0300075 17.69C0 18.68 0 18.82 0 20Z" fill="#1D8097"/>
<path d="M19.63 29.36H10.98V15.61C10.85 13.73 11.89 11.97 13.6 11.18C14.65 10.69 15.8 10.45 16.95 10.51V13.11C16.18 13.05 15.41 13.2 14.72 13.52C13.99 13.86 13.53 14.61 13.57 15.42V15.55V26.76H17.01V21.61H22.5V24.21H19.61V29.36H19.63Z" fill="white"/>
<path d="M22.5499 29.4902H22.5099V26.8902H22.5499C26.0199 26.8902 26.3699 24.5302 26.4099 24.0602C26.5799 22.8902 26.3199 21.7002 25.6999 20.7002L25.0299 19.9302L25.6299 19.0902C25.8699 18.6002 25.9799 18.0702 25.9699 17.5302V13.2602H22.5299V18.3702H17.0699V15.7702H19.9199V10.6602H28.5699V17.5002C28.5699 18.2702 28.4499 19.0402 28.1799 19.7702C28.8799 21.1502 29.1699 22.7102 29.0099 24.2502C28.9099 26.0502 27.4399 29.5002 22.5599 29.5002" fill="white"/>
</g>
<defs>
<clipPath id="clip0_266_65410">
<rect width="40" height="40" fill="white"/>
</clipPath>
</defs>
</svg>
