<svg width="24" height="24" viewBox="0 0 24 24" fill="none" xmlns="http://www.w3.org/2000/svg">
<g clip-path="url(#clip0_266_64838)">
<path d="M0 12C0 12.7065 0 12.785 0.0168382 13.385C0.06174 14.714 0.202058 16.2393 0.735266 17.8486C1.11132 18.9869 1.81852 20.2149 2.52572 20.9888C3.42377 21.9756 4.66416 22.7831 6.00561 23.2429C7.37511 23.7139 8.85688 23.9439 11.7362 24H12.2694C15.1544 23.9383 16.6305 23.7139 18 23.2429C19.3415 22.7831 20.5763 21.9756 21.4742 20.9888C22.1816 20.2094 22.8887 18.9869 23.2648 17.8486C23.7979 16.2393 23.9439 14.7084 23.9831 13.385C24 12.7907 24 12.7065 24 12C24 11.2935 24 11.2149 23.9831 10.6149C23.9383 9.28599 23.7979 7.76074 23.2648 6.15139C22.8887 5.01309 22.1816 3.78504 21.4742 3.01121C20.5763 2.0243 19.3358 1.21682 18 0.757009C16.6305 0.285981 15.1487 0.0560747 12.2694 0H11.7362C8.85126 0.0616821 7.37511 0.285981 6.00561 0.757009C4.66416 1.21682 3.42936 2.0243 2.52572 3.01121C1.81852 3.79065 1.11132 5.01309 0.735266 6.15139C0.207671 7.76074 0.06174 9.28599 0.0168382 10.6149C0 11.2094 0 11.2935 0 12Z" fill="#003CDC"/>
<path d="M6.35229 12.2841H5.68196V9.42878H6.35229V10.5642H7.13599V11.1323H6.35229V12.2841ZM4.179 13.9876H5.68224V13.0468H4.179V13.9876ZM3.51386 12.4787H6.35229V14.55H3.51379L3.51386 12.4787ZM3.88704 11.0619C3.79515 11.2729 3.64374 11.4944 3.45459 11.6948C3.25989 11.9054 3.02177 12.0895 2.77847 12.2354L2.35663 11.7434C2.65941 11.5702 2.94619 11.3321 3.1626 11.0293C3.37873 10.7319 3.51379 10.3859 3.51379 9.99659V9.54215H4.2168V9.9857C4.2168 10.3697 4.35726 10.694 4.56769 10.9591C4.77891 11.235 5.0652 11.4405 5.34649 11.5756L4.96791 12.0894C4.44894 11.808 4.10856 11.473 3.88704 11.0619ZM10.8471 10.9213H9.90075V10.3264H10.8471V9.42871H11.5174V12.3113H10.8471V10.9213ZM10.5875 13.0688C10.4634 12.9606 10.3012 12.8956 10.1065 12.8956C9.71702 12.8956 9.44681 13.1443 9.44681 13.5122C9.44681 13.8853 9.71702 14.1341 10.1065 14.1341C10.4958 14.1341 10.7769 13.8853 10.7769 13.5122C10.7772 13.4293 10.7605 13.3472 10.7279 13.2709C10.6953 13.1947 10.6476 13.1259 10.5875 13.0688ZM11.0632 14.3774C10.8256 14.5775 10.4957 14.6965 10.1065 14.6965C9.71702 14.6965 9.39272 14.5775 9.16031 14.3774C8.92221 14.1664 8.78734 13.8745 8.78734 13.5122C8.78734 13.1661 8.92221 12.8739 9.16031 12.6632C9.39272 12.4523 9.71702 12.3278 10.1065 12.3278C10.4958 12.3278 10.8256 12.4523 11.0632 12.6632C11.2956 12.8739 11.4364 13.1661 11.4364 13.5122C11.4364 13.8745 11.2956 14.1664 11.0632 14.3774ZM9.25759 11.6893C9.06816 11.5107 8.92221 11.3215 8.83575 11.1483C8.75477 11.343 8.60901 11.5539 8.41959 11.754C8.22489 11.9543 7.99275 12.1598 7.73288 12.3167L7.31672 11.8135C7.64648 11.5972 7.94387 11.3484 8.14412 11.0619C8.34401 10.7809 8.46846 10.4563 8.46846 10.0885V9.54207H9.1818V10.0777C9.1818 10.4833 9.31174 10.7969 9.52245 11.0511C9.72248 11.3107 10.0092 11.5054 10.2955 11.6513L9.91712 12.176C9.67922 12.0463 9.44681 11.8784 9.25759 11.6893ZM13.4244 11.4457C13.4244 11.6781 13.6082 11.8622 13.9053 11.8622C14.2081 11.8622 14.3867 11.6781 14.3867 11.4457C14.3867 11.2133 14.2081 11.0238 13.9053 11.0238C13.6082 11.0238 13.4244 11.2133 13.4244 11.4457ZM13.2352 9.4502H14.5599V10.0126H13.2352V9.4502ZM13.5807 12.7113V12.3542C13.0675 12.2408 12.7863 11.8784 12.7863 11.4457C12.7863 11.2078 12.9054 10.9754 13.1001 10.8077H12.4457V10.2723H15.3544V10.8077H14.7219C14.9164 10.9807 15.0301 11.2134 15.0301 11.4567C15.0301 11.8837 14.7705 12.2355 14.257 12.3488V12.6788C14.7164 12.6519 15.1761 12.6193 15.6298 12.5706V9.42871H16.2952V11.1374H17.052V11.7053H16.2952V13.9658H15.6298V13.1115C14.5755 13.2302 13.4945 13.3115 12.386 13.3439L12.3213 12.7382C12.7431 12.7382 13.1597 12.7274 13.5807 12.7113ZM20.9881 11.4133H20.5773V13.7766H19.9284V9.49368H20.5773V10.8454H20.9881V9.42871H21.6423V13.9604H20.9881V11.4133ZM19.1823 11.5267C19.35 11.8459 19.5932 12.0785 19.8906 12.2786L19.4905 12.7924C19.3013 12.6624 19.1012 12.4732 18.9444 12.2786C18.7769 12.084 18.6473 11.8784 18.5988 11.7107C18.4474 12.1867 18.1226 12.5706 17.7119 12.8951L17.2954 12.4028C17.62 12.1217 17.8633 11.873 18.0199 11.5485C18.1713 11.2296 18.2471 10.8401 18.2471 10.2831H17.4577V9.7207H19.6905V10.2831H18.9175C18.9175 10.8077 19.0093 11.2078 19.1823 11.5267Z" fill="white"/>
</g>
<defs>
<clipPath id="clip0_266_64838">
<rect width="24" height="24" fill="white"/>
</clipPath>
</defs>
</svg>
