<svg width="32" height="32" viewBox="0 0 32 32" fill="none" xmlns="http://www.w3.org/2000/svg">
<g clip-path="url(#clip0_266_65137)">
<path d="M0 15.996C0 16.9318 0 17.0437 0.024006 17.8435C0.048012 19.859 0.376094 21.8665 0.984246 23.7941C1.50438 25.3297 2.31258 26.7533 3.36884 27.985C4.64116 29.3527 6.23356 30.3844 8.002 30.9923C9.82646 31.6161 11.803 31.92 15.6439 32H16.3561C20.197 31.92 22.1735 31.6161 23.998 30.9923C25.7664 30.3844 27.3588 29.3527 28.6312 27.985C29.6874 26.7533 30.5036 25.3377 31.0158 23.7941C31.6239 21.8665 31.952 19.867 31.976 17.8435C32 17.0517 32 16.9398 32 15.996C32 15.0522 32 14.9483 31.976 14.1565C31.952 12.133 31.6239 10.1335 31.0158 8.20595C30.4956 6.67033 29.6874 5.24669 28.6312 4.015C27.3588 2.64734 25.7664 1.6156 23.998 1.00775C22.1735 0.375906 20.197 0.07998 16.3561 0H15.6439C11.803 0.07998 9.82646 0.383904 8.002 1.00775C6.23356 1.6156 4.64116 2.64734 3.36884 4.015C2.31258 5.24669 1.49637 6.66233 0.984246 8.20595C0.376094 10.1255 0.056014 12.133 0.024006 14.1485C0 14.9403 0 15.0522 0 15.996Z" fill="#F4731C"/>
<path d="M13.8081 16.1919C13.5921 14.2159 15.6641 12.6319 18.4401 12.6479C21.2161 12.6639 23.6401 14.2879 23.8561 16.2639C24.0721 18.2399 22.0001 19.8239 19.2241 19.7999C16.4481 19.7759 14.0241 18.1599 13.8081 16.1839M24.3681 16.7999C24.1201 14.3439 21.3281 12.3439 18.1281 12.3119C14.9281 12.2799 12.5441 14.2479 12.8001 16.7039C13.0561 19.1599 15.8401 21.1599 19.0401 21.1919C22.2401 21.2239 24.6161 19.2559 24.3681 16.7999Z" fill="white"/>
<path d="M19.5519 21.2404C18.0799 22.8804 15.5519 23.0164 13.9119 21.5444C12.3679 19.9684 12.3999 17.4404 13.9679 15.9044C15.4399 14.2644 17.9679 14.1284 19.6079 15.6004C21.1519 17.1764 21.1199 19.6964 19.5519 21.2404ZM13.7199 15.8484C11.8879 17.6404 11.8639 20.5764 13.6559 22.4084C15.5679 24.1204 18.4959 23.9604 20.2079 22.0564C22.0399 20.2644 22.0639 17.3284 20.2719 15.4964C18.3599 13.7844 15.4319 13.9444 13.7199 15.8484Z" fill="white"/>
<path d="M13.8883 9.70446C17.1603 8.48046 20.3923 9.72046 21.1123 12.4725C21.8323 15.2245 19.7603 18.4565 16.4883 19.6805C13.2163 20.9045 9.98425 19.6645 9.26425 16.9125C8.54425 14.1605 10.6163 10.9365 13.8883 9.70446ZM10.8483 10.7605C7.45625 13.4405 6.59225 17.3365 8.92025 19.4485C11.2483 21.5605 15.8883 21.0965 19.2803 18.4165C22.6723 15.7365 23.5443 11.8405 21.2083 9.72846C18.8723 7.61646 14.2403 8.07246 10.8483 10.7605Z" fill="white"/>
</g>
<defs>
<clipPath id="clip0_266_65137">
<rect width="32" height="32" fill="white"/>
</clipPath>
</defs>
</svg>
