<svg width="24" height="24" viewBox="0 0 24 24" fill="none" xmlns="http://www.w3.org/2000/svg">
<g clip-path="url(#clip0_266_64805)">
<path d="M0 12C0 12.7065 0 12.785 0.0224456 13.385C0.0617254 14.714 0.207622 16.2393 0.740706 17.8486C1.11667 18.9869 1.82371 20.2149 2.53074 20.9888C3.42857 21.9756 4.66869 22.7831 6.0042 23.2429C7.3734 23.7139 8.8548 23.9439 11.7334 24H12.2666C15.1508 23.9383 16.6266 23.7139 17.9958 23.2429C19.3369 22.7831 20.5714 21.9756 21.4749 20.9888C22.182 20.2094 22.8889 18.9869 23.265 17.8486C23.7979 16.2393 23.9439 14.7084 23.9831 13.385C24 12.7907 24 12.7065 24 12C24 11.2935 24 11.2149 23.9831 10.6149C23.9383 9.28599 23.7979 7.76074 23.265 6.15139C22.8889 5.01309 22.182 3.78504 21.4749 3.01121C20.577 2.0243 19.3369 1.21682 17.9958 0.757009C16.6266 0.285981 15.1452 0.0616821 12.2666 0H11.7334C8.84919 0.0616821 7.3734 0.285981 6.0042 0.757009C4.66307 1.21682 3.42857 2.0243 2.53074 3.01121C1.82371 3.79065 1.11667 5.01309 0.740706 6.15139C0.207622 7.76074 0.0617254 9.28599 0.0224456 10.6149C0 11.2093 0 11.2935 0 12Z" fill="#345D98"/>
<path d="M10.8706 16.2864L7.62457 11.2242C7.31681 10.7514 7.07293 9.75977 7.31681 9.28125L5.30186 12.4234C5.0928 12.7463 5.087 13.2768 5.30186 13.6111L7.59553 17.1916C7.80459 17.5087 8.28073 17.7854 8.7627 17.7854H11.8403L10.8764 16.2864H10.8706Z" fill="white"/>
<path d="M7.99631 10.9943L9.41897 13.2083C9.25057 12.8739 9.34929 12.4588 9.45962 12.2858L12.1482 8.06543H9.12283C8.5886 8.06543 8.16469 8.30183 7.93243 8.65928L7.67694 9.05134C7.43304 9.52988 7.67694 10.5158 7.98469 10.9886" fill="white"/>
<path d="M18.6924 10.3881L16.3988 6.80772C16.1897 6.49062 15.7136 6.21387 15.2316 6.21387H12.154L16.3639 12.775C16.6717 13.2478 16.9156 14.2337 16.6775 14.718L18.6983 11.5758C18.9015 11.2529 18.9189 10.7225 18.6983 10.3881" fill="white"/>
<path d="M15.9862 12.9884L14.5635 10.7744C14.7319 11.1088 14.6332 11.5239 14.5228 11.6969L11.8343 15.9173H14.8596C15.3939 15.9173 15.8178 15.6809 16.05 15.3234L16.3055 14.9314C16.5494 14.4528 16.3055 13.4669 15.992 12.9884" fill="white"/>
</g>
<defs>
<clipPath id="clip0_266_64805">
<rect width="24" height="24" fill="white"/>
</clipPath>
</defs>
</svg>
