<svg width="32" height="32" viewBox="0 0 32 32" fill="none" xmlns="http://www.w3.org/2000/svg">
<g clip-path="url(#clip0_266_65223)">
<path d="M0 16C0 16.9421 0 17.0467 0.0224508 17.8467C0.0823196 19.6187 0.26941 21.6523 0.980352 23.7981C1.48175 25.3159 2.42469 26.9533 3.36762 27.985C4.56501 29.3008 6.21889 30.3776 8.00746 30.9906C9.83345 31.6188 11.8091 31.9251 15.6482 32H16.3592C20.2057 31.9177 22.1739 31.6188 23.9999 30.9906C25.7885 30.3776 27.4349 29.3008 28.6322 27.985C29.5752 26.9458 30.5182 25.3159 31.0195 23.7981C31.7304 21.6523 31.9251 19.6112 31.9774 17.8467C32 17.0542 32 16.9421 32 16C32 15.0579 32 14.9458 31.9774 14.1533C31.9177 12.3813 31.7304 10.3477 31.0195 8.20188C30.5182 6.6841 29.5752 5.04671 28.6322 4.01496C27.4349 2.69906 25.781 1.62243 23.9999 1.00935C22.1739 0.381308 20.1983 0.0747663 16.3592 0H15.6482C11.8017 0.0822429 9.83345 0.381308 8.00746 1.00935C6.21889 1.62243 4.57249 2.69906 3.36762 4.01496C2.42469 5.0542 1.48175 6.6841 0.980352 8.20188C0.276893 10.3477 0.0823196 12.3813 0.0224508 14.1533C0 14.9458 0 15.0579 0 16Z" fill="#E78001"/>
<path d="M10.8964 11.8506C10.8579 12.0914 10.3495 15.4936 10.3032 15.8173H11.4433C11.4741 15.5764 11.9903 12.1742 12.0365 11.8506H10.8964Z" fill="white"/>
<path d="M20.2255 11.8506C20.187 12.0914 19.6786 15.4936 19.6323 15.8173H22.3054C22.3285 15.6442 22.3978 15.185 22.4363 14.9592H20.8186L20.9265 14.2291H22.3978C22.4286 14.056 22.4826 13.6495 22.5211 13.4312H21.0497L21.1576 12.7086H22.7368C22.7599 12.5355 22.8292 12.0764 22.8677 11.8581H20.2332L20.2255 11.8506Z" fill="white"/>
<path d="M7.52252 14.1159C7.52252 14.1159 8.47775 12.0234 8.55478 11.8428H9.98758C9.98758 12.1213 9.79501 15.5235 9.79501 15.8095H8.76275L8.93223 13.0321C8.93223 13.0321 7.76903 15.6289 7.69201 15.8095H6.87543L6.50569 13.0321C6.48258 13.16 6.08972 15.0117 5.88172 15.8095H4.85718C4.96503 15.4557 5.75075 12.0535 5.81238 11.8428H7.19129L7.51483 14.1159H7.52252Z" fill="white"/>
<path d="M18.2224 15.0116C18.2224 15.0116 18.2994 15.659 18.3225 15.8095H19.4164C19.3548 15.4858 18.7616 12.0761 18.7154 11.8428H17.3288C17.2518 12.0084 15.6726 15.4181 15.48 15.8095H16.5893C16.6509 15.674 16.9282 15.0116 16.9282 15.0116H18.2147H18.2224ZM17.244 14.1912L17.8988 12.7159L18.1145 14.1912H17.244Z" fill="white"/>
<path d="M13.6234 12.5958H13.8776C14.0548 12.5958 14.2473 12.6108 14.3629 12.7463C14.4476 12.8441 14.4784 12.9721 14.4553 13.1452C14.4553 13.1452 14.4168 13.4463 14.2165 13.5442C14.2165 13.5442 14.0702 13.6345 13.8314 13.642H13.3152L14.2936 15.8173H15.4028L14.5632 14.1463C15.0716 14.056 15.4645 13.913 15.5646 13.1603C15.58 13.0624 15.5877 12.9721 15.5877 12.8893C15.5877 12.6108 15.5107 12.385 15.3643 12.2194C15.087 11.9183 14.6171 11.8506 14.2704 11.8506H12.7067C12.6682 12.0914 12.1597 15.4936 12.1135 15.8098H13.1535C13.1843 15.5915 13.6311 12.5882 13.6311 12.5882" fill="white"/>
<path d="M27.143 11.4287C26.4805 14.0632 24.0924 15.5008 22.6827 16.2686L22.6211 16.1933C23.1989 15.7492 25.1709 14.3492 25.8026 12.0384L27.1352 11.4287H27.143Z" fill="white"/>
<path d="M17.5754 18.0755C17.5754 18.0755 17.6138 18.068 17.6368 18.0605C17.6138 18.0605 17.5985 18.068 17.5754 18.0755Z" fill="white"/>
<path d="M15.7571 18.4062C15.7571 18.4062 15.711 18.4063 15.688 18.4212C15.711 18.4212 15.734 18.4137 15.7571 18.4062Z" fill="white"/>
<path d="M18.0145 17.9697C17.9374 17.9923 17.8527 18.0074 17.7756 18.0225C17.8527 17.9999 17.9374 17.9848 18.0145 17.9697Z" fill="white"/>
<path d="M19.817 17.4805C19.7015 17.5181 19.5859 17.5483 19.4626 17.5859C19.5859 17.5483 19.7015 17.5106 19.817 17.4805Z" fill="white"/>
<path d="M18.2993 17.9092C18.2454 17.9241 18.1992 17.9316 18.1453 17.9466C18.1915 17.9316 18.2454 17.9241 18.2993 17.9092Z" fill="white"/>
<path d="M14.7789 18.0596L14.4784 17.9166C14.3783 17.8564 14.1549 17.736 14.1549 17.5177C14.1549 17.4123 14.2011 17.322 14.2704 17.2618C14.3629 17.1865 14.5092 17.1564 14.6633 17.1865C14.8559 17.2166 15.087 17.3371 15.3335 17.5403C15.449 17.322 15.6724 16.9155 15.7572 16.765C15.4722 16.5392 15.2026 16.4187 14.7866 16.351C14.2782 16.2832 13.7928 16.3811 13.4539 16.6295C13.1612 16.8402 12.984 17.1489 12.9378 17.5252C12.9301 17.5854 12.9224 17.6532 12.9224 17.7134C12.9224 17.9166 12.9686 18.0973 13.061 18.2478C13.6773 18.2328 14.3244 18.2027 14.9792 18.15C14.9175 18.1199 14.8559 18.0822 14.7866 18.0521" fill="white"/>
<path d="M19.3932 16.4941C19.3701 16.6597 19.2853 17.1791 19.2468 17.435C20.048 17.2167 21.0263 16.9081 21.9276 16.4941H19.3932Z" fill="white"/>
<path d="M19.8171 17.4809C19.7015 17.5185 19.586 17.5486 19.4627 17.5862C19.4396 17.5938 19.4165 17.6013 19.3857 17.6088C19.3395 17.6239 19.2933 17.6389 19.2393 17.654C19.2162 17.654 19.1854 17.669 19.1623 17.6766C19.0005 17.7217 18.8311 17.7669 18.6539 17.812C18.6231 17.8196 18.5923 17.8271 18.5537 17.8346C18.5075 17.8497 18.4536 17.8572 18.4074 17.8723C18.3689 17.8798 18.3303 17.8873 18.2995 17.9024C18.2456 17.9099 18.1994 17.925 18.1455 17.94C18.0992 17.9475 18.053 17.9626 18.0068 17.9701C17.9298 17.9927 17.8527 18.0078 17.768 18.0228C17.7218 18.0303 17.6756 18.0454 17.6293 18.0529C17.6062 18.0529 17.5908 18.0604 17.5677 18.068C17.0978 18.1733 16.6048 18.2637 16.0733 18.354C16.0656 18.354 16.0501 18.354 16.0425 18.354C15.95 18.369 15.8499 18.3841 15.7497 18.3992H15.6804C15.5803 18.4217 15.4724 18.4443 15.3723 18.4518C15.3646 18.4518 15.3569 18.4518 15.3491 18.4518C14.7868 18.5346 14.1859 18.6024 13.562 18.6551C13.4695 18.6626 13.3694 18.6701 13.2693 18.6776C13.2615 18.6776 13.2461 18.6776 13.2384 18.6776C13.146 18.6776 13.0459 18.6927 12.9457 18.7002C12.938 18.7002 12.9226 18.7002 12.9149 18.7002C12.8148 18.7002 12.7146 18.7153 12.6145 18.7153C12.6068 18.7153 12.5991 18.7153 12.5914 18.7153C12.4912 18.7153 12.3834 18.7228 12.2832 18.7303H12.2755C11.744 18.7529 11.2048 18.768 10.6424 18.768H10.5962C10.4729 18.768 10.3497 18.768 10.2187 18.768C10.1956 18.768 10.1648 18.768 10.1417 18.768C9.6872 18.768 9.225 18.7454 8.7474 18.7228H8.73971C8.02328 18.6852 7.27606 18.625 6.51343 18.5422L7.39931 17.7518C7.39931 17.7518 7.91546 17.8948 8.62414 18.0228C8.4932 17.255 8.36994 16.5851 8.35454 16.4873H6.96794C6.8832 16.6529 5.30403 20.0626 5.11914 20.454H6.22843C6.29005 20.3185 6.6598 19.468 6.6598 19.468H7.81531C7.81531 19.468 7.93086 20.296 7.95397 20.454H9.04783C9.02471 20.3261 8.91688 19.7314 8.79363 19.0314C9.57166 19.0766 10.3574 19.0841 11.0815 19.069C11.12 19.1293 11.1354 19.1895 11.1354 19.2572C11.1354 19.2798 11.1354 19.3024 11.1354 19.3325C11.12 19.4228 11.0738 19.4981 10.9968 19.5433C10.8427 19.6411 10.627 19.6185 10.4807 19.596C10.1263 19.5357 9.84897 19.2798 9.61788 19.069C9.47923 19.2873 9.1788 19.754 9.07865 19.9046C9.49463 20.2658 9.94911 20.4917 10.4267 20.5519C10.912 20.6196 11.3897 20.5142 11.744 20.2658C12.0521 20.0476 12.2447 19.7314 12.3063 19.34C12.3217 19.2271 12.3295 19.1218 12.3295 19.0239C13.1075 18.9938 13.7623 18.9486 14.1783 18.911C14.3169 19.0088 14.3862 19.1218 14.3862 19.2497C14.3862 19.2723 14.3862 19.2949 14.3862 19.325C14.3708 19.4153 14.3246 19.4906 14.2476 19.5357C14.0935 19.6336 13.8778 19.611 13.7315 19.5884C13.3771 19.5282 13.0998 19.2723 12.8687 19.0615C12.73 19.2798 12.4296 19.7465 12.3295 19.897C12.7454 20.2583 13.1999 20.4841 13.6775 20.5444C14.1629 20.6121 14.6405 20.5067 14.9948 20.2583C15.3029 20.04 15.5032 19.7239 15.5649 19.3325C15.6034 19.1142 15.5957 18.926 15.5417 18.7529C15.7189 18.7303 15.8884 18.7002 16.0501 18.6776C15.9269 19.5132 15.8113 20.2884 15.7883 20.4314H18.4613C18.4844 20.2583 18.5537 19.7992 18.5923 19.5734H16.9669L17.0747 18.8432H18.546C18.5691 18.6927 18.6231 18.3465 18.6539 18.1206C18.8542 18.0604 18.9543 18.0228 18.9543 18.0228C18.9543 18.0228 19.455 17.8798 20.0944 17.654C20.002 18.2712 19.7169 20.168 19.6784 20.439H20.8339C20.8647 20.2056 21.2807 17.4583 21.2807 17.4583H22.1204C22.1435 17.2852 22.2282 16.7432 22.259 16.4948C21.8277 16.7282 21.0034 17.0894 19.8325 17.4583" fill="white"/>
<path d="M11.8903 18.2553C11.7902 18.1801 11.6746 18.1123 11.536 18.0596L11.2355 17.9166H11.2278C11.1277 17.8564 10.9043 17.736 10.9043 17.5177C10.9043 17.4123 10.9428 17.322 11.0198 17.2618C11.1123 17.1865 11.2586 17.1564 11.4127 17.1865C11.613 17.2166 11.8364 17.3371 12.0829 17.5403C12.1984 17.322 12.4218 16.9155 12.5066 16.765C12.2216 16.5392 11.9519 16.4187 11.536 16.351C11.0275 16.2832 10.5422 16.3811 10.2033 16.6295C9.91056 16.8403 9.73339 17.1489 9.68716 17.5252C9.67944 17.5854 9.67944 17.6532 9.67944 17.7134C9.67944 17.8865 9.71027 18.0446 9.7719 18.1801C9.79502 18.1801 9.8181 18.1801 9.84121 18.1801C10.3574 18.2177 11.066 18.2478 11.8826 18.2553" fill="white"/>
<path d="M17.2826 17.3525H18.8617C18.8925 17.1794 18.9542 16.7202 18.9927 16.502H16.3659C16.3505 16.6073 16.2503 17.2772 16.1348 18.045C16.4968 17.9998 16.8589 17.9472 17.2132 17.8944L17.2903 17.36L17.2826 17.3525Z" fill="white"/>
</g>
<defs>
<clipPath id="clip0_266_65223">
<rect width="32" height="32" fill="white"/>
</clipPath>
</defs>
</svg>
