<svg width="56" height="56" viewBox="0 0 56 56" fill="none" xmlns="http://www.w3.org/2000/svg">
<g clip-path="url(#clip0_266_65705)">
<path d="M0 28C0 29.6486 0 29.8318 0.039289 31.2318C0.14406 34.3327 0.471469 37.8916 1.71562 41.6467C2.59308 44.3028 4.24322 47.1682 5.89335 48.9739C7.9888 51.2765 10.883 53.1605 14.0131 54.2335C17.2086 55.3325 20.666 55.869 27.3845 56H28.6287C35.3601 55.856 38.8045 55.3325 42 54.2335C45.1301 53.1605 48.0112 51.2765 50.1065 48.9739C51.757 47.1552 53.407 44.3028 54.2845 41.6467C55.5285 37.8916 55.869 34.3196 55.9605 31.2318C56 29.8449 56 29.6486 56 28C56 26.3514 56 26.1682 55.9605 24.7682C55.856 21.6673 55.5285 18.1084 54.2845 14.3532C53.407 11.6972 51.757 8.83175 50.1065 7.02615C48.0112 4.72337 45.117 2.83925 42 1.76636C38.8045 0.66729 35.347 0.130841 28.6287 0H27.3845C20.653 0.143925 17.2086 0.66729 14.0131 1.76636C10.883 2.83925 8.00185 4.72337 5.89335 7.02615C4.24322 8.84485 2.59308 11.6972 1.71562 14.3532C0.484565 18.1084 0.14406 21.6673 0.039289 24.7682C0 26.1551 0 26.3514 0 28Z" fill="#009DAD"/>
<mask id="mask0_266_65705" style="mask-type:luminance" maskUnits="userSpaceOnUse" x="7" y="24" width="42" height="9">
<path d="M49 24H7.5V32.5H49V24Z" fill="white"/>
</mask>
<g mask="url(#mask0_266_65705)">
<path d="M17.8661 25.6133C16.4916 25.6133 15.3926 26.727 15.3926 28.0888C15.3926 28.2191 15.4464 28.3494 15.5414 28.4425C15.6364 28.5355 15.7663 28.5883 15.9025 28.5883H19.833C19.966 28.5883 20.099 28.5355 20.194 28.4425C20.2891 28.3494 20.3429 28.2222 20.3429 28.0888C20.3429 26.7239 19.2439 25.6133 17.8693 25.6133M16.4947 27.5894C16.6214 27.0279 17.239 26.575 17.8661 26.5719C18.4933 26.5719 19.0348 27.0093 19.2376 27.5894H16.4947Z" fill="#FDC500"/>
<path d="M19.9059 28.9761C19.7032 28.8303 19.339 28.8706 19.1933 29.0599C18.8829 29.4662 18.4079 29.7051 17.8663 29.7051C17.3247 29.7051 16.8464 29.4662 16.5392 29.0599C16.3967 28.8706 16.0293 28.8272 15.8266 28.9761C15.6017 29.1405 15.5542 29.4693 15.7221 29.6927C16.2098 30.338 16.9889 30.7599 17.8663 30.7599C18.7436 30.7599 19.5259 30.338 20.0105 29.6927C20.1783 29.4724 20.1308 29.1405 19.9059 28.9761Z" fill="#FDC500"/>
<path d="M10.4264 24.5928C10.021 24.5928 9.69165 24.9154 9.69165 25.3125C9.69165 25.7095 10.021 26.0322 10.4264 26.0353C10.835 26.0353 11.1613 25.7126 11.1613 25.3125C11.1613 24.9123 10.8318 24.5928 10.4264 24.5928Z" fill="white"/>
<path d="M26.3765 28.1883C26.3765 27.4748 26.0883 26.8327 25.6164 26.3767C25.1445 25.9175 24.492 25.6476 23.7762 25.6445C23.7762 25.6445 23.7572 25.6445 23.7541 25.6445C22.9306 25.6445 22.275 26.1223 22.2782 26.1347C22.2465 25.8989 21.9868 25.688 21.7207 25.6849C21.4072 25.688 21.1633 25.9299 21.157 26.2278V31.9513C21.1601 32.2553 21.4072 32.4973 21.7112 32.5004C22.0248 32.4973 22.2718 32.2553 22.275 31.9544V30.2513C22.7216 30.608 23.184 30.7476 23.7319 30.7538H23.7667C24.4857 30.7538 25.1413 30.484 25.6164 30.0248C26.082 29.5719 26.3702 28.936 26.3765 28.2287V28.1883ZM23.7667 29.6805C22.9306 29.6712 22.2845 29.0725 22.275 28.2007C22.2845 27.3321 22.9306 26.7303 23.7667 26.721C24.6251 26.7334 25.2427 27.3135 25.2553 28.2007C25.2427 29.0849 24.6251 29.665 23.7636 29.6774" fill="white"/>
<path d="M39.1437 26.3084C38.7224 25.8958 38.1333 25.6445 37.4777 25.6445C37.4777 25.6445 37.4619 25.6445 37.4587 25.6445C36.8094 25.6445 36.2203 25.8958 35.8023 26.3084C35.381 26.721 35.1277 27.2949 35.1277 27.9215V30.1737C35.1308 30.4778 35.3779 30.7166 35.6851 30.7228C35.9986 30.7197 36.2457 30.4778 36.2489 30.1768V27.9153C36.2647 27.2298 36.7271 26.7489 37.4777 26.7334C38.222 26.7458 38.6876 27.2298 38.7003 27.9184V30.1768C38.7034 30.4809 38.9505 30.7197 39.2577 30.7259C39.5713 30.7228 39.8183 30.4809 39.8215 30.183V27.9278C39.8215 27.3011 39.5713 26.7272 39.15 26.3146" fill="white"/>
<path d="M33.5788 26.3951C33.5788 26.3951 33.3856 26.2183 33.3824 26.2214C32.9358 25.8615 32.3562 25.6475 31.7164 25.6475C31.7164 25.6475 31.7006 25.6475 31.6974 25.6475C30.9658 25.6475 30.307 25.9329 29.8414 26.3982C29.3759 26.8604 29.1003 27.5026 29.1003 28.2006V28.2068C29.1003 28.9048 29.3759 29.5469 29.8446 30.0123C30.307 30.4745 30.9658 30.7599 31.7006 30.763H31.7703C31.7703 30.763 32.6476 30.7413 33.2019 30.2325L33.2209 30.307C33.281 30.549 33.4964 30.7227 33.7593 30.7258C34.0728 30.7227 34.3199 30.4807 34.3231 30.1798V28.1758C34.3167 27.4871 34.0412 26.8573 33.5819 26.3982M31.7101 29.6803C30.8391 29.671 30.231 29.063 30.2183 28.2006C30.231 27.3382 30.8391 26.7333 31.7101 26.724C32.5811 26.7333 33.1892 27.3413 33.2019 28.2037C33.1892 29.063 32.5843 29.671 31.7101 29.6803Z" fill="white"/>
<path d="M8.6212 24.5712C8.6212 24.2703 8.3678 24.0283 8.0606 24.0283C7.7534 24.0283 7.50635 24.2703 7.5 24.5681V30.1769C7.5 30.4778 7.7534 30.7198 8.0606 30.7198C8.3678 30.7198 8.61485 30.4778 8.6212 30.18V24.5712Z" fill="white"/>
<path d="M28.2991 24.5712C28.2991 24.2703 28.0458 24.0283 27.7386 24.0283C27.4313 24.0283 27.1843 24.2703 27.178 24.5681V30.1769C27.178 30.4778 27.4313 30.7198 27.7386 30.7198C28.0458 30.7198 28.2928 30.4778 28.2991 30.18V24.5712Z" fill="white"/>
<path d="M10.984 27.1923C10.984 26.8914 10.7306 26.6494 10.4234 26.6494C10.1162 26.6494 9.86917 26.8914 9.86597 27.1892V30.1766C9.86597 30.4775 10.1194 30.7195 10.4266 30.7195C10.7338 30.7195 10.9809 30.4775 10.9872 30.1797C10.9872 30.1766 10.9872 27.1923 10.9872 27.1923" fill="white"/>
<path d="M48.1765 30.7194C48.1765 30.7194 48.2051 30.7194 48.2177 30.7194C48.5154 30.7194 48.7657 30.496 48.7878 30.2013C48.81 29.891 48.5915 29.6491 48.2589 29.6026C47.7268 29.4661 47.7711 28.9387 47.7711 28.7309V27.1332H48.4268C48.7435 27.1332 49 26.882 49 26.5748C49 26.2677 48.7435 26.0164 48.4268 26.0164H47.7711V24.5584C47.7711 24.2482 47.5146 24 47.1979 24C46.8812 24 46.6246 24.2513 46.6246 24.5584V26.0102H46.3206C46.0038 26.0102 45.7505 26.2615 45.7505 26.5686C45.7505 26.8757 46.007 27.127 46.3206 27.127H46.6246V29.0907C46.6246 29.2737 46.7418 30.7132 48.1702 30.7132" fill="white"/>
<path d="M14.395 26.0136C14.7117 26.0136 14.9651 26.2649 14.9651 26.572C14.9651 26.8791 14.7085 27.1304 14.395 27.1304H13.7204V30.1581C13.7204 30.4683 13.4638 30.7196 13.1503 30.7196C12.8367 30.7196 12.577 30.4683 12.577 30.1581V27.1304H12.273C11.9562 27.1304 11.7029 26.8791 11.7029 26.572C11.7029 26.2649 11.9594 26.0136 12.273 26.0136H12.577C12.5865 25.8554 12.5707 25.0984 12.9381 24.6703C13.0806 24.5059 13.2326 24.3353 13.429 24.2298C13.695 24.0871 13.9864 24.0282 14.3031 24.0034C14.6199 23.9816 14.8922 24.2112 14.9144 24.5214C14.9366 24.8285 14.7022 25.0984 14.3855 25.1201C14.1669 25.1357 13.9357 25.2939 13.8534 25.449C13.7996 25.5513 13.7204 25.7034 13.7204 26.0136H14.395Z" fill="white"/>
<path d="M43.0139 25.6133C41.6393 25.6133 40.5403 26.727 40.5403 28.0888C40.5403 28.2191 40.5941 28.3494 40.6891 28.4425C40.7841 28.5355 40.914 28.5883 41.0502 28.5883H44.9807C45.1137 28.5883 45.2467 28.5355 45.3418 28.4425C45.4368 28.3494 45.4906 28.2222 45.4906 28.0888C45.4906 26.7239 44.3916 25.6133 43.017 25.6133M41.6424 27.5894C41.7691 27.0279 42.3867 26.575 43.0139 26.5719C43.641 26.5719 44.1826 27.0093 44.3853 27.5894H41.6424Z" fill="#FDC500"/>
<path d="M45.0537 28.9761C44.851 28.8303 44.4868 28.8706 44.3411 29.0599C44.0307 29.4662 43.5556 29.7051 43.014 29.7051C42.4724 29.7051 41.9942 29.4662 41.687 29.0599C41.5444 28.8706 41.177 28.8272 40.9743 28.9761C40.7495 29.1405 40.7019 29.4693 40.8698 29.6927C41.3576 30.338 42.1367 30.7599 43.014 30.7599C43.8913 30.7599 44.6736 30.338 45.1582 29.6927C45.3261 29.4724 45.2786 29.1405 45.0537 28.9761Z" fill="#FDC500"/>
</g>
</g>
<defs>
<clipPath id="clip0_266_65705">
<rect width="56" height="56" fill="white"/>
</clipPath>
</defs>
</svg>
