<svg width="24" height="24" viewBox="0 0 24 24" fill="none" xmlns="http://www.w3.org/2000/svg">
<g clip-path="url(#clip0_266_64970)">
<path d="M0 11.997C0 12.6988 0 12.7828 0.0180045 13.3827C0.036009 14.8943 0.282071 16.3999 0.738185 17.8455C1.12828 18.9973 1.73443 20.065 2.52663 20.9888C3.48087 22.0145 4.67517 22.7883 6.0015 23.2442C7.36984 23.7121 8.85221 23.94 11.7329 24H12.2671C15.1478 23.94 16.6302 23.7121 17.9985 23.2442C19.3248 22.7883 20.5191 22.0145 21.4734 20.9888C22.2656 20.065 22.8777 19.0033 23.2618 17.8455C23.7179 16.3999 23.964 14.9003 23.982 13.3827C24 12.7888 24 12.7048 24 11.997C24 11.2892 24 11.2112 23.982 10.6173C23.964 9.09973 23.7179 7.6001 23.2618 6.15446C22.8717 5.00275 22.2656 3.93502 21.4734 3.01125C20.5191 1.9855 19.3248 1.2117 17.9985 0.755811C16.6302 0.28193 15.1478 0.059985 12.2671 0H11.7329C8.85221 0.059985 7.36984 0.287928 6.0015 0.755811C4.67517 1.2117 3.48087 1.9855 2.52663 3.01125C1.73443 3.93502 1.12228 4.99675 0.738185 6.15446C0.282071 7.5941 0.0420105 9.09973 0.0180045 10.6113C0 11.2052 0 11.2892 0 11.997Z" fill="#F4731C"/>
<path d="M10.3561 12.1437C10.1941 10.6617 11.7481 9.47369 13.8301 9.48569C15.9121 9.49769 17.7301 10.7157 17.8921 12.1977C18.0541 13.6797 16.5001 14.8677 14.4181 14.8497C12.3361 14.8317 10.5181 13.6197 10.3561 12.1377M18.2761 12.5997C18.0901 10.7577 15.9961 9.25769 13.5961 9.23369C11.1961 9.20969 9.40806 10.6857 9.60006 12.5277C9.79206 14.3697 11.8801 15.8697 14.2801 15.8937C16.6801 15.9177 18.4621 14.4417 18.2761 12.5997Z" fill="white"/>
<path d="M14.664 15.9295C13.56 17.1595 11.664 17.2615 10.434 16.1575C9.27598 14.9755 9.29998 13.0795 10.476 11.9275C11.58 10.6975 13.476 10.5955 14.706 11.6995C15.864 12.8815 15.84 14.7715 14.664 15.9295ZM10.29 11.8855C8.91598 13.2295 8.89798 15.4315 10.242 16.8055C11.676 18.0895 13.872 17.9695 15.156 16.5415C16.53 15.1975 16.548 12.9955 15.204 11.6215C13.77 10.3375 11.574 10.4575 10.29 11.8855Z" fill="white"/>
<path d="M10.4162 7.2781C12.8702 6.3601 15.2942 7.2901 15.8342 9.3541C16.3742 11.4181 14.8202 13.8421 12.3662 14.7601C9.91216 15.6781 7.48816 14.7481 6.94816 12.6841C6.40816 10.6201 7.96216 8.2021 10.4162 7.2781ZM8.13616 8.0701C5.59216 10.0801 4.94416 13.0021 6.69016 14.5861C8.43616 16.1701 11.9162 15.8221 14.4602 13.8121C17.0042 11.8021 17.6582 8.8801 15.9062 7.2961C14.1542 5.7121 10.6802 6.0541 8.13616 8.0701Z" fill="white"/>
</g>
<defs>
<clipPath id="clip0_266_64970">
<rect width="24" height="24" fill="white"/>
</clipPath>
</defs>
</svg>
