<svg width="40" height="40" viewBox="0 0 40 40" fill="none" xmlns="http://www.w3.org/2000/svg">
<g clip-path="url(#clip0_266_65478)">
<path d="M0 20C0 21.1776 0 21.3084 0.0280636 22.3084C0.1029 24.5234 0.336763 27.0654 1.22544 29.7476C1.8522 31.6449 3.03087 33.6916 4.20954 34.9813C5.70629 36.6261 7.77361 37.9718 10.0094 38.7382C12.2919 39.5232 14.7615 39.9064 19.5603 40H20.449C25.2573 39.8971 27.7175 39.5232 30 38.7382C32.2358 37.9718 34.2938 36.6261 35.7904 34.9813C36.9693 33.6823 38.1479 31.6449 38.7746 29.7476C39.6632 27.0654 39.9064 24.514 39.9718 22.3084C40 21.3178 40 21.1776 40 20C40 18.8224 40 18.6916 39.9718 17.6916C39.8971 15.4766 39.6632 12.9346 38.7746 10.2523C38.1479 8.35514 36.9693 6.30839 35.7904 5.01868C34.2938 3.37383 32.2264 2.02804 30 1.26168C27.7175 0.476636 25.2479 0.0934579 20.449 0H19.5603C14.7521 0.102804 12.2919 0.476636 10.0094 1.26168C7.77361 2.02804 5.71561 3.37383 4.20954 5.01868C3.03087 6.31775 1.8522 8.35514 1.22544 10.2523C0.346118 12.9346 0.1029 15.4766 0.0280636 17.6916C0 18.6823 0 18.8224 0 20Z" fill="#E82118"/>
<mask id="mask0_266_65478" style="mask-type:luminance" maskUnits="userSpaceOnUse" x="4" y="15" width="32" height="9">
<path d="M35.3571 15H4.64282V23.873H35.3571V15Z" fill="white"/>
</mask>
<g mask="url(#mask0_266_65478)">
<path d="M11.2389 17.8899C10.9013 17.8675 10.5639 17.9346 10.2606 18.0843C9.95729 18.2341 9.69882 18.4612 9.51143 18.7428C9.34557 18.46 9.10311 18.2298 8.812 18.0789C8.52093 17.928 8.19311 17.8625 7.86636 17.8899C7.55604 17.8845 7.24893 17.9531 6.9705 18.0902C6.69204 18.2273 6.45032 18.4287 6.26532 18.678V18.055H4.64282V23.4915H6.34472V20.3682C6.33829 20.2511 6.35511 20.134 6.39414 20.0234C6.43322 19.9128 6.49375 19.8111 6.57225 19.724C6.65079 19.637 6.74572 19.5662 6.85164 19.516C6.95761 19.4658 7.07246 19.437 7.18957 19.4312C7.21389 19.43 7.23825 19.43 7.26257 19.4312C7.48407 19.4152 7.70289 19.4875 7.87136 19.6322C8.03986 19.7769 8.14425 19.9823 8.16189 20.2037C8.16454 20.2526 8.16322 20.3016 8.15786 20.3503V23.5008H9.83822V20.3618C9.83332 20.2449 9.85161 20.1281 9.89193 20.0181C9.93222 19.9082 9.99375 19.8073 10.0731 19.7212C10.1524 19.6351 10.248 19.5655 10.3543 19.5163C10.4605 19.4671 10.5754 19.4394 10.6924 19.4347C10.7173 19.4347 10.7428 19.4347 10.7683 19.4347C10.8899 19.4255 11.0119 19.4432 11.1258 19.4866C11.2397 19.53 11.3425 19.5981 11.4271 19.6859C11.5116 19.7737 11.5757 19.8791 11.6148 19.9946C11.6539 20.11 11.667 20.2326 11.6531 20.3537V23.5043H13.2982V19.9823C13.3214 19.7311 13.2946 19.4777 13.2194 19.2368C13.1441 18.996 13.022 18.7724 12.86 18.579C12.6979 18.3856 12.4992 18.2261 12.2753 18.1098C12.0513 17.9935 11.8066 17.9227 11.5552 17.9015C11.4502 17.8892 11.3445 17.8853 11.2389 17.8899Z" fill="white"/>
<path d="M21.7121 18.787V18.0499H20.0647V23.4864H21.7666V21.1106C21.7666 20.0281 22.3831 19.6347 23.0657 19.6347C23.2443 19.6333 23.4224 19.6516 23.5971 19.6892V18.047C23.4507 18.0094 23.3002 17.9911 23.1492 17.9925C22.8598 17.9807 22.5728 18.0486 22.3194 18.1887C22.066 18.3287 21.856 18.5357 21.7121 18.787Z" fill="white"/>
<path d="M25.8865 18.0537H24.1858V23.4902H25.8865V18.0537Z" fill="white"/>
<path d="M28.9656 16.4639H27.4428V17.1633C27.4537 17.2687 27.4437 17.3752 27.4133 17.4766C27.3828 17.5781 27.3327 17.6725 27.2656 17.7546C27.1986 17.8366 27.116 17.9045 27.0226 17.9545C26.9292 18.0045 26.8268 18.0355 26.7214 18.0458C26.6746 18.0497 26.6275 18.0497 26.5806 18.0458H26.3019V19.5008H27.287V21.8308C27.2745 22.0495 27.3053 22.2684 27.3778 22.4751C27.4502 22.6818 27.5628 22.8722 27.709 23.0353C27.8551 23.1983 28.0321 23.331 28.2296 23.4255C28.4272 23.52 28.6415 23.5745 28.8602 23.586C28.9567 23.5929 29.0537 23.5912 29.1499 23.5808C29.4525 23.5953 29.7546 23.5431 30.0347 23.4278V22.0493C29.8877 22.0829 29.7376 22.1012 29.5868 22.1038C29.2177 22.1038 28.9703 21.9832 28.9703 21.5353V19.5014H30.0568V18.0516H28.9656V16.4639Z" fill="white"/>
<path d="M25.0253 15C24.7339 15.0016 24.4549 15.1187 24.2496 15.3257C24.0444 15.5326 23.9296 15.8125 23.9304 16.104C23.9312 16.3955 24.0476 16.6747 24.254 16.8805C24.4604 17.0864 24.7399 17.2019 25.0314 17.2019C25.3229 17.2019 25.6024 17.0864 25.8088 16.8805C26.0152 16.6747 26.1315 16.3955 26.1323 16.104C26.1331 15.8125 26.0184 15.5326 25.8131 15.3257C25.6079 15.1187 25.329 15.0016 25.0375 15H25.0253Z" fill="white"/>
<path d="M16.6608 17.8549C15.8938 17.8804 15.1678 18.2071 14.6402 18.7644C14.1126 19.3216 13.8259 20.0643 13.8423 20.8315C13.8587 21.5986 14.1769 22.3284 14.7278 22.8626C15.2787 23.3967 16.018 23.6922 16.7853 23.6849C17.2967 23.7188 17.8065 23.599 18.2492 23.3409C18.6919 23.0827 19.0472 22.698 19.2695 22.2362L17.8626 21.7147C17.7575 21.8969 17.6025 22.0452 17.4158 22.142C17.2291 22.2389 17.0186 22.2802 16.8091 22.2611C16.5004 22.2814 16.1957 22.1826 15.9577 21.985C15.7197 21.7875 15.5665 21.5061 15.5297 21.199H19.4462C19.4713 21.0263 19.4829 20.852 19.4811 20.6775C19.5131 20.338 19.4776 19.9954 19.3766 19.6697C19.2757 19.3439 19.1114 19.0413 18.893 18.7793C18.6747 18.5174 18.4067 18.3012 18.1044 18.1432C17.8022 17.9852 17.4716 17.8887 17.1319 17.859C16.9752 17.8441 16.8176 17.8427 16.6608 17.8549ZM15.5598 20.1114C15.5941 19.8434 15.7291 19.5985 15.9373 19.4263C16.1455 19.2541 16.4114 19.1676 16.6811 19.1842C16.9438 19.1497 17.2094 19.2205 17.4202 19.381C17.6309 19.5415 17.7698 19.7788 17.8064 20.0412C17.8064 20.0644 17.8116 20.0893 17.8128 20.1137L15.5598 20.1114Z" fill="white"/>
<path d="M32.7709 22.0344L35.3124 19.4199V18.0518H30.7567V19.5068H33.1098L30.6895 22.0228V23.4883H35.357V22.0332L32.7709 22.0344Z" fill="white"/>
</g>
</g>
<defs>
<clipPath id="clip0_266_65478">
<rect width="40" height="40" fill="white"/>
</clipPath>
</defs>
</svg>
