<svg width="40" height="40" viewBox="0 0 40 40" fill="none" xmlns="http://www.w3.org/2000/svg">
<g clip-path="url(#clip0_266_65524)">
<path d="M0 20C0 21.1776 0 21.3084 0.0280636 22.3084C0.1029 24.5234 0.336763 27.0654 1.22544 29.7476C1.8522 31.6449 3.03087 33.6916 4.20954 34.9813C5.70629 36.6261 7.77361 37.9718 10.0094 38.7382C12.2919 39.5232 14.7615 39.9064 19.5603 40H20.449C25.2573 39.8971 27.7175 39.5232 30 38.7382C32.2358 37.9718 34.2938 36.6261 35.7904 34.9813C36.9693 33.6823 38.1479 31.6449 38.7746 29.7476C39.6632 27.0654 39.9064 24.514 39.9718 22.3084C40 21.3178 40 21.1776 40 20C40 18.8224 40 18.6916 39.9718 17.6916C39.8971 15.4766 39.6632 12.9346 38.7746 10.2523C38.1479 8.35514 36.9693 6.30839 35.7904 5.01868C34.2938 3.37383 32.2264 2.02804 30 1.26168C27.7175 0.476636 25.2479 0.0934579 20.449 0H19.5603C14.7521 0.102804 12.2919 0.476636 10.0094 1.26168C7.77361 2.02804 5.71561 3.37383 4.20954 5.01868C3.03087 6.31775 1.8522 8.35514 1.22544 10.2523C0.346118 12.9346 0.1029 15.4766 0.0280636 17.6916C0 18.6823 0 18.8224 0 20Z" fill="#003CDC"/>
<path d="M8.40081 19.9136L9.04906 19.0339C8.56781 18.8024 8.0767 18.4505 7.71577 17.978C7.35445 17.5245 7.11384 16.9689 7.11384 16.3112V15.5521H5.90963V16.3298C5.90963 16.9966 5.67809 17.5894 5.3077 18.0987C4.93727 18.6172 4.44616 19.0248 3.92773 19.3208L4.64998 20.1637C5.0667 19.9136 5.47395 19.5986 5.80752 19.2377C6.13202 18.895 6.39088 18.5155 6.54838 18.1541C6.92827 18.8578 7.51195 19.432 8.40081 19.9136ZM10.7717 18.2745H12.1144V17.3021H10.7717V15.3574H9.62327V20.2469H10.7717V18.2745ZM5.90963 24.1271H10.7713V20.5804H5.90963V24.1271ZM9.62288 21.5528V23.1642H7.04859V21.5528H9.62288ZM16.8464 20.0616L17.4946 19.1637C17.0039 18.9136 16.5132 18.5804 16.1704 18.1355C15.8095 17.7002 15.5871 17.1632 15.5871 16.4687V15.5521H14.3643V16.4873C14.3643 17.1169 14.1514 17.6725 13.8087 18.1541C13.4659 18.6449 12.9566 19.0711 12.3919 19.4411L13.1047 20.3026C13.5494 20.0339 13.9476 19.6821 14.2808 19.3394C14.6053 18.9967 14.855 18.6357 14.9939 18.3022C15.1419 18.5986 15.3921 18.9227 15.7162 19.2282C16.0407 19.5527 16.4388 19.8396 16.8464 20.0616ZM18.4392 20.2931H19.5877V15.3574H18.4392V16.8949H16.8187V17.9135H18.4392V20.2931ZM19.4484 22.2196C19.4484 21.6268 19.2078 21.1266 18.8097 20.7656C18.4021 20.4047 17.8373 20.1914 17.1705 20.1914C16.5037 20.1914 15.9481 20.4044 15.5499 20.7656C15.1423 21.1266 14.9108 21.6268 14.9108 22.2196C14.9108 22.8398 15.1423 23.34 15.5499 23.7013C15.9481 24.044 16.5037 24.2474 17.1705 24.2474C17.8373 24.2474 18.4021 24.0436 18.8097 23.7013C19.2078 23.34 19.4484 22.8398 19.4484 22.2196ZM18.3189 22.2196C18.3189 22.8583 17.8373 23.2842 17.1705 23.2842C16.5037 23.2842 16.0407 22.8583 16.0407 22.2196C16.0407 21.5896 16.5037 21.1638 17.1705 21.1638C17.5037 21.1638 17.7815 21.275 17.9944 21.4602C18.0972 21.5581 18.179 21.676 18.2348 21.8065C18.2906 21.9371 18.3192 22.0776 18.3189 22.2196ZM24.1807 20.136L24.838 19.2654C23.8748 18.6726 23.301 17.7837 23.301 16.5522V15.6724H22.1525V16.5707C22.1525 17.2372 21.9764 17.7929 21.6895 18.2654C21.3931 18.7466 20.9764 19.1356 20.5228 19.4783L21.2447 20.3395C21.9119 19.8673 22.4857 19.2191 22.7544 18.5895C22.8933 18.8859 23.1063 19.191 23.3655 19.4597C23.6057 19.7207 23.8798 19.9482 24.1807 20.136ZM26.8104 20.3857H27.9217V15.3574H26.8104V17.2467H26.1068V15.45H24.9955V20.0339H26.1068V18.2096H26.8104V20.3857ZM27.8568 22.3304C27.8568 21.7657 27.6071 21.275 27.1994 20.9322C26.7918 20.5896 26.2085 20.3857 25.5417 20.3857C24.8657 20.3857 24.2824 20.5899 23.8748 20.9322C23.4581 21.275 23.2083 21.7657 23.2083 22.3304C23.2083 22.9232 23.4581 23.4235 23.8748 23.7658C24.2824 24.0994 24.8657 24.2937 25.5417 24.2937C26.2089 24.2937 26.7922 24.0994 27.1994 23.7658C27.6071 23.4231 27.8568 22.9232 27.8568 22.3304ZM26.6992 22.3304C26.6992 22.9323 26.218 23.3214 25.5417 23.3214C24.838 23.3214 24.3473 22.9323 24.3473 22.3304C24.3473 21.738 24.838 21.3399 25.5417 21.3399C26.218 21.3399 26.6992 21.738 26.6992 22.3304ZM34.9319 20.2377H36.0709V15.3574H34.9319V16.367H33.2741V15.691H29.3016V19.6912H33.2741V19.0897H34.9319V20.2377ZM35.932 22.2196C35.932 21.6268 35.6913 21.1266 35.2932 20.7656C34.8856 20.4047 34.3208 20.1914 33.654 20.1914C32.9872 20.1914 32.4316 20.4044 32.0334 20.7656C31.6258 21.1266 31.3943 21.6268 31.3943 22.2196C31.3943 22.8398 31.6258 23.34 32.0334 23.7013C32.4316 24.044 32.9872 24.2474 33.654 24.2474C34.3208 24.2474 34.8856 24.0436 35.2932 23.7013C35.6913 23.34 35.932 22.8398 35.932 22.2196ZM34.8021 22.2196C34.8021 22.8583 34.3208 23.2842 33.6537 23.2842C32.9872 23.2842 32.5242 22.8583 32.5242 22.2196C32.5242 21.5896 32.9872 21.1638 33.654 21.1638C33.9872 21.1638 34.2651 21.275 34.478 21.4602C34.5808 21.5581 34.6625 21.676 34.7183 21.8065C34.7741 21.9371 34.8024 22.0776 34.8021 22.2196ZM32.1261 16.6539V18.7189H30.4406V16.6539H32.1261ZM34.9319 17.3393V18.117H33.2741V17.3393H34.9319Z" fill="white"/>
</g>
<defs>
<clipPath id="clip0_266_65524">
<rect width="40" height="40" fill="white"/>
</clipPath>
</defs>
</svg>
