<svg width="40" height="40" viewBox="0 0 40 40" fill="none" xmlns="http://www.w3.org/2000/svg">
<g clip-path="url(#clip0_266_65494)">
<path d="M0 20C0 21.1776 0 21.3084 0.028057 22.3084C0.102876 24.5234 0.336685 27.0654 1.22516 29.7476C1.85176 31.6449 3.03016 33.6916 4.20857 34.9813C5.70493 36.6261 7.77179 37.9718 10.007 38.7382C12.289 39.5232 14.758 39.9064 19.5557 40H20.4443C25.2514 39.8971 27.711 39.5232 29.993 38.7382C32.2282 37.9718 34.2857 36.6261 35.7914 34.9813C36.97 33.6823 38.1482 31.6449 38.775 29.7476C39.6632 27.0654 39.9064 24.514 39.9718 22.3084C40 21.3178 40 21.1776 40 20C40 18.8224 40 18.6823 39.9718 17.6916C39.8971 15.4766 39.6632 12.9346 38.775 10.2523C38.1482 8.35514 36.97 6.30839 35.7914 5.01868C34.2951 3.37383 32.2282 2.02804 29.993 1.26168C27.711 0.476636 25.242 0.0934579 20.4443 0H19.5557C14.7486 0.102804 12.289 0.476636 10.007 1.26168C7.77179 2.02804 5.71429 3.37383 4.20857 5.01868C3.03016 6.31775 1.85176 8.35514 1.22516 10.2523C0.346037 12.9346 0.102876 15.4766 0.028057 17.6916C0 18.6823 0 18.8224 0 20Z" fill="#1861A0"/>
<path d="M27.7317 12.1426C27.4581 12.1426 27.0901 12.2275 26.6184 12.3973C24.6088 13.0955 22.8162 14.2559 21.1746 15.9165L20.033 17.2656L20.4764 17.8978C21.2312 18.9639 22.0237 20.7659 22.3916 22.2849C22.6181 23.1529 22.703 23.7001 22.7407 24.5964C22.7407 24.7473 22.7501 24.9077 22.7596 25.0775C22.7596 25.2474 22.7596 25.4361 22.7596 25.6437C22.7596 26.7192 22.7785 27.9551 22.6652 27.9551H28.0525L28.3544 27.6438C28.5431 27.3702 28.5714 26.4079 28.5714 19.9923C28.5714 13.5766 28.5525 12.6238 28.3449 12.3879C28.194 12.2275 28.0053 12.1426 27.7222 12.1426H27.7317Z" fill="white"/>
<path d="M12.3153 12.1426C12.0417 12.1426 11.853 12.2086 11.6832 12.3596C11.4379 12.5766 11.4285 13.0011 11.4285 19.9639C11.4285 26.4079 11.4568 27.3702 11.6455 27.6438L11.8625 27.9551H17.2119C21.3444 27.9551 22.5897 27.9174 22.6746 27.7853C22.7313 27.691 22.7784 26.7286 22.769 25.6531C22.7595 24.0209 22.6935 23.4548 22.3916 22.2943C21.7312 19.7469 20.4858 17.4543 18.6838 15.7372C17.1176 14.2465 15.325 13.0672 13.3909 12.3973C12.9286 12.2369 12.5795 12.152 12.3059 12.152L12.3153 12.1426Z" fill="white"/>
<path d="M20.0331 17.2568L19.6935 17.6719C19.0896 18.4079 17.9858 20.8609 17.6178 22.2855C17.3159 23.446 17.2499 24.0121 17.2405 25.6537C17.2405 26.7293 17.2121 27.9558 17.3253 27.9558H22.6748C22.7881 27.9558 22.7786 26.7198 22.7692 25.6443C22.7597 24.0121 22.6748 23.4554 22.3918 22.2855C22.0238 20.7666 21.2313 18.9645 20.4766 17.8984L20.0331 17.2663V17.2568Z" fill="#1861A0"/>
<path d="M20.0329 18.4355L19.7499 18.8035C19.2593 19.4639 18.3536 21.6434 18.0516 22.9076C17.8064 23.9454 17.7497 24.4455 17.7403 25.8984C17.7403 26.8608 17.7214 27.9457 17.8064 27.9457H22.1841C22.2784 27.9457 22.269 26.8513 22.2595 25.889C22.2501 24.436 22.1841 23.936 21.9482 22.8982C21.6463 21.549 21.0047 19.9451 20.382 19.0016L20.0235 18.4355H20.0329Z" fill="white"/>
</g>
<defs>
<clipPath id="clip0_266_65494">
<rect width="40" height="40" fill="white"/>
</clipPath>
</defs>
</svg>
