<svg width="24" height="24" viewBox="0 0 24 24" fill="none" xmlns="http://www.w3.org/2000/svg">
<g clip-path="url(#clip0_266_65000)">
<path d="M0 12C0 12.7065 0 12.785 0.0168382 13.385C0.06174 14.714 0.202058 16.2393 0.735266 17.8486C1.11132 18.9869 1.81852 20.2149 2.52572 20.9888C3.42377 21.9756 4.66416 22.7831 6.00561 23.2429C7.37511 23.7139 8.85688 23.9439 11.7362 24H12.2694C15.1544 23.9383 16.6305 23.7139 18 23.2429C19.3414 22.7831 20.5763 21.9756 21.4742 20.9888C22.1816 20.2094 22.8887 18.9869 23.2648 17.8486C23.7979 16.2393 23.9439 14.7084 23.9831 13.385C24 12.7907 24 12.7065 24 12C24 11.2935 24 11.2149 23.9831 10.6149C23.9383 9.28599 23.7979 7.76074 23.2648 6.15139C22.8887 5.01309 22.1816 3.78504 21.4742 3.01121C20.5763 2.0243 19.3358 1.21682 18 0.757009C16.6305 0.285981 15.1487 0.0560747 12.2694 0H11.7362C8.85126 0.0616821 7.37511 0.285981 6.00561 0.757009C4.66416 1.21682 3.42936 2.0243 2.52572 3.01121C1.81852 3.79065 1.11132 5.01309 0.735266 6.15139C0.207671 7.76074 0.06174 9.28599 0.0168382 10.6149C0 11.2093 0 11.2935 0 12Z" fill="#009E9F"/>
<path d="M12 24C18.6274 24 24 18.6274 24 12C24 5.37259 18.6274 0 12 0C5.37259 0 0 5.37259 0 12C0 18.6274 5.37259 24 12 24Z" fill="#009E9F"/>
<mask id="mask0_266_65000" style="mask-type:luminance" maskUnits="userSpaceOnUse" x="0" y="0" width="24" height="24">
<path d="M12 24C18.6274 24 24 18.6274 24 12C24 5.37259 18.6274 0 12 0C5.37259 0 0 5.37259 0 12C0 18.6274 5.37259 24 12 24Z" fill="white"/>
</mask>
<g mask="url(#mask0_266_65000)">
<path d="M14.1229 13.136C14.0936 12.949 14.0399 12.7666 13.9629 12.5936C13.7437 12.0761 13.3668 11.6409 12.8859 11.3501C12.5068 11.1265 12.0741 11.0099 11.6339 11.0127C11.1938 11.0156 10.7627 11.1378 10.3865 11.3664C10.0353 11.576 9.75014 11.88 9.56339 12.2437C9.50078 12.3673 9.44858 12.4959 9.40737 12.6282C9.29277 12.972 9.2488 13.3355 9.27809 13.6967C9.30736 14.0579 9.40928 14.4095 9.57773 14.7304C9.69475 14.9265 9.87162 15.0798 10.0823 15.1677C10.1876 15.21 10.3013 15.2275 10.4145 15.2189C10.5276 15.2103 10.6373 15.1758 10.7351 15.1181C10.8434 15.0347 10.9246 14.9209 10.9681 14.7913C11.0116 14.6616 11.0156 14.5219 10.9795 14.39C10.8944 14.0551 10.9026 13.7032 11.0033 13.3727C11.0415 13.2643 11.1031 13.1657 11.1838 13.0838C11.2645 13.0101 11.3604 12.955 11.4647 12.9225C11.5691 12.89 11.6794 12.8809 11.7876 12.8958C11.9144 12.9231 12.033 12.98 12.1337 13.0617C12.2344 13.1435 12.3143 13.2479 12.367 13.3665C12.4696 13.6044 12.5229 13.8606 12.5236 14.1198C12.5273 15.2603 12.3576 16.3948 12.0203 17.4844C11.9903 17.5963 11.9596 17.706 11.9283 17.8173C11.9045 17.9021 11.8604 18.0131 11.9146 18.0941C11.9392 18.1284 11.9732 18.155 12.0125 18.1707C12.0887 18.1926 12.1698 18.1901 12.2446 18.1636C12.3193 18.1371 12.3839 18.0879 12.4293 18.0229C13.0677 17.3422 13.5384 16.5219 13.804 15.6273C13.9146 15.2993 14.0029 14.9642 14.068 14.6243C14.1701 14.135 14.1871 13.6318 14.1183 13.1367" fill="white"/>
<path d="M18.8568 7.94708C18.8552 7.9095 18.8461 7.87264 18.8301 7.83859C18.8141 7.80454 18.7915 7.774 18.7636 7.74872C18.7358 7.72345 18.7032 7.70393 18.6678 7.69131C18.6323 7.67869 18.5948 7.67323 18.5572 7.6752H18.5458C18.3839 7.69821 18.2267 7.7475 18.0807 7.8211C15.1162 8.87779 11.9346 9.17732 8.82496 8.69252C8.30079 8.61583 7.76945 8.51072 7.24203 8.42946C6.91239 8.37855 6.58636 8.30348 6.25347 8.27965C5.95447 8.22085 5.64434 8.27929 5.38724 8.44283C5.25575 8.58679 5.17409 8.76928 5.15433 8.96325C5.13457 9.15722 5.17782 9.35237 5.27759 9.51988C5.5031 9.90233 5.8286 10.216 6.21916 10.4272C6.58111 10.6836 7.00968 10.8294 7.45287 10.8469C8.62456 10.7723 9.79269 10.6593 10.9572 10.5078C12.981 10.3439 14.9749 9.91808 16.8891 9.24115C17.5079 8.99738 18.0913 8.67195 18.6238 8.27346C18.7184 8.20099 18.8552 8.08416 18.8552 7.94708" fill="white"/>
<path d="M10.5144 6.95212C10.5144 7.2557 10.635 7.54683 10.8497 7.7615C11.0643 7.97615 11.3555 8.09673 11.659 8.09673C11.9626 8.09673 12.2537 7.97615 12.4683 7.7615C12.683 7.54683 12.8036 7.2557 12.8036 6.95212C12.8032 6.85833 12.7823 6.76575 12.7423 6.6809C12.6443 6.47398 12.5324 6.37312 12.5441 6.12605C12.5585 5.79185 12.1274 5.78696 11.8953 5.78696C11.6376 5.7789 11.3814 5.82971 11.1463 5.93546C10.9641 6.02795 10.8093 6.16659 10.6975 6.33755C10.5841 6.51418 10.5212 6.71848 10.5157 6.92829V6.95409" fill="white"/>
</g>
</g>
<defs>
<clipPath id="clip0_266_65000">
<rect width="24" height="24" fill="white"/>
</clipPath>
</defs>
</svg>
