<svg width="40" height="40" viewBox="0 0 40 40" fill="none" xmlns="http://www.w3.org/2000/svg">
<g clip-path="url(#clip0_266_65331)">
<path d="M0 20.0003C0 21.1778 0 21.3089 0.0282143 22.3089C0.103214 24.5239 0.336786 27.0661 1.22571 29.7482C1.8525 31.6453 3.03107 33.6921 4.20964 34.9818C5.70643 36.6264 7.77357 37.9721 10.0093 38.7386C12.2918 39.5236 14.7614 39.9068 19.5604 40.0003H20.4489C25.2571 39.8975 27.7175 39.5236 30 38.7386C32.2357 37.9721 34.2936 36.6264 35.7904 34.9818C36.9693 33.6828 38.1479 31.6453 38.7746 29.7482C39.6632 27.0661 39.9064 24.5146 39.9718 22.3089C40 21.3182 40 21.1782 40 20.0003C40 18.8225 40 18.6918 39.9718 17.6918C39.8971 15.4768 39.6632 12.9346 38.7746 10.2525C38.1479 8.35535 36.9693 6.30856 35.7904 5.01892C34.2939 3.37393 32.2264 2.02821 30 1.26178C27.7175 0.476784 25.2479 0.0935713 20.4489 0H19.5604C14.7521 0.102857 12.2918 0.476784 10.0093 1.26178C7.77357 2.02821 5.71571 3.37393 4.20964 5.01892C3.03107 6.31785 1.85214 8.35535 1.22571 10.2525C0.346071 12.935 0.102857 15.4771 0.0282143 17.6918C0 18.6825 0 18.8225 0 20.0003Z" fill="#00C4A6"/>
<mask id="mask0_266_65331" style="mask-type:luminance" maskUnits="userSpaceOnUse" x="7" y="13" width="26" height="14">
<path d="M32.8577 13.5723H7.14342V26.4294H32.8577V13.5723Z" fill="white"/>
</mask>
<g mask="url(#mask0_266_65331)">
<path d="M11.707 18.1348H7.14342V26.4283H11.707V18.1348Z" fill="white"/>
<path d="M22.2821 19.1201C19.9614 15.7691 16.0914 13.5723 11.7068 13.5723V18.1348C16.28 18.1348 20.0007 21.8551 20.0007 26.4283H24.5643C24.5643 21.8551 28.2846 18.1348 32.8578 18.1348V13.5723C28.4732 13.5723 24.6025 15.7691 22.2821 19.1201Z" fill="white"/>
</g>
</g>
<defs>
<clipPath id="clip0_266_65331">
<rect width="40" height="40" fill="white"/>
</clipPath>
</defs>
</svg>
