<svg width="24" height="24" viewBox="0 0 24 24" fill="none" xmlns="http://www.w3.org/2000/svg">
<g clip-path="url(#clip0_266_60883)">
<path d="M0 12C0 12.7065 0 12.785 0.0168382 13.385C0.06174 14.714 0.202058 16.2393 0.735266 17.8486C1.11132 18.9869 1.81852 20.2149 2.52572 20.9888C3.42377 21.9756 4.66416 22.7831 6.00561 23.2429C7.37511 23.7139 8.85688 23.9439 11.7362 24H12.2694C15.1544 23.9383 16.6305 23.7139 18 23.2429C19.3414 22.7831 20.5763 21.9756 21.4742 20.9888C22.1816 20.2094 22.8887 18.9869 23.2648 17.8486C23.7979 16.2393 23.9439 14.7084 23.9831 13.385C24 12.7907 24 12.7065 24 12C24 11.2935 24 11.2149 23.9831 10.6149C23.9383 9.28599 23.7979 7.76074 23.2648 6.15139C22.8887 5.01309 22.1816 3.78504 21.4742 3.01121C20.5763 2.0243 19.3358 1.21682 18 0.757009C16.6305 0.285981 15.1487 0.0560747 12.2694 0H11.7362C8.85126 0.0616821 7.37511 0.285981 6.00561 0.757009C4.66416 1.21682 3.42936 2.0243 2.52572 3.01121C1.81852 3.79065 1.11132 5.01309 0.735266 6.15139C0.207671 7.76074 0.06174 9.28599 0.0168382 10.6149C0 11.2093 0 11.2935 0 12Z" fill="#009E9F"/>
<path d="M12 24C18.6274 24 24 18.6274 24 12C24 5.37259 18.6274 0 12 0C5.37259 0 0 5.37259 0 12C0 18.6274 5.37259 24 12 24Z" fill="#009E9F"/>
<mask id="mask0_266_60883" style="mask-type:luminance" maskUnits="userSpaceOnUse" x="0" y="0" width="24" height="24">
<path d="M12 24C18.6274 24 24 18.6274 24 12C24 5.37259 18.6274 0 12 0C5.37259 0 0 5.37259 0 12C0 18.6274 5.37259 24 12 24Z" fill="white"/>
</mask>
<g mask="url(#mask0_266_60883)">
<path d="M14.1226 13.1356C14.0934 12.9485 14.0396 12.7661 13.9627 12.5931C13.7435 12.0756 13.3665 11.6405 12.8856 11.3496C12.5065 11.126 12.0738 11.0094 11.6337 11.0123C11.1935 11.0151 10.7624 11.1374 10.3863 11.3659C10.0351 11.5755 9.7499 11.8795 9.56315 12.2432C9.50053 12.3668 9.44833 12.4954 9.40713 12.6277C9.29253 12.9715 9.24856 13.335 9.27785 13.6962C9.30712 14.0574 9.40903 14.409 9.57748 14.7299C9.69451 14.926 9.87138 15.0793 10.0821 15.1673C10.1874 15.2095 10.3011 15.227 10.4142 15.2184C10.5274 15.2098 10.6371 15.1753 10.7348 15.1176C10.8432 15.0342 10.9243 14.9204 10.9679 14.7908C11.0114 14.6611 11.0154 14.5214 10.9793 14.3895C10.8941 14.0546 10.9023 13.7027 11.0031 13.3722C11.0413 13.2638 11.1029 13.1652 11.1836 13.0833C11.2642 13.0096 11.3601 12.9545 11.4645 12.922C11.5689 12.8895 11.6791 12.8804 11.7874 12.8954C11.9142 12.9226 12.0328 12.9795 12.1334 13.0612C12.2341 13.143 12.314 13.2475 12.3667 13.366C12.4694 13.6039 12.5227 13.8602 12.5234 14.1193C12.527 15.2598 12.3573 16.3943 12.0201 17.4839C11.9901 17.5958 11.9594 17.7055 11.9281 17.8168C11.9042 17.9016 11.8602 18.0126 11.9144 18.0936C11.939 18.1279 11.973 18.1546 12.0122 18.1703C12.0885 18.1921 12.1696 18.1896 12.2443 18.1631C12.319 18.1366 12.3836 18.0874 12.4291 18.0224C13.0674 17.3417 13.5381 16.5214 13.8037 15.6268C13.9144 15.2988 14.0026 14.9638 14.0678 14.6238C14.1698 14.1345 14.1868 13.6313 14.118 13.1362" fill="white"/>
<path d="M18.8567 7.94611C18.855 7.90852 18.8459 7.87166 18.8299 7.83761C18.8139 7.80356 18.7914 7.77303 18.7635 7.74774C18.7357 7.72248 18.7031 7.70296 18.6677 7.69033C18.6322 7.67771 18.5947 7.67225 18.5571 7.67422H18.5457C18.3837 7.69724 18.2266 7.74652 18.0806 7.82013C15.116 8.87681 11.9345 9.17634 8.82484 8.69154C8.30067 8.61485 7.76933 8.50974 7.24191 8.42849C6.91227 8.37757 6.58624 8.30251 6.25334 8.27868C5.95435 8.21988 5.64422 8.27831 5.38712 8.44186C5.25563 8.58581 5.17397 8.7683 5.15421 8.96227C5.13445 9.15624 5.17769 9.35139 5.27747 9.5189C5.50298 9.90136 5.82848 10.2151 6.21904 10.4262C6.58099 10.6826 7.00956 10.8284 7.45274 10.846C8.62444 10.7713 9.79257 10.6583 10.9571 10.5069C12.9808 10.3429 14.9748 9.91711 16.889 9.24018C17.5078 8.99641 18.0912 8.67097 18.6237 8.27249C18.7183 8.20001 18.8551 8.08318 18.8551 7.94611" fill="white"/>
<path d="M10.5142 6.95163C10.5142 7.25521 10.6348 7.54634 10.8494 7.76101C11.0641 7.97566 11.3552 8.09624 11.6588 8.09624C11.9623 8.09624 12.2535 7.97566 12.4681 7.76101C12.6828 7.54634 12.8034 7.25521 12.8034 6.95163C12.803 6.85784 12.782 6.76527 12.742 6.68041C12.6441 6.47349 12.5321 6.37263 12.5439 6.12556C12.5583 5.79136 12.1271 5.78647 11.8951 5.78647C11.6374 5.77842 11.3812 5.82922 11.146 5.93497C10.9638 6.02746 10.8091 6.1661 10.6973 6.33706C10.5839 6.51369 10.521 6.71799 10.5155 6.9278V6.9536" fill="white"/>
</g>
</g>
<defs>
<clipPath id="clip0_266_60883">
<rect width="24" height="24" fill="white"/>
</clipPath>
</defs>
</svg>
