<svg width="24" height="24" viewBox="0 0 24 24" fill="none" xmlns="http://www.w3.org/2000/svg">
<g clip-path="url(#clip0_266_60722)">
<path d="M0 12C0 12.7065 0 12.785 0.0168382 13.385C0.06174 14.714 0.202058 16.2393 0.735266 17.8486C1.11132 18.9869 1.81852 20.2149 2.52572 20.9888C3.42377 21.9756 4.66416 22.7831 6.00561 23.2429C7.37511 23.7139 8.85688 23.9439 11.7362 24H12.2694C15.1544 23.9383 16.6305 23.7139 18 23.2429C19.3414 22.7831 20.5763 21.9756 21.4742 20.9888C22.1816 20.2094 22.8887 18.9869 23.2648 17.8486C23.7979 16.2393 23.9439 14.7084 23.9831 13.385C24 12.7907 24 12.7065 24 12C24 11.2935 24 11.2149 23.9831 10.6149C23.9383 9.28599 23.7979 7.76074 23.2648 6.15139C22.8887 5.01309 22.1816 3.78504 21.4742 3.01121C20.5763 2.0243 19.3358 1.21682 18 0.757009C16.6305 0.285981 15.1487 0.0560747 12.2694 0H11.7362C8.85126 0.0616821 7.37511 0.285981 6.00561 0.757009C4.66416 1.21682 3.42936 2.0243 2.52572 3.01121C1.81852 3.79065 1.11132 5.01309 0.735266 6.15139C0.207671 7.76074 0.06174 9.28599 0.0168382 10.6149C0 11.2093 0 11.2935 0 12Z" fill="#E82118"/>
<mask id="mask0_266_60722" style="mask-type:luminance" maskUnits="userSpaceOnUse" x="2" y="9" width="20" height="6">
<path d="M21.2143 9H2.78571V14.3238H21.2143V9Z" fill="white"/>
</mask>
<g mask="url(#mask0_266_60722)">
<path d="M6.74333 10.7341C6.54081 10.7207 6.33836 10.7609 6.15636 10.8508C5.97439 10.9407 5.81931 11.0769 5.70688 11.2459C5.60736 11.0762 5.46188 10.9381 5.28722 10.8475C5.11258 10.757 4.91588 10.7177 4.71983 10.7341C4.53364 10.7309 4.34938 10.7721 4.18232 10.8543C4.01524 10.9366 3.87021 11.0575 3.75921 11.207V10.8332H2.78571V14.0951H3.80685V12.2211C3.80299 12.1509 3.81308 12.0806 3.83651 12.0142C3.85995 11.9479 3.89627 11.8869 3.94337 11.8346C3.99049 11.7824 4.04745 11.74 4.11101 11.7098C4.17458 11.6797 4.2435 11.6624 4.31376 11.659C4.32836 11.6582 4.34297 11.6582 4.35756 11.659C4.49046 11.6494 4.62176 11.6927 4.72283 11.7795C4.82393 11.8663 4.88657 11.9896 4.89716 12.1224C4.89874 12.1517 4.89795 12.1812 4.89473 12.2104V14.1007H5.90295V12.2173C5.90001 12.1471 5.91098 12.0771 5.93518 12.0111C5.95935 11.9451 5.99627 11.8846 6.04386 11.8329C6.09146 11.7812 6.1488 11.7395 6.21257 11.71C6.27632 11.6805 6.34523 11.6638 6.41543 11.661C6.43037 11.661 6.44571 11.661 6.46101 11.661C6.53393 11.6555 6.60718 11.6661 6.67551 11.6922C6.74385 11.7182 6.80554 11.7591 6.85626 11.8117C6.90698 11.8644 6.94545 11.9277 6.96891 11.9969C6.99236 12.0662 7.0002 12.1398 6.99191 12.2124V14.1028H7.97895V11.9896C7.99283 11.8388 7.97676 11.6868 7.93163 11.5423C7.88651 11.3978 7.8132 11.2636 7.716 11.1476C7.61878 11.0315 7.49953 10.9359 7.36517 10.8661C7.23081 10.7963 7.08398 10.7538 6.93313 10.7411C6.87013 10.7337 6.8067 10.7314 6.74333 10.7341Z" fill="white"/>
<path d="M13.0272 11.2719V10.8296H12.0387V14.0915H13.0598V12.6661C13.0598 12.0166 13.4298 11.7805 13.8393 11.7805C13.9465 11.7797 14.0534 11.7907 14.1581 11.8132V10.8279C14.0703 10.8053 13.98 10.7943 13.8894 10.7952C13.7158 10.7882 13.5436 10.8289 13.3916 10.9129C13.2395 10.997 13.1135 11.1211 13.0272 11.2719Z" fill="white"/>
<path d="M15.5318 10.832H14.5114V14.0939H15.5318V10.832Z" fill="white"/>
<path d="M17.3794 9.87842H16.4658V10.2981C16.4723 10.3613 16.4662 10.4252 16.448 10.486C16.4298 10.5469 16.3997 10.6036 16.3594 10.6528C16.3192 10.702 16.2696 10.7428 16.2136 10.7728C16.1576 10.8028 16.0962 10.8214 16.0329 10.8276C16.0048 10.8299 15.9765 10.8299 15.9484 10.8276H15.7812V11.7006H16.3722V13.0986C16.3647 13.2298 16.3833 13.3612 16.4267 13.4852C16.4701 13.6092 16.5377 13.7234 16.6254 13.8213C16.7131 13.9191 16.8193 13.9987 16.9378 14.0554C17.0564 14.1121 17.1849 14.1448 17.3161 14.1517C17.3741 14.1558 17.4322 14.1548 17.49 14.1486C17.6715 14.1573 17.8528 14.1259 18.0209 14.0568V13.2297C17.9327 13.2498 17.8426 13.2608 17.7521 13.2623C17.5307 13.2623 17.3822 13.19 17.3822 12.9213V11.7009H18.0341V10.831H17.3794V9.87842Z" fill="white"/>
<path d="M15.0151 9C14.8402 9.00096 14.6729 9.07123 14.5497 9.19541C14.4266 9.31959 14.3577 9.48752 14.3582 9.6624C14.3587 9.83728 14.4285 10.0048 14.5523 10.1283C14.6761 10.2518 14.8439 10.3212 15.0188 10.3212C15.1937 10.3212 15.3614 10.2518 15.4852 10.1283C15.609 10.0048 15.6789 9.83728 15.6793 9.6624C15.6798 9.48752 15.6109 9.31959 15.4878 9.19541C15.3646 9.07123 15.1973 9.00096 15.0224 9H15.0151Z" fill="white"/>
<path d="M9.99649 10.713C9.53634 10.7282 9.10074 10.9243 8.78417 11.2586C8.46761 11.5929 8.2956 12.0386 8.30544 12.4989C8.31527 12.9592 8.50616 13.3971 8.83672 13.7176C9.16727 14.0381 9.61084 14.2153 10.0712 14.2109C10.3781 14.2313 10.6839 14.1594 10.9496 14.0045C11.2152 13.8496 11.4284 13.6188 11.5617 13.3417L10.7176 13.0288C10.6545 13.1381 10.5615 13.2271 10.4495 13.2852C10.3375 13.3433 10.2112 13.3681 10.0855 13.3567C9.9003 13.3689 9.71747 13.3096 9.57467 13.191C9.43187 13.0725 9.33994 12.9037 9.31783 12.7194H11.6678C11.6828 12.6158 11.6898 12.5112 11.6887 12.4065C11.7079 12.2028 11.6866 11.9973 11.626 11.8018C11.5655 11.6063 11.4669 11.4248 11.3358 11.2676C11.2048 11.1104 11.044 10.9807 10.8627 10.8859C10.6813 10.7912 10.483 10.7332 10.2792 10.7154C10.1852 10.7064 10.0906 10.7056 9.99649 10.713ZM9.3359 12.0668C9.35651 11.906 9.43749 11.7591 9.56242 11.6558C9.68734 11.5525 9.84688 11.5006 10.0087 11.5105C10.1663 11.4898 10.3257 11.5323 10.4522 11.6286C10.5786 11.7249 10.6619 11.8673 10.6839 12.0247C10.6839 12.0386 10.687 12.0536 10.6877 12.0682L9.3359 12.0668Z" fill="white"/>
<path d="M19.6626 13.2206L21.1875 11.6519V10.8311H18.4541V11.7041H19.866L18.4137 13.2137V14.0929H21.2143V13.2199L19.6626 13.2206Z" fill="white"/>
</g>
</g>
<defs>
<clipPath id="clip0_266_60722">
<rect width="24" height="24" fill="white"/>
</clipPath>
</defs>
</svg>
