<svg width="32" height="32" viewBox="0 0 32 32" fill="none" xmlns="http://www.w3.org/2000/svg">
<g clip-path="url(#clip0_266_61268)">
<path d="M0 16C0 16.9421 0 17.0467 0.0224509 17.8467C0.08232 19.6187 0.269411 21.6523 0.980354 23.7981C1.48176 25.3159 2.4247 26.9533 3.36763 27.9851C4.56503 29.3009 6.21889 30.3774 8.00749 30.9906C9.83349 31.6186 11.8092 31.9251 15.6483 32H16.3592C20.2058 31.9177 22.174 31.6186 24 30.9906C25.7886 30.3774 27.435 29.3009 28.6323 27.9851C29.5754 26.9458 30.5183 25.3159 31.0197 23.7981C31.7306 21.6523 31.9251 19.6112 31.9774 17.8467C32 17.0542 32 16.9421 32 16C32 15.0579 32 14.9533 31.9774 14.1533C31.9177 12.3813 31.7306 10.3477 31.0197 8.20186C30.5183 6.68411 29.5754 5.04671 28.6323 4.01494C27.435 2.69907 25.7811 1.62243 24 1.00935C22.174 0.381309 20.1983 0.0747663 16.3592 0H15.6483C11.8017 0.0822429 9.83349 0.381309 8.00749 1.00935C6.21889 1.62243 4.57249 2.69907 3.36763 4.01494C2.4247 5.0542 1.48176 6.68411 0.980354 8.20186C0.276894 10.3477 0.08232 12.3813 0.0224509 14.1533C0 14.9458 0 15.0579 0 16Z" fill="#5A280B"/>
<path d="M15.2116 18.4202C15.3772 18.4202 15.6697 18.5684 16.0695 19.029C17.8913 21.1604 20.0344 22.9892 22.4201 24.4482C22.7018 24.6127 22.8571 24.7354 22.8571 24.8965C22.8571 25.0087 22.8414 25.1342 22.5965 25.1342C21.3839 24.986 20.1912 24.7043 19.0395 24.294C18.3849 23.9688 16.9749 22.7535 15.2949 19.6775C15.0973 19.4018 14.9633 19.085 14.9029 18.7503C14.8979 18.6685 14.9251 18.588 14.9787 18.5264C15.0323 18.4648 15.108 18.4271 15.1891 18.4216C15.1965 18.42 15.2041 18.4196 15.2116 18.4202Z" fill="#488AC9"/>
<path d="M20.7195 8.9015C20.7195 8.9015 21.1482 9.79853 16.9724 10.4227C17.4276 9.05473 17.727 8.15476 17.727 8.15476C17.822 7.93296 17.8293 7.68291 17.7473 7.45588C17.6653 7.22888 17.5002 7.04213 17.286 6.93405C17.1857 6.88748 17.0774 6.86125 16.9671 6.85693C16.752 6.87985 16.5486 6.96748 16.3836 7.10851C16.2185 7.24953 16.0994 7.43742 16.0416 7.64768L14.8006 10.6624C13.6764 10.7521 12.5471 10.7521 11.4229 10.6624C10.6674 10.5828 10.4729 11.0267 10.4729 11.4809C10.4729 12.2716 11.7879 13.0752 12.6287 12.9877C13.1563 12.9348 13.4669 12.9107 13.8951 12.8647L9.27947 24.0554C9.10407 24.4735 8.96295 25.1426 9.75321 25.1426C10.5435 25.1426 12.3283 24.3726 12.6262 23.4845C12.7516 23.1099 13.6712 20.3452 14.6947 17.2657C15.6501 17.0755 16.6151 16.9386 17.5854 16.8555C18.0753 16.8555 18.3242 17.0898 18.3242 17.368C18.3242 18.0105 16.8676 19.8614 14.0422 22.1402C13.731 22.3903 13.9892 22.5885 14.1475 22.5885C15.3578 22.017 16.4848 21.2807 17.4967 20.4001C18.552 19.5525 20.4054 17.3438 20.4054 15.7915C20.4054 15.1792 20.1502 14.6187 18.991 14.6187C17.8105 14.6651 16.6331 14.7725 15.4634 14.9404C15.7378 14.1141 16.0082 13.3026 16.2616 12.5444C18.4452 12.2237 19.7445 12.0151 20.5172 11.8446C21.5725 11.6059 22.4171 10.9624 22.4171 10.2987C22.4245 8.88473 20.7195 8.9015 20.7195 8.9015Z" fill="white"/>
</g>
<defs>
<clipPath id="clip0_266_61268">
<rect width="32" height="32" fill="white"/>
</clipPath>
</defs>
</svg>
