<svg width="56" height="56" viewBox="0 0 56 56" fill="none" xmlns="http://www.w3.org/2000/svg">
<g clip-path="url(#clip0_266_61826)">
<path d="M0 28C0 29.6486 0 29.8317 0.0392889 31.2318C0.144059 34.3327 0.471467 37.8916 1.71562 41.6467C2.59307 44.3028 4.24321 47.1682 5.89334 48.9738C7.98876 51.2764 10.8831 53.1608 14.0131 54.2336C17.2085 55.3328 20.666 55.869 27.3844 56H28.6285C35.36 55.856 38.8044 55.3328 41.9999 54.2336C45.1299 53.1608 48.0111 51.2764 50.1063 48.9738C51.7565 47.1551 53.4068 44.3028 54.2842 41.6467C55.5283 37.8916 55.8689 34.3196 55.9605 31.2318C56 29.8449 56 29.6486 56 28C56 26.3514 56 26.1551 55.9605 24.7682C55.8559 21.6673 55.5283 18.1084 54.2842 14.3533C53.4068 11.6972 51.7565 8.83175 50.1063 7.02618C48.0111 4.72336 45.1168 2.83925 41.9999 1.76636C38.8044 0.667289 35.347 0.130841 28.6285 0H27.3844C20.6529 0.143925 17.2085 0.667289 14.0131 1.76636C10.8831 2.83925 8.00187 4.72336 5.89334 7.02618C4.24321 8.84485 2.59307 11.6972 1.71562 14.3533C0.484564 18.1084 0.144059 21.6673 0.0392889 24.7682C0 26.1551 0 26.3514 0 28Z" fill="#E78001"/>
<path d="M19.0688 20.7354C19.0014 21.1569 18.1117 27.1107 18.0308 27.6771H20.0259C20.0798 27.2556 20.983 21.3018 21.0639 20.7354H19.0688Z" fill="white"/>
<path d="M35.3945 20.7354C35.3271 21.1569 34.4373 27.1107 34.3564 27.6771H39.0343C39.0748 27.3742 39.1961 26.5707 39.2635 26.1755H36.4325L36.6212 24.8978H39.196C39.25 24.5948 39.3444 23.8835 39.4118 23.5015H36.8369L37.0257 22.237H39.7892C39.8296 21.934 39.951 21.1305 40.0184 20.7485H35.408L35.3945 20.7354Z" fill="white"/>
<path d="M13.1643 24.7007C13.1643 24.7007 14.836 21.0388 14.9708 20.7227H17.4782C17.4782 21.2101 17.1412 27.1639 17.1412 27.6645H15.3348L15.6313 22.8039C15.6313 22.8039 13.5957 27.3483 13.4609 27.6645H12.0319L11.3849 22.8039C11.3444 23.0278 10.6569 26.2682 10.2929 27.6645H8.5C8.68875 27.0454 10.0638 21.0915 10.1716 20.7227H12.5847L13.1509 24.7007H13.1643Z" fill="white"/>
<path d="M31.889 26.2682C31.889 26.2682 32.0238 27.401 32.0642 27.6645H33.9785C33.8707 27.098 32.8326 21.131 32.7518 20.7227H30.3252C30.1904 21.0125 27.4268 26.9795 27.0898 27.6645H29.0311C29.1389 27.4274 29.6242 26.2682 29.6242 26.2682H31.8755H31.889ZM30.1769 24.8324L31.3228 22.2506L31.7003 24.8324H30.1769Z" fill="white"/>
<path d="M23.841 22.0394H24.2859C24.5959 22.0394 24.9329 22.0658 25.1352 22.3029C25.2834 22.4741 25.3374 22.698 25.2969 23.001C25.2969 23.001 25.2295 23.5279 24.879 23.6991C24.879 23.6991 24.6229 23.8572 24.205 23.8704H23.3018L25.0138 27.6771H26.955L25.4856 24.7529C26.3753 24.5948 27.0629 24.3446 27.2382 23.0273C27.2651 22.8561 27.2786 22.698 27.2786 22.5531C27.2786 22.0658 27.1438 21.6706 26.8877 21.3808C26.4023 20.8539 25.58 20.7354 24.9734 20.7354H22.2367C22.1693 21.1569 21.2796 27.1107 21.1987 27.664H23.0187C23.0726 27.282 23.8545 22.0262 23.8545 22.0262" fill="white"/>
<path d="M47.5001 19.998C46.3408 24.6083 42.1618 27.1242 39.6948 28.4678L39.5869 28.3361C40.598 27.5589 44.049 25.1088 45.1545 21.065L47.4866 19.998H47.5001Z" fill="white"/>
<path d="M30.7568 31.6287C30.7568 31.6287 30.824 31.6156 30.8643 31.6025C30.824 31.6025 30.7971 31.6156 30.7568 31.6287Z" fill="white"/>
<path d="M27.575 32.208C27.575 32.208 27.4944 32.208 27.4541 32.2342C27.4944 32.2342 27.5347 32.2211 27.575 32.208Z" fill="white"/>
<path d="M31.5253 31.4443C31.3905 31.4839 31.2422 31.5102 31.1074 31.5366C31.2422 31.4971 31.3905 31.4707 31.5253 31.4443Z" fill="white"/>
<path d="M34.6797 30.5879C34.4775 30.6538 34.2753 30.7065 34.0596 30.7724C34.2753 30.7065 34.4775 30.6406 34.6797 30.5879Z" fill="white"/>
<path d="M32.024 31.3389C31.9297 31.365 31.8488 31.3781 31.7544 31.4043C31.8353 31.3781 31.9297 31.365 32.024 31.3389Z" fill="white"/>
<path d="M25.8631 31.6019L25.3374 31.3516C25.1622 31.2462 24.7712 31.0355 24.7712 30.6535C24.7712 30.4691 24.8521 30.311 24.9734 30.2056C25.1352 30.0739 25.3913 30.0212 25.6609 30.0739C25.998 30.1266 26.4023 30.3374 26.8337 30.693C27.0359 30.311 27.4269 29.5997 27.5752 29.3363C27.0764 28.9411 26.6046 28.7303 25.8766 28.6118C24.9869 28.4932 24.1376 28.6645 23.5445 29.0992C23.0322 29.468 22.7221 30.008 22.6412 30.6667C22.6277 30.772 22.6143 30.8906 22.6143 30.996C22.6143 31.3516 22.6951 31.6678 22.8569 31.9312C23.9354 31.9049 25.0677 31.8522 26.2136 31.76C26.1058 31.7073 25.998 31.6414 25.8766 31.5887" fill="white"/>
<path d="M33.9383 28.8623C33.8978 29.1521 33.7496 30.061 33.6822 30.5089C35.0842 30.1269 36.7962 29.5868 38.3735 28.8623H33.9383Z" fill="white"/>
<path d="M34.6799 30.5884C34.4777 30.6542 34.2754 30.7069 34.0597 30.7728C34.0194 30.7859 33.9789 30.7991 33.9249 30.8123C33.8441 30.8386 33.7632 30.865 33.6688 30.8913C33.6284 30.8913 33.5744 30.9177 33.534 30.9308C33.2509 31.0099 32.9543 31.0889 32.6443 31.1679C32.5903 31.1811 32.5365 31.1943 32.4691 31.2074C32.3882 31.2338 32.2938 31.247 32.2129 31.2733C32.1455 31.2865 32.0781 31.2997 32.0242 31.326C31.9298 31.3392 31.8489 31.3655 31.7546 31.3919C31.6737 31.405 31.5928 31.4314 31.5119 31.4445C31.3771 31.4841 31.2423 31.5104 31.094 31.5368C31.0131 31.5499 30.9323 31.5763 30.8514 31.5894C30.8109 31.5894 30.7839 31.6026 30.7435 31.6158C29.9212 31.8002 29.0584 31.9583 28.1282 32.1163C28.1147 32.1163 28.0878 32.1163 28.0743 32.1163C27.9125 32.1427 27.7372 32.169 27.562 32.1954H27.4407C27.2655 32.2349 27.0767 32.2744 26.9014 32.2876C26.888 32.2876 26.8745 32.2876 26.861 32.2876C25.8769 32.4325 24.8254 32.551 23.7334 32.6432C23.5717 32.6564 23.3965 32.6696 23.2212 32.6827C23.2077 32.6827 23.1807 32.6827 23.1672 32.6827C23.0055 32.6827 22.8303 32.7091 22.655 32.7223C22.6415 32.7223 22.6146 32.7223 22.6011 32.7223C22.4259 32.7223 22.2506 32.7486 22.0753 32.7486C22.0618 32.7486 22.0484 32.7486 22.0349 32.7486C21.8597 32.7486 21.6709 32.7618 21.4956 32.7749H21.4821C20.552 32.8145 19.6084 32.8408 18.6243 32.8408H18.5434C18.3277 32.8408 18.1119 32.8408 17.8828 32.8408C17.8423 32.8408 17.7884 32.8408 17.748 32.8408C16.9526 32.8408 16.1438 32.8013 15.308 32.7618H15.2945C14.0408 32.6959 12.7331 32.5905 11.3985 32.4456L12.9488 31.0626C12.9488 31.0626 13.852 31.3128 15.0922 31.5368C14.8631 30.1932 14.6474 29.0208 14.6205 28.8496H12.1939C12.0456 29.1394 9.28205 35.1064 8.9585 35.7914H10.8997C11.0076 35.5543 11.6546 34.0658 11.6546 34.0658H13.6768C13.6768 34.0658 13.879 35.5148 13.9194 35.7914H15.8337C15.7933 35.5675 15.6046 34.5269 15.3889 33.3018C16.7504 33.3809 18.1255 33.394 19.3927 33.3677C19.4601 33.4731 19.487 33.5785 19.487 33.697C19.487 33.7365 19.487 33.776 19.487 33.8287C19.46 33.9868 19.3792 34.1185 19.2444 34.1976C18.9748 34.3688 18.5973 34.3293 18.3412 34.2898C17.7211 34.1844 17.2357 33.7365 16.8313 33.3677C16.5887 33.7497 16.0629 34.5664 15.8876 34.8298C16.6156 35.4621 17.4109 35.8573 18.2468 35.9626C19.096 36.0812 19.9319 35.8968 20.552 35.4621C21.0913 35.0801 21.4283 34.5269 21.5361 33.8419C21.5631 33.6443 21.5765 33.4599 21.5765 33.2887C22.9381 33.236 24.084 33.1569 24.812 33.0911C25.0546 33.2623 25.1759 33.4599 25.1759 33.6838C25.1759 33.7234 25.1759 33.7629 25.1759 33.8156C25.1489 33.9736 25.0681 34.1053 24.9333 34.1844C24.6637 34.3556 24.2862 34.3161 24.0301 34.2766C23.41 34.1712 22.9246 33.7234 22.5202 33.3545C22.2776 33.7365 21.7518 34.5532 21.5765 34.8167C22.3045 35.4489 23.0998 35.8441 23.9357 35.9495C24.785 36.068 25.6208 35.8836 26.2409 35.4489C26.7801 35.0669 27.1307 34.5137 27.2385 33.8287C27.3059 33.4467 27.2924 33.1174 27.198 32.8145C27.5081 32.7749 27.8047 32.7223 28.0877 32.6827C27.8721 34.1449 27.6698 35.5016 27.6294 35.7519H32.3073C32.3477 35.4489 32.469 34.6454 32.5364 34.2502H29.692L29.8807 32.9725H32.4556C32.496 32.7091 32.5903 32.1032 32.6443 31.708C32.9948 31.6026 33.1701 31.5368 33.1701 31.5368C33.1701 31.5368 34.0463 31.2865 35.1652 30.8913C35.0034 31.9714 34.5046 35.2909 34.4372 35.7651H36.4594C36.5133 35.3567 37.2412 30.5488 37.2412 30.5488H38.7107C38.7511 30.2459 38.8994 29.2975 38.9533 28.8628C38.1984 29.2711 36.7559 29.9034 34.7068 30.5488" fill="white"/>
<path d="M20.8079 31.9444C20.6327 31.8126 20.4305 31.6941 20.1879 31.6019L19.6621 31.3516H19.6486C19.4733 31.2462 19.0824 31.0355 19.0824 30.6535C19.0824 30.4691 19.1498 30.311 19.2847 30.2056C19.4464 30.0739 19.7026 30.0212 19.9722 30.0739C20.3227 30.1266 20.7136 30.3374 21.145 30.693C21.3472 30.311 21.7382 29.5997 21.8864 29.3363C21.3877 28.9411 20.9158 28.7303 20.1879 28.6118C19.2981 28.4932 18.4488 28.6645 17.8556 29.0992C17.3434 29.468 17.0333 30.008 16.9524 30.6667C16.9389 30.772 16.9389 30.8906 16.9389 30.996C16.9389 31.2989 16.9929 31.5755 17.1007 31.8127C17.1412 31.8127 17.1816 31.8127 17.222 31.8127C18.1253 31.8785 19.3655 31.9312 20.7945 31.9444" fill="white"/>
<path d="M30.2445 30.3644H33.0081C33.062 30.0615 33.1698 29.258 33.2372 28.876H28.6403C28.6133 29.0604 28.4381 30.2327 28.2359 31.5763C28.8695 31.4973 29.5031 31.4051 30.1232 31.3128L30.258 30.3776L30.2445 30.3644Z" fill="white"/>
</g>
<defs>
<clipPath id="clip0_266_61826">
<rect width="56" height="56" fill="white"/>
</clipPath>
</defs>
</svg>
