<svg width="40" height="40" viewBox="0 0 40 40" fill="none" xmlns="http://www.w3.org/2000/svg">
<g clip-path="url(#clip0_266_61460)">
<path d="M0 20C0 21.1776 0 21.3084 0.0280635 22.3084C0.1029 24.5234 0.336762 27.0654 1.22544 29.7476C1.85219 31.6448 3.03086 33.6916 4.20953 34.9813C5.70626 36.626 7.77361 37.972 10.0093 38.7383C12.2918 39.5235 14.7614 39.9064 19.5603 40H20.449C25.2572 39.8971 27.7174 39.5235 29.9999 38.7383C32.2356 37.972 34.2936 36.626 35.7902 34.9813C36.9689 33.6822 38.1477 31.6448 38.7744 29.7476C39.6631 27.0654 39.9064 24.514 39.9718 22.3084C40 21.3177 40 21.1776 40 20C40 18.8224 40 18.6822 39.9718 17.6916C39.8971 15.4766 39.6631 12.9346 38.7744 10.2523C38.1477 8.35512 36.9689 6.30839 35.7902 5.0187C34.2936 3.37383 32.2263 2.02804 29.9999 1.26168C27.7174 0.476635 25.2478 0.0934579 20.449 0H19.5603C14.7521 0.102804 12.2918 0.476635 10.0093 1.26168C7.77361 2.02804 5.71562 3.37383 4.20953 5.0187C3.03086 6.31775 1.85219 8.35512 1.22544 10.2523C0.346117 12.9346 0.1029 15.4766 0.0280635 17.6916C0 18.6822 0 18.8224 0 20Z" fill="#E78001"/>
<path d="M13.6206 14.8105C13.5724 15.1116 12.9369 19.3644 12.8791 19.7689H14.3042C14.3428 19.4679 14.9879 15.2151 15.0457 14.8105H13.6206Z" fill="white"/>
<path d="M25.2818 14.8105C25.2336 15.1116 24.5981 19.3644 24.5403 19.7689H27.8816C27.9105 19.5525 27.9972 18.9786 28.0453 18.6964H26.0232L26.158 17.7837H27.9972C28.0357 17.5673 28.1031 17.0592 28.1513 16.7864H26.3121L26.4469 15.8831H28.4209C28.4498 15.6667 28.5364 15.0928 28.5846 14.8199H25.2914L25.2818 14.8105Z" fill="white"/>
<path d="M9.40311 17.6432C9.40311 17.6432 10.5971 15.0276 10.6934 14.8018H12.4844C12.4844 15.1499 12.2437 19.4027 12.2437 19.7602H10.9534L11.1652 16.2884C11.1652 16.2884 9.71125 19.5344 9.61496 19.7602H8.59425L8.13207 16.2884C8.10318 16.4483 7.61211 18.7629 7.35211 19.7602H6.07143C6.20625 19.318 7.18839 15.0652 7.26543 14.8018H8.98907L9.3935 17.6432H9.40311Z" fill="white"/>
<path d="M22.7779 18.7628C22.7779 18.7628 22.8741 19.572 22.903 19.7602H24.2704C24.1934 19.3556 23.4519 15.0934 23.3941 14.8018H21.6609C21.5646 15.0088 19.5906 19.2709 19.3499 19.7602H20.7365C20.8135 19.5908 21.1602 18.7628 21.1602 18.7628H22.7682H22.7779ZM21.555 17.7373L22.3734 15.8932L22.6431 17.7373H21.555Z" fill="white"/>
<path d="M17.0293 15.742H17.347C17.5685 15.742 17.8092 15.7608 17.9537 15.9302C18.0596 16.0525 18.0981 16.2124 18.0692 16.4288C18.0692 16.4288 18.0211 16.8052 17.7707 16.9275C17.7707 16.9275 17.5878 17.0404 17.2893 17.0498H16.6441L17.867 19.7689H19.2536L18.204 17.6802C18.8395 17.5673 19.3306 17.3885 19.4558 16.4477C19.4751 16.3253 19.4847 16.2124 19.4847 16.1089C19.4847 15.7608 19.3884 15.4785 19.2055 15.2715C18.8588 14.8952 18.2714 14.8105 17.8381 14.8105H15.8834C15.8352 15.1116 15.1997 19.3644 15.142 19.7595H16.4419C16.4804 19.4867 17.0389 15.7326 17.0389 15.7326" fill="white"/>
<path d="M33.9287 14.2842C33.1006 17.5773 30.1155 19.3743 28.3534 20.334L28.2764 20.2399C28.9986 19.6848 31.4636 17.9348 32.2532 15.0463L33.919 14.2842H33.9287Z" fill="white"/>
<path d="M21.9692 22.592C21.9692 22.592 22.0171 22.5826 22.0459 22.5732C22.0171 22.5732 21.998 22.5826 21.9692 22.592Z" fill="white"/>
<path d="M19.6964 23.0059C19.6964 23.0059 19.6389 23.0059 19.6101 23.0246C19.6389 23.0246 19.6676 23.0152 19.6964 23.0059Z" fill="white"/>
<path d="M22.5181 22.46C22.4218 22.4882 22.3159 22.507 22.2196 22.5259C22.3159 22.4976 22.4218 22.4788 22.5181 22.46Z" fill="white"/>
<path d="M24.7712 21.8486C24.6268 21.8957 24.4823 21.9334 24.3283 21.9805C24.4823 21.9334 24.6268 21.8863 24.7712 21.8486Z" fill="white"/>
<path d="M22.8743 22.3848C22.8069 22.4034 22.7491 22.4128 22.6817 22.4315C22.7395 22.4128 22.8069 22.4034 22.8743 22.3848Z" fill="white"/>
<path d="M18.4737 22.5731L18.0981 22.3943C17.973 22.319 17.6937 22.1685 17.6937 21.8956C17.6937 21.7639 17.7515 21.651 17.8381 21.5757C17.9537 21.4817 18.1366 21.444 18.3292 21.4817C18.57 21.5193 18.8588 21.6698 19.167 21.9239C19.3114 21.651 19.5906 21.143 19.6966 20.9548C19.3403 20.6725 19.0033 20.522 18.4833 20.4373C17.8478 20.3526 17.2411 20.4749 16.8175 20.7854C16.4515 21.0488 16.2301 21.4346 16.1723 21.9051C16.1627 21.9803 16.153 22.065 16.153 22.1403C16.153 22.3943 16.2108 22.6201 16.3264 22.8083C17.0967 22.7895 17.9055 22.7518 18.724 22.686C18.647 22.6483 18.57 22.6013 18.4833 22.5637" fill="white"/>
<path d="M24.2416 20.6162C24.2127 20.8232 24.1068 21.4724 24.0587 21.7923C25.0601 21.5195 26.283 21.1337 27.4096 20.6162H24.2416Z" fill="white"/>
<path d="M24.7714 21.8484C24.6269 21.8954 24.4825 21.9331 24.3284 21.9801C24.2995 21.9895 24.2706 21.9989 24.2321 22.0083C24.1744 22.0272 24.1166 22.046 24.0492 22.0648C24.0203 22.0648 23.9818 22.0836 23.9529 22.093C23.7507 22.1495 23.5388 22.2059 23.3174 22.2624C23.2788 22.2718 23.2403 22.2812 23.1922 22.2906C23.1344 22.3094 23.067 22.3188 23.0092 22.3377C22.9611 22.3471 22.9129 22.3565 22.8744 22.3753C22.807 22.3847 22.7492 22.4035 22.6818 22.4223C22.624 22.4317 22.5663 22.4506 22.5085 22.4599C22.4122 22.4882 22.3159 22.507 22.21 22.5258C22.1522 22.5352 22.0945 22.5541 22.0367 22.5634C22.0078 22.5634 21.9885 22.5729 21.9596 22.5823C21.3723 22.714 20.756 22.8269 20.0916 22.9398C20.082 22.9398 20.0627 22.9398 20.0531 22.9398C19.9375 22.9586 19.8123 22.9774 19.6871 22.9963H19.6005C19.4753 23.0245 19.3405 23.0527 19.2153 23.0621C19.2057 23.0621 19.1961 23.0621 19.1864 23.0621C18.4835 23.1656 17.7324 23.2503 16.9525 23.3162C16.8369 23.3256 16.7118 23.335 16.5866 23.3444C16.5769 23.3444 16.5577 23.3444 16.548 23.3444C16.4325 23.3444 16.3073 23.3632 16.1821 23.3726C16.1725 23.3726 16.1533 23.3726 16.1436 23.3726C16.0185 23.3726 15.8933 23.3914 15.7681 23.3914C15.7585 23.3914 15.7488 23.3914 15.7392 23.3914C15.614 23.3914 15.4792 23.4008 15.354 23.4102H15.3444C14.68 23.4385 14.006 23.4573 13.303 23.4573H13.2453C13.0912 23.4573 12.9371 23.4573 12.7734 23.4573C12.7445 23.4573 12.706 23.4573 12.6771 23.4573C12.109 23.4573 11.5313 23.4291 10.9343 23.4008H10.9246C10.0291 23.3538 9.09507 23.2785 8.14179 23.175L9.24914 22.1871C9.24914 22.1871 9.89432 22.3659 10.7802 22.5258C10.6165 21.5661 10.4624 20.7287 10.4432 20.6064H8.70993C8.604 20.8134 6.63004 25.0756 6.39893 25.5648H7.78554C7.86257 25.3955 8.32475 24.3323 8.32475 24.3323H9.76914C9.76914 24.3323 9.91357 25.3673 9.94247 25.5648H11.3098C11.2809 25.4049 11.1461 24.6616 10.992 23.7866C11.9646 23.8431 12.9468 23.8524 13.8519 23.8336C13.9 23.9089 13.9193 23.9842 13.9193 24.0689C13.9193 24.0971 13.9193 24.1253 13.9193 24.1629C13.9 24.2758 13.8423 24.3699 13.746 24.4264C13.5534 24.5487 13.2838 24.5205 13.1008 24.4923C12.6579 24.417 12.3112 24.0971 12.0224 23.8336C11.849 24.1065 11.4735 24.6898 11.3483 24.878C11.8683 25.3296 12.4364 25.6119 13.0334 25.6872C13.64 25.7718 14.2371 25.6401 14.68 25.3296C15.0652 25.0568 15.3059 24.6616 15.3829 24.1724C15.4022 24.0312 15.4118 23.8995 15.4118 23.7772C16.3844 23.7396 17.2028 23.6831 17.7228 23.6361C17.8961 23.7584 17.9828 23.8995 17.9828 24.0594C17.9828 24.0877 17.9828 24.1159 17.9828 24.1536C17.9635 24.2664 17.9058 24.3605 17.8095 24.417C17.6169 24.5393 17.3473 24.5111 17.1643 24.4828C16.7214 24.4076 16.3747 24.0877 16.0859 23.8242C15.9125 24.0971 15.537 24.6804 15.4118 24.8686C15.9318 25.3202 16.4999 25.6025 17.0969 25.6778C17.7036 25.7624 18.3006 25.6307 18.7435 25.3202C19.1287 25.0474 19.379 24.6522 19.4561 24.1629C19.5042 23.8901 19.4946 23.6549 19.4272 23.4385C19.6486 23.4102 19.8605 23.3726 20.0627 23.3444C19.9086 24.3888 19.7642 25.3579 19.7353 25.5366H23.0766C23.1055 25.3202 23.1922 24.7463 23.2403 24.464H21.2086L21.3434 23.5514H23.1825C23.2114 23.3632 23.2788 22.9304 23.3174 22.6481C23.5677 22.5729 23.6929 22.5258 23.6929 22.5258C23.6929 22.5258 24.3188 22.3471 25.118 22.0648C25.0025 22.8363 24.6462 25.2073 24.598 25.5461H26.0424C26.0809 25.2544 26.6009 21.8202 26.6009 21.8202H27.6505C27.6794 21.6038 27.7853 20.9263 27.8238 20.6158C27.2846 20.9075 26.2542 21.3591 24.7906 21.8202" fill="white"/>
<path d="M14.8628 22.8177C14.7376 22.7236 14.5932 22.6389 14.4199 22.5731L14.0444 22.3943H14.0347C13.9095 22.319 13.6303 22.1685 13.6303 21.8956C13.6303 21.7639 13.6784 21.651 13.7748 21.5757C13.8903 21.4817 14.0733 21.444 14.2658 21.4817C14.5162 21.5193 14.7954 21.6698 15.1036 21.9239C15.248 21.651 15.5273 21.143 15.6331 20.9548C15.2769 20.6725 14.9399 20.522 14.4199 20.4373C13.7844 20.3526 13.1777 20.4749 12.754 20.7854C12.3881 21.0488 12.1667 21.4346 12.1089 21.9051C12.0993 21.9803 12.0993 22.065 12.0993 22.1403C12.0993 22.3567 12.1378 22.5542 12.2148 22.7236C12.2437 22.7236 12.2726 22.7236 12.3015 22.7236C12.9466 22.7707 13.8325 22.8083 14.8532 22.8177" fill="white"/>
<path d="M21.6032 21.6892H23.5772C23.6157 21.4728 23.6927 20.8988 23.7409 20.626H20.4573C20.4381 20.7577 20.3129 21.5951 20.1685 22.5548C20.621 22.4983 21.0736 22.4325 21.5165 22.3666L21.6128 21.6986L21.6032 21.6892Z" fill="white"/>
</g>
<defs>
<clipPath id="clip0_266_61460">
<rect width="40" height="40" fill="white"/>
</clipPath>
</defs>
</svg>
