<svg width="40" height="40" viewBox="0 0 40 40" fill="none" xmlns="http://www.w3.org/2000/svg">
<g clip-path="url(#clip0_266_61766)">
<path d="M0 20C0 21.1794 0 21.3093 0.0300075 22.3088C0.0700175 24.8276 0.470118 27.3363 1.23031 29.7451C1.88047 31.6641 2.89072 33.4432 4.21105 34.9825C5.80145 36.6917 7.79195 37.981 10.0025 38.7406C12.2831 39.5202 14.7537 39.9001 19.5549 40H20.4451C25.2463 39.9001 27.7169 39.5202 29.9975 38.7406C32.208 37.981 34.1985 36.6917 35.7889 34.9825C37.1093 33.4432 38.1295 31.6741 38.7697 29.7451C39.5299 27.3363 39.93 24.8376 39.97 22.3088C40 21.3193 40 21.1794 40 20C40 18.8206 40 18.6906 39.97 17.7011C39.93 15.1824 39.5299 12.6736 38.7697 10.2649C38.1195 8.34581 37.1093 6.5667 35.7889 5.02747C34.1985 3.31834 32.208 2.02898 29.9975 1.26936C27.7169 0.479758 25.2463 0.09995 20.4451 0H19.5549C14.7537 0.09995 12.2831 0.479758 10.0025 1.25937C7.79195 2.01899 5.80145 3.30834 4.21105 5.01748C2.89072 6.55671 1.87047 8.32582 1.23031 10.2549C0.470118 12.6736 0.0700175 15.1724 0.0300075 17.7011C0 18.6906 0 18.8306 0 20Z" fill="#0F206C"/>
<path d="M9.30995 16.5723H5.19995C5.19995 16.5723 5.85995 17.2823 5.85995 17.6523V23.5923H9.24995C9.24995 23.5923 12.62 23.5223 12.62 20.1823C12.62 18.3023 11.18 16.7323 9.29995 16.5723M9.29995 22.6023H7.12995V17.5123C7.12995 17.5123 7.89995 17.4623 8.70995 17.4623C10.05 17.4123 11.18 18.4623 11.22 19.8123C11.22 19.9323 11.22 20.0423 11.21 20.1623C11.21 22.6123 9.29995 22.6123 9.29995 22.6123" fill="white"/>
<path d="M18.8801 23.6623H20.3601L16.9801 16.5723H15.2601C15.4901 16.7623 15.6401 17.0323 15.6801 17.3323C15.6801 17.7623 12.8101 23.6623 12.8101 23.6623H13.9301L14.6301 22.1223H18.1401L18.8801 23.6623ZM15.0201 21.2723L16.3501 18.3623L17.7401 21.2723H15.0201Z" fill="white"/>
<path d="M24.4602 16.1225C22.3202 16.0925 20.5602 17.8125 20.5302 19.9525C20.5002 22.0925 22.2202 23.8525 24.3602 23.8825C26.5002 23.9125 28.2602 22.1925 28.2902 20.0525C28.2902 20.0325 28.2902 20.0225 28.2902 20.0025C28.3002 17.8725 26.5902 16.1425 24.4602 16.1225ZM24.3802 22.5625C22.9602 22.5625 21.8202 21.4125 21.8202 19.9925C21.8202 18.5725 22.9702 17.4325 24.3902 17.4325C25.8102 17.4325 26.9502 18.5825 26.9502 20.0025C26.9502 21.4225 25.8002 22.5625 24.3802 22.5625Z" fill="white"/>
<path d="M28.99 16.5723C29.29 16.8323 29.48 17.1923 29.53 17.5823V23.7323H34.8V22.6823H30.94V16.5723H29H28.99Z" fill="white"/>
</g>
<defs>
<clipPath id="clip0_266_61766">
<rect width="40" height="40" fill="white"/>
</clipPath>
</defs>
</svg>
