<svg width="40" height="40" viewBox="0 0 40 40" fill="none" xmlns="http://www.w3.org/2000/svg">
<g clip-path="url(#clip0_266_61481)">
<path d="M0 20C0 21.1694 0 21.3093 0.0300075 22.3088C0.0700175 24.8276 0.470118 27.3363 1.23031 29.7451C1.88047 31.6642 2.89072 33.4433 4.21104 34.9825C5.80146 36.6918 7.79196 37.9811 10.0025 38.7407C12.2831 39.5204 14.7537 39.9 19.5549 40H20.4451C25.2463 39.9 27.7169 39.5204 29.9975 38.7407C32.208 37.9811 34.1985 36.6918 35.7889 34.9825C37.1093 33.4433 38.1296 31.6742 38.7696 29.7451C39.53 27.3363 39.94 24.8376 39.97 22.3088C40 21.3193 40 21.1794 40 20C40 18.8206 40 18.6907 39.97 17.6912C39.94 15.1724 39.53 12.6637 38.7696 10.2549C38.1196 8.33585 37.1093 6.55671 35.7889 5.01749C34.1985 3.30835 32.208 2.01899 29.9975 1.25937C27.7169 0.469766 25.2463 0.0999501 20.4451 0H19.5549C14.7537 0.0999501 12.2831 0.479759 10.0025 1.25937C7.79196 2.01899 5.80146 3.30835 4.21104 5.01749C2.89072 6.55671 1.87047 8.32585 1.23031 10.2549C0.470118 12.6637 0.0700175 15.1724 0.0300075 17.6912C0 18.6807 0 18.8206 0 20Z" fill="#143B9B"/>
<path d="M9.53461 19.8192L11.3444 18.6048V17.2217L7.5 19.8079L11.3444 22.4279V21.0448L9.53461 19.8079V19.8192Z" fill="white"/>
<path d="M32.5 19.8528L20 11.4307L11.3444 17.2328V18.6159L20 12.8137L30.4654 19.8641L20 26.9593L11.3444 21.056V22.4391L20 28.3424L32.5 19.8641V19.8528Z" fill="white"/>
<path d="M23.2487 19.1555L23.9006 19.5827L17.5944 23.9681L20.0562 25.6323L28.5207 19.8301L22.6641 15.8945L20.5733 17.3788L21.3826 17.9186H21.3939L23.2599 19.1555H23.2487ZM22.6641 16.0182L28.3521 19.8414L20.045 25.5311L17.7518 23.9794L24.0692 19.594L20.7419 17.3901L22.6641 16.0295V16.0182Z" fill="white"/>
<path d="M17.7518 23.968L20.0562 25.5197L28.3633 19.83L22.6754 16.0068L20.7419 17.3787L24.0693 19.5826L17.7518 23.968ZM20.8993 17.3787L22.6641 16.1305L28.1835 19.8412L20.045 25.4185L17.9092 23.9792L24.2266 19.5938L20.8993 17.3899V17.3787Z" fill="white"/>
<path d="M16.9087 23.5074L23.2487 19.167L21.3827 17.9301L19.9663 18.8634L18.3476 17.7952L21.8885 15.3664L19.9551 14.0508L11.5018 19.8417L16.9087 23.5074ZM18.1902 19.9766L16.7851 20.9324L15.3125 19.9317L16.7176 18.9759L18.1902 19.9766Z" fill="white"/>
<path d="M23.2487 19.1554L21.3827 17.9072H21.3715L23.2375 19.1554H23.2487Z" fill="white"/>
</g>
<defs>
<clipPath id="clip0_266_61481">
<rect width="40" height="40" fill="white"/>
</clipPath>
</defs>
</svg>
