<svg width="32" height="32" viewBox="0 0 32 32" fill="none" xmlns="http://www.w3.org/2000/svg">
<g clip-path="url(#clip0_266_61257)">
<path d="M0 16.0003C0 16.9423 0 17.0471 0.0225714 17.8471C0.0825714 19.6191 0.269429 21.6528 0.980571 23.7986C1.482 25.3163 2.42486 26.9537 3.36771 27.9854C4.56514 29.3011 6.21886 30.3777 8.00743 30.9908C9.83343 31.6188 11.8091 31.9254 15.6483 32.0003H16.3591C20.2057 31.918 22.174 31.6188 24 30.9908C25.7886 30.3777 27.4349 29.3011 28.6323 27.9854C29.5754 26.9463 30.5183 25.3163 31.0197 23.7986C31.7306 21.6528 31.9251 19.6117 31.9774 17.8471C32 17.0546 32 16.9426 32 16.0003C32 15.058 32 14.9534 31.9774 14.1534C31.9177 12.3814 31.7306 10.3477 31.0197 8.20199C30.5183 6.68428 29.5754 5.04685 28.6323 4.01514C27.4351 2.69914 25.7811 1.62257 24 1.00943C22.174 0.381428 20.1983 0.074857 16.3591 0H15.6483C11.8017 0.0822856 9.83343 0.381428 8.00743 1.00943C6.21886 1.62257 4.57257 2.69914 3.36771 4.01514C2.42486 5.05428 1.48171 6.68428 0.980571 8.20199C0.276857 10.348 0.0822857 12.3817 0.0225714 14.1534C0 14.946 0 15.058 0 16.0003Z" fill="#00C4A6"/>
<mask id="mask0_266_61257" style="mask-type:luminance" maskUnits="userSpaceOnUse" x="5" y="10" width="22" height="12">
<path d="M26.2861 10.8579H5.71472V21.1436H26.2861V10.8579Z" fill="white"/>
</mask>
<g mask="url(#mask0_266_61257)">
<path d="M9.36558 14.5078H5.71472V21.1427H9.36558V14.5078Z" fill="white"/>
<path d="M17.8256 15.2962C15.9691 12.6153 12.8731 10.8579 9.36536 10.8579V14.5079C13.0239 14.5079 16.0005 17.4842 16.0005 21.1428H19.6514C19.6514 17.4842 22.6276 14.5079 26.2862 14.5079V10.8579C22.7785 10.8579 19.6819 12.6153 17.8256 15.2962Z" fill="white"/>
</g>
</g>
<defs>
<clipPath id="clip0_266_61257">
<rect width="32" height="32" fill="white"/>
</clipPath>
</defs>
</svg>
