<svg width="24" height="24" viewBox="0 0 24 24" fill="none" xmlns="http://www.w3.org/2000/svg">
<g clip-path="url(#clip0_266_60715)">
<path d="M0 12C0 12.7065 0 12.785 0.0224456 13.385C0.0617254 14.714 0.207622 16.2393 0.740706 17.8486C1.11667 18.9869 1.82371 20.2149 2.53074 20.9888C3.42857 21.9756 4.66869 22.7831 6.0042 23.2429C7.3734 23.7139 8.8548 23.9439 11.7334 24H12.2666C15.1508 23.9383 16.6266 23.7139 17.9958 23.2429C19.3369 22.7831 20.5714 21.9756 21.4749 20.9888C22.182 20.2094 22.8889 18.9869 23.265 17.8486C23.7979 16.2393 23.9439 14.7084 23.9831 13.385C24 12.7907 24 12.7065 24 12C24 11.2935 24 11.2149 23.9831 10.6149C23.9383 9.28599 23.7979 7.76074 23.265 6.15139C22.8889 5.01309 22.182 3.78504 21.4749 3.01121C20.577 2.0243 19.3369 1.21682 17.9958 0.757009C16.6266 0.285981 15.1452 0.0616821 12.2666 0H11.7334C8.84919 0.0616821 7.3734 0.285981 6.0042 0.757009C4.66307 1.21682 3.42857 2.0243 2.53074 3.01121C1.82371 3.79065 1.11667 5.01309 0.740706 6.15139C0.207622 7.76074 0.0617254 9.28599 0.0224456 10.6149C0 11.2093 0 11.2935 0 12Z" fill="#898D8D"/>
<path d="M6.22369 10.0766L10.0793 6.21436H17.7857V13.5571H13.9323V10.0766H6.22369Z" fill="white"/>
<path d="M10.0699 10.4434H6.21428V17.7857H13.9228L17.7763 13.9225H10.0699V10.4434Z" fill="white"/>
</g>
<defs>
<clipPath id="clip0_266_60715">
<rect width="24" height="24" fill="white"/>
</clipPath>
</defs>
</svg>
