<svg width="40" height="40" viewBox="0 0 40 40" fill="none" xmlns="http://www.w3.org/2000/svg">
<g clip-path="url(#clip0_266_61573)">
<path d="M0 20.005C0 21.1753 0 21.3153 0.0300075 22.3056C0.060015 24.8362 0.470118 27.3368 1.23031 29.7474C1.88047 31.6679 2.89072 33.4484 4.21104 34.9788C5.80146 36.6893 7.79196 37.9796 10.0025 38.7396C12.2831 39.53 14.7537 39.9 19.5549 40H20.4451C25.2463 39.9 27.7169 39.52 29.9975 38.7396C32.208 37.9796 34.1985 36.6893 35.7889 34.9788C37.1093 33.4384 38.1196 31.6679 38.7696 29.7474C39.53 27.3368 39.93 24.8362 39.97 22.3056C40 21.3153 40 21.1753 40 20.005C40 18.8347 40 18.6947 39.97 17.7044C39.93 15.1738 39.53 12.6732 38.7696 10.2626C38.1196 8.34207 37.1093 6.56164 35.7889 5.03125C34.1985 3.32083 32.208 2.03051 29.9975 1.27032C27.7169 0.480121 25.2463 0.100025 20.4451 0H19.5549C14.7537 0.100025 12.2831 0.480121 10.0025 1.26031C7.79196 2.0205 5.80146 3.31083 4.21104 5.02125C2.89072 6.56164 1.87047 8.33207 1.23031 10.2526C0.470118 12.6632 0.0700175 15.1738 0.0300075 17.7044C0 18.6947 0 18.8347 0 20.005Z" fill="#0398E7"/>
<path d="M27.5601 20.8936H20.5142V22.9054H27.5601V20.8936Z" fill="white"/>
<path d="M23.037 9.31152H25.2986L28.5715 19.1322H19.605L21.2756 13.3467H23.5371L22.5256 17.1203H25.8099" fill="white"/>
<path d="M16.2411 20.8936H11.4567V22.9054H15.9911C16.6843 22.9054 17.0025 23.1555 17.0025 23.9171C17.0025 24.6104 16.4343 24.9287 15.7411 24.9287H11.4567V30.7142H13.9796V26.9406H16.2411C17.8094 26.986 19.1163 25.7584 19.1731 24.1898C19.1731 24.133 19.1731 24.0762 19.1731 24.0193C19.3095 22.4394 18.1276 21.0413 16.5479 20.9163C16.4456 20.9163 16.3434 20.9049 16.2411 20.9163" fill="white"/>
<path d="M13.9 14.2787C13.8546 13.0283 14.6842 11.9258 15.9002 11.6189C16.1615 11.5507 16.4343 11.5166 16.707 11.5166H18.7299V9.28876C17.3434 9.26601 15.957 9.39105 14.5932 9.65248C12.5817 10.2436 11.2635 12.1645 11.4453 14.2559C11.2862 16.4611 12.7749 18.4388 14.9342 18.8821C15.6956 19.0753 16.4797 19.1663 17.2639 19.1549H18.7185V16.7907H16.5593C16.4116 16.7907 16.2752 16.7793 16.1274 16.7566C14.8319 16.677 13.8432 15.5744 13.8773 14.2787" fill="white"/>
<path d="M27.5714 26.9289V24.667H20.5255V30.714H27.5714V28.4521H23.037V26.9403H27.5714V26.9289Z" fill="white"/>
</g>
<defs>
<clipPath id="clip0_266_61573">
<rect width="40" height="40" fill="white"/>
</clipPath>
</defs>
</svg>
