<svg width="56" height="56" viewBox="0 0 56 56" fill="none" xmlns="http://www.w3.org/2000/svg">
<g clip-path="url(#clip0_266_61971)">
<path d="M0 28C0 29.6486 0 29.8318 0.039289 31.2318C0.14406 34.3327 0.471469 37.8916 1.71562 41.6467C2.59308 44.3028 4.24322 47.1682 5.89335 48.9739C7.9888 51.2765 10.883 53.1605 14.0131 54.2335C17.2086 55.3325 20.666 55.869 27.3845 56H28.6287C35.3601 55.856 38.8045 55.3325 42 54.2335C45.1301 53.1605 48.0112 51.2765 50.1065 48.9739C51.757 47.1552 53.407 44.3028 54.2845 41.6467C55.5285 37.8916 55.869 34.3196 55.9605 31.2318C56 29.8449 56 29.6486 56 28C56 26.3514 56 26.1682 55.9605 24.7682C55.856 21.6673 55.5285 18.1084 54.2845 14.3532C53.407 11.6972 51.757 8.83175 50.1065 7.02615C48.0112 4.72337 45.117 2.83925 42 1.76636C38.8045 0.66729 35.347 0.130841 28.6287 0H27.3845C20.653 0.143925 17.2086 0.66729 14.0131 1.76636C10.883 2.83925 8.00185 4.72337 5.89335 7.02615C4.24322 8.84485 2.59308 11.6972 1.71562 14.3532C0.484565 18.1084 0.14406 21.6673 0.039289 24.7682C0 26.1551 0 26.3514 0 28Z" fill="#009E9F"/>
<path d="M28 56C43.464 56 56 43.464 56 28C56 12.536 43.464 0 28 0C12.536 0 0 12.536 0 28C0 43.464 12.536 56 28 56Z" fill="#009E9F"/>
<mask id="mask0_266_61971" style="mask-type:luminance" maskUnits="userSpaceOnUse" x="0" y="0" width="56" height="56">
<path d="M28 56C43.464 56 56 43.464 56 28C56 12.536 43.464 0 28 0C12.536 0 0 12.536 0 28C0 43.464 12.536 56 28 56Z" fill="white"/>
</mask>
<g mask="url(#mask0_266_61971)">
<path d="M32.9529 30.6498C32.8848 30.2133 32.7593 29.7877 32.5798 29.3841C32.0682 28.1766 31.1888 27.1612 30.0667 26.4826C29.1821 25.9608 28.1724 25.6887 27.1454 25.6954C26.1184 25.7021 25.1125 25.9873 24.2348 26.5207C23.4154 27.0096 22.7499 27.7189 22.3142 28.5677C22.1681 28.8561 22.0463 29.1562 21.9501 29.4648C21.6827 30.2671 21.5801 31.1151 21.6485 31.9579C21.7168 32.8008 21.9546 33.6212 22.3476 34.3699C22.6207 34.8274 23.0334 35.1851 23.525 35.3904C23.7708 35.489 24.036 35.5298 24.3 35.5097C24.5641 35.4896 24.82 35.4092 25.0481 35.2746C25.301 35.08 25.4902 34.8145 25.5918 34.512C25.6934 34.2094 25.7027 33.8835 25.6185 33.5757C25.4198 32.7942 25.439 31.9732 25.6741 31.2019C25.7632 30.949 25.9069 30.7189 26.0952 30.5279C26.2834 30.3558 26.5072 30.2273 26.7507 30.1514C26.9942 30.0756 27.2514 30.0544 27.5041 30.0893C27.7999 30.1529 28.0766 30.2856 28.3115 30.4764C28.5464 30.6672 28.7329 30.9109 28.8558 31.1875C29.0954 31.7425 29.2198 32.3405 29.2213 32.9451C29.2299 35.6064 28.8339 38.2535 28.047 40.7959C27.977 41.0571 27.9054 41.313 27.8323 41.5726C27.7767 41.7706 27.6739 42.0296 27.8003 42.2185C27.8578 42.2987 27.9371 42.3608 28.0287 42.3974C28.2066 42.4484 28.3959 42.4425 28.5702 42.3807C28.7446 42.3188 28.8953 42.2041 29.0013 42.0524C30.4909 40.4641 31.5891 38.5501 32.2089 36.4627C32.467 35.6974 32.6729 34.9156 32.825 34.1224C33.0631 32.9807 33.1027 31.8065 32.9423 30.6513" fill="white"/>
<path d="M43.999 18.5416C43.9951 18.4539 43.9739 18.3679 43.9366 18.2884C43.8992 18.209 43.8466 18.1377 43.7816 18.0787C43.7166 18.0198 43.6406 17.9742 43.5579 17.9448C43.4752 17.9153 43.3876 17.9026 43.2999 17.9072H43.2733C42.8954 17.9609 42.5288 18.0759 42.188 18.2476C35.2708 20.7132 27.8472 21.4121 20.5913 20.2809C19.3683 20.102 18.1285 19.8567 16.8978 19.6671C16.1287 19.5483 15.3679 19.3732 14.5912 19.3176C13.8935 19.1804 13.1699 19.3167 12.57 19.6983C12.2632 20.0342 12.0726 20.46 12.0265 20.9126C11.9804 21.3652 12.0813 21.8206 12.3141 22.2114C12.8403 23.1038 13.5998 23.8358 14.5111 24.3286C15.3557 24.9268 16.3557 25.267 17.3898 25.3079C20.1237 25.1338 22.8494 24.87 25.5666 24.5167C30.2887 24.1341 34.9411 23.1406 39.4076 21.5611C40.8515 20.9923 42.2128 20.2329 43.4553 19.3031C43.6761 19.134 43.9952 18.8614 43.9952 18.5416" fill="white"/>
<path d="M24.5332 16.2206C24.5332 16.929 24.8146 17.6083 25.3155 18.1092C25.8163 18.61 26.4957 18.8914 27.204 18.8914C27.9123 18.8914 28.5916 18.61 29.0924 18.1092C29.5933 17.6083 29.8747 16.929 29.8747 16.2206C29.8738 16.0018 29.8249 15.7858 29.7316 15.5878C29.5031 15.105 29.2418 14.8696 29.2693 14.2931C29.3028 13.5133 28.2968 13.5019 27.7554 13.5019C27.154 13.4831 26.5563 13.6017 26.0076 13.8484C25.5825 14.0642 25.2214 14.3877 24.9605 14.7866C24.6959 15.1988 24.5492 15.6755 24.5363 16.165V16.2252" fill="white"/>
</g>
</g>
<defs>
<clipPath id="clip0_266_61971">
<rect width="56" height="56" fill="white"/>
</clipPath>
</defs>
</svg>
