<svg width="32" height="32" viewBox="0 0 32 32" fill="none" xmlns="http://www.w3.org/2000/svg">
<g clip-path="url(#clip0_266_61131)">
<path d="M0 16C0 16.9421 0 17.0467 0.0224509 17.8467C0.08232 19.6187 0.269411 21.6523 0.980354 23.7981C1.48176 25.3159 2.4247 26.9533 3.36763 27.9851C4.56503 29.3009 6.21889 30.3774 8.00749 30.9906C9.83349 31.6186 11.8092 31.9251 15.6483 32H16.3592C20.2058 31.9177 22.174 31.6186 24 30.9906C25.7886 30.3774 27.435 29.3009 28.6323 27.9851C29.5754 26.9458 30.5183 25.3159 31.0197 23.7981C31.7306 21.6523 31.9251 19.6112 31.9774 17.8467C32 17.0542 32 16.9421 32 16C32 15.0579 32 14.9533 31.9774 14.1533C31.9177 12.3813 31.7306 10.3477 31.0197 8.20186C30.5183 6.68411 29.5754 5.04671 28.6323 4.01494C27.435 2.69907 25.7811 1.62243 24 1.00935C22.174 0.381309 20.1983 0.0747663 16.3592 0H15.6483C11.8017 0.0822429 9.83349 0.381309 8.00749 1.00935C6.21889 1.62243 4.57249 2.69907 3.36763 4.01494C2.4247 5.0542 1.48176 6.68411 0.980354 8.20186C0.276894 10.3477 0.08232 12.3813 0.0224509 14.1533C0 14.9458 0 15.0579 0 16Z" fill="#003CDC"/>
<path d="M6.70562 15.9149L7.22197 15.2142C6.83862 15.0297 6.44745 14.7495 6.15994 14.3731C5.87214 14.0118 5.68048 13.5693 5.68048 13.0454V12.4404H4.72154V13.0602C4.72154 13.5913 4.53711 14.0632 4.24205 14.469C3.947 14.8822 3.55582 15.2066 3.14285 15.4427L3.71817 16.1141C4.05011 15.9149 4.37448 15.664 4.64022 15.3765C4.89868 15.1035 5.10488 14.8009 5.23034 14.5134C5.53294 15.0739 5.9976 15.5313 6.70562 15.9149ZM8.59417 14.6089H9.66374V13.8347H8.59388V12.2856H7.67908V16.1804H8.59388L8.59417 14.6089ZM4.72154 19.2712H8.59388V16.4461H4.72154V19.2712ZM7.67937 17.2206V18.5042H5.62877V17.2206H7.67937ZM13.433 16.0328L13.9493 15.3172C13.5585 15.1183 13.1676 14.8526 12.8946 14.4986C12.6071 14.1518 12.4299 13.724 12.4299 13.1708V12.4404H11.4562V13.1859C11.4562 13.6875 11.2866 14.13 11.0136 14.5137C10.7406 14.9046 10.3349 15.2438 9.88505 15.5388L10.4528 16.2251C10.8071 16.011 11.1242 15.7308 11.3897 15.4578C11.6481 15.1848 11.8471 14.8973 11.9577 14.6316C12.0756 14.8677 12.2748 15.1259 12.533 15.3692C12.7915 15.6277 13.1083 15.856 13.433 16.0328ZM14.7018 16.2172H15.6166V12.2856H14.7018V13.51H13.4109V14.3214H14.7018V16.2172ZM15.5057 17.7515C15.5057 17.2796 15.314 16.8811 14.9969 16.5936C14.6722 16.3058 14.2223 16.1362 13.6912 16.1362C13.16 16.1362 12.7174 16.3058 12.4003 16.5936C12.0756 16.8811 11.8912 17.2796 11.8912 17.7515C11.8912 18.2458 12.0756 18.6442 12.4003 18.9317C12.7174 19.2047 13.16 19.367 13.6912 19.367C14.2223 19.367 14.6722 19.2047 14.9969 18.9317C15.314 18.6442 15.5057 18.2458 15.5057 17.7515ZM14.606 17.7515C14.606 18.2606 14.2223 18.5998 13.6912 18.5998C13.16 18.5998 12.7912 18.2606 12.7912 17.7518C12.7912 17.2499 13.16 16.9107 13.6912 16.9107C13.9566 16.9107 14.1779 16.9993 14.3475 17.1468C14.4293 17.2248 14.4945 17.3186 14.5389 17.4226C14.5833 17.5265 14.6061 17.6384 14.606 17.7515ZM20.0942 13.2225H21.6357V12.4552H17.4015V13.2225H18.9505C18.8402 13.51 18.5596 13.7758 18.2129 13.9822C17.8661 14.1963 17.4607 14.3656 17.1064 14.4324L17.4828 15.1845C17.8859 15.0902 18.2733 14.9386 18.6334 14.7344C18.9877 14.5355 19.3121 14.2846 19.5258 14.0118C19.7399 14.2773 20.0573 14.5134 20.4186 14.7126C20.7726 14.9115 21.1783 15.0666 21.5692 15.1625L21.9455 14.4248C21.5323 14.3142 21.1045 14.1666 20.7726 13.9602C20.4406 13.7609 20.1827 13.5176 20.0942 13.2225ZM16.5087 16.291H22.5426V15.5165H16.509L16.5087 16.291ZM21.3993 18.113C21.3993 17.6629 21.1928 17.3089 20.8609 17.0507C20.5141 16.8074 20.0567 16.6674 19.5255 16.6674C19.0167 16.6674 18.5521 16.8074 18.2053 17.0507C17.8586 17.2944 17.6448 17.6632 17.6448 18.113C17.6448 18.5852 17.8734 18.9465 18.2274 19.1899C18.5817 19.426 19.0536 19.5442 19.5255 19.5442C19.9902 19.5442 20.4549 19.4187 20.8092 19.1826C21.1635 18.9465 21.3993 18.5852 21.3993 18.113ZM20.5141 18.113C20.5141 18.3195 20.4035 18.4891 20.2266 18.6073C20.0495 18.7252 19.7985 18.799 19.5255 18.799C18.9354 18.799 18.5297 18.526 18.5297 18.113C18.5297 17.7001 18.9354 17.4123 19.5258 17.4123C19.7988 17.4123 20.0495 17.486 20.2263 17.604C20.4035 17.7294 20.5141 17.9066 20.5141 18.113ZM23.0447 14.9487L23.133 15.7746C23.6473 15.7601 24.1613 15.738 24.6748 15.7084V16.7042H25.5745V15.6492C26.3418 15.5902 27.0943 15.5165 27.8467 15.4279V16.0552H26.4745V16.7484H27.8467V17.5157H28.754V12.2856H27.8467V14.6902C27.5293 14.7271 27.2121 14.7568 26.8878 14.7861C26.9909 14.1443 27.0353 13.4955 27.0277 12.861V12.6248H23.5907V13.4142H26.0987C26.1132 13.842 26.0767 14.329 26.0029 14.8526C25.0291 14.9191 24.0406 14.9484 23.0447 14.9484V14.9487ZM24.7779 19.1457H28.8571V18.364H25.6779V17.1024H24.7779V19.1457Z" fill="white"/>
</g>
<defs>
<clipPath id="clip0_266_61131">
<rect width="32" height="32" fill="white"/>
</clipPath>
</defs>
</svg>
