<svg width="40" height="40" viewBox="0 0 40 40" fill="none" xmlns="http://www.w3.org/2000/svg">
<g clip-path="url(#clip0_266_61660)">
<mask id="mask0_266_61660" style="mask-type:luminance" maskUnits="userSpaceOnUse" x="0" y="0" width="40" height="40">
<path d="M40 0H0V40H40V0Z" fill="white"/>
</mask>
<g mask="url(#mask0_266_61660)">
<path d="M0 20.001C0 21.1786 0 21.3094 0.028057 22.3094C0.102876 24.5243 0.336684 27.0664 1.22516 29.7486C1.85176 31.6458 3.03016 33.6925 4.20855 34.9823C5.70493 36.627 7.7718 37.973 10.007 38.7393C12.289 39.5244 14.758 39.9074 19.5557 40.001H20.4442C25.2513 39.8981 27.711 39.5244 29.9929 38.7393C32.2282 37.973 34.2857 36.627 35.7915 34.9823C36.9697 33.6832 38.1481 31.6458 38.7747 29.7486C39.6631 27.0664 39.9064 24.515 39.9718 22.3094C40 21.3187 40 21.1786 40 20.001C40 18.8234 40 18.6925 39.9718 17.6926C39.8971 15.4776 39.6631 12.9356 38.7747 10.2533C38.1481 8.3561 36.9697 6.30937 35.7915 5.01967C34.295 3.37481 32.2282 2.02901 29.9929 1.26266C27.711 0.477612 25.242 0.0944344 20.4442 0.000976562H19.5557C14.7486 0.10378 12.289 0.477612 10.007 1.26266C7.7718 2.02901 5.71429 3.37481 4.20855 5.01967C3.03016 6.31873 1.85176 8.3561 1.22516 10.2533C0.346036 12.9356 0.102876 15.4776 0.028057 17.6926C0 18.6832 0 18.8234 0 20.001Z" fill="#E3333F"/>
<path d="M31.7534 23.3119L29.4252 20.5088H29.4065L28.78 21.957C28.78 21.957 28.78 21.9758 28.78 21.9851L29.7992 23.2745C29.874 23.3679 29.9488 23.396 30.0704 23.396" fill="white"/>
<path d="M30.0983 16.6123C29.1166 16.6123 28.5929 16.9113 28.2937 17.5373L26.4424 21.798C26.3302 22.0503 26.1713 22.1718 25.844 22.1718V16.6777C25.844 16.6777 25.8159 16.6123 25.7692 16.6123H24.4134C24.4134 16.6123 24.3386 16.6403 24.3386 16.6777V23.265C24.3386 23.3304 24.3947 23.3864 24.4695 23.3864H25.9936C26.9754 23.3864 27.4242 23.0874 27.7234 22.4614L29.5467 18.2568C29.6963 17.9578 29.902 17.827 30.3321 17.827" fill="white"/>
<path d="M13.7262 20.0045C14.2686 19.7895 14.7267 19.313 14.7267 18.5188C14.7267 17.3322 13.6421 16.6221 12.3518 16.6221H8.33121C8.33121 16.6221 8.25643 16.6501 8.25643 16.6875V17.762C8.25643 17.762 8.28446 17.8274 8.33121 17.8274H12.0713C12.6697 17.8274 13.0811 18.1731 13.0811 18.6029C13.0811 19.0327 12.6697 19.3784 12.0713 19.3784H9.84593V18.5749C9.84593 18.5749 9.81789 18.5095 9.77114 18.5095H8.32186C8.32186 18.5095 8.24707 18.5375 8.24707 18.5749V23.3214C8.24707 23.3214 8.27511 23.3868 8.32186 23.3868H12.2863C13.7637 23.3868 14.8296 22.7421 14.8296 21.4153C14.8296 20.7613 14.4182 20.2287 13.7262 20.0045ZM12.1461 22.2095H9.84593V20.6211H12.1461C12.7632 20.6211 13.184 20.9762 13.184 21.4153C13.184 21.8545 12.7632 22.2095 12.1461 22.2095Z" fill="white"/>
<path d="M17.3823 18.5088H16.0172C16.0172 18.5088 15.9424 18.5368 15.9424 18.5742V23.3208C15.9424 23.3208 15.9704 23.3862 16.0172 23.3862H17.3823C17.3823 23.3862 17.4571 23.3581 17.4571 23.3208V18.5742C17.4571 18.5742 17.4291 18.5088 17.3823 18.5088Z" fill="white"/>
<path d="M22.9737 16.6119H21.6179C21.6179 16.6119 21.5431 16.6399 21.5431 16.6773V22.1713C21.2252 22.1713 21.0663 22.0499 20.9541 21.7976L19.1027 17.5369C18.8035 16.9109 18.2799 16.6119 17.2982 16.6119H16.0172C16.0172 16.6119 15.9424 16.6399 15.9424 16.6773V17.7518C15.9424 17.7518 15.9704 17.8172 16.0172 17.8172H17.0551C17.4852 17.8172 17.7002 17.948 17.8405 18.247L19.6637 22.4516C19.963 23.0777 20.4118 23.3766 21.3935 23.3766H22.9176C22.9831 23.3766 23.0392 23.3206 23.0392 23.2552V16.6679C23.0392 16.6679 23.0111 16.6025 22.9643 16.6025" fill="white"/>
</g>
</g>
<defs>
<clipPath id="clip0_266_61660">
<rect width="40" height="40" fill="white"/>
</clipPath>
</defs>
</svg>
