<svg width="24" height="24" viewBox="0 0 24 24" fill="none" xmlns="http://www.w3.org/2000/svg">
<g clip-path="url(#clip0_266_61039)">
<path d="M0 12C0 12.7076 0 12.7856 0.0180045 13.3853C0.0420105 14.8965 0.282071 16.4018 0.738185 17.8471C1.12828 18.9985 1.73443 20.0659 2.52663 20.9895C3.48087 22.015 4.67517 22.7886 6.0015 23.2444C7.36984 23.7121 8.85221 23.94 11.7329 24H12.2671C15.1478 23.94 16.6302 23.7121 17.9985 23.2444C19.3248 22.7886 20.5191 22.015 21.4734 20.9895C22.2656 20.0659 22.8777 19.0045 23.2618 17.8471C23.7179 16.4018 23.958 14.9025 23.982 13.3853C24 12.7916 24 12.7076 24 12C24 11.2923 24 11.2144 23.982 10.6207C23.958 9.10943 23.7179 7.60419 23.2618 6.15891C22.8717 5.00749 22.2656 3.94002 21.4734 3.01648C20.5191 1.991 19.3248 1.21739 17.9985 0.761618C16.6302 0.287855 15.1478 0.05997 12.2671 0H11.7329C8.85221 0.05997 7.36984 0.287855 6.0015 0.755621C4.67517 1.21139 3.48087 1.98501 2.52663 3.01049C1.73443 3.93403 1.12228 4.99549 0.738185 6.15291C0.282071 7.60419 0.0420105 9.10344 0.0180045 10.6207C0 11.2144 0 11.2983 0 12Z" fill="#0F206C"/>
<path d="M5.58587 9.94238H3.11987C3.11987 9.94238 3.51587 10.3684 3.51587 10.5904V14.1544H5.54987C5.54987 14.1544 7.57187 14.1124 7.57187 12.1084C7.57187 10.9804 6.70787 10.0384 5.57987 9.94238M5.57987 13.5604H4.27787V10.5064C4.27787 10.5064 4.73987 10.4764 5.22587 10.4764C6.02987 10.4464 6.70787 11.0764 6.73187 11.8864C6.73187 11.9584 6.73187 12.0244 6.72587 12.0964C6.72587 13.5664 5.57987 13.5664 5.57987 13.5664" fill="white"/>
<path d="M11.328 14.1959H12.216L10.188 9.94189H9.15604C9.29404 10.0559 9.38404 10.2179 9.40804 10.3979C9.40804 10.6559 7.68604 14.1959 7.68604 14.1959H8.35804L8.77804 13.2719H10.884L11.328 14.1959ZM9.01204 12.7619L9.81004 11.0159L10.644 12.7619H9.01204Z" fill="white"/>
<path d="M14.6761 9.67211C13.3921 9.65411 12.3361 10.6861 12.3181 11.9701C12.3001 13.2541 13.3321 14.3101 14.6161 14.3281C15.9001 14.3461 16.9561 13.3141 16.9741 12.0301C16.9741 12.0181 16.9741 12.0121 16.9741 12.0001C16.9801 10.7221 15.9541 9.68411 14.6761 9.67211ZM14.6281 13.5361C13.7761 13.5361 13.0921 12.8461 13.0921 11.9941C13.0921 11.1421 13.7821 10.4581 14.6341 10.4581C15.4861 10.4581 16.1701 11.1481 16.1701 12.0001C16.1701 12.8521 15.4801 13.5361 14.6281 13.5361Z" fill="white"/>
<path d="M17.394 9.94189C17.574 10.0979 17.688 10.3139 17.718 10.5479V14.2379H20.88V13.6079H18.564V9.94189H17.4H17.394Z" fill="white"/>
</g>
<defs>
<clipPath id="clip0_266_61039">
<rect width="24" height="24" fill="white"/>
</clipPath>
</defs>
</svg>
