<svg width="56" height="56" viewBox="0 0 56 56" fill="none" xmlns="http://www.w3.org/2000/svg">
<g clip-path="url(#clip0_266_61786)">
<path d="M0 28C0 29.6486 0 29.8318 0.039289 31.2318C0.14406 34.3327 0.471469 37.8916 1.71562 41.6467C2.59308 44.3028 4.24322 47.1682 5.89335 48.9739C7.98875 51.2765 10.883 53.1605 14.0131 54.2335C17.2086 55.3325 20.666 55.869 27.3845 56H28.6287C35.3602 55.856 38.8045 55.3325 42 54.2335C45.1301 53.1605 48.0112 51.2765 50.1065 48.9739C51.757 47.1552 53.407 44.3028 54.2845 41.6467C55.5285 37.8916 55.869 34.3196 55.9605 31.2318C56 29.8449 56 29.6486 56 28C56 26.3514 56 26.1682 55.9605 24.7682C55.856 21.6673 55.5285 18.1084 54.2845 14.3532C53.407 11.6972 51.757 8.83175 50.1065 7.02615C48.0112 4.72336 45.117 2.83925 42 1.76636C38.8045 0.66729 35.3471 0.130841 28.6287 0H27.3845C20.653 0.143925 17.2086 0.66729 14.0131 1.76636C10.883 2.83925 8.00185 4.72336 5.89335 7.02615C4.24322 8.84485 2.59308 11.6972 1.71562 14.3532C0.484565 18.1084 0.14406 21.6673 0.039289 24.7682C0 26.1552 0 26.3514 0 28Z" fill="#0062B5"/>
<path d="M43.7778 20.9016H41.5938V26.5397H32.6478V20.9016H30.4638C29.9038 20.9576 29.4838 21.4473 29.5258 22.0209V33.9405C29.4838 34.5141 29.9038 35.0038 30.4638 35.0597H32.6478V28.988H41.5938V35.0457H43.7778C44.3518 34.9898 44.7578 34.5001 44.7158 33.9265V22.0069C44.7578 21.4333 44.3378 20.9436 43.7778 20.8877" fill="white"/>
<path d="M25.8721 20.9014H23.6881V31.7438L17.1081 23.0838C16.0161 21.8247 15.2601 20.9014 13.5101 20.9014H11.2841V33.9402C11.2421 34.5138 11.6621 35.0035 12.2221 35.0594H14.4061V24.1611L21.0281 32.765C22.1481 34.0521 23.1421 35.0594 24.7661 35.0594H26.8101V22.0206C26.8521 21.447 26.4321 20.9573 25.8721 20.9014Z" fill="white"/>
</g>
<defs>
<clipPath id="clip0_266_61786">
<rect width="56" height="56" fill="white"/>
</clipPath>
</defs>
</svg>
