<svg width="32" height="32" viewBox="0 0 32 32" fill="none" xmlns="http://www.w3.org/2000/svg">
<g clip-path="url(#clip0_266_61076)">
<path d="M0 16C0 16.9421 0 17.0467 0.0299274 17.8467C0.0823006 19.6187 0.27683 21.6523 0.987609 23.7981C1.48889 25.3159 2.43161 26.9533 3.37431 27.9851C4.57143 29.3009 6.22491 30.3774 8.0056 30.9906C9.8312 31.6186 11.8064 31.9251 15.6446 32H16.3554C20.2011 31.9177 22.1688 31.6186 23.9944 30.9906C25.7825 30.3774 27.4286 29.3009 28.6331 27.9851C29.576 26.9458 30.5186 25.3159 31.02 23.7981C31.7306 21.6523 31.9251 19.6112 31.9774 17.8467C32 17.0542 32 16.9421 32 16C32 15.0579 32 14.9533 31.9774 14.1533C31.9177 12.3813 31.7306 10.3477 31.02 8.20186C30.5186 6.68411 29.576 5.04671 28.6331 4.01494C27.4361 2.69907 25.7825 1.62243 23.9944 1.00935C22.1688 0.381309 20.1936 0.0822429 16.3554 0H15.6446C11.7989 0.0822429 9.8312 0.381309 8.0056 1.00935C6.21743 1.62243 4.57143 2.69907 3.37431 4.01494C2.43161 5.0542 1.48889 6.68411 0.987609 8.20186C0.27683 10.3477 0.0823006 12.3813 0.0299274 14.1533C0 14.9458 0 15.0579 0 16Z" fill="#898D8D"/>
<path d="M8.29826 13.4352L13.4391 8.28564H23.7143V18.076H18.5763V13.4352H8.29826Z" fill="white"/>
<path d="M13.4266 13.9243H8.28572V23.7141H18.5638L23.7018 18.5632H13.4266V13.9243Z" fill="white"/>
</g>
<defs>
<clipPath id="clip0_266_61076">
<rect width="32" height="32" fill="white"/>
</clipPath>
</defs>
</svg>
