<svg width="32" height="32" viewBox="0 0 32 32" fill="none" xmlns="http://www.w3.org/2000/svg">
<g clip-path="url(#clip0_266_61153)">
<path d="M0 16C0 16.9421 0 17.0467 0.0224509 17.8467C0.08232 19.6187 0.269411 21.6523 0.980354 23.7981C1.48176 25.3159 2.4247 26.9533 3.36763 27.9851C4.56503 29.3009 6.21889 30.3774 8.00749 30.9906C9.83349 31.6186 11.8092 31.9251 15.6483 32H16.3592C20.2058 31.9177 22.174 31.6186 24 30.9906C25.7886 30.3774 27.435 29.3009 28.6323 27.9851C29.5754 26.9458 30.5183 25.3159 31.0197 23.7981C31.7306 21.6523 31.9251 19.6112 31.9774 17.8467C32 17.0542 32 16.9421 32 16C32 15.0579 32 14.9533 31.9774 14.1533C31.9177 12.3813 31.7306 10.3477 31.0197 8.20186C30.5183 6.68411 29.5754 5.04671 28.6323 4.01494C27.435 2.69907 25.7811 1.62243 24 1.00935C22.174 0.381309 20.1983 0.0747663 16.3592 0H15.6483C11.8017 0.0822429 9.83349 0.381309 8.00749 1.00935C6.21889 1.62243 4.57249 2.69907 3.36763 4.01494C2.4247 5.0542 1.48176 6.68411 0.980354 8.20186C0.276894 10.3477 0.08232 12.3813 0.0224509 14.1533C0 14.9458 0 15.0579 0 16Z" fill="#D80029"/>
<mask id="mask0_266_61153" style="mask-type:luminance" maskUnits="userSpaceOnUse" x="4" y="6" width="24" height="20">
<path d="M28 6.57129H4V25.5713H28V6.57129Z" fill="white"/>
</mask>
<g mask="url(#mask0_266_61153)">
<path d="M7.531 20.5157C6.86349 20.1997 6.31549 19.9447 6.31549 19.4287C6.31549 19.0342 6.627 18.7472 7.24349 18.7472C7.4462 18.7486 7.64831 18.7695 7.847 18.8097C7.94446 18.8285 8.04329 18.8393 8.14249 18.8422C8.68049 18.8422 8.98449 18.5172 9.18649 17.9012L9.27049 17.6512C8.6012 17.3717 7.88377 17.2257 7.15849 17.2212C5.334 17.2212 4.37149 18.4072 4.37149 19.6352C4.3536 20.1538 4.52894 20.6606 4.86349 21.0572C5.27523 21.4874 5.7696 21.8299 6.317 22.0642C7.067 22.4372 7.74649 22.7142 7.74649 23.2642C7.74649 23.7547 7.24649 24.0337 6.576 24.0337C5.926 24.0023 5.29637 23.7968 4.753 23.4387L4 24.8712C4.81883 25.3476 5.75286 25.5898 6.7 25.5712C8.4 25.5712 9.69149 24.5827 9.69149 23.0627C9.69149 21.5507 8.497 20.9902 7.529 20.5157" fill="white"/>
<path d="M14.1906 21.2211L17.2786 17.3901H15.0786L12.6151 20.6966H12.5786V17.3906H10.7651V25.5066H10.8731C11.1022 25.5297 11.3336 25.5021 11.5507 25.4256C11.7679 25.3491 11.9655 25.2256 12.1295 25.064C12.2936 24.9023 12.4199 24.7065 12.4996 24.4905C12.5793 24.2745 12.6104 24.0435 12.5906 23.8141V21.9506H12.6271L15.1376 25.4051H17.4456L14.1906 21.2211Z" fill="white"/>
<path d="M17.3816 8.69677C16.9596 8.76637 16.5736 8.97675 16.2864 9.29372C15.9993 9.61066 15.8279 10.0155 15.8001 10.4423C15.8001 11.3843 16.5636 11.9553 16.5656 13.1888C16.5709 13.5695 16.4769 13.9449 16.2927 14.2781C16.1086 14.6113 15.8407 14.8907 15.5156 15.0888C15.7366 15.0688 15.9791 15.0563 16.2451 15.0553C16.5516 15.0508 16.858 15.0695 17.1616 15.1113L20.0261 11.5543C19.306 10.4639 18.4126 9.49852 17.3811 8.69629" fill="white"/>
<path d="M19.7875 18.3017C20.1485 17.7337 20.194 16.8287 20.2246 15.9062C20.2586 15.0462 20.4356 14.3992 21.5746 14.3947C21.8246 14.3947 22.0666 14.4292 22.501 14.4277C23.7112 14.423 24.8971 14.0881 25.931 13.4592C24.1685 12.3091 22.1304 11.6514 20.028 11.5542C19.8645 12.0197 18.5965 15.5887 18.5005 15.8767C18.6959 16.1131 18.868 16.3678 19.0146 16.6372C19.3321 17.1623 19.5918 17.7202 19.789 18.3012" fill="white"/>
<path d="M13.7371 15.3868C13.5921 15.3868 13.5206 15.2903 13.5006 15.1213C13.4806 14.9523 12.7656 8.32131 12.6591 7.31831C12.6436 7.17179 12.6091 6.90231 12.6091 6.80631C12.606 6.77636 12.6094 6.74616 12.6188 6.71762C12.6283 6.68908 12.6437 6.66285 12.664 6.64065C12.6843 6.61848 12.709 6.60082 12.7366 6.58888C12.7642 6.57691 12.794 6.57093 12.8241 6.57131C14.33 6.85299 15.7503 7.47913 16.9741 8.40079C16.5299 8.51548 16.1352 8.77156 15.8494 9.13036C15.5637 9.48919 15.4024 9.93125 15.3901 10.3898C15.3936 11.4808 16.1656 12.0813 16.1696 13.1758C16.1756 14.9558 14.1536 15.3863 13.7351 15.3868" fill="white"/>
<path d="M19.9501 18.7754C19.974 18.8444 20.0038 18.9113 20.0391 18.9754C20.0549 19.0088 20.0799 19.0372 20.1111 19.0571C20.1423 19.077 20.1785 19.0876 20.2156 19.0878C20.2724 19.0841 20.328 19.0692 20.3791 19.0438C20.5291 18.9734 26.5121 16.1558 27.4141 15.7348C27.5451 15.6714 27.7931 15.5594 27.8746 15.5108C27.9111 15.4933 27.942 15.466 27.9642 15.4321C27.9863 15.3982 27.9987 15.3588 28.0001 15.3184C27.9994 15.2765 27.9875 15.2355 27.9656 15.1998C27.491 14.6236 26.9316 14.1227 26.3066 13.7144C25.178 14.4129 23.8812 14.7922 22.5541 14.8118C22.1171 14.8118 22.0181 14.7828 21.7191 14.7838C20.8481 14.7868 20.6306 15.1638 20.5986 15.9368C20.5931 16.0828 20.5906 16.2794 20.5821 16.4948C20.6127 17.3021 20.3918 18.099 19.9501 18.7754Z" fill="white"/>
</g>
</g>
<defs>
<clipPath id="clip0_266_61153">
<rect width="32" height="32" fill="white"/>
</clipPath>
</defs>
</svg>
