<svg width="24" height="24" viewBox="0 0 24 24" fill="none" xmlns="http://www.w3.org/2000/svg">
<g clip-path="url(#clip0_266_60828)">
<path d="M0 12C0 12.7065 0 12.785 0.0168342 13.385C0.0617254 14.714 0.202011 16.2393 0.735094 17.8486C1.11106 18.9869 1.8181 20.2149 2.52514 20.9888C3.42296 21.9756 4.66307 22.7831 6.0042 23.2429C7.3734 23.7139 8.8548 23.9439 11.7334 24H12.2666C15.1508 23.9383 16.6266 23.7139 17.9958 23.2429C19.3369 22.7831 20.5714 21.9756 21.4749 20.9888C22.182 20.2094 22.8834 18.9869 23.265 17.8486C23.7979 16.2393 23.9439 14.7084 23.9831 13.385C24 12.7907 24 12.7065 24 12C24 11.2935 24 11.2149 23.9831 10.6149C23.9383 9.28599 23.7979 7.76074 23.265 6.15139C22.8834 5.01309 22.182 3.78504 21.4749 3.01121C20.577 2.0243 19.3369 1.21682 17.9958 0.757009C16.6266 0.285981 15.1452 0.0560747 12.2666 0H11.7334C8.8548 0.0616821 7.3734 0.285981 6.0042 0.757009C4.66307 1.21682 3.42857 2.0243 2.52514 3.01121C1.8181 3.79065 1.11106 5.01309 0.735094 6.15139C0.207622 7.76074 0.0617254 9.28599 0.0168342 10.6149C0 11.2093 0 11.2935 0 12Z" fill="#0480CC"/>
<path d="M5.57141 12.1735C5.57141 12.0759 5.65035 11.9905 5.74753 11.9905L9.09393 11.9722C9.19108 11.9722 9.27611 12.0515 9.27611 12.1491C9.27611 12.1735 9.27611 12.1979 9.26396 12.2162L7.61812 16.329C7.59382 16.39 7.527 16.4388 7.45413 16.4388C7.40555 16.4388 7.36303 16.4144 7.32658 16.39C7.32658 16.39 7.32052 16.39 7.32052 16.3839C6.28807 15.2795 5.63214 13.8089 5.57141 12.1796V12.1735Z" fill="white"/>
<path d="M9.11219 17.5375L11.0981 12.5826C11.0981 12.5826 11.0981 12.5826 11.0981 12.5765C11.2378 12.2165 11.5901 11.9541 12.0031 11.9541C12.3918 11.9541 12.7258 12.1738 12.8837 12.5033L14.9729 17.507C14.9729 17.507 14.9851 17.5558 14.9851 17.5802C14.9851 17.6473 14.9486 17.7022 14.9 17.7388C14.9 17.7388 14.9 17.7388 14.894 17.7388C14.0437 18.1721 13.072 18.4162 12.0517 18.4284C11.0253 18.4345 10.0596 18.2026 9.19721 17.7815C9.14255 17.751 9.10004 17.69 9.10004 17.6229C9.10004 17.5985 9.10004 17.5802 9.11219 17.5558" fill="white"/>
<path d="M14.7483 12.1796C14.7483 12.1796 14.7361 12.1308 14.73 12.1064C14.73 12.0088 14.809 11.9233 14.9062 11.9233L18.2526 11.8989C18.3497 11.8989 18.4287 11.9783 18.4287 12.0759C18.3983 13.7051 17.7606 15.1879 16.7403 16.3107C16.7039 16.3412 16.6614 16.3656 16.6128 16.3656C16.5399 16.3656 16.4731 16.3229 16.4488 16.2558L14.7483 12.1674V12.1796Z" fill="white"/>
<path d="M17.9124 10.0563L13.9951 10.0868H13.9769C13.9101 10.0868 13.8494 10.038 13.8251 9.97696L13.5093 9.2203C13.0781 8.10363 12.8716 7.03578 12.8716 6.05335V5.75435C12.8716 5.65672 12.9445 5.57129 13.0477 5.57129H13.072H13.0781C15.4041 5.96791 17.3112 7.62157 18.0703 9.8183C18.0703 9.8183 18.0764 9.8549 18.0764 9.87931C18.0764 9.97696 17.9974 10.0563 17.9003 10.0563" fill="white"/>
<path d="M10.4482 9.23861L10.1446 10.0014C10.1203 10.0563 10.0717 10.099 10.017 10.1112H9.99882H9.9806L6.05727 10.1417C5.954 10.1417 5.87506 10.0624 5.87506 9.95865C5.87506 9.94033 5.87506 9.92203 5.88721 9.90373C6.616 7.7009 8.49871 6.01063 10.8248 5.5835C10.8248 5.5835 10.843 5.5835 10.8491 5.5835C10.9463 5.5835 11.0313 5.66282 11.0313 5.76045V6.06555C11.0495 7.04799 10.8612 8.11584 10.4422 9.23861" fill="white"/>
</g>
<defs>
<clipPath id="clip0_266_60828">
<rect width="24" height="24" fill="white"/>
</clipPath>
</defs>
</svg>
