<svg width="32" height="32" viewBox="0 0 32 32" fill="none" xmlns="http://www.w3.org/2000/svg">
<g clip-path="url(#clip0_266_61137)">
<path d="M0 16C0 16.9421 0 17.0467 0.0224509 17.8467C0.08232 19.6187 0.269411 21.6523 0.980354 23.7981C1.48176 25.3159 2.4247 26.9533 3.36763 27.9851C4.56503 29.3009 6.21889 30.3774 8.00749 30.9906C9.83349 31.6186 11.8092 31.9251 15.6483 32H16.3592C20.2058 31.9177 22.174 31.6186 24 30.9906C25.7886 30.3774 27.435 29.3009 28.6323 27.9851C29.5754 26.9458 30.5183 25.3159 31.0197 23.7981C31.7306 21.6523 31.9251 19.6112 31.9774 17.8467C32 17.0542 32 16.9421 32 16C32 15.0579 32 14.9533 31.9774 14.1533C31.9177 12.3813 31.7306 10.3477 31.0197 8.20186C30.5183 6.68411 29.5754 5.04671 28.6323 4.01494C27.435 2.69907 25.7811 1.62243 24 1.00935C22.174 0.381309 20.1983 0.0747663 16.3592 0H15.6483C11.8017 0.0822429 9.83349 0.381309 8.00749 1.00935C6.21889 1.62243 4.57249 2.69907 3.36763 4.01494C2.4247 5.0542 1.48176 6.68411 0.980354 8.20186C0.276894 10.3477 0.08232 12.3813 0.0224509 14.1533C0 14.9458 0 15.0579 0 16Z" fill="#457C26"/>
<path d="M23.2695 17.8011L22.2189 17.0921C21.8783 17.3437 21.4678 17.4832 21.0444 17.491C20.6209 17.4989 20.2056 17.3749 19.8559 17.136C19.8559 17.136 16.6629 14.9787 16.3675 14.7747C16.1973 14.6541 15.9939 14.5894 15.7853 14.5894C15.5767 14.5894 15.3733 14.6541 15.2031 14.7747L11.7029 17.1413C11.353 17.3798 10.9377 17.5037 10.5143 17.4958C10.091 17.488 9.68054 17.3487 9.33977 17.0974L8.28971 17.8064C7.86508 18.1017 7.57079 18.5495 7.46811 19.0564C7.36542 19.5634 7.46231 20.0904 7.73854 20.5277C7.86982 20.7422 8.04317 20.9279 8.24817 21.0736C8.45319 21.2193 8.68557 21.3219 8.93134 21.3753C9.17711 21.4287 9.43117 21.4318 9.67814 21.3843C9.92514 21.3368 10.1599 21.2398 10.3684 21.0991L15.2432 17.8024C15.3971 17.6834 15.5861 17.6189 15.7807 17.6189C15.9753 17.6189 16.1643 17.6834 16.3182 17.8024L21.1917 21.0991C21.4001 21.24 21.6349 21.3372 21.882 21.3847C22.129 21.4323 22.3831 21.4293 22.6289 21.3759C22.8747 21.3225 23.1071 21.2198 23.3121 21.074C23.5171 20.9282 23.6904 20.7424 23.8216 20.5277C24.0982 20.0904 24.1954 19.5632 24.0929 19.0559C23.9903 18.5487 23.696 18.1006 23.2713 17.805L23.2695 17.8011Z" fill="white"/>
<path d="M15.4221 11.6939C15.532 11.6246 15.6592 11.5879 15.7891 11.5879C15.919 11.5879 16.0462 11.6246 16.1562 11.6939C16.3557 11.8174 18.4788 13.2728 18.4788 13.2728C18.8117 13.499 19.2119 13.6049 19.6132 13.5729C20.0144 13.5409 20.3928 13.373 20.6858 13.097L21.8911 13.9123C22.2518 14.1637 22.5016 14.5446 22.5887 14.9756C22.6757 15.4066 22.5933 15.8545 22.3584 16.2262C22.2466 16.4085 22.0991 16.5662 21.9247 16.6899C21.7503 16.8136 21.5526 16.9007 21.3436 16.9459C21.1346 16.9911 20.9188 16.9934 20.7089 16.9529C20.4989 16.9123 20.2994 16.8295 20.1223 16.7097C20.1223 16.7097 16.6604 14.373 16.3241 14.173C16.1621 14.0724 15.9752 14.0191 15.7845 14.0191C15.5938 14.0191 15.4069 14.0724 15.2449 14.173C14.9641 14.3457 11.4296 16.7053 11.4296 16.7053C11.0691 16.9359 10.632 17.0145 10.2138 16.9239C9.79561 16.8333 9.43018 16.5809 9.19744 16.2218C8.96344 15.8505 8.88141 15.4034 8.96844 14.9733C9.05544 14.5431 9.30478 14.163 9.66469 13.9119L10.8713 13.097C11.1641 13.3733 11.5425 13.5414 11.9438 13.5734C12.3452 13.6053 12.7455 13.4993 13.0784 13.2728C13.0784 13.2728 15.2133 11.8257 15.4221 11.6939Z" fill="white"/>
<path d="M16.197 11.1036L18.7505 12.8438C18.9002 12.9347 19.0667 12.9944 19.2401 13.0193C19.4136 13.0441 19.5903 13.0337 19.7595 12.9885C19.9288 12.9434 20.0871 12.8644 20.2251 12.7564C20.3631 12.6485 20.4777 12.5137 20.5623 12.3603C20.7304 12.0655 20.7858 11.7197 20.7182 11.3871C20.6506 11.0545 20.4647 10.7577 20.1948 10.5519L16.1746 7.83457C16.0577 7.75745 15.9208 7.71631 15.7808 7.71631C15.6407 7.71631 15.5038 7.75745 15.3869 7.83457L11.3601 10.5519C11.0733 10.7703 10.8817 11.0909 10.8252 11.4469C10.7687 11.803 10.8517 12.1671 11.0568 12.4636C11.2433 12.7395 11.5291 12.9329 11.8545 13.0037C12.18 13.0745 12.5202 13.0173 12.8045 12.8438L15.3949 11.1036C15.5082 11.0126 15.6492 10.963 15.7946 10.963C15.94 10.963 16.081 11.0126 16.1943 11.1036H16.197Z" fill="white"/>
<path d="M18.5205 23.2927L16.4305 19.7603C16.3972 19.6726 16.3468 19.5924 16.2821 19.5244C16.2173 19.4565 16.1397 19.4022 16.0537 19.3647C15.9677 19.3272 15.875 19.3073 15.7812 19.3062C15.6874 19.3051 15.5942 19.3227 15.5073 19.3581C15.4191 19.396 15.3394 19.4511 15.2727 19.5201C15.2059 19.5892 15.1536 19.6709 15.1188 19.7603L13.0287 23.2927C12.7584 23.7261 12.8225 24.4175 13.5698 24.4175H17.9733C18.7267 24.4135 18.7909 23.7274 18.5205 23.2927Z" fill="white"/>
</g>
<defs>
<clipPath id="clip0_266_61137">
<rect width="32" height="32" fill="white"/>
</clipPath>
</defs>
</svg>
