<svg width="40" height="40" viewBox="0 0 40 40" fill="none" xmlns="http://www.w3.org/2000/svg">
<g clip-path="url(#clip0_266_61775)">
<path d="M0 20C0 21.1776 0 21.3084 0.028057 22.3084C0.102876 24.5234 0.336685 27.0654 1.22516 29.7477C1.85176 31.6449 3.03016 33.6916 4.20857 34.9813C5.70493 36.6261 7.77179 37.9718 10.007 38.7382C12.289 39.5232 14.758 39.9064 19.5557 40H20.4443C25.2514 39.8971 27.711 39.5232 29.993 38.7382C32.2282 37.9718 34.2857 36.6261 35.7914 34.9813C36.97 33.6823 38.1482 31.6449 38.775 29.7477C39.6632 27.0654 39.9064 24.514 39.9718 22.3084C40 21.3178 40 21.1776 40 20C40 18.8224 40 18.6823 39.9718 17.6916C39.8971 15.4766 39.6632 12.9346 38.775 10.2523C38.1482 8.35514 36.97 6.30839 35.7914 5.01868C34.2951 3.37383 32.2282 2.02804 29.993 1.26168C27.711 0.476636 25.242 0.0934579 20.4443 0H19.5557C14.7486 0.102804 12.289 0.476636 10.007 1.26168C7.77179 2.02804 5.71429 3.37383 4.20857 5.01868C3.03016 6.31775 1.85176 8.35514 1.22516 10.2523C0.346037 12.9346 0.102876 15.4766 0.028057 17.6916C0 18.6823 0 18.8224 0 20Z" fill="#00B1AD"/>
<path d="M24.1805 17.9415C25.8049 15.6605 25.2415 12.5171 22.9317 10.9129C20.6219 9.31804 17.4388 9.86511 15.8144 12.1461C15.0539 13.2218 14.7722 14.4272 14.9318 15.6975C15.1853 17.7375 13.8614 19.5735 11.8614 20.0278C10.6501 20.2967 9.54218 20.9829 8.78161 22.0585C7.16661 24.3395 7.72057 27.4829 10.0304 29.0871C12.3402 30.682 15.5233 30.1349 17.1477 27.8539C17.9083 26.7782 18.19 25.5357 18.0304 24.3025C17.7674 22.2532 19.1289 20.3802 21.1007 19.9722C22.2275 19.7404 23.42 19.0171 24.1805 17.9415Z" fill="white"/>
<path d="M32.1429 24.9515C32.1429 27.7333 29.8518 29.9958 27.0349 29.9958C24.2181 29.9958 21.927 27.7333 21.927 24.9515C21.927 22.1697 24.2181 19.9072 27.0349 19.9072C29.8518 19.9072 32.1429 22.1697 32.1429 24.9515Z" fill="white"/>
</g>
<defs>
<clipPath id="clip0_266_61775">
<rect width="40" height="40" fill="white"/>
</clipPath>
</defs>
</svg>
