<svg width="32" height="32" viewBox="0 0 32 32" fill="none" xmlns="http://www.w3.org/2000/svg">
<g clip-path="url(#clip0_266_61199)">
<path d="M0 16C0 16.9421 0 17.0467 0.0224509 17.8467C0.08232 19.6187 0.269411 21.6523 0.980354 23.7981C1.48176 25.3159 2.4247 26.9533 3.36763 27.9851C4.56503 29.3009 6.21889 30.3774 8.00749 30.9906C9.83349 31.6186 11.8092 31.9251 15.6483 32H16.3592C20.2058 31.9177 22.174 31.6186 24 30.9906C25.7886 30.3774 27.435 29.3009 28.6323 27.9851C29.5754 26.9458 30.5183 25.3159 31.0197 23.7981C31.7306 21.6523 31.9251 19.6112 31.9774 17.8467C32 17.0542 32 16.9421 32 16C32 15.0579 32 14.9533 31.9774 14.1533C31.9177 12.3813 31.7306 10.3477 31.0197 8.20186C30.5183 6.68411 29.5754 5.04671 28.6323 4.01494C27.435 2.69907 25.7811 1.62243 24 1.00935C22.174 0.381309 20.1983 0.0747663 16.3592 0H15.6483C11.8017 0.0822429 9.83349 0.381309 8.00749 1.00935C6.21889 1.62243 4.57249 2.69907 3.36763 4.01494C2.4247 5.0542 1.48176 6.68411 0.980354 8.20186C0.276894 10.3477 0.08232 12.3813 0.0224509 14.1533C0 14.9458 0 15.0579 0 16Z" fill="#FFEB00"/>
<mask id="mask0_266_61199" style="mask-type:luminance" maskUnits="userSpaceOnUse" x="4" y="12" width="24" height="8">
<path d="M28 12.4287H4V19.8177H28V12.4287Z" fill="white"/>
</mask>
<g mask="url(#mask0_266_61199)">
<path fill-rule="evenodd" clip-rule="evenodd" d="M7.66609 12.4287C5.64089 12.4287 4 13.7254 4 15.3245C4 16.3521 4.68009 17.2545 5.70103 17.7691L5.35514 19.0591C5.34177 19.0992 5.35349 19.141 5.38189 19.1694C5.40194 19.1894 5.42866 19.1995 5.45709 19.1995C5.4788 19.1995 5.50051 19.1911 5.52057 19.1761L7.00606 18.1735C7.2216 18.2035 7.44217 18.2219 7.66609 18.2219C9.68963 18.2219 11.3322 16.9253 11.3322 15.3262C11.3322 13.7271 9.68963 12.4287 7.66609 12.4287Z" fill="black"/>
<path d="M14.4202 17.729V19.5988H13.0885V12.7045H14.0276L14.1913 13.1423C14.4737 12.8599 14.9032 12.5591 15.5966 12.5591C16.9016 12.5591 17.5216 13.5349 17.5115 15.1123C17.5115 16.7632 16.5541 17.8209 15.1856 17.8209C14.9215 17.8209 14.721 17.8026 14.4202 17.729ZM14.4202 13.8157V16.7983C14.4938 16.8067 14.6759 16.8251 14.8497 16.8251C15.7988 16.8251 16.1631 16.16 16.1631 15.1106C16.1631 14.1899 15.9174 13.6335 15.1605 13.6335C14.9148 13.6335 14.6408 13.707 14.4219 13.8157H14.4202Z" fill="black"/>
<path d="M20.4121 14.6461H21.1691V14.4824C21.1691 13.9359 20.8583 13.6803 20.3202 13.6803C19.9092 13.6803 19.3812 13.7989 18.9517 14.0095L18.5874 13.1155C19.062 12.7863 19.7906 12.5591 20.4389 12.5591C21.7155 12.5591 22.4089 13.2341 22.4089 14.5208V17.6856H21.4699L21.3328 17.2662C20.7948 17.6589 20.3019 17.8226 19.8557 17.8226C18.8799 17.8226 18.3318 17.2395 18.3318 16.2536C18.3318 15.2042 19.062 14.6478 20.4105 14.6478L20.4121 14.6461ZM21.1691 16.4056V15.4933H20.5575C19.8741 15.4933 19.5265 15.7389 19.5265 16.2319C19.5265 16.6061 19.7187 16.7883 20.1097 16.7883C20.474 16.7883 20.9402 16.6061 21.1674 16.4056H21.1691Z" fill="black"/>
<path d="M26.4393 17.1728C25.9748 18.4127 25.4184 19.3166 24.6063 19.8179L23.7859 19.061C24.2604 18.6499 24.5979 18.2489 24.8887 17.7108L23.1191 12.8868L24.4409 12.5309L25.5721 16.4443L26.6933 12.5142L27.9983 12.8784L26.4393 17.1745V17.1728Z" fill="black"/>
</g>
</g>
<defs>
<clipPath id="clip0_266_61199">
<rect width="32" height="32" fill="white"/>
</clipPath>
</defs>
</svg>
