<svg width="56" height="56" viewBox="0 0 56 56" fill="none" xmlns="http://www.w3.org/2000/svg">
<g clip-path="url(#clip0_266_61939)">
<path d="M0 28.007C0 29.6454 0 29.8414 0.0420105 31.2278C0.084021 34.7707 0.658165 38.2715 1.72243 41.6464C2.63266 44.3351 4.04701 46.8277 5.89545 48.9702C8.12205 51.365 10.9088 53.1715 14.0035 54.2355C17.1963 55.342 20.6551 55.86 27.3769 56H28.6231C35.3448 55.86 38.8037 55.328 41.9965 54.2355C45.0912 53.1715 47.8779 51.365 50.1045 48.9702C51.953 46.8137 53.3675 44.3351 54.2775 41.6464C55.342 38.2715 55.902 34.7707 55.958 31.2278C56 29.8414 56 29.6454 56 28.007C56 26.3686 56 26.1726 55.958 24.7862C55.902 21.2433 55.342 17.7425 54.2775 14.3676C53.3675 11.6789 51.953 9.1863 50.1045 7.04375C47.8779 4.64916 45.0912 2.84271 41.9965 1.77845C38.8037 0.67217 35.3448 0.140035 28.6231 0H27.3769C20.6551 0.140035 17.1963 0.67217 14.0035 1.76444C10.9088 2.8287 8.12205 4.63516 5.89545 7.02975C4.04701 9.1863 2.61865 11.6649 1.72243 14.3536C0.658165 17.7284 0.0980245 21.2433 0.0420105 24.7862C0 26.1726 0 26.3686 0 28.007Z" fill="#0398E7"/>
<path d="M38.584 29.251H28.7197V32.0676H38.584V29.251Z" fill="white"/>
<path d="M32.2518 13.0352H35.4179L40 26.7842H27.4469L29.7857 18.6844H32.9518L31.5358 23.9675H36.1339" fill="white"/>
<path d="M22.7375 29.251H16.0393V32.0676H22.3875C23.358 32.0676 23.8035 32.4177 23.8035 33.4839C23.8035 34.4546 23.008 34.9001 22.0375 34.9001H16.0393V42.9999H19.5714V37.7168H22.7375C24.9331 37.7804 26.7628 36.0618 26.8423 33.8658C26.8423 33.7862 26.8423 33.7066 26.8423 33.6271C27.0333 31.4151 25.3786 29.4578 23.1671 29.2828C23.0239 29.2828 22.8807 29.2669 22.7375 29.2828" fill="white"/>
<path d="M19.46 19.9895C19.3963 18.2391 20.5578 16.6955 22.2602 16.2659C22.6261 16.1704 23.0079 16.1226 23.3898 16.1226H26.2218V13.0037C24.2808 12.9718 22.3397 13.1469 20.4305 13.5129C17.6144 14.3404 15.7688 17.0297 16.0234 19.9577C15.8006 23.0449 17.8849 25.8138 20.9078 26.4344C21.9738 26.7049 23.0716 26.8322 24.1694 26.8163H26.2059V23.5063H23.1829C22.9761 23.5063 22.7852 23.4904 22.5784 23.4586C20.7646 23.3472 19.3804 21.8036 19.4282 19.9895" fill="white"/>
<path d="M38.5999 37.7009V34.5342H28.7356V43H38.5999V39.8333H32.2517V37.7168H38.5999V37.7009Z" fill="white"/>
</g>
<defs>
<clipPath id="clip0_266_61939">
<rect width="56" height="56" fill="white"/>
</clipPath>
</defs>
</svg>
