<svg width="24" height="24" viewBox="0 0 24 24" fill="none" xmlns="http://www.w3.org/2000/svg">
<path fill-rule="evenodd" clip-rule="evenodd" d="M12 2C17.525 2 22 6.475 22 12C22 17.525 17.525 22 12 22C6.475 22 2 17.525 2 12C2 6.48 6.475 2 11.995 2H12ZM11.49 12.645C9.365 10.535 10.395 9.81 10.395 9.81C11.45 8.765 10.57 8.23 10.57 8.23L9.51 7.17999C8.82 6.49499 7.92 7.35 7.565 7.705C6.205 9.055 7.6 12.3 9.72 14.4C12.375 17.025 15.125 17.885 16.48 16.535C16.82 16.2 17.71 15.3 17.015 14.605L15.95 13.555C15.95 13.555 15.41 12.685 14.355 13.73C13.655 14.43 12.195 13.345 11.49 12.645Z" fill="#D3D3D3"/>
</svg>
