<svg width="24" height="24" viewBox="0 0 24 24" fill="none" xmlns="http://www.w3.org/2000/svg">
<path d="M14.35 18.5006H7.59895C4.59895 18.5006 4.52395 16.2246 5.72895 14.7006V13.2006C5.66995 10.4866 7.31395 7.36158 9.66595 6.41058C11.179 5.86314 12.8359 5.86314 14.349 6.41058C16.707 7.35958 18.355 10.4856 18.294 13.1976L18.261 14.6976C19.461 16.2236 19.422 18.5036 16.422 18.5036L14.35 18.5006Z" stroke="#111111" stroke-width="1.5" stroke-linecap="round" stroke-linejoin="round"/>
<path d="M10 6V5C10 4.46957 10.2107 3.96086 10.5858 3.58579C10.9609 3.21071 11.4696 3 12 3C12.5304 3 13.0391 3.21071 13.4142 3.58579C13.7893 3.96086 14 4.46957 14 5V6" stroke="#111111" stroke-width="1.5" stroke-linecap="round" stroke-linejoin="round"/>
<path d="M14 18.5V19.5C14 20.0304 13.7893 20.5391 13.4142 20.9142C13.0391 21.2893 12.5304 21.5 12 21.5C11.4696 21.5 10.9609 21.2893 10.5858 20.9142C10.2107 20.5391 10 20.0304 10 19.5V18.5" stroke="#111111" stroke-width="1.5" stroke-linecap="round" stroke-linejoin="round"/>
</svg>
