<svg width="24" height="24" viewBox="0 0 24 24" fill="none" xmlns="http://www.w3.org/2000/svg">
<path opacity="0.45" fill-rule="evenodd" clip-rule="evenodd" d="M12 3C16.9706 3 21 7.02944 21 12C21 16.9706 16.9706 21 12 21C7.02944 21 3 16.9706 3 12C3 7.02944 7.02944 3 12 3ZM15.3592 9.70221C15.6521 9.40931 15.6521 8.93444 15.3592 8.64154C15.0663 8.34865 14.5914 8.34865 14.2985 8.64154L12.0004 10.9397L9.70221 8.64154C9.40931 8.34865 8.93444 8.34865 8.64154 8.64154C8.34865 8.93444 8.34865 9.40931 8.64154 9.70221L10.9397 12.0004L8.64154 14.2985C8.34865 14.5914 8.34865 15.0663 8.64154 15.3592C8.93444 15.6521 9.40931 15.6521 9.70221 15.3592L12.0004 13.061L14.2985 15.3592C14.5914 15.6521 15.0663 15.6521 15.3592 15.3592C15.6521 15.0663 15.6521 14.5914 15.3592 14.2985L13.061 12.0004L15.3592 9.70221Z" fill="#111111"/>
</svg>
