<svg width="24" height="24" viewBox="0 0 24 24" fill="none" xmlns="http://www.w3.org/2000/svg">
<path d="M19 4H5C3.89543 4 3 4.84276 3 5.88235V18.1176C3 19.1572 3.89543 20 5 20H19C20.1046 20 21 19.1572 21 18.1176V5.88235C21 4.84276 20.1046 4 19 4Z" stroke="white" stroke-width="1.5"/>
<path d="M7.55556 15C7.86238 15 8.11111 14.7513 8.11111 14.4445C8.11111 14.1376 7.86238 13.8889 7.55556 13.8889C7.24873 13.8889 7 14.1376 7 14.4445C7 14.7513 7.24873 15 7.55556 15Z" fill="white" stroke="white"/>
<path d="M11.9999 15C12.3067 15 12.5554 14.7513 12.5554 14.4445C12.5554 14.1376 12.3067 13.8889 11.9999 13.8889C11.6931 13.8889 11.4443 14.1376 11.4443 14.4445C11.4443 14.7513 11.6931 15 11.9999 15Z" fill="white" stroke="white"/>
<path d="M16.4442 15C16.7511 15 16.9998 14.7513 16.9998 14.4445C16.9998 14.1376 16.7511 13.8889 16.4442 13.8889C16.1374 13.8889 15.8887 14.1376 15.8887 14.4445C15.8887 14.7513 16.1374 15 16.4442 15Z" fill="white" stroke="white"/>
<path d="M21 8.70581H3" stroke="white" stroke-width="1.5" stroke-linecap="round" stroke-linejoin="round"/>
</svg>
