<svg width="24" height="24" viewBox="0 0 24 24" fill="none" xmlns="http://www.w3.org/2000/svg">
<path d="M21.9846 9.605C21.9396 9.455 21.8196 9.34 21.6646 9.305L15.4296 8.055L12.3696 2.235C12.3296 2.155 12.2646 2.09 12.1796 2.045C12.1196 2.015 12.0596 2 11.9996 2C11.8496 2 11.6996 2.085 11.6296 2.23L8.56964 8.05L2.33464 9.3C2.17964 9.335 2.05964 9.45 2.01464 9.6C1.96464 9.75 1.99964 9.92 2.10464 10.04L6.43964 14.895L5.65464 21.495C5.63464 21.655 5.69965 21.81 5.82465 21.91C5.89464 21.965 5.98465 21.995 6.07465 21.995C6.13965 21.995 6.19965 21.98 6.25465 21.95L11.9996 19.125L17.7396 21.95C17.7996 21.98 17.8596 21.995 17.9246 21.995C18.0146 21.995 18.0996 21.965 18.1696 21.91C18.2946 21.81 18.3596 21.655 18.3396 21.495L17.5546 14.895L21.8946 10.04C21.9996 9.92 22.0346 9.75 21.9846 9.6V9.605Z" fill="#3CBD61"/>
</svg>
