<svg width="32" height="32" viewBox="0 0 32 32" fill="none" xmlns="http://www.w3.org/2000/svg">
<path d="M16 3C7.718 3 1 8.361 1 14.976C1 19.229 3.782 22.956 7.959 25.085L6.547 30.416C6.52087 30.4942 6.51695 30.5782 6.53566 30.6585C6.55437 30.7388 6.59499 30.8124 6.653 30.871C6.69276 30.9116 6.74019 30.944 6.79255 30.9661C6.84491 30.9883 6.90115 30.9998 6.958 31C7.05322 30.9972 7.14462 30.9619 7.217 30.9L13.3 26.747C14.194 26.8788 15.0963 26.9457 16 26.947C24.282 26.947 31 21.586 31 14.971C31 8.356 24.282 3 16 3ZM7.988 18.761C7.99525 19.0024 7.91135 19.2377 7.753 19.42C7.66989 19.5026 7.57053 19.567 7.46123 19.6092C7.35192 19.6513 7.23504 19.6704 7.118 19.665C6.91921 19.6707 6.72433 19.609 6.565 19.49C6.41181 19.3636 6.30951 19.186 6.277 18.99C6.25926 18.9137 6.25319 18.8351 6.259 18.757L6.265 13.07H4.629C4.42646 13.075 4.22668 13.0223 4.053 12.918C3.97399 12.8702 3.90627 12.8058 3.85449 12.7294C3.8027 12.6529 3.76808 12.5661 3.753 12.475C3.74155 12.4192 3.73353 12.3628 3.729 12.306C3.72345 12.1984 3.74349 12.091 3.78747 11.9926C3.83144 11.8942 3.89811 11.8076 3.982 11.74C4.16785 11.6039 4.39373 11.5335 4.624 11.54H9.617C9.81954 11.535 10.0193 11.5877 10.193 11.692C10.2721 11.7404 10.3402 11.8048 10.3929 11.8811C10.4456 11.9574 10.4818 12.0439 10.499 12.135C10.5068 12.191 10.5088 12.2476 10.505 12.304C10.511 12.4111 10.4918 12.5181 10.4489 12.6164C10.406 12.7147 10.3406 12.8016 10.258 12.87C10.0765 13.0094 9.85162 13.0802 9.623 13.07H7.988V18.761ZM15.117 19.438C15.043 19.5137 14.9539 19.5731 14.8556 19.6123C14.7573 19.6516 14.6518 19.6699 14.546 19.666C14.379 19.6841 14.2108 19.6443 14.0696 19.5533C13.9283 19.4623 13.8226 19.3256 13.77 19.166L13.323 17.836H10.541L10.094 19.166C10.0447 19.3267 9.94045 19.4648 9.79946 19.5563C9.65847 19.6477 9.48978 19.6865 9.323 19.666C9.13899 19.6758 8.95749 19.6198 8.811 19.508C8.6714 19.3952 8.57728 19.2357 8.546 19.059C8.53397 18.9974 8.52827 18.9347 8.529 18.872C8.52957 18.7633 8.54539 18.6553 8.576 18.551C8.612 18.423 8.653 18.295 8.694 18.178L10.929 11.954C10.9824 11.7811 11.0922 11.6311 11.241 11.528C11.403 11.4385 11.586 11.3943 11.771 11.4H12.189C12.3845 11.3926 12.5781 11.4411 12.747 11.54C12.9289 11.6654 13.057 11.8546 13.106 12.07L15.194 18.178C15.25 18.3366 15.297 18.4982 15.335 18.662C15.347 18.75 15.358 18.819 15.364 18.872C15.3637 18.9783 15.3415 19.0834 15.2989 19.1808C15.2562 19.2782 15.1949 19.3657 15.117 19.438ZM20.887 19.328C20.7012 19.4641 20.4753 19.5345 20.245 19.528H16.641C16.413 19.5402 16.1869 19.4811 15.994 19.359C15.9057 19.2964 15.831 19.2165 15.7744 19.1242C15.7179 19.0319 15.6807 18.9291 15.665 18.822C15.6461 18.7041 15.6341 18.5853 15.629 18.466L15.635 12.312C15.6229 12.0699 15.7075 11.8329 15.87 11.653C15.9512 11.5688 16.0493 11.5027 16.1579 11.4591C16.2665 11.4154 16.3831 11.3953 16.5 11.4C16.7007 11.3945 16.8968 11.4608 17.053 11.587C17.2064 11.709 17.309 11.8836 17.341 12.077C17.3587 12.1533 17.3648 12.2319 17.359 12.31V18H20.241C20.4478 17.9909 20.6525 18.0438 20.829 18.152C20.9043 18.2028 20.9685 18.2681 21.018 18.3442C21.0675 18.4203 21.1011 18.5056 21.117 18.595C21.1301 18.6507 21.1398 18.7071 21.146 18.764C21.1495 18.8718 21.1281 18.979 21.0833 19.0772C21.0386 19.1754 20.9717 19.2619 20.888 19.33M27.376 19.464C27.1966 19.6029 26.9737 19.6738 26.747 19.664C26.5984 19.6704 26.4506 19.6384 26.318 19.571C26.1784 19.4724 26.0637 19.3426 25.983 19.192L23.989 15.954L23.042 16.954L23.054 18.762C23.0624 19.0046 22.9759 19.241 22.813 19.421C22.7314 19.504 22.6332 19.5687 22.5248 19.611C22.4164 19.6532 22.3002 19.6719 22.184 19.666C21.9837 19.6714 21.7873 19.6098 21.626 19.491C21.4747 19.363 21.3728 19.1861 21.338 18.991C21.3251 18.9141 21.321 18.8359 21.326 18.758L21.317 12.31C21.3049 12.0679 21.3895 11.8309 21.552 11.651C21.6344 11.5671 21.7335 11.5014 21.8429 11.4582C21.9523 11.4149 22.0695 11.3951 22.187 11.4C22.3876 11.3954 22.5834 11.4616 22.74 11.587C22.8934 11.709 22.996 11.8836 23.028 12.077C23.0429 12.1537 23.0489 12.2319 23.046 12.31L23.052 14.953L25.765 11.8C25.8605 11.6855 25.9712 11.5845 26.094 11.5C26.2012 11.4321 26.3261 11.3973 26.453 11.4C26.638 11.4008 26.8183 11.4581 26.97 11.564C27.0435 11.6121 27.1063 11.6747 27.1548 11.748C27.2033 11.8212 27.2364 11.9036 27.252 11.99C27.2595 12.0129 27.2655 12.0363 27.27 12.06C27.2659 12.0835 27.2679 12.1076 27.276 12.13C27.2753 12.2457 27.2468 12.3596 27.193 12.462C27.1346 12.5662 27.0656 12.6641 26.987 12.754L25.211 14.714L27.311 18.074L27.376 18.179C27.4846 18.3339 27.568 18.505 27.623 18.686C27.6297 18.703 27.6337 18.7208 27.635 18.739V18.8C27.6461 18.9232 27.6285 19.0472 27.5835 19.1624C27.5386 19.2776 27.4676 19.3809 27.376 19.464Z" fill="#402621"/>
<path d="M11.9532 13.3721L10.9302 16.5801H12.9532L11.9712 13.3721H11.9532Z" fill="#402621"/>
</svg>
