<svg width="24" height="24" viewBox="0 0 24 24" fill="none" xmlns="http://www.w3.org/2000/svg">
<path d="M12 19.5C16.1421 19.5 19.5 16.1421 19.5 12C19.5 7.85786 16.1421 4.5 12 4.5C7.85786 4.5 4.5 7.85786 4.5 12C4.5 16.1421 7.85786 19.5 12 19.5Z" stroke="#707070"/>
<path d="M11.998 15C11.8992 15.0004 11.8027 15.0301 11.7208 15.0853C11.6388 15.1404 11.575 15.2187 11.5375 15.3101C11.4999 15.4015 11.4903 15.5019 11.5099 15.5988C11.5294 15.6956 11.5771 15.7845 11.6472 15.8543C11.7172 15.924 11.8062 15.9714 11.9032 15.9906C12.0001 16.0097 12.1006 15.9997 12.1918 15.9618C12.283 15.9239 12.361 15.8598 12.4159 15.7776C12.4707 15.6954 12.5 15.5988 12.5 15.5C12.5003 15.4341 12.4874 15.3688 12.4623 15.3079C12.4371 15.247 12.4001 15.1917 12.3534 15.1452C12.3067 15.0986 12.2513 15.0619 12.1903 15.037C12.1293 15.012 12.0639 14.9995 11.998 15Z" fill="#707070" stroke="#707070" stroke-width="0.7" stroke-linecap="round" stroke-linejoin="round"/>
<path d="M12.551 11.1907C12.823 11.0581 13.0536 10.8562 13.2184 10.6062C13.3833 10.3563 13.4764 10.0675 13.4879 9.77026C13.4902 9.59753 13.4558 9.42621 13.3869 9.26719C13.318 9.10817 13.216 8.96492 13.0874 8.84657C12.9589 8.72821 12.8066 8.63734 12.6402 8.57972C12.4738 8.52209 12.297 8.49899 12.1211 8.51187C11.9392 8.50484 11.7578 8.53396 11.5878 8.59745C11.4178 8.66095 11.2627 8.75751 11.1318 8.8813C11.001 9.0051 10.8971 9.15356 10.8265 9.31773C10.7559 9.4819 10.72 9.65837 10.721 9.8365H9.35938C9.36428 9.49489 9.4412 9.15796 9.58532 8.84681C9.72944 8.53566 9.93766 8.25699 10.1969 8.02827C10.4562 7.79955 10.7609 7.62571 11.092 7.51763C11.4231 7.40956 11.7734 7.36958 12.1211 7.4002C12.4634 7.36207 12.8102 7.39478 13.1388 7.4962C13.4674 7.59762 13.7706 7.7655 14.0287 7.98894C14.2868 8.21239 14.4941 8.48642 14.6371 8.79328C14.7801 9.10015 14.8556 9.433 14.8588 9.77026C14.8685 10.2087 14.7533 10.6411 14.5261 11.0191C14.2988 11.397 13.9685 11.7055 13.5722 11.91C13.2183 12.0838 12.9265 12.3583 12.7351 12.6975C12.5437 13.0367 12.4617 13.4247 12.5 13.8104V13.8848H11.2133V13.8083C11.1312 13.2901 11.2159 12.7597 11.4556 12.2906C11.6953 11.8216 12.0781 11.4372 12.551 11.1907Z" fill="#707070"/>
</svg>
