<svg width="36" height="36" viewBox="0 0 36 36" fill="none" xmlns="http://www.w3.org/2000/svg">
<path d="M26.342 29.9998H11V5.99979H26.342C27.0029 5.95942 27.6529 6.18169 28.1507 6.61825C28.6485 7.05481 28.9538 7.67031 29 8.33079V27.6688C28.9538 28.3293 28.6485 28.9448 28.1507 29.3813C27.6529 29.8179 27.0029 30.0402 26.342 29.9998Z" fill="#6EC4F6"/>
<path d="M11 6H7V30H11V6Z" fill="#0C629C"/>
<path d="M24.365 13.5645H14.586C14.263 13.5645 14 13.4105 14 13.2205V10.9085C14 10.7185 14.263 10.5645 14.586 10.5645H24.365C24.689 10.5645 24.951 10.7185 24.951 10.9085V13.2205C24.951 13.4105 24.689 13.5645 24.365 13.5645Z" fill="white"/>
</svg>
