<svg width="36" height="36" viewBox="0 0 36 36" fill="none" xmlns="http://www.w3.org/2000/svg">
<path d="M15 5H13V16H15V5Z" fill="#512E03"/>
<path d="M23 5H21V16H23V5Z" fill="#512E03"/>
<path d="M12 30C12 29.6044 12.1173 29.2178 12.3371 28.8889C12.5568 28.56 12.8692 28.3036 13.2346 28.1522C13.6001 28.0009 14.0022 27.9613 14.3902 28.0384C14.7781 28.1156 15.1345 28.3061 15.4142 28.5858C15.6939 28.8655 15.8844 29.2219 15.9616 29.6098C16.0387 29.9978 15.9991 30.3999 15.8478 30.7654C15.6964 31.1308 15.44 31.4432 15.1111 31.6629C14.7822 31.8827 14.3956 32 14 32C13.4696 32 12.9609 31.7893 12.5858 31.4142C12.2107 31.0391 12 30.5304 12 30Z" fill="#512E03"/>
<path d="M20 30C20 29.6044 20.1173 29.2178 20.3371 28.8889C20.5568 28.56 20.8692 28.3036 21.2346 28.1522C21.6001 28.0009 22.0022 27.9613 22.3902 28.0384C22.7781 28.1156 23.1345 28.3061 23.4142 28.5858C23.6939 28.8655 23.8844 29.2219 23.9616 29.6098C24.0387 29.9978 23.9991 30.3999 23.8478 30.7654C23.6964 31.1308 23.44 31.4432 23.1111 31.6629C22.7822 31.8827 22.3956 32 22 32C21.4696 32 20.9609 31.7893 20.5858 31.4142C20.2107 31.0391 20 30.5304 20 30Z" fill="#512E03"/>
<path d="M26 7.99902H10C8.34315 7.99902 7 9.34217 7 10.999V26.999C7 28.6559 8.34315 29.999 10 29.999H26C27.6569 29.999 29 28.6559 29 26.999V10.999C29 9.34217 27.6569 7.99902 26 7.99902Z" fill="#F4A12B"/>
<path d="M23 4H13C12.4477 4 12 4.44772 12 5C12 5.55228 12.4477 6 13 6H23C23.5523 6 24 5.55228 24 5C24 4.44772 23.5523 4 23 4Z" fill="#9F5700"/>
<path d="M22 15.499H14C13.4477 15.499 13 15.9467 13 16.499C13 17.0513 13.4477 17.499 14 17.499H22C22.5523 17.499 23 17.0513 23 16.499C23 15.9467 22.5523 15.499 22 15.499Z" fill="white"/>
<path d="M22 20.499H14C13.4477 20.499 13 20.9467 13 21.499C13 22.0513 13.4477 22.499 14 22.499H22C22.5523 22.499 23 22.0513 23 21.499C23 20.9467 22.5523 20.499 22 20.499Z" fill="white"/>
</svg>
