<svg width="36" height="36" viewBox="0 0 36 36" fill="none" xmlns="http://www.w3.org/2000/svg">
<path d="M16.9998 30.9988V23.6058C16.7013 24.7486 16.0893 25.7853 15.2328 26.5988C14.1544 27.5348 12.7582 28.0218 11.3316 27.9595C9.90494 27.8972 8.55649 27.2903 7.56382 26.2638C6.57861 25.2516 6.01908 23.9001 6.00048 22.4877C5.98188 21.0753 6.50562 19.7096 7.46382 18.6718C8.59282 17.5438 11.7078 16.7508 14.3158 16.2638C14.3576 16.2555 14.3951 16.2329 14.4219 16.1998C14.4487 16.1667 14.4631 16.1252 14.4625 16.0827C14.4619 16.0401 14.4464 15.9991 14.4187 15.9668C14.391 15.9344 14.3528 15.9128 14.3108 15.9058C11.6808 15.4958 8.53482 14.7058 7.40182 13.2358C6.46564 12.1575 5.97846 10.7613 6.0406 9.3347C6.10273 7.90807 6.70944 6.55955 7.73582 5.56675C8.74802 4.58154 10.0995 4.02201 11.5119 4.00341C12.9243 3.98481 14.29 4.50855 15.3278 5.46675C16.4568 6.59475 17.2488 9.71075 17.7368 12.3178C17.7445 12.3599 17.7668 12.3979 17.7999 12.4252C17.833 12.4524 17.8746 12.467 17.9174 12.4664C17.9603 12.4658 18.0015 12.45 18.0338 12.4219C18.0661 12.3938 18.0873 12.3551 18.0938 12.3128C18.5038 9.68275 19.2938 6.53675 20.7638 5.40375C21.8424 4.46773 23.2386 3.98068 24.6654 4.04281C26.0921 4.10494 27.4407 4.71152 28.4338 5.73775C29.4191 6.75012 29.9787 8.10177 29.9973 9.51432C30.0159 10.9269 29.4921 12.2928 28.5338 13.3308C27.4048 14.4588 24.2898 15.2518 21.6828 15.7388C21.6411 15.747 21.6035 15.7697 21.5767 15.8027C21.5499 15.8358 21.5356 15.8773 21.5362 15.9198C21.5367 15.9624 21.5522 16.0034 21.58 16.0358C21.6077 16.0681 21.6458 16.0897 21.6878 16.0968C24.3178 16.5068 27.4638 17.2968 28.5958 18.7668C29.532 19.845 30.0192 21.2412 29.9571 22.6678C29.8949 24.0944 29.2882 25.443 28.2618 26.4358C27.2496 27.421 25.8981 27.9805 24.4858 27.9991C23.0734 28.0177 21.7076 27.494 20.6698 26.5358C19.8502 25.4672 19.2797 24.229 18.9998 22.9118V30.9988C18.9998 31.264 18.8945 31.5183 18.7069 31.7059C18.5194 31.8934 18.265 31.9988 17.9998 31.9988C17.7346 31.9988 17.4803 31.8934 17.2927 31.7059C17.1052 31.5183 16.9998 31.264 16.9998 30.9988Z" fill="#19A854"/>
</svg>
