<svg width="36" height="36" viewBox="0 0 36 36" fill="none" xmlns="http://www.w3.org/2000/svg">
<path d="M30 8H6C4.34315 8 3 9.34315 3 11V29C3 30.6569 4.34315 32 6 32H30C31.6569 32 33 30.6569 33 29V11C33 9.34315 31.6569 8 30 8Z" fill="#19A854"/>
<path d="M29 15H7C5.89543 15 5 15.8954 5 17V28C5 29.1046 5.89543 30 7 30H29C30.1046 30 31 29.1046 31 28V17C31 15.8954 30.1046 15 29 15Z" fill="white"/>
<path d="M14 6.5C14 5.67157 13.3284 5 12.5 5C11.6716 5 11 5.67157 11 6.5V11.5C11 12.3284 11.6716 13 12.5 13C13.3284 13 14 12.3284 14 11.5V6.5Z" fill="#0B6A46"/>
<path d="M25 6.5C25 5.67157 24.3284 5 23.5 5C22.6716 5 22 5.67157 22 6.5V11.5C22 12.3284 22.6716 13 23.5 13C24.3284 13 25 12.3284 25 11.5V6.5Z" fill="#0B6A46"/>
<path d="M10.3516 21.9115H11.1356C11.2788 21.9252 11.4233 21.9081 11.5594 21.8613C11.6955 21.8146 11.82 21.7393 11.9246 21.6405C12.0971 21.4231 12.183 21.1495 12.1656 20.8725C12.174 20.7359 12.1553 20.5989 12.1107 20.4696C12.0661 20.3402 11.9964 20.2209 11.9056 20.1185C11.803 20.0241 11.6823 19.9518 11.5507 19.9058C11.4191 19.8599 11.2796 19.8414 11.1406 19.8515C10.8664 19.84 10.5983 19.9341 10.3916 20.1145C10.2957 20.2011 10.2201 20.3077 10.17 20.4267C10.1199 20.5458 10.0965 20.6744 10.1016 20.8035H9.01558L9.00657 20.7755C8.99436 20.5288 9.0402 20.2826 9.14041 20.0568C9.24063 19.831 9.39241 19.6319 9.58357 19.4755C10.0151 19.1153 10.5649 18.9279 11.1266 18.9495C11.6954 18.9199 12.2557 19.0975 12.7036 19.4495C12.9028 19.627 13.0593 19.8474 13.1613 20.094C13.2633 20.3406 13.3082 20.6071 13.2926 20.8735C13.2896 21.1719 13.1977 21.4626 13.0286 21.7085C12.843 21.985 12.582 22.2026 12.2766 22.3355C12.6204 22.4415 12.9184 22.6603 13.1226 22.9565C13.3055 23.2395 13.4002 23.5705 13.3946 23.9075C13.4073 24.1833 13.3563 24.4584 13.2457 24.7114C13.1351 24.9644 12.9677 25.1885 12.7566 25.3665C12.2944 25.733 11.716 25.9215 11.1266 25.8975C10.5599 25.9157 10.004 25.7392 9.55157 25.3975C9.34322 25.2363 9.17834 25.0257 9.07184 24.7847C8.96533 24.5438 8.92056 24.2801 8.94157 24.0175L8.95157 23.9865H10.0366C10.0314 24.1219 10.0555 24.2569 10.1073 24.3822C10.1591 24.5075 10.2373 24.6202 10.3366 24.7125C10.5582 24.9034 10.8444 25.0021 11.1366 24.9885C11.4378 25.0053 11.7337 24.9042 11.9616 24.7065C12.0651 24.6018 12.1454 24.4764 12.1971 24.3385C12.2488 24.2007 12.2708 24.0534 12.2616 23.9065C12.2743 23.7551 12.2564 23.6027 12.209 23.4584C12.1616 23.3141 12.0856 23.1808 11.9856 23.0665C11.7467 22.8677 11.4393 22.7708 11.1296 22.7965H10.3516V21.9115Z" fill="#111111"/>
<path d="M18.243 22.7634C17.1699 22.9487 16.0819 23.034 14.993 23.0184H14.416V19.0774H15.266V22.3184C16.236 22.3184 17.2042 22.2355 18.16 22.0704L18.243 22.7634ZM20.352 25.1804V25.8724H15.332V23.5804H16.181V25.1804H20.352ZM19.313 21.5594H17.336V20.8864H19.315V20.1514H17.336V19.4754H19.315V18.5684H20.165V24.0684H19.315L19.313 21.5594Z" fill="#111111"/>
<path d="M24.0205 25.9331V20.3569L22.9209 21.48C22.826 21.573 22.6984 21.6255 22.5654 21.6255C22.4325 21.6255 22.3049 21.573 22.21 21.48C22.1157 21.3862 22.0627 21.2594 22.0615 21.1265C22.0604 20.9935 22.1115 20.8653 22.2041 20.77L24.1768 18.77C24.2716 18.6769 24.3993 18.6247 24.5322 18.6235C24.665 18.6254 24.7905 18.6775 24.8858 18.77L26.9131 20.7642C27.0081 20.8576 27.0625 20.9854 27.0635 21.1187C27.0645 21.2519 27.0125 21.3802 26.919 21.4751C26.8255 21.57 26.6987 21.6235 26.5654 21.6245C26.4322 21.6255 26.303 21.5735 26.208 21.48L25.0225 20.3101V25.9282C25.0225 26.0608 24.9698 26.188 24.876 26.2817C24.7822 26.3755 24.6551 26.4282 24.5225 26.4282C24.3899 26.4282 24.2627 26.3755 24.169 26.2817C24.0752 26.188 24.0225 26.0608 24.0225 25.9282L24.0205 25.9331Z" fill="#111111"/>
</svg>
