<svg width="36" height="36" viewBox="0 0 36 36" fill="none" xmlns="http://www.w3.org/2000/svg">
<path d="M18.0006 20.0678C19.7685 20.068 21.4805 20.6866 22.8403 21.8163C24.2 22.9461 25.1217 24.5159 25.4456 26.2538C25.5127 26.6401 25.7134 26.9906 26.0126 27.2439C26.3118 27.4973 26.6906 27.6374 27.0826 27.6398H31.8456C32.0801 27.6402 32.3121 27.591 32.5262 27.4954C32.7404 27.3998 32.9319 27.2601 33.0883 27.0853C33.2447 26.9105 33.3623 26.7047 33.4336 26.4812C33.5048 26.2578 33.528 26.0218 33.5016 25.7888C33.0471 21.9975 31.2187 18.5042 28.3625 15.9699C25.5062 13.4357 21.8201 12.0361 18.0016 12.0361C14.1831 12.0361 10.4971 13.4357 7.64081 15.9699C4.78454 18.5042 2.95618 21.9975 2.50163 25.7888C2.47544 26.0218 2.49875 26.2577 2.57004 26.4811C2.64134 26.7044 2.759 26.9102 2.91533 27.085C3.07166 27.2597 3.26314 27.3995 3.47722 27.4951C3.6913 27.5907 3.92317 27.64 4.15763 27.6398H9.51163C9.75278 27.6381 9.98481 27.5475 10.1633 27.3853C10.3417 27.2231 10.454 27.0007 10.4786 26.7608C10.6941 24.9172 11.5791 23.217 12.9656 21.9829C14.3521 20.7489 16.1435 20.067 17.9996 20.0668" fill="#D10F0F"/>
<path d="M31.8443 28.1321H27.0813C26.5757 28.1285 26.0873 27.948 25.7008 27.622C25.3143 27.296 25.0541 26.8449 24.9653 26.3471C24.6533 24.6821 23.7551 23.184 22.4335 22.1244C21.1118 21.0648 19.4543 20.5137 17.7613 20.5712C16.0683 20.6286 14.4519 21.2907 13.2052 22.4375C11.9584 23.5843 11.1638 25.1398 10.9653 26.8221C10.9263 27.181 10.7564 27.5129 10.4883 27.7545C10.2201 27.9961 9.87231 28.1305 9.51134 28.1321H4.15534C3.85152 28.1326 3.55105 28.0687 3.27369 27.9447C2.99633 27.8207 2.74837 27.6394 2.54613 27.4127C2.34388 27.186 2.19193 26.919 2.10027 26.6293C2.00861 26.3397 1.97933 26.0339 2.01434 25.7321C2.48317 21.8221 4.36882 18.2194 7.31455 15.6058C10.2603 12.9922 14.0618 11.5488 17.9998 11.5488C21.9379 11.5488 25.7394 12.9922 28.6851 15.6058C31.6309 18.2194 33.5165 21.8221 33.9853 25.7321C34.0203 26.0319 33.9914 26.3357 33.9006 26.6235C33.8097 26.9113 33.659 27.1767 33.4583 27.4021C33.2557 27.6301 33.0072 27.8125 32.729 27.9375C32.4508 28.0624 32.1493 28.1271 31.8443 28.1271M18.0003 19.5811C19.8825 19.5801 21.7056 20.2381 23.1533 21.441C24.6009 22.6438 25.5817 24.3156 25.9253 26.1661C25.9725 26.4398 26.1141 26.6883 26.3255 26.8684C26.5369 27.0485 26.8046 27.1489 27.0823 27.1521H31.8453C32.0127 27.1518 32.1782 27.116 32.3307 27.047C32.4833 26.9781 32.6195 26.8776 32.7303 26.7521C32.8404 26.6301 32.9229 26.4859 32.9724 26.3293C33.0219 26.1726 33.0373 26.0072 33.0173 25.8441C32.5789 22.1696 30.8084 18.7833 28.041 16.3264C25.2736 13.8696 21.7015 12.5127 18.0008 12.5127C14.3002 12.5127 10.728 13.8696 7.96065 16.3264C5.19326 18.7833 3.42275 22.1696 2.98434 25.8441C2.96429 26.0072 2.97954 26.1727 3.02906 26.3293C3.07858 26.486 3.16121 26.6302 3.27134 26.7521C3.382 26.8775 3.51801 26.978 3.6704 27.047C3.82279 27.116 3.98808 27.1518 4.15534 27.1521H9.51134C9.63237 27.1497 9.74832 27.103 9.83717 27.0208C9.92603 26.9386 9.9816 26.8266 9.99334 26.7061C10.2211 24.7429 11.1629 22.9319 12.6394 21.6181C14.1158 20.3042 16.0239 19.5792 18.0003 19.5811Z" fill="#111111"/>
<path d="M17.653 7.77921L14.991 22.4892C14.8938 23.0262 15.0132 23.5799 15.323 24.0292L17.709 27.4892C17.7415 27.5362 17.7849 27.5747 17.8355 27.6012C17.8861 27.6278 17.9424 27.6417 17.9995 27.6417C18.0567 27.6417 18.113 27.6278 18.1636 27.6012C18.2142 27.5747 18.2576 27.5362 18.29 27.4892L20.673 24.0312C20.9836 23.5815 21.1036 23.0271 21.007 22.4892L18.348 7.77921C18.3335 7.69765 18.2907 7.6238 18.2271 7.57062C18.1636 7.51743 18.0834 7.48828 18.0005 7.48828C17.9177 7.48828 17.8374 7.51743 17.7739 7.57062C17.7104 7.6238 17.6676 7.69765 17.653 7.77921Z" fill="white"/>
<path d="M18.0039 28.1279C17.8678 28.128 17.7337 28.095 17.6131 28.0318C17.4926 27.9685 17.3892 27.8769 17.3119 27.7649L14.9239 24.3059C14.7337 24.0318 14.5995 23.7229 14.529 23.3969C14.4584 23.0708 14.453 22.7341 14.5129 22.4059L17.1719 7.69189C17.2071 7.49804 17.3092 7.32268 17.4604 7.19641C17.6116 7.07014 17.8024 7.00098 17.9994 7.00098C18.1964 7.00098 18.3872 7.07014 18.5384 7.19641C18.6896 7.32268 18.7917 7.49804 18.8269 7.69189L21.4859 22.4009C21.5458 22.7291 21.5403 23.0658 21.4698 23.3919C21.3992 23.7179 21.2651 24.0268 21.0749 24.3009L18.6919 27.7589C18.6146 27.8709 18.5112 27.9625 18.3907 28.0258C18.2701 28.089 18.136 28.122 17.9999 28.1219M18.0039 8.60089L15.4729 22.5759C15.4357 22.7791 15.439 22.9877 15.4826 23.1897C15.5262 23.3917 15.6092 23.5831 15.7269 23.7529L17.9999 27.0529L20.2729 23.7529C20.3906 23.5831 20.4736 23.3917 20.5172 23.1897C20.5608 22.9877 20.5641 22.7791 20.5269 22.5759L18.0039 8.60089Z" fill="#111111"/>
</svg>
