<svg width="36" height="36" viewBox="0 0 36 36" fill="none" xmlns="http://www.w3.org/2000/svg">
<path d="M15.4396 7.68786C15.7075 7.24926 16.0837 6.88688 16.532 6.63544C16.9802 6.384 17.4856 6.25195 17.9996 6.25195C18.5135 6.25195 19.0189 6.384 19.4672 6.63544C19.9154 6.88688 20.2916 7.24926 20.5596 7.68786L31.7106 25.9349C31.9884 26.3896 32.1401 26.9102 32.15 27.443C32.1599 27.9758 32.0277 28.5017 31.767 28.9665C31.5063 29.4313 31.1265 29.8182 30.6666 30.0876C30.2068 30.3569 29.6835 30.4988 29.1506 30.4989H6.84857C6.31566 30.4988 5.79236 30.3569 5.33251 30.0876C4.87265 29.8182 4.49284 29.4313 4.23213 28.9665C3.97142 28.5017 3.83923 27.9758 3.84915 27.443C3.85907 26.9102 4.01075 26.3896 4.28857 25.9349L15.4396 7.68786Z" fill="#F8C315"/>
<path d="M17.9981 21.7391C17.7055 21.7555 17.4182 21.6556 17.1989 21.4612C16.9796 21.2668 16.8459 20.9936 16.8271 20.7011V13.7771C16.8459 13.4846 16.9796 13.2113 17.1989 13.0169C17.4182 12.8225 17.7055 12.7226 17.9981 12.7391C18.2908 12.7226 18.5781 12.8225 18.7974 13.0169C19.0167 13.2113 19.1504 13.4846 19.1691 13.7771V20.7011C19.1504 20.9936 19.0167 21.2668 18.7974 21.4612C18.5781 21.6556 18.2908 21.7555 17.9981 21.7391Z" fill="white"/>
<path d="M17.9994 26.377C17.6886 26.3726 17.3858 26.2771 17.1288 26.1022C16.8717 25.9272 16.6717 25.6807 16.5536 25.3931C16.4354 25.1055 16.4044 24.7895 16.4643 24.4844C16.5242 24.1793 16.6724 23.8986 16.8904 23.677C17.0343 23.5289 17.2063 23.4113 17.3965 23.3311C17.5867 23.2508 17.791 23.2096 17.9974 23.21C18.41 23.2203 18.8022 23.3915 19.0903 23.687C19.3784 23.9824 19.5397 24.3788 19.5397 24.7915C19.5397 25.2041 19.3784 25.6005 19.0903 25.896C18.8022 26.1914 18.41 26.3626 17.9974 26.373L17.9994 26.377Z" fill="white"/>
</svg>
