<svg width="36" height="36" viewBox="0 0 36 36" fill="none" xmlns="http://www.w3.org/2000/svg">
<path d="M18.324 10.8921H17.679C10.946 10.9371 5.50098 17.1321 5.50098 24.7691V26.5571C5.50098 29.4271 7.55398 31.7571 10.088 31.7571H25.915C28.448 31.7501 30.501 29.4241 30.501 26.5571V24.7691C30.501 17.1321 25.056 10.9381 18.324 10.8921Z" fill="#F4A12B"/>
<path d="M21.064 8.90705H14.935L13.412 5.56405C13.3479 5.42135 13.3207 5.26481 13.333 5.10884C13.3452 4.95288 13.3966 4.80251 13.4823 4.67161C13.5679 4.54071 13.6852 4.43348 13.8232 4.35981C13.9612 4.28613 14.1155 4.24839 14.272 4.25005H21.735C21.8914 4.24839 22.0458 4.28613 22.1838 4.35981C22.3218 4.43348 22.439 4.54071 22.5247 4.67161C22.6104 4.80251 22.6617 4.95288 22.674 5.10884C22.6863 5.26481 22.6591 5.42135 22.595 5.56405L21.064 8.90705Z" fill="#F4A12B"/>
<path d="M21.251 8.16797H14.751C14.1987 8.16797 13.751 8.61568 13.751 9.16797V10.368C13.751 10.9203 14.1987 11.368 14.751 11.368H21.251C21.8033 11.368 22.251 10.9203 22.251 10.368V9.16797C22.251 8.61568 21.8033 8.16797 21.251 8.16797Z" fill="#9F5700"/>
<path d="M13.874 19L15.791 25L17.912 19L20.207 25L22.124 19" stroke="white" stroke-width="1.5" stroke-linecap="round" stroke-linejoin="round"/>
<path d="M14.64 21.999H12.499" stroke="white" stroke-width="1.5" stroke-linecap="round"/>
<path d="M23.5005 21.999H21.3135" stroke="white" stroke-width="1.5" stroke-linecap="round"/>
</svg>
