<svg width="19" height="20" viewBox="0 0 19 20" fill="none" xmlns="http://www.w3.org/2000/svg">
<path d="M8.66803 0C7.94905 0.0353238 7.23629 0.147529 6.53809 0.340771L7.46695 3.68822L8.66803 0Z" fill="#95B7DD"/>
<path d="M12.2591 0.488301C11.3887 0.199477 10.4913 0.0374017 9.58351 0L8.85645 4.04146L12.2591 0.488301Z" fill="#95B7DD"/>
<path d="M5.61046 0.65625C5.02031 0.884816 4.44886 1.17364 3.90234 1.52272L6.0593 3.98292L5.61046 0.65625Z" fill="#95B7DD"/>
<path d="M18.5742 7.00339C18.1608 5.60083 17.4151 4.2793 16.3619 3.14062L10.5558 6.27406L18.5742 7.00339Z" fill="#95B7DD"/>
<path d="M18.5825 12.5311C19.0748 10.8356 19.0914 9.03614 18.6511 7.32812L10.5183 7.70214L18.5804 12.529L18.5825 12.5311Z" fill="#95B7DD"/>
<path d="M3.09862 2.09375C2.58345 2.49478 2.0932 2.96438 1.67773 3.47346L4.91628 4.85316L3.09862 2.09375Z" fill="#95B7DD"/>
<path d="M15.953 2.71882C15.0702 1.86897 14.0668 1.2186 13.0012 0.765625L9.95996 4.965L15.953 2.7209V2.71882Z" fill="#95B7DD"/>
<path d="M9.87305 8.98438L15.3946 17.3665C16.8923 16.153 18.0099 14.4367 18.5396 12.6788L9.87305 8.98645V8.98438Z" fill="#95B7DD"/>
<path d="M1.09475 4.23438C0.639816 4.89514 0.274206 5.59746 0 6.32887L4.26266 6.13147L1.09267 4.23438H1.09475Z" fill="#95B7DD"/>
<path d="M12.0941 17.7937C12.2998 16.1106 12.0671 14.4732 11.4834 13L15.3431 17.4072C14.2753 18.2736 13.0705 18.8804 11.8095 19.2315C11.9383 18.7661 12.0339 18.2861 12.0941 17.7937Z" fill="#95B7DD"/>
</svg>
