<svg width="40" height="40" viewBox="0 0 40 40" fill="none" xmlns="http://www.w3.org/2000/svg">
<path d="M40 20.0019C40 31.0481 31.0443 40 20.0019 40C8.9594 40 0 31.0443 0 20.0019C0 8.9594 8.95567 0 20.0019 0C31.0481 0 40 8.95567 40 20.0019Z" fill="white"/>
<path d="M29.4937 18.7343C26.2795 16.5504 22.162 17.4389 20.0042 20.7278C18.1974 23.4716 15.4723 23.815 14.4158 23.815C10.9776 23.815 8.62206 21.396 7.9277 18.8911C7.92024 18.865 7.9165 18.8463 7.90904 18.8202C7.90157 18.794 7.8941 18.7642 7.88664 18.7343C7.61039 17.689 7.5432 17.1925 7.5432 16.0801C7.5432 10.0922 13.6841 3.42865 22.5315 3.42865C31.3789 3.42865 36.7695 10.3237 38.1097 14.1575C38.0873 14.0941 38.0649 14.0231 38.0425 13.9559C35.4741 6.45991 28.3626 1.06934 19.9968 1.06934C9.46573 1.06934 0.924438 9.6069 0.924438 20.1417C0.924438 29.5565 7.71492 37.6162 17.1335 37.6162C24.6482 37.6162 29.6953 33.4016 32.0136 27.6004C33.2828 24.4272 32.3831 20.6942 29.4975 18.7343H29.4937Z" fill="#003763"/>
<path d="M38.2245 14.5309C37.112 10.7904 31.8857 3.42871 22.5306 3.42871C13.6832 3.42871 7.54224 10.0923 7.54224 16.0801C7.54224 17.1926 7.60944 17.6891 7.88569 18.7344C7.76996 18.2789 7.71023 17.8198 7.71023 17.3755C7.71023 11.1413 13.9519 6.82208 20.3691 6.82208C29.056 6.82208 36.0966 13.8627 36.0966 22.5496C36.0966 29.3587 32.1806 35.2495 26.4876 38.0829C33.8269 35.4324 39.0644 28.403 39.0644 20.1492C39.0644 18.1968 38.8031 16.4721 38.2245 14.5384V14.5309Z" fill="#E4022D"/>
</svg>
