<svg width="56" height="56" viewBox="0 0 56 56" fill="none" xmlns="http://www.w3.org/2000/svg">
<path d="M56 28.0026C56 43.4673 43.4621 56 28.0026 56C12.5432 56 0 43.4621 0 28.0026C0 12.5432 12.5379 0 28.0026 0C43.4673 0 56 12.5379 56 28.0026Z" fill="white"/>
<path d="M41.2913 26.228C36.7915 23.1706 31.0268 24.4145 28.006 29.0189C25.4765 32.8602 21.6613 33.341 20.1822 33.341C15.3688 33.341 12.071 29.9544 11.0989 26.4475C11.0884 26.4109 11.0832 26.3848 11.0727 26.3482C11.0623 26.3116 11.0518 26.2698 11.0414 26.228C10.6546 24.7646 10.5606 24.0695 10.5606 22.5121C10.5606 14.1291 19.1579 4.8001 31.5442 4.8001C43.9306 4.8001 51.4774 14.4531 53.3537 19.8205C53.3223 19.7317 53.291 19.6324 53.2596 19.5383C49.6639 9.04387 39.7078 1.49707 27.9956 1.49707C13.2521 1.49707 1.29431 13.4497 1.29431 28.1983C1.29431 41.3791 10.801 52.6627 23.987 52.6627C34.5076 52.6627 41.5736 46.7622 44.8191 38.6405C46.596 34.1981 45.3365 28.9718 41.2966 26.228H41.2913Z" fill="#003763"/>
<path d="M53.5144 20.3429C51.957 15.1061 44.6402 4.7998 31.543 4.7998C19.1566 4.7998 10.5593 14.1288 10.5593 22.5118C10.5593 24.0692 10.6534 24.7643 11.0402 26.2277C10.8781 25.5901 10.7945 24.9473 10.7945 24.3253C10.7945 15.5974 19.5329 9.55053 28.517 9.55053C40.6786 9.55053 50.5354 19.4074 50.5354 31.569C50.5354 41.1018 45.053 49.349 37.0829 53.3157C47.3578 49.605 54.6904 39.7639 54.6904 28.2085C54.6904 25.4751 54.3245 23.0606 53.5144 20.3533V20.3429Z" fill="#E4022D"/>
</svg>
