<svg width="100" height="28" viewBox="0 0 100 28" fill="none" xmlns="http://www.w3.org/2000/svg">
<path d="M3.4178 5H97.5812C98.3636 5 98.999 5.64981 98.999 6.45005V22.5489C98.999 23.3492 98.3636 23.999 97.5812 23.999H3.4178C2.63536 23.999 2 23.3492 2 22.5489V6.45005C2 5.64981 2.63536 5 3.4178 5Z" fill="black"/>
<path d="M9.26313 13.5049H6.5506L5.23285 7.19922H7.41108L7.9754 11.0848L8.54773 7.19922H11.0962L11.6685 11.1871L12.2458 7.19922H14.334L13.0383 13.5049H10.3648L9.80944 9.4229L9.26313 13.5049Z" fill="#FFE400"/>
<path d="M72.1618 21.3201H66.0993L63.1547 7.19824H68.0244L69.2851 15.8985L70.5649 7.19824H76.148L77.4278 16.1277L78.7175 7.19824H83.4982L80.6016 21.3201H74.6252L73.3835 12.1798L72.1618 21.3201Z" fill="#FFE400"/>
<path d="M15.7948 13.506V7.19824H20.4775V8.81918H18.1571V9.50378H20.3124V11.1247H18.1571V11.8687H20.5585V13.506H15.7948Z" fill="#FFE400"/>
<path d="M36.2944 13.506V7.19824H40.9771V8.81918H38.6568V9.50378H40.812V11.1247H38.6568V11.8687H41.0581V13.506H36.2944Z" fill="#FFE400"/>
<path d="M22.0494 11.666H24.3577V11.7182C24.3577 11.9362 24.4077 12.0989 24.5078 12.2043C24.6078 12.3107 24.7629 12.3639 24.972 12.3639C25.1551 12.3639 25.2982 12.322 25.4013 12.2401C25.5043 12.1572 25.5564 12.0436 25.5564 11.8973C25.5564 11.7898 25.5364 11.6977 25.4973 11.622C25.4583 11.5463 25.4003 11.49 25.3252 11.4521C25.2002 11.3907 24.946 11.3109 24.5628 11.2127C24.1796 11.1134 23.8764 11.0295 23.6523 10.9599C23.112 10.788 22.7188 10.5629 22.4716 10.2835C22.2245 10.0041 22.1014 9.64905 22.1014 9.21925C22.1014 8.57968 22.3575 8.08234 22.8698 7.7293C23.3821 7.37625 24.1015 7.19922 25.0281 7.19922C25.8735 7.19922 26.5189 7.35169 26.9642 7.65562C27.4104 7.95955 27.6325 8.3965 27.6325 8.96649V9.10157H25.5023C25.4853 8.90714 25.4303 8.76285 25.3392 8.66973C25.2482 8.57661 25.1131 8.53056 24.936 8.53056C24.7819 8.53056 24.6589 8.56945 24.5658 8.64824C24.4727 8.72704 24.4267 8.83039 24.4267 8.95831C24.4267 9.19367 24.6869 9.37378 25.2062 9.49964C25.3953 9.54365 25.5464 9.58049 25.6594 9.61323C26.5279 9.84553 27.1152 10.1065 27.4214 10.3961C27.7276 10.6857 27.8807 11.0858 27.8807 11.5985C27.8807 12.2882 27.6155 12.8336 27.0852 13.2368C26.5549 13.64 25.8325 13.8416 24.918 13.8416C24.0035 13.8416 23.2801 13.6738 22.7838 13.3381C22.2875 13.0025 22.0394 12.5236 22.0394 11.9004C22.0394 11.839 22.0394 11.7919 22.0414 11.7591C22.0424 11.7254 22.0454 11.6957 22.0484 11.6701L22.0494 11.666Z" fill="#FFE400"/>
<path d="M34.6866 7.19824V8.88263H33.1657V13.5029H30.7353V8.88263H29.2104V7.19824H34.6876H34.6866Z" fill="#FFE400"/>
<path d="M42.8011 13.4763V7.19824H46.005C46.9455 7.19824 47.6029 7.32002 47.9771 7.56254C48.3513 7.80507 48.5374 8.21542 48.5374 8.79462C48.5374 9.17223 48.4343 9.48332 48.2272 9.72891C48.0201 9.97451 47.7119 10.1505 47.3007 10.259C47.6829 10.3214 47.9561 10.4493 48.1192 10.6417C48.2823 10.8351 48.3963 11.1841 48.4614 11.6886L48.5464 12.3691C48.5574 12.4827 48.5784 12.6218 48.6104 12.7886C48.6415 12.9544 48.6895 13.1836 48.7545 13.4763H46.3622C46.3081 13.2665 46.2681 13.0956 46.2411 12.9657C46.2141 12.8357 46.1931 12.715 46.1791 12.6034L46.12 12.144C46.061 11.7295 45.981 11.4675 45.8819 11.357C45.7828 11.2465 45.6157 11.1912 45.3806 11.1912C45.3236 11.1912 45.2796 11.1912 45.2485 11.1933C45.2175 11.1943 45.1875 11.1984 45.1595 11.2035V13.4763H42.8011ZM45.1645 9.79031C45.1845 9.79338 45.2065 9.79543 45.2305 9.79645C45.2545 9.79748 45.2896 9.7985 45.3346 9.7985C45.6117 9.7985 45.8249 9.74222 45.9739 9.63068C46.123 9.51811 46.1971 9.35847 46.1971 9.15176C46.1971 8.95938 46.136 8.81816 46.014 8.72811C45.8919 8.63908 45.6978 8.59405 45.4316 8.59405C45.3636 8.59405 45.3116 8.59405 45.2745 8.5961C45.2375 8.59815 45.2005 8.60019 45.1645 8.60224V9.78929V9.79031Z" fill="#FFE400"/>
<path d="M52.3846 9.61123V13.464H50.4165V7.19824H53.3282L54.6739 10.9487V7.19824H56.642V13.463H53.7304L52.3846 9.61021V9.61123Z" fill="#FFE400"/>
<path d="M52.3846 17.3513V21.2338H50.4165V14.9199H53.3282L54.6739 18.7001V14.9199H56.642V21.2338H53.7304L52.3846 17.3513Z" fill="#FFE400"/>
<path d="M31.7579 17.3503V21.2307H29.7898V14.9199H32.7014L34.0472 18.698V14.9199H36.0153V21.2307H33.1037L31.7579 17.3503Z" fill="#FFE400"/>
<path d="M21.9643 14.9219H24.3277V18.8648C24.3277 19.136 24.3757 19.3416 24.4707 19.4829C24.5658 19.6241 24.7049 19.6947 24.887 19.6947C25.0691 19.6947 25.2012 19.621 25.2992 19.4747C25.3973 19.3273 25.4463 19.1247 25.4463 18.8648V14.9219H27.8186V18.7655C27.8186 19.665 27.5805 20.3281 27.1052 20.7569C26.629 21.1846 25.8895 21.3985 24.887 21.3985C24.3086 21.3985 23.8304 21.3361 23.4532 21.2123C23.0759 21.0885 22.7628 20.892 22.5146 20.6239C22.3175 20.411 22.1774 20.1736 22.0914 19.9127C22.0063 19.6517 21.9633 19.269 21.9633 18.7645V14.9209L21.9643 14.9219Z" fill="#FFE400"/>
<path d="M40.4659 14.9238V21.2265H38.0325V14.9238H40.4659Z" fill="#FFE400"/>
<path d="M45.3716 21.4033C44.375 21.4033 43.6046 21.1147 43.0603 20.5365C42.515 19.9594 42.2428 19.1448 42.2428 18.0938C42.2428 17.0429 42.521 16.2058 43.0773 15.6266C43.6336 15.0474 44.424 14.7578 45.4486 14.7578C46.4732 14.7578 47.2526 15.0464 47.805 15.6246C48.3573 16.2027 48.6334 17.0224 48.6334 18.0846C48.6334 19.1468 48.3553 19.9839 47.7989 20.5519C47.2426 21.1198 46.4332 21.4033 45.3726 21.4033H45.3716ZM45.4396 16.4309C45.1865 16.4309 45.0074 16.5496 44.9043 16.7871C44.8002 17.0245 44.7482 17.4655 44.7482 18.1123C44.7482 18.7181 44.8002 19.1407 44.9043 19.3802C45.0084 19.6206 45.1835 19.7404 45.4316 19.7404C45.6797 19.7404 45.8639 19.6135 45.9669 19.3607C46.071 19.108 46.123 18.6526 46.123 17.9946C46.123 17.4011 46.072 16.9917 45.9689 16.7676C45.8669 16.5435 45.6898 16.4309 45.4396 16.4309Z" fill="#FFE400"/>
<path d="M62.4653 21.2351H61.6468L58.7672 7.19824H59.5857L62.4653 21.2351Z" fill="#FFE400"/>
<path d="M64.6865 21.2351H63.868L60.9884 7.19824H61.8069L64.6865 21.2351Z" fill="#FFE400"/>
<path d="M87.4575 7.19824V16.0182C87.4575 16.5964 87.3484 17.0498 87.1293 17.3772C86.9102 17.7047 86.604 17.8684 86.2098 17.8684C85.8155 17.8684 85.4934 17.7108 85.2812 17.3956C85.0681 17.0815 84.9621 16.622 84.9621 16.0172V7.19824H83.9295L81.2419 20.2507C81.7372 20.6907 82.3266 21.0254 83.014 21.2515C83.8554 21.5278 84.92 21.666 86.2098 21.666C88.445 21.666 90.093 21.1891 91.1536 20.2354C92.2142 19.2816 92.7445 17.8019 92.7445 15.7972V7.19824H87.4565H87.4575Z" fill="#FFE400"/>
<path d="M79.6941 7.19829V15.7973C79.6941 16.9219 79.7891 17.7743 79.9803 18.3556C80.1654 18.9194 80.4675 19.4341 80.8858 19.8977L83.4983 7.19727H79.6941V7.19829Z" fill="white"/>
<path d="M93.8181 8.30727L94.0773 8.28987C94.0833 8.33592 94.0943 8.37071 94.1113 8.39425C94.1393 8.43314 94.1793 8.45258 94.2314 8.45258C94.2704 8.45258 94.3004 8.44235 94.3214 8.4229C94.3424 8.40346 94.3534 8.37992 94.3534 8.35434C94.3534 8.32978 94.3434 8.30727 94.3234 8.28783C94.3034 8.26838 94.2564 8.24996 94.1843 8.23257C94.0643 8.20391 93.9792 8.16503 93.9292 8.11693C93.8782 8.06884 93.8521 8.00744 93.8521 7.93273C93.8521 7.88361 93.8651 7.83756 93.8912 7.79356C93.9172 7.74956 93.9572 7.71579 94.0102 7.69021C94.0633 7.66565 94.1353 7.65234 94.2273 7.65234C94.3404 7.65234 94.4265 7.67486 94.4855 7.71988C94.5445 7.76491 94.5796 7.83756 94.5916 7.93683L94.3344 7.9532C94.3274 7.91022 94.3134 7.8785 94.2914 7.85905C94.2694 7.83961 94.2394 7.82938 94.2013 7.82938C94.1693 7.82938 94.1463 7.83654 94.1303 7.85087C94.1143 7.86519 94.1063 7.88361 94.1063 7.90408C94.1063 7.91943 94.1133 7.93273 94.1263 7.94501C94.1393 7.95729 94.1693 7.96957 94.2173 7.97981C94.3364 8.00744 94.4215 8.03609 94.4735 8.06372C94.5245 8.09237 94.5625 8.12716 94.5856 8.16912C94.6086 8.21108 94.6206 8.25815 94.6206 8.31034C94.6206 8.37174 94.6046 8.42802 94.5735 8.47919C94.5425 8.53035 94.4985 8.57026 94.4425 8.59687C94.3864 8.62348 94.3154 8.63678 94.2304 8.63678C94.0803 8.63678 93.9762 8.60506 93.9182 8.54263C93.8601 8.48021 93.8281 8.40039 93.8201 8.3042L93.8181 8.30727Z" fill="#FFE400"/>
<path d="M94.7516 7.66895H95.1098L95.2479 8.25019L95.385 7.66895H95.7432V8.6237H95.52V7.89612L95.348 8.6237H95.1458L94.9737 7.89612V8.6237H94.7506V7.66895H94.7516Z" fill="#FFE400"/>
</svg>
