<svg width="12" height="12" viewBox="0 0 12 12" fill="none" xmlns="http://www.w3.org/2000/svg">
<path d="M8.79429 6.3776L3.65143 9.45142C3.61714 9.46467 3.58286 9.47792 3.54 9.49117C3.50571 9.5 3.47143 9.5 3.44143 9.5H3.43286C3.31286 9.5 3.21 9.46025 3.12 9.37634C3.03857 9.28801 3 9.18202 3 9.06719V2.93722C3 2.89748 3 2.85773 3.00857 2.8224C3.02143 2.78265 3.03857 2.7429 3.06 2.70757V2.7164C3.09857 2.64574 3.15 2.59716 3.21 2.56183C3.27857 2.52208 3.35143 2.5 3.43286 2.5C3.47143 2.5 3.51 2.50883 3.54429 2.52208C3.58286 2.53091 3.62143 2.53975 3.65571 2.553L8.79857 5.61798C8.82429 5.64006 8.85 5.66215 8.88 5.68864C8.91 5.71514 8.93143 5.74164 8.94857 5.77256C8.96143 5.80789 8.97 5.84322 8.97857 5.87413C8.99143 5.90946 9 5.94479 9 5.98896C9 6.07287 8.97857 6.14795 8.94 6.21861C8.90571 6.28044 8.85857 6.33344 8.79857 6.37319L8.79429 6.3776Z" fill="#707070"/>
</svg>
