<svg width="24" height="24" viewBox="0 0 24 24" fill="none" xmlns="http://www.w3.org/2000/svg">
<g clip-path="url(#clip0_262_6177)">
<path opacity="0.45" fill-rule="evenodd" clip-rule="evenodd" d="M21.9776 18.6668C23.2962 16.6935 24 14.3734 24 12C24 8.8174 22.7357 5.76515 20.4853 3.51472C18.2348 1.26428 15.1826 0 12 0C9.62663 0 7.30655 0.703788 5.33316 2.02236C3.35977 3.34094 1.8217 5.21509 0.913451 7.4078C0.00519943 9.60051 -0.232441 12.0133 0.230582 14.3411C0.693605 16.6689 1.83649 18.8071 3.51472 20.4853C5.19295 22.1635 7.33115 23.3064 9.65892 23.7694C11.9867 24.2324 14.3995 23.9948 16.5922 23.0866C18.7849 22.1783 20.6591 20.6402 21.9776 18.6668ZM16.1354 8.92486C16.4283 8.63197 16.4283 8.15709 16.1354 7.8642C15.8425 7.57131 15.3676 7.57131 15.0747 7.8642L12.0001 10.9389L8.9254 7.8642C8.6325 7.57131 8.15763 7.57131 7.86474 7.8642C7.57184 8.15709 7.57184 8.63197 7.86474 8.92486L10.9394 11.9995L7.86225 15.0767C7.56936 15.3696 7.56935 15.8445 7.86225 16.1374C8.15514 16.4302 8.63002 16.4302 8.92291 16.1374L12.0001 13.0602L15.0772 16.1374C15.3701 16.4302 15.845 16.4302 16.1379 16.1374C16.4308 15.8445 16.4308 15.3696 16.1379 15.0767L13.0607 11.9995L16.1354 8.92486Z" fill="#111111"/>
</g>
<defs>
<clipPath id="clip0_262_6177">
<rect width="24" height="24" fill="white"/>
</clipPath>
</defs>
</svg>
