<svg width="24" height="24" viewBox="0 0 24 24" fill="none" xmlns="http://www.w3.org/2000/svg">
<g clip-path="url(#clip0_266_55172)">
<path d="M0 12.0002C0 12.7067 0 12.7854 0.0225 13.3854C0.0617143 14.7144 0.207643 16.2396 0.740786 17.8489C1.11686 18.9872 1.82379 20.2153 2.53093 20.9891C3.42879 21.9761 4.66886 22.7835 6.00429 23.2434C7.37357 23.7144 8.85493 23.9443 11.7334 24.0004H12.2666C15.1509 23.9387 16.6266 23.7144 17.9957 23.2434C19.3369 22.7835 20.5714 21.9761 21.4749 20.9891C22.182 20.2097 22.8889 18.9872 23.265 17.8489C23.7981 16.2396 23.9441 14.7088 23.9833 13.3854C24.0002 12.7909 24.0002 12.7069 24.0002 12.0002C24.0002 11.2935 24.0002 11.2095 23.9833 10.6151C23.9385 9.28607 23.7981 7.76078 23.265 6.15149C22.8891 5.01321 22.182 3.78514 21.4749 3.01135C20.577 2.02436 19.3369 1.21693 17.9957 0.757071C16.6264 0.286071 15.1451 0.0561428 12.2666 0H11.7334C8.84914 0.0617142 7.37336 0.286071 6.00429 0.757071C4.66307 1.21693 3.42857 2.02436 2.53093 3.01135C1.82379 3.79071 1.11686 5.01321 0.740786 6.15149C0.207643 7.76099 0.0617143 9.28628 0.0225 10.6151C0 11.2095 0 11.2935 0 12.0002Z" fill="#266798"/>
<path d="M5.35718 12.6379V12.1125C5.35718 12.1125 5.37048 12.0797 5.37048 12.0666C5.39708 11.8236 5.41036 11.5806 5.45026 11.3376C5.55001 10.6808 5.7628 10.0569 6.06203 9.46581C6.24822 9.09803 6.46765 8.75652 6.72034 8.43471C6.95971 8.12605 7.22568 7.84365 7.51827 7.58095C7.9372 7.2066 8.38936 6.89136 8.88807 6.62867C9.23384 6.45135 9.59956 6.3003 9.97195 6.18207C10.4972 6.01789 11.0359 5.92594 11.5811 5.89967C11.9136 5.88653 12.2461 5.90625 12.5719 5.99817C12.9509 6.10326 13.2768 6.3003 13.5494 6.58268C13.9484 7.00958 14.354 7.42332 14.7529 7.84365C15.0256 8.12605 15.2915 8.40846 15.5642 8.69085C16.0097 9.15715 16.4552 9.61686 16.9008 10.0832C17.0271 10.2145 17.1601 10.3524 17.2864 10.4838C16.7146 11.0683 16.1494 11.6397 15.5709 12.2373C14.354 11.0289 13.1438 9.83359 11.9402 8.6383C10.6768 9.88613 9.41339 11.134 8.16327 12.3621C9.42004 13.6099 10.6834 14.8577 11.9535 16.1121C11.9668 16.099 11.9801 16.0727 12.0001 16.053C13.2236 14.8446 14.4471 13.6362 15.6706 12.4278C15.7105 12.3883 15.7504 12.3687 15.8102 12.3687C16.6747 12.3687 17.5391 12.3687 18.4035 12.3687H18.5033C18.4966 12.5263 18.5033 12.6708 18.4833 12.8152C18.4501 13.1173 18.4168 13.4194 18.357 13.7215C18.2173 14.3849 17.9713 15.0153 17.6189 15.6064C17.2864 16.1647 16.8808 16.6704 16.402 17.1104C15.9831 17.4913 15.5243 17.8197 15.0256 18.0889C14.5269 18.3516 14.0082 18.5552 13.4629 18.6734C13.1504 18.7391 12.8312 18.7785 12.512 18.8245C12.4323 18.8376 12.3525 18.8442 12.266 18.8573H11.6011C11.6011 18.8573 11.5545 18.8442 11.5346 18.8442C11.3883 18.8311 11.242 18.8311 11.1024 18.8114C10.617 18.7457 10.1448 18.634 9.68601 18.4698C9.08091 18.2531 8.51571 17.951 8.00369 17.5701C7.41852 17.1366 6.91981 16.6244 6.50755 16.0267C6.14847 15.5079 5.86919 14.9431 5.66971 14.3455C5.49683 13.8069 5.39043 13.2553 5.37048 12.6839C5.37048 12.6642 5.35718 12.6511 5.35718 12.6313" fill="white"/>
<path d="M18.6427 9.13073C18.2836 9.4854 17.9379 9.84004 17.5788 10.2012C17.4857 10.1027 17.3926 10.0108 17.3062 9.91883C17.0867 9.68899 16.8673 9.45913 16.6479 9.22926C16.2422 8.80236 15.83 8.37548 15.4243 7.94861C15.1916 7.70561 14.9655 7.46261 14.7328 7.21961C14.4535 6.92406 14.1742 6.6351 13.895 6.33956C13.6689 6.09656 13.3963 5.92581 13.0904 5.79446C12.7114 5.63685 12.319 5.55803 11.9068 5.55803C11.8004 5.55803 11.694 5.57117 11.5676 5.58431C11.6142 5.5449 11.6474 5.51863 11.6807 5.49236C11.9068 5.34131 12.1594 5.26905 12.4188 5.21653C12.7047 5.15741 12.9973 5.13771 13.2899 5.14427C13.8617 5.15741 14.4203 5.26249 14.9389 5.52518C15.2382 5.67623 15.4842 5.89954 15.7103 6.13596C16.0028 6.44464 16.3021 6.74674 16.6013 7.04884C17.0136 7.47574 17.4325 7.89606 17.8448 8.32294C18.0908 8.5725 18.3368 8.82863 18.5829 9.07821C18.5962 9.09135 18.6095 9.11104 18.6294 9.13073" fill="white"/>
</g>
<defs>
<clipPath id="clip0_266_55172">
<rect width="24" height="24" fill="white"/>
</clipPath>
</defs>
</svg>
