<svg width="40" height="40" viewBox="0 0 40 40" fill="none" xmlns="http://www.w3.org/2000/svg">
<g clip-path="url(#clip0_266_55777)">
<path d="M0 20C0 21.1776 0 21.3084 0.0280636 22.3084C0.1029 24.5234 0.336763 27.0654 1.22544 29.7477C1.8522 31.6449 3.03087 33.6916 4.20954 34.9813C5.70629 36.6261 7.77361 37.9718 10.0094 38.7382C12.2919 39.5232 14.7615 39.9064 19.5603 40H20.449C25.2573 39.8971 27.7175 39.5232 30 38.7382C32.2358 37.9718 34.2938 36.6261 35.7904 34.9813C36.9693 33.6823 38.1479 31.6449 38.7746 29.7477C39.6632 27.0654 39.9064 24.514 39.9718 22.3084C40 21.3178 40 21.1776 40 20C40 18.8224 40 18.6916 39.9718 17.6916C39.8971 15.4766 39.6632 12.9346 38.7746 10.2523C38.1479 8.35514 36.9693 6.30839 35.7904 5.01868C34.2938 3.37383 32.2264 2.02804 30 1.26168C27.7175 0.476636 25.2479 0.0934579 20.449 0H19.5603C14.7521 0.102804 12.2919 0.476636 10.0094 1.26168C7.77361 2.02804 5.71561 3.37383 4.20954 5.01868C3.03087 6.31775 1.8522 8.35514 1.22544 10.2523C0.346118 12.9346 0.1029 15.4766 0.0280636 17.6916C0 18.6823 0 18.8224 0 20Z" fill="#0E0060"/>
<path d="M9.48038 16.2026L6.68228 19.5426V16.2026H5.26788V23.4895H6.68228V20.1407L9.57288 23.4895H11.3447L8.19974 19.8482L11.2522 16.2026H9.48038Z" fill="white"/>
<mask id="mask0_266_55777" style="mask-type:luminance" maskUnits="userSpaceOnUse" x="5" y="16" width="30" height="8">
<path d="M34.6434 16.1597H5.26843V23.6597H34.6434V16.1597Z" fill="white"/>
</mask>
<g mask="url(#mask0_266_55777)">
<path d="M14.7352 18.2704C14.1691 18.2856 13.6283 18.508 13.2152 18.8954V16.2017H11.8009V21.0017C11.7816 21.3581 11.8382 21.7147 11.9669 22.0477C12.0956 22.3807 12.2935 22.6826 12.5475 22.9334C12.8015 23.1843 13.1058 23.3784 13.4404 23.503C13.7749 23.6276 14.1321 23.6797 14.4884 23.656C14.8449 23.6715 15.2008 23.6127 15.5335 23.4835C15.8661 23.3542 16.1684 23.1573 16.421 22.9052C16.6737 22.6531 16.8712 22.3513 17.0011 22.0189C17.131 21.6865 17.1905 21.3308 17.1759 20.9742C17.1759 19.4935 16.2215 18.271 14.7384 18.271M14.4884 22.3429C14.1335 22.3389 13.7943 22.1964 13.5431 21.9458C13.2918 21.6953 13.1484 21.3564 13.1434 21.0017C13.1434 20.9892 13.1434 20.976 13.1434 20.9629C13.1433 20.8101 13.1682 20.6583 13.2171 20.5135C13.3047 20.2448 13.4745 20.0103 13.7027 19.8434C13.9308 19.6766 14.2057 19.5856 14.4884 19.5835C14.849 19.5912 15.1923 19.7399 15.4447 19.9977C15.697 20.2554 15.8384 20.6018 15.8384 20.9626C15.8384 21.3233 15.697 21.6697 15.4447 21.9275C15.1923 22.1853 14.849 22.334 14.4884 22.3417" fill="white"/>
<path d="M27.1719 18.2701C26.5659 18.2642 25.9812 18.4934 25.5406 18.9095V18.4289H24.1263V23.4914H25.5406V20.6533C25.5406 20.3766 25.6505 20.1113 25.8462 19.9157C26.0418 19.72 26.3071 19.6101 26.5838 19.6101C26.8604 19.6101 27.1257 19.72 27.3214 19.9157C27.517 20.1113 27.6269 20.3766 27.6269 20.6533V23.4914H29.05V20.2476C29.05 20.2283 29.05 20.2083 29.05 20.1889C29.0529 19.686 28.8571 19.2022 28.5054 18.8429C28.1536 18.4835 27.6741 18.2774 27.1713 18.2695" fill="white"/>
<path d="M20.5581 18.274C20.1998 18.2568 19.8418 18.3141 19.5067 18.4423C19.1717 18.5705 18.8669 18.7669 18.6116 19.0189C18.3564 19.271 18.1562 19.5733 18.0238 19.9068C17.8914 20.2402 17.8297 20.5974 17.8425 20.9559C17.8163 21.2976 17.8604 21.641 17.9719 21.965C18.0833 22.289 18.2599 22.5868 18.4908 22.84C18.7216 23.0933 19.0018 23.2966 19.3141 23.4376C19.6264 23.5785 19.9642 23.6541 20.3068 23.6597C20.6357 23.653 20.9587 23.5712 21.2511 23.4207C21.5436 23.2701 21.7978 23.0547 21.9943 22.7909V23.4909H23.2737V20.9572H23.2618L23.2731 20.9284C23.2905 20.57 23.2318 20.2119 23.1006 19.8778C22.9694 19.5438 22.7689 19.2413 22.5123 18.9904C22.2556 18.7396 21.9487 18.546 21.6117 18.4225C21.2748 18.299 20.9154 18.2484 20.5575 18.274M20.5868 22.3365C20.3126 22.3434 20.0427 22.2683 19.8114 22.121C19.58 21.9736 19.3979 21.7607 19.2882 21.5093C19.1785 21.2579 19.1463 20.9796 19.1955 20.7098C19.2448 20.44 19.3734 20.191 19.5649 19.9946C19.7563 19.7983 20.002 19.6634 20.2705 19.6074C20.5389 19.5513 20.818 19.5765 21.0721 19.6798C21.3261 19.7832 21.5436 19.9599 21.6968 20.1874C21.8499 20.4149 21.9318 20.6829 21.9318 20.9572C21.9358 21.318 21.7965 21.6657 21.5445 21.9239C21.2925 22.1822 20.9483 22.3299 20.5875 22.3347" fill="white"/>
<path d="M34.6437 23.4234L32.5256 20.9097L34.5812 18.399H33.0593L31.2687 20.5734V16.1597H29.8587V23.4234H31.2687V21.2441L33.0937 23.4241L34.6437 23.4234Z" fill="white"/>
</g>
</g>
<defs>
<clipPath id="clip0_266_55777">
<rect width="40" height="40" fill="white"/>
</clipPath>
</defs>
</svg>
