<svg width="32" height="32" viewBox="0 0 32 32" fill="none" xmlns="http://www.w3.org/2000/svg">
<path d="M0 15.9999C0 16.9382 0 17.0481 0.026 17.8416C0.0530106 19.862 0.376453 21.8676 0.986 23.7942C1.50352 25.3298 2.3134 26.7509 3.371 27.9792C4.64602 29.3438 6.23746 30.374 8.005 30.979C10.4801 31.7287 13.061 32.0696 15.646 31.9882H16.355C18.94 32.0696 21.5209 31.7287 23.996 30.979C25.7639 30.3729 27.3554 29.3413 28.63 27.9752C29.6871 26.7482 30.4966 25.3285 31.014 23.7942C31.6234 21.8692 31.9471 19.8654 31.975 17.8466C32 17.0481 32 16.9392 32 15.9999C32 15.0606 32 14.9517 31.975 14.1573C31.9472 12.1388 31.6234 10.1352 31.014 8.2106C30.497 6.67475 29.6871 5.25356 28.629 4.02565C27.3545 2.65922 25.763 1.62726 23.995 1.02085C21.5198 0.271814 18.939 -0.0690758 16.354 0.011588H15.645C13.0604 -0.0689669 10.4799 0.271922 8.005 1.02085C6.23697 1.62726 4.64549 2.65922 3.371 4.02565C2.31306 5.25405 1.50315 6.67553 0.986 8.2116C0.37692 10.1363 0.0534811 12.1398 0.026 14.1582C0 14.9517 0 15.0606 0 15.9999Z" fill="#BCC2CF"/>
<path d="M18.5 19.5913H23.5" stroke="white" stroke-width="1.5" stroke-linecap="round"/>
<path d="M18.5 22.5894H23.5" stroke="white" stroke-width="1.5" stroke-linecap="round"/>
<path d="M12.5 8.00586H10.5C9.39543 8.00586 8.5 8.90064 8.5 10.0044V12.0029C8.5 13.1067 9.39543 14.0015 10.5 14.0015H12.5C13.6046 14.0015 14.5 13.1067 14.5 12.0029V10.0044C14.5 8.90064 13.6046 8.00586 12.5 8.00586Z" stroke="white" stroke-width="1.5"/>
<path d="M12.5 17.9985H10.5C9.39543 17.9985 8.5 18.8933 8.5 19.9971V21.9956C8.5 23.0994 9.39543 23.9942 10.5 23.9942H12.5C13.6046 23.9942 14.5 23.0994 14.5 21.9956V19.9971C14.5 18.8933 13.6046 17.9985 12.5 17.9985Z" stroke="white" stroke-width="1.5"/>
<path d="M21.5 8.00586H19.5C18.3954 8.00586 17.5 8.90064 17.5 10.0044V12.0029C17.5 13.1067 18.3954 14.0015 19.5 14.0015H21.5C22.6046 14.0015 23.5 13.1067 23.5 12.0029V10.0044C23.5 8.90064 22.6046 8.00586 21.5 8.00586Z" stroke="white" stroke-width="1.5"/>
</svg>
