<svg width="40" height="40" viewBox="0 0 40 40" fill="none" xmlns="http://www.w3.org/2000/svg">
<g clip-path="url(#clip0_266_55818)">
<path d="M0 20C0 21.1776 0 21.3085 0.0374094 22.3084C0.102876 24.5234 0.346036 27.0655 1.23451 29.7477C1.86111 31.6449 3.03951 33.6917 4.21791 34.9814C5.71429 36.6264 7.78113 37.972 10.007 38.7383C12.289 39.5235 14.758 39.9068 19.5557 40H20.4442C25.2513 39.8971 27.711 39.5235 29.9929 38.7383C32.2282 37.972 34.2857 36.6264 35.7915 34.9814C36.9697 33.6823 38.1481 31.6449 38.7747 29.7477C39.6631 27.0655 39.9064 24.5141 39.9718 22.3084C40 21.3178 40 21.1776 40 20C40 18.8225 40 18.6916 39.9718 17.6916C39.8971 15.4767 39.6631 12.9346 38.7747 10.2524C38.1481 8.35516 36.9697 6.30843 35.7915 5.01869C34.295 3.37384 32.2282 2.02804 29.9929 1.26168C27.711 0.476638 25.242 0.093458 20.4442 0H19.5557C14.7486 0.102804 12.289 0.476638 10.007 1.26168C7.7718 2.02804 5.71429 3.37384 4.21791 5.01869C3.03951 6.31779 1.86111 8.35516 1.23451 10.2524C0.346036 12.9346 0.102876 15.4767 0.0374094 17.6916C0 18.6823 0 18.8225 0 20Z" fill="#29B54F"/>
<path d="M25.1882 23.2674C25.2603 22.9076 25.2603 22.517 25.2397 22.1469C25.1676 21.0058 24.3845 20.0807 23.282 19.7723C23.0966 19.7209 22.9111 19.6694 22.7256 19.6181V19.5564C23.2202 19.3713 23.6839 19.1246 24.0342 18.7237C24.3948 18.3125 24.6112 17.8397 24.6731 17.3051C24.7349 16.6986 24.6524 16.1846 24.4669 15.8145C24.3021 15.465 23.7972 14.5501 22.0971 14.4473H22.0662V25.1178C22.4989 25.1178 23.2202 25.015 23.6633 24.8711C24.4567 24.6244 25.0028 24.0898 25.1779 23.2571L25.1882 23.2674Z" fill="white"/>
<path d="M26.7438 8.93753H13.2665C10.876 8.93753 8.92859 10.8907 8.92859 13.2756V26.732C8.92859 29.1169 10.8863 31.0701 13.2665 31.0701H19.9846C20.0052 30.0935 19.9743 12.2168 19.9743 12.2168C23.7146 11.9906 25.425 13.3784 26.1874 14.7662C26.4038 15.1569 26.5378 15.5269 26.6305 15.8662C26.8057 16.5241 26.7954 17.0484 26.7954 17.2231C26.7954 17.439 26.7644 17.6754 26.7232 17.9016C26.6923 18.0661 26.6408 18.2202 26.579 18.3745C26.5481 18.4464 26.5275 18.5184 26.4863 18.5903C26.2081 19.1146 25.8371 19.3819 25.8371 19.3819C25.8371 19.3819 26.1153 19.6697 26.2493 19.8445C26.8881 20.6771 27.2693 21.4379 27.3312 22.5378C27.3827 23.6275 27.1663 24.5732 26.4863 25.375C26.3832 25.4881 26.2802 25.6012 26.1668 25.7143C25.8165 26.0432 25.4456 26.3002 25.0437 26.5059C24.3431 26.8656 23.5394 27.0198 22.8284 27.1021C22.509 27.1329 22.1587 27.1535 22.035 27.1432C22.035 27.2049 22.035 29.5487 22.0247 30.7309C22.0247 30.7514 22.0247 30.9673 22.0247 31.0598H26.7232C29.1137 31.0598 31.0714 29.1066 31.0714 26.7217V13.2654C31.0714 10.8804 29.1137 8.92725 26.7232 8.92725L26.7438 8.93753ZM18.6966 23.8125C18.4699 25.2825 17.6868 26.3619 16.4401 27.1432C16.3576 27.1946 16.2443 27.2254 16.1412 27.2151C15.3891 27.1946 14.6472 27.1637 13.895 27.1432C13.8126 27.1432 13.7404 27.1329 13.658 27.1226C13.6992 27.0198 15.4406 25.6629 16.0382 24.8097C16.6873 23.8845 16.6977 23.1032 15.9558 22.25C15.4921 21.7154 14.946 21.2528 14.4205 20.7697C13.2253 19.6697 12.5349 18.3642 12.6586 16.6988C12.6792 16.4007 12.8028 14.5195 14.5544 13.1626C15.9249 12.0935 17.7692 12.1654 18.3566 12.2168C18.3978 12.2168 18.4699 12.2271 18.5214 12.2374H18.5317L18.5523 14.3139C18.5523 14.3139 18.1814 14.3139 18.0578 14.3139C15.4509 14.3447 14.9975 16.1026 15.0593 15.9176C14.9254 16.339 14.8945 16.853 15.0078 17.3259C15.1933 18.1072 15.6776 18.7034 16.2134 19.2791C16.8007 19.9164 17.4086 20.5332 17.965 21.2014C18.5936 21.9519 18.8512 22.8359 18.6966 23.8228V23.8125Z" fill="white"/>
</g>
<defs>
<clipPath id="clip0_266_55818">
<rect width="40" height="40" fill="white"/>
</clipPath>
</defs>
</svg>
