<svg width="56" height="56" viewBox="0 0 56 56" fill="none" xmlns="http://www.w3.org/2000/svg">
<g clip-path="url(#clip0_266_56318)">
<path d="M0 28.0001C0 29.6487 0 29.8319 0.0392798 31.2319C0.144026 34.3329 0.471357 37.8917 1.71522 41.6469C2.59247 44.303 4.24222 47.1684 5.89197 48.974C7.9869 51.2769 10.8805 53.1608 14.0098 54.2341C17.2045 55.3328 20.6612 55.8565 27.378 56H28.6219C35.3518 55.8565 38.7954 55.3328 41.9901 54.2341C45.1194 53.1608 47.9999 51.2769 50.1081 48.974C51.7575 47.1553 53.4074 44.303 54.2846 41.6469C55.5284 37.8917 55.869 34.3198 55.9605 31.2319C56 29.845 56 29.6487 56 28.0001C56 26.3515 56 26.1683 55.9605 24.7683C55.856 21.6674 55.5284 18.1085 54.2846 14.3533C53.4074 11.6972 51.7575 8.83179 50.1081 7.02621C48.013 4.72338 45.1194 2.83926 41.9901 1.76636C38.7954 0.667293 35.3388 0.130841 28.6219 0H27.378C20.6481 0.143926 17.2045 0.667293 14.0098 1.76636C10.8805 2.83926 8.00001 4.72338 5.89197 7.02621C4.24222 8.8449 2.59247 11.6972 1.71522 14.3533C0.484451 18.1085 0.144026 21.6674 0.0392798 24.7683C0 26.1553 0 26.3515 0 28.0001Z" fill="#4041B4"/>
<path d="M14.0723 14.0859C14.0723 14.8839 14.0723 41.9224 14.0723 41.9224C14.0723 41.9224 40.868 41.9093 41.9283 41.9093V14.0859H14.0723ZM38.0012 37.985H17.9732V17.9579H38.0012V37.9719V37.985Z" fill="white"/>
<path d="M25.0154 35.2514L35.7363 20.7314H31.0107L20.1982 35.2122L25.0154 35.2514Z" fill="white"/>
</g>
<defs>
<clipPath id="clip0_266_56318">
<rect width="56" height="56" fill="white"/>
</clipPath>
</defs>
</svg>
