<svg width="40" height="40" viewBox="0 0 40 40" fill="none" xmlns="http://www.w3.org/2000/svg">
<g clip-path="url(#clip0_266_55921)">
<path d="M0 20C0 21.1776 0 21.3084 0.0280636 22.3084C0.1029 24.5234 0.336763 27.0654 1.22544 29.7476C1.8522 31.6449 3.03087 33.6916 4.20954 34.9813C5.70629 36.6261 7.77361 37.9718 10.0094 38.7382C12.2919 39.5232 14.7615 39.9064 19.5603 40H20.449C25.2573 39.8971 27.7175 39.5232 30 38.7382C32.2358 37.9718 34.2938 36.6261 35.7904 34.9813C36.9693 33.6823 38.1479 31.6449 38.7746 29.7476C39.6632 27.0654 39.9064 24.514 39.9718 22.3084C40 21.3178 40 21.1776 40 20C40 18.8224 40 18.6916 39.9718 17.6916C39.8971 15.4766 39.6632 12.9346 38.7746 10.2523C38.1479 8.35514 36.9693 6.30839 35.7904 5.01868C34.2938 3.37383 32.2264 2.02804 30 1.26168C27.7175 0.476636 25.2479 0.0934579 20.449 0H19.5603C14.7521 0.102804 12.2919 0.476636 10.0094 1.26168C7.77361 2.02804 5.71561 3.37383 4.20954 5.01868C3.03087 6.31775 1.8522 8.35514 1.22544 10.2523C0.346118 12.9346 0.1029 15.4766 0.0280636 17.6916C0 18.6823 0 18.8224 0 20Z" fill="#1D62E5"/>
<path d="M19.4862 8.58309C13.1788 8.87077 8.29916 14.2134 8.58334 20.5173C8.86748 26.8212 14.2102 31.7043 20.5175 31.4166C26.8214 31.129 31.701 25.7898 31.4168 19.4824C31.1327 13.1821 25.79 8.29894 19.4862 8.58309ZM20.8227 19.6754C22.8538 21.5487 23.9659 22.5554 23.9659 22.5554C27.5476 25.5372 26.3232 28.2629 24.9551 29.2101C23.9133 29.9327 22.7556 30.273 21.2402 30.3537C21.1033 30.3712 20.8543 30.2941 20.8438 30.052C20.8332 29.7924 21.2121 29.7293 21.2121 29.7293C24.5938 29.0628 23.6046 26.8457 22.4083 25.7161C21.9067 25.239 17.1989 21.1803 17.1989 21.1803C12.7122 17.318 13.0701 14.3011 13.0701 14.3011C13.2876 10.5897 16.5359 9.67059 18.9951 9.88105C19.2827 9.90562 19.4441 10.081 19.3914 10.3231C19.3388 10.5827 18.9564 10.6037 18.9564 10.6037C18.1742 10.6493 17.4761 10.73 16.9429 11.0878C14.9608 12.4208 15.5467 14.687 18.1882 17.2093C18.5215 17.5285 18.8723 17.8617 19.2336 18.202C19.2336 18.202 19.7633 18.6686 20.8192 19.6754H20.8227ZM19.2897 29.2697C19.3108 29.631 18.4303 29.7889 17.427 29.6907C16.1641 29.5679 14.6557 29.168 13.3437 28.0349C12.1369 26.9895 11.3897 25.5548 11.0249 24.2954C10.6531 23.0044 10.4987 21.4925 11.1126 21.6118C11.302 21.6504 11.6283 22.4783 11.9826 23.0816C12.3474 23.706 12.6491 24.0498 12.9262 24.2603C13.0525 24.3551 13.484 23.3974 14.1119 22.8536C14.4768 22.5519 14.8767 22.4502 14.9398 23.3482C15.017 24.4498 14.8206 25.7582 15.1398 25.7582C15.4414 25.7582 16.1185 25.5337 17.6059 25.4074C18.1637 25.3583 18.4829 25.4636 17.9497 26.2178C17.6831 26.5931 17.3252 27.1228 16.4833 27.7262C17.7462 28.9119 19.2652 28.7681 19.2932 29.2697H19.2897ZM20.286 17.7495C20.1913 17.3776 20.1667 16.9111 20.2439 16.3147C20.4018 15.0659 20.7385 14.4801 21.1209 13.5153C21.6366 12.2174 20.3842 11.4562 20.5912 10.9791C20.8753 10.3336 21.7734 11.1544 22.7697 11.2141C23.6291 11.2632 24.1483 11.2176 24.8183 11.3088C25.7058 11.4281 26.7723 11.7298 27.2423 12.284C27.6773 12.7927 27.0143 13.4136 26.2145 13.0242C25.6322 12.7401 24.8955 12.9155 25.327 13.5223C25.8462 14.1012 26.0952 14.1152 26.6214 14.2555C28.0772 14.6379 28.1053 16.0306 27.1231 16.7532C26.0005 17.5741 24.8674 17.2338 24.4114 15.6237C24.1834 14.8203 23.6151 14.4134 23.0363 14.6414C22.4574 14.8694 22.8012 15.9253 23.2397 16.904C24.1202 19.1492 21.9347 19.072 21.6787 19.0439C20.5175 18.7984 20.2825 17.746 20.2825 17.746L20.286 17.7495Z" fill="white"/>
</g>
<defs>
<clipPath id="clip0_266_55921">
<rect width="40" height="40" fill="white"/>
</clipPath>
</defs>
</svg>
