<svg width="56" height="56" viewBox="0 0 56 56" fill="none" xmlns="http://www.w3.org/2000/svg">
<g clip-path="url(#clip0_266_56339)">
<path d="M0 28C0 29.6486 0 29.8317 0.0392798 31.2317C0.144026 34.3327 0.471358 37.8916 1.71522 41.6467C2.59247 44.3028 4.24223 47.1682 5.892 48.9738C7.9869 51.2764 10.8805 53.1604 14.0098 54.2334C17.2046 55.3324 20.6612 55.8689 27.378 55.9999H28.622C35.3519 55.8559 38.7954 55.3324 41.9902 54.2334C45.1194 53.1604 48 51.2764 50.108 48.9738C51.758 47.1551 53.4075 44.3028 54.285 41.6467C55.5285 37.8916 55.869 34.3196 55.9605 31.2317C56 29.8448 56 29.6486 56 28C56 26.3514 56 26.1551 55.9605 24.7682C55.856 21.6673 55.5285 18.1084 54.285 14.3532C53.4075 11.6972 51.758 8.83175 50.108 7.02615C48.0131 4.72337 45.1194 2.83925 41.9902 1.76635C38.7954 0.667288 35.3388 0.130841 28.622 0H27.378C20.6481 0.143925 17.2046 0.667288 14.0098 1.76635C10.8805 2.83925 8 4.72337 5.892 7.02615C4.24223 8.84485 2.59247 11.6972 1.71522 14.3532C0.484452 18.1084 0.144026 21.6673 0.0392798 24.7682C0 26.1551 0 26.3514 0 28Z" fill="#A30236"/>
<path d="M44 28.2175C44 19.3803 36.8372 12.2163 27.9989 12.2163C19.1628 12.2163 12 19.3803 12 28.2175C12 37.0514 19.1628 44.2185 27.9989 44.2185C36.8372 44.2185 44 37.0514 44 28.2175ZM26.1567 21.6879H24.1793C22.0722 21.6879 20.364 23.3939 20.364 25.5043V30.9306C20.364 33.0399 22.0722 34.7458 24.1793 34.7458H26.1567V40.6377C20.0938 39.7427 15.4446 34.5246 15.4446 28.2175C15.4446 21.9103 20.0938 16.6911 26.1567 15.7961V21.6879ZM31.813 25.138C32.0212 25.138 32.1847 25.3059 32.1847 25.5075V30.9263C32.1847 31.1279 32.0212 31.2947 31.813 31.2947H24.1847C23.9787 31.2947 23.8163 31.1279 23.8163 30.9263V25.5075C23.8163 25.3059 23.9787 25.138 24.1847 25.138H31.813ZM40.5532 28.2175C40.5532 34.5246 35.904 39.7427 29.8465 40.6377V34.7458H31.8195C33.9256 34.7458 35.637 33.0399 35.637 30.9306V25.5043C35.637 23.3939 33.9256 21.6879 31.8195 21.6879H29.8465V15.7961C35.904 16.6911 40.5532 21.9103 40.5532 28.2175Z" fill="white"/>
</g>
<defs>
<clipPath id="clip0_266_56339">
<rect width="56" height="56" fill="white"/>
</clipPath>
</defs>
</svg>
