<svg width="24" height="24" viewBox="0 0 24 24" fill="none" xmlns="http://www.w3.org/2000/svg">
<path d="M0 11.9999C0 12.7037 0 12.7861 0.0195 13.3812C0.039758 14.8965 0.28234 16.4007 0.7395 17.8457C1.12764 18.9974 1.73505 20.0632 2.52825 20.9844C3.48452 22.0079 4.6781 22.7805 6.00375 23.2342C7.86004 23.7965 9.79575 24.0522 11.7345 23.9912H12.2662C14.205 24.0522 16.1407 23.7965 17.997 23.2342C19.323 22.7797 20.5166 22.0059 21.4725 20.9814C22.2653 20.0611 22.8725 18.9963 23.2605 17.8457C23.7175 16.4019 23.9604 14.899 23.9813 13.3849C24 12.7861 24 12.7044 24 11.9999C24 11.2954 24 11.2138 23.9813 10.6179C23.9604 9.10407 23.7175 7.60143 23.2605 6.15795C22.8728 5.00606 22.2653 3.94017 21.4718 3.01924C20.5159 1.99441 19.3223 1.22045 17.9963 0.765638C16.1398 0.203861 14.2042 -0.0518069 12.2655 0.00869097H11.7338C9.79528 -0.0517252 7.85992 0.203941 6.00375 0.765638C4.67773 1.22045 3.48412 1.99441 2.52825 3.01924C1.73479 3.94054 1.12736 5.00665 0.7395 6.1587C0.28269 7.60222 0.0401108 9.10485 0.0195 10.6187C0 11.2138 0 11.2954 0 11.9999Z" fill="#BCC2CF"/>
<path d="M13.875 14.6934H17.625" stroke="white" stroke-width="1.5" stroke-linecap="round"/>
<path d="M13.875 16.9419H17.625" stroke="white" stroke-width="1.5" stroke-linecap="round"/>
<path d="M9.375 6.00439H7.875C7.04657 6.00439 6.375 6.67548 6.375 7.5033V9.0022C6.375 9.83003 7.04657 10.5011 7.875 10.5011H9.375C10.2034 10.5011 10.875 9.83003 10.875 9.0022V7.5033C10.875 6.67548 10.2034 6.00439 9.375 6.00439Z" stroke="white" stroke-width="1.5"/>
<path d="M9.375 13.499H7.875C7.04657 13.499 6.375 14.1701 6.375 14.9979V16.4968C6.375 17.3247 7.04657 17.9957 7.875 17.9957H9.375C10.2034 17.9957 10.875 17.3247 10.875 16.4968V14.9979C10.875 14.1701 10.2034 13.499 9.375 13.499Z" stroke="white" stroke-width="1.5"/>
<path d="M16.125 6.00439H14.625C13.7966 6.00439 13.125 6.67548 13.125 7.5033V9.0022C13.125 9.83003 13.7966 10.5011 14.625 10.5011H16.125C16.9534 10.5011 17.625 9.83003 17.625 9.0022V7.5033C17.625 6.67548 16.9534 6.00439 16.125 6.00439Z" stroke="white" stroke-width="1.5"/>
</svg>
