<svg width="56" height="56" viewBox="0 0 56 56" fill="none" xmlns="http://www.w3.org/2000/svg">
<g clip-path="url(#clip0_266_56020)">
<path d="M0 28V31.22C0 34.72 0.56 38.22 1.68 41.58C2.52 44.24 4.06 46.76 5.88 48.86C8.12 51.24 10.92 53.06 14 54.18C17.22 55.3 20.58 55.86 27.3 56H28.56C35.28 56 38.78 55.3 42 54.18C45.08 53.06 47.88 51.38 50.12 48.86C51.94 46.76 53.34 44.24 54.32 41.58C55.44 38.22 56 34.72 56 31.22V24.78C56 21.28 55.44 17.78 54.32 14.42C53.48 11.76 51.94 9.24 50.12 7.14C47.88 4.76 45.08 2.94 42 1.82C38.78 0.7 35.42 0.14 28.7 0H27.44C20.72 0.14 17.22 0.7 14 1.82C10.92 2.94 8.12 4.62 5.88 7.14C4.06 9.24 2.66 11.76 1.68 14.42C0.7 17.78 0 21.28 0 24.78V28Z" fill="#7E7266"/>
<path d="M0 28V31.22C0 34.72 0.56 38.22 1.68 41.58C2.52 44.24 4.06 46.76 5.88 48.86C8.12 51.24 10.92 53.06 14 54.18C17.22 55.3 20.58 55.86 27.3 56H28.56C35.28 56 38.78 55.3 42 54.18C45.08 53.06 47.88 51.38 50.12 48.86C51.94 46.76 53.34 44.24 54.32 41.58C55.44 38.22 56 34.72 56 31.22V24.78C56 21.28 55.44 17.78 54.32 14.42C53.48 11.76 51.94 9.24 50.12 7.14C47.88 4.76 45.08 2.94 42 1.82C38.78 0.7 35.42 0.14 28.7 0H27.44C20.72 0.14 17.22 0.7 14 1.82C10.92 2.94 8.12 4.62 5.88 7.14C4.06 9.24 2.66 11.76 1.68 14.42C0.7 17.78 0 21.28 0 24.78V28Z" fill="#60584C"/>
<path d="M44.8002 28.2797H44.5202C43.4002 27.0197 41.7202 26.4597 40.1802 26.7397C38.7802 26.7397 37.5202 27.2997 36.4002 27.9997V24.9197C36.4002 24.3597 36.4002 23.9397 36.1202 23.5197C36.1202 23.5197 35.9802 23.3797 35.8402 23.3797C35.2802 23.3797 34.5802 23.6597 34.0202 23.9397V24.2197C34.0202 25.0597 33.7402 25.7597 33.6002 26.5997C33.3202 28.8397 33.3202 30.7997 33.6002 32.7597C33.6002 32.8997 34.0202 33.1797 34.1602 33.3197C34.7202 33.3197 35.2802 33.3197 35.8402 33.0397H35.9802C36.1202 33.0397 36.2602 32.8997 36.2602 32.7597V32.1997C36.6802 30.5197 38.0802 29.1197 39.9002 28.6997C40.7402 28.5597 41.7202 28.6997 42.2802 29.3997C42.4202 30.2397 42.2802 31.0797 41.8602 31.7797C41.3002 32.7597 40.3202 33.5997 39.2002 33.8797C37.8002 34.2997 36.4002 34.5797 35.0002 34.4397L33.4602 33.4597C32.0602 32.4797 30.6602 31.4997 29.1202 30.7997C28.7002 30.6597 28.4202 30.3797 28.1402 30.0997H28.0002C27.1602 29.2597 25.6202 28.2797 24.2202 27.4397L23.5202 27.0197C23.5202 26.8797 24.3602 26.3197 24.3602 26.3197C25.0602 26.0397 25.6202 25.6197 26.1802 25.1997H26.3202L29.1202 23.6597C31.7802 22.3997 34.3002 20.7197 36.5402 18.8997V17.3597C36.5402 17.3597 36.5402 17.2197 36.2602 17.0797C34.5802 17.0797 33.0402 17.9197 31.9202 19.0397C31.6402 19.3197 31.3602 19.4597 31.0802 19.5997H30.8002C29.1202 20.5797 25.4802 22.9597 23.6602 24.0797C23.8002 21.5597 24.2202 19.1797 24.6402 16.6597V16.3797L24.3602 15.9597V15.6797H24.2202C23.9402 15.5397 23.6602 15.5397 23.2402 15.6797H22.8202C22.8202 15.8197 22.2602 15.9597 22.2602 15.9597C22.2602 15.9597 22.1202 15.9597 21.9802 16.0997C21.0002 18.8997 20.3002 21.8397 20.1602 24.7797C18.7602 23.9397 17.3602 23.0997 15.8202 22.3997C15.4002 22.3997 15.1202 22.1197 14.8402 21.9797L14.1402 21.5597L13.0202 20.8597H12.7402C12.1802 20.9997 11.6202 21.4197 11.2002 21.9797V22.6797C12.1802 23.5197 13.1602 24.2197 14.2802 24.7797L15.6802 25.6197L17.9202 26.8797L18.3402 27.1597H18.6202V27.2997L14.5602 29.9597L12.4602 31.3597C12.0402 31.6397 11.6202 31.7797 11.2002 31.9197C10.7802 31.9197 10.5002 32.3397 10.2202 32.7597V32.8997H10.3602L10.6402 33.1797H10.9202C10.9202 33.3197 11.2002 33.3197 11.2002 33.3197C11.9002 33.3197 12.6002 33.0397 13.1602 32.6197C14.1402 32.1997 16.6602 30.6597 17.7802 29.9597L18.2002 29.6797C18.4802 29.6797 18.6202 29.6797 18.7602 29.3997C19.0402 29.1197 19.4602 28.9797 19.7402 28.8397H20.0202C20.0202 31.4997 20.1602 34.0197 20.5802 36.5397C20.8602 37.0997 21.0002 37.6597 21.1402 38.3597L21.5602 39.7597C21.9802 40.0397 22.5402 40.1797 22.9602 40.1797V37.9397C22.8202 35.5597 22.6802 32.1997 22.6802 29.8197C23.1002 29.8197 24.7802 30.9397 24.7802 30.9397C27.7202 32.8997 32.3402 35.8397 35.0002 36.5397H35.4202L35.8402 36.2597C35.9802 36.1197 36.1202 35.8397 36.1202 35.5597C38.9202 35.5597 41.4402 34.4397 43.4002 32.3397C43.9602 31.4997 44.3802 30.6597 44.3802 29.5397C44.3802 28.9797 44.2402 28.2797 43.8202 27.8597" fill="white"/>
</g>
<defs>
<clipPath id="clip0_266_56020">
<rect width="56" height="56" fill="white"/>
</clipPath>
</defs>
</svg>
