<svg width="24" height="24" viewBox="0 0 24 24" fill="none" xmlns="http://www.w3.org/2000/svg">
<g clip-path="url(#clip0_266_55009)">
<path d="M0 12C0 12.7066 0 12.7851 0.0168342 13.3851C0.0617254 14.714 0.20201 16.2393 0.735094 17.8486C1.11106 18.987 1.81809 20.215 2.52513 20.9888C3.42296 21.9758 4.66308 22.7832 6.0042 23.243C7.37338 23.7141 8.8548 23.9441 11.7334 24H12.2665C15.1508 23.9383 16.6266 23.7141 17.9958 23.243C19.3369 22.7832 20.5714 21.9758 21.4749 20.9888C22.1818 20.2094 22.8889 18.987 23.2648 17.8486C23.7979 16.2393 23.9438 14.7084 23.9831 13.3851C24 12.7907 24 12.7066 24 12C24 11.2935 24 11.215 23.9831 10.615C23.9383 9.28599 23.7979 7.76076 23.2648 6.15141C22.8889 5.01309 22.1818 3.78506 21.4749 3.01122C20.577 2.0243 19.3369 1.21683 17.9958 0.75701C16.6266 0.285981 15.1452 0.0560748 12.2665 0H11.7334C8.84918 0.0616823 7.37338 0.285981 6.0042 0.75701C4.66308 1.21683 3.42857 2.0243 2.52513 3.01122C1.81809 3.79067 1.11106 5.01309 0.735094 6.15141C0.207622 7.76076 0.0617254 9.28599 0.0168342 10.615C0 11.2094 0 11.2935 0 12Z" fill="#B19C52"/>
<path d="M17.537 13.0575C16.9341 14.559 15.9154 14.9795 15.9154 14.9795C18.9054 11.9644 17.0788 8.48697 17.0788 8.48697C16.6388 7.7062 17.1994 7.36986 17.1994 7.36986C15.9154 7.68818 16.3193 8.75123 16.3193 8.75123C16.9643 10.2828 16.8317 11.526 16.6146 12.2948L16.1927 12.0606V12.0485C16.1927 12.0485 17.1994 8.11461 13.1183 6.73922V6.00049H12.2502V10.8774L16.259 13.1536C16.1867 13.3038 16.1083 13.4419 16.0299 13.5741L12.003 11.2497L7.95808 13.5741C7.87972 13.4419 7.80135 13.3038 7.72901 13.1536L11.7378 10.8774V6.00049H10.8758V6.73922C6.7886 8.11461 7.78929 12.0485 7.78929 12.0485V12.0606L7.37334 12.2948C7.15631 11.526 7.02369 10.2828 7.66873 8.75123C7.66873 8.75123 8.07262 7.69418 6.7886 7.36986C6.7886 7.36986 7.34923 7.7122 6.90915 8.48697C6.90915 8.48697 5.0826 11.9644 8.07262 14.9795C8.07262 14.9795 7.05384 14.559 6.45101 13.0575C6.45101 13.0575 6.1074 12.3248 5.14288 12.487L5.7216 13.3158C5.7216 13.3158 6.58965 16.0666 9.93534 16.481V18.0005H11.5811V15.7663C11.5811 15.7663 9.83889 15.7542 8.50665 14.2888L8.91658 14.0485C8.99495 14.1206 10.2609 15.2858 11.985 15.3218H11.997H12.0091C13.7331 15.2918 15.0051 14.1206 15.0835 14.0485L15.4934 14.2888C14.1612 15.7482 12.419 15.7663 12.419 15.7663V18.0005H14.0647V16.481C17.4104 16.0605 18.2784 13.3158 18.2784 13.3158C18.4895 12.6552 18.8572 12.487 18.8572 12.487C17.8926 12.3248 17.549 13.0575 17.549 13.0575M15.409 11.6041L13.1484 10.3428L13.1364 7.64614H13.1484C13.1484 7.64614 15.8732 8.38487 15.415 11.6041M10.8697 7.64614H10.8818L10.8697 10.3428L8.60913 11.6041C8.14496 8.38487 10.8758 7.64614 10.8758 7.64614M14.2757 13.5681L14.2576 13.5561C13.4498 14.1927 12.6842 14.3969 12.0151 14.3969C11.346 14.3969 10.5804 14.1867 9.77259 13.5561L9.7545 13.5681L12.0211 12.2467L14.2757 13.5621V13.5681Z" fill="white"/>
</g>
<defs>
<clipPath id="clip0_266_55009">
<rect width="24" height="24" fill="white"/>
</clipPath>
</defs>
</svg>
