<svg width="32" height="32" viewBox="0 0 32 32" fill="none" xmlns="http://www.w3.org/2000/svg">
<g clip-path="url(#clip0_266_55557)">
<path d="M0 16C0 16.9421 0 17.0467 0.0224456 17.8467C0.0823006 19.6187 0.269348 21.6523 0.980126 23.7981C1.48141 25.3159 2.42413 26.9533 3.36686 27.9851C4.56394 29.3008 6.21743 30.3774 8.0056 30.9905C9.8312 31.6185 11.8064 31.9251 15.6446 32H16.3554C20.2011 31.9177 22.1688 31.6185 23.9944 30.9905C25.7825 30.3774 27.4286 29.3008 28.6331 27.9851C29.576 26.9458 30.5186 25.3159 31.02 23.7981C31.7306 21.6523 31.9251 19.6112 31.9774 17.8467C32 17.0542 32 16.9421 32 16C32 15.0579 32 14.9458 31.9774 14.1533C31.9177 12.3813 31.7306 10.3477 31.02 8.20186C30.5186 6.68411 29.576 5.04671 28.6331 4.01494C27.4361 2.69907 25.7825 1.62243 23.9944 1.00934C22.1688 0.381307 20.1936 0.0747663 16.3554 0H15.6446C11.7989 0.0822429 9.8312 0.381307 8.0056 1.00934C6.21743 1.62243 4.57143 2.69907 3.36686 4.01494C2.42413 5.0542 1.48141 6.68411 0.980126 8.20186C0.276829 10.3477 0.0823006 12.3813 0.0224456 14.1533C0 14.9458 0 15.0579 0 16Z" fill="#A30236"/>
<path d="M25.1429 16.1245C25.1429 11.0746 21.0499 6.98096 15.9994 6.98096C10.9502 6.98096 6.85718 11.0746 6.85718 16.1245C6.85718 21.1724 10.9502 25.2679 15.9994 25.2679C21.0499 25.2679 25.1429 21.1724 25.1429 16.1245ZM14.9467 12.3933H13.8168C12.6127 12.3933 11.6366 13.3681 11.6366 14.5741V17.6748C11.6366 18.8801 12.6127 19.855 13.8168 19.855H14.9467V23.2217C11.4822 22.7103 8.82552 19.7285 8.82552 16.1245C8.82552 12.5204 11.4822 9.53796 14.9467 9.02656V12.3933ZM18.1789 14.3648C18.2979 14.3648 18.3913 14.4607 18.3913 14.5759V17.6724C18.3913 17.7876 18.2979 17.8829 18.1789 17.8829H13.8199C13.7022 17.8829 13.6093 17.7876 13.6093 17.6724V14.5759C13.6093 14.4607 13.7022 14.3648 13.8199 14.3648H18.1789ZM23.1733 16.1245C23.1733 19.7285 20.5166 22.7103 17.0552 23.2217V19.855H18.1826C19.3861 19.855 20.364 18.8801 20.364 17.6748V14.5741C20.364 13.3681 19.3861 12.3933 18.1826 12.3933H17.0552V9.02656C20.5166 9.53796 23.1733 12.5204 23.1733 16.1245Z" fill="white"/>
</g>
<defs>
<clipPath id="clip0_266_55557">
<rect width="32" height="32" fill="white"/>
</clipPath>
</defs>
</svg>
