<svg width="32" height="32" viewBox="0 0 32 32" fill="none" xmlns="http://www.w3.org/2000/svg">
<g clip-path="url(#clip0_266_55254)">
<path d="M0 16C0 16.9421 0 17.0467 0.0299274 17.8467C0.0823006 19.6187 0.27683 21.6523 0.987609 23.7981C1.48889 25.3159 2.43161 26.9533 3.37431 27.9851C4.57143 29.3009 6.22491 30.3774 8.0056 30.9906C9.8312 31.6186 11.8064 31.9251 15.6446 32H16.3554C20.2011 31.9177 22.1688 31.6186 23.9944 30.9906C25.7825 30.3774 27.4286 29.3009 28.6331 27.9851C29.576 26.9458 30.5186 25.3159 31.02 23.7981C31.7306 21.6523 31.9251 19.6112 31.9774 17.8467C32 17.0542 32 16.9421 32 16C32 15.0579 32 14.9533 31.9774 14.1533C31.9177 12.3813 31.7306 10.3477 31.02 8.20186C30.5186 6.68411 29.576 5.04671 28.6331 4.01494C27.4361 2.69907 25.7825 1.62243 23.9944 1.00935C22.1688 0.381309 20.1936 0.0822429 16.3554 0H15.6446C11.7989 0.0822429 9.8312 0.381309 8.0056 1.00935C6.21743 1.62243 4.57143 2.69907 3.37431 4.01494C2.43161 5.0542 1.48889 6.68411 0.987609 8.20186C0.27683 10.3477 0.0823006 12.3813 0.0299274 14.1533C0 14.9458 0 15.0579 0 16Z" fill="#345D98"/>
<path d="M14.4941 21.7157L10.1661 14.9661C9.75571 14.3357 9.43054 13.0135 9.75571 12.3755L7.06911 16.5651C6.79037 16.9956 6.78263 17.7028 7.06911 18.1487L10.1273 22.9226C10.4061 23.3454 11.0409 23.7144 11.6836 23.7144H15.7871L14.5018 21.7157H14.4941Z" fill="white"/>
<path d="M10.6617 14.6586L12.5586 17.6106C12.3341 17.1647 12.4657 16.6112 12.6128 16.3806L16.1975 10.7534H12.1637C11.4514 10.7534 10.8862 11.0686 10.5765 11.5452L10.2359 12.068C9.91068 12.706 10.2359 14.0206 10.6462 14.6509" fill="white"/>
<path d="M24.9233 13.8513L21.865 9.07744C21.5863 8.65464 20.9514 8.28564 20.3088 8.28564H16.2054L21.8186 17.0339C22.2289 17.6642 22.5541 18.9788 22.2367 19.6245L24.931 15.4349C25.202 15.0044 25.2252 14.2972 24.931 13.8513" fill="white"/>
<path d="M21.3148 17.3187L19.418 14.3667C19.6425 14.8126 19.5109 15.3661 19.3638 15.5967L15.779 21.2238H19.8128C20.5251 21.2238 21.0903 20.9087 21.4 20.432L21.7407 19.9093C22.0658 19.2712 21.7407 17.9567 21.3226 17.3187" fill="white"/>
</g>
<defs>
<clipPath id="clip0_266_55254">
<rect width="32" height="32" fill="white"/>
</clipPath>
</defs>
</svg>
