<svg width="40" height="40" viewBox="0 0 40 40" fill="none" xmlns="http://www.w3.org/2000/svg">
<g clip-path="url(#clip0_266_55797)">
<path d="M0 20C0 21.1776 0 21.3084 0.0280636 22.3084C0.1029 24.5234 0.336763 27.0654 1.22544 29.7476C1.8522 31.6449 3.03087 33.6916 4.20954 34.9813C5.70629 36.6261 7.77361 37.9718 10.0094 38.7382C12.2919 39.5232 14.7615 39.9064 19.5603 40H20.449C25.2573 39.8971 27.7175 39.5232 30 38.7382C32.2358 37.9718 34.2938 36.6261 35.7904 34.9813C36.9693 33.6823 38.1479 31.6449 38.7746 29.7476C39.6632 27.0654 39.9064 24.514 39.9718 22.3084C40 21.3178 40 21.1776 40 20C40 18.8224 40 18.6916 39.9718 17.6916C39.8971 15.4766 39.6632 12.9346 38.7746 10.2523C38.1479 8.35514 36.9693 6.30839 35.7904 5.01868C34.2938 3.37383 32.2264 2.02804 30 1.26168C27.7175 0.476636 25.2479 0.0934579 20.449 0H19.5603C14.7521 0.102804 12.2919 0.476636 10.0094 1.26168C7.77361 2.02804 5.71561 3.37383 4.20954 5.01868C3.03087 6.31775 1.8522 8.35514 1.22544 10.2523C0.346118 12.9346 0.1029 15.4766 0.0280636 17.6916C0 18.6823 0 18.8224 0 20Z" fill="#229DEE"/>
<path d="M0 20C0 21.1776 0 21.3084 0.0280636 22.3084C0.1029 24.5234 0.336763 27.0654 1.22544 29.7476C1.8522 31.6449 3.03087 33.6916 4.20954 34.9813C5.70629 36.6261 7.77361 37.9718 10.0094 38.7382C12.2919 39.5232 14.7615 39.9064 19.5603 40H20.449C25.2573 39.8971 27.7175 39.5232 30 38.7382C32.2358 37.9718 34.2938 36.6261 35.7904 34.9813C36.9693 33.6823 38.1479 31.6449 38.7746 29.7476C39.6632 27.0654 39.9064 24.514 39.9718 22.3084C40 21.3178 40 21.1776 40 20C40 18.8224 40 18.6916 39.9718 17.6916C39.8971 15.4766 39.6632 12.9346 38.7746 10.2523C38.1479 8.35514 36.9693 6.30839 35.7904 5.01868C34.2938 3.37383 32.2264 2.02804 30 1.26168C27.7175 0.476636 25.2479 0.0934579 20.449 0H19.5603C14.7521 0.102804 12.2919 0.476636 10.0094 1.26168C7.77361 2.02804 5.71561 3.37383 4.20954 5.01868C3.03087 6.31775 1.8522 8.35514 1.22544 10.2523C0.346118 12.9346 0.1029 15.4766 0.0280636 17.6916C0 18.6823 0 18.8224 0 20Z" fill="#52C3F1"/>
<path d="M0 20C0 21.1776 0 21.3084 0.0280636 22.3084C0.1029 24.5234 0.336763 27.0654 1.22544 29.7476C1.8522 31.6449 3.03087 33.6916 4.20954 34.9813C5.70629 36.6261 7.77361 37.9718 10.0094 38.7382C12.2919 39.5232 14.7615 39.9064 19.5603 40H20.449C25.2573 39.8971 27.7175 39.5232 30 38.7382C32.2358 37.9718 34.2938 36.6261 35.7904 34.9813C36.9693 33.6823 38.1479 31.6449 38.7746 29.7476C39.6632 27.0654 39.9064 24.514 39.9718 22.3084C40 21.3178 40 21.1776 40 20C40 18.8224 40 18.6916 39.9718 17.6916C39.8971 15.4766 39.6632 12.9346 38.7746 10.2523C38.1479 8.35514 36.9693 6.30839 35.7904 5.01868C34.2938 3.37383 32.2264 2.02804 30 1.26168C27.7175 0.476636 25.2479 0.0934579 20.449 0H19.5603C14.7521 0.102804 12.2919 0.476636 10.0094 1.26168C7.77361 2.02804 5.71561 3.37383 4.20954 5.01868C3.03087 6.31775 1.8522 8.35514 1.22544 10.2523C0.346118 12.9346 0.1029 15.4766 0.0280636 17.6916C0 18.6823 0 18.8224 0 20Z" fill="#53C3F1"/>
<path d="M7.85718 23.107C7.87964 27.0228 11.1258 30.1665 15.1021 30.1555C16.3152 30.1555 17.5058 29.8466 18.5729 29.262V24.7175C17.4609 26.1514 15.3829 26.4382 13.9115 25.3462C12.44 24.2542 12.1592 22.2136 13.2712 20.7686C13.3386 20.6914 13.406 20.6031 13.4734 20.5259C12.8781 19.467 12.5748 18.2757 12.5748 17.0623C12.5748 16.8748 12.5748 16.6763 12.5972 16.4888C9.75546 17.4925 7.85718 20.1398 7.85718 23.107Z" fill="white"/>
<path d="M12.5747 17.062C12.5747 18.2754 12.878 19.4667 13.4733 20.5256C14.1023 19.8527 14.9897 19.4777 15.922 19.4777C16.2927 19.4777 16.6521 19.5329 17.0003 19.6542C16.6072 19.0806 16.405 18.4078 16.405 17.7239C16.4162 15.7715 18.0337 14.2051 20.0218 14.2162C21.4147 14.2162 22.6727 15.0214 23.2568 16.2568C23.8072 16.1355 24.3688 16.0693 24.9304 16.0693C25.7728 16.0693 26.604 16.2127 27.3903 16.4884C27.0421 12.4734 23.4477 9.50618 19.3591 9.84811C15.5288 10.168 12.5859 13.3006 12.5635 17.0731" fill="white"/>
<path d="M23.2679 16.2569C23.7846 17.3599 23.6835 18.6394 22.9983 19.6542C23.3465 19.5439 23.706 19.4888 24.0766 19.4888C25.9075 19.4888 27.3902 20.9558 27.379 22.7538C27.3677 24.5518 25.8851 26.0078 24.0542 25.9968C23.0208 25.9968 22.0548 25.5224 21.4258 24.7172V29.2618C24.8741 31.1811 29.2548 29.9898 31.2092 26.5924C33.1637 23.195 31.9506 18.9042 28.491 16.9849C27.4014 16.3782 26.1771 16.0693 24.9191 16.0693C24.3574 16.0693 23.7958 16.1355 23.2567 16.2569" fill="white"/>
</g>
<defs>
<clipPath id="clip0_266_55797">
<rect width="40" height="40" fill="white"/>
</clipPath>
</defs>
</svg>
