<svg width="32" height="32" viewBox="0 0 32 32" fill="none" xmlns="http://www.w3.org/2000/svg">
<g clip-path="url(#clip0_266_55238)">
<path d="M0 16V17.84C0 19.84 0.32 21.84 0.96 23.76C1.44 25.28 2.32 26.72 3.36 27.92C4.64 29.28 6.24 30.32 8 30.96C9.84 31.6 11.76 31.92 15.6 32H16.32C20.16 32 22.16 31.6 24 30.96C25.76 30.32 27.36 29.36 28.64 27.92C29.68 26.72 30.48 25.28 31.04 23.76C31.68 21.84 32 19.84 32 17.84V14.16C32 12.16 31.68 10.16 31.04 8.24C30.56 6.72 29.68 5.28 28.64 4.08C27.36 2.72 25.76 1.68 24 1.04C22.16 0.4 20.24 0.08 16.4 0H15.68C11.84 0.08 9.84 0.4 8 1.04C6.24 1.68 4.64 2.64 3.36 4.08C2.32 5.28 1.52 6.72 0.96 8.24C0.4 10.16 0 12.16 0 14.16V16Z" fill="#7E7266"/>
<path d="M0 16V17.84C0 19.84 0.32 21.84 0.96 23.76C1.44 25.28 2.32 26.72 3.36 27.92C4.64 29.28 6.24 30.32 8 30.96C9.84 31.6 11.76 31.92 15.6 32H16.32C20.16 32 22.16 31.6 24 30.96C25.76 30.32 27.36 29.36 28.64 27.92C29.68 26.72 30.48 25.28 31.04 23.76C31.68 21.84 32 19.84 32 17.84V14.16C32 12.16 31.68 10.16 31.04 8.24C30.56 6.72 29.68 5.28 28.64 4.08C27.36 2.72 25.76 1.68 24 1.04C22.16 0.4 20.24 0.08 16.4 0H15.68C11.84 0.08 9.84 0.4 8 1.04C6.24 1.68 4.64 2.64 3.36 4.08C2.32 5.28 1.52 6.72 0.96 8.24C0.4 10.16 0 12.16 0 14.16V16Z" fill="#60584C"/>
<path d="M25.6001 16.1599H25.4401C24.8001 15.4399 23.8401 15.1199 22.9601 15.2799C22.1601 15.2799 21.4401 15.5999 20.8001 15.9999V14.2399C20.8001 13.9199 20.8001 13.6799 20.6401 13.4399C20.6401 13.4399 20.5601 13.3599 20.4801 13.3599C20.1601 13.3599 19.7601 13.5199 19.4401 13.6799V13.8399C19.4401 14.3199 19.2801 14.7199 19.2001 15.1999C19.0401 16.4799 19.0401 17.5999 19.2001 18.7199C19.2001 18.7999 19.4401 18.9599 19.5201 19.0399C19.8401 19.0399 20.1601 19.0399 20.4801 18.8799H20.5601C20.6401 18.8799 20.7201 18.7999 20.7201 18.7199V18.3999C20.9601 17.4399 21.7601 16.6399 22.8001 16.3999C23.2801 16.3199 23.8401 16.3999 24.1601 16.7999C24.2401 17.2799 24.1601 17.7599 23.9201 18.1599C23.6001 18.7199 23.0401 19.1999 22.4001 19.3599C21.6001 19.5999 20.8001 19.7599 20.0001 19.6799L19.1201 19.1199C18.3201 18.5599 17.5201 17.9999 16.6401 17.5999C16.4001 17.5199 16.2401 17.3599 16.0801 17.1999H16.0001C15.5201 16.7199 14.6401 16.1599 13.8401 15.6799L13.4401 15.4399C13.4401 15.3599 13.9201 15.0399 13.9201 15.0399C14.3201 14.8799 14.6401 14.6399 14.9601 14.3999H15.0401L16.6401 13.5199C18.1601 12.7999 19.6001 11.8399 20.8801 10.7999V9.9199C20.8801 9.9199 20.8801 9.8399 20.7201 9.7599C19.7601 9.7599 18.8801 10.2399 18.2401 10.8799C18.0801 11.0399 17.9201 11.1199 17.7601 11.1999H17.6001C16.6401 11.7599 14.5601 13.1199 13.5201 13.7599C13.6001 12.3199 13.8401 10.9599 14.0801 9.5199V9.3599L13.9201 9.1199V8.9599H13.8401C13.6801 8.8799 13.5201 8.8799 13.2801 8.9599H13.0401C13.0401 9.0399 12.7201 9.1199 12.7201 9.1199C12.7201 9.1199 12.6401 9.1199 12.5601 9.1999C12.0001 10.7999 11.6001 12.4799 11.5201 14.1599C10.7201 13.6799 9.92012 13.1999 9.04012 12.7999C8.80012 12.7999 8.64012 12.6399 8.48012 12.5599L8.08012 12.3199L7.44012 11.9199H7.28012C6.96012 11.9999 6.64012 12.2399 6.40012 12.5599V12.9599C6.96012 13.4399 7.52012 13.8399 8.16012 14.1599L8.96012 14.6399L10.2401 15.3599L10.4801 15.5199H10.6401V15.5999L8.32012 17.1199L7.12012 17.9199C6.88012 18.0799 6.64012 18.1599 6.40012 18.2399C6.16012 18.2399 6.00012 18.4799 5.84012 18.7199V18.7999H5.92012L6.08012 18.9599H6.24012C6.24012 19.0399 6.40012 19.0399 6.40012 19.0399C6.80012 19.0399 7.20012 18.8799 7.52012 18.6399C8.08012 18.3999 9.52012 17.5199 10.1601 17.1199L10.4001 16.9599C10.5601 16.9599 10.6401 16.9599 10.7201 16.7999C10.8801 16.6399 11.1201 16.5599 11.2801 16.4799H11.4401C11.4401 17.9999 11.5201 19.4399 11.7601 20.8799C11.9201 21.1999 12.0001 21.5199 12.0801 21.9199L12.3201 22.7199C12.5601 22.8799 12.8801 22.9599 13.1201 22.9599V21.6799C13.0401 20.3199 12.9601 18.3999 12.9601 17.0399C13.2001 17.0399 14.1601 17.6799 14.1601 17.6799C15.8401 18.7999 18.4801 20.4799 20.0001 20.8799H20.2401L20.4801 20.7199C20.5601 20.6399 20.6401 20.4799 20.6401 20.3199C22.2401 20.3199 23.6801 19.6799 24.8001 18.4799C25.1201 17.9999 25.3601 17.5199 25.3601 16.8799C25.3601 16.5599 25.2801 16.1599 25.0401 15.9199" fill="white"/>
</g>
<defs>
<clipPath id="clip0_266_55238">
<rect width="32" height="32" fill="white"/>
</clipPath>
</defs>
</svg>
