<svg width="40" height="40" viewBox="0 0 40 40" fill="none" xmlns="http://www.w3.org/2000/svg">
<g clip-path="url(#clip0_266_55934)">
<path d="M0 20.0001C0 21.1777 0 21.3085 0.028057 22.3085C0.102876 24.5235 0.336684 27.0655 1.22516 29.7478C1.85176 31.645 3.03016 33.6917 4.20855 34.9815C5.70493 36.6263 7.7718 37.972 10.007 38.7386C12.289 39.5235 14.758 39.8975 19.5557 40H20.4442C25.2513 39.8975 27.711 39.5235 29.9929 38.7386C32.2282 37.972 34.2857 36.6263 35.7915 34.9815C36.9697 33.6824 38.1481 31.645 38.7747 29.7478C39.6631 27.0655 39.9064 24.5141 39.9718 22.3085C40 21.3178 40 21.1777 40 20.0001C40 18.8225 40 18.6917 39.9718 17.6917C39.8971 15.4767 39.6631 12.9346 38.7747 10.2524C38.1481 8.35516 36.9697 6.30842 35.7915 5.01872C34.295 3.37384 32.2282 2.02805 29.9929 1.26169C27.711 0.476638 25.242 0.0934582 20.4442 0H19.5557C14.7486 0.102804 12.289 0.476638 10.007 1.26169C7.7718 2.02805 5.71429 3.37384 4.20855 5.01872C3.03016 6.31778 1.85176 8.35516 1.22516 10.2524C0.346036 12.9346 0.102876 15.4767 0.028057 17.6917C0 18.6823 0 18.8225 0 20.0001Z" fill="#DF242E"/>
<path d="M32.4905 18.8649C31.8561 18.4958 31.2689 18.1551 30.6913 17.805C30.5398 17.7104 30.4072 17.7009 30.2462 17.7671C29.0057 18.3065 27.7273 18.7891 26.5246 19.3948C23.4849 20.9278 20.7007 22.8677 18.0303 24.9591C17.983 24.9969 17.9451 25.0348 17.8977 25.0915C18.5322 25.5836 19.1572 26.0568 19.7633 26.5489C19.9243 26.6814 20.0095 26.653 20.161 26.5489C21.5341 25.5079 22.8883 24.4291 24.3087 23.445C26.6761 21.8079 29.1572 20.3411 31.7993 19.1582C32.017 19.0636 32.2254 18.969 32.5 18.8554M14.0909 22.3851C14.6496 22.7731 15.1894 23.1327 15.7197 23.5112C15.8712 23.6153 15.9659 23.6059 16.108 23.5018C16.9318 22.8866 17.7557 22.2621 18.5985 21.6754C21.6099 19.5746 24.8011 17.8145 28.3144 16.6884C28.3712 16.6694 28.4091 16.641 28.4943 16.5937C27.9072 16.3004 27.358 16.0165 26.7993 15.7515C26.714 15.7136 26.5909 15.7231 26.4962 15.7515C25.3693 16.1395 24.233 16.4802 23.1345 16.9344C20.1989 18.1551 17.5189 19.8206 14.9716 21.7133C14.678 21.9309 14.3845 22.158 14.0814 22.3946M10.5776 20.3506C11.089 20.6439 11.5625 20.8994 12.0265 21.1833C12.197 21.2874 12.3011 21.2779 12.4621 21.1549C13.2955 20.5398 14.1383 19.9436 15 19.3759C15.9754 18.7324 18.0682 17.559 18.1061 17.5211C17.6136 17.3035 17.1307 17.0953 16.6667 16.8681C16.4962 16.783 16.3636 16.8019 16.2026 16.8871C14.6686 17.7198 13.5795 18.3444 12.2159 19.2245C11.6099 19.6124 11.3163 19.8206 10.5682 20.3411M14.8106 16.149C14.3182 15.9975 13.892 15.8556 13.4564 15.7515C13.3239 15.7231 13.1534 15.7326 13.0303 15.7894C12.1875 16.1868 11.3731 16.6032 10.5587 17.048C9.59279 17.5874 7.57575 18.827 7.5 18.8838C7.9735 19.092 8.41857 19.3001 8.87311 19.4894C8.93939 19.5178 9.0625 19.4894 9.12879 19.4421C9.43182 19.2529 9.73486 19.0446 10.0379 18.8554C11.553 17.8807 13.1061 16.9533 14.8106 16.149ZM15.0758 14.8714C15.2273 14.9188 15.3125 14.9377 15.3883 14.9661C16.6383 15.4014 17.8977 15.7799 19.1099 16.2909C19.7159 16.5464 20.0663 16.6316 20.6629 16.3288C21.1932 16.1016 21.2689 16.0638 21.6004 15.9124C21.5057 15.8556 21.4583 15.8272 21.411 15.8083C19.9432 15.1553 18.428 14.6443 16.875 14.2469C16.8182 14.228 16.7424 14.2185 16.6951 14.2469C16.1743 14.4456 15.6534 14.6538 15.0758 14.8714ZM24.8295 14.8714C24.7443 14.8241 23.1345 14.1806 22.358 13.9157C21.6193 13.6602 20.8712 13.4331 20.1042 13.2438C20.0379 13.2249 19.9621 13.206 19.8958 13.2154C19.6496 13.2816 19.4034 13.3479 19.1572 13.4141C18.9205 13.4804 18.6553 13.5561 18.4091 13.6223C18.5322 13.6602 19.4981 13.9346 19.9811 14.086C21.0701 14.4267 22.1496 14.8241 23.2007 15.2784C23.267 15.3068 23.3523 15.3068 23.428 15.2784C23.8731 15.1553 24.3182 15.0229 24.8201 14.8714" fill="white"/>
</g>
<defs>
<clipPath id="clip0_266_55934">
<rect width="40" height="40" fill="white"/>
</clipPath>
</defs>
</svg>
