<svg width="24" height="24" viewBox="0 0 24 24" fill="none" xmlns="http://www.w3.org/2000/svg">
<g clip-path="url(#clip0_266_54981)">
<path d="M0 12C0 12.7065 0 12.785 0.0168382 13.385C0.06174 14.714 0.202058 16.2393 0.735266 17.8486C1.11132 18.9869 1.81852 20.2149 2.52572 20.9888C3.42375 21.9756 4.66416 22.7831 6.00561 23.2429C7.37511 23.7139 8.85688 23.9439 11.7362 24H12.2694C15.1544 23.9383 16.6305 23.7139 18 23.2429C19.3414 22.7831 20.5762 21.9756 21.4742 20.9888C22.1816 20.2094 22.8887 18.9869 23.2648 17.8486C23.7979 16.2393 23.9439 14.7084 23.9831 13.385C24 12.7907 24 12.7065 24 12C24 11.2935 24 11.2149 23.9831 10.6149C23.9383 9.28599 23.7979 7.76074 23.2648 6.15139C22.8887 5.01309 22.1816 3.78504 21.4742 3.01121C20.5762 2.0243 19.3358 1.21682 18 0.757009C16.6305 0.285981 15.1487 0.0560747 12.2694 0H11.7362C8.85126 0.0616821 7.37511 0.285981 6.00561 0.757009C4.66416 1.21682 3.42936 2.0243 2.52572 3.01121C1.81852 3.79065 1.11132 5.01309 0.735266 6.15139C0.207671 7.76074 0.06174 9.28599 0.0168382 10.6149C0 11.2093 0 11.2935 0 12Z" fill="url(#paint0_linear_266_54981)"/>
<mask id="mask0_266_54981" style="mask-type:luminance" maskUnits="userSpaceOnUse" x="4" y="6" width="16" height="11">
<path d="M19.5 6.64307H4.5V16.2859H19.5V6.64307Z" fill="white"/>
</mask>
<g mask="url(#mask0_266_54981)">
<path d="M9.11306 14.358L9.08585 14.3841C8.65856 14.815 8.16412 15.0426 7.65478 15.0426C6.59105 15.0426 5.81939 14.2528 5.81939 13.1634C5.81939 12.0756 6.59105 11.2845 7.65478 11.2845C8.16412 11.2845 8.65856 11.5135 9.08585 11.946L9.11306 11.9717L9.79715 11.1528L9.77885 11.131C9.21001 10.4657 8.52721 10.1421 7.68794 10.1421C6.84656 10.1421 6.07619 10.4228 5.52179 10.9281C4.91806 11.476 4.60046 12.2486 4.60046 13.1634C4.60046 14.0782 4.91806 14.8524 5.52179 15.4003C6.07619 15.9086 6.84656 16.1872 7.68794 16.1872C8.52721 16.1872 9.21001 15.8631 9.77885 15.1975L9.79715 15.1772L9.11306 14.358Z" fill="white"/>
<path d="M10.4883 16.0752H11.6966V10.2363H10.4883V16.0752Z" fill="white"/>
<path d="M16.4299 14.8061C16.1072 15.0005 15.8075 15.0986 15.5379 15.0986C15.1472 15.0986 14.9704 14.8941 14.9704 14.4396V11.3414H16.202V10.2423H14.9704V8.42529L13.7863 9.05311V10.2423H12.7642V11.3414H13.7863V14.637C13.7863 15.5345 14.3237 16.1489 15.1264 16.1649C15.671 16.1754 15.9992 16.0147 16.1982 15.8968L16.211 15.8888L16.5013 14.7628L16.4299 14.8061Z" fill="white"/>
<path d="M17.4304 16.0752H18.6404V10.2363H17.4304V16.0752Z" fill="white"/>
<path d="M19.3451 9.21305C18.2409 7.66539 16.4077 6.74219 14.5425 6.74219C12.6778 6.74219 10.8441 7.66539 9.7421 9.21305L9.68512 9.29259H11.0754L11.0907 9.27618C12.0366 8.30919 13.2722 7.79836 14.5425 7.79836C15.8129 7.79836 17.0475 8.30919 17.9956 9.27618L18.011 9.29259H19.4004L19.3451 9.21305Z" fill="#EE1C25"/>
</g>
</g>
<defs>
<linearGradient id="paint0_linear_266_54981" x1="12" y1="0" x2="12" y2="24" gradientUnits="userSpaceOnUse">
<stop stop-color="#02BDF4"/>
<stop offset="1" stop-color="#014B8A"/>
</linearGradient>
<clipPath id="clip0_266_54981">
<rect width="24" height="24" fill="white"/>
</clipPath>
</defs>
</svg>
