<svg width="32" height="32" viewBox="0 0 32 32" fill="none" xmlns="http://www.w3.org/2000/svg">
<g clip-path="url(#clip0_266_55406)">
<path d="M0 16C0 16.9421 0 17.0467 0.0224509 17.8467C0.08232 19.6187 0.269411 21.6523 0.980354 23.7981C1.48176 25.3159 2.4247 26.9533 3.36763 27.9851C4.56503 29.3009 6.21889 30.3774 8.00749 30.9906C9.83349 31.6186 11.8092 31.9251 15.6483 32H16.3592C20.2058 31.9177 22.174 31.6186 24 30.9906C25.7886 30.3774 27.435 29.3009 28.6323 27.9851C29.5754 26.9458 30.5183 25.3159 31.0197 23.7981C31.7306 21.6523 31.9251 19.6112 31.9774 17.8467C32 17.0542 32 16.9421 32 16C32 15.0579 32 14.9533 31.9774 14.1533C31.9177 12.3813 31.7306 10.3477 31.0197 8.20186C30.5183 6.68411 29.5754 5.04671 28.6323 4.01494C27.435 2.69907 25.7811 1.62243 24 1.00935C22.174 0.381309 20.1983 0.0747663 16.3592 0H15.6483C11.8017 0.0822429 9.83349 0.381309 8.00749 1.00935C6.21889 1.62243 4.57249 2.69907 3.36763 4.01494C2.4247 5.0542 1.48176 6.68411 0.980354 8.20186C0.276894 10.3477 0.08232 12.3813 0.0224509 14.1533C0 14.9458 0 15.0579 0 16Z" fill="#229DEE"/>
<path d="M0 16C0 16.9421 0 17.0467 0.0224509 17.8467C0.08232 19.6187 0.269411 21.6523 0.980354 23.7981C1.48176 25.3159 2.4247 26.9533 3.36763 27.9851C4.56503 29.3009 6.21889 30.3774 8.00749 30.9906C9.83349 31.6186 11.8092 31.9251 15.6483 32H16.3592C20.2058 31.9177 22.174 31.6186 24 30.9906C25.7886 30.3774 27.435 29.3009 28.6323 27.9851C29.5754 26.9458 30.5183 25.3159 31.0197 23.7981C31.7306 21.6523 31.9251 19.6112 31.9774 17.8467C32 17.0542 32 16.9421 32 16C32 15.0579 32 14.9533 31.9774 14.1533C31.9177 12.3813 31.7306 10.3477 31.0197 8.20186C30.5183 6.68411 29.5754 5.04671 28.6323 4.01494C27.435 2.69907 25.7811 1.62243 24 1.00935C22.174 0.381309 20.1983 0.0747663 16.3592 0H15.6483C11.8017 0.0822429 9.83349 0.381309 8.00749 1.00935C6.21889 1.62243 4.57249 2.69907 3.36763 4.01494C2.4247 5.0542 1.48176 6.68411 0.980354 8.20186C0.276894 10.3477 0.08232 12.3813 0.0224509 14.1533C0 14.9458 0 15.0579 0 16Z" fill="#52C3F1"/>
<path d="M0 16C0 16.9421 0 17.0467 0.0224509 17.8467C0.08232 19.6187 0.269411 21.6523 0.980354 23.7981C1.48176 25.3159 2.4247 26.9533 3.36763 27.9851C4.56503 29.3009 6.21889 30.3774 8.00749 30.9906C9.83349 31.6186 11.8092 31.9251 15.6483 32H16.3592C20.2058 31.9177 22.174 31.6186 24 30.9906C25.7886 30.3774 27.435 29.3009 28.6323 27.9851C29.5754 26.9458 30.5183 25.3159 31.0197 23.7981C31.7306 21.6523 31.9251 19.6112 31.9774 17.8467C32 17.0542 32 16.9421 32 16C32 15.0579 32 14.9533 31.9774 14.1533C31.9177 12.3813 31.7306 10.3477 31.0197 8.20186C30.5183 6.68411 29.5754 5.04671 28.6323 4.01494C27.435 2.69907 25.7811 1.62243 24 1.00935C22.174 0.381309 20.1983 0.0747663 16.3592 0H15.6483C11.8017 0.0822429 9.83349 0.381309 8.00749 1.00935C6.21889 1.62243 4.57249 2.69907 3.36763 4.01494C2.4247 5.0542 1.48176 6.68411 0.980354 8.20186C0.276894 10.3477 0.08232 12.3813 0.0224509 14.1533C0 14.9458 0 15.0579 0 16Z" fill="#53C3F1"/>
<path d="M6.28577 18.4855C6.30374 21.6182 8.90068 24.1331 12.0817 24.1243C13.0522 24.1243 14.0047 23.8772 14.8584 23.4095V19.7739C13.9687 20.9211 12.3063 21.1505 11.1292 20.2769C9.95202 19.4033 9.7274 17.7707 10.617 16.6148C10.6709 16.553 10.7248 16.4824 10.7787 16.4206C10.3025 15.5735 10.0599 14.6205 10.0599 13.6498C10.0599 13.4998 10.0599 13.3409 10.0778 13.1909C7.8044 13.9939 6.28577 16.1118 6.28577 18.4855Z" fill="white"/>
<path d="M10.0598 13.6495C10.0598 14.6202 10.3024 15.5732 10.7786 16.4204C11.2819 15.8821 11.9918 15.582 12.7376 15.582C13.0341 15.582 13.3217 15.6262 13.6002 15.7232C13.2857 15.2644 13.124 14.7261 13.124 14.179C13.133 12.6171 14.427 11.364 16.0175 11.3728C17.1317 11.3728 18.1382 12.017 18.6054 13.0053C19.0457 12.9083 19.495 12.8553 19.9443 12.8553C20.6183 12.8553 21.2832 12.97 21.9122 13.1906C21.6337 9.97859 18.7582 7.60485 15.4873 7.87839C12.4231 8.1343 10.0688 10.6404 10.0508 13.6584" fill="white"/>
<path d="M18.6143 13.0055C19.0277 13.8879 18.9468 14.9116 18.3987 15.7234C18.6772 15.6352 18.9648 15.591 19.2613 15.591C20.726 15.591 21.9122 16.7647 21.9032 18.203C21.8942 19.6414 20.7081 20.8062 19.2433 20.7974C18.4166 20.7974 17.6438 20.418 17.1406 19.7738V23.4094C19.8993 24.9448 23.4038 23.9918 24.9674 21.2739C26.5309 18.556 25.5605 15.1233 22.7928 13.5879C21.9211 13.1026 20.9417 12.8555 19.9353 12.8555C19.4859 12.8555 19.0367 12.9084 18.6053 13.0055" fill="white"/>
</g>
<defs>
<clipPath id="clip0_266_55406">
<rect width="32" height="32" fill="white"/>
</clipPath>
</defs>
</svg>
