<svg width="24" height="24" viewBox="0 0 24 24" fill="none" xmlns="http://www.w3.org/2000/svg">
<g clip-path="url(#clip0_266_55015)">
<path d="M0 12C0 12.7065 0 12.785 0.0168382 13.385C0.06174 14.714 0.202058 16.2393 0.735266 17.8486C1.11132 18.9869 1.81852 20.2149 2.52572 20.9888C3.42377 21.9756 4.66416 22.7831 6.00561 23.2429C7.37511 23.7139 8.85688 23.9439 11.7362 24H12.2694C15.1544 23.9383 16.6305 23.7139 18 23.2429C19.3414 22.7831 20.5763 21.9756 21.4742 20.9888C22.1816 20.2094 22.8887 18.9869 23.2648 17.8486C23.7979 16.2393 23.9439 14.7084 23.9831 13.385C24 12.7907 24 12.7065 24 12C24 11.2935 24 11.2149 23.9831 10.6149C23.9383 9.28599 23.7979 7.76074 23.2648 6.15139C22.8887 5.01309 22.1816 3.78504 21.4742 3.01121C20.5763 2.0243 19.3358 1.21682 18 0.757009C16.6305 0.285981 15.1487 0.0560747 12.2694 0H11.7362C8.85126 0.0616821 7.37511 0.285981 6.00561 0.757009C4.66416 1.21682 3.42936 2.0243 2.52572 3.01121C1.81852 3.79065 1.11132 5.01309 0.735266 6.15139C0.207671 7.76074 0.06174 9.28599 0.0168382 10.6149C0 11.2093 0 11.2935 0 12Z" fill="#229DEE"/>
<path d="M0 12C0 12.7065 0 12.785 0.0168382 13.385C0.06174 14.714 0.202058 16.2393 0.735266 17.8486C1.11132 18.9869 1.81852 20.2149 2.52572 20.9888C3.42377 21.9756 4.66416 22.7831 6.00561 23.2429C7.37511 23.7139 8.85688 23.9439 11.7362 24H12.2694C15.1544 23.9383 16.6305 23.7139 18 23.2429C19.3414 22.7831 20.5763 21.9756 21.4742 20.9888C22.1816 20.2094 22.8887 18.9869 23.2648 17.8486C23.7979 16.2393 23.9439 14.7084 23.9831 13.385C24 12.7907 24 12.7065 24 12C24 11.2935 24 11.2149 23.9831 10.6149C23.9383 9.28599 23.7979 7.76074 23.2648 6.15139C22.8887 5.01309 22.1816 3.78504 21.4742 3.01121C20.5763 2.0243 19.3358 1.21682 18 0.757009C16.6305 0.285981 15.1487 0.0560747 12.2694 0H11.7362C8.85126 0.0616821 7.37511 0.285981 6.00561 0.757009C4.66416 1.21682 3.42936 2.0243 2.52572 3.01121C1.81852 3.79065 1.11132 5.01309 0.735266 6.15139C0.207671 7.76074 0.06174 9.28599 0.0168382 10.6149C0 11.2093 0 11.2935 0 12Z" fill="#52C3F1"/>
<path d="M0 12C0 12.7065 0 12.785 0.0168382 13.385C0.06174 14.714 0.202058 16.2393 0.735266 17.8486C1.11132 18.9869 1.81852 20.2149 2.52572 20.9888C3.42377 21.9756 4.66416 22.7831 6.00561 23.2429C7.37511 23.7139 8.85688 23.9439 11.7362 24H12.2694C15.1544 23.9383 16.6305 23.7139 18 23.2429C19.3414 22.7831 20.5763 21.9756 21.4742 20.9888C22.1816 20.2094 22.8887 18.9869 23.2648 17.8486C23.7979 16.2393 23.9439 14.7084 23.9831 13.385C24 12.7907 24 12.7065 24 12C24 11.2935 24 11.2149 23.9831 10.6149C23.9383 9.28599 23.7979 7.76074 23.2648 6.15139C22.8887 5.01309 22.1816 3.78504 21.4742 3.01121C20.5763 2.0243 19.3358 1.21682 18 0.757009C16.6305 0.285981 15.1487 0.0560747 12.2694 0H11.7362C8.85126 0.0616821 7.37511 0.285981 6.00561 0.757009C4.66416 1.21682 3.42936 2.0243 2.52572 3.01121C1.81852 3.79065 1.11132 5.01309 0.735266 6.15139C0.207671 7.76074 0.06174 9.28599 0.0168382 10.6149C0 11.2093 0 11.2935 0 12Z" fill="#53C3F1"/>
<path d="M4.71423 13.864C4.72771 16.2135 6.67542 18.0997 9.06119 18.0931C9.78905 18.0931 10.5034 17.9078 11.1437 17.557V14.8303C10.4765 15.6907 9.22966 15.8627 8.3468 15.2075C7.46393 14.5523 7.29546 13.3279 7.96266 12.461C8.00309 12.4146 8.04353 12.3617 8.08396 12.3154C7.72677 11.68 7.5448 10.9652 7.5448 10.2372C7.5448 10.1247 7.5448 10.0056 7.55828 9.89307C5.85321 10.4953 4.71423 12.0837 4.71423 13.864Z" fill="white"/>
<path d="M7.54484 10.2375C7.54484 10.9655 7.72681 11.6803 8.08398 12.3156C8.4614 11.9119 8.99381 11.6869 9.55319 11.6869C9.77559 11.6869 9.99125 11.72 10.2002 11.7928C9.96429 11.4487 9.84299 11.0449 9.84299 10.6346C9.84974 9.46317 10.8202 8.52338 12.0131 8.53C12.8488 8.53 13.6036 9.01313 13.9541 9.75436C14.2843 9.68157 14.6213 9.64186 14.9582 9.64186C15.4637 9.64186 15.9624 9.7279 16.4342 9.89335C16.2253 7.48431 14.0686 5.704 11.6155 5.90916C9.3173 6.10109 7.55156 7.98068 7.53809 10.2441" fill="white"/>
<path d="M13.9607 9.75412C14.2708 10.4159 14.2101 11.1837 13.799 11.7925C14.0079 11.7264 14.2236 11.6933 14.446 11.6933C15.5445 11.6933 16.4341 12.5735 16.4274 13.6523C16.4206 14.7311 15.531 15.6047 14.4325 15.5981C13.8125 15.5981 13.2329 15.3135 12.8555 14.8303V17.5571C14.9245 18.7086 17.5529 17.9939 18.7255 15.9554C19.8982 13.917 19.1703 11.3425 17.0946 10.1909C16.4409 9.82692 15.7063 9.6416 14.9514 9.6416C14.6145 9.6416 14.2775 9.68131 13.954 9.75412" fill="white"/>
</g>
<defs>
<clipPath id="clip0_266_55015">
<rect width="24" height="24" fill="white"/>
</clipPath>
</defs>
</svg>
