<svg width="56" height="56" viewBox="0 0 56 56" fill="none" xmlns="http://www.w3.org/2000/svg">
<g clip-path="url(#clip0_266_56154)">
<path d="M0 28C0 29.6486 0 29.8318 0.039289 31.2318C0.14406 34.3327 0.471469 37.8916 1.71562 41.6467C2.59308 44.3028 4.24322 47.1682 5.89335 48.9739C7.98875 51.2765 10.883 53.1605 14.0131 54.2335C17.2086 55.3325 20.666 55.869 27.3845 56H28.6287C35.3601 55.856 38.8045 55.3325 42 54.2335C45.1301 53.1605 48.0112 51.2765 50.1065 48.9739C51.757 47.1552 53.407 44.3028 54.2845 41.6467C55.5285 37.8916 55.869 34.3196 55.9605 31.2318C56 29.8449 56 29.6486 56 28C56 26.3514 56 26.1682 55.9605 24.7682C55.856 21.6673 55.5285 18.1084 54.2845 14.3532C53.407 11.6972 51.757 8.83175 50.1065 7.02615C48.0112 4.72337 45.117 2.83925 42 1.76636C38.8045 0.66729 35.347 0.130841 28.6287 0H27.3845C20.653 0.143925 17.2086 0.66729 14.0131 1.76636C10.883 2.83925 8.00185 4.72337 5.89335 7.02615C4.24322 8.84485 2.59308 11.6972 1.71562 14.3532C0.484565 18.1084 0.14406 21.6673 0.039289 24.7682C0 26.1551 0 26.3514 0 28Z" fill="url(#paint0_linear_266_56154)"/>
<mask id="mask0_266_56154" style="mask-type:luminance" maskUnits="userSpaceOnUse" x="10" y="15" width="36" height="23">
<path d="M45.5 15.5H10.5V38H45.5V15.5Z" fill="white"/>
</mask>
<g mask="url(#mask0_266_56154)">
<path d="M21.2638 33.5016L21.2003 33.5625C20.2033 34.5679 19.0496 35.0991 17.8611 35.0991C15.3791 35.0991 13.5785 33.2562 13.5785 30.7142C13.5785 28.1761 15.3791 26.3302 17.8611 26.3302C19.0496 26.3302 20.2033 26.8644 21.2003 27.8737L21.2638 27.9336L22.86 26.023L22.8173 25.9719C21.49 24.4196 19.8968 23.6646 17.9385 23.6646C15.9753 23.6646 14.1777 24.3194 12.8841 25.4986C11.4754 26.777 10.7344 28.5797 10.7344 30.7142C10.7344 32.8487 11.4754 34.6553 12.8841 35.9336C14.1777 37.1197 15.9753 37.7697 17.9385 37.7697C19.8968 37.7697 21.49 37.0137 22.8173 35.4604L22.86 35.4133L21.2638 33.5016Z" fill="white"/>
<path d="M24.4727 37.5088H27.292V23.8848H24.4727V37.5088Z" fill="white"/>
<path d="M38.3365 34.5473C37.5836 35.0009 36.8842 35.2297 36.2552 35.2297C35.3436 35.2297 34.9309 34.7525 34.9309 33.6921V26.4628H37.8048V23.8983H34.9309V19.6587L32.1681 21.1236V23.8983H29.7832V26.4628H32.1681V34.1526C32.1681 36.2469 33.422 37.6804 35.295 37.7177C36.5657 37.7422 37.3316 37.3672 37.7959 37.0923L37.8256 37.0736L38.5032 34.4462L38.3365 34.5473Z" fill="white"/>
<path d="M40.6709 37.5088H43.4943V23.8848H40.6709V37.5088Z" fill="white"/>
<path d="M45.1385 21.4968C42.5622 17.8856 38.2846 15.7314 33.9326 15.7314C29.5815 15.7314 25.3029 17.8856 22.7316 21.4968L22.5986 21.6824H25.8426L25.8783 21.6441C28.0855 19.3878 30.9684 18.1958 33.9326 18.1958C36.8968 18.1958 39.7776 19.3878 41.9898 21.6441L42.0256 21.6824H45.2675L45.1385 21.4968Z" fill="#EE1C25"/>
</g>
</g>
<defs>
<linearGradient id="paint0_linear_266_56154" x1="28" y1="0" x2="28" y2="56" gradientUnits="userSpaceOnUse">
<stop stop-color="#02BDF4"/>
<stop offset="1" stop-color="#014B8A"/>
</linearGradient>
<clipPath id="clip0_266_56154">
<rect width="56" height="56" fill="white"/>
</clipPath>
</defs>
</svg>
