<svg width="56" height="56" viewBox="0 0 56 56" fill="none" xmlns="http://www.w3.org/2000/svg">
<g clip-path="url(#clip0_266_56372)">
<path d="M0 28.0005C0 29.649 0 29.8325 0.0525 31.2325C0.144 34.3335 0.4845 37.8925 1.7285 41.6475C2.606 44.3035 4.2555 47.169 5.9055 48.9745C8.0005 51.2775 10.894 53.1615 14.01 54.2345C17.205 55.3335 20.6615 55.87 27.378 56.001H28.622C35.352 55.857 38.7955 55.3335 41.99 54.2345C45.1195 53.1615 48 51.2775 50.108 48.9745C51.758 47.156 53.4075 44.3035 54.285 41.6475C55.529 37.8925 55.8695 34.3205 55.961 31.2325C56.0005 29.8455 56.0005 29.6495 56.0005 28.0005C56.0005 26.3515 56.0005 26.1555 55.961 24.7685C55.8565 21.6675 55.529 18.1085 54.285 14.3535C53.408 11.6975 51.758 8.83199 50.108 7.02649C48.013 4.7235 45.1195 2.8395 41.99 1.7665C38.795 0.667498 35.3385 0.131 28.622 0H27.378C20.648 0.144 17.2045 0.667498 14.01 1.7665C10.8805 2.8395 8 4.7235 5.9055 7.02649C4.2555 8.84499 2.606 11.6975 1.7285 14.3535C0.4845 18.109 0.144 21.668 0.0525 24.7685C0 26.1555 0 26.3515 0 28.0005Z" fill="#0C7DCA"/>
<path d="M21.9299 33.4976H13.5339C13.5059 33.3416 13.4639 33.1716 13.4499 32.9871C13.4079 29.5286 13.3659 26.0701 13.3379 22.6116C13.3379 22.3281 13.4079 21.9456 13.5904 21.7611C16.2959 18.9686 19.0149 16.2046 21.9164 13.4976V33.4976H21.9299Z" fill="white"/>
<path d="M14.0614 34.2236H33.3344V42.5761C33.1553 42.5901 32.9629 42.6316 32.7564 42.6316C29.3974 42.6456 26.0384 42.6736 22.6659 42.6596C22.3494 42.6596 21.9364 42.5206 21.7159 42.2976C19.1279 39.5971 16.5534 36.8686 14.0479 34.2236" fill="white"/>
<path d="M22.7344 21.778V13.342H27.0844C29.1769 13.342 31.2694 13.314 33.3754 13.342C33.6919 13.342 34.0914 13.481 34.3254 13.69C36.9824 16.293 39.6119 18.924 42.2409 21.5415C42.2684 21.5695 42.2684 21.625 42.3099 21.764H22.7344V21.778Z" fill="white"/>
<path d="M34.1024 42.5387V22.5527H42.6009C42.6009 22.6662 42.6289 22.8227 42.6289 22.9647C42.6429 26.4307 42.6709 29.9107 42.6709 33.3767C42.6709 33.7317 42.5164 34.1722 42.2634 34.4277C39.6364 37.1267 36.9819 39.8112 34.3409 42.4957C34.3129 42.5242 34.2424 42.5097 34.0879 42.5527" fill="white"/>
</g>
<defs>
<clipPath id="clip0_266_56372">
<rect width="56" height="56" fill="white"/>
</clipPath>
</defs>
</svg>
