<svg width="40" height="40" viewBox="0 0 40 40" fill="none" xmlns="http://www.w3.org/2000/svg">
<g clip-path="url(#clip0_266_55948)">
<path d="M0 20C0 21.1776 0 21.3084 0.028057 22.3084C0.102876 24.5234 0.336685 27.0654 1.22516 29.7476C1.85176 31.6449 3.03016 33.6916 4.20857 34.9813C5.70493 36.626 7.77179 37.9717 10.007 38.7382C12.289 39.5232 14.758 39.9064 19.5557 40H20.4443C25.2514 39.8971 27.711 39.5232 29.993 38.7382C32.2282 37.9717 34.2857 36.626 35.7914 34.9813C36.97 33.6822 38.1482 31.6449 38.775 29.7476C39.6632 27.0654 39.9064 24.514 39.9718 22.3084C40 21.3177 40 21.1776 40 20C40 18.8224 40 18.6822 39.9718 17.6916C39.8971 15.4766 39.6632 12.9346 38.775 10.2523C38.1482 8.35514 36.97 6.30839 35.7914 5.01868C34.2951 3.37383 32.2282 2.02803 29.993 1.26168C27.711 0.476634 25.242 0.0934579 20.4443 0H19.5557C14.7486 0.102804 12.289 0.476634 10.007 1.26168C7.77179 2.02803 5.71429 3.37383 4.20857 5.01868C3.03016 6.31775 1.85176 8.35514 1.22516 10.2523C0.346037 12.9346 0.102876 15.4766 0.028057 17.6916C0 18.6822 0 18.8224 0 20Z" fill="#A30236"/>
<path d="M31.4287 20.1555C31.4287 13.8432 26.3124 8.72607 19.9994 8.72607C13.6879 8.72607 8.57153 13.8432 8.57153 20.1555C8.57153 26.4654 13.6879 31.5848 19.9994 31.5848C26.3124 31.5848 31.4287 26.4654 31.4287 20.1555ZM18.6835 15.4915H17.271C15.766 15.4915 14.5459 16.71 14.5459 18.2175V22.0934C14.5459 23.6 15.766 24.8186 17.271 24.8186H18.6835V29.027C14.3528 28.3878 11.032 24.6605 11.032 20.1555C11.032 15.6504 14.3528 11.9223 18.6835 11.2831V15.4915ZM22.7237 17.9559C22.8724 17.9559 22.9892 18.0758 22.9892 18.2198V22.0903C22.9892 22.2344 22.8724 22.3535 22.7237 22.3535H17.2749C17.1278 22.3535 17.0117 22.2344 17.0117 22.0903V18.2198C17.0117 18.0758 17.1278 17.9559 17.2749 17.9559H22.7237ZM28.9667 20.1555C28.9667 24.6605 25.6459 28.3878 21.3191 29.027V24.8186H22.7284C24.2327 24.8186 25.4551 23.6 25.4551 22.0934V18.2175C25.4551 16.71 24.2327 15.4915 22.7284 15.4915H21.3191V11.2831C25.6459 11.9223 28.9667 15.6504 28.9667 20.1555Z" fill="white"/>
</g>
<defs>
<clipPath id="clip0_266_55948">
<rect width="40" height="40" fill="white"/>
</clipPath>
</defs>
</svg>
