<svg width="24" height="24" viewBox="0 0 24 24" fill="none" xmlns="http://www.w3.org/2000/svg">
<g clip-path="url(#clip0_266_64918)">
<path d="M0 12C0 12.7065 0 12.785 0.0168382 13.385C0.06174 14.714 0.202058 16.2393 0.735266 17.8486C1.11132 18.9869 1.81852 20.2149 2.52572 20.9888C3.42377 21.9756 4.66416 22.7831 6.00561 23.2429C7.37511 23.7139 8.85688 23.9439 11.7362 24H12.2694C15.1544 23.9383 16.6305 23.7139 18 23.2429C19.3414 22.7831 20.5763 21.9756 21.4742 20.9888C22.1816 20.2094 22.8887 18.9869 23.2648 17.8486C23.7979 16.2393 23.9439 14.7084 23.9831 13.385C24 12.7907 24 12.7065 24 12C24 11.2935 24 11.2149 23.9831 10.6149C23.9383 9.28599 23.7979 7.76074 23.2648 6.15139C22.8887 5.01309 22.1816 3.78504 21.4742 3.01121C20.5763 2.0243 19.3358 1.21682 18 0.757009C16.6305 0.285981 15.1487 0.0560747 12.2694 0H11.7362C8.85126 0.0616821 7.37511 0.285981 6.00561 0.757009C4.66416 1.21682 3.42936 2.0243 2.52572 3.01121C1.81852 3.79065 1.11132 5.01309 0.735266 6.15139C0.207671 7.76074 0.06174 9.28599 0.0168382 10.6149C0 11.2093 0 11.2935 0 12Z" fill="#E82118"/>
<mask id="mask0_266_64918" style="mask-type:luminance" maskUnits="userSpaceOnUse" x="2" y="9" width="20" height="6">
<path d="M21.2143 9H2.78577V14.3238H21.2143V9Z" fill="white"/>
</mask>
<g mask="url(#mask0_266_64918)">
<path d="M6.74339 10.7341C6.54087 10.7207 6.33841 10.7609 6.15642 10.8508C5.97445 10.9407 5.81937 11.0769 5.70693 11.2459C5.60742 11.0762 5.46194 10.9381 5.28727 10.8475C5.11263 10.757 4.91594 10.7177 4.71989 10.7341C4.5337 10.7309 4.34943 10.7721 4.18237 10.8543C4.0153 10.9366 3.87027 11.0574 3.75927 11.207V10.8332H2.78577V14.0951H3.8069V12.2211C3.80305 12.1509 3.81314 12.0806 3.83656 12.0142C3.86 11.9479 3.89632 11.8869 3.94342 11.8346C3.99054 11.7824 4.0475 11.7399 4.11106 11.7098C4.17464 11.6797 4.24355 11.6624 4.31382 11.6589C4.32841 11.6582 4.34302 11.6582 4.35762 11.6589C4.49052 11.6493 4.62181 11.6927 4.72289 11.7795C4.82399 11.8663 4.88662 11.9896 4.89721 12.1224C4.89879 12.1517 4.898 12.1812 4.89479 12.2104V14.1007H5.903V12.2173C5.90007 12.1471 5.91104 12.077 5.93523 12.0111C5.9594 11.9451 5.99632 11.8846 6.04392 11.8329C6.09151 11.7812 6.14885 11.7395 6.21262 11.71C6.27637 11.6805 6.34529 11.6638 6.41549 11.661C6.43042 11.661 6.44577 11.661 6.46107 11.661C6.53399 11.6555 6.60723 11.6661 6.67557 11.6922C6.7439 11.7182 6.80559 11.7591 6.85632 11.8117C6.90704 11.8644 6.9455 11.9277 6.96897 11.9969C6.99241 12.0662 7.00025 12.1398 6.99196 12.2124V14.1028H7.979V11.9896C7.99289 11.8388 7.97682 11.6868 7.93169 11.5423C7.88656 11.3978 7.81325 11.2636 7.71605 11.1476C7.61883 11.0315 7.49958 10.9359 7.36522 10.8661C7.23087 10.7963 7.08404 10.7538 6.93318 10.7411C6.87018 10.7337 6.80675 10.7314 6.74339 10.7341Z" fill="white"/>
<path d="M13.0274 11.2724V10.8301H12.0389V14.092H13.0601V12.6666C13.0601 12.0171 13.43 11.781 13.8395 11.781C13.9467 11.7802 14.0536 11.7912 14.1584 11.8137V10.8284C14.0706 10.8058 13.9802 10.7948 13.8896 10.7957C13.716 10.7886 13.5438 10.8294 13.3918 10.9134C13.2397 10.9974 13.1137 11.1216 13.0274 11.2724Z" fill="white"/>
<path d="M15.5319 10.832H14.5115V14.0939H15.5319V10.832Z" fill="white"/>
<path d="M17.3795 9.87891H16.4658V10.2986C16.4724 10.3618 16.4663 10.4257 16.4481 10.4866C16.4298 10.5474 16.3997 10.6041 16.3595 10.6533C16.3193 10.7025 16.2697 10.7433 16.2137 10.7733C16.1576 10.8033 16.0962 10.8219 16.033 10.8281C16.0049 10.8304 15.9766 10.8304 15.9485 10.8281H15.7812V11.7011H16.3723V13.0991C16.3648 13.2303 16.3833 13.3616 16.4268 13.4857C16.4702 13.6097 16.5378 13.7239 16.6255 13.8217C16.7132 13.9196 16.8194 13.9992 16.9379 14.0559C17.0564 14.1126 17.185 14.1453 17.3162 14.1522C17.3741 14.1563 17.4323 14.1553 17.4901 14.1491C17.6716 14.1578 17.8529 14.1265 18.0209 14.0573V13.2302C17.9327 13.2503 17.8427 13.2613 17.7522 13.2628C17.5307 13.2628 17.3823 13.1905 17.3823 12.9218V11.7014H18.0342V10.8316H17.3795V9.87891Z" fill="white"/>
<path d="M15.0153 9C14.8405 9.00096 14.6731 9.07123 14.5499 9.19541C14.4268 9.31959 14.3579 9.48752 14.3584 9.6624C14.3589 9.83728 14.4287 10.0048 14.5525 10.1283C14.6764 10.2518 14.8441 10.3212 15.019 10.3212C15.1939 10.3212 15.3616 10.2518 15.4854 10.1283C15.6093 10.0048 15.6791 9.83728 15.6795 9.6624C15.68 9.48752 15.6112 9.31959 15.488 9.19541C15.3649 9.07123 15.1975 9.00096 15.0226 9H15.0153Z" fill="white"/>
<path d="M9.99651 10.713C9.53635 10.7282 9.10075 10.9243 8.78419 11.2586C8.46762 11.5929 8.29562 12.0386 8.30545 12.4989C8.31529 12.9592 8.50617 13.3971 8.83673 13.7176C9.16729 14.038 9.61086 14.2153 10.0713 14.2109C10.3781 14.2313 10.6839 14.1594 10.9496 14.0045C11.2152 13.8496 11.4284 13.6188 11.5617 13.3417L10.7176 13.0288C10.6545 13.1381 10.5615 13.2271 10.4495 13.2852C10.3375 13.3433 10.2112 13.3681 10.0855 13.3567C9.90032 13.3689 9.71749 13.3096 9.57469 13.191C9.43189 13.0725 9.33996 12.9037 9.31785 12.7194H11.6678C11.6828 12.6158 11.6898 12.5112 11.6887 12.4065C11.7079 12.2028 11.6866 11.9973 11.626 11.8018C11.5655 11.6064 11.4669 11.4248 11.3359 11.2676C11.2048 11.1104 11.044 10.9807 10.8627 10.8859C10.6813 10.7911 10.483 10.7332 10.2792 10.7154C10.1852 10.7064 10.0906 10.7056 9.99651 10.713ZM9.33591 12.0668C9.35652 11.906 9.4375 11.7591 9.56243 11.6558C9.68736 11.5525 9.8469 11.5006 10.0087 11.5105C10.1663 11.4898 10.3257 11.5323 10.4522 11.6286C10.5786 11.7249 10.6619 11.8673 10.6839 12.0247C10.6839 12.0386 10.687 12.0536 10.6877 12.0682L9.33591 12.0668Z" fill="white"/>
<path d="M19.6627 13.2206L21.1876 11.6519V10.8311H18.4542V11.7041H19.8661L18.4138 13.2137V14.093H21.2144V13.2199L19.6627 13.2206Z" fill="white"/>
</g>
</g>
<defs>
<clipPath id="clip0_266_64918">
<rect width="24" height="24" fill="white"/>
</clipPath>
</defs>
</svg>
