<svg width="40" height="40" viewBox="0 0 40 40" fill="none" xmlns="http://www.w3.org/2000/svg">
<g clip-path="url(#clip0_266_65305)">
<path d="M0 20C0 21.1776 0 21.3084 0.028057 22.3084C0.102876 24.5234 0.336685 27.0654 1.22516 29.7477C1.85176 31.6449 3.03016 33.6916 4.20857 34.9813C5.70493 36.6261 7.77179 37.9718 10.007 38.7382C12.289 39.5232 14.758 39.9064 19.5557 40H20.4443C25.2514 39.8971 27.711 39.5232 29.993 38.7382C32.2282 37.9718 34.2857 36.6261 35.7914 34.9813C36.97 33.6823 38.1482 31.6449 38.775 29.7477C39.6632 27.0654 39.9064 24.514 39.9718 22.3084C40 21.3178 40 21.1776 40 20C40 18.8224 40 18.6823 39.9718 17.6916C39.8971 15.4766 39.6632 12.9346 38.775 10.2523C38.1482 8.35514 36.97 6.30839 35.7914 5.01868C34.2951 3.37383 32.2282 2.02804 29.993 1.26168C27.711 0.476636 25.242 0.0934579 20.4443 0H19.5557C14.7486 0.102804 12.289 0.476636 10.007 1.26168C7.77179 2.02804 5.71429 3.37383 4.20857 5.01868C3.03016 6.31775 1.85176 8.35514 1.22516 10.2523C0.346037 12.9346 0.102876 15.4766 0.028057 17.6916C0 18.6823 0 18.8224 0 20Z" fill="#04A86C"/>
<path d="M26.3775 13.269C25.7094 14.2456 25.345 14.749 24.272 15.917C26.1244 14.8094 26.6305 14.7389 28.3513 13.7422C28.989 14.6886 29.1611 16.8835 29.1813 18.6254C29.7381 17.5178 30.4163 13.3696 30.1328 12.6145C31.1653 11.9399 31.1653 11.6781 31.4285 11.2251C30.3961 11.3157 29.8089 11.3358 29.2421 11.507C27.8148 10.631 24.8692 9.73493 22.4702 9.55371C23.2193 9.86582 26.2661 11.517 26.6508 12.0305C25.0413 12.242 21.9641 13.1481 20.4053 13.9637C22.1868 13.571 24.6769 13.3696 26.3876 13.279L26.3775 13.269Z" fill="white"/>
<path d="M21.0834 26.8714C20.6279 27.4755 20.2534 27.9286 19.7473 28.4824C18.897 28.7139 18.2188 28.8046 17.3989 28.8046C17.905 29.0663 18.4111 29.2274 18.9375 29.3281C18.4111 29.8114 17.9455 30.1537 17.4394 30.4759C18.3099 30.2745 19.4334 29.902 20.2837 29.4086C20.719 29.4187 21.1644 29.4087 21.4579 29.3483C21.3871 29.0865 21.3263 28.8952 21.2555 28.5629C22.0552 27.9488 22.6321 27.395 23.2799 26.7305C22.5815 27.2238 21.9742 27.5964 21.1745 27.9789C21.134 27.6064 21.1138 27.2842 21.0935 26.8714H21.0834Z" fill="white"/>
<path d="M11.3864 21.4446C11.3864 21.4446 13.9676 19.0584 15.081 18.4543C15.081 18.4543 15.6479 20.3975 16.0528 21.3641C16.0528 21.3641 16.4172 19.1189 17.0043 17.8301C17.0043 17.8301 17.1662 17.7294 17.9963 17.6489C18.8162 17.5784 19.9701 17.528 22.197 17.9106C22.197 17.9106 20.1523 16.6219 17.6319 16.2796C17.7331 15.9372 18.0874 15.2022 18.4011 14.8096C17.9355 14.88 16.6298 15.464 15.7592 16.1386C15.7592 16.1386 15.1823 16.0681 14.2206 16.0983C13.259 16.1386 11.9937 16.3802 11.4977 16.5816C12.4391 16.6219 13.7246 16.8535 14.2206 17.3468C14.2206 17.3468 12.7833 18.6356 11.3763 21.4446H11.3864Z" fill="white"/>
<path d="M11.6695 27.637C12.0947 28.5633 12.5401 29.1875 13.2689 29.8923C13.0968 29.2882 13.0664 28.7949 13.1272 28.1606C14.0483 28.4224 14.8074 28.5734 15.8399 28.6036C14.8479 28.2411 14.1394 27.8182 13.3701 27.0933C13.6029 26.459 13.8762 25.9556 14.3013 25.3213C13.5017 25.432 12.9247 25.5327 12.2364 25.6636C11.6797 24.687 11.4266 23.7405 11.1432 22.4316C10.9812 23.811 10.9306 24.8179 11.1229 25.9254C10.4852 26.0965 10.0398 26.2375 9.52359 26.4691C10.2524 26.9121 10.8496 27.2645 11.6695 27.637Z" fill="white"/>
<path d="M21.2453 28.5628C21.3161 28.8951 21.3769 29.0964 21.4477 29.3482C21.1441 29.4086 20.7088 29.4287 20.2735 29.4086C19.4232 29.9019 18.2997 30.2744 17.4292 30.4758C17.9353 30.1536 18.4009 29.8113 18.9273 29.328C18.4009 29.2173 17.8847 29.0663 17.3887 28.8045C18.2187 28.8045 18.8868 28.7138 19.7371 28.4823C20.2432 27.9285 20.6177 27.4654 21.0732 26.8713C21.0934 27.2942 21.1137 27.6063 21.1542 27.9789C21.9538 27.5963 22.5612 27.2137 23.2596 26.7304C22.6017 27.3949 22.0348 27.9487 21.2352 28.5628H21.2453ZM22.4599 9.53351C24.8589 9.71472 27.8046 10.6209 29.2318 11.4868C29.7987 11.3156 30.3858 11.2955 31.4182 11.2049C31.1551 11.6579 31.1551 11.9197 30.1226 12.5943C30.406 13.3494 29.7278 17.4976 29.1711 18.6052C29.1508 16.8633 28.9787 14.6684 28.3411 13.722C26.6304 14.7188 26.1141 14.7993 24.2617 15.8968C25.3448 14.7288 25.7092 14.2355 26.3672 13.2488C24.6565 13.3394 22.1664 13.5508 20.3849 13.9334C21.9437 13.1179 25.0209 12.2117 26.6304 12.0003C26.2457 11.4868 23.209 9.82551 22.4498 9.52344L22.4599 9.53351ZM11.5076 16.5713C11.9934 16.37 13.2587 16.1283 14.2305 16.088C15.1921 16.0578 15.7691 16.1283 15.7691 16.1283C16.6396 15.4437 17.9454 14.8698 18.411 14.7993C18.0972 15.192 17.7328 15.9269 17.6417 16.2693C20.1622 16.6116 22.2069 17.9004 22.2069 17.9004C19.98 17.5077 18.826 17.5681 18.0061 17.6386C17.1761 17.7191 17.0141 17.8198 17.0141 17.8198C16.427 19.1086 16.0626 21.3538 16.0626 21.3538C15.6577 20.3873 15.0909 18.444 15.0909 18.444C13.9774 19.0381 11.3962 21.4344 11.3962 21.4344C12.8032 18.6253 14.2406 17.3365 14.2406 17.3365C13.7446 16.8432 12.4591 16.6116 11.5177 16.5713H11.5076ZM11.1432 22.4211C11.4266 23.73 11.6797 24.6764 12.2364 25.653C12.9247 25.5222 13.5118 25.4215 14.3013 25.3107C13.8762 25.945 13.6029 26.4484 13.3701 27.0828C14.1495 27.8077 14.8581 28.2306 15.8399 28.593C14.8074 28.5628 14.0382 28.4118 13.1272 28.15C13.0664 28.7843 13.0968 29.2777 13.2689 29.8818C12.5401 29.1669 12.0947 28.5528 11.6695 27.6265C10.8496 27.2539 10.2524 26.9015 9.52359 26.4585C10.0398 26.2269 10.4953 26.086 11.1229 25.9148C10.9306 24.8073 10.9812 23.8005 11.1432 22.4211Z" fill="white"/>
</g>
<defs>
<clipPath id="clip0_266_65305">
<rect width="40" height="40" fill="white"/>
</clipPath>
</defs>
</svg>
