<svg width="32" height="32" viewBox="0 0 32 32" fill="none" xmlns="http://www.w3.org/2000/svg">
<g clip-path="url(#clip0_266_65118)">
<path d="M0 16C0 16.9421 0 17.0467 0.0224509 17.8467C0.08232 19.6187 0.269411 21.6523 0.980354 23.7981C1.48176 25.3159 2.4247 26.9533 3.36763 27.9851C4.56503 29.3009 6.21889 30.3774 8.00749 30.9906C9.83349 31.6186 11.8092 31.9251 15.6483 32H16.3592C20.2058 31.9177 22.174 31.6186 24 30.9906C25.7886 30.3774 27.435 29.3009 28.6323 27.9851C29.5754 26.9458 30.5183 25.3159 31.0197 23.7981C31.7306 21.6523 31.9251 19.6112 31.9774 17.8467C32 17.0542 32 16.9421 32 16C32 15.0579 32 14.9533 31.9774 14.1533C31.9177 12.3813 31.7306 10.3477 31.0197 8.20186C30.5183 6.68411 29.5754 5.04671 28.6323 4.01494C27.435 2.69907 25.7811 1.62243 24 1.00935C22.174 0.381309 20.1983 0.0747663 16.3592 0H15.6483C11.8017 0.0822429 9.83349 0.381309 8.00749 1.00935C6.21889 1.62243 4.57249 2.69907 3.36763 4.01494C2.4247 5.0542 1.48176 6.68411 0.980354 8.20186C0.276894 10.3477 0.08232 12.3813 0.0224509 14.1533C0 14.9458 0 15.0579 0 16Z" fill="#003CDC"/>
<path d="M8.46975 16.3784H7.57598V12.5714H8.46975V14.0853H9.5147V14.8428H8.46975V16.3784ZM5.57204 18.6498H7.57635V17.3955H5.57204V18.6498ZM4.68518 16.6379H8.46975V19.3997H4.6851L4.68518 16.6379ZM5.18275 14.7489C5.06024 15.0301 4.85835 15.3255 4.60615 15.5927C4.34655 15.8736 4.02907 16.1189 3.70467 16.3135L3.14221 15.6575C3.54593 15.4267 3.9283 15.1092 4.21684 14.7054C4.50501 14.3089 4.6851 13.8475 4.6851 13.3285V12.7225H5.62244V13.3139C5.62244 13.826 5.80973 14.2584 6.0903 14.6118C6.37193 14.9797 6.75364 15.2537 7.1287 15.4338L6.62393 16.1188C5.93195 15.7437 5.47813 15.2969 5.18275 14.7489ZM14.4628 14.5614H13.201V13.7681H14.4628V12.5713H15.3566V16.4147H14.4628V14.5614ZM14.1167 17.4247C13.9513 17.2805 13.735 17.1938 13.4754 17.1938C12.9561 17.1938 12.5958 17.5255 12.5958 18.0159C12.5958 18.5135 12.9561 18.8452 13.4754 18.8452C13.9944 18.8452 14.3692 18.5135 14.3692 18.0159C14.3696 17.9053 14.3474 17.7959 14.3039 17.6942C14.2605 17.5926 14.1968 17.5009 14.1167 17.4247ZM14.751 19.1695C14.4341 19.4363 13.9944 19.595 13.4754 19.595C12.9561 19.595 12.5237 19.4363 12.2138 19.1695C11.8963 18.8883 11.7165 18.4989 11.7165 18.0159C11.7165 17.5545 11.8963 17.1649 12.2138 16.8839C12.5237 16.6027 12.9561 16.4367 13.4754 16.4367C13.9944 16.4367 14.4341 16.6027 14.751 16.8839C15.0608 17.1649 15.2485 17.5545 15.2485 18.0159C15.2485 18.499 15.0608 18.8883 14.751 19.1695ZM12.3435 15.5854C12.0909 15.3473 11.8963 15.095 11.781 14.8641C11.6731 15.1236 11.4787 15.4049 11.2262 15.6717C10.9666 15.9387 10.657 16.2128 10.3106 16.4219L9.75567 15.751C10.1954 15.4625 10.5919 15.1309 10.8589 14.7489C11.1254 14.3741 11.2913 13.9414 11.2913 13.4509V12.7224H12.2424V13.4366C12.2424 13.9773 12.4157 14.3956 12.6966 14.7345C12.9634 15.0806 13.3456 15.3401 13.7274 15.5347L13.2229 16.2343C12.9057 16.0613 12.5958 15.8376 12.3435 15.5854ZM17.8992 15.2606C17.8992 15.5705 18.1443 15.8159 18.5404 15.8159C18.9441 15.8159 19.1823 15.5705 19.1823 15.2605C19.1823 14.9507 18.9441 14.6981 18.5404 14.6981C18.1443 14.6981 17.8992 14.9507 17.8992 15.2606ZM17.647 12.5999H19.4132V13.3498H17.647V12.5999ZM18.1076 16.9481V16.4719C17.4234 16.3207 17.0485 15.8376 17.0485 15.2606C17.0485 14.9434 17.2073 14.6335 17.4668 14.4099H16.5944V13.696H20.4726V14.41H19.6292C19.8886 14.6406 20.0402 14.9508 20.0402 15.2752C20.0402 15.8446 19.6941 16.3136 19.0094 16.4648V16.9047C19.6219 16.8689 20.2348 16.8253 20.8398 16.7605V12.5713H21.727V14.8496H22.736V15.6068H21.727V18.6208H20.8398V17.4816C19.4341 17.64 17.9927 17.7483 16.5147 17.7916L16.4284 16.984C16.9909 16.984 17.5463 16.9695 18.1076 16.9481ZM27.9842 15.2175H27.4365V18.3685H26.5712V12.6579H27.4365V14.4602H27.9842V12.5713H28.8565V18.6136H27.9842V15.2175ZM25.5764 15.3686C25.8 15.7941 26.1244 16.1043 26.5209 16.3711L25.9874 17.0562C25.7352 16.8829 25.4683 16.6306 25.2592 16.3711C25.036 16.1116 24.8631 15.8376 24.7985 15.614C24.5966 16.2486 24.1635 16.7604 23.6159 17.1931L23.0606 16.5368C23.4934 16.162 23.8178 15.8304 24.0266 15.3976C24.2284 14.9725 24.3296 14.4531 24.3296 13.7104H23.2769V12.9606H26.254V13.7104H25.2234C25.2234 14.41 25.3458 14.9434 25.5764 15.3686Z" fill="white"/>
</g>
<defs>
<clipPath id="clip0_266_65118">
<rect width="32" height="32" fill="white"/>
</clipPath>
</defs>
</svg>
