<svg width="56" height="56" viewBox="0 0 56 56" fill="none" xmlns="http://www.w3.org/2000/svg">
<g clip-path="url(#clip0_266_65690)">
<path d="M0 28C0 29.638 0 29.834 0.0420105 31.234C0.084021 34.762 0.658165 38.276 1.72243 41.65C2.63266 44.338 4.04701 46.83 5.89547 48.972C8.12203 51.366 10.9087 53.172 14.0035 54.236C17.1963 55.342 20.6552 55.86 27.3768 56H28.6232C35.3448 55.86 38.8037 55.328 41.9965 54.236C45.0913 53.172 47.878 51.366 50.1045 48.972C51.953 46.83 53.3813 44.338 54.2776 41.65C55.3418 38.276 55.916 34.776 55.958 31.234C56 29.848 56 29.652 56 28C56 26.348 56 26.166 55.958 24.78C55.916 21.238 55.3418 17.738 54.2776 14.364C53.3673 11.676 51.953 9.184 50.1045 7.028C47.878 4.634 45.0913 2.828 41.9965 1.764C38.8037 0.658 35.3448 0.14 28.6232 0H27.3768C20.6552 0.14 17.1963 0.672 14.0035 1.764C10.9087 2.828 8.12203 4.634 5.89547 7.028C4.04701 9.184 2.61865 11.662 1.72243 14.364C0.658165 17.724 0.0980245 21.238 0.0420105 24.766C0 26.152 0 26.348 0 28Z" fill="#1D8097"/>
<path d="M27.482 41.1038H15.372V21.8538C15.19 19.2218 16.646 16.7578 19.04 15.6518C20.51 14.9658 22.12 14.6298 23.73 14.7138V18.3538C22.652 18.2698 21.574 18.4798 20.608 18.9278C19.586 19.4038 18.942 20.4538 18.998 21.5878V21.7698V37.4638H23.814V30.2538H31.5V33.8938H27.454V41.1038H27.482Z" fill="white"/>
<path d="M31.57 41.2858H31.514V37.6458H31.57C36.4279 37.6458 36.9179 34.3418 36.9739 33.6838C37.2119 32.0458 36.8479 30.3798 35.9799 28.9798L35.042 27.9018L35.882 26.7258C36.218 26.0398 36.3719 25.2978 36.3579 24.5418V18.5638H31.542V25.7178H23.8979V22.0778H27.888V14.9238H39.998V24.4998C39.998 25.5778 39.83 26.6558 39.452 27.6778C40.4319 29.6098 40.8379 31.7938 40.6139 33.9498C40.4739 36.4698 38.4159 41.2998 31.584 41.2998" fill="white"/>
</g>
<defs>
<clipPath id="clip0_266_65690">
<rect width="56" height="56" fill="white"/>
</clipPath>
</defs>
</svg>
