<svg width="24" height="24" viewBox="0 0 24 24" fill="none" xmlns="http://www.w3.org/2000/svg">
<g clip-path="url(#clip0_266_65910)">
<mask id="mask0_266_65910" style="mask-type:luminance" maskUnits="userSpaceOnUse" x="0" y="0" width="24" height="24">
<path d="M24 0H0V24H24V0Z" fill="white"/>
</mask>
<g mask="url(#mask0_266_65910)">
<path d="M0 12.0002C0 12.7045 0 12.7877 0.0195 13.3825C0.0395044 14.8989 0.281834 16.4042 0.73875 17.8502C1.12675 19.0028 1.73446 20.0692 2.52825 20.9905C3.48339 22.0145 4.67563 22.7879 6 23.2427C7.8576 23.8053 9.79453 24.0612 11.7345 24.0002H12.2655C14.2042 24.0608 16.1398 23.8049 17.9963 23.2427C19.3223 22.7876 20.5159 22.0131 21.4718 20.9875C22.2652 20.0672 22.8726 19.0018 23.2605 17.8502C23.7171 16.4054 23.9594 14.9014 23.9797 13.3862C24 12.7877 24 12.7045 24 12.0002C24 11.296 24 11.2127 23.9805 10.618C23.9603 9.10154 23.7177 7.59626 23.2605 6.15024C22.8726 4.99765 22.2649 3.93122 21.471 3.00999C20.5152 1.98508 19.3215 1.21152 17.9955 0.75774C16.1395 0.194739 14.204 -0.0611337 12.2655 0.0002403H11.7345C9.79449 -0.0615719 7.85742 0.194305 6 0.75774C4.67508 1.21293 3.4827 1.9875 2.52825 3.01299C1.73492 3.93349 1.12724 4.99883 0.73875 6.15024C0.282092 7.59534 0.0397649 9.09959 0.0195 10.615C0 11.2127 0 11.296 0 12.0002Z" fill="#1D93DC"/>
<path d="M18.7957 11.123C18.8867 11.4066 18.9327 11.7027 18.9322 12.0005C18.9322 14.438 15.8287 16.415 12.0007 16.415C10.964 16.4203 9.93259 16.2686 8.94141 15.965C9.57291 15.3538 10.2959 14.8153 12.2512 14.5888C14.2244 14.3638 18.9262 14.1313 18.7964 11.1253" fill="white"/>
<path d="M15.6607 10.6555C15.6607 10.27 15.3494 10.0742 14.7179 10.0742C14.6062 10.0742 14.4772 10.0802 14.3429 10.0915C14.288 10.4759 14.2685 10.8645 14.2844 11.2525V11.446H14.4599C15.2654 11.446 15.6607 11.1415 15.6607 10.6555Z" fill="white"/>
<path d="M7.67254 10.0499C7.48858 10.0487 7.30511 10.0688 7.12579 10.1099C7.08505 10.5085 7.07027 10.9093 7.08154 11.3099V12.1574C7.08154 12.6869 7.09279 13.0154 7.10779 13.1391C7.13629 13.3356 7.28029 13.3821 7.74979 13.3821C8.65579 13.3821 9.16429 12.7821 9.16429 11.7494C9.16429 10.6686 8.62879 10.0521 7.67179 10.0521" fill="white"/>
<path d="M17.8921 10.5688C17.8548 10.218 17.7399 9.87981 17.5557 9.57885C17.3715 9.2779 17.1226 9.02171 16.8271 8.82885C15.3604 7.98348 13.6912 7.55335 11.9986 7.5846C8.17362 7.5846 5.06787 9.5631 5.06787 11.9983C5.06787 13.7338 6.64287 15.2361 8.92662 15.9591C9.47337 14.9443 10.8654 14.4591 13.1671 14.0391C13.7771 13.936 14.3808 13.7988 14.9754 13.6281H14.9124C14.5816 13.6281 14.2756 13.5936 14.0034 13.5936H13.5609C13.7161 13.4503 13.7221 12.8908 13.7221 11.8911V11.6511C13.7221 10.6071 13.7221 10.0198 13.5609 9.86835H14.1084C14.5246 9.86835 14.9139 9.82785 15.2851 9.82785C15.9369 9.82785 16.2871 10.0948 16.2871 10.5313C16.2871 10.9483 15.9481 11.2738 15.2799 11.4778C16.0651 11.5603 16.4949 11.9278 16.4949 12.4843C16.4969 12.7183 16.4155 12.9454 16.2654 13.1248C16.7674 12.9183 17.1932 12.5616 17.4846 12.1037C17.7759 11.6457 17.9185 11.1088 17.8929 10.5666M7.79487 13.6288C7.42437 13.6288 7.10862 13.5996 6.84387 13.5996H6.46887C6.63094 13.0475 6.67816 12.4681 6.60762 11.8971V11.6571C6.68136 11.0596 6.63417 10.4533 6.46887 9.87435H6.87237C7.33062 9.87435 7.73412 9.80385 8.09937 9.80385C8.3278 9.79297 8.55584 9.83221 8.76749 9.9188C8.97915 10.0054 9.16929 10.1373 9.32458 10.3051C9.47988 10.473 9.59656 10.6728 9.66644 10.8906C9.73633 11.1083 9.75772 11.3387 9.72912 11.5656C9.75878 11.8326 9.7302 12.103 9.64536 12.3579C9.56051 12.6128 9.42142 12.8464 9.23765 13.0424C9.05389 13.2384 8.82982 13.3923 8.58087 13.4934C8.33193 13.5945 8.06403 13.6405 7.79562 13.6281M13.0756 12.7911C13.0597 13.0519 13.0804 13.3137 13.1371 13.5688C12.5446 13.6063 12.1246 13.6693 11.8756 13.6693C11.6258 13.701 11.372 13.6759 11.1332 13.5958C10.8944 13.5157 10.6767 13.3827 10.4965 13.2068C10.3163 13.0309 10.178 12.8166 10.0922 12.5798C10.0063 12.343 9.97503 12.0899 10.0006 11.8393C9.98908 11.554 10.0397 11.2696 10.1489 11.0058C10.2582 10.742 10.4235 10.5051 10.6333 10.3115C10.8432 10.1179 11.0926 9.97224 11.3644 9.88458C11.6361 9.79692 11.9237 9.76938 12.2071 9.80385C12.4979 9.8069 12.7881 9.83046 13.0756 9.87435L13.0696 10.5546C12.9391 10.3982 12.7747 10.2736 12.5889 10.1901C12.4031 10.1067 12.2007 10.0667 11.9971 10.0731C11.1249 10.0731 10.5721 10.7106 10.5721 11.7456C10.5471 11.9614 10.57 12.1801 10.6394 12.386C10.7087 12.5918 10.8227 12.7799 10.9732 12.9365C11.1238 13.0932 11.307 13.2146 11.51 13.2922C11.7129 13.3697 11.9305 13.4015 12.1471 13.3851C12.2851 13.3872 12.4228 13.3713 12.5566 13.3378C12.5885 13.1108 12.6031 12.8816 12.6001 12.6523C12.6373 12.3378 12.5897 12.019 12.4621 11.7291H13.2016C13.0771 12.0686 13.0336 12.4326 13.0749 12.7918" fill="white"/>
<path d="M14.2791 12.3763C14.2684 12.6736 14.2863 12.9712 14.3324 13.2651C14.3631 13.3588 14.5454 13.4151 14.8514 13.4151C14.9753 13.4333 15.1017 13.4238 15.2215 13.3874C15.3413 13.3509 15.4515 13.2884 15.5443 13.2043C15.6371 13.1202 15.7101 13.0166 15.7581 12.9009C15.8061 12.7853 15.8279 12.6604 15.8219 12.5353C15.8219 11.9953 15.4326 11.6631 14.6909 11.6631H14.2791V12.3763Z" fill="white"/>
</g>
</g>
<defs>
<clipPath id="clip0_266_65910">
<rect width="24" height="24" fill="white"/>
</clipPath>
</defs>
</svg>
