<svg width="40" height="40" viewBox="0 0 40 40" fill="none" xmlns="http://www.w3.org/2000/svg">
<g clip-path="url(#clip0_266_65503)">
<path d="M0 20C0 21.1776 0 21.3084 0.0280635 22.3084C0.1029 24.5234 0.336762 27.0654 1.22544 29.7476C1.85219 31.6448 3.03086 33.6916 4.20953 34.9813C5.70626 36.626 7.77361 37.972 10.0093 38.7383C12.2918 39.5235 14.7614 39.9064 19.5603 40H20.449C25.2572 39.8971 27.7174 39.5235 29.9999 38.7383C32.2356 37.972 34.2936 36.626 35.7902 34.9813C36.9689 33.6822 38.1477 31.6448 38.7744 29.7476C39.6631 27.0654 39.9064 24.514 39.9718 22.3084C40 21.3177 40 21.1776 40 20C40 18.8224 40 18.6822 39.9718 17.6916C39.8971 15.4766 39.6631 12.9346 38.7744 10.2523C38.1477 8.35512 36.9689 6.30839 35.7902 5.0187C34.2936 3.37383 32.2263 2.02804 29.9999 1.26168C27.7174 0.476635 25.2478 0.0934579 20.449 0H19.5603C14.7521 0.102804 12.2918 0.476635 10.0093 1.26168C7.77361 2.02804 5.71562 3.37383 4.20953 5.0187C3.03086 6.31775 1.85219 8.35512 1.22544 10.2523C0.346117 12.9346 0.1029 15.4766 0.0280635 17.6916C0 18.6822 0 18.8224 0 20Z" fill="#E78001"/>
<path d="M13.6206 14.8105C13.5725 15.1116 12.9369 19.3644 12.8792 19.7689H14.3043C14.3428 19.4679 14.9879 15.2151 15.0457 14.8105H13.6206Z" fill="white"/>
<path d="M25.2817 14.8105C25.2336 15.1116 24.5981 19.3644 24.5403 19.7689H27.8816C27.9105 19.5525 27.9971 18.9786 28.0453 18.6964H26.0232L26.158 17.7837H27.9971C28.0357 17.5673 28.1031 17.0592 28.1512 16.7864H26.312L26.4469 15.8831H28.4208C28.4497 15.6667 28.5364 15.0928 28.5845 14.8199H25.2914L25.2817 14.8105Z" fill="white"/>
<path d="M9.40321 17.6432C9.40321 17.6432 10.5972 15.0276 10.6935 14.8018H12.4845C12.4845 15.1499 12.2438 19.4027 12.2438 19.7602H10.9535L11.1654 16.2884C11.1654 16.2884 9.71135 19.5344 9.61507 19.7602H8.59435L8.13218 16.2884C8.10328 16.4483 7.61221 18.7629 7.35221 19.7602H6.07153C6.20635 19.318 7.1885 15.0652 7.26553 14.8018H8.98918L9.3936 17.6432H9.40321Z" fill="white"/>
<path d="M22.7778 18.7628C22.7778 18.7628 22.8741 19.572 22.903 19.7602H24.2704C24.1933 19.3556 23.4519 15.0934 23.3941 14.8018H21.6609C21.5646 15.0088 19.5906 19.2709 19.3499 19.7602H20.7365C20.8135 19.5908 21.1601 18.7628 21.1601 18.7628H22.7682H22.7778ZM21.5549 17.7373L22.3734 15.8932L22.643 17.7373H21.5549Z" fill="white"/>
<path d="M17.0291 15.742H17.3469C17.5684 15.742 17.8091 15.7608 17.9536 15.9302C18.0595 16.0525 18.098 16.2124 18.0691 16.4288C18.0691 16.4288 18.021 16.8052 17.7706 16.9275C17.7706 16.9275 17.5876 17.0404 17.2891 17.0498H16.644L17.8669 19.7689H19.2535L18.2039 17.6802C18.8394 17.5673 19.3305 17.3885 19.4557 16.4477C19.475 16.3253 19.4846 16.2124 19.4846 16.1089C19.4846 15.7608 19.3883 15.4785 19.2053 15.2715C18.8587 14.8952 18.2713 14.8105 17.838 14.8105H15.8833C15.8351 15.1116 15.1996 19.3644 15.1418 19.7595H16.4418C16.4803 19.4867 17.0388 15.7326 17.0388 15.7326" fill="white"/>
<path d="M33.9287 14.2842C33.1006 17.5773 30.1155 19.3743 28.3534 20.334L28.2764 20.2399C28.9986 19.6848 31.4636 17.9348 32.2532 15.0463L33.919 14.2842H33.9287Z" fill="white"/>
<path d="M21.9692 22.592C21.9692 22.592 22.0172 22.5826 22.046 22.5732C22.0172 22.5732 21.998 22.5826 21.9692 22.592Z" fill="white"/>
<path d="M19.6965 23.0059C19.6965 23.0059 19.6389 23.0059 19.6101 23.0246C19.6389 23.0246 19.6677 23.0152 19.6965 23.0059Z" fill="white"/>
<path d="M22.518 22.46C22.4217 22.4882 22.3158 22.507 22.2195 22.5259C22.3158 22.4976 22.4217 22.4788 22.518 22.46Z" fill="white"/>
<path d="M24.7713 21.8486C24.6269 21.8957 24.4824 21.9334 24.3284 21.9805C24.4824 21.9334 24.6269 21.8863 24.7713 21.8486Z" fill="white"/>
<path d="M22.8742 22.3848C22.8068 22.4034 22.749 22.4128 22.6816 22.4315C22.7394 22.4128 22.8068 22.4034 22.8742 22.3848Z" fill="white"/>
<path d="M18.4737 22.5731L18.0982 22.3943C17.973 22.319 17.6938 22.1685 17.6938 21.8956C17.6938 21.7639 17.7515 21.651 17.8382 21.5757C17.9537 21.4817 18.1367 21.444 18.3293 21.4817C18.57 21.5193 18.8589 21.6698 19.167 21.9239C19.3114 21.651 19.5907 21.143 19.6966 20.9548C19.3403 20.6725 19.0033 20.522 18.4833 20.4373C17.8478 20.3526 17.2412 20.4749 16.8175 20.7854C16.4516 21.0488 16.2301 21.4346 16.1723 21.9051C16.1627 21.9803 16.1531 22.065 16.1531 22.1403C16.1531 22.3943 16.2109 22.6201 16.3264 22.8083C17.0968 22.7895 17.9056 22.7518 18.7241 22.686C18.647 22.6483 18.57 22.6013 18.4833 22.5637" fill="white"/>
<path d="M24.2415 20.6162C24.2126 20.8232 24.1067 21.4724 24.0586 21.7923C25.06 21.5195 26.2829 21.1337 27.4095 20.6162H24.2415Z" fill="white"/>
<path d="M24.7714 21.8484C24.6269 21.8954 24.4825 21.9331 24.3284 21.9801C24.2995 21.9895 24.2706 21.9989 24.2321 22.0083C24.1744 22.0272 24.1166 22.046 24.0492 22.0648C24.0203 22.0648 23.9817 22.0836 23.9529 22.093C23.7507 22.1495 23.5388 22.2059 23.3174 22.2624C23.2788 22.2718 23.2403 22.2812 23.1922 22.2906C23.1344 22.3094 23.067 22.3188 23.0092 22.3377C22.9611 22.3471 22.9129 22.3565 22.8744 22.3753C22.807 22.3847 22.7492 22.4035 22.6818 22.4223C22.624 22.4317 22.5663 22.4506 22.5085 22.4599C22.4122 22.4882 22.3159 22.507 22.21 22.5258C22.1522 22.5352 22.0945 22.5541 22.0367 22.5634C22.0078 22.5634 21.9885 22.5729 21.9596 22.5823C21.3722 22.714 20.756 22.8269 20.0916 22.9398C20.082 22.9398 20.0627 22.9398 20.0531 22.9398C19.9375 22.9586 19.8123 22.9774 19.6871 22.9963H19.6005C19.4753 23.0245 19.3405 23.0527 19.2153 23.0621C19.2057 23.0621 19.1961 23.0621 19.1864 23.0621C18.4835 23.1656 17.7324 23.2503 16.9525 23.3162C16.8369 23.3256 16.7117 23.335 16.5866 23.3444C16.5769 23.3444 16.5577 23.3444 16.548 23.3444C16.4325 23.3444 16.3073 23.3632 16.1821 23.3726C16.1725 23.3726 16.1532 23.3726 16.1436 23.3726C16.0185 23.3726 15.8933 23.3914 15.7681 23.3914C15.7585 23.3914 15.7488 23.3914 15.7392 23.3914C15.614 23.3914 15.4792 23.4008 15.354 23.4102H15.3444C14.68 23.4385 14.006 23.4573 13.303 23.4573H13.2452C13.0912 23.4573 12.9371 23.4573 12.7734 23.4573C12.7445 23.4573 12.706 23.4573 12.6771 23.4573C12.109 23.4573 11.5312 23.4291 10.9342 23.4008H10.9246C10.0291 23.3538 9.09507 23.2785 8.14178 23.175L9.24914 22.1871C9.24914 22.1871 9.89432 22.3659 10.7802 22.5258C10.6165 21.5661 10.4624 20.7287 10.4432 20.6064H8.70993C8.604 20.8134 6.63003 25.0756 6.39893 25.5648H7.78553C7.86257 25.3955 8.32475 24.3323 8.32475 24.3323H9.76914C9.76914 24.3323 9.91357 25.3673 9.94246 25.5648H11.3098C11.2809 25.4049 11.1461 24.6616 10.992 23.7866C11.9646 23.8431 12.9467 23.8524 13.8519 23.8336C13.9 23.9089 13.9193 23.9842 13.9193 24.0689C13.9193 24.0971 13.9193 24.1253 13.9193 24.1629C13.9 24.2758 13.8422 24.3699 13.746 24.4264C13.5534 24.5487 13.2838 24.5205 13.1008 24.4923C12.6579 24.417 12.3112 24.0971 12.0224 23.8336C11.849 24.1065 11.4735 24.6898 11.3483 24.878C11.8683 25.3296 12.4364 25.6119 13.0334 25.6872C13.64 25.7718 14.2371 25.6401 14.68 25.3296C15.0652 25.0568 15.3059 24.6616 15.3829 24.1724C15.4022 24.0312 15.4118 23.8995 15.4118 23.7772C16.3844 23.7396 17.2028 23.6831 17.7228 23.6361C17.8961 23.7584 17.9828 23.8995 17.9828 24.0594C17.9828 24.0877 17.9828 24.1159 17.9828 24.1536C17.9635 24.2664 17.9057 24.3605 17.8095 24.417C17.6169 24.5393 17.3473 24.5111 17.1643 24.4828C16.7214 24.4076 16.3747 24.0877 16.0859 23.8242C15.9125 24.0971 15.537 24.6804 15.4118 24.8686C15.9318 25.3202 16.4999 25.6025 17.0969 25.6778C17.7036 25.7624 18.3006 25.6307 18.7435 25.3202C19.1287 25.0474 19.379 24.6522 19.4561 24.1629C19.5042 23.8901 19.4946 23.6549 19.4272 23.4385C19.6486 23.4102 19.8605 23.3726 20.0627 23.3444C19.9086 24.3888 19.7642 25.3579 19.7353 25.5366H23.0766C23.1055 25.3202 23.1922 24.7463 23.2403 24.464H21.2086L21.3434 23.5514H23.1825C23.2114 23.3632 23.2788 22.9304 23.3174 22.6481C23.5677 22.5729 23.6929 22.5258 23.6929 22.5258C23.6929 22.5258 24.3188 22.3471 25.118 22.0648C25.0025 22.8363 24.6462 25.2073 24.598 25.5461H26.0424C26.0809 25.2544 26.6009 21.8202 26.6009 21.8202H27.6505C27.6794 21.6038 27.7853 20.9263 27.8238 20.6158C27.2846 20.9075 26.2542 21.3591 24.7906 21.8202" fill="white"/>
<path d="M14.8629 22.8177C14.7378 22.7236 14.5933 22.6389 14.42 22.5731L14.0445 22.3943H14.0348C13.9097 22.319 13.6304 22.1685 13.6304 21.8956C13.6304 21.7639 13.6785 21.651 13.7749 21.5757C13.8904 21.4817 14.0734 21.444 14.2659 21.4817C14.5163 21.5193 14.7955 21.6698 15.1037 21.9239C15.2481 21.651 15.5274 21.143 15.6333 20.9548C15.277 20.6725 14.94 20.522 14.42 20.4373C13.7845 20.3526 13.1778 20.4749 12.7542 20.7854C12.3883 21.0488 12.1668 21.4346 12.109 21.9051C12.0994 21.9803 12.0994 22.065 12.0994 22.1403C12.0994 22.3567 12.1379 22.5542 12.2149 22.7236C12.2438 22.7236 12.2727 22.7236 12.3016 22.7236C12.9468 22.7707 13.8326 22.8083 14.8533 22.8177" fill="white"/>
<path d="M21.6032 21.6892H23.5772C23.6157 21.4728 23.6927 20.8988 23.7409 20.626H20.4573C20.4381 20.7577 20.3129 21.5951 20.1685 22.5548C20.621 22.4983 21.0736 22.4325 21.5165 22.3666L21.6128 21.6986L21.6032 21.6892Z" fill="white"/>
</g>
<defs>
<clipPath id="clip0_266_65503">
<rect width="40" height="40" fill="white"/>
</clipPath>
</defs>
</svg>
