<svg width="32" height="32" viewBox="0 0 32 32" fill="none" xmlns="http://www.w3.org/2000/svg">
<g clip-path="url(#clip0_266_65108)">
<path d="M0 16C0 16.9421 0 17.0467 0.0224509 17.8467C0.08232 19.6187 0.269411 21.6523 0.980354 23.7981C1.48176 25.3159 2.4247 26.9533 3.36763 27.9851C4.56503 29.3009 6.21889 30.3774 8.00749 30.9906C9.83349 31.6186 11.8092 31.9251 15.6483 32H16.3592C20.2058 31.9177 22.174 31.6186 24 30.9906C25.7886 30.3774 27.435 29.3009 28.6323 27.9851C29.5754 26.9458 30.5183 25.3159 31.0197 23.7981C31.7306 21.6523 31.9251 19.6112 31.9774 17.8467C32 17.0542 32 16.9421 32 16C32 15.0579 32 14.9533 31.9774 14.1533C31.9177 12.3813 31.7306 10.3477 31.0197 8.20186C30.5183 6.68411 29.5754 5.04671 28.6323 4.01494C27.435 2.69907 25.7811 1.62243 24 1.00935C22.174 0.381309 20.1983 0.0747663 16.3592 0H15.6483C11.8017 0.0822429 9.83349 0.381309 8.00749 1.00935C6.21889 1.62243 4.57249 2.69907 3.36763 4.01494C2.4247 5.0542 1.48176 6.68411 0.980354 8.20186C0.276894 10.3477 0.08232 12.3813 0.0224509 14.1533C0 14.9458 0 15.0579 0 16Z" fill="#48AF36"/>
<mask id="mask0_266_65108" style="mask-type:luminance" maskUnits="userSpaceOnUse" x="7" y="9" width="18" height="14">
<path d="M24.5714 9.14258H7.42859V22.8569H24.5714V9.14258Z" fill="white"/>
</mask>
<g mask="url(#mask0_266_65108)">
<path d="M23.9464 12.342C23.0536 11.4342 21.5729 11.5905 20.7024 12.5131C19.564 13.7036 18.686 14.15 17.6369 14.1054C16.1712 14.0384 15.442 12.9075 14.6905 11.4714C13.9092 9.97592 12.7039 9.14258 11.2009 9.14258C8.84227 9.14258 7.42859 11.0548 7.42859 13.1827C7.42859 16.464 9.73513 18.4209 11.3274 19.2467C12.6518 19.9387 14.125 20.2289 15.442 20.2586C15.3676 21.0399 15.1369 22.0741 14.8765 22.8107H17.5774C17.3095 22.0741 17.0789 20.9581 17.0045 20.1694C20.9554 19.656 22.8378 17.8628 23.8646 16.1515C24.3259 15.4 24.5714 14.6188 24.5714 13.9193C24.5714 13.3092 24.3706 12.7512 23.9464 12.3271M11.2232 14.3807C10.4569 14.4253 9.8021 13.8524 9.75002 13.086C9.70536 12.3271 10.2783 11.6649 11.0446 11.6203C11.8036 11.5682 12.4584 12.156 12.503 12.9149C12.5551 13.6738 11.9747 14.336 11.2158 14.3807" fill="white"/>
</g>
</g>
<defs>
<clipPath id="clip0_266_65108">
<rect width="32" height="32" fill="white"/>
</clipPath>
</defs>
</svg>
