<svg width="24" height="24" viewBox="0 0 24 24" fill="none" xmlns="http://www.w3.org/2000/svg">
<g clip-path="url(#clip0_266_64771)">
<path d="M0 12.0002C0 12.7067 0 12.7854 0.0169286 13.3854C0.0619286 14.7144 0.202071 16.2396 0.735429 17.8489C1.1115 18.9872 1.81864 20.2153 2.52579 20.9891C3.42386 21.9759 4.66414 22.7833 6.00557 23.2431C7.37507 23.7141 8.85686 23.9441 11.7362 24.0002H12.2694C15.1543 23.9385 16.6305 23.7141 18 23.2431C19.3414 22.7833 20.5761 21.9759 21.4742 20.9891C22.1816 20.2097 22.8887 18.9872 23.2648 17.8489C23.7979 16.2396 23.9439 14.7088 23.9831 13.3854C24 12.7909 24 12.7069 24 12.0002C24 11.2935 24 11.2151 23.9831 10.6151C23.9383 9.28607 23.7979 7.76078 23.2648 6.15149C22.8887 5.01321 22.1816 3.78514 21.4742 3.01135C20.5764 2.02436 19.3359 1.21693 18 0.757071C16.6305 0.286071 15.1487 0.0561428 12.2694 0H11.7362C8.85129 0.0617142 7.37507 0.286071 6.00557 0.757071C4.66414 1.21693 3.42943 2.02436 2.52579 3.01135C1.81864 3.79071 1.11129 5.01321 0.735429 6.15149C0.207643 7.76099 0.0617143 9.28628 0.0169286 10.6151C0 11.2095 0 11.2935 0 12.0002Z" fill="#00C4A6"/>
<mask id="mask0_266_64771" style="mask-type:luminance" maskUnits="userSpaceOnUse" x="4" y="8" width="16" height="8">
<path d="M19.7146 8.14355H4.28605V15.8578H19.7146V8.14355Z" fill="white"/>
</mask>
<g mask="url(#mask0_266_64771)">
<path d="M7.02419 10.8809H4.28605V15.857H7.02419V10.8809Z" fill="white"/>
<path d="M13.3693 11.4723C11.9768 9.46163 9.65484 8.14355 7.02405 8.14355V10.8811C9.76798 10.8811 12.0004 13.1133 12.0004 15.8572H14.7386C14.7386 13.1133 16.9708 10.8811 19.7147 10.8811V8.14355C17.0839 8.14355 14.7615 9.46163 13.3693 11.4723Z" fill="white"/>
</g>
</g>
<defs>
<clipPath id="clip0_266_64771">
<rect width="24" height="24" fill="white"/>
</clipPath>
</defs>
</svg>
