<svg width="32" height="32" viewBox="0 0 32 32" fill="none" xmlns="http://www.w3.org/2000/svg">
<g clip-path="url(#clip0_266_65214)">
<path d="M0 16C0 16.9421 0 17.0467 0.0224456 17.8467C0.0823006 19.6187 0.269348 21.6523 0.980126 23.7981C1.48141 25.3159 2.42413 26.9533 3.36686 27.9851C4.56394 29.3009 6.21743 30.3774 8.0056 30.9906C9.8312 31.6186 11.8064 31.9251 15.6446 32H16.3554C20.2011 31.9177 22.1688 31.6186 23.9944 30.9906C25.7825 30.3774 27.4286 29.3009 28.6331 27.9851C29.576 26.9458 30.5186 25.3159 31.02 23.7981C31.7306 21.6523 31.9251 19.6112 31.9774 17.8467C32 17.0542 32 16.9421 32 16C32 15.0579 32 14.9458 31.9774 14.1533C31.9177 12.3813 31.7306 10.3477 31.02 8.20186C30.5186 6.68411 29.576 5.04671 28.6331 4.01494C27.4361 2.69907 25.7825 1.62243 23.9944 1.00935C22.1688 0.381309 20.1936 0.0747663 16.3554 0H15.6446C11.7989 0.0822429 9.8312 0.381309 8.0056 1.00935C6.21743 1.62243 4.57143 2.69907 3.36686 4.01494C2.42413 5.0542 1.48141 6.68411 0.980126 8.20186C0.276829 10.3477 0.0823006 12.3813 0.0224456 14.1533C0 14.9458 0 15.0579 0 16Z" fill="#1861A0"/>
<path d="M22.1853 9.71387C21.9665 9.71387 21.6721 9.78181 21.2947 9.91767C19.687 10.4762 18.2529 11.4046 16.9397 12.733L16.0264 13.8123L16.3811 14.318C16.9849 15.1709 17.6189 16.6125 17.9133 17.8277C18.0945 18.5221 18.1624 18.9599 18.1926 19.6769C18.1926 19.7977 18.2001 19.926 18.2077 20.0618C18.2077 20.1977 18.2077 20.3487 18.2077 20.5147C18.2077 21.3752 18.2228 22.3639 18.1322 22.3639H22.442L22.6835 22.1148C22.8345 21.896 22.8571 21.1261 22.8571 15.9936C22.8571 10.8611 22.842 10.0988 22.6759 9.9101C22.5552 9.78181 22.4042 9.71387 22.1778 9.71387H22.1853Z" fill="white"/>
<path d="M9.85231 9.71387C9.63342 9.71387 9.48248 9.7667 9.34662 9.88747C9.15036 10.0611 9.14282 10.4007 9.14282 15.971C9.14282 21.1261 9.16548 21.896 9.31642 22.1148L9.49002 22.3639H13.7696C17.0755 22.3639 18.0718 22.3337 18.1398 22.2281C18.1851 22.1526 18.2228 21.3827 18.2152 20.5223C18.2077 19.2165 18.1549 18.7636 17.9133 17.8353C17.385 15.7974 16.3887 13.9633 14.9471 12.5896C13.6941 11.397 12.2601 10.4536 10.7128 9.91767C10.3429 9.78935 10.0637 9.72141 9.84476 9.72141L9.85231 9.71387Z" fill="white"/>
<path d="M16.0265 13.8047L15.7547 14.1368C15.2717 14.7255 14.3886 16.6879 14.0942 17.8276C13.8527 18.756 13.7999 19.2089 13.7923 20.5222C13.7923 21.3826 13.7697 22.3638 13.8602 22.3638H18.1398C18.2304 22.3638 18.2228 21.3751 18.2153 20.5146C18.2077 19.2089 18.1398 18.7636 17.9134 17.8276C17.619 16.6125 16.985 15.1708 16.3812 14.3179L16.0265 13.8122V13.8047Z" fill="#1861A0"/>
<path d="M16.0264 14.749L15.8 15.0434C15.4075 15.5717 14.683 17.3153 14.4414 18.3267C14.2452 19.1569 14.1999 19.557 14.1924 20.7193C14.1924 21.4892 14.1772 22.3572 14.2452 22.3572H17.7474C17.8228 22.3572 17.8153 21.4816 17.8077 20.7118C17.8002 19.5494 17.7474 19.1494 17.5586 18.3191C17.3171 17.2398 16.8039 15.9567 16.3057 15.2019L16.0189 14.749H16.0264Z" fill="white"/>
</g>
<defs>
<clipPath id="clip0_266_65214">
<rect width="32" height="32" fill="white"/>
</clipPath>
</defs>
</svg>
