<svg width="32" height="32" viewBox="0 0 32 32" fill="none" xmlns="http://www.w3.org/2000/svg">
<g clip-path="url(#clip0_266_65130)">
<path d="M0 16C0 16.94 0 17.0496 0.0248 17.8448C0.0527959 19.8647 0.376222 21.8697 0.9848 23.796C1.50224 25.3328 2.31265 26.7548 3.3712 27.9832C4.64512 29.3512 6.2366 30.384 8.0048 30.9904C9.832 31.6192 11.804 31.9208 15.6456 32.0008H16.3536C20.1936 31.9208 22.1672 31.6192 23.9944 30.9904C25.7626 30.384 27.3541 29.3512 28.628 27.9832C29.6871 26.7553 30.4974 25.3332 31.0136 23.796C31.623 21.8699 31.9464 19.8648 31.9736 17.8448C32 17.0488 32 16.9392 32 16C32 15.0608 32 14.9512 31.9736 14.16C31.9465 12.1397 31.623 10.1344 31.0136 8.208C30.4975 6.6693 29.6873 5.24557 28.628 4.016C27.3534 2.64903 25.7621 1.61657 23.9944 1.0096C22.1672 0.3808 20.196 0.08 16.3536 0H15.6456C11.8056 0.08 9.832 0.3808 8.0048 1.0096C6.23709 1.61657 4.64581 2.64903 3.3712 4.016C2.31297 5.24495 1.50261 6.6671 0.9848 8.204C0.376156 10.1305 0.0527295 12.1358 0.0248 14.156C0 14.9504 0 15.06 0 16Z" fill="#1D8097"/>
<path d="M15.7016 23.4848H8.78477V12.4848C8.73523 11.7518 8.90891 11.021 9.28292 10.3887C9.65693 9.75631 10.2137 9.25209 10.88 8.94243C11.7167 8.54655 12.6378 8.36222 13.5624 8.40563V10.4856C12.9486 10.4416 12.3339 10.5557 11.7768 10.8168C11.4902 10.9493 11.2499 11.1644 11.0866 11.4346C10.9234 11.7047 10.8447 12.0176 10.8608 12.3328L10.8656 12.4376V21.4056H13.62V17.288H18.0128V19.368H15.7016V23.4848Z" fill="white"/>
<path d="M18.0392 23.5939H18.0096L18.0168 21.5139H18.0384C20.8112 21.5139 21.0944 19.6275 21.1232 19.2475C21.257 18.3122 21.0546 17.3597 20.552 16.5595L20.0128 15.9395L20.4928 15.2707C20.683 14.8822 20.7763 14.4535 20.7648 14.0211V10.6083H18.0096V14.6987H13.644V12.6187H15.928V8.52832H22.8448V13.9995C22.8509 14.618 22.746 15.2325 22.5352 15.8139C23.0984 16.9184 23.3293 18.1625 23.2 19.3955C23.12 20.8355 21.944 23.5939 18.0392 23.5939Z" fill="white"/>
</g>
<defs>
<clipPath id="clip0_266_65130">
<rect width="32" height="32" fill="white"/>
</clipPath>
</defs>
</svg>
