<svg width="32" height="32" viewBox="0 0 32 32" fill="none" xmlns="http://www.w3.org/2000/svg">
<g clip-path="url(#clip0_266_65182)">
<path d="M0 16C0 16.9421 0 17.0467 0.0224509 17.8467C0.08232 19.6187 0.269411 21.6523 0.980354 23.7981C1.48176 25.3159 2.4247 26.9533 3.36763 27.9851C4.56503 29.3009 6.21889 30.3774 8.00749 30.9906C9.83349 31.6186 11.8092 31.9251 15.6483 32H16.3592C20.2058 31.9177 22.174 31.6186 24 30.9906C25.7886 30.3774 27.435 29.3009 28.6323 27.9851C29.5754 26.9458 30.5183 25.3159 31.0197 23.7981C31.7306 21.6523 31.9251 19.6112 31.9774 17.8467C32 17.0542 32 16.9421 32 16C32 15.0579 32 14.9533 31.9774 14.1533C31.9177 12.3813 31.7306 10.3477 31.0197 8.20186C30.5183 6.68411 29.5754 5.04671 28.6323 4.01494C27.435 2.69907 25.7811 1.62243 24 1.00935C22.174 0.381309 20.1983 0.0747663 16.3592 0H15.6483C11.8017 0.0822429 9.83349 0.381309 8.00749 1.00935C6.21889 1.62243 4.57249 2.69907 3.36763 4.01494C2.4247 5.0542 1.48176 6.68411 0.980354 8.20186C0.276894 10.3477 0.08232 12.3813 0.0224509 14.1533C0 14.9458 0 15.0579 0 16Z" fill="black"/>
<path d="M23.5109 24.8571L16.7065 7.15723H25.1427V24.8571H23.5109Z" fill="#FBAF17"/>
<path fill-rule="evenodd" clip-rule="evenodd" d="M19.9558 24.843H21.6459L19.0378 17.8782C18.9262 17.6287 18.557 17.1299 17.9742 17.1299H17.6537C17.4303 17.1299 16.9164 17.2795 16.6483 17.8782L14.0548 24.843H15.7304V24.8287L16.3861 23.0155H19.3002L19.9558 24.843ZM17.8432 18.756L16.8232 21.7204H18.8631L17.8432 18.756Z" fill="white"/>
<path d="M13.7197 14.8701V7.14258H14.7251C15.2788 7.14258 15.3225 7.51672 15.337 7.76135V14.8701H13.7197Z" fill="white"/>
<path d="M6.85718 13.8343V7.15723H7.87709C8.38998 7.15723 8.48906 7.55057 8.47449 7.74723V13.5465H12.3648V14.8416H7.92081C7.09321 14.8416 6.86689 14.17 6.85718 13.8343Z" fill="white"/>
<path fill-rule="evenodd" clip-rule="evenodd" d="M6.85718 24.8288V17.1387H7.87158H8.11023C8.32878 17.1387 8.54732 17.2164 8.72218 17.533L11.4847 22.0484V17.1444H12.4846C13.0353 17.1444 13.0787 17.5167 13.0932 17.7602V24.8345H11.5634L11.4957 24.7183L8.48906 19.8052V24.8288H6.85718Z" fill="white"/>
</g>
<defs>
<clipPath id="clip0_266_65182">
<rect width="32" height="32" fill="white"/>
</clipPath>
</defs>
</svg>
