<svg width="56" height="56" viewBox="0 0 56 56" fill="none" xmlns="http://www.w3.org/2000/svg">
<g clip-path="url(#clip0_266_65577)">
<path d="M0 28.007C0 29.6446 0 29.8405 0.0420105 31.2402C0.084021 34.7673 0.658165 38.2804 1.72243 41.6536C2.63266 44.3409 4.04701 46.8323 5.89547 48.9738C8.12203 51.3672 10.9087 53.1727 14.0035 54.2364C17.1963 55.3422 20.6552 55.86 27.3768 56H28.6232C35.3448 55.86 38.8037 55.3282 41.9965 54.2364C45.0913 53.1727 47.878 51.3672 50.1045 48.9738C51.953 46.8183 53.3813 44.3409 54.2776 41.6536C55.3418 38.2804 55.916 34.7813 55.958 31.2402C56 29.8545 56 29.6586 56 28.007C56 26.3554 56 26.1735 55.958 24.7878C55.916 21.2607 55.3418 17.7476 54.2776 14.3744C53.3673 11.6871 51.953 9.1957 50.1045 7.04024C47.878 4.64684 45.0913 2.84129 41.9965 1.77756C38.8037 0.671832 35.3448 0.139965 28.6232 0H27.3768C20.6552 0.139965 17.1963 0.671832 14.0035 1.76356C10.9087 2.82729 8.12203 4.63284 5.89547 7.02624C4.04701 9.1817 2.61865 11.6591 1.72243 14.3604C0.658165 17.7476 0.0980245 21.2467 0.0420105 24.7878C0 26.1735 0 26.3694 0 28.007Z" fill="#E72511"/>
<path d="M45.9832 31.8H38.1499V22.0166H35.5166V33.9H47.5L45.9832 31.8Z" fill="white"/>
<path d="M17.15 22C17.0166 22.1833 8.65 33.7 8.5 33.8834H11.4333L13.7833 30.65H17.65V28.5833H15.2833L18.4667 24.2V33.8834H21.0833V22H17.15Z" fill="white"/>
<path d="M33.3999 28.2827C33.0833 27.8161 32.6666 27.4327 32.1666 27.1827C32.7499 26.6494 33.05 25.8994 33.0167 25.1161C33.05 24.2494 32.6833 23.4161 32.0333 22.8661C31.2999 22.2827 30.3833 21.9827 29.4499 22.0327H23.1333V33.9161H29.6999C30.8166 33.9661 31.9166 33.6161 32.7833 32.9327C33.5499 32.2661 33.9833 31.2994 33.95 30.2827C33.95 29.5827 33.7667 28.8994 33.3833 28.3161M25.7333 24.1327H28.9333C29.3333 24.1161 29.7167 24.2327 30.0333 24.4661C30.5167 24.9494 30.5333 25.7494 30.0499 26.2494C29.7666 26.4827 29.4 26.5994 29.0333 26.5827H25.7333V24.1327ZM30.75 31.3994C30.3333 31.6994 29.8333 31.8494 29.3167 31.8327H25.7333V28.6661H29.25C29.7833 28.6327 30.2999 28.7994 30.7333 29.1161C31.0833 29.3994 31.2667 29.8327 31.25 30.2827C31.2667 30.7161 31.0833 31.1327 30.75 31.4161" fill="white"/>
</g>
<defs>
<clipPath id="clip0_266_65577">
<rect width="56" height="56" fill="white"/>
</clipPath>
</defs>
</svg>
