<svg width="56" height="56" viewBox="0 0 56 56" fill="none" xmlns="http://www.w3.org/2000/svg">
<g clip-path="url(#clip0_266_65678)">
<path d="M0 28C0 29.6486 0 29.8318 0.039289 31.2318C0.14406 34.3327 0.471469 37.8916 1.71562 41.6467C2.59308 44.3028 4.24322 47.1682 5.89335 48.9739C7.9888 51.2765 10.883 53.1605 14.0131 54.2335C17.2086 55.3325 20.666 55.869 27.3845 56H28.6287C35.3602 55.856 38.8045 55.3325 42 54.2335C45.1301 53.1605 48.0112 51.2765 50.1065 48.9739C51.757 47.1552 53.407 44.3028 54.2845 41.6467C55.5285 37.8916 55.869 34.3196 55.9605 31.2318C56 29.8449 56 29.6486 56 28C56 26.3514 56 26.1682 55.9605 24.7682C55.856 21.6673 55.5285 18.1084 54.2845 14.3532C53.407 11.6972 51.757 8.83175 50.1065 7.02615C48.0112 4.72336 45.117 2.83925 42 1.76636C38.8045 0.66729 35.3471 0.130841 28.6287 0H27.3845C20.653 0.143925 17.2086 0.66729 14.0131 1.76636C10.883 2.83925 8.00185 4.72336 5.89335 7.02615C4.24322 8.84485 2.59308 11.6972 1.71562 14.3532C0.484565 18.1084 0.14406 21.6673 0.039289 24.7682C0 26.1552 0 26.3514 0 28Z" fill="#003CDC"/>
<path d="M14.822 28.6625H13.2579V22.0002H14.822V24.6495H16.6507V25.9751H14.822V28.6625ZM9.75104 32.6375H13.2586V30.4423H9.75104V32.6375ZM8.19904 29.1166H14.822V33.9496H8.19889L8.19904 29.1166ZM9.06979 25.8109C8.85539 26.303 8.50209 26.8199 8.06074 27.2875C7.60644 27.779 7.05084 28.2084 6.48314 28.549L5.49884 27.4009C6.20534 26.9969 6.87449 26.4413 7.37944 25.7346C7.88374 25.0407 8.19889 24.2335 8.19889 23.3251V22.2647H9.83924V23.2997C9.83924 24.1958 10.167 24.9524 10.658 25.5709C11.1508 26.2147 11.8188 26.6942 12.4752 27.0094L11.5918 28.2082C10.3809 27.5517 9.58669 26.7699 9.06979 25.8109ZM25.3098 25.4827H23.1018V24.0945H25.3098V22H26.874V28.726H25.3098V25.4827ZM24.7041 30.4935C24.4147 30.241 24.0361 30.0895 23.582 30.0895C22.6731 30.0895 22.0426 30.6698 22.0426 31.5281C22.0426 32.3988 22.6731 32.9793 23.582 32.9793C24.4902 32.9793 25.1461 32.3988 25.1461 31.5281C25.1467 31.3346 25.1078 31.1431 25.0318 30.9652C24.9558 30.7873 24.8443 30.6267 24.7041 30.4935ZM25.8141 33.5468C25.2597 34.0137 24.4901 34.2915 23.582 34.2915C22.6731 34.2915 21.9164 34.0137 21.3741 33.5468C20.8185 33.0547 20.5038 32.3734 20.5038 31.5281C20.5038 30.7206 20.8185 30.0388 21.3741 29.5471C21.9164 29.055 22.6731 28.7645 23.582 28.7645C24.4902 28.7645 25.2597 29.055 25.8141 29.5471C26.3564 30.0388 26.6849 30.7206 26.6849 31.5281C26.6849 32.3735 26.3564 33.0547 25.8141 33.5468ZM21.6011 27.2747C21.1591 26.858 20.8185 26.4164 20.6168 26.0124C20.4278 26.4666 20.0877 26.9587 19.6457 27.4256C19.1914 27.893 18.6498 28.3726 18.0434 28.7386L17.0724 27.5644C17.8418 27.0597 18.5357 26.4794 19.003 25.8109C19.4694 25.155 19.7598 24.3977 19.7598 23.5394V22.2645H21.4242V23.5143C21.4242 24.4606 21.7274 25.1925 22.2191 25.7857C22.6858 26.3914 23.3548 26.8455 24.0228 27.1861L23.14 28.4103C22.5849 28.1076 22.0426 27.7161 21.6011 27.2747ZM31.3235 26.7064C31.3235 27.2487 31.7524 27.678 32.4457 27.678C33.1522 27.678 33.5689 27.2486 33.5689 26.7062C33.5689 26.164 33.1522 25.7219 32.4457 25.7219C31.7524 25.7219 31.3235 26.1641 31.3235 26.7064ZM30.8822 22.0501H33.9731V23.3624H30.8822V22.0501ZM31.6883 29.6595V28.826C30.4908 28.5615 29.8348 27.7161 29.8348 26.7064C29.8348 26.1513 30.1127 25.6089 30.5669 25.2176H29.0401V23.9683H35.827V25.2178H34.351C34.805 25.6213 35.0703 26.1642 35.0703 26.7319C35.0703 27.7283 34.4646 28.5491 33.2664 28.8136V29.5835C34.3382 29.5208 35.4109 29.4446 36.4696 29.3312V22H38.0222V25.987H39.788V27.3121H38.0222V32.5866H36.4696V30.5931C34.0096 30.8702 31.4872 31.0598 28.9006 31.1355L28.7497 29.7222C29.734 29.7222 30.706 29.697 31.6883 29.6595ZM48.9722 26.6308H48.0138V32.1451H46.4996V22.1516H48.0138V25.3056H48.9722V22H50.4988V32.574H48.9722V26.6308ZM44.7587 26.8953C45.15 27.64 45.7176 28.1828 46.4115 28.6497L45.4778 29.8486C45.0365 29.5454 44.5695 29.1039 44.2036 28.6497C43.8129 28.1956 43.5103 27.716 43.3973 27.3247C43.0441 28.4353 42.2861 29.331 41.3278 30.0882L40.356 28.9396C41.1133 28.2837 41.681 27.7035 42.0465 26.9461C42.3997 26.2021 42.5767 25.2931 42.5767 23.9935H40.7346V22.6813H45.9445V23.9935H44.1408C44.1408 25.2177 44.3552 26.1512 44.7587 26.8953Z" fill="white"/>
</g>
<defs>
<clipPath id="clip0_266_65678">
<rect width="56" height="56" fill="white"/>
</clipPath>
</defs>
</svg>
