<svg width="40" height="40" viewBox="0 0 40 40" fill="none" xmlns="http://www.w3.org/2000/svg">
<g clip-path="url(#clip0_266_65447)">
<path d="M0 20C0 21.1776 0 21.3084 0.0280636 22.3084C0.1029 24.5234 0.336763 27.0654 1.22544 29.7476C1.8522 31.6449 3.03087 33.6916 4.20954 34.9813C5.70629 36.6261 7.77361 37.9718 10.0094 38.7382C12.2919 39.5232 14.7615 39.9064 19.5603 40H20.449C25.2573 39.8971 27.7175 39.5232 30 38.7382C32.2358 37.9718 34.2938 36.6261 35.7904 34.9813C36.9693 33.6823 38.1479 31.6449 38.7746 29.7476C39.6632 27.0654 39.9064 24.514 39.9718 22.3084C40 21.3178 40 21.1776 40 20C40 18.8224 40 18.6916 39.9718 17.6916C39.8971 15.4766 39.6632 12.9346 38.7746 10.2523C38.1479 8.35514 36.9693 6.30839 35.7904 5.01868C34.2938 3.37383 32.2264 2.02804 30 1.26168C27.7175 0.476636 25.2479 0.0934579 20.449 0H19.5603C14.7521 0.102804 12.2919 0.476636 10.0094 1.26168C7.77361 2.02804 5.71561 3.37383 4.20954 5.01868C3.03087 6.31775 1.8522 8.35514 1.22544 10.2523C0.346118 12.9346 0.1029 15.4766 0.0280636 17.6916C0 18.6823 0 18.8224 0 20Z" fill="#0099D9"/>
<mask id="mask0_266_65447" style="mask-type:luminance" maskUnits="userSpaceOnUse" x="3" y="15" width="34" height="10">
<path d="M36.0714 15.3574H3.92859V24.286H36.0714V15.3574Z" fill="white"/>
</mask>
<g mask="url(#mask0_266_65447)">
<path d="M23.4356 18.3592C22.3286 19.4658 22.3286 21.2591 23.4356 22.3656L24.9753 23.9046C25.4843 24.4134 26.3114 24.4134 26.8204 23.9046L24.3518 21.4372C23.7538 20.8394 23.7538 19.8728 24.3518 19.275C24.9499 18.6772 25.917 18.6772 26.5151 19.275L31.1342 23.8919C31.6431 24.4006 32.4703 24.4006 32.9792 23.8919L27.4312 18.3465C26.3242 17.24 24.53 17.24 23.4229 18.3465" fill="white"/>
<path d="M28.9837 16.8206C27.0241 14.8619 23.8556 14.8619 21.896 16.8206C19.9364 18.7793 19.9364 21.9462 21.896 23.905C22.405 24.4137 23.2321 24.4137 23.7411 23.905L22.8122 22.9765C21.3361 21.552 21.2979 19.2117 22.7231 17.7363C24.1483 16.261 26.4896 16.2228 27.9657 17.6473C28.0039 17.6727 28.0294 17.7109 28.0548 17.7363L34.2136 23.8922C34.7226 24.401 35.5497 24.401 36.0586 23.8922L28.971 16.8079L28.9837 16.8206Z" fill="white"/>
<path d="M24.9753 19.8988C24.7208 20.1532 24.7208 20.5729 24.9753 20.8273L28.0547 23.9052C28.5637 24.4139 29.3908 24.4139 29.8998 23.9052L25.8915 19.8988C25.637 19.6444 25.2171 19.6444 24.9626 19.8988" fill="white"/>
<path d="M16.5642 18.3592C17.6713 19.4657 17.6713 21.2591 16.5642 22.3656L15.0245 23.9046C14.5156 24.4133 13.6884 24.4133 13.1795 23.9046L15.6481 21.4371C16.2461 20.8393 16.2461 19.8727 15.6481 19.2749C15.05 18.6772 14.0829 18.6772 13.4848 19.2749L8.86574 23.8918C8.35674 24.4006 7.52963 24.4006 7.02063 23.8918L12.5559 18.3592C13.663 17.2527 15.4572 17.2527 16.5642 18.3592Z" fill="white"/>
<path d="M11.0163 16.8206C12.9759 14.8619 16.1444 14.8619 18.104 16.8206C20.0636 18.7793 20.0636 21.9462 18.104 23.905C17.595 24.4137 16.7679 24.4137 16.2589 23.905L17.1878 22.9765C18.6512 21.552 18.6766 19.199 17.2514 17.7363C15.8263 16.2737 13.4722 16.2482 12.0088 17.6727C11.9834 17.6982 11.9707 17.7109 11.9452 17.7363L5.7737 23.905C5.2647 24.4137 4.43759 24.4137 3.92859 23.905L11.0163 16.8206Z" fill="white"/>
<path d="M15.0119 19.8988C15.2664 20.1532 15.2664 20.5729 15.0119 20.8273L11.9325 23.9052C11.4235 24.4139 10.5964 24.4139 10.0874 23.9052L14.0957 19.8988C14.3502 19.6444 14.7702 19.6444 15.0247 19.8988" fill="white"/>
</g>
</g>
<defs>
<clipPath id="clip0_266_65447">
<rect width="40" height="40" fill="white"/>
</clipPath>
</defs>
</svg>
