<svg width="56" height="56" viewBox="0 0 56 56" fill="none" xmlns="http://www.w3.org/2000/svg">
<g clip-path="url(#clip0_266_65727)">
<path d="M0 28C0 29.6486 0 29.8318 0.039289 31.2318C0.14406 34.3327 0.471469 37.8916 1.71562 41.6467C2.59308 44.3028 4.24322 47.1682 5.89335 48.9739C7.9888 51.2765 10.883 53.1605 14.0131 54.2335C17.2086 55.3325 20.666 55.869 27.3845 56H28.6287C35.3601 55.856 38.8045 55.3325 42 54.2335C45.1301 53.1605 48.0112 51.2765 50.1065 48.9739C51.757 47.1552 53.407 44.3028 54.2845 41.6467C55.5285 37.8916 55.869 34.3196 55.9605 31.2318C56 29.8449 56 29.6486 56 28C56 26.3514 56 26.1682 55.9605 24.7682C55.856 21.6673 55.5285 18.1084 54.2845 14.3532C53.407 11.6972 51.757 8.83175 50.1065 7.02615C48.0112 4.72337 45.117 2.83925 42 1.76636C38.8045 0.66729 35.347 0.130841 28.6287 0H27.3845C20.653 0.143925 17.2086 0.66729 14.0131 1.76636C10.883 2.83925 8.00185 4.72337 5.89335 7.02615C4.24322 8.84485 2.59308 11.6972 1.71562 14.3532C0.484565 18.1084 0.14406 21.6673 0.039289 24.7682C0 26.1551 0 26.3514 0 28Z" fill="#0099D9"/>
<mask id="mask0_266_65727" style="mask-type:luminance" maskUnits="userSpaceOnUse" x="5" y="21" width="46" height="13">
<path d="M50.5 21.5H5.5V34H50.5V21.5Z" fill="white"/>
</mask>
<g mask="url(#mask0_266_65727)">
<path d="M32.8098 25.7021C31.26 27.2513 31.26 29.762 32.8098 31.3111L34.9654 33.4657C35.6781 34.1779 36.836 34.1779 37.5486 33.4657L34.0925 30.0113C33.2552 29.1744 33.2552 27.8211 34.0925 26.9842C34.9298 26.1473 36.2838 26.1473 37.1211 26.9842L43.5878 33.4479C44.3003 34.1601 45.4583 34.1601 46.1709 33.4479L38.4037 25.6843C36.8538 24.1352 34.3419 24.1352 32.792 25.6843" fill="white"/>
<path d="M40.5771 23.5479C37.8336 20.8057 33.3978 20.8057 30.6543 23.5479C27.9108 26.29 27.9108 30.7238 30.6543 33.466C31.3669 34.1782 32.5249 34.1782 33.2374 33.466L31.937 32.1661C29.8705 30.1718 29.817 26.8954 31.8123 24.8299C33.8075 22.7644 37.0854 22.711 39.1519 24.7053C39.2054 24.7409 39.241 24.7943 39.2766 24.8299L47.899 33.4481C48.6115 34.1604 49.7695 34.1604 50.482 33.4481L40.5593 23.5301L40.5771 23.5479Z" fill="white"/>
<path d="M34.9655 27.857C34.6092 28.2131 34.6092 28.8007 34.9655 29.1568L39.2766 33.4659C39.9892 34.1782 41.1472 34.1782 41.8598 33.4659L36.2481 27.857C35.8919 27.5008 35.304 27.5008 34.9477 27.857" fill="white"/>
<path d="M23.1899 25.7029C24.7398 27.252 24.7398 29.7627 23.1899 31.3118L21.0343 33.4664C20.3218 34.1786 19.1638 34.1786 18.4512 33.4664L21.9073 30.012C22.7446 29.1751 22.7446 27.8218 21.9073 26.9849C21.07 26.148 19.7161 26.148 18.8788 26.9849L12.412 33.4486C11.6994 34.1608 10.5415 34.1608 9.82886 33.4486L17.5783 25.7029C19.1282 24.1537 21.64 24.1537 23.1899 25.7029Z" fill="white"/>
<path d="M15.4228 23.5479C18.1663 20.8057 22.6021 20.8057 25.3456 23.5479C28.0891 26.29 28.0891 30.7238 25.3456 33.466C24.633 34.1782 23.475 34.1782 22.7624 33.466L24.063 32.1661C26.1117 30.1718 26.1473 26.8776 24.152 24.8299C22.1567 22.7822 18.861 22.7466 16.8123 24.7409C16.7767 24.7765 16.7589 24.7943 16.7233 24.8299L8.08315 33.466C7.37055 34.1782 6.2126 34.1782 5.5 33.466L15.4228 23.5479Z" fill="white"/>
<path d="M21.0166 27.857C21.3729 28.2131 21.3729 28.8007 21.0166 29.1568L16.7055 33.4659C15.9929 34.1782 14.8349 34.1782 14.1223 33.4659L19.734 27.857C20.0903 27.5008 20.6782 27.5008 21.0345 27.857" fill="white"/>
</g>
</g>
<defs>
<clipPath id="clip0_266_65727">
<rect width="56" height="56" fill="white"/>
</clipPath>
</defs>
</svg>
