<svg width="56" height="56" viewBox="0 0 56 56" fill="none" xmlns="http://www.w3.org/2000/svg">
<g clip-path="url(#clip0_266_65645)">
<path d="M0 28C0 29.6486 0 29.8318 0.052373 31.2318C0.144026 34.3327 0.484452 37.8916 1.72831 41.6467C2.60557 44.3028 4.25532 47.1682 5.90505 48.9739C8 51.2765 10.8936 53.1605 14.0098 54.2335C17.2046 55.3325 20.6612 55.869 27.378 56H28.622C35.3519 55.856 38.7954 55.3325 41.9902 54.2335C45.1194 53.1605 48 51.2765 50.108 48.9739C51.758 47.1552 53.4075 44.3028 54.285 41.6467C55.5285 37.8916 55.869 34.3196 55.9605 31.2318C56 29.8449 56 29.6486 56 28C56 26.3514 56 26.1682 55.9605 24.7682C55.856 21.6673 55.5285 18.1084 54.285 14.3532C53.4075 11.6972 51.758 8.83175 50.108 7.02615C48.0131 4.72337 45.1194 2.83925 41.9902 1.76636C38.7954 0.66729 35.3388 0.143925 28.622 0H27.378C20.6481 0.143925 17.2046 0.66729 14.0098 1.76636C10.8805 2.83925 8 4.72337 5.90505 7.02615C4.25532 8.84485 2.60557 11.6972 1.72831 14.3532C0.484452 18.1084 0.144026 21.6673 0.052373 24.7682C0 26.1551 0 26.3514 0 28Z" fill="#345D98"/>
<path d="M25.3646 38.0025L17.7906 26.1908C17.0725 25.0877 16.5034 22.7738 17.0725 21.6572L12.3709 28.989C11.8831 29.7424 11.8696 30.9801 12.3709 31.7603L17.7228 40.1146C18.2106 40.8545 19.3216 41.5003 20.4462 41.5003H27.6273L25.3781 38.0025H25.3646Z" fill="white"/>
<path d="M18.658 25.6525L21.9775 30.8184C21.5846 30.0381 21.8149 29.0695 22.0724 28.6659L28.3456 18.8184H21.2865C20.04 18.8184 19.0509 19.37 18.5089 20.204L17.9128 21.1188C17.3437 22.2354 17.9128 24.5359 18.6309 25.639" fill="white"/>
<path d="M43.6158 24.2399L38.2638 15.8856C37.7761 15.1457 36.665 14.5 35.5404 14.5H28.3594L38.1825 29.8094C38.9006 30.9125 39.4697 33.213 38.9142 34.343L43.6293 27.0112C44.1035 26.2578 44.1442 25.0202 43.6293 24.2399" fill="white"/>
<path d="M37.301 30.3076L33.9814 25.1416C34.3743 25.9219 34.144 26.8905 33.8866 27.2941L27.6133 37.1416H34.6724C35.919 37.1416 36.908 36.5901 37.45 35.756L38.0462 34.8412C38.6152 33.7246 38.0462 31.4241 37.3145 30.3076" fill="white"/>
</g>
<defs>
<clipPath id="clip0_266_65645">
<rect width="56" height="56" fill="white"/>
</clipPath>
</defs>
</svg>
