<svg width="24" height="24" viewBox="0 0 24 24" fill="none" xmlns="http://www.w3.org/2000/svg">
<g clip-path="url(#clip0_266_64992)">
<path d="M0 12C0 12.7017 0 12.7856 0.0180045 13.3853C0.036009 14.8965 0.282071 16.4018 0.738184 17.8471C1.12828 18.9985 1.73443 20.066 2.52662 20.9895C3.48088 22.0151 4.67518 22.7886 6.0015 23.2444C7.36984 23.7182 8.85221 23.94 11.7329 24H12.2671C15.1478 23.94 16.6302 23.7122 17.9985 23.2444C19.3248 22.7886 20.5191 22.0151 21.4734 20.9895C22.2656 20.066 22.8778 19.0045 23.2618 17.8471C23.718 16.4018 23.964 14.9025 23.982 13.3853C24 12.7916 24 12.7077 24 12C24 11.2924 24 11.2144 23.982 10.6207C23.964 9.10944 23.718 7.60421 23.2618 6.15891C22.8718 5.00749 22.2656 3.94003 21.4734 3.0165C20.5191 1.99101 19.3248 1.21739 17.9985 0.761619C16.6302 0.287856 15.1478 0.05997 12.2671 0H11.7329C8.85221 0.05997 7.36984 0.287856 6.0015 0.755623C4.67518 1.21139 3.48088 1.98501 2.52662 3.0105C1.73443 3.93403 1.12228 4.99549 0.738184 6.15291C0.282071 7.60421 0.0420105 9.10346 0.0180045 10.6207C0 11.2144 0 11.2983 0 12Z" fill="#DF007E"/>
<path d="M13.8747 8.06934L9.94312 12.0036L13.8774 15.9352L17.809 12.0009L13.8747 8.06934Z" fill="white"/>
<path d="M9.19189 8.25H6.19189V11.25H9.19189V8.25Z" fill="white"/>
<path d="M9.19189 12.75H6.19189V15.75H9.19189V12.75Z" fill="white"/>
</g>
<defs>
<clipPath id="clip0_266_64992">
<rect width="24" height="24" fill="white"/>
</clipPath>
</defs>
</svg>
