<svg width="32" height="32" viewBox="0 0 32 32" fill="none" xmlns="http://www.w3.org/2000/svg">
<g clip-path="url(#clip0_266_65025)">
<path d="M0 16C0 16.9421 0 17.0467 0.0224456 17.8467C0.0823006 19.6187 0.269348 21.6523 0.980126 23.7981C1.48141 25.3159 2.42413 26.9533 3.36686 27.9851C4.56394 29.3009 6.21743 30.3774 8.0056 30.9906C9.8312 31.6186 11.8064 31.9251 15.6446 32H16.3554C20.2011 31.9177 22.1688 31.6186 23.9944 30.9906C25.7825 30.3774 27.4286 29.3009 28.6331 27.9851C29.576 26.9458 30.5186 25.3159 31.02 23.7981C31.7306 21.6523 31.9251 19.6112 31.9774 17.8467C32 17.0542 32 16.9421 32 16C32 15.0579 32 14.9458 31.9774 14.1533C31.9177 12.3813 31.7306 10.3477 31.02 8.20186C30.5186 6.68411 29.576 5.04671 28.6331 4.01494C27.4361 2.69907 25.7825 1.62243 23.9944 1.00935C22.1688 0.381309 20.1936 0.0747663 16.3554 0H15.6446C11.7989 0.0822429 9.8312 0.381309 8.0056 1.00935C6.21743 1.62243 4.57143 2.69907 3.36686 4.01494C2.42413 5.0542 1.48141 6.68411 0.980126 8.20186C0.276829 10.3477 0.0823006 12.3813 0.0224456 14.1533C0 14.9458 0 15.0579 0 16Z" fill="#04A86C"/>
<path d="M21.102 10.6158C20.5675 11.3971 20.276 11.7998 19.4176 12.7342C20.8995 11.8481 21.3044 11.7917 22.6811 10.9943C23.1912 11.7515 23.3289 13.5074 23.3451 14.9009C23.7905 14.0148 24.333 10.6963 24.1063 10.0922C24.9323 9.55253 24.9323 9.3431 25.1428 8.98064C24.3168 9.05313 23.8472 9.06924 23.3937 9.20615C22.2519 8.50541 19.8954 7.78853 17.9762 7.64355C18.5754 7.89324 21.0129 9.21421 21.3206 9.62501C20.033 9.79415 17.5713 10.5191 16.3242 11.1715C17.7494 10.8574 19.7415 10.6963 21.1101 10.6238L21.102 10.6158Z" fill="white"/>
<path d="M16.8667 21.4975C16.5023 21.9808 16.2027 22.3433 15.7978 22.7863C15.1176 22.9715 14.575 23.0441 13.9191 23.0441C14.324 23.2535 14.7289 23.3823 15.15 23.4629C14.7289 23.8495 14.3564 24.1234 13.9515 24.3811C14.6479 24.22 15.5468 23.922 16.227 23.5273C16.5752 23.5354 16.9315 23.5273 17.1664 23.479C17.1097 23.2696 17.0611 23.1165 17.0044 22.8507C17.6441 22.3594 18.1057 21.9164 18.624 21.3848C18.0652 21.7795 17.5793 22.0775 16.9396 22.3835C16.9072 22.0855 16.891 21.8278 16.8748 21.4975H16.8667Z" fill="white"/>
<path d="M9.1091 17.1557C9.1091 17.1557 11.1741 15.2467 12.0648 14.7635C12.0648 14.7635 12.5183 16.318 12.8422 17.0913C12.8422 17.0913 13.1338 15.2951 13.6034 14.2641C13.6034 14.2641 13.733 14.1835 14.397 14.1191C15.053 14.0627 15.9761 14.0224 17.7576 14.3285C17.7576 14.3285 16.1219 13.2975 14.1055 13.0237C14.1865 12.7498 14.4699 12.1618 14.7209 11.8477C14.3484 11.904 13.3038 12.3712 12.6074 12.9109C12.6074 12.9109 12.1458 12.8545 11.3765 12.8787C10.6072 12.9109 9.59498 13.1042 9.19818 13.2653C9.9513 13.2975 10.9797 13.4828 11.3765 13.8775C11.3765 13.8775 10.2266 14.9085 9.10101 17.1557H9.1091Z" fill="white"/>
<path d="M9.33561 22.1096C9.67572 22.8507 10.032 23.35 10.6151 23.9139C10.4774 23.4306 10.4531 23.0359 10.5017 22.5285C11.2386 22.7379 11.846 22.8587 12.672 22.8829C11.8784 22.5929 11.3115 22.2546 10.6961 21.6747C10.8823 21.1672 11.101 20.7645 11.4411 20.257C10.8013 20.3456 10.3398 20.4262 9.78909 20.5309C9.34372 19.7496 9.14127 18.9924 8.91452 17.9453C8.78495 19.0488 8.74447 19.8543 8.89832 20.7403C8.38815 20.8772 8.03187 20.99 7.61887 21.1753C8.20192 21.5297 8.67969 21.8116 9.33561 22.1096Z" fill="white"/>
<path d="M16.9962 22.8507C17.0529 23.1165 17.1015 23.2775 17.1582 23.4789C16.9152 23.5273 16.567 23.5433 16.2188 23.5273C15.5386 23.9219 14.6397 24.2199 13.9433 24.3811C14.3482 24.1233 14.7207 23.8494 15.1418 23.4628C14.7207 23.3742 14.3077 23.2534 13.9109 23.044C14.575 23.044 15.1094 22.9715 15.7896 22.7862C16.1945 22.3432 16.4942 21.9727 16.8586 21.4975C16.8748 21.8357 16.891 22.0855 16.9233 22.3835C17.5631 22.0774 18.0489 21.7713 18.6077 21.3847C18.0813 21.9163 17.6278 22.3593 16.9881 22.8507H16.9962ZM17.968 7.6272C19.8872 7.77217 22.2436 8.49711 23.3854 9.18983C23.8389 9.05288 24.3086 9.03677 25.1346 8.96428C24.924 9.32674 24.924 9.53617 24.098 10.0758C24.3248 10.6799 23.7822 13.9985 23.3368 14.8845C23.3207 13.4911 23.183 11.7351 22.6728 10.978C21.3043 11.7754 20.8913 11.8398 19.4094 12.7178C20.2758 11.7834 20.5674 11.3888 21.0937 10.5994C19.7252 10.6719 17.7331 10.841 16.3079 11.1471C17.555 10.4947 20.0167 9.76977 21.3043 9.6006C20.9966 9.18983 18.5672 7.8608 17.9599 7.61914L17.968 7.6272ZM9.20604 13.2575C9.59475 13.0964 10.607 12.9031 11.3844 12.8708C12.1537 12.8467 12.6153 12.9031 12.6153 12.9031C13.3117 12.3553 14.3563 11.8962 14.7288 11.8398C14.4778 12.154 14.1862 12.7419 14.1134 13.0158C16.1298 13.2897 17.7655 14.3207 17.7655 14.3207C15.984 14.0065 15.0608 14.0549 14.4049 14.1113C13.7409 14.1757 13.6113 14.2563 13.6113 14.2563C13.1416 15.2873 12.8501 17.0835 12.8501 17.0835C12.5262 16.3102 12.0727 14.7556 12.0727 14.7556C11.1819 15.2309 9.11698 17.1479 9.11698 17.1479C10.2426 14.9006 11.3925 13.8696 11.3925 13.8696C10.9957 13.4749 9.96727 13.2897 9.21415 13.2575H9.20604ZM8.91452 17.9373C9.14127 18.9844 9.34372 19.7415 9.78909 20.5228C10.3398 20.4181 10.8094 20.3376 11.4411 20.249C11.101 20.7564 10.8823 21.1591 10.6961 21.6666C11.3196 22.2465 11.8864 22.5849 12.672 22.8748C11.846 22.8507 11.2305 22.7298 10.5017 22.5204C10.4531 23.0279 10.4774 23.4225 10.6151 23.9058C10.032 23.3339 9.67572 22.8426 9.33561 22.1016C8.67969 21.8035 8.20192 21.5216 7.61887 21.1672C8.03187 20.9819 8.39627 20.8692 8.89832 20.7323C8.74447 19.8462 8.78495 19.0408 8.91452 17.9373Z" fill="white"/>
</g>
<defs>
<clipPath id="clip0_266_65025">
<rect width="32" height="32" fill="white"/>
</clipPath>
</defs>
</svg>
