<svg width="40" height="40" viewBox="0 0 40 40" fill="none" xmlns="http://www.w3.org/2000/svg">
<g clip-path="url(#clip0_266_65351)">
<path d="M0 20V22.3C0 24.8 0.4 27.3 1.2 29.7C1.8 31.6 2.9 33.4 4.2 34.9C5.8 36.6 7.8 37.9 10 38.7C12.3 39.5 14.7 39.9 19.5 40H20.4C25.2 40 27.7 39.5 30 38.7C32.2 37.9 34.2 36.7 35.8 34.9C37.1 33.4 38.1 31.6 38.8 29.7C39.6 27.3 40 24.8 40 22.3V17.7C40 15.2 39.6 12.7 38.8 10.3C38.2 8.4 37.1 6.6 35.8 5.1C34.2 3.4 32.2 2.1 30 1.3C27.7 0.5 25.3 0.1 20.5 0H19.6C14.8 0.1 12.3 0.5 10 1.3C7.8 2.1 5.8 3.3 4.2 5.1C2.9 6.6 1.9 8.4 1.2 10.3C0.5 12.7 0 15.2 0 17.7V20Z" fill="#7E7266"/>
<path d="M0 20V22.3C0 24.8 0.4 27.3 1.2 29.7C1.8 31.6 2.9 33.4 4.2 34.9C5.8 36.6 7.8 37.9 10 38.7C12.3 39.5 14.7 39.9 19.5 40H20.4C25.2 40 27.7 39.5 30 38.7C32.2 37.9 34.2 36.7 35.8 34.9C37.1 33.4 38.1 31.6 38.8 29.7C39.6 27.3 40 24.8 40 22.3V17.7C40 15.2 39.6 12.7 38.8 10.3C38.2 8.4 37.1 6.6 35.8 5.1C34.2 3.4 32.2 2.1 30 1.3C27.7 0.5 25.3 0.1 20.5 0H19.6C14.8 0.1 12.3 0.5 10 1.3C7.8 2.1 5.8 3.3 4.2 5.1C2.9 6.6 1.9 8.4 1.2 10.3C0.5 12.7 0 15.2 0 17.7V20Z" fill="#60584C"/>
<path d="M32.0001 20.2H31.8001C31.0001 19.3 29.8001 18.9 28.7001 19.1C27.7001 19.1 26.8001 19.5 26.0001 20V17.8C26.0001 17.4 26.0001 17.1 25.8001 16.8C25.8001 16.8 25.7001 16.7 25.6001 16.7C25.2001 16.7 24.7001 16.9 24.3001 17.1V17.3C24.3001 17.9 24.1001 18.4 24.0001 19C23.8001 20.6 23.8001 22 24.0001 23.4C24.0001 23.5 24.3001 23.7 24.4001 23.8C24.8001 23.8 25.2001 23.8 25.6001 23.6H25.7001C25.8001 23.6 25.9001 23.5 25.9001 23.4V23C26.2001 21.8 27.2001 20.8 28.5001 20.5C29.1001 20.4 29.8001 20.5 30.2001 21C30.3001 21.6 30.2001 22.2 29.9001 22.7C29.5001 23.4 28.8001 24 28.0001 24.2C27.0001 24.5 26.0001 24.7 25.0001 24.6L23.9001 23.9C22.9001 23.2 21.9001 22.5 20.8001 22C20.5001 21.9 20.3001 21.7 20.1001 21.5H20.0001C19.4001 20.9 18.3001 20.2 17.3001 19.6L16.8001 19.3C16.8001 19.2 17.4001 18.8 17.4001 18.8C17.9001 18.6 18.3001 18.3 18.7001 18H18.8001L20.8001 16.9C22.7001 16 24.5001 14.8 26.1001 13.5V12.4C26.1001 12.4 26.1001 12.3 25.9001 12.2C24.7001 12.2 23.6001 12.8 22.8001 13.6C22.6001 13.8 22.4001 13.9 22.2001 14H22.0001C20.8001 14.7 18.2001 16.4 16.9001 17.2C17.0001 15.4 17.3001 13.7 17.6001 11.9V11.7L17.4001 11.4V11.2H17.3001C17.1001 11.1 16.9001 11.1 16.6001 11.2H16.3001C16.3001 11.3 15.9001 11.4 15.9001 11.4C15.9001 11.4 15.8001 11.4 15.7001 11.5C15.0001 13.5 14.5001 15.6 14.4001 17.7C13.4001 17.1 12.4001 16.5 11.3001 16C11.0001 16 10.8001 15.8 10.6001 15.7L10.1001 15.4L9.30014 14.9H9.10014C8.70014 15 8.30014 15.3 8.00014 15.7V16.2C8.70014 16.8 9.40014 17.3 10.2001 17.7L11.2001 18.3L12.8001 19.2L13.1001 19.4H13.3001V19.5L10.4001 21.4L8.90014 22.4C8.60014 22.6 8.30014 22.7 8.00014 22.8C7.70014 22.8 7.50014 23.1 7.30014 23.4V23.5H7.40014L7.60014 23.7H7.80014C7.80014 23.8 8.00014 23.8 8.00014 23.8C8.50014 23.8 9.00014 23.6 9.40014 23.3C10.1001 23 11.9001 21.9 12.7001 21.4L13.0001 21.2C13.2001 21.2 13.3001 21.2 13.4001 21C13.6001 20.8 13.9001 20.7 14.1001 20.6H14.3001C14.3001 22.5 14.4001 24.3 14.7001 26.1C14.9001 26.5 15.0001 26.9 15.1001 27.4L15.4001 28.4C15.7001 28.6 16.1001 28.7 16.4001 28.7V27.1C16.3001 25.4 16.2001 23 16.2001 21.3C16.5001 21.3 17.7001 22.1 17.7001 22.1C19.8001 23.5 23.1001 25.6 25.0001 26.1H25.3001L25.6001 25.9C25.7001 25.8 25.8001 25.6 25.8001 25.4C27.8001 25.4 29.6001 24.6 31.0001 23.1C31.4001 22.5 31.7001 21.9 31.7001 21.1C31.7001 20.7 31.6001 20.2 31.3001 19.9" fill="white"/>
</g>
<defs>
<clipPath id="clip0_266_65351">
<rect width="40" height="40" fill="white"/>
</clipPath>
</defs>
</svg>
