<svg width="56" height="56" viewBox="0 0 56 56" fill="none" xmlns="http://www.w3.org/2000/svg">
<g clip-path="url(#clip0_266_65758)">
<path d="M0 28C0 29.6486 0 29.8318 0.039289 31.2318C0.14406 34.3327 0.471469 37.8916 1.71562 41.6467C2.59308 44.3028 4.24322 47.1682 5.89335 48.9739C7.9888 51.2765 10.883 53.1605 14.0131 54.2335C17.2086 55.3325 20.666 55.869 27.3845 56H28.6287C35.3601 55.856 38.8045 55.3325 42 54.2335C45.1301 53.1605 48.0112 51.2765 50.1065 48.9739C51.757 47.1552 53.407 44.3028 54.2845 41.6467C55.5285 37.8916 55.869 34.3196 55.9605 31.2318C56 29.8449 56 29.6486 56 28C56 26.3514 56 26.1682 55.9605 24.7682C55.856 21.6673 55.5285 18.1084 54.2845 14.3532C53.407 11.6972 51.757 8.83175 50.1065 7.02615C48.0112 4.72337 45.117 2.83925 42 1.76636C38.8045 0.66729 35.347 0.130841 28.6287 0H27.3845C20.653 0.143925 17.2086 0.66729 14.0131 1.76636C10.883 2.83925 8.00185 4.72337 5.89335 7.02615C4.24322 8.84485 2.59308 11.6972 1.71562 14.3532C0.484565 18.1084 0.14406 21.6673 0.039289 24.7682C0 26.1551 0 26.3514 0 28Z" fill="#E82118"/>
<mask id="mask0_266_65758" style="mask-type:luminance" maskUnits="userSpaceOnUse" x="6" y="21" width="44" height="13">
<path d="M49.5 21H6.5V33.4222H49.5V21Z" fill="white"/>
</mask>
<g mask="url(#mask0_266_65758)">
<path d="M15.7345 25.0456C15.2619 25.0143 14.7895 25.1082 14.3649 25.3178C13.9402 25.5275 13.5784 25.8455 13.316 26.2398C13.0838 25.8438 12.7444 25.5215 12.3369 25.3102C11.9294 25.0989 11.4704 25.0072 11.0129 25.0456C10.5785 25.0381 10.1486 25.1342 9.75875 25.3261C9.3689 25.518 9.0305 25.8 8.7715 26.1489V25.2768H6.5V32.8879H8.88265V28.5153C8.87365 28.3514 8.8972 28.1873 8.95185 28.0326C9.00655 27.8778 9.0913 27.7353 9.2012 27.6134C9.31115 27.4915 9.44405 27.3925 9.59235 27.3222C9.7407 27.2519 9.9015 27.2115 10.0654 27.2035C10.0995 27.2018 10.1336 27.2018 10.1677 27.2035C10.4778 27.1811 10.7841 27.2823 11.0199 27.4848C11.2558 27.6874 11.402 27.975 11.4267 28.2849C11.4304 28.3534 11.4286 28.422 11.4211 28.4902V32.9009H13.7736V28.5064C13.7667 28.3426 13.7923 28.1791 13.8488 28.0252C13.9051 27.8713 13.9913 27.73 14.1024 27.6094C14.2134 27.4889 14.3472 27.3914 14.496 27.3226C14.6448 27.2538 14.8055 27.215 14.9693 27.2084C15.0042 27.2084 15.04 27.2084 15.0757 27.2084C15.2458 27.1955 15.4167 27.2203 15.5762 27.2811C15.7356 27.3418 15.8796 27.4371 15.9979 27.56C16.1163 27.683 16.206 27.8305 16.2608 27.9922C16.3155 28.1538 16.3338 28.3255 16.3144 28.495V32.9058H18.6175V27.975C18.65 27.6233 18.6125 27.2685 18.5072 26.9314C18.4019 26.5942 18.2308 26.2812 18.004 26.0104C17.7772 25.7396 17.4989 25.5163 17.1854 25.3535C16.8719 25.1907 16.5293 25.0916 16.1773 25.0618C16.0303 25.0447 15.8823 25.0393 15.7345 25.0456Z" fill="white"/>
<path d="M30.3969 26.3015V25.2696H28.0906V32.8807H30.4732V29.5546C30.4732 28.0392 31.3363 27.4884 32.2919 27.4884C32.542 27.4865 32.7914 27.512 33.0359 27.5646V25.2656C32.831 25.2129 32.6203 25.1873 32.4088 25.1893C32.0038 25.1728 31.6019 25.2678 31.2472 25.4639C30.8924 25.66 30.5984 25.9498 30.3969 26.3015Z" fill="white"/>
<path d="M36.2411 25.2754H33.8601V32.8865H36.2411V25.2754Z" fill="white"/>
<path d="M40.552 23.0498H38.4201V24.029C38.4354 24.1765 38.4213 24.3256 38.3787 24.4677C38.3361 24.6097 38.2659 24.742 38.172 24.8568C38.0782 24.9716 37.9625 25.0668 37.8318 25.1367C37.701 25.2067 37.5577 25.2501 37.4101 25.2645C37.3445 25.27 37.2786 25.27 37.213 25.2645H36.8228V27.3016H38.2019V30.5636C38.1844 30.8697 38.2276 31.1762 38.329 31.4656C38.4304 31.755 38.588 32.0215 38.7927 32.2498C38.9973 32.4781 39.245 32.6638 39.5216 32.7961C39.7982 32.9284 40.0982 33.0048 40.4044 33.0208C40.5395 33.0305 40.6753 33.028 40.81 33.0135C41.2336 33.0339 41.6565 32.9608 42.0487 32.7994V30.8694C41.8429 30.9165 41.6328 30.9421 41.4217 30.9457C40.9049 30.9457 40.5585 30.7769 40.5585 30.1498V27.3024H42.0796V25.2727H40.552V23.0498Z" fill="white"/>
<path d="M35.0355 21C34.6275 21.0022 34.2369 21.1662 33.9496 21.4559C33.6622 21.7457 33.5015 22.1376 33.5027 22.5456C33.5038 22.9537 33.6667 23.3446 33.9556 23.6327C34.2446 23.9209 34.636 24.0827 35.0441 24.0827C35.4521 24.0827 35.8434 23.9209 36.1324 23.6327C36.4213 23.3446 36.5842 22.9537 36.5853 22.5456C36.5865 22.1376 36.4258 21.7457 36.1384 21.4559C35.8511 21.1662 35.4606 21.0022 35.0526 21H35.0355Z" fill="white"/>
<path d="M23.3251 24.9969C22.2514 25.0325 21.2351 25.49 20.4964 26.2701C19.7578 27.0502 19.3564 28.09 19.3794 29.164C19.4023 30.2381 19.8477 31.2598 20.619 32.0076C21.3903 32.7554 22.4253 33.1691 23.4995 33.1588C24.2154 33.2063 24.9292 33.0386 25.5489 32.6772C26.1687 32.3157 26.6661 31.7771 26.9773 31.1307L25.0076 30.4006C24.8605 30.6556 24.6435 30.8632 24.3822 30.9988C24.1208 31.1344 23.8261 31.1922 23.5328 31.1656C23.1007 31.194 22.6741 31.0557 22.3409 30.779C22.0077 30.5024 21.7932 30.1086 21.7416 29.6786H27.2248C27.2598 29.4368 27.2761 29.1927 27.2735 28.9485C27.3183 28.4731 27.2686 27.9936 27.1273 27.5375C26.9861 27.0815 26.756 26.6578 26.4503 26.291C26.1446 25.9243 25.7694 25.6216 25.3463 25.4005C24.9231 25.1793 24.4603 25.0441 23.9847 25.0026C23.7654 24.9817 23.5447 24.9798 23.3251 24.9969ZM21.7838 28.1559C21.8319 27.7807 22.0208 27.4378 22.3123 27.1968C22.6038 26.9558 22.976 26.8346 23.3536 26.8579C23.7213 26.8096 24.0932 26.9086 24.3883 27.1333C24.6834 27.3581 24.8778 27.6903 24.929 28.0577C24.929 28.0901 24.9363 28.125 24.9379 28.1591L21.7838 28.1559Z" fill="white"/>
<path d="M45.8793 30.8491L49.4374 27.1888V25.2734H43.0595V27.3104H46.3539L42.9653 30.8329V32.8845H49.4999V30.8475L45.8793 30.8491Z" fill="white"/>
</g>
</g>
<defs>
<clipPath id="clip0_266_65758">
<rect width="56" height="56" fill="white"/>
</clipPath>
</defs>
</svg>
