<svg width="40" height="40" viewBox="0 0 40 40" fill="none" xmlns="http://www.w3.org/2000/svg">
<g clip-path="url(#clip0_266_65365)">
<path d="M0 20C0 21.1776 0 21.3084 0.0374093 22.3084C0.102876 24.5234 0.346037 27.0654 1.23451 29.7476C1.86112 31.6449 3.03951 33.6916 4.21789 34.9813C5.71429 36.6261 7.78114 37.9718 10.007 38.7382C12.289 39.5232 14.758 39.9064 19.5557 40H20.4443C25.2514 39.8971 27.711 39.5232 29.993 38.7382C32.2282 37.9718 34.2857 36.6261 35.7914 34.9813C36.97 33.6823 38.1482 31.6449 38.775 29.7476C39.6632 27.0654 39.9064 24.514 39.9718 22.3084C40 21.3178 40 21.1776 40 20C40 18.8224 40 18.6916 39.9718 17.6916C39.8971 15.4766 39.6632 12.9346 38.775 10.2523C38.1482 8.35514 36.97 6.30839 35.7914 5.01868C34.2951 3.37383 32.2282 2.02804 29.993 1.26168C27.711 0.476636 25.242 0.102804 20.4443 0H19.5557C14.7486 0.102804 12.289 0.476636 10.007 1.26168C7.77179 2.02804 5.71429 3.37383 4.21789 5.01868C3.03951 6.31775 1.86112 8.35514 1.23451 10.2523C0.346037 12.9346 0.102876 15.4766 0.0374093 17.6916C0 18.6823 0 18.8224 0 20Z" fill="#345D98"/>
<path d="M18.1176 27.1449L12.7076 18.708C12.1946 17.92 11.7882 16.2673 12.1946 15.4697L8.83637 20.7067C8.48795 21.2449 8.47827 22.1289 8.83637 22.6862L12.6592 28.6536C13.0076 29.1821 13.8012 29.6433 14.6044 29.6433H19.7338L18.1272 27.1449H18.1176Z" fill="white"/>
<path d="M13.3271 18.3229L15.6982 22.0128C15.4175 21.4555 15.5821 20.7637 15.766 20.4754L20.2469 13.4414H15.2047C14.3143 13.4414 13.6078 13.8354 13.2207 14.4312L12.7948 15.0846C12.3883 15.8822 12.7948 17.5253 13.3078 18.3133" fill="white"/>
<path d="M31.1541 17.3145L27.3313 11.3472C26.9829 10.8187 26.1893 10.3574 25.386 10.3574H20.2567L27.2732 21.2927C27.7862 22.0807 28.1927 23.7238 27.7959 24.531L31.1638 19.294C31.5025 18.7559 31.5316 17.8719 31.1638 17.3145" fill="white"/>
<path d="M26.6435 21.648L24.2724 17.958C24.5531 18.5154 24.3886 19.2072 24.2047 19.4955L19.7238 26.5294H24.766C25.6564 26.5294 26.3629 26.1355 26.75 25.5397L27.1758 24.8863C27.5823 24.0887 27.1758 22.4455 26.6532 21.648" fill="white"/>
</g>
<defs>
<clipPath id="clip0_266_65365">
<rect width="40" height="40" fill="white"/>
</clipPath>
</defs>
</svg>
