<svg width="32" height="32" viewBox="0 0 32 32" fill="none" xmlns="http://www.w3.org/2000/svg">
<path d="M10.5943 29C22.1054 29 28.4001 19.3846 28.4001 11.0429C28.4001 10.771 28.3951 10.4992 28.3801 10.2273C29.6031 9.33629 30.6664 8.22372 31.5 6.96013C30.3768 7.46355 29.1738 7.80085 27.9059 7.95187C29.1988 7.17157 30.1921 5.93315 30.6564 4.46315C29.4484 5.18808 28.1105 5.71164 26.6829 5.99356C25.5398 4.7652 23.9124 4 22.1154 4C18.661 4 15.8557 6.8242 15.8557 10.3079C15.8557 10.8012 15.9105 11.2845 16.0204 11.7477C10.8189 11.4859 6.20647 8.97382 3.12152 5.15284C2.58241 6.08417 2.27291 7.16653 2.27291 8.3244C2.27291 10.5143 3.37611 12.4474 5.05835 13.5751C4.03004 13.5449 3.06659 13.258 2.22297 12.7847C2.22297 12.8099 2.22297 12.8401 2.22297 12.8653C2.22297 15.9211 4.37947 18.4734 7.24477 19.0524C6.72063 19.1983 6.16651 19.2739 5.59745 19.2739C5.19311 19.2739 4.80375 19.2336 4.41938 19.1581C5.21807 21.6651 7.52431 23.4875 10.2648 23.5429C8.12332 25.2344 5.42275 26.2463 2.49255 26.2463C1.98838 26.2463 1.4892 26.2161 1 26.1607C3.77046 27.9529 7.05506 28.995 10.5943 28.995" fill="#212121"/>
</svg>
