<svg width="32" height="32" viewBox="0 0 32 32" fill="none" xmlns="http://www.w3.org/2000/svg">
<path d="M15.1056 19.7893C15.1887 19.6231 15.3163 19.4834 15.4743 19.3857C15.6323 19.2881 15.8144 19.2363 16.0001 19.2363C16.1859 19.2363 16.3679 19.2881 16.5259 19.3857C16.6839 19.4834 16.8116 19.6231 16.8946 19.7893L20.2756 26.5533C20.3518 26.7057 20.3877 26.875 20.3801 27.0453C20.3724 27.2155 20.3214 27.3809 20.2318 27.5259C20.1423 27.6708 20.0172 27.7905 19.8684 27.8735C19.7196 27.9565 19.552 28.0002 19.3816 28.0003H12.6176C12.4472 28.0002 12.2797 27.9565 12.1309 27.8735C11.9821 27.7905 11.857 27.6708 11.7674 27.5259C11.6779 27.3809 11.6268 27.2155 11.6192 27.0453C11.6115 26.875 11.6475 26.7057 11.7236 26.5533L15.1056 19.7893Z" fill="#6D6DE2"/>
<path d="M26 4H6C4.34315 4 3 5.34315 3 7V21C3 22.6569 4.34315 24 6 24H26C27.6569 24 29 22.6569 29 21V7C29 5.34315 27.6569 4 26 4Z" fill="#8295F1"/>
<path d="M9 14C9 13.4477 8.55228 13 8 13C7.44772 13 7 13.4477 7 14V19C7 19.5523 7.44772 20 8 20C8.55228 20 9 19.5523 9 19V14Z" fill="white"/>
<path d="M17 13C17 12.4477 16.5523 12 16 12C15.4477 12 15 12.4477 15 13V19C15 19.5523 15.4477 20 16 20C16.5523 20 17 19.5523 17 19V13Z" fill="white"/>
<path d="M25 13C25 12.4477 24.5523 12 24 12C23.4477 12 23 12.4477 23 13V19C23 19.5523 23.4477 20 24 20C24.5523 20 25 19.5523 25 19V13Z" fill="white"/>
<path d="M13 10C13 9.44772 12.5523 9 12 9C11.4477 9 11 9.44772 11 10V19C11 19.5523 11.4477 20 12 20C12.5523 20 13 19.5523 13 19V10Z" fill="white"/>
<path d="M21 16C21 15.4477 20.5523 15 20 15C19.4477 15 19 15.4477 19 16V19C19 19.5523 19.4477 20 20 20C20.5523 20 21 19.5523 21 19V16Z" fill="white"/>
</svg>
