<svg width="32" height="32" viewBox="0 0 32 32" fill="none" xmlns="http://www.w3.org/2000/svg">
<path d="M21 5H11C7.68629 5 5 7.68629 5 11V21C5 24.3137 7.68629 27 11 27H21C24.3137 27 27 24.3137 27 21V11C27 7.68629 24.3137 5 21 5Z" fill="url(#paint0_linear_262_7403)"/>
<path d="M18.9809 15.1322C19.1339 15.2197 19.261 15.346 19.3494 15.4985C19.4378 15.6509 19.4844 15.824 19.4844 16.0002C19.4844 16.1764 19.4378 16.3495 19.3494 16.5019C19.261 16.6543 19.1339 16.7807 18.9809 16.8682L14.9999 19.1452C14.8478 19.233 14.6751 19.2792 14.4994 19.2791C14.3237 19.2791 14.1512 19.2327 13.9991 19.1447C13.847 19.0567 13.7208 18.9302 13.6332 18.7779C13.5455 18.6256 13.4996 18.4529 13.4999 18.2772V13.7232C13.4996 13.5475 13.5455 13.3748 13.6332 13.2225C13.7208 13.0702 13.847 12.9437 13.9991 12.8557C14.1512 12.7677 14.3237 12.7213 14.4994 12.7212C14.6751 12.7211 14.8478 12.7673 14.9999 12.8552L18.9809 15.1322Z" fill="white"/>
<defs>
<linearGradient id="paint0_linear_262_7403" x1="16" y1="5" x2="16" y2="27" gradientUnits="userSpaceOnUse">
<stop stop-color="#A283F8"/>
<stop offset="1" stop-color="#4949E6"/>
</linearGradient>
</defs>
</svg>
