<svg width="32" height="32" viewBox="0 0 32 32" fill="none" xmlns="http://www.w3.org/2000/svg">
<path d="M10 26.0015C9.20435 26.0015 8.44129 25.6854 7.87868 25.1228C7.31607 24.5602 7 23.7972 7 23.0015V17.7615C6.9987 16.1972 7.52145 14.6774 8.48481 13.4449C9.44818 12.2124 10.7966 11.3381 12.315 10.9615L10.822 7.0365C10.7502 6.92838 10.7112 6.80173 10.7099 6.67192C10.7086 6.54211 10.745 6.4147 10.8146 6.30515C10.8843 6.19559 10.9842 6.10859 11.1023 6.0547C11.2204 6.0008 11.3516 5.98232 11.48 6.0015H20.01C20.1382 5.98242 20.2692 6.00083 20.3872 6.05449C20.5052 6.10816 20.6051 6.19481 20.675 6.30399C20.7448 6.41316 20.7816 6.54022 20.7809 6.66983C20.7802 6.79945 20.742 6.92609 20.671 7.0345L19.211 10.8635C20.8331 11.1484 22.3028 11.9962 23.3617 13.2577C24.4205 14.5191 25.0006 16.1136 25 17.7605V23.0015C25 23.7972 24.6839 24.5602 24.1213 25.1228C23.5587 25.6854 22.7957 26.0015 22 26.0015H10Z" fill="url(#paint0_linear_262_7341)"/>
<path d="M19.525 9.14453H11.957C11.4047 9.14453 10.957 9.59225 10.957 10.1445V10.3525C10.957 10.9048 11.4047 11.3525 11.957 11.3525H19.525C20.0773 11.3525 20.525 10.9048 20.525 10.3525V10.1445C20.525 9.59225 20.0773 9.14453 19.525 9.14453Z" fill="#9F5700"/>
<path d="M13 16.5L14.394 21.5L15.936 16.5L17.605 21.5L18.999 16.5" stroke="white" stroke-width="1.5" stroke-linecap="round" stroke-linejoin="round"/>
<path d="M14 19H12" stroke="white" stroke-width="1.5" stroke-linecap="round"/>
<path d="M20 19H18" stroke="white" stroke-width="1.5" stroke-linecap="round"/>
<defs>
<linearGradient id="paint0_linear_262_7341" x1="16" y1="5.99414" x2="16" y2="26.0015" gradientUnits="userSpaceOnUse">
<stop stop-color="#FFCA00"/>
<stop offset="1" stop-color="#FEA001"/>
</linearGradient>
</defs>
</svg>
