<svg width="32" height="32" viewBox="0 0 32 32" fill="none" xmlns="http://www.w3.org/2000/svg">
<path d="M26 16C26 10.4772 21.5228 6 16 6C10.4772 6 6 10.4772 6 16C6 21.5228 10.4772 26 16 26C21.5228 26 26 21.5228 26 16Z" fill="url(#paint0_linear_262_7397)"/>
<path opacity="0.58" d="M26 16C26 10.4772 21.5228 6 16 6C10.4772 6 6 10.4772 6 16C6 21.5228 10.4772 26 16 26C21.5228 26 26 21.5228 26 16Z" fill="url(#paint1_linear_262_7397)" style="mix-blend-mode:multiply"/>
<path d="M15.813 12.1001V16.0441L19.513 18.0131" stroke="white" stroke-width="2.5" stroke-linecap="round" stroke-linejoin="round"/>
<defs>
<linearGradient id="paint0_linear_262_7397" x1="16" y1="6" x2="16" y2="26" gradientUnits="userSpaceOnUse">
<stop stop-color="#FFCA00"/>
<stop offset="1" stop-color="#FEA001"/>
</linearGradient>
<linearGradient id="paint1_linear_262_7397" x1="16" y1="6" x2="16" y2="26" gradientUnits="userSpaceOnUse">
<stop stop-color="#FFCA00"/>
<stop offset="1" stop-color="#FEA001"/>
</linearGradient>
</defs>
</svg>
