<svg width="32" height="32" viewBox="0 0 32 32" fill="none" xmlns="http://www.w3.org/2000/svg">
<path d="M5 5C5 3.89543 5.89543 3 7 3H24C25.1046 3 26 3.89543 26 5V16H5V5Z" fill="#D7E0EF"/>
<path d="M4.22536 23.7965C4.10479 24.9754 5.02994 26 6.21498 26H24.785C25.9701 26 26.8952 24.9754 26.7746 23.7965L26.1818 18L26 16H5L4.81818 18L4.22536 23.7965Z" fill="#BAC8DB"/>
<path d="M4.81836 18H26.182L26.0002 16H5.00018L4.81836 18Z" fill="#AEBED3"/>
<path d="M8 7.75C8 7.33579 8.33579 7 8.75 7H21.25C21.6642 7 22 7.33579 22 7.75C22 8.16421 21.6642 8.5 21.25 8.5H8.75C8.33579 8.5 8 8.16421 8 7.75Z" fill="#B3C1DA" fill-opacity="0.921569"/>
<rect x="8" y="10.5" width="6" height="1.5" rx="0.75" fill="#B3C1DA" fill-opacity="0.921569"/>
<path d="M17 17.7386C17 17.2996 17.2863 16.9119 17.7059 16.7828L23.2059 15.0905C23.3975 15.0315 23.6025 15.0315 23.7941 15.0905L29.2941 16.7828C29.7137 16.9119 30 17.2996 30 17.7386V21.5496C30 24.3048 28.3838 26.8037 25.871 27.9338L23.9101 28.8156C23.6493 28.9329 23.3507 28.9329 23.0899 28.8156L21.129 27.9338C18.6162 26.8037 17 24.3048 17 21.5496V17.7386Z" fill="#19973C"/>
<path d="M26 20L22.559 23.5L21 21.9142" stroke="white" stroke-linecap="round" stroke-linejoin="round"/>
</svg>
