<svg width="32" height="32" viewBox="0 0 32 32" fill="none" xmlns="http://www.w3.org/2000/svg">
<path d="M3 5C3 3.89543 3.89543 3 5 3H21C22.1046 3 23 3.89543 23 5V23C23 24.1046 22.1046 25 21 25H5C3.89543 25 3 24.1046 3 23V5Z" fill="#D7E0EF"/>
<rect x="7" y="8" width="12" height="1.5" rx="0.75" fill="#AEBED3"/>
<rect x="7" y="11.5" width="6" height="1.5" rx="0.75" fill="#AEBED3"/>
<path d="M17.8922 14.7353C17.7145 14.4022 17.9559 14 18.3333 14H24.6667C25.0441 14 25.2855 14.4022 25.1078 14.7353L22.8333 19H20.1667L17.8922 14.7353Z" fill="#19973C"/>
<path d="M15 22.5C15 18.9101 17.9101 16 21.5 16C25.0899 16 28 18.9101 28 22.5V26.525C28 27.3396 27.3396 28 26.525 28H16.475C15.6604 28 15 27.3396 15 26.525V22.5Z" fill="#19973C"/>
<path d="M24 20.5L20.559 24L19 22.4142" stroke="white" stroke-linecap="round" stroke-linejoin="round"/>
</svg>
