<svg width="32" height="32" viewBox="0 0 32 32" fill="none" xmlns="http://www.w3.org/2000/svg">
<path d="M21 6H11C9.34315 6 8 7.34315 8 9V23C8 24.6569 9.34315 26 11 26H21C22.6569 26 24 24.6569 24 23V9C24 7.34315 22.6569 6 21 6Z" fill="url(#paint0_linear_262_7367)"/>
<path d="M20 8.5H12C11.1716 8.5 10.5 9.17157 10.5 10V12C10.5 12.8284 11.1716 13.5 12 13.5H20C20.8284 13.5 21.5 12.8284 21.5 12V10C21.5 9.17157 20.8284 8.5 20 8.5Z" fill="white"/>
<path d="M12 19C12.8284 19 13.5 18.3284 13.5 17.5C13.5 16.6716 12.8284 16 12 16C11.1716 16 10.5 16.6716 10.5 17.5C10.5 18.3284 11.1716 19 12 19Z" fill="white"/>
<path d="M16 19C16.8284 19 17.5 18.3284 17.5 17.5C17.5 16.6716 16.8284 16 16 16C15.1716 16 14.5 16.6716 14.5 17.5C14.5 18.3284 15.1716 19 16 19Z" fill="white"/>
<path d="M20 19C20.8284 19 21.5 18.3284 21.5 17.5C21.5 16.6716 20.8284 16 20 16C19.1716 16 18.5 16.6716 18.5 17.5C18.5 18.3284 19.1716 19 20 19Z" fill="white"/>
<path d="M12 23.5C12.8284 23.5 13.5 22.8284 13.5 22C13.5 21.1716 12.8284 20.5 12 20.5C11.1716 20.5 10.5 21.1716 10.5 22C10.5 22.8284 11.1716 23.5 12 23.5Z" fill="white"/>
<path d="M16 23.5C16.8284 23.5 17.5 22.8284 17.5 22C17.5 21.1716 16.8284 20.5 16 20.5C15.1716 20.5 14.5 21.1716 14.5 22C14.5 22.8284 15.1716 23.5 16 23.5Z" fill="white"/>
<path d="M20 23.5C20.8284 23.5 21.5 22.8284 21.5 22C21.5 21.1716 20.8284 20.5 20 20.5C19.1716 20.5 18.5 21.1716 18.5 22C18.5 22.8284 19.1716 23.5 20 23.5Z" fill="white"/>
<defs>
<linearGradient id="paint0_linear_262_7367" x1="16" y1="6" x2="16" y2="26" gradientUnits="userSpaceOnUse">
<stop stop-color="#A283F8"/>
<stop offset="1" stop-color="#4949E6"/>
</linearGradient>
</defs>
</svg>
