<svg width="32" height="32" viewBox="0 0 32 32" fill="none" xmlns="http://www.w3.org/2000/svg">
<path d="M28.0043 7.32139C25.0043 4.07639 19.7872 4.37439 16.4812 7.32139H15.5212C12.2212 4.37439 7.00017 4.07639 3.99817 7.32139C2.71335 8.74211 2.00195 10.5894 2.00195 12.5049C2.00195 14.4204 2.71335 16.2677 3.99817 17.6884C4.30093 18.0195 4.62148 18.334 4.95825 18.6304L15.5212 28.9974L27.0442 18.6304C27.3799 18.3328 27.7004 18.0184 28.0043 17.6884C29.2891 16.2677 30.0005 14.4204 30.0005 12.5049C30.0005 10.5894 29.2891 8.74211 28.0043 7.32139Z" fill="#EC6A6A"/>
<path d="M15.0811 20.4604V17.4604H12.0811C11.8158 17.4604 11.5616 17.355 11.374 17.1675C11.1865 16.9799 11.0811 16.7257 11.0811 16.4604C11.0811 16.1952 11.1865 15.941 11.374 15.7534C11.5616 15.5659 11.8158 15.4604 12.0811 15.4604H15.0811V12.4604C15.0811 12.1952 15.1865 11.941 15.374 11.7534C15.5616 11.5659 15.8158 11.4604 16.0811 11.4604C16.3463 11.4604 16.6005 11.5659 16.7881 11.7534C16.9756 11.941 17.0811 12.1952 17.0811 12.4604V15.4604H20.0811C20.3463 15.4604 20.6005 15.5659 20.7881 15.7534C20.9756 15.941 21.0811 16.1952 21.0811 16.4604C21.0811 16.7257 20.9756 16.9799 20.7881 17.1675C20.6005 17.355 20.3463 17.4604 20.0811 17.4604H17.0811V20.4604C17.0811 20.7257 16.9756 20.9799 16.7881 21.1675C16.6005 21.355 16.3463 21.4604 16.0811 21.4604C15.8158 21.4604 15.5616 21.355 15.374 21.1675C15.1865 20.9799 15.0811 20.7257 15.0811 20.4604Z" fill="white"/>
</svg>
