<svg width="32" height="32" viewBox="0 0 32 32" fill="none" xmlns="http://www.w3.org/2000/svg">
<path d="M11.7083 19L18 22.4929L12.2917 32L10.1837 28.525L6 28.5071L11.7083 19Z" fill="#F49B02"/>
<path d="M22.2917 19L16 22.4929L21.7083 32L23.8163 28.525L28 28.5071L22.2917 19Z" fill="#F49B02"/>
<path d="M14.3992 0.692933C15.2578 -0.230978 16.7422 -0.230978 17.6008 0.692934C18.2102 1.34873 19.1722 1.5637 20.0119 1.23172C21.1949 0.764016 22.5323 1.39459 22.8964 2.59171C23.1548 3.44143 23.9263 4.04378 24.83 4.10136C26.1031 4.1825 27.0286 5.31874 26.8261 6.55197C26.6824 7.42733 27.1105 8.29774 27.8991 8.73349C29.0102 9.34739 29.3405 10.7643 28.6116 11.7894C28.0941 12.517 28.0941 13.483 28.6116 14.2107C29.3405 15.2357 29.0102 16.6526 27.8991 17.2665C27.1105 17.7023 26.6824 18.5727 26.8261 19.448C27.0286 20.6813 26.1031 21.8175 24.83 21.8986C23.9263 21.9562 23.1548 22.5586 22.8964 23.4083C22.5323 24.6054 21.1949 25.236 20.0119 24.7683C19.1722 24.4363 18.2102 24.6513 17.6008 25.3071C16.7422 26.231 15.2578 26.231 14.3992 25.3071C13.7898 24.6513 12.8278 24.4363 11.9881 24.7683C10.8051 25.236 9.46769 24.6054 9.10361 23.4083C8.84518 22.5586 8.0737 21.9562 7.17004 21.8986C5.89693 21.8175 4.97141 20.6813 5.17391 19.448C5.31764 18.5727 4.8895 17.7023 4.10086 17.2665C2.98978 16.6526 2.65946 15.2357 3.38844 14.2107C3.90588 13.483 3.90588 12.517 3.38844 11.7894C2.65946 10.7643 2.98978 9.34739 4.10086 8.73349C4.8895 8.29774 5.31764 7.42733 5.17391 6.55197C4.9714 5.31874 5.89693 4.1825 7.17004 4.10136C8.0737 4.04378 8.84518 3.44143 9.10361 2.59171C9.46769 1.39459 10.8051 0.764016 11.9881 1.23172C12.8278 1.5637 13.7898 1.34873 14.3992 0.692933Z" fill="#F7C935"/>
<path d="M11.2793 17.7207C10.9069 17.3482 10.9069 16.7444 11.2793 16.3719L19.3719 8.27934C19.7444 7.90689 20.3482 7.90689 20.7207 8.27934C21.0931 8.65179 21.0931 9.25565 20.7207 9.6281L12.6281 17.7207C12.2556 18.0931 11.6518 18.0931 11.2793 17.7207Z" fill="white"/>
<circle cx="12.75" cy="9.75" r="1.75" fill="white"/>
<circle cx="19.25" cy="16.25" r="1.75" fill="white"/>
</svg>
