<svg width="32" height="32" viewBox="0 0 32 32" fill="none" xmlns="http://www.w3.org/2000/svg">
<path d="M16.5 3H15.5C14.3954 3 13.5 3.89543 13.5 5V7C13.5 8.10457 14.3954 9 15.5 9H16.5C17.6046 9 18.5 8.10457 18.5 7V5C18.5 3.89543 17.6046 3 16.5 3Z" fill="#0C629C"/>
<path d="M26 7H6C4.34315 7 3 8.34315 3 10V24C3 25.6569 4.34315 27 6 27H26C27.6569 27 29 25.6569 29 24V10C29 8.34315 27.6569 7 26 7Z" fill="#6EC4F6"/>
<path d="M25 9H7C5.89543 9 5 9.89543 5 11V23C5 24.1046 5.89543 25 7 25H25C26.1046 25 27 24.1046 27 23V11C27 9.89543 26.1046 9 25 9Z" fill="white"/>
<path d="M14 18.999H18C19.0609 18.999 20.0783 19.4205 20.8284 20.1706C21.5786 20.9207 22 21.9382 22 22.999V24.999H10V22.999C10 21.9382 10.4214 20.9207 11.1716 20.1706C11.9217 19.4205 12.9391 18.999 14 18.999Z" fill="#54ADE9"/>
<path d="M16 17.499C17.6569 17.499 19 16.1559 19 14.499C19 12.8422 17.6569 11.499 16 11.499C14.3431 11.499 13 12.8422 13 14.499C13 16.1559 14.3431 17.499 16 17.499Z" fill="#F8C315"/>
</svg>
