<svg width="32" height="32" viewBox="0 0 32 32" fill="none" xmlns="http://www.w3.org/2000/svg">
<path d="M30.8761 5.829C30.4761 5.72 29.1061 5.336 27.2411 4.729C23.3552 3.50568 19.5919 1.92248 16.0001 0C11.2224 2.48123 6.19403 4.44665 1.00009 5.863V15.463C0.992061 17.7012 1.53576 19.9069 2.58309 21.885C3.27023 23.1797 4.13158 24.3742 5.14309 25.435C8.1963 28.4456 11.9157 30.6947 16.0001 32C16.0001 32 31.0001 27.652 31.0001 15.467V5.867L30.8761 5.833" fill="#00AC47"/>
<path d="M18.5 16.5V23.5L16 21.5L13.5 23.5V16.5" fill="white"/>
<path d="M18.5 16.5V23.5L16 21.5L13.5 23.5V16.5" stroke="white" stroke-width="1.5" stroke-linecap="round" stroke-linejoin="round"/>
<path d="M16.0039 7C14.7183 7 13.4616 7.38122 12.3927 8.09545C11.3238 8.80968 10.4907 9.82484 9.99869 11.0126C9.50672 12.2003 9.378 13.5072 9.6288 14.7681C9.87961 16.029 10.4987 17.1872 11.4077 18.0962C12.3168 19.0052 13.4749 19.6243 14.7358 19.8751C15.9967 20.1259 17.3036 19.9972 18.4914 19.5052C19.6791 19.0132 20.6942 18.1801 21.4085 17.1112C22.1227 16.0423 22.5039 14.7856 22.5039 13.5C22.5021 11.7767 21.8166 10.1244 20.5981 8.90585C19.3795 7.68727 17.7272 7.00185 16.0039 7Z" fill="#00AC47"/>
<path d="M16.0039 8C14.9161 8 13.8527 8.32257 12.9483 8.92692C12.0438 9.53126 11.3389 10.3902 10.9226 11.3952C10.5063 12.4002 10.3974 13.5061 10.6096 14.573C10.8218 15.6399 11.3456 16.6199 12.1148 17.3891C12.884 18.1583 13.864 18.6821 14.9309 18.8943C15.9978 19.1065 17.1037 18.9976 18.1087 18.5813C19.1137 18.1651 19.9726 17.4601 20.577 16.5556C21.1813 15.6512 21.5039 14.5878 21.5039 13.5C21.5023 12.0418 20.9223 10.6438 19.8912 9.61267C18.8601 8.58156 17.4621 8.00159 16.0039 8Z" fill="white"/>
</svg>
