<svg width="32" height="32" viewBox="0 0 32 32" fill="none" xmlns="http://www.w3.org/2000/svg">
<path d="M22 1H10C7.79086 1 6 2.79086 6 5V27C6 29.2091 7.79086 31 10 31H22C24.2091 31 26 29.2091 26 27V5C26 2.79086 24.2091 1 22 1Z" fill="#8295F1"/>
<path d="M22 3H10C8.89543 3 8 3.89543 8 5V27C8 28.1046 8.89543 29 10 29H22C23.1046 29 24 28.1046 24 27V5C24 3.89543 23.1046 3 22 3Z" fill="white"/>
<path d="M11.5 2H20.5V3C20.5 3.53043 20.2893 4.03914 19.9142 4.41421C19.5391 4.78929 19.0304 5 18.5 5H13.5C12.9696 5 12.4609 4.78929 12.0858 4.41421C11.7107 4.03914 11.5 3.53043 11.5 3V2Z" fill="#8295F1"/>
<path d="M11.742 13.774L13.132 17.632C13.1381 17.648 13.1488 17.6616 13.1629 17.6713C13.1769 17.681 13.1935 17.6861 13.2105 17.6861C13.2275 17.6861 13.2442 17.681 13.2582 17.6713C13.2722 17.6616 13.283 17.648 13.289 17.632L14.669 13.775C14.6985 13.6944 14.7521 13.6247 14.8227 13.5757C14.8932 13.5266 14.9771 13.5006 15.063 13.501H16.002C16.0564 13.5005 16.1103 13.5107 16.1608 13.531C16.2112 13.5513 16.2571 13.5814 16.2959 13.6195C16.3348 13.6575 16.3657 13.7029 16.387 13.7529C16.4083 13.8029 16.4195 13.8567 16.42 13.911V19.089C16.4195 19.1434 16.4083 19.1971 16.387 19.2472C16.3657 19.2972 16.3348 19.3425 16.2959 19.3806C16.2571 19.4187 16.2112 19.4487 16.1608 19.4691C16.1103 19.4894 16.0564 19.4996 16.002 19.499H15.579C15.5247 19.4996 15.4707 19.4894 15.4203 19.4691C15.3699 19.4487 15.3239 19.4187 15.2851 19.3806C15.2463 19.3425 15.2154 19.2972 15.1941 19.2472C15.1728 19.1971 15.1615 19.1434 15.161 19.089V17.859L15.261 15.559C15.261 15.5395 15.2542 15.5206 15.2417 15.5056C15.2293 15.4906 15.212 15.4804 15.1928 15.4767C15.1737 15.473 15.1538 15.4762 15.1367 15.4855C15.1196 15.4949 15.1063 15.5099 15.099 15.528L13.74 19.228C13.7102 19.3079 13.6566 19.3766 13.5865 19.4251C13.5165 19.4735 13.4332 19.4993 13.348 19.499H13.069C12.9838 19.4993 12.9006 19.4735 12.8305 19.4251C12.7604 19.3766 12.7069 19.3079 12.677 19.228L11.319 15.538C11.3118 15.5198 11.2983 15.5048 11.2811 15.4954C11.2639 15.486 11.244 15.483 11.2247 15.4868C11.2055 15.4906 11.1882 15.501 11.1759 15.5162C11.1635 15.5314 11.1568 15.5504 11.157 15.57L11.257 17.86V19.09C11.2565 19.1444 11.2453 19.1981 11.224 19.2482C11.2027 19.2982 11.1718 19.3435 11.1329 19.3816C11.0941 19.4197 11.0482 19.4497 10.9978 19.4701C10.9473 19.4904 10.8934 19.5006 10.839 19.5H10.417C10.3627 19.5006 10.3087 19.4904 10.2583 19.4701C10.2079 19.4497 10.1619 19.4197 10.1231 19.3816C10.0843 19.3435 10.0534 19.2982 10.0321 19.2482C10.0108 19.1981 9.99955 19.1444 9.99902 19.09V13.909C9.99955 13.8547 10.0108 13.8009 10.0321 13.7509C10.0534 13.7009 10.0843 13.6555 10.1231 13.6175C10.1619 13.5794 10.2079 13.5493 10.2583 13.529C10.3087 13.5087 10.3627 13.4985 10.417 13.499H11.347C11.4328 13.4985 11.5167 13.5244 11.5872 13.5733C11.6577 13.6221 11.7114 13.6915 11.741 13.772" fill="#36409A"/>
<path d="M19.7001 16.0411L20.7781 13.7411C20.8122 13.6693 20.8661 13.6087 20.9333 13.5664C21.0006 13.5241 21.0786 13.5018 21.1581 13.5021H21.5821C21.6532 13.5009 21.7234 13.5181 21.7859 13.5522C21.8484 13.5863 21.9009 13.636 21.9384 13.6965C21.9759 13.7569 21.9971 13.8261 21.9998 13.8972C22.0026 13.9683 21.9868 14.0389 21.9541 14.1021L20.2791 17.3091C20.2731 17.3209 20.27 17.3339 20.2701 17.3471V19.0891C20.2695 19.1435 20.2583 19.1972 20.237 19.2472C20.2157 19.2973 20.1848 19.3426 20.146 19.3807C20.1072 19.4187 20.0612 19.4488 20.0108 19.4691C19.9604 19.4894 19.9064 19.4996 19.8521 19.4991H19.4041C19.3497 19.4996 19.2958 19.4894 19.2453 19.4691C19.1949 19.4488 19.149 19.4187 19.1101 19.3807C19.0713 19.3426 19.0404 19.2973 19.0191 19.2472C18.9978 19.1972 18.9866 19.1435 18.9861 19.0891V17.3441C18.9863 17.3309 18.9832 17.3178 18.9771 17.3061L17.2961 14.0981C17.2634 14.035 17.2476 13.9645 17.2503 13.8935C17.253 13.8224 17.2741 13.7533 17.3114 13.6929C17.3488 13.6324 17.4012 13.5827 17.4635 13.5486C17.5259 13.5144 17.596 13.497 17.6671 13.4981H18.0901C18.1694 13.4979 18.2472 13.5202 18.3143 13.5625C18.3814 13.6048 18.4351 13.6654 18.4691 13.7371L19.5471 16.0371C19.5538 16.0515 19.5646 16.0637 19.5781 16.0722C19.5915 16.0808 19.6071 16.0853 19.6231 16.0853C19.639 16.0853 19.6546 16.0808 19.6681 16.0722C19.6815 16.0637 19.6923 16.0515 19.6991 16.0371" fill="#36409A"/>
</svg>
