<svg width="32" height="32" viewBox="0 0 32 32" fill="none" xmlns="http://www.w3.org/2000/svg">
<path d="M28.0001 16.796C28.0001 22.57 21.0331 26.858 17.7101 28.58C17.1828 28.8542 16.5973 28.9973 16.0031 28.9973C15.4088 28.9973 14.8233 28.8542 14.2961 28.58C10.9751 26.859 3.99609 22.56 3.99609 16.793V8.45602C3.99912 8.0817 4.13864 7.72135 4.38849 7.4426C4.63834 7.16384 4.98133 6.98584 5.35309 6.94202C8.54481 6.69143 11.5997 5.5394 14.1621 3.62003C14.6901 3.21753 15.3357 2.99951 15.9996 2.99951C16.6635 2.99951 17.3091 3.21753 17.8371 3.62003C20.3998 5.53957 23.455 6.69161 26.6471 6.94202C27.0186 6.98681 27.3611 7.16562 27.6102 7.44492C27.8593 7.72421 27.9979 8.08478 28.0001 8.45901V16.796Z" fill="#F4A12B"/>
<path d="M13.1551 18.281L12.0651 16.962L10.9761 18.281C10.9263 18.3431 10.8643 18.3944 10.7938 18.4315C10.7234 18.4687 10.6461 18.491 10.5667 18.4971C10.4873 18.5032 10.4075 18.4929 10.3323 18.467C10.257 18.441 10.1879 18.3998 10.1291 18.346C10.0075 18.2365 9.93254 18.0845 9.9197 17.9213C9.90686 17.7581 9.95713 17.5962 10.0601 17.469L10.7301 16.654H9.60014C9.43385 16.654 9.27437 16.588 9.15679 16.4704C9.0392 16.3528 8.97314 16.1933 8.97314 16.027C8.97314 15.8607 9.0392 15.7013 9.15679 15.5837C9.27437 15.4661 9.43385 15.4 9.60014 15.4H10.7781L10.0601 14.531C9.95737 14.4037 9.90725 14.2419 9.92008 14.0788C9.93291 13.9157 10.0077 13.7637 10.1291 13.654C10.1879 13.5998 10.2572 13.5583 10.3328 13.5323C10.4084 13.5063 10.4886 13.4963 10.5683 13.503C10.648 13.5097 10.7254 13.5329 10.7956 13.5711C10.8658 13.6093 10.9273 13.6617 10.9761 13.725L12.0631 15.04L13.1551 13.716C13.2054 13.6548 13.2676 13.6045 13.338 13.568C13.4083 13.5315 13.4853 13.5098 13.5644 13.504C13.6434 13.4982 13.7227 13.5085 13.7977 13.5343C13.8726 13.5601 13.9415 13.6008 14.0001 13.654C14.1235 13.7625 14.1998 13.9148 14.2127 14.0785C14.2256 14.2423 14.1741 14.4046 14.0691 14.531L13.3491 15.402H14.4001C14.5601 15.4111 14.7104 15.481 14.8204 15.5974C14.9305 15.7138 14.9917 15.8679 14.9917 16.028C14.9917 16.1882 14.9305 16.3423 14.8204 16.4587C14.7104 16.5751 14.5601 16.645 14.4001 16.654H13.4001L14.0751 17.469V17.476C14.1765 17.603 14.2253 17.7641 14.2113 17.926C14.1973 18.0879 14.1218 18.2383 14.0001 18.346C13.8943 18.4435 13.7561 18.4984 13.6121 18.5C13.5245 18.4996 13.4381 18.4797 13.3591 18.4418C13.2801 18.4039 13.2104 18.349 13.1551 18.281Z" fill="white"/>
<path d="M21.157 18.2769L20.07 16.9599L18.981 18.2769C18.9308 18.3393 18.8685 18.3909 18.7978 18.4285C18.7271 18.4661 18.6495 18.489 18.5697 18.4956C18.4899 18.5023 18.4096 18.4926 18.3336 18.4672C18.2577 18.4418 18.1877 18.4012 18.128 18.3479C18.008 18.2373 17.9343 18.0855 17.9215 17.9229C17.9087 17.7603 17.9578 17.5988 18.059 17.4709L18.068 17.4639L18.733 16.6559H17.607C17.4409 16.6559 17.2817 16.5899 17.1643 16.4725C17.0469 16.3551 16.981 16.1959 16.981 16.0299C16.981 15.8638 17.0469 15.7046 17.1643 15.5872C17.2817 15.4698 17.4409 15.4039 17.607 15.4039H18.785L18.068 14.5359C17.9621 14.4088 17.9093 14.2458 17.9204 14.0808C17.9316 13.9158 18.0059 13.7615 18.128 13.6499C18.1883 13.5979 18.2584 13.5584 18.3342 13.5338C18.41 13.5092 18.4899 13.4999 18.5693 13.5065C18.6488 13.5131 18.726 13.5355 18.7967 13.5723C18.8674 13.6091 18.93 13.6596 18.981 13.7209L20.068 15.0399L21.157 13.7209C21.2065 13.6584 21.2684 13.6068 21.3386 13.5692C21.4089 13.5315 21.4862 13.5087 21.5656 13.502C21.6451 13.4954 21.725 13.5051 21.8006 13.5305C21.8761 13.5559 21.9457 13.5965 22.005 13.6499C22.1271 13.7611 22.2021 13.9148 22.2146 14.0796C22.2271 14.2443 22.176 14.4076 22.072 14.5359L21.353 15.3999H22.393C22.559 15.3999 22.7182 15.4658 22.8356 15.5832C22.953 15.7006 23.019 15.8598 23.019 16.0259C23.019 16.1919 22.953 16.3511 22.8356 16.4685C22.7182 16.5859 22.559 16.6519 22.393 16.6519H21.4L22.07 17.4669C22.1739 17.5935 22.225 17.7554 22.2125 17.9188C22.2 18.0822 22.125 18.2345 22.003 18.3439C21.896 18.4425 21.7564 18.4981 21.611 18.4999C21.5233 18.4999 21.4367 18.4798 21.358 18.4412C21.2793 18.4025 21.2105 18.3463 21.157 18.2769Z" fill="white"/>
</svg>
