<svg width="32" height="32" viewBox="0 0 32 32" fill="none" xmlns="http://www.w3.org/2000/svg">
<path d="M16.31 9.38721H15.69C9.227 9.43121 4 15.4042 4 22.7682V24.4902C4 27.2572 5.971 29.5002 8.4 29.5002H23.6C26.032 29.5002 28 27.2572 28 24.4902V22.7682C28 15.4042 22.773 9.43021 16.31 9.38721Z" fill="#EB6195"/>
<path d="M18.9409 6.99102H13.0579L11.5939 3.76702C11.5325 3.62957 11.5065 3.47892 11.5184 3.32886C11.5303 3.1788 11.5797 3.03412 11.662 2.90807C11.7442 2.78201 11.8568 2.67861 11.9894 2.60732C12.122 2.53603 12.2703 2.49914 12.4209 2.50002H19.5809C19.7313 2.49931 19.8795 2.53633 20.012 2.60768C20.1444 2.67904 20.2569 2.78246 20.339 2.90849C20.4212 3.03452 20.4704 3.17913 20.4823 3.32911C20.4941 3.47909 20.4682 3.62965 20.4069 3.76702L18.9409 6.99102Z" fill="#EB6195"/>
<path d="M19.25 6.74023H12.75C12.1977 6.74023 11.75 7.18795 11.75 7.74023V8.94023C11.75 9.49252 12.1977 9.94023 12.75 9.94023H19.25C19.8023 9.94023 20.25 9.49252 20.25 8.94023V7.74023C20.25 7.18795 19.8023 6.74023 19.25 6.74023Z" fill="#A2294A"/>
</svg>
