<svg width="32" height="32" viewBox="0 0 32 32" fill="none" xmlns="http://www.w3.org/2000/svg">
<g clip-path="url(#clip0_262_7419)">
<path d="M16 26C21.5228 26 26 21.5228 26 16C26 10.4772 21.5228 6 16 6C10.4772 6 6 10.4772 6 16C6 21.5228 10.4772 26 16 26Z" fill="url(#paint0_linear_262_7419)"/>
<path d="M16 25C18.2091 25 20 20.9706 20 16C20 11.0294 18.2091 7 16 7C13.7909 7 12 11.0294 12 16C12 20.9706 13.7909 25 16 25Z" stroke="#30B4B4" stroke-width="2" stroke-linecap="round" stroke-linejoin="round"/>
<mask id="mask0_262_7419" style="mask-type:luminance" maskUnits="userSpaceOnUse" x="6" y="6" width="20" height="20">
<path d="M26 16C26 10.4772 21.5228 6 16 6C10.4772 6 6 10.4772 6 16C6 21.5228 10.4772 26 16 26C21.5228 26 26 21.5228 26 16Z" fill="white"/>
</mask>
<g mask="url(#mask0_262_7419)">
<path d="M25.5 13H6.5" stroke="#30B4B4" stroke-width="2" stroke-linecap="round" stroke-linejoin="round"/>
<path d="M25.5 19H6.5" stroke="#30B4B4" stroke-width="2" stroke-linecap="round" stroke-linejoin="round"/>
</g>
</g>
<defs>
<linearGradient id="paint0_linear_262_7419" x1="16" y1="6" x2="16" y2="26" gradientUnits="userSpaceOnUse">
<stop stop-color="#9AEEEE"/>
<stop offset="1" stop-color="#80D8D8"/>
</linearGradient>
<clipPath id="clip0_262_7419">
<rect width="32" height="32" fill="white"/>
</clipPath>
</defs>
</svg>
