<svg width="32" height="32" viewBox="0 0 32 32" fill="none" xmlns="http://www.w3.org/2000/svg">
<path d="M3 5C3 3.89543 3.89543 3 5 3H21C22.1046 3 23 3.89543 23 5V24C23 25.1046 22.1046 26 21 26H5C3.89543 26 3 25.1046 3 24V5Z" fill="#D7E0EF"/>
<rect x="7" y="15" width="12" height="1.5" rx="0.75" fill="#AEBED3"/>
<path d="M7.8033 8.43229C7.83271 8.46972 7.84866 8.4883 7.86278 8.50844C8.31049 9.14387 8.75533 9.78174 9.20684 10.414C9.38658 10.6656 9.57351 10.9122 9.77064 11.1475C9.94188 11.352 10.1584 11.4833 10.419 11.4956C10.601 11.5042 10.7836 11.4976 10.9659 11.4973C10.9748 11.4973 10.9837 11.493 10.9999 11.489C10.9999 11.4568 10.9999 11.4259 10.9999 11.395C10.9999 10.2205 10.9999 9.04573 10.9999 7.87115C10.9999 7.83715 11.0005 7.80286 10.9974 7.769C10.9836 7.61414 10.8799 7.51071 10.7382 7.51029C10.5823 7.50971 10.4263 7.51 10.2704 7.51029C10.2476 7.51029 10.2249 7.51243 10.1943 7.514C10.1943 8.53058 10.1943 9.53745 10.1943 10.5602C10.1712 10.531 10.1581 10.5163 10.1468 10.5C9.77377 9.96388 9.40253 9.42616 9.0271 8.89201C8.79494 8.56172 8.56082 8.23272 8.31886 7.911C8.17663 7.72186 8.00186 7.56186 7.77101 7.53543C7.51924 7.50657 7.26473 7.51071 7.00002 7.5C7.00002 7.55343 7.00002 7.58457 7.00002 7.61572C7.00002 8.79558 7.00002 9.97545 7.00002 11.1553C7.00002 11.1842 6.99963 11.2132 7.00211 11.2418C7.0127 11.3666 7.10081 11.489 7.20512 11.4938C7.40081 11.5026 7.59702 11.4963 7.8033 11.4963C7.8033 10.4775 7.8033 9.46573 7.8033 8.43229Z" fill="#005BC3"/>
<path d="M11.7854 11.4998C11.9345 11.5 12.0838 11.5 12.2329 11.4998C12.2588 11.4998 12.2847 11.4974 12.3154 11.4958C12.3154 11.4561 12.3154 11.4249 12.3154 11.3937C12.3154 10.8917 12.3154 10.3898 12.3154 9.8877C12.3154 9.78302 12.3156 9.78259 12.4103 9.78259C13.1368 9.78259 13.8632 9.78359 14.5896 9.78087C14.6625 9.78058 14.6861 9.80049 14.6856 9.88183C14.6822 10.3864 14.6838 10.891 14.6841 11.3957C14.6841 11.4286 14.6869 11.4617 14.6886 11.4998C14.8751 11.4998 15.0534 11.5002 15.2316 11.4998C15.3618 11.4994 15.4602 11.4139 15.4854 11.2755C15.4947 11.2244 15.4994 11.1713 15.4994 11.1192C15.5002 10.0389 15.5002 8.95885 15.4994 7.87862C15.4994 7.82649 15.4943 7.7735 15.485 7.72223C15.4644 7.60867 15.3791 7.50942 15.2789 7.50541C15.0842 7.49768 14.8889 7.50312 14.6838 7.50312C14.6838 7.54279 14.6838 7.57602 14.6838 7.60924C14.6838 8.07181 14.6838 8.53437 14.6838 8.99694C14.6838 9.10163 14.6836 9.10234 14.5877 9.10234C13.8612 9.10248 13.1348 9.10248 12.4085 9.1022C12.3798 9.1022 12.3512 9.0979 12.314 9.09504C12.314 8.56173 12.314 8.035 12.314 7.50241C12.1123 7.50241 11.9191 7.49453 11.727 7.50728C11.67 7.511 11.5973 7.55897 11.5657 7.61053C11.5258 7.67598 11.5031 7.76577 11.5028 7.84511C11.499 8.94896 11.5002 10.0528 11.5002 11.1565C11.5002 11.1723 11.4999 11.188 11.5004 11.2038C11.5068 11.3875 11.6148 11.4997 11.7854 11.4998Z" fill="#005BC3"/>
<rect x="7" y="18.5" width="6.66667" height="1.5" rx="0.75" fill="#AEBED3"/>
<path d="M24.682 26.682C26.4393 24.9246 26.4393 22.0754 24.682 20.318C22.9246 18.5607 20.0754 18.5607 18.318 20.318C16.5607 22.0754 16.5607 24.9246 18.318 26.682C20.0754 28.4393 22.9246 28.4393 24.682 26.682Z" stroke="#627388" stroke-width="1.5"/>
<path d="M25 27L28 30" stroke="#627388" stroke-width="1.5" stroke-linecap="round"/>
</svg>
