<svg width="32" height="32" viewBox="0 0 32 32" fill="none" xmlns="http://www.w3.org/2000/svg">
<path d="M7.6 2.0045H24.4C25.3052 1.95813 26.192 2.27183 26.8665 2.87705C27.5411 3.48227 27.9486 4.32981 28 5.23446V26.7655C27.9486 27.6702 27.5411 28.5177 26.8665 29.1229C26.192 29.7282 25.3052 30.0419 24.4 29.9955H7.6C6.69479 30.0419 5.80802 29.7282 5.13346 29.1229C4.4589 28.5177 4.0514 27.6702 4 26.7655V5.23446C4.0514 4.32981 4.4589 3.48227 5.13346 2.87705C5.80802 2.27183 6.69479 1.95813 7.6 2.0045Z" fill="#6EC4F6"/>
<path d="M20 20H12C11.4477 20 11 20.4477 11 21C11 21.5523 11.4477 22 12 22H20C20.5523 22 21 21.5523 21 21C21 20.4477 20.5523 20 20 20Z" fill="white"/>
<path d="M21.5346 10.2563L18.5176 13.2733C18.9005 13.6175 19.2066 14.0385 19.4159 14.5089C19.6253 14.9793 19.7332 15.4885 19.7326 16.0033H23.9996C24.0007 14.9283 23.7828 13.8643 23.3592 12.8762C22.9355 11.8881 22.314 10.9967 21.5346 10.2563Z" fill="#0C629C"/>
<path d="M16.011 8.00342C14.9597 8.00263 13.9185 8.20894 12.9469 8.61056C11.9754 9.01219 11.0924 9.60126 10.3485 10.3441C9.6046 11.087 9.01431 11.9692 8.61135 12.9402C8.20839 13.9112 8.00066 14.9521 8 16.0034H12.3C12.301 15.2873 12.5094 14.5867 12.9001 13.9865C13.2908 13.3863 13.8469 12.9121 14.5013 12.6212C15.1558 12.3303 15.8804 12.2353 16.5877 12.3474C17.295 12.4596 17.9547 12.7743 18.487 13.2534L21.531 10.2134C20.044 8.79378 18.0669 8.00221 16.011 8.00342Z" fill="#2B9CDE"/>
</svg>
