<svg width="32" height="32" viewBox="0 0 32 32" fill="none" xmlns="http://www.w3.org/2000/svg">
<path d="M15.9921 29.5017C22.0186 29.5017 26.9041 24.6163 26.9041 18.5897C26.9041 12.5632 22.0186 7.67773 15.9921 7.67773C9.96555 7.67773 5.08008 12.5632 5.08008 18.5897C5.08008 24.6163 9.96555 29.5017 15.9921 29.5017Z" fill="#FAD7C4"/>
<path d="M10.8496 20.5284C10.8496 19.6974 11.2496 19.0234 11.7496 19.0234C12.2496 19.0234 12.6496 19.6974 12.6496 20.5284C12.6496 21.3594 12.2496 22.0334 11.7496 22.0334C11.2496 22.0334 10.8496 21.3594 10.8496 20.5284Z" fill="black"/>
<path d="M19.5859 20.5284C19.5859 19.6974 19.9859 19.0234 20.4859 19.0234C20.9859 19.0234 21.3859 19.6974 21.3859 20.5284C21.3859 21.3594 20.9859 22.0334 20.4859 22.0334C19.9859 22.0334 19.5859 21.3594 19.5859 20.5284Z" fill="black"/>
<path d="M27.9218 17.665C27.7716 17.3301 27.6868 16.9697 27.6718 16.603C27.6718 16.382 27.6718 16.163 27.6608 15.947C27.3688 7.056 21.1508 3 15.9218 3C10.6928 3 4.47583 7.056 4.18483 15.947C4.17783 16.163 4.17383 16.382 4.17383 16.603C4.15887 16.9697 4.07402 17.3301 3.92383 17.665C3.43983 18.856 3.89083 17.253 15.9238 17.253C27.9568 17.253 28.4068 18.853 27.9238 17.665" fill="#19A854"/>
<mask id="mask0_262_7446" style="mask-type:luminance" maskUnits="userSpaceOnUse" x="3" y="3" width="26" height="17">
<path d="M4.17774 16.0561C4.17074 16.2731 4.16674 16.4941 4.16674 16.7161C4.15192 17.0853 4.06708 17.4484 3.91674 17.7861C3.43274 18.9861 4.33974 18.1401 4.95574 18.8571C5.75574 19.7931 3.88374 17.3711 15.9207 17.3711C27.9577 17.3711 26.8617 19.0351 27.6637 18.0991C28.2797 17.3811 28.4087 18.9851 27.9247 17.7861C27.7744 17.4484 27.6896 17.0853 27.6747 16.7161C27.6747 16.4931 27.6747 16.2731 27.6637 16.0561C27.3717 7.10207 21.1517 3.01807 15.9207 3.01807C10.6897 3.01807 4.46974 7.10207 4.17774 16.0561Z" fill="white"/>
</mask>
<g mask="url(#mask0_262_7446)">
<path d="M14.4226 15.7048C14.4226 15.7048 14.7785 15.9728 14.2365 16.1528C13.5845 16.2982 12.9216 16.3899 12.2546 16.4268C11.8629 16.3231 11.4597 16.2697 11.0546 16.2678C10.7796 16.2968 10.4546 16.3548 10.2656 16.1528C9.72555 15.5708 10.9326 15.1168 11.3436 15.1118C12.1246 15.1038 12.4506 14.4118 13.5626 14.8678" fill="#0B6A46"/>
<path d="M29.7988 6.41795C29.9744 6.73136 30.0769 7.08037 30.0988 7.43895C30.1026 7.61881 30.0369 7.79321 29.9155 7.92597C29.7941 8.05873 29.6263 8.13965 29.4468 8.15195C29.1288 8.13295 28.8468 7.81895 28.5468 7.89895C28.1238 8.00795 28.1468 8.70495 27.7468 8.87395C27.5468 8.95595 27.3138 8.87995 27.1188 8.96495C27.0209 9.01806 26.9411 9.09936 26.89 9.19832C26.8388 9.29728 26.8185 9.40933 26.8318 9.51995C26.8633 9.74016 26.9366 9.95231 27.0478 10.1449C27.9747 12.0559 28.4947 14.1385 28.5748 16.2609C28.5999 16.395 28.5914 16.5333 28.55 16.6633C28.5087 16.7933 28.4357 16.911 28.3378 17.0059C28.2267 17.0658 28.0988 17.0871 27.9743 17.0664C27.8498 17.0458 27.7357 16.9844 27.6498 16.8919C27.4835 16.7027 27.37 16.473 27.3208 16.2259C27.1912 15.7496 27.1092 15.2615 27.0758 14.7689C27.0568 14.4849 27.0288 14.1549 26.7888 13.9999C26.4888 13.8059 26.0598 14.0669 25.9528 14.4069C25.883 14.759 25.9195 15.1238 26.0578 15.4549C26.1962 15.7869 26.2215 16.1552 26.1298 16.5029C26.0018 16.8359 25.5438 17.0589 25.2678 16.8289C25.1768 16.7529 25.1178 16.639 25.0138 16.5809C24.9263 16.5437 24.8287 16.538 24.7374 16.5648C24.6462 16.5916 24.5672 16.6493 24.5138 16.7279C24.3998 16.8779 24.5048 17.1739 24.3348 17.2559C23.6458 17.5889 23.2258 16.1339 23.2498 15.3739C23.2608 15.0409 23.3498 14.7129 23.3498 14.3799C23.3597 14.2129 23.324 14.0463 23.2465 13.898C23.1689 13.7497 23.0526 13.6252 22.9098 13.5379C22.2978 13.2459 21.4518 14.0079 20.9528 13.5519C20.8293 13.396 20.7716 13.1979 20.7922 13.0001C20.8127 12.8022 20.9098 12.6202 21.0628 12.4929C21.3796 12.2478 21.7276 12.046 22.0978 11.8929C22.2819 11.8151 22.442 11.6897 22.5616 11.5297C22.6813 11.3696 22.7563 11.1805 22.7788 10.9819C22.7648 10.2509 21.6478 9.89795 21.6588 9.16695C21.6906 8.95526 21.7886 8.75907 21.9388 8.60654C22.089 8.45401 22.2836 8.35298 22.4948 8.31795C22.9098 8.21195 23.3498 8.24995 23.7708 8.17095C24.206 8.10383 24.5982 7.87045 24.8648 7.51995C24.9928 7.34407 25.0657 7.13421 25.0745 6.91688C25.0832 6.69955 25.0273 6.48451 24.9138 6.29895C24.7883 6.11789 24.5967 5.99337 24.3803 5.95222C24.1639 5.91107 23.94 5.95658 23.7568 6.07895C23.4965 6.354 23.3378 6.70955 23.3068 7.08695C23.2208 7.45295 23.0338 7.86295 22.6618 7.93695C22.5119 7.95057 22.3611 7.92414 22.2247 7.86036C22.0884 7.79658 21.9714 7.69775 21.8858 7.57395C21.691 7.32834 21.569 7.03303 21.5337 6.72157C21.4983 6.4101 21.551 6.09496 21.6858 5.81195C21.9628 5.25195 22.7798 5.34395 23.2118 4.89095C23.6248 4.45795 22.8728 3.72395 22.4118 3.33695C22.0728 3.05095 21.6398 2.85095 21.4198 2.46795C21.3481 2.31063 21.3118 2.13954 21.3133 1.96668C21.3147 1.79381 21.354 1.62337 21.4283 1.46729C21.5026 1.31121 21.6102 1.17329 21.7435 1.06319C21.8768 0.953089 22.0325 0.873481 22.1998 0.829949C22.5475 0.769639 22.9052 0.836757 23.2074 1.01898C23.5096 1.2012 23.7359 1.48631 23.8448 1.82195C23.9698 2.21295 23.9548 2.67495 24.2398 2.97195C24.4005 3.11159 24.6022 3.19513 24.8146 3.20992C25.0269 3.22471 25.2383 3.16996 25.4168 3.05395C25.7677 2.81285 26.0389 2.47274 26.1958 2.07695C26.3521 1.6839 26.5397 1.30402 26.7568 0.940949C26.8395 0.799181 26.9522 0.677155 27.0869 0.583376C27.2216 0.489596 27.3751 0.426317 27.5368 0.397949C27.757 0.404193 27.9701 0.477401 28.1477 0.607818C28.3253 0.738236 28.4589 0.919671 28.5308 1.12795C28.6637 1.54367 28.7726 1.96671 28.8568 2.39495C28.9021 2.61022 29.0009 2.81062 29.144 2.97768C29.2872 3.14475 29.47 3.27311 29.6758 3.35095C30.1228 3.46695 30.6098 3.20495 31.0508 3.34395C31.2475 3.40898 31.4113 3.54777 31.5077 3.73111C31.6041 3.91445 31.6257 4.12804 31.5678 4.32695C31.4318 4.64695 31.1618 4.62695 30.8568 4.68195C29.8268 4.85595 29.3448 5.37595 29.7998 6.41695" fill="#0B6A46"/>
<path d="M6.19359 3.69094C6.27073 3.46205 6.40104 3.2547 6.57383 3.08592C6.74661 2.91713 6.95695 2.79171 7.18759 2.71994C7.69459 2.59194 8.26759 2.80694 8.71759 2.53794C9.19359 2.25294 9.23659 1.60094 9.63159 1.21994C9.90444 1.03609 10.217 0.919483 10.5436 0.879679C10.8702 0.839875 11.2016 0.878004 11.5106 0.990944C12.2188 1.06195 12.8863 1.3553 13.4176 1.82894C13.6126 2.05194 13.7366 2.32894 13.9176 2.56094C14.0001 2.68797 14.1097 2.79517 14.2385 2.87487C14.3673 2.95457 14.5121 3.00479 14.6626 3.02194C15.1626 3.04494 15.5626 2.57494 15.7826 2.13094C15.938 1.65414 16.2225 1.22975 16.6046 0.904944C16.7242 0.814556 16.8707 0.767077 17.0205 0.770161C17.1704 0.773245 17.3148 0.826714 17.4306 0.921944C17.4945 1.02438 17.5301 1.14193 17.5338 1.26261C17.5375 1.38329 17.5091 1.5028 17.4516 1.60894C17.3266 1.92694 17.1276 2.21994 17.0016 2.53794C16.9274 2.68804 16.8899 2.8536 16.8922 3.02101C16.8944 3.18842 16.9364 3.35291 17.0146 3.50094C17.2626 3.87294 17.8036 3.92494 18.2326 4.10094C18.6026 4.2552 18.9126 4.52515 19.1163 4.87037C19.32 5.21559 19.4064 5.61751 19.3626 6.01594C19.2474 6.59177 19.0123 7.13691 18.6726 7.61594L17.8416 8.98294C17.7452 9.1768 17.5993 9.34172 17.4186 9.46094C17.2834 9.52681 17.1314 9.54993 16.9828 9.52724C16.8341 9.50456 16.6959 9.43713 16.5866 9.33394C16.3882 9.125 16.2773 8.84807 16.2766 8.55994C16.2887 7.99603 16.4152 7.44045 16.6486 6.92694C16.882 6.41323 17.0076 5.85711 17.0176 5.29294C17.0158 5.01515 16.9266 4.74496 16.7628 4.52062C16.5989 4.29629 16.3687 4.12917 16.1046 4.04294C15.9098 3.99882 15.7071 4.00309 15.5143 4.05539C15.3215 4.10768 15.1444 4.20641 14.9986 4.34294C14.8579 4.47372 14.755 4.63992 14.7007 4.82412C14.6463 5.00832 14.6425 5.20375 14.6896 5.38994C14.7956 5.75694 15.1186 6.04894 15.1436 6.43294C15.1786 6.96994 14.6226 7.40894 14.0866 7.63294C13.4086 7.91294 12.6756 8.01894 11.9866 8.26794C11.636 8.36407 11.3101 8.53457 11.0313 8.76787C10.7524 9.00117 10.5271 9.29178 10.3706 9.61994C10.2481 10.2995 10.3131 10.9996 10.5586 11.6449C10.6747 12.0833 10.6395 12.5481 10.4586 12.9639C10.3565 13.1783 10.1901 13.3554 9.98246 13.4705C9.77484 13.5856 9.53644 13.633 9.30059 13.6059C8.45359 13.4279 8.39259 12.0899 7.53159 11.9639C6.78959 11.8549 6.11659 12.7749 5.38459 12.6269C4.93459 12.5359 4.71159 12.0849 4.54659 11.6829C4.42955 11.4392 4.3574 11.1763 4.33359 10.9069C4.32517 10.766 4.35129 10.625 4.40966 10.4964C4.46804 10.3678 4.55692 10.2554 4.66859 10.1689C5.08259 9.87694 5.70859 10.0689 6.11259 9.76894C6.26185 9.62661 6.36175 9.44033 6.39773 9.23724C6.4337 9.03416 6.40387 8.82489 6.31259 8.63994C6.18049 8.31186 5.97397 8.01896 5.70932 7.78433C5.44468 7.54971 5.12914 7.37978 4.78759 7.28794C4.43359 7.18794 4.05659 7.17194 3.69859 7.08794C3.5201 7.06112 3.34869 6.99925 3.19423 6.90588C3.03976 6.81252 2.9053 6.68951 2.79859 6.54394C2.70474 6.3656 2.66958 6.16219 2.69813 5.96269C2.72668 5.76319 2.81748 5.5778 2.95759 5.43294C3.10439 5.28083 3.28674 5.16764 3.4882 5.10357C3.68965 5.0395 3.90389 5.02657 4.11159 5.06594C4.45359 5.13494 4.74259 5.34194 5.08659 5.40394C6.22659 5.60394 5.97059 4.28594 6.19359 3.69094Z" fill="#0B6A46"/>
</g>
<path d="M27.665 16.7402H4.335C3.5977 16.7402 3 17.3379 3 18.0752C3 18.8125 3.5977 19.4102 4.335 19.4102H27.665C28.4023 19.4102 29 18.8125 29 18.0752C29 17.3379 28.4023 16.7402 27.665 16.7402Z" fill="#0B6A46"/>
</svg>
