<svg width="32" height="32" viewBox="0 0 32 32" fill="none" xmlns="http://www.w3.org/2000/svg">
<path d="M14.5673 28.9888L7.15126 26.6678C6.96078 26.6095 6.79387 26.492 6.67481 26.3323C6.55575 26.1726 6.49075 25.979 6.48926 25.7798V23.2548C6.49111 23.0052 6.592 22.7665 6.76975 22.5911C6.94751 22.4158 7.18759 22.3182 7.43726 22.3198H22.4043C28.5813 22.3198 30.7193 22.5498 30.4833 23.6998C30.3565 24.0823 30.1391 24.4284 29.8497 24.7087C29.5604 24.989 29.2075 25.1953 28.8213 25.3098C26.6823 26.1528 22.7383 28.0708 20.2683 28.9888C18.4292 29.6696 16.4073 29.6696 14.5683 28.9888" fill="#F3C894"/>
<path d="M28.7232 13.3219C28.7581 15.4972 28.1472 17.6339 26.9678 19.462C25.7883 21.2901 24.0932 22.7274 22.0969 23.5922C20.1006 24.4569 17.8927 24.7103 15.7524 24.3202C13.6121 23.9301 11.6355 22.9142 10.0726 21.4008C8.50969 19.8874 7.43065 17.9445 6.97192 15.8179C6.5132 13.6912 6.69538 11.4763 7.49544 9.45319C8.29551 7.43009 9.67751 5.68965 11.4667 4.45198C13.2559 3.2143 15.3719 2.53497 17.5472 2.49988H17.7252C19.1581 2.48814 20.5792 2.75876 21.9075 3.29627C23.2358 3.83379 24.4452 4.62767 25.4666 5.6326C26.4881 6.63752 27.3016 7.8338 27.8607 9.15314C28.4198 10.4725 28.7136 11.889 28.7252 13.3219" fill="#7677E6"/>
<path d="M13.7793 14.1538H12.0253C11.9093 14.1578 11.7937 14.1383 11.6853 14.0967C11.577 14.055 11.4782 13.9919 11.3947 13.9113C11.3112 13.8306 11.2449 13.734 11.1995 13.6271C11.1542 13.5203 11.1309 13.4054 11.1309 13.2893C11.1309 13.1732 11.1542 13.0584 11.1995 12.9515C11.2449 12.8447 11.3112 12.748 11.3947 12.6674C11.4782 12.5867 11.577 12.5236 11.6853 12.482C11.7937 12.4403 11.9093 12.4209 12.0253 12.4248H13.7803C13.8963 12.4209 14.0119 12.4403 14.1202 12.482C14.2285 12.5236 14.3274 12.5867 14.4108 12.6674C14.4943 12.748 14.5607 12.8447 14.606 12.9515C14.6513 13.0584 14.6747 13.1732 14.6747 13.2893C14.6747 13.4054 14.6513 13.5203 14.606 13.6271C14.5607 13.734 14.4943 13.8306 14.4108 13.9113C14.3274 13.9919 14.2285 14.055 14.1202 14.0967C14.0119 14.1383 13.8953 14.1578 13.7793 14.1538Z" fill="white"/>
<path d="M23.4297 14.1543H21.6757C21.5597 14.1583 21.444 14.1388 21.3357 14.0971C21.2274 14.0555 21.1285 13.9924 21.0451 13.9118C20.9616 13.8311 20.8953 13.7345 20.8499 13.6276C20.8046 13.5208 20.7812 13.4059 20.7812 13.2898C20.7812 13.1737 20.8046 13.0589 20.8499 12.952C20.8953 12.8452 20.9616 12.7485 21.0451 12.6678C21.1285 12.5872 21.2274 12.5241 21.3357 12.4825C21.444 12.4408 21.5597 12.4214 21.6757 12.4253H23.4307C23.5467 12.4214 23.6623 12.4408 23.7706 12.4825C23.8789 12.5241 23.9778 12.5872 24.0612 12.6678C24.1447 12.7485 24.211 12.8452 24.2564 12.952C24.3017 13.0589 24.3251 13.1737 24.3251 13.2898C24.3251 13.4059 24.3017 13.5208 24.2564 13.6276C24.211 13.7345 24.1447 13.8311 24.0612 13.9118C23.9778 13.9924 23.8789 14.0555 23.7706 14.0971C23.6623 14.1388 23.5457 14.1583 23.4297 14.1543Z" fill="white"/>
<path d="M19.9189 17.9001C19.7362 17.9007 19.558 17.8445 19.4088 17.7391C19.2597 17.6337 19.1472 17.4844 19.0869 17.3121L17.7249 13.3611L16.3649 17.3131C16.3037 17.4851 16.1908 17.634 16.0417 17.7393C15.8925 17.8446 15.7144 17.9011 15.5319 17.9011C15.3493 17.9011 15.1712 17.8446 15.022 17.7393C14.8729 17.634 14.76 17.4851 14.6989 17.3131L12.5059 10.9441C12.4686 10.8357 12.4533 10.721 12.4609 10.6067C12.4685 10.4924 12.4988 10.3807 12.5502 10.2782C12.6015 10.1758 12.6727 10.0846 12.7597 10.0101C12.8467 9.93551 12.9478 9.87907 13.0569 9.84405C13.2765 9.76957 13.5167 9.78471 13.7252 9.88618C13.9338 9.98765 14.0939 10.1673 14.1709 10.3861L15.5319 14.3381L16.8929 10.3851C16.9537 10.2129 17.0665 10.0638 17.2156 9.95842C17.3646 9.853 17.5428 9.79639 17.7254 9.79639C17.908 9.79639 18.0861 9.853 18.2352 9.95842C18.3842 10.0638 18.497 10.2129 18.5579 10.3851L19.9189 14.3371L21.2789 10.3851C21.3562 10.1664 21.5166 9.98689 21.7252 9.88547C21.9339 9.78405 22.1741 9.76881 22.3939 9.84305C22.5029 9.87819 22.6038 9.9347 22.6907 10.0093C22.7777 10.0839 22.8489 10.175 22.9002 10.2774C22.9515 10.3799 22.9818 10.4915 22.9895 10.6057C22.9972 10.72 22.982 10.8347 22.9449 10.9431L20.7519 17.3121C20.6915 17.4844 20.579 17.6337 20.4299 17.7391C20.2807 17.8445 20.1015 17.9007 19.9189 17.9001Z" fill="white"/>
<path d="M14.4054 19.1006H6.01543C5.7655 19.0987 5.52505 19.1962 5.34692 19.3715C5.16879 19.5468 5.06754 19.7857 5.06543 20.0356V23.8066C5.07109 23.9438 5.10373 24.0784 5.1615 24.2029C5.21926 24.3274 5.30101 24.4393 5.40206 24.5322C5.50312 24.6251 5.6215 24.6972 5.75043 24.7442C5.87935 24.7913 6.0163 24.8125 6.15343 24.8066C6.26397 24.8027 6.37325 24.7818 6.47743 24.7446C7.46043 24.3796 8.94843 23.8706 11.0044 23.2446C13.7424 22.4076 14.8334 20.9896 15.1644 19.9506C15.1855 19.8621 15.1887 19.7704 15.1741 19.6806C15.1594 19.5909 15.1271 19.505 15.0791 19.4278C15.031 19.3506 14.9681 19.2837 14.894 19.231C14.8199 19.1783 14.7361 19.1407 14.6474 19.1206C14.5681 19.1023 14.4863 19.0975 14.4054 19.1066" fill="#F3C894"/>
<path d="M5.13 28.7608H3.571C3.30113 28.7629 3.03349 28.7118 2.78336 28.6105C2.53323 28.5092 2.3055 28.3596 2.11319 28.1702C1.92088 27.9809 1.76775 27.7555 1.66253 27.507C1.55732 27.2585 1.50209 26.9917 1.5 26.7218V19.7578C1.50449 19.2129 1.72518 18.6922 2.11354 18.31C2.50191 17.9278 3.02615 17.7155 3.571 17.7198H5.13C5.67468 17.7158 6.19867 17.9282 6.58681 18.3104C6.97496 18.6925 7.19551 19.2131 7.2 19.7578V26.7218C7.19577 27.2666 6.97534 27.7875 6.58716 28.1699C6.19899 28.5522 5.67485 28.7648 5.13 28.7608Z" fill="#B3C1D9"/>
</svg>
