<svg width="32" height="32" viewBox="0 0 32 32" fill="none" xmlns="http://www.w3.org/2000/svg">
<path d="M16 30C23.732 30 30 23.732 30 16C30 8.26801 23.732 2 16 2C8.26801 2 2 8.26801 2 16C2 23.732 8.26801 30 16 30Z" fill="#EC6161"/>
<path d="M15.1193 9.51474C15.2054 9.359 15.3327 9.22899 15.4877 9.1384C15.6427 9.04781 15.8197 9 16.0001 9C16.1804 9 16.3574 9.04781 16.5124 9.1384C16.6674 9.22899 16.7947 9.359 16.8808 9.51474L18.5401 12.5149C18.6116 12.6445 18.7118 12.7567 18.8333 12.8432C18.9547 12.9297 19.0944 12.9883 19.2419 13.0146L22.6708 13.6198C22.85 13.6507 23.0172 13.729 23.1546 13.8462C23.292 13.9635 23.3943 14.1152 23.4507 14.2853C23.507 14.4553 23.5153 14.6372 23.4745 14.8115C23.4337 14.9858 23.3455 15.1459 23.2192 15.2746L20.823 17.7121C20.7174 17.8194 20.638 17.9488 20.5908 18.0907C20.5435 18.2326 20.5297 18.3832 20.5503 18.5311L21.0175 21.8822C21.0418 22.0584 21.0171 22.2378 20.9461 22.4014C20.875 22.5649 20.7603 22.7065 20.6141 22.8112C20.4678 22.9159 20.2955 22.9797 20.1154 22.9959C19.9352 23.0121 19.754 22.9801 19.5908 22.9033L16.4317 21.4249C16.2969 21.3616 16.1494 21.3288 16.0001 21.3288C15.8507 21.3288 15.7032 21.3616 15.5684 21.4249L12.4103 22.9033C12.2473 22.9791 12.0665 23.0103 11.887 22.9936C11.7075 22.9769 11.5359 22.9129 11.3902 22.8084C11.2446 22.7039 11.1303 22.5627 11.0595 22.3997C10.9886 22.2367 10.9638 22.0579 10.9876 21.8822L11.4548 18.5311C11.4754 18.3832 11.4616 18.2326 11.4144 18.0907C11.3671 17.9488 11.2877 17.8194 11.1821 17.7121L8.78193 15.2746C8.65541 15.1461 8.56688 14.986 8.52584 14.8117C8.48479 14.6375 8.49277 14.4555 8.54893 14.2853C8.60508 14.1151 8.70729 13.9632 8.8446 13.8458C8.9819 13.7284 9.14913 13.6499 9.32834 13.6188L12.7572 13.0137C12.9047 12.9873 13.0444 12.9287 13.1658 12.8422C13.2873 12.7557 13.3875 12.6435 13.459 12.514L15.1193 9.51474Z" fill="#F9D9D9"/>
</svg>
