<svg width="32" height="32" viewBox="0 0 32 32" fill="none" xmlns="http://www.w3.org/2000/svg">
<path d="M16 3C18.5712 3 21.0846 3.76244 23.2224 5.1909C25.3603 6.61935 27.0265 8.64968 28.0104 11.0251C28.9944 13.4006 29.2518 16.0144 28.7502 18.5362C28.2486 21.0579 27.0105 23.3743 25.1924 25.1924C23.3743 27.0105 21.0579 28.2486 18.5362 28.7502C16.0144 29.2518 13.4006 28.9944 11.0251 28.0104C8.64968 27.0265 6.61935 25.3603 5.1909 23.2224C3.76244 21.0846 3 18.5712 3 16C3 12.5522 4.36964 9.24558 6.80761 6.80761C9.24558 4.36964 12.5522 3 16 3Z" fill="#FFB639"/>
<path d="M17.8547 20.3505L16.0547 14.9665L14.2547 20.3505C14.1893 20.5392 14.0667 20.7029 13.9039 20.8187C13.7412 20.9346 13.5464 20.9968 13.3467 20.9968C13.1469 20.9968 12.9522 20.9346 12.7894 20.8187C12.6267 20.7029 12.5041 20.5392 12.4387 20.3505L10.8547 15.5985H9.01368C8.88374 15.607 8.75345 15.5886 8.63087 15.5447C8.50828 15.5008 8.39602 15.4322 8.30101 15.3432C8.20599 15.2541 8.13026 15.1465 8.07849 15.027C8.02671 14.9076 8 14.7787 8 14.6485C8 14.5183 8.02671 14.3895 8.07849 14.27C8.13026 14.1505 8.20599 14.0429 8.30101 13.9539C8.39602 13.8649 8.50828 13.7962 8.63087 13.7523C8.75345 13.7084 8.88374 13.6901 9.01368 13.6985H10.2137L9.73468 12.2525C9.69468 12.1339 9.67849 12.0086 9.68701 11.8838C9.69554 11.759 9.72862 11.637 9.78436 11.525C9.8401 11.4129 9.9174 11.313 10.0118 11.2309C10.1063 11.1488 10.216 11.0861 10.3347 11.0465C10.5749 10.9672 10.8366 10.9858 11.0633 11.098C11.2899 11.2103 11.4632 11.4074 11.5457 11.6465L13.3457 17.0295L15.1467 11.6495C15.2121 11.4608 15.3347 11.2971 15.4974 11.1813C15.6602 11.0655 15.8549 11.0033 16.0547 11.0033C16.2544 11.0033 16.4492 11.0655 16.6119 11.1813C16.7747 11.2971 16.8973 11.4608 16.9627 11.6495L18.7627 17.0325L20.5647 11.6495C20.6514 11.4178 20.8244 11.2287 21.0475 11.1218C21.2705 11.0149 21.5263 10.9986 21.7612 11.0762C21.9961 11.1538 22.1918 11.3193 22.3073 11.5381C22.4228 11.7568 22.4491 12.0118 22.3807 12.2495L21.8987 13.6985H23.0987C23.2286 13.6901 23.3589 13.7084 23.4815 13.7523C23.6041 13.7962 23.7163 13.8649 23.8113 13.9539C23.9064 14.0429 23.9821 14.1505 24.0339 14.27C24.0856 14.3895 24.1124 14.5183 24.1124 14.6485C24.1124 14.7787 24.0856 14.9076 24.0339 15.027C23.9821 15.1465 23.9064 15.2541 23.8113 15.3432C23.7163 15.4322 23.6041 15.5008 23.4815 15.5447C23.3589 15.5886 23.2286 15.607 23.0987 15.5985H21.2617L19.6757 20.3505C19.6099 20.5392 19.4873 20.7028 19.3247 20.8188C19.162 20.9349 18.9675 20.9977 18.7677 20.9985C18.5665 21.001 18.3698 20.9396 18.2057 20.8231C18.0417 20.7067 17.9188 20.5412 17.8547 20.3505Z" fill="white"/>
</svg>
