<svg width="32" height="32" viewBox="0 0 32 32" fill="none" xmlns="http://www.w3.org/2000/svg">
<path d="M10 17H22V28.191C22 28.5627 21.6088 28.8044 21.2764 28.6382L16 26L10.7236 28.6382C10.3912 28.8044 10 28.5627 10 28.191V17Z" fill="#19973C"/>
<path d="M15.3047 2.67263C15.6924 2.2976 16.3076 2.2976 16.6953 2.67263L18.368 4.29082C18.5897 4.50528 18.898 4.60544 19.2034 4.56224L21.5078 4.2363C22.0418 4.16076 22.5396 4.52239 22.6328 5.05367L23.0349 7.34601C23.0882 7.64982 23.2787 7.91203 23.5512 8.0566L25.6071 9.1474C26.0835 9.40021 26.2737 9.98534 26.0368 10.4699L25.0147 12.5608C24.8792 12.8379 24.8792 13.1621 25.0147 13.4392L26.0368 15.5301C26.2737 16.0147 26.0835 16.5998 25.6071 16.8526L23.5512 17.9434C23.2787 18.088 23.0882 18.3502 23.0349 18.654L22.6328 20.9463C22.5396 21.4776 22.0418 21.8392 21.5078 21.7637L19.2034 21.4378C18.898 21.3946 18.5897 21.4947 18.368 21.7092L16.6953 23.3274C16.3076 23.7024 15.6924 23.7024 15.3047 23.3274L13.632 21.7092C13.4103 21.4947 13.102 21.3946 12.7966 21.4378L10.4922 21.7637C9.95816 21.8392 9.46041 21.4776 9.36722 20.9463L8.96511 18.654C8.91182 18.3502 8.72131 18.088 8.44884 17.9434L6.39295 16.8526C5.91647 16.5998 5.72635 16.0147 5.96323 15.5301L6.98532 13.4392C7.12078 13.1621 7.12078 12.8379 6.98532 12.5608L5.96323 10.4699C5.72635 9.98534 5.91647 9.40021 6.39295 9.1474L8.44884 8.0566C8.72131 7.91203 8.91182 7.64982 8.96511 7.34601L9.36722 5.05367C9.46041 4.52239 9.95816 4.16076 10.4922 4.2363L12.7966 4.56224C13.102 4.60544 13.4103 4.50528 13.632 4.29082L15.3047 2.67263Z" fill="#FFB639"/>
<path d="M19.5 10.5L14.6827 15.5L12.5 13.2346" stroke="white" stroke-width="1.5" stroke-linecap="round" stroke-linejoin="round"/>
</svg>
