<svg width="32" height="32" viewBox="0 0 32 32" fill="none" xmlns="http://www.w3.org/2000/svg">
<path d="M28.693 13.3335C27.5847 9.17454 24.5029 7.60911 19.5389 7.18026C19.0011 6.58442 18.1303 6.26027 16.7227 6.18144L16.4622 4.27677C17.1706 4.07791 17.6902 3.43487 17.6902 2.67085C17.6902 1.74798 16.9333 1 16 1C15.0667 1 14.3098 1.74798 14.3098 2.67085C14.3098 3.43487 14.8292 4.07791 15.5376 4.27677L15.2768 6.18168C13.8692 6.26027 12.9974 6.58418 12.4599 7.1805C7.49664 7.60959 4.4153 9.17502 3.30724 13.3337C1.72416 13.7235 1 14.752 1 17.4521C1 20.1524 1.72441 21.1807 3.30773 21.5708C4.44754 25.8473 7.67356 27.3821 12.8879 27.758V31C12.8879 31 19.3889 28.6885 24.1299 26.7652L24.1284 26.7647C26.4497 25.848 27.978 24.2452 28.6913 21.571C30.2751 21.1812 31 20.1527 31 17.4521C31 14.7523 30.2761 13.7237 28.693 13.3335ZM25.3885 21.5365C25.0724 22.3187 24.6364 22.8837 24.0165 23.3137C22.6176 24.284 20.0704 24.7361 16 24.7361C11.9296 24.7361 9.38242 24.2843 7.98354 23.3137C7.36334 22.8837 6.92758 22.3187 6.61155 21.5365C6.20584 20.5315 5.99984 19.1572 5.99984 17.4519C5.99984 15.7465 6.2056 14.3723 6.61155 13.3675C6.92758 12.5852 7.36334 12.0203 7.98354 11.5903C9.38242 10.6199 11.9296 10.1679 16 10.1679C20.0704 10.1679 22.6176 10.6197 24.0165 11.5903C24.6364 12.0203 25.0724 12.5852 25.3885 13.3675C25.7942 14.3725 25.9999 15.7468 25.9999 17.4519C25.9999 19.157 25.7942 20.5315 25.3885 21.5365Z" fill="#7677E6"/>
<path d="M17.8612 19.1646C18.0192 19.1646 18.1443 19.3037 18.1271 19.4635C18.0129 20.5267 17.2807 21.3458 15.9994 21.3458C14.718 21.3458 13.9859 20.5267 13.8717 19.4635C13.8545 19.3037 13.9796 19.1646 14.1376 19.1646H17.8612Z" fill="#4F4FAA"/>
<path d="M10.9337 14.377C9.87749 14.377 9.65137 15.2375 9.65137 16.1182C9.65137 16.9989 9.87749 17.8594 10.9337 17.8594C11.9899 17.8594 12.216 16.9989 12.216 16.1182C12.216 15.2375 11.9899 14.377 10.9337 14.377Z" fill="#4F4FAA"/>
<path d="M21.0665 14.377C20.0103 14.377 19.7842 15.2375 19.7842 16.1182C19.7842 16.9989 20.0103 17.8594 21.0665 17.8594C22.1227 17.8594 22.3488 16.9989 22.3488 16.1182C22.3488 15.2375 22.1227 14.377 21.0665 14.377Z" fill="#4F4FAA"/>
</svg>
