<svg width="32" height="32" viewBox="0 0 32 32" fill="none" xmlns="http://www.w3.org/2000/svg">
<path d="M25.2804 7.71267C24.6827 7.05435 23.9612 6.52023 23.1571 6.14077C22.353 5.76131 21.482 5.54399 20.5939 5.50118C19.7058 5.45837 18.818 5.5909 17.9811 5.89126C17.1442 6.19162 16.3746 6.65388 15.7164 7.25167L15.4755 7.46871L15.2344 7.25167C13.9645 6.09703 12.3033 5.46832 10.5872 5.49288C8.87104 5.51744 7.22847 6.19349 5.99219 7.38399C4.75591 8.5745 4.01834 10.1905 3.92908 11.9044C3.83982 13.6184 4.40555 15.3022 5.51148 16.6147C5.70434 16.8479 5.91272 17.0677 6.13538 17.2727L15.4784 25.7577L24.8214 17.2727C25.0435 17.0668 25.2523 16.8471 25.4464 16.6147C26.5007 15.362 27.0648 13.7695 27.0343 12.1325C27.0038 10.4956 26.3806 8.92517 25.2804 7.71267Z" fill="#EC6A6A"/>
</svg>
