<svg width="32" height="32" viewBox="0 0 32 32" fill="none" xmlns="http://www.w3.org/2000/svg">
<path d="M5 7.6549C5 7.63952 5.0107 7.62621 5.02571 7.6229L6.90111 7.20955C9.88198 6.55254 12.7033 5.31196 15.2024 3.55933C15.6812 3.22361 16.3188 3.22361 16.7976 3.55933C19.2967 5.31196 22.118 6.55254 25.0989 7.20955L26.9743 7.6229C26.9893 7.62621 27 7.63952 27 7.6549V13.1903C27 15.4944 27 16.6465 26.8344 17.7134C26.2992 21.1626 24.4949 24.2874 21.7753 26.4752C20.934 27.152 19.9362 27.7279 17.9406 28.8798C17.5132 29.1266 17.2994 29.2499 17.0837 29.3335C16.3865 29.6036 15.6135 29.6036 14.9163 29.3335C14.7006 29.2499 14.4868 29.1266 14.0594 28.8798C12.0638 27.7279 11.066 27.152 10.2247 26.4752C7.50508 24.2874 5.70076 21.1626 5.16556 17.7134C5 16.6465 5 15.4944 5 13.1903V7.6549Z" fill="#19973C"/>
<path d="M20.5 13.5L14.6504 19.5L12 16.7815" stroke="white" stroke-width="1.5" stroke-linecap="round" stroke-linejoin="round"/>
</svg>
