<svg width="32" height="32" viewBox="0 0 32 32" fill="none" xmlns="http://www.w3.org/2000/svg">
<path d="M12.8224 27H3.82739C3.51422 26.9942 3.2073 26.9114 2.93366 26.759C2.66002 26.6065 2.42807 26.3891 2.25824 26.126C2.08841 25.8628 1.98591 25.5618 1.95978 25.2497C1.93365 24.9376 1.98469 24.6238 2.10839 24.336L3.87839 18.203C4.02728 17.8556 4.27856 17.5617 4.59873 17.3607C4.9189 17.1597 5.29274 17.0611 5.67039 17.078H10.9794C11.357 17.0613 11.7308 17.1599 12.0509 17.3609C12.3711 17.5619 12.6224 17.8556 12.7714 18.203L14.5404 24.336C14.6643 24.6237 14.7156 24.9375 14.6896 25.2496C14.6636 25.5618 14.5613 25.8627 14.3915 26.126C14.2217 26.3892 13.9898 26.6066 13.7162 26.7591C13.4425 26.9115 13.1356 26.9943 12.8224 27Z" fill="#FFB700"/>
<path d="M28.172 27H19.177C18.8638 26.9942 18.5569 26.9114 18.2833 26.759C18.0096 26.6065 17.7777 26.3891 17.6078 26.126C17.438 25.8628 17.3355 25.5618 17.3094 25.2497C17.2833 24.9376 17.3343 24.6238 17.458 24.336L19.228 18.203C19.3769 17.8556 19.6282 17.5617 19.9483 17.3607C20.2685 17.1597 20.6423 17.0611 21.02 17.078H26.329C26.7066 17.0613 27.0804 17.1599 27.4006 17.3609C27.7207 17.5619 27.972 17.8556 28.121 18.203L29.89 24.336C30.0139 24.6237 30.0652 24.9375 30.0392 25.2496C30.0133 25.5618 29.9109 25.8627 29.7411 26.126C29.5713 26.3892 29.3394 26.6066 29.0658 26.7591C28.7921 26.9115 28.4852 26.9943 28.172 27Z" fill="#FFB700"/>
<path d="M20.1076 15.4219H11.1126C10.7994 15.4161 10.4925 15.3333 10.2188 15.1808C9.94518 15.0284 9.71322 14.811 9.54339 14.5478C9.37357 14.2846 9.27107 13.9837 9.24494 13.6716C9.21881 13.3594 9.26984 13.0457 9.39355 12.7579L11.1636 6.62491C11.3124 6.27743 11.5637 5.9836 11.8839 5.7826C12.2041 5.5816 12.5779 5.48298 12.9556 5.49991H18.2646C18.6422 5.48313 19.016 5.5818 19.3361 5.78278C19.6562 5.98376 19.9076 6.27752 20.0566 6.62491L21.8256 12.7579C21.9495 13.0456 22.0007 13.3593 21.9748 13.6715C21.9488 13.9836 21.8464 14.2846 21.6767 14.5479C21.5069 14.8111 21.275 15.0285 21.0013 15.181C20.7277 15.3334 20.4207 15.4161 20.1076 15.4219Z" fill="#FFB700"/>
</svg>
