<svg width="32" height="32" viewBox="0 0 32 32" fill="none" xmlns="http://www.w3.org/2000/svg">
<path d="M14.5668 28.9888L7.15077 26.6678C6.96029 26.6095 6.79338 26.492 6.67432 26.3323C6.55526 26.1726 6.49026 25.979 6.48877 25.7798V23.2548C6.49062 23.0052 6.59151 22.7665 6.76926 22.5911C6.94702 22.4158 7.18711 22.3182 7.43677 22.3198H22.4038C28.5808 22.3198 30.7188 22.5498 30.4828 23.6998C30.356 24.0823 30.1386 24.4284 29.8493 24.7087C29.5599 24.989 29.207 25.1953 28.8208 25.3098C26.6818 26.1528 22.7378 28.0708 20.2678 28.9888C18.4287 29.6696 16.4068 29.6696 14.5678 28.9888" fill="#F3C894"/>
<path d="M28.7232 13.3219C28.7581 15.4972 28.1472 17.6339 26.9678 19.462C25.7883 21.2901 24.0932 22.7274 22.0969 23.5922C20.1006 24.4569 17.8927 24.7103 15.7524 24.3202C13.6121 23.9301 11.6355 22.9142 10.0726 21.4008C8.50969 19.8874 7.43065 17.9445 6.97192 15.8179C6.5132 13.6912 6.69538 11.4763 7.49544 9.45319C8.29551 7.43009 9.67751 5.68965 11.4667 4.45198C13.2559 3.2143 15.3719 2.53497 17.5472 2.49988H17.7252C19.1581 2.48814 20.5792 2.75876 21.9075 3.29627C23.2358 3.83379 24.4452 4.62767 25.4666 5.6326C26.4881 6.63752 27.3016 7.8338 27.8607 9.15314C28.4198 10.4725 28.7136 11.889 28.7252 13.3219" fill="#FFA50A"/>
<path d="M13.7793 14.1538H12.0253C11.9093 14.1578 11.7937 14.1383 11.6853 14.0967C11.577 14.055 11.4782 13.9919 11.3947 13.9113C11.3112 13.8306 11.2449 13.734 11.1995 13.6271C11.1542 13.5203 11.1309 13.4054 11.1309 13.2893C11.1309 13.1732 11.1542 13.0584 11.1995 12.9515C11.2449 12.8447 11.3112 12.748 11.3947 12.6674C11.4782 12.5867 11.577 12.5236 11.6853 12.482C11.7937 12.4403 11.9093 12.4209 12.0253 12.4248H13.7803C13.8963 12.4209 14.0119 12.4403 14.1202 12.482C14.2285 12.5236 14.3274 12.5867 14.4108 12.6674C14.4943 12.748 14.5607 12.8447 14.606 12.9515C14.6513 13.0584 14.6747 13.1732 14.6747 13.2893C14.6747 13.4054 14.6513 13.5203 14.606 13.6271C14.5607 13.734 14.4943 13.8306 14.4108 13.9113C14.3274 13.9919 14.2285 14.055 14.1202 14.0967C14.0119 14.1383 13.8953 14.1578 13.7793 14.1538Z" fill="white"/>
<path d="M23.4292 14.1538H21.6752C21.5592 14.1578 21.4436 14.1383 21.3352 14.0967C21.2269 14.055 21.1281 13.9919 21.0446 13.9113C20.9611 13.8306 20.8948 13.734 20.8494 13.6271C20.8041 13.5203 20.7808 13.4054 20.7808 13.2893C20.7808 13.1732 20.8041 13.0584 20.8494 12.9515C20.8948 12.8447 20.9611 12.748 21.0446 12.6674C21.1281 12.5867 21.2269 12.5236 21.3352 12.482C21.4436 12.4403 21.5592 12.4209 21.6752 12.4248H23.4302C23.5462 12.4209 23.6618 12.4403 23.7701 12.482C23.8784 12.5236 23.9773 12.5867 24.0607 12.6674C24.1442 12.748 24.2106 12.8447 24.2559 12.9515C24.3012 13.0584 24.3246 13.1732 24.3246 13.2893C24.3246 13.4054 24.3012 13.5203 24.2559 13.6271C24.2106 13.734 24.1442 13.8306 24.0607 13.9113C23.9773 13.9919 23.8784 14.055 23.7701 14.0967C23.6618 14.1383 23.5452 14.1578 23.4292 14.1538Z" fill="white"/>
<path d="M19.9193 17.9001C19.7367 17.9007 19.5585 17.8445 19.4093 17.7391C19.2602 17.6337 19.1477 17.4844 19.0873 17.3121L17.7253 13.3611L16.3653 17.3131C16.3042 17.4851 16.1913 17.634 16.0422 17.7393C15.893 17.8446 15.7149 17.9011 15.5323 17.9011C15.3498 17.9011 15.1717 17.8446 15.0225 17.7393C14.8733 17.634 14.7605 17.4851 14.6993 17.3131L12.5063 10.9441C12.4691 10.8357 12.4538 10.721 12.4614 10.6067C12.469 10.4924 12.4993 10.3807 12.5507 10.2782C12.602 10.1758 12.6732 10.0846 12.7602 10.0101C12.8472 9.93551 12.9482 9.87907 13.0573 9.84405C13.277 9.76957 13.5171 9.78471 13.7257 9.88618C13.9342 9.98765 14.0944 10.1673 14.1713 10.3861L15.5323 14.3381L16.8933 10.3851C16.9542 10.2129 17.0669 10.0638 17.216 9.95842C17.3651 9.853 17.5432 9.79639 17.7258 9.79639C17.9084 9.79639 18.0865 9.853 18.2356 9.95842C18.3847 10.0638 18.4975 10.2129 18.5583 10.3851L19.9193 14.3371L21.2793 10.3851C21.3567 10.1664 21.5171 9.98689 21.7257 9.88547C21.9344 9.78405 22.1746 9.76881 22.3943 9.84305C22.5034 9.87819 22.6043 9.9347 22.6912 10.0093C22.7782 10.0839 22.8493 10.175 22.9006 10.2774C22.9519 10.3799 22.9823 10.4915 22.99 10.6057C22.9977 10.72 22.9825 10.8347 22.9453 10.9431L20.7523 17.3121C20.692 17.4844 20.5795 17.6337 20.4303 17.7391C20.2812 17.8445 20.1019 17.9007 19.9193 17.9001Z" fill="white"/>
<path d="M14.4049 19.1011H6.01494C5.76501 19.0992 5.52457 19.1967 5.34643 19.372C5.1683 19.5473 5.06705 19.7862 5.06494 20.0361V23.8071C5.0706 23.9442 5.10324 24.0789 5.16101 24.2034C5.21877 24.3279 5.30052 24.4398 5.40157 24.5327C5.50263 24.6256 5.62101 24.6976 5.74994 24.7447C5.87887 24.7918 6.01581 24.813 6.15294 24.8071C6.26348 24.8032 6.37276 24.7823 6.47694 24.7451C7.45994 24.3801 8.94794 23.8711 11.0039 23.2451C13.7419 22.4081 14.8329 20.9901 15.1639 19.9511C15.185 19.8626 15.1882 19.7709 15.1736 19.6811C15.1589 19.5914 15.1266 19.5054 15.0786 19.4283C15.0305 19.3511 14.9676 19.2842 14.8935 19.2315C14.8194 19.1788 14.7356 19.1412 14.6469 19.1211C14.5677 19.1028 14.4858 19.098 14.4049 19.1071" fill="#F3C894"/>
<path d="M5.13 28.7608H3.571C3.30113 28.7629 3.03349 28.7118 2.78336 28.6105C2.53323 28.5092 2.3055 28.3596 2.11319 28.1702C1.92088 27.9809 1.76775 27.7555 1.66253 27.507C1.55732 27.2585 1.50209 26.9917 1.5 26.7218V19.7578C1.50449 19.2129 1.72518 18.6922 2.11354 18.31C2.50191 17.9278 3.02615 17.7155 3.571 17.7198H5.13C5.67468 17.7158 6.19867 17.9282 6.58681 18.3104C6.97496 18.6925 7.19551 19.2131 7.2 19.7578V26.7218C7.19577 27.2666 6.97534 27.7875 6.58716 28.1699C6.19899 28.5522 5.67485 28.7648 5.13 28.7608Z" fill="#B3C1D9"/>
</svg>
