<svg width="32" height="32" viewBox="0 0 32 32" fill="none" xmlns="http://www.w3.org/2000/svg">
<path fill-rule="evenodd" clip-rule="evenodd" d="M16.0361 3.00008C12.5911 2.98775 9.28222 4.34556 6.83749 6.77481C4.39276 9.20407 3.01241 12.5058 3.00008 15.9536C2.98776 19.4014 4.34448 22.7129 6.77178 25.1596C9.19908 27.6063 12.4981 28.9878 15.9432 29.0001C17.6438 29.0014 19.3278 28.665 20.8977 28.0105C22.4675 27.356 23.8921 26.3963 25.0888 25.1871L16.0361 15.9871V3.00008Z" fill="#A766E7"/>
<path fill-rule="evenodd" clip-rule="evenodd" d="M16.0049 2.99999V16L25.0646 25.219C26.3035 24.0111 27.2895 22.5682 27.9651 20.9747C28.6407 19.3812 28.9923 17.669 28.9994 15.938C29.0115 14.2299 28.6832 12.5366 28.0336 10.957C27.384 9.37745 26.4262 7.94338 25.2162 6.73868C24.0063 5.53399 22.5684 4.58284 20.9868 3.94089C19.4052 3.29894 17.7115 2.97907 16.0049 2.99999Z" fill="#CE9CFF"/>
</svg>
