<svg width="32" height="32" viewBox="0 0 32 32" fill="none" xmlns="http://www.w3.org/2000/svg">
<path d="M18.282 2.97058C20.5664 3.91569 22.519 5.51655 23.8928 7.57058C25.2666 9.6246 25.9999 12.0395 26 14.51C26.0001 16.9804 25.2668 19.3955 23.8931 21.4496C22.5194 23.5037 20.5669 25.1045 18.2825 26.0497C15.9982 26.9949 13.4846 27.242 11.0596 26.7597C8.63471 26.2774 6.4074 25.0874 4.65943 23.3401C2.91145 21.5929 1.72131 19.3669 1.23957 16.9438C0.757823 14.5206 1.00611 12.0091 1.95301 9.72701C3.22226 6.66795 5.6554 4.23782 8.71747 2.97083C11.7795 1.70383 15.2199 1.70372 18.282 2.97058Z" fill="#8CC743"/>
<path d="M13.5041 26.9819C12.4512 26.9635 11.4482 26.53 10.7137 25.7759C9.97928 25.0219 9.57287 24.0083 9.58305 22.9561V6.04503C9.56627 5.52001 9.65528 4.99696 9.84477 4.50698C10.0343 4.017 10.3204 3.57007 10.6861 3.19275C11.0519 2.81543 11.4898 2.51542 11.9739 2.31054C12.458 2.10565 12.9784 2 13.5041 2C14.0298 2 14.5501 2.10565 15.0342 2.31054C15.5183 2.51542 15.9563 2.81543 16.322 3.19275C16.6878 3.57007 16.9739 4.017 17.1634 4.50698C17.3529 4.99696 17.4419 5.52001 17.4251 6.04503V22.9561C17.4379 24.0101 17.0327 25.0264 16.298 25.7828C15.5633 26.5392 14.5588 26.9742 13.5041 26.9928V26.9819Z" stroke="white" stroke-width="1.2"/>
<path d="M24.8895 18.281C24.1629 17.794 23.3075 17.5345 22.4325 17.5357H4.42249C3.60331 17.5324 2.79995 17.7611 2.10547 18.1952" stroke="white" stroke-width="1.2" stroke-linecap="round"/>
<path d="M2.18945 9.57422C2.92036 10.0781 3.7874 10.3479 4.67542 10.3476H22.6904C23.4356 10.3512 24.1687 10.1604 24.8174 9.79413" stroke="white" stroke-width="1.2" stroke-linecap="round"/>
<path d="M23.5 15C25.1811 15 26.8245 15.4985 28.2223 16.4325C29.6202 17.3665 30.7096 18.694 31.353 20.2472C31.9963 21.8004 32.1646 23.5094 31.8367 25.1583C31.5087 26.8071 30.6992 28.3217 29.5104 29.5104C28.3217 30.6992 26.8071 31.5087 25.1583 31.8367C23.5094 32.1646 21.8004 31.9963 20.2472 31.353C18.694 30.7096 17.3665 29.6202 16.4325 28.2223C15.4985 26.8245 15 25.1811 15 23.5C15 21.2457 15.8955 19.0837 17.4896 17.4896C19.0837 15.8955 21.2457 15 23.5 15Z" fill="#FFB639"/>
<path d="M23.4983 20.4651C23.4093 20.4653 23.3212 20.448 23.2389 20.4142C23.1566 20.3804 23.0817 20.3306 23.0187 20.2678C22.9556 20.2051 22.9056 20.1305 22.8713 20.0483C22.8371 19.9662 22.8195 19.8781 22.8193 19.7891V18.6761C22.8193 18.496 22.8909 18.3233 23.0182 18.1959C23.1455 18.0686 23.3183 17.9971 23.4983 17.9971C23.6784 17.9971 23.8511 18.0686 23.9785 18.1959C24.1058 18.3233 24.1773 18.496 24.1773 18.6761V19.7891C24.1772 19.8781 24.1595 19.9662 24.1253 20.0483C24.0911 20.1305 24.0411 20.2051 23.978 20.2678C23.9149 20.3306 23.8401 20.3804 23.7578 20.4142C23.6755 20.448 23.5873 20.4653 23.4983 20.4651Z" fill="white"/>
<path d="M23.4983 29.0012C23.4093 29.0015 23.3212 28.9842 23.2389 28.9503C23.1566 28.9165 23.0817 28.8668 23.0187 28.804C22.9556 28.7412 22.9056 28.6666 22.8713 28.5844C22.8371 28.5023 22.8195 28.4142 22.8193 28.3252V27.2122C22.8193 27.0321 22.8909 26.8594 23.0182 26.7321C23.1455 26.6047 23.3183 26.5332 23.4983 26.5332C23.6784 26.5332 23.8511 26.6047 23.9785 26.7321C24.1058 26.8594 24.1773 27.0321 24.1773 27.2122V28.3252C24.1772 28.4142 24.1595 28.5023 24.1253 28.5844C24.0911 28.6666 24.0411 28.7412 23.978 28.804C23.9149 28.8668 23.8401 28.9165 23.7578 28.9503C23.6755 28.9842 23.5873 29.0015 23.4983 29.0012Z" fill="white"/>
<path d="M23.5 27.8873C22.7693 27.943 22.0458 27.71 21.4849 27.2383C20.924 26.7666 20.5704 26.0938 20.5 25.3643C20.5 25.1842 20.5716 25.0115 20.6989 24.8841C20.8262 24.7568 20.9989 24.6853 21.179 24.6853C21.3591 24.6853 21.5318 24.7568 21.6591 24.8841C21.7865 25.0115 21.858 25.1842 21.858 25.3643C21.858 25.9993 22.61 26.5353 23.5 26.5353C24.39 26.5353 25.142 25.9983 25.142 25.3643C25.142 24.8863 24.362 24.5643 23.262 24.1503C22.031 23.6923 20.499 23.1233 20.499 21.6703C20.5694 20.9408 20.923 20.268 21.4839 19.7962C22.0448 19.3245 22.7683 19.0915 23.499 19.1473C24.2298 19.0915 24.9533 19.3245 25.5142 19.7962C26.0751 20.268 26.4286 20.9408 26.499 21.6703C26.499 21.8504 26.4275 22.0231 26.3001 22.1504C26.1728 22.2777 26.0001 22.3493 25.82 22.3493C25.6399 22.3493 25.4672 22.2777 25.3399 22.1504C25.2126 22.0231 25.141 21.8504 25.141 21.6703C25.141 21.0353 24.389 20.4993 23.499 20.4993C22.609 20.4993 21.858 21.0353 21.858 21.6703C21.858 22.1493 22.638 22.4753 23.739 22.8853C24.97 23.3433 26.501 23.9123 26.501 25.3643C26.4306 26.0938 26.0771 26.7666 25.5162 27.2383C24.9553 27.71 24.2308 27.943 23.5 27.8873Z" fill="white"/>
</svg>
