<svg width="32" height="32" viewBox="0 0 32 32" fill="none" xmlns="http://www.w3.org/2000/svg">
<path d="M29.5528 9.22361C30.2177 8.89116 31 9.37465 31 10.118V21.882C31 22.6253 30.2177 23.1088 29.5528 22.7764L23 19.5V12.5L29.5528 9.22361Z" fill="#F695B0"/>
<path d="M1 9C1 7.34315 2.34315 6 4 6H23C24.6569 6 26 7.34315 26 9V23C26 24.6569 24.6569 26 23 26H4C2.34315 26 1 24.6569 1 23V9Z" fill="#E97192"/>
<path d="M12 12.9343C12 12.5349 12.4451 12.2967 12.7774 12.5182L17.376 15.584C17.6728 15.7819 17.6728 16.2181 17.376 16.416L12.7773 19.4818C12.4451 19.7033 12 19.4651 12 19.0657V12.9343Z" fill="white"/>
</svg>
