<svg width="32" height="32" viewBox="0 0 32 32" fill="none" xmlns="http://www.w3.org/2000/svg">
<path d="M26 6H6C3.79086 6 2 7.79086 2 10V22C2 24.2091 3.79086 26 6 26H26C28.2091 26 30 24.2091 30 22V10C30 7.79086 28.2091 6 26 6Z" fill="#6EC4F6"/>
<path d="M6 6H26C27.0609 6 28.0783 6.42143 28.8284 7.17157C29.5786 7.92172 30 8.93913 30 10H2C2 8.93913 2.42143 7.92172 3.17157 7.17157C3.92172 6.42143 4.93913 6 6 6Z" fill="#2B9CDE"/>
<path d="M7 20.5H15" stroke="white" stroke-width="2" stroke-linecap="round"/>
</svg>
