<svg width="32" height="32" viewBox="0 0 32 32" fill="none" xmlns="http://www.w3.org/2000/svg">
<path d="M18.5 1H13.5C6.59644 1 1 6.59644 1 13.5V18.5C1 25.4036 6.59644 31 13.5 31H18.5C25.4036 31 31 25.4036 31 18.5V13.5C31 6.59644 25.4036 1 18.5 1Z" fill="#B3B3B3"/>
<path fill-rule="evenodd" clip-rule="evenodd" d="M15.4 16.6593C13.09 14.7543 14.05 13.9343 14.05 13.9343C15.005 12.7993 14.08 12.3443 14.08 12.3443L12.93 11.3943C12.18 10.7743 11.36 11.7093 11.04 12.0943C9.81003 13.5643 11.495 16.6693 13.8 18.5643C16.685 20.9343 19.5 21.5393 20.725 20.0743C21.035 19.7093 21.835 18.7343 21.08 18.1043L19.925 17.1543C19.925 17.1543 19.31 16.3393 18.355 17.4743C17.72 18.2343 16.17 17.2893 15.405 16.6543L15.4 16.6593Z" fill="white"/>
</svg>
