<svg width="32" height="32" viewBox="0 0 32 32" fill="none" xmlns="http://www.w3.org/2000/svg">
<path d="M4 8C4 6.34315 5.34315 5 7 5H25C26.6569 5 28 6.34315 28 8V25C28 26.6569 26.6569 28 25 28H7C5.34315 28 4 26.6569 4 25V8Z" fill="#4579FF"/>
<path d="M20.9028 16.8926C21.0656 16.8927 21.2094 16.9435 21.3283 17.0474C21.4517 17.1553 21.5086 17.2946 21.4874 17.455L21.4863 17.4539C21.4277 18.1601 21.2457 18.8198 20.9376 19.4319C20.6296 20.0437 20.2297 20.5775 19.7379 21.0318C19.2463 21.4859 18.6817 21.844 18.0454 22.1061C17.4066 22.3691 16.7242 22.5 16 22.5C15.0679 22.5 14.2083 22.2884 13.4238 21.8628C12.7399 21.4918 12.1638 21.0112 11.6954 20.423V20.9223C11.6953 21.0882 11.6378 21.2327 11.5227 21.3478C11.4076 21.4627 11.263 21.5194 11.0972 21.5194C10.9313 21.5193 10.7868 21.4628 10.6717 21.3478C10.5566 21.2327 10.5001 21.0881 10.5 20.9223V18.9611C10.5 18.7952 10.5567 18.6507 10.6717 18.5356C10.7868 18.4205 10.9313 18.363 11.0972 18.3629H13.0583C13.2243 18.3629 13.3686 18.4205 13.4838 18.5356C13.599 18.6508 13.6565 18.7951 13.6565 18.9611C13.6565 19.1271 13.599 19.2715 13.4838 19.3866C13.3687 19.5017 13.2243 19.5594 13.0583 19.5594H12.5443C12.9103 20.0556 13.3744 20.4626 13.9388 20.779C14.5633 21.129 15.2497 21.3046 16 21.3046C17.1254 21.3046 18.0896 20.9299 18.8985 20.1808C19.7086 19.4305 20.1686 18.5112 20.2804 17.4181V17.416C20.3 17.2589 20.3705 17.1278 20.4921 17.0316C20.6101 16.9382 20.749 16.8926 20.9028 16.8926Z" fill="white"/>
<path d="M16 11.5C16.9321 11.5 17.7917 11.7116 18.5762 12.1372C19.2598 12.5081 19.8363 12.988 20.3046 13.5759V13.0777C20.3047 12.9118 20.3622 12.7673 20.4773 12.6522C20.5924 12.5373 20.737 12.4806 20.9028 12.4806C21.0687 12.4807 21.2132 12.5372 21.3283 12.6522C21.4434 12.7673 21.4999 12.9119 21.5 13.0777V15.0389C21.5 15.2048 21.4433 15.3493 21.3283 15.4644C21.2132 15.5795 21.0687 15.637 20.9028 15.6371H18.9417C18.7757 15.6371 18.6314 15.5795 18.5162 15.4644C18.401 15.3492 18.3435 15.2049 18.3435 15.0389C18.3435 14.8729 18.401 14.7285 18.5162 14.6134C18.6313 14.4983 18.7757 14.4406 18.9417 14.4406H19.4557C19.0897 13.9444 18.6256 13.5374 18.0612 13.221C17.4367 12.871 16.7503 12.6954 16 12.6954C14.8746 12.6954 13.9104 13.0701 13.1015 13.8192C12.2914 14.5695 11.8314 15.4888 11.7196 16.5819V16.584C11.7 16.7411 11.6295 16.8722 11.5079 16.9684C11.3899 17.0618 11.251 17.1074 11.0972 17.1074C10.9344 17.1073 10.7906 17.0565 10.6717 16.9526C10.5483 16.8447 10.4914 16.7054 10.5126 16.545C10.5714 15.8392 10.7545 15.1799 11.0624 14.5681C11.3704 13.9563 11.7703 13.4225 12.2621 12.9682C12.7537 12.5141 13.3183 12.156 13.9546 11.8939C14.5934 11.6309 15.2758 11.5 16 11.5Z" fill="white"/>
<rect x="9" y="3" width="2" height="5" rx="1" fill="#4B5F78"/>
<rect x="21" y="3" width="2" height="5" rx="1" fill="#4B5F78"/>
</svg>
