<svg width="32" height="32" viewBox="0 0 32 32" fill="none" xmlns="http://www.w3.org/2000/svg">
<path d="M22 1H10C7.79086 1 6 2.79086 6 5V27C6 29.2091 7.79086 31 10 31H22C24.2091 31 26 29.2091 26 27V5C26 2.79086 24.2091 1 22 1Z" fill="#8295F1"/>
<path d="M22 3H10C8.89543 3 8 3.89543 8 5V27C8 28.1046 8.89543 29 10 29H22C23.1046 29 24 28.1046 24 27V5C24 3.89543 23.1046 3 22 3Z" fill="white"/>
<path d="M11.5 2H20.5V3C20.5 3.53043 20.2893 4.03914 19.9142 4.41421C19.5391 4.78929 19.0304 5 18.5 5H13.5C12.9696 5 12.4609 4.78929 12.0858 4.41421C11.7107 4.03914 11.5 3.53043 11.5 3V2Z" fill="#8295F1"/>
<path d="M14 16.999H18C19.0609 16.999 20.0783 17.4205 20.8284 18.1706C21.5786 18.9207 22 19.9382 22 20.999V21.999C22 22.2642 21.8946 22.5186 21.7071 22.7061C21.5196 22.8937 21.2652 22.999 21 22.999H11C10.7348 22.999 10.4804 22.8937 10.2929 22.7061C10.1054 22.5186 10 22.2642 10 21.999V20.999C10 19.9382 10.4214 18.9207 11.1716 18.1706C11.9217 17.4205 12.9391 16.999 14 16.999Z" fill="#54ADE9"/>
<path d="M16 15.499C17.6569 15.499 19 14.1559 19 12.499C19 10.8422 17.6569 9.49902 16 9.49902C14.3431 9.49902 13 10.8422 13 12.499C13 14.1559 14.3431 15.499 16 15.499Z" fill="#F8C315"/>
</svg>
