<svg width="32" height="32" viewBox="0 0 32 32" fill="none" xmlns="http://www.w3.org/2000/svg">
<path d="M1 16.5C1 13.234 1 11.601 1.61876 10.3463C2.20294 9.16167 3.16167 8.20294 4.34627 7.61876C5.601 7 7.234 7 10.5 7H20.5C23.766 7 25.399 7 26.6537 7.61876C27.8383 8.20294 28.7971 9.16167 29.3812 10.3463C30 11.601 30 13.234 30 16.5C30 19.766 30 21.399 29.3812 22.6537C28.7971 23.8383 27.8383 24.7971 26.6537 25.3812C25.399 26 23.766 26 20.5 26H10.5C7.234 26 5.601 26 4.34627 25.3812C3.16167 24.7971 2.20294 23.8383 1.61876 22.6537C1 21.399 1 19.766 1 16.5Z" fill="#9E9EEE"/>
<path d="M8 12C8 11.4477 8.44772 11 9 11H23C24.6569 11 26 12.3431 26 14V19C26 20.6569 24.6569 22 23 22H9C8.44772 22 8 21.5523 8 21V12Z" fill="#7677E6"/>
<circle cx="4.5" cy="16.5" r="1.5" fill="#FD628C"/>
<path d="M10.875 15.0582C11.0932 14.9385 11.3723 15.0095 11.4985 15.2168L11.75 15.6308L12.0015 15.2177C12.1277 15.0102 12.4067 14.9392 12.625 15.059C12.8432 15.179 12.9177 15.4443 12.7918 15.652L12.5412 16.0652H13.0433C13.2954 16.0652 13.4999 16.2598 13.5 16.4995C13.5 16.7394 13.2955 16.9339 13.0433 16.9339H12.5403L12.7918 17.3479C12.9178 17.5556 12.8432 17.8209 12.625 17.9409C12.4067 18.0608 12.1277 17.9897 12.0015 17.7823L11.75 17.3683L11.4985 17.7831C11.3723 17.9906 11.0933 18.0616 10.875 17.9417C10.6567 17.8218 10.5822 17.5564 10.7082 17.3487L10.9597 16.9339H10.4567C10.2045 16.9339 10 16.7394 10 16.4995C10.0001 16.2598 10.2045 16.0652 10.4567 16.0652H10.9597L10.7082 15.6512C10.5824 15.4435 10.6568 15.1781 10.875 15.0582Z" fill="white"/>
<path d="M15.875 15.0582C16.0932 14.9385 16.3723 15.0095 16.4985 15.2168L16.75 15.6308L17.0015 15.2177C17.1277 15.0102 17.4067 14.9392 17.625 15.059C17.8432 15.179 17.9177 15.4443 17.7918 15.652L17.5412 16.0652H18.0433C18.2954 16.0652 18.4999 16.2598 18.5 16.4995C18.5 16.7394 18.2955 16.9339 18.0433 16.9339H17.5403L17.7918 17.3479C17.9178 17.5556 17.8432 17.8209 17.625 17.9409C17.4067 18.0608 17.1277 17.9897 17.0015 17.7823L16.75 17.3683L16.4985 17.7831C16.3723 17.9906 16.0933 18.0616 15.875 17.9417C15.6567 17.8218 15.5822 17.5564 15.7082 17.3487L15.9597 16.9339H15.4567C15.2045 16.9339 15 16.7394 15 16.4995C15.0001 16.2598 15.2045 16.0652 15.4567 16.0652H15.9597L15.7082 15.6512C15.5824 15.4435 15.6568 15.1781 15.875 15.0582Z" fill="white"/>
<path d="M20.875 15.0582C21.0932 14.9385 21.3723 15.0095 21.4985 15.2168L21.75 15.6308L22.0015 15.2177C22.1277 15.0102 22.4067 14.9392 22.625 15.059C22.8432 15.179 22.9177 15.4443 22.7918 15.652L22.5412 16.0652H23.0433C23.2954 16.0652 23.4999 16.2598 23.5 16.4995C23.5 16.7394 23.2955 16.9339 23.0433 16.9339H22.5403L22.7918 17.3479C22.9178 17.5556 22.8432 17.8209 22.625 17.9409C22.4067 18.0608 22.1277 17.9897 22.0015 17.7823L21.75 17.3683L21.4985 17.7831C21.3723 17.9906 21.0933 18.0616 20.875 17.9417C20.6567 17.8218 20.5822 17.5564 20.7082 17.3487L20.9597 16.9339H20.4567C20.2045 16.9339 20 16.7394 20 16.4995C20.0001 16.2598 20.2045 16.0652 20.4567 16.0652H20.9597L20.7082 15.6512C20.5824 15.4435 20.6568 15.1781 20.875 15.0582Z" fill="white"/>
</svg>
