<svg width="32" height="32" viewBox="0 0 32 32" fill="none" xmlns="http://www.w3.org/2000/svg">
<path d="M13 17H19C20.5913 17 22.1174 17.6321 23.2426 18.7574C24.3679 19.8826 25 21.4087 25 23V24C25 24.5304 24.7893 25.0391 24.4142 25.4142C24.0391 25.7893 23.5304 26 23 26H9C8.46957 26 7.96086 25.7893 7.58579 25.4142C7.21071 25.0391 7 24.5304 7 24V23C7 21.4087 7.63214 19.8826 8.75736 18.7574C9.88258 17.6321 11.4087 17 13 17Z" fill="url(#paint0_linear_262_7336)"/>
<path d="M16 15C18.4853 15 20.5 12.9853 20.5 10.5C20.5 8.01472 18.4853 6 16 6C13.5147 6 11.5 8.01472 11.5 10.5C11.5 12.9853 13.5147 15 16 15Z" fill="url(#paint1_linear_262_7336)"/>
<defs>
<linearGradient id="paint0_linear_262_7336" x1="16" y1="17" x2="16" y2="26" gradientUnits="userSpaceOnUse">
<stop stop-color="#9CE202"/>
<stop offset="1" stop-color="#77C406"/>
</linearGradient>
<linearGradient id="paint1_linear_262_7336" x1="16" y1="6" x2="16" y2="15" gradientUnits="userSpaceOnUse">
<stop stop-color="#FFE939"/>
<stop offset="1" stop-color="#FFBD2B"/>
</linearGradient>
</defs>
</svg>
