<svg width="96" height="28" viewBox="0 0 96 28" fill="none" xmlns="http://www.w3.org/2000/svg">
<path fill-rule="evenodd" clip-rule="evenodd" d="M82.4639 18.2595V12.368H84.8617L84.8577 20.9609H81.3102L78.5514 14.9625L78.5279 20.9589H76.1066V12.366H79.6954L82.4639 18.2595ZM72.7808 17.8961V17.3045L72.7592 16.9673L72.7102 16.6524L72.6376 16.3616L72.5453 16.0911L72.4355 15.8428L72.3079 15.6166L72.1627 15.4127L72.0038 15.227L71.8331 15.0634L71.6506 14.9221L71.4583 14.803L71.2582 14.702L71.0502 14.6233L70.8383 14.5627L70.6205 14.5264L70.4027 14.5062L70.1829 14.5102L69.9651 14.5324L69.7493 14.5748L69.5374 14.6374L69.3314 14.7222L69.1332 14.8272L68.9448 14.9504L68.7643 15.0957L68.5956 15.2613L68.4406 15.445L68.3012 15.6509L68.1757 15.8791L68.0717 16.1274L67.9834 16.3939L67.9186 16.6827L67.8755 16.9916V17.9021H72.7808V17.8961ZM65.6641 17.462L65.6916 16.8159L65.7701 16.2122L65.8976 15.6489L66.0664 15.13L66.2802 14.6536L66.5314 14.2195L66.8179 13.8258L67.1357 13.4745L67.4811 13.1676L67.848 12.9031L68.2365 12.681L68.6427 12.4993L69.0606 12.362L69.4883 12.2671L69.922 12.2126L70.3615 12.1985L70.799 12.2267L71.2346 12.2974L71.6604 12.4064L72.0764 12.5599L72.4786 12.7517L72.8612 12.9838L73.2262 13.2564L73.5656 13.5714L73.8737 13.9227L74.1563 14.3144L74.3996 14.7424L74.6056 15.2128L74.7684 15.7196L74.8881 16.2647L74.9588 16.8462L74.9784 17.462V20.967H72.7769L72.7847 18.316L71.7173 19.4063L70.3438 20.8115L68.9703 19.4063L67.8813 18.2918V20.967H65.6681L65.672 17.462H65.6641ZM53.336 12.362H56.0163V20.9549H53.3321L53.336 12.362ZM40.5881 15.0957L40.5724 14.9584L40.5665 14.9241L40.5606 14.8898L40.5527 14.8575L40.5449 14.8232L40.537 14.7909L40.5292 14.7606L40.5194 14.7303L40.5076 14.7L40.4958 14.6717L40.4841 14.6455L40.4703 14.6172L40.4566 14.591L40.4409 14.5647L40.4272 14.5385L40.4115 14.5142L40.3938 14.49L40.3761 14.4658L40.3585 14.4456L40.3389 14.4234L40.3192 14.4012L40.2996 14.381L40.28 14.3628L40.2565 14.3406L40.2349 14.3204L40.2113 14.3063L40.1858 14.2901L40.1623 14.272L40.1348 14.2558L40.1093 14.2417L40.0818 14.2255L40.0544 14.2114L40.0288 14.2013L40.0033 14.1892L39.9759 14.1771L39.9464 14.167L39.919 14.1569L39.8895 14.1488L39.8601 14.1387L39.8307 14.1286L39.7993 14.1205L39.7679 14.1125L39.7365 14.1024L39.7031 14.0943L39.6698 14.0862L39.6364 14.0802L39.6011 14.0741L39.5697 14.068H39.5422L39.5108 14.06L39.4814 14.0559H39.4481L39.4108 14.0499H39.3755L39.3382 14.0458H39.2989L39.2577 14.0398H39.2165L39.1734 14.0378H39.1302H39.087H39.0399H38.9928H38.8869H38.8575H38.828L38.7986 14.0418H38.7711L38.7436 14.0479H38.7142L38.6867 14.0539L38.6573 14.058L38.6298 14.062L38.6024 14.066L38.5749 14.0721L38.5474 14.0761L38.52 14.0822L38.4925 14.0882L38.465 14.0963L38.4395 14.1024L38.414 14.1104L38.3885 14.1185L38.363 14.1266L38.3375 14.1367L38.312 14.1468L38.2865 14.1549L38.261 14.165L38.2374 14.1751L38.2119 14.1872L38.1864 14.1993L38.1629 14.2114L38.1393 14.2215L38.1138 14.2356L38.0903 14.2457L38.0432 14.276L37.998 14.3023L37.9509 14.3325L37.9078 14.3648L37.8666 14.3971L37.8254 14.4315L37.7842 14.4678L37.7449 14.5042L37.7076 14.5425L37.6704 14.5829L37.635 14.6233L37.6017 14.6657L37.5683 14.7121L37.5369 14.7606L37.5075 14.807L37.4761 14.8575L37.4624 14.8837L37.4467 14.91L37.431 14.9382L37.4172 14.9625L37.4035 14.9907L37.3898 15.015L37.3741 15.0432L37.3603 15.0695L37.3466 15.0977L37.3348 15.124L37.3211 15.1502L37.3093 15.1785L37.2995 15.2047L37.2897 15.233L37.2779 15.2593L37.2662 15.2855L37.2564 15.3138L37.2465 15.34L37.2367 15.3703L37.2269 15.3966L37.2171 15.4228L37.2093 15.4511L37.1995 15.4793L37.1916 15.5076L37.1818 15.5359L37.1739 15.5641L37.1661 15.5904L37.1582 15.6186L37.1504 15.6469L37.1425 15.6752L37.1386 15.7014L37.1308 15.7317L37.121 15.766L37.1151 15.7983L37.1053 15.8286L37.0994 15.8609L37.0935 15.8932L37.0876 15.9235L37.0817 15.9558L37.0758 15.9881L37.0719 16.0204L37.066 16.0527L37.0601 16.087L37.0562 16.1194L37.0503 16.1517L37.0464 16.184L37.0425 16.2183L37.0386 16.2526L37.0346 16.2849L37.0307 16.3192V16.3556L37.0248 16.3899L37.0209 16.4242V16.4585L37.017 16.4929V16.5292L37.013 16.5635V16.5999V16.6362V16.6726V16.7089V16.7836V16.8199V16.9068V16.9492V17.0319L37.015 17.0723L37.0189 17.1107V17.1511L37.0229 17.1874L37.0268 17.2237L37.0307 17.2601L37.0346 17.2944L37.0386 17.3287L37.0444 17.3631L37.0503 17.3954L37.0562 17.4236L37.0641 17.4539L37.0739 17.4862L37.0817 17.5165L37.0915 17.5448L37.1013 17.573L37.1072 17.5993L37.117 17.6255L37.1249 17.6498L37.1327 17.672L37.1406 17.6942L37.1465 17.7164L37.1524 17.7366L37.1582 17.7568L37.1622 17.7729L37.1661 17.7911V17.8012L37.1838 17.8678L37.2073 17.9324L37.2269 17.997L37.2505 18.0637L37.274 18.1262L37.2995 18.1868L37.327 18.2454L37.3564 18.3059L37.3898 18.3604L37.4212 18.4129L37.4565 18.4675L37.4918 18.5179L37.531 18.5684L37.5723 18.6148L37.6135 18.6613L37.6586 18.7037L37.7057 18.7461L37.7528 18.7865L37.8038 18.8248L37.8568 18.8591L37.9117 18.8935L37.9686 18.9258L38.0314 18.9561L38.0942 18.9843L38.1609 19.0106L38.2296 19.0308L38.3022 19.053L38.3767 19.0732L38.4552 19.0893L38.5357 19.1034L38.6181 19.1135L38.7005 19.1216L40.6253 19.1014V17.8113H38.8535V15.9578H43.2958V20.9084L38.3414 20.9185H38.2708L38.1982 20.9205H37.9313L37.8685 20.9185H37.8057L37.7449 20.9145H37.6841L37.6252 20.9064L37.5644 20.9024L37.5055 20.8963L37.4467 20.8903L37.3878 20.8822L37.3289 20.8741L37.272 20.864L37.2132 20.8519L37.1563 20.8398L37.0974 20.8256L37.0386 20.8095L36.9817 20.7913L36.9228 20.7732L36.8639 20.753L36.8031 20.7287L36.7423 20.7045L36.6814 20.6803L36.6206 20.652L36.5559 20.6217L36.4931 20.5914L36.4283 20.5571L36.3616 20.5228L36.3028 20.4885L36.2439 20.4521L36.185 20.4178L36.1281 20.3794L36.0712 20.3431L36.0143 20.3047L35.9594 20.2664L35.9044 20.224L35.8495 20.1816L35.7965 20.1412L35.7455 20.0988L35.6925 20.0564L35.6435 20.012L35.5944 19.9656L35.5454 19.9211L35.4963 19.8747L35.4492 19.8262L35.4021 19.7778L35.357 19.7293L35.3099 19.6789L35.2648 19.6284L35.2216 19.5779L35.1785 19.5234L35.1372 19.4709L35.0941 19.4184L35.0529 19.3639L35.0136 19.3074L34.9744 19.2528L34.9351 19.1963L34.8959 19.1378L34.8586 19.0792L34.8194 19.0207L34.8037 18.9884L34.786 18.9621L34.7723 18.9338L34.7566 18.9036L34.7409 18.8753L34.7252 18.847L34.7115 18.8147L34.6958 18.7865L34.682 18.7562L34.6703 18.7239L34.6546 18.6936L34.6408 18.6613L34.6251 18.629L34.6114 18.5967L34.5996 18.5623L34.5859 18.53L34.5722 18.4957L34.5584 18.4614L34.5447 18.4271L34.5329 18.3907L34.5192 18.3564L34.5074 18.3221L34.4937 18.2857L34.4819 18.2514L34.4682 18.2131L34.4544 18.1767L34.4427 18.1424L34.4309 18.102L34.4191 18.0657L34.4073 18.0253L34.3956 17.9869L34.3838 17.9445L34.374 17.9062L34.3642 17.8678L34.3544 17.8315L34.3465 17.7931L34.3367 17.7568L34.3288 17.7184L34.321 17.68L34.3151 17.6417L34.3073 17.6053L34.3014 17.567L34.2955 17.5286L34.2876 17.4903L34.2818 17.4539L34.2759 17.4156L34.27 17.3772L34.2621 17.3388L34.2582 17.2985L34.2543 17.2601L34.2504 17.2217L34.2464 17.1834L34.2425 17.143L34.2386 17.1046L34.2347 17.0642V17.0259L34.2327 16.9855L34.2288 16.9451V16.9047L34.2249 16.8644V16.824V16.7836V16.5413L34.2268 16.4868L34.2307 16.4343V16.3798L34.2366 16.3273L34.2406 16.2748L34.2445 16.2203L34.2484 16.1678L34.2543 16.1173L34.2602 16.0648L34.268 16.0103L34.2739 15.9578L34.2818 15.9074L34.2896 15.8569L34.2975 15.8044L34.3053 15.7539L34.3131 15.7014L34.323 15.6509L34.3328 15.6005L34.3406 15.552L34.3524 15.4995L34.3642 15.4511L34.3779 15.4006L34.3916 15.3501L34.4034 15.2996L34.4171 15.2512L34.4309 15.2027L34.4446 15.1543L34.4603 15.1058L34.474 15.0574L34.4897 15.0089L34.5074 14.9625L34.5251 14.914L34.5427 14.8656L34.5623 14.8171L34.582 14.7686L34.6016 14.7202L34.6212 14.6717L34.6428 14.6253L34.6644 14.5768L34.686 14.5304L34.7075 14.4819L34.7311 14.4355L34.7566 14.3871L34.7801 14.3386L34.8056 14.2922L34.8312 14.2457L34.8586 14.1993L34.8841 14.1528L34.9136 14.1044L34.941 14.06L34.9685 14.0135L34.9979 13.9671L35.0293 13.9207L35.0588 13.8762L35.0902 13.8298L35.1235 13.7854L35.1569 13.741L35.1902 13.6966L35.2216 13.6521L35.2569 13.6077L35.2923 13.5593L35.3688 13.4724L35.4453 13.3876L35.5238 13.3069L35.6062 13.2302L35.6906 13.1555L35.7769 13.0828L35.8672 13.0141L35.9613 12.9475L36.0555 12.8829L36.1536 12.8203L36.2537 12.7618L36.3577 12.7052L36.4636 12.6547L36.5735 12.6023L36.6854 12.5558L36.7972 12.5094L36.9149 12.469L37.0327 12.4286L37.1524 12.3923L37.276 12.358L37.4035 12.3277L37.531 12.2994L37.6605 12.2732L37.794 12.2509L37.9313 12.2308L38.0706 12.2126L38.2099 12.1964L38.3532 12.1843L38.4984 12.1742L38.6475 12.1661L38.7966 12.1621H38.9516H39.0125H39.138L39.1989 12.1641H39.2597H39.3186H39.3755L39.4363 12.1682H39.4932L39.5481 12.1722L39.607 12.1762H39.6639L39.7208 12.1823H39.7757L39.8307 12.1884L39.8856 12.1924L39.9386 12.1964L39.9916 12.2025L40.0445 12.2065L40.0975 12.2106L40.1485 12.2146L40.2015 12.2207L40.2506 12.2267L40.3016 12.2308L40.3487 12.2368L40.3958 12.2429L40.4448 12.2509L40.4939 12.257L40.5429 12.2631L40.5881 12.2711L40.6351 12.2772L40.6822 12.2832L40.7293 12.2913L40.7745 12.3014L40.8176 12.3115L40.8628 12.3196L40.9059 12.3297L40.9491 12.3398L40.9923 12.3499L41.0354 12.362L41.0786 12.3721L41.1198 12.3822L41.163 12.3963L41.2061 12.4084L41.2493 12.4205L41.2905 12.4327L41.3317 12.4468L41.3749 12.4609L41.4141 12.4751L41.4553 12.4892L41.4946 12.5033L41.5358 12.5175L41.575 12.5316L41.6182 12.5477L41.6574 12.5639L41.6967 12.578L41.7339 12.5942L41.7751 12.6123L41.8124 12.6285L41.8517 12.6467L41.8889 12.6628L41.9262 12.679L41.9655 12.6992L42.0028 12.7173L42.0773 12.7557L42.146 12.7961L42.2147 12.8405L42.2814 12.8849L42.3442 12.9313L42.407 12.9818L42.4658 13.0323L42.5247 13.0848L42.5796 13.1413L42.6306 13.1999L42.6817 13.2584L42.7307 13.321L42.7758 13.3836L42.819 13.4502L42.8602 13.5189L42.8994 13.5895L42.9367 13.6622L42.9681 13.7369L43.0015 13.8116L43.0309 13.8884L43.0584 13.9671L43.0819 14.0499L43.1035 14.1327L43.1231 14.2175L43.1428 14.3023L43.1585 14.3911L43.1702 14.4819L43.182 14.5728L43.1898 14.6657L43.1938 14.7606L43.1997 14.8575V15.0695H40.5704L40.5881 15.0957ZM86.3548 12.368H88.988V15.8104L91.6251 12.3701H94.7802L91.6644 16.1759L95 20.9629H91.7154L89.0076 16.7796L88.9841 20.9629H86.3548V12.368ZM61.0727 14.2255H60.0289V15.6873H61.2454L61.3043 15.6832H61.3631L61.4161 15.6752L61.4691 15.6671L61.5181 15.657L61.5652 15.6469L61.6104 15.6348L61.6516 15.6227L61.6947 15.6085L61.734 15.5944L61.7693 15.5762L61.8027 15.5581L61.836 15.5359L61.8654 15.5177L61.8929 15.4975L61.9204 15.4713L61.9439 15.447L61.9675 15.4208L61.9871 15.3925L62.0067 15.3622L62.0244 15.334L62.042 15.2996L62.0558 15.2653L62.0695 15.229L62.0813 15.1926L62.0891 15.1523L62.0989 15.1099L62.1048 15.0654L62.1107 15.019L62.1146 14.9726V14.9221V14.8777L62.1107 14.8353L62.1048 14.7949L62.0989 14.7545L62.0891 14.7202L62.0793 14.6838L62.0675 14.6495L62.0538 14.6192L62.0381 14.589L62.0205 14.5587L62.0028 14.5324L61.9832 14.5042L61.9616 14.4799L61.9361 14.4557L61.9106 14.4335L61.8831 14.4113L61.8537 14.3911L61.8203 14.3709L61.787 14.3527L61.7497 14.3366L61.7124 14.3204L61.6712 14.3043L61.63 14.2922L61.5829 14.28L61.5358 14.2699L61.4867 14.2599L61.4338 14.2538L61.3808 14.2477L61.3239 14.2397L61.265 14.2336H61.1414H61.0668L61.0727 14.2255ZM61.0727 17.5205H60.0289V19.0913H61.3592L61.3926 19.0873H61.424L61.4573 19.0853L61.4867 19.0812L61.5181 19.0772L61.5476 19.0732L61.5731 19.0691L61.6025 19.0651L61.628 19.061L61.6535 19.055L61.679 19.0489L61.7045 19.0449L61.7281 19.0388L61.7497 19.0328L61.7713 19.0247L61.7928 19.0166L61.8164 19.0106L61.836 19.0025L61.8537 18.9924L61.8733 18.9843L61.8909 18.9742L61.9086 18.9641L61.9263 18.954L61.9439 18.9439L61.9577 18.9338L61.9734 18.9197L61.9891 18.9096L62.0028 18.8955L62.0146 18.8834L62.0401 18.8571L62.0636 18.8309L62.0852 18.8046L62.1087 18.7764L62.1284 18.7481L62.148 18.7158L62.1656 18.6875L62.1794 18.6572L62.1951 18.6249L62.2069 18.5906L62.2186 18.5563L62.2284 18.5199L62.2382 18.4836L62.2441 18.4432L62.252 18.4028L62.2559 18.3685V18.3261L62.2539 18.3019V18.2777L62.2481 18.2534V18.2272L62.2422 18.2009L62.2363 18.1767L62.2304 18.1505L62.2245 18.1222L62.2167 18.096L62.2108 18.0677L62.201 18.0414L62.1931 18.0152L62.1794 17.9869L62.1715 17.9647L62.1578 17.9425L62.1441 17.9163L62.1264 17.892L62.1107 17.8678L62.093 17.8456L62.0754 17.8234L62.0577 17.8032L62.0381 17.781L62.0185 17.7608L61.9989 17.7426L61.9773 17.7224L61.9577 17.7043L61.9361 17.6881L61.9125 17.672L61.8909 17.6578L61.8654 17.6417L61.8399 17.6255L61.8144 17.6114L61.7909 17.5973L61.7673 17.5851L61.7418 17.573L61.7163 17.5629L61.6928 17.5549L61.6692 17.5448L61.6457 17.5387L61.6202 17.5327L61.5966 17.5286L61.5711 17.5246H61.5456L61.5201 17.5185H61.4691H61.0747L61.0727 17.5205ZM61.5358 12.366H61.6064L61.6731 12.3721L61.7438 12.3761L61.8085 12.3802L61.8792 12.3862L61.9459 12.3923L62.0146 12.3983L62.0852 12.4064L62.1519 12.4145L62.2206 12.4246L62.2893 12.4327L62.356 12.4428L62.4246 12.4528L62.4933 12.4629L62.562 12.4771L62.6307 12.4912L62.7013 12.5033L62.77 12.5175L62.8387 12.5336L62.9073 12.5498L62.976 12.5639L63.0447 12.5821L63.1134 12.5982L63.1801 12.6164L63.2487 12.6346L63.3174 12.6547L63.3861 12.677L63.4548 12.6971L63.5234 12.7194L63.5921 12.7416L63.6588 12.7678L63.7236 12.7941L63.7864 12.8243L63.8492 12.8546L63.908 12.8869L63.9669 12.9213L64.0238 12.9596L64.0768 12.996L64.1317 13.0384L64.1827 13.0808L64.2298 13.1232L64.2769 13.1676L64.322 13.218L64.3652 13.2665L64.4084 13.317L64.4496 13.3695L64.4869 13.424L64.5241 13.4805L64.5575 13.537L64.5908 13.5956L64.6222 13.6562L64.6497 13.7208L64.6772 13.7834L64.7027 13.85L64.7262 13.9186L64.7478 13.9873L64.7674 14.06L64.7851 14.1327L64.8028 14.2074L64.8165 14.2821L64.8322 14.3648L64.8459 14.6273V14.6697L64.842 14.7121V14.7525L64.8361 14.7929V14.8332L64.8283 14.8736L64.8243 14.914L64.8165 14.9524L64.8086 14.9907L64.8008 15.0311L64.7929 15.0695L64.7812 15.1078L64.7694 15.1462L64.7596 15.1825L64.7478 15.2209L64.7341 15.2572L64.7203 15.2936L64.7066 15.3299L64.6909 15.3642L64.6752 15.4006L64.6595 15.4369L64.6399 15.4733L64.6222 15.5076L64.6046 15.5419L64.583 15.5762L64.5634 15.6085L64.5418 15.6409L64.5202 15.6752L64.4967 15.7075L64.4751 15.7398L64.4496 15.7721L64.4221 15.8044L64.3907 15.8407L64.3574 15.8771L64.324 15.9114L64.2867 15.9457L64.2494 15.98L64.2122 16.0144L64.1729 16.0467L64.1317 16.079L64.0885 16.1093L64.0454 16.1375L64.0042 16.1678L63.959 16.1981L63.9139 16.2243L63.8688 16.2506L63.8197 16.2768L63.7707 16.3031L63.7216 16.3273L63.6706 16.3536L63.6196 16.3778L63.5666 16.4L63.5117 16.4222L63.4587 16.4424L63.4038 16.4646L63.3468 16.4848L63.2939 16.5009L63.3115 16.505L63.6372 16.6261L63.6843 16.6423L63.7334 16.6625L63.7824 16.6806L63.8295 16.6988L63.8766 16.721L63.9237 16.7412L63.9688 16.7634L64.014 16.7856L64.0571 16.8099L64.1003 16.8341L64.1415 16.8603L64.1827 16.8866L64.222 16.9148L64.2612 16.9451L64.3004 16.9734L64.3338 17.0017L64.3711 17.0299L64.4103 17.0602L64.4476 17.0925L64.4849 17.1268L64.5202 17.1632L64.5555 17.1995L64.5869 17.2399L64.6222 17.2803L64.6556 17.3207L64.687 17.3651L64.7164 17.4095L64.7459 17.4539L64.7733 17.5004L64.8008 17.5468L64.8263 17.5952L64.8557 17.6477L64.8695 17.676L64.8812 17.7023L64.893 17.7285L64.9048 17.7568L64.9146 17.783L64.9264 17.8072L64.9342 17.8355L64.944 17.8638L64.9519 17.89L64.9597 17.9183L64.9676 17.9466L64.9774 17.9728L64.9852 17.999L64.9931 18.0273L64.999 18.0536L65.0029 18.0838L65.0107 18.1121L65.0147 18.1404L65.0225 18.1686L65.0264 18.1969L65.0304 18.2252L65.0343 18.2534L65.0382 18.2837V18.312L65.0421 18.3403V18.3705L65.048 18.3988V18.4271V18.4553V18.4836V18.5159V18.5442L65.0441 18.6916L65.0343 18.8349L65.0166 18.9742L64.9911 19.1095L64.9597 19.2407L64.9205 19.3659L64.8714 19.4891L64.8184 19.6062L64.7557 19.7152L64.687 19.8242L64.6124 19.9272L64.53 20.0241L64.4398 20.119L64.3436 20.2058L64.2396 20.2886L64.1297 20.3673L64.014 20.44L63.8884 20.5066L63.7589 20.5713L63.6216 20.6278L63.4783 20.6803L63.3292 20.7287L63.1722 20.7732L63.0094 20.8115L62.8387 20.8458L62.6621 20.8761L62.4796 20.9004L62.2912 20.9185L62.095 20.9347L61.8949 20.9468L61.6869 20.9508H61.471L61.0767 20.9528H57.378V12.36H61.0767H61.3357H61.4024H61.471H61.5378L61.5358 12.366ZM48.3718 14.2235H47.2573V15.9154H48.4444L48.5151 15.9074L48.5838 15.8973L48.6485 15.8892L48.7133 15.8811L48.7741 15.869L48.8329 15.8569L48.8879 15.8407L48.9389 15.8246L48.9899 15.8064L49.035 15.7862L49.0802 15.766L49.1233 15.7418L49.1626 15.7176L49.2018 15.6933L49.2352 15.6651L49.2685 15.6368L49.2999 15.6065L49.3274 15.5783L49.3529 15.5439L49.3784 15.5096L49.4 15.4753L49.4196 15.4369L49.4373 15.3986L49.453 15.3582L49.4667 15.3138L49.4785 15.2694L49.4863 15.2229L49.4961 15.1745L49.5001 15.124L49.504 15.0715V15.015V14.9705L49.5001 14.9241L49.4961 14.8817L49.4863 14.8393L49.4785 14.7989L49.4667 14.7606L49.453 14.7242L49.4373 14.6899L49.4196 14.6556L49.4 14.6253L49.3804 14.595L49.3549 14.5647L49.3294 14.5365L49.3019 14.5082L49.2725 14.4819L49.2411 14.4577L49.2057 14.4335L49.1685 14.4113L49.1292 14.3891L49.088 14.3689L49.0409 14.3507L48.9938 14.3325L48.9428 14.3164L48.8898 14.3002L48.8349 14.2881L48.778 14.274L48.7172 14.2619L48.6524 14.2518L48.5877 14.2437L48.519 14.2356L48.4484 14.2296L48.3777 14.2255L48.3718 14.2235ZM49.4177 12.4064L49.502 12.4165L49.5884 12.4266L49.6727 12.4387L49.7571 12.4508L49.8395 12.4629L49.9219 12.4771L50.0043 12.4932L50.0848 12.5074L50.1652 12.5255L50.2418 12.5437L50.3202 12.5619L50.3987 12.5821L50.4733 12.6023L50.5478 12.6265L50.6244 12.6467L50.6989 12.6709L50.7696 12.6951L50.8402 12.7214L50.9108 12.7456L50.9815 12.7739L51.0502 12.8021L51.1169 12.8284L51.1855 12.8566L51.2523 12.889L51.317 12.9213L51.3798 12.9576L51.4426 12.9919L51.5014 13.0303L51.5583 13.0707L51.6113 13.1131L51.6663 13.1555L51.7173 13.2019L51.7644 13.2483L51.8095 13.2968L51.8546 13.3473L51.8978 13.3998L51.937 13.4523L51.9743 13.5108L52.0077 13.5673L52.041 13.6279L52.0705 13.6885L52.0979 13.749L52.1234 13.8137L52.147 13.8783L52.1666 13.9429L52.1862 14.0115L52.2019 14.0802L52.2176 14.1528L52.2314 14.2255L52.2412 14.2982L52.251 14.3729L52.2549 14.4496L52.2588 14.5284V14.7283L52.2549 14.7868L52.251 14.8454L52.2451 14.9039L52.2372 14.9584L52.2294 15.015L52.2196 15.0715L52.2078 15.126L52.196 15.1805L52.1823 15.233L52.1686 15.2835L52.1509 15.336L52.1333 15.3885L52.1156 15.4369L52.094 15.4834L52.0724 15.5318L52.0508 15.5783L52.0273 15.6247L52.0018 15.6691L51.9763 15.7135L51.9488 15.7559L51.9194 15.7983L51.888 15.8387L51.8566 15.8791L51.8252 15.9175L51.7918 15.9558L51.7565 15.9962L51.7192 16.0325L51.682 16.0689L51.6427 16.1052L51.6035 16.1395L51.5623 16.1718L51.5191 16.2062L51.4779 16.2385L51.4328 16.2667L51.3896 16.299L51.3445 16.3293L51.2974 16.3576L51.2523 16.3859L51.2071 16.4121L51.16 16.4384L51.1129 16.4626L51.0619 16.4868L51.0109 16.5131L50.9619 16.5332L50.9108 16.5555L50.8598 16.5777L50.8069 16.5979L50.7539 16.618L50.7009 16.6362L50.646 16.6524L50.5891 16.6705H50.5812L50.6028 16.6746L50.6577 16.6847L50.7107 16.6988L50.7617 16.7109L50.8127 16.7271L50.8638 16.7432L50.9089 16.7614L50.956 16.7796L51.0011 16.7977L51.0443 16.8179L51.0874 16.8401L51.1306 16.8644L51.1698 16.8866L51.2091 16.9128L51.2464 16.9391L51.2817 16.9673L51.315 16.9976L51.3484 17.0259L51.3778 17.0582L51.4073 17.0905L51.4367 17.1248L51.4622 17.1571L51.4877 17.1914L51.5113 17.2258L51.5348 17.2641L51.5603 17.3005L51.5819 17.3408L51.6054 17.3812L51.6251 17.4216L51.6447 17.464L51.6682 17.5084L51.6859 17.5528L51.7055 17.6013L51.7251 17.6498L51.7448 17.7002L51.7624 17.7487L51.7781 17.8032L51.7958 17.8557L51.8115 17.9102L51.8291 17.9667L51.8429 18.0253L51.8586 18.0838L51.8723 18.1424L51.886 18.205L51.8998 18.2696L51.9135 18.3342L51.9253 18.4008L51.937 18.4695L51.9508 18.5381L51.9625 18.6088L51.9724 18.6774L51.9841 18.7501L51.992 18.8268L52.0018 18.9015L52.0096 18.9762L52.0195 19.0489L52.0312 19.1196L52.041 19.1903L52.0508 19.2609L52.0626 19.3296L52.0705 19.3962L52.0822 19.4648L52.094 19.5315L52.1058 19.5961L52.1176 19.6587L52.1293 19.7213L52.1431 19.7859L52.1548 19.8485L52.1666 19.909L52.1803 19.9696L52.1941 20.0281L52.2078 20.0867L52.2196 20.1432L52.2353 20.1998L52.251 20.2563L52.2647 20.3108L52.2785 20.3653L52.2941 20.4178L52.3098 20.4683L52.3255 20.5188L52.3393 20.5692L52.355 20.6177L52.3746 20.6661L52.3923 20.7146L52.4099 20.761L52.4884 20.9609H49.5982L49.5707 20.862L49.5648 20.8438L49.5589 20.8236L49.555 20.8034L49.5491 20.7812L49.5452 20.761L49.5393 20.7388L49.5334 20.7166L49.5275 20.6924L49.5217 20.6661L49.5158 20.6399L49.5099 20.6137L49.502 20.5854L49.4961 20.5571L49.4903 20.5268V20.4966L49.4785 20.4642L49.4726 20.434L49.4667 20.3996L49.4608 20.3653L49.453 20.331L49.4471 20.2947L49.4412 20.2603L49.4334 20.224L49.4275 20.1856L49.4216 20.1473L49.4157 20.1069L49.4098 20.0685L49.4039 20.0281L49.3961 19.9857L49.3882 19.9413L49.3823 19.8949L49.1979 18.4634L49.192 18.3988L49.1842 18.3423L49.1724 18.2898L49.1606 18.2393L49.1449 18.1949L49.1273 18.1525L49.1076 18.1141L49.0861 18.0798L49.0645 18.0475L49.0409 18.0172L49.0154 17.991L48.988 17.9667L48.9566 17.9445L48.9252 17.9264L48.8918 17.9102L48.8545 17.8941L48.8349 17.89L48.8094 17.8819L48.7839 17.8739L48.7584 17.8678L48.7309 17.8638L48.7015 17.8577L48.672 17.8517L48.6407 17.8476L48.6073 17.8416L48.5759 17.8375L48.5425 17.8315L48.5072 17.8274L48.4699 17.8234H48.4327L48.3915 17.8153L48.3503 17.8113L48.3149 17.8052L48.2816 17.8012H48.2443L48.207 17.7951L48.1678 17.7911H48.1325L48.0913 17.787H48.052L48.0108 17.785L47.9676 17.781H47.8833L47.8381 17.779H47.7479H47.6988H47.2495L47.2456 20.9629H44.5673L44.5692 12.3701H48.6897L48.7839 12.3741L48.8781 12.3781H48.9664L49.0586 12.3862L49.1469 12.3923L49.2371 12.3983L49.3235 12.4044L49.4118 12.4125L49.4177 12.4064Z" fill="white"/>
<path fill-rule="evenodd" clip-rule="evenodd" d="M19.6226 15.7884L19.6618 14.8516L19.7756 13.9733L19.9601 13.1576L20.2093 12.4025L20.5173 11.71L20.8823 11.0781L21.2963 10.5067L21.7554 9.99791L22.2558 9.55171L22.7914 9.16608L23.3546 8.84506L23.9432 8.58259L24.5495 8.38271L25.1735 8.2434L25.8053 8.16466L26.443 8.14648L27.0767 8.18686L27.7066 8.28983L28.3286 8.44933L28.9329 8.66941L29.5196 8.94601L30.0749 9.2852L30.6046 9.67891L31.0952 10.1332L31.5484 10.644L31.9526 11.2133L32.3078 11.8392L32.6041 12.5217L32.8434 13.2586L33.0161 14.0521L33.1162 14.898L33.1436 15.7945V20.8864H29.9434L29.9571 17.0321L28.4031 18.6191L26.4096 20.6582L24.4161 18.6191L22.8346 16.9998V20.8844H19.6187V15.7924L19.6226 15.7884ZM29.963 16.4183L29.9669 15.5603L29.9316 15.0696L29.861 14.6113L29.757 14.1873L29.6236 13.7957L29.4627 13.4343L29.2763 13.1052L29.0663 12.8063L28.8368 12.5398L28.5876 12.3036L28.3207 12.0977L28.0421 11.922L27.7497 11.7767L27.4476 11.6616L27.1395 11.5748L26.8256 11.5182L26.5097 11.492L26.1898 11.496L25.872 11.5303L25.56 11.5909L25.2519 11.6818L24.9517 11.8049L24.6633 11.9543L24.3886 12.136L24.1257 12.348L23.8824 12.5863L23.6567 12.8548L23.4527 13.1536L23.2721 13.4847L23.1171 13.8441L22.9916 14.2338L22.8954 14.6537L22.8346 15.1019V16.4224H29.9591L29.963 16.4183Z" fill="white"/>
<path fill-rule="evenodd" clip-rule="evenodd" d="M17.5239 6.8C17.5239 6.36 17.1739 6 16.7439 6H1.78391C1.35391 6 1.00391 6.36 1.00391 6.8V22.19C1.00391 22.63 1.35391 22.99 1.78391 22.99H16.7439C17.1739 22.99 17.5239 22.63 17.5239 22.19V6.8Z" fill="white" stroke="#BDBDBD" stroke-width="0.22" stroke-miterlimit="2.61"/>
<path fill-rule="evenodd" clip-rule="evenodd" d="M1.69336 7.35926L2.25336 7.11926L1.69336 7.10926V6.98926H2.47336V7.12926L1.93336 7.35926H2.47336V7.48926H1.69336V7.35926Z" fill="#454545"/>
<path fill-rule="evenodd" clip-rule="evenodd" d="M1.69359 8.07961H1.79359C1.75359 8.02961 1.68359 7.98961 1.68359 7.87961C1.68359 7.73961 1.82359 7.59961 2.09359 7.59961C2.31359 7.59961 2.51359 7.69961 2.51359 7.90961C2.51359 8.08961 2.35359 8.15961 2.24359 8.15961V8.02961C2.24359 8.02961 2.38359 7.98961 2.38359 7.89961C2.38359 7.80961 2.29359 7.72961 2.10359 7.72961C1.89359 7.72961 1.83359 7.79961 1.83359 7.89961C1.83359 7.92961 1.84359 8.02961 2.00359 8.04961V7.90961H2.14359V8.14961H1.71359V8.06961L1.69359 8.07961Z" fill="#454545"/>
<path fill-rule="evenodd" clip-rule="evenodd" d="M1.69336 8.69977L1.86336 8.65977V8.43977L1.69336 8.39977V8.25977L2.47336 8.47977V8.61977L1.69336 8.83977V8.69977ZM2.57336 8.59977L2.63336 8.55977L2.57336 8.50977V8.42977L2.69336 8.50977V8.59977L2.57336 8.66977V8.59977ZM2.30336 8.55977L2.00336 8.47977V8.62977L2.30336 8.54977V8.55977Z" fill="#454545"/>
<path fill-rule="evenodd" clip-rule="evenodd" d="M1.69336 9.30945L2.25336 9.04945H1.69336V8.93945H2.47336V9.06945L1.93336 9.30945H2.47336V9.42945H1.69336V9.30945Z" fill="#454545"/>
<path fill-rule="evenodd" clip-rule="evenodd" d="M1.69336 10.2194H2.05336V9.98937H1.69336V9.85938H2.47336V9.98937H2.18336V10.2194H2.47336V10.3494H1.69336V10.2194Z" fill="#454545"/>
<path fill-rule="evenodd" clip-rule="evenodd" d="M1.69336 10.8892L1.86336 10.8492V10.6292L1.69336 10.5892V10.4492L2.48336 10.6692V10.8192L1.69336 11.0292V10.8892ZM2.57336 10.7192L2.69336 10.6192V10.7192L2.57336 10.7792V10.7192ZM2.30336 10.7492L1.99336 10.6692V10.8192L2.30336 10.7392V10.7492Z" fill="#454545"/>
<path fill-rule="evenodd" clip-rule="evenodd" d="M1.69336 11.5194L2.26336 11.2594H1.69336V11.1494H2.48336V11.2794L1.94336 11.5194H2.48336V11.6394H1.69336V11.5194Z" fill="#454545"/>
<path fill-rule="evenodd" clip-rule="evenodd" d="M1.69359 12.2493H1.79359C1.75359 12.1993 1.68359 12.1593 1.68359 12.0493C1.68359 11.9093 1.82359 11.7793 2.09359 11.7793C2.31359 11.7793 2.51359 11.8693 2.51359 12.0693C2.51359 12.2493 2.35359 12.3193 2.24359 12.3193V12.1893C2.24359 12.1893 2.38359 12.1493 2.38359 12.0593C2.38359 11.9693 2.29359 11.8893 2.10359 11.8893C1.89359 11.8893 1.83359 11.9793 1.83359 12.0593C1.83359 12.0993 1.84359 12.1893 2.00359 12.2093V12.0693H2.13359V12.3193H1.70359V12.2293L1.69359 12.2493Z" fill="#454545"/>
<path fill-rule="evenodd" clip-rule="evenodd" d="M1.69336 13.1093L2.26336 12.8693L1.69336 12.8593V12.7393H2.48336V12.8793L1.94336 13.1093H2.48336V13.2393H1.69336V13.1093Z" fill="#454545"/>
<path fill-rule="evenodd" clip-rule="evenodd" d="M1.67383 13.6396C1.67383 13.5596 1.71383 13.3496 2.08383 13.3496C2.45383 13.3496 2.50383 13.5696 2.50383 13.6396C2.50383 13.7096 2.45383 13.9296 2.08383 13.9296C1.71383 13.9296 1.67383 13.7096 1.67383 13.6396ZM2.56383 13.6896L2.65383 13.6396L2.56383 13.5896V13.5096L2.71383 13.5896V13.6896L2.56383 13.7696V13.6896ZM2.36383 13.6396C2.36383 13.5796 2.30383 13.4696 2.08383 13.4696C1.86383 13.4696 1.81383 13.5696 1.81383 13.6396C1.81383 13.7096 1.86383 13.8096 2.08383 13.8096C2.30383 13.8096 2.36383 13.7096 2.36383 13.6396Z" fill="#454545"/>
<path fill-rule="evenodd" clip-rule="evenodd" d="M1.69336 14.4098L2.26336 14.1698H1.69336V14.0498H2.48336V14.1798L1.94336 14.4198H2.48336V14.5398H1.69336V14.4098Z" fill="#454545"/>
<path fill-rule="evenodd" clip-rule="evenodd" d="M1.69359 15.1392H1.79359C1.75359 15.0892 1.68359 15.0492 1.68359 14.9392C1.68359 14.7992 1.82359 14.6592 2.09359 14.6592C2.31359 14.6592 2.51359 14.7592 2.51359 14.9692C2.51359 15.1492 2.35359 15.2292 2.24359 15.2292V15.0992C2.24359 15.0992 2.38359 15.0592 2.38359 14.9692C2.38359 14.8792 2.29359 14.7992 2.10359 14.7992C1.89359 14.7992 1.83359 14.8792 1.83359 14.9692C1.83359 14.9892 1.84359 15.0992 2.00359 15.1192V14.9792H2.13359V15.2192H1.70359V15.1392H1.69359Z" fill="#454545"/>
<path fill-rule="evenodd" clip-rule="evenodd" d="M1.72363 15.83L2.28363 15.58H1.72363V15.46H2.50363V15.59L1.96363 15.83H2.50363V15.95H1.72363V15.83Z" fill="#454545"/>
<path fill-rule="evenodd" clip-rule="evenodd" d="M1.72387 16.5296H1.82387C1.82387 16.5296 1.71387 16.4396 1.71387 16.3396C1.71387 16.1896 1.85387 16.0596 2.12387 16.0596C2.34387 16.0596 2.54387 16.1496 2.54387 16.3496C2.54387 16.5296 2.38387 16.6096 2.27387 16.6196V16.4896C2.27387 16.4896 2.41387 16.4396 2.41387 16.3496C2.41387 16.2596 2.32387 16.1796 2.13387 16.1796C1.92387 16.1796 1.86387 16.2696 1.86387 16.3596C1.86387 16.3896 1.87387 16.4796 2.03387 16.4996V16.3596H2.17387V16.6196H1.74387V16.5296H1.72387Z" fill="#454545"/>
<path fill-rule="evenodd" clip-rule="evenodd" d="M1.72363 17.1093H2.08363V16.8693H1.72363V16.7393H2.50363V16.8693H2.21363V17.1093H2.50363V17.2293H1.72363V17.1093Z" fill="#454545"/>
<path d="M2.5134 17.3496H1.7334V17.4796H2.5134V17.3496Z" fill="#454545"/>
<path fill-rule="evenodd" clip-rule="evenodd" d="M2.6132 17.8694L2.6732 17.8194L2.6132 17.7794V17.7094L2.7332 17.7794V17.8694L2.6132 17.9494V17.8694ZM1.7232 17.6194H2.5132V18.0494H2.3732V17.7294H2.2132V18.0194H2.0632V17.7294H1.8732V18.0594H1.7232V17.6094V17.6194ZM1.5332 17.7694H1.6332V17.8794H1.5332V17.7694Z" fill="#454545"/>
<path fill-rule="evenodd" clip-rule="evenodd" d="M2.00363 18.4692V18.3192H1.72363V18.1992H2.51363V18.4692C2.51363 18.5892 2.41363 18.6592 2.26363 18.6592C2.19363 18.6592 2.00363 18.6192 2.00363 18.4692ZM2.37363 18.4192V18.3192H2.14363V18.4492C2.14363 18.5392 2.24363 18.5392 2.26363 18.5392C2.35363 18.5392 2.37363 18.4992 2.37363 18.4292V18.4192Z" fill="#454545"/>
<path fill-rule="evenodd" clip-rule="evenodd" d="M1.72363 19.2897V19.1697L2.50363 18.9697V19.1097L1.91363 19.2397L2.50363 19.3697V19.4997L1.72363 19.2997V19.2897Z" fill="#454545"/>
<path fill-rule="evenodd" clip-rule="evenodd" d="M1.73363 19.98L1.89363 19.93V19.71L1.72363 19.67V19.54L2.51363 19.72V19.87L1.73363 20.1V19.97V19.98ZM2.61363 19.76L2.73363 19.66V19.76L2.61363 19.82V19.76ZM2.34363 19.8L2.03363 19.74V19.9L2.34363 19.81V19.8Z" fill="#454545"/>
<path fill-rule="evenodd" clip-rule="evenodd" d="M2.25379 20.7993L2.19379 20.6693L1.94379 20.7993L1.88379 20.6793L2.59379 20.3193L2.70379 20.5593C2.75379 20.6593 2.69379 20.7793 2.55379 20.8393C2.49379 20.8793 2.32379 20.9293 2.24379 20.7893L2.25379 20.7993ZM2.56379 20.5893L2.52379 20.4993L2.31379 20.5993L2.36379 20.6993C2.40379 20.7893 2.48379 20.7393 2.51379 20.7293C2.58379 20.6893 2.60379 20.6493 2.56379 20.5893Z" fill="#454545"/>
<path fill-rule="evenodd" clip-rule="evenodd" d="M2.45387 21.5698L2.71387 21.3298L2.56387 21.1598L2.30387 21.3998L2.21387 21.3098L2.79387 20.7598L2.88387 20.8498L2.66387 21.0598L2.81387 21.2398L3.03387 21.0398L3.12387 21.1298L2.54387 21.6798L2.45387 21.5798V21.5698Z" fill="#454545"/>
<path fill-rule="evenodd" clip-rule="evenodd" d="M3.06387 22.0401L3.11387 21.8901L2.93387 21.7701L2.82387 21.8901L2.71387 21.8301L3.29387 21.2401L3.41387 21.3201L3.18387 22.1301L3.07387 22.0501L3.06387 22.0401ZM3.42387 21.2101L3.37387 21.1701L3.48387 21.0801L3.57387 21.1401L3.42387 21.2001V21.2101ZM3.24387 21.4301L3.02387 21.6701L3.16387 21.7401L3.25387 21.4201L3.24387 21.4301Z" fill="#454545"/>
<path fill-rule="evenodd" clip-rule="evenodd" d="M3.78391 21.6096L3.62391 22.2496L3.50391 22.2196L3.67391 21.5696L3.50391 21.5196L3.54391 21.3896L4.00391 21.5196L3.96391 21.6596L3.79391 21.6096H3.78391Z" fill="#454545"/>
<path fill-rule="evenodd" clip-rule="evenodd" d="M4.50387 21.6698V22.3298H4.39387V21.6698H4.21387V21.5098H4.69387V21.6698H4.51387H4.50387Z" fill="#454545"/>
<path fill-rule="evenodd" clip-rule="evenodd" d="M5.15395 22.3298C5.15395 22.3298 5.14395 22.2598 5.14395 22.1598C5.14395 22.0598 5.13395 22.0098 5.04395 22.0098H4.92395V22.3298H4.79395V21.5098H5.09395C5.25395 21.5098 5.27395 21.6798 5.27395 21.7398C5.27395 21.8298 5.23395 21.9098 5.19395 21.9398C5.23395 21.9698 5.26395 21.9898 5.26395 22.1398C5.26395 22.2598 5.26395 22.2898 5.29395 22.2898V22.3098H5.15395V22.3298ZM5.06395 21.6598H4.91395V21.8798H5.04395C5.10395 21.8798 5.14395 21.8498 5.14395 21.7798C5.14395 21.7298 5.13395 21.6598 5.05395 21.6598H5.06395Z" fill="#2B2B2B"/>
<path d="M5.52332 21.5098H5.40332V22.3298H5.52332V21.5098Z" fill="#454545"/>
<path fill-rule="evenodd" clip-rule="evenodd" d="M6.06309 21.3596H6.00309C6.00309 21.3596 6.06309 21.2696 6.06309 21.2396C6.06309 21.2196 6.05309 21.1996 6.04309 21.1996C6.03309 21.1996 6.00309 21.1996 5.99309 21.2096V21.1596C5.99309 21.1596 6.03309 21.1396 6.05309 21.1396C6.10309 21.1396 6.12309 21.1796 6.12309 21.2196C6.12309 21.2796 6.09309 21.3196 6.06309 21.3496V21.3596ZM5.93309 21.4296H6.00309L5.93309 21.2996H5.84309L5.78309 21.4296H5.84309L5.89309 21.3496L5.93309 21.4296ZM5.67309 22.3296V21.5096H6.10309V21.6696H5.79309V21.8396H6.07309V21.9796H5.79309V22.1996H6.11309V22.3396H5.66309L5.67309 22.3296Z" fill="#454545"/>
<path fill-rule="evenodd" clip-rule="evenodd" d="M6.60316 22.3298L6.35316 21.7598V22.3298H6.24316V21.5098H6.36316L6.59316 22.0898V21.5098H6.70316V22.3298H6.59316H6.60316Z" fill="#454545"/>
<path fill-rule="evenodd" clip-rule="evenodd" d="M7.48379 22.3298L7.24379 21.7598V22.3298H7.13379V21.5098H7.25379L7.48379 22.0898V21.5198H7.59379V22.3398H7.48379V22.3298Z" fill="#454545"/>
<path fill-rule="evenodd" clip-rule="evenodd" d="M8.0634 21.43L8.0134 21.35L7.9634 21.43H7.8934L7.9634 21.29H8.0634L8.1434 21.43H8.0634ZM8.0134 22.36C7.9434 22.36 7.7334 22.31 7.7334 21.93C7.7334 21.55 7.9434 21.51 8.0134 21.51C8.0834 21.51 8.2934 21.55 8.2934 21.93C8.2934 22.31 8.0834 22.36 8.0134 22.36ZM8.0134 21.64C7.9534 21.64 7.8534 21.69 7.8534 21.92C7.8534 22.15 7.9534 22.21 8.0134 22.21C8.0734 22.21 8.1734 22.15 8.1734 21.92C8.1734 21.69 8.0734 21.64 8.0134 21.64Z" fill="#454545"/>
<path fill-rule="evenodd" clip-rule="evenodd" d="M8.77383 22.3298L8.54383 21.7498V22.3298H8.42383V21.5098H8.56383L8.78383 22.0798H8.79383V21.5098H8.90383V22.3298H8.78383H8.77383Z" fill="#454545"/>
<path fill-rule="evenodd" clip-rule="evenodd" d="M9.47367 22.3298L9.45367 22.2298C9.43367 22.2798 9.38367 22.3598 9.28367 22.3598C9.13367 22.3598 9.01367 22.2198 9.01367 21.9298C9.01367 21.7098 9.09367 21.5098 9.29367 21.5098C9.46367 21.5098 9.54367 21.6598 9.55367 21.7798H9.43367C9.43367 21.7798 9.38367 21.6498 9.30367 21.6498C9.22367 21.6498 9.13367 21.7298 9.13367 21.9398C9.13367 22.1498 9.22367 22.2198 9.30367 22.2198C9.33367 22.2198 9.41367 22.1898 9.44367 22.0398H9.30367V21.8998H9.55367V22.3298H9.46367H9.47367Z" fill="#454545"/>
<path fill-rule="evenodd" clip-rule="evenodd" d="M10.1933 21.6695V22.3295H10.0733V21.6695H9.90332V21.5195H10.3733V21.6695H10.2033H10.1933Z" fill="#454545"/>
<path fill-rule="evenodd" clip-rule="evenodd" d="M10.8136 22.3298V21.9698H10.5936V22.3298H10.4736V21.5098H10.5936V21.8298H10.8136V21.5098H10.9336V22.3298H10.8136Z" fill="#454545"/>
<path fill-rule="evenodd" clip-rule="evenodd" d="M11.3435 22.36C11.2535 22.36 11.0635 22.31 11.0635 21.92C11.0635 21.53 11.2635 21.5 11.3435 21.5C11.4135 21.5 11.6135 21.54 11.6135 21.92C11.6135 22.3 11.4135 22.36 11.3435 22.36ZM11.3735 21.43L11.3335 21.35L11.2835 21.43H11.1935L11.2835 21.29H11.3735L11.4635 21.43H11.3735ZM11.3435 21.64C11.2735 21.64 11.1835 21.69 11.1835 21.92C11.1835 22.15 11.2735 22.21 11.3435 22.21C11.4035 22.21 11.4935 22.15 11.4935 21.92C11.4935 21.69 11.4035 21.64 11.3435 21.64Z" fill="#454545"/>
<path fill-rule="evenodd" clip-rule="evenodd" d="M12.0736 22.3298L11.8436 21.7598V22.3298H11.7236V21.5098H11.8636L12.0936 22.0898V21.5098H12.2036V22.3298H12.0836H12.0736Z" fill="#454545"/>
<path fill-rule="evenodd" clip-rule="evenodd" d="M12.8537 22.3298H12.7337L12.5537 21.5098H12.6737L12.7937 22.1298L12.9337 21.5098H13.0537L12.8537 22.3298Z" fill="#454545"/>
<path d="M13.2538 21.5195H13.1338V22.3395H13.2538V21.5195Z" fill="#454545"/>
<path fill-rule="evenodd" clip-rule="evenodd" d="M13.6336 21.4298L13.5936 21.3498L13.5436 21.4298H13.4836L13.5436 21.2998H13.6236L13.6936 21.4298H13.6236H13.6336ZM13.3936 22.3398V21.5198H13.8136V21.6698H13.5036V21.8398H13.8036V21.9798H13.5036V22.1998H13.8336V22.3398H13.3936ZM13.5336 22.4398H13.6436V22.5398H13.5336V22.4398Z" fill="#454545"/>
<path fill-rule="evenodd" clip-rule="evenodd" d="M14.1933 21.6695V22.3395H14.0733V21.6695H13.9033V21.5195H14.3733V21.6695H14.2033H14.1933Z" fill="#454545"/>
<path fill-rule="evenodd" clip-rule="evenodd" d="M15.0336 22.3395L14.8036 21.7595H14.7936V22.3395H14.6836V21.5195H14.8236L15.0436 22.0895V21.5195H15.1636V22.3395H15.0436H15.0336Z" fill="#454545"/>
<path fill-rule="evenodd" clip-rule="evenodd" d="M15.6739 22.3395L15.6339 22.1695H15.4139L15.3739 22.3395H15.2539L15.4539 21.5195H15.6039L15.8039 22.3395H15.6839H15.6739ZM15.5239 21.7095L15.4539 22.0295H15.6039L15.5339 21.7095H15.5239Z" fill="#454545"/>
<path fill-rule="evenodd" clip-rule="evenodd" d="M16.3533 22.3395V21.6595L16.2433 22.3395H16.1233L16.0233 21.6595H16.0133V22.3395H15.9033V21.5195H16.0833L16.1833 22.1695L16.2933 21.5195H16.4633V22.3395H16.3533Z" fill="#454545"/>
<path fill-rule="evenodd" clip-rule="evenodd" d="M7.55371 20.95H15.7337C16.2837 20.95 16.7337 20.49 16.7337 19.92V11.5L7.55371 20.95Z" fill="#454545"/>
<path fill-rule="evenodd" clip-rule="evenodd" d="M16.7436 7.8193C16.7436 7.2393 16.2836 6.7793 15.7336 6.7793H12.7236L2.97363 16.8293V19.9193C2.97363 20.4893 3.41363 20.9593 3.97363 20.9593H6.93363L16.7436 10.8693V7.8193Z" fill="#515151"/>
<path fill-rule="evenodd" clip-rule="evenodd" d="M3.98363 6.7793C3.41363 6.7793 2.97363 7.2393 2.97363 7.8193V16.1893L12.1136 6.7893H3.98363V6.7793Z" fill="#454545"/>
<path fill-rule="evenodd" clip-rule="evenodd" d="M4.96363 12.7895C4.96363 12.9395 4.93363 13.0695 4.87363 13.1495C4.81363 13.2395 4.72363 13.2795 4.59363 13.2795C4.52363 13.2795 4.47363 13.2595 4.44363 13.1995C4.43363 13.1795 4.43363 13.1395 4.43363 13.0895V12.2895C4.59363 12.2895 4.70363 12.2995 4.78363 12.3495C4.90363 12.4195 4.96363 12.5795 4.96363 12.7895ZM5.47363 12.7695C5.46363 12.5795 5.38363 12.4395 5.24363 12.3295C5.16363 12.2795 5.07363 12.2395 4.96363 12.2195V12.1895C5.06363 12.1695 5.16363 12.1195 5.24363 12.0395C5.33363 11.9695 5.38363 11.8595 5.38363 11.7295C5.38363 11.5095 5.27363 11.3695 5.05363 11.2895C4.94363 11.2495 4.79363 11.2295 4.62363 11.2295H3.72363V11.3195C3.81363 11.3195 3.87363 11.3295 3.89363 11.3495C3.95363 11.3895 3.98363 11.4495 3.98363 11.5395V13.0795C3.98363 13.1695 3.96363 13.2295 3.89363 13.2695C3.85363 13.2795 3.81363 13.2895 3.72363 13.3095V13.3795H4.65363C4.90363 13.3795 5.09363 13.3295 5.24363 13.2195C5.39363 13.0995 5.47363 12.9695 5.47363 12.7895V12.7695ZM4.89363 11.7495C4.88363 11.9195 4.85363 12.0295 4.79363 12.0895C4.73363 12.1495 4.61363 12.1795 4.43363 12.1795V11.4695C4.43363 11.4095 4.44363 11.3695 4.47363 11.3395C4.50363 11.3295 4.53363 11.3095 4.59363 11.3095C4.70363 11.3095 4.77363 11.3495 4.82363 11.4395C4.86363 11.5095 4.88363 11.6195 4.88363 11.7395L4.89363 11.7495Z" fill="white"/>
<path fill-rule="evenodd" clip-rule="evenodd" d="M5.82324 7.97008C5.82324 7.97008 5.75324 8.07008 5.71324 8.17008L4.99324 10.0301H4.90324L4.08324 8.12008C4.06324 8.06008 4.02324 7.99008 3.98324 7.97008C3.94324 7.93008 3.89324 7.91008 3.82324 7.91008V7.83008H4.89324V7.91008C4.78324 7.92008 4.71324 7.92008 4.67324 7.93008C4.63324 7.94008 4.62324 7.98008 4.62324 8.03008V8.12008L5.11324 9.30008H5.13324L5.55324 8.22008L5.57324 8.15008C5.57324 8.15008 5.60324 8.08008 5.60324 8.06008C5.60324 8.00008 5.57324 7.96008 5.54324 7.95008C5.50324 7.93008 5.43324 7.93008 5.32324 7.91008V7.83008H6.01324V7.91008C5.92324 7.91008 5.87324 7.94008 5.83324 7.97008H5.82324Z" fill="white"/>
<path fill-rule="evenodd" clip-rule="evenodd" d="M16.0834 19.7392C15.8734 19.9492 15.5834 20.0692 15.2134 20.0692H14.1934V19.9692C14.1934 19.9692 14.2934 19.9792 14.3434 19.9592C14.4034 19.9392 14.4534 19.9192 14.4934 19.8892V18.2992C14.4934 18.2092 14.4334 18.0992 14.3734 18.0592C14.3334 18.0492 14.2734 18.0292 14.2034 18.0192V17.9492H15.1834C15.5734 17.9492 15.8834 18.0492 16.0934 18.2492C16.2934 18.4392 16.3734 18.6892 16.3834 19.0192C16.3834 19.3092 16.2834 19.5492 16.0934 19.7492L16.0834 19.7392ZM15.6634 18.4492C15.5334 18.2192 15.4034 18.0492 15.1234 18.0492C15.0534 18.1192 14.9434 18.0092 14.9434 18.1592V19.7492C14.9434 19.8092 14.9434 19.8692 14.9934 19.8992C15.0334 19.9392 15.0534 19.9392 15.1134 19.9392C15.2834 19.9292 15.4834 19.8792 15.6034 19.7192C15.8134 19.4692 15.7734 19.3192 15.7734 19.0392C15.7734 18.7992 15.7834 18.6492 15.6634 18.4492Z" fill="white"/>
<path fill-rule="evenodd" clip-rule="evenodd" d="M13.0039 20.0692L12.3439 19.0792H12.2539V19.6992C12.2539 19.8092 12.2839 19.8892 12.3139 19.9292C12.3539 19.9692 12.4239 19.9892 12.5339 19.9892V20.0692H11.4639V19.9892C11.5639 19.9892 11.6339 19.9692 11.6739 19.9292C11.7239 19.9092 11.7339 19.8292 11.7339 19.6992V18.2892C11.7339 18.1592 11.7239 18.0892 11.6739 18.0492C11.6339 18.0292 11.5639 18.0092 11.4639 17.9992V17.9092H12.4839C12.6939 17.9092 12.8639 17.9392 12.9939 17.9792C13.2439 18.0692 13.3739 18.2392 13.3739 18.4592C13.3739 18.6392 13.3039 18.7692 13.1739 18.8592C13.0739 18.9292 12.9739 18.9892 12.8639 19.0092L13.5039 19.9092L13.5639 19.9592L13.6339 19.9892V20.0492H12.9839L13.0039 20.0692ZM12.7839 18.2092C12.7239 18.0992 12.6239 18.0292 12.4639 18.0292C12.3739 18.0292 12.3139 18.0392 12.2939 18.0692C12.2639 18.0792 12.2539 18.1192 12.2539 18.1692V18.9792C12.4639 18.9692 12.6139 18.9392 12.6939 18.8892C12.7939 18.8292 12.8239 18.6992 12.8239 18.5092C12.8239 18.3792 12.8139 18.2792 12.7739 18.2092H12.7839Z" fill="white"/>
<path fill-rule="evenodd" clip-rule="evenodd" d="M5.83313 18.5892V18.5192C5.93313 18.5092 6.00313 18.5092 6.04313 18.4792C6.06313 18.4692 6.09312 18.4392 6.09312 18.3792C6.09312 18.3492 6.08312 18.3292 6.07312 18.2592C6.06312 18.2392 6.05313 18.1992 6.02313 18.1592L5.95312 17.9692H5.23313C5.18313 18.0892 5.16313 18.1692 5.14313 18.2092C5.10313 18.2992 5.09312 18.3492 5.09312 18.3892C5.09312 18.4392 5.13313 18.4692 5.19313 18.4892C5.23313 18.4992 5.28313 18.4992 5.35313 18.5092V18.5792H4.70312V18.5092C4.77313 18.4992 4.84313 18.4592 4.88313 18.3992C4.90313 18.3592 4.95313 18.2692 5.02313 18.1392L5.73313 16.4092H5.81313L6.52313 18.0792C6.61313 18.2692 6.66313 18.3792 6.71313 18.4292C6.75313 18.4892 6.81312 18.5192 6.88312 18.5192V18.5892H5.84312H5.83313ZM5.59312 17.0992H5.56313L5.27313 17.8292H5.90313L5.59312 17.0992Z" fill="white"/>
<path fill-rule="evenodd" clip-rule="evenodd" d="M7.90332 20.8097C7.90332 20.8097 8.42332 20.5897 8.91332 20.5097C9.09332 20.4697 10.1533 20.2097 10.1033 19.0797C10.0933 18.7897 9.66332 19.1597 9.66332 19.1597C9.66332 19.1597 8.82332 19.2797 8.47332 19.5097C8.29332 19.6197 7.90332 20.0597 7.90332 20.8097Z" fill="#CFCFCF"/>
<path d="M7.90332 20.8097C7.90332 20.8097 8.42332 20.5897 8.91332 20.5097C9.09332 20.4697 10.1533 20.2097 10.1033 19.0797C10.0933 18.7897 9.66332 19.1597 9.66332 19.1597C9.66332 19.1597 8.82332 19.2797 8.47332 19.5097C8.29332 19.6197 7.90332 20.0597 7.90332 20.8097Z" stroke="#464646" stroke-width="0.29" stroke-miterlimit="2.61"/>
<path fill-rule="evenodd" clip-rule="evenodd" d="M11.5036 17.21C11.5036 17.21 11.7036 18.48 10.7136 18.89C10.2936 19.07 9.67364 19.27 9.57364 19.37C9.57364 19.37 9.35364 18.48 10.0736 17.95C10.3036 17.78 10.7836 17.61 11.0936 17.5C11.3836 17.39 11.4936 17.21 11.4936 17.21H11.5036Z" fill="#CFCFCF"/>
<path d="M11.5036 17.21C11.5036 17.21 11.7036 18.48 10.7136 18.89C10.2936 19.07 9.67364 19.27 9.57364 19.37C9.57364 19.37 9.35364 18.48 10.0736 17.95C10.3036 17.78 10.7836 17.61 11.0936 17.5C11.3836 17.39 11.4936 17.21 11.4936 17.21H11.5036Z" stroke="#464646" stroke-width="0.29" stroke-miterlimit="2.61"/>
<path fill-rule="evenodd" clip-rule="evenodd" d="M12.014 15.6299C12.014 15.6299 12.624 16.3999 11.944 17.2899C11.794 17.4899 11.064 17.9799 10.874 18.2099C10.874 18.2099 10.504 17.3899 10.944 16.7199C11.064 16.5299 11.484 16.1799 11.664 16.0399C11.844 15.8999 12.004 15.6299 12.004 15.6299H12.014Z" fill="#CFCFCF"/>
<path d="M12.014 15.6299C12.014 15.6299 12.624 16.3999 11.944 17.2899C11.794 17.4899 11.064 17.9799 10.874 18.2099C10.874 18.2099 10.504 17.3899 10.944 16.7199C11.064 16.5299 11.484 16.1799 11.664 16.0399C11.844 15.8999 12.004 15.6299 12.004 15.6299" stroke="#464646" stroke-width="0.29" stroke-miterlimit="2.61"/>
<path fill-rule="evenodd" clip-rule="evenodd" d="M11.264 13.9492C11.264 13.9492 10.694 14.2892 11.074 15.2792C11.114 15.3992 11.554 16.2092 11.574 16.4392C11.574 16.4392 12.364 15.9292 12.044 14.8992C11.994 14.7092 11.624 14.0992 11.264 13.9592V13.9492Z" fill="#CFCFCF"/>
<path d="M11.264 13.9492C11.264 13.9492 10.694 14.2892 11.074 15.2792C11.114 15.3992 11.554 16.2092 11.574 16.4392C11.574 16.4392 12.364 15.9292 12.044 14.8992C11.994 14.7092 11.624 14.0992 11.264 13.9592" stroke="#464646" stroke-width="0.29" stroke-miterlimit="2.61"/>
<path fill-rule="evenodd" clip-rule="evenodd" d="M9.804 12.6094C9.804 12.6094 9.604 13.2294 10.074 13.8094C10.274 14.0494 11.154 14.3294 11.534 14.6194C11.534 14.6194 12.004 13.0494 9.804 12.6094Z" fill="#CFCFCF"/>
<path d="M9.804 12.6094C9.804 12.6094 9.604 13.2294 10.074 13.8094C10.274 14.0494 11.154 14.3294 11.534 14.6194C11.534 14.6194 12.004 13.0494 9.804 12.6094Z" stroke="#464646" stroke-width="0.29" stroke-miterlimit="2.61"/>
<path fill-rule="evenodd" clip-rule="evenodd" d="M8.57324 11.5C8.57324 11.5 10.4832 11.64 10.2332 13.44C10.2332 13.44 9.80324 13.16 9.45324 13.02C9.30324 12.94 8.53324 12.69 8.58324 11.96C8.59324 11.76 8.58324 11.51 8.58324 11.51L8.57324 11.5Z" fill="#CFCFCF"/>
<path d="M8.57324 11.5C8.57324 11.5 10.4832 11.64 10.2332 13.44C10.2332 13.44 9.80324 13.16 9.45324 13.02C9.30324 12.94 8.53324 12.69 8.58324 11.96C8.59324 11.76 8.58324 11.51 8.58324 11.51" stroke="#464646" stroke-width="0.29" stroke-miterlimit="2.61"/>
<path fill-rule="evenodd" clip-rule="evenodd" d="M8.61322 9.7897C8.61322 9.7897 7.90322 10.3497 8.25322 11.2797C8.31322 11.4597 8.68322 11.9597 8.88322 12.0497C8.88322 12.0497 9.10322 11.3997 9.24322 10.9397C9.29322 10.7497 9.42322 9.9997 8.98322 9.7097C8.75322 9.5697 8.61322 9.7897 8.61322 9.7897Z" fill="#CFCFCF"/>
<path d="M8.61322 9.7897C8.61322 9.7897 7.90322 10.3497 8.25322 11.2797C8.31322 11.4597 8.68322 11.9597 8.88322 12.0497C8.88322 12.0497 9.10322 11.3997 9.24322 10.9397C9.29322 10.7497 9.42322 9.9997 8.98322 9.7097C8.75322 9.5697 8.61322 9.7897 8.61322 9.7897Z" stroke="#464646" stroke-width="0.29" stroke-miterlimit="2.61"/>
<path fill-rule="evenodd" clip-rule="evenodd" d="M8.46319 10.3397C8.46319 10.3397 7.91319 8.66973 9.88319 8.21973C9.88319 8.21973 10.3232 8.85973 9.60319 9.52973C9.40319 9.71973 8.58319 10.1497 8.46319 10.3397Z" fill="#CFCFCF"/>
<path d="M8.46319 10.3397C8.46319 10.3397 7.91319 8.66973 9.88319 8.21973C9.88319 8.21973 10.3232 8.85973 9.60319 9.52973C9.40319 9.71973 8.58319 10.1497 8.46319 10.3397Z" stroke="#464646" stroke-width="0.29" stroke-miterlimit="2.61"/>
<path fill-rule="evenodd" clip-rule="evenodd" d="M11.5439 6.94935C11.5439 6.94935 9.49393 6.89935 9.58393 8.78935C9.58393 8.78935 10.8639 8.37934 11.2139 7.98934C11.3839 7.78934 11.5739 7.39935 11.5439 6.94935Z" fill="#CFCFCF"/>
<path d="M11.5439 6.94935C11.5439 6.94935 9.49393 6.89935 9.58393 8.78935C9.58393 8.78935 10.8639 8.37934 11.2139 7.98934C11.3839 7.78934 11.5739 7.39934 11.5439 6.94935Z" stroke="#464646" stroke-width="0.29" stroke-miterlimit="2.61"/>
</svg>
