<svg width="40" height="40" viewBox="0 0 40 40" fill="none" xmlns="http://www.w3.org/2000/svg">
<path d="M11.9878 30.5125V31.0906H7V30.5125H11.9878ZM10.9108 30.1394V29.0546H7.40087V28.4766H11.587V30.1394H10.9108ZM11.5851 31.6393V33.657H7.39903V31.6393H11.5851ZM10.9035 32.1936H8.07516V33.079H10.9035V32.1936Z" fill="#575756"/>
<path d="M12.5878 31.2095V30.668H17.5756V31.2095H16.4986V31.7272H15.8779V31.2095H14.2837V31.7272H13.6574V31.2095H12.586H12.5878ZM16.3896 32.7808C16.3896 32.9454 16.3545 33.1028 16.2862 33.2509C16.2178 33.3991 16.1218 33.529 15.9999 33.6369C15.8853 33.7485 15.7486 33.8381 15.5897 33.904C15.429 33.9698 15.2609 34.0027 15.0817 34.0027C14.9025 34.0027 14.7344 33.9698 14.5774 33.904C14.4185 33.8381 14.2818 33.7485 14.1636 33.6369C14.0454 33.529 13.953 33.3991 13.8846 33.2509C13.8163 33.1028 13.7812 32.9454 13.7812 32.7808C13.7812 32.6162 13.8163 32.4589 13.8846 32.3107C13.953 32.1625 14.0472 32.0326 14.1636 31.9247C14.2818 31.8113 14.4185 31.7235 14.5774 31.6576C14.7363 31.5918 14.9044 31.557 15.0817 31.557C15.2591 31.557 15.429 31.59 15.5897 31.6576C15.7505 31.7235 15.8872 31.8131 15.9999 31.9247C16.1218 32.0326 16.216 32.1607 16.2862 32.3107C16.3545 32.4589 16.3896 32.6162 16.3896 32.7808ZM16.3582 29.2759C16.3582 29.4369 16.3231 29.5888 16.2548 29.7314C16.1864 29.8741 16.0922 29.9985 15.9758 30.1083C15.8668 30.2125 15.7338 30.2967 15.5768 30.3607C15.4198 30.4247 15.2554 30.4576 15.0817 30.4576C14.9081 30.4576 14.7437 30.4247 14.5885 30.3607C14.4333 30.2967 14.3021 30.2125 14.1931 30.1083C14.0749 30.0003 13.9825 29.8741 13.9123 29.7314C13.844 29.5888 13.8089 29.4369 13.8089 29.2759C13.8089 29.115 13.844 28.9705 13.9123 28.8278C13.9807 28.6851 14.0749 28.5607 14.1931 28.451C14.3021 28.3467 14.4333 28.2625 14.5885 28.1985C14.7418 28.1345 14.9062 28.1016 15.0817 28.1016C15.2572 28.1016 15.4216 28.1345 15.5768 28.1985C15.7338 28.2625 15.8668 28.3467 15.9758 28.451C16.0922 28.5589 16.1864 28.6851 16.2548 28.8278C16.3231 28.9705 16.3582 29.1205 16.3582 29.2759ZM15.732 32.7753C15.732 32.5997 15.6692 32.4479 15.5436 32.3198C15.4179 32.1936 15.2665 32.1296 15.0873 32.1296C14.9081 32.1296 14.7547 32.1936 14.6254 32.3198C14.4943 32.4461 14.4315 32.5979 14.4315 32.7753C14.4315 32.9528 14.4961 33.1046 14.6254 33.2326C14.7547 33.3607 14.9099 33.4247 15.0873 33.4247C15.2646 33.4247 15.4179 33.3607 15.5436 33.2326C15.6692 33.1046 15.732 32.9509 15.732 32.7753ZM15.7024 29.2814C15.7024 29.1168 15.6415 28.9741 15.5195 28.8534C15.3976 28.7327 15.2517 28.6723 15.0817 28.6723C14.9118 28.6723 14.7658 28.7327 14.6457 28.8534C14.5257 28.9741 14.4666 29.1168 14.4666 29.2814C14.4666 29.4461 14.5257 29.5942 14.6457 29.7131C14.7658 29.832 14.9099 29.8906 15.0817 29.8906C15.2535 29.8906 15.3976 29.832 15.5195 29.7131C15.6415 29.5942 15.7024 29.4516 15.7024 29.2814Z" fill="#575756"/>
<path d="M18.0102 32.1291V31.5383H21.6421V32.1291H20.1217V33.5816H19.4585V32.1291H18.0102ZM21.2283 29.8407C21.2283 30.0255 21.1895 30.2011 21.1156 30.3657C21.0398 30.5304 20.9364 30.673 20.8015 30.7938C20.6685 30.9182 20.5133 31.0169 20.3397 31.0883C20.1642 31.1615 19.9776 31.1962 19.7799 31.1962C19.5823 31.1962 19.3938 31.1596 19.2202 31.0883C19.0465 31.0169 18.8914 30.9182 18.7584 30.7938C18.6235 30.673 18.5182 30.5304 18.4425 30.3657C18.3649 30.2011 18.3279 30.0273 18.3279 29.8407C18.3279 29.6541 18.3667 29.4822 18.4425 29.3157C18.52 29.1511 18.6253 29.0066 18.7584 28.8822C18.8914 28.7578 19.0465 28.659 19.2202 28.5877C19.3938 28.5164 19.5804 28.4798 19.7799 28.4798C19.9795 28.4798 20.166 28.5164 20.3397 28.5877C20.5133 28.659 20.6685 28.7578 20.8015 28.8822C20.9364 29.0066 21.0398 29.1511 21.1156 29.3157C21.1895 29.4804 21.2283 29.656 21.2283 29.8407ZM20.5835 29.8407C20.5835 29.623 20.5041 29.4383 20.3452 29.2865C20.1864 29.1346 19.9979 29.0578 19.7799 29.0578C19.562 29.0578 19.3735 29.1346 19.2165 29.2865C19.0613 29.4383 18.9819 29.623 18.9819 29.8407C18.9819 30.0584 19.0595 30.2377 19.2165 30.3913C19.3735 30.5468 19.5601 30.6237 19.7799 30.6237C19.9998 30.6237 20.1882 30.5468 20.3452 30.3913C20.5041 30.2359 20.5835 30.0529 20.5835 29.8407ZM22.0485 28.3828H22.7172V33.7572H22.0485V28.3828Z" fill="#575756"/>
<path d="M25.8157 31.4693V32.1919H25.147V31.4693H23.6691V30.915H27.2881V31.4693H25.8157ZM24.6833 31.9394V33.0589H28.559V33.637H24.009V31.9376H24.6833V31.9394ZM26.7339 29.5102C26.7339 29.6748 26.6988 29.8303 26.6267 29.9766C26.5565 30.123 26.4604 30.2528 26.3441 30.3644C26.2258 30.4724 26.0891 30.5583 25.9303 30.6242C25.7714 30.6882 25.6033 30.7211 25.4259 30.7211C25.2486 30.7211 25.0786 30.6882 24.9216 30.6242C24.7627 30.5602 24.6242 30.4742 24.5023 30.3644C24.3877 30.251 24.2954 30.123 24.2252 29.9766C24.155 29.8303 24.118 29.6748 24.118 29.5102C24.118 29.3455 24.1531 29.19 24.2252 29.0455C24.2954 28.901 24.3877 28.773 24.5023 28.6596C24.6242 28.548 24.7646 28.4602 24.9216 28.398C25.0805 28.3358 25.2486 28.3047 25.4259 28.3047C25.6033 28.3047 25.7732 28.3358 25.9303 28.398C26.0891 28.4602 26.2258 28.548 26.3441 28.6596C26.4623 28.773 26.5565 28.901 26.6267 29.0455C26.6969 29.19 26.7339 29.3455 26.7339 29.5102ZM26.0965 29.5175C26.0965 29.3364 26.0319 29.1827 25.9025 29.0565C25.7732 28.9303 25.6144 28.8663 25.4278 28.8663C25.2412 28.8663 25.0823 28.9303 24.953 29.0565C24.8237 29.1827 24.759 29.3364 24.759 29.5175C24.759 29.6986 24.8237 29.8522 24.953 29.9785C25.0823 30.1047 25.2412 30.1687 25.4278 30.1687C25.6144 30.1687 25.7732 30.1047 25.9025 29.9785C26.0319 29.8522 26.0965 29.6986 26.0965 29.5175ZM27.7444 30.4449H26.9722V29.8961H27.7444V28.3724H28.4131V32.2522H27.7444V30.4449Z" fill="#575756"/>
<path d="M32.8505 33.2169H29.2925V32.6334H30.7224V31.9639C30.6577 31.9474 30.5968 31.9273 30.5395 31.9035C30.3769 31.8395 30.2347 31.7535 30.1146 31.6437C29.9927 31.5303 29.8966 31.4023 29.8283 31.2559C29.7599 31.1096 29.7248 30.9541 29.7248 30.7895C29.7248 30.6248 29.7581 30.4712 29.8283 30.3248C29.8966 30.1803 29.9927 30.0523 30.1146 29.9389C30.2365 29.8254 30.3769 29.7395 30.5377 29.6773C30.6984 29.6151 30.8702 29.584 31.0531 29.584C31.236 29.584 31.4059 29.6151 31.5648 29.6773C31.7237 29.7395 31.8604 29.8273 31.9786 29.9389C32.1005 30.0523 32.1966 30.1803 32.2668 30.3248C32.337 30.4693 32.3739 30.6248 32.3739 30.7895C32.3739 30.9541 32.3388 31.1096 32.2668 31.2559C32.1966 31.4023 32.0987 31.5321 31.9786 31.6437C31.8604 31.7517 31.7237 31.8376 31.5648 31.9035C31.5001 31.9309 31.4336 31.9529 31.3634 31.9693V32.6315H32.8542V33.2151L32.8505 33.2169ZM30.6725 28.9163V28.3438H31.4022V28.9163H32.7212V29.4889H29.3517V28.9163H30.6725ZM31.7126 30.784C31.7126 30.6084 31.6479 30.4565 31.5186 30.3285C31.3874 30.2023 31.2304 30.1383 31.0438 30.1383C30.8572 30.1383 30.6984 30.2023 30.5691 30.3285C30.4397 30.4547 30.3751 30.6065 30.3751 30.784C30.3751 30.9614 30.4397 31.1132 30.5691 31.2413C30.6984 31.3693 30.8572 31.4334 31.0438 31.4334C31.2304 31.4334 31.3874 31.3693 31.5186 31.2413C31.6479 31.1132 31.7126 30.9596 31.7126 30.784ZM33.3308 28.3803H33.9996V33.7547H33.3308V28.3803Z" fill="#575756"/>
<path d="M30.3959 14.8012C30.3959 20.2139 25.9641 24.6005 20.4997 24.6005C15.0352 24.6005 10.6016 20.2121 10.6016 14.8012C10.6016 9.39022 15.0334 5 20.4997 5C25.966 5 30.3959 9.38839 30.3959 14.8012Z" fill="white"/>
<path d="M25.1978 14.1795C23.6072 13.1094 21.5696 13.5447 20.5018 15.1563C19.6077 16.5008 18.2591 16.6691 17.7363 16.6691C16.0349 16.6691 14.8692 15.4837 14.5256 14.2563C14.5219 14.2435 14.5201 14.2344 14.5164 14.2216C14.5127 14.2088 14.509 14.1941 14.5053 14.1795C14.3686 13.6673 14.3353 13.424 14.3353 12.8789C14.3353 9.94475 17.3742 6.67953 21.7524 6.67953C26.1307 6.67953 28.7982 10.0582 29.4614 11.9368C29.4504 11.9057 29.4393 11.871 29.4282 11.838C28.1572 8.16489 24.638 5.52344 20.4981 5.52344C15.2867 5.52344 11.06 9.70695 11.06 14.8691C11.06 19.4825 14.4203 23.4319 19.0812 23.4319C22.7999 23.4319 25.2975 21.3666 26.4447 18.524C27.0728 16.9691 26.6276 15.1398 25.1996 14.1795H25.1978Z" fill="#003763"/>
<path d="M29.5176 12.1199C28.9671 10.287 26.3808 6.67969 21.7513 6.67969C17.3731 6.67969 14.3342 9.94491 14.3342 12.879C14.3342 13.4242 14.3675 13.6675 14.5042 14.1796C14.4469 13.9565 14.4174 13.7315 14.4174 13.5138C14.4174 10.4589 17.5061 8.34248 20.6817 8.34248C24.9805 8.34248 28.4646 11.7925 28.4646 16.0491C28.4646 19.3857 26.5267 22.2723 23.7095 23.6607C27.3414 22.3619 29.9332 18.9174 29.9332 14.8729C29.9332 13.9162 29.8039 13.0711 29.5176 12.1236V12.1199Z" fill="#E4022D"/>
</svg>
