<svg width="96" height="28" viewBox="0 0 96 28" fill="none" xmlns="http://www.w3.org/2000/svg">
<path fill-rule="evenodd" clip-rule="evenodd" d="M8.53767 6.04649C8.88106 5.88947 9.20611 6.16728 9.49365 6.32994C11.994 7.9549 14.5386 9.50659 17.0323 11.1316C17.7074 11.5728 17.6574 12.647 16.9639 13.052C14.3452 14.7189 11.7065 16.3616 9.08776 18.0405C8.90606 18.1613 8.65019 18.1669 8.46266 18.0526C5.93728 16.4582 3.4119 14.8703 0.893189 13.2815C0.493129 13.04 0.0238915 12.738 0.0180573 12.2307C-0.087792 11.6993 0.287265 11.2097 0.736499 10.9504C3.34356 9.32541 5.90645 7.63442 8.53767 6.04649ZM11.4323 9.28354C11.8507 9.92934 12.2949 10.5639 12.6883 11.2282C13.1575 11.2588 13.6259 11.2523 14.0885 11.2282C13.195 10.5937 12.2632 9.99618 11.4314 9.28354H11.4323ZM3.41857 11.2338C3.87531 11.2459 4.33787 11.2701 4.79378 11.2274C5.22468 10.6114 5.6189 9.97121 6.0623 9.36165C5.18717 9.98973 4.31787 10.6299 3.41774 11.2338H3.41857ZM6.65656 11.2459H7.91925C7.91925 10.6259 7.91675 10.0083 7.91258 9.39144C7.53086 10.0316 7.09412 10.6355 6.65656 11.2459ZM9.6195 9.45264C9.61117 10.0485 9.61117 10.646 9.6195 11.2467H10.8389C10.4321 10.6428 10.0262 10.0509 9.6195 9.45264ZM3.41857 12.8709C4.31204 13.511 5.19967 14.1512 6.08731 14.7914C5.62474 14.1754 5.20634 13.5231 4.78711 12.8773C4.33037 12.8709 3.87447 12.8773 3.41774 12.8709H3.41857ZM6.64989 12.8765C7.08746 13.4925 7.52502 14.115 7.92508 14.7543C7.91841 14.1262 7.91841 13.4981 7.92508 12.8765H6.64989ZM9.62534 12.8709C9.61284 13.4812 9.61284 14.0908 9.61867 14.6947C10.0187 14.0852 10.4371 13.4812 10.8564 12.8765C10.4438 12.8765 10.0379 12.8644 9.62534 12.8701V12.8709ZM12.7883 12.8709C12.2941 13.5046 11.8815 14.1818 11.4506 14.8518C12.2824 14.115 13.2259 13.5167 14.1327 12.8709C13.6868 12.8749 13.2392 12.8749 12.7891 12.8709H12.7883ZM0.0305592 14.4048C0.0305592 16.7545 0.0372269 19.1034 0.0372269 21.4531C0.0430611 21.7132 0.0122231 21.9902 0.16808 22.2197C0.393114 22.5579 0.76817 22.8534 1.21157 22.8115C6.2565 22.818 11.3006 22.818 16.3514 22.8115C16.9764 22.8292 17.5082 22.268 17.5199 21.6761C17.5074 19.2363 17.5199 16.7908 17.5199 14.3445C17.4115 14.2076 17.3057 14.0666 17.2006 13.9217C16.8814 13.8798 16.5756 13.9821 16.313 14.1512C14.1377 15.5467 11.9624 16.9534 9.7937 18.3545C9.45615 18.5719 9.10609 18.7837 8.74354 18.9528C6.78658 17.7933 4.91129 16.513 2.99267 15.2987C2.28006 14.8638 1.61747 14.3622 0.873186 13.9757C0.54147 13.776 0.0605637 14.036 0.0297257 14.404H0.0305592V14.4048ZM10.0821 20.2807C9.77536 20.4498 9.48198 20.6672 9.11943 20.7219C8.61352 20.8121 8.08177 20.668 7.65087 20.4079C5.96312 19.3868 4.2687 18.3666 2.57511 17.3576C2.41258 17.261 2.24339 17.1402 2.03753 17.1885C2.01252 18.427 2.03086 19.659 2.01836 20.891C2.26256 20.9571 2.50593 20.9997 2.75597 20.9933C6.98827 20.9868 11.2256 20.9997 15.4579 20.9691C15.5704 20.2863 15.5329 19.5922 15.5396 18.9037C15.5329 18.3054 15.5771 17.7023 15.452 17.1161C13.6201 18.1009 11.8832 19.2419 10.0829 20.2807H10.0821Z" fill="white"/>
<path fill-rule="evenodd" clip-rule="evenodd" d="M21.1587 11.5959C21.9339 11.5959 22.709 11.5894 23.4841 11.5894C24.4842 14.2588 25.4911 16.9338 26.347 19.6458C26.6029 18.5169 27.0538 17.4411 27.453 16.354C28.0531 14.7661 28.6657 13.1774 29.2725 11.5894C30.0417 11.5959 30.8102 11.5959 31.5728 11.583C31.7978 14.4754 31.9545 17.3686 32.1537 20.2554C32.2221 21.1065 32.2662 21.9641 32.2913 22.8161H30.291C30.2159 21.0582 30.1034 19.3012 30.0092 17.5498C29.9659 16.6504 29.9776 15.7501 29.8342 14.8619C29.6217 15.7437 29.2908 16.5948 28.9716 17.4524C28.3032 19.2215 27.6339 20.9914 26.9655 22.7613C26.4712 22.7549 25.9778 22.7428 25.4777 22.7734C24.7093 20.7563 24.0217 18.715 23.2957 16.6793C23.1015 16.1479 22.9582 15.6044 22.8265 15.0552C22.6265 17.64 22.5081 20.2248 22.3264 22.8096C21.6705 22.8161 21.0137 22.8161 20.3578 22.8032C20.6412 19.0669 20.9079 15.3306 21.1579 11.5943L21.1587 11.5959ZM62.5833 11.5903H64.5836C64.5836 12.9012 64.5903 14.2113 64.5903 15.5214C65.828 14.3442 68.0283 14.3321 69.291 15.4908C70.2161 16.3726 70.5787 17.677 70.522 18.9034C70.5095 20.1837 70.0036 21.543 68.8968 22.3096C67.5782 23.2879 65.5021 23.2275 64.3402 22.0438C64.3319 22.3015 64.3236 22.5592 64.3152 22.8169C63.7026 22.8169 63.0967 22.8048 62.49 22.8104C62.59 22.0132 62.59 21.2096 62.59 20.4068C62.5966 17.4717 62.59 14.5302 62.5833 11.5894V11.5903ZM66.0088 16.3307C65.3587 16.536 64.8462 17.0675 64.6586 17.7012C64.5211 18.3228 64.5961 18.9574 64.5836 19.5854C64.5711 20.5276 65.4771 21.3666 66.4464 21.3312C67.209 21.3972 67.9091 20.8964 68.215 20.2506C68.6967 19.1393 68.6459 17.7141 67.8024 16.7784C67.3457 16.3371 66.6339 16.1326 66.0088 16.3315V16.3307ZM88.6247 11.6023C89.2932 11.5959 89.9624 11.5846 90.6309 11.5903C90.6242 13.6195 90.5875 15.6551 90.6617 17.6843C91.5118 16.6995 92.3553 15.709 93.2621 14.779C94.0681 14.8209 94.8807 14.779 95.6875 14.7854C94.5998 15.9208 93.5055 17.0506 92.3995 18.1731C93.5997 19.7135 94.8065 21.2587 96 22.8112C95.1816 22.8112 94.3564 22.8048 93.5371 22.8048C92.7995 21.7483 91.9994 20.7329 91.256 19.6821C91.1935 19.5798 91.0934 19.5073 90.9876 19.4461C90.8251 19.6338 90.6 19.827 90.625 20.0984C90.6209 21.0002 90.6209 21.9045 90.625 22.8104H88.6372C88.6372 19.0717 88.6497 15.3338 88.6247 11.6015V11.6023ZM42.7303 13.5228C43.3738 13.3054 44.0305 13.1001 44.6931 12.9245C44.6931 13.5405 44.6931 14.163 44.6865 14.7782C45.2865 14.8023 45.8866 14.7717 46.4801 14.7967C46.5867 14.7846 46.6618 14.8627 46.7426 14.9175C46.7426 15.4063 46.7493 15.8959 46.7426 16.3854C46.0592 16.3935 45.3741 16.3951 44.6865 16.3911C44.6865 17.4298 44.6881 18.467 44.6923 19.5017C44.699 19.9486 44.6614 20.4076 44.7923 20.8424C44.8481 21.0115 44.949 21.1983 45.1357 21.2466C45.5983 21.3916 46.0858 21.2587 46.5292 21.1202C46.6167 21.6573 46.6292 22.2009 46.6476 22.7387C45.8783 22.9747 45.0348 23.1132 44.2539 22.8716C43.7605 22.7267 43.3162 22.4062 43.0854 21.9593C42.8287 21.452 42.7537 20.8843 42.7353 20.3287V16.3911C42.3353 16.3911 41.9377 16.3911 41.5418 16.3911C41.5485 15.8596 41.5543 15.3225 41.5485 14.7903C41.9427 14.7838 42.3361 14.7903 42.7295 14.7838C42.7295 14.3675 42.7228 13.9448 42.7295 13.522L42.7303 13.5228ZM34.4232 15.9748C35.6043 14.4835 38.0863 14.1388 39.6182 15.329C40.7742 16.3073 41.0434 17.9379 40.8117 19.3455H35.4359C35.5176 20.1185 35.9801 20.9101 36.7611 21.1814C37.8671 21.5019 39.0673 21.3078 40.1174 20.8915C40.2483 21.4109 40.4108 21.9126 40.4733 22.444C39.1356 22.9393 37.6421 23.1446 36.2352 22.8128C35.0042 22.5044 33.9915 21.5381 33.6665 20.3488C33.2664 18.8809 33.4539 17.2084 34.4232 15.9764V15.9748ZM35.8668 16.9048C35.6918 17.1762 35.5792 17.4846 35.4542 17.7809C36.6211 17.789 37.7862 17.789 38.9481 17.7809C38.8797 17.491 38.8172 17.1947 38.673 16.9233C38.448 16.4643 37.9229 16.168 37.4045 16.1559C36.8044 16.1197 36.1793 16.3975 35.8668 16.9048ZM50.0506 15.618C50.6632 14.8627 51.7317 14.4343 52.7068 14.7122C52.6943 15.3161 52.7002 15.9144 52.7068 16.5175C52.2759 16.5111 51.8317 16.4386 51.4133 16.5537C50.8949 16.7414 50.5323 17.1995 50.3756 17.7012C50.2573 18.0394 50.2698 18.4017 50.2698 18.752C50.2698 20.1048 50.2698 21.4576 50.2698 22.8104H48.257C48.232 20.1354 48.3512 17.4596 48.2136 14.7846C48.8137 14.7911 49.4205 14.7846 50.0206 14.7911C50.0289 15.0648 50.0389 15.3402 50.0514 15.618H50.0506ZM56.6266 14.6944C57.6959 14.5133 58.8453 14.725 59.7396 15.3346C60.6464 15.9329 61.1898 16.941 61.3398 17.9734C61.4581 19 61.3648 20.0815 60.8522 20.9986C60.3146 21.9593 59.327 22.6534 58.2335 22.8893C56.9833 23.1615 55.5831 22.9014 54.6021 22.0857C53.6711 21.295 53.2211 20.0807 53.2394 18.9034C53.2144 17.768 53.5895 16.5908 54.4329 15.7751C55.008 15.1889 55.8023 14.8088 56.6274 14.6944H56.6266ZM56.8575 16.2647C56.3824 16.3798 55.964 16.6874 55.7073 17.0924C55.2572 17.7865 55.163 18.6506 55.2889 19.4477C55.4072 20.2691 55.9323 21.0784 56.7766 21.3505C57.4892 21.5679 58.3077 21.266 58.7394 20.6862C59.577 19.5871 59.5579 17.9387 58.7144 16.8452C58.271 16.3379 57.5267 16.0964 56.8583 16.2655L56.8575 16.2647ZM72.0039 15.4127C73.1357 14.7903 74.4793 14.4706 75.7736 14.7001C76.5363 14.8144 77.2672 15.2195 77.6739 15.8661C78.1423 16.6214 78.2057 17.5265 78.1798 18.384C78.199 19.8576 78.1048 21.3489 78.3424 22.8112C77.7231 22.8112 77.0988 22.8233 76.4737 22.8177C76.4571 22.6043 76.4421 22.3909 76.4304 22.1775C75.7428 22.7573 74.8177 23.0834 73.905 22.9811C73.1174 22.9272 72.3298 22.5399 71.9172 21.8755C71.2046 20.807 71.4922 19.248 72.5423 18.4879C73.5733 17.673 74.9677 17.6247 76.2245 17.4854C76.137 17.0208 75.9495 16.4829 75.4436 16.3073C74.4493 16.0174 73.3499 16.3258 72.5432 16.9233C72.3556 16.4225 72.1806 15.9152 72.0056 15.4135L72.0039 15.4127ZM73.86 19.6225C73.2974 20.0992 73.4416 21.1742 74.1976 21.398C74.8793 21.5365 75.6728 21.2595 76.0353 20.6612C76.3229 20.1725 76.2287 19.5806 76.2104 19.0427C75.4044 19.0548 74.4918 19.0612 73.86 19.6225ZM81.6487 15.5335C82.6797 14.531 84.4491 14.32 85.6743 15.1172C86.3994 15.5697 86.7995 16.3734 86.9428 17.1705C87.0303 17.6174 86.9987 18.0764 87.0112 18.529C87.0178 19.9542 86.9987 21.3795 87.0303 22.8112C86.3594 22.8152 85.691 22.8152 85.0242 22.8112C85.0309 21.5365 85.0425 20.2626 85.0309 18.9823C85.0242 18.2641 85.1059 17.4725 84.6683 16.8444C84.3558 16.3677 83.6932 16.2228 83.1497 16.3556C82.3996 16.5425 81.8187 17.2495 81.8245 18.004C81.8179 19.6048 81.8179 21.2048 81.8245 22.8112C81.1578 22.8152 80.491 22.8152 79.8242 22.8112C79.8309 21.2829 79.8368 19.7553 79.8368 18.227C79.8242 17.1279 79.8676 16.0223 79.7426 14.9239C79.7801 14.8933 79.8551 14.8394 79.8926 14.8152C80.4493 14.7613 81.0053 14.7975 81.562 14.7911C81.5912 15.0367 81.6204 15.2839 81.6495 15.5343L81.6487 15.5335Z" fill="white"/>
</svg>
