<svg width="32" height="32" viewBox="0 0 32 32" fill="none" xmlns="http://www.w3.org/2000/svg">
<path d="M32 16.0015C32 24.8385 24.8355 32 16.0015 32C7.16752 32 0 24.8355 0 16.0015C0 7.16752 7.16454 0 16.0015 0C24.8384 0 32 7.16454 32 16.0015Z" fill="white"/>
<path d="M23.5951 14.9874C21.0237 13.2404 17.7296 13.9511 16.0035 16.5822C14.558 18.7773 12.3779 19.052 11.5327 19.052C8.78218 19.052 6.89772 17.1168 6.34224 15.1129C6.33626 15.092 6.33327 15.077 6.3273 15.0561C6.32133 15.0352 6.31536 15.0113 6.30938 14.9874C6.08839 14.1512 6.03463 13.754 6.03463 12.8641C6.03463 8.07376 10.9474 2.74292 18.0253 2.74292C25.1032 2.74292 29.4157 8.25892 30.4878 11.326C30.4699 11.2753 30.452 11.2185 30.4341 11.1648C28.3794 5.16793 22.6902 0.855469 15.9975 0.855469C7.57266 0.855469 0.739624 7.68552 0.739624 16.1133C0.739624 23.6452 6.17201 30.093 13.7069 30.093C19.7186 30.093 23.7563 26.7213 25.6109 22.0803C26.6263 19.5418 25.9066 16.5553 23.598 14.9874H23.5951Z" fill="#003763"/>
<path d="M30.5797 11.6249C29.6897 8.63248 25.5087 2.74316 18.0246 2.74316C10.9467 2.74316 6.03394 8.07401 6.03394 12.8643C6.03394 13.7543 6.0877 14.1515 6.30869 14.9877C6.21611 14.6233 6.16833 14.256 6.16833 13.9006C6.16833 8.91321 11.1617 5.45786 16.2954 5.45786C23.2449 5.45786 28.8774 11.0903 28.8774 18.0399C28.8774 23.4872 25.7446 28.1998 21.1903 30.4665C27.0617 28.3462 31.2517 22.7226 31.2517 16.1196C31.2517 14.5576 31.0426 13.1779 30.5797 11.6309V11.6249Z" fill="#E4022D"/>
</svg>
