<svg width="40" height="40" viewBox="0 0 40 40" fill="none" xmlns="http://www.w3.org/2000/svg">
<path d="M28.0459 28.8737C28.0666 28.735 28.079 28.5921 28.079 28.4493V27.6494H25.2196V28.0126H27.5212V28.4452C27.5212 28.5921 27.5129 28.7309 27.4922 28.8697C27.4757 29.0084 27.4427 29.1309 27.4055 29.241H26.6245V28.5472H26.0791V29.241H24.7402V29.6043H28.5997V29.241H27.9674C28.0005 29.1349 28.0253 29.0125 28.0459 28.8737Z" fill="white"/>
<path d="M15.6553 28.8329C15.676 28.6942 15.6884 28.5513 15.6884 28.4085V27.6494H12.8289V28.0126H15.1305V28.4044C15.1305 28.5513 15.1223 28.6901 15.1016 28.8329C15.081 28.9717 15.0562 29.0941 15.0148 29.2043H12.3496V29.5675H16.209V29.2043H15.5727C15.6057 29.0982 15.6305 28.9758 15.6512 28.837" fill="white"/>
<path d="M30.6249 29.49C30.4596 29.2084 30.381 28.886 30.3852 28.5187V27.6494H29.8067V28.5105C29.8026 28.6901 29.7778 28.8656 29.7364 29.0288C29.691 29.1961 29.629 29.3472 29.5464 29.4859C29.4678 29.6206 29.3728 29.743 29.2571 29.845C29.1414 29.9471 29.0174 30.0246 28.877 30.0736V30.4531C29.0009 30.4409 29.129 30.4001 29.2612 30.3389C29.3935 30.2776 29.5174 30.2042 29.629 30.1226C29.7406 30.0409 29.8397 29.9471 29.9182 29.845C30.0009 29.743 30.0546 29.6369 30.0794 29.5349C30.1042 29.6369 30.1579 29.7349 30.2406 29.841C30.3232 29.943 30.4224 30.0368 30.5381 30.1266C30.6496 30.2123 30.7736 30.2858 30.91 30.3429C31.0463 30.4041 31.1744 30.4409 31.3025 30.4572V30.0777C31.0091 29.9675 30.7819 29.7757 30.6166 29.4941" fill="white"/>
<path d="M27.962 30.3872L27.9124 30.3138C27.8421 30.2199 27.7595 30.1342 27.6562 30.0648C27.5322 29.975 27.3835 29.9056 27.2099 29.8567C27.0405 29.8077 26.8587 29.7832 26.6645 29.7832C26.4702 29.7832 26.2843 29.8077 26.1149 29.8567C25.9455 29.9097 25.7967 29.9832 25.6727 30.073C25.5447 30.1628 25.4455 30.2729 25.3711 30.3954C25.3009 30.5219 25.2637 30.6566 25.2637 30.8035C25.2637 30.9504 25.3009 31.0892 25.3711 31.2157C25.4413 31.3381 25.5447 31.4483 25.6727 31.5381C25.7967 31.6279 25.9455 31.7013 26.1149 31.7544C26.2843 31.8034 26.4661 31.8319 26.6645 31.8319C26.8628 31.8319 27.0405 31.8074 27.2099 31.7585C27.3793 31.7095 27.5281 31.6401 27.6562 31.5462C27.7553 31.4769 27.8421 31.3952 27.9124 31.2973L27.962 31.2238L28.0115 31.1259C28.0529 31.0279 28.0735 30.9218 28.0735 30.8076C28.0735 30.6933 28.0529 30.5872 28.0115 30.4892L27.962 30.3913V30.3872ZM27.4909 30.7994V30.8076C27.4909 30.9014 27.4702 30.9912 27.4248 31.0728C27.3793 31.1545 27.3215 31.2279 27.2471 31.2891C27.1727 31.3503 27.0859 31.3993 26.9868 31.4361C26.8835 31.4728 26.7802 31.4891 26.6686 31.4891C26.557 31.4891 26.4455 31.4728 26.3422 31.4361C26.243 31.4034 26.1521 31.3503 26.0818 31.2891C26.0074 31.2279 25.9496 31.1545 25.9083 31.0728C25.867 30.9912 25.8422 30.9014 25.8422 30.8076V30.7994C25.8422 30.7055 25.8628 30.6198 25.9083 30.5341C25.9496 30.4525 26.0074 30.3791 26.0818 30.3138C26.1562 30.2525 26.243 30.2036 26.3422 30.1668C26.4413 30.1342 26.5529 30.1138 26.6686 30.1138C26.7843 30.1138 26.8876 30.1301 26.9868 30.1668C27.0859 30.2036 27.1727 30.2525 27.2471 30.3138C27.3215 30.375 27.3793 30.4484 27.4248 30.5341C27.4702 30.6157 27.4909 30.7055 27.4909 30.7994Z" fill="white"/>
<path d="M11.9055 27.5479H11.3477V31.6208H11.9055V27.5479Z" fill="white"/>
<path d="M18.7033 30.0491H19.9099V27.6494H19.3561V28.5064H17.5049V27.6494H16.9471V29.5186C16.9471 29.6696 16.9967 29.7961 17.1 29.8981C17.2033 29.996 17.3231 30.0491 17.4595 30.0491H18.1413V30.7837H16.4141V31.1469H20.4305V30.7837H18.7033V30.0491ZM17.7446 29.6859C17.6826 29.6859 17.6248 29.6655 17.5752 29.6287C17.5256 29.592 17.5008 29.539 17.5008 29.4777V28.8697H19.352V29.6859H17.7446Z" fill="white"/>
<path d="M21.334 31.0829C21.334 31.2339 21.3794 31.3604 21.4703 31.4624C21.5613 31.5644 21.6687 31.6175 21.7968 31.6175H24.1397V30.1973H21.334V31.0829ZM21.8877 30.5605H23.5819V31.2584H22.1398C22.0736 31.2584 22.0117 31.242 21.9662 31.2135C21.9166 31.1808 21.8918 31.14 21.8918 31.0829V30.5646L21.8877 30.5605Z" fill="white"/>
<path d="M12.873 31.0813C12.873 31.2323 12.9185 31.3589 13.0094 31.4609C13.1003 31.5629 13.2077 31.616 13.3358 31.616H15.6788V30.0488H12.873V31.0854V31.0813ZM13.4309 30.408H15.1251V31.2528H13.6829C13.6127 31.2528 13.5548 31.2364 13.5053 31.2079C13.4557 31.1752 13.4309 31.1344 13.4309 31.0773V30.408Z" fill="white"/>
<path d="M32.3682 28.8293V27.5479H31.8145V31.6208H32.3682V29.1925H33.0004V28.8293H32.3682Z" fill="white"/>
<path d="M10.4132 28.2049H9.88012C9.85533 28.16 9.82641 28.1151 9.79335 28.0743C9.70245 27.9519 9.59088 27.8539 9.46278 27.7886C9.33468 27.7193 9.19419 27.6866 9.03717 27.6866C8.88015 27.6866 8.73966 27.7193 8.61156 27.7886C8.48346 27.8539 8.3719 27.9519 8.28099 28.0743C8.19008 28.1967 8.11984 28.3437 8.07025 28.5151C8.02067 28.6906 8 28.8783 8 29.0905C8 29.2905 8.01653 29.4782 8.06612 29.6537C8.11157 29.8251 8.18182 29.972 8.27686 30.0945C8.36363 30.221 8.4752 30.3189 8.6033 30.3883C8.73139 30.4577 8.87602 30.4903 9.03717 30.4903C9.19832 30.4903 9.34295 30.4536 9.47105 30.3883C9.60328 30.3189 9.71484 30.221 9.79748 30.0945C9.82641 30.0577 9.8512 30.0169 9.87599 29.972H10.4132V31.6208H10.9669V27.5479H10.4132V28.2049ZM9.38427 29.8537C9.29336 30.0373 9.17766 30.1312 9.0413 30.1312C8.90494 30.1312 8.78924 30.0414 8.69833 29.8537C8.60743 29.67 8.56197 29.4129 8.56197 29.0905C8.56197 28.7681 8.60743 28.5273 8.70247 28.3355C8.79751 28.1437 8.90907 28.0498 9.0413 28.0498C9.17353 28.0498 9.2851 28.1437 9.38014 28.3355C9.47518 28.5273 9.52063 28.7763 9.52063 29.0905C9.52063 29.4048 9.47518 29.67 9.38427 29.8537ZM10.4132 29.6088H10.0165C10.0578 29.4496 10.0785 29.2742 10.0743 29.0864C10.0743 28.8987 10.0578 28.7273 10.0165 28.5681H10.4132V29.6088Z" fill="white"/>
<path d="M23.5827 28.6824H22.8678C22.8596 28.6579 22.8472 28.6293 22.8348 28.6049C22.7811 28.4824 22.7026 28.3804 22.6034 28.2988C22.5827 28.2784 22.5579 28.262 22.5331 28.2416H23.0538V27.8784H22.1406V27.5479H21.5538V27.8784H20.6406V28.2416H21.1447C21.12 28.258 21.0952 28.2784 21.0745 28.2988C20.9753 28.3845 20.8968 28.4865 20.8431 28.6049C20.7852 28.7273 20.7605 28.8579 20.7605 29.0048C20.7605 29.1517 20.7894 29.2823 20.8431 29.4047C20.8968 29.5231 20.9753 29.6251 21.0745 29.7108C21.1737 29.7965 21.2852 29.8618 21.4216 29.9067C21.5538 29.9516 21.6943 29.9761 21.8431 29.9761C21.9918 29.9761 22.1365 29.9516 22.2687 29.9067C22.4009 29.8578 22.5166 29.7925 22.6117 29.7108C22.7108 29.6251 22.7893 29.5231 22.8431 29.4047C22.8926 29.2946 22.9216 29.1762 22.9257 29.0456H23.5868V29.9802H24.1405V27.5519H23.5868V28.6824H23.5827ZM22.215 29.4456C22.1117 29.5598 21.9877 29.617 21.8389 29.617C21.6902 29.617 21.5662 29.5598 21.4629 29.4456C21.3596 29.3313 21.31 29.1844 21.31 29.0007C21.31 28.8171 21.3596 28.6702 21.4629 28.5559C21.5662 28.4416 21.6902 28.3845 21.8389 28.3845C21.9877 28.3845 22.1158 28.4416 22.215 28.5559C22.3183 28.6702 22.3679 28.8171 22.3679 29.0007C22.3679 29.1844 22.3183 29.3313 22.215 29.4456Z" fill="white"/>
<path d="M30.7366 8.68586V12.8699H32.373V7H8.00989V12.8699H9.64622V8.68586H30.7366Z" fill="#D80C24"/>
<path d="M9.64622 23.8235V19.6436H8.00989V25.5094H32.373V19.6436H30.7366V23.8235H9.64622Z" fill="#1F7BFF"/>
<path d="M24.1535 13.5264H22.7404V18.9881H24.1535V13.5264Z" fill="#1F7BFF"/>
<path d="M15.7867 13.5264H13.8694H13.8653L11.0968 16.0695V13.5264H9.65051V18.9881H11.0968V16.4409L13.8653 18.9881H13.8694H15.7867H15.8115L12.9108 16.2572L15.8115 13.5264H15.7867Z" fill="#1F7BFF"/>
<path d="M27.763 14.9387H30.7464V13.5264H27.8333C27.044 13.5264 26.3746 13.7754 25.8622 14.2734C25.3498 14.7755 25.0978 15.4204 25.0978 16.2531C25.0978 17.0859 25.3457 17.7267 25.8622 18.2329C26.3746 18.7309 27.044 18.9799 27.8333 18.9799H30.7464V17.5716H27.763C26.982 17.5716 26.5151 16.9348 26.5151 16.2531C26.5151 15.5714 26.982 14.9347 27.763 14.9347" fill="#1F7BFF"/>
<path d="M19.2579 13.5264H16.1505V18.9962H19.2579C20.0471 18.9962 20.7165 18.7472 21.2289 18.2452C21.7454 17.739 21.9934 17.094 21.9934 16.2613C21.9934 15.4286 21.7454 14.7795 21.2289 14.2775C20.7165 13.7794 20.0513 13.5264 19.2579 13.5264ZM19.3281 17.5839H17.5678V14.9387H19.3281C20.1091 14.9387 20.576 15.5755 20.576 16.2613C20.576 16.9471 20.1091 17.5839 19.3281 17.5839Z" fill="#1F7BFF"/>
<path d="M8 32.4951H8.20661V32.9889H8.21074L8.52892 32.4951H8.76445L8.38429 33.042L8.79751 33.6541H8.54958L8.21074 33.1114H8.20661V33.6541H8V32.4951Z" fill="white"/>
<path d="M9.17418 32.7686C9.34359 32.7686 9.5378 32.8583 9.5378 33.2093C9.5378 33.5603 9.34359 33.6501 9.17418 33.6501C9.00476 33.6501 8.81055 33.5685 8.81055 33.2093C8.81055 32.8502 9.00889 32.7686 9.17418 32.7686ZM9.17418 33.5072C9.30227 33.5072 9.33119 33.3522 9.33119 33.2093C9.33119 33.0665 9.30227 32.9155 9.17418 32.9155C9.04608 32.9155 9.01715 33.0665 9.01715 33.2093C9.01715 33.3522 9.04608 33.5072 9.17418 33.5072Z" fill="white"/>
<path d="M9.67819 32.9199C9.67819 32.8668 9.67819 32.8179 9.66992 32.7771H9.85174C9.85174 32.8301 9.86 32.8832 9.86 32.9321C9.88479 32.8668 9.94678 32.7607 10.0707 32.7607C10.0831 32.7607 10.0914 32.7607 10.1038 32.7648V32.9566C10.1038 32.9566 10.0666 32.9485 10.0459 32.9485C9.96331 32.9485 9.8724 33.0015 9.8724 33.1607V33.63H9.67405V32.9158L9.67819 32.9199Z" fill="white"/>
<path d="M10.8178 33.597C10.7764 33.6174 10.6897 33.6501 10.5698 33.6501C10.3054 33.6501 10.1855 33.4542 10.1855 33.2216C10.1855 32.9645 10.3136 32.7686 10.5244 32.7686C10.7021 32.7686 10.855 32.8747 10.855 33.2256V33.2664H10.3756C10.3756 33.4134 10.4335 33.5032 10.5864 33.5032C10.7062 33.5032 10.7682 33.4664 10.8012 33.4379L10.8136 33.6011L10.8178 33.597ZM10.6649 33.1359C10.6649 32.9849 10.6153 32.9073 10.5285 32.9073C10.4252 32.9073 10.3798 33.0216 10.3798 33.1359H10.6649Z" fill="white"/>
<path d="M11.0631 32.8376C11.121 32.8131 11.1995 32.7764 11.3234 32.7764C11.5796 32.7764 11.6416 32.907 11.6416 33.1192V33.4946C11.6416 33.5559 11.6499 33.613 11.654 33.6456H11.4722C11.4639 33.613 11.4639 33.5722 11.4639 33.5273H11.4598C11.4102 33.5967 11.3482 33.6579 11.2284 33.6579C11.1003 33.6579 10.9805 33.5681 10.9805 33.4089C10.9805 33.1763 11.1623 33.1192 11.4143 33.1192H11.4557V33.0865C11.4557 33.0008 11.4143 32.9233 11.3028 32.9233C11.2036 32.9233 11.1168 32.9723 11.0755 33.009L11.0631 32.8417V32.8376ZM11.4515 33.2253H11.435C11.2656 33.2253 11.1623 33.262 11.1623 33.3885C11.1623 33.4661 11.2119 33.5191 11.2904 33.5191C11.4102 33.5191 11.4515 33.4253 11.4515 33.2743V33.2253Z" fill="white"/>
<path d="M12.2715 32.4951H12.5649C12.9161 32.4951 13.102 32.691 13.102 33.0746C13.102 33.4583 12.8789 33.6541 12.5649 33.6541H12.2715V32.4951ZM12.4781 33.4909H12.5483C12.7797 33.4909 12.883 33.3277 12.883 33.0746C12.883 32.8216 12.7797 32.6584 12.5483 32.6584H12.4781V33.4909Z" fill="white"/>
<path d="M13.8058 33.597C13.7645 33.6174 13.6777 33.6501 13.5579 33.6501C13.2934 33.6501 13.1777 33.4542 13.1777 33.2216C13.1777 32.9645 13.3058 32.7686 13.5166 32.7686C13.6942 32.7686 13.8471 32.8747 13.8471 33.2256V33.2664H13.3678C13.3678 33.4134 13.4257 33.5032 13.5785 33.5032C13.6984 33.5032 13.7562 33.4664 13.7934 33.4379L13.8017 33.6011L13.8058 33.597ZM13.6571 33.1359C13.6571 32.9849 13.6116 32.9073 13.5207 32.9073C13.4174 32.9073 13.3719 33.0216 13.3719 33.1359H13.6571Z" fill="white"/>
<path d="M13.9809 32.9277C13.9809 32.8665 13.9809 32.8134 13.9727 32.7808H14.1586C14.1586 32.8053 14.1669 32.8543 14.1669 32.9155C14.1999 32.842 14.2578 32.7686 14.3859 32.7686C14.5925 32.7686 14.6751 32.9726 14.6751 33.2093C14.6751 33.4909 14.5677 33.6501 14.39 33.6501C14.2702 33.6501 14.2041 33.5807 14.1793 33.5154H14.1751V33.997H13.9768V32.9277H13.9809ZM14.3322 33.4991C14.4437 33.4991 14.4809 33.3889 14.4809 33.2175C14.4809 33.0216 14.452 32.9196 14.3363 32.9196C14.2206 32.9196 14.1793 33.0501 14.1793 33.2134C14.1793 33.3766 14.2247 33.4991 14.3322 33.4991Z" fill="white"/>
<path d="M15.1371 32.7686C15.3065 32.7686 15.5007 32.8583 15.5007 33.2093C15.5007 33.5603 15.3065 33.6501 15.1371 33.6501C14.9677 33.6501 14.7734 33.5685 14.7734 33.2093C14.7734 32.8502 14.9677 32.7686 15.1371 32.7686ZM15.1371 33.5072C15.2652 33.5072 15.2941 33.3522 15.2941 33.2093C15.2941 33.0665 15.2652 32.9155 15.1371 32.9155C15.009 32.9155 14.98 33.0665 14.98 33.2093C14.98 33.3522 15.009 33.5072 15.1371 33.5072Z" fill="white"/>
<path d="M15.614 33.4416C15.647 33.4538 15.7255 33.4987 15.8206 33.4987C15.8949 33.4987 15.9487 33.4824 15.9487 33.413C15.9487 33.3804 15.9321 33.3477 15.8619 33.3069L15.7792 33.2579C15.6966 33.2049 15.6057 33.1518 15.6057 33.0172C15.6057 32.8988 15.7173 32.7764 15.8908 32.7764C15.9982 32.7764 16.0768 32.8049 16.0974 32.8131L16.085 32.9723C16.0354 32.9519 15.9817 32.9355 15.9115 32.9355C15.8288 32.9355 15.7958 32.9682 15.7958 33.0172C15.7958 33.062 15.833 33.0906 15.8908 33.1273L15.99 33.1926C16.0933 33.262 16.1429 33.3069 16.1429 33.4089C16.1429 33.5681 16.0148 33.662 15.833 33.662C15.7297 33.662 15.647 33.6375 15.6016 33.6212L15.6098 33.4497L15.614 33.4416Z" fill="white"/>
<path d="M16.2891 32.4248H16.4957V32.6289H16.2891V32.4248ZM16.2932 32.788H16.4915V33.645H16.2932V32.788Z" fill="white"/>
<path d="M16.7611 32.6073L16.9595 32.542V32.7828H17.1248V32.9338H16.9595V33.3786C16.9595 33.4684 16.9925 33.497 17.0504 33.497C17.0834 33.497 17.1124 33.4847 17.1248 33.4807V33.6276C17.0958 33.6439 17.0504 33.6561 16.9925 33.6561C16.8438 33.6561 16.7611 33.5868 16.7611 33.4072V32.9379H16.6289V32.7869H16.7611V32.6114V32.6073Z" fill="white"/>
<path d="M18.0523 32.4951H17.8457V33.6541H18.0523V32.4951Z" fill="white"/>
<path d="M18.2619 32.9236C18.2619 32.8706 18.2619 32.8216 18.2578 32.7808H18.4438C18.4438 32.8257 18.452 32.8665 18.452 32.9114C18.4809 32.8583 18.5388 32.7686 18.671 32.7686C18.857 32.7686 18.9148 32.9114 18.9148 33.0869V33.6378H18.7165V33.1236C18.7165 32.993 18.6834 32.9359 18.6008 32.9359C18.4975 32.9359 18.4603 33.0257 18.4603 33.1359V33.6338H18.2619V32.9196V32.9236Z" fill="white"/>
<path d="M19.0747 33.4416C19.1077 33.4538 19.1862 33.4987 19.2813 33.4987C19.3515 33.4987 19.4094 33.4824 19.4094 33.413C19.4094 33.3804 19.3928 33.3477 19.3226 33.3069L19.24 33.2579C19.1573 33.2049 19.0664 33.1518 19.0664 33.0172C19.0664 32.8988 19.178 32.7764 19.3515 32.7764C19.459 32.7764 19.5416 32.8049 19.5581 32.8131L19.5457 32.9723C19.4961 32.9519 19.4424 32.9355 19.3722 32.9355C19.2937 32.9355 19.2565 32.9682 19.2565 33.0172C19.2565 33.062 19.2937 33.0906 19.3515 33.1273L19.4507 33.1926C19.554 33.262 19.6036 33.3069 19.6036 33.4089C19.6036 33.5681 19.4755 33.662 19.2978 33.662C19.1945 33.662 19.1119 33.6375 19.0664 33.6212L19.0747 33.4497V33.4416Z" fill="white"/>
<path d="M20.3775 33.4984C20.3775 33.5514 20.3775 33.6004 20.3858 33.6412H20.1998C20.1998 33.5963 20.1915 33.5514 20.1915 33.5106H20.1874C20.1502 33.5718 20.0965 33.6535 19.9684 33.6535C19.7783 33.6535 19.7246 33.5106 19.7246 33.3351V32.7842H19.923V33.2984C19.923 33.429 19.956 33.482 20.0428 33.482C20.1461 33.482 20.1791 33.3841 20.1791 33.2739V32.7842H20.3775V33.4984Z" fill="white"/>
<path d="M20.5727 32.9199C20.5727 32.8668 20.5727 32.8179 20.5645 32.7771H20.7463C20.7463 32.8301 20.7545 32.8832 20.7545 32.9321C20.7793 32.8668 20.8413 32.7607 20.9653 32.7607C20.9777 32.7607 20.9859 32.7607 20.9983 32.7648V32.9566C20.9983 32.9566 20.9611 32.9485 20.9405 32.9485C20.8578 32.9485 20.7669 33.0015 20.7669 33.1607V33.63H20.5686V32.9158L20.5727 32.9199Z" fill="white"/>
<path d="M21.1369 32.8376C21.1947 32.8131 21.2732 32.7764 21.4013 32.7764C21.6575 32.7764 21.7195 32.907 21.7195 33.1192V33.4946C21.7195 33.5559 21.7278 33.613 21.7319 33.6456H21.5542C21.546 33.613 21.5418 33.5722 21.5418 33.5273C21.4922 33.5967 21.4303 33.6579 21.3104 33.6579C21.1823 33.6579 21.0625 33.5681 21.0625 33.4089C21.0625 33.1763 21.2443 33.1192 21.4964 33.1192H21.5377V33.0865C21.5377 33.0008 21.4964 32.9233 21.3848 32.9233C21.2856 32.9233 21.1947 32.9723 21.1575 33.009L21.1451 32.8417L21.1369 32.8376ZM21.5294 33.2253H21.5129C21.3435 33.2253 21.2402 33.262 21.2402 33.3885C21.2402 33.4661 21.2898 33.5191 21.3683 33.5191C21.4881 33.5191 21.5294 33.4253 21.5294 33.2743V33.2253Z" fill="white"/>
<path d="M21.8969 32.9236C21.8969 32.8706 21.8969 32.8216 21.8887 32.7808H22.0746C22.0746 32.8257 22.0788 32.8665 22.0788 32.9114C22.1077 32.8583 22.1614 32.7686 22.2978 32.7686C22.4878 32.7686 22.5416 32.9114 22.5416 33.0869V33.6378H22.3432V33.1236C22.3432 32.993 22.3102 32.9359 22.2316 32.9359C22.1283 32.9359 22.0911 33.0257 22.0911 33.1359V33.6338H21.8928V32.9196L21.8969 32.9236Z" fill="white"/>
<path d="M23.2604 33.6174C23.2149 33.6338 23.1447 33.6501 23.0662 33.6501C22.7934 33.6501 22.6777 33.4542 22.6777 33.2093C22.6777 32.9645 22.7976 32.7686 23.0786 32.7686C23.1405 32.7686 23.2149 32.789 23.2521 32.8053L23.2397 32.9685C23.2025 32.9522 23.1529 32.9277 23.0992 32.9277C22.9505 32.9277 22.8843 33.0338 22.8843 33.2175C22.8843 33.3766 22.9587 33.4991 23.1116 33.4991C23.1612 33.4991 23.2273 33.4746 23.2521 33.4583L23.2645 33.6215L23.2604 33.6174Z" fill="white"/>
<path d="M23.9799 33.597C23.9386 33.6174 23.8518 33.6501 23.7319 33.6501C23.4634 33.6501 23.3477 33.4542 23.3477 33.2216C23.3477 32.9645 23.4799 32.7686 23.6865 32.7686C23.8642 32.7686 24.0171 32.8747 24.0171 33.2256V33.2664H23.5377C23.5377 33.4134 23.5956 33.5032 23.7485 33.5032C23.8683 33.5032 23.9303 33.4664 23.9675 33.4379L23.9757 33.6011L23.9799 33.597ZM23.827 33.1359C23.827 32.9849 23.7774 32.9073 23.6865 32.9073C23.5832 32.9073 23.5377 33.0216 23.5377 33.1359H23.8228H23.827Z" fill="white"/>
<path d="M25.3697 33.6304C25.3284 33.6549 25.2292 33.6712 25.1259 33.6712C24.7871 33.6712 24.6094 33.4141 24.6094 33.0753C24.6094 32.7366 24.7829 32.4795 25.1176 32.4795C25.2292 32.4795 25.3242 32.5122 25.3656 32.5285L25.3532 32.7203C25.3118 32.6999 25.2457 32.6591 25.1424 32.6591C24.973 32.6591 24.8284 32.7774 24.8284 33.0794C24.8284 33.3814 24.973 33.4998 25.1424 33.4998C25.2416 33.4998 25.3077 33.4753 25.3532 33.4386L25.3656 33.6345L25.3697 33.6304Z" fill="white"/>
<path d="M25.7972 32.7686C25.9666 32.7686 26.1608 32.8583 26.1608 33.2093C26.1608 33.5603 25.9666 33.6501 25.7972 33.6501C25.6278 33.6501 25.4336 33.5685 25.4336 33.2093C25.4336 32.8502 25.6319 32.7686 25.7972 32.7686ZM25.7972 33.5072C25.9253 33.5072 25.9542 33.3522 25.9542 33.2093C25.9542 33.0665 25.9253 32.9155 25.7972 32.9155C25.6691 32.9155 25.6402 33.0665 25.6402 33.2093C25.6402 33.3522 25.6691 33.5072 25.7972 33.5072Z" fill="white"/>
<path d="M26.3147 32.9199C26.3147 32.8668 26.3147 32.8179 26.3105 32.7771H26.4882C26.4882 32.8301 26.4965 32.8832 26.4965 32.9321C26.5213 32.8668 26.5833 32.7607 26.7072 32.7607C26.7196 32.7607 26.7279 32.7607 26.7403 32.7648V32.9566C26.7403 32.9566 26.7072 32.9485 26.6824 32.9485C26.5998 32.9485 26.513 33.0015 26.513 33.1607V33.63H26.3147V32.9158V32.9199Z" fill="white"/>
<path d="M26.8911 32.9277C26.8911 32.8665 26.8911 32.8134 26.8828 32.7808H27.0688C27.0688 32.8053 27.077 32.8543 27.077 32.9155H27.0812C27.1142 32.842 27.1721 32.7686 27.3002 32.7686C27.5068 32.7686 27.5935 32.9726 27.5935 33.2093C27.5935 33.4909 27.4861 33.6501 27.3084 33.6501C27.1886 33.6501 27.1225 33.5807 27.0977 33.5154V33.997H26.8993V32.9277H26.8911ZM27.2423 33.4991C27.3539 33.4991 27.3911 33.3889 27.3911 33.2175C27.3911 33.0216 27.3621 32.9196 27.2464 32.9196C27.1307 32.9196 27.0894 33.0501 27.0894 33.2134C27.0894 33.3766 27.1349 33.4991 27.2423 33.4991Z" fill="white"/>
<path d="M28.0589 32.7686C28.2283 32.7686 28.4226 32.8583 28.4226 33.2093C28.4226 33.5603 28.2283 33.6501 28.0589 33.6501C27.8895 33.6501 27.6953 33.5685 27.6953 33.2093C27.6953 32.8502 27.8936 32.7686 28.0589 32.7686ZM28.0589 33.5072C28.187 33.5072 28.216 33.3522 28.216 33.2093C28.216 33.0665 28.187 32.9155 28.0589 32.9155C27.9308 32.9155 27.9019 33.0665 27.9019 33.2093C27.9019 33.3522 27.9308 33.5072 28.0589 33.5072Z" fill="white"/>
<path d="M28.5727 32.9199C28.5727 32.8668 28.5727 32.8179 28.5645 32.7771H28.7421C28.7421 32.8301 28.7504 32.8832 28.7504 32.9321C28.7752 32.8668 28.8372 32.7607 28.9611 32.7607C28.9735 32.7607 28.9859 32.7607 28.9942 32.7648V32.9566C28.9942 32.9566 28.957 32.9485 28.9363 32.9485C28.8537 32.9485 28.7628 33.0015 28.7628 33.1607V33.63H28.5645V32.9158L28.5727 32.9199Z" fill="white"/>
<path d="M29.1549 32.8376C29.2128 32.8131 29.2913 32.7764 29.4152 32.7764C29.6714 32.7764 29.7293 32.907 29.7293 33.1192V33.4946C29.7293 33.5559 29.7375 33.613 29.7417 33.6456H29.5599C29.5516 33.613 29.5475 33.5722 29.5475 33.5273C29.4979 33.5967 29.4359 33.6579 29.3161 33.6579C29.188 33.6579 29.0723 33.5681 29.0723 33.4089C29.0723 33.1763 29.2541 33.1192 29.5061 33.1192H29.5475V33.0865C29.5475 33.0008 29.5061 32.9233 29.3946 32.9233C29.2954 32.9233 29.2086 32.9723 29.1673 33.009L29.1549 32.8417V32.8376ZM29.5475 33.2253H29.5309C29.3615 33.2253 29.2582 33.262 29.2582 33.3885C29.2582 33.4661 29.3078 33.5191 29.3863 33.5191C29.5061 33.5191 29.5475 33.4253 29.5475 33.2743V33.2253Z" fill="white"/>
<path d="M29.9857 32.6073L30.1841 32.542V32.7828H30.3494V32.9338H30.1841V33.3786C30.1841 33.4684 30.2172 33.497 30.275 33.497C30.3122 33.497 30.337 33.4847 30.3494 33.4807V33.6276C30.3205 33.6439 30.275 33.6561 30.2171 33.6561C30.0684 33.6561 29.9857 33.5868 29.9857 33.4072V32.9379H29.8535V32.7869H29.9857V32.6114V32.6073Z" fill="white"/>
<path d="M30.5254 32.4248H30.732V32.6289H30.5254V32.4248ZM30.5295 32.788H30.7279V33.645H30.5295V32.788Z" fill="white"/>
<path d="M31.2445 32.7686C31.4139 32.7686 31.6081 32.8583 31.6081 33.2093C31.6081 33.5603 31.4139 33.6501 31.2445 33.6501C31.0751 33.6501 30.8809 33.5685 30.8809 33.2093C30.8809 32.8502 31.0751 32.7686 31.2445 32.7686ZM31.2445 33.5072C31.3726 33.5072 31.4015 33.3522 31.4015 33.2093C31.4015 33.0665 31.3726 32.9155 31.2445 32.9155C31.1164 32.9155 31.0833 33.0665 31.0833 33.2093C31.0833 33.3522 31.1123 33.5072 31.2445 33.5072Z" fill="white"/>
<path d="M31.7094 32.9236C31.7094 32.8706 31.7094 32.8216 31.7012 32.7808H31.8871C31.8871 32.8257 31.8954 32.8665 31.8954 32.9114C31.9243 32.8583 31.9822 32.7686 32.1144 32.7686C32.3045 32.7686 32.3582 32.9114 32.3582 33.0869V33.6378H32.1598V33.1236C32.1598 32.993 32.1268 32.9359 32.0441 32.9359C31.9408 32.9359 31.9037 33.0257 31.9037 33.1359V33.6338H31.7053V32.9196L31.7094 32.9236Z" fill="white"/>
</svg>
