<svg width="40" height="40" viewBox="0 0 40 40" fill="none" xmlns="http://www.w3.org/2000/svg">
<path d="M14.4985 25.7236H14.1972L13.7543 26.2594V25.7236H13.5078V26.9692H13.7543V26.3916H13.7566L14.1972 26.9692H14.519L13.994 26.3105L14.4985 25.7236Z" fill="white"/>
<path d="M15.6607 25.8788C15.6105 25.8208 15.5465 25.7767 15.4712 25.7466C15.3959 25.7164 15.3114 25.7002 15.2156 25.7002C15.0238 25.7002 14.8777 25.7582 14.7727 25.8742C14.6677 25.9901 14.6152 26.1455 14.6152 26.3404C14.6152 26.5352 14.6677 26.6929 14.7705 26.8112C14.8755 26.9295 15.0238 26.9875 15.2156 26.9875C15.3114 26.9875 15.3959 26.9713 15.4712 26.9411C15.5465 26.9086 15.6082 26.8646 15.6607 26.8066C15.7109 26.7486 15.7497 26.679 15.7771 26.6025C15.8045 26.5236 15.8159 26.4378 15.8159 26.3427C15.8159 26.2476 15.8022 26.1618 15.7748 26.0829C15.7474 26.004 15.7086 25.9368 15.6584 25.8788H15.6607ZM15.542 26.5097C15.5283 26.563 15.51 26.6117 15.4803 26.6535C15.453 26.6952 15.4164 26.73 15.3731 26.7556C15.3297 26.7811 15.2772 26.7927 15.2156 26.7927C15.1539 26.7927 15.1014 26.7811 15.0581 26.7556C15.0147 26.73 14.9782 26.6976 14.9508 26.6535C14.9234 26.6117 14.9028 26.563 14.8891 26.5097C14.8755 26.4563 14.8709 26.4007 14.8709 26.3427C14.8709 26.2847 14.8777 26.2314 14.8914 26.178C14.9051 26.1247 14.9257 26.0783 14.9531 26.0342C14.9805 25.9924 15.017 25.9577 15.0603 25.9345C15.1037 25.909 15.1562 25.8974 15.2133 25.8974C15.2703 25.8974 15.3228 25.909 15.3662 25.9345C15.4096 25.96 15.4461 25.9924 15.4735 26.0342C15.5009 26.076 15.5214 26.1247 15.5351 26.178C15.5488 26.2314 15.5557 26.287 15.5557 26.3427C15.5557 26.3984 15.5488 26.4563 15.5374 26.5097H15.542Z" fill="white"/>
<path d="M16.6893 26.394C16.6688 26.3708 16.6436 26.3568 16.614 26.3545V26.3499C16.6916 26.3383 16.7532 26.3081 16.7989 26.2525C16.8445 26.1991 16.8673 26.1342 16.8673 26.06C16.8673 25.9857 16.8514 25.9185 16.8217 25.8721C16.792 25.8257 16.7486 25.7909 16.6961 25.77C16.6436 25.7491 16.5866 25.7352 16.525 25.7306C16.4633 25.726 16.3857 25.7236 16.2921 25.7236H16.0273V26.9692H16.2739V26.452H16.3538C16.404 26.452 16.4382 26.4612 16.461 26.4798C16.4839 26.4983 16.5044 26.5308 16.5227 26.5795L16.671 26.9692H16.945L16.7486 26.4821C16.7327 26.4473 16.7144 26.4172 16.6939 26.394H16.6893ZM16.5889 26.1736C16.5752 26.1968 16.5546 26.2154 16.5295 26.227C16.5044 26.2386 16.477 26.2478 16.4496 26.2502C16.42 26.2548 16.388 26.2571 16.3515 26.2571H16.2716V25.9208H16.3515C16.388 25.9208 16.4222 25.9208 16.4496 25.9254C16.4793 25.9301 16.5044 25.937 16.5295 25.9463C16.5546 25.9579 16.5729 25.9741 16.5889 25.995C16.6026 26.0182 16.6117 26.046 16.6117 26.0808C16.6117 26.1156 16.6048 26.1481 16.5889 26.1713V26.1736Z" fill="white"/>
<path d="M17.3634 26.4241H17.8016V26.227H17.3634V25.9208H17.8427V25.7236H17.1191V26.9692H17.845V26.7744H17.3634V26.4241Z" fill="white"/>
<path d="M18.4439 25.7236L17.9668 26.9692H18.2224L18.3297 26.6839H18.8273L18.9323 26.9692H19.204L18.7223 25.7236H18.4439ZM18.3982 26.4891L18.5763 25.9741H18.5808L18.7589 26.4891H18.4005H18.3982Z" fill="white"/>
<path d="M19.8496 26.9692H20.0961V26.4241H20.5116V26.227H20.0961V25.9208H20.5321V25.7236H19.8496V26.9692Z" fill="white"/>
<path d="M20.9731 26.4241H21.4091V26.227H20.9731V25.9208H21.4502V25.7236H20.7266V26.9692H21.4547V26.7744H20.9731V26.4241Z" fill="white"/>
<path d="M22.5386 25.8535C22.4746 25.8071 22.3993 25.7723 22.3149 25.7538C22.2304 25.7352 22.1391 25.7236 22.0387 25.7236H21.7031V26.9692H22.0387C22.1391 26.9692 22.2304 26.9599 22.3149 26.939C22.3993 26.9182 22.4724 26.8857 22.5386 26.8393C22.6025 26.7929 22.655 26.728 22.6915 26.6468C22.728 26.5656 22.7463 26.4659 22.7463 26.3452C22.7463 26.2246 22.728 26.1272 22.6915 26.0437C22.655 25.9625 22.6048 25.8976 22.5386 25.8512V25.8535ZM22.4564 26.5262C22.4336 26.5795 22.4039 26.6259 22.3651 26.6607C22.3263 26.6978 22.2829 26.7256 22.235 26.7442C22.187 26.7628 22.1368 26.772 22.0843 26.772H21.9474V25.9185H22.0843C22.1368 25.9185 22.1848 25.9277 22.235 25.9463C22.2829 25.9649 22.3263 25.9927 22.3651 26.0298C22.4039 26.0669 22.4336 26.111 22.4564 26.1643C22.4792 26.2177 22.4906 26.278 22.4906 26.3429C22.4906 26.4079 22.4792 26.4682 22.4564 26.5215V26.5262Z" fill="white"/>
<path d="M23.2192 26.4241H23.6552V26.227H23.2192V25.9208H23.6962V25.7236H22.9727V26.9692H23.7008V26.7744H23.2192V26.4241Z" fill="white"/>
<path d="M24.5916 26.394C24.5711 26.3708 24.546 26.3568 24.5163 26.3545V26.3499C24.5939 26.3383 24.6556 26.3081 24.7012 26.2525C24.7469 26.1991 24.7697 26.1342 24.7697 26.06C24.7697 25.9857 24.7537 25.9185 24.724 25.8721C24.6921 25.8257 24.651 25.7909 24.5985 25.77C24.546 25.7491 24.4889 25.7352 24.4273 25.7306C24.3657 25.726 24.2881 25.7236 24.1945 25.7236H23.9297V26.9692H24.1762V26.452H24.2561C24.3063 26.452 24.3406 26.4612 24.3634 26.4798C24.3862 26.4983 24.4068 26.5308 24.425 26.5795L24.5734 26.9692H24.8473L24.651 26.4821C24.635 26.4473 24.6168 26.4172 24.5962 26.394H24.5916ZM24.4912 26.1736C24.4775 26.1968 24.457 26.2154 24.4319 26.227C24.4068 26.2386 24.3794 26.2478 24.352 26.2502C24.3223 26.2548 24.2903 26.2571 24.2538 26.2571H24.1739V25.9208H24.2538C24.2903 25.9208 24.3246 25.9208 24.352 25.9254C24.3816 25.9301 24.4068 25.937 24.4319 25.9463C24.457 25.9579 24.4752 25.9741 24.4912 25.995C24.5049 26.0182 24.514 26.046 24.514 26.0808C24.514 26.1156 24.5072 26.1481 24.4912 26.1713V26.1736Z" fill="white"/>
<path d="M25.3735 25.7236L24.8965 26.9692H25.1521L25.2594 26.6839H25.757L25.862 26.9692H26.1337L25.652 25.7236H25.3735ZM25.3279 26.4891L25.5059 25.9741H25.5105L25.6886 26.4891H25.3302H25.3279Z" fill="white"/>
<path d="M26.0215 25.9208H26.3707V26.9692H26.6172V25.9208H26.9688V25.7236H26.0215V25.9208Z" fill="white"/>
<path d="M27.35 25.7236H27.1035V26.9692H27.35V25.7236Z" fill="white"/>
<path d="M28.5962 25.8788C28.546 25.8208 28.4821 25.7767 28.4068 25.7466C28.3314 25.7164 28.247 25.7002 28.1511 25.7002C27.9594 25.7002 27.8133 25.7582 27.7083 25.8742C27.6033 25.9901 27.5508 26.1455 27.5508 26.3404C27.5508 26.5352 27.6033 26.6929 27.706 26.8112C27.811 26.9295 27.9571 26.9875 28.1511 26.9875C28.247 26.9875 28.3314 26.9713 28.4068 26.9411C28.4821 26.9086 28.5437 26.8646 28.5962 26.8066C28.6464 26.7486 28.6852 26.679 28.7126 26.6025C28.74 26.5236 28.7514 26.4378 28.7514 26.3427C28.7514 26.2476 28.7377 26.1618 28.7104 26.0829C28.683 26.004 28.6442 25.9368 28.5939 25.8788H28.5962ZM28.4775 26.5097C28.4638 26.563 28.4456 26.6117 28.4159 26.6535C28.3885 26.6952 28.352 26.73 28.3086 26.7556C28.2652 26.7811 28.2127 26.7927 28.1511 26.7927C28.0895 26.7927 28.037 26.7811 27.9936 26.7556C27.9502 26.73 27.9137 26.6976 27.8863 26.6535C27.8589 26.6117 27.8384 26.563 27.8247 26.5097C27.811 26.4563 27.8064 26.4007 27.8064 26.3427C27.8064 26.2847 27.8133 26.2314 27.827 26.178C27.8407 26.1247 27.8612 26.0783 27.8886 26.0342C27.916 25.9924 27.9525 25.9577 27.9959 25.9345C28.0393 25.909 28.0918 25.8974 28.1488 25.8974C28.2059 25.8974 28.2584 25.909 28.3018 25.9345C28.3451 25.96 28.3817 25.9924 28.409 26.0342C28.4364 26.076 28.457 26.1247 28.4707 26.178C28.4844 26.2314 28.4912 26.287 28.4912 26.3427C28.4912 26.3984 28.4844 26.4563 28.473 26.5097H28.4775Z" fill="white"/>
<path d="M29.7387 26.6561H29.7341L29.2684 25.7236H28.9648V26.9692H29.2V26.0391H29.2045L29.6725 26.9692H29.9738V25.7236H29.7387V26.6561Z" fill="white"/>
<path d="M31.7193 25.8788C31.669 25.8208 31.6051 25.7767 31.5298 25.7466C31.4545 25.7164 31.37 25.7002 31.2742 25.7002C31.0824 25.7002 30.9363 25.7582 30.8313 25.8742C30.7263 25.9901 30.6738 26.1455 30.6738 26.3404C30.6738 26.5352 30.7263 26.6929 30.829 26.8112C30.9318 26.9295 31.0801 26.9875 31.2742 26.9875C31.37 26.9875 31.4545 26.9713 31.5298 26.9411C31.6051 26.9086 31.6668 26.8646 31.7193 26.8066C31.7695 26.7486 31.8083 26.679 31.8357 26.6025C31.8631 26.5236 31.8745 26.4378 31.8745 26.3427C31.8745 26.2476 31.8608 26.1618 31.8334 26.0829C31.806 26.004 31.7672 25.9368 31.717 25.8788H31.7193ZM31.6006 26.5097C31.5869 26.563 31.5686 26.6117 31.5389 26.6535C31.5115 26.6952 31.475 26.73 31.4317 26.7556C31.3883 26.7811 31.3358 26.7927 31.2742 26.7927C31.2125 26.7927 31.16 26.7811 31.1167 26.7556C31.0733 26.73 31.0368 26.6976 31.0094 26.6535C30.982 26.6117 30.9614 26.563 30.9477 26.5097C30.934 26.4563 30.9295 26.4007 30.9295 26.3427C30.9295 26.2847 30.9363 26.2314 30.95 26.178C30.9637 26.1247 30.9843 26.0783 31.0117 26.0342C31.039 25.9924 31.0756 25.9577 31.1189 25.9345C31.1623 25.909 31.2148 25.8974 31.2719 25.8974C31.3289 25.8974 31.3814 25.909 31.4248 25.9345C31.4682 25.96 31.5047 25.9924 31.5321 26.0342C31.5595 26.076 31.58 26.1247 31.5937 26.178C31.6074 26.2314 31.6143 26.287 31.6143 26.3427C31.6143 26.3984 31.6074 26.4563 31.596 26.5097H31.6006Z" fill="white"/>
<path d="M32.0996 26.9692H32.3461V26.4241H32.7616V26.227H32.3461V25.9208H32.7821V25.7236H32.0996V26.9692Z" fill="white"/>
<path d="M34.0463 26.3244V26.3197C34.1193 26.3058 34.1786 26.2757 34.2243 26.2246C34.2677 26.1736 34.2905 26.1133 34.2905 26.0414C34.2905 25.9765 34.2791 25.9231 34.254 25.8814C34.2289 25.8396 34.1969 25.8048 34.1581 25.7816C34.1193 25.7584 34.0759 25.7422 34.0326 25.7352C33.9892 25.7259 33.9435 25.7236 33.8979 25.7236H33.4688V26.9692H33.8979C33.9435 26.9692 33.9915 26.9645 34.0394 26.9553C34.0873 26.946 34.133 26.9274 34.1764 26.9042C34.2197 26.8787 34.2562 26.8416 34.2859 26.7929C34.3156 26.7442 34.3293 26.6839 34.3293 26.6097C34.3293 26.5354 34.3042 26.4682 34.2517 26.4172C34.1992 26.3638 34.133 26.3337 34.0485 26.3267L34.0463 26.3244ZM33.7107 25.9185H33.8066C33.8408 25.9185 33.8705 25.9185 33.8979 25.9231C33.9253 25.9254 33.9481 25.9324 33.9709 25.9417C33.9937 25.9509 34.012 25.9672 34.0234 25.988C34.0371 26.0089 34.044 26.0368 34.044 26.0716C34.044 26.1017 34.0371 26.1272 34.0234 26.1481C34.0097 26.169 33.9915 26.1829 33.9686 26.1945C33.9458 26.2061 33.9207 26.213 33.8956 26.2177C33.8682 26.2223 33.8408 26.2246 33.8111 26.2246H33.7107V25.9185ZM34.0577 26.6839C34.044 26.7071 34.0234 26.7233 33.9983 26.7372C33.9732 26.7512 33.9481 26.7604 33.9184 26.7651C33.8888 26.7697 33.8591 26.772 33.8271 26.772H33.7107V26.4125H33.8271C33.8614 26.4125 33.8933 26.4148 33.923 26.4195C33.9527 26.4241 33.9778 26.4334 34.0029 26.4473C34.028 26.4612 34.0463 26.4798 34.0599 26.5053C34.0736 26.5308 34.0805 26.5633 34.0805 26.6027C34.0805 26.6375 34.0736 26.6653 34.0577 26.6885V26.6839Z" fill="white"/>
<path d="M34.8911 25.7236L34.4141 26.9692H34.6697L34.777 26.6839H35.2746L35.3796 26.9692H35.6512L35.1696 25.7236H34.8911ZM34.8455 26.4891L35.0235 25.9741H35.0281L35.2061 26.4891H34.8478H34.8455Z" fill="white"/>
<path d="M36.5684 26.6561H36.5661L36.0982 25.7236H35.7969V26.9692H36.032V26.0391H36.0343L36.5045 26.9692H36.8035V25.7236H36.5684V26.6561Z" fill="white"/>
<path d="M38.0649 25.7236H37.7636L37.3207 26.2594V25.7236H37.0742V26.9692H37.3207V26.3916H37.3253L37.7659 26.9692H38.0877L37.5627 26.3105L38.0649 25.7236Z" fill="white"/>
<path d="M38.9698 26.4665C38.9515 26.4247 38.9241 26.3923 38.8945 26.3644C38.8625 26.3366 38.8305 26.3157 38.7963 26.2995C38.7621 26.2832 38.7187 26.2647 38.6662 26.2438C38.5954 26.216 38.5452 26.1905 38.511 26.1696C38.479 26.1464 38.4608 26.1162 38.4608 26.0745C38.4608 26.042 38.4676 26.0142 38.479 25.9933C38.4904 25.9701 38.5064 25.9539 38.5247 25.94C38.5429 25.926 38.5635 25.9168 38.5863 25.9121C38.6091 25.9052 38.632 25.9028 38.6548 25.9028C38.7392 25.9028 38.8237 25.9214 38.9036 25.9562L38.9264 25.7521C38.8397 25.7219 38.7415 25.708 38.6342 25.708C38.5772 25.708 38.5224 25.715 38.4722 25.7289C38.422 25.7428 38.3763 25.766 38.3352 25.7961C38.2941 25.8263 38.2622 25.8657 38.2393 25.9144C38.2165 25.9632 38.2051 26.0211 38.2051 26.0884C38.2051 26.1441 38.2142 26.1928 38.2325 26.2322C38.2508 26.2716 38.2759 26.3064 38.3055 26.3319C38.3352 26.3575 38.3672 26.3807 38.4014 26.3969C38.4356 26.4131 38.4767 26.4317 38.527 26.4526C38.6 26.4804 38.6548 26.5082 38.689 26.5337C38.7233 26.5593 38.7415 26.5941 38.7415 26.6404C38.7415 26.6915 38.7187 26.7309 38.673 26.7587C38.6274 26.7866 38.5772 26.8005 38.5247 26.8005C38.4767 26.8005 38.4311 26.7935 38.3832 26.7796C38.3352 26.7657 38.2896 26.7471 38.2462 26.7239L38.2234 26.9489L38.2508 26.9559C38.3147 26.9721 38.3626 26.9814 38.3991 26.9884C38.4357 26.9953 38.4813 26.9976 38.5384 26.9976C38.6023 26.9976 38.6616 26.9907 38.7164 26.9768C38.7712 26.9628 38.8191 26.9396 38.8625 26.9118C38.9036 26.8817 38.9378 26.8422 38.9607 26.7935C38.9858 26.7448 38.9972 26.6868 38.9972 26.6219C38.9972 26.5639 38.988 26.5129 38.9675 26.4734L38.9698 26.4665Z" fill="white"/>
<path d="M14.2585 23.1895H13.5098V24.4025C13.5098 24.667 13.7312 24.885 14.0028 24.885H17.1871V24.3817H14.2562V23.1918L14.2585 23.1895Z" fill="white"/>
<path d="M17.7662 22.2764H12.5938V22.7797H17.7662V22.2764Z" fill="white"/>
<path d="M21.9257 21.0519H22.2362V22.4296H22.962V19.3076H22.2362V20.4975H21.9257V19.3076H21.209V22.4296H21.9257V21.0519Z" fill="white"/>
<path d="M25.5182 22.999H24.7695V24.4788C24.7695 24.7108 24.9635 24.901 25.2009 24.901H28.2323V24.393H25.5182V23.0013V22.999Z" fill="white"/>
<path d="M33.3249 19.3076H32.5762V22.4505H33.3249V21.2165H33.9663V20.6691H33.3249V19.3076Z" fill="white"/>
<path d="M32.5758 23.3684H30.9186V22.8164H30.1699V24.4748C30.1699 24.7068 30.3639 24.897 30.6013 24.897H33.3245V22.8164H32.5758V23.3684ZM32.5758 24.3844H30.9186V23.8578H32.5758V24.3844Z" fill="white"/>
<path d="M15.1804 21.904C16.0112 21.904 16.6869 21.2986 16.6869 20.554C16.6869 19.8095 16.0112 19.2041 15.1804 19.2041C14.3495 19.2041 13.6738 19.8095 13.6738 20.554C13.6738 21.2986 14.3495 21.904 15.1804 21.904ZM15.1804 19.7283C15.5798 19.7283 15.9039 20.0994 15.9039 20.5564C15.9039 21.0133 15.5798 21.3844 15.1804 21.3844C14.7809 21.3844 14.4568 21.0133 14.4568 20.5564C14.4568 20.0994 14.7809 19.7283 15.1804 19.7283Z" fill="white"/>
<path d="M20.8612 21.1052C20.8612 20.8315 20.7653 20.5694 20.585 20.3491L20.5234 20.2725H20.9913V19.7762H19.8728V19.1963H19.0944V19.7762H17.9531V20.2725H18.4416L18.38 20.3491C18.1996 20.5694 18.1038 20.8292 18.1038 21.1052C18.1038 21.8011 18.7224 22.367 19.4802 22.367C20.238 22.367 20.8566 21.8011 20.8566 21.1052H20.8612ZM19.4848 21.8474C19.1492 21.8474 18.8776 21.5134 18.8776 21.1052C18.8776 20.697 19.1492 20.363 19.4848 20.363C19.8203 20.363 20.0919 20.697 20.0919 21.1052C20.0919 21.5134 19.8203 21.8474 19.4848 21.8474Z" fill="white"/>
<path d="M21.3279 22.6738C20.3806 22.6738 19.6113 23.2328 19.6113 23.9194C19.6113 24.6059 20.3806 25.1649 21.3279 25.1649C22.2751 25.1649 23.0444 24.6059 23.0444 23.9194C23.0444 23.2328 22.2751 22.6738 21.3279 22.6738ZM21.3279 24.6593C20.8257 24.6593 20.4171 24.3253 20.4171 23.9171C20.4171 23.5088 20.8257 23.1748 21.3279 23.1748C21.83 23.1748 22.2386 23.5088 22.2386 23.9171C22.2386 24.3253 21.83 24.6593 21.3279 24.6593Z" fill="white"/>
<path d="M26.2895 21.7747L26.3032 21.7608H27.4468V23.0759H28.1955V19.3068H27.4468V19.7962H26.3306L26.3169 19.7823C26.0224 19.4761 25.6024 19.2998 25.1642 19.2998C24.3059 19.2998 23.6074 19.9562 23.6074 20.7657C23.6074 21.5752 24.3059 22.2316 25.1642 22.2316C25.5865 22.2316 25.9973 22.0646 26.2895 21.7747ZM26.657 20.39L26.6387 20.3111H27.4468V21.2389H26.6296L26.6456 21.1809C26.6844 21.0278 26.7186 20.8956 26.7186 20.7634C26.7186 20.6451 26.689 20.5268 26.657 20.3876V20.39ZM24.4063 20.7657C24.4063 20.2485 24.7465 19.8263 25.1619 19.8263C25.5773 19.8263 25.9174 20.2485 25.9174 20.7657C25.9174 21.283 25.5773 21.7051 25.1619 21.7051C24.7465 21.7051 24.4063 21.283 24.4063 20.7657Z" fill="white"/>
<path d="M31.9494 21.1052C31.9494 20.8315 31.8535 20.5694 31.6732 20.3491L31.6116 20.2725H32.1V19.7762H30.9587V19.1963H30.1804V19.7762H29.0391V20.2725H29.5275L29.4659 20.3491C29.2856 20.5694 29.1897 20.8292 29.1897 21.1052C29.1897 21.8011 29.8083 22.367 30.5661 22.367C31.324 22.367 31.9425 21.8011 31.9425 21.1052H31.9494ZM29.9841 21.1052C29.9841 20.7016 30.2488 20.3723 30.573 20.3723C30.8971 20.3723 31.1619 20.7016 31.1619 21.1052C31.1619 21.5088 30.8971 21.8382 30.573 21.8382C30.2488 21.8382 29.9841 21.5088 29.9841 21.1052Z" fill="white"/>
<path d="M38.1379 19.3007V22.9585H36.5493V22.2951C37.1473 22.1443 37.5856 21.6573 37.5856 21.0797C37.5856 20.7735 37.4623 20.4906 37.2546 20.2725H37.7499V19.7762H36.5401V19.1963H35.7732V19.7762H34.5634V20.2725H35.0541C34.8487 20.4906 34.7232 20.7735 34.7232 21.0797C34.7232 21.6642 35.1728 22.1559 35.7823 22.2997V22.9585H34.2461V23.4618H38.1357V24.8976H38.8844V19.3007H38.1357H38.1379ZM35.5084 21.0797C35.5084 20.6761 35.7983 20.3467 36.1566 20.3467C36.515 20.3467 36.8049 20.6738 36.8049 21.0797C36.8049 21.4856 36.515 21.8127 36.1566 21.8127C35.7983 21.8127 35.5084 21.4856 35.5084 21.0797Z" fill="white"/>
<path d="M4.5036 21.9896V19.582L0 19.9833V21.5884L4.5036 21.9896Z" fill="url(#paint0_linear_266_68777)"/>
<path d="M13.5114 12.4099V10L9.00781 12.1571V14.0846L13.5114 12.4099Z" fill="url(#paint1_linear_266_68777)"/>
<path d="M9.0075 17.5678V15.1602L4.50391 16.5658V18.3726L9.0075 17.5678Z" fill="url(#paint2_linear_266_68777)"/>
<path d="M4.50391 21.9896V19.582L9.0075 19.9833V21.5884L4.50391 21.9896Z" fill="url(#paint3_linear_266_68777)"/>
<path d="M9.00781 17.5678V15.1602L13.5114 16.5658V18.3726L9.00781 17.5678Z" fill="url(#paint4_linear_266_68777)"/>
<path d="M13.5117 12.4099V10L18.0153 12.1571V14.0846L13.5117 12.4099Z" fill="url(#paint5_linear_266_68777)"/>
<path d="M13.5114 12.4053L9.00781 14.0799L13.5114 15.4855L18.015 14.0799L13.5114 12.4053Z" fill="#BFC0C0"/>
<path d="M9.0075 17.5732L4.50391 18.3781L9.0075 19.1806L13.5111 18.3781L9.0075 17.5732Z" fill="#BFC0C0"/>
<defs>
<linearGradient id="paint0_linear_266_68777" x1="0" y1="20.7858" x2="4.5036" y2="20.7858" gradientUnits="userSpaceOnUse">
<stop stop-color="#006FBC"/>
<stop offset="0.29" stop-color="#007EC7"/>
<stop offset="0.69" stop-color="#008FD3"/>
<stop offset="1" stop-color="#0095D8"/>
</linearGradient>
<linearGradient id="paint1_linear_266_68777" x1="9.00781" y1="12.0435" x2="13.5114" y2="12.0435" gradientUnits="userSpaceOnUse">
<stop stop-color="#006FBC"/>
<stop offset="0.29" stop-color="#007EC7"/>
<stop offset="0.69" stop-color="#008FD3"/>
<stop offset="1" stop-color="#0095D8"/>
</linearGradient>
<linearGradient id="paint2_linear_266_68777" x1="4.50391" y1="16.7652" x2="9.0075" y2="16.7652" gradientUnits="userSpaceOnUse">
<stop stop-color="#006FBC"/>
<stop offset="0.29" stop-color="#007EC7"/>
<stop offset="0.69" stop-color="#008FD3"/>
<stop offset="1" stop-color="#0095D8"/>
</linearGradient>
<linearGradient id="paint3_linear_266_68777" x1="9.0075" y1="20.7858" x2="4.50391" y2="20.7858" gradientUnits="userSpaceOnUse">
<stop stop-color="#0068B7"/>
<stop offset="1" stop-color="#004482"/>
</linearGradient>
<linearGradient id="paint4_linear_266_68777" x1="13.5114" y1="16.7652" x2="9.00781" y2="16.7652" gradientUnits="userSpaceOnUse">
<stop stop-color="#0068B7"/>
<stop offset="1" stop-color="#004482"/>
</linearGradient>
<linearGradient id="paint5_linear_266_68777" x1="18.0153" y1="12.0435" x2="13.5117" y2="12.0435" gradientUnits="userSpaceOnUse">
<stop stop-color="#0068B7"/>
<stop offset="1" stop-color="#004482"/>
</linearGradient>
</defs>
</svg>
