<svg width="36" height="36" viewBox="0 0 36 36" fill="none" xmlns="http://www.w3.org/2000/svg">
<path d="M24.591 30.7283H6.41098C5.56976 30.7862 4.73966 30.5098 4.10113 29.9591C3.46259 29.4084 3.06723 28.6279 3.00098 27.7873V8.17126C3.06673 7.3303 3.46188 6.54931 4.10047 5.99817C4.73906 5.44704 5.56944 5.17034 6.41098 5.22826H24.591C25.4324 5.17061 26.2625 5.44744 26.9008 5.99854C27.5392 6.54965 27.9342 7.33048 28 8.17126V27.7873C27.9337 28.6277 27.5385 29.408 26.9002 29.9587C26.2619 30.5094 25.432 30.7859 24.591 30.7283Z" fill="white"/>
<path d="M22.501 31.5H6.50098C5.57272 31.5 4.68248 31.1313 4.0261 30.4749C3.36973 29.8185 3.00098 28.9283 3.00098 28V8C3.00098 7.07174 3.36973 6.1815 4.0261 5.52513C4.68248 4.86875 5.57272 4.5 6.50098 4.5H24.501C24.9606 4.5 25.4157 4.59053 25.8404 4.76642C26.265 4.94231 26.6508 5.20012 26.9758 5.52513C27.3009 5.85013 27.5587 6.23597 27.7346 6.66061C27.9104 7.08525 28.001 7.54037 28.001 8V28C28.001 28.4596 27.9104 28.9148 27.7346 29.3394C27.5587 29.764 27.3009 30.1499 26.9758 30.4749C26.6508 30.7999 26.265 31.0577 25.8404 31.2336C25.4157 31.4095 24.9606 31.5 24.501 31.5M6.50098 5.5C5.83793 5.5 5.20205 5.76339 4.73321 6.23223C4.26437 6.70107 4.00098 7.33696 4.00098 8V28C4.00098 28.663 4.26437 29.2989 4.73321 29.7678C5.20205 30.2366 5.83793 30.5 6.50098 30.5H24.501C25.164 30.5 25.7999 30.2366 26.2687 29.7678C26.7376 29.2989 27.001 28.663 27.001 28V8C27.001 7.33696 26.7376 6.70107 26.2687 6.23223C25.7999 5.76339 25.164 5.5 24.501 5.5H6.50098Z" fill="#111111"/>
<path d="M31.75 23.9873H24.25C23.7859 23.9873 23.3408 23.8029 23.0126 23.4747C22.6844 23.1466 22.5 22.7014 22.5 22.2373C22.5 21.7732 22.6844 21.3281 23.0126 20.9999C23.3408 20.6717 23.7859 20.4873 24.25 20.4873H31.75C32.2141 20.4873 32.6592 20.6717 32.9874 20.9999C33.3156 21.3281 33.5 21.7732 33.5 22.2373C33.5 22.7014 33.3156 23.1466 32.9874 23.4747C32.6592 23.8029 32.2141 23.9873 31.75 23.9873Z" fill="#FEE456"/>
<path d="M31.75 24.4883H24.25C23.6533 24.4883 23.081 24.2512 22.659 23.8293C22.2371 23.4073 22 22.835 22 22.2383C22 21.6415 22.2371 21.0692 22.659 20.6473C23.081 20.2253 23.6533 19.9883 24.25 19.9883H31.75C32.3467 19.9883 32.919 20.2253 33.341 20.6473C33.7629 21.0692 34 21.6415 34 22.2383C34 22.835 33.7629 23.4073 33.341 23.8293C32.919 24.2512 32.3467 24.4883 31.75 24.4883ZM24.25 20.9883C23.9185 20.9883 23.6005 21.12 23.3661 21.3544C23.1317 21.5888 23 21.9068 23 22.2383C23 22.5698 23.1317 22.8877 23.3661 23.1222C23.6005 23.3566 23.9185 23.4883 24.25 23.4883H31.75C32.0815 23.4883 32.3995 23.3566 32.6339 23.1222C32.8683 22.8877 33 22.5698 33 22.2383C33 21.9068 32.8683 21.5888 32.6339 21.3544C32.3995 21.12 32.0815 20.9883 31.75 20.9883H24.25Z" fill="#111111"/>
<path d="M31.75 27.5H24.25C23.7859 27.5 23.3408 27.3156 23.0126 26.9874C22.6844 26.6592 22.5 26.2141 22.5 25.75C22.5 25.2859 22.6844 24.8408 23.0126 24.5126C23.3408 24.1844 23.7859 24 24.25 24H31.75C32.2141 24 32.6592 24.1844 32.9874 24.5126C33.3156 24.8408 33.5 25.2859 33.5 25.75C33.5 26.2141 33.3156 26.6592 32.9874 26.9874C32.6592 27.3156 32.2141 27.5 31.75 27.5Z" fill="#FEE456"/>
<path d="M31.75 28H24.25C23.6533 28 23.081 27.7629 22.659 27.341C22.2371 26.919 22 26.3467 22 25.75C22 25.1533 22.2371 24.581 22.659 24.159C23.081 23.7371 23.6533 23.5 24.25 23.5H31.75C32.3467 23.5 32.919 23.7371 33.341 24.159C33.7629 24.581 34 25.1533 34 25.75C34 26.3467 33.7629 26.919 33.341 27.341C32.919 27.7629 32.3467 28 31.75 28ZM24.25 24.5C23.9185 24.5 23.6005 24.6317 23.3661 24.8661C23.1317 25.1005 23 25.4185 23 25.75C23 26.0815 23.1317 26.3995 23.3661 26.6339C23.6005 26.8683 23.9185 27 24.25 27H31.75C32.0815 27 32.3995 26.8683 32.6339 26.6339C32.8683 26.3995 33 26.0815 33 25.75C33 25.4185 32.8683 25.1005 32.6339 24.8661C32.3995 24.6317 32.0815 24.5 31.75 24.5H24.25Z" fill="#111111"/>
<path d="M31.75 31H24.25C23.7859 31 23.3408 30.8156 23.0126 30.4874C22.6844 30.1592 22.5 29.7141 22.5 29.25C22.5 28.7859 22.6844 28.3408 23.0126 28.0126C23.3408 27.6844 23.7859 27.5 24.25 27.5H31.75C32.2141 27.5 32.6592 27.6844 32.9874 28.0126C33.3156 28.3408 33.5 28.7859 33.5 29.25C33.5 29.7141 33.3156 30.1592 32.9874 30.4874C32.6592 30.8156 32.2141 31 31.75 31Z" fill="#FEE456"/>
<path d="M31.75 31.5H24.25C23.6533 31.5 23.081 31.2629 22.659 30.841C22.2371 30.419 22 29.8467 22 29.25C22 28.6533 22.2371 28.081 22.659 27.659C23.081 27.2371 23.6533 27 24.25 27H31.75C32.3467 27 32.919 27.2371 33.341 27.659C33.7629 28.081 34 28.6533 34 29.25C34 29.8467 33.7629 30.419 33.341 30.841C32.919 31.2629 32.3467 31.5 31.75 31.5ZM24.25 28C23.9185 28 23.6005 28.1317 23.3661 28.3661C23.1317 28.6005 23 28.9185 23 29.25C23 29.5815 23.1317 29.8995 23.3661 30.1339C23.6005 30.3683 23.9185 30.5 24.25 30.5H31.75C32.0815 30.5 32.3995 30.3683 32.6339 30.1339C32.8683 29.8995 33 29.5815 33 29.25C33 28.9185 32.8683 28.6005 32.6339 28.3661C32.3995 28.1317 32.0815 28 31.75 28H24.25Z" fill="#111111"/>
<path d="M10.5169 14.9298C10.5343 15.3368 10.4023 15.7362 10.1459 16.0528C10.0348 16.1911 9.8937 16.3022 9.73324 16.3777C9.57279 16.4533 9.39723 16.4913 9.21989 16.4888C9.0365 16.4908 8.85478 16.4536 8.68689 16.3798C8.48728 16.281 8.30358 16.153 8.14189 15.9998C8.0106 15.8741 7.86571 15.7634 7.70989 15.6698C7.62311 15.6271 7.5276 15.6052 7.43089 15.6058C7.35106 15.6026 7.27168 15.6192 7.1998 15.6541C7.12792 15.689 7.06578 15.7411 7.01889 15.8058C6.91267 15.9619 6.86003 16.1482 6.86889 16.3368H6.11489C6.09736 15.9394 6.22336 15.549 6.46989 15.2368C6.58229 15.1001 6.7246 14.991 6.88586 14.918C7.04711 14.845 7.22298 14.81 7.39989 14.8158C7.58896 14.8149 7.77607 14.8541 7.94889 14.9308C8.15109 15.0236 8.33711 15.1482 8.49989 15.2998C8.62517 15.4231 8.76406 15.5318 8.91389 15.6238C9.00163 15.668 9.09865 15.6906 9.19689 15.6898C9.28042 15.6911 9.36297 15.6717 9.43726 15.6335C9.51156 15.5954 9.57531 15.5395 9.62289 15.4708C9.73643 15.3116 9.7941 15.1192 9.78689 14.9238L10.5169 14.9298ZM13.7699 17.9998H12.8249V13.4338L11.4299 13.9098V13.1098L13.6489 12.2938H13.7699V17.9998ZM15.7999 15.1798L16.1089 12.3128H19.1639V13.1328H16.8999L16.7419 14.4918C17.0135 14.3383 17.321 14.26 17.6329 14.2648C17.869 14.2516 18.1051 14.2915 18.3239 14.3815C18.5426 14.4714 18.7384 14.6093 18.8969 14.7848C19.2145 15.18 19.3751 15.6785 19.3479 16.1848C19.3604 16.4367 19.3226 16.6885 19.2367 16.9256C19.1509 17.1627 19.0187 17.3803 18.8479 17.5658C18.667 17.7413 18.4516 17.8773 18.2155 17.9655C17.9794 18.0536 17.7275 18.0918 17.4759 18.0778C17.0043 18.0951 16.5431 17.9373 16.1809 17.6348C16.0116 17.4894 15.8746 17.3102 15.7786 17.1087C15.6827 16.9072 15.63 16.6879 15.6239 16.4648H16.5419C16.5618 16.7058 16.6684 16.9314 16.8419 17.0998C17.0166 17.2522 17.2433 17.3314 17.4749 17.3208C17.6052 17.3271 17.7352 17.3021 17.8539 17.2478C17.9725 17.1935 18.0764 17.1116 18.1569 17.0088C18.3317 16.76 18.4174 16.4594 18.3999 16.1558C18.416 15.8577 18.3197 15.5643 18.1299 15.3338C18.0358 15.2324 17.9205 15.153 17.7923 15.1012C17.6641 15.0493 17.526 15.0263 17.3879 15.0338C17.2393 15.03 17.0913 15.053 16.9509 15.1018C16.8045 15.1651 16.6718 15.2561 16.5599 15.3698L15.7999 15.1798ZM19.8539 13.4058C19.8483 13.2496 19.8749 13.0939 19.932 12.9483C19.9891 12.8028 20.0755 12.6705 20.1859 12.5598C20.3012 12.4487 20.4378 12.3621 20.5875 12.3054C20.7372 12.2487 20.8969 12.2229 21.0569 12.2298C21.2178 12.2223 21.3786 12.2477 21.5294 12.3044C21.6802 12.3612 21.8178 12.4481 21.9339 12.5598C22.0449 12.6739 22.1313 12.8095 22.1881 12.9583C22.2448 13.107 22.2706 13.2658 22.2639 13.4248V13.7058C22.2693 13.8609 22.2428 14.0156 22.1861 14.16C22.1293 14.3045 22.0435 14.4358 21.9339 14.5458C21.8188 14.6565 21.6824 14.7426 21.5331 14.799C21.3837 14.8554 21.2244 14.8808 21.0649 14.8738C20.7456 14.8846 20.4349 14.7693 20.1999 14.5528C20.0847 14.4404 19.9946 14.3048 19.9356 14.155C19.8767 14.0052 19.8502 13.8446 19.8579 13.6838L19.8539 13.4058ZM20.5179 13.7058C20.5104 13.865 20.5641 14.0209 20.6679 14.1418C20.7183 14.1972 20.7802 14.2408 20.8494 14.2695C20.9185 14.2982 20.9931 14.3112 21.0679 14.3078C21.1413 14.3105 21.2143 14.2971 21.2819 14.2684C21.3495 14.2397 21.4099 14.1965 21.4589 14.1418C21.5606 14.0144 21.6109 13.8535 21.5999 13.6908V13.4058C21.6069 13.2464 21.5533 13.0903 21.4499 12.9688C21.3998 12.9129 21.3379 12.8689 21.2688 12.8399C21.1996 12.8108 21.1248 12.7975 21.0499 12.8008C20.9758 12.7977 20.902 12.8114 20.8339 12.8408C20.7659 12.8702 20.7054 12.9147 20.6569 12.9708C20.5551 13.0969 20.5031 13.2559 20.5109 13.4178L20.5179 13.7058ZM22.5879 16.6058C22.5817 16.4485 22.6087 16.2916 22.6673 16.1455C22.7259 15.9994 22.8147 15.8672 22.9279 15.7578C23.0445 15.6487 23.1817 15.5639 23.3314 15.5083C23.4811 15.4526 23.6403 15.4273 23.7999 15.4338C23.959 15.4275 24.1178 15.4528 24.267 15.5085C24.4162 15.5641 24.5528 15.6488 24.6689 15.7578C24.7833 15.8719 24.8724 16.0088 24.9306 16.1595C24.9888 16.3102 25.0148 16.4714 25.0069 16.6328V16.9098C25.012 17.0643 24.9858 17.2182 24.9298 17.3622C24.8737 17.5062 24.7891 17.6374 24.6809 17.7478C24.5648 17.8607 24.4266 17.9483 24.275 18.0051C24.1233 18.0619 23.9616 18.0866 23.7999 18.0778C23.6387 18.0851 23.4777 18.06 23.3264 18.004C23.1751 17.948 23.0365 17.8623 22.9189 17.7518C22.8067 17.6392 22.7192 17.5045 22.6617 17.3563C22.6042 17.2081 22.578 17.0496 22.5849 16.8908L22.5879 16.6058ZM23.2519 16.9058C23.2454 17.0655 23.3005 17.2216 23.4059 17.3418C23.456 17.3978 23.5178 17.4421 23.5869 17.4714C23.6561 17.5008 23.7308 17.5146 23.8059 17.5118C23.8791 17.516 23.9524 17.504 24.0205 17.4767C24.0886 17.4494 24.1498 17.4074 24.1999 17.3538C24.3003 17.2246 24.3498 17.0631 24.3389 16.8998V16.6068C24.3468 16.4469 24.2923 16.2902 24.1869 16.1698C24.1383 16.1154 24.0786 16.0721 24.0119 16.0427C23.9451 16.0134 23.8728 15.9988 23.7999 15.9998C23.7264 15.9971 23.6532 16.0103 23.5854 16.0386C23.5175 16.0669 23.4566 16.1097 23.4069 16.1638C23.3008 16.2901 23.2471 16.4522 23.2569 16.6168L23.2519 16.9058ZM21.2609 17.5738L20.7719 17.2928L23.5499 12.8478L24.0379 13.1288L21.2609 17.5738Z" fill="#111111"/>
</svg>
