<svg width="36" height="36" viewBox="0 0 36 36" fill="none" xmlns="http://www.w3.org/2000/svg">
<path d="M24.591 31H6.41098C5.56176 31.051 4.72679 30.7643 4.08804 30.2023C3.44929 29.6404 3.05855 28.8488 3.00098 28V7.99995C3.05855 7.15115 3.44929 6.35951 4.08804 5.79756C4.72679 5.23562 5.56176 4.94892 6.41098 4.99995H24.591C25.44 4.94919 26.2747 5.23601 26.9133 5.79793C27.5518 6.35985 27.9424 7.15133 28 7.99995V28C27.9424 28.8486 27.5518 29.6401 26.9133 30.202C26.2747 30.7639 25.44 31.0507 24.591 31Z" fill="white"/>
<path d="M22.501 31.5H6.50098C5.57272 31.5 4.68248 31.1313 4.0261 30.4749C3.36973 29.8185 3.00098 28.9283 3.00098 28V8C3.00098 7.07174 3.36973 6.1815 4.0261 5.52513C4.68248 4.86875 5.57272 4.5 6.50098 4.5H24.501C24.9606 4.5 25.4157 4.59053 25.8404 4.76642C26.265 4.94231 26.6508 5.20012 26.9758 5.52513C27.3009 5.85013 27.5587 6.23597 27.7346 6.66061C27.9104 7.08525 28.001 7.54037 28.001 8V28C28.001 28.4596 27.9104 28.9148 27.7346 29.3394C27.5587 29.764 27.3009 30.1499 26.9758 30.4749C26.6508 30.7999 26.265 31.0577 25.8404 31.2336C25.4157 31.4095 24.9606 31.5 24.501 31.5M6.50098 5.5C5.83793 5.5 5.20205 5.76339 4.73321 6.23223C4.26437 6.70107 4.00098 7.33696 4.00098 8V28C4.00098 28.663 4.26437 29.2989 4.73321 29.7678C5.20205 30.2366 5.83793 30.5 6.50098 30.5H24.501C25.164 30.5 25.7999 30.2366 26.2687 29.7678C26.7376 29.2989 27.001 28.663 27.001 28V8C27.001 7.33696 26.7376 6.70107 26.2687 6.23223C25.7999 5.76339 25.164 5.5 24.501 5.5H6.50098Z" fill="#111111"/>
<path d="M31.75 23.9873H24.25C23.7859 23.9873 23.3408 23.8029 23.0126 23.4747C22.6844 23.1466 22.5 22.7014 22.5 22.2373C22.5 21.7732 22.6844 21.3281 23.0126 20.9999C23.3408 20.6717 23.7859 20.4873 24.25 20.4873H31.75C32.2141 20.4873 32.6592 20.6717 32.9874 20.9999C33.3156 21.3281 33.5 21.7732 33.5 22.2373C33.5 22.7014 33.3156 23.1466 32.9874 23.4747C32.6592 23.8029 32.2141 23.9873 31.75 23.9873Z" fill="#FEE456"/>
<path d="M31.75 24.4883H24.25C23.6533 24.4883 23.081 24.2512 22.659 23.8293C22.2371 23.4073 22 22.835 22 22.2383C22 21.6415 22.2371 21.0692 22.659 20.6473C23.081 20.2253 23.6533 19.9883 24.25 19.9883H31.75C32.3467 19.9883 32.919 20.2253 33.341 20.6473C33.7629 21.0692 34 21.6415 34 22.2383C34 22.835 33.7629 23.4073 33.341 23.8293C32.919 24.2512 32.3467 24.4883 31.75 24.4883ZM24.25 20.9883C23.9185 20.9883 23.6005 21.12 23.3661 21.3544C23.1317 21.5888 23 21.9068 23 22.2383C23 22.5698 23.1317 22.8877 23.3661 23.1222C23.6005 23.3566 23.9185 23.4883 24.25 23.4883H31.75C32.0815 23.4883 32.3995 23.3566 32.6339 23.1222C32.8683 22.8877 33 22.5698 33 22.2383C33 21.9068 32.8683 21.5888 32.6339 21.3544C32.3995 21.12 32.0815 20.9883 31.75 20.9883H24.25Z" fill="#111111"/>
<path d="M31.75 27.5H24.25C23.7859 27.5 23.3408 27.3156 23.0126 26.9874C22.6844 26.6592 22.5 26.2141 22.5 25.75C22.5 25.2859 22.6844 24.8408 23.0126 24.5126C23.3408 24.1844 23.7859 24 24.25 24H31.75C32.2141 24 32.6592 24.1844 32.9874 24.5126C33.3156 24.8408 33.5 25.2859 33.5 25.75C33.5 26.2141 33.3156 26.6592 32.9874 26.9874C32.6592 27.3156 32.2141 27.5 31.75 27.5Z" fill="#FEE456"/>
<path d="M31.75 28H24.25C23.6533 28 23.081 27.7629 22.659 27.341C22.2371 26.919 22 26.3467 22 25.75C22 25.1533 22.2371 24.581 22.659 24.159C23.081 23.7371 23.6533 23.5 24.25 23.5H31.75C32.3467 23.5 32.919 23.7371 33.341 24.159C33.7629 24.581 34 25.1533 34 25.75C34 26.3467 33.7629 26.919 33.341 27.341C32.919 27.7629 32.3467 28 31.75 28ZM24.25 24.5C23.9185 24.5 23.6005 24.6317 23.3661 24.8661C23.1317 25.1005 23 25.4185 23 25.75C23 26.0815 23.1317 26.3995 23.3661 26.6339C23.6005 26.8683 23.9185 27 24.25 27H31.75C32.0815 27 32.3995 26.8683 32.6339 26.6339C32.8683 26.3995 33 26.0815 33 25.75C33 25.4185 32.8683 25.1005 32.6339 24.8661C32.3995 24.6317 32.0815 24.5 31.75 24.5H24.25Z" fill="#111111"/>
<path d="M31.75 31H24.25C23.7859 31 23.3408 30.8156 23.0126 30.4874C22.6844 30.1592 22.5 29.7141 22.5 29.25C22.5 28.7859 22.6844 28.3408 23.0126 28.0126C23.3408 27.6844 23.7859 27.5 24.25 27.5H31.75C32.2141 27.5 32.6592 27.6844 32.9874 28.0126C33.3156 28.3408 33.5 28.7859 33.5 29.25C33.5 29.7141 33.3156 30.1592 32.9874 30.4874C32.6592 30.8156 32.2141 31 31.75 31Z" fill="#FEE456"/>
<path d="M31.75 31.5H24.25C23.6533 31.5 23.081 31.2629 22.659 30.841C22.2371 30.419 22 29.8467 22 29.25C22 28.6533 22.2371 28.081 22.659 27.659C23.081 27.2371 23.6533 27 24.25 27H31.75C32.3467 27 32.919 27.2371 33.341 27.659C33.7629 28.081 34 28.6533 34 29.25C34 29.8467 33.7629 30.419 33.341 30.841C32.919 31.2629 32.3467 31.5 31.75 31.5ZM24.25 28C23.9185 28 23.6005 28.1317 23.3661 28.3661C23.1317 28.6005 23 28.9185 23 29.25C23 29.5815 23.1317 29.8995 23.3661 30.1339C23.6005 30.3683 23.9185 30.5 24.25 30.5H31.75C32.0815 30.5 32.3995 30.3683 32.6339 30.1339C32.8683 29.8995 33 29.5815 33 29.25C33 28.9185 32.8683 28.6005 32.6339 28.3661C32.3995 28.1317 32.0815 28 31.75 28H24.25Z" fill="#111111"/>
<path d="M11.181 14.9299C11.1983 15.3369 11.0664 15.7363 10.81 16.0529C10.6989 16.1911 10.5578 16.3023 10.3973 16.3778C10.2369 16.4534 10.0613 16.4913 9.88396 16.4889C9.70056 16.4909 9.51884 16.4537 9.35096 16.3799C9.15134 16.2811 8.96764 16.153 8.80596 15.9999C8.67477 15.8735 8.52987 15.7621 8.37396 15.6679C8.28717 15.6252 8.19166 15.6033 8.09496 15.6039C8.01512 15.6007 7.93574 15.6173 7.86386 15.6522C7.79199 15.6871 7.72984 15.7392 7.68296 15.8039C7.57673 15.96 7.52409 16.1463 7.53296 16.3349H6.77896C6.76142 15.9375 6.88743 15.5471 7.13396 15.2349C7.24606 15.0963 7.38871 14.9856 7.55075 14.9113C7.71278 14.8371 7.8898 14.8013 8.06796 14.8069C8.25702 14.806 8.44414 14.8452 8.61696 14.9219C8.81659 15.0166 8.99989 15.1425 9.15996 15.2949C9.28523 15.4182 9.42412 15.5269 9.57396 15.6189C9.66169 15.6631 9.75871 15.6857 9.85696 15.6849C9.94048 15.6861 10.023 15.6668 10.0973 15.6286C10.1716 15.5904 10.2354 15.5345 10.283 15.4659C10.3965 15.3066 10.4542 15.1143 10.447 14.9189L11.181 14.9299ZM12.118 15.1799L12.427 12.3129H15.481V13.1329H13.215L13.059 14.4919C13.3305 14.3384 13.6381 14.2601 13.95 14.2649C14.1861 14.2517 14.4222 14.2916 14.6409 14.3815C14.8597 14.4715 15.0555 14.6093 15.214 14.7849C15.5315 15.1801 15.6921 15.6786 15.665 16.1849C15.6774 16.4367 15.6396 16.6886 15.5538 16.9257C15.4679 17.1627 15.3358 17.3804 15.165 17.5659C14.984 17.7413 14.7687 17.8774 14.5326 17.9655C14.2964 18.0537 14.0446 18.0919 13.793 18.0779C13.3221 18.0947 12.8616 17.9369 12.5 17.6349C12.3307 17.4895 12.1936 17.3103 12.0977 17.1088C12.0018 16.9073 11.9491 16.688 11.943 16.4649H12.861C12.8809 16.7059 12.9875 16.9314 13.161 17.0999C13.3356 17.2523 13.5624 17.3315 13.794 17.3209C13.9243 17.3272 14.0543 17.3022 14.1729 17.2479C14.2916 17.1936 14.3955 17.1116 14.476 17.0089C14.6509 16.7605 14.7369 16.4603 14.72 16.1569C14.7361 15.8587 14.6397 15.5654 14.45 15.3349C14.3558 15.2335 14.2406 15.1541 14.1124 15.1023C13.9841 15.0504 13.8461 15.0274 13.708 15.0349C13.5594 15.0311 13.4113 15.0541 13.271 15.1029C13.1246 15.1662 12.9918 15.2572 12.88 15.3709L12.118 15.1799ZM19.918 15.6059C19.963 16.2555 19.8024 16.9027 19.459 17.4559C19.2951 17.6671 19.0815 17.8346 18.8372 17.9433C18.593 18.052 18.3256 18.0985 18.059 18.0789C17.7961 18.0961 17.533 18.0499 17.2917 17.9441C17.0505 17.8383 16.8383 17.676 16.673 17.4709C16.3244 16.9378 16.1565 16.3067 16.194 15.6709V14.6869C16.1479 14.0404 16.3086 13.396 16.653 12.8469C16.8188 12.6385 17.033 12.4737 17.277 12.3669C17.521 12.26 17.7873 12.2144 18.053 12.2339C18.3163 12.2148 18.5803 12.2593 18.8227 12.3638C19.0652 12.4682 19.2789 12.6294 19.446 12.8339C19.7899 13.3646 19.955 13.9916 19.917 14.6229L19.918 15.6059ZM18.968 14.5429C18.9951 14.1394 18.9201 13.7357 18.75 13.3689C18.6798 13.2486 18.5775 13.1504 18.4546 13.0852C18.3316 13.02 18.1928 12.9904 18.054 12.9999C17.9185 12.9911 17.7833 13.0194 17.6627 13.0818C17.5422 13.1442 17.441 13.2382 17.37 13.3539C17.2004 13.6948 17.1212 14.0736 17.14 14.4539V15.7429C17.1149 16.1509 17.1915 16.5588 17.363 16.9299C17.4305 17.0548 17.5322 17.1579 17.6561 17.2271C17.7801 17.2963 17.9212 17.3289 18.063 17.3209C18.1979 17.3287 18.3325 17.2992 18.4517 17.2355C18.571 17.1718 18.6704 17.0764 18.739 16.9599C18.9095 16.6082 18.9887 16.2192 18.969 15.8289L18.968 14.5429ZM24.268 15.6059C24.313 16.2555 24.1524 16.9027 23.809 17.4559C23.6451 17.6671 23.4315 17.8346 23.1872 17.9433C22.943 18.052 22.6756 18.0985 22.409 18.0789C22.1456 18.0966 21.8819 18.0506 21.6401 17.9448C21.3983 17.839 21.1856 17.6764 21.02 17.4709C20.6714 16.9378 20.5035 16.3067 20.541 15.6709V14.6869C20.4951 14.0407 20.6559 13.3967 21 12.8479C21.1658 12.6395 21.38 12.4747 21.624 12.3679C21.868 12.261 22.1343 12.2154 22.4 12.2349C22.6633 12.2158 22.9273 12.2603 23.1697 12.3648C23.4122 12.4692 23.6259 12.6304 23.793 12.8349C24.1369 13.3656 24.302 13.9926 24.264 14.6239L24.268 15.6059ZM23.315 14.5429C23.343 14.1397 23.2691 13.7359 23.1 13.3689C23.0295 13.248 22.9266 13.1493 22.8028 13.0841C22.6791 13.0188 22.5395 12.9897 22.4 12.9999C22.2645 12.9911 22.1293 13.0194 22.0087 13.0818C21.8882 13.1442 21.787 13.2382 21.716 13.3539C21.5464 13.6948 21.4672 14.0736 21.486 14.4539V15.7429C21.4612 16.151 21.5382 16.5589 21.71 16.9299C21.7775 17.0548 21.8792 17.1579 22.0031 17.2271C22.1271 17.2963 22.2682 17.3289 22.41 17.3209C22.5449 17.3287 22.6795 17.2992 22.7987 17.2355C22.918 17.1718 23.0174 17.0764 23.086 16.9599C23.2565 16.6082 23.3357 16.2192 23.316 15.8289L23.315 14.5429ZM13.277 23.0679V20.6259H10.8V23.0679H13.277ZM12.749 22.6479H11.321V21.0479H12.749V22.6479ZM15.449 22.1859V21.7479H14.663V20.1759H14.129V23.9859H14.663V22.1859H15.449ZM14.843 25.2519V24.8199H11.873V23.6139H11.345V25.2519H14.843ZM18.713 21.3999C18.713 20.8059 18.131 20.4219 17.321 20.4219C16.511 20.4219 15.929 20.8059 15.929 21.3939C15.929 21.9999 16.517 22.3659 17.321 22.3659C18.125 22.3659 18.713 21.9939 18.713 21.3999ZM19.991 24.2079V20.1759H19.469V23.2539H18.437V23.6539H19.469V24.2119L19.991 24.2079ZM20.091 25.2879V24.8559H16.817V23.7559H16.289V25.2859L20.091 25.2879ZM17.633 23.9799V23.0199C18.155 22.9899 18.701 22.9479 19.049 22.8939L19.013 22.4939C18.521 22.5479 18.005 22.5839 17.333 22.6139C16.757 22.6379 16.193 22.6439 15.587 22.6439L15.671 23.0819C16.133 23.0699 16.589 23.0639 17.099 23.0459V23.9759L17.633 23.9799ZM18.143 21.3999C18.143 21.7119 17.819 21.9399 17.321 21.9399C16.823 21.9399 16.5 21.7119 16.5 21.3999C16.5 21.0879 16.824 20.8479 17.322 20.8479C17.82 20.8479 18.143 21.0879 18.143 21.3999Z" fill="#111111"/>
</svg>
