<svg width="36" height="36" viewBox="0 0 36 36" fill="none" xmlns="http://www.w3.org/2000/svg">
<path d="M24.591 31H6.41098C5.56176 31.051 4.72679 30.7643 4.08804 30.2023C3.44929 29.6404 3.05855 28.8488 3.00098 28V7.99995C3.05855 7.15115 3.44929 6.35951 4.08804 5.79756C4.72679 5.23562 5.56176 4.94892 6.41098 4.99995H24.591C25.44 4.94919 26.2747 5.23601 26.9133 5.79793C27.5518 6.35985 27.9424 7.15133 28 7.99995V28C27.9424 28.8486 27.5518 29.6401 26.9133 30.202C26.2747 30.7639 25.44 31.0507 24.591 31Z" fill="white"/>
<path d="M22.501 31.5H6.50098C5.57272 31.5 4.68248 31.1313 4.0261 30.4749C3.36973 29.8185 3.00098 28.9283 3.00098 28V8C3.00098 7.07174 3.36973 6.1815 4.0261 5.52513C4.68248 4.86875 5.57272 4.5 6.50098 4.5H24.501C24.9606 4.5 25.4157 4.59053 25.8404 4.76642C26.265 4.94231 26.6508 5.20012 26.9758 5.52513C27.3009 5.85013 27.5587 6.23597 27.7346 6.66061C27.9104 7.08525 28.001 7.54037 28.001 8V28C28.001 28.4596 27.9104 28.9148 27.7346 29.3394C27.5587 29.764 27.3009 30.1499 26.9758 30.4749C26.6508 30.7999 26.265 31.0577 25.8404 31.2336C25.4157 31.4095 24.9606 31.5 24.501 31.5M6.50098 5.5C5.83793 5.5 5.20205 5.76339 4.73321 6.23223C4.26437 6.70107 4.00098 7.33696 4.00098 8V28C4.00098 28.663 4.26437 29.2989 4.73321 29.7678C5.20205 30.2366 5.83793 30.5 6.50098 30.5H24.501C25.164 30.5 25.7999 30.2366 26.2687 29.7678C26.7376 29.2989 27.001 28.663 27.001 28V8C27.001 7.33696 26.7376 6.70107 26.2687 6.23223C25.7999 5.76339 25.164 5.5 24.501 5.5H6.50098Z" fill="#111111"/>
<path d="M31.75 23.9873H24.25C23.7859 23.9873 23.3408 23.8029 23.0126 23.4747C22.6844 23.1466 22.5 22.7014 22.5 22.2373C22.5 21.7732 22.6844 21.3281 23.0126 20.9999C23.3408 20.6717 23.7859 20.4873 24.25 20.4873H31.75C32.2141 20.4873 32.6592 20.6717 32.9874 20.9999C33.3156 21.3281 33.5 21.7732 33.5 22.2373C33.5 22.7014 33.3156 23.1466 32.9874 23.4747C32.6592 23.8029 32.2141 23.9873 31.75 23.9873Z" fill="#FEE456"/>
<path d="M31.75 24.4883H24.25C23.6533 24.4883 23.081 24.2512 22.659 23.8293C22.2371 23.4073 22 22.835 22 22.2383C22 21.6415 22.2371 21.0692 22.659 20.6473C23.081 20.2253 23.6533 19.9883 24.25 19.9883H31.75C32.3467 19.9883 32.919 20.2253 33.341 20.6473C33.7629 21.0692 34 21.6415 34 22.2383C34 22.835 33.7629 23.4073 33.341 23.8293C32.919 24.2512 32.3467 24.4883 31.75 24.4883ZM24.25 20.9883C23.9185 20.9883 23.6005 21.12 23.3661 21.3544C23.1317 21.5888 23 21.9068 23 22.2383C23 22.5698 23.1317 22.8877 23.3661 23.1222C23.6005 23.3566 23.9185 23.4883 24.25 23.4883H31.75C32.0815 23.4883 32.3995 23.3566 32.6339 23.1222C32.8683 22.8877 33 22.5698 33 22.2383C33 21.9068 32.8683 21.5888 32.6339 21.3544C32.3995 21.12 32.0815 20.9883 31.75 20.9883H24.25Z" fill="#111111"/>
<path d="M31.75 27.5H24.25C23.7859 27.5 23.3408 27.3156 23.0126 26.9874C22.6844 26.6592 22.5 26.2141 22.5 25.75C22.5 25.2859 22.6844 24.8408 23.0126 24.5126C23.3408 24.1844 23.7859 24 24.25 24H31.75C32.2141 24 32.6592 24.1844 32.9874 24.5126C33.3156 24.8408 33.5 25.2859 33.5 25.75C33.5 26.2141 33.3156 26.6592 32.9874 26.9874C32.6592 27.3156 32.2141 27.5 31.75 27.5Z" fill="#FEE456"/>
<path d="M31.75 28H24.25C23.6533 28 23.081 27.7629 22.659 27.341C22.2371 26.919 22 26.3467 22 25.75C22 25.1533 22.2371 24.581 22.659 24.159C23.081 23.7371 23.6533 23.5 24.25 23.5H31.75C32.3467 23.5 32.919 23.7371 33.341 24.159C33.7629 24.581 34 25.1533 34 25.75C34 26.3467 33.7629 26.919 33.341 27.341C32.919 27.7629 32.3467 28 31.75 28ZM24.25 24.5C23.9185 24.5 23.6005 24.6317 23.3661 24.8661C23.1317 25.1005 23 25.4185 23 25.75C23 26.0815 23.1317 26.3995 23.3661 26.6339C23.6005 26.8683 23.9185 27 24.25 27H31.75C32.0815 27 32.3995 26.8683 32.6339 26.6339C32.8683 26.3995 33 26.0815 33 25.75C33 25.4185 32.8683 25.1005 32.6339 24.8661C32.3995 24.6317 32.0815 24.5 31.75 24.5H24.25Z" fill="#111111"/>
<path d="M31.75 31H24.25C23.7859 31 23.3408 30.8156 23.0126 30.4874C22.6844 30.1592 22.5 29.7141 22.5 29.25C22.5 28.7859 22.6844 28.3408 23.0126 28.0126C23.3408 27.6844 23.7859 27.5 24.25 27.5H31.75C32.2141 27.5 32.6592 27.6844 32.9874 28.0126C33.3156 28.3408 33.5 28.7859 33.5 29.25C33.5 29.7141 33.3156 30.1592 32.9874 30.4874C32.6592 30.8156 32.2141 31 31.75 31Z" fill="#FEE456"/>
<path d="M31.75 31.5H24.25C23.6533 31.5 23.081 31.2629 22.659 30.841C22.2371 30.419 22 29.8467 22 29.25C22 28.6533 22.2371 28.081 22.659 27.659C23.081 27.2371 23.6533 27 24.25 27H31.75C32.3467 27 32.919 27.2371 33.341 27.659C33.7629 28.081 34 28.6533 34 29.25C34 29.8467 33.7629 30.419 33.341 30.841C32.919 31.2629 32.3467 31.5 31.75 31.5ZM24.25 28C23.9185 28 23.6005 28.1317 23.3661 28.3661C23.1317 28.6005 23 28.9185 23 29.25C23 29.5815 23.1317 29.8995 23.3661 30.1339C23.6005 30.3683 23.9185 30.5 24.25 30.5H31.75C32.0815 30.5 32.3995 30.3683 32.6339 30.1339C32.8683 29.8995 33 29.5815 33 29.25C33 28.9185 32.8683 28.6005 32.6339 28.3661C32.3995 28.1317 32.0815 28 31.75 28H24.25Z" fill="#111111"/>
<path d="M8.89975 15.1798L9.19975 12.3128H12.2548V13.1328H9.99275L9.83675 14.4918C10.1083 14.3383 10.4159 14.26 10.7278 14.2648C10.9639 14.2516 11.2 14.2915 11.4187 14.3815C11.6374 14.4714 11.8332 14.6093 11.9918 14.7848C12.3093 15.18 12.4699 15.6785 12.4428 16.1848C12.4552 16.4367 12.4174 16.6885 12.3316 16.9256C12.2457 17.1627 12.1136 17.3803 11.9428 17.5658C11.7618 17.7413 11.5465 17.8773 11.3104 17.9655C11.0742 18.0536 10.8224 18.0918 10.5708 18.0778C10.0992 18.0951 9.63792 17.9373 9.27575 17.6348C9.10645 17.4894 8.96943 17.3102 8.8735 17.1087C8.77758 16.9072 8.72486 16.6879 8.71875 16.4648H9.63675C9.65669 16.7058 9.76327 16.9314 9.93675 17.0998C10.1114 17.2522 10.3382 17.3314 10.5698 17.3208C10.7001 17.3271 10.8301 17.3021 10.9487 17.2478C11.0674 17.1935 11.1713 17.1116 11.2517 17.0088C11.4267 16.7604 11.5127 16.4602 11.4957 16.1568C11.5119 15.8587 11.4155 15.5653 11.2257 15.3348C11.1316 15.2334 11.0164 15.154 10.8882 15.1022C10.7599 15.0503 10.6219 15.0273 10.4838 15.0348C10.3352 15.031 10.1871 15.054 10.0468 15.1028C9.90038 15.1661 9.76762 15.2571 9.65575 15.3708L8.89975 15.1798ZM16.6997 15.6058C16.7431 16.2556 16.5808 16.9025 16.2358 17.4548C16.0723 17.6655 15.8593 17.8325 15.6158 17.9412C15.3723 18.0499 15.1057 18.0968 14.8398 18.0778C14.5765 18.0957 14.3128 18.0498 14.071 17.9442C13.8292 17.8385 13.6165 17.6761 13.4508 17.4708C13.1022 16.9377 12.9343 16.3066 12.9718 15.6708V14.6868C12.9257 14.0403 13.0864 13.3959 13.4307 12.8468C13.5966 12.6384 13.8108 12.4736 14.0548 12.3668C14.2987 12.2599 14.5651 12.2143 14.8307 12.2338C15.094 12.2147 15.3581 12.2592 15.6005 12.3637C15.843 12.4681 16.0567 12.6294 16.2238 12.8338C16.5691 13.3634 16.7359 13.9896 16.6997 14.6208V15.6058ZM15.7457 14.5428C15.7726 14.1393 15.6973 13.7355 15.5268 13.3688C15.4567 13.2487 15.3546 13.1506 15.2318 13.0854C15.109 13.0202 14.9705 12.9905 14.8317 12.9998C14.6963 12.991 14.5611 13.0193 14.4405 13.0817C14.32 13.1441 14.2188 13.2382 14.1477 13.3538C13.9782 13.6947 13.899 14.0735 13.9178 14.4538V15.7428C13.8927 16.1508 13.9693 16.5587 14.1407 16.9298C14.2083 17.0547 14.31 17.1578 14.4339 17.227C14.5579 17.2963 14.699 17.3288 14.8408 17.3208C14.9757 17.3286 15.1103 17.2991 15.2295 17.2354C15.3488 17.1717 15.4482 17.0763 15.5168 16.9598C15.6873 16.6082 15.7664 16.2191 15.7468 15.8288L15.7457 14.5428ZM17.2998 13.4058C17.2942 13.2496 17.3208 13.0939 17.3779 12.9483C17.435 12.8028 17.5214 12.6705 17.6318 12.5598C17.7467 12.449 17.8828 12.3627 18.032 12.306C18.1812 12.2493 18.3403 12.2234 18.4998 12.2298C18.6607 12.2223 18.8215 12.2477 18.9723 12.3044C19.123 12.3612 19.2607 12.4481 19.3767 12.5598C19.4877 12.6739 19.5742 12.8095 19.6309 12.9583C19.6877 13.107 19.7135 13.2658 19.7067 13.4248V13.7058C19.7122 13.8609 19.6857 14.0156 19.6289 14.16C19.5722 14.3045 19.4863 14.4358 19.3767 14.5458C19.2617 14.6565 19.1253 14.7426 18.9759 14.799C18.8265 14.8554 18.6673 14.8808 18.5077 14.8738C18.1869 14.8854 17.8746 14.7696 17.6388 14.5518C17.5242 14.4392 17.4348 14.3037 17.3763 14.1541C17.3179 14.0045 17.2918 13.8442 17.2998 13.6838V13.4058ZM17.9637 13.7058C17.9563 13.865 18.0099 14.0209 18.1138 14.1418C18.1641 14.1972 18.2261 14.2408 18.2952 14.2695C18.3644 14.2982 18.439 14.3112 18.5138 14.3078C18.5862 14.3099 18.6583 14.2963 18.7249 14.2678C18.7916 14.2393 18.8512 14.1966 18.8997 14.1428C19.004 14.0164 19.0568 13.8554 19.0478 13.6918V13.4068C19.0548 13.2474 19.0012 13.0913 18.8977 12.9698C18.8481 12.9139 18.7866 12.8696 18.7178 12.8402C18.649 12.8108 18.5745 12.797 18.4998 12.7998C18.4257 12.7967 18.3518 12.8104 18.2838 12.8398C18.2157 12.8692 18.1552 12.9137 18.1068 12.9698C18.0049 13.0959 17.953 13.2549 17.9608 13.4168L17.9637 13.7058ZM20.0338 16.6058C20.0275 16.4485 20.0546 16.2916 20.1132 16.1455C20.1718 15.9994 20.2606 15.8672 20.3738 15.7578C20.4898 15.6493 20.6261 15.5648 20.7749 15.5092C20.9237 15.4536 21.082 15.428 21.2408 15.4338C21.3998 15.4275 21.5586 15.4528 21.7078 15.5085C21.857 15.5641 21.9936 15.6488 22.1098 15.7578C22.2241 15.8719 22.3133 16.0088 22.3715 16.1595C22.4297 16.3102 22.4557 16.4714 22.4478 16.6328V16.9098C22.4529 17.0643 22.4266 17.2182 22.3706 17.3622C22.3146 17.5062 22.2299 17.6374 22.1217 17.7478C22.0066 17.8597 21.8697 17.9467 21.7195 18.0034C21.5693 18.0602 21.4091 18.0855 21.2488 18.0778C21.0876 18.0851 20.9266 18.06 20.7752 18.004C20.6239 17.948 20.4854 17.8623 20.3678 17.7518C20.2556 17.6392 20.168 17.5045 20.1105 17.3563C20.053 17.2081 20.0269 17.0496 20.0338 16.8908V16.6058ZM20.6978 16.9058C20.6913 17.0655 20.7464 17.2216 20.8518 17.3418C20.9018 17.3978 20.9636 17.4421 21.0328 17.4714C21.1019 17.5008 21.1767 17.5146 21.2517 17.5118C21.3251 17.5153 21.3984 17.5026 21.4663 17.4746C21.5342 17.4466 21.5952 17.404 21.6448 17.3498C21.7428 17.2211 21.7908 17.0612 21.7798 16.8998V16.6068C21.7877 16.4469 21.7332 16.2902 21.6278 16.1698C21.5789 16.115 21.5187 16.0714 21.4514 16.0421C21.384 16.0128 21.3112 15.9983 21.2378 15.9998C21.1643 15.9971 21.0911 16.0103 21.0232 16.0386C20.9554 16.0669 20.8945 16.1097 20.8447 16.1638C20.7387 16.2901 20.685 16.4522 20.6947 16.6168L20.6978 16.9058ZM18.6997 17.5738L18.2137 17.2928L20.9908 12.8478L21.4788 13.1288L18.6997 17.5738Z" fill="#111111"/>
</svg>
