<svg width="36" height="36" viewBox="0 0 36 36" fill="none" xmlns="http://www.w3.org/2000/svg">
<path d="M24.591 31H6.41098C5.56176 31.051 4.72679 30.7643 4.08804 30.2023C3.44929 29.6404 3.05855 28.8488 3.00098 28V7.99995C3.05855 7.15115 3.44929 6.35951 4.08804 5.79756C4.72679 5.23562 5.56176 4.94892 6.41098 4.99995H24.591C25.44 4.94919 26.2747 5.23601 26.9133 5.79793C27.5518 6.35985 27.9424 7.15133 28 7.99995V28C27.9424 28.8486 27.5518 29.6401 26.9133 30.202C26.2747 30.7639 25.44 31.0507 24.591 31Z" fill="white"/>
<path d="M22.501 31.5H6.50098C5.57272 31.5 4.68248 31.1313 4.0261 30.4749C3.36973 29.8185 3.00098 28.9283 3.00098 28V8C3.00098 7.07174 3.36973 6.1815 4.0261 5.52513C4.68248 4.86875 5.57272 4.5 6.50098 4.5H24.501C24.9606 4.5 25.4157 4.59053 25.8404 4.76642C26.265 4.94231 26.6508 5.20012 26.9758 5.52513C27.3009 5.85013 27.5587 6.23597 27.7346 6.66061C27.9104 7.08525 28.001 7.54037 28.001 8V28C28.001 28.4596 27.9104 28.9148 27.7346 29.3394C27.5587 29.764 27.3009 30.1499 26.9758 30.4749C26.6508 30.7999 26.265 31.0577 25.8404 31.2336C25.4157 31.4095 24.9606 31.5 24.501 31.5M6.50098 5.5C5.83793 5.5 5.20205 5.76339 4.73321 6.23223C4.26437 6.70107 4.00098 7.33696 4.00098 8V28C4.00098 28.663 4.26437 29.2989 4.73321 29.7678C5.20205 30.2366 5.83793 30.5 6.50098 30.5H24.501C25.164 30.5 25.7999 30.2366 26.2687 29.7678C26.7376 29.2989 27.001 28.663 27.001 28V8C27.001 7.33696 26.7376 6.70107 26.2687 6.23223C25.7999 5.76339 25.164 5.5 24.501 5.5H6.50098Z" fill="#111111"/>
<path d="M31.75 23.9873H24.25C23.7859 23.9873 23.3408 23.8029 23.0126 23.4747C22.6844 23.1466 22.5 22.7014 22.5 22.2373C22.5 21.7732 22.6844 21.3281 23.0126 20.9999C23.3408 20.6717 23.7859 20.4873 24.25 20.4873H31.75C32.2141 20.4873 32.6592 20.6717 32.9874 20.9999C33.3156 21.3281 33.5 21.7732 33.5 22.2373C33.5 22.7014 33.3156 23.1466 32.9874 23.4747C32.6592 23.8029 32.2141 23.9873 31.75 23.9873Z" fill="#FEE456"/>
<path d="M31.75 24.4883H24.25C23.6533 24.4883 23.081 24.2512 22.659 23.8293C22.2371 23.4073 22 22.835 22 22.2383C22 21.6415 22.2371 21.0692 22.659 20.6473C23.081 20.2253 23.6533 19.9883 24.25 19.9883H31.75C32.3467 19.9883 32.919 20.2253 33.341 20.6473C33.7629 21.0692 34 21.6415 34 22.2383C34 22.835 33.7629 23.4073 33.341 23.8293C32.919 24.2512 32.3467 24.4883 31.75 24.4883ZM24.25 20.9883C23.9185 20.9883 23.6005 21.12 23.3661 21.3544C23.1317 21.5888 23 21.9068 23 22.2383C23 22.5698 23.1317 22.8877 23.3661 23.1222C23.6005 23.3566 23.9185 23.4883 24.25 23.4883H31.75C32.0815 23.4883 32.3995 23.3566 32.6339 23.1222C32.8683 22.8877 33 22.5698 33 22.2383C33 21.9068 32.8683 21.5888 32.6339 21.3544C32.3995 21.12 32.0815 20.9883 31.75 20.9883H24.25Z" fill="#111111"/>
<path d="M31.75 27.5H24.25C23.7859 27.5 23.3408 27.3156 23.0126 26.9874C22.6844 26.6592 22.5 26.2141 22.5 25.75C22.5 25.2859 22.6844 24.8408 23.0126 24.5126C23.3408 24.1844 23.7859 24 24.25 24H31.75C32.2141 24 32.6592 24.1844 32.9874 24.5126C33.3156 24.8408 33.5 25.2859 33.5 25.75C33.5 26.2141 33.3156 26.6592 32.9874 26.9874C32.6592 27.3156 32.2141 27.5 31.75 27.5Z" fill="#FEE456"/>
<path d="M31.75 28H24.25C23.6533 28 23.081 27.7629 22.659 27.341C22.2371 26.919 22 26.3467 22 25.75C22 25.1533 22.2371 24.581 22.659 24.159C23.081 23.7371 23.6533 23.5 24.25 23.5H31.75C32.3467 23.5 32.919 23.7371 33.341 24.159C33.7629 24.581 34 25.1533 34 25.75C34 26.3467 33.7629 26.919 33.341 27.341C32.919 27.7629 32.3467 28 31.75 28ZM24.25 24.5C23.9185 24.5 23.6005 24.6317 23.3661 24.8661C23.1317 25.1005 23 25.4185 23 25.75C23 26.0815 23.1317 26.3995 23.3661 26.6339C23.6005 26.8683 23.9185 27 24.25 27H31.75C32.0815 27 32.3995 26.8683 32.6339 26.6339C32.8683 26.3995 33 26.0815 33 25.75C33 25.4185 32.8683 25.1005 32.6339 24.8661C32.3995 24.6317 32.0815 24.5 31.75 24.5H24.25Z" fill="#111111"/>
<path d="M31.75 31H24.25C23.7859 31 23.3408 30.8156 23.0126 30.4874C22.6844 30.1592 22.5 29.7141 22.5 29.25C22.5 28.7859 22.6844 28.3408 23.0126 28.0126C23.3408 27.6844 23.7859 27.5 24.25 27.5H31.75C32.2141 27.5 32.6592 27.6844 32.9874 28.0126C33.3156 28.3408 33.5 28.7859 33.5 29.25C33.5 29.7141 33.3156 30.1592 32.9874 30.4874C32.6592 30.8156 32.2141 31 31.75 31Z" fill="#FEE456"/>
<path d="M31.75 31.5H24.25C23.6533 31.5 23.081 31.2629 22.659 30.841C22.2371 30.419 22 29.8467 22 29.25C22 28.6533 22.2371 28.081 22.659 27.659C23.081 27.2371 23.6533 27 24.25 27H31.75C32.3467 27 32.919 27.2371 33.341 27.659C33.7629 28.081 34 28.6533 34 29.25C34 29.8467 33.7629 30.419 33.341 30.841C32.919 31.2629 32.3467 31.5 31.75 31.5ZM24.25 28C23.9185 28 23.6005 28.1317 23.3661 28.3661C23.1317 28.6005 23 28.9185 23 29.25C23 29.5815 23.1317 29.8995 23.3661 30.1339C23.6005 30.3683 23.9185 30.5 24.25 30.5H31.75C32.0815 30.5 32.3995 30.3683 32.6339 30.1339C32.8683 29.8995 33 29.5815 33 29.25C33 28.9185 32.8683 28.6005 32.6339 28.3661C32.3995 28.1317 32.0815 28 31.75 28H24.25Z" fill="#111111"/>
<path d="M12.466 17.9998H8.64096V17.3478L10.536 15.2818C10.7561 15.0477 10.9518 14.7917 11.12 14.5178C11.2313 14.3307 11.2914 14.1175 11.294 13.8998C11.3047 13.6598 11.2227 13.4249 11.065 13.2438C10.9861 13.1612 10.8903 13.0967 10.7841 13.0546C10.678 13.0125 10.564 12.9938 10.45 12.9998C10.3175 12.9919 10.185 13.013 10.0615 13.0615C9.93803 13.1101 9.82661 13.1849 9.73496 13.2808C9.55587 13.4961 9.4651 13.7712 9.48096 14.0508H8.53196C8.52689 13.7235 8.6083 13.4006 8.76796 13.1148C8.92523 12.838 9.16027 12.6134 9.44396 12.4688C9.75807 12.3104 10.1062 12.2314 10.458 12.2388C10.9299 12.2122 11.3952 12.3603 11.765 12.6548C11.9247 12.7981 12.0505 12.9753 12.1332 13.1733C12.2159 13.3714 12.2534 13.5854 12.243 13.7998C12.2356 14.1124 12.1533 14.4187 12.003 14.6928C11.788 15.0792 11.5234 15.4359 11.216 15.7538L9.82496 17.2418H12.466V17.9998ZM16.7 15.6048C16.7436 16.2549 16.5812 16.9022 16.236 17.4548C16.0725 17.6655 15.8595 17.8325 15.616 17.9412C15.3725 18.0499 15.1059 18.0968 14.84 18.0778C14.5767 18.0957 14.313 18.0498 14.0712 17.9442C13.8294 17.8385 13.6167 17.6761 13.451 17.4708C13.1024 16.9377 12.9345 16.3066 12.972 15.6708V14.6868C12.9259 14.0403 13.0867 13.3959 13.431 12.8468C13.5968 12.6384 13.811 12.4736 14.055 12.3668C14.299 12.2599 14.5653 12.2143 14.831 12.2338C15.0943 12.2147 15.3583 12.2592 15.6007 12.3637C15.8432 12.4681 16.057 12.6294 16.224 12.8338C16.5693 13.3634 16.7361 13.9896 16.7 14.6208V15.6048ZM15.746 14.5428C15.7728 14.1393 15.6975 13.7355 15.527 13.3688C15.4569 13.2487 15.3548 13.1506 15.232 13.0854C15.1092 13.0202 14.9707 12.9905 14.832 12.9998C14.6965 12.991 14.5613 13.0193 14.4407 13.0817C14.3202 13.1441 14.219 13.2382 14.148 13.3538C13.9784 13.6947 13.8992 14.0735 13.918 14.4538V15.7428C13.8929 16.1508 13.9695 16.5587 14.141 16.9298C14.2085 17.0547 14.3102 17.1578 14.4341 17.227C14.5581 17.2963 14.6992 17.3288 14.841 17.3208C14.9759 17.3286 15.1105 17.2991 15.2297 17.2354C15.349 17.1717 15.4484 17.0763 15.517 16.9598C15.6876 16.6082 15.7667 16.2191 15.747 15.8288L15.746 14.5428ZM17.3 13.4058C17.2944 13.2496 17.321 13.0939 17.3781 12.9483C17.4352 12.8028 17.5216 12.6705 17.632 12.5598C17.7469 12.449 17.883 12.3627 18.0322 12.306C18.1814 12.2493 18.3405 12.2234 18.5 12.2298C18.6609 12.2223 18.8217 12.2477 18.9725 12.3044C19.1233 12.3612 19.2609 12.4481 19.377 12.5598C19.4879 12.6739 19.5744 12.8095 19.6312 12.9583C19.6879 13.107 19.7137 13.2658 19.707 13.4248V13.7058C19.7124 13.8609 19.6859 14.0156 19.6291 14.16C19.5724 14.3045 19.4865 14.4358 19.377 14.5458C19.2619 14.6565 19.1255 14.7426 18.9761 14.799C18.8267 14.8554 18.6675 14.8808 18.508 14.8738C18.1871 14.8854 17.8748 14.7696 17.639 14.5518C17.5244 14.4392 17.435 14.3037 17.3765 14.1541C17.3181 14.0045 17.292 13.8442 17.3 13.6838V13.4058ZM17.964 13.7058C17.9565 13.865 18.0101 14.0209 18.114 14.1418C18.1643 14.1972 18.2263 14.2408 18.2954 14.2695C18.3646 14.2982 18.4392 14.3112 18.514 14.3078C18.5864 14.3099 18.6585 14.2963 18.7251 14.2678C18.7918 14.2393 18.8514 14.1966 18.9 14.1428C19.0042 14.0164 19.057 13.8554 19.048 13.6918V13.4068C19.055 13.2474 19.0014 13.0913 18.898 12.9698C18.8483 12.9139 18.7868 12.8696 18.718 12.8402C18.6492 12.8108 18.5747 12.797 18.5 12.7998C18.4259 12.7967 18.3521 12.8104 18.284 12.8398C18.2159 12.8692 18.1554 12.9137 18.107 12.9698C18.0051 13.0959 17.9532 13.2549 17.961 13.4168L17.964 13.7058ZM20.034 16.6058C20.0277 16.4485 20.0548 16.2916 20.1134 16.1455C20.172 15.9994 20.2608 15.8672 20.374 15.7578C20.49 15.6493 20.6263 15.5648 20.7751 15.5092C20.9239 15.4536 21.0822 15.428 21.241 15.4338C21.4001 15.4275 21.5588 15.4528 21.708 15.5085C21.8572 15.5641 21.9939 15.6488 22.11 15.7578C22.2243 15.8719 22.3135 16.0088 22.3717 16.1595C22.4299 16.3102 22.4559 16.4714 22.448 16.6328V16.9098C22.4531 17.0643 22.4269 17.2182 22.3708 17.3622C22.3148 17.5062 22.2301 17.6374 22.122 17.7478C22.0068 17.8597 21.8699 17.9467 21.7197 18.0034C21.5696 18.0602 21.4093 18.0855 21.249 18.0778C21.0878 18.0851 20.9268 18.06 20.7754 18.004C20.6241 17.948 20.4856 17.8623 20.368 17.7518C20.2558 17.6392 20.1682 17.5045 20.1107 17.3563C20.0532 17.2081 20.0271 17.0496 20.034 16.8908V16.6058ZM20.698 16.9058C20.6915 17.0655 20.7466 17.2216 20.852 17.3418C20.902 17.3978 20.9638 17.4421 21.033 17.4714C21.1021 17.5008 21.1769 17.5146 21.252 17.5118C21.3253 17.5153 21.3986 17.5026 21.4665 17.4746C21.5345 17.4466 21.5954 17.404 21.645 17.3498C21.743 17.2211 21.791 17.0612 21.78 16.8998V16.6068C21.7879 16.4469 21.7334 16.2902 21.628 16.1698C21.5791 16.115 21.5189 16.0714 21.4516 16.0421C21.3843 16.0128 21.3114 15.9983 21.238 15.9998C21.1645 15.9971 21.0913 16.0103 21.0234 16.0386C20.9556 16.0669 20.8947 16.1097 20.845 16.1638C20.7389 16.2901 20.6852 16.4522 20.695 16.6168L20.698 16.9058ZM18.7 17.5738L18.214 17.2928L20.991 12.8478L21.479 13.1288L18.7 17.5738Z" fill="#111111"/>
</svg>
