<svg width="36" height="36" viewBox="0 0 36 36" fill="none" xmlns="http://www.w3.org/2000/svg">
<path d="M31.5245 14.1794L12.7395 4.81641L4.64453 11.8384" fill="#212121"/>
<path d="M31.5245 14.1794L12.7395 4.81641L4.64453 11.8384" stroke="white" stroke-linecap="round" stroke-linejoin="round"/>
<path d="M14.391 4.81652C14.391 5.10587 14.3052 5.38873 14.1444 5.62931C13.9836 5.8699 13.7552 6.05742 13.4878 6.16815C13.2205 6.27888 12.9263 6.30785 12.6425 6.2514C12.3588 6.19495 12.0981 6.05562 11.8935 5.85101C11.6889 5.64641 11.5495 5.38573 11.4931 5.10193C11.4366 4.81814 11.4656 4.52398 11.5763 4.25665C11.6871 3.98932 11.8746 3.76083 12.1152 3.60008C12.3558 3.43932 12.6386 3.35352 12.928 3.35352C13.316 3.35352 13.6881 3.50765 13.9625 3.78202C14.2368 4.05638 14.391 4.4285 14.391 4.81652Z" fill="#B9B5EF"/>
<path d="M12.928 6.27952C13.736 6.27952 14.391 5.62451 14.391 4.81652C14.391 4.00852 13.736 3.35352 12.928 3.35352C12.12 3.35352 11.465 4.00852 11.465 4.81652C11.465 5.62451 12.12 6.27952 12.928 6.27952Z" stroke="#111111" stroke-miterlimit="10"/>
<path d="M23.631 9.69347C23.631 9.98282 23.5452 10.2657 23.3844 10.5063C23.2236 10.7469 22.9952 10.9344 22.7278 11.0451C22.4605 11.1558 22.1663 11.1848 21.8825 11.1284C21.5987 11.0719 21.3381 10.9326 21.1335 10.728C20.9289 10.5234 20.7895 10.2627 20.7331 9.97889C20.6766 9.69509 20.7056 9.40093 20.8163 9.1336C20.9271 8.86627 21.1146 8.63779 21.3552 8.47703C21.5957 8.31627 21.8786 8.23047 22.168 8.23047C22.556 8.23047 22.9281 8.38461 23.2025 8.65897C23.4768 8.93334 23.631 9.30546 23.631 9.69347Z" fill="white"/>
<path d="M22.168 11.1565C22.9759 11.1565 23.631 10.5015 23.631 9.69347C23.631 8.88548 22.9759 8.23047 22.168 8.23047C21.36 8.23047 20.705 8.88548 20.705 9.69347C20.705 10.5015 21.36 11.1565 22.168 11.1565Z" stroke="#111111" stroke-linecap="round" stroke-linejoin="round"/>
<path d="M6.426 12.1319C6.426 12.4213 6.3402 12.7042 6.17944 12.9447C6.01868 13.1853 5.79019 13.3729 5.52287 13.4836C5.25554 13.5943 4.96138 13.6233 4.67758 13.5668C4.39379 13.5104 4.13311 13.371 3.9285 13.1664C3.7239 12.9618 3.58456 12.7012 3.52811 12.4174C3.47166 12.1336 3.50063 11.8394 3.61136 11.5721C3.7221 11.3048 3.90961 11.0763 4.1502 10.9155C4.39079 10.7547 4.67365 10.6689 4.963 10.6689C5.35101 10.6689 5.72313 10.8231 5.9975 11.0974C6.27186 11.3718 6.426 11.7439 6.426 12.1319Z" fill="white"/>
<path d="M4.963 13.5949C5.77099 13.5949 6.426 12.9399 6.426 12.1319C6.426 11.324 5.77099 10.6689 4.963 10.6689C4.15501 10.6689 3.5 11.324 3.5 12.1319C3.5 12.9399 4.15501 13.5949 4.963 13.5949Z" stroke="#111111" stroke-linecap="round" stroke-linejoin="round"/>
<path d="M32.5 14.0821C32.5 14.3715 32.4142 14.6544 32.2534 14.8949C32.0927 15.1355 31.8642 15.323 31.5968 15.4338C31.3295 15.5445 31.0354 15.5735 30.7516 15.517C30.4678 15.4606 30.2071 15.3212 30.0025 15.1166C29.7979 14.912 29.6585 14.6514 29.6021 14.3676C29.5456 14.0838 29.5746 13.7896 29.6853 13.5223C29.7961 13.2549 29.9836 13.0265 30.2242 12.8657C30.4648 12.7049 30.7476 12.6191 31.037 12.6191C31.425 12.6191 31.7971 12.7733 32.0715 13.0476C32.3458 13.322 32.5 13.6941 32.5 14.0821Z" fill="white"/>
<path d="M31.037 15.5451C31.845 15.5451 32.5 14.8901 32.5 14.0821C32.5 13.2741 31.845 12.6191 31.037 12.6191C30.229 12.6191 29.574 13.2741 29.574 14.0821C29.574 14.8901 30.229 15.5451 31.037 15.5451Z" stroke="#111111" stroke-linecap="round" stroke-linejoin="round"/>
<path d="M7.95859 32.5625H4.55859C4.29338 32.5625 4.03902 32.4571 3.85149 32.2696C3.66395 32.0821 3.55859 31.8277 3.55859 31.5625V19.0625C3.55859 18.7973 3.66395 18.5429 3.85149 18.3554C4.03902 18.1679 4.29338 18.0625 4.55859 18.0625H7.95859C8.22381 18.0625 8.47816 18.1679 8.6657 18.3554C8.85324 18.5429 8.95859 18.7973 8.95859 19.0625V31.5625C8.95859 31.8277 8.85324 32.0821 8.6657 32.2696C8.47816 32.4571 8.22381 32.5625 7.95859 32.5625Z" fill="white"/>
<path d="M7.95859 18.0625H4.55859C4.00631 18.0625 3.55859 18.5102 3.55859 19.0625V31.5625C3.55859 32.1148 4.00631 32.5625 4.55859 32.5625H7.95859C8.51088 32.5625 8.95859 32.1148 8.95859 31.5625V19.0625C8.95859 18.5102 8.51088 18.0625 7.95859 18.0625Z" stroke="#111111" stroke-linecap="round" stroke-linejoin="round"/>
<path d="M15.646 32.5625H12.246C11.9808 32.5625 11.7264 32.4571 11.5389 32.2696C11.3513 32.0821 11.246 31.8277 11.246 31.5625V14.0625C11.246 13.7973 11.3513 13.5429 11.5389 13.3554C11.7264 13.1679 11.9808 13.0625 12.246 13.0625H15.646C15.9112 13.0625 16.1655 13.1679 16.3531 13.3554C16.5406 13.5429 16.646 13.7973 16.646 14.0625V31.5625C16.646 31.8277 16.5406 32.0821 16.3531 32.2696C16.1655 32.4571 15.9112 32.5625 15.646 32.5625Z" fill="#B9B5EF"/>
<path d="M15.646 13.0625H12.246C11.6937 13.0625 11.246 13.5102 11.246 14.0625V31.5625C11.246 32.1148 11.6937 32.5625 12.246 32.5625H15.646C16.1983 32.5625 16.646 32.1148 16.646 31.5625V14.0625C16.646 13.5102 16.1983 13.0625 15.646 13.0625Z" stroke="#111111" stroke-miterlimit="10"/>
<path d="M23.3316 32.5625H19.9316C19.6664 32.5625 19.4121 32.4571 19.2245 32.2696C19.037 32.0821 18.9316 31.8277 18.9316 31.5625V19.0625C18.9316 18.7973 19.037 18.5429 19.2245 18.3554C19.4121 18.1679 19.6664 18.0625 19.9316 18.0625H23.3316C23.5969 18.0625 23.8512 18.1679 24.0387 18.3554C24.2263 18.5429 24.3316 18.7973 24.3316 19.0625V31.5625C24.3316 31.8277 24.2263 32.0821 24.0387 32.2696C23.8512 32.4571 23.5969 32.5625 23.3316 32.5625Z" fill="white"/>
<path d="M23.3316 18.0625H19.9316C19.3794 18.0625 18.9316 18.5102 18.9316 19.0625V31.5625C18.9316 32.1148 19.3794 32.5625 19.9316 32.5625H23.3316C23.8839 32.5625 24.3316 32.1148 24.3316 31.5625V19.0625C24.3316 18.5102 23.8839 18.0625 23.3316 18.0625Z" stroke="#111111" stroke-linecap="round" stroke-linejoin="round"/>
<path d="M31.019 32.5625H27.619C27.3538 32.5625 27.0994 32.4571 26.9119 32.2696C26.7244 32.0821 26.619 31.8277 26.619 31.5625V19.0625C26.619 18.7973 26.7244 18.5429 26.9119 18.3554C27.0994 18.1679 27.3538 18.0625 27.619 18.0625H31.019C31.2842 18.0625 31.5386 18.1679 31.7261 18.3554C31.9137 18.5429 32.019 18.7973 32.019 19.0625V31.5625C32.019 31.8277 31.9137 32.0821 31.7261 32.2696C31.5386 32.4571 31.2842 32.5625 31.019 32.5625Z" fill="white"/>
<path d="M31.019 18.0625H27.619C27.0667 18.0625 26.619 18.5102 26.619 19.0625V31.5625C26.619 32.1148 27.0667 32.5625 27.619 32.5625H31.019C31.5713 32.5625 32.019 32.1148 32.019 31.5625V19.0625C32.019 18.5102 31.5713 18.0625 31.019 18.0625Z" stroke="#111111" stroke-linecap="round" stroke-linejoin="round"/>
</svg>
