<svg width="32" height="32" viewBox="0 0 32 32" fill="none" xmlns="http://www.w3.org/2000/svg">
<path d="M6 4.5C6 3.39543 6.89543 2.5 8 2.5H24C25.1046 2.5 26 3.39543 26 4.5V27.5C26 28.6046 25.1046 29.5 24 29.5H8C6.89543 29.5 6 28.6046 6 27.5V4.5Z" fill="#D7E0EF"/>
<path d="M10 14.5944C10 14.156 10.2855 13.7688 10.7043 13.6391L15.7043 12.0915C15.8969 12.0319 16.1031 12.0319 16.2957 12.0915L21.2957 13.6391C21.7145 13.7688 22 14.156 22 14.5944V17.1242C22 20.2666 20.1604 23.1179 17.2973 24.4131L16.4122 24.8135C16.1502 24.9321 15.8498 24.9321 15.5878 24.8135L14.7027 24.4131C11.8396 23.1179 10 20.2666 10 17.1242V14.5944Z" fill="#4579FF"/>
<path d="M13.6946 17L14.1885 18.2846M18.3047 17L17.8121 18.287M17.8121 18.287L17.1535 20L16.001 17L14.8485 20L14.1892 18.287H13M17.8121 18.287H19" stroke="white" stroke-linecap="round" stroke-linejoin="round"/>
<path d="M12 6.5C12 5.94772 12.4477 5.5 13 5.5H18C18.5523 5.5 19 5.94772 19 6.5C19 7.05228 18.5523 7.5 18 7.5H13C12.4477 7.5 12 7.05228 12 6.5Z" fill="#AEBED3"/>
</svg>
