<svg width="48" height="48" viewBox="0 0 48 48" fill="none" xmlns="http://www.w3.org/2000/svg">
<path d="M31.8423 5H5.15775C3.41377 5 2 6.41377 2 8.15775V34.8423C2 36.5862 3.41377 38 5.15775 38H31.8423C33.5862 38 35 36.5862 35 34.8423V8.15775C35 6.41377 33.5862 5 31.8423 5Z" fill="#B3C1D9"/>
<path d="M15.4021 9H7.59785C6.71538 9 6 9.71538 6 10.5979V18.4021C6 19.2846 6.71538 20 7.59785 20H15.4021C16.2846 20 17 19.2846 17 18.4021V10.5979C17 9.71538 16.2846 9 15.4021 9Z" fill="#889DBC"/>
<path d="M10.9289 16.9286C10.9289 17.2438 11.1851 17.5 11.5003 17.5C11.8156 17.5 12.0717 17.2438 12.0717 16.9286V14.9972H13.9286C14.2438 14.9972 14.5 14.741 14.5 14.4257C14.5 14.1105 14.2438 13.8543 13.9286 13.8543H12.0717V12.0714C12.0717 11.7562 11.8156 11.5 11.5003 11.5C11.1851 11.5 10.9289 11.7562 10.9289 12.0714V13.8543H9.07144C8.75617 13.8543 8.5 14.1105 8.5 14.4257C8.5 14.741 8.75617 14.9972 9.07144 14.9972H10.9289V16.9286Z" fill="white"/>
<path d="M15.4021 22.5H7.59785C6.71538 22.5 6 23.2154 6 24.0979V31.9021C6 32.7846 6.71538 33.5 7.59785 33.5H15.4021C16.2846 33.5 17 32.7846 17 31.9021V24.0979C17 23.2154 16.2846 22.5 15.4021 22.5Z" fill="#889DBC"/>
<path d="M9.17965 30.2558C9.29673 30.3779 9.45642 30.4363 9.61604 30.4363H9.62137C9.78106 30.4363 9.93536 30.3779 10.0578 30.2558L11.4681 28.8489L12.9422 30.3195C13.0593 30.4416 13.219 30.5 13.3786 30.5H13.3839C13.5436 30.5 13.698 30.4416 13.8204 30.3195C14.0599 30.0752 14.0599 29.6823 13.8204 29.4435L12.3463 27.9729L13.7674 26.5552C14.0069 26.311 14.0122 25.9181 13.7674 25.6792C13.5226 25.4403 13.1287 25.4403 12.8892 25.6792L11.4681 27.0969L10.1108 25.7429C9.86598 25.5039 9.47214 25.4987 9.23267 25.7429C8.99313 25.9871 8.99313 26.38 9.23267 26.6189L10.5899 27.9729L9.17965 29.3797C8.94012 29.624 8.94012 30.0168 9.17965 30.2558Z" fill="white"/>
<path d="M28.9021 9H21.0978C20.2154 9 19.5 9.71538 19.5 10.5979V18.4021C19.5 19.2846 20.2154 20 21.0978 20H28.9021C29.7846 20 30.5 19.2846 30.5 18.4021V10.5979C30.5 9.71538 29.7846 9 28.9021 9Z" fill="#889DBC"/>
<path d="M27.381 15.2H22.119C21.7775 15.2 21.5 14.931 21.5 14.6C21.5 14.269 21.7775 14 22.119 14H27.381C27.7225 14 28 14.269 28 14.6C28 14.931 27.7225 15.2 27.381 15.2Z" fill="white"/>
<path d="M28.9021 22.5H21.0978C20.2154 22.5 19.5 23.2154 19.5 24.0979V31.9021C19.5 32.7846 20.2154 33.5 21.0978 33.5H28.9021C29.7846 33.5 30.5 32.7846 30.5 31.9021V24.0979C30.5 23.2154 29.7846 22.5 28.9021 22.5Z" fill="#889DBC"/>
<path d="M27.381 28.7H22.119C21.7775 28.7 21.5 28.431 21.5 28.1C21.5 27.769 21.7775 27.5 22.119 27.5H27.381C27.7225 27.5 28 27.769 28 28.1C28 28.431 27.7225 28.7 27.381 28.7Z" fill="white"/>
<path d="M24.75 26.5C25.1642 26.5 25.5 26.1642 25.5 25.75C25.5 25.3358 25.1642 25 24.75 25C24.3358 25 24 25.3358 24 25.75C24 26.1642 24.3358 26.5 24.75 26.5Z" fill="white"/>
<path d="M24.75 31.5C25.1642 31.5 25.5 31.1642 25.5 30.75C25.5 30.3358 25.1642 30 24.75 30C24.3358 30 24 30.3358 24 30.75C24 31.1642 24.3358 31.5 24.75 31.5Z" fill="white"/>
<path fill-rule="evenodd" clip-rule="evenodd" d="M28.5 31.341L36.25 25L44 31.341V39.5783C43.995 41.1959 42.6691 42.505 41.0431 42.5H31.4569C29.8309 42.505 28.505 41.2009 28.5 39.5783V31.341Z" fill="#EB6195"/>
<path d="M44.8548 33.9949C44.577 33.9949 44.3092 33.8937 44.0971 33.7116L36.0046 26.6629L27.9121 33.7166C27.4322 34.1316 26.7098 34.086 26.2855 33.6104C25.8713 33.1398 25.9117 32.4213 26.3815 32.0063C26.3815 32.0063 26.3916 32.0013 26.3916 31.9962L35.2418 24.2846C35.6762 23.9051 36.3228 23.9051 36.7572 24.2846L45.6075 31.9962C46.0823 32.4061 46.1328 33.1246 45.7236 33.6003C45.7236 33.6003 45.7186 33.6053 45.7135 33.6104C45.4963 33.8583 45.1781 34 44.8497 34" fill="#A2294A"/>
<path d="M34.8352 32.5H33.6648C33.2976 32.5 33 32.7976 33 33.1648V34.3352C33 34.7024 33.2976 35 33.6648 35H34.8352C35.2024 35 35.5 34.7024 35.5 34.3352V33.1648C35.5 32.7976 35.2024 32.5 34.8352 32.5Z" fill="white"/>
<path d="M38.8352 32.5H37.6648C37.2976 32.5 37 32.7976 37 33.1648V34.3352C37 34.7024 37.2976 35 37.6648 35H38.8352C39.2024 35 39.5 34.7024 39.5 34.3352V33.1648C39.5 32.7976 39.2024 32.5 38.8352 32.5Z" fill="white"/>
<path d="M34.8352 36.5H33.6648C33.2976 36.5 33 36.7976 33 37.1648V38.3352C33 38.7024 33.2976 39 33.6648 39H34.8352C35.2024 39 35.5 38.7024 35.5 38.3352V37.1648C35.5 36.7976 35.2024 36.5 34.8352 36.5Z" fill="white"/>
<path d="M38.8352 36.5H37.6648C37.2976 36.5 37 36.7976 37 37.1648V38.3352C37 38.7024 37.2976 39 37.6648 39H38.8352C39.2024 39 39.5 38.7024 39.5 38.3352V37.1648C39.5 36.7976 39.2024 36.5 38.8352 36.5Z" fill="white"/>
</svg>
