<svg width="32" height="32" viewBox="0 0 32 32" fill="none" xmlns="http://www.w3.org/2000/svg">
<path d="M30.8761 5.829C30.4761 5.72 29.1061 5.336 27.2411 4.729C23.3552 3.50568 19.5919 1.92248 16.0001 0C11.2224 2.48123 6.19403 4.44665 1.00009 5.863V15.463C0.992061 17.7012 1.53576 19.9069 2.58309 21.885C3.27023 23.1797 4.13158 24.3742 5.14309 25.435C8.1963 28.4456 11.9157 30.6947 16.0001 32C16.0001 32 31.0001 27.652 31.0001 15.467V5.867L30.8761 5.833" fill="#F9E000"/>
<path d="M15.8153 9.85938C12.2053 9.85938 9.27734 12.2154 9.27734 15.1224C9.32174 16.0713 9.62882 16.9893 10.1644 17.774C10.6999 18.5587 11.4428 19.1792 12.3103 19.5664L11.6953 21.9094C11.6842 21.9438 11.6826 21.9805 11.6907 22.0157C11.6988 22.0509 11.7163 22.0833 11.7413 22.1094C11.7587 22.1274 11.7796 22.1417 11.8026 22.1515C11.8256 22.1612 11.8503 22.1663 11.8753 22.1664C11.9169 22.1656 11.9568 22.1504 11.9883 22.1234L14.6393 20.2984C15.029 20.3568 15.4223 20.3869 15.8163 20.3884C19.4263 20.3884 22.3543 18.0324 22.3543 15.1244C22.3543 12.2164 19.4253 9.85938 15.8153 9.85938Z" fill="white"/>
</svg>
