<svg width="32" height="32" viewBox="0 0 32 32" fill="none" xmlns="http://www.w3.org/2000/svg">
<path d="M6 6C6 4.89543 6.89543 4 8 4H18.3161C18.8544 4 19.37 4.21703 19.7463 4.60201L25.4303 10.4171C25.7955 10.7908 26 11.2926 26 11.8151V26C26 27.1046 25.1046 28 24 28H8C6.89543 28 6 27.1046 6 26V6Z" fill="#19973C"/>
<rect x="8" y="16" width="16" height="10" rx="1" fill="#FFF7DC"/>
<path d="M17.8457 25.9969V16H19.0767V19.3338H24V20.4433H19.0759V22.6724H23.9991V23.778H19.0759V25.9985L17.8457 25.9969ZM12.9233 25.9969V23.7764H8V22.6662H12.9241V20.4371H8V19.3323H14.1543V26L12.9233 25.9969Z" fill="#FFDF77"/>
</svg>
