<svg width="32" height="32" viewBox="0 0 32 32" fill="none" xmlns="http://www.w3.org/2000/svg">
<path d="M30.8761 5.829C30.4761 5.72 29.1061 5.336 27.2411 4.729C23.3552 3.50568 19.5919 1.92248 16.0001 0C11.2224 2.48123 6.19403 4.44665 1.00009 5.863V15.463C0.992061 17.7012 1.53576 19.9069 2.58309 21.885C3.27023 23.1797 4.13158 24.3742 5.14309 25.435C8.1963 28.4456 11.9157 30.6947 16.0001 32C16.0001 32 31.0001 27.652 31.0001 15.467V5.867L30.8761 5.833" fill="#0063FF"/>
<path d="M17.1531 11.8538L17.5731 8.96875L17.1341 9.07575C15.9571 9.36475 10.7271 10.8568 9.41714 14.8228C9.41714 14.8228 7.95713 19.7168 14.9721 18.9628L14.5811 21.8408C14.5811 21.8408 14.8211 21.7807 14.9371 21.7527C15.9911 21.4997 21.3771 20.0258 22.7091 15.9938C22.7091 15.9938 24.1681 11.0998 17.1531 11.8538Z" fill="white"/>
</svg>
