<svg width="32" height="32" viewBox="0 0 32 32" fill="none" xmlns="http://www.w3.org/2000/svg">
<path d="M6 5C6 3.89543 6.89543 3 8 3H24C25.1046 3 26 3.89543 26 5V27C26 28.1046 25.1046 29 24 29H8C6.89543 29 6 28.1046 6 27V5Z" fill="#627388"/>
<path d="M18.4999 15.5159C18.496 16.1365 18.2614 16.7334 17.8417 17.1906C17.422 17.6478 16.8473 17.9325 16.2293 17.9895C15.6113 18.0464 14.9942 17.8714 14.4981 17.4986C14.002 17.1257 13.6623 16.5817 13.545 15.9723C13.4278 15.3628 13.5414 14.7316 13.8638 14.2013C14.1862 13.671 14.6943 13.2796 15.2893 13.1031C15.8843 12.9267 16.5237 12.9779 17.083 13.2468C17.6424 13.5156 18.0817 13.9829 18.3156 14.5578C18.4394 14.8619 18.502 15.1875 18.4999 15.5159Z" fill="white"/>
<path d="M20.9999 23.021C20.9875 25.2267 18.7528 25.0029 15.988 24.9861C13.2232 24.9692 10.9869 25.1633 11.0001 22.96C11.0132 20.7567 13.2619 18.9825 16.0236 19.0001C18.7853 19.0178 21.0139 20.8168 20.9999 23.021Z" fill="white"/>
<path d="M13 7C13 6.44772 13.4477 6 14 6H18C18.5523 6 19 6.44772 19 7C19 7.55228 18.5523 8 18 8H14C13.4477 8 13 7.55228 13 7Z" fill="#AEBED3"/>
</svg>
