<svg width="56" height="56" viewBox="0 0 56 56" fill="none" xmlns="http://www.w3.org/2000/svg">
<path d="M49.8172 12.107C49.2352 11.937 47.2172 11.336 44.4862 10.384C38.7642 8.46386 33.2427 5.99085 28.0002 3C18.8172 8.532 6.00024 12.161 6.00024 12.161V27.167C5.98423 30.6462 6.77889 34.0813 8.32124 37.2C9.31935 39.2082 10.5823 41.0735 12.0762 42.746C18.5872 50.09 28.0002 53 28.0002 53C28.0002 53 50.0002 46.206 50.0002 27.167V12.161L49.8172 12.107Z" fill="#0063FF"/>
<path d="M30.2677 21.868L30.9757 17L30.2357 17.18C28.2497 17.668 19.4237 20.186 17.2127 26.88C17.2127 26.88 14.7497 35.139 26.5877 33.867L25.9267 38.724C25.9267 38.724 26.3267 38.624 26.5267 38.576C28.3057 38.149 37.3947 35.662 39.6417 28.857C39.6417 28.857 42.1047 20.598 30.2667 21.87" fill="white"/>
</svg>
