<svg width="32" height="32" viewBox="0 0 32 32" fill="none" xmlns="http://www.w3.org/2000/svg">
<path d="M30.8761 5.829C30.4761 5.72 29.1061 5.336 27.2411 4.729C23.3552 3.50568 19.5919 1.92248 16.0001 0C11.2224 2.48123 6.19403 4.44665 1.00009 5.863V15.463C0.992061 17.7012 1.53576 19.9069 2.58309 21.885C3.27023 23.1797 4.13158 24.3742 5.14309 25.435C8.1963 28.4456 11.9157 30.6947 16.0001 32C16.0001 32 31.0001 27.652 31.0001 15.467V5.867L30.8761 5.833" fill="#03CF5D"/>
<path d="M17.6 10V16L13.443 10H10V21.2H13.607V15.2L17.761 21.2H21.2V10H17.6Z" fill="white"/>
</svg>
