<svg width="36" height="36" viewBox="0 0 36 36" fill="none" xmlns="http://www.w3.org/2000/svg">
<path d="M18.4492 11.3984H17.8362C11.4382 11.4424 6.26318 17.4054 6.26318 24.7564V26.4754C6.26318 29.2374 8.21418 31.4754 10.6222 31.4754H25.6632C28.0702 31.4754 30.0222 29.2364 30.0222 26.4754V24.7564C30.0222 17.4044 24.8472 11.4414 18.4492 11.3984Z" fill="white"/>
<path d="M25.6639 31.9252H10.6219C7.97194 31.9252 5.81494 29.4802 5.81494 26.4762V24.7572C5.81494 17.2062 11.1819 11.0232 17.7879 10.9512H17.8359H18.4489H18.4969C25.1029 11.0242 30.4699 17.2062 30.4699 24.7572V26.4762C30.4699 29.4762 28.3129 31.9262 25.6629 31.9262M17.8809 11.8452H17.8399C11.7029 11.8892 6.71494 17.6802 6.71494 24.7572V26.4762C6.71494 28.9862 8.46894 31.0292 10.6249 31.0292H25.6639C27.8199 31.0292 29.5739 28.9862 29.5739 26.4762V24.7572C29.5739 17.6802 24.5819 11.8892 18.4459 11.8472H18.4039L17.8809 11.8452Z" fill="#111111"/>
<path d="M21.055 9.00546H15.231L13.781 5.78746C13.7203 5.6508 13.6947 5.50119 13.7064 5.35214C13.718 5.20309 13.7667 5.05929 13.8479 4.93375C13.929 4.8082 14.0402 4.70485 14.1714 4.63305C14.3025 4.56124 14.4494 4.52323 14.599 4.52246H21.687C21.8368 4.52257 21.9842 4.56009 22.1159 4.63162C22.2476 4.70315 22.3593 4.80643 22.441 4.93208C22.5226 5.05772 22.5716 5.20177 22.5835 5.35114C22.5953 5.50052 22.5697 5.65049 22.509 5.78746L21.055 9.00546Z" fill="white"/>
<path d="M21.0548 9.45422H15.2308C15.1444 9.45432 15.0599 9.42946 14.9873 9.38262C14.9147 9.33578 14.8572 9.26897 14.8218 9.19022L13.3728 5.97422C13.2799 5.76929 13.24 5.54435 13.2566 5.31999C13.2732 5.09563 13.3458 4.87901 13.4678 4.68998C13.5898 4.50094 13.7572 4.34552 13.9548 4.23795C14.1524 4.13037 14.3738 4.07408 14.5988 4.07422H21.6868C21.9118 4.07408 22.1332 4.13037 22.3308 4.23795C22.5283 4.34552 22.6958 4.50094 22.8178 4.68998C22.9397 4.87901 23.0124 5.09563 23.029 5.31999C23.0456 5.54435 23.0056 5.76929 22.9128 5.97422L21.4598 9.18922C21.4243 9.26797 21.3668 9.33478 21.2943 9.38162C21.2217 9.42846 21.1371 9.45332 21.0508 9.45322M15.5168 8.55322H20.7598L22.0908 5.59922C22.1198 5.53165 22.1318 5.45797 22.1257 5.38467C22.1195 5.31138 22.0954 5.24073 22.0555 5.17895C22.0156 5.11718 21.961 5.06619 21.8967 5.03049C21.8324 4.99478 21.7603 4.97545 21.6868 4.97422H14.5988C14.5239 4.97413 14.4502 4.99281 14.3844 5.02855C14.3186 5.06429 14.2628 5.11596 14.2221 5.17882C14.1815 5.24168 14.1572 5.31373 14.1515 5.3884C14.1459 5.46306 14.159 5.53795 14.1898 5.60622L15.5168 8.55322Z" fill="#111111"/>
<path d="M20.8319 11.6949H15.4519C15.0952 11.6949 14.7531 11.5532 14.5009 11.3009C14.2486 11.0487 14.1069 10.7066 14.1069 10.3499C14.1069 9.99317 14.2486 9.65106 14.5009 9.39882C14.7531 9.14659 15.0952 9.00488 15.4519 9.00488H20.8319C21.1887 9.00488 21.5308 9.14659 21.783 9.39882C22.0352 9.65106 22.1769 9.99317 22.1769 10.3499C22.1769 10.7066 22.0352 11.0487 21.783 11.3009C21.5308 11.5532 21.1887 11.6949 20.8319 11.6949Z" fill="#B9B5EF"/>
<path d="M20.8332 12.1436H15.4532C14.9776 12.1436 14.5216 11.9547 14.1853 11.6185C13.8491 11.2822 13.6602 10.8262 13.6602 10.3506C13.6602 9.87508 13.8491 9.41903 14.1853 9.08278C14.5216 8.74652 14.9776 8.55762 15.4532 8.55762H20.8332C21.3087 8.55762 21.7647 8.74652 22.101 9.08278C22.4373 9.41903 22.6262 9.87508 22.6262 10.3506C22.6262 10.8262 22.4373 11.2822 22.101 11.6185C21.7647 11.9547 21.3087 12.1436 20.8332 12.1436ZM15.4532 9.45362C15.3288 9.44261 15.2035 9.45762 15.0852 9.49767C14.9669 9.53773 14.8583 9.60196 14.7661 9.68628C14.674 9.7706 14.6005 9.87316 14.5502 9.98745C14.4998 10.1017 14.4739 10.2252 14.4739 10.3501C14.4739 10.475 14.4998 10.5985 14.5502 10.7128C14.6005 10.8271 14.674 10.9296 14.7661 11.014C14.8583 11.0983 14.9669 11.1625 15.0852 11.2026C15.2035 11.2426 15.3288 11.2576 15.4532 11.2466H20.8332C21.0572 11.2268 21.2658 11.1238 21.4177 10.9578C21.5696 10.7919 21.6539 10.5751 21.6539 10.3501C21.6539 10.1251 21.5696 9.90834 21.4177 9.7424C21.2658 9.57647 21.0572 9.47344 20.8332 9.45362H15.4532Z" fill="#111111"/>
<path d="M20.0088 25.7784C19.9258 25.7783 19.8445 25.7552 19.7738 25.7116C19.7032 25.668 19.6461 25.6056 19.6088 25.5314L18.0088 22.3624L16.6618 25.5064C16.6277 25.5912 16.5676 25.6631 16.4902 25.7117C16.4128 25.7604 16.3221 25.7834 16.2308 25.7774C16.1399 25.7737 16.0523 25.7425 15.9796 25.6878C15.9069 25.6332 15.8526 25.5577 15.8238 25.4714L14.0968 20.2914C14.0782 20.2356 14.0707 20.1767 14.0748 20.118C14.079 20.0593 14.0946 20.0019 14.1209 19.9493C14.1472 19.8966 14.1836 19.8497 14.228 19.8111C14.2724 19.7725 14.324 19.743 14.3798 19.7244C14.4356 19.7058 14.4946 19.6983 14.5533 19.7024C14.612 19.7065 14.6693 19.7222 14.7219 19.7485C14.7746 19.7748 14.8215 19.8111 14.8601 19.8556C14.8987 19.9 14.9282 19.9516 14.9468 20.0074L16.3008 24.0694L17.5618 21.1244C17.5956 21.0456 17.6512 20.9781 17.7221 20.9299C17.7929 20.8817 17.8761 20.8548 17.9618 20.8524C18.0466 20.853 18.1296 20.8762 18.2024 20.9196C18.2752 20.963 18.3351 21.0251 18.3758 21.0994L19.9148 24.1434L21.2328 20.0094C21.2689 19.8962 21.3485 19.8019 21.4541 19.7473C21.5596 19.6927 21.6826 19.6823 21.7958 19.7184C21.9091 19.7545 22.0034 19.8341 22.0579 19.9396C22.1125 20.0452 22.1229 20.1682 22.0868 20.2814L20.4348 25.4624C20.4077 25.5473 20.356 25.6222 20.2862 25.6776C20.2164 25.733 20.1317 25.7663 20.0428 25.7734H20.0078" fill="#111111"/>
<path d="M15.1039 22.9H13.7039C13.5846 22.9 13.4701 22.8526 13.3857 22.7682C13.3013 22.6838 13.2539 22.5693 13.2539 22.45C13.2539 22.3307 13.3013 22.2162 13.3857 22.1318C13.4701 22.0474 13.5846 22 13.7039 22H15.1039C15.2233 22 15.3377 22.0474 15.4221 22.1318C15.5065 22.2162 15.5539 22.3307 15.5539 22.45C15.5539 22.5693 15.5065 22.6838 15.4221 22.7682C15.3377 22.8526 15.2233 22.9 15.1039 22.9Z" fill="#111111"/>
<path d="M22.5849 22.9H21.1849C21.0655 22.9 20.9511 22.8526 20.8667 22.7682C20.7823 22.6838 20.7349 22.5693 20.7349 22.45C20.7349 22.3307 20.7823 22.2162 20.8667 22.1318C20.9511 22.0474 21.0655 22 21.1849 22H22.5849C22.7042 22 22.8187 22.0474 22.9031 22.1318C22.9875 22.2162 23.0349 22.3307 23.0349 22.45C23.0349 22.5693 22.9875 22.6838 22.9031 22.7682C22.8187 22.8526 22.7042 22.9 22.5849 22.9Z" fill="#111111"/>
</svg>
