<svg width="36" height="36" viewBox="0 0 36 36" fill="none" xmlns="http://www.w3.org/2000/svg">
<path d="M22.0799 6.78711H5.68088C4.84464 6.78711 4.04261 7.1191 3.45102 7.71013C2.85943 8.30115 2.52667 9.10287 2.52588 9.93911V30.3191C2.52588 31.1559 2.85828 31.9584 3.44996 32.55C4.04163 33.1417 4.84412 33.4741 5.68088 33.4741H22.0809C22.4952 33.4741 22.9055 33.3925 23.2882 33.2339C23.671 33.0754 24.0188 32.843 24.3118 32.55C24.6048 32.2571 24.8372 31.9093 24.9957 31.5265C25.1543 31.1437 25.2359 30.7334 25.2359 30.3191V9.93911C25.2351 9.1027 24.9022 8.30083 24.3104 7.70977C23.7186 7.11872 22.9163 6.78684 22.0799 6.78711Z" fill="white"/>
<path d="M22.08 34.0007H5.681C4.70514 33.9994 3.76964 33.6112 3.0796 32.9211C2.38957 32.2311 2.00132 31.2956 2 30.3197L2 9.93974C2.00185 8.96423 2.39033 8.02924 3.08031 7.33963C3.77028 6.65003 4.70549 6.26206 5.681 6.26074H22.081C23.0569 6.26207 23.9924 6.65031 24.6824 7.34034C25.3724 8.03038 25.7607 8.96589 25.762 9.94174V30.3197C25.7607 31.2958 25.3723 32.2314 24.682 32.9215C23.9918 33.6116 23.056 33.9997 22.08 34.0007ZM5.681 7.31074C4.98399 7.31154 4.31575 7.58877 3.82289 8.08164C3.33003 8.5745 3.05279 9.24273 3.052 9.93974V30.3197C3.05279 31.0168 3.33003 31.685 3.82289 32.1778C4.31575 32.6707 4.98399 32.9479 5.681 32.9487H22.081C22.778 32.9479 23.4462 32.6707 23.9391 32.1778C24.432 31.685 24.7092 31.0168 24.71 30.3197V9.93974C24.7092 9.24256 24.4318 8.57417 23.9388 8.08128C23.4457 7.58839 22.7772 7.31127 22.08 7.31074H5.681Z" fill="#111111"/>
<path d="M25.2318 33.4737C25.1057 33.4732 24.9802 33.4557 24.8588 33.4217C17.3688 31.2217 17.3168 22.1997 17.4798 19.4887V19.4837C17.4926 19.3082 17.5441 19.1378 17.6305 18.9846C17.717 18.8315 17.8363 18.6993 17.9798 18.5977C18.1999 18.4392 18.4646 18.3545 18.7358 18.3557C18.7944 18.3554 18.8529 18.3594 18.9108 18.3677C19.2391 18.4142 19.5703 18.4376 19.9018 18.4377C21.5068 18.4115 23.05 17.8144 24.2548 16.7537L24.4288 16.6187C24.6622 16.4428 24.9466 16.3477 25.2388 16.3477C25.5311 16.3477 25.8154 16.4428 26.0488 16.6187L26.2488 16.7737C27.4428 17.8307 28.9792 18.4196 30.5738 18.4317C30.9083 18.4312 31.2424 18.4081 31.5738 18.3627C31.9019 18.3208 32.2337 18.4043 32.5028 18.5967C32.6455 18.6996 32.7639 18.8327 32.8494 18.9865C32.935 19.1404 32.9856 19.3111 32.9978 19.4867C33.1608 22.1977 33.1118 31.2157 25.6258 33.4167C25.5 33.453 25.3698 33.4715 25.2388 33.4717" fill="#B9B5EF"/>
<path d="M25.2319 34.0002C25.0578 33.9998 24.8845 33.9755 24.7169 33.9282C16.8459 31.6142 16.7859 22.2662 16.9519 19.4572C16.9688 19.2035 17.0416 18.9566 17.1653 18.7345C17.2889 18.5123 17.4602 18.3202 17.6669 18.1722C18.0465 17.8988 18.5166 17.7821 18.9799 17.8462C19.2837 17.8896 19.5901 17.9117 19.8969 17.9122C21.385 17.889 22.815 17.3314 23.9259 16.3412L24.1009 16.2042C24.4296 15.9642 24.826 15.835 25.2329 15.835C25.6399 15.835 26.0363 15.9642 26.3649 16.2042L26.5649 16.3612C27.6686 17.3415 29.0889 17.8908 30.5649 17.9082C30.8747 17.9074 31.1841 17.8857 31.4909 17.8432C31.9537 17.7848 32.4214 17.903 32.8009 18.1742C33.0064 18.3225 33.1766 18.5144 33.2991 18.7362C33.4217 18.9581 33.4937 19.2043 33.5099 19.4572C33.6789 22.2662 33.6199 31.6122 25.7619 33.9222C25.5881 33.9729 25.408 33.9989 25.2269 33.9992M18.7269 18.8792C18.5677 18.8778 18.4122 18.9272 18.2829 19.0202C18.201 19.0769 18.1328 19.1513 18.0834 19.2378C18.0339 19.3243 18.0044 19.4208 17.9969 19.5202C17.8399 22.1372 17.8799 30.8272 24.9969 32.9202C25.1499 32.9634 25.3119 32.9634 25.4649 32.9202C32.5749 30.8302 32.6129 22.1402 32.4559 19.5282C32.4491 19.4293 32.4205 19.3332 32.3721 19.2467C32.3237 19.1603 32.2567 19.0856 32.1759 19.0282C32.0148 18.9168 31.8184 18.8684 31.6239 18.8922C31.2719 18.9399 30.9172 18.9643 30.5619 18.9652C28.8483 18.9573 27.1958 18.328 25.9109 17.1942L25.7109 17.0402C25.568 16.9389 25.3971 16.8845 25.2219 16.8845C25.0467 16.8845 24.8759 16.9389 24.7329 17.0402L24.5639 17.1722C23.2687 18.3082 21.6106 18.9447 19.8879 18.9672C19.5316 18.9665 19.1757 18.9411 18.8229 18.8912C18.7898 18.8865 18.7564 18.8842 18.7229 18.8842" fill="#111111"/>
<path d="M28.1181 23.8109H26.3371V22.0299C26.3371 21.9352 26.2995 21.8444 26.2325 21.7774C26.1656 21.7105 26.0748 21.6729 25.9801 21.6729H24.4911C24.3964 21.6729 24.3056 21.7105 24.2387 21.7774C24.1717 21.8444 24.1341 21.9352 24.1341 22.0299V23.8119H22.3531C22.3062 23.8117 22.2597 23.8209 22.2163 23.8388C22.1729 23.8567 22.1335 23.8829 22.1004 23.9161C22.0672 23.9493 22.0409 23.9887 22.023 24.0321C22.0051 24.0755 21.996 24.1219 21.9961 24.1688V25.6579C21.996 25.7048 22.0051 25.7513 22.023 25.7946C22.0409 25.838 22.0672 25.8774 22.1004 25.9106C22.1335 25.9438 22.1729 25.9701 22.2163 25.9879C22.2597 26.0058 22.3062 26.015 22.3531 26.0149H24.1351V27.7948C24.135 27.8418 24.1441 27.8883 24.162 27.9316C24.1799 27.975 24.2062 28.0144 24.2394 28.0476C24.2725 28.0808 24.3119 28.107 24.3553 28.1249C24.3987 28.1428 24.4452 28.152 24.4921 28.1519H25.9811C26.028 28.152 26.0745 28.1428 26.1179 28.1249C26.1612 28.107 26.2007 28.0808 26.2338 28.0476C26.267 28.0144 26.2933 27.975 26.3112 27.9316C26.3291 27.8883 26.3382 27.8418 26.3381 27.7948V26.0139H28.1201C28.2148 26.0139 28.3056 25.9762 28.3725 25.9093C28.4395 25.8423 28.4771 25.7515 28.4771 25.6568V24.1649C28.4772 24.1179 28.4681 24.0714 28.4502 24.0281C28.4323 23.9847 28.406 23.9453 28.3728 23.9121C28.3397 23.8789 28.3002 23.8526 28.2569 23.8348C28.2135 23.8169 28.167 23.8077 28.1201 23.8078" fill="white"/>
<path d="M21.5888 14.1243H6.59778C6.45827 14.1243 6.32448 14.0688 6.22584 13.9702C6.1272 13.8716 6.07178 13.7378 6.07178 13.5983C6.07178 13.4588 6.1272 13.325 6.22584 13.2263C6.32448 13.1277 6.45827 13.0723 6.59778 13.0723H21.5888C21.7283 13.0723 21.8621 13.1277 21.9607 13.2263C22.0594 13.325 22.1148 13.4588 22.1148 13.5983C22.1148 13.7378 22.0594 13.8716 21.9607 13.9702C21.8621 14.0688 21.7283 14.1243 21.5888 14.1243Z" fill="#111111"/>
<path d="M15.1498 18.5403H6.59778C6.45827 18.5403 6.32448 18.4849 6.22584 18.3862C6.1272 18.2876 6.07178 18.1538 6.07178 18.0143C6.07178 17.8748 6.1272 17.741 6.22584 17.6423C6.32448 17.5437 6.45827 17.4883 6.59778 17.4883H15.1508C15.2903 17.4883 15.4241 17.5437 15.5227 17.6423C15.6214 17.741 15.6768 17.8748 15.6768 18.0143C15.6768 18.1538 15.6214 18.2876 15.5227 18.3862C15.4241 18.4849 15.2903 18.5403 15.1508 18.5403" fill="#111111"/>
<path d="M15.1498 22.9524H6.59778C6.45827 22.9524 6.32448 22.897 6.22584 22.7983C6.1272 22.6997 6.07178 22.5659 6.07178 22.4264C6.07178 22.2869 6.1272 22.1531 6.22584 22.0545C6.32448 21.9558 6.45827 21.9004 6.59778 21.9004H15.1508C15.2903 21.9004 15.4241 21.9558 15.5227 22.0545C15.6214 22.1531 15.6768 22.2869 15.6768 22.4264C15.6768 22.5659 15.6214 22.6997 15.5227 22.7983C15.4241 22.897 15.2903 22.9524 15.1508 22.9524" fill="#111111"/>
<path d="M15.1498 27.3655H6.59778C6.45827 27.3655 6.32448 27.3101 6.22584 27.2114C6.1272 27.1128 6.07178 26.979 6.07178 26.8395C6.07178 26.7 6.1272 26.5662 6.22584 26.4675C6.32448 26.3689 6.45827 26.3135 6.59778 26.3135H15.1508C15.2903 26.3135 15.4241 26.3689 15.5227 26.4675C15.6214 26.5662 15.6768 26.7 15.6768 26.8395C15.6768 26.979 15.6214 27.1128 15.5227 27.2114C15.4241 27.3101 15.2903 27.3655 15.1508 27.3655" fill="#111111"/>
<path d="M16.72 5.36489C16.72 4.61181 16.4208 3.88957 15.8883 3.35706C15.3558 2.82455 14.6336 2.52539 13.8805 2.52539C13.1274 2.52539 12.4052 2.82455 11.8727 3.35706C11.3402 3.88957 11.041 4.61181 11.041 5.36489H8.20801V8.20389H19.557V5.36489H16.72Z" fill="white"/>
<path d="M19.5571 8.73012H8.20314C8.06381 8.7288 7.9307 8.67226 7.83302 8.57289C7.73534 8.47352 7.68108 8.33946 7.68214 8.20012V5.36512C7.68214 5.22562 7.73756 5.09183 7.83621 4.99319C7.93485 4.89454 8.06864 4.83912 8.20814 4.83912H10.5621C10.6876 4.04787 11.0912 3.32732 11.7004 2.80706C12.3096 2.28681 13.0845 2.00098 13.8856 2.00098C14.6868 2.00098 15.4616 2.28681 16.0709 2.80706C16.6801 3.32732 17.0837 4.04787 17.2091 4.83912H19.5621C19.7016 4.83912 19.8354 4.89454 19.9341 4.99319C20.0327 5.09183 20.0881 5.22562 20.0881 5.36512V8.20012C20.0881 8.33963 20.0327 8.47342 19.9341 8.57206C19.8354 8.67071 19.7016 8.72612 19.5621 8.72612M8.72914 7.67812H19.0291V5.89112H16.7201C16.5806 5.89112 16.4469 5.83571 16.3482 5.73706C16.2496 5.63842 16.1941 5.50463 16.1941 5.36512C16.1941 4.75155 15.9504 4.1631 15.5165 3.72923C15.0827 3.29537 14.4942 3.05162 13.8806 3.05162C13.2671 3.05162 12.6786 3.29537 12.2448 3.72923C11.8109 4.1631 11.5671 4.75155 11.5671 5.36512C11.5673 5.43424 11.5538 5.5027 11.5274 5.56657C11.501 5.63045 11.4622 5.68849 11.4134 5.73736C11.3645 5.78623 11.3065 5.82497 11.2426 5.85135C11.1787 5.87774 11.1103 5.89126 11.0411 5.89112H8.72914V7.67812Z" fill="#111111"/>
</svg>
