<svg width="24" height="24" viewBox="0 0 24 24" fill="none" xmlns="http://www.w3.org/2000/svg">
<path d="M20.4 5.3718H10.4782C10.4194 5.31253 10.3549 5.25927 10.2855 5.2128L8.4 3.9663C8.18596 3.82554 7.93543 3.75046 7.67925 3.7503H2.7705C2.44106 3.74306 2.12222 3.86687 1.884 4.09454C1.64578 4.32221 1.50767 4.63512 1.5 4.96455V16.7396C1.5124 17.2845 1.74047 17.8022 2.13417 18.1792C2.52787 18.5562 3.05504 18.7616 3.6 18.7503H20.4C20.9448 18.7616 21.4719 18.5563 21.8656 18.1795C22.2592 17.8027 22.4874 17.2851 22.5 16.7403V7.3818C22.4874 6.837 22.2592 6.31943 21.8656 5.94263C21.4719 5.56582 20.9448 5.36053 20.4 5.3718Z" fill="#9F5700"/>
<path d="M21 7.50049H3C2.17157 7.50049 1.5 8.17206 1.5 9.00049V18.7505C1.5 19.5789 2.17157 20.2505 3 20.2505H21C21.8284 20.2505 22.5 19.5789 22.5 18.7505V9.00049C22.5 8.17206 21.8284 7.50049 21 7.50049Z" fill="#F4A12B"/>
</svg>
