<svg width="32" height="32" viewBox="0 0 32 32" fill="none" xmlns="http://www.w3.org/2000/svg">
<path d="M14.5 2C16.9723 2 19.389 2.73311 21.4446 4.10663C23.5002 5.48015 25.1024 7.43238 26.0485 9.71646C26.9946 12.0005 27.2421 14.5139 26.7598 16.9386C26.2775 19.3634 25.087 21.5907 23.3388 23.3388C21.5907 25.087 19.3634 26.2775 16.9386 26.7598C14.5139 27.2421 12.0005 26.9946 9.71646 26.0485C7.43238 25.1024 5.48015 23.5002 4.10663 21.4446C2.73311 19.389 2 16.9723 2 14.5C2 11.1848 3.31696 8.00537 5.66117 5.66117C8.00537 3.31696 11.1848 2 14.5 2Z" fill="#FFB639"/>
<path d="M14.4912 10.456C14.2763 10.456 14.0703 10.3707 13.9184 10.2188C13.7665 10.0669 13.6812 9.86084 13.6812 9.64601V8.31001C13.6812 8.09505 13.7665 7.8889 13.9185 7.7369C14.0705 7.5849 14.2767 7.49951 14.4917 7.49951C14.7066 7.49951 14.9128 7.5849 15.0648 7.7369C15.2168 7.8889 15.3022 8.09505 15.3022 8.31001V9.64601C15.3022 9.86084 15.2168 10.0669 15.0649 10.2188C14.913 10.3707 14.707 10.456 14.4922 10.456" fill="white"/>
<path d="M14.4912 10.456C14.2763 10.456 14.0703 10.3707 13.9184 10.2188C13.7665 10.0669 13.6812 9.86084 13.6812 9.64601V8.31001C13.6812 8.09505 13.7665 7.8889 13.9185 7.7369C14.0705 7.5849 14.2767 7.49951 14.4917 7.49951C14.7066 7.49951 14.9128 7.5849 15.0648 7.7369C15.2168 7.8889 15.3022 8.09505 15.3022 8.31001V9.64601C15.3022 9.86084 15.2168 10.0669 15.0649 10.2188C14.913 10.3707 14.707 10.456 14.4922 10.456" stroke="white" stroke-width="0.4"/>
<path d="M14.4912 21.456C14.2763 21.456 14.0703 21.3707 13.9184 21.2188C13.7665 21.0669 13.6812 20.8608 13.6812 20.646V19.31C13.6812 19.0951 13.7665 18.8889 13.9185 18.7369C14.0705 18.5849 14.2767 18.4995 14.4917 18.4995C14.7066 18.4995 14.9128 18.5849 15.0648 18.7369C15.2168 18.8889 15.3022 19.0951 15.3022 19.31V20.646C15.3022 20.8608 15.2168 21.0669 15.0649 21.2188C14.913 21.3707 14.707 21.456 14.4922 21.456" fill="white"/>
<path d="M14.4912 21.456C14.2763 21.456 14.0703 21.3707 13.9184 21.2188C13.7665 21.0669 13.6812 20.8608 13.6812 20.646V19.31C13.6812 19.0951 13.7665 18.8889 13.9185 18.7369C14.0705 18.5849 14.2767 18.4995 14.4917 18.4995C14.7066 18.4995 14.9128 18.5849 15.0648 18.7369C15.2168 18.8889 15.3022 19.0951 15.3022 19.31V20.646C15.3022 20.8608 15.2168 21.0669 15.0649 21.2188C14.913 21.3707 14.707 21.456 14.4922 21.456" stroke="white" stroke-width="0.4"/>
<path d="M14.4922 19.7621C13.6178 19.8282 12.7524 19.548 12.0827 18.982C11.413 18.4159 10.9926 17.6093 10.9122 16.7361C10.9122 16.6297 10.9331 16.5244 10.9738 16.4261C11.0145 16.3278 11.0742 16.2385 11.1494 16.1633C11.2246 16.0881 11.3139 16.0284 11.4122 15.9877C11.5105 15.947 11.6158 15.9261 11.7222 15.9261C11.8286 15.9261 11.9339 15.947 12.0322 15.9877C12.1304 16.0284 12.2197 16.0881 12.2949 16.1633C12.3702 16.2385 12.4298 16.3278 12.4705 16.4261C12.5112 16.5244 12.5322 16.6297 12.5322 16.7361C12.5322 17.4971 13.4322 18.1411 14.4922 18.1411C15.5522 18.1411 16.4522 17.4971 16.4522 16.7361C16.4522 16.1631 15.5222 15.7711 14.2092 15.2801C12.7412 14.7311 10.9092 14.0481 10.9092 12.3051C10.9896 11.4319 11.41 10.6252 12.0797 10.0592C12.7494 9.49309 13.6148 9.21292 14.4892 9.27906C15.3636 9.21292 16.2289 9.49309 16.8987 10.0592C17.5684 10.6252 17.9888 11.4319 18.0692 12.3051C18.0692 12.5199 17.9838 12.7259 17.8319 12.8778C17.68 13.0297 17.474 13.1151 17.2592 13.1151C17.0444 13.1151 16.8383 13.0297 16.6864 12.8778C16.5345 12.7259 16.4492 12.5199 16.4492 12.3051C16.4492 11.5441 15.5492 10.9001 14.4892 10.9001C13.4292 10.9001 12.5302 11.5431 12.5302 12.3041C12.5302 12.8781 13.4602 13.2701 14.7742 13.7621C16.2422 14.3111 18.0742 14.9941 18.0742 16.7361C17.9938 17.6093 17.5734 18.4159 16.9037 18.982C16.2339 19.548 15.3686 19.8282 14.4942 19.7621" fill="white"/>
<path d="M14.4922 19.7621C13.6178 19.8282 12.7524 19.548 12.0827 18.982C11.413 18.4159 10.9926 17.6093 10.9122 16.7361C10.9122 16.6297 10.9331 16.5244 10.9738 16.4261C11.0145 16.3278 11.0742 16.2385 11.1494 16.1633C11.2246 16.0881 11.3139 16.0284 11.4122 15.9877C11.5105 15.947 11.6158 15.9261 11.7222 15.9261C11.8286 15.9261 11.9339 15.947 12.0322 15.9877C12.1304 16.0284 12.2197 16.0881 12.2949 16.1633C12.3702 16.2385 12.4298 16.3278 12.4705 16.4261C12.5112 16.5244 12.5322 16.6297 12.5322 16.7361C12.5322 17.4971 13.4322 18.1411 14.4922 18.1411C15.5522 18.1411 16.4522 17.4971 16.4522 16.7361C16.4522 16.1631 15.5222 15.7711 14.2092 15.2801C12.7412 14.7311 10.9092 14.0481 10.9092 12.3051C10.9896 11.4319 11.41 10.6252 12.0797 10.0592C12.7494 9.49309 13.6148 9.21292 14.4892 9.27906C15.3636 9.21292 16.2289 9.49309 16.8987 10.0592C17.5684 10.6252 17.9888 11.4319 18.0692 12.3051C18.0692 12.5199 17.9838 12.7259 17.8319 12.8778C17.68 13.0297 17.474 13.1151 17.2592 13.1151C17.0444 13.1151 16.8383 13.0297 16.6864 12.8778C16.5345 12.7259 16.4492 12.5199 16.4492 12.3051C16.4492 11.5441 15.5492 10.9001 14.4892 10.9001C13.4292 10.9001 12.5302 11.5431 12.5302 12.3041C12.5302 12.8781 13.4602 13.2701 14.7742 13.7621C16.2422 14.3111 18.0742 14.9941 18.0742 16.7361C17.9938 17.6093 17.5734 18.4159 16.9037 18.982C16.2339 19.548 15.3686 19.8282 14.4942 19.7621" stroke="white" stroke-width="0.4"/>
<path d="M24.5 32.001C25.9834 32.001 27.4334 31.5611 28.6668 30.737C29.9001 29.9129 30.8614 28.7416 31.4291 27.3711C31.9968 26.0007 32.1453 24.4927 31.8559 23.0378C31.5665 21.5829 30.8522 20.2466 29.8033 19.1977C28.7544 18.1488 27.418 17.4345 25.9632 17.1451C24.5083 16.8557 23.0003 17.0042 21.6299 17.5719C20.2594 18.1395 19.0881 19.1008 18.264 20.3342C17.4399 21.5676 17 23.0176 17 24.501C17 26.4901 17.7902 28.3978 19.1967 29.8043C20.6032 31.2108 22.5109 32.001 24.5 32.001Z" fill="#4579FF"/>
<path d="M26.6962 28.2949C26.8421 28.2107 26.9485 28.072 26.9921 27.9093C27.0357 27.7466 27.0129 27.5732 26.9287 27.4274C26.887 27.3551 26.8315 27.2918 26.7653 27.2411C26.6992 27.1903 26.6237 27.153 26.5431 27.1315C26.3804 27.0879 26.2071 27.1107 26.0612 27.1949L26.6962 28.2949ZM26.0612 27.1949C25.5885 27.4701 25.0513 27.6154 24.5042 27.6159V28.8889C25.274 28.8883 26.0301 28.6848 26.6962 28.2989L26.0612 27.1949ZM24.5042 27.6159C23.6781 27.6156 22.886 27.2873 22.3019 26.7032C21.7178 26.1191 21.3895 25.3269 21.3892 24.5009H20.1162C20.1157 25.0766 20.2286 25.6468 20.4484 26.1789C20.6682 26.711 20.9907 27.1945 21.3974 27.602C21.8041 28.0095 22.2871 28.3328 22.8188 28.5536C23.3505 28.7744 23.9205 28.8884 24.4962 28.8889L24.5042 27.6159ZM21.3892 24.1719H20.1162V24.5009H21.3852L21.3892 24.1719Z" fill="white"/>
<path d="M21.7719 24.9322C21.8583 24.9322 21.9413 24.8978 22.0024 24.8367C22.0635 24.7755 22.0979 24.6926 22.0979 24.6062C22.0979 24.5488 22.0824 24.4924 22.0529 24.4432L21.0309 22.6782C21.0097 22.6411 20.9813 22.6086 20.9474 22.5825C20.9135 22.5565 20.8748 22.5374 20.8335 22.5265C20.7922 22.5155 20.7492 22.5128 20.7068 22.5186C20.6645 22.5244 20.6237 22.5385 20.5869 22.5602C20.5377 22.5883 20.497 22.629 20.4689 22.6782L19.4469 24.4432C19.4252 24.48 19.4111 24.5208 19.4053 24.5631C19.3995 24.6054 19.4022 24.6485 19.4132 24.6898C19.4242 24.7311 19.4432 24.7698 19.4693 24.8037C19.4953 24.8376 19.5278 24.8659 19.5649 24.8872C19.6143 24.9162 19.6705 24.9318 19.7279 24.9322H21.7719Z" fill="white"/>
<path d="M22.3068 20.7161C22.2346 20.7578 22.1713 20.8133 22.1205 20.8795C22.0697 20.9456 22.0325 21.0211 22.0109 21.1017C21.9893 21.1822 21.9838 21.2663 21.9947 21.3489C22.0056 21.4316 22.0326 21.5114 22.0743 21.5836C22.116 21.6558 22.1715 21.7191 22.2377 21.7699C22.3039 21.8207 22.3794 21.8579 22.4599 21.8795C22.5405 21.9011 22.6245 21.9066 22.7072 21.8957C22.7899 21.8848 22.8696 21.8578 22.9418 21.8161L22.3068 20.7161ZM28.8738 24.5011H27.6058V24.8301H28.8748L28.8738 24.5011ZM28.8738 24.5011C28.8728 23.3389 28.4103 22.2247 27.588 21.4034C26.7657 20.582 25.651 20.1208 24.4888 20.1211V21.3901C25.315 21.3901 26.1073 21.7183 26.6915 22.3025C27.2756 22.8866 27.6038 23.6789 27.6038 24.5051L28.8738 24.5011ZM24.4888 20.1211C23.721 20.1254 22.968 20.3324 22.3058 20.7211L22.9408 21.8211C23.4099 21.543 23.9445 21.3946 24.4898 21.3911L24.4888 20.1211Z" fill="white"/>
<path d="M29.2711 24.5C29.3575 24.5 29.4405 24.5343 29.5016 24.5955C29.5627 24.6566 29.5971 24.7395 29.5971 24.826C29.5971 24.8834 29.5816 24.9397 29.5521 24.989L28.5311 26.754C28.5097 26.791 28.4812 26.8234 28.4472 26.8494C28.4132 26.8754 28.3744 26.8944 28.3331 26.9054C28.2917 26.9163 28.2486 26.919 28.2063 26.9133C28.1639 26.9076 28.123 26.8935 28.0861 26.872C28.0372 26.8435 27.9966 26.8028 27.9681 26.754L26.9461 24.989C26.9245 24.9521 26.9105 24.9112 26.9048 24.8688C26.8991 24.8264 26.9017 24.7833 26.9127 24.742C26.9237 24.7007 26.9427 24.6619 26.9687 24.6279C26.9946 24.5939 27.0271 24.5654 27.0641 24.544C27.1141 24.5156 27.1706 24.5008 27.2281 24.501L29.2711 24.5Z" fill="white"/>
</svg>
