<svg width="32" height="32" viewBox="0 0 32 32" fill="none" xmlns="http://www.w3.org/2000/svg">
<path d="M21.885 15.121C21.366 14.7608 20.7789 14.5102 20.1597 14.3847C19.5405 14.2592 18.9022 14.2614 18.2839 14.3912C17.6656 14.5209 17.0803 14.7755 16.5638 15.1393C16.0472 15.5031 15.6104 15.9685 15.28 16.507C14.7956 17.2649 14.1017 17.866 13.2824 18.2373C12.4632 18.6086 11.5538 18.7343 10.6645 18.599C9.77526 18.4637 8.94437 18.0733 8.27261 17.4751C7.60086 16.8769 7.1171 16.0967 6.88 15.229C6.88 15.211 6.871 15.198 6.868 15.179C6.865 15.16 6.857 15.141 6.852 15.121C6.67592 14.5217 6.59527 13.8984 6.613 13.274C6.613 9.10801 10.887 4.47401 17.043 4.47401C19.3873 4.49332 21.6722 5.21383 23.6036 6.5428C25.5349 7.87177 27.0243 9.74836 27.88 11.931C27.864 11.885 27.849 11.837 27.833 11.79C26.813 8.81814 24.772 6.30436 22.073 4.6957C19.374 3.08705 16.192 2.48779 13.0927 3.00452C9.99344 3.52124 7.17791 5.12044 5.14679 7.51772C3.11568 9.91501 2.00065 12.955 2 16.097C2 22.651 6.724 28.261 13.28 28.261C15.5202 28.3345 17.7267 27.7002 19.5859 26.4483C21.4451 25.1964 22.8626 23.3904 23.637 21.287C24.0909 20.2134 24.1647 19.0169 23.8461 17.8957C23.5275 16.7744 22.8357 15.7955 21.885 15.121Z" fill="#002A56"/>
<path d="M27.9629 12.1898C27.1492 9.94032 25.6659 7.99405 23.7127 6.61294C21.7595 5.23183 19.4301 4.48217 17.0379 4.46484C10.8799 4.46484 6.60793 9.10284 6.60793 13.2648C6.59 13.8891 6.66997 14.5123 6.84493 15.1118C6.76589 14.802 6.72492 14.4836 6.72293 14.1638C6.72293 9.82384 11.0659 6.81784 15.5319 6.81784C16.9699 6.81797 18.3937 7.10139 19.722 7.6519C21.0504 8.20241 22.2573 9.00923 23.2738 10.0263C24.2902 11.0433 25.0964 12.2506 25.6462 13.5793C26.196 14.908 26.4786 16.3319 26.4779 17.7698C26.4793 20.016 25.8539 22.218 24.672 24.1281C23.4901 26.0382 21.7986 27.5806 19.7879 28.5818C22.3545 27.6533 24.5727 25.9567 26.1408 23.7228C27.7089 21.4889 28.5508 18.8262 28.5519 16.0968C28.5549 14.7725 28.3577 13.4553 27.9669 12.1898" fill="#DC0021"/>
</svg>
