<svg width="36" height="36" viewBox="0 0 36 36" fill="none" xmlns="http://www.w3.org/2000/svg">
<path fill-rule="evenodd" clip-rule="evenodd" d="M7.44043 15.7168L18.0014 7.02979L28.5614 15.7168V26.9998C28.5596 27.5271 28.4539 28.0488 28.2503 28.5353C28.0468 29.0217 27.7494 29.4633 27.3752 29.8347C27.0009 30.2062 26.5571 30.5003 26.0692 30.7002C25.5813 30.9001 25.0587 31.0019 24.5314 30.9998H11.4714C10.9441 31.0019 10.4215 30.9001 9.9335 30.7002C9.44551 30.5003 9.00167 30.2062 8.62735 29.8348C8.25302 29.4633 7.95554 29.0218 7.75188 28.5354C7.54823 28.0489 7.4424 27.5271 7.44043 26.9998V15.7168Z" fill="#9E9EEE"/>
<path d="M29.9464 18.4688C29.5704 18.4694 29.207 18.3336 28.9234 18.0868L17.9994 8.58983L7.0764 18.0898C6.76565 18.3592 6.36119 18.4952 5.95081 18.4683C5.54042 18.4413 5.15723 18.2536 4.8844 17.9458C4.7496 17.7939 4.64634 17.6168 4.58059 17.4246C4.51485 17.2324 4.48794 17.0291 4.50143 16.8265C4.51492 16.6239 4.56854 16.4259 4.65918 16.2442C4.74981 16.0624 4.87566 15.9005 5.0294 15.7678L16.9764 5.38183C17.2607 5.13556 17.6243 5 18.0004 5C18.3765 5 18.7401 5.13556 19.0244 5.38183L30.9704 15.7678C31.1236 15.9006 31.249 16.0624 31.3393 16.2439C31.4296 16.4254 31.4829 16.623 31.4963 16.8253C31.5097 17.0276 31.4829 17.2305 31.4173 17.4223C31.3517 17.6141 31.2488 17.7911 31.1144 17.9428C30.9684 18.1086 30.7886 18.2412 30.5872 18.332C30.3858 18.4227 30.1673 18.4693 29.9464 18.4688Z" fill="#6D6DE2"/>
<path d="M16.199 17H14.799C14.3572 17 13.999 17.3582 13.999 17.8V19.2C13.999 19.6418 14.3572 20 14.799 20H16.199C16.6409 20 16.999 19.6418 16.999 19.2V17.8C16.999 17.3582 16.6409 17 16.199 17Z" fill="white"/>
<path d="M21.199 17H19.799C19.3572 17 18.999 17.3582 18.999 17.8V19.2C18.999 19.6418 19.3572 20 19.799 20H21.199C21.6409 20 21.999 19.6418 21.999 19.2V17.8C21.999 17.3582 21.6409 17 21.199 17Z" fill="white"/>
<path d="M16.199 22H14.799C14.3572 22 13.999 22.3582 13.999 22.8V24.2C13.999 24.6418 14.3572 25 14.799 25H16.199C16.6409 25 16.999 24.6418 16.999 24.2V22.8C16.999 22.3582 16.6409 22 16.199 22Z" fill="white"/>
<path d="M21.199 22H19.799C19.3572 22 18.999 22.3582 18.999 22.8V24.2C18.999 24.6418 19.3572 25 19.799 25H21.199C21.6409 25 21.999 24.6418 21.999 24.2V22.8C21.999 22.3582 21.6409 22 21.199 22Z" fill="white"/>
</svg>
