<svg width="50" height="60" viewBox="0 0 50 60" fill="none" xmlns="http://www.w3.org/2000/svg">
<path d="M36 0H8C3.58172 0 0 3.58172 0 8V44C0 48.4183 3.58172 52 8 52H36C40.4183 52 44 48.4183 44 44V8C44 3.58172 40.4183 0 36 0Z" fill="#E5F7EC"/>
<path d="M34 12H10C8.89543 12 8 12.8954 8 14C8 15.1046 8.89543 16 10 16H34C35.1046 16 36 15.1046 36 14C36 12.8954 35.1046 12 34 12Z" fill="#C0EAD0"/>
<path d="M23 22H10C8.89543 22 8 22.8954 8 24C8 25.1046 8.89543 26 10 26H23C24.1046 26 25 25.1046 25 24C25 22.8954 24.1046 22 23 22Z" fill="#C0EAD0"/>
<path d="M49.8842 33.829C49.5142 33.72 48.2322 33.336 46.4922 32.729C42.849 31.4985 39.335 29.9146 36.0002 28C31.5672 30.4713 26.8712 32.4379 22.0002 33.863V43.463C21.9895 45.6891 22.4951 47.8873 23.4772 49.885C24.1116 51.1696 24.915 52.3635 25.8662 53.435C28.6596 56.4153 32.1383 58.6689 36.0002 60C36.0002 60 50.0002 55.652 50.0002 43.467V33.867L49.8842 33.833" fill="#19973C"/>
<path d="M35.9772 38.9438C35.3287 38.9438 34.6948 39.1362 34.1555 39.4965C33.6163 39.8568 33.196 40.3689 32.9478 40.968C32.6997 41.5672 32.6347 42.2265 32.7612 42.8625C32.8878 43.4986 33.2001 44.0829 33.6586 44.5415C34.1172 45 34.7015 45.3123 35.3375 45.4388C35.9736 45.5654 36.6329 45.5004 37.2321 45.2522C37.8312 45.0041 38.3433 44.5838 38.7036 44.0446C39.0639 43.5053 39.2562 42.8714 39.2562 42.2228C39.2552 41.3535 38.9094 40.5201 38.2947 39.9054C37.68 39.2907 36.8466 38.9449 35.9772 38.9438ZM35.9772 44.3438C35.5576 44.3435 35.1475 44.2186 34.7988 43.9852C34.45 43.7517 34.1784 43.4201 34.0181 43.0323C33.8578 42.6444 33.8161 42.2178 33.8983 41.8063C33.9805 41.3948 34.1829 41.0168 34.4798 40.7203C34.7768 40.4238 35.155 40.222 35.5666 40.1404C35.9782 40.0588 36.4048 40.101 36.7925 40.2619C37.1801 40.4227 37.5113 40.6948 37.7442 41.0439C37.9772 41.3929 38.1014 41.8032 38.1012 42.2228C38.1007 42.7855 37.877 43.3249 37.4791 43.7227C37.0813 44.1206 36.5419 44.3443 35.9792 44.3448" fill="white"/>
<path d="M41.5085 42.3C41.4904 42.2533 41.4904 42.2016 41.5085 42.155L41.8685 41.209C41.9777 40.9186 41.985 40.5998 41.8892 40.3047C41.7935 40.0097 41.6004 39.7559 41.3415 39.585L40.4945 39.031C40.453 39.0037 40.423 38.962 40.4105 38.914L40.1465 37.937C40.0646 37.6382 39.8832 37.3763 39.6323 37.1944C39.3814 37.0126 39.076 36.9218 38.7665 36.937L37.7545 36.979C37.7056 36.98 37.6576 36.9645 37.6185 36.935L36.8315 36.3C36.5893 36.1061 36.2883 36.0005 35.978 36.0005C35.6678 36.0005 35.3668 36.1061 35.1245 36.3L34.3385 36.934C34.2986 36.9641 34.2496 36.98 34.1995 36.979L33.1915 36.929C32.8821 36.9143 32.5768 37.0053 32.3259 37.187C32.0749 37.3687 31.8932 37.6304 31.8105 37.929L31.5465 38.906C31.5338 38.9542 31.5035 38.9959 31.4615 39.023L30.6145 39.577C30.3559 39.7479 30.163 40.0015 30.0672 40.2963C29.9715 40.5911 29.9787 40.9097 30.0875 41.2L30.4475 42.146C30.4657 42.1926 30.4657 42.2443 30.4475 42.291L30.0875 43.237C29.9776 43.5278 29.9698 43.8475 30.0656 44.1434C30.1614 44.4392 30.355 44.6937 30.6145 44.865L31.4615 45.419C31.5031 45.4462 31.533 45.4879 31.5455 45.536L31.8095 46.513C31.8688 46.7299 31.9809 46.9288 32.1359 47.0918C32.2909 47.2548 32.4838 47.3768 32.6975 47.447V51.154C32.6975 51.2517 32.7222 51.3479 32.7694 51.4336C32.8166 51.5192 32.8847 51.5915 32.9673 51.6438C33.05 51.696 33.1446 51.7264 33.2422 51.7322C33.3398 51.738 33.4373 51.719 33.5255 51.677L35.9795 50.508L38.4295 51.676C38.5177 51.718 38.6151 51.737 38.7127 51.7312C38.8102 51.7255 38.9047 51.6951 38.9873 51.643C39.07 51.5909 39.1381 51.5188 39.1853 51.4332C39.2326 51.3477 39.2574 51.2517 39.2575 51.154V47.454C39.4716 47.3837 39.6649 47.2614 39.8201 47.0981C39.9752 46.9347 40.0874 46.7354 40.1465 46.518L40.4105 45.541C40.4231 45.4923 40.4534 45.4502 40.4955 45.423L41.3415 44.87C41.6002 44.6989 41.7932 44.4451 41.889 44.1501C41.9847 43.8551 41.9775 43.5363 41.8685 43.246L41.5085 42.3ZM36.2305 49.344C36.1525 49.3067 36.067 49.2874 35.9805 49.2874C35.894 49.2874 35.8086 49.3067 35.7305 49.344L33.8545 50.237V47.484L34.1985 47.467C34.2479 47.4652 34.2964 47.4808 34.3355 47.511L35.1225 48.147C35.3649 48.3406 35.6658 48.4461 35.976 48.4461C36.2862 48.4461 36.5872 48.3406 36.8295 48.147L37.6175 47.512C37.6562 47.4808 37.705 47.4651 37.7545 47.468L38.0985 47.485V50.238L36.2305 49.344ZM40.7075 43.9L39.8615 44.454C39.5815 44.6362 39.3785 44.9154 39.2915 45.238L39.0275 46.215C39.0142 46.2587 38.9869 46.297 38.95 46.3241C38.913 46.3511 38.8683 46.3654 38.8225 46.365L37.8125 46.314C37.4789 46.2954 37.1503 46.4024 36.8915 46.614L36.1035 47.249C36.0678 47.2781 36.0231 47.294 35.977 47.294C35.9309 47.294 35.8863 47.2781 35.8505 47.249L35.0635 46.613C34.8216 46.4182 34.5201 46.3124 34.2095 46.313H34.1415L33.1315 46.364C33.0858 46.3643 33.0412 46.3499 33.0042 46.3229C32.9673 46.2958 32.9401 46.2577 32.9265 46.214L32.6625 45.237C32.5777 44.9147 32.3773 44.6349 32.0995 44.451L31.2485 43.9C31.2099 43.8743 31.1812 43.8363 31.1668 43.7922C31.1525 43.7481 31.1534 43.7004 31.1695 43.657L31.5305 42.711C31.6493 42.3992 31.6493 42.0547 31.5305 41.743L31.1705 40.797C31.1543 40.7535 31.1532 40.7058 31.1676 40.6616C31.1819 40.6175 31.2108 40.5795 31.2495 40.554L32.0945 40C32.3741 39.8174 32.5766 39.5383 32.6635 39.216L32.9275 38.239C32.9404 38.1946 32.9676 38.1559 33.0049 38.1287C33.0422 38.1016 33.0874 38.0876 33.1335 38.089L34.1425 38.139C34.4762 38.1547 34.8041 38.048 35.0645 37.839L35.8515 37.2C35.8873 37.1708 35.9319 37.1549 35.978 37.1549C36.0241 37.1549 36.0688 37.1708 36.1045 37.2L36.8925 37.835C37.1525 38.0443 37.4802 38.151 37.8135 38.135L38.8235 38.085C38.8695 38.0836 38.9146 38.0977 38.9518 38.1248C38.9889 38.152 39.0159 38.1907 39.0285 38.235L39.2925 39.212C39.3787 39.5357 39.5813 39.8163 39.8615 40L40.7075 40.553C40.7461 40.5787 40.7748 40.6167 40.789 40.6608C40.8031 40.705 40.8019 40.7526 40.7855 40.796L40.4255 41.742C40.3072 42.0538 40.3072 42.3981 40.4255 42.71L40.7855 43.656C40.8031 43.6994 40.8047 43.7477 40.7903 43.7923C40.7759 43.8369 40.7462 43.875 40.7065 43.9" fill="white"/>
</svg>
