<svg width="36" height="36" viewBox="0 0 36 36" fill="none" xmlns="http://www.w3.org/2000/svg">
<path d="M25.5 4H5.5C3.567 4 2 5.567 2 7.5V21.5C2 23.433 3.567 25 5.5 25H25.5C27.433 25 29 23.433 29 21.5V7.5C29 5.567 27.433 4 25.5 4Z" fill="white" stroke="#111111"/>
<path d="M26.5 18C30.0899 18 33 20.9101 33 24.5C33 28.0899 30.0899 31 26.5 31C22.9101 31 20 28.0899 20 24.5C20 20.9101 22.9101 18 26.5 18Z" fill="#FEE456" stroke="#111111"/>
<path d="M23.2998 22.2002L23.5108 23.4192L24.7298 23.2082" stroke="#111111" stroke-width="0.8" stroke-linecap="round" stroke-linejoin="round"/>
<path d="M23.688 23.4014C23.851 22.8524 24.1507 22.3539 24.559 21.9524C24.9685 21.5909 25.4694 21.3488 26.007 21.2524C26.3943 21.1769 26.793 21.1818 27.1783 21.2668C27.5636 21.3518 27.9273 21.515 28.247 21.7464C28.5168 21.9401 28.7533 22.1765 28.947 22.4464C29.2271 22.8368 29.4161 23.2852 29.5 23.7584" stroke="#111111" stroke-width="0.8" stroke-linecap="round" stroke-linejoin="round"/>
<path d="M29.6997 26.7588L29.4887 25.5398L28.2697 25.7508" stroke="#111111" stroke-width="0.8" stroke-linecap="round" stroke-linejoin="round"/>
<path d="M29.312 25.5576C29.149 26.1065 28.8493 26.6051 28.441 27.0066C28.0315 27.3681 27.5306 27.6102 26.993 27.7066C26.6057 27.7821 26.207 27.7771 25.8217 27.6922C25.4364 27.6072 25.0727 27.444 24.753 27.2126C24.4832 27.0189 24.2467 26.7824 24.053 26.5126C23.7729 26.1221 23.5839 25.6738 23.5 25.2006" stroke="#111111" stroke-width="0.8" stroke-linecap="round" stroke-linejoin="round"/>
<path d="M10.9874 20.9131C10.7604 20.9131 10.5402 20.9131 10.3272 20.9131C7.87722 20.9131 5.98707 20.913 6.00007 18.96C6.01307 16.831 8.26148 15.1168 11.0245 15.1338C13.7875 15.1508 16.0111 16.8915 15.9991 19.0195C15.9891 20.7395 14.5278 20.9307 12.5108 20.9307C12.0298 20.9277 11.5194 20.9171 10.9874 20.9131ZM11.2042 14.502C10.4074 14.4996 9.6442 14.1808 9.0821 13.6162C8.51999 13.0516 8.20493 12.287 8.20612 11.4902C8.20731 10.6935 8.52417 9.93014 9.08796 9.36719C9.65175 8.80424 10.4162 8.48828 11.213 8.48828C12.0097 8.48828 12.7742 8.80424 13.338 9.36719C13.9017 9.93014 14.2186 10.6935 14.2198 11.4902C14.221 12.287 13.9059 13.0516 13.3438 13.6162C12.7817 14.1808 12.0185 14.4996 11.2217 14.502H11.2042Z" fill="#B9B5EF"/>
<path d="M24.85 11.8C25.209 11.8 25.5 11.509 25.5 11.15C25.5 10.791 25.209 10.5 24.85 10.5H18.15C17.791 10.5 17.5 10.791 17.5 11.15C17.5 11.509 17.791 11.8 18.15 11.8H24.85Z" fill="#111111"/>
<path d="M24.85 15.0002C25.209 15.0002 25.5 14.7092 25.5 14.3502C25.5 13.9912 25.209 13.7002 24.85 13.7002H20.15C19.791 13.7002 19.5 13.9912 19.5 14.3502C19.5 14.7092 19.791 15.0002 20.15 15.0002H24.85Z" fill="#111111"/>
</svg>
