<svg width="36" height="36" viewBox="0 0 36 36" fill="none" xmlns="http://www.w3.org/2000/svg">
<path d="M18.0003 21.0159C19.8481 21.0171 21.6311 21.6966 23.011 22.9254C24.3909 24.1541 25.2717 25.8467 25.4863 27.6819C25.511 27.9207 25.6228 28.1421 25.8005 28.3035C25.9782 28.465 26.2093 28.5552 26.4493 28.5569H32.5333C32.6667 28.5569 32.7987 28.5296 32.9211 28.4766C33.0435 28.4236 33.1538 28.346 33.245 28.2488C33.3363 28.1515 33.4067 28.0365 33.4518 27.911C33.4969 27.7855 33.5158 27.652 33.5073 27.5189C33.2376 23.5891 31.4862 19.9083 28.6071 17.22C25.728 14.5318 21.9359 13.0366 17.9968 13.0366C14.0578 13.0366 10.2657 14.5318 7.38656 17.22C4.50747 19.9083 2.7561 23.5891 2.48635 27.5189C2.47787 27.652 2.49678 27.7855 2.54189 27.911C2.587 28.0365 2.65737 28.1515 2.74865 28.2488C2.83992 28.346 2.95017 28.4236 3.07257 28.4766C3.19498 28.5296 3.32696 28.5569 3.46035 28.5569H9.54635C9.78644 28.5552 10.0175 28.465 10.1952 28.3035C10.3729 28.1421 10.4847 27.9207 10.5093 27.6819C10.7241 25.8458 11.6056 24.1526 12.9866 22.9237C14.3676 21.6948 16.1518 21.0159 18.0003 21.0159Z" fill="#E6E6E6"/>
<path d="M32.5392 29.042H26.4542C26.0957 29.0401 25.7505 28.9067 25.4839 28.667C25.2174 28.4274 25.0481 28.0982 25.0082 27.742C24.8078 26.0239 23.9832 24.4391 22.6911 23.289C21.3991 22.1388 19.7295 21.5034 17.9997 21.5034C16.2698 21.5034 14.6003 22.1388 13.3082 23.289C12.0161 24.4391 11.1915 26.0239 10.9912 27.742C10.9512 28.0982 10.7819 28.4274 10.5154 28.667C10.2488 28.9067 9.90359 29.0401 9.54516 29.042H3.46216C3.26195 29.0426 3.06377 29.002 2.8799 28.9228C2.69604 28.8435 2.53042 28.7274 2.39333 28.5815C2.25623 28.4356 2.15059 28.263 2.08296 28.0746C2.01533 27.8862 1.98714 27.6858 2.00016 27.486C2.27251 23.4288 4.07629 19.6267 7.04635 16.8493C10.0164 14.0719 13.9308 12.5269 17.9972 12.5269C22.0635 12.5269 25.9779 14.0719 28.948 16.8493C31.918 19.6267 33.7218 23.4288 33.9942 27.486C34.007 27.6855 33.9788 27.8854 33.9114 28.0735C33.844 28.2616 33.7387 28.4339 33.602 28.5797C33.4654 28.7255 33.3003 28.8418 33.117 28.9213C32.9337 29.0008 32.736 29.0419 32.5362 29.042M18.0002 20.529C19.9691 20.5273 21.8698 21.25 23.3403 22.5593C24.8108 23.8686 25.7483 25.6731 25.9742 27.629C25.9857 27.7492 26.0409 27.8609 26.1294 27.9429C26.2179 28.025 26.3335 28.0716 26.4542 28.074H32.5392C32.606 28.0739 32.6722 28.0601 32.7335 28.0334C32.7948 28.0068 32.8501 27.9678 32.8958 27.919C32.9415 27.8702 32.9767 27.8126 32.9993 27.7496C33.0219 27.6867 33.0314 27.6198 33.0272 27.553C32.7725 23.7409 31.0785 20.168 28.2883 17.558C25.4981 14.948 21.8203 13.496 17.9997 13.496C14.179 13.496 10.5012 14.948 7.71101 17.558C4.92082 20.168 3.22685 23.7409 2.97216 27.553C2.96793 27.6199 2.97743 27.6868 3.00009 27.7499C3.02275 27.8129 3.05808 27.8706 3.1039 27.9194C3.14972 27.9682 3.20507 28.0071 3.26651 28.0337C3.32796 28.0603 3.39421 28.074 3.46116 28.074H9.54616C9.66682 28.0716 9.78239 28.025 9.8709 27.9429C9.9594 27.8609 10.0147 27.7492 10.0262 27.629C10.252 25.6731 11.1895 23.8686 12.66 22.5593C14.1305 21.25 16.0312 20.5273 18.0002 20.529Z" fill="#111111"/>
<path d="M18.4277 14.0569V20.1719C18.4292 20.4033 18.5129 20.6265 18.6639 20.8019C18.8148 20.9772 19.0232 21.0931 19.2517 21.1289C20.8599 21.3991 22.3372 22.1836 23.4617 23.3646C24.5863 24.5456 25.2975 26.0594 25.4887 27.6789C25.5133 27.9181 25.6253 28.1398 25.8031 28.3016C25.981 28.4634 26.2123 28.554 26.4527 28.5559H32.5367C32.6698 28.556 32.8014 28.5289 32.9236 28.4763C33.0457 28.4236 33.1559 28.3466 33.2472 28.2498C33.3385 28.1531 33.409 28.0387 33.4545 27.9137C33.5 27.7887 33.5195 27.6557 33.5117 27.5229C33.2649 23.8457 31.7196 20.3758 29.1517 17.7323C26.5838 15.0887 23.1602 13.4434 19.4917 13.0899C19.3568 13.0777 19.2209 13.0937 19.0925 13.137C18.9641 13.1802 18.8462 13.2497 18.7462 13.3411C18.6461 13.4324 18.5663 13.5436 18.5116 13.6676C18.457 13.7915 18.4287 13.9255 18.4287 14.0609" fill="#12A396"/>
<path d="M32.5394 29.0423H26.4564C26.0969 29.0398 25.7509 28.9055 25.484 28.6647C25.217 28.424 25.0478 28.0936 25.0084 27.7363C24.8264 26.2225 24.1599 24.808 23.1084 23.7038C22.0568 22.5996 20.6765 21.865 19.1734 21.6093C18.8311 21.5549 18.5193 21.3805 18.2939 21.1172C18.0686 20.8539 17.9443 20.5189 17.9434 20.1723V14.0573C17.9433 13.8537 17.9858 13.6523 18.0681 13.466C18.1504 13.2798 18.2708 13.1128 18.4214 12.9758C18.5721 12.8388 18.7497 12.7348 18.9429 12.6705C19.1361 12.6062 19.3406 12.583 19.5434 12.6023C23.3321 12.9513 26.8713 14.6434 29.5218 17.373C32.1724 20.1026 33.7598 23.69 33.9974 27.4873C34.0101 27.6867 33.9818 27.8865 33.9143 28.0745C33.8468 28.2625 33.7415 28.4346 33.6048 28.5803C33.4682 28.726 33.3032 28.8422 33.1199 28.9217C32.9367 29.0011 32.7391 29.0422 32.5394 29.0423ZM19.4004 13.5673C19.2802 13.5674 19.1646 13.6128 19.0764 13.6943C19.0254 13.7401 18.9848 13.796 18.957 13.8586C18.9293 13.9212 18.9151 13.9889 18.9154 14.0573V20.1723C18.9172 20.2887 18.9603 20.4007 19.0371 20.4883C19.1138 20.5758 19.2192 20.6333 19.3344 20.6503C21.0449 20.9415 22.6156 21.7777 23.8122 23.0343C25.0088 24.2909 25.7672 25.9006 25.9744 27.6233C25.9846 27.7446 26.0396 27.8577 26.1287 27.9405C26.2179 28.0234 26.3347 28.07 26.4564 28.0713H32.5404C32.6076 28.0714 32.6741 28.0576 32.7357 28.0308C32.7973 28.0039 32.8527 27.9646 32.8984 27.9153C32.9443 27.8671 32.9796 27.8098 33.0022 27.7471C33.0247 27.6844 33.034 27.6178 33.0294 27.5513C32.8061 23.9834 31.3143 20.6129 28.8232 18.0487C26.3322 15.4845 23.0064 13.8957 19.4464 13.5693H19.4004" fill="#111111"/>
<path d="M17.6543 8.77508L15.0063 23.4261C14.9098 23.9611 15.0288 24.5125 15.3373 24.9601L17.7113 28.4041C17.7437 28.4509 17.787 28.4892 17.8374 28.5156C17.8878 28.542 17.9439 28.5558 18.0008 28.5558C18.0578 28.5558 18.1139 28.542 18.1643 28.5156C18.2147 28.4892 18.258 28.4509 18.2903 28.4041L20.6643 24.9601C20.9728 24.5125 21.0918 23.9611 20.9953 23.4261L18.3463 8.77508C18.3312 8.69435 18.2884 8.62144 18.2252 8.56898C18.162 8.51651 18.0825 8.48779 18.0003 8.48779C17.9182 8.48779 17.8387 8.51651 17.7755 8.56898C17.7123 8.62144 17.6694 8.69435 17.6543 8.77508Z" fill="white"/>
<path d="M18.0004 29.0411C17.8649 29.0411 17.7313 29.0081 17.6113 28.9451C17.4913 28.882 17.3884 28.7907 17.3114 28.6791L14.9374 25.2351C14.7472 24.9611 14.6131 24.6521 14.5429 24.326C14.4727 23.9999 14.4678 23.6631 14.5284 23.3351L17.1774 8.6881C17.2119 8.49465 17.3134 8.31951 17.4641 8.19335C17.6147 8.06718 17.8049 7.99805 18.0014 7.99805C18.1979 7.99805 18.3882 8.06718 18.5388 8.19335C18.6895 8.31951 18.7909 8.49465 18.8254 8.6881L21.4734 23.3391C21.5338 23.6671 21.5288 24.0039 21.4586 24.3299C21.3884 24.656 21.2544 24.965 21.0644 25.2391L18.6854 28.6791C18.6085 28.7907 18.5056 28.882 18.3856 28.9451C18.2656 29.0081 18.132 29.0411 17.9964 29.0411M17.9964 9.5921L15.4854 23.5121C15.4485 23.7145 15.4518 23.9222 15.4953 24.1233C15.5387 24.3244 15.6213 24.515 15.7384 24.6841L18.0014 27.9681L20.2644 24.6841C20.3816 24.515 20.4642 24.3244 20.5076 24.1233C20.551 23.9222 20.5544 23.7145 20.5174 23.5121L17.9964 9.5921Z" fill="#111111"/>
</svg>
