<svg width="36" height="36" viewBox="0 0 36 36" fill="none" xmlns="http://www.w3.org/2000/svg">
<path d="M17.9994 21.0149C19.8471 21.0162 21.6301 21.6956 23.01 22.9244C24.3899 24.1531 25.2708 25.8457 25.4854 27.6809C25.51 27.9198 25.6219 28.1411 25.7996 28.3026C25.9773 28.464 26.2083 28.5542 26.4484 28.5559H32.5324C32.6658 28.5559 32.7977 28.5286 32.9201 28.4756C33.0426 28.4226 33.1528 28.3451 33.2441 28.2478C33.3353 28.1505 33.4057 28.0356 33.4508 27.91C33.4959 27.7845 33.5148 27.6511 33.5064 27.5179C33.2366 23.5882 31.4853 19.9073 28.6062 17.2191C25.7271 14.5308 21.9349 13.0356 17.9959 13.0356C14.0569 13.0356 10.2647 14.5308 7.38559 17.2191C4.50649 19.9073 2.75513 23.5882 2.48537 27.5179C2.4769 27.6511 2.4958 27.7845 2.54091 27.91C2.58603 28.0356 2.6564 28.1505 2.74767 28.2478C2.83894 28.3451 2.94919 28.4226 3.0716 28.4756C3.19401 28.5286 3.32598 28.5559 3.45937 28.5559H9.54537C9.78546 28.5542 10.0165 28.464 10.1942 28.3026C10.3719 28.1411 10.4838 27.9198 10.5084 27.6809C10.7231 25.8449 11.6046 24.1516 12.9856 22.9227C14.3666 21.6938 16.1508 21.0149 17.9994 21.0149Z" fill="#E6E6E6"/>
<path d="M32.5382 29.0412H26.4532C26.0948 29.0393 25.7495 28.9058 25.483 28.6662C25.2164 28.4266 25.0471 28.0974 25.0072 27.7412C24.8068 26.023 23.9822 24.4383 22.6902 23.2882C21.3981 22.138 19.7285 21.5026 17.9987 21.5026C16.2689 21.5026 14.5993 22.138 13.3072 23.2882C12.0151 24.4383 11.1906 26.023 10.9902 27.7412C10.9503 28.0974 10.781 28.4266 10.5144 28.6662C10.2479 28.9058 9.90261 29.0393 9.54419 29.0412H3.46119C3.26098 29.0418 3.06279 29.0012 2.87893 28.922C2.69506 28.8427 2.52944 28.7266 2.39235 28.5807C2.25526 28.4347 2.14962 28.2622 2.08198 28.0738C2.01435 27.8853 1.98617 27.685 1.99919 27.4852C2.26971 23.4269 4.07267 19.623 7.04283 16.8443C10.013 14.0655 13.9283 12.5195 17.9957 12.5195C22.0631 12.5195 25.9784 14.0655 28.9485 16.8443C31.9187 19.623 33.7217 23.4269 33.9922 27.4852C34.0052 27.6847 33.9771 27.8847 33.9097 28.0728C33.8423 28.261 33.7371 28.4333 33.6004 28.5792C33.4637 28.725 33.2986 28.8413 33.1152 28.9208C32.9318 29.0002 32.7341 29.0412 32.5342 29.0412M17.9992 20.5282C19.9681 20.5265 21.8689 21.2492 23.3394 22.5585C24.8099 23.8678 25.7473 25.6723 25.9732 27.6282C25.9847 27.7484 26.0399 27.8601 26.1285 27.9421C26.217 28.0242 26.3325 28.0708 26.4532 28.0732H32.5372C32.6041 28.0732 32.6704 28.0595 32.7318 28.0329C32.7933 28.0063 32.8486 27.9674 32.8944 27.9186C32.9403 27.8697 32.9756 27.812 32.9983 27.749C33.0209 27.686 33.0304 27.619 33.0262 27.5522C32.7715 23.7401 31.0775 20.1672 28.2873 17.5572C25.4972 14.9472 21.8193 13.4952 17.9987 13.4952C14.1781 13.4952 10.5002 14.9472 7.71003 17.5572C4.91984 20.1672 3.22587 23.7401 2.97119 27.5522C2.96695 27.619 2.97645 27.686 2.99911 27.749C3.02177 27.812 3.0571 27.8697 3.10292 27.9186C3.14875 27.9674 3.20409 28.0063 3.26554 28.0329C3.32698 28.0595 3.39323 28.0732 3.46019 28.0732H9.54519C9.66585 28.0708 9.78142 28.0242 9.86992 27.9421C9.95842 27.8601 10.0137 27.7484 10.0252 27.6282C10.251 25.6723 11.1885 23.8678 12.659 22.5585C14.1295 21.2492 16.0303 20.5265 17.9992 20.5282Z" fill="#111111"/>
<path d="M17.9987 13.0093C15.3978 13.0066 12.8381 13.6601 10.5567 14.9093C10.4359 14.9761 10.3306 15.0679 10.2479 15.1785C10.1652 15.2891 10.1069 15.416 10.0769 15.5509C10.047 15.6857 10.046 15.8253 10.0741 15.9606C10.1021 16.0958 10.1586 16.2235 10.2397 16.3353L13.8527 21.3103C13.9838 21.4892 14.172 21.6179 14.3863 21.6752C14.6005 21.7325 14.8279 21.7149 15.0307 21.6253C16.1095 21.1628 17.2814 20.9586 18.4531 21.0289C19.6247 21.0992 20.7638 21.4422 21.7795 22.0304C22.7952 22.6186 23.6596 23.4359 24.3037 24.4171C24.9478 25.3983 25.354 26.5164 25.4897 27.6823C25.5146 27.9209 25.6266 28.142 25.8042 28.3033C25.9819 28.4645 26.2128 28.5546 26.4527 28.5563H32.5367C32.6701 28.5563 32.8021 28.5289 32.9245 28.4759C33.0469 28.4229 33.1572 28.3454 33.2484 28.2481C33.3397 28.1509 33.4101 28.0359 33.4552 27.9104C33.5003 27.7849 33.5192 27.6514 33.5107 27.5183C33.2474 23.5835 31.4987 19.8958 28.6186 17.2019C25.7385 14.5081 21.9423 13.0094 17.9987 13.0093Z" fill="#D44B10"/>
<path d="M32.5377 29.0413H26.4537C26.0952 29.0394 25.75 28.9059 25.4834 28.6663C25.2169 28.4267 25.0476 28.0975 25.0077 27.7413C24.8804 26.6507 24.5003 25.6049 23.8976 24.6871C23.2949 23.7692 22.4862 23.0048 21.536 22.4546C20.5858 21.9044 19.5203 21.5836 18.4242 21.5177C17.3282 21.4519 16.2319 21.6428 15.2227 22.0753C14.9186 22.2092 14.5779 22.2349 14.2572 22.1483C13.9365 22.0617 13.655 21.868 13.4597 21.5993L9.84667 16.6243C9.72479 16.4567 9.63997 16.2652 9.59786 16.0623C9.55574 15.8594 9.5573 15.6499 9.60242 15.4476C9.64754 15.2454 9.73519 15.0551 9.85955 14.8893C9.9839 14.7236 10.1421 14.5862 10.3237 14.4863C12.6852 13.1975 15.3332 12.5238 18.0235 12.5274C20.7138 12.5309 23.36 13.2115 25.7182 14.5066C28.0763 15.8016 30.0706 17.6693 31.5171 19.9377C32.9637 22.206 33.8161 24.802 33.9957 27.4863C34.0087 27.6858 33.9806 27.8858 33.9132 28.0739C33.8458 28.2621 33.7405 28.4344 33.6039 28.5803C33.4672 28.7261 33.3021 28.8424 33.1187 28.9219C32.9353 29.0013 32.7375 29.0413 32.5377 29.0413ZM17.9997 20.5283C19.9686 20.5266 21.8693 21.2493 23.3398 22.5586C24.8103 23.8679 25.7478 25.6724 25.9737 27.6283C25.9852 27.7485 26.0404 27.8602 26.1289 27.9422C26.2174 28.0243 26.333 28.0709 26.4537 28.0733H32.5377C32.6046 28.0733 32.6709 28.0596 32.7323 28.033C32.7938 28.0064 32.8491 27.9675 32.8949 27.9187C32.9408 27.8698 32.9761 27.8121 32.9987 27.7491C33.0214 27.6861 33.0309 27.6191 33.0267 27.5523C32.8588 25.0301 32.0587 22.5908 30.7001 20.4591C29.3415 18.3275 27.4682 16.5721 25.2528 15.3549C23.0373 14.1377 20.5511 13.4978 18.0233 13.4942C15.4956 13.4906 13.0076 14.1234 10.7887 15.3343C10.7283 15.367 10.6756 15.4123 10.6344 15.4672C10.5931 15.522 10.5642 15.5852 10.5497 15.6523C10.5335 15.721 10.5325 15.7923 10.5466 15.8613C10.5608 15.9304 10.5898 15.9956 10.6317 16.0523L14.2447 21.0283C14.311 21.1176 14.4059 21.1816 14.5135 21.2096C14.6212 21.2376 14.7352 21.228 14.8367 21.1823C15.8348 20.7519 16.9107 20.5307 17.9977 20.5323" fill="#111111"/>
<path d="M17.6534 8.7741L15.0054 23.4251C14.9089 23.9601 15.0279 24.5115 15.3364 24.9591L17.7104 28.4031C17.7427 28.4499 17.786 28.4882 17.8364 28.5146C17.8869 28.5411 17.9429 28.5549 17.9999 28.5549C18.0568 28.5549 18.1129 28.5411 18.1633 28.5146C18.2137 28.4882 18.257 28.4499 18.2894 28.4031L20.6634 24.9591C20.9719 24.5115 21.0909 23.9601 20.9944 23.4251L18.3454 8.7741C18.3303 8.69337 18.2874 8.62046 18.2242 8.568C18.161 8.51553 18.0815 8.48682 17.9994 8.48682C17.9172 8.48682 17.8377 8.51553 17.7745 8.568C17.7113 8.62046 17.6685 8.69337 17.6534 8.7741Z" fill="white"/>
<path d="M17.9995 29.0411C17.8638 29.041 17.7302 29.008 17.6101 28.9447C17.4901 28.8815 17.3872 28.79 17.3105 28.6781L14.9365 25.2351C14.7462 24.9611 14.6121 24.6521 14.5419 24.326C14.4717 23.9999 14.4668 23.6631 14.5275 23.3351L17.1765 8.6881C17.211 8.49465 17.3124 8.31951 17.4631 8.19335C17.6137 8.06718 17.804 7.99805 18.0005 7.99805C18.197 7.99805 18.3872 8.06718 18.5379 8.19335C18.6885 8.31951 18.79 8.49465 18.8245 8.6881L21.4725 23.3381C21.533 23.6661 21.528 24.0029 21.4579 24.329C21.3877 24.6551 21.2536 24.964 21.0635 25.2381L18.6845 28.6781C18.6075 28.7897 18.5046 28.881 18.3846 28.9441C18.2646 29.0071 18.131 29.0401 17.9955 29.0401M17.9955 9.5911L15.4845 23.5111C15.4475 23.7135 15.4509 23.9212 15.4943 24.1223C15.5377 24.3234 15.6203 24.514 15.7375 24.6831L18.0005 27.9671L20.2635 24.6831C20.3806 24.514 20.4632 24.3234 20.5067 24.1223C20.5501 23.9212 20.5534 23.7135 20.5165 23.5111L17.9955 9.5911Z" fill="#111111"/>
</svg>
