<svg width="36" height="36" viewBox="0 0 36 36" fill="none" xmlns="http://www.w3.org/2000/svg">
<path d="M18 4C15.2311 4 12.5243 4.82109 10.222 6.35943C7.91973 7.89777 6.12532 10.0843 5.06569 12.6424C4.00607 15.2006 3.72882 18.0155 4.26901 20.7313C4.80921 23.447 6.14258 25.9416 8.10051 27.8995C10.0584 29.8574 12.553 31.1908 15.2687 31.731C17.9845 32.2712 20.7994 31.9939 23.3576 30.9343C25.9157 29.8747 28.1022 28.0803 29.6406 25.778C31.1789 23.4757 32 20.7689 32 18C32 14.287 30.525 10.726 27.8995 8.1005C25.274 5.475 21.713 4 18 4ZM18 25C16.6155 25 15.2622 24.5895 14.111 23.8203C12.9599 23.0511 12.0627 21.9579 11.5328 20.6788C11.003 19.3997 10.8644 17.9922 11.1345 16.6344C11.4046 15.2765 12.0713 14.0292 13.0503 13.0503C14.0292 12.0713 15.2765 11.4046 16.6344 11.1345C17.9922 10.8644 19.3997 11.003 20.6788 11.5328C21.9579 12.0627 23.0511 12.9599 23.8203 14.111C24.5895 15.2622 25 16.6155 25 18C25 19.8565 24.2625 21.637 22.9498 22.9497C21.637 24.2625 19.8565 25 18 25Z" fill="white"/>
<path d="M18 4.933C20.5844 4.933 23.1108 5.69937 25.2596 7.13519C27.4085 8.57101 29.0833 10.6118 30.0723 12.9995C31.0613 15.3872 31.3201 18.0145 30.8159 20.5492C30.3117 23.084 29.0672 25.4123 27.2398 27.2398C25.4123 29.0672 23.084 30.3117 20.5493 30.8159C18.0145 31.3201 15.3872 31.0613 12.9995 30.0723C10.6118 29.0833 8.57101 27.4085 7.13519 25.2596C5.69937 23.1108 4.93301 20.5844 4.93301 18C4.93698 14.5356 6.31495 11.2143 8.76463 8.76462C11.2143 6.31494 14.5356 4.93697 18 4.933ZM18 25.933C19.569 25.933 21.1028 25.4677 22.4073 24.596C23.7119 23.7244 24.7287 22.4854 25.3291 21.0358C25.9296 19.5863 26.0867 17.9912 25.7806 16.4523C25.4745 14.9135 24.7189 13.5 23.6095 12.3905C22.5 11.2811 21.0865 10.5255 19.5477 10.2194C18.0088 9.91333 16.4137 10.0704 14.9642 10.6709C13.5146 11.2713 12.2756 12.2881 11.404 13.5927C10.5323 14.8972 10.067 16.431 10.067 18C10.0694 20.1032 10.9059 22.1196 12.3932 23.6068C13.8804 25.0941 15.8968 25.9306 18 25.933ZM18 4C15.2311 4 12.5243 4.82109 10.222 6.35943C7.91973 7.89777 6.12532 10.0843 5.06569 12.6424C4.00607 15.2006 3.72882 18.0155 4.26901 20.7313C4.80921 23.447 6.14258 25.9416 8.10051 27.8995C10.0584 29.8574 12.553 31.1908 15.2687 31.731C17.9845 32.2712 20.7994 31.9939 23.3576 30.9343C25.9157 29.8747 28.1022 28.0803 29.6406 25.778C31.1789 23.4757 32 20.7689 32 18C32 14.287 30.525 10.726 27.8995 8.1005C25.274 5.475 21.713 4 18 4ZM18 25C16.6155 25 15.2622 24.5895 14.111 23.8203C12.9599 23.0511 12.0627 21.9579 11.5328 20.6788C11.003 19.3997 10.8644 17.9922 11.1345 16.6344C11.4046 15.2765 12.0713 14.0292 13.0503 13.0503C14.0292 12.0713 15.2765 11.4046 16.6344 11.1345C17.9922 10.8644 19.3997 11.003 20.6788 11.5328C21.9579 12.0627 23.0511 12.9599 23.8203 14.111C24.5895 15.2622 25 16.6155 25 18C25 19.8565 24.2625 21.637 22.9498 22.9497C21.637 24.2625 19.8565 25 18 25Z" fill="#111111"/>
<path d="M32 18H25C25 16.1435 24.2625 14.363 22.9497 13.0503C21.637 11.7375 19.8565 11 18 11V4C21.713 4 25.274 5.475 27.8995 8.1005C30.525 10.726 32 14.287 32 18Z" fill="#B9B5EF"/>
<path d="M18.933 4.966C22.0664 5.19482 25.0129 6.54311 27.2344 8.76463C29.4559 10.9861 30.8042 13.9326 31.033 17.066H25.879C25.6669 15.2976 24.867 13.6517 23.6076 12.3924C22.3483 11.133 20.7024 10.3331 18.934 10.121L18.933 4.966ZM18 4V11C19.8565 11 21.637 11.7375 22.9497 13.0503C24.2625 14.363 25 16.1435 25 18H32C32 14.287 30.525 10.726 27.8995 8.1005C25.274 5.475 21.713 4 18 4Z" fill="#111111"/>
</svg>
