<svg width="28" height="28" viewBox="0 0 28 28" fill="none" xmlns="http://www.w3.org/2000/svg">
<path d="M23.75 7.49996H23.232C23.5047 6.97515 23.6441 6.39134 23.638 5.79996C23.6466 4.85421 23.3062 3.93849 22.682 3.22796C22.3119 2.82249 21.8578 2.50257 21.3515 2.29049C20.8451 2.07841 20.2986 1.97927 19.75 1.99996C16.991 1.99996 15.12 4.18596 14.069 5.91896C13.018 4.18596 11.148 1.99996 8.38901 1.99996C7.84063 1.97849 7.29416 2.07678 6.78763 2.28799C6.2811 2.49921 5.82667 2.81826 5.45599 3.22296C4.83061 3.93478 4.49017 4.8525 4.5 5.79996C4.49392 6.39134 4.63335 6.97515 4.90601 7.49996H4.25C3.65351 7.50076 3.08167 7.73806 2.65988 8.15985C2.2381 8.58163 2.00079 9.15347 2 9.74996V11.75C2.00162 12.3018 2.20645 12.8337 2.57536 13.2442C2.94428 13.6546 3.45144 13.9147 4 13.975V23.75C4.00079 24.3465 4.2381 24.9183 4.65988 25.3401C5.08167 25.7619 5.65351 25.9992 6.25 26H21.75C22.3465 25.9992 22.9183 25.7619 23.3401 25.3401C23.7619 24.9183 23.9992 24.3465 24 23.75V13.975C24.5486 13.9147 25.0557 13.6546 25.4246 13.2442C25.7936 12.8337 25.9984 12.3018 26 11.75V9.74996C25.9992 9.15347 25.7619 8.58163 25.3401 8.15985C24.9183 7.73806 24.3465 7.50076 23.75 7.49996ZM19.75 3.49996C20.0868 3.48097 20.4236 3.53585 20.737 3.66074C21.0504 3.78563 21.3326 3.97752 21.564 4.22296C21.9402 4.66017 22.1445 5.21924 22.139 5.79596C22.139 6.42896 21.846 7.49596 20.75 7.49596H14.908C15.65 6.03796 17.292 3.49996 19.75 3.49996ZM6 5.79996C5.99439 5.22339 6.19837 4.66441 6.57401 4.22696C6.80544 3.98157 7.08769 3.78972 7.40103 3.66483C7.71437 3.53995 8.05122 3.48504 8.388 3.50396C10.837 3.50396 12.488 6.04196 13.228 7.50396H7.388C6.292 7.49996 6 6.42896 6 5.79996Z" fill="white"/>
<path d="M14.8262 13.9727H24.002V15.4697H14.8262V26H13.3223V15.4697H4.00391L4.00488 13.9727H13.3223V7.50684H14.8262V13.9727Z" fill="#212121"/>
</svg>
