<svg width="32" height="32" viewBox="0 0 32 32" fill="none" xmlns="http://www.w3.org/2000/svg">
<path d="M27.4669 16.5721C26.2319 13.5371 22.8169 11.2251 19.7119 10.3911L21.7809 4.9651C21.8648 4.8379 21.91 4.68908 21.9111 4.53669C21.9122 4.38431 21.8691 4.23489 21.7869 4.10652C21.7048 3.97815 21.5872 3.87633 21.4484 3.81343C21.3097 3.75052 21.1556 3.72922 21.0049 3.75209H10.9899C10.8394 3.72969 10.6857 3.75137 10.5473 3.81453C10.4089 3.87768 10.2918 3.97964 10.2101 4.10798C10.1284 4.23632 10.0857 4.38555 10.0871 4.53767C10.0884 4.68979 10.1339 4.83827 10.2179 4.9651L12.2819 10.3911C9.17588 11.2251 5.76194 13.5371 4.52694 16.5721C1.99094 22.7961 7.5489 28.3721 13.4949 28.8131C14.2949 28.8701 15.1359 28.9011 16.0009 28.8931C16.8659 28.9021 17.7079 28.8711 18.5069 28.8131C24.4489 28.3761 30.0069 22.8001 27.4709 16.5721H27.4669Z" fill="#F4A12B"/>
<path d="M20.689 8.53613H11.297C10.7889 8.53613 10.377 8.94803 10.377 9.45613V10.2081C10.377 10.7162 10.7889 11.1281 11.297 11.1281H20.689C21.1971 11.1281 21.609 10.7162 21.609 10.2081V9.45613C21.609 8.94803 21.1971 8.53613 20.689 8.53613Z" fill="#9F5700"/>
</svg>
