<svg width="24" height="24" viewBox="0 0 24 24" fill="none" xmlns="http://www.w3.org/2000/svg">
<path d="M5.7 1.50337H18.3C18.9789 1.4686 19.644 1.70387 20.1499 2.15779C20.6558 2.61171 20.9615 3.24736 21 3.92584V20.0742C20.9615 20.7526 20.6558 21.3883 20.1499 21.8422C19.644 22.2961 18.9789 22.5314 18.3 22.4966H5.7C5.02109 22.5314 4.35601 22.2961 3.85009 21.8422C3.34418 21.3883 3.03855 20.7526 3 20.0742V3.92584C3.03855 3.24736 3.34418 2.61171 3.85009 2.15779C4.35601 1.70387 5.02109 1.4686 5.7 1.50337Z" fill="#6EC4F6"/>
<path d="M15 15H9C8.58579 15 8.25 15.3358 8.25 15.75C8.25 16.1642 8.58579 16.5 9 16.5H15C15.4142 16.5 15.75 16.1642 15.75 15.75C15.75 15.3358 15.4142 15 15 15Z" fill="white"/>
<path d="M16.1512 7.69238L13.8884 9.95513C14.1756 10.2133 14.4052 10.529 14.5622 10.8818C14.7192 11.2346 14.8001 11.6165 14.7997 12.0026H17.9999C18.0008 11.1963 17.8373 10.3983 17.5196 9.65728C17.2019 8.91623 16.7358 8.24767 16.1512 7.69238Z" fill="#0C629C"/>
<path d="M12.0083 6.00244C11.2198 6.00185 10.4389 6.15658 9.7102 6.4578C8.98152 6.75902 8.3193 7.20082 7.76137 7.75798C7.20345 8.31514 6.76073 8.97675 6.45851 9.70502C6.1563 10.4333 6.00049 11.214 6 12.0024H9.225C9.22576 11.4653 9.38209 10.9399 9.67508 10.4898C9.96807 10.0396 10.3852 9.68395 10.876 9.46579C11.3668 9.24764 11.9103 9.17632 12.4408 9.26046C12.9713 9.34461 13.466 9.58061 13.8653 9.93994L16.1483 7.65994C15.033 6.59522 13.5501 6.00153 12.0083 6.00244Z" fill="#2B9CDE"/>
</svg>
