<svg width="48" height="48" viewBox="0 0 48 48" fill="none" xmlns="http://www.w3.org/2000/svg">
<path d="M24 39C35.0457 39 44 36.0899 44 32.5C44 28.9101 35.0457 26 24 26C12.9543 26 4 28.9101 4 32.5C4 36.0899 12.9543 39 24 39Z" fill="#9F5700"/>
<path d="M24 30.498C35.0457 30.498 44 27.5879 44 23.998C44 20.4082 35.0457 17.498 24 17.498C12.9543 17.498 4 20.4082 4 23.998C4 27.5879 12.9543 30.498 24 30.498Z" fill="#F4A12B"/>
<path d="M24 22C35.0457 22 44 19.3137 44 16C44 12.6863 35.0457 10 24 10C12.9543 10 4 12.6863 4 16C4 19.3137 12.9543 22 24 22Z" fill="#F5B92C"/>
<path d="M21.291 18.5C21.1721 18.5056 21.0535 18.4833 20.9446 18.4351C20.8358 18.3868 20.7397 18.3139 20.664 18.222L19.464 16.184H17.7C17.312 16.184 17 15.999 17 15.769C17 15.539 17.313 15.352 17.7 15.352H18.969L18.209 14.056C18.085 13.836 18.273 13.6 18.645 13.524C18.8014 13.4787 18.9675 13.479 19.1238 13.5249C19.28 13.5708 19.4199 13.6603 19.527 13.783L21.405 16.96L23.131 14.671C23.2106 14.589 23.3066 14.5249 23.4128 14.4829C23.519 14.4408 23.6329 14.4218 23.747 14.427C23.8632 14.4186 23.9798 14.4337 24.09 14.4715C24.2001 14.5093 24.3015 14.569 24.388 14.647L26.5 17.026L28.323 13.787C28.4292 13.6645 28.5681 13.5748 28.7233 13.5282C28.8786 13.4816 29.0439 13.4802 29.2 13.524C29.572 13.595 29.768 13.832 29.646 14.049L28.913 15.349H30.3C30.688 15.349 31 15.537 31 15.766C31 15.995 30.687 16.181 30.3 16.181H28.45L27.3 18.212C27.2307 18.3049 27.1399 18.3796 27.0354 18.4297C26.9309 18.4799 26.8158 18.504 26.7 18.5C26.6811 18.5025 26.6619 18.5025 26.643 18.5C26.5302 18.5055 26.4174 18.4884 26.3113 18.4498C26.2052 18.4111 26.1079 18.3517 26.025 18.275L23.816 15.793L21.959 18.251C21.8833 18.3368 21.7887 18.4039 21.6827 18.4471C21.5767 18.4903 21.4621 18.5084 21.348 18.5H21.291Z" fill="white"/>
</svg>
