<svg width="48" height="48" viewBox="0 0 48 48" fill="none" xmlns="http://www.w3.org/2000/svg">
<path d="M23.6056 28.7893C23.6887 28.6231 23.8163 28.4834 23.9743 28.3857C24.1323 28.2881 24.3144 28.2363 24.5001 28.2363C24.6859 28.2363 24.8679 28.2881 25.0259 28.3857C25.1839 28.4834 25.3116 28.6231 25.3946 28.7893L31.7766 41.5533C31.8528 41.7058 31.8888 41.8752 31.8811 42.0455C31.8734 42.2158 31.8222 42.3813 31.7326 42.5263C31.6429 42.6713 31.5176 42.7909 31.3687 42.8739C31.2198 42.9568 31.0521 43.0003 30.8816 43.0003H18.1176C17.9472 43.0002 17.7797 42.9565 17.6309 42.8735C17.4821 42.7905 17.357 42.6708 17.2674 42.5259C17.1779 42.3809 17.1268 42.2155 17.1192 42.0453C17.1115 41.875 17.1475 41.7057 17.2236 41.5533L23.6056 28.7893Z" fill="#6D6DE2"/>
<path d="M41.5 5H6.5C4.84315 5 3.5 6.34315 3.5 8V34C3.5 35.6569 4.84315 37 6.5 37H41.5C43.1569 37 44.5 35.6569 44.5 34V8C44.5 6.34315 43.1569 5 41.5 5Z" fill="#8295F1"/>
<path d="M13.499 20.5C13.499 19.6716 12.8275 19 11.999 19C11.1706 19 10.499 19.6716 10.499 20.5V29.5C10.499 30.3284 11.1706 31 11.999 31C12.8275 31 13.499 30.3284 13.499 29.5V20.5Z" fill="white"/>
<path d="M25.499 20.5C25.499 19.6716 24.8275 19 23.999 19C23.1706 19 22.499 19.6716 22.499 20.5V29.5C22.499 30.3284 23.1706 31 23.999 31C24.8275 31 25.499 30.3284 25.499 29.5V20.5Z" fill="white"/>
<path d="M37.499 13.5C37.499 12.6716 36.8275 12 35.999 12C35.1706 12 34.499 12.6716 34.499 13.5V29.5C34.499 30.3284 35.1706 31 35.999 31C36.8275 31 37.499 30.3284 37.499 29.5V13.5Z" fill="white"/>
<path d="M19.499 17.5C19.499 16.6716 18.8275 16 17.999 16C17.1706 16 16.499 16.6716 16.499 17.5V29.5C16.499 30.3284 17.1706 31 17.999 31C18.8275 31 19.499 30.3284 19.499 29.5V17.5Z" fill="white"/>
<path d="M31.499 23.5C31.499 22.6716 30.8275 22 29.999 22C29.1706 22 28.499 22.6716 28.499 23.5V29.5C28.499 30.3284 29.1706 31 29.999 31C30.8275 31 31.499 30.3284 31.499 29.5V23.5Z" fill="white"/>
</svg>
