<svg width="28" height="28" viewBox="0 0 28 28" fill="none" xmlns="http://www.w3.org/2000/svg">
<path d="M14 28C21.732 28 28 21.732 28 14C28 6.26801 21.732 0 14 0C6.26801 0 0 6.26801 0 14C0 21.732 6.26801 28 14 28Z" fill="#7A7A7A"/>
<path d="M17.1447 9.78906H6.46973V16.964C6.46973 18.024 7.33471 18.889 8.39471 18.889H12.0697C12.3597 18.889 12.5947 18.654 12.5947 18.364C12.5947 18.074 12.3597 17.839 12.0697 17.839H8.39471C7.90971 17.839 7.51971 17.449 7.51971 16.964V10.839H17.1447C17.6297 10.839 18.0197 11.229 18.0197 11.714V16.964C18.0197 17.449 17.6297 17.839 17.1447 17.839H14.7047L11.7547 20.0441C11.6247 20.1441 11.5447 20.299 11.5447 20.464C11.5447 20.754 11.7797 20.989 12.0697 20.989C12.1847 20.989 12.2947 20.954 12.3847 20.884L15.0547 18.889H17.1447C18.2047 18.889 19.0697 18.024 19.0697 16.964V11.714C19.0697 10.654 18.2047 9.78906 17.1447 9.78906Z" fill="white"/>
<path d="M10.0047 15.0172C10.3913 15.0172 10.7047 14.7037 10.7047 14.3171C10.7047 13.9305 10.3913 13.6172 10.0047 13.6172C9.6181 13.6172 9.30469 13.9305 9.30469 14.3171C9.30469 14.7037 9.6181 15.0172 10.0047 15.0172Z" fill="white"/>
<path d="M12.7849 15.0172C13.1715 15.0172 13.4849 14.7037 13.4849 14.3171C13.4849 13.9305 13.1715 13.6172 12.7849 13.6172C12.3983 13.6172 12.085 13.9305 12.085 14.3171C12.085 14.7037 12.3983 15.0172 12.7849 15.0172Z" fill="white"/>
<path d="M15.6003 15.0172C15.9869 15.0172 16.3004 14.7037 16.3004 14.3171C16.3004 13.9305 15.9869 13.6172 15.6003 13.6172C15.2137 13.6172 14.9004 13.9305 14.9004 14.3171C14.9004 14.7037 15.2137 15.0172 15.6003 15.0172Z" fill="white"/>
<path d="M9.97971 8.76099H19.6047C20.0897 8.76099 20.4797 9.15099 20.4797 9.63599V15.671C20.4797 15.961 20.7147 16.1959 21.0047 16.1959C21.2947 16.1959 21.5297 15.961 21.5297 15.671V9.63599C21.5297 8.57599 20.6647 7.71094 19.6047 7.71094H8.92969V10.5959H9.97971V8.76099Z" fill="white"/>
</svg>
