<svg width="28" height="28" viewBox="0 0 28 28" fill="none" xmlns="http://www.w3.org/2000/svg">
<path d="M14 28C21.732 28 28 21.732 28 14C28 6.26801 21.732 0 14 0C6.26801 0 0 6.26801 0 14C0 21.732 6.26801 28 14 28Z" fill="#7D76C2"/>
<path d="M14.6199 17.7626H13.0449C11.1599 17.7626 9.63495 16.2375 9.63495 14.3525V11.1125H17.5099C17.7999 11.1125 18.0349 11.3476 18.0349 11.6376V14.3525C18.0349 14.4625 18.03 14.5676 18.02 14.6726C17.99 14.9826 18.2299 15.2526 18.5399 15.2526C18.8099 15.2526 19.0399 15.0476 19.0649 14.7826C19.0799 14.6426 19.085 14.4975 19.085 14.3525V11.6376C19.085 10.7676 18.3799 10.0625 17.5099 10.0625H8.58496V14.3525C8.58496 16.8175 10.5799 18.8125 13.0449 18.8125H14.6199C16.1999 18.8125 17.5899 17.9826 18.3799 16.7426C18.5949 16.4026 18.3349 15.9525 17.9299 15.9525C17.7549 15.9525 17.5899 16.0326 17.4999 16.1776C16.8949 17.1276 15.8299 17.7626 14.6199 17.7626Z" fill="white"/>
<path d="M18.7748 11.0312C18.5198 11.0312 18.2798 11.0813 18.0548 11.1713V12.4012C18.2398 12.2062 18.4948 12.0812 18.7748 12.0812C19.3348 12.0812 19.7848 12.5562 19.7848 13.1412C19.7848 13.7262 19.3348 14.2012 18.7748 14.2012C18.7298 14.2012 18.6798 14.2012 18.6348 14.1912C18.3298 14.1462 18.0498 14.3563 18.0498 14.6663V14.7112C18.0498 14.9712 18.2398 15.1962 18.4948 15.2312C18.5848 15.2462 18.6798 15.2512 18.7698 15.2512C19.8998 15.2512 20.8198 14.3062 20.8198 13.1412C20.8198 11.9762 19.8998 11.0312 18.7698 11.0312H18.7748Z" fill="white"/>
<path d="M18.5701 19.4766H9.09009C8.80842 19.4766 8.58008 19.7038 8.58008 19.9841C8.58008 20.2644 8.80842 20.4916 9.09009 20.4916H18.5701C18.8517 20.4916 19.0801 20.2644 19.0801 19.9841C19.0801 19.7038 18.8517 19.4766 18.5701 19.4766Z" fill="white"/>
<path d="M11.3251 7.99794C12.5051 8.44294 13.2601 9.01789 13.2451 9.69289C13.9651 8.79789 14.6051 8.72292 15.0351 8.72292C15.2301 8.72292 15.3551 8.76296 15.3551 8.76296C15.1951 9.43296 14.9301 9.83789 14.6401 10.0729H15.9751C16.1351 9.78289 16.2751 9.43295 16.3801 9.00795L16.5301 8.37294C16.5751 8.19294 16.4701 8.0129 16.2951 7.9579L15.6701 7.76296C15.5851 7.73796 15.3601 7.678 15.0351 7.678C14.7351 7.678 14.1801 7.73793 13.5951 8.10793C13.1901 7.64793 12.5601 7.23293 11.5851 6.98793L10.9351 6.82289C10.7551 6.77789 10.5701 6.88288 10.5151 7.06288L10.3251 7.7029C10.1651 8.2329 10.1601 9.1629 10.7151 10.0779H12.0501C11.0101 9.0879 11.3301 8.00795 11.3301 8.00795L11.3251 7.99794Z" fill="white"/>
</svg>
