<svg width="28" height="28" viewBox="0 0 28 28" fill="none" xmlns="http://www.w3.org/2000/svg">
<path d="M14 28C21.732 28 28 21.732 28 14C28 6.26801 21.732 0 14 0C6.26801 0 0 6.26801 0 14C0 21.732 6.26801 28 14 28Z" fill="#416C94"/>
<path d="M19.075 8.04688H7V16.6218C7 17.6818 7.86499 18.5469 8.92499 18.5469H12.6C12.89 18.5469 13.125 18.3119 13.125 18.0219C13.125 17.7319 12.89 17.4968 12.6 17.4968H8.92499C8.43999 17.4968 8.04999 17.1068 8.04999 16.6218V9.0968H19.075C19.56 9.0968 19.95 9.4868 19.95 9.9718V16.6218C19.95 17.1068 19.56 17.4968 19.075 17.4968H15.235L12.285 19.7018C12.155 19.8018 12.075 19.9568 12.075 20.1218C12.075 20.4118 12.31 20.6469 12.6 20.6469C12.715 20.6469 12.825 20.6119 12.915 20.5419L15.585 18.5469H19.075C20.135 18.5469 21 17.6818 21 16.6218V9.9718C21 8.9118 20.135 8.04688 19.075 8.04688Z" fill="white"/>
<path d="M11.3701 11.6172H9.27011C8.98011 11.6172 8.74512 11.8522 8.74512 12.1422C8.74512 12.4322 8.98011 12.6672 9.27011 12.6672H9.79514V14.5972C9.79514 14.8872 10.0301 15.1222 10.3201 15.1222C10.6101 15.1222 10.8451 14.8872 10.8451 14.5972V12.6672H11.3701C11.6601 12.6672 11.8951 12.4322 11.8951 12.1422C11.8951 11.8522 11.6601 11.6172 11.3701 11.6172Z" fill="white"/>
<path d="M15.7604 14.075H15.4104V12.15C15.4104 11.86 15.1754 11.625 14.8854 11.625C14.5954 11.625 14.3604 11.86 14.3604 12.15V14.595C14.3604 14.595 14.3604 14.595 14.3604 14.6C14.3604 14.885 14.5854 15.11 14.8654 15.125C14.8704 15.125 14.8804 15.125 14.8854 15.125H15.7604C16.0504 15.125 16.2854 14.89 16.2854 14.6C16.2854 14.31 16.0504 14.075 15.7604 14.075Z" fill="white"/>
<path d="M18.2501 13.375L19.1051 12.52C19.3101 12.315 19.3101 11.985 19.1051 11.78C18.9001 11.575 18.5701 11.575 18.3651 11.78L17.5151 12.63V12.15C17.5151 11.86 17.2801 11.625 16.9901 11.625C16.7001 11.625 16.4651 11.86 16.4651 12.15V14.6C16.4651 14.89 16.7001 15.125 16.9901 15.125C17.2801 15.125 17.5151 14.89 17.5151 14.6V14.12L18.3651 14.97C18.5701 15.175 18.9001 15.175 19.1051 14.97C19.3101 14.765 19.3101 14.435 19.1051 14.23L18.2501 13.375Z" fill="white"/>
<path d="M14.0347 14.4529L13.1547 11.9729C13.0797 11.7579 12.8747 11.628 12.6597 11.633C12.4447 11.628 12.2397 11.7579 12.1647 11.9729L11.2847 14.4529C11.1897 14.7179 11.3297 15.0129 11.5947 15.1079L11.6197 15.1179C11.8847 15.2129 12.1797 15.073 12.2747 14.808L12.6597 13.7229L13.0447 14.808C13.1397 15.073 13.4297 15.2129 13.6997 15.1179L13.7247 15.1079C13.9897 15.0129 14.1297 14.7229 14.0347 14.4529Z" fill="white"/>
</svg>
