<svg width="32" height="32" viewBox="0 0 32 32" fill="none" xmlns="http://www.w3.org/2000/svg">
<path d="M19.7169 10.6558L21.9689 4.80774C22.0592 4.66987 22.1076 4.50877 22.1081 4.34393C22.1086 4.1791 22.0612 4.01763 21.9718 3.87921C21.8823 3.74078 21.7545 3.63133 21.604 3.56415C21.4535 3.49696 21.2867 3.47492 21.1239 3.50073H10.2239C10.0614 3.47562 9.89502 3.49826 9.74507 3.56579C9.59512 3.63333 9.46796 3.74287 9.37904 3.88122C9.29012 4.01957 9.2433 4.18076 9.24415 4.34521C9.24501 4.50967 9.29351 4.67032 9.38386 4.80774L11.6309 10.6558" fill="#F4A12B"/>
<path d="M11.5 9.51953H20.5C22.3565 9.51953 24.137 10.257 25.4497 11.5698C26.7625 12.8825 27.5 14.663 27.5 16.5195V24.4995C27.5 25.5604 27.0786 26.5778 26.3284 27.328C25.5783 28.0781 24.5609 28.4995 23.5 28.4995H8.5C7.43913 28.4995 6.42172 28.0781 5.67157 27.328C4.92143 26.5778 4.5 25.5604 4.5 24.4995V16.5195C4.5 14.663 5.2375 12.8825 6.55025 11.5698C7.86301 10.257 9.64348 9.51953 11.5 9.51953Z" fill="#F4A12B"/>
<path d="M20.7816 7.42285H10.5566C10.0044 7.42285 9.55664 7.87057 9.55664 8.42285V9.21685C9.55664 9.76914 10.0044 10.2169 10.5566 10.2169H20.7816C21.3339 10.2169 21.7816 9.76914 21.7816 9.21685V8.42285C21.7816 7.87057 21.3339 7.42285 20.7816 7.42285Z" fill="#9F5700"/>
</svg>
