<svg width="36" height="36" viewBox="0 0 36 36" fill="none" xmlns="http://www.w3.org/2000/svg">
<path d="M30.2662 33.0167H5.7332C4.88451 33.0167 4.07058 32.6795 3.47046 32.0794C2.87034 31.4793 2.5332 30.6654 2.5332 29.8167V13.5967H33.4662V29.8167C33.4662 30.6654 33.1291 31.4793 32.5289 32.0794C31.9288 32.6795 31.1149 33.0167 30.2662 33.0167Z" fill="white"/>
<path d="M30.267 33.5505H5.733C4.74335 33.5492 3.79462 33.1554 3.09483 32.4556C2.39504 31.7559 2.00132 30.8071 2 29.8175V13.0635H34V29.8175C33.9987 30.8071 33.605 31.7559 32.9052 32.4556C32.2054 33.1554 31.2566 33.5492 30.267 33.5505ZM3.067 14.1305V29.8175C3.06779 30.5246 3.34904 31.2025 3.84902 31.7025C4.34901 32.2024 5.02691 32.4837 5.734 32.4845H30.267C30.9741 32.4837 31.652 32.2024 32.152 31.7025C32.652 31.2025 32.9332 30.5246 32.934 29.8175V14.1305H3.067Z" fill="#111111"/>
<path d="M5.7332 6.12988H30.2662C31.1149 6.12988 31.9288 6.46702 32.5289 7.06714C33.1291 7.66726 33.4662 8.48119 33.4662 9.32988V13.5969H2.5332V9.32988C2.5332 8.48119 2.87034 7.66726 3.47046 7.06714C4.07058 6.46702 4.88451 6.12988 5.7332 6.12988Z" fill="#B9B5EF"/>
<path d="M34 14.1277H2V9.32768C2.00185 8.33838 2.39581 7.39016 3.09554 6.6908C3.79527 5.99145 4.7437 5.598 5.733 5.59668H30.267C31.2563 5.598 32.2047 5.99145 32.9045 6.6908C33.6042 7.39016 33.9981 8.33838 34 9.32768V14.1277ZM3.067 13.0637H32.933V9.32768C32.9322 8.62059 32.651 7.94269 32.151 7.4427C31.651 6.94272 30.9731 6.66147 30.266 6.66068H5.733C5.02608 6.66174 4.34844 6.9431 3.84867 7.44306C3.3489 7.94301 3.06779 8.62076 3.067 9.32768V13.0637Z" fill="#111111"/>
<path d="M10.2669 9.93344C10.0217 9.93344 9.77896 9.88515 9.55244 9.79132C9.32593 9.6975 9.12011 9.55998 8.94675 9.38661C8.77338 9.21324 8.63586 9.00742 8.54203 8.78091C8.44821 8.5544 8.39991 8.31162 8.39991 8.06644V5.40044C8.39416 5.15169 8.43818 4.9043 8.52939 4.67281C8.6206 4.44132 8.75717 4.23039 8.93106 4.05243C9.10495 3.87447 9.31266 3.73306 9.54198 3.63651C9.7713 3.53997 10.0176 3.49023 10.2664 3.49023C10.5152 3.49023 10.7615 3.53997 10.9909 3.63651C11.2202 3.73306 11.4279 3.87447 11.6018 4.05243C11.7757 4.23039 11.9122 4.44132 12.0034 4.67281C12.0947 4.9043 12.1387 5.15169 12.1329 5.40044V8.06644C12.1329 8.56143 11.9363 9.03615 11.5864 9.38626C11.2365 9.73636 10.7619 9.93318 10.2669 9.93344Z" fill="white"/>
<path d="M10.2672 10.467C9.63067 10.467 9.02022 10.2141 8.57013 9.76406C8.12004 9.31397 7.86719 8.70352 7.86719 8.067V5.4C7.86719 4.76348 8.12004 4.15303 8.57013 3.70294C9.02022 3.25286 9.63067 3 10.2672 3C10.9037 3 11.5142 3.25286 11.9642 3.70294C12.4143 4.15303 12.6672 4.76348 12.6672 5.4V8.067C12.6672 8.70352 12.4143 9.31397 11.9642 9.76406C11.5142 10.2141 10.9037 10.467 10.2672 10.467ZM10.2672 4.067C9.91382 4.06753 9.57507 4.20814 9.3252 4.45801C9.07533 4.70788 8.93472 5.04663 8.93419 5.4V8.067C8.93419 8.24212 8.96868 8.41552 9.03569 8.57731C9.10271 8.7391 9.20093 8.8861 9.32476 9.00993C9.44859 9.13375 9.59559 9.23198 9.75738 9.29899C9.91917 9.36601 10.0926 9.4005 10.2677 9.4005C10.4428 9.4005 10.6162 9.36601 10.778 9.29899C10.9398 9.23198 11.0868 9.13375 11.2106 9.00993C11.3344 8.8861 11.4327 8.7391 11.4997 8.57731C11.5667 8.41552 11.6012 8.24212 11.6012 8.067V5.4C11.6007 5.04646 11.4599 4.70756 11.2098 4.45766C10.9597 4.20776 10.6207 4.06726 10.2672 4.067Z" fill="#111111"/>
<path d="M25.7342 9.93297C25.239 9.93297 24.7642 9.73627 24.414 9.38613C24.0639 9.036 23.8672 8.56113 23.8672 8.06597V5.39997C23.8785 4.91242 24.0801 4.44864 24.4289 4.10782C24.7777 3.76699 25.246 3.57617 25.7337 3.57617C26.2214 3.57617 26.6897 3.76699 27.0385 4.10782C27.3873 4.44864 27.5889 4.91242 27.6002 5.39997V8.06597C27.6002 8.56095 27.4036 9.03568 27.0537 9.38578C26.7038 9.73588 26.2292 9.9327 25.7342 9.93297Z" fill="white"/>
<path d="M25.733 10.467C25.0965 10.467 24.486 10.2141 24.0359 9.76406C23.5859 9.31397 23.333 8.70352 23.333 8.067V5.4C23.333 4.76348 23.5859 4.15303 24.0359 3.70294C24.486 3.25286 25.0965 3 25.733 3C26.3695 3 26.98 3.25286 27.4301 3.70294C27.8802 4.15303 28.133 4.76348 28.133 5.4V8.067C28.133 8.70352 27.8802 9.31397 27.4301 9.76406C26.98 10.2141 26.3695 10.467 25.733 10.467ZM25.733 4.067C25.3796 4.06753 25.0409 4.20814 24.791 4.45801C24.5411 4.70788 24.4005 5.04663 24.4 5.4V8.067C24.4 8.42067 24.5405 8.75985 24.7906 9.00993C25.0407 9.26001 25.3798 9.4005 25.7335 9.4005C26.0872 9.4005 26.4264 9.26001 26.6764 9.00993C26.9265 8.75985 27.067 8.42067 27.067 8.067V5.4C27.0665 5.04646 26.9257 4.70756 26.6756 4.45766C26.4256 4.20776 26.0866 4.06726 25.733 4.067Z" fill="#111111"/>
<path d="M10.6291 27.0353H5.84908V26.2043L8.19508 23.6503C8.49719 23.3379 8.76258 22.992 8.98608 22.6193C9.12367 22.3787 9.19863 22.1074 9.20408 21.8303C9.21333 21.5344 9.11289 21.2456 8.92208 21.0193C8.82777 20.9111 8.7103 20.8255 8.57838 20.7689C8.44647 20.7123 8.3035 20.6861 8.16008 20.6923C7.98681 20.6783 7.81259 20.7029 7.65002 20.7645C7.48745 20.8261 7.3406 20.923 7.22008 21.0483C7.00179 21.3267 6.89262 21.6751 6.91308 22.0283H5.75008L5.74008 21.9993C5.72478 21.7009 5.77283 21.4026 5.88107 21.1241C5.98931 20.8455 6.15528 20.5931 6.36808 20.3833C6.60652 20.1583 6.88828 19.9841 7.19619 19.8715C7.50411 19.7589 7.83172 19.7102 8.15908 19.7283C8.76099 19.6956 9.35146 19.9019 9.80208 20.3023C10.0022 20.4959 10.1591 20.7296 10.2625 20.9881C10.3659 21.2467 10.4135 21.5241 10.4021 21.8023C10.4 22.2214 10.2789 22.6313 10.0531 22.9843C9.73356 23.472 9.37184 23.9308 8.97208 24.3553L7.37208 26.0423L7.38608 26.0713H10.6291V27.0353Z" fill="#111111"/>
<path d="M16.0549 24.2639C16.1077 25.0309 15.8827 25.7912 15.4209 26.4059C15.1978 26.639 14.9298 26.8245 14.6331 26.9512C14.3363 27.0779 14.017 27.1432 13.6944 27.1432C13.3717 27.1432 13.0524 27.0779 12.7557 26.9512C12.459 26.8245 12.191 26.639 11.9679 26.4059C11.5034 25.7924 11.2767 25.0315 11.3299 24.2639V22.6119C11.2778 21.8452 11.5024 21.0852 11.9629 20.4699C12.1853 20.2354 12.4531 20.0486 12.75 19.921C13.0469 19.7934 13.3667 19.7275 13.6899 19.7275C14.0131 19.7275 14.3329 19.7934 14.6298 19.921C14.9267 20.0486 15.1945 20.2354 15.4169 20.4699C15.8801 21.084 16.1066 21.8444 16.0549 22.6119V24.2639ZM14.8549 22.4319C14.8868 21.9752 14.7824 21.5192 14.5549 21.1219C14.4529 20.9897 14.3219 20.8827 14.172 20.809C14.0221 20.7354 13.8574 20.6971 13.6904 20.6971C13.5234 20.6971 13.3586 20.7354 13.2087 20.809C13.0589 20.8827 12.9279 20.9897 12.8259 21.1219C12.6009 21.5201 12.4983 21.9757 12.5309 22.4319V24.4319C12.4979 24.8913 12.6023 25.3501 12.8309 25.7499C12.9272 25.8891 13.0575 26.0014 13.2094 26.0761C13.3613 26.1508 13.5298 26.1855 13.6989 26.1769C13.8668 26.1862 14.0343 26.1519 14.1852 26.0775C14.336 26.003 14.4651 25.8909 14.5599 25.7519C14.7837 25.3494 14.8852 24.8903 14.8519 24.4309L14.8549 22.4319Z" fill="#111111"/>
<path d="M21.163 23.7973C20.0186 23.9952 18.8583 24.0866 17.697 24.0703H17.082V19.8703H17.988V23.3213C19.0227 23.3218 20.0555 23.2335 21.075 23.0573L21.163 23.7973ZM23.415 26.3753V27.1143H18.058V24.6683H18.964V26.3753H23.415ZM22.305 22.5133H20.195V21.7923H22.305V21.0093H20.195V20.2873H22.305V19.3213H23.211V25.1893H22.305V22.5133Z" fill="#111111"/>
<path d="M27.9402 26.8561C27.7989 26.8561 27.6633 26.8 27.5633 26.7C27.4634 26.6001 27.4072 26.4645 27.4072 26.3231V19.9231C27.4072 19.7817 27.4634 19.646 27.5635 19.5459C27.6635 19.4459 27.7992 19.3896 27.9407 19.3896C28.0822 19.3896 28.2179 19.4459 28.318 19.5459C28.418 19.646 28.4742 19.7817 28.4742 19.9231V26.3231C28.4742 26.4645 28.4181 26.6001 28.3181 26.7C28.2182 26.8 28.0816 26.8561 27.9402 26.8561Z" fill="#111111"/>
<path d="M27.933 27.7163C27.793 27.716 27.6586 27.6607 27.559 27.5623L25.395 25.4293C25.3452 25.3801 25.3055 25.3216 25.2783 25.2571C25.2511 25.1926 25.2368 25.1234 25.2363 25.0534C25.2359 24.9833 25.2492 24.9139 25.2756 24.8491C25.3019 24.7842 25.3408 24.7252 25.39 24.6753C25.4392 24.6255 25.4977 24.5858 25.5622 24.5586C25.6267 24.5314 25.6959 24.5171 25.766 24.5167C25.836 24.5162 25.9054 24.5295 25.9703 24.5559C26.0351 24.5823 26.0942 24.6211 26.144 24.6703L27.929 26.4293L29.655 24.6733C29.7543 24.5727 29.8896 24.5156 30.031 24.5147C30.1724 24.5137 30.3084 24.569 30.409 24.6683C30.5097 24.7676 30.5667 24.9029 30.5677 25.0443C30.5686 25.1857 30.5133 25.3217 30.414 25.4223L28.314 27.5553C28.2648 27.6052 28.2063 27.645 28.1418 27.6722C28.0773 27.6995 28.008 27.7138 27.938 27.7143L27.933 27.7163Z" fill="#111111"/>
</svg>
