<svg width="36" height="36" viewBox="0 0 36 36" fill="none" xmlns="http://www.w3.org/2000/svg">
<path d="M30.2662 33.0167H5.7332C4.88451 33.0167 4.07058 32.6795 3.47046 32.0794C2.87034 31.4793 2.5332 30.6654 2.5332 29.8167V13.5967H33.4662V29.8167C33.4662 30.2369 33.3834 30.653 33.2226 31.0413C33.0618 31.4295 32.8261 31.7823 32.5289 32.0794C32.2318 32.3766 31.879 32.6123 31.4908 32.7731C31.1025 32.9339 30.6864 33.0167 30.2662 33.0167Z" fill="white"/>
<path d="M30.267 33.5515H5.733C4.74335 33.5501 3.79462 33.1564 3.09483 32.4566C2.39504 31.7568 2.00132 30.8081 2 29.8185V13.0645H34V29.8185C33.9987 30.8081 33.605 31.7568 32.9052 32.4566C32.2054 33.1564 31.2566 33.5501 30.267 33.5515ZM3.067 14.1315V29.8185C3.06806 30.5252 3.34928 31.2027 3.84902 31.7024C4.34876 32.2022 5.02626 32.4834 5.733 32.4845H30.267C30.9741 32.4837 31.652 32.2024 32.152 31.7024C32.652 31.2024 32.9332 30.5245 32.934 29.8175V14.1315H3.067Z" fill="#111111"/>
<path d="M5.7332 6.13086H30.2662C31.1149 6.13086 31.9288 6.468 32.5289 7.06812C33.1291 7.66823 33.4662 8.48217 33.4662 9.33086V13.5979H2.5332V9.33086C2.5332 8.48217 2.87034 7.66823 3.47046 7.06812C4.07058 6.468 4.88451 6.13086 5.7332 6.13086Z" fill="#B9B5EF"/>
<path d="M34 14.1267H2V9.32668C2.00212 8.33755 2.39619 7.38959 3.09589 6.69045C3.79559 5.99131 4.74387 5.598 5.733 5.59668H30.267C31.2561 5.598 32.2044 5.99131 32.9041 6.69045C33.6038 7.38959 33.9979 8.33755 34 9.32668V14.1267ZM3.067 13.0637H32.933V9.32668C32.9322 8.61959 32.651 7.94169 32.151 7.4417C31.651 6.94172 30.9731 6.66047 30.266 6.65968H5.733C5.02608 6.66074 4.34844 6.9421 3.84867 7.44206C3.3489 7.94201 3.06779 8.61976 3.067 9.32668V13.0637Z" fill="#111111"/>
<path d="M10.2669 9.93344C10.0217 9.93344 9.77896 9.88515 9.55244 9.79132C9.32593 9.6975 9.12011 9.55998 8.94675 9.38661C8.77338 9.21324 8.63586 9.00742 8.54203 8.78091C8.44821 8.5544 8.39991 8.31162 8.39991 8.06644V5.40044C8.39416 5.15169 8.43818 4.9043 8.52939 4.67281C8.6206 4.44132 8.75717 4.23039 8.93106 4.05243C9.10495 3.87447 9.31266 3.73306 9.54198 3.63651C9.7713 3.53997 10.0176 3.49023 10.2664 3.49023C10.5152 3.49023 10.7615 3.53997 10.9909 3.63651C11.2202 3.73306 11.4279 3.87447 11.6018 4.05243C11.7757 4.23039 11.9122 4.44132 12.0034 4.67281C12.0947 4.9043 12.1387 5.15169 12.1329 5.40044V8.06644C12.1329 8.56143 11.9363 9.03615 11.5864 9.38626C11.2365 9.73636 10.7619 9.93318 10.2669 9.93344Z" fill="white"/>
<path d="M10.2672 10.467C9.63067 10.467 9.02022 10.2141 8.57013 9.76406C8.12004 9.31397 7.86719 8.70352 7.86719 8.067V5.4C7.86719 4.76348 8.12004 4.15303 8.57013 3.70294C9.02022 3.25286 9.63067 3 10.2672 3C10.9037 3 11.5142 3.25286 11.9642 3.70294C12.4143 4.15303 12.6672 4.76348 12.6672 5.4V8.067C12.6672 8.70352 12.4143 9.31397 11.9642 9.76406C11.5142 10.2141 10.9037 10.467 10.2672 10.467ZM10.2672 4.067C9.91382 4.06753 9.57507 4.20814 9.3252 4.45801C9.07533 4.70788 8.93472 5.04663 8.93419 5.4V8.067C8.93419 8.24212 8.96868 8.41552 9.03569 8.57731C9.10271 8.7391 9.20093 8.8861 9.32476 9.00993C9.44859 9.13375 9.59559 9.23198 9.75738 9.29899C9.91917 9.36601 10.0926 9.4005 10.2677 9.4005C10.4428 9.4005 10.6162 9.36601 10.778 9.29899C10.9398 9.23198 11.0868 9.13375 11.2106 9.00993C11.3344 8.8861 11.4327 8.7391 11.4997 8.57731C11.5667 8.41552 11.6012 8.24212 11.6012 8.067V5.4C11.6007 5.04646 11.4599 4.70756 11.2098 4.45766C10.9597 4.20776 10.6207 4.06726 10.2672 4.067Z" fill="#111111"/>
<path d="M25.7342 9.93297C25.239 9.93297 24.7642 9.73627 24.414 9.38613C24.0639 9.036 23.8672 8.56113 23.8672 8.06597V5.39997C23.8785 4.91242 24.0801 4.44864 24.4289 4.10782C24.7777 3.76699 25.246 3.57617 25.7337 3.57617C26.2214 3.57617 26.6897 3.76699 27.0385 4.10782C27.3873 4.44864 27.5889 4.91242 27.6002 5.39997V8.06597C27.6002 8.56095 27.4036 9.03568 27.0537 9.38578C26.7038 9.73588 26.2292 9.9327 25.7342 9.93297Z" fill="white"/>
<path d="M25.733 10.467C25.0965 10.467 24.486 10.2141 24.0359 9.76406C23.5859 9.31397 23.333 8.70352 23.333 8.067V5.4C23.333 4.76348 23.5859 4.15303 24.0359 3.70294C24.486 3.25286 25.0965 3 25.733 3C26.3695 3 26.98 3.25286 27.4301 3.70294C27.8802 4.15303 28.133 4.76348 28.133 5.4V8.067C28.133 8.70352 27.8802 9.31397 27.4301 9.76406C26.98 10.2141 26.3695 10.467 25.733 10.467ZM25.733 4.067C25.3796 4.06753 25.0409 4.20814 24.791 4.45801C24.5411 4.70788 24.4005 5.04663 24.4 5.4V8.067C24.4 8.42067 24.5405 8.75985 24.7906 9.00993C25.0407 9.26001 25.3798 9.4005 25.7335 9.4005C26.0872 9.4005 26.4264 9.26001 26.6764 9.00993C26.9265 8.75985 27.067 8.42067 27.067 8.067V5.4C27.0665 5.04646 26.9257 4.70756 26.6756 4.45766C26.4256 4.20776 26.0866 4.06726 25.733 4.067Z" fill="#111111"/>
<path d="M13.8704 27.0353H9.08639V26.2043L11.4314 23.6503C11.734 23.3381 11.9997 22.9921 12.2234 22.6193C12.361 22.3787 12.4359 22.1074 12.4414 21.8303C12.4506 21.5344 12.3502 21.2456 12.1594 21.0193C12.0651 20.9111 11.9476 20.8255 11.8157 20.7689C11.6838 20.7123 11.5408 20.6861 11.3974 20.6923C11.2241 20.6783 11.0499 20.7029 10.8873 20.7645C10.7248 20.8261 10.5779 20.923 10.4574 21.0483C10.2391 21.3267 10.1299 21.6751 10.1504 22.0283H8.98739L8.97739 21.9993C8.96209 21.7009 9.01013 21.4026 9.11837 21.1241C9.22661 20.8455 9.39259 20.5931 9.60539 20.3833C9.84382 20.1583 10.1256 19.9841 10.4335 19.8715C10.7414 19.7589 11.069 19.7102 11.3964 19.7283C11.9983 19.6955 12.5888 19.9018 13.0394 20.3023C13.2395 20.4959 13.3964 20.7296 13.4998 20.9881C13.6032 21.2467 13.6508 21.5241 13.6394 21.8023C13.6373 22.2214 13.5162 22.6313 13.2904 22.9843C12.9708 23.472 12.6091 23.9308 12.2094 24.3553L10.6094 26.0423L10.6244 26.0713H13.8704V27.0353Z" fill="#111111"/>
<path d="M18.8886 23.7973C17.7442 23.9953 16.5839 24.0867 15.4226 24.0703H14.8076V19.8703H15.7136V23.3203C16.7483 23.3208 17.7811 23.2321 18.8006 23.0553L18.8886 23.7973ZM21.1406 26.3753V27.1143H15.7886V24.6683H16.6946V26.3753H21.1406ZM20.0326 22.5133H17.9256V21.7913H20.0366V21.0083H17.9256V20.2863H20.0366V19.3203H20.9426V25.1883H20.0366L20.0326 22.5133Z" fill="#111111"/>
<path d="M25.2801 27.7175C25.2101 27.7175 25.1408 27.7037 25.0761 27.6769C25.0114 27.6501 24.9527 27.6109 24.9032 27.5614C24.8537 27.5119 24.8144 27.4531 24.7876 27.3884C24.7609 27.3238 24.7471 27.2545 24.7471 27.1845V20.7845C24.7471 20.643 24.8033 20.5073 24.9033 20.4072C25.0034 20.3072 25.1391 20.251 25.2806 20.251C25.4221 20.251 25.5578 20.3072 25.6578 20.4072C25.7579 20.5073 25.8141 20.643 25.8141 20.7845V27.1845C25.8141 27.2545 25.8003 27.3238 25.7735 27.3884C25.7467 27.4531 25.7075 27.5119 25.658 27.5614C25.6085 27.6109 25.5497 27.6501 25.485 27.6769C25.4204 27.7037 25.3511 27.7175 25.2811 27.7175" fill="#111111"/>
<path d="M23.1856 22.5926C23.0803 22.5929 22.9773 22.5619 22.8896 22.5037C22.8018 22.4454 22.7333 22.3625 22.6927 22.2654C22.652 22.1683 22.6411 22.0613 22.6612 21.9579C22.6813 21.8545 22.7315 21.7595 22.8056 21.6846L24.9056 19.5516C25.0049 19.4509 25.1402 19.3937 25.2816 19.3926C25.3519 19.3917 25.4216 19.4048 25.4867 19.4313C25.5518 19.4577 25.6109 19.4969 25.6606 19.5466L27.8286 21.6796C27.9293 21.7789 27.9863 21.9142 27.9873 22.0556C27.9882 22.197 27.9329 22.333 27.8336 22.4336C27.7343 22.5343 27.599 22.5913 27.4576 22.5923C27.3162 22.5932 27.1803 22.538 27.0796 22.4386L25.2946 20.6796L23.5666 22.4336C23.517 22.4841 23.4579 22.5241 23.3926 22.5514C23.3274 22.5787 23.2563 22.5927 23.1856 22.5926Z" fill="#111111"/>
</svg>
