<svg width="36" height="36" viewBox="0 0 36 36" fill="none" xmlns="http://www.w3.org/2000/svg">
<path d="M30.2662 33.0167H5.7332C4.88451 33.0167 4.07058 32.6795 3.47046 32.0794C2.87034 31.4793 2.5332 30.6654 2.5332 29.8167V13.5967H33.4662V29.8167C33.4662 30.2369 33.3834 30.653 33.2226 31.0413C33.0618 31.4295 32.8261 31.7823 32.5289 32.0794C32.2318 32.3766 31.879 32.6123 31.4908 32.7731C31.1025 32.9339 30.6864 33.0167 30.2662 33.0167Z" fill="white"/>
<path d="M30.267 33.5515H5.733C4.74335 33.5501 3.79462 33.1564 3.09483 32.4566C2.39504 31.7568 2.00132 30.8081 2 29.8185V13.0645H34V29.8185C33.9987 30.8081 33.605 31.7568 32.9052 32.4566C32.2054 33.1564 31.2566 33.5501 30.267 33.5515ZM3.067 14.1315V29.8185C3.06806 30.5252 3.34928 31.2027 3.84902 31.7024C4.34876 32.2022 5.02626 32.4834 5.733 32.4845H30.267C30.9741 32.4837 31.652 32.2024 32.152 31.7024C32.652 31.2024 32.9332 30.5245 32.934 29.8175V14.1315H3.067Z" fill="#111111"/>
<path d="M5.7332 6.13086H30.2662C31.1149 6.13086 31.9288 6.468 32.5289 7.06812C33.1291 7.66823 33.4662 8.48217 33.4662 9.33086V13.5979H2.5332V9.33086C2.5332 8.48217 2.87034 7.66823 3.47046 7.06812C4.07058 6.468 4.88451 6.13086 5.7332 6.13086Z" fill="#B9B5EF"/>
<path d="M34 14.1267H2V9.32668C2.00212 8.33755 2.39619 7.38959 3.09589 6.69045C3.79559 5.99131 4.74387 5.598 5.733 5.59668H30.267C31.2561 5.598 32.2044 5.99131 32.9041 6.69045C33.6038 7.38959 33.9979 8.33755 34 9.32668V14.1267ZM3.067 13.0637H32.933V9.32668C32.9322 8.61959 32.651 7.94169 32.151 7.4417C31.651 6.94172 30.9731 6.66047 30.266 6.65968H5.733C5.02608 6.66074 4.34844 6.9421 3.84867 7.44206C3.3489 7.94201 3.06779 8.61976 3.067 9.32668V13.0637Z" fill="#111111"/>
<path d="M10.2669 9.93344C10.0217 9.93344 9.77896 9.88515 9.55244 9.79132C9.32593 9.6975 9.12011 9.55998 8.94675 9.38661C8.77338 9.21324 8.63586 9.00742 8.54203 8.78091C8.44821 8.5544 8.39991 8.31162 8.39991 8.06644V5.40044C8.39416 5.15169 8.43818 4.9043 8.52939 4.67281C8.6206 4.44132 8.75717 4.23039 8.93106 4.05243C9.10495 3.87447 9.31266 3.73306 9.54198 3.63651C9.7713 3.53997 10.0176 3.49023 10.2664 3.49023C10.5152 3.49023 10.7615 3.53997 10.9909 3.63651C11.2202 3.73306 11.4279 3.87447 11.6018 4.05243C11.7757 4.23039 11.9122 4.44132 12.0034 4.67281C12.0947 4.9043 12.1387 5.15169 12.1329 5.40044V8.06644C12.1329 8.56143 11.9363 9.03615 11.5864 9.38626C11.2365 9.73636 10.7619 9.93318 10.2669 9.93344Z" fill="white"/>
<path d="M10.2672 10.467C9.63067 10.467 9.02022 10.2141 8.57013 9.76406C8.12004 9.31397 7.86719 8.70352 7.86719 8.067V5.4C7.86719 4.76348 8.12004 4.15303 8.57013 3.70294C9.02022 3.25286 9.63067 3 10.2672 3C10.9037 3 11.5142 3.25286 11.9642 3.70294C12.4143 4.15303 12.6672 4.76348 12.6672 5.4V8.067C12.6672 8.70352 12.4143 9.31397 11.9642 9.76406C11.5142 10.2141 10.9037 10.467 10.2672 10.467ZM10.2672 4.067C9.91382 4.06753 9.57507 4.20814 9.3252 4.45801C9.07533 4.70788 8.93472 5.04663 8.93419 5.4V8.067C8.93419 8.24212 8.96868 8.41552 9.03569 8.57731C9.10271 8.7391 9.20093 8.8861 9.32476 9.00993C9.44859 9.13375 9.59559 9.23198 9.75738 9.29899C9.91917 9.36601 10.0926 9.4005 10.2677 9.4005C10.4428 9.4005 10.6162 9.36601 10.778 9.29899C10.9398 9.23198 11.0868 9.13375 11.2106 9.00993C11.3344 8.8861 11.4327 8.7391 11.4997 8.57731C11.5667 8.41552 11.6012 8.24212 11.6012 8.067V5.4C11.6007 5.04646 11.4599 4.70756 11.2098 4.45766C10.9597 4.20776 10.6207 4.06726 10.2672 4.067Z" fill="#111111"/>
<path d="M25.7342 9.93297C25.239 9.93297 24.7642 9.73627 24.414 9.38613C24.0639 9.036 23.8672 8.56113 23.8672 8.06597V5.39997C23.8785 4.91242 24.0801 4.44864 24.4289 4.10782C24.7777 3.76699 25.246 3.57617 25.7337 3.57617C26.2214 3.57617 26.6897 3.76699 27.0385 4.10782C27.3873 4.44864 27.5889 4.91242 27.6002 5.39997V8.06597C27.6002 8.56095 27.4036 9.03568 27.0537 9.38578C26.7038 9.73588 26.2292 9.9327 25.7342 9.93297Z" fill="white"/>
<path d="M25.733 10.467C25.0965 10.467 24.486 10.2141 24.0359 9.76406C23.5859 9.31397 23.333 8.70352 23.333 8.067V5.4C23.333 4.76348 23.5859 4.15303 24.0359 3.70294C24.486 3.25286 25.0965 3 25.733 3C26.3695 3 26.98 3.25286 27.4301 3.70294C27.8802 4.15303 28.133 4.76348 28.133 5.4V8.067C28.133 8.70352 27.8802 9.31397 27.4301 9.76406C26.98 10.2141 26.3695 10.467 25.733 10.467ZM25.733 4.067C25.3796 4.06753 25.0409 4.20814 24.791 4.45801C24.5411 4.70788 24.4005 5.04663 24.4 5.4V8.067C24.4 8.42067 24.5405 8.75985 24.7906 9.00993C25.0407 9.26001 25.3798 9.4005 25.7335 9.4005C26.0872 9.4005 26.4264 9.26001 26.6764 9.00993C26.9265 8.75985 27.067 8.42067 27.067 8.067V5.4C27.0665 5.04646 26.9257 4.70756 26.6756 4.45766C26.4256 4.20776 26.0866 4.06726 25.733 4.067Z" fill="#111111"/>
<path d="M10.6291 27.0353H5.84908V26.2043L8.19508 23.6503C8.49719 23.3379 8.76258 22.992 8.98608 22.6193C9.12367 22.3787 9.19863 22.1074 9.20408 21.8303C9.21333 21.5344 9.11289 21.2456 8.92208 21.0193C8.82782 20.911 8.71035 20.8254 8.57842 20.7688C8.4465 20.7122 8.30351 20.686 8.16008 20.6923C7.98681 20.6783 7.81259 20.7029 7.65002 20.7645C7.48745 20.8261 7.3406 20.923 7.22008 21.0483C7.00179 21.3267 6.89262 21.6751 6.91308 22.0283H5.75008L5.74008 21.9993C5.72478 21.7009 5.77283 21.4026 5.88107 21.1241C5.98931 20.8455 6.15528 20.5931 6.36808 20.3833C6.60652 20.1583 6.88828 19.9841 7.19619 19.8715C7.50411 19.7589 7.83172 19.7102 8.15908 19.7283C8.76099 19.6956 9.35146 19.9019 9.80208 20.3023C10.0022 20.4959 10.1591 20.7296 10.2625 20.9881C10.3659 21.2467 10.4135 21.5241 10.4021 21.8023C10.4 22.2214 10.2789 22.6313 10.0531 22.9843C9.73356 23.472 9.37184 23.9308 8.97208 24.3553L7.37208 26.0423L7.38608 26.0713H10.6291V27.0353Z" fill="#111111"/>
<path d="M16.0549 24.2629C16.1077 25.0299 15.8827 25.7902 15.4209 26.4049C15.1978 26.638 14.9298 26.8235 14.6331 26.9502C14.3363 27.0769 14.017 27.1422 13.6944 27.1422C13.3717 27.1422 13.0524 27.0769 12.7557 26.9502C12.459 26.8235 12.191 26.638 11.9679 26.4049C11.5034 25.7914 11.2767 25.0305 11.3299 24.2629V22.6119C11.2778 21.8452 11.5024 21.0852 11.9629 20.4699C12.1853 20.2354 12.4531 20.0486 12.75 19.921C13.0469 19.7934 13.3667 19.7275 13.6899 19.7275C14.0131 19.7275 14.3329 19.7934 14.6298 19.921C14.9267 20.0486 15.1945 20.2354 15.4169 20.4699C15.8801 21.084 16.1066 21.8444 16.0549 22.6119V24.2629ZM14.8549 22.4309C14.8868 21.9742 14.7824 21.5182 14.5549 21.1209C14.4529 20.9887 14.3219 20.8817 14.172 20.808C14.0221 20.7344 13.8574 20.6961 13.6904 20.6961C13.5234 20.6961 13.3586 20.7344 13.2087 20.808C13.0589 20.8817 12.9279 20.9887 12.8259 21.1209C12.6009 21.5191 12.4983 21.9747 12.5309 22.4309V24.4309C12.4979 24.8903 12.6023 25.3491 12.8309 25.7489C12.9272 25.8881 13.0575 26.0004 13.2094 26.0751C13.3613 26.1498 13.5298 26.1845 13.6989 26.1759C13.8668 26.1852 14.0343 26.1509 14.1852 26.0765C14.336 26.002 14.4651 25.8899 14.5599 25.7509C14.7837 25.3484 14.8852 24.8893 14.8519 24.4299L14.8549 22.4309Z" fill="#111111"/>
<path d="M21.163 23.7973C20.0186 23.9953 18.8583 24.0867 17.697 24.0703H17.082V19.8703H17.988V23.3203C19.0227 23.3208 20.0555 23.2325 21.075 23.0563L21.163 23.7973ZM23.415 26.3753V27.1143H18.058V24.6683H18.964V26.3753H23.415ZM22.305 22.5133H20.195V21.7923H22.305V21.0093H20.195V20.2873H22.305V19.3203H23.211V25.1883H22.305V22.5133Z" fill="#111111"/>
<path d="M27.8631 27.7175C27.7217 27.7175 27.5861 27.6613 27.4862 27.5614C27.3862 27.4614 27.3301 27.3258 27.3301 27.1845V20.7845C27.3301 20.643 27.3863 20.5073 27.4863 20.4072C27.5864 20.3072 27.7221 20.251 27.8636 20.251C28.0051 20.251 28.1408 20.3072 28.2408 20.4072C28.3409 20.5073 28.3971 20.643 28.3971 20.7845V27.1845C28.3971 27.3258 28.3409 27.4614 28.241 27.5614C28.141 27.6613 28.0044 27.7175 27.8631 27.7175Z" fill="#111111"/>
<path d="M25.7691 22.5916C25.6638 22.5918 25.5608 22.5609 25.4731 22.5026C25.3853 22.4444 25.3168 22.3615 25.2762 22.2643C25.2355 22.1672 25.2246 22.0602 25.2447 21.9568C25.2648 21.8535 25.315 21.7584 25.3891 21.6836L27.4891 19.5506C27.5884 19.4499 27.7237 19.3927 27.8651 19.3916C27.936 19.385 28.0074 19.3955 28.0734 19.4223C28.1394 19.4491 28.1979 19.4914 28.2441 19.5456L30.4081 21.6786C30.5087 21.7779 30.5658 21.9131 30.5668 22.0545C30.5677 22.1959 30.5124 22.3319 30.4131 22.4326C30.3138 22.5332 30.1785 22.5903 30.0371 22.5912C29.8957 22.5922 29.7598 22.5369 29.6591 22.4376L27.8741 20.6786L26.1461 22.4326C26.0965 22.483 26.0374 22.523 25.9721 22.5503C25.9069 22.5776 25.8368 22.5916 25.7661 22.5916" fill="#111111"/>
</svg>
