<svg width="36" height="36" viewBox="0 0 36 36" fill="none" xmlns="http://www.w3.org/2000/svg">
<path d="M28 7.79932H8C6.89543 7.79932 6 8.69475 6 9.79932V28.9993C6 30.1039 6.89543 30.9993 8 30.9993H28C29.1046 30.9993 30 30.1039 30 28.9993V9.79932C30 8.69475 29.1046 7.79932 28 7.79932Z" fill="#E9BAE3"/>
<path d="M21.5307 7.79932H14.4717V30.9993H21.5307V7.79932Z" fill="url(#paint0_linear_262_8416)"/>
<path d="M18.3057 12.2904H17.8857L16.3857 15.8904L15.0967 15.3474L16.4737 12.0394L16.4297 12.0134C15.8605 12.471 15.1595 12.7339 14.4297 12.7634C14.2205 12.7646 14.012 12.738 13.8097 12.6844C12.6297 12.3684 11.7777 11.1994 11.2637 9.21836C10.9993 8.41623 11.058 7.54257 11.4276 6.7831C11.7972 6.02363 12.4483 5.43823 13.2427 5.15136C13.5977 5.02901 13.9736 4.97907 14.3482 5.00449C14.7228 5.02991 15.0886 5.13018 15.4237 5.29936C16.244 5.74469 16.8893 6.45454 17.2547 7.31336C17.341 7.30277 17.4279 7.29809 17.5147 7.29936H18.6997C18.782 7.29939 18.8642 7.30473 18.9457 7.31536C19.3093 6.45389 19.9564 5.74257 20.7797 5.29936C21.1148 5.13031 21.4803 5.03012 21.8548 5.0047C22.2292 4.97928 22.6049 5.02915 22.9597 5.15136C23.7543 5.43802 24.4057 6.02338 24.7753 6.78292C25.1448 7.54246 25.2035 8.41623 24.9387 9.21836C24.4247 11.1984 23.5697 12.3634 22.3947 12.6834C22.1925 12.737 21.984 12.7636 21.7747 12.7624H21.7687C21.0422 12.7334 20.3439 12.4731 19.7757 12.0194L19.7217 12.0504L21.0947 15.3504L19.8057 15.8934L18.3057 12.2904ZM22.0297 11.3224C22.6677 11.1534 23.2157 10.2764 23.5847 8.86436C23.6709 8.63634 23.7111 8.39352 23.7029 8.1499C23.6948 7.90627 23.6385 7.66668 23.5372 7.44494C23.436 7.22321 23.2918 7.02372 23.1131 6.85799C22.9343 6.69226 22.7245 6.56357 22.4957 6.47936C22.3163 6.41813 22.1262 6.394 21.9371 6.40844C21.748 6.42288 21.5639 6.47558 21.3957 6.56336C20.8356 6.88068 20.4037 7.38362 20.1747 7.98536C20.4403 8.29929 20.5996 8.68928 20.6297 9.09936L20.7137 10.1994C20.7316 10.443 20.7041 10.6878 20.6327 10.9214C20.8229 11.0851 21.0462 11.2057 21.2873 11.2749C21.5285 11.3441 21.7817 11.3603 22.0297 11.3224ZM13.7067 6.47936C13.4781 6.5637 13.2683 6.69244 13.0896 6.85817C12.9109 7.02391 12.7668 7.22335 12.6654 7.44503C12.5641 7.66671 12.5077 7.90624 12.4993 8.14983C12.491 8.39342 12.5309 8.63626 12.6167 8.86436C12.9857 10.2814 13.5337 11.1544 14.1707 11.3224C14.4205 11.3583 14.675 11.3396 14.9167 11.2674C15.1585 11.1952 15.3816 11.0714 15.5707 10.9044C15.5005 10.6737 15.4743 10.4318 15.4937 10.1914L15.5797 9.09936C15.6113 8.69472 15.7687 8.31009 16.0297 7.99936C15.8022 7.39319 15.3704 6.88536 14.8087 6.56336C14.6054 6.45991 14.3809 6.40514 14.1527 6.40336C14.0009 6.40365 13.8501 6.42934 13.7067 6.47936Z" fill="#E24949"/>
<defs>
<linearGradient id="paint0_linear_262_8416" x1="18.0012" y1="7.79932" x2="18.0012" y2="30.9993" gradientUnits="userSpaceOnUse">
<stop stop-color="#7E0B6F"/>
<stop offset="1" stop-color="#AD1A7C"/>
</linearGradient>
</defs>
</svg>
