<svg width="36" height="36" viewBox="0 0 36 36" fill="none" xmlns="http://www.w3.org/2000/svg">
<path d="M33.2131 17.8419C33.2135 20.8508 32.3216 23.7923 30.6502 26.2943C28.9789 28.7963 26.603 30.7465 23.8233 31.8983C21.0435 33.05 17.9846 33.3516 15.0334 32.7648C12.0823 32.178 9.37138 30.7293 7.24361 28.6018C5.11583 26.4743 3.66674 23.7636 3.07958 20.8125C2.49242 17.8614 2.79357 14.8025 3.94495 12.0226C5.09632 9.24263 7.04621 6.86657 9.54802 5.19485C12.0498 3.52314 14.9912 2.63086 18.0001 2.63086C22.0344 2.63112 25.9035 4.23373 28.7563 7.08623C31.6092 9.93873 33.2123 13.8075 33.2131 17.8419Z" fill="white"/>
<path d="M18.0001 3.67791C20.8012 3.6781 23.5393 4.50889 25.8683 6.06522C28.1972 7.62155 30.0124 9.83351 31.0842 12.4214C32.1561 15.0093 32.4364 17.857 31.8899 20.6042C31.3434 23.3515 29.9945 25.875 28.0139 27.8557C26.0332 29.8363 23.5097 31.1852 20.7624 31.7317C18.0152 32.2782 15.1675 31.9978 12.5796 30.926C9.99172 29.8542 7.77976 28.039 6.22343 25.7101C4.6671 23.3811 3.83631 20.643 3.83612 17.8419C3.84035 14.0867 5.33398 10.4865 7.98933 7.83112C10.6447 5.17578 14.2449 3.68214 18.0001 3.67791ZM18.0001 2.62891C14.9913 2.62891 12.05 3.52113 9.54823 5.19276C7.04646 6.86439 5.09657 9.24033 3.94514 12.0201C2.7937 14.8 2.49243 17.8588 3.07943 20.8098C3.66643 23.7608 5.11532 26.4715 7.2429 28.5991C9.37048 30.7267 12.0812 32.1756 15.0322 32.7626C17.9832 33.3496 21.0421 33.0483 23.8219 31.8969C26.6017 30.7454 28.9776 28.7956 30.6493 26.2938C32.3209 23.792 33.2131 20.8508 33.2131 17.8419C33.2131 15.8442 32.8196 13.8661 32.0551 12.0204C31.2905 10.1748 30.1699 8.4979 28.7572 7.0854C27.3445 5.6729 25.6674 4.55251 23.8217 3.7882C21.976 3.02389 19.9978 2.63064 18.0001 2.63091" fill="#111111"/>
<path d="M17.9999 4.0998V13.1278C17.9987 13.5327 17.8805 13.9285 17.6595 14.2678C17.4386 14.607 17.1242 14.8751 16.7544 15.0399C16.3846 15.2046 15.975 15.2589 15.575 15.1963C15.175 15.1336 14.8017 14.9567 14.4999 14.6868L7.78892 8.6478C7.56458 8.44552 7.29923 8.29402 7.01099 8.20364C6.72275 8.11327 6.41841 8.08614 6.11873 8.12411C5.81905 8.16208 5.53109 8.26425 5.2745 8.42366C5.01791 8.58307 4.79873 8.79596 4.63192 9.0478C2.73199 11.9367 1.81903 15.3634 2.02975 18.8146C2.24047 22.2658 3.56354 25.556 5.80082 28.1923C8.0381 30.8286 11.0692 32.6692 14.4402 33.4385C17.8112 34.2078 21.3407 33.8643 24.5002 32.4596C27.6597 31.0549 30.2791 28.6645 31.9662 25.6463C33.6533 22.6282 34.3172 19.1447 33.8587 15.7176C33.4001 12.2904 31.8437 9.10407 29.4225 6.63562C27.0013 4.16717 23.8456 2.54948 20.4279 2.0248C20.1281 1.97738 19.8215 1.99554 19.5293 2.07803C19.2372 2.16051 18.9664 2.30536 18.7356 2.50259C18.5048 2.69982 18.3195 2.94474 18.1925 3.22048C18.0655 3.49622 17.9998 3.79622 17.9999 4.0998Z" fill="#B9B5EF"/>
<path d="M13.849 16.4645C13.8552 16.8219 13.7477 17.1721 13.542 17.4645C13.331 17.7598 13.0418 17.9904 12.707 18.1305C13.0903 18.2708 13.4267 18.5157 13.678 18.8375C13.9177 19.1482 14.0449 19.5311 14.039 19.9235C14.0573 20.2239 14.0048 20.5244 13.8856 20.8008C13.7665 21.0771 13.584 21.3216 13.353 21.5145C12.8389 21.9 12.2068 22.0948 11.565 22.0655C10.9194 22.0951 10.2834 21.9004 9.76496 21.5145C9.5338 21.3217 9.35119 21.0772 9.23186 20.8009C9.11252 20.5245 9.05981 20.224 9.07796 19.9235C9.07198 19.5319 9.19731 19.1496 9.43396 18.8375C9.68564 18.5129 10.024 18.266 10.41 18.1255C10.0742 17.9909 9.78431 17.7625 9.57496 17.4675C9.37255 17.1739 9.26759 16.824 9.27496 16.4675C9.25799 16.1812 9.30551 15.8947 9.41403 15.6292C9.52255 15.3637 9.68929 15.1259 9.90196 14.9335C10.3695 14.5566 10.9591 14.3645 11.559 14.3935C12.1585 14.3668 12.7473 14.5587 13.216 14.9335C13.4315 15.1242 13.601 15.3613 13.7115 15.6271C13.822 15.8928 13.8707 16.1802 13.854 16.4675M12.804 19.8615C12.8103 19.6971 12.7824 19.5331 12.722 19.3801C12.6615 19.227 12.5699 19.0882 12.453 18.9725C12.3346 18.8583 12.1944 18.769 12.0408 18.7101C11.8872 18.6512 11.7234 18.6238 11.559 18.6295C11.3946 18.6201 11.2301 18.6455 11.0763 18.704C10.9225 18.7626 10.7827 18.853 10.6662 18.9693C10.5497 19.0856 10.4591 19.2252 10.4003 19.3789C10.3415 19.5327 10.3158 19.6971 10.325 19.8615C10.3161 20.0243 10.3416 20.1872 10.3998 20.3395C10.458 20.4918 10.5477 20.6301 10.663 20.7455C10.9106 20.9691 11.2368 21.0852 11.57 21.0685C11.8982 21.0822 12.2186 20.9653 12.461 20.7435C12.5771 20.629 12.6677 20.4912 12.7268 20.3392C12.786 20.1872 12.8122 20.0244 12.804 19.8615ZM12.609 16.5135C12.6205 16.2167 12.5157 15.9272 12.317 15.7065C12.1155 15.5063 11.8435 15.3932 11.5595 15.3913C11.2755 15.3895 11.0021 15.499 10.798 15.6965C10.6036 15.9229 10.5037 16.2154 10.519 16.5135C10.5041 16.8108 10.606 17.1022 10.803 17.3255C10.9021 17.427 11.0216 17.5062 11.1537 17.5579C11.2857 17.6096 11.4273 17.6327 11.569 17.6255C11.7089 17.6322 11.8487 17.609 11.9789 17.5572C12.1092 17.5055 12.2268 17.4265 12.324 17.3255C12.5207 17.1021 12.6235 16.8108 12.609 16.5135Z" fill="#111111"/>
<path d="M19.703 19.0817C19.7579 19.8759 19.525 20.6632 19.047 21.2997C18.816 21.541 18.5385 21.7329 18.2313 21.8641C17.9241 21.9953 17.5935 22.0629 17.2595 22.0629C16.9255 22.0629 16.5949 21.9953 16.2877 21.8641C15.9805 21.7329 15.703 21.541 15.472 21.2997C14.9911 20.6644 14.7563 19.8766 14.811 19.0817V17.3757C14.7569 16.5817 14.9897 15.7946 15.467 15.1577C15.6972 14.9151 15.9744 14.7218 16.2817 14.5898C16.589 14.4577 16.92 14.3896 17.2545 14.3896C17.589 14.3896 17.92 14.4577 18.2273 14.5898C18.5346 14.7218 18.8118 14.9151 19.042 15.1577C19.5224 15.7933 19.7571 16.5809 19.703 17.3757V19.0817ZM18.458 17.1817C18.4924 16.709 18.3855 16.2367 18.151 15.8247C18.0454 15.6878 17.9099 15.5769 17.7547 15.5006C17.5995 15.4242 17.4289 15.3846 17.256 15.3846C17.0831 15.3846 16.9125 15.4242 16.7573 15.5006C16.6021 15.5769 16.4666 15.6878 16.361 15.8247C16.13 16.2378 16.0257 16.7098 16.061 17.1817V19.2547C16.0266 19.7301 16.1345 20.2049 16.371 20.6187C16.4708 20.7632 16.6059 20.8797 16.7634 20.9572C16.9209 21.0347 17.0957 21.0707 17.271 21.0617C17.4448 21.0712 17.6181 21.0357 17.7742 20.9586C17.9303 20.8815 18.0639 20.7655 18.162 20.6217C18.3928 20.2049 18.497 19.7299 18.462 19.2547L18.458 17.1817Z" fill="#111111"/>
<path d="M20.4921 15.9321C20.4921 15.5129 20.6586 15.1109 20.955 14.8145C21.2514 14.5181 21.6534 14.3516 22.0726 14.3516C22.4918 14.3516 22.8938 14.5181 23.1902 14.8145C23.4866 15.1109 23.6531 15.5129 23.6531 15.9321V16.3261C23.6613 16.533 23.6258 16.7392 23.5491 16.9316C23.4724 17.1239 23.3561 17.2979 23.2078 17.4424C23.0594 17.5868 22.8824 17.6985 22.6881 17.7701C22.4939 17.8417 22.2867 17.8717 22.0801 17.8581C21.8665 17.8695 21.6528 17.8365 21.4526 17.7611C21.2525 17.6857 21.0701 17.5696 20.9171 17.4201C20.7767 17.2754 20.6668 17.104 20.5938 16.9161C20.5208 16.7282 20.4862 16.5276 20.4921 16.3261V15.9321ZM21.3581 16.3261C21.3523 16.5277 21.4186 16.7249 21.5451 16.8821C21.6105 16.9589 21.6929 17.0196 21.7857 17.0591C21.8786 17.0987 21.9794 17.1161 22.0801 17.1101C22.1783 17.1158 22.2766 17.0985 22.3669 17.0594C22.4572 17.0204 22.5371 16.9606 22.6001 16.8851C22.7244 16.7258 22.7888 16.528 22.7821 16.3261V15.9321C22.7881 15.7282 22.7218 15.5288 22.5951 15.3691C22.5281 15.2965 22.4467 15.2385 22.3562 15.1989C22.2657 15.1593 22.1679 15.1388 22.0691 15.1388C21.9703 15.1388 21.8725 15.1593 21.782 15.1989C21.6915 15.2385 21.6101 15.2965 21.5431 15.3691C21.4176 15.5294 21.3521 15.7286 21.3581 15.9321V16.3261ZM22.3361 21.3981L21.6961 21.0291L25.3381 15.1991L25.9791 15.5681L22.3361 21.3981ZM24.0781 20.1271C24.0781 19.7079 24.2446 19.3059 24.541 19.0095C24.8374 18.7131 25.2394 18.5466 25.6586 18.5466C26.0778 18.5466 26.4798 18.7131 26.7762 19.0095C27.0726 19.3059 27.2391 19.7079 27.2391 20.1271V20.5271C27.248 20.7344 27.2131 20.9412 27.1367 21.1341C27.0603 21.327 26.9441 21.5017 26.7957 21.6467C26.6473 21.7917 26.47 21.9038 26.2754 21.9757C26.0807 22.0476 25.8731 22.0777 25.6661 22.0641C25.4523 22.0753 25.2384 22.0419 25.0382 21.9659C24.838 21.89 24.6557 21.7732 24.5031 21.6231C24.3625 21.4773 24.2524 21.3049 24.1794 21.116C24.1064 20.9271 24.072 20.7255 24.0781 20.5231V20.1271ZM24.9441 20.5271C24.9388 20.7301 25.007 20.9283 25.1361 21.0851C25.2008 21.1617 25.2822 21.2224 25.3741 21.2624C25.466 21.3025 25.5659 21.3208 25.6661 21.3161C25.7662 21.3237 25.8668 21.3075 25.9594 21.2687C26.0521 21.2299 26.1342 21.1697 26.1991 21.0931C26.3199 20.9297 26.3812 20.73 26.3731 20.5271V20.1271C26.3787 19.9248 26.3124 19.7271 26.1861 19.5691C26.1218 19.492 26.0404 19.431 25.9484 19.3909C25.8564 19.3508 25.7563 19.3327 25.6561 19.3381C25.5563 19.3324 25.4565 19.3504 25.365 19.3906C25.2734 19.4307 25.1926 19.4918 25.1291 19.5691C25.004 19.7277 24.9386 19.9251 24.9441 20.1271V20.5271Z" fill="#111111"/>
</svg>
