<svg width="36" height="36" viewBox="0 0 36 36" fill="none" xmlns="http://www.w3.org/2000/svg">
<path d="M33.364 18.3187C33.364 21.4203 32.4443 24.4523 30.7211 27.0312C28.998 29.6101 26.5488 31.6201 23.6832 32.807C20.8177 33.9939 17.6646 34.3045 14.6226 33.6994C11.5806 33.0943 8.78633 31.6007 6.59316 29.4076C4.39999 27.2144 2.90643 24.4201 2.30133 21.3781C1.69624 18.3361 2.00679 15.183 3.19373 12.3175C4.38066 9.45197 6.39066 7.00277 8.96955 5.27961C11.5484 3.55645 14.5804 2.63672 17.682 2.63672C21.8411 2.63698 25.8297 4.28928 28.7706 7.23016C31.7115 10.1711 33.3637 14.1597 33.364 18.3187Z" fill="white"/>
<path d="M17.682 3.71772C20.5696 3.71772 23.3924 4.57399 25.7933 6.17826C28.1943 7.78253 30.0656 10.0627 31.1706 12.7305C32.2757 15.3983 32.5648 18.3339 32.0015 21.166C31.4381 23.9982 30.0476 26.5996 28.0058 28.6415C25.9639 30.6833 23.3624 32.0738 20.5303 32.6372C17.6982 33.2005 14.7626 32.9114 12.0948 31.8064C9.42703 30.7013 7.14682 28.83 5.54255 26.429C3.93828 24.0281 3.08201 21.2053 3.08201 18.3177C3.08651 14.4469 4.62616 10.736 7.36322 7.99893C10.1003 5.26187 13.8112 3.72222 17.682 3.71772ZM17.682 2.63672C14.5804 2.63672 11.5484 3.55645 8.96955 5.27961C6.39066 7.00277 4.38066 9.45197 3.19373 12.3175C2.00679 15.183 1.69624 18.3361 2.30133 21.3781C2.90643 24.4201 4.39999 27.2144 6.59316 29.4076C8.78633 31.6007 11.5806 33.0943 14.6226 33.6994C17.6646 34.3045 20.8177 33.9939 23.6832 32.807C26.5488 31.6201 28.998 29.6101 30.7211 27.0312C32.4443 24.4523 33.364 21.4203 33.364 18.3187C33.3643 16.2593 32.9588 14.2199 32.1708 12.3172C31.3828 10.4144 30.2277 8.68554 28.7714 7.22928C27.3152 5.77302 25.5863 4.61791 23.6836 3.8299C21.7808 3.0419 19.7415 2.63646 17.682 2.63672Z" fill="#111111"/>
<path d="M20.114 17.4091H31.676C32.001 17.4083 32.3216 17.3346 32.6143 17.1933C32.907 17.052 33.1642 16.8468 33.367 16.5929C33.5698 16.3389 33.713 16.0427 33.7861 15.726C33.8591 15.4093 33.8601 15.0803 33.789 14.7631C33.0726 11.5269 31.3986 8.58125 28.9849 6.30955C26.5713 4.03784 23.5297 2.54529 20.256 2.02613C19.9437 1.97717 19.6246 1.99717 19.3209 2.08472C19.0172 2.17228 18.7364 2.32526 18.4981 2.53292C18.2598 2.74059 18.0699 2.9979 17.9417 3.28679C17.8135 3.57568 17.7501 3.88913 17.756 4.20513L17.956 15.2841C17.9657 15.8504 18.1972 16.3903 18.6007 16.7876C19.0043 17.185 19.5476 17.4082 20.114 17.4091Z" fill="#B9B5EF"/>
<path d="M14.1931 22.0207H9.08607V21.1337L11.5861 18.4087C11.9086 18.0753 12.1921 17.7062 12.4311 17.3087C12.5782 17.052 12.6583 16.7625 12.6641 16.4667C12.6745 16.1509 12.5676 15.8424 12.3641 15.6007C12.2635 15.4851 12.1382 15.3938 11.9974 15.3333C11.8567 15.2729 11.7041 15.245 11.5511 15.2517C11.3666 15.2374 11.1812 15.2642 11.0083 15.33C10.8354 15.3959 10.6793 15.4993 10.5511 15.6327C10.318 15.9294 10.2014 16.301 10.2231 16.6777H8.98107L8.97107 16.6467C8.95449 16.328 9.00563 16.0094 9.12112 15.7119C9.2366 15.4144 9.41381 15.1447 9.64107 14.9207C9.89558 14.6803 10.1963 14.4943 10.5251 14.374C10.8538 14.2537 11.2035 14.2015 11.5531 14.2207C12.1954 14.186 12.8254 14.4063 13.3061 14.8337C13.5205 15.0397 13.6888 15.2888 13.8 15.5646C13.9112 15.8403 13.9627 16.1366 13.9511 16.4337C13.9486 16.8812 13.8193 17.3188 13.5781 17.6957C13.2372 18.2161 12.8514 18.7056 12.4251 19.1587L10.7141 20.9587L10.7301 20.9907H14.1941L14.1931 22.0207Z" fill="#111111"/>
<path d="M19.9791 19.0569C20.0359 19.8757 19.7959 20.6876 19.3031 21.3439C19.0649 21.5926 18.7788 21.7905 18.4621 21.9257C18.1453 22.0609 17.8045 22.1306 17.4601 22.1306C17.1157 22.1306 16.7749 22.0609 16.4582 21.9257C16.1414 21.7905 15.8553 21.5926 15.6171 21.3439C15.1213 20.6889 14.8794 19.8765 14.9361 19.0569V17.2979C14.8804 16.4795 15.1203 15.6684 15.6121 15.0119C15.8494 14.7616 16.1352 14.5623 16.4521 14.4262C16.7689 14.29 17.1102 14.2197 17.4551 14.2197C17.8 14.2197 18.1413 14.29 18.4581 14.4262C18.775 14.5623 19.0608 14.7616 19.2981 15.0119C19.7931 15.667 20.0349 16.4787 19.9791 17.2979V19.0569ZM18.6961 17.1019C18.7316 16.6141 18.6213 16.1268 18.3791 15.7019C18.2703 15.5606 18.1305 15.4462 17.9704 15.3674C17.8104 15.2887 17.6345 15.2477 17.4561 15.2477C17.2778 15.2477 17.1018 15.2887 16.9418 15.3674C16.7817 15.4462 16.6419 15.5606 16.5331 15.7019C16.2931 16.1275 16.1839 16.6145 16.2191 17.1019V19.2379C16.1839 19.7279 16.2953 20.2173 16.5391 20.6439C16.642 20.7925 16.7812 20.9124 16.9434 20.9922C17.1056 21.072 17.2856 21.1091 17.4661 21.0999C17.6454 21.1097 17.8242 21.0731 17.9852 20.9936C18.1462 20.914 18.284 20.7943 18.3851 20.6459C18.6236 20.2165 18.7317 19.7268 18.6961 19.2369V17.1019Z" fill="#111111"/>
<path d="M20.7909 15.8087C20.7909 15.3766 20.9626 14.9623 21.2681 14.6568C21.5736 14.3513 21.9879 14.1797 22.4199 14.1797C22.852 14.1797 23.2663 14.3513 23.5718 14.6568C23.8773 14.9623 24.0489 15.3766 24.0489 15.8087V16.2157C24.0574 16.4289 24.0209 16.6415 23.9419 16.8397C23.8628 17.038 23.743 17.2173 23.5901 17.3662C23.4373 17.5151 23.2548 17.6302 23.0546 17.704C22.8544 17.7779 22.6409 17.8087 22.4279 17.7947C22.2075 17.8065 21.9871 17.7725 21.7805 17.6947C21.5739 17.6169 21.3858 17.497 21.2279 17.3427C21.0834 17.1936 20.9701 17.0171 20.8949 16.8235C20.8197 16.6299 20.784 16.4233 20.7899 16.2157L20.7909 15.8087ZM21.6829 16.2157C21.6771 16.4236 21.7455 16.6267 21.8759 16.7887C21.9434 16.868 22.0284 16.9305 22.1242 16.9713C22.22 17.0121 22.324 17.03 22.4279 17.0237C22.5292 17.0296 22.6304 17.0117 22.7235 16.9714C22.8166 16.9311 22.8989 16.8696 22.9639 16.7917C23.0922 16.6277 23.1587 16.4238 23.1519 16.2157V15.8087C23.1583 15.5983 23.0899 15.3925 22.9589 15.2277C22.8898 15.1528 22.806 15.093 22.7126 15.052C22.6192 15.0111 22.5184 14.99 22.4164 14.99C22.3145 14.99 22.2137 15.0111 22.1203 15.052C22.0269 15.093 21.9431 15.1528 21.8739 15.2277C21.7448 15.3933 21.6776 15.5988 21.6839 15.8087L21.6829 16.2157ZM22.6909 21.4437L22.0309 21.0637L25.7849 15.0547L26.4449 15.4347L22.6909 21.4437ZM24.4909 20.1337C24.4909 19.7017 24.6626 19.2873 24.9681 18.9818C25.2736 18.6763 25.6879 18.5047 26.1199 18.5047C26.552 18.5047 26.9663 18.6763 27.2718 18.9818C27.5773 19.2873 27.7489 19.7017 27.7489 20.1337V20.5457C27.758 20.7593 27.7219 20.9724 27.6431 21.1711C27.5644 21.3699 27.4446 21.5498 27.2917 21.6992C27.1388 21.8486 26.9562 21.9642 26.7557 22.0383C26.5551 22.1125 26.3413 22.1436 26.1279 22.1297C25.9074 22.1415 25.6867 22.1073 25.4801 22.0291C25.2735 21.9509 25.0855 21.8306 24.9279 21.6757C24.7834 21.5259 24.6703 21.3489 24.595 21.1548C24.5198 20.9608 24.4841 20.7537 24.4899 20.5457L24.4909 20.1337ZM25.3829 20.5457C25.3781 20.7552 25.4491 20.9594 25.5829 21.1207C25.6497 21.1997 25.7338 21.2623 25.8286 21.3036C25.9235 21.3449 26.0266 21.3637 26.1299 21.3587C26.2331 21.3664 26.3367 21.3496 26.4321 21.3097C26.5275 21.2697 26.6121 21.2077 26.6789 21.1287C26.8036 20.9605 26.8671 20.7548 26.8589 20.5457V20.1337C26.8645 19.9252 26.7962 19.7216 26.6659 19.5587C26.5996 19.4791 26.5157 19.4161 26.4207 19.3748C26.3257 19.3335 26.2224 19.3149 26.1189 19.3207C26.0161 19.3149 25.9133 19.3334 25.819 19.3747C25.7246 19.4161 25.6414 19.4791 25.5759 19.5587C25.4473 19.7223 25.3801 19.9257 25.3859 20.1337L25.3829 20.5457Z" fill="#111111"/>
</svg>
