<svg width="32" height="32" viewBox="0 0 32 32" fill="none" xmlns="http://www.w3.org/2000/svg">
<path d="M27 5H5C2.79086 5 1 6.79086 1 9V23C1 25.2091 2.79086 27 5 27H27C29.2091 27 31 25.2091 31 23V9C31 6.79086 29.2091 5 27 5Z" fill="#4579FF"/>
<path d="M13.9234 15.4862C13.8257 15.4864 13.7289 15.4672 13.6387 15.4298C13.5484 15.3923 13.4664 15.3374 13.3974 15.2682L11.3354 13.2062C11.2662 13.1372 11.2114 13.0552 11.1739 12.965C11.1365 12.8747 11.1172 12.7779 11.1172 12.6802C11.1172 12.5825 11.1365 12.4857 11.1739 12.3955C11.2114 12.3052 11.2662 12.2232 11.3354 12.1542L13.3974 10.0912C13.5378 9.95589 13.7257 9.88107 13.9206 9.88284C14.1156 9.88462 14.3021 9.96286 14.4399 10.1007C14.5778 10.2386 14.656 10.4251 14.6578 10.62C14.6596 10.815 14.5848 11.0029 14.4494 11.1432L12.9124 12.6802L14.4494 14.2162C14.5534 14.3203 14.6243 14.4528 14.653 14.5971C14.6817 14.7414 14.6669 14.891 14.6106 15.0269C14.5543 15.1628 14.459 15.279 14.3367 15.3608C14.2144 15.4425 14.0706 15.4862 13.9234 15.4862Z" fill="white"/>
<path d="M20.6474 13.5858H13.6474C13.5418 13.5992 13.4345 13.59 13.3327 13.5588C13.2309 13.5276 13.1369 13.475 13.057 13.4046C12.9771 13.3342 12.9131 13.2476 12.8693 13.1506C12.8254 13.0535 12.8027 12.9483 12.8027 12.8418C12.8027 12.7353 12.8254 12.63 12.8693 12.533C12.9131 12.436 12.9771 12.3494 13.057 12.279C13.1369 12.2086 13.2309 12.156 13.3327 12.1248C13.4345 12.0936 13.5418 12.0844 13.6474 12.0978H20.6474C20.753 12.0844 20.8603 12.0936 20.9621 12.1248C21.0639 12.156 21.1579 12.2086 21.2378 12.279C21.3177 12.3494 21.3817 12.436 21.4256 12.533C21.4694 12.63 21.4921 12.7353 21.4921 12.8418C21.4921 12.9483 21.4694 13.0535 21.4256 13.1506C21.3817 13.2476 21.3177 13.3342 21.2378 13.4046C21.1579 13.475 21.0639 13.5276 20.9621 13.5588C20.8603 13.59 20.753 13.5992 20.6474 13.5858Z" fill="white"/>
<path d="M18.0759 21.9424C17.9287 21.9424 17.7849 21.8987 17.6626 21.817C17.5403 21.7352 17.445 21.619 17.3887 21.4831C17.3324 21.3472 17.3176 21.1976 17.3463 21.0533C17.375 20.909 17.4458 20.7765 17.5499 20.6724L19.0869 19.1314L17.5499 17.5944C17.4186 17.4533 17.3473 17.2668 17.3508 17.0741C17.3544 16.8814 17.4325 16.6976 17.5688 16.5614C17.7052 16.4252 17.889 16.3472 18.0817 16.3439C18.2744 16.3405 18.4609 16.412 18.6019 16.5434L20.6639 18.6054C20.733 18.6744 20.7879 18.7564 20.8254 18.8467C20.8628 18.9369 20.8821 19.0337 20.8821 19.1314C20.8821 19.2291 20.8628 19.3259 20.8254 19.4161C20.7879 19.5064 20.733 19.5884 20.6639 19.6574L18.6019 21.7194C18.5329 21.7886 18.4509 21.8435 18.3606 21.8809C18.2704 21.9184 18.1736 21.9375 18.0759 21.9374" fill="white"/>
<path d="M18.3584 19.7284H11.3584C11.2527 19.7418 11.1454 19.7326 11.0436 19.7014C10.9418 19.6701 10.8479 19.6176 10.7679 19.5472C10.688 19.4768 10.624 19.3902 10.5802 19.2932C10.5363 19.1961 10.5137 19.0909 10.5137 18.9844C10.5137 18.8779 10.5363 18.7726 10.5802 18.6756C10.624 18.5785 10.688 18.4919 10.7679 18.4216C10.8479 18.3512 10.9418 18.2986 11.0436 18.2674C11.1454 18.2361 11.2527 18.2269 11.3584 18.2404H18.3584C18.464 18.2269 18.5713 18.2361 18.6731 18.2674C18.7749 18.2986 18.8688 18.3512 18.9488 18.4216C19.0287 18.4919 19.0927 18.5785 19.1365 18.6756C19.1804 18.7726 19.203 18.8779 19.203 18.9844C19.203 19.0909 19.1804 19.1961 19.1365 19.2932C19.0927 19.3902 19.0287 19.4768 18.9488 19.5472C18.8688 19.6176 18.7749 19.6701 18.6731 19.7014C18.5713 19.7326 18.464 19.7418 18.3584 19.7284Z" fill="white"/>
</svg>
