<svg width="36" height="36" viewBox="0 0 36 36" fill="none" xmlns="http://www.w3.org/2000/svg">
<path d="M18 9.99902C15.8244 9.99902 13.6977 10.6442 11.8887 11.8529C10.0798 13.0616 8.66989 14.7795 7.83733 16.7895C7.00477 18.7995 6.78693 21.0112 7.21137 23.145C7.6358 25.2788 8.68345 27.2388 10.2218 28.7772C11.7602 30.3156 13.7202 31.3632 15.854 31.7877C17.9878 32.2121 20.1995 31.9943 22.2095 31.1617C24.2195 30.3291 25.9375 28.9192 27.1462 27.1103C28.3549 25.3014 29 23.1746 29 20.999C29 18.0816 27.8411 15.2837 25.7782 13.2208C23.7153 11.1579 20.9174 9.99902 18 9.99902ZM18 29.011C16.4154 29.011 14.8663 28.5411 13.5488 27.6608C12.2312 26.7804 11.2043 25.5291 10.5979 24.0651C9.99147 22.6011 9.83281 20.9901 10.142 19.436C10.4511 17.8818 11.2142 16.4542 12.3347 15.3337C13.4552 14.2132 14.8828 13.4501 16.4369 13.141C17.9911 12.8318 19.6021 12.9905 21.0661 13.5969C22.5301 14.2033 23.7814 15.2302 24.6617 16.5478C25.5421 17.8654 26.012 19.4144 26.012 20.999C26.012 23.1239 25.1679 25.1618 23.6653 26.6644C22.1628 28.1669 20.1249 29.011 18 29.011Z" fill="#F5B92C"/>
<path d="M11.0881 6.79993L13.6511 4.26193C13.721 4.1767 13.8095 4.10872 13.91 4.06328C14.0104 4.01784 14.1199 3.99616 14.2301 3.99993H21.4391C21.5494 3.99616 21.6591 4.01783 21.7596 4.06326C21.8602 4.1087 21.949 4.17668 22.0191 4.26193L24.9121 6.79993C24.9785 6.88733 25.0089 6.99682 24.9972 7.10595C24.9855 7.21509 24.9325 7.31561 24.8491 7.38693L20.2001 11.8089C20.058 11.9355 19.8733 12.0037 19.6831 11.9999H16.3171C16.1268 12.0037 15.9422 11.9355 15.8001 11.8089L11.1511 7.38793C11.0674 7.31658 11.0142 7.21585 11.0024 7.10648C10.9907 6.99711 11.0214 6.8874 11.0881 6.79993Z" fill="#6EC4F6"/>
</svg>
