<svg width="48" height="48" viewBox="0 0 48 48" fill="none" xmlns="http://www.w3.org/2000/svg">
<path d="M13.8779 11.1602C8.00793 13.8442 4.00195 19.2022 4.00195 25.3712C4.02164 27.3449 4.43427 29.2948 5.21582 31.1072C5.99737 32.9196 7.1322 34.5582 8.55396 35.9273C9.45059 36.8398 10.0901 37.9729 10.4079 39.2122L11.4789 43.2122C11.5401 43.5698 11.7255 43.8945 12.0024 44.129C12.2793 44.3635 12.6301 44.4929 12.9929 44.4943H17.0719C17.2735 44.4953 17.4733 44.4564 17.6597 44.3798C17.8462 44.3032 18.0156 44.1904 18.1583 44.048C18.3009 43.9055 18.4139 43.7363 18.4907 43.5499C18.5676 43.3636 18.6067 43.1637 18.6059 42.9622L18.7189 41.9202C18.7329 41.816 18.7677 41.7158 18.8211 41.6253C18.8746 41.5347 18.9457 41.4558 19.0302 41.3932C19.1146 41.3306 19.2108 41.2857 19.3129 41.261C19.4151 41.2363 19.5212 41.2322 19.6249 41.2492C20.5639 41.3734 21.5098 41.4369 22.4569 41.4392C23.1582 41.4417 23.8591 41.4083 24.5569 41.3392C24.6594 41.3248 24.7636 41.3311 24.8635 41.3578C24.9634 41.3845 25.057 41.431 25.1386 41.4945C25.2202 41.558 25.2882 41.6372 25.3386 41.7275C25.389 41.8179 25.4208 41.9175 25.4319 42.0203L25.5319 42.9822C25.5338 43.3874 25.6964 43.7754 25.9839 44.0609C26.2715 44.3465 26.6607 44.5063 27.0659 44.5053H31.1439C31.5073 44.5059 31.8591 44.3772 32.1365 44.1423C32.4138 43.9075 32.5986 43.5818 32.6579 43.2233L33.4579 40.2083C33.8336 38.8019 34.6101 37.5351 35.6929 36.5623C37.7443 34.7532 39.2884 32.4403 40.1729 29.8522L42.6859 29.4312C43.048 29.3756 43.3785 29.193 43.6182 28.9159C43.8578 28.6389 43.991 28.2855 43.9939 27.9192V23.6193C43.987 23.2554 43.8521 22.9054 43.6129 22.6311C43.3737 22.3568 43.0455 22.1756 42.6859 22.1193L40.4199 21.7482C39.6758 19.0563 38.2165 16.6163 36.1969 14.6873C36.0799 12.9816 36.4254 11.276 37.1969 9.75025C37.257 9.62513 37.2822 9.48616 37.27 9.34791C37.2577 9.20966 37.2084 9.07719 37.1272 8.96461C37.046 8.85202 36.9361 8.76347 36.8088 8.70814C36.6815 8.65281 36.5416 8.63271 36.4039 8.65015C35.4128 8.72348 34.4462 8.99324 33.5603 9.44373C32.6744 9.89422 31.887 10.5165 31.2439 11.2742C29.9082 10.6418 28.5058 10.1614 27.0629 9.84217" fill="#FFCD3B"/>
<path d="M34.1898 20.5762C34.1764 21.2602 33.8953 21.9117 33.4068 22.3907C32.9183 22.8698 32.2615 23.1381 31.5773 23.1381C30.8932 23.1381 30.2363 22.8698 29.7478 22.3907C29.2593 21.9117 28.9782 21.2602 28.9648 20.5762" stroke="#AB6515" stroke-width="1.2" stroke-linecap="round"/>
<path d="M13.9521 15.846C13.0553 14.542 12.5774 12.9956 12.5821 11.413C12.5781 10.2281 12.8365 9.05702 13.3387 7.98379C13.8409 6.91056 14.5744 5.96185 15.4867 5.20571C16.399 4.44958 17.4674 3.9047 18.6152 3.61038C19.763 3.31606 20.9617 3.27962 22.1253 3.50344C23.2889 3.72727 24.3885 4.20592 25.3452 4.90506C26.3019 5.60419 27.0919 6.50639 27.6586 7.54702C28.2253 8.58765 28.5545 9.7409 28.6227 10.9239C28.6909 12.1068 28.4964 13.2902 28.0531 14.3891" fill="#E18B24"/>
<path d="M12.4971 17.3242C15.4982 14.9239 19.2192 13.6024 23.0621 13.5723C25.2152 13.5737 27.3471 13.9973 29.3371 14.8192" fill="#FFCD3B"/>
<path d="M12.4971 17.3242C15.4982 14.9239 19.2192 13.6024 23.0621 13.5723C25.2152 13.5737 27.3471 13.9973 29.3371 14.8192" stroke="#FFCD3B" stroke-width="2"/>
</svg>
