<svg width="36" height="36" viewBox="0 0 36 36" fill="none" xmlns="http://www.w3.org/2000/svg">
<path d="M16.5 32C23.9558 32 30 25.9558 30 18.5C30 11.0442 23.9558 5 16.5 5C9.04416 5 3 11.0442 3 18.5C3 25.9558 9.04416 32 16.5 32Z" fill="white"/>
<path d="M16.413 32.828C13.5624 32.8278 10.7759 31.9823 8.40582 30.3984C6.03575 28.8146 4.18855 26.5635 3.09782 23.9299C2.00709 21.2962 1.72181 18.3983 2.27805 15.6025C2.83429 12.8067 4.20707 10.2387 6.22281 8.22308C8.23854 6.20748 10.8067 4.83488 13.6025 4.27883C16.3983 3.72278 19.2963 4.00826 21.9298 5.09918C24.5634 6.19009 26.8143 8.03745 28.398 10.4076C29.9817 12.7778 30.827 15.5644 30.827 18.415C30.8225 22.2363 29.3024 25.8999 26.6002 28.6019C23.898 31.3039 20.2343 32.8237 16.413 32.828ZM16.413 5.00096C13.7602 5.00116 11.1671 5.78796 8.9615 7.26187C6.75589 8.73579 5.03687 10.8306 4.0218 13.2815C3.00672 15.7324 2.74118 18.4292 3.25876 21.031C3.77633 23.6327 5.05378 26.0226 6.92956 27.8984C8.80534 29.7742 11.1952 31.0516 13.797 31.5692C16.3988 32.0868 19.0956 31.8212 21.5465 30.8061C23.9973 29.7911 26.0922 28.0721 27.5661 25.8664C29.04 23.6608 29.8268 21.0677 29.827 18.415C29.823 14.8586 28.4085 11.449 25.8937 8.93421C23.379 6.41946 19.9694 5.00493 16.413 5.00096Z" fill="#111111"/>
<path d="M16.4128 28.6528C14.3878 28.6526 12.4083 28.0519 10.7246 26.9267C9.04093 25.8015 7.72873 24.2024 6.95392 22.3314C6.17911 20.4605 5.97648 18.4018 6.37167 16.4157C6.76686 14.4296 7.74211 12.6052 9.1741 11.1734C10.6061 9.74154 12.4305 8.76647 14.4166 8.37148C16.4028 7.97648 18.4615 8.17931 20.3323 8.9543C22.2032 9.7293 23.8023 11.0417 24.9273 12.7254C26.0523 14.4092 26.6528 16.3888 26.6528 18.4138C26.6496 21.1286 25.5697 23.7312 23.65 25.6507C21.7303 27.5702 19.1276 28.6499 16.4128 28.6528ZM16.4128 9.17481C14.5856 9.17501 12.7994 9.71703 11.2802 10.7323C9.76095 11.7477 8.57692 13.1907 7.8778 14.8789C7.17867 16.5671 6.99585 18.4247 7.35246 20.2169C7.70906 22.009 8.58907 23.6551 9.8812 24.9471C11.1733 26.2391 12.8196 27.1189 14.6117 27.4754C16.4039 27.8318 18.2615 27.6487 19.9497 26.9494C21.6378 26.2501 23.0807 25.0659 24.0958 23.5466C25.111 22.0273 25.6528 20.2411 25.6528 18.4138C25.6499 15.9642 24.6754 13.6158 22.9432 11.8837C21.211 10.1517 18.8624 9.17746 16.4128 9.17481Z" fill="#111111"/>
<path d="M16.4141 18.9137C16.2815 18.9137 16.1543 18.861 16.0605 18.7673C15.9667 18.6735 15.9141 18.5463 15.9141 18.4137V11.2617C15.9141 11.1291 15.9667 11.0019 16.0605 10.9082C16.1543 10.8144 16.2815 10.7617 16.4141 10.7617C16.5467 10.7617 16.6738 10.8144 16.7676 10.9082C16.8614 11.0019 16.9141 11.1291 16.9141 11.2617V18.4137C16.9141 18.5463 16.8614 18.6735 16.7676 18.7673C16.6738 18.861 16.5467 18.9137 16.4141 18.9137Z" fill="#111111"/>
<path d="M18.6502 22.5146C18.5651 22.5147 18.4814 22.4931 18.4071 22.4518C18.3327 22.4105 18.2701 22.3509 18.2252 22.2786L15.9872 18.6766C15.9526 18.6208 15.9293 18.5588 15.9187 18.4939C15.9081 18.4291 15.9103 18.3629 15.9253 18.2989C15.9403 18.235 15.9678 18.1747 16.0061 18.1213C16.0444 18.068 16.0929 18.0227 16.1487 17.9881C16.2045 17.9535 16.2666 17.9303 16.3314 17.9197C16.3962 17.909 16.4624 17.9113 16.5264 17.9263C16.5903 17.9413 16.6507 17.9687 16.704 18.0071C16.7573 18.0454 16.8026 18.0938 16.8372 18.1496L19.0732 21.7496C19.12 21.8253 19.1457 21.9121 19.1478 22.001C19.1499 22.0899 19.1282 22.1778 19.085 22.2555C19.0418 22.3333 18.9786 22.3981 18.902 22.4433C18.8254 22.4885 18.7381 22.5124 18.6492 22.5126" fill="#111111"/>
<path d="M31.3462 23.7118H23.2922C22.7211 23.7118 22.1735 23.4849 21.7698 23.0812C21.366 22.6774 21.1392 22.1298 21.1392 21.5588C21.1392 20.9878 21.366 20.4401 21.7698 20.0364C22.1735 19.6326 22.7211 19.4058 23.2922 19.4058H31.3472C31.6339 19.3996 31.9189 19.4507 32.1856 19.5562C32.4523 19.6616 32.6952 19.8193 32.9002 20.0198C33.1051 20.2204 33.268 20.4599 33.3791 20.7243C33.4903 20.9886 33.5476 21.2725 33.5476 21.5593C33.5476 21.846 33.4903 22.1299 33.3791 22.3943C33.268 22.6586 33.1051 22.8981 32.9002 23.0987C32.6952 23.2993 32.4523 23.4569 32.1856 23.5624C31.9189 23.6678 31.6339 23.719 31.3472 23.7128" fill="#FEE456"/>
<path d="M31.3459 24.2118H23.2919C22.5971 24.1983 21.9353 23.9128 21.4487 23.4167C20.962 22.9205 20.6895 22.2533 20.6895 21.5583C20.6895 20.8633 20.962 20.1961 21.4487 19.6999C21.9353 19.2038 22.5971 18.9183 23.2919 18.9048H31.3469C31.6997 18.8979 32.0504 18.9615 32.3783 19.0918C32.7062 19.2221 33.0049 19.4164 33.2568 19.6635C33.5087 19.9106 33.7089 20.2054 33.8455 20.5308C33.9821 20.8561 34.0525 21.2054 34.0525 21.5583C34.0525 21.9112 33.9821 22.2605 33.8455 22.5858C33.7089 22.9112 33.5087 23.206 33.2568 23.4531C33.0049 23.7002 32.7062 23.8945 32.3783 24.0248C32.0504 24.1551 31.6987 24.2186 31.3459 24.2118ZM23.2929 19.9048C22.8614 19.9154 22.4512 20.0943 22.1498 20.4032C21.8483 20.7121 21.6796 21.1267 21.6796 21.5583C21.6796 21.9899 21.8483 22.4045 22.1498 22.7134C22.4512 23.0223 22.8614 23.2012 23.2929 23.2118H31.3469C31.5675 23.2172 31.7869 23.1785 31.9923 23.0978C32.1976 23.0171 32.3848 22.8962 32.5427 22.7421C32.7006 22.5881 32.8261 22.4039 32.9118 22.2006C32.9975 21.9973 33.0416 21.7789 33.0416 21.5583C33.0416 21.3377 32.9975 21.1193 32.9118 20.916C32.8261 20.7126 32.7006 20.5285 32.5427 20.3745C32.3848 20.2204 32.1976 20.0994 31.9923 20.0188C31.7869 19.9381 31.5675 19.8994 31.3469 19.9048H23.2929Z" fill="#111111"/>
<path d="M31.3462 28.0209H23.2922C23.0093 28.0209 22.7293 27.9651 22.468 27.8569C22.2067 27.7486 21.9693 27.5899 21.7694 27.3899C21.5695 27.1899 21.4109 26.9524 21.3028 26.6911C21.1946 26.4298 21.139 26.1497 21.1392 25.8669C21.1394 25.2958 21.3665 24.7481 21.7704 24.3444C22.1743 23.9407 22.7221 23.7139 23.2932 23.7139H31.3472C31.9181 23.7141 32.4656 23.9411 32.8693 24.3448C33.273 24.7485 33.4999 25.2959 33.5002 25.8669C33.5002 26.4381 33.2732 26.986 32.8693 27.39C32.4653 27.7939 31.9174 28.0209 31.3462 28.0209Z" fill="#FEE456"/>
<path d="M31.3462 28.5199H23.2922C22.5883 28.5199 21.9132 28.2403 21.4155 27.7426C20.9178 27.2449 20.6382 26.5698 20.6382 25.8659C20.6382 25.162 20.9178 24.487 21.4155 23.9893C21.9132 23.4915 22.5883 23.2119 23.2922 23.2119H31.3462C32.0501 23.2119 32.7251 23.4915 33.2228 23.9893C33.7206 24.487 34.0002 25.162 34.0002 25.8659C34.0002 26.5698 33.7206 27.2449 33.2228 27.7426C32.7251 28.2403 32.0501 28.5199 31.3462 28.5199ZM23.2922 24.2119C22.8535 24.2119 22.4328 24.3862 22.1226 24.6964C21.8124 25.0065 21.6382 25.4272 21.6382 25.8659C21.6382 26.3046 21.8124 26.7253 22.1226 27.0355C22.4328 27.3457 22.8535 27.5199 23.2922 27.5199H31.3462C31.7849 27.5199 32.2056 27.3457 32.5157 27.0355C32.8259 26.7253 33.0002 26.3046 33.0002 25.8659C33.0002 25.4272 32.8259 25.0065 32.5157 24.6964C32.2056 24.3862 31.7849 24.2119 31.3462 24.2119H23.2922Z" fill="#111111"/>
<path d="M31.3462 32.3275H23.2922C22.721 32.3275 22.1733 32.1006 21.7694 31.6968C21.3656 31.2929 21.1387 30.7452 21.1387 30.174C21.1387 29.6029 21.3656 29.0551 21.7694 28.6513C22.1733 28.2474 22.721 28.0205 23.2922 28.0205H31.3462C31.9171 28.0208 32.4646 28.2477 32.8683 28.6514C33.272 29.0551 33.4989 29.6026 33.4992 30.1735C33.4989 30.7444 33.272 31.2919 32.8683 31.6956C32.4646 32.0993 31.9171 32.3272 31.3462 32.3275Z" fill="#FEE456"/>
<path d="M31.3472 32.8275H23.2922C22.5884 32.8275 21.9135 32.5479 21.4159 32.0503C20.9182 31.5527 20.6387 30.8778 20.6387 30.174C20.6387 29.4703 20.9182 28.7953 21.4159 28.2977C21.9135 27.8001 22.5884 27.5205 23.2922 27.5205H31.3462C32.0499 27.5205 32.7249 27.8001 33.2225 28.2977C33.7201 28.7953 33.9997 29.4703 33.9997 30.174C33.9997 30.8778 33.7201 31.5527 33.2225 32.0503C32.7249 32.5479 32.0509 32.8275 31.3472 32.8275ZM23.2922 28.5205C22.8536 28.5205 22.4331 28.6947 22.123 29.0048C21.8129 29.3149 21.6387 29.7355 21.6387 30.174C21.6387 30.6125 21.8129 31.0331 22.123 31.3432C22.4331 31.6533 22.8536 31.8275 23.2922 31.8275H31.3472C31.7857 31.8275 32.2063 31.6533 32.5164 31.3432C32.8265 31.0331 33.0007 30.6125 33.0007 30.174C33.0007 29.7355 32.8265 29.3149 32.5164 29.0048C32.2063 28.6947 31.7857 28.5205 31.3472 28.5205H23.2922Z" fill="#111111"/>
</svg>
