<svg width="32" height="32" viewBox="0 0 32 32" fill="none" xmlns="http://www.w3.org/2000/svg">
<path d="M10.7083 19L17 22.4929L11.2917 32L9.18373 28.525L5 28.5071L10.7083 19Z" fill="#B3B3B3"/>
<path d="M21.2917 19L15 22.4929L20.7083 32L22.8163 28.525L27 28.5071L21.2917 19Z" fill="#B3B3B3"/>
<path d="M14.3992 0.692933C15.2578 -0.230978 16.7422 -0.230978 17.6008 0.692934C18.2102 1.34873 19.1722 1.5637 20.0119 1.23172C21.1949 0.764016 22.5323 1.39459 22.8964 2.59171C23.1548 3.44143 23.9263 4.04378 24.83 4.10136C26.1031 4.1825 27.0286 5.31874 26.8261 6.55197C26.6824 7.42733 27.1105 8.29774 27.8991 8.73349C29.0102 9.34739 29.3405 10.7643 28.6116 11.7894C28.0941 12.517 28.0941 13.483 28.6116 14.2107C29.3405 15.2357 29.0102 16.6526 27.8991 17.2665C27.1105 17.7023 26.6824 18.5727 26.8261 19.448C27.0286 20.6813 26.1031 21.8175 24.83 21.8986C23.9263 21.9562 23.1548 22.5586 22.8964 23.4083C22.5323 24.6054 21.1949 25.236 20.0119 24.7683C19.1722 24.4363 18.2102 24.6513 17.6008 25.3071C16.7422 26.231 15.2578 26.231 14.3992 25.3071C13.7898 24.6513 12.8278 24.4363 11.9881 24.7683C10.8051 25.236 9.46769 24.6054 9.10361 23.4083C8.84518 22.5586 8.0737 21.9562 7.17004 21.8986C5.89693 21.8175 4.97141 20.6813 5.17391 19.448C5.31764 18.5727 4.8895 17.7023 4.10086 17.2665C2.98978 16.6526 2.65946 15.2357 3.38844 14.2107C3.90588 13.483 3.90588 12.517 3.38844 11.7894C2.65946 10.7643 2.98978 9.34739 4.10086 8.73349C4.8895 8.29774 5.31764 7.42733 5.17391 6.55197C4.9714 5.31874 5.89693 4.1825 7.17004 4.10136C8.0737 4.04378 8.84518 3.44143 9.10361 2.59171C9.46769 1.39459 10.8051 0.764016 11.9881 1.23172C12.8278 1.5637 13.7898 1.34873 14.3992 0.692933Z" fill="#E1E1E1"/>
<path fill-rule="evenodd" clip-rule="evenodd" d="M17.5447 17.336C17.6886 17.7255 18.0682 17.9872 18.4936 17.9872L18.5198 18C18.9451 18 19.3313 17.7382 19.4687 17.3488L20.7098 13.8307H22.5508C23.0939 13.818 23.5128 13.3711 23.4997 12.8412C23.4866 12.3112 23.0285 11.8963 22.4853 11.9154H21.3856L21.9621 10.2812V10.262C22.1257 9.75768 21.8443 9.215 21.3273 9.05539C20.8037 8.88301 20.2409 9.15115 20.0577 9.65552L18.5132 14.0416L16.9622 9.65552C16.8575 9.37461 16.635 9.15115 16.347 9.05539C15.8235 8.87662 15.2476 9.14477 15.0643 9.65552L13.5133 14.0416L11.9623 9.65552C11.7791 9.15115 11.2097 8.88301 10.6927 9.05539H10.6731C10.1626 9.22777 9.88773 9.77045 10.0644 10.2684L10.6455 11.9154H9.44959C8.9064 11.9282 8.48102 12.3751 8.50065 12.905C8.51374 13.4349 8.97185 13.8499 9.51503 13.8307H11.3212L12.5578 17.336C12.656 17.6105 12.8785 17.834 13.1665 17.9298C13.69 18.1149 14.2659 17.8468 14.4492 17.336L15.9936 12.9499L17.5447 17.336Z" fill="white"/>
</svg>
