<svg width="24" height="24" viewBox="0 0 24 24" fill="none" xmlns="http://www.w3.org/2000/svg">
<g clip-path="url(#clip0_266_54950)">
<path d="M0 12C0 12.7065 0 12.785 0.0168382 13.385C0.06174 14.714 0.202058 16.2393 0.735266 17.8486C1.11132 18.9869 1.81852 20.2149 2.52572 20.9888C3.42377 21.9756 4.66416 22.7831 6.00561 23.2429C7.37511 23.7139 8.85688 23.9439 11.7362 24H12.2694C15.1544 23.9383 16.6305 23.7139 18 23.2429C19.3414 22.7831 20.5763 21.9756 21.4742 20.9888C22.1816 20.2094 22.8887 18.9869 23.2648 17.8486C23.7979 16.2393 23.9439 14.7084 23.9831 13.385C24 12.7907 24 12.7065 24 12C24 11.2935 24 11.2149 23.9831 10.6149C23.9383 9.28599 23.7979 7.76074 23.2648 6.15139C22.8887 5.01309 22.1816 3.78504 21.4742 3.01121C20.5763 2.0243 19.3358 1.21682 18 0.757009C16.6305 0.285981 15.1487 0.0560747 12.2694 0H11.7362C8.85126 0.0616821 7.37511 0.285981 6.00561 0.757009C4.66416 1.21682 3.42936 2.0243 2.52572 3.01121C1.81852 3.79065 1.11132 5.01309 0.735266 6.15139C0.207671 7.76074 0.06174 9.28599 0.0168382 10.6149C0 11.2093 0 11.2935 0 12Z" fill="#009E9F"/>
<path d="M12 24C18.6274 24 24 18.6274 24 12C24 5.37259 18.6274 0 12 0C5.37259 0 0 5.37259 0 12C0 18.6274 5.37259 24 12 24Z" fill="#009E9F"/>
<mask id="mask0_266_54950" style="mask-type:luminance" maskUnits="userSpaceOnUse" x="0" y="0" width="24" height="24">
<path d="M12 24C18.6274 24 24 18.6274 24 12C24 5.37259 18.6274 0 12 0C5.37259 0 0 5.37259 0 12C0 18.6274 5.37259 24 12 24Z" fill="white"/>
</mask>
<g mask="url(#mask0_266_54950)">
<path d="M14.1227 13.1356C14.0935 12.9485 14.0397 12.7661 13.9628 12.5931C13.7435 12.0756 13.3666 11.6405 12.8857 11.3496C12.5066 11.126 12.0739 11.0094 11.6338 11.0123C11.1936 11.0151 10.7625 11.1374 10.3864 11.3659C10.0352 11.5755 9.74999 11.8795 9.56324 12.2432C9.50062 12.3668 9.44843 12.4954 9.40722 12.6277C9.29262 12.9715 9.24865 13.335 9.27794 13.6962C9.30721 14.0574 9.40913 14.409 9.57758 14.7299C9.6946 14.926 9.87147 15.0793 10.0822 15.1673C10.1875 15.2095 10.3012 15.227 10.4143 15.2184C10.5275 15.2098 10.6372 15.1753 10.7349 15.1176C10.8433 15.0342 10.9244 14.9204 10.9679 14.7908C11.0115 14.6611 11.0155 14.5214 10.9794 14.3895C10.8942 14.0546 10.9024 13.7027 11.0032 13.3722C11.0414 13.2638 11.103 13.1652 11.1837 13.0833C11.2643 13.0096 11.3602 12.9545 11.4646 12.922C11.569 12.8895 11.6792 12.8804 11.7875 12.8954C11.9143 12.9226 12.0329 12.9795 12.1335 13.0612C12.2342 13.143 12.3141 13.2475 12.3668 13.366C12.4695 13.6039 12.5228 13.8602 12.5234 14.1193C12.5271 15.2598 12.3574 16.3943 12.0202 17.4839C11.9902 17.5958 11.9595 17.7055 11.9282 17.8168C11.9043 17.9016 11.8603 18.0126 11.9144 18.0936C11.9391 18.1279 11.9731 18.1546 12.0123 18.1703C12.0886 18.1921 12.1697 18.1896 12.2444 18.1631C12.3191 18.1366 12.3837 18.0874 12.4292 18.0224C13.0675 17.3417 13.5382 16.5214 13.8038 15.6268C13.9145 15.2988 14.0027 14.9638 14.0679 14.6238C14.1699 14.1345 14.1869 13.6313 14.1181 13.1362" fill="white"/>
<path d="M18.8567 7.94611C18.8551 7.90852 18.846 7.87166 18.83 7.83761C18.814 7.80356 18.7914 7.77303 18.7635 7.74774C18.7357 7.72248 18.7031 7.70296 18.6677 7.69033C18.6323 7.67771 18.5947 7.67225 18.5571 7.67422H18.5457C18.3838 7.69724 18.2267 7.74652 18.0806 7.82013C15.1161 8.87681 11.9345 9.17634 8.82487 8.69154C8.3007 8.61485 7.76936 8.50974 7.24194 8.42849C6.9123 8.37757 6.58627 8.30251 6.25337 8.27868C5.95438 8.21988 5.64425 8.27831 5.38715 8.44186C5.25566 8.58581 5.174 8.7683 5.15424 8.96227C5.13448 9.15624 5.17772 9.35139 5.2775 9.5189C5.50301 9.90136 5.82851 10.2151 6.21907 10.4262C6.58102 10.6826 7.00959 10.8284 7.45278 10.846C8.62447 10.7713 9.7926 10.6583 10.9571 10.5069C12.9809 10.3429 14.9748 9.91711 16.889 9.24018C17.5078 8.99641 18.0912 8.67097 18.6237 8.27249C18.7184 8.20001 18.8551 8.08318 18.8551 7.94611" fill="white"/>
<path d="M10.5143 6.95163C10.5143 7.25521 10.6349 7.54634 10.8495 7.76101C11.0642 7.97566 11.3553 8.09624 11.6589 8.09624C11.9624 8.09624 12.2535 7.97566 12.4682 7.76101C12.6829 7.54634 12.8035 7.25521 12.8035 6.95163C12.8031 6.85784 12.7821 6.76527 12.7421 6.68041C12.6442 6.47349 12.5322 6.37263 12.544 6.12556C12.5583 5.79136 12.1272 5.78647 11.8952 5.78647C11.6375 5.77842 11.3813 5.82922 11.1461 5.93497C10.9639 6.02746 10.8092 6.1661 10.6974 6.33706C10.584 6.51369 10.5211 6.71799 10.5156 6.9278V6.9536" fill="white"/>
</g>
</g>
<defs>
<clipPath id="clip0_266_54950">
<rect width="24" height="24" fill="white"/>
</clipPath>
</defs>
</svg>
