<svg width="32" height="32" viewBox="0 0 32 32" fill="none" xmlns="http://www.w3.org/2000/svg">
<g clip-path="url(#clip0_266_55549)">
<path d="M0 16.0001C0 16.9421 0 17.0468 0.0224456 17.8468C0.0823005 19.6188 0.269347 21.6524 0.980125 23.7982C1.48141 25.316 2.42413 26.9534 3.36684 27.9852C4.56395 29.3011 6.21744 30.3776 8.0056 30.9909C9.83117 31.6188 11.8064 31.918 15.6446 32H16.3554C20.201 31.918 22.1688 31.6188 23.9943 30.9909C25.7825 30.3776 27.4285 29.3011 28.6332 27.9852C29.5757 26.9459 30.5185 25.316 31.0198 23.7982C31.7305 21.6524 31.9251 19.6113 31.9774 17.8468C32 17.0543 32 16.9421 32 16.0001C32 15.058 32 14.9533 31.9774 14.1533C31.9177 12.3814 31.7305 10.3477 31.0198 8.20189C30.5185 6.68413 29.5757 5.04674 28.6332 4.01498C27.436 2.69908 25.7825 1.62244 23.9943 1.00935C22.1688 0.38131 20.1936 0.0747665 16.3554 0H15.6446C11.7989 0.0822435 9.83117 0.38131 8.0056 1.00935C6.21744 1.62244 4.57143 2.69908 3.36684 4.01498C2.42413 5.05423 1.48141 6.68413 0.980125 8.20189C0.276829 10.3477 0.0823005 12.3814 0.0224456 14.1533C0 14.9459 0 15.058 0 16.0001Z" fill="#C40103"/>
<path d="M15.9922 6.85743C10.9276 6.85743 6.84936 10.9279 6.85719 15.9768C6.85719 21.0178 10.9355 25.1196 15.9766 25.1431C21.0176 25.1665 25.1507 21.0257 25.1429 15.9611C25.1351 10.9044 21.0568 6.8496 15.9922 6.85743ZM15.9922 23.8123C11.6869 23.8123 8.16445 20.282 8.16445 15.9768C8.16445 11.6715 11.6948 8.15686 16 8.16469C20.3132 8.16469 23.8278 11.6871 23.82 15.9924C23.82 20.2977 20.2897 23.8123 15.9844 23.8123" fill="white"/>
<path d="M12.587 17.9493H15.4129V13.8006H12.7514V12.2663H15.405V11.1548H11.4207V15.1078H13.9647V16.7047H11.405V20.4776H15.4129V19.28H12.587V17.9493Z" fill="white"/>
<path d="M19.5536 17.9493H16.72V13.8006H19.3814V12.2663H16.7278V11.1548H20.7121V15.1078H18.1681V16.7047H20.7278V20.4776H16.72V19.28H19.5536V17.9493Z" fill="white"/>
</g>
<defs>
<clipPath id="clip0_266_55549">
<rect width="32" height="32" fill="white"/>
</clipPath>
</defs>
</svg>
