<svg width="40" height="40" viewBox="0 0 40 40" fill="none" xmlns="http://www.w3.org/2000/svg">
<g clip-path="url(#clip0_266_55915)">
<path d="M0 20C0 21.1776 0 21.3084 0.0280636 22.3084C0.1029 24.5234 0.336763 27.0654 1.22544 29.7476C1.8522 31.6449 3.03087 33.6916 4.20954 34.9813C5.70625 36.6261 7.77361 37.9718 10.0094 38.7382C12.2919 39.5232 14.7615 39.9064 19.5603 40H20.449C25.2573 39.8971 27.7175 39.5232 30 38.7382C32.2358 37.9718 34.2937 36.6261 35.7904 34.9813C36.9693 33.6823 38.1479 31.6449 38.7746 29.7476C39.6632 27.0654 39.9064 24.514 39.9718 22.3084C40 21.3178 40 21.1776 40 20C40 18.8224 40 18.6916 39.9718 17.6916C39.8971 15.4766 39.6632 12.9346 38.7746 10.2523C38.1479 8.35514 36.9693 6.30839 35.7904 5.01868C34.2937 3.37383 32.2264 2.02804 30 1.26168C27.7175 0.476636 25.2479 0.0934579 20.449 0H19.5603C14.7521 0.102804 12.2919 0.476636 10.0094 1.26168C7.77361 2.02804 5.71561 3.37383 4.20954 5.01868C3.03087 6.31775 1.8522 8.35514 1.22544 10.2523C0.346118 12.9346 0.1029 15.4766 0.0280636 17.6916C0 18.6823 0 18.8224 0 20Z" fill="#0072BB"/>
<path fill-rule="evenodd" clip-rule="evenodd" d="M36.4287 20.9134V20.874C36.4287 20.8294 36.4283 20.7848 36.4276 20.7403C36.4283 20.7991 36.4283 20.8567 36.4287 20.9134ZM3.59807 21.5277C3.58046 21.3114 3.57153 21.0934 3.57153 20.874C3.57153 20.7426 3.57471 20.6118 3.58107 20.4815C3.69078 20.188 4.60207 18.3028 9.93664 17.8815C9.93664 17.8815 12.6162 17.7168 15.2984 18.2029C15.2984 18.2029 10.5876 16.2619 15.0459 13.9771C15.0459 13.9771 18.7301 11.8584 26.1995 13.382C26.1995 13.382 27.0638 13.7064 26.1995 14.0501C26.1995 14.0501 23.1189 14.6254 22.3764 16.3811C22.3764 16.3811 21.9799 17.3462 22.8171 18.1536C22.8171 18.1536 23.4712 18.6421 22.3473 18.619C22.3473 18.619 17.4957 17.8815 13.8778 19.9747C13.8778 19.9747 11.267 21.3598 13.3215 23.2078C13.3215 23.2078 14.1152 23.7144 13.0866 23.8529C13.0866 23.8529 5.7126 24.8218 3.63532 21.5919L3.59807 21.5277ZM19.8062 9.46514C19.8667 9.46468 19.9272 9.46446 19.9878 9.46446C20.1325 9.46446 20.2767 9.46564 20.4204 9.46803C20.2807 9.46557 20.1406 9.46436 20.0001 9.46436C19.9354 9.46436 19.8708 9.46461 19.8062 9.46514ZM35.8708 17.9152C35.8969 17.9905 35.9215 18.0662 35.9455 18.1422C34.5558 17.7323 33.129 17.7168 33.129 17.7168C27.7161 17.1647 25.008 18.6851 25.008 18.6851C20.6735 20.8569 25.008 22.904 25.008 22.904C20.8793 22.2127 17.7274 22.977 17.7274 22.977C15.4904 23.3394 14.3235 24.2429 14.3235 24.2429C11.7538 26.0179 14.6039 27.5389 14.6039 27.5389C17.7274 29.2515 22.6295 28.6464 22.6295 28.6464C24.1266 28.6464 23.0513 27.7704 23.0513 27.7704C21.5082 26.686 22.723 25.4201 22.723 25.4201C24.0281 24.0351 25.5706 23.8529 25.5706 23.8529C28.6966 22.8815 32.2937 23.3394 32.2937 23.3394C33.4112 23.5247 32.4774 22.5596 32.4774 22.5596C31.7785 22.0043 32.1996 20.8039 32.1996 20.8039C33.6846 18.9266 36.1065 18.6243 36.1065 18.6243C36.1108 18.6366 36.1147 18.6488 36.1187 18.661C36.1219 18.6703 36.1247 18.6796 36.1276 18.6888C36.0547 18.4276 35.969 18.1697 35.8708 17.9152ZM17.0602 16.1431C16.9383 16.193 16.8076 16.2187 16.6756 16.2187C16.1161 16.2187 15.6697 15.7763 15.6697 15.2304C15.6697 14.6751 16.1161 14.2322 16.6756 14.2322C16.8076 14.2322 16.9383 14.2579 17.0602 14.3078C17.1822 14.3577 17.293 14.4309 17.3863 14.5231C17.4797 14.6153 17.5537 14.7248 17.6042 14.8453C17.6547 14.9658 17.6807 15.095 17.6807 15.2254C17.6807 15.3559 17.6547 15.485 17.6042 15.6055C17.5537 15.726 17.4797 15.8355 17.3863 15.9277C17.293 16.02 17.1822 16.0931 17.0602 16.1431ZM7.01585 21.1944C7.28296 21.1944 7.5391 21.0895 7.72796 20.9029C7.91682 20.7162 8.02293 20.4631 8.02293 20.1992C8.02293 19.9353 7.91682 19.6822 7.72796 19.4956C7.5391 19.3089 7.28296 19.2041 7.01585 19.2041C6.8806 19.1994 6.74578 19.2216 6.61939 19.2695C6.49303 19.3174 6.37775 19.3899 6.28035 19.4827C6.183 19.5756 6.10553 19.6869 6.05264 19.81C5.99975 19.9331 5.9725 20.0655 5.9725 20.1992C5.9725 20.333 5.99975 20.4653 6.05264 20.5884C6.10553 20.7115 6.183 20.8228 6.28035 20.9157C6.37775 21.0085 6.49303 21.0811 6.61939 21.129C6.74578 21.1768 6.8806 21.1991 7.01585 21.1944ZM16.8408 23.8527C16.5741 23.8537 16.3186 23.9589 16.13 24.1453C15.9415 24.3317 15.8352 24.5843 15.8344 24.8479C15.8344 25.4031 16.2909 25.8405 16.8408 25.8405C17.4009 25.8405 17.8485 25.4031 17.8485 24.8479C17.8485 24.2982 17.4009 23.8527 16.8408 23.8527ZM26.1397 19.0115C26.2617 18.9617 26.3925 18.9362 26.5245 18.9364C27.0826 18.9364 27.529 19.3787 27.529 19.9284C27.529 20.1919 27.4231 20.4446 27.2345 20.631C27.046 20.8173 26.7902 20.922 26.5235 20.922C26.2569 20.922 26.0011 20.8173 25.8125 20.631C25.624 20.4446 25.518 20.1919 25.518 19.9284C25.5182 19.798 25.5444 19.6688 25.595 19.5484C25.6457 19.428 25.7199 19.3185 25.8133 19.2264C25.9068 19.1343 26.0177 19.0613 26.1397 19.0115Z" fill="white"/>
</g>
<defs>
<clipPath id="clip0_266_55915">
<rect width="40" height="40" fill="white"/>
</clipPath>
</defs>
</svg>
