<svg width="32" height="32" viewBox="0 0 32 32" fill="none" xmlns="http://www.w3.org/2000/svg">
<g clip-path="url(#clip0_266_55400)">
<path d="M0 16C0 16.9421 0 17.0468 0.0224456 17.8468C0.0823005 19.6187 0.269347 21.6524 0.980125 23.7982C1.48141 25.3159 2.42413 26.9533 3.36684 27.9851C4.56395 29.3011 6.21744 30.3776 8.0056 30.9906C9.83117 31.6188 11.8064 31.9254 15.6446 32H16.3554C20.201 31.9177 22.1688 31.6188 23.9943 30.9906C25.7825 30.3776 27.4285 29.3011 28.6332 27.9851C29.5757 26.9458 30.5185 25.3159 31.0198 23.7982C31.7305 21.6524 31.9251 19.6113 31.9774 17.8468C32 17.0542 32 16.9421 32 16C32 15.058 32 14.9533 31.9774 14.1533C31.9177 12.3813 31.7305 10.3477 31.0198 8.20188C30.5185 6.68413 29.5757 5.04674 28.6332 4.01495C27.436 2.69907 25.7825 1.62243 23.9943 1.00935C22.1688 0.381308 20.1936 0.0747664 16.3554 0H15.6446C11.7989 0.082243 9.83117 0.381308 8.0056 1.00935C6.21744 1.62243 4.57143 2.69907 3.36684 4.01495C2.42413 5.05423 1.48141 6.68413 0.980125 8.20188C0.276829 10.3477 0.0823005 12.3813 0.0224456 14.1533C0 14.9458 0 15.058 0 16Z" fill="#B19C52"/>
<path d="M23.3826 17.4099C22.5788 19.4119 21.2204 19.9725 21.2204 19.9725C25.2071 15.9524 22.7717 11.3158 22.7717 11.3158C22.185 10.2748 22.9325 9.82632 22.9325 9.82632C21.2204 10.2507 21.759 11.6681 21.759 11.6681C22.619 13.7102 22.4422 15.3679 22.1528 16.3929L21.5902 16.0806V16.0645C21.5902 16.0645 22.9325 10.8193 17.491 8.98546V8.00049H16.3335V14.503L21.6786 17.538C21.5821 17.7382 21.4777 17.9224 21.3732 18.0986L16.004 14.9995L10.6107 18.0986C10.5062 17.9224 10.4017 17.7382 10.3053 17.538L15.6503 14.503V8.00049H14.5009V8.98546C9.0514 10.8193 10.3857 16.0645 10.3857 16.0645V16.0806L9.83106 16.3929C9.54169 15.3679 9.36486 13.7102 10.2249 11.6681C10.2249 11.6681 10.7634 10.2587 9.0514 9.82632C9.0514 9.82632 9.79892 10.2828 9.21215 11.3158C9.21215 11.3158 6.77675 15.9524 10.7634 19.9725C10.7634 19.9725 9.40506 19.4119 8.60129 17.4099C8.60129 17.4099 8.14315 16.4329 6.85712 16.6491L7.62875 17.7542C7.62875 17.7542 8.78614 21.4219 13.2471 21.9745V24.0005H15.4413V21.0215C15.4413 21.0215 13.1185 21.0055 11.3421 19.0515L11.8887 18.7312C11.9932 18.8273 13.6811 20.3809 15.9799 20.4289H15.9959H16.012C18.3108 20.3889 20.0067 18.8273 20.1113 18.7312L20.6578 19.0515C18.8815 20.9975 16.5586 21.0215 16.5586 21.0215V24.0005H18.7529V21.9745C23.2138 21.4139 24.3712 17.7542 24.3712 17.7542C24.6525 16.8734 25.1428 16.6491 25.1428 16.6491C23.8568 16.4329 23.3987 17.4099 23.3987 17.4099M20.5453 15.4719L17.5311 13.7903L17.5151 10.1947H17.5311C17.5311 10.1947 21.1642 11.1797 20.5533 15.4719M14.4929 10.1947H14.509L14.4929 13.7903L11.4788 15.4719C10.8599 11.1797 14.5009 10.1947 14.5009 10.1947M19.0342 18.0906L19.0101 18.0746C17.933 18.9234 16.9123 19.1957 16.0201 19.1957C15.1279 19.1957 14.1071 18.9154 13.0301 18.0746L13.0059 18.0906L16.0281 16.3288L19.0342 18.0826V18.0906Z" fill="white"/>
</g>
<defs>
<clipPath id="clip0_266_55400">
<rect width="32" height="32" fill="white"/>
</clipPath>
</defs>
</svg>
