<svg width="24" height="24" viewBox="0 0 24 24" fill="none" xmlns="http://www.w3.org/2000/svg">
<g clip-path="url(#clip0_266_55158)">
<path d="M0 12C0 12.7066 0 12.7851 0.0168342 13.3851C0.0617254 14.7141 0.20201 16.2393 0.735094 17.8487C1.11106 18.987 1.81809 20.215 2.52513 20.9889C3.42296 21.9758 4.66308 22.7832 6.0042 23.2432C7.37338 23.7141 8.8548 23.9385 11.7334 24H12.2665C15.1508 23.9385 16.6266 23.7141 17.9958 23.2432C19.3369 22.7832 20.5714 21.9758 21.4749 20.9889C22.1818 20.2094 22.8889 18.987 23.2648 17.8487C23.7979 16.2393 23.9438 14.7085 23.9831 13.3851C24 12.7907 24 12.7066 24 12C24 11.2935 24 11.215 23.9831 10.615C23.9383 9.28603 23.7979 7.76078 23.2648 6.15142C22.8889 5.0131 22.1818 3.78505 21.4749 3.01123C20.577 2.02431 19.3369 1.21683 17.9958 0.757013C16.6266 0.285983 15.1452 0.0560749 12.2665 0H11.7334C8.84918 0.0616826 7.37338 0.285983 6.0042 0.757013C4.66308 1.21683 3.42857 2.02431 2.52513 3.01123C1.81809 3.79067 1.11106 5.0131 0.735094 6.15142C0.207622 7.76078 0.0617254 9.28603 0.0168342 10.615C0 11.2094 0 11.2935 0 12Z" fill="#C40103"/>
<path d="M11.9941 5.14307C8.19567 5.14307 5.13696 8.1959 5.14283 11.9826C5.14283 15.7634 8.20155 18.8397 11.9824 18.8573C15.7632 18.8749 18.863 15.7692 18.8571 11.9708C18.8512 8.17828 15.7925 5.1372 11.9941 5.14307ZM11.9941 17.8592C8.76514 17.8592 6.12327 15.2115 6.12327 11.9826C6.12327 8.75364 8.77101 6.11765 12 6.12352C15.2348 6.12352 17.8708 8.76536 17.8649 11.9943C17.8649 15.2232 15.2172 17.8592 11.9882 17.8592" fill="white"/>
<path d="M9.44045 13.4621H11.5598V10.3505H9.56375V9.19987H11.554V8.36621H8.5657V11.331H10.4737V12.5286H8.55396V15.3584H11.5598V14.4601H9.44045V13.4621Z" fill="white"/>
<path d="M14.665 13.4621H12.5398V10.3505H14.5359V9.19987H12.5457V8.36621H15.5339V11.331H13.6259V12.5286H15.5457V15.3584H12.5398V14.4601H14.665V13.4621Z" fill="white"/>
</g>
<defs>
<clipPath id="clip0_266_55158">
<rect width="24" height="24" fill="white"/>
</clipPath>
</defs>
</svg>
