<svg width="24" height="24" viewBox="0 0 24 24" fill="none" xmlns="http://www.w3.org/2000/svg">
<g clip-path="url(#clip0_266_55145)">
<path d="M0 12C0 12.7066 0 12.7851 0.0168342 13.3851C0.0617254 14.7141 0.20201 16.2393 0.735094 17.8487C1.11106 18.987 1.81809 20.215 2.52513 20.9889C3.42296 21.9758 4.66308 22.7832 6.0042 23.2432C7.37338 23.7141 8.8548 23.9385 11.7334 24H12.2665C15.1508 23.9385 16.6266 23.7141 17.9958 23.2432C19.3369 22.7832 20.5714 21.9758 21.4749 20.9889C22.1818 20.2094 22.8889 18.987 23.2648 17.8487C23.7979 16.2393 23.9438 14.7085 23.9831 13.3851C24 12.7907 24 12.7066 24 12C24 11.2935 24 11.215 23.9831 10.615C23.9383 9.28603 23.7979 7.76078 23.2648 6.15142C22.8889 5.0131 22.1818 3.78505 21.4749 3.01123C20.577 2.02431 19.3369 1.21683 17.9958 0.757013C16.6266 0.285983 15.1452 0.0560749 12.2665 0H11.7334C8.84918 0.0616826 7.37338 0.285983 6.0042 0.757013C4.66308 1.21683 3.42857 2.02431 2.52513 3.01123C1.81809 3.79067 1.11106 5.0131 0.735094 6.15142C0.207622 7.76078 0.0617254 9.28603 0.0168342 10.615C0 11.2094 0 11.2935 0 12Z" fill="#4041B4"/>
<path d="M6.03101 6.03809C6.03101 6.38006 6.03101 17.968 6.03101 17.968C6.03101 17.968 17.5149 17.9624 17.9693 17.9624V6.03809H6.03101ZM16.2863 16.2806H7.70282V7.69751H16.2863V16.2749V16.2806Z" fill="white"/>
<path d="M10.721 15.1091L15.3157 8.88623H13.2904L8.65649 15.0923L10.721 15.1091Z" fill="white"/>
</g>
<defs>
<clipPath id="clip0_266_55145">
<rect width="24" height="24" fill="white"/>
</clipPath>
</defs>
</svg>
