<svg width="24" height="24" viewBox="0 0 24 24" fill="none" xmlns="http://www.w3.org/2000/svg">
<g clip-path="url(#clip0_266_54863)">
<path d="M0 12C0 12.7065 0 12.785 0.0224456 13.385C0.0617254 14.714 0.207622 16.2393 0.740706 17.8486C1.11667 18.9869 1.82371 20.2149 2.53074 20.9888C3.42857 21.9756 4.66869 22.7831 6.0042 23.2429C7.3734 23.7139 8.8548 23.9439 11.7334 24H12.2666C15.1508 23.9383 16.6266 23.7139 17.9958 23.2429C19.3369 22.7831 20.5714 21.9756 21.4749 20.9888C22.182 20.2094 22.8889 18.9869 23.265 17.8486C23.7979 16.2393 23.9439 14.7084 23.9831 13.385C24 12.7907 24 12.7065 24 12C24 11.2935 24 11.2149 23.9831 10.6149C23.9383 9.28599 23.7979 7.76074 23.265 6.15139C22.8889 5.01309 22.182 3.78504 21.4749 3.01121C20.577 2.0243 19.3369 1.21682 17.9958 0.757009C16.6266 0.285981 15.1452 0.0616821 12.2666 0H11.7334C8.84919 0.0616821 7.3734 0.285981 6.0042 0.757009C4.66307 1.21682 3.42857 2.0243 2.53074 3.01121C1.82371 3.79065 1.11667 5.01309 0.740706 6.15139C0.207622 7.76074 0.0617254 9.28599 0.0224456 10.6149C0 11.2093 0 11.2935 0 12Z" fill="#345D98"/>
<path d="M10.8705 16.2869L7.62454 11.2247C7.31678 10.7519 7.07291 9.76026 7.31678 9.28174L5.30183 12.4239C5.09278 12.7468 5.08697 13.2772 5.30183 13.6116L7.59551 17.1921C7.80456 17.5092 8.28071 17.7859 8.76268 17.7859H11.8403L10.8763 16.2869H10.8705Z" fill="white"/>
<path d="M7.99628 10.9938L9.41895 13.2078C9.25054 12.8734 9.34926 12.4583 9.4596 12.2853L12.1481 8.06494H9.1228C8.58857 8.06494 8.16467 8.30134 7.9324 8.65879L7.67691 9.05085C7.43301 9.52939 7.67691 10.5153 7.98467 10.9881" fill="white"/>
<path d="M18.6925 10.3886L16.3988 6.80821C16.1897 6.49111 15.7136 6.21436 15.2316 6.21436H12.154L16.3639 12.7755C16.6717 13.2483 16.9156 14.2342 16.6775 14.7185L18.6983 11.5763C18.9015 11.2534 18.9189 10.723 18.6983 10.3886" fill="white"/>
<path d="M15.9861 12.9889L14.5635 10.7749C14.7319 11.1093 14.6332 11.5244 14.5228 11.6974L11.8343 15.9178H14.8596C15.3938 15.9178 15.8177 15.6814 16.05 15.3239L16.3055 14.9319C16.5494 14.4533 16.3055 13.4674 15.9919 12.9889" fill="white"/>
</g>
<defs>
<clipPath id="clip0_266_54863">
<rect width="24" height="24" fill="white"/>
</clipPath>
</defs>
</svg>
