<svg width="24" height="24" viewBox="0 0 24 24" fill="none" xmlns="http://www.w3.org/2000/svg">
<g clip-path="url(#clip0_266_55025)">
<path d="M0 12C0 12.7065 0 12.785 0.0168342 13.385C0.0617254 14.714 0.202011 16.2393 0.735094 17.8486C1.11106 18.9869 1.8181 20.2149 2.52514 20.9888C3.42296 21.9756 4.66307 22.7831 6.0042 23.2429C7.3734 23.7139 8.8548 23.9439 11.7334 24H12.2666C15.1508 23.9383 16.6266 23.7139 17.9958 23.2429C19.3369 22.7831 20.5714 21.9756 21.4749 20.9888C22.182 20.2094 22.8889 18.9869 23.265 17.8486C23.7979 16.2393 23.9439 14.7084 23.9831 13.385C24 12.7907 24 12.7065 24 12C24 11.2935 24 11.2149 23.9831 10.6149C23.9383 9.28599 23.7979 7.76074 23.265 6.15139C22.8889 5.01309 22.182 3.78504 21.4749 3.01121C20.577 2.0243 19.3369 1.21682 17.9958 0.757009C16.6266 0.285981 15.1452 0.0560747 12.2666 0H11.7334C8.84919 0.0616821 7.3734 0.285981 6.0042 0.757009C4.66307 1.21682 3.42857 2.0243 2.52514 3.01121C1.8181 3.79065 1.11106 5.01309 0.735094 6.15139C0.207622 7.76074 0.0617254 9.28599 0.0168342 10.6149C0 11.2093 0 11.2935 0 12Z" fill="#E94335"/>
<path d="M4.51252 11.8651C4.51252 11.8651 4.48435 11.9038 4.51252 11.9204L6.8287 13.4175L7.49367 10.3569L4.51816 11.8651H4.51252Z" fill="white"/>
<path d="M18.2349 10.3571H17.6488C17.6206 10.3571 17.5699 10.3681 17.5417 10.3847L14.6057 11.8653C14.6057 11.8653 14.5775 11.904 14.6057 11.9205L16.8824 13.3901C16.9105 13.4067 16.9556 13.4177 16.9838 13.4177H17.5699C17.5981 13.4177 17.6037 13.4067 17.5811 13.3901L15.2537 11.8874L18.2405 10.3792C18.2405 10.3792 18.263 10.3516 18.2349 10.3516" fill="white"/>
<path d="M16.9782 10.3571H12.8981L12.2332 13.4177H16.3132C16.3414 13.4177 16.347 13.4067 16.3245 13.3901L14.0027 11.8874L16.9838 10.3792C16.9838 10.3792 17.0064 10.3516 16.9782 10.3516" fill="white"/>
<path d="M19.4858 10.3571H18.8998C18.8716 10.3571 18.8209 10.3681 18.7927 10.3847L15.8566 11.8653C15.8566 11.8653 15.8285 11.904 15.8566 11.9205L18.1333 13.3901C18.1559 13.4067 18.2066 13.4177 18.2348 13.4177H18.8209C18.849 13.4177 18.8547 13.4067 18.8321 13.3901L16.5047 11.8874L19.4915 10.3792C19.4915 10.3792 19.514 10.3516 19.4858 10.3516" fill="white"/>
<path d="M16.7978 8.35693H7.18936C6.65401 8.35693 6.27641 8.68841 6.1919 9.09723C6.14118 9.32373 6.23135 9.52261 6.40603 9.66073L9.86056 11.8982L16.809 8.39008C16.809 8.39008 16.8316 8.36246 16.8034 8.36246" fill="white"/>
<path d="M15.2761 15.3953L9.86048 11.8872L5.43668 14.1246C5.2 14.2628 5.02529 14.4617 4.98021 14.6882C4.89006 15.097 5.1211 15.4284 5.65647 15.4284H15.2648C15.293 15.4284 15.2987 15.4174 15.2761 15.3953Z" fill="white"/>
</g>
<defs>
<clipPath id="clip0_266_55025">
<rect width="24" height="24" fill="white"/>
</clipPath>
</defs>
</svg>
