<svg width="56" height="56" viewBox="0 0 56 56" fill="none" xmlns="http://www.w3.org/2000/svg">
<g clip-path="url(#clip0_266_56209)">
<path d="M0 28.0001C0 29.6486 0 29.8318 0.0523732 31.2318C0.144026 34.3327 0.484451 37.8916 1.72831 41.6468C2.60556 44.3029 4.25531 47.1683 5.90507 48.9739C8.00001 51.2769 10.8936 53.1608 14.0098 54.2336C17.2045 55.3328 20.6612 55.8695 27.378 56H28.6219C35.3518 55.856 38.7954 55.3328 41.9901 54.2336C45.1194 53.1608 47.9999 51.2769 50.1081 48.9739C51.7575 47.1552 53.4074 44.3029 54.2846 41.6468C55.5284 37.8916 55.869 34.3197 55.9605 31.2318C56 29.8449 56 29.6486 56 28.0001C56 26.3515 56 26.1683 55.9605 24.7682C55.856 21.6673 55.5284 18.1084 54.2846 14.3533C53.4074 11.6972 51.7575 8.8318 50.1081 7.02617C48.013 4.72337 45.1194 2.83926 41.9901 1.76636C38.7954 0.667293 35.3388 0.130841 28.6219 0H27.378C20.6481 0.143925 17.2045 0.667293 14.0098 1.76636C10.8805 2.83926 8.00001 4.72337 5.90507 7.02617C4.25531 8.8449 2.60556 11.6972 1.72831 14.3533C0.484451 18.1084 0.144026 21.6673 0.0523732 24.7682C0 26.1552 0 26.3515 0 28.0001Z" fill="#29B54F"/>
<path d="M35.2635 32.5743C35.3644 32.0706 35.3644 31.5237 35.3356 31.0056C35.2346 29.4081 34.1383 28.1128 32.5948 27.6811C32.3351 27.6091 32.0755 27.5371 31.8158 27.4652V27.3788C32.5082 27.1198 33.1574 26.7744 33.6478 26.2131C34.1527 25.6374 34.4557 24.9754 34.5422 24.227C34.6288 23.3779 34.5134 22.6583 34.2537 22.1402C34.0229 21.6509 33.3161 20.37 30.9359 20.2261H30.8926V35.1648C31.4985 35.1648 32.5082 35.0209 33.1285 34.8194C34.2393 34.474 35.0038 33.7256 35.249 32.5599L35.2635 32.5743Z" fill="white"/>
<path d="M37.4413 12.5124H18.573C15.2264 12.5124 12.5 15.2469 12.5 18.5858V37.4247C12.5 40.7636 15.2408 43.498 18.573 43.498H27.9783C28.0072 42.1308 27.9639 17.1034 27.9639 17.1034C33.2003 16.7868 35.5949 18.7297 36.6624 20.6726C36.9653 21.2195 37.1528 21.7376 37.2827 22.2125C37.5279 23.1336 37.5135 23.8676 37.5135 24.1122C37.5135 24.4145 37.4702 24.7455 37.4125 25.0621C37.3692 25.2924 37.2971 25.5082 37.2105 25.7241C37.1673 25.8249 37.1384 25.9256 37.0807 26.0263C36.6912 26.7603 36.172 27.1345 36.172 27.1345C36.172 27.1345 36.5614 27.5375 36.749 27.7821C37.6433 28.9479 38.177 30.0129 38.2636 31.5528C38.3357 33.0783 38.0328 34.4024 37.0807 35.5249C36.9365 35.6833 36.7922 35.8416 36.6335 35.9999C36.1431 36.4604 35.6238 36.8202 35.0612 37.1081C34.0802 37.6118 32.9551 37.8276 31.9597 37.9428C31.5125 37.986 31.0221 38.0147 30.849 38.0003C30.849 38.0867 30.849 41.368 30.8346 43.0231C30.8346 43.0519 30.8346 43.3541 30.8346 43.4836H37.4125C40.7592 43.4836 43.5 40.7492 43.5 37.4103V18.5714C43.5 15.2325 40.7592 12.498 37.4125 12.498L37.4413 12.5124ZM26.1752 33.3374C25.8578 35.3954 24.7615 36.9066 23.0161 38.0003C22.9007 38.0723 22.742 38.1155 22.5977 38.1011C21.5447 38.0723 20.506 38.0291 19.453 38.0003C19.3376 38.0003 19.2366 37.986 19.1212 37.9716C19.1789 37.8276 21.6168 35.9279 22.4534 34.7334C23.3622 33.4381 23.3767 32.3444 22.3381 31.1498C21.6889 30.4015 20.9244 29.7538 20.1887 29.0774C18.5153 27.5375 17.5489 25.7097 17.722 23.3782C17.7508 22.9609 17.9239 20.3272 20.3762 18.4275C22.2948 16.9307 24.8769 17.0315 25.6992 17.1034C25.7569 17.1034 25.8579 17.1178 25.93 17.1322H25.9444L25.9732 20.0393C25.9732 20.0393 25.4539 20.0393 25.2808 20.0393C21.6312 20.0825 20.9965 22.5435 21.083 22.2845C20.8955 22.8745 20.8523 23.5941 21.011 24.2561C21.2706 25.3499 21.9486 26.1847 22.6987 26.9906C23.521 27.8829 24.372 28.7464 25.151 29.6819C26.0309 30.7325 26.3916 31.9702 26.1752 33.3518V33.3374Z" fill="white"/>
</g>
<defs>
<clipPath id="clip0_266_56209">
<rect width="56" height="56" fill="white"/>
</clipPath>
</defs>
</svg>
