<svg width="32" height="32" viewBox="0 0 32 32" fill="none" xmlns="http://www.w3.org/2000/svg">
<g clip-path="url(#clip0_266_55245)">
<path d="M0 16C0 16.9421 0 17.0467 0.0224509 17.8467C0.08232 19.6187 0.269411 21.6523 0.980354 23.7981C1.48176 25.3159 2.4247 26.9533 3.36763 27.9851C4.56503 29.3009 6.21889 30.3774 8.00749 30.9906C9.83349 31.6186 11.8092 31.9251 15.6483 32H16.3592C20.2058 31.9177 22.174 31.6186 24 30.9906C25.7886 30.3774 27.435 29.3009 28.6323 27.9851C29.5754 26.9458 30.5183 25.3159 31.0197 23.7981C31.7306 21.6523 31.9251 19.6112 31.9774 17.8467C32 17.0542 32 16.9421 32 16C32 15.0579 32 14.9533 31.9774 14.1533C31.9177 12.3813 31.7306 10.3477 31.0197 8.20186C30.5183 6.68411 29.5754 5.04671 28.6323 4.01494C27.435 2.69907 25.7811 1.62243 24 1.00935C22.174 0.381309 20.1983 0.0747663 16.3592 0H15.6483C11.8017 0.0822429 9.83349 0.381309 8.00749 1.00935C6.21889 1.62243 4.57249 2.69907 3.36763 4.01494C2.4247 5.0542 1.48176 6.68411 0.980354 8.20186C0.276894 10.3477 0.08232 12.3813 0.0224509 14.1533C0 14.9458 0 15.0579 0 16Z" fill="#1585B4"/>
<path d="M9.93275 5.48036C9.62535 5.62125 9.34912 5.82205 9.12032 6.07105C8.89152 6.32002 8.71469 6.61219 8.60026 6.93039L4.35026 18.9909C4.23909 19.3029 4.19463 19.6348 4.21969 19.965C4.24475 20.2953 4.3388 20.6167 4.49575 20.9084C4.82203 21.5132 5.37415 21.9644 6.03175 22.1639L19.9657 26.5824C20.6357 26.7946 21.3612 26.7453 21.9963 26.4444C22.3037 26.3038 22.5798 26.103 22.8084 25.854C23.037 25.6049 23.2134 25.3127 23.3273 24.9944L27.5773 12.9354C27.6832 12.6166 27.7235 12.2797 27.6956 11.9449C27.6678 11.6102 27.5724 11.2845 27.4153 10.9876C27.2581 10.6907 27.0425 10.4287 26.7813 10.2175C26.5202 10.0062 26.2189 9.85005 25.8957 9.75839L11.9617 5.34139C11.2921 5.12979 10.5672 5.17888 9.93226 5.47888" fill="white"/>
<path d="M16.7433 17.0658C15.9664 17.8871 15.0097 18.5171 13.9483 18.9063L13.3188 19.1373V13.5473L13.9403 13.7748C15.0028 14.1614 15.9612 14.789 16.7403 15.6083C17.2961 14.7681 17.6236 13.7975 17.6903 12.7923C17.7482 11.4915 17.3861 10.2066 16.6577 9.12745C15.9292 8.04825 14.8729 7.23197 13.6448 6.79928L11.6333 6.1668C11.2061 6.02637 10.7413 6.0564 10.3357 6.25068C9.93023 6.44494 9.61549 6.7884 9.45729 7.20928L5.19529 19.2773C5.12754 19.4866 5.10286 19.7075 5.12274 19.9267C5.14263 20.1458 5.20666 20.3586 5.31097 20.5524C5.41529 20.7461 5.55772 20.9167 5.72972 21.0539C5.90174 21.1911 6.09972 21.2921 6.3118 21.3508L15.9838 24.4008C16.9958 23.3964 17.6066 22.0574 17.7018 20.6348C17.7833 19.3724 17.4464 18.1184 16.7433 17.0668M11.1533 19.4803H10.1918V13.2148H11.1533V19.4803Z" fill="#008AD3"/>
<path d="M16.1837 16.3366C15.6359 15.7272 14.9759 15.229 14.2397 14.8691V17.8127C14.9773 17.4512 15.6375 16.9502 16.1837 16.3366Z" fill="#EC4315"/>
<path d="M25.5876 10.5666L16.7126 7.7666C17.8237 8.88409 18.4989 10.3618 18.6163 11.9333C18.7337 13.5047 18.2857 15.0664 17.3531 16.3366C18.2611 17.5645 18.7153 19.0692 18.6381 20.5943C18.561 22.1195 17.9574 23.5707 16.9301 24.7006L20.2651 25.7506C20.6925 25.8901 21.1573 25.8593 21.5625 25.6645C21.9677 25.4697 22.2821 25.126 22.4401 24.7051L26.7031 12.6411C26.7704 12.4316 26.7947 12.2107 26.7746 11.9916C26.7545 11.7725 26.6903 11.5597 26.5859 11.366C26.4816 11.1723 26.3392 11.0016 26.1673 10.8643C25.9954 10.7269 25.7976 10.6257 25.5856 10.5666M23.2356 19.4591L22.0356 19.4641L19.5706 16.3291L22.0736 13.1966L23.2821 13.1926L20.7741 16.3336L23.2356 19.4591Z" fill="#004593"/>
</g>
<defs>
<clipPath id="clip0_266_55245">
<rect width="32" height="32" fill="white"/>
</clipPath>
</defs>
</svg>
