<svg width="40" height="40" viewBox="0 0 40 40" fill="none" xmlns="http://www.w3.org/2000/svg">
<g clip-path="url(#clip0_266_55971)">
<path d="M0 20C0 21.1776 0 21.3084 0.028057 22.3084C0.102876 24.5234 0.336685 27.0654 1.22516 29.7476C1.85176 31.6449 3.03016 33.6916 4.20857 34.9813C5.70493 36.6261 7.77179 37.9718 10.007 38.7382C12.289 39.5232 14.758 39.9064 19.5557 40H20.4443C25.2514 39.8971 27.711 39.5232 29.993 38.7382C32.2282 37.9718 34.2857 36.6261 35.7914 34.9813C36.97 33.6823 38.1482 31.6449 38.775 29.7476C39.6632 27.0654 39.9064 24.514 39.9718 22.3084C40 21.3178 40 21.1776 40 20C40 18.8224 40 18.6823 39.9718 17.6916C39.8971 15.4766 39.6632 12.9346 38.775 10.2523C38.1482 8.35514 36.97 6.30839 35.7914 5.01868C34.2951 3.37383 32.2282 2.02804 29.993 1.26168C27.711 0.476636 25.242 0.0934579 20.4443 0H19.5557C14.7486 0.102804 12.289 0.476636 10.007 1.26168C7.77179 2.02804 5.71429 3.37383 4.20857 5.01868C3.03016 6.31775 1.85176 8.35514 1.22516 10.2523C0.346037 12.9346 0.102876 15.4766 0.028057 17.6916C0 18.6823 0 18.8224 0 20Z" fill="#ED3423"/>
<path d="M13.8684 13.5713C15.9052 15.6646 17.9844 17.811 20.0106 19.8936C22.1322 17.7791 24.2432 15.6646 26.3331 13.5713H13.8684ZM26.2482 26.4284C24.1902 24.367 22.0898 22.2738 19.9788 20.1593C17.9526 22.2206 15.8734 24.3245 13.8048 26.4284H26.2482ZM26.6831 26.2797C26.6831 26.2797 26.7468 26.3222 26.7786 26.3434C28.826 24.2395 30.884 22.125 32.8571 20.0955C30.8521 18.0341 28.7942 15.9196 26.6938 13.7519V26.2797H26.6831ZM7.14282 20.0318C9.26446 22.125 11.3437 24.1758 13.4653 26.269V13.7944C11.3331 15.8983 9.25386 17.9491 7.14282 20.0424" fill="white"/>
<path d="M13.8687 13.5713H26.3333C24.2435 15.6646 22.1324 17.7685 20.0108 19.8936C17.9847 17.811 15.9054 15.6646 13.8687 13.5713Z" fill="white"/>
<path d="M26.2481 26.4289H13.8047C15.8733 24.325 17.9525 22.2211 19.9787 20.1597C22.0897 22.2742 24.1901 24.3675 26.2481 26.4289Z" fill="white"/>
<path d="M26.6832 26.2797V13.752C28.7943 15.9196 30.8416 18.0341 32.8466 20.0955C30.8735 22.125 28.8261 24.2289 26.7681 26.3435C26.7362 26.3222 26.7044 26.301 26.6726 26.2797" fill="white"/>
<path d="M7.14282 20.0316C9.25386 17.949 11.3437 15.8876 13.4653 13.7837V26.2689C11.3437 24.1757 9.25386 22.1143 7.14282 20.0316Z" fill="white"/>
</g>
<defs>
<clipPath id="clip0_266_55971">
<rect width="40" height="40" fill="white"/>
</clipPath>
</defs>
</svg>
