<svg width="56" height="56" viewBox="0 0 56 56" fill="none" xmlns="http://www.w3.org/2000/svg">
<g clip-path="url(#clip0_266_56198)">
<path d="M0 28C0 29.6486 0 29.8318 0.0392798 31.2318C0.144026 34.3327 0.471358 37.8916 1.71522 41.6468C2.59247 44.3028 4.24223 47.1682 5.892 48.9739C7.9869 51.2765 10.8805 53.1605 14.0098 54.2335C17.2046 55.3325 20.6612 55.869 27.378 56H28.622C35.3519 55.856 38.7954 55.3325 41.9902 54.2335C45.1194 53.1605 48 51.2765 50.108 48.9739C51.758 47.1552 53.4075 44.3028 54.285 41.6468C55.5285 37.8916 55.869 34.3196 55.9605 31.2318C56 29.8449 56 29.6486 56 28C56 26.3514 56 26.1682 55.9605 24.7682C55.856 21.6673 55.5285 18.1084 54.285 14.3532C53.4075 11.6972 51.758 8.83175 50.108 7.02615C48.0131 4.72337 45.1194 2.83925 41.9902 1.76636C38.7954 0.66729 35.3388 0.130841 28.622 0H27.378C20.6481 0.143925 17.2046 0.66729 14.0098 1.76636C10.8805 2.83925 8 4.72337 5.892 7.02615C4.24223 8.84485 2.59247 11.6972 1.71522 14.3532C0.484452 18.1084 0.144026 21.6673 0.0392798 24.7682C0 26.1551 0 26.3514 0 28Z" fill="#E94335"/>
<path d="M10.5292 27.6857C10.5292 27.6857 10.4635 27.7759 10.5292 27.8146L15.9336 31.3079L17.4852 24.1665L10.5424 27.6857H10.5292Z" fill="white"/>
<path d="M42.5482 24.1662H41.1806C41.1149 24.1662 40.9965 24.192 40.9308 24.2307L34.08 27.6854C34.08 27.6854 34.0143 27.7756 34.08 27.8143L39.3923 31.2432C39.4581 31.2819 39.5633 31.3076 39.629 31.3076H40.9965C41.0623 31.3076 41.0754 31.2819 41.0228 31.2432L35.5922 27.7369L42.5613 24.2178C42.5613 24.2178 42.6139 24.1533 42.5482 24.1533" fill="white"/>
<path d="M39.6157 24.1662H30.0956L28.5439 31.3076H38.064C38.1298 31.3076 38.1429 31.2819 38.0903 31.2432L32.6728 27.7369L39.6288 24.2178C39.6288 24.2178 39.6814 24.1533 39.6157 24.1533" fill="white"/>
<path d="M45.4671 24.1662H44.0995C44.0338 24.1662 43.9154 24.192 43.8497 24.2307L36.9989 27.6854C36.9989 27.6854 36.9332 27.7756 36.9989 27.8143L42.3112 31.2432C42.3638 31.2819 42.4822 31.3076 42.5479 31.3076H43.9154C43.9812 31.3076 43.9943 31.2819 43.9417 31.2432L38.5111 27.7369L45.4802 24.2178C45.4802 24.2178 45.5328 24.1533 45.4671 24.1533" fill="white"/>
<path d="M39.1948 19.5H16.7752C15.5261 19.5 14.645 20.2735 14.4478 21.2274C14.3295 21.7559 14.5399 22.2199 14.9475 22.5422L23.008 27.7629L39.2211 19.5774C39.2211 19.5774 39.2737 19.5129 39.208 19.5129" fill="white"/>
<path d="M35.6444 35.9229L23.0079 27.7373L12.6857 32.958C12.1334 33.2803 11.7258 33.7444 11.6206 34.2729C11.4102 35.2268 11.9493 36.0002 13.1985 36.0002H35.6181C35.6838 36.0002 35.697 35.9744 35.6444 35.9229Z" fill="white"/>
</g>
<defs>
<clipPath id="clip0_266_56198">
<rect width="56" height="56" fill="white"/>
</clipPath>
</defs>
</svg>
