<svg width="24" height="24" viewBox="0 0 24 24" fill="none" xmlns="http://www.w3.org/2000/svg">
<g clip-path="url(#clip0_266_55112)">
<path fill-rule="evenodd" clip-rule="evenodd" d="M2.76294 2.76386L5.99848 6.00051L11.999 0H11.7362C8.85131 0.0616821 7.37516 0.285981 6.00566 0.757009C4.77808 1.17779 3.63984 1.88971 2.76294 2.76386Z" fill="#008CCF"/>
<path fill-rule="evenodd" clip-rule="evenodd" d="M0 11.9988L5.99844 6.00035L2.76289 2.76367C2.68153 2.84478 2.60244 2.92726 2.52572 3.01104C1.81852 3.79049 1.11132 5.01292 0.735266 6.15123C0.207671 7.76058 0.06174 9.28582 0.0168382 10.6148C8.27653e-06 11.2089 0 11.2932 0 11.9988Z" fill="#0098D7"/>
<path fill-rule="evenodd" clip-rule="evenodd" d="M2.32611e-05 12.2143H12.2143L6.00216 6L0 12.0001C0 12.0787 7.28895e-09 12.1496 2.32611e-05 12.2143Z" fill="#008CCF"/>
<path fill-rule="evenodd" clip-rule="evenodd" d="M12.0011 0L6.00269 5.99844L12.0011 11.9989V0Z" fill="#007AC6"/>
<path fill-rule="evenodd" clip-rule="evenodd" d="M12.001 0V11.9989L17.9973 6.00051L12.001 0Z" fill="#0067B6"/>
<path fill-rule="evenodd" clip-rule="evenodd" d="M23.9999 11.999L18.0015 5.99854L12.001 11.999H23.9999Z" fill="#004294"/>
<path fill-rule="evenodd" clip-rule="evenodd" d="M0 11.999L5.99844 18.0016L11.9989 11.999H0Z" fill="#007AC6"/>
<path fill-rule="evenodd" clip-rule="evenodd" d="M0.0168382 13.3851C0 12.7851 0 12.7066 0 12.0001V11.999L5.99844 18.0016L2.76221 21.2367C2.68099 21.1555 2.60211 21.0728 2.52572 20.9889C1.81852 20.215 1.11132 18.987 0.735266 17.8487C0.202058 16.2393 0.06174 14.7141 0.0168382 13.3851Z" fill="#0067B6"/>
<path fill-rule="evenodd" clip-rule="evenodd" d="M11.6331 23.998H12.001L6.00261 17.9976L2.76221 21.2368C3.63555 22.1108 4.77829 22.8225 6.00561 23.2431C7.35868 23.7085 8.82133 23.9385 11.6331 23.998Z" fill="#0054A7"/>
<path fill-rule="evenodd" clip-rule="evenodd" d="M12.0011 11.999V23.9979L6.00269 17.9975L12.0011 11.999Z" fill="#004898"/>
<path fill-rule="evenodd" clip-rule="evenodd" d="M17.9973 18.0016L12.001 11.999H23.9978L17.9973 18.0016Z" fill="#092C86"/>
<path fill-rule="evenodd" clip-rule="evenodd" d="M12.001 23.9979V11.999L17.9973 18.0016L12.001 23.9979Z" fill="#004294"/>
<path fill-rule="evenodd" clip-rule="evenodd" d="M21.2387 21.2359L18.0015 17.9976L12.001 23.998H12.364C15.1867 23.9335 16.6455 23.709 17.9999 23.2431C19.2277 22.8222 20.3661 22.1102 21.2387 21.2359Z" fill="#092C86"/>
<path fill-rule="evenodd" clip-rule="evenodd" d="M23.9999 11.999L18.0015 17.9975L21.2387 21.2358C21.3195 21.1549 21.3981 21.0725 21.4741 20.9888C22.1815 20.2094 22.8886 18.987 23.2647 17.8487C23.7978 16.2393 23.9438 14.7085 23.983 13.3851C23.9999 12.7907 23.9999 12.7066 23.9999 12.0002C23.9999 11.9998 23.9999 11.9993 23.9999 11.999Z" fill="#092C86"/>
<path fill-rule="evenodd" clip-rule="evenodd" d="M12.001 0L17.9973 6.00051L21.2361 2.76174C20.363 1.88855 19.2214 1.17745 17.9999 0.757009C16.6304 0.285981 15.1487 0.0560747 12.2693 0H12.001Z" fill="#0054A7"/>
<path fill-rule="evenodd" clip-rule="evenodd" d="M21.2371 2.7627L18.0015 5.99837L23.9999 11.9989C23.9999 11.2933 23.9999 11.2146 23.983 10.6149C23.9382 9.28592 23.7978 7.76067 23.2647 6.15132C22.8886 5.01302 22.1815 3.78497 21.4741 3.01114C21.3976 2.92699 21.3185 2.84415 21.2371 2.7627Z" fill="#004898"/>
<path fill-rule="evenodd" clip-rule="evenodd" d="M23.8855 14.8935L16.3152 7.68262L4.65601 19.371L8.90994 23.6249L16.3152 16.3301L21.2432 21.2313C21.3224 21.1518 21.3994 21.071 21.4741 20.9889C22.1813 20.2094 22.8886 18.987 23.2647 17.8487C23.6052 16.8204 23.788 15.8241 23.8855 14.8935Z" fill="white"/>
</g>
<defs>
<clipPath id="clip0_266_55112">
<rect width="24" height="24" fill="white"/>
</clipPath>
</defs>
</svg>
