<svg width="32" height="32" viewBox="0 0 32 32" fill="none" xmlns="http://www.w3.org/2000/svg">
<g clip-path="url(#clip0_266_55563)">
<path d="M0 16.0003C0 16.9423 0 17.0471 0.03 17.8471C0.0822857 19.6191 0.276857 21.6529 0.987714 23.7986C1.48914 25.3163 2.43171 26.9537 3.37457 27.9854C4.57171 29.3014 6.22514 30.378 8.00571 30.9911C9.83143 31.6191 11.8066 31.9257 15.6446 32.0006H16.3554C20.2011 31.9183 22.1689 31.6191 23.9943 30.9911C25.7826 30.378 27.4286 29.3014 28.6331 27.9854C29.576 26.9463 30.5186 25.3163 31.02 23.7986C31.7309 21.6529 31.9254 19.6117 31.9777 17.8471C32.0003 17.0546 32.0003 16.9426 32.0003 16.0003C32.0003 15.058 32.0003 14.946 31.9777 14.1534C31.918 12.3814 31.7309 10.3477 31.02 8.20199C30.5189 6.68428 29.576 5.04685 28.6331 4.01514C27.436 2.69914 25.7826 1.62257 23.9943 1.00943C22.1686 0.381428 20.1934 0.074857 16.3554 0H15.6446C11.7989 0.0822856 9.83114 0.381428 8.00571 1.00943C6.21743 1.62257 4.57143 2.69914 3.37457 4.01514C2.43171 5.05428 1.48914 6.68428 0.987714 8.20199C0.276857 10.348 0.0822857 12.3817 0.03 14.1534C0 14.946 0 15.058 0 16.0003Z" fill="#266798"/>
<path d="M7.14282 16.8506V16.15C7.14282 16.15 7.16056 16.1063 7.16056 16.0887C7.19602 15.7647 7.21374 15.4407 7.26694 15.1167C7.39994 14.2411 7.68365 13.4092 8.08262 12.6211C8.33088 12.1307 8.62345 11.6754 8.96037 11.2463C9.27954 10.8347 9.63416 10.4582 10.0243 10.1079C10.5829 9.60879 11.1857 9.18848 11.8507 8.83822C12.3117 8.60179 12.7993 8.40039 13.2959 8.24277C13.9963 8.02385 14.7144 7.90125 15.4414 7.86622C15.8847 7.84871 16.328 7.87499 16.7625 7.99757C17.2678 8.13768 17.7023 8.40039 18.0658 8.77691C18.5977 9.34611 19.1386 9.89776 19.6705 10.4582C20.034 10.8347 20.3887 11.2113 20.7522 11.5878C21.3462 12.2095 21.9402 12.8225 22.5343 13.4442C22.7027 13.6193 22.88 13.8033 23.0485 13.9784C22.286 14.7577 21.5324 15.5195 20.7611 16.3164C19.1386 14.7052 17.5249 13.1115 15.9202 11.5177C14.2357 13.1815 12.5511 14.8453 10.8843 16.4828C12.56 18.1465 14.2445 19.8103 15.9379 21.4828C15.9557 21.4653 15.9734 21.4303 16 21.404C17.6313 19.7928 19.2627 18.1816 20.894 16.5703C20.9472 16.5178 21.0004 16.4915 21.0802 16.4915C22.2328 16.4915 23.3854 16.4915 24.538 16.4915H24.671C24.6621 16.7017 24.671 16.8943 24.6444 17.087C24.6 17.4898 24.5557 17.8926 24.4759 18.2954C24.2897 19.1798 23.9617 20.0205 23.4918 20.8086C23.0485 21.5529 22.5077 22.2271 21.8693 22.8138C21.3107 23.3217 20.699 23.7596 20.034 24.1186C19.3691 24.4689 18.6775 24.7403 17.9505 24.8979C17.5338 24.9855 17.1082 25.038 16.6827 25.0993C16.5763 25.1168 16.4699 25.1256 16.3546 25.1431H15.468C15.468 25.1431 15.406 25.1256 15.3794 25.1256C15.1843 25.1081 14.9893 25.1081 14.8031 25.0818C14.1559 24.9943 13.5264 24.8454 12.9146 24.6264C12.1078 24.3375 11.3542 23.9347 10.6715 23.4268C9.89128 22.8489 9.22634 22.1658 8.67665 21.369C8.19788 20.6772 7.82551 19.9241 7.55954 19.1273C7.32902 18.4093 7.18716 17.6737 7.16056 16.9118C7.16056 16.8856 7.14282 16.8681 7.14282 16.8418" fill="white"/>
<path d="M24.857 12.1743C24.3783 12.6472 23.9172 13.1201 23.4385 13.6017C23.3144 13.4703 23.1902 13.3477 23.075 13.2251C22.7824 12.9187 22.4898 12.6122 22.1972 12.3057C21.6564 11.7365 21.1067 11.1673 20.5659 10.5981C20.2556 10.2741 19.9541 9.95014 19.6438 9.62614C19.2714 9.23208 18.8991 8.8468 18.5267 8.45274C18.2252 8.12874 17.8618 7.90108 17.4539 7.72594C16.9486 7.5158 16.4254 7.41071 15.8758 7.41071C15.7339 7.41071 15.592 7.42823 15.4236 7.44574C15.4856 7.3932 15.53 7.35817 15.5743 7.32314C15.8758 7.12174 16.2127 7.0254 16.5584 6.95537C16.9397 6.87654 17.3298 6.85028 17.7199 6.85903C18.4824 6.87654 19.2271 7.01666 19.9187 7.36691C20.3176 7.56831 20.6457 7.86606 20.9471 8.18128C21.3372 8.59286 21.7362 8.99566 22.1352 9.39846C22.6849 9.96766 23.2434 10.5281 23.7931 11.0973C24.1212 11.43 24.4492 11.7715 24.7772 12.1043C24.795 12.1218 24.8127 12.1481 24.8393 12.1743" fill="white"/>
</g>
<defs>
<clipPath id="clip0_266_55563">
<rect width="32" height="32" fill="white"/>
</clipPath>
</defs>
</svg>
