<svg width="32" height="32" viewBox="0 0 32 32" fill="none" xmlns="http://www.w3.org/2000/svg">
<g clip-path="url(#clip0_266_55366)">
<path d="M0 16C0 16.9421 0 17.0467 0.0224509 17.8467C0.08232 19.6187 0.269411 21.6523 0.980354 23.7981C1.48176 25.3159 2.4247 26.9533 3.36763 27.9851C4.56503 29.3009 6.21889 30.3774 8.00749 30.9906C9.83349 31.6186 11.8092 31.9251 15.6483 32H16.3592C20.2058 31.9177 22.174 31.6186 24 30.9906C25.7886 30.3774 27.435 29.3009 28.6323 27.9851C29.5754 26.9458 30.5183 25.3159 31.0197 23.7981C31.7306 21.6523 31.9251 19.6112 31.9774 17.8467C32 17.0542 32 16.9421 32 16C32 15.0579 32 14.9533 31.9774 14.1533C31.9177 12.3813 31.7306 10.3477 31.0197 8.20186C30.5183 6.68411 29.5754 5.04671 28.6323 4.01494C27.435 2.69907 25.7811 1.62243 24 1.00935C22.174 0.381309 20.1983 0.0747663 16.3592 0H15.6483C11.8017 0.0822429 9.83349 0.381309 8.00749 1.00935C6.21889 1.62243 4.57249 2.69907 3.36763 4.01494C2.4247 5.0542 1.48176 6.68411 0.980354 8.20186C0.276894 10.3477 0.08232 12.3813 0.0224509 14.1533C0 14.9458 0 15.0579 0 16Z" fill="#FFDF00"/>
<path d="M20.0216 15.9994C20.4972 15.7195 20.9096 15.3454 21.2331 14.9006C21.5566 14.4558 21.7843 13.9497 21.902 13.4139C22.0196 12.8781 22.0248 12.324 21.9171 11.7861C21.8095 11.2482 21.5913 10.7381 21.2762 10.2874C20.8609 9.70804 20.3108 9.23659 19.6725 8.91301C19.0342 8.58944 18.3265 8.42336 17.6096 8.42884H10.2542C10.1886 8.42739 10.1251 8.45167 10.0775 8.49644C10.0298 8.54121 10.002 8.60281 10 8.66784V23.33C10.0016 23.3951 10.0292 23.457 10.0767 23.502C10.1243 23.547 10.1879 23.5715 10.2536 23.57H17.6096C18.7431 23.6 19.8423 23.1826 20.6655 22.4095C21.4887 21.6365 21.9687 20.571 22 19.4473C21.994 18.7531 21.8091 18.0719 21.4629 17.4684C21.1166 16.865 20.6205 16.3593 20.0216 15.9994ZM16.4107 19.4446H15.0296V12.5537H16.4107V19.4446Z" fill="#1E1E1E"/>
</g>
<defs>
<clipPath id="clip0_266_55366">
<rect width="32" height="32" fill="white"/>
</clipPath>
</defs>
</svg>
