<svg width="32" height="32" viewBox="0 0 32 32" fill="none" xmlns="http://www.w3.org/2000/svg">
<g clip-path="url(#clip0_266_55599)">
<path d="M0 16C0 16.942 0 17.0467 0.0224509 17.8467C0.08232 19.6186 0.269411 21.6523 0.980354 23.7981C1.48176 25.3158 2.4247 26.9532 3.36763 27.985C4.56503 29.301 6.21889 30.3774 8.00749 30.9904C9.83349 31.6186 11.8092 31.9251 15.6483 32H16.3592C20.2058 31.9177 22.174 31.6186 24 30.9904C25.7886 30.3774 27.435 29.301 28.6323 27.985C29.5754 26.9457 30.5183 25.3158 31.0197 23.7981C31.7306 21.6523 31.9251 19.6112 31.9774 17.8467C32 17.0542 32 16.942 32 16C32 15.0579 32 14.9532 31.9774 14.1532C31.9177 12.3813 31.7306 10.3476 31.0197 8.20183C30.5183 6.68409 29.5754 5.04672 28.6323 4.01494C27.435 2.69906 25.7811 1.62243 24 1.00934C22.174 0.381307 20.1983 0.0747662 16.3592 0H15.6483C11.8017 0.0822429 9.83349 0.381307 8.00749 1.00934C6.21889 1.62243 4.57249 2.69906 3.36763 4.01494C2.4247 5.05418 1.48176 6.68409 0.980354 8.20183C0.276894 10.3476 0.08232 12.3813 0.0224509 14.1532C0 14.9457 0 15.0579 0 16Z" fill="#002561"/>
<path d="M27.9977 21.6011C28.0118 21.5388 27.9583 21.3464 27.9442 21.2813H27.9386V21.2558H27.933L27.9302 21.2304H27.9217V21.2077H27.9133V21.1908H27.9048V21.1653H27.8964L27.888 21.1313H27.8795C27.8739 21.0521 27.8035 20.9842 27.7698 20.9135C27.7191 20.8173 27.629 20.738 27.5643 20.656H27.5474L27.5137 20.6079H27.4968C27.4855 20.5937 27.2379 20.3108 27.2238 20.3136V20.3079C27.2097 20.2909 26.8017 19.9231 26.7932 19.9005H26.7792C26.6863 19.7901 26.5005 19.6316 26.4161 19.5213C26.4049 19.5213 26.3823 19.5071 26.3739 19.4986L26.3683 19.4788C26.3486 19.4647 26.3176 19.4562 26.3007 19.4364L26.2923 19.4194C26.2698 19.3996 26.2276 19.3798 26.2022 19.3657V19.3572H26.1854V19.3458C26.1403 19.3034 26.0446 19.2129 26.0024 19.1676V19.1534L25.9771 19.1308V19.1251H25.9602L25.8955 19.0402H25.8786L25.8533 19.0035H25.8364L25.8195 18.9752H25.8026L25.7857 18.9469H25.7688L25.7604 18.9271H25.7463C25.7323 18.9101 25.6028 18.7714 25.5887 18.7658V18.7516L25.569 18.7403V18.7262L25.5521 18.7148V18.7092L25.5353 18.6979V18.6837H25.5268L25.5015 18.6384H25.4846C25.4734 18.6215 25.1553 18.3215 25.1525 18.3017L25.1216 18.2876L25.1131 18.2706L25.0794 18.2564C24.9809 18.1376 24.8373 17.9961 24.7388 17.8773H24.7248L24.6994 17.8377H24.6854L24.66 17.8009H24.6432L24.6263 17.7726L24.6094 17.7669L24.494 17.6339H24.4856L24.4771 17.6085L24.4602 17.5971V17.5802C24.4293 17.5802 23.9593 17.0114 23.9312 17.0057L23.9227 16.9803L23.9086 16.9718V16.9548L23.8889 16.9435V16.9265L23.8636 16.9095V16.8926L23.8467 16.8812V16.8671L23.8045 16.8303V16.8162C23.8045 16.8162 23.7567 16.7737 23.7567 16.7539H23.7398C23.7116 16.6945 23.63 16.6435 23.5963 16.5898H23.5794L23.5456 16.5417H23.5287L23.5231 16.5219H23.5062L23.4865 16.4936H23.4724L23.4612 16.4738C23.4612 16.4738 23.4443 16.4709 23.4443 16.4681V16.4653V16.4511H23.4359L23.4246 16.4398L23.3655 16.3521V16.3436L23.3571 16.3379L23.3458 16.321L23.3402 16.3012L23.3261 16.2927V16.2785H23.3177L23.3092 16.2531L23.2923 16.2417V16.2276L23.2698 16.2078L23.2586 16.1936V16.1851L23.2445 16.1738L23.2051 16.1144L23.1798 16.1003L23.1657 16.0861L23.1601 16.0606H23.1432V16.0437H23.1263C23.1122 16.0239 22.9996 15.9248 22.9968 15.905H22.9828L22.9715 15.8824H22.9574L22.9405 15.8541L22.9096 15.8399L22.9011 15.8258L22.8758 15.8116V15.806L22.8252 15.7833V15.7748H22.8111V15.7635L22.7633 15.7409V15.7352L22.721 15.7183V15.7126H22.7042V15.7013H22.6788V15.69L22.6619 15.6843V15.6758H22.6366V15.6645H22.6197V15.6532L22.5634 15.6334V15.6249H22.5381V15.6136L22.5043 15.6079V15.5994L22.4621 15.5938V15.5853L22.4227 15.5768V15.5683L22.2905 15.5372V15.5315L21.9331 15.4777V15.4834L21.888 15.4777V15.4834L21.8486 15.4777V15.4834H21.8233V15.4862L21.7895 15.4777V15.4862L21.7558 15.4806V15.4891L21.7389 15.4834V15.4919H21.691V15.4975H21.677V15.5004H21.6544V15.5032H21.6207V15.5117H21.5953V15.5145L21.5475 15.5202V15.5287L21.5334 15.523V15.5343H21.4997L21.4912 15.5485H21.4575L21.449 15.5655H21.4293V15.5711H21.4068L21.4012 15.5881H21.3843L21.3702 15.6051L21.3533 15.5994L21.3364 15.6192H21.3196L21.2942 15.6447H21.2773C21.2408 15.6447 20.4106 16.1597 20.3683 16.137V16.1455H20.3458L20.3374 16.1597H20.3205V16.1653C20.3149 16.1653 20.2333 16.2134 20.1573 16.2615L19.0091 16.8048C18.995 16.7794 18.964 16.7199 18.964 16.6973L18.9472 16.686L18.9387 16.652H18.9303L18.9218 16.6266L18.9049 16.6153V16.6011L18.8881 16.5898V16.5756L18.8627 16.5558V16.5417L18.8402 16.5219V16.5049L18.8036 16.4766V16.4625H18.7952C18.7952 16.4625 18.6489 16.2502 18.6376 16.2361H18.6292L18.6123 16.1851H18.6038V16.171H18.5954V16.154H18.5869V16.137H18.5785V16.1201L18.5588 16.1003V16.0833C18.5419 16.0833 18.4941 15.9899 18.4856 15.9786V15.9644L18.4687 15.9531V15.939L18.4434 15.9192V15.9022C18.4125 15.8937 18.3308 15.7239 18.314 15.6984H18.3055V15.673H18.2971L18.2858 15.6334H18.2774V15.6164H18.2689V15.5938H18.2605L18.252 15.5598H18.2436V15.5428H18.2352V15.5174L18.2183 15.5089V15.4919H18.2098V15.4777H18.2014V15.4608L18.1845 15.441V15.4268L18.1676 15.4127L18.1564 15.3787H18.1479L18.1395 15.3532L18.1226 15.3419V15.3278L18.1001 15.308V15.2938L18.0804 15.2825V15.2683L18.0551 15.2485L18.0466 15.2231H18.0382C18.0157 15.1891 17.9678 15.1184 17.9481 15.0844H17.9397V15.059H17.9312V15.0335H17.9228V15.0108H17.9143V14.991H17.9059V14.9684H17.8975V14.9514H17.889V14.926H17.8806L17.8665 14.875H17.8581V14.858H17.8468V14.8411H17.8384V14.8241H17.8299L17.8102 14.7732L17.7961 14.7647L17.7877 14.7307L17.7708 14.7194V14.7052H17.7624L17.7511 14.6798L17.7342 14.6713V14.6571L17.7117 14.6373V14.6232L17.6864 14.6034V14.5892L17.6442 14.5524V14.5383L17.5035 14.3374H17.495L17.4866 14.2978H17.4781L17.4697 14.2638H17.4613V14.2412H17.4528L17.4416 14.2072H17.4331L17.4247 14.1761L17.4078 14.1648L17.3909 14.1167L17.374 14.1054L17.3656 14.0714L17.3487 14.0629V14.0459L17.3262 14.0261V14.0092L17.3093 13.9978V13.9837L17.284 13.9639V13.9497L17.2502 13.9214V13.9073L17.2108 13.8705V13.8564L17.0673 13.6555H17.0588L17.0504 13.6215H17.0419V13.5989H17.0335L17.0166 13.5479H17.011L17.0025 13.514L16.9856 13.5055V13.4885H16.9772V13.4715L16.9575 13.4546V13.4376H16.9491L16.9406 13.4121L16.9237 13.4008V13.3866L16.9068 13.3782V13.3612L16.8815 13.3414V13.3272L16.8562 13.3074V13.2933L16.8224 13.265C16.8365 13.2452 16.6733 13.0018 16.6733 12.9877H16.6648L16.6479 12.9367H16.6395V12.9226H16.6311V12.9056H16.6226V12.8886H16.6142V12.8716H16.6057V12.8547H16.5973V12.8377H16.5888V12.8207H16.5804L16.5748 12.8377C16.5776 12.832 16.5832 12.8151 16.5804 12.8094V12.8009H16.572C16.572 12.8009 16.572 12.7981 16.572 12.7952C16.572 12.7952 16.572 12.7952 16.5748 12.7952C16.5748 12.7896 16.6648 12.5915 16.6705 12.5802L16.6873 12.5689V12.5547L16.7042 12.5491V12.5264H16.7099V12.5123H16.7183L16.7267 12.4868H16.7352V12.467H16.7436L16.7521 12.4387H16.7605L16.8477 12.1614H16.8534V12.1331H16.8618V12.0963H16.8703V12.0539H16.8787V12.0086H16.8871L16.8843 11.9435H16.8956V11.853H16.8984C16.8984 11.8303 16.9744 11.4568 16.9688 11.437H16.9772V11.4144H16.9856C17.011 11.2644 17.011 10.7211 16.9856 10.5683H16.9772V10.5372H16.9688V10.5117H16.9575V10.4863H16.9519L16.9265 10.3816H16.9181V10.3646H16.9097L16.9012 10.3165H16.8928L16.8815 10.2825H16.8759L16.7915 10.0222H16.783L16.7746 9.96561H16.7661V9.94298H16.7605V9.91751H16.7493V9.90053H16.7408V9.87507H16.7324V9.85809H16.7239V9.83545H16.7155L16.6958 9.78452H16.6902V9.76754H16.6817V9.74773H16.6733V9.73358H16.6648V9.71378H16.6564V9.69963L16.6367 9.67982V9.66567H16.6311L16.6198 9.64021L16.6057 9.62889V9.61191H16.5973L16.5888 9.58361L16.5748 9.57512V9.56098L16.5466 9.54117V9.52702C16.5326 9.51853 16.4059 9.37139 16.3918 9.35441V9.34026L16.375 9.32895V9.32329H16.3581L16.3271 9.27518H16.3102L16.2849 9.2384H16.268L16.2596 9.21859H16.2427L16.2342 9.19878H16.2202L16.2117 9.17898H16.1948L16.1864 9.15917H16.1695L16.1611 9.13936L16.1273 9.12521L16.1189 9.10823L16.0851 9.09409V9.08843L16.0344 9.06579V9.0573H16.0091V9.04598L15.9753 9.03183V9.02335H15.95V9.01203H15.9331V9.00071H15.9078V8.98939L15.8825 8.98373V8.97524H15.86V8.96392L15.8346 8.95826V8.94978L15.1902 8.7998V8.80546L15.148 8.7998V8.80546L15.1142 8.7998V8.80546L15.0804 8.7998V8.80829H15.0551V8.81112L15.0298 8.80546V8.81395H15.0072V8.81678H14.9594V8.82244H14.9425V8.8281L14.92 8.82244V8.8281H14.8862V8.83659H14.8609V8.83942L14.8131 8.84508V8.85357H14.7962V8.85923H14.7624L14.754 8.87338H14.7202L14.7118 8.89035C14.7061 8.88186 14.5654 8.91016 14.557 8.91299V8.92148H14.5429V8.92431H14.5176V8.92714H14.5007V8.92997H14.4754V8.9328H14.4416V8.94129H14.4163H14.3825V8.9526L14.36 8.94695L14.3515 8.96109H14.3346V8.96392H14.3178V8.96958H14.3009L14.2868 8.9809H14.2699L14.2643 8.99222L14.2164 8.99788V9.00637H14.1911L14.1827 9.02618H14.1658L14.1573 9.03749L14.1405 9.03183V9.04032H14.118L14.1067 9.0573H14.0898L14.0729 9.07428H14.0589L14.0251 9.10258H14.0082L13.9857 9.12521H13.9688L13.9041 9.17898H13.8872L13.8731 9.19595H13.8534V9.21576L13.7802 9.26386V9.27801L13.7465 9.29499V9.31197L13.7155 9.32612V9.34026L13.6902 9.34875V9.36573L13.6733 9.37139V9.38554L13.6508 9.39686L13.6423 9.42515L13.6283 9.43081L13.6198 9.45062H13.6114L13.6029 9.47892L13.5861 9.48458V9.49872H13.5804V9.51287L13.5635 9.52702V9.54117L13.5467 9.54683V9.56098H13.5382V9.57229L13.3215 9.86658V9.88072L13.2878 9.8977V9.91468H13.2709V9.926H13.254V9.94581L13.2287 9.95429L13.2202 9.97693H13.2033V9.99674L13.1864 10.0024V10.0165L13.1639 10.025L13.1555 10.0533L13.1414 10.059L13.133 10.0873H13.1161L13.1076 10.1212H13.0936V10.1411L13.0767 10.1524V10.1665H13.0682V10.1807H13.0598V10.1948H13.0514V10.209H13.0429L13.0288 10.2514H13.0204L13.012 10.2854H13.0035L12.9951 10.3137H12.9866V10.3335H12.9782V10.3476H12.9697L12.9529 10.4099H12.9444V10.424H12.936V10.4523H12.9275V10.4749H12.9219V10.4976H12.9135V10.5202H12.905L12.8009 10.6645V10.6787L12.7784 10.6928V10.707L12.7531 10.7183V10.7324L12.7362 10.7381V10.7523H12.7193V10.7721L12.6996 10.7777V10.7919L12.6855 10.7975V10.8145H12.6686L12.6602 10.8456H12.6433V10.8654H12.6349V10.8768H12.6264V10.8909L12.6095 10.9022V10.9164L12.5926 10.922V10.9362H12.587V10.9503H12.5786V10.9701H12.5617V10.9956H12.5532V11.0097H12.5448L12.5364 11.0352H12.5307V11.0579H12.5223V11.072H12.5138V11.0918H12.5054V11.106H12.497V11.1286H12.4885V11.1399H12.4773V11.171H12.4716V11.1908H12.4632V11.2135L12.3422 11.3889V11.4031L12.3028 11.4257V11.4427L12.2803 11.454V11.4681H12.2606L12.2549 11.4936H12.2465V11.5078L12.2296 11.5134V11.5276H12.2127V11.5474H12.1958V11.5672H12.1789V11.587L12.1649 11.5927L12.1564 11.6181L12.1424 11.6238V11.6464L12.1255 11.6521L12.1114 11.6945H12.1002V11.7087H12.0917V11.7228H12.0833L12.0664 11.7653H12.0579V11.7851H12.0495V11.7992H12.0382L12.0326 11.8247H12.0242V11.8445H12.0157V11.8586H12.0073L11.9988 11.9011H11.9904V11.9124H11.982V11.935H11.9735V11.9577H11.9538V11.9775H11.9482V12.0058H11.9369L11.9397 12.0284H11.9313V12.0482H11.9229V12.0822C11.9144 12.0963 11.8412 12.1869 11.8412 12.2039L11.8075 12.2208V12.235L11.785 12.2463L11.7906 12.2689H11.7709V12.2887L11.7568 12.2944V12.3085L11.7399 12.3142V12.3284L11.723 12.334V12.3482H11.7062L11.6977 12.3793L11.6836 12.3849L11.6752 12.4132L11.6583 12.4189V12.4331L11.6414 12.4444V12.4613H11.633L11.6358 12.4755H11.6245V12.4896H11.6133L11.6161 12.5038H11.6048V12.5151H11.5964V12.5321H11.588V12.5434H11.5795L11.5626 12.583H11.557V12.6057H11.5457L11.5373 12.634H11.5289V12.6538H11.5204V12.6679H11.512L11.4979 12.733H11.4895V12.7443H11.4782L11.3825 12.8915V12.9056L11.3347 12.9339V12.948L11.2953 12.9707V12.9848L11.2615 12.999V13.0131H11.2446L11.2362 13.0386H11.2306V13.0527L11.2052 13.0641V13.0782L11.1883 13.0839L11.1799 13.1122L11.1546 13.1207V13.1376H11.1405L11.1236 13.1857H11.1095V13.2055L11.0927 13.2169V13.231H11.0842V13.2423H11.0758V13.2565H11.0673V13.2706H11.0589V13.2848H11.0504V13.2989H11.042V13.3131H11.0336L11.0167 13.3555H11.0082V13.3753H10.9998L10.9913 13.4036H10.9829V13.4263H10.9745V13.4376H10.966L10.9604 13.48H10.9491V13.4942H10.9407L10.9322 13.5423H10.9238V13.5536H10.9182L10.7972 13.6894V13.7036L10.7578 13.7262V13.7403L10.7156 13.763L10.7099 13.7913L10.6846 13.8026V13.8167L10.6593 13.8252L10.6508 13.8479L10.6339 13.8535V13.8677H10.6255V13.8818H10.6086L10.603 13.9158L10.5805 13.9271L10.572 13.9554H10.5551V13.9724L10.5383 13.9865V14.0007H10.5298V14.0148H10.5242V14.029H10.5157V14.0431H10.5073V14.0573H10.4989V14.0686H10.4904V14.0827H10.482V14.0969H10.4735L10.4679 14.1252H10.4566V14.1365L10.2428 14.3714H10.2287L10.2034 14.394H10.1977V14.4081C10.1837 14.4081 10.164 14.4279 10.1555 14.4364H10.1471V14.4506H10.1386L10.1246 14.476H10.1077V14.4874C10.0964 14.5015 10.0627 14.5411 10.0401 14.544V14.5609L10.0148 14.5694L10.0092 14.6006L9.98385 14.6119V14.626H9.97541V14.6402L9.96134 14.6458L9.95008 14.6741H9.93601L9.92757 14.7081H9.9135V14.7279L9.89661 14.7392V14.7562H9.88817V14.7703H9.87973V14.7816H9.86847V14.793H9.86284V14.8071H9.8544V14.8213H9.84596V14.8326H9.83751L9.82344 14.875H9.81218V14.8977H9.80374V14.909H9.7953V14.9316H9.78686L9.76716 14.9543H9.75871L9.55609 15.2033V15.2174L9.54202 15.2231V15.2316H9.52795V15.2514L9.48573 15.274V15.291L9.46322 15.3023V15.3164L9.43789 15.3249V15.3391L9.42101 15.3447V15.3617L9.40694 15.3674V15.3815H9.39287V15.4013H9.37598V15.4211H9.36754L9.37035 15.4353H9.35065L9.34502 15.4692H9.32532L9.3197 15.5032H9.30281V15.523L9.28874 15.5343V15.5513H9.27748V15.5626H9.26904V15.5768H9.2606V15.5909H9.25215V15.6051H9.24371L9.22683 15.6447H9.21838V15.6673H9.20994V15.6815H9.2015L9.19306 15.7069H9.18461L9.16773 15.7409L8.99887 15.9248H8.9848L8.96792 15.9333V15.9503L8.93696 15.9673V15.9814L8.89756 16.0012V16.0182L8.85535 16.0408V16.055L8.83283 16.0663V16.0804L8.81032 16.0918V16.1059H8.79344V16.1257H8.77655V16.1455L8.75966 16.1512V16.1682H8.74278L8.73434 16.2021H8.71745L8.70901 16.2361H8.69212C8.68368 16.2559 8.34316 16.7369 8.3319 16.7539V16.7681L8.28969 16.7907V16.8048L8.25029 16.8275V16.8416H8.2334V16.8614L8.20808 16.8699V16.8841L8.18556 16.8954L8.17712 16.9237L8.15179 16.935L8.14335 16.9633H8.12646L8.11802 16.9888H8.11239L8.09832 17.0312L8.08144 17.0369L8.06455 17.0793H8.04767C8.03922 17.1019 7.72403 17.3991 7.72966 17.4245L7.65086 17.4783V17.4924L7.61146 17.5151V17.5292L7.56925 17.5519L7.5608 17.5717H7.54673L7.5411 17.6056L7.50452 17.6226V17.6367H7.49045V17.6566H7.47356L7.46512 17.682H7.45668L7.45105 17.7103C7.41165 17.7697 7.3216 17.815 7.27657 17.8631H7.25968L7.25124 17.8744H7.23435L7.20058 17.9027H7.1837L7.16963 17.9423H7.15274L7.10209 17.982H7.0852C7.05706 18.0103 6.98107 18.1008 6.94167 18.1121V18.1263H6.92479V18.1376L6.89383 18.1546V18.1687H6.8882L6.84599 18.1885H6.82911V18.1998C6.80096 18.2253 6.76156 18.2904 6.72498 18.3017L6.70809 18.3215V18.3357H6.69121V18.3555H6.67432V18.3725L6.65744 18.3866V18.4007H6.64055V18.4206H6.63211V18.4347C6.62085 18.4404 6.60678 18.4545 6.60115 18.4658V18.48C6.55613 18.5111 6.34224 18.6639 6.30847 18.6979H6.28315L6.25219 18.7233V18.7375H6.24375L6.18746 18.7941H6.17902C6.11711 18.879 5.93981 19.0091 5.84976 19.0657H5.83287L5.82443 19.077L5.80754 19.0714L5.7991 19.0855H5.78221V19.0883H5.7597L5.75407 19.1053H5.73719L5.7203 19.1251L5.70342 19.1195L5.68653 19.1393H5.66964L5.6612 19.1506L5.59647 19.1761V19.1902L5.51486 19.2298V19.244L5.50079 19.2553H5.48391C5.48391 19.2553 5.43044 19.2949 5.41918 19.3006V19.3175L5.36852 19.3374V19.3543L5.33757 19.3713V19.3855L5.29817 19.4081V19.4222L5.25877 19.4449V19.459L5.23625 19.4703V19.4873L5.21093 19.4958L5.20248 19.5269L5.17716 19.5383V19.5524H5.16027V19.5722H5.14338L5.13494 19.5949H5.12931L5.10961 19.6373H5.09554V19.6543H5.0871V19.6684H5.07866V19.6826L5.06177 19.6939V19.708L5.0477 19.7137L5.03926 19.7477L5.02237 19.7533L5.01393 19.7901H5.0083V19.8042H4.99986L4.98297 19.8439H4.97172L4.96609 19.8863H4.95765L4.9492 19.9118H4.94076L4.92669 19.9769H4.91543V19.991H4.90699V20.0221H4.89855V20.0419H4.8901V20.0646H4.88166L4.87322 20.1127H4.86478V20.141H4.85633V20.1778H4.8507L4.84508 20.2457H4.83663V20.2881H4.82819V20.3334H4.81975L4.80849 20.6079H4.80005L4.81975 20.8965H4.82819L4.83663 21.0068H4.84508V21.0549H4.85633V21.0861H4.86196V21.1172H4.8704L4.88166 21.1879H4.88729L4.89855 21.2445H4.90699V21.2672H4.91543V21.2926H4.92669V21.3238H4.93232V21.3379H4.94076V21.3719H4.9492V21.3888H4.95765L4.9689 21.4369H4.97735L4.98579 21.4709H4.99423V21.4935H5.00267L5.01112 21.5247H5.01956V21.5501L5.03644 21.5614V21.5841H5.04489V21.6011H5.05051V21.618H5.05896V21.635H5.0674V21.652H5.07584L5.08429 21.686L5.10117 21.6973L5.11806 21.7454L5.13494 21.7539L5.15183 21.802L5.1659 21.8133V21.8274L5.18278 21.8416V21.8557L5.19967 21.867V21.8812H5.20811L5.21655 21.9067L5.23344 21.918V21.9321L5.25595 21.9519V21.9661L5.27284 21.9774V21.9916L5.30942 22.0227V22.0368L5.34038 22.0651V22.0793L5.39948 22.1359V22.15C5.44169 22.1896 5.53456 22.2943 5.57115 22.3424H5.58803L5.63025 22.399H5.64713L5.6809 22.4471H5.69779L5.71467 22.4754H5.73156L5.74 22.4952H5.75689L5.77377 22.5235H5.79066L5.7991 22.5433L5.82161 22.5546V22.5631L5.8385 22.566L5.84976 22.5829H5.86664L5.88353 22.6112L5.9173 22.6226L5.92574 22.6395L5.9764 22.665L5.98484 22.682H6.00172L6.01861 22.7018H6.03549V22.7131H6.05238V22.7244H6.06645V22.7357H6.08615L6.09459 22.7556L6.11992 22.7612V22.7669H6.13399V22.7782L6.16776 22.7923V22.798H6.19309V22.8093H6.20998V22.8206L6.24093 22.8348V22.8404L6.26626 22.8461V22.8518H6.28315V22.8631L6.3338 22.8801V22.8885H6.35913V22.8999H6.3732V22.9112L6.48014 22.9536V22.9621C6.5899 23.0046 6.8685 23.1093 6.98107 23.1234V23.1319L7.47075 23.1998V23.1913C7.53548 23.2083 7.65649 23.18 7.72122 23.1913V23.1857H7.74654V23.18L7.77187 23.1857V23.1772H7.7972L7.82816 23.1828V23.1743H7.84504V23.1715H7.91821V23.1602H7.9351V23.1545H7.98294V23.1489L8.03078 23.1432V23.1376H8.04767V23.1291L8.07299 23.1376V23.1291L8.12084 23.1206V23.1149H8.13772V23.1093H8.17149L8.17993 23.0951H8.19682V23.0894L8.2137 23.0951L8.23059 23.081H8.24748L8.25592 23.0696H8.28687L8.29532 23.0555H8.32909L8.33472 23.0413H8.3516L8.36567 23.0244H8.39944L8.41351 23.0046H8.4304L8.44729 22.9876L8.46698 22.9932L8.47261 22.9791H8.4895C8.4895 22.9791 8.51201 22.9621 8.52327 22.9565V22.9508H8.53734L8.56548 22.9282H8.57955C8.59644 22.9282 9.06923 22.5999 9.09174 22.6028L9.10581 22.6084V22.5999H9.1227L9.13114 22.5886H9.14803V22.5858H9.17898V22.5688L9.23527 22.5546C9.23527 22.5546 9.24653 22.5264 9.25497 22.515L9.2803 22.5037H9.29718C9.31125 22.4811 9.35909 22.4669 9.38724 22.4613V22.4471C9.38724 22.4471 9.47729 22.4103 9.48292 22.3905H9.50262L9.51669 22.382V22.3679C9.54483 22.3481 9.68273 22.2406 9.71087 22.2292V22.2123L9.73339 22.2009L9.74183 22.1783H9.7559V22.167C9.76716 22.1528 9.80093 22.1132 9.82063 22.1104V22.0962L9.83751 22.0906V22.0764C9.83751 22.0764 9.87128 22.0708 9.88254 22.068V22.0538L9.89661 22.034L9.9135 22.0283V22.0142L9.92757 22.0085L9.93601 21.9802L9.9529 21.9746V21.9604C10.0204 21.884 10.1865 21.6831 10.2934 21.6605L10.3019 21.6407H10.3159L10.3244 21.6209L10.3807 21.5841V21.5699L10.4369 21.536V21.5218L10.4707 21.5049V21.4907L10.4876 21.485V21.4766H10.5017V21.4596H10.5186V21.4398L10.5439 21.4313V21.4171L10.5608 21.4115V21.3973L10.5748 21.3917V21.3775H10.5917V21.3577H10.6086V21.3379H10.6227L10.6311 21.3068C10.6508 21.3124 10.7943 21.1483 10.8084 21.1427L10.8169 21.1285H10.8253L10.8337 21.1172H10.8478V21.1144L10.8816 21.103V21.0889H10.8957V21.0832L10.9294 21.0663H10.9379V21.0521C10.9463 21.0465 11.0082 21.0182 11.011 21.0068H11.0279L11.1912 20.8569H11.208V20.8456H11.2165L11.2221 20.8257L11.2559 20.8088V20.7946L11.2812 20.7833V20.7692L11.3037 20.7607L11.3122 20.7324L11.3375 20.721L11.3431 20.6928L11.3656 20.6814L11.3741 20.6531L11.3882 20.6475L11.3966 20.6192H11.4135V20.5994L11.4304 20.5852V20.5711H11.4388V20.5569H11.4472C11.4472 20.5569 11.7062 20.3192 11.7146 20.3079H11.7315C11.7315 20.3079 11.7737 20.2655 11.7878 20.2683V20.2542L11.875 20.1947V20.1778H11.8919V20.1664L11.9088 20.1608V20.1466H11.9172L11.9341 20.1212H11.9482V20.1098C11.9594 20.0957 11.9932 20.0561 12.0157 20.0533L12.0214 20.025L12.0467 20.0136L12.0551 19.9825L12.072 19.9769V19.9627L12.0889 19.957V19.9429L12.103 19.9372L12.1114 19.9089H12.1255V19.8891L12.1424 19.875V19.8608H12.1508V19.8495H12.1592V19.8354L12.1761 19.8241V19.8099L12.193 19.8042V19.7816H12.2015V19.7675H12.2099L12.238 19.7307H12.2465V19.708H12.2549V19.6939H12.2634V19.6741H12.2718L12.2774 19.6458H12.2859C12.2915 19.6005 12.4238 19.4505 12.4519 19.4138H12.4688V19.4024L12.4998 19.3855V19.3713L12.542 19.3487V19.3345L12.5758 19.3175V19.3006L12.5926 19.2949V19.2779L12.6152 19.2666V19.2525L12.632 19.2468V19.2327L12.6489 19.227V19.2129H12.663V19.193L12.6827 19.1874V19.1732L12.6996 19.1676L12.708 19.1393L12.7221 19.1336V19.1195H12.7305V19.1025H12.739V19.0912L12.7531 19.0799V19.0629H12.7699L12.7868 19.0204H12.7953V19.0063H12.8037L12.8178 18.9638H12.8262V18.944H12.8347V18.9299H12.8431L12.8515 18.9044H12.86L12.8684 18.8705H12.8769L12.8853 18.828H12.8909L12.8994 18.8026H12.9078V18.7743H12.9163C12.9163 18.7743 13.0514 18.6101 13.0598 18.5988V18.5818L13.102 18.5592V18.5451L13.1414 18.5224V18.5054L13.1667 18.497L13.1752 18.4687L13.1921 18.463L13.2005 18.4404L13.223 18.429L13.2315 18.4007L13.254 18.3894L13.2624 18.3583H13.2793L13.2878 18.3272L13.3046 18.3215V18.3074L13.3215 18.2961V18.2819H13.33V18.2678H13.3384V18.2536H13.3469V18.2423L13.3609 18.2366V18.2168L13.3778 18.2112V18.1885H13.3863V18.1744H13.3947V18.1602H13.4031L13.42 18.1206H13.4285V18.098H13.4341V18.0867H13.4425L13.451 18.0499H13.4594L13.4876 17.9905H13.496V17.9763H13.5044V17.948H13.5129L13.6339 17.798V17.7839L13.6733 17.7613V17.7471L13.7071 17.7301V17.716H13.724V17.6962L13.7465 17.6849V17.6707L13.7718 17.6594L13.7802 17.6311L13.8056 17.6226V17.6085L13.8196 17.6028V17.5858H13.8281V17.5717L13.8422 17.566L13.8506 17.5349H13.8675L13.8759 17.5094H13.8844V17.4896L13.9013 17.4839V17.467L13.9181 17.4557V17.4415H13.9266V17.4274H13.935V17.4132H13.9435V17.4019H13.9519L13.9688 17.3594H13.9744V17.3396H13.9857V17.3255H13.9913L13.9998 17.2972H14.0082C14.0223 17.283 14.1827 17.0538 14.2108 17.0652V17.0482L14.2671 17.0142V17.0001L14.2981 16.9491V16.9322H14.3178L14.3037 16.9209L14.3206 16.9152V16.901H14.3375V16.8812L14.36 16.8699V16.8558H14.3769L14.3853 16.8303H14.3937V16.8162H14.4078V16.7963L14.4247 16.7907V16.7794L14.4416 16.7709L14.4557 16.7313L14.4725 16.7256L14.4894 16.6832H14.5063L14.5204 16.6379H14.5316V16.6237H14.526C14.526 16.6237 14.5457 16.6153 14.5513 16.6181V16.5926H14.5598V16.5785H14.5654L14.5767 16.553H14.5823L14.6048 16.5134H14.6133V16.4992H14.6217V16.4794H14.6301V16.4653H14.6386V16.4455H14.647V16.4228H14.6555L14.6695 16.403H14.6752V16.3832H14.6836V16.3521H14.6921V16.3323H14.7005C14.7258 16.287 14.8046 16.1823 14.844 16.1484V16.1342L14.8693 16.1229V16.1059H14.8778L14.8862 16.0861H14.9031V16.0663L14.9284 16.055L14.9369 16.0267L14.9594 16.0154V16.0012L14.9763 15.9956L14.9932 15.9531L15.0101 15.9475V15.9333L15.0241 15.9192V15.905H15.0326V15.8909H15.0495V15.8626H15.0579V15.8484L15.0748 15.8428V15.8201H15.0804V15.806H15.0889L15.1057 15.7664H15.1142V15.7437H15.1226L15.1283 15.7183H15.1367V15.6984H15.1451V15.6871H15.1536V15.6645H15.162V15.6447H15.1705V15.6305H15.1789L15.1845 15.5881H15.1874L15.193 15.5909H15.1958V15.5966H15.1902V15.5994L15.2324 15.6617V15.6758L15.2493 15.6871V15.7041L15.2662 15.7154V15.7296L15.2802 15.7409V15.755H15.2887L15.2971 15.7805L15.314 15.7918V15.8088L15.3478 15.8371V15.8512L15.3815 15.8795V15.8965C15.466 15.9475 15.5673 16.2248 15.6376 16.2898L15.6573 16.3408H15.663L15.6742 16.3662L15.6911 16.3747V16.3917L15.708 16.4002V16.4143L15.7333 16.4342V16.4483L15.7586 16.4681V16.4851L15.8009 16.5219V16.536L15.9556 16.7539H15.9641L15.9753 16.7879H15.981V16.8133H15.9894L16.0204 16.8671H16.0288L16.0373 16.901L16.0541 16.9124L16.0626 16.9435H16.071V16.9605L16.0879 16.9718V16.9859L16.1048 16.9973V17.0114L16.1217 17.0255V17.0369L16.1414 17.0482V17.0623L16.1583 17.0737V17.0878L16.178 17.1161V17.1302L16.2596 17.2151V17.2293L16.2933 17.2576V17.2689C16.3299 17.3085 16.3975 17.3991 16.4284 17.4443H16.4341L16.4481 17.4613H16.4566V17.4783H16.465L16.4735 17.5122H16.4819L16.4903 17.5434L16.5072 17.5547L16.5157 17.5858L16.5326 17.5943V17.6113L16.5494 17.6226V17.6367L16.5776 17.6594V17.6707L16.6001 17.6933V17.7075C16.6001 17.7075 16.6423 17.7414 16.6423 17.7613C16.662 17.7697 16.7436 17.8773 16.7605 17.8999H16.7549H16.7577C16.7493 17.8999 16.6311 17.9367 16.6226 17.9282V17.9339H16.6057V17.9395H16.5917L16.5748 17.948H16.5579L16.5494 17.9593H16.5354L16.5241 17.9706H16.51L16.5016 17.982H16.4678L16.4594 17.9961L16.4425 17.9905L16.4256 18.0103H16.4087L16.3947 18.0272L16.3778 18.0216L16.3637 18.0414H16.3496L16.3412 18.0499H16.2455V18.0555L16.2202 18.0499V18.0584L16.1948 18.0527V18.0612H16.0879V18.0697H16.071V18.0753L16.0457 18.0697V18.0782H16.0147V18.0867H15.9894H15.9556V18.098L15.9331 18.0923L15.9275 18.1065H15.9106V18.1121H15.8965V18.115H15.8768L15.86 18.1263H15.8459L15.8374 18.1376H15.8037V18.1489H15.7783L15.7699 18.1659H15.7389L15.7305 18.18H15.7136L15.6995 18.197H15.6827L15.6658 18.214H15.6489L15.6207 18.2423H15.6039L15.5785 18.2649H15.5645L15.5476 18.2734V18.2876L15.5082 18.3017L15.4941 18.3215L15.4772 18.3272V18.3413C15.4772 18.3413 15.4435 18.347 15.435 18.3555V18.3725L15.4041 18.3894V18.4036L15.3647 18.4262V18.4404L15.3393 18.4517V18.4687L15.3168 18.4771V18.4941L15.3027 18.4998L15.2943 18.5253L15.2802 18.5309V18.5479H15.2633L15.2549 18.5818L15.238 18.5875V18.6017H15.2324V18.6158H15.2239V18.6299L15.2099 18.6413V18.6554L15.1958 18.6611V18.6837H15.1874L15.1789 18.712H15.1677V18.7318H15.162L15.1536 18.7601H15.1451V18.7827H15.1395V18.7941H15.1283L15.1057 18.8874H15.0973V18.9073H15.0889V18.9271H15.0804C15.0804 18.9808 15.0551 19.626 15.072 19.6571H15.0804V19.6911H15.0889L15.0973 19.7477H15.1057V19.7731H15.1142V19.7958H15.1226L15.1395 19.875H15.148L15.1564 19.9061H15.1648V19.9316H15.1733V19.9486H15.1817L15.1902 19.991H15.1986L15.2155 20.0419H15.2239V20.0589H15.2324V20.0759H15.2408V20.09L15.2577 20.1098V20.124L15.2718 20.1353L15.283 20.1693H15.2915L15.2999 20.1947L15.3168 20.2061V20.2202H15.3281L15.3365 20.2457L15.3534 20.2542V20.2711L15.3759 20.2909V20.3051L15.4012 20.3249V20.339L15.4181 20.3504V20.3589L15.435 20.3702V20.3843L15.4772 20.4381H15.4913L15.5504 20.5201H15.5673C15.5813 20.5371 15.6433 20.6248 15.6658 20.6248L15.6827 20.6503H15.6995L15.7164 20.6786H15.7333L15.7502 20.7069H15.7671L15.7755 20.7267H15.7924L15.8009 20.7465L15.8262 20.7578V20.7663L15.86 20.7776L15.8684 20.7946L15.9191 20.8201L15.9275 20.8371L15.9613 20.8512V20.8569H15.9753V20.8682L16.026 20.8908V20.8993H16.0513V20.9106L16.0851 20.9248V20.9304L16.1076 20.9361V20.9446H16.1245V20.9559L16.147 20.9616V20.9701H16.1639V20.9814L16.2202 20.9984V21.0068L16.2455 21.0125V21.021L16.3356 21.0521V21.0606L16.3778 21.0691V21.0776L16.4115 21.0832V21.0917L16.4594 21.1002V21.1059L16.5269 21.12V21.1285L16.6226 21.1483V21.154L16.9265 21.2021V21.1964L16.9913 21.2077V21.1993L17.0307 21.2077V21.1993L17.0701 21.2077V21.1993L17.101 21.2049V21.1993L17.1348 21.2049V21.1964L17.1686 21.2021V21.1964C17.1742 21.2134 17.45 21.1568 17.4669 21.154L17.4781 21.1398H17.5035L17.5119 21.1313L17.5597 21.1257L17.5682 21.1115H17.5991L17.6076 21.0946H17.6385L17.6554 21.0748H17.6723L17.6779 21.0634H17.6948L17.7117 21.0465H17.7286L17.7455 21.0295H17.7624L17.7933 21.004C17.799 21.0153 17.9566 20.9446 17.965 20.9446V20.9361L17.9903 20.9418V20.9361L18.0128 20.9418V20.9333H18.0297V20.9276L18.0579 20.9333V20.9276H18.0748V20.9191L18.0973 20.9276V20.9191L18.1451 20.9135V20.905H18.162V20.8993H18.1789V20.8937H18.1929V20.888L18.2436 20.8823L18.2492 20.8682H18.283V20.8597H18.3055L18.314 20.8427H18.3477L18.3562 20.8286H18.3731L18.3899 20.8116H18.404L18.4181 20.7946L18.435 20.8003L18.4687 20.7663H18.4856C18.5025 20.738 18.601 20.7041 18.632 20.6899V20.6843H18.6545H18.6798V20.6814L18.7023 20.6729V20.6673L18.7277 20.6729V20.6645H18.7417V20.6616H18.7671V20.6588L18.8149 20.6503V20.6446H18.8318V20.639H18.8487V20.6333H18.8655V20.6277H18.8824V20.622H18.8993V20.6164H18.9162L18.9303 20.6079H18.95L18.9556 20.5965H18.9894L18.9978 20.5796H19.0147V20.5767C19.071 20.5711 19.1526 20.5173 19.2004 20.489H19.2201C19.2455 20.4692 19.3074 20.4154 19.3383 20.4013V20.3872L19.3777 20.3928L19.4171 20.3532H19.434C19.434 20.3532 19.4397 20.3334 19.4368 20.3277L19.4594 20.3334V20.3249L19.5072 20.3192V20.3108L19.5241 20.3164V20.3079H19.5381V20.3023H19.5719L19.5832 20.2881L19.631 20.2825V20.2768H19.6563L19.6648 20.2598H19.6817V20.257H19.7042L19.7126 20.24H19.7295L19.7464 20.223H19.7605L19.7858 20.2004L19.8027 20.2061L19.828 20.1806H19.8449L19.8984 20.1325H19.9237V20.1155C19.9434 20.0985 19.9884 20.0674 20.0109 20.0561V20.0419H20.0166L19.9941 20.0363V20.0504H19.949H19.9912V20.0334H20.0138L20.056 20.0108L20.0644 19.9967H20.0785L20.0869 19.9853L20.1348 19.9797L20.1432 19.9655H20.1601V19.9599H20.177V19.957H20.1939L20.2079 19.9486C20.2136 19.9486 20.2248 19.9429 20.2304 19.9401H20.2333L20.2445 19.9429L20.2501 19.9288H20.2698L20.2755 19.9174H20.2952L20.3008 19.9089H20.3177V19.9033H20.343L20.3515 19.8891H20.3683L20.3937 19.8665H20.4106L20.4415 19.8382H20.4584L20.5147 19.7901H20.5316V19.7844L20.5569 19.7731L20.5653 19.7505L20.6216 19.7165V19.7024L20.661 19.6797V19.6656H20.6779V19.6543H20.6948V19.6345L20.7145 19.6288V19.6118H20.7286V19.592L20.7539 19.5807C20.7623 19.5609 20.7877 19.5326 20.8102 19.5269L20.8186 19.5128H20.8355L20.8411 19.4873L20.8608 19.493L20.8665 19.4788H20.8833L20.8918 19.4675H20.9087L20.9171 19.4562H20.9424L20.9762 19.4222H20.9931L21.0269 19.3911H21.0409V19.3855L21.0578 19.3798V19.3657H21.0747L21.1057 19.3374H21.1141V19.326L21.1479 19.3147V19.3006L21.1901 19.2751V19.261L21.2211 19.244V19.2298H21.2464V19.2157L21.3111 19.1732H21.3449L21.3505 19.1449H21.3843V19.1365H21.4068L21.4152 19.1195H21.4293V19.1138H21.4546L21.4603 19.0997H21.4771L21.4912 19.0827H21.5081L21.5166 19.0714H21.525L21.5334 19.0601H21.5503V19.0572L21.5813 19.0487V19.0346L21.7361 18.9355V18.9186L21.7586 18.9101V18.8931C21.7586 18.8931 21.7839 18.879 21.798 18.8676L21.8599 18.8988C21.8599 18.8988 21.8711 18.9129 21.8768 18.9157V18.9299L21.9443 18.995V19.0091L21.9696 19.0289V19.0374H21.9837L22.0513 19.1195H22.0653L22.0991 19.1648H22.1188L22.1244 19.1846L22.1441 19.1902L22.1582 19.2157L22.1835 19.227L22.192 19.244H22.206L22.2173 19.2638L22.2482 19.2779L22.2567 19.2977L22.282 19.3091V19.3147L22.3299 19.3402L22.3383 19.3543L22.3721 19.3713V19.3798L22.403 19.3911V19.3996L22.4452 19.4138L22.4537 19.4307H22.4706L22.4875 19.459H22.4959V19.4788L22.5297 19.5071V19.5213C22.5606 19.5496 22.6254 19.626 22.6535 19.6599H22.6704L22.7013 19.7052H22.721V19.708C22.7858 19.759 23.0447 20.0023 23.0841 20.0617V20.0787C23.2501 20.2513 23.8327 20.7493 23.9987 20.8993L24.0156 20.905L24.024 20.9191H24.0409L24.055 20.9474L24.0859 20.9587L24.0944 20.9785L24.1282 20.9899L24.1366 21.0068L24.1844 21.0295V21.0351L24.2013 21.0408V21.0493H24.2182V21.0606L24.2689 21.0861V21.0946L24.539 21.3181H24.5559L24.5925 21.3662H24.6066L24.615 21.386H24.6291L24.6488 21.4171H24.6657L24.6741 21.4369L24.6994 21.4454V21.4568H24.7135C24.7163 21.4766 24.7585 21.4935 24.7726 21.4992L24.7839 21.5162L24.8176 21.5303V21.5388H24.8345V21.5473L24.8824 21.5728V21.5813H24.9105V21.5926L24.9415 21.6067V21.6152L25.1722 21.7935H25.1891L25.2229 21.8416H25.2398L25.6169 22.1047L25.6422 22.1161V22.1245H25.6675V22.1359L25.6929 22.1415V22.15L25.7266 22.1557V22.1642L25.963 22.3141V22.3198L26.0137 22.3453L26.0221 22.3622L26.0559 22.3764V22.3849L26.0897 22.3962V22.4047H26.115V22.416L26.146 22.4273V22.4358L26.1882 22.45V22.4584C26.2867 22.5094 26.8045 22.6565 26.9255 22.648V22.6395L26.9649 22.648V22.6395L26.9987 22.6452V22.6367L27.0324 22.6424V22.6339H27.0549H27.0775H27.1028V22.6311H27.1309V22.6282H27.145V22.6226L27.1703 22.6282V22.6197H27.2041V22.6112L27.2773 22.6028L27.2857 22.5886L27.3336 22.5829L27.342 22.5688H27.3758V22.5603H27.3983L27.4067 22.5433H27.4208L27.4349 22.5292H27.4546L27.4686 22.5122H27.4855L27.5109 22.4896H27.5249C27.5559 22.4613 27.6234 22.4103 27.6628 22.3905V22.3736L27.6938 22.3566V22.3396L27.7163 22.3283V22.3113L27.7388 22.3V22.2858H27.7557L27.7641 22.2519H27.781L27.7895 22.2264H27.7979L27.812 22.184H27.8204V22.1698H27.8289V22.1557H27.8373V22.1444H27.8457L27.8598 22.1047H27.8683V22.0849H27.8767V22.0708H27.8851V22.0481H27.8936V22.034H27.902L27.9105 21.9831H27.9189V21.9633H27.9274V21.935H27.9358V21.9067H27.9442V21.8699H27.9527V21.8331H27.9611V21.7822H27.9668L27.9752 21.5869H27.9668L27.9977 21.6011ZM23.4781 16.4823L23.4837 16.5049L23.4809 16.4823H23.4696V16.4794H23.4837L23.4781 16.4823ZM20.3515 19.8976C20.3515 19.8976 20.3937 19.8693 20.4077 19.8608C20.3937 19.8693 20.3627 19.8863 20.3515 19.8976ZM20.419 19.858H20.4218H20.4162H20.419Z" fill="white"/>
</g>
<defs>
<clipPath id="clip0_266_55599">
<rect width="32" height="32" fill="white"/>
</clipPath>
</defs>
</svg>
