<svg width="24" height="24" viewBox="0 0 24 24" fill="none" xmlns="http://www.w3.org/2000/svg">
<g clip-path="url(#clip0_266_55199)">
<path d="M0 12.0002C0 12.7067 0 12.7854 0.0225 13.3854C0.0617143 14.7144 0.207643 16.2396 0.740786 17.8489C1.11686 18.9872 1.82379 20.2153 2.53093 20.9891C3.42879 21.9761 4.66886 22.7835 6.00429 23.2434C7.37357 23.7144 8.85493 23.9443 11.7334 24.0004H12.2666C15.1509 23.9387 16.6266 23.7144 17.9957 23.2434C19.3369 22.7835 20.5714 21.9761 21.4749 20.9891C22.182 20.2097 22.8889 18.9872 23.265 17.8489C23.7981 16.2396 23.9441 14.7088 23.9833 13.3854C24.0002 12.7909 24.0002 12.7069 24.0002 12.0002C24.0002 11.2935 24.0002 11.2095 23.9833 10.6151C23.9385 9.28607 23.7981 7.76078 23.265 6.15149C22.8891 5.01321 22.182 3.78514 21.4749 3.01135C20.577 2.02436 19.3369 1.21693 17.9957 0.757071C16.6264 0.286071 15.1451 0.0561428 12.2666 0H11.7334C8.84914 0.0617142 7.37336 0.286071 6.00429 0.757071C4.66307 1.21693 3.42857 2.02436 2.53093 3.01135C1.82379 3.79071 1.11686 5.01321 0.740786 6.15149C0.207643 7.76099 0.0617143 9.28628 0.0225 10.6151C0 11.2095 0 11.2935 0 12.0002Z" fill="#0C7DCA"/>
<path d="M9.39859 14.3561H5.80031C5.78831 14.2892 5.77031 14.2164 5.76431 14.1373C5.74631 12.6551 5.72831 11.1729 5.71631 9.69067C5.71631 9.56917 5.74631 9.40524 5.82452 9.32617C6.98402 8.12938 8.14931 6.94481 9.39281 5.78467V14.3561H9.39859Z" fill="white"/>
<path d="M6.02629 14.6675H14.2861V18.2471C14.2094 18.2531 14.1269 18.2709 14.0384 18.2709C12.5989 18.2769 11.1593 18.2889 9.71394 18.2829C9.57829 18.2829 9.40129 18.2233 9.30679 18.1278C8.19765 16.9704 7.09429 15.8011 6.02051 14.6675" fill="white"/>
<path d="M9.74341 9.33365V5.71822H11.6077C12.5045 5.71822 13.4013 5.70622 14.3038 5.71822C14.4395 5.71822 14.6107 5.7778 14.711 5.86737C15.8497 6.98294 16.9766 8.11051 18.1033 9.2323C18.1151 9.2443 18.1151 9.26808 18.1329 9.32765H9.74341V9.33365Z" fill="white"/>
<path d="M14.6153 18.231V9.66553H18.2576C18.2576 9.71417 18.2696 9.78124 18.2696 9.8421C18.2756 11.3275 18.2876 12.819 18.2876 14.3044C18.2876 14.4565 18.2213 14.6453 18.1129 14.7548C16.9871 15.9115 15.8494 17.062 14.7176 18.2125C14.7056 18.2247 14.6753 18.2185 14.6091 18.237" fill="white"/>
</g>
<defs>
<clipPath id="clip0_266_55199">
<rect width="24" height="24" fill="white"/>
</clipPath>
</defs>
</svg>
