<svg width="40" height="40" viewBox="0 0 40 40" fill="none" xmlns="http://www.w3.org/2000/svg">
<g clip-path="url(#clip0_266_55745)">
<path d="M0 20C0 21.1776 0 21.3084 0.0374094 22.3084C0.102876 24.5234 0.346036 27.0654 1.23451 29.7477C1.86111 31.6449 3.03951 33.6916 4.21791 34.9813C5.71429 36.626 7.78113 37.972 10.007 38.7383C12.289 39.5235 14.758 39.9064 19.5557 40H20.4442C25.2513 39.8971 27.711 39.5235 29.9929 38.7383C32.2282 37.972 34.2857 36.626 35.7915 34.9813C36.9697 33.6822 38.1481 31.6449 38.7747 29.7477C39.6631 27.0654 39.9064 24.514 39.9718 22.3084C40 21.3178 40 21.1776 40 20C40 18.8224 40 18.6916 39.9718 17.6916C39.8971 15.4766 39.6631 12.9346 38.7747 10.2523C38.1481 8.35514 36.9697 6.30841 35.7915 5.01868C34.295 3.37383 32.2282 2.02804 29.9929 1.26168C27.711 0.476635 25.242 0.102804 20.4442 0H19.5557C14.7486 0.102804 12.289 0.476635 10.007 1.26168C7.7718 2.02804 5.71429 3.37383 4.21791 5.01868C3.03951 6.31777 1.86111 8.35514 1.23451 10.2523C0.346036 12.9346 0.102876 15.4766 0.0374094 17.6916C0 18.6822 0 18.8224 0 20Z" fill="#0473EA"/>
<path d="M17.0079 30.8978C16.3908 31.2622 15.8392 31.4771 15.2501 31.4771C13.7354 31.4771 12.4731 30.2438 12.4077 28.7488L15.3529 26.9922L19.9345 29.0384L17.0173 30.8885L17.0079 30.8978Z" fill="white"/>
<path d="M18.7564 23.3666L16.5685 22.4042C15.5961 21.9651 14.6704 21.6007 14.6704 20.5262C14.6704 19.9655 14.8387 19.6759 15.1099 19.3862L19.7382 21.4231L18.5975 22.0865C18.2796 22.2827 18.0552 22.4509 18.0552 22.6939C18.0552 22.9555 18.3544 23.1797 18.7658 23.3666" fill="white"/>
<path d="M20.907 13.2756L18.6629 14.6304C18.4572 14.7519 18.1954 14.9481 18.1954 15.2377C18.1954 15.5834 18.719 15.8357 19.1772 16.0599L16.3722 14.8266C15.5493 14.4622 14.7172 14.0511 14.7172 13.0513C14.7172 12.6309 14.8387 12.2945 15.0351 12.0048L21.1033 8.29541C21.8326 8.70655 22.5339 9.53812 22.5339 10.6593C22.5339 11.8553 21.9261 12.6589 20.907 13.2756Z" fill="white"/>
<path d="M25.6755 17.6578L25.1145 17.9755L20.4769 15.9293L25.8625 12.687C26.5919 13.1075 27.3025 13.9297 27.3025 15.051C27.3025 16.2469 26.7134 17.0692 25.6662 17.6578" fill="white"/>
<path d="M21.7579 21.5913L24.4975 22.7966C25.526 23.2545 25.8439 23.7964 25.8439 24.4785C25.8439 24.8709 25.6288 25.254 25.3109 25.525L20.7013 23.4787L21.4774 23.0396C22.1412 22.6752 22.3563 22.4509 22.3563 22.2173C22.3563 21.9837 22.2067 21.7969 21.7579 21.6007" fill="white"/>
<path d="M26.6479 31.7011C25.4792 30.8041 24.2356 30.1968 22.7209 29.5053L15.7363 26.4126C13.9784 25.6278 12.8097 24.5906 12.8097 22.834C12.8097 21.0774 13.6325 20.3019 14.7078 19.6292L15.0911 19.3862C14.82 19.6759 14.6517 19.9655 14.6517 20.5262C14.6517 21.6007 15.5773 21.9651 16.5498 22.4042L24.6844 25.9922C26.0963 26.5995 27.3959 27.6366 27.3959 29.4213C27.3959 30.4023 27.0313 31.2713 26.6386 31.7104" fill="white"/>
<path d="M25.8252 25.1981L25.3203 25.5158C25.6382 25.2449 25.8532 24.8617 25.8532 24.4693C25.8532 23.7872 25.5353 23.2453 24.5068 22.7875L15.8112 18.9566C14.0533 18.1811 12.9594 17.1813 12.9594 15.4341C12.9594 13.827 13.7635 12.7711 15.0257 11.9956C14.8294 12.2852 14.7079 12.6216 14.7079 13.0421C14.7079 14.0419 15.54 14.453 16.3628 14.8174L24.8154 18.5455C26.3488 19.2276 27.6017 20.2554 27.6017 22.1241C27.6017 23.591 26.9192 24.516 25.8252 25.1888" fill="white"/>
</g>
<defs>
<clipPath id="clip0_266_55745">
<rect width="40" height="40" fill="white"/>
</clipPath>
</defs>
</svg>
