<svg width="32" height="32" viewBox="0 0 32 32" fill="none" xmlns="http://www.w3.org/2000/svg">
<g clip-path="url(#clip0_266_55372)">
<path d="M0 16C0 16.9421 0 17.0467 0.0224509 17.8467C0.08232 19.6187 0.269411 21.6523 0.980354 23.7981C1.48176 25.3159 2.4247 26.9533 3.36763 27.9851C4.565 29.3009 6.21889 30.3774 8.00749 30.9906C9.83349 31.6186 11.8092 31.9251 15.6483 32H16.3592C20.2058 31.9177 22.174 31.6186 24 30.9906C25.7886 30.3774 27.435 29.3009 28.6323 27.9851C29.5754 26.9458 30.5183 25.3159 31.0197 23.7981C31.7306 21.6523 31.9251 19.6112 31.9774 17.8467C32 17.0542 32 16.9421 32 16C32 15.0579 32 14.9533 31.9774 14.1533C31.9177 12.3813 31.7306 10.3477 31.0197 8.20186C30.5183 6.68411 29.5754 5.04671 28.6323 4.01494C27.435 2.69907 25.7811 1.62243 24 1.00935C22.174 0.381309 20.1983 0.0747663 16.3592 0H15.6483C11.8017 0.0822429 9.83349 0.381309 8.00749 1.00935C6.21889 1.62243 4.57249 2.69907 3.36763 4.01494C2.4247 5.0542 1.48176 6.68411 0.980354 8.20186C0.276894 10.3477 0.08232 12.3813 0.0224509 14.1533C0 14.9458 0 15.0579 0 16Z" fill="url(#paint0_linear_266_55372)"/>
<mask id="mask0_266_55372" style="mask-type:luminance" maskUnits="userSpaceOnUse" x="6" y="8" width="20" height="14">
<path d="M26 8.85693H6V21.7141H26V8.85693Z" fill="white"/>
</mask>
<g mask="url(#mask0_266_55372)">
<path d="M12.1507 19.1437L12.1144 19.1784C11.5447 19.7529 10.8855 20.0565 10.2063 20.0565C8.78802 20.0565 7.75914 19.0034 7.75914 17.5508C7.75914 16.1005 8.78802 15.0457 10.2063 15.0457C10.8855 15.0457 11.5447 15.3509 12.1144 15.9277L12.1507 15.9619L13.0628 14.8701L13.0384 14.8409C12.28 13.9539 11.3696 13.5225 10.2505 13.5225C9.12871 13.5225 8.10154 13.8967 7.36234 14.5705C6.55737 15.301 6.13391 16.3311 6.13391 17.5508C6.13391 18.7705 6.55737 19.8029 7.36234 20.5334C8.10154 21.2111 9.12871 21.5825 10.2505 21.5825C11.3696 21.5825 12.28 21.1505 13.0384 20.2629L13.0628 20.236L12.1507 19.1437Z" fill="white"/>
<path d="M13.9844 21.4336H15.5954V13.6484H13.9844V21.4336Z" fill="white"/>
<path d="M21.9066 19.7412C21.4763 20.0004 21.0767 20.1311 20.7173 20.1311C20.1963 20.1311 19.9605 19.8585 19.9605 19.2525V15.1215H21.6027V13.656H19.9605V11.2334L18.3818 12.0705V13.656H17.019V15.1215H18.3818V19.5157C18.3818 20.7124 19.0983 21.5315 20.1686 21.5528C20.8947 21.5669 21.3323 21.3525 21.5976 21.1955L21.6146 21.1848L22.0018 19.6834L21.9066 19.7412Z" fill="white"/>
<path d="M23.2405 21.4336H24.8538V13.6484H23.2405V21.4336Z" fill="white"/>
<path d="M25.7935 12.2837C24.3213 10.2202 21.8769 8.98926 19.3901 8.98926C16.9037 8.98926 14.4588 10.2202 12.9895 12.2837L12.9135 12.3898H14.7672L14.7876 12.3679C16.0489 11.0786 17.6962 10.3975 19.3901 10.3975C21.0839 10.3975 22.7301 11.0786 23.9942 12.3679L24.0146 12.3898H25.8672L25.7935 12.2837Z" fill="#EE1C25"/>
</g>
</g>
<defs>
<linearGradient id="paint0_linear_266_55372" x1="16" y1="0" x2="16" y2="32" gradientUnits="userSpaceOnUse">
<stop stop-color="#02BDF4"/>
<stop offset="1" stop-color="#014B8A"/>
</linearGradient>
<clipPath id="clip0_266_55372">
<rect width="32" height="32" fill="white"/>
</clipPath>
</defs>
</svg>
