<svg width="56" height="56" viewBox="0 0 56 56" fill="none" xmlns="http://www.w3.org/2000/svg">
<g clip-path="url(#clip0_266_56148)">
<path d="M0 28C0 29.6486 0 29.8318 0.039289 31.2318C0.14406 34.3327 0.471469 37.8916 1.71562 41.6467C2.59308 44.3028 4.24322 47.1682 5.89335 48.9739C7.9888 51.2765 10.883 53.1605 14.0131 54.2335C17.2086 55.3325 20.666 55.869 27.3845 56H28.6287C35.3601 55.856 38.8045 55.3325 42 54.2335C45.1301 53.1605 48.0112 51.2765 50.1065 48.9739C51.757 47.1552 53.407 44.3028 54.2845 41.6467C55.5285 37.8916 55.869 34.3196 55.9605 31.2318C56 29.8449 56 29.6486 56 28C56 26.3514 56 26.1682 55.9605 24.7682C55.856 21.6673 55.5285 18.1084 54.2845 14.3532C53.407 11.6972 51.757 8.83175 50.1065 7.02615C48.0112 4.72337 45.117 2.83925 42 1.76636C38.8045 0.66729 35.347 0.130841 28.6287 0H27.3845C20.653 0.143925 17.2086 0.66729 14.0131 1.76636C10.883 2.83925 8.00185 4.72337 5.89335 7.02615C4.24322 8.84485 2.59308 11.6972 1.71562 14.3532C0.484565 18.1084 0.14406 21.6673 0.039289 24.7682C0 26.1551 0 26.3514 0 28Z" fill="#FFDF00"/>
<path d="M35.0378 27.9988C35.8701 27.5088 36.5919 26.8542 37.158 26.0758C37.7241 25.2974 38.1225 24.4118 38.3284 23.4741C38.5343 22.5364 38.5434 21.5668 38.355 20.6255C38.1666 19.6842 37.7848 18.7914 37.2333 18.0027C36.5066 16.9888 35.5438 16.1638 34.4268 15.5975C33.3098 15.0313 32.0714 14.7406 30.8169 14.7502H17.9448C17.83 14.7477 17.7188 14.7902 17.6355 14.8685C17.5522 14.9469 17.5035 15.0547 17.5 15.1685V40.8272C17.5027 40.9412 17.5511 41.0495 17.6343 41.1283C17.7175 41.2071 17.8288 41.2499 17.9438 41.2473H30.8169C32.8005 41.2998 34.724 40.5693 36.1646 39.2164C37.6053 37.8636 38.4453 35.9991 38.5 34.0325C38.4895 32.8176 38.166 31.6256 37.5601 30.5695C36.9541 29.5135 36.0858 28.6285 35.0378 27.9988ZM28.7188 34.0278H26.3018V21.9688H28.7188V34.0278Z" fill="#1E1E1E"/>
</g>
<defs>
<clipPath id="clip0_266_56148">
<rect width="56" height="56" fill="white"/>
</clipPath>
</defs>
</svg>
