<svg width="56" height="56" viewBox="0 0 56 56" fill="none" xmlns="http://www.w3.org/2000/svg">
<path d="M0 27.9998C0 29.6419 0 29.8342 0.0455 31.2227C0.0927686 34.7585 0.658793 38.2682 1.7255 41.6399C2.63117 44.3272 4.04845 46.8141 5.89925 48.9635C8.13054 51.3517 10.9156 53.1545 14.0087 54.2132C18.3401 55.5252 22.8568 56.1218 27.3805 55.9794H28.6213C33.145 56.1218 37.6617 55.5252 41.993 54.2132C45.0869 53.1525 47.872 51.3472 50.1025 48.9565C51.9524 46.8093 53.3691 44.3248 54.2745 41.6399C55.3409 38.2711 55.9075 34.7644 55.9562 31.2315C56 29.8342 56 29.6436 56 27.9998C56 26.356 56 26.1654 55.9562 24.7752C55.9075 21.2428 55.3409 17.7367 54.2745 14.3685C53.3698 11.6808 51.9524 9.19374 50.1007 7.0449C47.8704 4.65363 45.0853 2.84771 41.9913 1.78649C37.6596 0.475675 33.1432 -0.120883 28.6195 0.0202789H27.3787C22.8557 -0.120692 18.3398 0.475863 14.0087 1.78649C10.9147 2.84771 8.12961 4.65363 5.89925 7.0449C4.04785 9.19459 2.63052 11.6822 1.7255 14.3703C0.659609 17.7385 0.0935919 21.2447 0.0455 24.7769C0 26.1654 0 26.356 0 27.9998Z" fill="#BCC2CF"/>
<path d="M32.375 34.2852H41.125" stroke="white" stroke-width="1.5" stroke-linecap="round"/>
<path d="M32.375 39.5312H41.125" stroke="white" stroke-width="1.5" stroke-linecap="round"/>
<path d="M21.875 14.0103H18.375C16.442 14.0103 14.875 15.5761 14.875 17.5077V21.0051C14.875 22.9367 16.442 24.5026 18.375 24.5026H21.875C23.808 24.5026 25.375 22.9367 25.375 21.0051V17.5077C25.375 15.5761 23.808 14.0103 21.875 14.0103Z" stroke="white" stroke-width="1.5"/>
<path d="M21.875 31.4976H18.375C16.442 31.4976 14.875 33.0634 14.875 34.995V38.4924C14.875 40.424 16.442 41.9899 18.375 41.9899H21.875C23.808 41.9899 25.375 40.424 25.375 38.4924V34.995C25.375 33.0634 23.808 31.4976 21.875 31.4976Z" stroke="white" stroke-width="1.5"/>
<path d="M37.625 14.0103H34.125C32.192 14.0103 30.625 15.5761 30.625 17.5077V21.0051C30.625 22.9367 32.192 24.5026 34.125 24.5026H37.625C39.558 24.5026 41.125 22.9367 41.125 21.0051V17.5077C41.125 15.5761 39.558 14.0103 37.625 14.0103Z" stroke="white" stroke-width="1.5"/>
</svg>
