<svg width="40" height="40" viewBox="0 0 40 40" fill="none" xmlns="http://www.w3.org/2000/svg">
<g clip-path="url(#clip0_266_55791)">
<path d="M0 20C0 21.1776 0 21.3085 0.028057 22.3084C0.102876 24.5234 0.336684 27.0655 1.22516 29.7477C1.85176 31.6449 3.03016 33.6917 4.20855 34.9814C5.70493 36.6264 7.7718 37.972 10.007 38.7383C12.289 39.5235 14.758 39.9068 19.5557 40H20.4442C25.2513 39.8971 27.711 39.5235 29.9929 38.7383C32.2282 37.972 34.2857 36.6264 35.7915 34.9814C36.9697 33.6823 38.1481 31.6449 38.7747 29.7477C39.6631 27.0655 39.9064 24.5141 39.9718 22.3084C40 21.3178 40 21.1776 40 20C40 18.8225 40 18.6916 39.9718 17.6916C39.8971 15.4767 39.6631 12.9346 38.7747 10.2524C38.1481 8.35516 36.9697 6.30843 35.7915 5.01869C34.295 3.37384 32.2282 2.02804 29.9929 1.26168C27.711 0.476635 25.242 0.093458 20.4442 0H19.5557C14.7486 0.102804 12.289 0.476635 10.007 1.26168C7.7718 2.02804 5.71429 3.37384 4.20855 5.01869C3.03016 6.31779 1.85176 8.35516 1.22516 10.2524C0.346036 12.9346 0.102876 15.4767 0.028057 17.6916C0 18.6823 0 18.8225 0 20Z" fill="#B19C52"/>
<path d="M29.2282 21.7603C28.2235 24.2628 26.5256 24.9635 26.5256 24.9635C31.5089 19.9385 28.4647 14.1427 28.4647 14.1427C27.7312 12.8414 28.6656 12.2808 28.6656 12.2808C26.5256 12.8114 27.1987 14.5831 27.1987 14.5831C28.2738 17.1357 28.0527 19.2078 27.691 20.489L26.9877 20.0986V20.0786C26.9877 20.0786 28.6656 13.5221 21.8637 11.2297V9.99854H20.4169V18.1267L27.0983 21.9205C26.9777 22.1707 26.8471 22.4009 26.7165 22.6211L20.005 18.7473L13.2634 22.6211C13.1328 22.4009 13.0022 22.1707 12.8816 21.9205L19.5629 18.1267V9.99854H18.1262V11.2297C11.3143 13.5221 12.9821 20.0786 12.9821 20.0786V20.0986L12.2888 20.489C11.9271 19.2078 11.7061 17.1357 12.7812 14.5831C12.7812 14.5831 13.4543 12.8214 11.3143 12.2808C11.3143 12.2808 12.2487 12.8514 11.5152 14.1427C11.5152 14.1427 8.47095 19.9385 13.4543 24.9635C13.4543 24.9635 11.7563 24.2628 10.7516 21.7603C10.7516 21.7603 10.1789 20.5391 8.57141 20.8094L9.53595 22.1907C9.53595 22.1907 10.9827 26.7753 16.5588 27.466V29.9985H19.3017V26.2748C19.3017 26.2748 16.3981 26.2548 14.1777 23.8124L14.8609 23.412C14.9915 23.5321 17.1014 25.474 19.9749 25.5341H19.9949H20.0151C22.8885 25.484 25.0084 23.5321 25.1391 23.412L25.8223 23.8124C23.6019 26.2448 20.6983 26.2748 20.6983 26.2748V29.9985H23.4411V27.466C29.0173 26.7653 30.464 22.1907 30.464 22.1907C30.8157 21.0896 31.4286 20.8094 31.4286 20.8094C29.821 20.5391 29.2483 21.7603 29.2483 21.7603M25.6816 19.3379L21.9139 17.2358L21.8939 12.7413H21.9139C21.9139 12.7413 26.4552 13.9725 25.6917 19.3379M18.1162 12.7413H18.1362L18.1162 17.2358L14.3485 19.3379C13.5749 13.9725 18.1262 12.7413 18.1262 12.7413M23.7928 22.6111L23.7626 22.5911C22.4163 23.6522 21.1403 23.9925 20.0251 23.9925C18.9099 23.9925 17.6339 23.6422 16.2876 22.5911L16.2574 22.6111L20.0352 20.4089L23.7928 22.6011V22.6111Z" fill="white"/>
</g>
<defs>
<clipPath id="clip0_266_55791">
<rect width="40" height="40" fill="white"/>
</clipPath>
</defs>
</svg>
