<svg width="24" height="24" viewBox="0 0 24 24" fill="none" xmlns="http://www.w3.org/2000/svg">
<g clip-path="url(#clip0_266_54872)">
<path d="M0 12C0 12.7065 0 12.785 0.0168382 13.385C0.06174 14.714 0.202058 16.2393 0.735266 17.8486C1.11132 18.9869 1.81852 20.2149 2.52572 20.9888C3.42377 21.9756 4.66416 22.7831 6.00561 23.2429C7.37511 23.7139 8.85688 23.9439 11.7362 24H12.2694C15.1544 23.9383 16.6305 23.7139 18 23.2429C19.3414 22.7831 20.5763 21.9756 21.4742 20.9888C22.1816 20.2094 22.8887 18.9869 23.2648 17.8486C23.7979 16.2393 23.9439 14.7084 23.9831 13.385C24 12.7907 24 12.7065 24 12C24 11.2935 24 11.2149 23.9831 10.6149C23.9383 9.28599 23.7979 7.76074 23.2648 6.15139C22.8887 5.01309 22.1816 3.78504 21.4742 3.01121C20.5763 2.0243 19.3358 1.21682 18 0.757009C16.6305 0.285981 15.1487 0.0560747 12.2694 0H11.7362C8.85126 0.0616821 7.37511 0.285981 6.00561 0.757009C4.66416 1.21682 3.42936 2.0243 2.52572 3.01121C1.81852 3.79065 1.11132 5.01309 0.735266 6.15139C0.207671 7.76074 0.06174 9.28599 0.0168382 10.6149C0 11.2093 0 11.2935 0 12Z" fill="#1D62E5"/>
<path d="M11.6916 5.15014C7.90722 5.32275 4.97943 8.52836 5.14994 12.3107C5.32042 16.093 8.52603 19.0229 12.3104 18.8503C16.0928 18.6777 19.0205 15.4742 18.85 11.6898C18.6796 7.90954 15.4739 4.97966 11.6916 5.15014ZM12.4936 11.8055C13.7122 12.9295 14.3795 13.5336 14.3795 13.5336C16.5285 15.3226 15.7939 16.9581 14.973 17.5263C14.3479 17.9599 13.6533 18.1641 12.744 18.2125C12.6619 18.223 12.5125 18.1767 12.5062 18.0315C12.4999 17.8758 12.7272 17.8379 12.7272 17.8379C14.7562 17.438 14.1627 16.1077 13.4449 15.43C13.144 15.1437 10.3193 12.7085 10.3193 12.7085C7.62727 10.3911 7.84197 8.58097 7.84197 8.58097C7.97247 6.35409 9.9215 5.80264 11.397 5.92892C11.5696 5.94367 11.6664 6.0489 11.6348 6.19412C11.6032 6.34989 11.3738 6.36251 11.3738 6.36251C10.9045 6.38987 10.4856 6.43828 10.1657 6.65297C8.97644 7.45279 9.32795 8.8125 10.9129 10.3259C11.1128 10.5174 11.3233 10.7173 11.5401 10.9215C11.5401 10.9215 11.8579 11.2014 12.4915 11.8055H12.4936ZM11.5738 17.5621C11.5864 17.7789 11.0581 17.8736 10.4561 17.8147C9.69839 17.741 8.79333 17.5011 8.00613 16.8212C7.28208 16.194 6.83377 15.3331 6.61486 14.5775C6.39177 13.803 6.29915 12.8958 6.66749 12.9674C6.78114 12.9905 6.97689 13.4873 7.18947 13.8493C7.40838 14.2239 7.58939 14.4302 7.75567 14.5565C7.83144 14.6133 8.09032 14.0387 8.46708 13.7125C8.68599 13.5315 8.92593 13.4704 8.96382 14.0092C9.01012 14.6702 8.89227 15.4552 9.0838 15.4552C9.2648 15.4552 9.67102 15.3205 10.5635 15.2448C10.8981 15.2153 11.0897 15.2784 10.7697 15.731C10.6098 15.9562 10.3951 16.274 9.88994 16.636C10.6477 17.3474 11.559 17.2611 11.5759 17.5621H11.5738ZM12.1715 10.65C12.1147 10.4269 12.1 10.1469 12.1463 9.78913C12.241 9.03982 12.443 8.68832 12.6725 8.10949C12.9819 7.33072 12.2305 6.87399 12.3547 6.58772C12.5251 6.20044 13.064 6.69296 13.6617 6.72874C14.1774 6.75821 14.4889 6.73084 14.8909 6.78557C15.4234 6.85714 16.0633 7.03815 16.3453 7.3707C16.6063 7.67591 16.2085 8.04847 15.7286 7.81483C15.3792 7.64434 14.9372 7.74958 15.1961 8.11369C15.5076 8.46099 15.6571 8.46941 15.9728 8.5536C16.8463 8.78304 16.8631 9.61864 16.2738 10.0522C15.6002 10.5447 14.9204 10.3406 14.6468 9.37449C14.51 8.89247 14.169 8.64832 13.8217 8.78514C13.4744 8.92194 13.6807 9.55549 13.9438 10.1427C14.4721 11.4898 13.1608 11.4435 13.0071 11.4267C12.3104 11.2793 12.1694 10.6479 12.1694 10.6479L12.1715 10.65Z" fill="white"/>
</g>
<defs>
<clipPath id="clip0_266_54872">
<rect width="24" height="24" fill="white"/>
</clipPath>
</defs>
</svg>
