<svg width="32" height="32" viewBox="0 0 32 32" fill="none" xmlns="http://www.w3.org/2000/svg">
<g clip-path="url(#clip0_266_55570)">
<path d="M0 16C0 16.9421 0 17.0467 0.0224456 17.8467C0.0823006 19.6187 0.269348 21.6523 0.980126 23.7981C1.48141 25.3159 2.42413 26.9533 3.36686 27.9851C4.56394 29.3009 6.21743 30.3774 8.0056 30.9906C9.8312 31.6186 11.8064 31.9251 15.6446 32H16.3554C20.2011 31.9177 22.1688 31.6186 23.9944 30.9906C25.7825 30.3774 27.4286 29.3009 28.6331 27.9851C29.576 26.9458 30.5186 25.3159 31.02 23.7981C31.7306 21.6523 31.9251 19.6112 31.9774 17.8467C32 17.0542 32 16.9421 32 16C32 15.0579 32 14.9458 31.9774 14.1533C31.9177 12.3813 31.7306 10.3477 31.02 8.20186C30.5186 6.68411 29.576 5.04671 28.6331 4.01494C27.4361 2.69907 25.7825 1.62243 23.9944 1.00935C22.1688 0.381309 20.1936 0.0747663 16.3554 0H15.6446C11.7989 0.0822429 9.8312 0.381309 8.0056 1.00935C6.21743 1.62243 4.57143 2.69907 3.36686 4.01494C2.42413 5.0542 1.48141 6.68411 0.980126 8.20186C0.276829 10.3477 0.0823006 12.3813 0.0224456 14.1533C0 14.9458 0 15.0579 0 16Z" fill="#04A86C"/>
<path d="M21.102 10.6153C20.5675 11.3966 20.276 11.7993 19.4176 12.7337C20.8995 11.8476 21.3044 11.7912 22.6811 10.9938C23.1912 11.751 23.3289 13.5069 23.3451 14.9004C23.7905 14.0144 24.333 10.6958 24.1063 10.0917C24.9323 9.55204 24.9323 9.34261 25.1428 8.98015C24.3168 9.05264 23.8472 9.06875 23.3937 9.20567C22.2519 8.50492 19.8954 7.78804 17.9762 7.64307C18.5754 7.89275 21.0129 9.21372 21.3206 9.62452C20.033 9.79367 17.5713 10.5186 16.3242 11.171C17.7494 10.8569 19.7415 10.6958 21.1101 10.6233L21.102 10.6153Z" fill="white"/>
<path d="M16.8668 21.4975C16.5024 21.9808 16.2028 22.3433 15.7979 22.7863C15.1177 22.9715 14.5751 23.0441 13.9192 23.0441C14.3241 23.2535 14.729 23.3823 15.1501 23.4629C14.729 23.8495 14.3565 24.1234 13.9516 24.3811C14.648 24.22 15.5468 23.922 16.2271 23.5273C16.5753 23.5354 16.9316 23.5273 17.1664 23.479C17.1098 23.2696 17.0612 23.1165 17.0045 22.8507C17.6442 22.3594 18.1058 21.9164 18.624 21.3848C18.0653 21.7795 17.5794 22.0775 16.9397 22.3835C16.9073 22.0855 16.8911 21.8278 16.8749 21.4975H16.8668Z" fill="white"/>
<path d="M9.10916 17.1562C9.10916 17.1562 11.1741 15.2472 12.0649 14.7639C12.0649 14.7639 12.5184 16.3185 12.8423 17.0918C12.8423 17.0918 13.1338 15.2956 13.6035 14.2646C13.6035 14.2646 13.733 14.184 14.3971 14.1196C15.053 14.0632 15.9762 14.0229 17.7577 14.329C17.7577 14.329 16.1219 13.298 14.1056 13.0241C14.1865 12.7503 14.47 12.1623 14.721 11.8481C14.3485 11.9045 13.3039 12.3717 12.6074 12.9114C12.6074 12.9114 12.1459 12.855 11.3766 12.8791C10.6073 12.9114 9.59505 13.1047 9.19825 13.2658C9.95136 13.298 10.9798 13.4833 11.3766 13.8779C11.3766 13.8779 10.2267 14.9089 9.10107 17.1562H9.10916Z" fill="white"/>
<path d="M9.33564 22.1101C9.67575 22.8511 10.0321 23.3505 10.6151 23.9143C10.4774 23.4311 10.4532 23.0364 10.5018 22.5289C11.2386 22.7384 11.846 22.8592 12.672 22.8833C11.8784 22.5934 11.3115 22.2551 10.6961 21.6751C10.8824 21.1677 11.101 20.7649 11.4411 20.2575C10.8014 20.3461 10.3398 20.4267 9.78912 20.5314C9.34375 19.7501 9.1413 18.9929 8.91455 17.9458C8.78498 19.0493 8.7445 19.8548 8.89835 20.7408C8.38818 20.8777 8.0319 20.9905 7.6189 21.1757C8.20195 21.5301 8.67972 21.8121 9.33564 22.1101Z" fill="white"/>
<path d="M16.9962 22.8502C17.0529 23.116 17.1015 23.2771 17.1582 23.4784C16.9153 23.5268 16.5671 23.5429 16.2188 23.5268C15.5386 23.9215 14.6398 24.2194 13.9434 24.3806C14.3482 24.1228 14.7207 23.8489 15.1418 23.4623C14.7207 23.3737 14.3078 23.2529 13.911 23.0435C14.575 23.0435 15.1094 22.971 15.7897 22.7857C16.1946 22.3427 16.4942 21.9722 16.8586 21.497C16.8748 21.8353 16.891 22.085 16.9234 22.383C17.5631 22.0769 18.049 21.7708 18.6077 21.3842C18.0814 21.9158 17.6279 22.3588 16.9882 22.8502H16.9962ZM17.968 7.62671C19.8872 7.77168 22.2437 8.49662 23.3855 9.18934C23.839 9.05239 24.3086 9.03628 25.1346 8.9638C24.9241 9.32625 24.9241 9.53568 24.0981 10.0753C24.3248 10.6795 23.7823 13.998 23.3369 14.884C23.3207 13.4906 23.183 11.7346 22.6729 10.9775C21.3043 11.7749 20.8913 11.8393 19.4094 12.7173C20.2759 11.7829 20.5674 11.3883 21.0938 10.5989C19.7252 10.6714 17.7332 10.8405 16.3079 11.1466C17.555 10.4942 20.0168 9.76928 21.3043 9.60011C20.9966 9.18934 18.5672 7.86031 17.9599 7.61865L17.968 7.62671ZM9.20607 13.257C9.59478 13.0959 10.607 12.9026 11.3844 12.8703C12.1537 12.8462 12.6153 12.9026 12.6153 12.9026C13.3117 12.3548 14.3563 11.8957 14.7288 11.8393C14.4778 12.1535 14.1863 12.7415 14.1134 13.0153C16.1298 13.2892 17.7656 14.3202 17.7656 14.3202C15.984 14.0061 15.0608 14.0544 14.4049 14.1108C13.7409 14.1752 13.6113 14.2558 13.6113 14.2558C13.1416 15.2868 12.8501 17.083 12.8501 17.083C12.5262 16.3097 12.0727 14.7551 12.0727 14.7551C11.182 15.2304 9.11701 17.1474 9.11701 17.1474C10.2426 14.9001 11.3925 13.8691 11.3925 13.8691C10.9957 13.4745 9.9673 13.2892 9.21418 13.257H9.20607ZM8.91455 17.9368C9.1413 18.9839 9.34375 19.741 9.78912 20.5223C10.3398 20.4176 10.8095 20.3371 11.4411 20.2485C11.101 20.7559 10.8824 21.1587 10.6961 21.6661C11.3196 22.2461 11.8865 22.5844 12.672 22.8743C11.846 22.8502 11.2306 22.7293 10.5018 22.5199C10.4532 23.0274 10.4774 23.4221 10.6151 23.9053C10.0321 23.3335 9.67575 22.8421 9.33564 22.1011C8.67972 21.8031 8.20195 21.5211 7.6189 21.1667C8.0319 20.9815 8.3963 20.8687 8.89835 20.7318C8.7445 19.8457 8.78498 19.0403 8.91455 17.9368Z" fill="white"/>
</g>
<defs>
<clipPath id="clip0_266_55570">
<rect width="32" height="32" fill="white"/>
</clipPath>
</defs>
</svg>
