<svg width="56" height="56" viewBox="0 0 56 56" fill="none" xmlns="http://www.w3.org/2000/svg">
<g clip-path="url(#clip0_266_56306)">
<path d="M0 28C0 29.6486 0 29.8318 0.039289 31.2318C0.14406 34.3327 0.471469 37.8916 1.71562 41.6467C2.59308 44.3028 4.24322 47.1682 5.89335 48.9739C7.98875 51.2765 10.883 53.1605 14.0131 54.2335C17.2086 55.3325 20.666 55.869 27.3845 56H28.6287C35.3601 55.856 38.8045 55.3325 42 54.2335C45.1301 53.1605 48.0112 51.2765 50.1065 48.9739C51.757 47.1552 53.407 44.3028 54.2845 41.6467C55.5285 37.8916 55.869 34.3196 55.9605 31.2318C56 29.8449 56 29.6486 56 28C56 26.3514 56 26.1682 55.9605 24.7682C55.856 21.6673 55.5285 18.1084 54.2845 14.3532C53.407 11.6972 51.757 8.83175 50.1065 7.02615C48.0112 4.72337 45.117 2.83925 42 1.76636C38.8045 0.66729 35.347 0.130841 28.6287 0H27.3845C20.653 0.143925 17.2086 0.66729 14.0131 1.76636C10.883 2.83925 8.00185 4.72337 5.89335 7.02615C4.24322 8.84485 2.59308 11.6972 1.71562 14.3532C0.484565 18.1084 0.14406 21.6673 0.039289 24.7682C0 26.1551 0 26.3514 0 28Z" fill="#0072BB"/>
<path fill-rule="evenodd" clip-rule="evenodd" d="M51 29.2787V29.2234C51 29.161 50.9995 29.0986 50.9985 29.0364C50.9995 29.1186 50.9995 29.1994 51 29.2787ZM5.03715 30.1388C5.0125 29.8358 5 29.5306 5 29.2234C5 29.0395 5.00445 28.8564 5.01335 28.674C5.16695 28.2631 6.44275 25.6238 13.9111 25.034C13.9111 25.034 17.6626 24.8034 21.4177 25.4839C21.4177 25.4839 14.8225 22.7666 21.0641 19.5679C21.0641 19.5679 26.222 16.6016 36.6791 18.7346C36.6791 18.7346 37.8892 19.1888 36.6791 19.6701C36.6791 19.6701 32.3663 20.4754 31.3267 22.9334C31.3267 22.9334 30.7717 24.2846 31.9438 25.4149C31.9438 25.4149 32.8596 26.0988 31.2861 26.0665C31.2861 26.0665 24.4938 25.034 19.4287 27.9646C19.4287 27.9646 15.7736 29.9036 18.65 32.4908C18.65 32.4908 19.7611 33.2001 18.3211 33.394C18.3211 33.394 7.9975 34.7505 5.0893 30.2285L5.03715 30.1388ZM27.7286 13.2511C27.8132 13.2504 27.8979 13.2501 27.9827 13.2501C28.1854 13.2501 28.3872 13.2518 28.5884 13.2551C28.3928 13.2517 28.1967 13.25 28 13.25C27.9094 13.25 27.8189 13.2503 27.7286 13.2511ZM50.219 25.0812C50.2555 25.1866 50.29 25.2926 50.3235 25.399C48.378 24.8252 46.3805 24.8034 46.3805 24.8034C38.8024 24.0304 35.0111 26.1591 35.0111 26.1591C28.9428 29.1996 35.0111 32.0654 35.0111 32.0654C29.2309 31.0976 24.8182 32.1676 24.8182 32.1676C21.6863 32.6751 20.0528 33.9399 20.0528 33.9399C16.4551 36.4249 20.4453 38.5544 20.4453 38.5544C24.8182 40.9521 31.6812 40.1048 31.6812 40.1048C33.7771 40.1048 32.2717 38.8784 32.2717 38.8784C30.1113 37.3603 31.812 35.5881 31.812 35.5881C33.6392 33.649 35.7986 33.394 35.7986 33.394C40.1751 32.034 45.211 32.6751 45.211 32.6751C46.7756 32.9345 45.4682 31.5833 45.4682 31.5833C44.4897 30.8059 45.0793 29.1254 45.0793 29.1254C47.1583 26.4971 50.549 26.0739 50.549 26.0739C50.555 26.0911 50.5605 26.1082 50.566 26.1253C50.5705 26.1383 50.5745 26.1513 50.5785 26.1642C50.4765 25.7986 50.3565 25.4374 50.219 25.0812ZM23.8841 22.6002C23.7134 22.6701 23.5304 22.7061 23.3456 22.7061C22.5625 22.7061 21.9375 22.0868 21.9375 21.3225C21.9375 20.5451 22.5625 19.9249 23.3456 19.9249C23.5304 19.9249 23.7134 19.9609 23.8841 20.0308C24.0549 20.1007 24.2101 20.2031 24.3407 20.3323C24.4714 20.4614 24.5751 20.6146 24.6458 20.7833C24.7165 20.9521 24.7529 21.1329 24.7529 21.3155C24.7529 21.4981 24.7165 21.679 24.6458 21.8477C24.5751 22.0164 24.4714 22.1697 24.3407 22.2987C24.2101 22.4279 24.0549 22.5303 23.8841 22.6002ZM9.82205 29.672C10.196 29.672 10.5546 29.5252 10.819 29.264C11.0834 29.0027 11.2319 28.6483 11.2319 28.2788C11.2319 27.9093 11.0834 27.5549 10.819 27.2937C10.5546 27.0324 10.196 26.8857 9.82205 26.8857C9.6327 26.879 9.44395 26.9101 9.267 26.9771C9.0901 27.0442 8.9287 27.1457 8.79235 27.2757C8.65605 27.4058 8.5476 27.5616 8.47355 27.7339C8.3995 27.9063 8.36135 28.0916 8.36135 28.2788C8.36135 28.466 8.3995 28.6514 8.47355 28.8237C8.5476 28.996 8.65605 29.1518 8.79235 29.2819C8.9287 29.4118 9.0901 29.5134 9.267 29.5805C9.44395 29.6474 9.6327 29.6786 9.82205 29.672ZM23.577 33.3937C23.2036 33.3951 22.8458 33.5423 22.5819 33.8033C22.3179 34.0643 22.1691 34.4179 22.1679 34.7869C22.1679 35.5643 22.807 36.1766 23.577 36.1766C24.361 36.1766 24.9878 35.5643 24.9878 34.7869C24.9878 34.0174 24.361 33.3937 23.577 33.3937ZM36.5955 26.6161C36.7663 26.5464 36.9493 26.5106 37.1341 26.5109C37.9156 26.5109 38.5405 27.1302 38.5405 27.8997C38.5405 28.2686 38.3922 28.6224 38.1282 28.8832C37.8642 29.1441 37.5061 29.2906 37.1328 29.2906C36.7595 29.2906 36.4014 29.1441 36.1374 28.8832C35.8734 28.6224 35.7251 28.2686 35.7251 27.8997C35.7254 27.7171 35.762 27.5362 35.8329 27.3676C35.9039 27.199 36.0077 27.0459 36.1385 26.9169C36.2694 26.788 36.4247 26.6857 36.5955 26.6161Z" fill="white"/>
</g>
<defs>
<clipPath id="clip0_266_56306">
<rect width="56" height="56" fill="white"/>
</clipPath>
</defs>
</svg>
