<svg width="56" height="56" viewBox="0 0 56 56" fill="none" xmlns="http://www.w3.org/2000/svg">
<g clip-path="url(#clip0_266_56227)">
<mask id="mask0_266_56227" style="mask-type:luminance" maskUnits="userSpaceOnUse" x="0" y="0" width="56" height="56">
<path d="M56 0H0V56H56V0Z" fill="white"/>
</mask>
<g mask="url(#mask0_266_56227)">
<path d="M0 28.0019C0 29.6506 0 29.8337 0.0392798 31.2337C0.144026 34.3346 0.471357 37.8935 1.71522 41.6487C2.59247 44.3047 4.24222 47.1701 5.89197 48.9758C7.9869 51.2784 10.8805 53.1628 14.0098 54.2355C17.2045 55.3348 20.6612 55.8709 27.378 56.002H28.6219C35.3518 55.8579 38.7954 55.3348 41.9901 54.2355C45.1194 53.1628 47.9999 51.2784 50.1081 48.9758C51.7575 47.1571 53.4074 44.3047 54.2846 41.6487C55.5284 37.8935 55.869 34.3215 55.9605 31.2337C56 29.8468 56 29.6506 56 28.0019C56 26.3533 56 26.1701 55.9605 24.7702C55.856 21.6692 55.5284 18.1104 54.2846 14.3552C53.4074 11.6991 51.7575 8.8337 50.1081 7.02813C48.013 4.72531 45.1194 2.8412 41.9901 1.76831C38.7954 0.669242 35.3388 0.132794 28.6219 0.00195312H27.378C20.6481 0.145878 17.2045 0.669242 14.0098 1.76831C10.8805 2.8412 8.00001 4.72531 5.89197 7.02813C4.24222 8.8468 2.59247 11.6991 1.71522 14.3552C0.484451 18.1104 0.144026 21.6692 0.0392798 24.7702C0 26.1571 0 26.3533 0 28.0019Z" fill="#E3333F"/>
<path d="M44.4547 32.6372L41.1952 28.7129H41.169L40.292 30.7404C40.292 30.7404 40.292 30.7666 40.292 30.7797L41.7188 32.5849C41.8235 32.7157 41.9283 32.7549 42.0984 32.7549" fill="white"/>
<path d="M42.1378 23.2578C40.7633 23.2578 40.0303 23.6764 39.6114 24.5529L37.0195 30.5178C36.8624 30.871 36.6399 31.0411 36.1818 31.0411V23.3494C36.1818 23.3494 36.1425 23.2578 36.077 23.2578H34.1789C34.1789 23.2578 34.0742 23.2971 34.0742 23.3494V32.5716C34.0742 32.6631 34.1528 32.7416 34.2575 32.7416H36.3912C37.7657 32.7416 38.394 32.323 38.8129 31.4466L41.3655 25.5601C41.5749 25.1415 41.8629 24.9584 42.4651 24.9584" fill="white"/>
<path d="M19.2167 28.0063C19.976 27.7054 20.6174 27.0383 20.6174 25.9264C20.6174 24.2651 19.0989 23.271 17.2925 23.271H11.6637C11.6637 23.271 11.559 23.3102 11.559 23.3625V24.8669C11.559 24.8669 11.5982 24.9584 11.6637 24.9584H16.8998C17.7375 24.9584 18.3135 25.4424 18.3135 26.0441C18.3135 26.6459 17.7375 27.1299 16.8998 27.1299H13.7843V26.0049C13.7843 26.0049 13.745 25.9133 13.6796 25.9133H11.6506C11.6506 25.9133 11.5459 25.9526 11.5459 26.0049V32.6501C11.5459 32.6501 11.5851 32.7416 11.6506 32.7416H17.2008C19.2691 32.7416 20.7614 31.8391 20.7614 29.9815C20.7614 29.0659 20.1854 28.3203 19.2167 28.0063ZM17.0045 31.0934H13.7843V28.8697H17.0045C17.8684 28.8697 18.4575 29.3667 18.4575 29.9815C18.4575 30.5964 17.8684 31.0934 17.0045 31.0934Z" fill="white"/>
<path d="M24.3352 25.9131H22.424C22.424 25.9131 22.3193 25.9523 22.3193 26.0047V32.6498C22.3193 32.6498 22.3586 32.7414 22.424 32.7414H24.3352C24.3352 32.7414 24.4399 32.7022 24.4399 32.6498V26.0047C24.4399 26.0047 24.4007 25.9131 24.3352 25.9131Z" fill="white"/>
<path d="M32.1632 23.2577H30.2651C30.2651 23.2577 30.1604 23.297 30.1604 23.3493V31.0409C29.7153 31.0409 29.4928 30.8709 29.3357 30.5177L26.7438 24.5527C26.3249 23.6763 25.5919 23.2577 24.2174 23.2577H22.424C22.424 23.2577 22.3193 23.297 22.3193 23.3493V24.8536C22.3193 24.8536 22.3586 24.9452 22.424 24.9452H23.8771C24.4792 24.9452 24.7803 25.1283 24.9766 25.5469L27.5292 31.4334C27.9481 32.3098 28.5765 32.7284 29.9509 32.7284H32.0846C32.1763 32.7284 32.2548 32.6499 32.2548 32.5583V23.3362C32.2548 23.3362 32.2155 23.2446 32.1501 23.2446" fill="white"/>
</g>
</g>
<defs>
<clipPath id="clip0_266_56227">
<rect width="56" height="56" fill="white"/>
</clipPath>
</defs>
</svg>
