<svg width="40" height="40" viewBox="0 0 40 40" fill="none" xmlns="http://www.w3.org/2000/svg">
<g clip-path="url(#clip0_266_55927)">
<path d="M0 20.0001C0 21.1777 0 21.3085 0.028057 22.3085C0.102876 24.5235 0.336684 27.0655 1.22516 29.7478C1.85176 31.645 3.03016 33.6917 4.20855 34.9815C5.70493 36.6263 7.7718 37.972 10.007 38.7386C12.289 39.5235 14.758 39.8975 19.5557 40H20.4442C25.2513 39.8975 27.711 39.5235 29.9929 38.7386C32.2282 37.972 34.2857 36.6263 35.7915 34.9815C36.9697 33.6824 38.1481 31.645 38.7747 29.7478C39.6631 27.0655 39.9064 24.5141 39.9718 22.3085C40 21.3178 40 21.1777 40 20.0001C40 18.8225 40 18.6917 39.9718 17.6917C39.8971 15.4767 39.6631 12.9346 38.7747 10.2524C38.1481 8.35516 36.9697 6.30842 35.7915 5.01872C34.295 3.37384 32.2282 2.02805 29.9929 1.26169C27.711 0.476638 25.242 0.0934582 20.4442 0H19.5557C14.7486 0.102804 12.289 0.476638 10.007 1.26169C7.7718 2.02805 5.71429 3.37384 4.20855 5.01872C3.03016 6.31778 1.85176 8.35516 1.22516 10.2524C0.346036 12.9346 0.102876 15.4767 0.028057 17.6917C0 18.6823 0 18.8225 0 20.0001Z" fill="#4041B4"/>
<path d="M10.0515 10.0615C10.0515 10.6315 10.0515 29.9447 10.0515 29.9447C10.0515 29.9447 29.1913 29.9354 29.9487 29.9354V10.0615H10.0515ZM27.1436 27.1323H12.8379V12.8272H27.1436V27.123V27.1323Z" fill="white"/>
<path d="M17.8681 25.1795L25.5259 14.8081H22.1505L14.4272 25.1515L17.8681 25.1795Z" fill="white"/>
</g>
<defs>
<clipPath id="clip0_266_55927">
<rect width="40" height="40" fill="white"/>
</clipPath>
</defs>
</svg>
