<svg width="96" height="28" viewBox="0 0 96 28" fill="none" xmlns="http://www.w3.org/2000/svg">
<path fill-rule="evenodd" clip-rule="evenodd" d="M8.53767 6.04649C8.88106 5.88947 9.20611 6.16728 9.49365 6.32994C11.994 7.9549 14.5386 9.50659 17.0323 11.1316C17.7074 11.5728 17.6574 12.647 16.9639 13.052C14.3452 14.7189 11.7065 16.3616 9.08776 18.0405C8.90606 18.1613 8.65019 18.1669 8.46266 18.0526C5.93728 16.4582 3.4119 14.8703 0.893189 13.2815C0.493129 13.04 0.0238915 12.738 0.0180573 12.2307C-0.087792 11.6993 0.287265 11.2097 0.736499 10.9504C3.34356 9.32541 5.90645 7.63442 8.53767 6.04649ZM11.4323 9.28354C11.8507 9.92934 12.2949 10.5639 12.6883 11.2282C13.1575 11.2588 13.6259 11.2523 14.0885 11.2282C13.195 10.5937 12.2632 9.99618 11.4314 9.28354H11.4323ZM3.41857 11.2338C3.87531 11.2459 4.33787 11.2701 4.79378 11.2274C5.22468 10.6114 5.6189 9.97121 6.0623 9.36165C5.18717 9.98973 4.31787 10.6299 3.41774 11.2338H3.41857ZM6.65656 11.2459H7.91925C7.91925 10.6259 7.91675 10.0083 7.91258 9.39144C7.53086 10.0316 7.09412 10.6355 6.65656 11.2459ZM9.6195 9.45264C9.61117 10.0485 9.61117 10.646 9.6195 11.2467H10.8389C10.4321 10.6428 10.0262 10.0509 9.6195 9.45264ZM3.41857 12.8709C4.31204 13.511 5.19967 14.1512 6.08731 14.7914C5.62474 14.1754 5.20634 13.5231 4.78711 12.8773C4.33037 12.8709 3.87447 12.8773 3.41774 12.8709H3.41857ZM6.64989 12.8765C7.08746 13.4925 7.52502 14.115 7.92508 14.7543C7.91841 14.1262 7.91841 13.4981 7.92508 12.8765H6.64989ZM9.62534 12.8709C9.61284 13.4812 9.61284 14.0908 9.61867 14.6947C10.0187 14.0852 10.4371 13.4812 10.8564 12.8765C10.4438 12.8765 10.0379 12.8644 9.62534 12.8701V12.8709ZM12.7883 12.8709C12.2941 13.5046 11.8815 14.1818 11.4506 14.8518C12.2824 14.115 13.2259 13.5167 14.1327 12.8709C13.6868 12.8749 13.2392 12.8749 12.7891 12.8709H12.7883ZM0.0305592 14.4048C0.0305592 16.7545 0.0372269 19.1034 0.0372269 21.4531C0.0430611 21.7132 0.0122231 21.9902 0.16808 22.2197C0.393114 22.5579 0.76817 22.8534 1.21157 22.8115C6.2565 22.818 11.3006 22.818 16.3514 22.8115C16.9764 22.8292 17.5082 22.268 17.5199 21.6761C17.5074 19.2363 17.5199 16.7908 17.5199 14.3445C17.4115 14.2076 17.3057 14.0666 17.2006 13.9217C16.8814 13.8798 16.5756 13.9821 16.313 14.1512C14.1377 15.5467 11.9624 16.9534 9.7937 18.3545C9.45615 18.5719 9.10609 18.7837 8.74354 18.9528C6.78658 17.7933 4.91129 16.513 2.99267 15.2987C2.28006 14.8638 1.61747 14.3622 0.873186 13.9757C0.54147 13.776 0.0605637 14.036 0.0297257 14.404H0.0305592V14.4048ZM10.0821 20.2807C9.77536 20.4498 9.48198 20.6672 9.11943 20.7219C8.61352 20.8121 8.08177 20.668 7.65087 20.4079C5.96312 19.3868 4.2687 18.3666 2.57511 17.3576C2.41258 17.261 2.24339 17.1402 2.03753 17.1885C2.01252 18.427 2.03086 19.659 2.01836 20.891C2.26256 20.9571 2.50593 20.9997 2.75597 20.9933C6.98827 20.9868 11.2256 20.9997 15.4579 20.9691C15.5704 20.2863 15.5329 19.5922 15.5396 18.9037C15.5329 18.3054 15.5771 17.7023 15.452 17.1161C13.6201 18.1009 11.8832 19.2419 10.0829 20.2807H10.0821Z" fill="#023184"/>
<path fill-rule="evenodd" clip-rule="evenodd" d="M20.801 12.0129C21.5761 12.0129 22.3512 12.0064 23.1263 12.0064C24.1265 14.6758 25.1333 17.3508 25.9892 20.0628C26.2451 18.9339 26.696 17.8581 27.0952 16.771C27.6953 15.1831 28.3079 13.5944 28.9147 12.0064C29.684 12.0129 30.4524 12.0129 31.215 12C31.4401 14.8924 31.5967 17.7856 31.7959 20.6724C31.8643 21.5235 31.9085 22.3811 31.9335 23.233H29.9332C29.8582 21.4752 29.7456 19.7182 29.6515 17.9668C29.6081 17.0674 29.6198 16.1671 29.4764 15.2789C29.2639 16.1607 28.933 17.0118 28.6138 17.8694C27.9454 19.6385 27.2761 21.4084 26.6077 23.1783C26.1134 23.1718 25.62 23.1598 25.1199 23.1904C24.3515 21.1732 23.6639 19.132 22.9379 17.0963C22.7437 16.5649 22.6004 16.0213 22.4687 15.4722C22.2687 18.057 22.1503 20.6418 21.9686 23.2266C21.3127 23.233 20.6559 23.233 20 23.2202C20.2834 19.4839 20.5501 15.7476 20.8001 12.0113L20.801 12.0129ZM62.2255 12.0072H64.2258C64.2258 13.3182 64.2325 14.6283 64.2325 15.9384C65.4702 14.7612 67.6705 14.7491 68.9332 15.9078C69.8583 16.7895 70.2209 18.094 70.1642 19.3204C70.1517 20.6007 69.6458 21.96 68.539 22.7266C67.2204 23.7049 65.1443 23.6445 63.9825 22.4608C63.9741 22.7185 63.9658 22.9762 63.9575 23.2338C63.3449 23.2338 62.7389 23.2218 62.1322 23.2274C62.2322 22.4302 62.2322 21.6266 62.2322 20.8238C62.2389 17.8887 62.2322 14.9472 62.2255 12.0064V12.0072ZM65.651 16.7477C65.0009 16.953 64.4884 17.4845 64.3008 18.1182C64.1633 18.7398 64.2383 19.3744 64.2258 20.0024C64.2133 20.9446 65.1193 21.7836 66.0886 21.7482C66.8512 21.8142 67.5513 21.3134 67.8572 20.6676C68.339 19.5563 68.2881 18.1311 67.4446 17.1954C66.9879 16.7541 66.2761 16.5496 65.651 16.7485V16.7477ZM88.2669 12.0193C88.9354 12.0129 89.6047 12.0016 90.2731 12.0072C90.2664 14.0364 90.2298 16.0721 90.3039 18.1013C91.1541 17.1165 91.9975 16.126 92.9043 15.196C93.7103 15.2379 94.5229 15.196 95.3297 15.2024C94.242 16.3378 93.1477 17.4676 92.0417 18.5901C93.2419 20.1305 94.4487 21.6757 95.6422 23.2282C94.8238 23.2282 93.9986 23.2218 93.1794 23.2218C92.4417 22.1653 91.6416 21.1499 90.8982 20.0991C90.8357 19.9968 90.7356 19.9243 90.6298 19.8631C90.4673 20.0508 90.2422 20.244 90.2673 20.5154C90.2631 21.4172 90.2631 22.3215 90.2673 23.2274H88.2794C88.2794 19.4887 88.292 15.7508 88.2669 12.0185V12.0193ZM42.3725 13.9398C43.016 13.7224 43.6727 13.5171 44.3353 13.3415C44.3353 13.9575 44.3353 14.58 44.3287 15.1952C44.9288 15.2193 45.5288 15.1887 46.1223 15.2137C46.229 15.2016 46.304 15.2797 46.3848 15.3345C46.3848 15.8233 46.3915 16.3128 46.3848 16.8024C45.7014 16.8105 45.0163 16.8121 44.3287 16.8081C44.3287 17.8468 44.3303 18.884 44.3345 19.9187C44.3412 20.3656 44.3037 20.8246 44.4345 21.2594C44.4904 21.4285 44.5912 21.6153 44.7779 21.6636C45.2405 21.8086 45.728 21.6757 46.1714 21.5372C46.259 22.0743 46.2715 22.6178 46.2898 23.1557C45.5205 23.3917 44.677 23.5302 43.8961 23.2886C43.4027 23.1437 42.9585 22.8232 42.7276 22.3763C42.4709 21.869 42.3959 21.3013 42.3775 20.7457V16.8081C41.9775 16.8081 41.5799 16.8081 41.184 16.8081C41.1907 16.2766 41.1965 15.7395 41.1907 15.2073C41.5849 15.2008 41.9783 15.2073 42.3717 15.2008C42.3717 14.7845 42.365 14.3618 42.3717 13.939L42.3725 13.9398ZM34.0655 16.3918C35.2465 14.9005 37.7285 14.5558 39.2604 15.746C40.4164 16.7243 40.6856 18.3549 40.4539 19.7625H35.0781C35.1598 20.5355 35.6224 21.327 36.4033 21.5984C37.5093 21.9189 38.7095 21.7248 39.7596 21.3085C39.8905 21.8279 40.053 22.3296 40.1155 22.861C38.7778 23.3562 37.2843 23.5616 35.8774 23.2298C34.6464 22.9214 33.6337 21.9551 33.3087 20.7658C32.9086 19.2979 33.0961 17.6254 34.0655 16.3934V16.3918ZM35.509 17.3218C35.334 17.5932 35.2215 17.9016 35.0964 18.1979C36.2633 18.206 37.4285 18.206 38.5903 18.1979C38.522 17.908 38.4594 17.6117 38.3153 17.3403C38.0902 16.8813 37.5651 16.585 37.0467 16.5729C36.4466 16.5367 35.8216 16.8145 35.509 17.3218ZM49.6928 16.035C50.3054 15.2797 51.3739 14.8513 52.349 15.1291C52.3365 15.7331 52.3424 16.3314 52.349 16.9345C51.9181 16.928 51.4739 16.8556 51.0555 16.9707C50.5371 17.1583 50.1745 17.6165 50.0179 18.1182C49.8995 18.4564 49.912 18.8187 49.912 19.169C49.912 20.5218 49.912 21.8746 49.912 23.2274H47.8992C47.8742 20.5524 47.9934 17.8766 47.8559 15.2016C48.456 15.2081 49.0627 15.2016 49.6628 15.2081C49.6711 15.4818 49.6811 15.7572 49.6936 16.035H49.6928ZM56.2688 15.1114C57.3381 14.9303 58.4875 15.142 59.3818 15.7516C60.2886 16.3499 60.832 17.358 60.982 18.3904C61.1004 19.417 61.007 20.4985 60.4944 21.4156C59.9569 22.3763 58.9692 23.0704 57.8757 23.3063C56.6255 23.5785 55.2253 23.3184 54.2443 22.5027C53.3134 21.712 52.8633 20.4977 52.8816 19.3204C52.8566 18.185 53.2317 17.0078 54.0751 16.1921C54.6502 15.6058 55.4445 15.2258 56.2696 15.1114H56.2688ZM56.4997 16.6816C56.0246 16.7968 55.6062 17.1044 55.3495 17.5094C54.8994 18.2035 54.8052 19.0676 54.9311 19.8647C55.0494 20.6861 55.5745 21.4953 56.4188 21.7675C57.1314 21.9849 57.9499 21.683 58.3816 21.1032C59.2192 20.004 59.2001 18.3557 58.3566 17.2622C57.9132 16.7549 57.1689 16.5133 56.5005 16.6824L56.4997 16.6816ZM71.6461 15.8297C72.778 15.2073 74.1215 14.8876 75.4159 15.1171C76.1785 15.2314 76.9094 15.6364 77.3161 16.2831C77.7845 17.0384 77.8479 17.9434 77.822 18.801C77.8412 20.2746 77.747 21.7659 77.9846 23.2282C77.3653 23.2282 76.741 23.2403 76.116 23.2347C76.0993 23.0213 76.0843 22.8079 76.0726 22.5945C75.385 23.1743 74.4599 23.5004 73.5472 23.3981C72.7596 23.3442 71.972 22.9568 71.5594 22.2925C70.8468 21.224 71.1344 19.665 72.1845 18.9049C73.2155 18.09 74.6099 18.0417 75.8667 17.9024C75.7792 17.4378 75.5917 16.8999 75.0858 16.7243C74.0915 16.4344 72.9921 16.7428 72.1854 17.3403C71.9978 16.8395 71.8228 16.3322 71.6478 15.8305L71.6461 15.8297ZM73.5022 20.0395C72.9396 20.5162 73.0838 21.5912 73.8398 21.815C74.5215 21.9535 75.315 21.6765 75.6776 21.0782C75.9651 20.5895 75.8709 19.9976 75.8526 19.4597C75.0466 19.4718 74.134 19.4782 73.5022 20.0395ZM81.2909 15.9505C82.3219 14.948 84.0913 14.737 85.3165 15.5342C86.0416 15.9867 86.4417 16.7903 86.585 17.5875C86.6725 18.0344 86.6409 18.4934 86.6534 18.946C86.66 20.3712 86.6409 21.7965 86.6725 23.2282C86.0016 23.2322 85.3332 23.2322 84.6664 23.2282C84.6731 21.9535 84.6847 20.6796 84.6731 19.3993C84.6664 18.681 84.7481 17.8895 84.3105 17.2614C83.998 16.7847 83.3354 16.6398 82.792 16.7726C82.0418 16.9594 81.4609 17.6664 81.4668 18.421C81.4601 20.0218 81.4601 21.6218 81.4668 23.2282C80.8 23.2322 80.1332 23.2322 79.4665 23.2282C79.4731 21.6999 79.479 20.1723 79.479 18.644C79.4665 17.5449 79.5098 16.4393 79.3848 15.3409C79.4223 15.3103 79.4973 15.2564 79.5348 15.2322C80.0916 15.1783 80.6475 15.2145 81.2042 15.2081C81.2334 15.4537 81.2626 15.7009 81.2917 15.9513L81.2909 15.9505Z" fill="#023184"/>
</svg>
