<svg width="24" height="24" viewBox="0 0 24 24" fill="none" xmlns="http://www.w3.org/2000/svg">
<path d="M24 12.0011C24 18.6288 18.6266 24 12.0011 24C5.37564 24 0 18.6266 0 12.0011C0 5.37564 5.3734 0 12.0011 0C18.6288 0 24 5.3734 24 12.0011Z" fill="white"/>
<path d="M17.6963 11.2406C15.7678 9.93026 13.2972 10.4633 12.0026 12.4367C10.9185 14.0829 9.28339 14.289 8.64951 14.289C6.58661 14.289 5.17326 12.8376 4.75665 11.3346C4.75217 11.319 4.74993 11.3078 4.74545 11.2921C4.74097 11.2764 4.73649 11.2585 4.73201 11.2406C4.56626 10.6134 4.52594 10.3155 4.52594 9.64804C4.52594 6.05532 8.21049 2.05719 13.5189 2.05719C18.8274 2.05719 22.0617 6.19419 22.8658 8.49452C22.8524 8.45644 22.839 8.41388 22.8255 8.37357C21.2845 3.87595 17.0176 0.641602 11.9981 0.641602C5.67947 0.641602 0.554688 5.76414 0.554688 12.085C0.554688 17.7339 4.62898 22.5697 10.2801 22.5697C14.7889 22.5697 17.8172 20.041 19.2082 16.5602C19.9697 14.6563 19.4299 12.4165 17.6985 11.2406H17.6963Z" fill="#003763"/>
<path d="M22.9347 8.71893C22.2672 6.4746 19.1315 2.05762 13.5184 2.05762C8.20995 2.05762 4.52539 6.05575 4.52539 9.64847C4.52539 10.3159 4.56571 10.6138 4.73146 11.241C4.66202 10.9677 4.62619 10.6922 4.62619 10.4257C4.62619 6.68515 8.37121 4.09364 12.2215 4.09364C17.4337 4.09364 21.658 8.318 21.658 13.5301C21.658 17.6156 19.3084 21.1501 15.8926 22.8502C20.2962 21.2599 23.4387 17.0422 23.4387 12.0899C23.4387 10.9185 23.2819 9.88366 22.9347 8.72341V8.71893Z" fill="#E4022D"/>
</svg>
