<svg width="32" height="32" viewBox="0 0 32 32" fill="none" xmlns="http://www.w3.org/2000/svg">
<g clip-path="url(#clip0_266_65933)">
<mask id="mask0_266_65933" style="mask-type:luminance" maskUnits="userSpaceOnUse" x="0" y="0" width="32" height="32">
<path d="M32 0H0V32H32V0Z" fill="white"/>
</mask>
<g mask="url(#mask0_266_65933)">
<path d="M0 16.0003C0 16.9393 0 17.0503 0.026 17.8433C0.0526726 19.8652 0.375778 21.8722 0.985 23.8003C1.50234 25.337 2.31261 26.7589 3.371 27.9873C4.64453 29.3526 6.23418 30.3839 8 30.9903C10.4768 31.7404 13.0594 32.0816 15.646 32.0003H16.354C18.939 32.081 21.5198 31.7399 23.995 30.9903C25.763 30.3835 27.3545 29.3508 28.629 27.9833C29.6869 26.7562 30.4968 25.3357 31.014 23.8003C31.6227 21.8738 31.9458 19.8685 31.973 17.8483C32 17.0503 32 16.9393 32 16.0003C32 15.0613 32 14.9503 31.974 14.1573C31.947 12.1354 31.6236 10.1284 31.014 8.20032C30.4968 6.66354 29.6865 5.24163 28.628 4.01332C27.3535 2.64677 25.7619 1.61536 23.994 1.01032C21.5194 0.259652 18.9387 -0.0815115 16.354 0.000320399H15.646C13.0593 -0.0820959 10.4766 0.259073 8 1.01032C6.23344 1.61724 4.6436 2.65 3.371 4.01732C2.31322 5.24465 1.50299 6.6651 0.985 8.20032C0.376122 10.1271 0.0530198 12.1328 0.026 14.1533C0 14.9503 0 15.0613 0 16.0003Z" fill="#1D93DC"/>
<path d="M25.0611 14.8301C25.1825 15.2082 25.2439 15.603 25.2431 16.0001C25.2431 19.2501 21.1051 21.8861 16.0011 21.8861C14.619 21.8931 13.2437 21.6908 11.9221 21.2861C12.7641 20.4711 13.7281 19.7531 16.3351 19.4511C18.9661 19.1511 25.2351 18.8411 25.0621 14.8331" fill="white"/>
<path d="M20.881 14.2076C20.881 13.6936 20.466 13.4326 19.624 13.4326C19.475 13.4326 19.303 13.4406 19.124 13.4556C19.0508 13.9682 19.0247 14.4863 19.046 15.0036V15.2616H19.28C20.354 15.2616 20.881 14.8556 20.881 14.2076Z" fill="white"/>
<path d="M10.2299 13.4005C9.98461 13.3989 9.73999 13.4258 9.50089 13.4805C9.44657 14.0119 9.42686 14.5464 9.44189 15.0805V16.2105C9.44189 16.9165 9.45689 17.3545 9.47689 17.5195C9.51489 17.7815 9.70689 17.8435 10.3329 17.8435C11.5409 17.8435 12.2189 17.0435 12.2189 15.6665C12.2189 14.2255 11.5049 13.4035 10.2289 13.4035" fill="white"/>
<path d="M23.8561 14.0915C23.8063 13.6236 23.6531 13.1727 23.4075 12.7715C23.1619 12.3702 22.8301 12.0286 22.4361 11.7715C20.4805 10.6443 18.2549 10.0708 15.9981 10.1125C10.8981 10.1125 6.75708 12.7505 6.75708 15.9975C6.75708 18.3115 8.85708 20.3145 11.9021 21.2785C12.6311 19.9255 14.4871 19.2785 17.5561 18.7185C18.3694 18.581 19.1743 18.398 19.9671 18.1705H19.8831C19.4421 18.1705 19.0341 18.1245 18.6711 18.1245H18.0811C18.2881 17.9335 18.2961 17.1875 18.2961 15.8545V15.5345C18.2961 14.1425 18.2961 13.3595 18.0811 13.1575H18.8111C19.3661 13.1575 19.8851 13.1035 20.3801 13.1035C21.2491 13.1035 21.7161 13.4595 21.7161 14.0415C21.7161 14.5975 21.2641 15.0315 20.3731 15.3035C21.4201 15.4135 21.9931 15.9035 21.9931 16.6455C21.9958 16.9575 21.8873 17.2602 21.6871 17.4995C22.3564 17.2241 22.9242 16.7485 23.3127 16.1379C23.7011 15.5272 23.8913 14.8114 23.8571 14.0885M10.3931 18.1715C9.89908 18.1715 9.47808 18.1325 9.12508 18.1325H8.62508C8.84117 17.3964 8.90413 16.6238 8.81008 15.8625V15.5425C8.9084 14.7457 8.84548 13.9374 8.62508 13.1655H9.16308C9.77408 13.1655 10.3121 13.0715 10.7991 13.0715C11.1036 13.057 11.4077 13.1093 11.6899 13.2247C11.9721 13.3402 12.2256 13.516 12.4327 13.7398C12.6398 13.9637 12.7953 14.2301 12.8885 14.5204C12.9817 14.8108 13.0102 15.1179 12.9721 15.4205C13.0116 15.7765 12.9735 16.1369 12.8604 16.4769C12.7473 16.8168 12.5618 17.1282 12.3168 17.3895C12.0718 17.6509 11.773 17.8561 11.4411 17.9909C11.1092 18.1257 10.752 18.187 10.3941 18.1705M17.4341 17.0545C17.4129 17.4023 17.4405 17.7513 17.5161 18.0915C16.7261 18.1415 16.1661 18.2255 15.8341 18.2255C15.5009 18.2677 15.1625 18.2342 14.8441 18.1274C14.5258 18.0206 14.2356 17.8433 13.9953 17.6088C13.7549 17.3742 13.5707 17.0884 13.4562 16.7727C13.3417 16.457 13.3 16.1196 13.3341 15.7855C13.3187 15.4051 13.3862 15.0259 13.5318 14.6741C13.6775 14.3224 13.8979 14.0065 14.1777 13.7484C14.4575 13.4902 14.7901 13.296 15.1524 13.1791C15.5148 13.0622 15.8982 13.0255 16.2761 13.0715C16.6638 13.0755 17.0508 13.1069 17.4341 13.1655L17.4261 14.0725C17.2521 13.8639 17.0329 13.6977 16.7851 13.5865C16.5374 13.4753 16.2675 13.4219 15.9961 13.4305C14.8331 13.4305 14.0961 14.2805 14.0961 15.6605C14.0627 15.9482 14.0933 16.2398 14.1858 16.5143C14.2782 16.7888 14.4302 17.0395 14.6309 17.2484C14.8316 17.4573 15.076 17.6192 15.3466 17.7226C15.6171 17.826 15.9072 17.8683 16.1961 17.8465C16.38 17.8493 16.5636 17.8281 16.7421 17.7835C16.7846 17.4807 16.804 17.1752 16.8001 16.8695C16.8497 16.4501 16.7862 16.025 16.6161 15.6385H17.6021C17.436 16.0912 17.3781 16.5764 17.4331 17.0555" fill="white"/>
<path d="M19.0389 16.5018C19.0246 16.8981 19.0484 17.295 19.1099 17.6868C19.1509 17.8118 19.3939 17.8868 19.8019 17.8868C19.9671 17.911 20.1356 17.8984 20.2954 17.8498C20.4551 17.8012 20.6021 17.7179 20.7258 17.6057C20.8495 17.4936 20.9469 17.3555 21.0109 17.2012C21.0749 17.047 21.1039 16.8806 21.0959 16.7138C21.0959 15.9938 20.5769 15.5508 19.5879 15.5508H19.0389V16.5018Z" fill="white"/>
</g>
</g>
<defs>
<clipPath id="clip0_266_65933">
<rect width="32" height="32" fill="white"/>
</clipPath>
</defs>
</svg>
