<svg width="40" height="40" viewBox="0 0 40 40" fill="none" xmlns="http://www.w3.org/2000/svg">
<g clip-path="url(#clip0_266_65472)">
<path d="M0 20C0 21.1695 0 21.3094 0.0300075 22.3089C0.060015 24.8276 0.470118 27.3364 1.23031 29.7452C1.88047 31.6642 2.89072 33.4433 4.21105 34.9826C5.80145 36.6917 7.79195 37.981 10.0025 38.7406C12.2831 39.5302 14.7537 39.9001 19.5549 40H20.4451C25.2463 39.9001 27.7069 39.5202 29.9975 38.7406C32.208 37.981 34.1985 36.6917 35.7889 34.9826C37.1093 33.4433 38.1295 31.6742 38.7697 29.7452C39.5299 27.3364 39.94 24.8376 39.97 22.3089C40 21.3194 40 21.1795 40 20C40 18.8206 40 18.6907 39.97 17.7012C39.94 15.1724 39.5299 12.6737 38.7697 10.2649C38.1195 8.34585 37.1093 6.56674 35.7889 5.02751C34.1985 3.31835 32.208 2.02899 29.9975 1.26937C27.7169 0.479762 25.2463 0.0999502 20.4451 0H19.5549C14.7537 0.0999502 12.2831 0.479762 10.0025 1.25937C7.79195 2.01899 5.80145 3.30835 4.21105 5.01751C2.89072 6.55674 1.88047 8.32586 1.23031 10.2549C0.470118 12.6637 0.0700175 15.1724 0.0300075 17.7012C0 18.6907 0 18.8306 0 20Z" fill="#E2071E"/>
<path d="M28.2975 15.8787L24.1155 11.6967C21.8354 9.43702 18.1544 9.43702 15.8845 11.6967L11.7025 15.8787C9.43251 18.1487 9.43251 21.8297 11.7025 24.1098L15.8845 28.2918C18.1646 30.5516 21.8456 30.5516 24.1155 28.2918L28.2975 24.1098C30.5675 21.8399 30.5675 18.1589 28.2975 15.8787ZM17.5409 26.1241H17.5102C17.1626 26.1241 16.8865 25.8276 16.8967 25.48C16.8967 25.1323 17.1933 24.8562 17.5409 24.8665C17.8885 24.8767 18.1646 25.163 18.1544 25.5106C18.1544 25.8481 17.8783 26.1241 17.5409 26.1241ZM24.9744 23.5475C24.32 24.7336 23.2567 25.6333 21.9785 26.0832C21.9785 26.0832 21.9581 26.0832 21.9479 26.0832C21.7638 26.1139 21.5798 26.1344 21.3957 26.1344C20.8743 26.1344 20.363 25.9708 19.9335 25.664C19.5859 25.4288 19.2689 25.1323 19.0133 24.7949C17.2444 22.525 17.1217 18.2714 17.1217 17.7908C16.999 16.5229 17.3773 15.255 18.1544 14.253C18.5839 13.8235 19.1564 13.5986 19.7597 13.6088H19.862C20.4653 13.5986 21.0481 13.8235 21.4775 14.253C22.2648 15.255 22.6227 16.5229 22.5102 17.801C22.5 19.7336 21.999 21.6354 21.0481 23.3123C20.8947 23.5781 20.547 23.6599 20.2914 23.5066C20.0256 23.3532 19.9438 23.0055 20.0972 22.7499C20.9765 21.2468 21.4264 19.5291 21.3957 17.7908C21.5184 16.8195 21.2628 15.8481 20.6902 15.0505C20.4755 14.8358 20.1687 14.7131 19.862 14.7233H19.7597C19.453 14.7131 19.1462 14.8256 18.9315 15.0505C18.3589 15.8481 18.1135 16.8195 18.226 17.7908C18.2567 19.3859 18.635 22.5147 19.8927 24.1303C20.0767 24.3757 20.2914 24.5802 20.547 24.754C20.7924 24.9381 21.0992 25.0403 21.4059 25.0403C21.5184 25.0403 21.6309 25.0301 21.7434 25.0096C22.7249 24.6108 23.5327 23.8951 24.0338 22.9646C24.136 22.801 24.3098 22.709 24.5041 22.709C24.6063 22.709 24.7086 22.7397 24.8006 22.7908C24.9233 22.8726 25.0153 22.9953 25.046 23.1385C25.0767 23.2816 25.046 23.435 24.9744 23.5577" fill="white"/>
</g>
<defs>
<clipPath id="clip0_266_65472">
<rect width="40" height="40" fill="white"/>
</clipPath>
</defs>
</svg>
