<svg width="24" height="24" viewBox="0 0 24 24" fill="none" xmlns="http://www.w3.org/2000/svg">
<g clip-path="url(#clip0_266_64912)">
<path d="M0 12.002C0 12.7036 0 12.7876 0.0180045 13.3873C0.036009 14.8985 0.282071 16.4038 0.738185 17.8491C1.12828 19.0005 1.73443 20.068 2.52663 20.9915C3.48087 22.0169 4.67517 22.7906 6.0015 23.2463C7.36984 23.7201 8.85221 23.942 11.7329 24.002H12.2671C15.1478 23.942 16.6242 23.7141 17.9985 23.2463C19.3248 22.7906 20.5191 22.0169 21.4734 20.9915C22.2656 20.068 22.8777 19.0065 23.2618 17.8491C23.7179 16.4038 23.964 14.9045 23.982 13.3873C24 12.7936 24 12.7096 24 12.002C24 11.2943 24 11.2164 23.982 10.6227C23.964 9.10542 23.7179 7.60617 23.2618 6.16089C22.8717 5.00946 22.2656 3.942 21.4734 3.01846C20.5191 1.99296 19.3248 1.21935 17.9985 0.763574C16.6302 0.28981 15.1478 0.0619232 12.2671 0.00195312H11.7329C8.85221 0.0619232 7.36984 0.28981 6.0015 0.757577C4.67517 1.21335 3.48087 1.98696 2.52663 3.01246C1.73443 3.936 1.12828 4.99747 0.738185 6.15489C0.282071 7.60017 0.0420105 9.10542 0.0180045 10.6227C0 11.2164 0 11.3003 0 12.002Z" fill="#E2071E"/>
<path d="M16.9785 9.52607L14.4693 7.01687C13.1012 5.66104 10.8926 5.66104 9.53068 7.01687L7.02148 9.52607C5.65951 10.888 5.65951 13.0966 7.02148 14.4647L9.53068 16.9739C10.8988 18.3298 13.1074 18.3298 14.4693 16.9739L16.9785 14.4647C18.3405 13.1028 18.3405 10.8942 16.9785 9.52607ZM10.5245 15.6733H10.5061C10.2975 15.6733 10.1319 15.4954 10.138 15.2868C10.138 15.0782 10.316 14.9126 10.5245 14.9187C10.7331 14.9248 10.8988 15.0966 10.8926 15.3052C10.8926 15.5077 10.727 15.6733 10.5245 15.6733ZM14.9847 14.1273C14.592 14.839 13.954 15.3788 13.1871 15.6488C13.1871 15.6488 13.1748 15.6488 13.1687 15.6488C13.0583 15.6672 12.9479 15.6795 12.8374 15.6795C12.5246 15.6795 12.2178 15.5813 11.9601 15.3972C11.7515 15.2561 11.5614 15.0782 11.408 14.8758C10.3466 13.5138 10.273 10.9617 10.273 10.6733C10.1994 9.91258 10.4264 9.15184 10.8926 8.55062C11.1503 8.29294 11.4939 8.15799 11.8558 8.16411H11.9172C12.2792 8.15799 12.6288 8.29294 12.8865 8.55062C13.3589 9.15184 13.5736 9.91258 13.5061 10.6794C13.5 11.839 13.1994 12.9801 12.6288 13.9862C12.5368 14.1457 12.3282 14.1948 12.1748 14.1028C12.0153 14.0107 11.9663 13.8021 12.0583 13.6488C12.5859 12.7469 12.8558 11.7163 12.8374 10.6733C12.911 10.0905 12.7577 9.50766 12.4141 9.02914C12.2853 8.90031 12.1012 8.82669 11.9172 8.83281H11.8558C11.6718 8.82669 11.4877 8.89416 11.3589 9.02914C11.0153 9.50766 10.8681 10.0905 10.9356 10.6733C10.954 11.6304 11.181 13.5077 11.9356 14.477C12.046 14.6242 12.1748 14.7469 12.3282 14.8512C12.4755 14.9617 12.6595 15.023 12.8436 15.023C12.911 15.023 12.9785 15.0169 13.046 15.0046C13.635 14.7653 14.1196 14.3359 14.4203 13.7776C14.4816 13.6794 14.5859 13.6242 14.7024 13.6242C14.7638 13.6242 14.8251 13.6426 14.8804 13.6733C14.954 13.7224 15.0092 13.796 15.0276 13.8819C15.046 13.9678 15.0276 14.0598 14.9847 14.1334" fill="white"/>
</g>
<defs>
<clipPath id="clip0_266_64912">
<rect width="24" height="24" fill="white"/>
</clipPath>
</defs>
</svg>
