<svg width="32" height="32" viewBox="0 0 32 32" fill="none" xmlns="http://www.w3.org/2000/svg">
<g clip-path="url(#clip0_266_65258)">
<path d="M0 15.996C0 16.9318 0 17.0437 0.024006 17.8435C0.048012 19.859 0.376094 21.8665 0.984246 23.7941C1.50438 25.3297 2.31258 26.7533 3.36884 27.985C4.64116 29.3527 6.23356 30.3844 8.002 30.9923C9.82646 31.6161 11.803 31.92 15.6439 32H16.3561C20.197 31.92 22.1735 31.6161 23.998 30.9923C25.7664 30.3844 27.3588 29.3527 28.6312 27.985C29.6874 26.7533 30.5036 25.3377 31.0158 23.7941C31.6239 21.8665 31.952 19.867 31.976 17.8435C32 17.0517 32 16.9398 32 15.996C32 15.0522 32 14.9483 31.976 14.1565C31.952 12.133 31.6239 10.1335 31.0158 8.20595C30.4956 6.67033 29.6874 5.24669 28.6312 4.015C27.3588 2.64734 25.7664 1.6156 23.998 1.00775C22.1735 0.375906 20.197 0.07998 16.3561 0H15.6439C11.803 0.07998 9.82646 0.383904 8.002 1.00775C6.23356 1.6156 4.64116 2.64734 3.36884 4.015C2.31258 5.24669 1.49637 6.66233 0.984246 8.20595C0.376094 10.1255 0.056014 12.133 0.024006 14.1485C0 14.9403 0 15.0522 0 15.996Z" fill="#0B3268"/>
<path fill-rule="evenodd" clip-rule="evenodd" d="M14.4954 13.8954C16.6461 13.8954 18.3908 12.16 18.4 10.0092C18.4 10.0092 18.4 10.0092 18.4 10H22V21.9908H17.4954V16.8954H14.4954V22H10V10H14.5046V13.9046L14.4954 13.8954Z" fill="white"/>
</g>
<defs>
<clipPath id="clip0_266_65258">
<rect width="32" height="32" fill="white"/>
</clipPath>
</defs>
</svg>
