<svg width="24" height="24" viewBox="0 0 24 24" fill="none" xmlns="http://www.w3.org/2000/svg">
<g clip-path="url(#clip0_266_64865)">
<path d="M0 12C0 12.7065 0 12.785 0.0168382 13.385C0.06174 14.714 0.202058 16.2393 0.735266 17.8486C1.11132 18.9869 1.81852 20.2149 2.52572 20.9888C3.42377 21.9756 4.66416 22.7831 6.00561 23.2429C7.37511 23.7139 8.85688 23.9439 11.7362 24H12.2694C15.1544 23.9383 16.6305 23.7139 18 23.2429C19.3414 22.7831 20.5763 21.9756 21.4742 20.9888C22.1816 20.2094 22.8887 18.9869 23.2648 17.8486C23.7979 16.2393 23.9439 14.7084 23.9831 13.385C24 12.7907 24 12.7065 24 12C24 11.2935 24 11.2149 23.9831 10.6149C23.9383 9.28599 23.7979 7.76074 23.2648 6.15139C22.8887 5.01309 22.1816 3.78504 21.4742 3.01121C20.5763 2.0243 19.3358 1.21682 18 0.757009C16.6305 0.285981 15.1487 0.0560747 12.2694 0H11.7362C8.85126 0.0616821 7.37511 0.285981 6.00561 0.757009C4.66416 1.21682 3.42936 2.0243 2.52572 3.01121C1.81852 3.79065 1.11132 5.01309 0.735266 6.15139C0.207671 7.76074 0.06174 9.28599 0.0168382 10.6149C0 11.2093 0 11.2935 0 12Z" fill="#009DAD"/>
<mask id="mask0_266_64865" style="mask-type:luminance" maskUnits="userSpaceOnUse" x="3" y="10" width="19" height="4">
<path d="M21.0013 10.2861H3.21558V13.929H21.0013V10.2861Z" fill="white"/>
</mask>
<g mask="url(#mask0_266_64865)">
<path d="M7.65775 10.9775C7.06866 10.9775 6.59766 11.4548 6.59766 12.0385C6.59766 12.0943 6.62071 12.1502 6.66145 12.1901C6.70216 12.2299 6.75781 12.2525 6.81618 12.2525H8.50068C8.55771 12.2525 8.61471 12.2299 8.65542 12.1901C8.69616 12.1502 8.71924 12.0957 8.71924 12.0385C8.71924 11.4535 8.24821 10.9775 7.65912 10.9775M7.07001 11.8244C7.12431 11.5838 7.38899 11.3897 7.65775 11.3884C7.92653 11.3884 8.15862 11.5758 8.24551 11.8244H7.07001Z" fill="#FDC500"/>
<path d="M8.5322 12.4182C8.44533 12.3557 8.28924 12.373 8.2268 12.4541C8.09377 12.6282 7.89018 12.7306 7.65807 12.7306C7.42595 12.7306 7.22099 12.6282 7.08931 12.4541C7.02824 12.373 6.87078 12.3544 6.78391 12.4182C6.68754 12.4887 6.66717 12.6296 6.73912 12.7253C6.94816 13.0019 7.28206 13.1827 7.65807 13.1827C8.03405 13.1827 8.36932 13.0019 8.57701 12.7253C8.64894 12.6309 8.62859 12.4887 8.5322 12.4182Z" fill="#FDC500"/>
<path d="M4.47031 10.54C4.29657 10.54 4.1554 10.6783 4.1554 10.8485C4.1554 11.0186 4.29657 11.1569 4.47031 11.1583C4.6454 11.1583 4.78522 11.02 4.78522 10.8485C4.78522 10.677 4.64405 10.54 4.47031 10.54Z" fill="white"/>
<path d="M11.306 12.0814C11.306 11.7756 11.1825 11.5004 10.9803 11.305C10.778 11.1082 10.4984 10.9925 10.1916 10.9912C10.1916 10.9912 10.1835 10.9912 10.1821 10.9912C9.82921 10.9912 9.54823 11.196 9.54961 11.2013C9.53602 11.1002 9.42472 11.0098 9.3107 11.0085C9.17632 11.0098 9.07179 11.1135 9.06909 11.2412V13.6941C9.07044 13.8244 9.17632 13.9281 9.30663 13.9294C9.44101 13.9281 9.54688 13.8244 9.54823 13.6954V12.9655C9.73963 13.1184 9.93781 13.1783 10.1726 13.1809H10.1876C10.4957 13.1809 10.7767 13.0653 10.9803 12.8685C11.1798 12.6744 11.3033 12.4018 11.306 12.0987V12.0814ZM10.1876 12.7209C9.82921 12.7169 9.55231 12.4603 9.54823 12.0867C9.55231 11.7145 9.82921 11.4566 10.1876 11.4526C10.5554 11.4579 10.8201 11.7065 10.8255 12.0867C10.8201 12.4656 10.5554 12.7143 10.1862 12.7196" fill="white"/>
<path d="M16.7773 11.2757C16.5968 11.0989 16.3443 10.9912 16.0633 10.9912C16.0633 10.9912 16.0565 10.9912 16.0552 10.9912C15.7769 10.9912 15.5244 11.0989 15.3453 11.2757C15.1647 11.4525 15.0562 11.6985 15.0562 11.9671V12.9323C15.0575 13.0626 15.1634 13.165 15.295 13.1676C15.4294 13.1663 15.5353 13.0626 15.5367 12.9336V11.9644C15.5434 11.6706 15.7416 11.4645 16.0633 11.4579C16.3823 11.4632 16.5818 11.6706 16.5873 11.9657V12.9336C16.5886 13.0639 16.6945 13.1663 16.8262 13.169C16.9606 13.1676 17.0664 13.0639 17.0678 12.9363V11.9697C17.0678 11.7012 16.9606 11.4552 16.78 11.2784" fill="white"/>
<path d="M14.3927 11.3126C14.3927 11.3126 14.3099 11.2368 14.3086 11.2381C14.1172 11.0839 13.8688 10.9922 13.5946 10.9922C13.5946 10.9922 13.5878 10.9922 13.5864 10.9922C13.2729 10.9922 12.9905 11.1145 12.791 11.3139C12.5915 11.512 12.4734 11.7873 12.4734 12.0864V12.089C12.4734 12.3882 12.5915 12.6634 12.7924 12.8628C12.9905 13.0609 13.2729 13.1832 13.5878 13.1846H13.6177C13.6177 13.1846 13.9936 13.1752 14.2312 12.9572L14.2393 12.9891C14.2651 13.0928 14.3574 13.1673 14.4701 13.1686C14.6045 13.1673 14.7103 13.0636 14.7117 12.9346V12.0757C14.709 11.7806 14.5909 11.5107 14.3941 11.3139M13.5919 12.7206C13.2186 12.7166 12.958 12.456 12.9525 12.0864C12.958 11.7168 13.2186 11.4575 13.5919 11.4535C13.9651 11.4575 14.2258 11.7181 14.2312 12.0877C14.2258 12.456 13.9665 12.7166 13.5919 12.7206Z" fill="white"/>
<path d="M3.69609 10.5305C3.69609 10.4015 3.58749 10.2979 3.45583 10.2979C3.32418 10.2979 3.2183 10.4015 3.21558 10.5292V12.9329C3.21558 13.0619 3.32418 13.1656 3.45583 13.1656C3.58749 13.1656 3.69337 13.0619 3.69609 12.9343V10.5305Z" fill="white"/>
<path d="M12.13 10.5305C12.13 10.4015 12.0215 10.2979 11.8898 10.2979C11.7581 10.2979 11.6522 10.4015 11.6495 10.5292V12.9329C11.6495 13.0619 11.7581 13.1656 11.8898 13.1656C12.0215 13.1656 12.1273 13.0619 12.13 12.9343V10.5305Z" fill="white"/>
<path d="M4.70841 11.6545C4.70841 11.5256 4.59981 11.4219 4.46816 11.4219C4.3365 11.4219 4.23062 11.5256 4.22925 11.6532V12.9335C4.22925 13.0625 4.33785 13.1662 4.46951 13.1662C4.60118 13.1662 4.70706 13.0625 4.70976 12.9349C4.70976 12.9335 4.70976 11.6545 4.70976 11.6545" fill="white"/>
<path d="M20.6486 13.1659C20.6486 13.1659 20.6609 13.1659 20.6663 13.1659C20.7939 13.1659 20.9011 13.0701 20.9106 12.9438C20.9201 12.8109 20.8265 12.7072 20.6839 12.6872C20.4559 12.6287 20.4749 12.4027 20.4749 12.3136V11.6289H20.7559C20.8916 11.6289 21.0016 11.5213 21.0016 11.3896C21.0016 11.258 20.8916 11.1503 20.7559 11.1503H20.4749V10.5254C20.4749 10.3925 20.365 10.2861 20.2292 10.2861C20.0935 10.2861 19.9835 10.3938 19.9835 10.5254V11.1476H19.8532C19.7175 11.1476 19.6089 11.2553 19.6089 11.387C19.6089 11.5186 19.7188 11.6263 19.8532 11.6263H19.9835V12.4679C19.9835 12.5463 20.0338 13.1632 20.6459 13.1632" fill="white"/>
<path d="M6.17048 11.1492C6.30623 11.1492 6.41481 11.2569 6.41481 11.3885C6.41481 11.5202 6.30486 11.6279 6.17048 11.6279H5.88137V12.9255C5.88137 13.0584 5.77142 13.1661 5.63704 13.1661C5.50266 13.1661 5.39136 13.0584 5.39136 12.9255V11.6279H5.26105C5.1253 11.6279 5.01672 11.5202 5.01672 11.3885C5.01672 11.2569 5.12665 11.1492 5.26105 11.1492H5.39136C5.39543 11.0814 5.38864 10.757 5.5461 10.5736C5.60717 10.5031 5.67233 10.43 5.75648 10.3848C5.8705 10.3236 5.99539 10.2983 6.13112 10.2877C6.26687 10.2784 6.38359 10.3768 6.3931 10.5097C6.40259 10.6414 6.30216 10.757 6.16641 10.7663C6.07275 10.773 5.97366 10.8408 5.93837 10.9073C5.91531 10.9511 5.88137 11.0163 5.88137 11.1492H6.17048Z" fill="white"/>
<path d="M18.4355 10.9775C17.8464 10.9775 17.3754 11.4548 17.3754 12.0385C17.3754 12.0943 17.3984 12.1502 17.4392 12.1901C17.4799 12.2299 17.5355 12.2525 17.5939 12.2525H19.2784C19.3354 12.2525 19.3924 12.2299 19.4332 12.1901C19.4739 12.1502 19.4969 12.0957 19.4969 12.0385C19.4969 11.4535 19.0259 10.9775 18.4368 10.9775M17.8477 11.8244C17.902 11.5838 18.1667 11.3897 18.4355 11.3884C18.7042 11.3884 18.9364 11.5758 19.0232 11.8244H17.8477Z" fill="#FDC500"/>
<path d="M19.3099 12.4182C19.223 12.3557 19.067 12.373 19.0045 12.4541C18.8715 12.6282 18.6679 12.7306 18.4358 12.7306C18.2037 12.7306 17.9987 12.6282 17.867 12.4541C17.8059 12.373 17.6485 12.3544 17.5616 12.4182C17.4653 12.4887 17.4449 12.6296 17.5168 12.7253C17.7259 13.0019 18.0598 13.1827 18.4358 13.1827C18.8118 13.1827 19.147 13.0019 19.3547 12.7253C19.4267 12.6309 19.4063 12.4887 19.3099 12.4182Z" fill="#FDC500"/>
</g>
</g>
<defs>
<clipPath id="clip0_266_64865">
<rect width="24" height="24" fill="white"/>
</clipPath>
</defs>
</svg>
