<svg width="32" height="32" viewBox="0 0 32 32" fill="none" xmlns="http://www.w3.org/2000/svg">
<g clip-path="url(#clip0_266_65017)">
<path d="M0 16.004C0 16.9398 0 17.0517 0.024006 17.8515C0.048012 19.867 0.376094 21.8745 0.984246 23.802C1.50438 25.3377 2.31258 26.7613 3.36884 27.985C4.64116 29.3527 6.23356 30.3844 8.002 30.9923C9.82646 31.6241 11.803 31.92 15.6439 32H16.3561C20.197 31.92 22.1735 31.6161 23.998 30.9923C25.7664 30.3844 27.3588 29.3527 28.6312 27.985C29.6874 26.7533 30.5036 25.3377 31.0158 23.802C31.6239 21.8745 31.952 19.875 31.976 17.8515C32 17.0597 32 16.9478 32 16.004C32 15.0602 32 14.9563 31.976 14.1645C31.952 12.149 31.6239 10.1415 31.0158 8.21395C30.4956 6.67833 29.6874 5.25469 28.6312 4.02299C27.3588 2.65534 25.7664 1.62359 23.998 1.01575C22.1735 0.383904 20.197 0.07998 16.3561 0H15.6439C11.803 0.07998 9.82646 0.383904 8.002 1.00775C6.23356 1.6156 4.64116 2.64734 3.36884 4.015C2.31258 5.24669 1.49637 6.66233 0.984246 8.20595C0.376094 10.1415 0.056014 12.141 0.024006 14.1645C0 14.9563 0 15.0682 0 16.004Z" fill="#E72511"/>
<path d="M26.2761 18.1715H21.8V12.5811H20.2952V19.3715H27.1428L26.2761 18.1715Z" fill="white"/>
<path d="M9.8 12.5713C9.7238 12.6761 4.94286 19.257 4.85715 19.3618H6.53335L7.8762 17.5141H10.0857V16.3332H8.73335L10.5524 13.8284V19.3618H12.0476V12.5713H9.8Z" fill="white"/>
<path d="M19.0857 16.1614C18.9047 15.8948 18.6667 15.6757 18.3809 15.5328C18.7143 15.2281 18.8857 14.7995 18.8667 14.3519C18.8857 13.8567 18.6762 13.3805 18.3047 13.0662C17.8857 12.7328 17.3619 12.5614 16.8285 12.59H13.219V19.3805H16.9714C17.6095 19.409 18.2381 19.209 18.7333 18.8186C19.1714 18.4376 19.419 17.8852 19.4 17.3043C19.4 16.9043 19.2952 16.5138 19.0762 16.1805M14.7047 13.79H16.5333C16.7619 13.7805 16.9809 13.8471 17.1619 13.9805C17.4381 14.2567 17.4476 14.7138 17.1714 14.9995C17.0095 15.1328 16.8 15.1995 16.5905 15.19H14.7047V13.79ZM17.5714 17.9424C17.3333 18.1138 17.0476 18.1995 16.7524 18.19H14.7047V16.3805H16.7143C17.019 16.3614 17.3143 16.4567 17.5619 16.6376C17.7619 16.7995 17.8667 17.0471 17.8571 17.3043C17.8667 17.5519 17.7619 17.79 17.5714 17.9519" fill="white"/>
</g>
<defs>
<clipPath id="clip0_266_65017">
<rect width="32" height="32" fill="white"/>
</clipPath>
</defs>
</svg>
