<svg width="24" height="24" viewBox="0 0 24 24" fill="none" xmlns="http://www.w3.org/2000/svg">
<g clip-path="url(#clip0_266_64782)">
<path d="M0 12C0 12.7065 0 12.785 0.0168382 13.385C0.06174 14.714 0.202058 16.2393 0.735266 17.8486C1.11132 18.9869 1.81852 20.2149 2.52572 20.9888C3.42377 21.9756 4.66416 22.7831 6.00561 23.2429C7.37511 23.7139 8.85688 23.9439 11.7362 24H12.2694C15.1544 23.9383 16.6305 23.7139 18 23.2429C19.3414 22.7831 20.5763 21.9756 21.4742 20.9888C22.1816 20.2094 22.8887 18.9869 23.2648 17.8486C23.7979 16.2393 23.9439 14.7084 23.9831 13.385C24 12.7907 24 12.7065 24 12C24 11.2935 24 11.2149 23.9831 10.6149C23.9383 9.28599 23.7979 7.76074 23.2648 6.15139C22.8887 5.01309 22.1816 3.78504 21.4742 3.01121C20.5763 2.0243 19.3358 1.21682 18 0.757009C16.6305 0.285981 15.1487 0.0560747 12.2694 0H11.7362C8.85126 0.0616821 7.37511 0.285981 6.00561 0.757009C4.66416 1.21682 3.42936 2.0243 2.52572 3.01121C1.81852 3.79065 1.11132 5.01309 0.735266 6.15139C0.207671 7.76074 0.06174 9.28599 0.0168382 10.6149C0 11.2093 0 11.2935 0 12Z" fill="#1585B4"/>
<path d="M7.44955 4.11052C7.219 4.21618 7.01183 4.36678 6.84023 4.55353C6.66863 4.74026 6.53601 4.95939 6.45019 5.19804L3.26269 14.2434C3.17931 14.4774 3.14597 14.7263 3.16476 14.974C3.18355 15.2217 3.2541 15.4628 3.3718 15.6815C3.61652 16.1351 4.0306 16.4736 4.5238 16.6232L14.9743 19.937C15.4768 20.0962 16.0209 20.0592 16.4972 19.8335C16.7277 19.7281 16.9348 19.5775 17.1063 19.3907C17.2777 19.2039 17.41 18.9848 17.4954 18.746L20.6829 9.70179C20.7624 9.46271 20.7926 9.21 20.7717 8.95892C20.7508 8.70787 20.6793 8.46365 20.5615 8.24098C20.4436 8.0183 20.2819 7.8218 20.086 7.66335C19.8901 7.50489 19.6642 7.38778 19.4218 7.31904L8.9713 4.00629C8.46906 3.84759 7.92542 3.8844 7.44919 4.1094" fill="white"/>
<path d="M12.5575 12.7992C11.9748 13.4152 11.2573 13.8877 10.4612 14.1796L9.9891 14.3529V10.1604L10.4552 10.331C11.2521 10.6209 11.9709 11.0916 12.5552 11.7061C12.9721 11.0759 13.2177 10.348 13.2677 9.59411C13.3111 8.61853 13.0396 7.65486 12.4932 6.84546C11.9469 6.03606 11.1546 5.42387 10.2336 5.09933L8.72496 4.62499C8.4046 4.51965 8.05594 4.54217 7.7518 4.68788C7.44767 4.83358 7.21161 5.09117 7.09296 5.40683L3.89646 14.4578C3.84565 14.6148 3.82714 14.7805 3.84205 14.9449C3.85697 15.1092 3.90499 15.2689 3.98323 15.4142C4.06146 15.5595 4.16828 15.6874 4.29728 15.7903C4.4263 15.8932 4.57478 15.969 4.73385 16.013L11.9878 18.3005C12.7468 17.5472 13.205 16.5429 13.2763 15.476C13.3374 14.5292 13.0848 13.5887 12.5575 12.8M8.36496 14.6101H7.64385V9.91097H8.36496V14.6101Z" fill="#008AD3"/>
<path d="M12.1378 12.253C11.7269 11.7959 11.2319 11.4223 10.6798 11.1523V13.36C11.2329 13.0889 11.7281 12.7131 12.1378 12.253Z" fill="#EC4315"/>
<path d="M19.1907 7.92522L12.5345 5.8252C13.3678 6.66331 13.8741 7.77162 13.9622 8.95019C14.0503 10.1288 13.7143 11.3 13.0148 12.2527C13.6958 13.1736 14.0364 14.3021 13.9786 15.446C13.9207 16.5898 13.468 17.6783 12.6976 18.5257L15.1988 19.3132C15.5194 19.4178 15.8679 19.3947 16.1719 19.2486C16.4758 19.1025 16.7116 18.8448 16.8301 18.5291L20.0273 9.48108C20.0778 9.32397 20.0961 9.15828 20.081 8.99397C20.0658 8.82963 20.0177 8.67003 19.9395 8.52475C19.8612 8.37946 19.7544 8.25147 19.6255 8.14844C19.4966 8.04543 19.3482 7.96951 19.1892 7.92522M17.4267 14.5946L16.5267 14.5983L14.678 12.2471L16.5552 9.89772L17.4616 9.89472L15.5806 12.2505L17.4267 14.5946Z" fill="#004593"/>
</g>
<defs>
<clipPath id="clip0_266_64782">
<rect width="24" height="24" fill="white"/>
</clipPath>
</defs>
</svg>
