<svg width="32" height="32" viewBox="0 0 32 32" fill="none" xmlns="http://www.w3.org/2000/svg">
<g clip-path="url(#clip0_266_65280)">
<path d="M0 16C0 16.9421 0 17.0467 0.0224509 17.8467C0.08232 19.6187 0.269411 21.6523 0.980354 23.7981C1.48176 25.3159 2.4247 26.9533 3.36763 27.9851C4.56503 29.3009 6.21889 30.3774 8.00749 30.9906C9.83349 31.6186 11.8092 31.9251 15.6483 32H16.3592C20.2058 31.9177 22.174 31.6186 24 30.9906C25.7886 30.3774 27.435 29.3009 28.6323 27.9851C29.5754 26.9458 30.5183 25.3159 31.0197 23.7981C31.7306 21.6523 31.9251 19.6112 31.9774 17.8467C32 17.0542 32 16.9421 32 16C32 15.0579 32 14.9533 31.9774 14.1533C31.9177 12.3813 31.7306 10.3477 31.0197 8.20186C30.5183 6.68411 29.5754 5.04671 28.6323 4.01494C27.435 2.69907 25.7811 1.62243 24 1.00935C22.174 0.381309 20.1983 0.0747663 16.3592 0H15.6483C11.8017 0.0822429 9.83349 0.381309 8.00749 1.00935C6.21889 1.62243 4.57249 2.69907 3.36763 4.01494C2.4247 5.0542 1.48176 6.68411 0.980354 8.20186C0.276894 10.3477 0.08232 12.3813 0.0224509 14.1533C0 14.9458 0 15.0579 0 16Z" fill="#009E9F"/>
<path d="M16 32C24.8365 32 32 24.8365 32 16C32 7.16346 24.8365 0 16 0C7.16346 0 0 7.16346 0 16C0 24.8365 7.16346 32 16 32Z" fill="#009E9F"/>
<mask id="mask0_266_65280" style="mask-type:luminance" maskUnits="userSpaceOnUse" x="0" y="0" width="32" height="32">
<path d="M16 32C24.8365 32 32 24.8365 32 16C32 7.16346 24.8365 0 16 0C7.16346 0 0 7.16346 0 16C0 24.8365 7.16346 32 16 32Z" fill="white"/>
</mask>
<g mask="url(#mask0_266_65280)">
<path d="M18.8301 17.5147C18.7911 17.2653 18.7194 17.0221 18.6168 16.7915C18.3245 16.1015 17.822 15.5213 17.1808 15.1335C16.6753 14.8353 16.0984 14.6798 15.5115 14.6837C14.9246 14.6875 14.3498 14.8505 13.8483 15.1552C13.38 15.4346 12.9998 15.8399 12.7508 16.325C12.6673 16.4898 12.5977 16.6612 12.5428 16.8376C12.39 17.296 12.3313 17.7806 12.3704 18.2622C12.4094 18.7439 12.5453 19.2127 12.7699 19.6405C12.9259 19.9019 13.1618 20.1063 13.4427 20.2237C13.5831 20.28 13.7347 20.3033 13.8856 20.2918C14.0364 20.2803 14.1827 20.2344 14.313 20.1575C14.4575 20.0463 14.5657 19.8946 14.6237 19.7217C14.6818 19.5488 14.6871 19.3625 14.639 19.1867C14.5254 18.7401 14.5364 18.271 14.6707 17.8302C14.7216 17.6857 14.8038 17.5542 14.9114 17.4451C15.0189 17.3467 15.1468 17.2733 15.2859 17.2299C15.4251 17.1866 15.5721 17.1745 15.7164 17.1945C15.8855 17.2308 16.0436 17.3066 16.1778 17.4156C16.3121 17.5247 16.4186 17.6639 16.4889 17.822C16.6258 18.1391 16.6968 18.4809 16.6977 18.8263C16.7026 20.3471 16.4764 21.8597 16.0267 23.3125C15.9867 23.4617 15.9458 23.608 15.904 23.7563C15.8722 23.8695 15.8135 24.0175 15.8857 24.1254C15.9186 24.1712 15.9639 24.2067 16.0162 24.2277C16.1179 24.2568 16.226 24.2534 16.3257 24.2181C16.4253 24.1827 16.5114 24.1172 16.572 24.0305C17.4232 23.1229 18.0508 22.0292 18.4049 20.8364C18.5524 20.3991 18.6701 19.9523 18.757 19.4991C18.893 18.8467 18.9157 18.1757 18.824 17.5156" fill="white"/>
<path d="M25.1422 10.5955C25.14 10.5453 25.1278 10.4962 25.1065 10.4508C25.0852 10.4054 25.0551 10.3647 25.0179 10.331C24.9808 10.2973 24.9374 10.2713 24.8901 10.2544C24.8429 10.2376 24.7928 10.2303 24.7427 10.2329H24.7275C24.5116 10.2636 24.3021 10.3293 24.1073 10.4275C20.1546 11.8364 15.9126 12.2358 11.7664 11.5894C11.0675 11.4871 10.359 11.347 9.6558 11.2386C9.21628 11.1707 8.78157 11.0707 8.33771 11.0389C7.93905 10.9605 7.52554 11.0384 7.18274 11.2565C7.00742 11.4484 6.89854 11.6917 6.8722 11.9503C6.84585 12.209 6.90351 12.4692 7.03654 12.6925C7.33722 13.2025 7.77123 13.6207 8.29197 13.9023C8.77457 14.2441 9.346 14.4385 9.93691 14.4619C11.4992 14.3624 13.0567 14.2117 14.6094 14.0098C17.3077 13.7912 19.9663 13.2235 22.5185 12.3209C23.3436 11.9959 24.1215 11.5619 24.8315 11.0306C24.9577 10.934 25.14 10.7782 25.14 10.5955" fill="white"/>
<path d="M14.0188 9.26949C14.0188 9.67426 14.1796 10.0624 14.4658 10.3487C14.752 10.6349 15.1402 10.7956 15.545 10.7956C15.9497 10.7956 16.3379 10.6349 16.6241 10.3487C16.9103 10.0624 17.0711 9.67426 17.0711 9.26949C17.0705 9.14443 17.0426 9.02101 16.9893 8.90786C16.8587 8.63198 16.7094 8.49749 16.7251 8.16806C16.7443 7.72246 16.1694 7.71595 15.86 7.71595C15.5164 7.70521 15.1748 7.77295 14.8613 7.91395C14.6184 8.03726 14.4121 8.22212 14.2629 8.45006C14.1117 8.68558 14.0279 8.95798 14.0205 9.23772V9.27212" fill="white"/>
</g>
</g>
<defs>
<clipPath id="clip0_266_65280">
<rect width="32" height="32" fill="white"/>
</clipPath>
</defs>
</svg>
