<svg width="40" height="40" viewBox="0 0 40 40" fill="none" xmlns="http://www.w3.org/2000/svg">
<g clip-path="url(#clip0_266_65398)">
<path d="M0 20C0 21.1776 0 21.3084 0.0280636 22.3084C0.1029 24.5234 0.336763 27.0654 1.22544 29.7476C1.8522 31.6449 3.03087 33.6916 4.20954 34.9813C5.70629 36.6261 7.77361 37.9718 10.0094 38.7382C12.2919 39.5232 14.7615 39.9064 19.5603 40H20.449C25.2573 39.8971 27.7175 39.5232 30 38.7382C32.2357 37.9718 34.2937 36.6261 35.7904 34.9813C36.9693 33.6823 38.1479 31.6449 38.7746 29.7476C39.6632 27.0654 39.9064 24.514 39.9718 22.3084C40 21.3178 40 21.1776 40 20C40 18.8224 40 18.6916 39.9718 17.6916C39.8971 15.4766 39.6632 12.9346 38.7746 10.2523C38.1479 8.35514 36.9693 6.30839 35.7904 5.01868C34.2937 3.37383 32.2264 2.02804 30 1.26168C27.7175 0.476636 25.2479 0.0934579 20.449 0H19.5603C14.7521 0.102804 12.2919 0.476636 10.0094 1.26168C7.77361 2.02804 5.71561 3.37383 4.20954 5.01868C3.03087 6.31775 1.8522 8.35514 1.22544 10.2523C0.346118 12.9346 0.1029 15.4766 0.0280636 17.6916C0 18.6823 0 18.8224 0 20Z" fill="#003CDC"/>
<path d="M10.5872 20.4738H9.46995V15.715H10.5872V17.6074H11.8933V18.5542H10.5872V20.4738ZM6.96502 23.313H9.47041V21.7451H6.96502V23.313ZM5.85645 20.7982H10.5872V24.2503H5.85634L5.85645 20.7982ZM6.47841 18.4369C6.32527 18.7884 6.07291 19.1576 5.75766 19.4916C5.43316 19.8427 5.03631 20.1494 4.63081 20.3927L3.92773 19.5726C4.43238 19.2841 4.91034 18.8872 5.27102 18.3825C5.63123 17.8868 5.85634 17.3102 5.85634 16.6613V15.9039H7.02802V16.6432C7.02802 17.2832 7.26213 17.8237 7.61284 18.2655C7.96488 18.7253 8.44202 19.0678 8.91084 19.293L8.27988 20.1493C7.41491 19.6803 6.84763 19.1219 6.47841 18.4369ZM18.0784 18.2025H16.5013V17.2109H18.0784V15.7148H19.1957V20.5191H18.0784V18.2025ZM17.6458 21.7816C17.4391 21.6013 17.1687 21.493 16.8443 21.493C16.1951 21.493 15.7447 21.9076 15.7447 22.5206C15.7447 23.1426 16.1951 23.5572 16.8443 23.5572C17.493 23.5572 17.9615 23.1426 17.9615 22.5206C17.9619 22.3824 17.9342 22.2456 17.8799 22.1185C17.8256 21.9915 17.7459 21.8768 17.6458 21.7816ZM18.4387 23.9626C18.0426 24.2961 17.4929 24.4945 16.8443 24.4945C16.1951 24.4945 15.6546 24.2961 15.2672 23.9626C14.8704 23.6111 14.6456 23.1244 14.6456 22.5206C14.6456 21.9438 14.8704 21.4569 15.2672 21.1057C15.6546 20.7541 16.1951 20.5466 16.8443 20.5466C17.493 20.5466 18.0426 20.7541 18.4387 21.1057C18.826 21.4569 19.0606 21.9438 19.0606 22.5206C19.0606 23.1245 18.826 23.6111 18.4387 23.9626ZM15.4293 19.4825C15.1136 19.1848 14.8704 18.8695 14.7263 18.5809C14.5913 18.9053 14.3484 19.2568 14.0327 19.5903C13.7082 19.9242 13.3213 20.2667 12.8882 20.5281L12.1946 19.6895C12.7442 19.3289 13.2398 18.9144 13.5736 18.4369C13.9067 17.9684 14.1141 17.4275 14.1141 16.8144V15.9038H15.303V16.7965C15.303 17.4724 15.5196 17.9952 15.8708 18.4189C16.2042 18.8515 16.682 19.1759 17.1592 19.4192L16.5286 20.2936C16.1321 20.0774 15.7447 19.7977 15.4293 19.4825ZM22.3739 19.0765C22.3739 19.4639 22.6803 19.7706 23.1755 19.7706C23.6801 19.7706 23.9778 19.4639 23.9778 19.0764C23.9778 18.6892 23.6801 18.3733 23.1755 18.3733C22.6803 18.3733 22.3739 18.6892 22.3739 19.0765ZM22.0587 15.7507H24.2665V16.688H22.0587V15.7507ZM22.6345 21.1859V20.5906C21.7792 20.4017 21.3106 19.7977 21.3106 19.0765C21.3106 18.68 21.5091 18.2927 21.8335 18.0131H20.7429V17.1208H25.5907V18.0132H24.5364C24.8607 18.3015 25.0502 18.6893 25.0502 19.0948C25.0502 19.8065 24.6176 20.3928 23.7617 20.5817V21.1317C24.5273 21.0868 25.2935 21.0324 26.0497 20.9514V15.7148H27.1587V18.5627H28.42V19.5092H27.1587V23.2767H26.0497V21.8528C24.2926 22.0507 22.4909 22.1862 20.6433 22.2402L20.5355 21.2307C21.2386 21.2307 21.9328 21.2127 22.6345 21.1859ZM34.9802 19.0226H34.2956V22.9613H33.214V15.8231H34.2956V18.076H34.9802V15.7148H36.0706V23.2677H34.9802V19.0226ZM31.9705 19.2115C32.25 19.7434 32.6554 20.1311 33.1511 20.4646L32.4842 21.321C32.1689 21.1044 31.8354 20.789 31.574 20.4646C31.2949 20.1403 31.0788 19.7977 30.9981 19.5182C30.7458 20.3115 30.2043 20.9513 29.5199 21.4921L28.8257 20.6717C29.3667 20.2032 29.7722 19.7887 30.0332 19.2478C30.2855 18.7163 30.4119 18.0671 30.4119 17.1388H29.0961V16.2015H32.8175V17.1388H31.5292C31.5292 18.0132 31.6823 18.68 31.9705 19.2115Z" fill="white"/>
</g>
<defs>
<clipPath id="clip0_266_65398">
<rect width="40" height="40" fill="white"/>
</clipPath>
</defs>
</svg>
