<svg width="32" height="32" viewBox="0 0 32 32" fill="none" xmlns="http://www.w3.org/2000/svg">
<g clip-path="url(#clip0_266_65124)">
<path d="M0 16C0 16.9421 0 17.0467 0.0224509 17.8467C0.08232 19.6187 0.269411 21.6523 0.980354 23.7981C1.48176 25.3159 2.4247 26.9533 3.36763 27.9851C4.56503 29.3009 6.21889 30.3774 8.00749 30.9906C9.83349 31.6186 11.8092 31.9251 15.6483 32H16.3592C20.2058 31.9177 22.174 31.6186 24 30.9906C25.7886 30.3774 27.435 29.3009 28.6323 27.9851C29.5754 26.9458 30.5183 25.3159 31.0197 23.7981C31.7306 21.6523 31.9251 19.6112 31.9774 17.8467C32 17.0542 32 16.9421 32 16C32 15.0579 32 14.9533 31.9774 14.1533C31.9177 12.3813 31.7306 10.3477 31.0197 8.20186C30.5183 6.68411 29.5754 5.04671 28.6323 4.01494C27.435 2.69907 25.7811 1.62243 24 1.00935C22.174 0.381309 20.1983 0.0747663 16.3592 0H15.6483C11.8017 0.0822429 9.83349 0.381309 8.00749 1.00935C6.21889 1.62243 4.57249 2.69907 3.36763 4.01494C2.4247 5.0542 1.48176 6.68411 0.980354 8.20186C0.276894 10.3477 0.08232 12.3813 0.0224509 14.1533C0 14.9458 0 15.0579 0 16Z" fill="#1D62E5"/>
<path d="M15.5889 6.86686C10.543 7.097 6.63928 11.3711 6.86662 16.4142C7.09394 21.4573 11.3681 25.3638 16.414 25.1337C21.4571 24.9036 25.3608 20.6322 25.1334 15.5863C24.9061 10.5461 20.632 6.63955 15.5889 6.86686ZM16.6581 15.7407C18.283 17.2393 19.1727 18.0447 19.1727 18.0447C22.038 20.4302 21.0585 22.6107 19.9641 23.3685C19.1306 23.9466 18.2045 24.2188 16.9921 24.2833C16.8826 24.2974 16.6834 24.2357 16.675 24.042C16.6665 23.8343 16.9696 23.7838 16.9696 23.7838C19.675 23.2506 18.8836 21.477 17.9266 20.5733C17.5253 20.1916 13.7591 16.9446 13.7591 16.9446C10.1697 13.8548 10.456 11.4413 10.456 11.4413C10.63 8.47212 13.2287 7.73686 15.196 7.90523C15.4261 7.92489 15.5552 8.0652 15.5131 8.25883C15.471 8.46652 15.1651 8.48335 15.1651 8.48335C14.5393 8.51983 13.9808 8.58437 13.5543 8.87063C11.9686 9.93706 12.4373 11.75 14.5505 13.7678C14.8171 14.0232 15.0978 14.2898 15.3868 14.562C15.3868 14.562 15.8106 14.9353 16.6553 15.7407H16.6581ZM15.4317 23.4162C15.4486 23.7052 14.7442 23.8315 13.9415 23.7529C12.9312 23.6547 11.7245 23.3348 10.6749 22.4283C9.70948 21.592 9.11174 20.4442 8.81985 19.4367C8.5224 18.4039 8.39891 17.1944 8.89002 17.2898C9.04157 17.3207 9.30257 17.983 9.586 18.4657C9.87788 18.9652 10.1192 19.2403 10.3409 19.4087C10.442 19.4844 10.7871 18.7183 11.2895 18.2833C11.5814 18.0419 11.9013 17.9605 11.9518 18.679C12.0135 19.5602 11.8564 20.607 12.1118 20.607C12.3531 20.607 12.8947 20.4274 14.0847 20.3263C14.5309 20.2871 14.7863 20.3712 14.3597 20.9746C14.1464 21.2749 13.8601 21.6987 13.1866 22.1814C14.1969 23.1299 15.4121 23.0149 15.4345 23.4162H15.4317ZM16.2287 14.2C16.153 13.9025 16.1333 13.5293 16.1951 13.0522C16.3214 12.0531 16.5908 11.5844 16.8967 10.8127C17.3092 9.77429 16.3073 9.16532 16.4729 8.78363C16.7002 8.26726 17.4187 8.92394 18.2157 8.97166C18.9033 9.01094 19.3186 8.97446 19.8546 9.04743C20.5646 9.14286 21.4178 9.3842 21.7938 9.8276C22.1418 10.2345 21.6114 10.7313 20.9716 10.4198C20.5057 10.1925 19.9163 10.3328 20.2615 10.8183C20.6769 11.2813 20.8761 11.2925 21.2971 11.4048C22.4617 11.7107 22.4842 12.8249 21.6984 13.403C20.8004 14.0597 19.8939 13.7874 19.5291 12.4993C19.3467 11.8566 18.892 11.5311 18.429 11.7135C17.9659 11.8959 18.2409 12.7407 18.5917 13.5236C19.2961 15.3197 17.5477 15.258 17.3429 15.2355C16.414 15.0391 16.2259 14.1972 16.2259 14.1972L16.2287 14.2Z" fill="white"/>
</g>
<defs>
<clipPath id="clip0_266_65124">
<rect width="32" height="32" fill="white"/>
</clipPath>
</defs>
</svg>
