<svg width="56" height="56" viewBox="0 0 56 56" fill="none" xmlns="http://www.w3.org/2000/svg">
<g clip-path="url(#clip0_266_65774)">
<path d="M0 28C0 29.6486 0 29.8318 0.0392798 31.2318C0.144026 34.3327 0.471358 37.8916 1.71522 41.6467C2.59247 44.3028 4.24223 47.1682 5.892 48.9739C7.9869 51.2765 10.8805 53.1605 14.0098 54.2335C17.2046 55.3325 20.6612 55.869 27.378 56H28.622C35.3519 55.856 38.7954 55.3325 41.9902 54.2335C45.1194 53.1605 48 51.2765 50.108 48.9739C51.758 47.1552 53.4075 44.3028 54.285 41.6467C55.5285 37.8916 55.869 34.3196 55.9605 31.2318C56 29.8449 56 29.6486 56 28C56 26.3514 56 26.1551 55.9605 24.7682C55.856 21.6673 55.5285 18.1084 54.285 14.3532C53.4075 11.6972 51.758 8.83175 50.108 7.02615C48.0131 4.72337 45.1194 2.83925 41.9902 1.76636C38.7954 0.66729 35.3388 0.130841 28.622 0H27.378C20.6481 0.143925 17.2046 0.66729 14.0098 1.76636C10.8805 2.83925 8 4.72337 5.892 7.02615C4.24223 8.84485 2.59247 11.6972 1.71522 14.3532C0.484452 18.1084 0.144026 21.6673 0.0392798 24.7682C0 26.1551 0 26.3514 0 28Z" fill="#1861A0"/>
<path d="M38.8243 17C38.4413 17 37.9261 17.1189 37.2657 17.3566C34.4523 18.334 31.9426 19.9587 29.6444 22.2834L28.0461 24.1723L28.6669 25.0572C29.7236 26.5498 30.8331 29.0726 31.3483 31.1992C31.6653 32.4144 31.7841 33.1805 31.837 34.4353C31.837 34.6466 31.8502 34.8712 31.8634 35.109C31.8634 35.3468 31.8634 35.6109 31.8634 35.9015C31.8634 37.4073 31.8898 39.1376 31.7313 39.1376H39.2734L39.6961 38.7017C39.9603 38.3186 39.9999 36.9714 39.9999 27.9895C39.9999 19.0077 39.9735 17.6736 39.6829 17.3434C39.4715 17.1189 39.2074 17 38.8111 17H38.8243Z" fill="white"/>
<path d="M17.2416 17C16.8586 17 16.5944 17.0925 16.3566 17.3038C16.0132 17.6076 16 18.202 16 27.9499C16 36.9714 16.0397 38.3186 16.3038 38.7017L16.6076 39.1376H24.0968C29.8822 39.1376 31.6257 39.0847 31.7446 38.8998C31.8239 38.7677 31.8899 37.4205 31.8767 35.9147C31.8635 33.6296 31.7711 32.8371 31.3484 31.2125C30.4238 27.6461 28.6803 24.4365 26.1574 22.0324C23.9648 19.9455 21.4552 18.2944 18.7474 17.3566C18.1002 17.1321 17.6114 17.0132 17.2284 17.0132L17.2416 17Z" fill="white"/>
<path d="M28.0462 24.1592L27.5707 24.7403C26.7253 25.7706 25.1799 29.2048 24.6648 31.1993C24.2421 32.824 24.1497 33.6165 24.1365 35.9148C24.1365 37.4206 24.0968 39.1377 24.2553 39.1377H31.7446C31.9031 39.1377 31.8899 37.4074 31.8767 35.9016C31.8635 33.6165 31.7446 32.8372 31.3483 31.1993C30.8332 29.0728 29.7237 26.5499 28.667 25.0573L28.0462 24.1724V24.1592Z" fill="#1861A0"/>
<path d="M28.0461 25.8096L27.6499 26.3247C26.963 27.2493 25.695 30.3005 25.2723 32.0705C24.9289 33.5234 24.8497 34.2235 24.8365 36.2576C24.8365 37.6049 24.81 39.1238 24.9289 39.1238H31.0577C31.1898 39.1238 31.1766 37.5916 31.1634 36.2444C31.1502 34.2102 31.0577 33.5102 30.7275 32.0572C30.3048 30.1684 29.4066 27.923 28.5349 26.6021L28.0329 25.8096H28.0461Z" fill="white"/>
</g>
<defs>
<clipPath id="clip0_266_65774">
<rect width="56" height="56" fill="white"/>
</clipPath>
</defs>
</svg>
