<svg width="40" height="40" viewBox="0 0 40 40" fill="none" xmlns="http://www.w3.org/2000/svg">
<g clip-path="url(#clip0_266_61437)">
<path d="M0 20C0 21.1776 0 21.3084 0.0374093 22.3084C0.102876 24.5234 0.346037 27.0654 1.23451 29.7476C1.86112 31.6449 3.03951 33.6916 4.21789 34.9813C5.71429 36.6261 7.78114 37.9718 10.007 38.7382C12.289 39.5232 14.758 39.9064 19.5557 40H20.4443C25.2514 39.8971 27.711 39.5232 29.993 38.7382C32.2282 37.9718 34.2857 36.6261 35.7914 34.9813C36.97 33.6823 38.1482 31.6449 38.775 29.7476C39.6632 27.0654 39.9064 24.514 39.9718 22.3084C40 21.3178 40 21.1776 40 20C40 18.8224 40 18.6916 39.9718 17.6916C39.8971 15.4766 39.6632 12.9346 38.775 10.2523C38.1482 8.35514 36.97 6.30839 35.7914 5.01868C34.2951 3.37383 32.2282 2.02804 29.993 1.26168C27.711 0.476636 25.242 0.102804 20.4443 0H19.5557C14.7486 0.102804 12.289 0.476636 10.007 1.26168C7.77179 2.02804 5.71429 3.37383 4.21789 5.01868C3.03951 6.31775 1.86112 8.35514 1.23451 10.2523C0.346037 12.9346 0.102876 15.4766 0.0374093 17.6916C0 18.6823 0 18.8224 0 20Z" fill="#898D8D"/>
<path d="M10.3728 16.7944L16.7989 10.3574H29.6429V22.5954H23.2204V16.7944H10.3728Z" fill="white"/>
<path d="M16.7832 17.4053H10.3571V29.6425H23.2048L29.6272 23.2039H16.7832V17.4053Z" fill="white"/>
</g>
<defs>
<clipPath id="clip0_266_61437">
<rect width="40" height="40" fill="white"/>
</clipPath>
</defs>
</svg>
