<svg width="40" height="40" viewBox="0 0 40 40" fill="none" xmlns="http://www.w3.org/2000/svg">
<g clip-path="url(#clip0_266_61629)">
<path d="M0 20C0 21.1776 0 21.3084 0.0280636 22.3084C0.1029 24.5234 0.336763 27.0654 1.22544 29.7476C1.8522 31.6449 3.03087 33.6916 4.20954 34.9813C5.70629 36.6261 7.77361 37.9718 10.0094 38.7382C12.2919 39.5232 14.7615 39.9064 19.5603 40H20.449C25.2573 39.8971 27.7175 39.5232 30 38.7382C32.2358 37.9718 34.2938 36.6261 35.7904 34.9813C36.9693 33.6823 38.1479 31.6449 38.7746 29.7476C39.6632 27.0654 39.9064 24.514 39.9718 22.3084C40 21.3178 40 21.1776 40 20C40 18.8224 40 18.6916 39.9718 17.6916C39.8971 15.4766 39.6632 12.9346 38.7746 10.2523C38.1479 8.35514 36.9693 6.30839 35.7904 5.01868C34.2938 3.37383 32.2264 2.02804 30 1.26168C27.7175 0.476636 25.2479 0.0934579 20.449 0H19.5603C14.7521 0.102804 12.2919 0.476636 10.0094 1.26168C7.77361 2.02804 5.71561 3.37383 4.20954 5.01868C3.03087 6.31775 1.8522 8.35514 1.22544 10.2523C0.346118 12.9346 0.1029 15.4766 0.0280636 17.6916C0 18.6823 0 18.8224 0 20Z" fill="#5A280B"/>
<path d="M19.0145 23.0248C19.2215 23.0248 19.5871 23.21 20.0869 23.7858C22.3641 26.45 25.043 28.736 28.0251 30.5597C28.3773 30.7654 28.5714 30.9187 28.5714 31.1201C28.5714 31.2604 28.5518 31.4173 28.2456 31.4173C26.7299 31.232 25.239 30.8798 23.7994 30.367C22.9812 29.9605 21.2186 28.4414 19.1186 24.5963C18.8716 24.2518 18.7042 23.8558 18.6287 23.4374C18.6223 23.3351 18.6564 23.2345 18.7234 23.1575C18.7904 23.0805 18.885 23.0334 18.9864 23.0265C18.9956 23.0245 19.0051 23.024 19.0145 23.0248Z" fill="#488AC9"/>
<path d="M25.8994 11.127C25.8994 11.127 26.4353 12.2483 21.2156 13.0285C21.7845 11.3185 22.1588 10.1936 22.1588 10.1936C22.2776 9.91632 22.2866 9.60375 22.1841 9.31997C22.0816 9.03622 21.8753 8.80279 21.6076 8.66768C21.4822 8.60947 21.3468 8.57668 21.2089 8.57129C20.94 8.59993 20.6859 8.70947 20.4795 8.88575C20.2732 9.06204 20.1243 9.2969 20.052 9.55972L18.5008 13.3281C17.0956 13.4402 15.6839 13.4402 14.2787 13.3281C13.3344 13.2287 13.0912 13.7835 13.0912 14.3512C13.0912 15.3396 14.735 16.3441 15.7859 16.2348C16.4455 16.1687 16.8337 16.1385 17.369 16.081L11.5994 30.0693C11.3801 30.592 11.2038 31.4284 12.1916 31.4284C13.1794 31.4284 15.4105 30.4659 15.7828 29.3558C15.9396 28.8875 17.0891 25.4316 18.3685 21.5823C19.5626 21.3445 20.7689 21.1733 21.9818 21.0695C22.5942 21.0695 22.9053 21.3624 22.9053 21.7102C22.9053 22.5133 21.0846 24.8269 17.5528 27.6754C17.1639 27.988 17.4866 28.2358 17.6844 28.2358C19.1974 27.5214 20.606 26.601 21.8709 25.5003C23.1901 24.4408 25.5069 21.6799 25.5069 19.7395C25.5069 18.9741 25.1878 18.2735 23.7388 18.2735C22.2631 18.3315 20.7914 18.4657 19.3294 18.6756C19.6723 17.6427 20.0104 16.6283 20.327 15.6806C23.0565 15.2797 24.6807 15.019 25.6465 14.8059C26.9657 14.5075 28.0215 13.7032 28.0215 12.8735C28.0307 11.106 25.8994 11.127 25.8994 11.127Z" fill="white"/>
</g>
<defs>
<clipPath id="clip0_266_61629">
<rect width="40" height="40" fill="white"/>
</clipPath>
</defs>
</svg>
