<svg width="56" height="56" viewBox="0 0 56 56" fill="none" xmlns="http://www.w3.org/2000/svg">
<g clip-path="url(#clip0_266_61895)">
<mask id="mask0_266_61895" style="mask-type:luminance" maskUnits="userSpaceOnUse" x="0" y="0" width="56" height="56">
<path d="M56 0H0V56H56V0Z" fill="white"/>
</mask>
<g mask="url(#mask0_266_61895)">
<path d="M0 28C0 29.6486 0 29.8318 0.039289 31.2318C0.14406 34.3327 0.471469 37.8916 1.71562 41.6467C2.59308 44.3028 4.24322 47.1682 5.89335 48.9739C7.98875 51.2765 10.883 53.1605 14.0131 54.2335C17.2086 55.3325 20.666 55.869 27.3845 56H28.6287C35.3601 55.856 38.8045 55.3325 42 54.2335C45.1301 53.1605 48.0112 51.2765 50.1065 48.9739C51.757 47.1552 53.407 44.3028 54.2845 41.6467C55.5285 37.8916 55.869 34.3196 55.9605 31.2318C56 29.8449 56 29.6486 56 28C56 26.3514 56 26.1682 55.9605 24.7682C55.856 21.6673 55.5285 18.1084 54.2845 14.3532C53.407 11.6972 51.757 8.83175 50.1065 7.02615C48.0112 4.72337 45.117 2.83925 42 1.76636C38.8045 0.66729 35.347 0.130841 28.6287 0H27.3845C20.653 0.143925 17.2086 0.66729 14.0131 1.76636C10.883 2.83925 8.00185 4.72337 5.89335 7.02615C4.24322 8.84485 2.59308 11.6972 1.71562 14.3532C0.484565 18.1084 0.14406 21.6673 0.039289 24.7682C0 26.1551 0 26.3514 0 28Z" fill="#0A1E5A"/>
<mask id="mask1_266_61895" style="mask-type:luminance" maskUnits="userSpaceOnUse" x="9" y="18" width="40" height="19">
<path d="M49 18.5H9V37H49V18.5Z" fill="white"/>
</mask>
<g mask="url(#mask1_266_61895)">
<path d="M32.4661 30.0318C33.5162 30.0318 34.0995 30.1804 34.1151 30.8833C34.1219 31.2693 33.8596 31.7183 33.5749 31.9384C32.9329 32.4343 32.369 32.4871 29.3561 32.4871H14.4915L17.3633 20.496H12.3968C12.0653 20.496 11.9407 20.591 11.8418 20.9851L9.11915 32.2244C8.6068 34.4584 9.7595 36.5019 12.3331 36.5019C14.9062 36.5019 16.9662 36.5019 19.1516 36.5019C20.8784 36.5019 23.1901 34.6168 24.1278 32.8753C24.1789 32.7794 24.2118 32.7177 24.2507 32.6375C24.2507 32.6375 24.2705 32.6134 24.2765 32.648C24.2765 32.6497 24.2773 32.6497 24.2773 32.6497C24.1278 33.2757 23.6057 35.4886 23.52 35.8489C23.4101 36.319 23.6551 36.4972 23.8811 36.4972C23.8811 36.4972 29.4406 36.4972 31.2167 36.4972C37.438 36.4972 39.8659 33.538 40.0792 29.9849C40.1979 27.9882 38.935 26.6966 35.3612 26.6966C35.3612 26.6966 33.5939 26.6966 32.6165 26.6966C31.6403 26.6966 30.6406 26.3756 30.6406 25.5836C30.6406 24.7899 31.7261 24.101 33.2006 24.101H39.8807C39.8807 24.101 40.4648 21.7623 40.5802 21.2731C40.7246 20.6577 40.5396 20.4795 40.0902 20.4795H31.8334C27.0376 20.4795 24.8855 23.6871 24.8855 25.9747C24.8855 28.2649 26.731 30.028 31.4912 30.028L32.4661 30.0318Z" fill="white"/>
<path d="M35.7104 18.5H49L42.1645 22.0113C42.1645 22.0113 42.4399 20.8611 42.5227 20.519C42.6085 20.1545 42.4931 19.8803 41.9782 19.7764C41.4663 19.6729 35.7104 18.5 35.7104 18.5Z" fill="#ED164B"/>
</g>
</g>
</g>
<defs>
<clipPath id="clip0_266_61895">
<rect width="56" height="56" fill="white"/>
</clipPath>
</defs>
</svg>
