<svg width="24" height="24" viewBox="0 0 24 24" fill="none" xmlns="http://www.w3.org/2000/svg">
<g clip-path="url(#clip0_266_60838)">
<path d="M0 12C0 12.7065 0 12.785 0.0168382 13.385C0.06174 14.714 0.202058 16.2393 0.735266 17.8486C1.11132 18.9869 1.81852 20.2149 2.52572 20.9888C3.42377 21.9756 4.66416 22.7831 6.00561 23.2429C7.37511 23.7139 8.85688 23.9439 11.7362 24H12.2694C15.1544 23.9383 16.6305 23.7139 18 23.2429C19.3414 22.7831 20.5763 21.9756 21.4742 20.9888C22.1816 20.2094 22.8887 18.9869 23.2648 17.8486C23.7979 16.2393 23.9439 14.7084 23.9831 13.385C24 12.7907 24 12.7065 24 12C24 11.2935 24 11.2149 23.9831 10.6149C23.9383 9.28599 23.7979 7.76074 23.2648 6.15139C22.8887 5.01309 22.1816 3.78504 21.4742 3.01121C20.5763 2.0243 19.3358 1.21682 18 0.757009C16.6305 0.285981 15.1487 0.0560747 12.2694 0H11.7362C8.85126 0.0616821 7.37511 0.285981 6.00561 0.757009C4.66416 1.21682 3.42936 2.0243 2.52572 3.01121C1.81852 3.79065 1.11132 5.01309 0.735266 6.15139C0.207671 7.76074 0.06174 9.28599 0.0168382 10.6149C0 11.2093 0 11.2935 0 12Z" fill="#FFEB00"/>
<mask id="mask0_266_60838" style="mask-type:luminance" maskUnits="userSpaceOnUse" x="3" y="9" width="18" height="6">
<path d="M21 9.32129H3V14.863H21V9.32129Z" fill="white"/>
</mask>
<g mask="url(#mask0_266_60838)">
<path fill-rule="evenodd" clip-rule="evenodd" d="M5.74956 9.32129C4.23066 9.32129 3 10.2938 3 11.4931C3 12.2638 3.51006 12.9406 4.27577 13.3266L4.01636 14.2941C4.00633 14.3242 4.01511 14.3555 4.03641 14.3768C4.05146 14.3918 4.07149 14.3993 4.09281 14.3993C4.1091 14.3993 4.12539 14.3931 4.14043 14.3818L5.25454 13.6299C5.4162 13.6524 5.58163 13.6662 5.74956 13.6662C7.26722 13.6662 8.49913 12.6937 8.49913 11.4944C8.49913 10.295 7.26722 9.32129 5.74956 9.32129Z" fill="black"/>
<path d="M10.8151 13.2964V14.6988H9.81628V9.52797H10.5206L10.6434 9.85632C10.8552 9.64452 11.1773 9.41895 11.6974 9.41895C12.6761 9.41895 13.1411 10.1508 13.1336 11.3339C13.1336 12.5721 12.4155 13.3653 11.3891 13.3653C11.1911 13.3653 11.0407 13.3516 10.8151 13.2964ZM10.8151 10.3614V12.5984C10.8702 12.6046 11.0068 12.6184 11.1372 12.6184C11.849 12.6184 12.1222 12.1196 12.1222 11.3326C12.1222 10.6421 11.938 10.2248 11.3703 10.2248C11.186 10.2248 10.9805 10.2799 10.8164 10.3614H10.8151Z" fill="black"/>
<path d="M15.309 10.9842H15.8768V10.8614C15.8768 10.4516 15.6437 10.2598 15.2401 10.2598C14.9318 10.2598 14.5358 10.3488 14.2137 10.5067L13.9405 9.83627C14.2965 9.58939 14.8429 9.41895 15.3291 9.41895C16.2866 9.41895 16.8066 9.92524 16.8066 10.8902V13.2638H16.1023L15.9996 12.9493C15.596 13.2438 15.2263 13.3666 14.8917 13.3666C14.1598 13.3666 13.7488 12.9292 13.7488 12.1898C13.7488 11.4028 14.2965 10.9855 15.3078 10.9855L15.309 10.9842ZM15.8768 12.3039V11.6196H15.4181C14.9055 11.6196 14.6448 11.8038 14.6448 12.1735C14.6448 12.4542 14.789 12.5908 15.0822 12.5908C15.3554 12.5908 15.7051 12.4542 15.8755 12.3039H15.8768Z" fill="black"/>
<path d="M19.8295 12.8792C19.4811 13.8091 19.0638 14.4871 18.4547 14.8631L17.8394 14.2954C18.1953 13.9871 18.4485 13.6863 18.6665 13.2828L17.3394 9.66473L18.3306 9.39779L19.1791 12.3328L20.02 9.38525L20.9988 9.65847L19.8295 12.8805V12.8792Z" fill="black"/>
</g>
</g>
<defs>
<clipPath id="clip0_266_60838">
<rect width="24" height="24" fill="white"/>
</clipPath>
</defs>
</svg>
