<svg width="32" height="32" viewBox="0 0 32 32" fill="none" xmlns="http://www.w3.org/2000/svg">
<g clip-path="url(#clip0_266_61392)">
<path d="M0 15.996C0 16.9318 0 17.0437 0.024006 17.8435C0.048012 19.859 0.376094 21.8665 0.984246 23.7941C1.50438 25.3297 2.31258 26.7533 3.36884 27.985C4.64116 29.3527 6.23356 30.3844 8.002 30.9923C9.82646 31.6161 11.803 31.92 15.6439 32H16.3561C20.197 31.92 22.1735 31.6161 23.998 30.9923C25.7664 30.3844 27.3588 29.3527 28.6312 27.985C29.6874 26.7533 30.5036 25.3377 31.0158 23.7941C31.6239 21.8665 31.952 19.867 31.976 17.8435C32 17.0517 32 16.9398 32 15.996C32 15.0522 32 14.9483 31.976 14.1565C31.952 12.133 31.6239 10.1335 31.0158 8.20595C30.4956 6.67033 29.6874 5.24669 28.6312 4.015C27.3588 2.64734 25.7664 1.6156 23.998 1.00775C22.1735 0.375906 20.197 0.07998 16.3561 0H15.6439C11.803 0.07998 9.82646 0.383904 8.002 1.00775C6.23356 1.6156 4.64116 2.64734 3.36884 4.015C2.31258 5.24669 1.49637 6.66233 0.984246 8.20595C0.376094 10.1255 0.056014 12.133 0.024006 14.1485C0 14.9403 0 15.0522 0 15.996Z" fill="#F4731C"/>
<path d="M13.8081 16.1919C13.5921 14.2159 15.6641 12.6319 18.4401 12.6479C21.2161 12.6639 23.6401 14.2879 23.8561 16.2639C24.0721 18.2399 22.0001 19.8239 19.2241 19.7999C16.4481 19.7759 14.0241 18.1599 13.8081 16.1839M24.3681 16.7999C24.1201 14.3439 21.3281 12.3439 18.1281 12.3119C14.9281 12.2799 12.5441 14.2479 12.8001 16.7039C13.0561 19.1599 15.8401 21.1599 19.0401 21.1919C22.2401 21.2239 24.6161 19.2559 24.3681 16.7999Z" fill="white"/>
<path d="M19.5518 21.2399C18.0798 22.8799 15.5518 23.0159 13.9118 21.5439C12.3678 19.9679 12.3998 17.4399 13.9678 15.9039C15.4398 14.2639 17.9678 14.1279 19.6078 15.5999C21.1518 17.1759 21.1198 19.6959 19.5518 21.2399ZM13.7198 15.8479C11.8878 17.6399 11.8638 20.5759 13.6558 22.4079C15.5678 24.1199 18.4958 23.9599 20.2078 22.0559C22.0398 20.2639 22.0638 17.3279 20.2718 15.4959C18.3598 13.7839 15.4318 13.9439 13.7198 15.8479Z" fill="white"/>
<path d="M13.8884 9.70397C17.1604 8.47997 20.3924 9.71997 21.1124 12.472C21.8324 15.224 19.7604 18.456 16.4884 19.68C13.2164 20.904 9.98437 19.664 9.26437 16.912C8.54437 14.16 10.6164 10.936 13.8884 9.70397ZM10.8484 10.76C7.45637 13.44 6.59237 17.336 8.92037 19.448C11.2484 21.56 15.8884 21.096 19.2804 18.416C22.6724 15.736 23.5444 11.84 21.2084 9.72797C18.8724 7.61597 14.2404 8.07197 10.8484 10.76Z" fill="white"/>
</g>
<defs>
<clipPath id="clip0_266_61392">
<rect width="32" height="32" fill="white"/>
</clipPath>
</defs>
</svg>
