<svg width="40" height="40" viewBox="0 0 40 40" fill="none" xmlns="http://www.w3.org/2000/svg">
<g clip-path="url(#clip0_266_61508)">
<path d="M0 20C0 21.1776 0 21.3084 0.0280636 22.3084C0.1029 24.5234 0.336763 27.0654 1.22544 29.7476C1.8522 31.6449 3.03087 33.6916 4.20954 34.9813C5.70629 36.6261 7.77361 37.9718 10.0094 38.7382C12.2919 39.5232 14.7615 39.9064 19.5603 40H20.449C25.2573 39.8971 27.7175 39.5232 30 38.7382C32.2358 37.9718 34.2938 36.6261 35.7904 34.9813C36.9693 33.6823 38.1479 31.6449 38.7746 29.7476C39.6632 27.0654 39.9064 24.514 39.9718 22.3084C40 21.3178 40 21.1776 40 20C40 18.8224 40 18.6916 39.9718 17.6916C39.8971 15.4766 39.6632 12.9346 38.7746 10.2523C38.1479 8.35514 36.9693 6.30839 35.7904 5.01868C34.2938 3.37383 32.2264 2.02804 30 1.26168C27.7175 0.476636 25.2479 0.0934579 20.449 0H19.5603C14.7521 0.102804 12.2919 0.476636 10.0094 1.26168C7.77361 2.02804 5.71561 3.37383 4.20954 5.01868C3.03087 6.31775 1.8522 8.35514 1.22544 10.2523C0.346118 12.9346 0.1029 15.4766 0.0280636 17.6916C0 18.6823 0 18.8224 0 20Z" fill="#1D62E5"/>
<path d="M19.486 8.58309C13.1787 8.87077 8.29904 14.2134 8.58322 20.5173C8.86736 26.8212 14.21 31.7043 20.5174 31.4166C26.8213 31.129 31.7009 25.7898 31.4167 19.4824C31.1326 13.1821 25.7899 8.29894 19.486 8.58309ZM20.8226 19.6754C22.8537 21.5487 23.9658 22.5554 23.9658 22.5554C27.5474 25.5372 26.3231 28.2629 24.955 29.2101C23.9131 29.9327 22.7555 30.273 21.24 30.3537C21.1032 30.3712 20.8542 30.2941 20.8436 30.052C20.8331 29.7924 21.212 29.7293 21.212 29.7293C24.5937 29.0628 23.6044 26.8457 22.4082 25.7161C21.9066 25.239 17.1988 21.1803 17.1988 21.1803C12.7121 17.318 13.0699 14.3011 13.0699 14.3011C13.2874 10.5897 16.5358 9.67059 18.9949 9.88105C19.2826 9.90562 19.444 10.081 19.3913 10.3231C19.3387 10.5827 18.9563 10.6037 18.9563 10.6037C18.1741 10.6493 17.476 10.73 16.9428 11.0878C14.9607 12.4208 15.5466 14.687 18.1881 17.2093C18.5214 17.5285 18.8721 17.8617 19.2335 18.202C19.2335 18.202 19.7632 18.6686 20.8191 19.6754H20.8226ZM19.2896 29.2697C19.3106 29.631 18.4301 29.7889 17.4269 29.6907C16.164 29.5679 14.6555 29.168 13.3435 28.0349C12.1368 26.9895 11.3896 25.5548 11.0248 24.2954C10.6529 23.0044 10.4986 21.4925 11.1125 21.6118C11.3019 21.6504 11.6281 22.4783 11.9824 23.0816C12.3473 23.706 12.649 24.0498 12.9261 24.2603C13.0524 24.3551 13.4839 23.3974 14.1118 22.8536C14.4766 22.5519 14.8765 22.4502 14.9397 23.3482C15.0169 24.4498 14.8204 25.7582 15.1396 25.7582C15.4413 25.7582 16.1184 25.5337 17.6058 25.4074C18.1635 25.3583 18.4828 25.4636 17.9495 26.2178C17.6829 26.5931 17.3251 27.1228 16.4832 27.7262C17.7461 28.9119 19.265 28.7681 19.2931 29.2697H19.2896ZM20.2859 17.7495C20.1911 17.3776 20.1666 16.9111 20.2438 16.3147C20.4016 15.0659 20.7384 14.4801 21.1208 13.5153C21.6364 12.2174 20.3841 11.4562 20.5911 10.9791C20.8752 10.3336 21.7733 11.1544 22.7695 11.2141C23.629 11.2632 24.1482 11.2176 24.8182 11.3088C25.7057 11.4281 26.7721 11.7298 27.2422 12.284C27.6772 12.7927 27.0142 13.4136 26.2144 13.0242C25.632 12.7401 24.8954 12.9155 25.3269 13.5223C25.846 14.1012 26.0951 14.1152 26.6213 14.2555C28.0771 14.6379 28.1052 16.0306 27.1229 16.7532C26.0004 17.5741 24.8673 17.2338 24.4113 15.6237C24.1833 14.8203 23.615 14.4134 23.0361 14.6414C22.4573 14.8694 22.8011 15.9253 23.2396 16.904C24.1201 19.1492 21.9346 19.072 21.6785 19.0439C20.5174 18.7984 20.2824 17.746 20.2824 17.746L20.2859 17.7495Z" fill="white"/>
</g>
<defs>
<clipPath id="clip0_266_61508">
<rect width="40" height="40" fill="white"/>
</clipPath>
</defs>
</svg>
