<svg width="56" height="56" viewBox="0 0 56 56" fill="none" xmlns="http://www.w3.org/2000/svg">
<g clip-path="url(#clip0_266_61926)">
<path d="M0 28C0 29.6486 0 29.8318 0.039289 31.2318C0.14406 34.3327 0.471469 37.8916 1.71562 41.6467C2.59308 44.3028 4.24322 47.1682 5.89335 48.9739C7.9888 51.2765 10.883 53.1605 14.0131 54.2335C17.2086 55.3325 20.666 55.869 27.3845 56H28.6287C35.3601 55.856 38.8045 55.3325 42 54.2335C45.1301 53.1605 48.0112 51.2765 50.1065 48.9739C51.757 47.1552 53.407 44.3028 54.2845 41.6467C55.5285 37.8916 55.869 34.3196 55.9605 31.2318C56 29.8449 56 29.6486 56 28C56 26.3514 56 26.1682 55.9605 24.7682C55.856 21.6673 55.5285 18.1084 54.2845 14.3532C53.407 11.6972 51.757 8.83175 50.1065 7.02615C48.0112 4.72337 45.117 2.83925 42 1.76636C38.8045 0.66729 35.347 0.130841 28.6287 0H27.3845C20.653 0.143925 17.2086 0.66729 14.0131 1.76636C10.883 2.83925 8.00185 4.72337 5.89335 7.02615C4.24322 8.84485 2.59308 11.6972 1.71562 14.3532C0.484565 18.1084 0.14406 21.6673 0.039289 24.7682C0 26.1551 0 26.3514 0 28Z" fill="#FFEB00"/>
<mask id="mask0_266_61926" style="mask-type:luminance" maskUnits="userSpaceOnUse" x="7" y="21" width="42" height="14">
<path d="M49 21.75H7V34.6807H49V21.75Z" fill="white"/>
</mask>
<g mask="url(#mask0_266_61926)">
<path fill-rule="evenodd" clip-rule="evenodd" d="M13.4157 21.75C9.87155 21.75 7 24.0192 7 26.8176C7 28.616 8.19015 30.1951 9.9768 31.0957L9.3715 33.3532C9.3481 33.4234 9.3686 33.4965 9.4183 33.5462C9.4534 33.5813 9.50015 33.5988 9.5499 33.5988C9.5879 33.5988 9.6259 33.5842 9.661 33.5579L12.2606 31.8034C12.6378 31.856 13.0238 31.8882 13.4157 31.8882C16.9569 31.8882 19.8313 29.619 19.8313 26.8206C19.8313 24.0221 16.9569 21.75 13.4157 21.75Z" fill="black"/>
<path d="M25.2353 31.0259V34.2981H22.9048V22.2329H24.5481L24.8347 22.9991C25.3289 22.5049 26.0804 21.9785 27.294 21.9785C29.5777 21.9785 30.6626 23.6862 30.6451 26.4467C30.6451 29.3358 28.9695 31.1868 26.5746 31.1868C26.1126 31.1868 25.7617 31.1546 25.2353 31.0259ZM25.2353 24.1775V29.3972C25.364 29.4118 25.6827 29.444 25.9868 29.444C27.6478 29.444 28.2853 28.2801 28.2853 26.4437C28.2853 24.8325 27.8554 23.8588 26.5307 23.8588C26.1009 23.8588 25.6213 23.9874 25.2383 24.1775H25.2353Z" fill="black"/>
<path d="M35.7212 25.6308H37.0459V25.3443C37.0459 24.388 36.502 23.9406 35.5604 23.9406C34.841 23.9406 33.917 24.1483 33.1655 24.5167L32.528 22.9523C33.3585 22.3762 34.6334 21.9785 35.768 21.9785C38.0021 21.9785 39.2156 23.1599 39.2156 25.4115V30.9499H37.5722L37.3324 30.2159C36.3908 30.9031 35.5282 31.1897 34.7474 31.1897C33.0397 31.1897 32.0806 30.1692 32.0806 28.4439C32.0806 26.6075 33.3585 25.6337 35.7183 25.6337L35.7212 25.6308ZM37.0459 28.71V27.1134H35.9756C34.7796 27.1134 34.1714 27.5432 34.1714 28.4059C34.1714 29.0609 34.5077 29.3796 35.1919 29.3796C35.8294 29.3796 36.6452 29.0609 37.0429 28.71H37.0459Z" fill="black"/>
<path d="M46.2688 30.0521C45.4559 32.2218 44.4821 33.8038 43.061 34.681L41.6252 33.3564C42.4557 32.637 43.0464 31.9352 43.5552 30.9936L40.4585 22.5515L42.7715 21.9287L44.7512 28.7771L46.7133 21.8994L48.9971 22.5369L46.2688 30.055V30.0521Z" fill="black"/>
</g>
</g>
<defs>
<clipPath id="clip0_266_61926">
<rect width="56" height="56" fill="white"/>
</clipPath>
</defs>
</svg>
