<svg width="32" height="32" viewBox="0 0 32 32" fill="none" xmlns="http://www.w3.org/2000/svg">
<g clip-path="url(#clip0_266_61182)">
<path d="M0 16C0 16.9421 0 17.0467 0.0224508 17.8467C0.0823196 19.6187 0.26941 21.6523 0.980352 23.7981C1.48175 25.3159 2.42469 26.9533 3.36762 27.985C4.56501 29.3008 6.21889 30.3776 7.99997 30.9906C9.82596 31.6188 11.8017 31.9251 15.6407 32H16.3517C20.1908 31.9177 22.1664 31.6188 23.9925 30.9906C25.781 30.3776 27.4274 29.3008 28.6322 27.985C29.5752 26.9458 30.5182 25.3159 31.0195 23.7981C31.7304 21.6523 31.9251 19.6112 31.9774 17.8467C32 17.0542 32 16.9421 32 16C32 15.0579 32 14.9533 31.9774 14.1533C31.9177 12.3813 31.7304 10.3477 31.0195 8.20188C30.5182 6.6841 29.5752 5.04671 28.6322 4.01496C27.4349 2.69906 25.781 1.62243 23.9925 1.00935C22.1664 0.381308 20.1908 0.0747663 16.3517 0H15.6407C11.7942 0.0822429 9.82596 0.381308 7.99997 1.00935C6.2114 1.62243 4.56501 2.69906 3.36762 4.01496C2.42469 5.0542 1.48175 6.6841 0.980352 8.20188C0.276893 10.3477 0.0823196 12.3813 0.0224508 14.1533C0 14.9458 0 15.0579 0 16Z" fill="#D4332C"/>
<path d="M16.0075 24.4508C11.3249 24.4508 7.51007 20.6386 7.51007 15.9593C7.51007 14.0158 8.15336 12.1845 9.37261 10.6671L9.4175 10.6297C10.3376 10.0541 11.2127 9.98684 11.7513 10.4428C12.1851 10.8091 12.2899 11.4519 12.0206 12.1022C11.841 12.5433 11.3324 12.8871 10.8462 13.216C10.5545 13.4178 10.2478 13.6196 10.0309 13.8364C9.36513 14.5017 9.0809 15.5482 9.3053 16.5199C9.46984 17.2151 9.85133 17.7159 10.3675 17.8878C10.4722 17.9252 10.6143 17.9551 10.6816 17.9102C10.8013 17.828 10.8088 17.4543 10.8163 17.103C10.8238 16.4526 10.8387 15.5706 11.4895 15.0249C12.2599 14.4344 13.6812 14.6811 14.3619 15.5258C14.6686 15.907 15.2071 16.931 13.6438 18.2541C13.165 18.6054 13.008 18.7698 12.7761 19.009C12.7088 19.0838 12.6265 19.166 12.5367 19.2557C11.9009 19.8911 11.7438 20.6012 12.0879 21.2964C12.6938 22.5372 14.7209 23.4865 16.3366 23.2922C18.4834 23.0305 19.1043 21.6552 19.4259 19.5173C19.568 18.5531 19.5456 17.9028 19.5232 17.3197C19.5007 16.7367 19.4783 16.191 19.6354 15.466V15.4435C20.0542 14.3148 20.7948 14.0831 21.3633 14.0906C22.7246 14.1055 24.2057 15.4734 24.5049 16.348V16.3779L24.5124 16.4078C24.273 20.9151 20.5479 24.4508 16.0374 24.4508H16.0075ZM9.61198 10.8913C8.45256 12.3489 7.83918 14.098 7.83918 15.9518C7.83918 20.4517 11.5044 24.1144 16.0075 24.1144C20.5105 24.1144 23.9065 20.7357 24.1534 16.4227C23.8616 15.6453 22.4778 14.4269 21.3333 14.4195C20.6676 14.4195 20.2113 14.7932 19.9346 15.5482C19.7924 16.2284 19.8074 16.7292 19.8298 17.3122C19.8523 17.9028 19.8822 18.5755 19.7326 19.5697C19.4035 21.7972 18.7003 23.337 16.359 23.621C14.5863 23.8378 12.447 22.8212 11.7737 21.4458C11.3698 20.6162 11.5568 19.7565 12.2899 19.024C12.3796 18.9343 12.4544 18.8521 12.5292 18.7848C12.7686 18.5381 12.9406 18.3587 13.4343 17.9924C14.3843 17.1852 14.6237 16.3854 14.1 15.735C13.539 15.0474 12.3048 14.8082 11.6914 15.2791C11.1604 15.7201 11.1529 16.49 11.1379 17.103C11.1379 17.6038 11.1304 17.9924 10.8686 18.1793C10.719 18.284 10.5171 18.2914 10.2553 18.2018C9.62693 17.985 9.16316 17.4019 8.97616 16.5946C8.72933 15.5183 9.0435 14.3447 9.7915 13.6047C10.0309 13.3655 10.345 13.1487 10.6517 12.9394C11.1005 12.633 11.5643 12.3265 11.7064 11.9752C11.9233 11.4519 11.856 10.9661 11.5344 10.6895C11.2127 10.4129 10.5395 10.3307 9.61944 10.8913H9.61198Z" fill="white"/>
<path d="M15.9476 7.55762C13.2473 7.55762 10.8462 8.81339 9.28287 10.7718C11.0856 9.65056 12.2525 10.7195 11.6915 12.0724C11.4222 12.7302 10.2927 13.1937 9.69427 13.7917C8.31044 15.1745 8.67696 17.7309 10.1057 18.2243C11.4147 18.6728 10.1805 16.2883 11.4147 15.2567C12.7312 14.2476 16.1197 16.0117 13.4044 18.3065C12.7686 18.7774 12.6714 18.9269 12.26 19.3455C10.0309 21.5655 13.6438 24.0846 16.2843 23.7632C18.6255 23.4791 19.2688 21.9393 19.5905 19.7566C19.8822 17.7608 19.4858 17.0657 19.7999 15.623C20.7948 12.8797 24.0038 15.2119 24.46 16.5424C24.4675 16.3929 24.4825 16.2434 24.4825 16.0864C24.4825 11.3848 20.6601 7.55762 15.9476 7.55762ZM21.6251 13.104C21.2286 13.6496 20.2487 13.6123 19.4334 13.0218C18.6181 12.4312 18.274 11.5118 18.6704 10.9662C19.0594 10.4205 20.0468 10.4579 20.8621 11.0484C21.6774 11.6314 22.0215 12.5508 21.6251 13.0965V13.104Z" fill="white"/>
</g>
<defs>
<clipPath id="clip0_266_61182">
<rect width="32" height="32" fill="white"/>
</clipPath>
</defs>
</svg>
