<svg width="24" height="24" viewBox="0 0 24 24" fill="none" xmlns="http://www.w3.org/2000/svg">
<g clip-path="url(#clip0_266_60821)">
<path d="M0 12C0 12.7065 0 12.785 0.0168381 13.385C0.0617397 14.714 0.202057 16.2392 0.735264 17.8486C1.11132 18.9869 1.81852 20.2149 2.52572 20.9888C3.42375 21.9756 4.66417 22.7832 5.99998 23.243C7.36947 23.7141 8.85124 23.9438 11.7306 24H12.2638C15.1431 23.9383 16.6248 23.7141 17.9943 23.243C19.3358 22.7832 20.5706 21.9756 21.4741 20.9888C22.1814 20.2093 22.8886 18.9869 23.2647 17.8486C23.7978 16.2392 23.9438 14.7084 23.9831 13.385C24 12.7907 24 12.7065 24 12C24 11.2935 24 11.2149 23.9831 10.6149C23.9383 9.28598 23.7978 7.76075 23.2647 6.15141C22.8886 5.01307 22.1814 3.78504 21.4741 3.01122C20.5762 2.0243 19.3358 1.21682 17.9943 0.75701C16.6248 0.285981 15.1431 0.0560747 12.2638 0H11.7306C8.84562 0.0616822 7.36947 0.285981 5.99998 0.75701C4.65855 1.21682 3.42375 2.0243 2.52572 3.01122C1.81852 3.79065 1.11132 5.01307 0.735264 6.15141C0.20767 7.76075 0.0617397 9.28598 0.0168381 10.6149C0 11.2093 0 11.2935 0 12Z" fill="#D4332C"/>
<path d="M12.0056 18.3378C8.49371 18.3378 5.63257 15.4787 5.63257 11.9692C5.63257 10.5116 6.11503 9.1381 7.02948 8.00005L7.06314 7.97203C7.75318 7.54035 8.40956 7.48988 8.81349 7.83186C9.13886 8.10658 9.21742 8.5887 9.01545 9.07643C8.8808 9.40721 8.49933 9.66508 8.13465 9.91176C7.91587 10.0631 7.68585 10.2145 7.52317 10.3771C7.02386 10.876 6.81069 11.6609 6.97899 12.3897C7.1024 12.9111 7.38851 13.2867 7.77562 13.4156C7.85415 13.4436 7.96074 13.4661 8.01125 13.4324C8.10101 13.3708 8.1066 13.0905 8.11222 12.827C8.11783 12.3392 8.12906 11.6777 8.61714 11.2684C9.19496 10.8256 10.2609 11.0106 10.7714 11.6441C11.0014 11.93 11.4053 12.698 10.2328 13.6903C9.8738 13.9538 9.75598 14.0771 9.58207 14.2565C9.53158 14.3126 9.46987 14.3743 9.40254 14.4415C8.92569 14.9181 8.80788 15.4506 9.06594 15.972C9.52035 16.9026 11.0407 17.6146 12.2525 17.4689C13.8626 17.2726 14.3282 16.2411 14.5694 14.6377C14.676 13.9146 14.6592 13.4268 14.6424 12.9895C14.6255 12.5523 14.6087 12.143 14.7265 11.5992V11.5824C15.0407 10.7359 15.5961 10.5621 16.0225 10.5677C17.0435 10.5789 18.1543 11.6048 18.3787 12.2607V12.2832L18.3843 12.3056C18.2048 15.6861 15.411 18.3378 12.0281 18.3378H12.0056ZM7.209 8.16823C6.33943 9.26145 5.8794 10.5733 5.8794 11.9636C5.8794 15.3385 8.62835 18.0855 12.0056 18.0855C15.3829 18.0855 17.9299 15.5515 18.115 12.3168C17.8962 11.7337 16.8584 10.8199 16 10.8144C15.5007 10.8144 15.1585 11.0947 14.9509 11.6609C14.8443 12.171 14.8556 12.5467 14.8724 12.9839C14.8892 13.4268 14.9117 13.9314 14.7995 14.677C14.5526 16.3476 14.0253 17.5025 12.2693 17.7155C10.9397 17.8781 9.33523 17.1157 8.83031 16.0841C8.52738 15.4619 8.66763 14.8171 9.21742 14.2677C9.28473 14.2005 9.34083 14.1388 9.39693 14.0883C9.57645 13.9033 9.7055 13.7688 10.0758 13.4941C10.7882 12.8886 10.9678 12.2888 10.575 11.801C10.1543 11.2853 9.22863 11.1059 8.7686 11.4591C8.37028 11.7898 8.36467 12.3673 8.35346 12.827C8.35346 13.2026 8.34785 13.4941 8.1515 13.6342C8.0393 13.7127 7.88782 13.7183 7.69147 13.6511C7.22021 13.4885 6.87238 13.0512 6.73213 12.4457C6.54701 11.6385 6.78264 10.7583 7.34364 10.2033C7.52317 10.0239 7.75878 9.8613 7.98879 9.70433C8.32541 9.47447 8.67324 9.24463 8.77983 8.98114C8.94251 8.5887 8.89203 8.2243 8.65078 8.01688C8.40956 7.80945 7.90464 7.74778 7.2146 8.16823H7.209Z" fill="white"/>
<path d="M11.9608 5.66797C9.93553 5.66797 8.13469 6.6098 6.96218 8.07862C8.3142 7.23768 9.18938 8.03936 8.76863 9.05409C8.56667 9.54742 7.71953 9.89501 7.27073 10.3435C6.23286 11.3806 6.50775 13.298 7.57928 13.668C8.56105 14.0043 7.63538 12.216 8.56105 11.4423C9.54842 10.6855 12.0898 12.0085 10.0533 13.7296C9.57647 14.0828 9.50355 14.1949 9.195 14.5089C7.52318 16.1739 10.2329 18.0632 12.2132 17.8221C13.9692 17.6091 14.4517 16.4542 14.6929 14.8172C14.9117 13.3204 14.6143 12.799 14.85 11.717C15.5961 9.65955 18.0028 11.4087 18.3451 12.4066C18.3507 12.2945 18.3619 12.1823 18.3619 12.0646C18.3619 8.53833 15.4951 5.66797 11.9608 5.66797ZM16.2188 9.82773C15.9215 10.237 15.1866 10.209 14.5751 9.76608C13.9636 9.32317 13.7055 8.63362 14.0028 8.22438C14.2946 7.81511 15.0351 7.84316 15.6466 8.28605C16.2581 8.72332 16.5162 9.41287 16.2188 9.82213V9.82773Z" fill="white"/>
</g>
<defs>
<clipPath id="clip0_266_60821">
<rect width="24" height="24" fill="white"/>
</clipPath>
</defs>
</svg>
