<svg width="24" height="24" viewBox="0 0 24 24" fill="none" xmlns="http://www.w3.org/2000/svg">
<g clip-path="url(#clip0_266_60907)">
<path d="M0 12C0 12.7065 0 12.785 0.0168382 13.385C0.06174 14.714 0.202058 16.2393 0.735266 17.8486C1.11132 18.9869 1.81852 20.2149 2.52572 20.9888C3.42377 21.9756 4.66416 22.7831 6.00561 23.2429C7.37511 23.7139 8.85688 23.9439 11.7362 24H12.2694C15.1544 23.9383 16.6305 23.7139 18 23.2429C19.3414 22.7831 20.5763 21.9756 21.4742 20.9888C22.1816 20.2094 22.8887 18.9869 23.2648 17.8486C23.7979 16.2393 23.9439 14.7084 23.9831 13.385C24 12.7907 24 12.7065 24 12C24 11.2935 24 11.2149 23.9831 10.6149C23.9383 9.28599 23.7979 7.76074 23.2648 6.15139C22.8887 5.01309 22.1816 3.78504 21.4742 3.01121C20.5763 2.0243 19.3358 1.21682 18 0.757009C16.6305 0.285981 15.1487 0.0560747 12.2694 0H11.7362C8.85126 0.0616821 7.37511 0.285981 6.00561 0.757009C4.66416 1.21682 3.42936 2.0243 2.52572 3.01121C1.81852 3.79065 1.11132 5.01309 0.735266 6.15139C0.207671 7.76074 0.06174 9.28599 0.0168382 10.6149C0 11.2093 0 11.2935 0 12Z" fill="#5A280B"/>
<path d="M11.4087 13.8151C11.5329 13.8151 11.7523 13.9263 12.0521 14.2718C13.4185 15.8703 15.0258 17.2419 16.8151 18.3361C17.0264 18.4596 17.1428 18.5515 17.1428 18.6724C17.1428 18.7565 17.1311 18.8506 16.9473 18.8506C16.038 18.7395 15.1434 18.5282 14.2796 18.2205C13.7887 17.9766 12.7312 17.0651 11.4712 14.7581C11.323 14.5513 11.2225 14.3138 11.1772 14.0627C11.1734 14.0014 11.1938 13.941 11.234 13.8948C11.2743 13.8486 11.331 13.8203 11.3918 13.8162C11.3974 13.815 11.403 13.8147 11.4087 13.8151Z" fill="#488AC9"/>
<path d="M15.5397 6.67649C15.5397 6.67649 15.8612 7.34927 12.7294 7.81742C13.0707 6.79142 13.2953 6.11644 13.2953 6.11644C13.3666 5.95009 13.372 5.76254 13.3105 5.59227C13.249 5.42202 13.1252 5.28197 12.9646 5.2009C12.8894 5.16597 12.8081 5.1463 12.7254 5.14307C12.564 5.16025 12.4115 5.22597 12.2877 5.33175C12.164 5.43752 12.0746 5.57843 12.0312 5.73612L11.1005 7.99718C10.2574 8.06442 9.41036 8.06442 8.56726 7.99718C8.00064 7.9375 7.85476 8.27037 7.85476 8.61102C7.85476 9.20408 8.84101 9.80676 9.47156 9.74117C9.86731 9.7015 10.1003 9.68337 10.4214 9.64889L6.95966 18.0419C6.82811 18.3555 6.72228 18.8574 7.31497 18.8574C7.90768 18.8574 9.24631 18.2799 9.46972 17.6138C9.56379 17.3328 10.2535 15.2593 11.0211 12.9497C11.7376 12.807 12.4614 12.7043 13.1891 12.642C13.5565 12.642 13.7432 12.8177 13.7432 13.0264C13.7432 13.5083 12.6508 14.8964 10.5317 16.6056C10.2983 16.7931 10.492 16.9417 10.6107 16.9417C11.5184 16.5131 12.3636 15.9609 13.1226 15.3004C13.9141 14.6647 15.3041 13.0083 15.3041 11.844C15.3041 11.3847 15.1127 10.9644 14.2433 10.9644C13.3579 10.9992 12.4749 11.0797 11.5976 11.2057C11.8034 10.5859 12.0062 9.97729 12.1962 9.40868C13.8339 9.16812 14.8085 9.01169 15.3879 8.88381C16.1794 8.70477 16.8129 8.2222 16.8129 7.72439C16.8184 6.66392 15.5397 6.67649 15.5397 6.67649Z" fill="white"/>
</g>
<defs>
<clipPath id="clip0_266_60907">
<rect width="24" height="24" fill="white"/>
</clipPath>
</defs>
</svg>
