<svg width="32" height="32" viewBox="0 0 32 32" fill="none" xmlns="http://www.w3.org/2000/svg">
<g clip-path="url(#clip0_266_61409)">
<path d="M0 16C0 16.9421 0 17.0467 0.0224456 17.8467C0.0823006 19.6187 0.269348 21.6523 0.980126 23.7981C1.48141 25.3159 2.42413 26.9533 3.36686 27.9851C4.56394 29.3009 6.21743 30.3774 8.0056 30.9906C9.8312 31.6186 11.8064 31.9251 15.6446 32H16.3554C20.2011 31.9177 22.1688 31.6186 23.9944 30.9906C25.7825 30.3774 27.4286 29.3009 28.6331 27.9851C29.576 26.9458 30.5186 25.3159 31.02 23.7981C31.7306 21.6523 31.9251 19.6112 31.9774 17.8467C32 17.0542 32 16.9421 32 16C32 15.0579 32 14.9458 31.9774 14.1533C31.9177 12.3813 31.7306 10.3477 31.02 8.20186C30.5186 6.68411 29.576 5.04671 28.6331 4.01494C27.4361 2.69907 25.7825 1.62243 23.9944 1.00935C22.1688 0.381309 20.1936 0.0747663 16.3554 0H15.6446C11.7989 0.0822429 9.8312 0.381309 8.0056 1.00935C6.21743 1.62243 4.57143 2.69907 3.36686 4.01494C2.42413 5.0542 1.48141 6.68411 0.980126 8.20186C0.276829 10.3477 0.0823006 12.3813 0.0224456 14.1533C0 14.9458 0 15.0579 0 16Z" fill="#00B1AD"/>
<path d="M19.3443 14.3532C20.6438 12.5284 20.1931 10.0137 18.3453 8.73031C16.4974 7.45443 13.951 7.89209 12.6514 9.71691C12.043 10.5774 11.8176 11.5418 11.9453 12.558C12.1481 14.19 11.089 15.6588 9.48901 16.0223C8.52001 16.2374 7.63364 16.7863 7.02519 17.6468C5.73319 19.4716 6.17636 21.9863 8.02424 23.2697C9.8721 24.5456 12.4186 24.1079 13.7181 22.2831C14.3265 21.4226 14.5519 20.4286 14.4242 19.442C14.2138 17.8026 15.303 16.3041 16.8805 15.9777C17.7819 15.7923 18.7359 15.2137 19.3443 14.3532Z" fill="white"/>
<path d="M25.7142 19.9612C25.7142 22.1866 23.8814 23.9966 21.6278 23.9966C19.3744 23.9966 17.5415 22.1866 17.5415 19.9612C17.5415 17.7358 19.3744 15.9258 21.6278 15.9258C23.8814 15.9258 25.7142 17.7358 25.7142 19.9612Z" fill="white"/>
</g>
<defs>
<clipPath id="clip0_266_61409">
<rect width="32" height="32" fill="white"/>
</clipPath>
</defs>
</svg>
