<svg width="56" height="56" viewBox="0 0 56 56" fill="none" xmlns="http://www.w3.org/2000/svg">
<g clip-path="url(#clip0_266_62141)">
<path d="M0 28C0 29.6486 0 29.8318 0.0392798 31.2318C0.144026 34.3327 0.471358 37.8916 1.71522 41.6468C2.59247 44.3028 4.24223 47.1682 5.892 48.9739C7.9869 51.2765 10.8805 53.1605 14.0098 54.2335C17.2046 55.3325 20.6612 55.869 27.378 56H28.622C35.3519 55.856 38.7954 55.3325 41.9902 54.2335C45.1194 53.1605 48 51.2765 50.108 48.9739C51.758 47.1552 53.4075 44.3028 54.285 41.6468C55.5285 37.8916 55.869 34.3196 55.9605 31.2318C56 29.8449 56 29.6486 56 28C56 26.3514 56 26.1551 55.9605 24.7682C55.856 21.6673 55.5285 18.1084 54.285 14.3532C53.4075 11.6972 51.758 8.83175 50.108 7.02615C48.0131 4.72337 45.1194 2.83925 41.9902 1.76636C38.7954 0.66729 35.3388 0.130841 28.622 0H27.378C20.6481 0.143925 17.2046 0.66729 14.0098 1.76636C10.8805 2.83925 8 4.72337 5.892 7.02615C4.24223 8.84485 2.59247 11.6972 1.71522 14.3532C0.484452 18.1084 0.144026 21.6673 0.0392798 24.7682C0 26.1551 0 26.3514 0 28Z" fill="#00B1AD"/>
<path d="M33.8527 25.1181C36.1268 21.9246 35.3381 17.5239 32.1043 15.278C28.8705 13.0452 24.4143 13.8112 22.1401 17.0046C21.0753 18.5105 20.681 20.1981 20.9044 21.9765C21.2593 24.8325 19.4058 27.4029 16.6059 28.0389C14.9101 28.4154 13.359 29.3761 12.2942 30.8819C10.0332 34.0754 10.8087 38.4761 14.0425 40.722C17.2763 42.9548 21.7326 42.1889 24.0067 38.9954C25.0715 37.4895 25.4659 35.75 25.2424 34.0234C24.8743 31.1545 26.7804 28.5323 29.541 27.9611C31.1184 27.6365 32.7879 26.6239 33.8527 25.1181Z" fill="white"/>
<path d="M45 34.9321C45 38.8266 41.7925 41.9941 37.8489 41.9941C33.9053 41.9941 30.6978 38.8266 30.6978 34.9321C30.6978 31.0376 33.9053 27.8701 37.8489 27.8701C41.7925 27.8701 45 31.0376 45 34.9321Z" fill="white"/>
</g>
<defs>
<clipPath id="clip0_266_62141">
<rect width="56" height="56" fill="white"/>
</clipPath>
</defs>
</svg>
