<svg width="24" height="24" viewBox="0 0 24 24" fill="none" xmlns="http://www.w3.org/2000/svg">
<g clip-path="url(#clip0_266_60792)">
<path d="M0 12C0 12.7065 0 12.785 0.0168382 13.385C0.06174 14.714 0.202058 16.2393 0.735266 17.8486C1.11132 18.9869 1.81852 20.2149 2.52572 20.9888C3.42377 21.9756 4.66416 22.7831 6.00561 23.2429C7.37511 23.7139 8.85688 23.9439 11.7362 24H12.2694C15.1544 23.9383 16.6305 23.7139 18 23.2429C19.3414 22.7831 20.5763 21.9756 21.4742 20.9888C22.1816 20.2094 22.8887 18.9869 23.2648 17.8486C23.7979 16.2393 23.9439 14.7084 23.9831 13.385C24 12.7907 24 12.7065 24 12C24 11.2935 24 11.2149 23.9831 10.6149C23.9383 9.28599 23.7979 7.76074 23.2648 6.15139C22.8887 5.01309 22.1816 3.78504 21.4742 3.01121C20.5763 2.0243 19.3358 1.21682 18 0.757009C16.6305 0.285981 15.1487 0.0560747 12.2694 0H11.7362C8.85126 0.0616821 7.37511 0.285981 6.00561 0.757009C4.66416 1.21682 3.42936 2.0243 2.52572 3.01121C1.81852 3.79065 1.11132 5.01309 0.735266 6.15139C0.207671 7.76074 0.06174 9.28599 0.0168382 10.6149C0 11.2093 0 11.2935 0 12Z" fill="#D80029"/>
<mask id="mask0_266_60792" style="mask-type:luminance" maskUnits="userSpaceOnUse" x="3" y="4" width="18" height="16">
<path d="M21 4.92871H3V19.1787H21V4.92871Z" fill="white"/>
</mask>
<g mask="url(#mask0_266_60792)">
<path d="M5.64825 15.3869C5.14761 15.1499 4.73661 14.9587 4.73661 14.5717C4.73661 14.2758 4.97025 14.0605 5.43261 14.0605C5.58465 14.0616 5.73624 14.0773 5.88525 14.1074C5.95834 14.1215 6.03246 14.1296 6.10686 14.1318C6.51036 14.1318 6.73836 13.888 6.88986 13.426L6.95286 13.2385C6.4509 13.0289 5.91283 12.9194 5.36886 12.916C4.0005 12.916 3.27861 13.8055 3.27861 14.7265C3.2652 15.1155 3.39671 15.4955 3.64761 15.793C3.95642 16.1156 4.3272 16.3725 4.73775 16.5483C5.30025 16.828 5.80986 17.0358 5.80986 17.4483C5.80986 17.8162 5.43486 18.0254 4.932 18.0254C4.4445 18.0019 3.97228 17.8477 3.56475 17.5792L3 18.6535C3.61412 19.0108 4.31464 19.1924 5.025 19.1785C6.3 19.1785 7.26861 18.4372 7.26861 17.2972C7.26861 16.1632 6.37275 15.7428 5.64675 15.3869" fill="white"/>
<path d="M10.6429 15.9162L12.9589 13.043H11.3089L9.46129 15.5228H9.43393V13.0433H8.07379V19.1303H8.15479C8.32663 19.1477 8.50016 19.1269 8.66303 19.0695C8.82591 19.0122 8.97413 18.9196 9.09713 18.7983C9.22016 18.6771 9.31491 18.5303 9.37468 18.3682C9.43444 18.2062 9.45776 18.033 9.44293 17.861V16.4633H9.47029L11.3532 19.0542H13.0842L10.6429 15.9162Z" fill="white"/>
<path d="M13.0362 6.52283C12.7197 6.57503 12.4302 6.7328 12.2148 6.97053C11.9994 7.20824 11.8709 7.51186 11.8501 7.83196C11.8501 8.53846 12.4227 8.96671 12.4242 9.89183C12.4282 10.1773 12.3577 10.4589 12.2196 10.7088C12.0814 10.9587 11.8806 11.1683 11.6367 11.3168C11.8025 11.3018 11.9843 11.2925 12.1838 11.2917C12.4137 11.2883 12.6435 11.3024 12.8712 11.3337L15.0196 8.66596C14.4795 7.84818 13.8094 7.12413 13.0358 6.52246" fill="white"/>
<path d="M14.8407 13.7266C15.1114 13.3006 15.1455 12.6219 15.1684 11.93C15.1939 11.285 15.3267 10.7998 16.1809 10.7964C16.3684 10.7964 16.5499 10.8223 16.8758 10.8211C17.7834 10.8176 18.6729 10.5665 19.4483 10.0948C18.1264 9.23222 16.5978 8.73892 15.021 8.66602C14.8984 9.01513 13.9474 11.6919 13.8754 11.9079C14.0219 12.0852 14.151 12.2762 14.2609 12.4783C14.4991 12.8721 14.6938 13.2905 14.8418 13.7262" fill="white"/>
<path d="M10.3028 11.5403C10.1941 11.5403 10.1404 11.468 10.1254 11.3412C10.1104 11.2145 9.57419 6.24122 9.49431 5.48897C9.48269 5.37909 9.45681 5.17697 9.45681 5.10497C9.45453 5.08252 9.45704 5.05987 9.46414 5.03846C9.47123 5.01705 9.48276 4.99738 9.49799 4.98073C9.51321 4.9641 9.53176 4.95086 9.55246 4.9419C9.57316 4.93292 9.59551 4.92844 9.61806 4.92872C10.7475 5.13999 11.8127 5.60959 12.7306 6.30084C12.3974 6.38685 12.1014 6.57892 11.8871 6.84802C11.6728 7.11714 11.5518 7.44868 11.5426 7.79259C11.5452 8.61084 12.1242 9.06122 12.1272 9.88209C12.1317 11.2171 10.6152 11.54 10.3013 11.5403" fill="white"/>
<path d="M14.9625 14.0819C14.9805 14.1337 15.0028 14.1839 15.0293 14.2319C15.0411 14.257 15.0599 14.2782 15.0833 14.2932C15.1067 14.3081 15.1339 14.3161 15.1616 14.3162C15.2043 14.3135 15.246 14.3023 15.2843 14.2832C15.3968 14.2304 19.884 12.1172 20.5605 11.8015C20.6588 11.7539 20.8448 11.6699 20.9059 11.6335C20.9333 11.6203 20.9565 11.5999 20.9731 11.5744C20.9897 11.549 20.999 11.5195 21 11.4891C20.9996 11.4577 20.9906 11.427 20.9741 11.4002C20.6182 10.968 20.1987 10.5924 19.7299 10.2861C18.8835 10.81 17.9108 11.0945 16.9155 11.1092C16.5878 11.1092 16.5135 11.0875 16.2893 11.0882C15.636 11.0905 15.4729 11.3732 15.4489 11.953C15.4448 12.0625 15.4429 12.2099 15.4365 12.3715C15.4595 12.977 15.2939 13.5746 14.9625 14.0819Z" fill="white"/>
</g>
</g>
<defs>
<clipPath id="clip0_266_60792">
<rect width="24" height="24" fill="white"/>
</clipPath>
</defs>
</svg>
