<svg width="56" height="56" viewBox="0 0 56 56" fill="none" xmlns="http://www.w3.org/2000/svg">
<g clip-path="url(#clip0_266_61909)">
<path d="M0 28C0 29.6486 0 29.8317 0.0392889 31.2318C0.144059 34.3327 0.471467 37.8916 1.71562 41.6467C2.59307 44.3028 4.24321 47.1682 5.89334 48.9738C7.98876 51.2764 10.8831 53.1608 14 54.2336C17.1954 55.3328 20.6529 55.869 27.3713 56H28.6154C35.3339 55.856 38.7913 55.3328 41.9868 54.2336C45.1168 53.1608 47.998 51.2764 50.1063 48.9738C51.7565 47.1551 53.4068 44.3028 54.2842 41.6467C55.5283 37.8916 55.8689 34.3196 55.9605 31.2318C56 29.8449 56 29.6486 56 28C56 26.3514 56 26.1682 55.9605 24.7682C55.8559 21.6673 55.5283 18.1084 54.2842 14.3533C53.4068 11.6972 51.7565 8.83175 50.1063 7.02618C48.0111 4.72336 45.1168 2.83925 41.9868 1.76636C38.7913 0.667289 35.3339 0.130841 28.6154 0H27.3713C20.6398 0.143925 17.1954 0.667289 14 1.76636C10.8699 2.83925 7.98876 4.72336 5.89334 7.02618C4.24321 8.84485 2.59307 11.6972 1.71562 14.3533C0.484564 18.1084 0.144059 21.6673 0.0392889 24.7682C0 26.1551 0 26.3514 0 28Z" fill="#D4332C"/>
<path d="M28.0131 42.7856C19.8186 42.7856 13.1426 36.1143 13.1426 27.9256C13.1426 24.5245 14.2683 21.3196 16.402 18.6642L16.4806 18.5988C18.0907 17.5915 19.6222 17.4738 20.5647 18.2717C21.3239 18.9127 21.5072 20.0377 21.036 21.1757C20.7218 21.9475 19.8317 22.5492 18.9808 23.1248C18.4703 23.478 17.9336 23.8312 17.554 24.2105C16.3889 25.3747 15.8915 27.2061 16.2842 28.9066C16.5722 30.1232 17.2398 30.9996 18.143 31.3005C18.3263 31.3659 18.575 31.4182 18.6928 31.3397C18.9023 31.1958 18.9153 30.5418 18.9284 29.927C18.9415 28.7889 18.9677 27.2453 20.1066 26.2904C21.4548 25.257 23.942 25.6887 25.1332 27.1669C25.6699 27.834 26.6124 29.6261 23.8765 31.9414C23.0388 32.5562 22.7639 32.844 22.3581 33.2626C22.2403 33.3934 22.0963 33.5373 21.9392 33.6943C20.8265 34.8062 20.5516 36.0489 21.1538 37.2654C22.2141 39.4369 25.7615 41.0982 28.589 40.7581C32.3459 40.3002 33.4324 37.8933 33.9953 34.1521C34.244 32.4647 34.2047 31.3266 34.1655 30.3063C34.1262 29.286 34.0869 28.3311 34.3618 27.0622V27.023C35.0949 25.0477 36.3908 24.6422 37.3857 24.6553C39.7681 24.6815 42.3599 27.0753 42.8836 28.6058V28.6581L42.8966 28.7104C42.4778 36.5983 35.9588 42.7856 28.0654 42.7856H28.0131ZM16.8209 19.0566C14.7919 21.6074 13.7185 24.6684 13.7185 27.9125C13.7185 35.7873 20.1327 42.197 28.0131 42.197C35.8934 42.197 41.8363 36.2843 42.2683 28.7366C41.7578 27.3761 39.3361 25.2439 37.3333 25.2309C36.1683 25.2309 35.3698 25.8849 34.8854 27.2061C34.6367 28.3965 34.6629 29.2729 34.7022 30.2932C34.7414 31.3266 34.7938 32.5039 34.532 34.2437C33.956 38.1419 32.7255 40.8366 28.6283 41.3336C25.5259 41.713 21.7821 39.934 20.604 37.527C19.8971 36.0751 20.2244 34.5707 21.5072 33.2888C21.6643 33.1318 21.7952 32.9879 21.9261 32.8702C22.345 32.4385 22.6461 32.1246 23.51 31.4836C25.1725 30.0708 25.5914 28.6712 24.675 27.5331C23.6933 26.3297 21.5334 25.9111 20.46 26.7352C19.5306 27.507 19.5175 28.8543 19.4913 29.927C19.4913 30.8034 19.4782 31.4836 19.0201 31.8106C18.7583 31.9938 18.4048 32.0068 17.9467 31.8499C16.8471 31.4705 16.0355 30.4502 15.7082 29.0374C15.2763 27.1538 15.8261 25.1 17.1351 23.805C17.554 23.3864 18.1037 23.0071 18.6404 22.6408C19.4259 22.1045 20.2375 21.5682 20.4862 20.9534C20.8658 20.0377 20.748 19.1874 20.1851 18.7034C19.6222 18.2194 18.4441 18.0755 16.834 19.0566H16.8209Z" fill="white"/>
<path d="M27.9084 13.2227C23.1829 13.2227 18.9809 15.4203 16.2451 18.8475C19.3998 16.8853 21.4419 18.7559 20.4601 21.1236C19.9889 22.2747 18.0122 23.0858 16.965 24.1323C14.5433 26.5522 15.1847 31.026 17.685 31.8893C19.9758 32.6742 17.8159 28.5013 19.9758 26.6961C22.2796 24.9302 28.2095 28.0173 23.4578 32.0332C22.3451 32.8573 22.1749 33.1189 21.455 33.8515C17.5541 37.7365 23.8767 42.1449 28.4975 41.5824C32.5947 41.0853 33.7205 38.3906 34.2834 34.5709C34.7939 31.0783 34.1001 29.8618 34.6499 27.3371C36.3909 22.5364 42.0066 26.6177 42.8051 28.9461C42.8182 28.6845 42.8444 28.4228 42.8444 28.1481C42.8444 19.9202 36.1553 13.2227 27.9084 13.2227ZM37.8439 22.9288C37.1501 23.8837 35.4353 23.8183 34.0085 22.7849C32.5817 21.7515 31.9795 20.1425 32.6733 19.1876C33.354 18.2327 35.0819 18.2981 36.5087 19.3315C37.9356 20.3518 38.5377 21.9608 37.8439 22.9157V22.9288Z" fill="white"/>
</g>
<defs>
<clipPath id="clip0_266_61909">
<rect width="56" height="56" fill="white"/>
</clipPath>
</defs>
</svg>
