<svg width="32" height="32" viewBox="0 0 32 32" fill="none" xmlns="http://www.w3.org/2000/svg">
<g clip-path="url(#clip0_266_61189)">
<path d="M0 16C0 16.9421 0 17.0467 0.0224456 17.8467C0.0823006 19.6187 0.269348 21.6523 0.980126 23.7981C1.48141 25.3159 2.42413 26.9533 3.36686 27.9851C4.56394 29.3009 6.21743 30.3774 8.0056 30.9906C9.8312 31.6186 11.8064 31.9251 15.6446 32H16.3554C20.2011 31.9177 22.1688 31.6186 23.9944 30.9906C25.7825 30.3774 27.4286 29.3009 28.6331 27.9851C29.576 26.9458 30.5111 25.3159 31.02 23.7981C31.7306 21.6523 31.9251 19.6112 31.9774 17.8467C32 17.0542 32 16.9421 32 16C32 15.0579 32 14.9533 31.9774 14.1533C31.9177 12.3813 31.7306 10.3477 31.02 8.20186C30.5111 6.68411 29.576 5.04671 28.6331 4.01494C27.4361 2.69907 25.7825 1.62243 23.9944 1.00935C22.1688 0.381309 20.1936 0.0747663 16.3554 0H15.6446C11.8064 0.0822429 9.8312 0.381309 8.0056 1.00935C6.21743 1.62243 4.57143 2.69907 3.36686 4.01494C2.42413 5.0542 1.48141 6.68411 0.980126 8.20186C0.276829 10.3477 0.0823006 12.3813 0.0224456 14.1533C0 14.9458 0 15.0579 0 16Z" fill="#0480CC"/>
<path d="M7.42859 16.2319C7.42859 16.1017 7.53385 15.9878 7.66342 15.9878L12.1253 15.9634C12.2548 15.9634 12.3682 16.0691 12.3682 16.1993C12.3682 16.2319 12.3682 16.2644 12.352 16.2888L10.1575 21.7725C10.1251 21.8539 10.036 21.9189 9.93887 21.9189C9.8741 21.9189 9.81742 21.8864 9.76882 21.8539C9.76882 21.8539 9.76073 21.8539 9.76073 21.8457C8.38413 20.3731 7.50956 18.4123 7.42859 16.24V16.2319Z" fill="white"/>
<path d="M12.1496 23.3834L14.7975 16.777C14.7975 16.777 14.7975 16.777 14.7975 16.7689C14.9838 16.2888 15.4534 15.939 16.0041 15.939C16.5223 15.939 16.9677 16.2319 17.1782 16.6712L19.9638 23.3428C19.9638 23.3428 19.98 23.4079 19.98 23.4404C19.98 23.5299 19.9314 23.6031 19.8667 23.6519C19.8667 23.6519 19.8667 23.6519 19.8586 23.6519C18.7249 24.2296 17.4293 24.555 16.0688 24.5713C14.7003 24.5794 13.4128 24.2703 12.2629 23.7089C12.19 23.6682 12.1334 23.5869 12.1334 23.4974C12.1334 23.4648 12.1334 23.4404 12.1496 23.4079" fill="white"/>
<path d="M19.6644 16.24C19.6644 16.24 19.6482 16.1749 19.6401 16.1424C19.6401 16.0122 19.7454 15.8983 19.8749 15.8983L24.3368 15.8657C24.4663 15.8657 24.5716 15.9715 24.5716 16.1017C24.5311 18.274 23.6808 20.251 22.3204 21.7481C22.2718 21.7888 22.2152 21.8213 22.1504 21.8213C22.0532 21.8213 21.9641 21.7644 21.9317 21.6749L19.6644 16.2237V16.24Z" fill="white"/>
<path d="M23.8832 13.4087L18.6602 13.4494H18.6359C18.5468 13.4494 18.4658 13.3843 18.4335 13.3029L18.0124 12.2941C17.4374 10.8052 17.1621 9.38137 17.1621 8.07145V7.6728C17.1621 7.54263 17.2593 7.42871 17.3969 7.42871H17.4293H17.4374C20.5389 7.95754 23.0815 10.1624 24.0937 13.0914C24.0937 13.0914 24.1019 13.1402 24.1019 13.1727C24.1019 13.3029 23.9966 13.4087 23.867 13.4087" fill="white"/>
<path d="M13.931 12.3183L13.5261 13.3353C13.4937 13.4085 13.4289 13.4655 13.3561 13.4818H13.3318H13.3075L8.07638 13.5225C7.93869 13.5225 7.83344 13.4167 7.83344 13.2784C7.83344 13.2539 7.83343 13.2295 7.84963 13.2051C8.82135 10.268 11.3316 8.01434 14.4331 7.44482C14.4331 7.44482 14.4573 7.44482 14.4655 7.44482C14.595 7.44482 14.7084 7.5506 14.7084 7.68077V8.08757C14.7327 9.39748 14.4817 10.8213 13.9229 12.3183" fill="white"/>
</g>
<defs>
<clipPath id="clip0_266_61189">
<rect width="32" height="32" fill="white"/>
</clipPath>
</defs>
</svg>
