<svg width="56" height="56" viewBox="0 0 56 56" fill="none" xmlns="http://www.w3.org/2000/svg">
<g clip-path="url(#clip0_266_61880)">
<path d="M0 28C0 29.6486 0 29.8318 0.039289 31.2318C0.14406 34.3327 0.471469 37.8916 1.71562 41.6467C2.59308 44.3028 4.24322 47.1682 5.89335 48.9739C7.9888 51.2765 10.883 53.1605 14.0131 54.2335C17.2086 55.3325 20.666 55.869 27.3845 56H28.6287C35.3601 55.856 38.8045 55.3325 42 54.2335C45.1301 53.1605 48.0112 51.2765 50.1065 48.9739C51.757 47.1552 53.407 44.3028 54.2845 41.6467C55.5285 37.8916 55.869 34.3196 55.9605 31.2318C56 29.8449 56 29.6486 56 28C56 26.3514 56 26.1682 55.9605 24.7682C55.856 21.6673 55.5285 18.1084 54.2845 14.3532C53.407 11.6972 51.757 8.83175 50.1065 7.02615C48.0112 4.72337 45.117 2.83925 42 1.76636C38.8045 0.66729 35.347 0.130841 28.6287 0H27.3845C20.653 0.143925 17.2086 0.66729 14.0131 1.76636C10.883 2.83925 8.00185 4.72337 5.89335 7.02615C4.24322 8.84485 2.59308 11.6972 1.71562 14.3532C0.484565 18.1084 0.14406 21.6673 0.039289 24.7682C0 26.1551 0 26.3514 0 28Z" fill="#D80029"/>
<mask id="mask0_266_61880" style="mask-type:luminance" maskUnits="userSpaceOnUse" x="7" y="11" width="42" height="34">
<path d="M49 11.5H7V44.75H49V11.5Z" fill="white"/>
</mask>
<g mask="url(#mask0_266_61880)">
<path d="M13.1792 35.9031C12.0111 35.3501 11.0521 34.9038 11.0521 34.0008C11.0521 33.3104 11.5972 32.8082 12.6761 32.8082C13.0308 32.8107 13.3846 32.8473 13.7323 32.9176C13.9028 32.9504 14.0757 32.9694 14.2493 32.9744C15.1908 32.9744 15.7228 32.4057 16.0763 31.3277L16.2234 30.8902C15.0521 30.4011 13.7966 30.1455 12.5274 30.1377C9.3345 30.1377 7.6501 32.2132 7.6501 34.3622C7.6188 35.2697 7.92565 36.1566 8.5111 36.8507C9.23165 37.6035 10.0968 38.2029 11.0548 38.6129C12.3673 39.2657 13.5563 39.7504 13.5563 40.7129C13.5563 41.5713 12.6814 42.0596 11.508 42.0596C10.3705 42.0046 9.26865 41.645 8.31775 41.0183L7 43.5252C8.43295 44.3589 10.0675 44.7827 11.725 44.7502C14.7 44.7502 16.9601 43.0203 16.9601 40.3603C16.9601 37.7143 14.8698 36.7334 13.1757 35.9031" fill="white"/>
<path d="M24.8335 37.1378L30.2375 30.4336H26.3875L22.0764 36.2199H22.0125V30.4344H18.8389V44.6374H19.0279C19.4288 44.6779 19.8337 44.6295 20.2138 44.4956C20.5938 44.3617 20.9397 44.1456 21.2267 43.8628C21.5137 43.5799 21.7348 43.2373 21.8743 42.8592C22.0137 42.4812 22.0681 42.077 22.0335 41.6756V38.4144H22.0974L26.4908 44.4598H30.5298L24.8335 37.1378Z" fill="white"/>
<path d="M30.4178 15.2196C29.6793 15.3414 29.0038 15.7095 28.5012 16.2642C27.9987 16.8189 27.6987 17.5274 27.6502 18.2743C27.6502 19.9228 28.9863 20.922 28.9898 23.0806C28.9991 23.7468 28.8345 24.4039 28.5123 24.987C28.19 25.5701 27.7213 26.0591 27.1523 26.4056C27.5391 26.3706 27.9634 26.3488 28.4289 26.347C28.9653 26.3391 29.5014 26.3719 30.0328 26.445L35.0457 20.2202C33.7855 18.3121 32.222 16.6227 30.4169 15.2188" fill="white"/>
<path d="M34.6282 32.0288C35.26 31.0348 35.3396 29.4511 35.393 27.8367C35.4525 26.3317 35.7622 25.1995 37.7555 25.1916C38.193 25.1916 38.6165 25.252 39.3768 25.2493C41.4946 25.2411 43.57 24.6551 45.3793 23.5545C42.2948 21.5419 38.7282 20.3908 35.0491 20.2207C34.763 21.0353 32.544 27.2811 32.376 27.7851C32.7178 28.1988 33.019 28.6445 33.2755 29.116C33.8311 30.0348 34.2856 31.0112 34.6308 32.0279" fill="white"/>
<path d="M24.0399 26.9271C23.7861 26.9271 23.661 26.7583 23.626 26.4625C23.591 26.1668 22.3398 14.5625 22.1534 12.8073C22.1263 12.5509 22.0659 12.0793 22.0659 11.9113C22.0606 11.8589 22.0664 11.806 22.083 11.7561C22.0995 11.7061 22.1264 11.6602 22.162 11.6214C22.1975 11.5826 22.2408 11.5517 22.2891 11.5308C22.3374 11.5098 22.3895 11.4994 22.4421 11.5C25.0775 11.993 27.5631 13.0887 29.7046 14.7016C28.9274 14.9023 28.2366 15.3505 27.7365 15.9784C27.2364 16.6063 26.9543 17.3799 26.9326 18.1824C26.9388 20.0916 28.2898 21.1425 28.2968 23.0579C28.3073 26.1729 24.7688 26.9263 24.0364 26.9271" fill="white"/>
<path d="M34.9126 32.8567C34.9545 32.9776 35.0066 33.0947 35.0683 33.2068C35.096 33.2654 35.1397 33.3149 35.1944 33.3497C35.249 33.3845 35.3124 33.4033 35.3772 33.4036C35.4767 33.3971 35.574 33.371 35.6633 33.3266C35.9258 33.2033 46.3961 28.2726 47.9746 27.5359C48.2038 27.4248 48.6378 27.2288 48.7804 27.1439C48.8443 27.1131 48.8985 27.0655 48.9372 27.0061C48.976 26.9467 48.9977 26.8778 49.0001 26.807C48.999 26.7337 48.9781 26.662 48.9397 26.5996C48.1092 25.5911 47.1302 24.7146 46.0364 24C44.0615 25.2224 41.792 25.8862 39.4696 25.9206C38.7048 25.9206 38.5316 25.8698 38.0083 25.8716C36.4841 25.8768 36.1034 26.5366 36.0474 27.8894C36.0378 28.1449 36.0334 28.4888 36.0186 28.8659C36.0721 30.2786 35.6857 31.6731 34.9126 32.8567Z" fill="white"/>
</g>
</g>
<defs>
<clipPath id="clip0_266_61880">
<rect width="56" height="56" fill="white"/>
</clipPath>
</defs>
</svg>
