<svg width="24" height="24" viewBox="0 0 24 24" fill="none" xmlns="http://www.w3.org/2000/svg">
<g clip-path="url(#clip0_266_61048)">
<path d="M0 12C0 12.7065 0 12.785 0.0168342 13.385C0.0617254 14.714 0.202011 16.2393 0.735094 17.8486C1.11106 18.9869 1.8181 20.2149 2.52514 20.9888C3.42296 21.9756 4.66307 22.7831 6.0042 23.2429C7.3734 23.7139 8.8548 23.9439 11.7334 24H12.2666C15.1508 23.9383 16.6266 23.7139 17.9958 23.2429C19.3369 22.7831 20.5714 21.9756 21.4749 20.9888C22.182 20.2094 22.8889 18.9869 23.265 17.8486C23.7979 16.2393 23.9439 14.7084 23.9831 13.385C24 12.7907 24 12.7065 24 12C24 11.2935 24 11.2093 23.9831 10.6149C23.9383 9.28599 23.7979 7.76074 23.265 6.15139C22.8889 5.01309 22.182 3.78504 21.4749 3.01121C20.577 2.0243 19.3369 1.21682 17.9958 0.757009C16.6266 0.285981 15.1452 0.0560747 12.2666 0H11.7334C8.84919 0.0616821 7.3734 0.285981 6.0042 0.757009C4.66307 1.21682 3.42857 2.0243 2.52514 3.01121C1.8181 3.79065 1.11106 5.01309 0.735094 6.15139C0.207622 7.76074 0.0617254 9.28599 0.0168342 10.6149C0 11.2093 0 11.2935 0 12Z" fill="#00B1AD"/>
<path d="M14.5084 10.7649C15.483 9.39628 15.145 7.51024 13.7591 6.54774C12.3732 5.59082 10.4633 5.91906 9.48868 7.28769C9.03236 7.93307 8.86335 8.65633 8.95912 9.41852C9.11122 10.6425 8.31686 11.7441 7.11688 12.0167C6.39013 12.178 5.72535 12.5897 5.26901 13.2351C4.30001 14.6037 4.63239 16.4898 6.0183 17.4523C7.4042 18.4092 9.31404 18.0809 10.2887 16.7123C10.745 16.0669 10.914 15.3214 10.8183 14.5815C10.6605 13.3519 11.4774 12.2281 12.6605 11.9833C13.3365 11.8442 14.052 11.4103 14.5084 10.7649Z" fill="white"/>
<path d="M19.2858 14.9709C19.2858 16.64 17.9111 17.9975 16.221 17.9975C14.5309 17.9975 13.1562 16.64 13.1562 14.9709C13.1562 13.3018 14.5309 11.9443 16.221 11.9443C17.9111 11.9443 19.2858 13.3018 19.2858 14.9709Z" fill="white"/>
</g>
<defs>
<clipPath id="clip0_266_61048">
<rect width="24" height="24" fill="white"/>
</clipPath>
</defs>
</svg>
