<svg width="40" height="40" viewBox="0 0 40 40" fill="none" xmlns="http://www.w3.org/2000/svg">
<g clip-path="url(#clip0_266_61529)">
<mask id="mask0_266_61529" style="mask-type:luminance" maskUnits="userSpaceOnUse" x="0" y="0" width="40" height="40">
<path d="M40 0H0V40H40V0Z" fill="white"/>
</mask>
<g mask="url(#mask0_266_61529)">
<path d="M0 20C0 21.1776 0 21.3084 0.0280636 22.3084C0.1029 24.5234 0.336763 27.0654 1.22544 29.7476C1.8522 31.6449 3.03087 33.6916 4.20954 34.9813C5.70625 36.6261 7.77361 37.9718 10.0094 38.7382C12.2919 39.5232 14.7615 39.9064 19.5603 40H20.449C25.2573 39.8971 27.7175 39.5232 30 38.7382C32.2358 37.9718 34.2937 36.6261 35.7904 34.9813C36.9693 33.6823 38.1479 31.6449 38.7746 29.7476C39.6632 27.0654 39.9064 24.514 39.9718 22.3084C40 21.3178 40 21.1776 40 20C40 18.8224 40 18.6916 39.9718 17.6916C39.8971 15.4766 39.6632 12.9346 38.7746 10.2523C38.1479 8.35514 36.9693 6.30839 35.7904 5.01868C34.2937 3.37383 32.2264 2.02804 30 1.26168C27.7175 0.476636 25.2479 0.0934579 20.449 0H19.5603C14.7521 0.102804 12.2919 0.476636 10.0094 1.26168C7.77361 2.02804 5.71561 3.37383 4.20954 5.01868C3.03087 6.31775 1.8522 8.35514 1.22544 10.2523C0.346118 12.9346 0.1029 15.4766 0.0280636 17.6916C0 18.6823 0 18.8224 0 20Z" fill="#0A1E5A"/>
<mask id="mask1_266_61529" style="mask-type:luminance" maskUnits="userSpaceOnUse" x="6" y="13" width="29" height="14">
<path d="M35.0001 13.2139H6.42859V26.4282H35.0001V13.2139Z" fill="white"/>
</mask>
<g mask="url(#mask1_266_61529)">
<path d="M23.1901 21.451C23.9402 21.451 24.3568 21.5572 24.368 22.0592C24.3728 22.335 24.1854 22.6557 23.9821 22.8129C23.5235 23.1671 23.1207 23.2048 20.9687 23.2048H10.3511L12.4024 14.6397H8.85491C8.61809 14.6397 8.52909 14.7076 8.45848 14.9891L6.51369 23.0171C6.14773 24.6129 6.97109 26.0725 8.80937 26.0725C10.6473 26.0725 12.1188 26.0725 13.6798 26.0725C14.9132 26.0725 16.5644 24.726 17.2342 23.4821C17.2707 23.4136 17.2942 23.3695 17.3219 23.3122C17.3219 23.3122 17.3361 23.295 17.3404 23.3198C17.3404 23.321 17.341 23.321 17.341 23.321C17.2342 23.7681 16.8613 25.3487 16.8 25.6061C16.7215 25.9419 16.8965 26.0692 17.058 26.0692C17.058 26.0692 21.029 26.0692 22.2977 26.0692C26.7415 26.0692 28.4757 23.9554 28.628 21.4175C28.7128 19.9913 27.8107 19.0687 25.258 19.0687C25.258 19.0687 23.9957 19.0687 23.2975 19.0687C22.6003 19.0687 21.8862 18.8394 21.8862 18.2738C21.8862 17.7068 22.6615 17.2148 23.7148 17.2148H28.4862C28.4862 17.2148 28.9035 15.5442 28.9859 15.1948C29.089 14.7553 28.9569 14.6279 28.6359 14.6279H22.7382C19.3126 14.6279 17.7754 16.9191 17.7754 18.5531C17.7754 20.189 19.0936 21.4483 22.4938 21.4483L23.1901 21.451Z" fill="white"/>
<path d="M25.5074 13.2139H35L30.1175 15.7219C30.1175 15.7219 30.3142 14.9004 30.3733 14.656C30.4346 14.3957 30.3522 14.1998 29.9844 14.1256C29.6188 14.0517 25.5074 13.2139 25.5074 13.2139Z" fill="#ED164B"/>
</g>
</g>
</g>
<defs>
<clipPath id="clip0_266_61529">
<rect width="40" height="40" fill="white"/>
</clipPath>
</defs>
</svg>
