<svg width="40" height="40" viewBox="0 0 40 40" fill="none" xmlns="http://www.w3.org/2000/svg">
<g clip-path="url(#clip0_266_61498)">
<path d="M0 20C0 21.1776 0 21.3084 0.0280636 22.3084C0.1029 24.5234 0.336763 27.0654 1.22544 29.7476C1.8522 31.6449 3.03087 33.6916 4.20954 34.9813C5.70629 36.6261 7.77361 37.9718 10.0094 38.7382C12.2919 39.5232 14.7615 39.9064 19.5603 40H20.449C25.2573 39.8971 27.7175 39.5232 30 38.7382C32.2358 37.9718 34.2938 36.6261 35.7904 34.9813C36.9693 33.6823 38.1479 31.6449 38.7746 29.7476C39.6632 27.0654 39.9064 24.514 39.9718 22.3084C40 21.3178 40 21.1776 40 20C40 18.8224 40 18.6916 39.9718 17.6916C39.8971 15.4766 39.6632 12.9346 38.7746 10.2523C38.1479 8.35514 36.9693 6.30839 35.7904 5.01868C34.2938 3.37383 32.2264 2.02804 30 1.26168C27.7175 0.476636 25.2479 0.0934579 20.449 0H19.5603C14.7521 0.102804 12.2919 0.476636 10.0094 1.26168C7.77361 2.02804 5.71561 3.37383 4.20954 5.01868C3.03087 6.31775 1.8522 8.35514 1.22544 10.2523C0.346118 12.9346 0.1029 15.4766 0.0280636 17.6916C0 18.6823 0 18.8224 0 20Z" fill="#457C26"/>
<path d="M29.0869 22.252L27.7736 21.3657C27.3479 21.6803 26.8347 21.8546 26.3055 21.8644C25.7762 21.8743 25.257 21.7192 24.8198 21.4207C24.8198 21.4207 20.8286 18.7239 20.4593 18.469C20.2466 18.3183 19.9923 18.2373 19.7316 18.2373C19.4709 18.2373 19.2166 18.3183 19.0039 18.469L14.6286 21.4272C14.1912 21.7254 13.6721 21.8802 13.1429 21.8704C12.6137 21.8606 12.1007 21.6865 11.6747 21.3723L10.3621 22.2586C9.83134 22.6277 9.46349 23.1875 9.33513 23.8212C9.20677 24.4548 9.32788 25.1136 9.67316 25.6602C9.83727 25.9284 10.0539 26.1605 10.3102 26.3426C10.5665 26.5247 10.8569 26.653 11.1642 26.7198C11.4714 26.7865 11.7889 26.7903 12.0977 26.731C12.4064 26.6717 12.6999 26.5504 12.9605 26.3745L19.0539 22.2536C19.2464 22.1049 19.4827 22.0242 19.7258 22.0242C19.9691 22.0242 20.2053 22.1049 20.3978 22.2536L26.4896 26.3745C26.7501 26.5506 27.0437 26.6721 27.3525 26.7315C27.6612 26.791 27.9788 26.7872 28.2861 26.7205C28.5933 26.6537 28.8839 26.5253 29.1402 26.3431C29.3964 26.1608 29.613 25.9286 29.777 25.6602C30.1227 25.1136 30.2442 24.4546 30.1161 23.8205C29.9879 23.1865 29.62 22.6264 29.0891 22.2569L29.0869 22.252Z" fill="white"/>
<path d="M19.2776 14.6179C19.415 14.5312 19.5741 14.4854 19.7364 14.4854C19.8988 14.4854 20.0578 14.5312 20.1952 14.6179C20.4446 14.7722 23.0984 16.5915 23.0984 16.5915C23.5147 16.8742 24.0149 17.0066 24.5165 16.9666C25.0181 16.9267 25.491 16.7168 25.8572 16.3717L27.3639 17.3909C27.8148 17.7052 28.1271 18.1812 28.2359 18.72C28.3447 19.2587 28.2416 19.8186 27.948 20.2832C27.8083 20.5111 27.6239 20.7083 27.4059 20.8629C27.1879 21.0175 26.9408 21.1264 26.6795 21.1829C26.4183 21.2393 26.1485 21.2423 25.8861 21.1916C25.6237 21.1408 25.3742 21.0374 25.1528 20.8876C25.1528 20.8876 20.8254 17.9667 20.4051 17.7167C20.2026 17.591 19.969 17.5244 19.7307 17.5244C19.4923 17.5244 19.2587 17.591 19.0562 17.7167C18.7051 17.9327 14.287 20.8821 14.287 20.8821C13.8364 21.1704 13.2901 21.2686 12.7673 21.1554C12.2445 21.0421 11.7877 20.7266 11.4968 20.2777C11.2043 19.8137 11.1018 19.2548 11.2106 18.7171C11.3193 18.1794 11.631 17.7043 12.0809 17.3904L13.5892 16.3717C13.9552 16.7171 14.4281 16.9272 14.9298 16.9672C15.4315 17.0072 15.9319 16.8746 16.3479 16.5915C16.3479 16.5915 19.0167 14.7827 19.2776 14.6179Z" fill="white"/>
<path d="M20.2463 13.8796L23.4381 16.0549C23.6253 16.1685 23.8334 16.2431 24.0502 16.2742C24.267 16.3053 24.4878 16.2923 24.6994 16.2358C24.911 16.1793 25.1089 16.0806 25.2814 15.9457C25.4538 15.8107 25.5972 15.6423 25.7028 15.4504C25.913 15.0819 25.9822 14.6497 25.8977 14.234C25.8132 13.8182 25.5808 13.4473 25.2435 13.19L20.2182 9.79333C20.0721 9.69694 19.901 9.64551 19.726 9.64551C19.5509 9.64551 19.3797 9.69694 19.2336 9.79333L14.2002 13.19C13.8417 13.463 13.6021 13.8637 13.5315 14.3088C13.4609 14.7538 13.5646 15.209 13.821 15.5796C14.0542 15.9245 14.4114 16.1663 14.8182 16.2548C15.225 16.3433 15.6502 16.2717 16.0056 16.0549L19.2436 13.8796C19.3853 13.7658 19.5615 13.7038 19.7432 13.7038C19.925 13.7038 20.1012 13.7658 20.2429 13.8796H20.2463Z" fill="white"/>
<path d="M23.1506 29.1159L20.538 24.7006C20.4965 24.5909 20.4334 24.4906 20.3525 24.4057C20.2717 24.3207 20.1746 24.2528 20.0671 24.206C19.9595 24.1592 19.8438 24.1343 19.7265 24.1329C19.6092 24.1315 19.4928 24.1536 19.3842 24.1978C19.2739 24.2451 19.1742 24.314 19.0908 24.4003C19.0074 24.4866 18.9419 24.5887 18.8984 24.7006L16.2859 29.1159C15.9479 29.6577 16.0282 30.522 16.9622 30.522H22.4666C23.4084 30.5171 23.4885 29.6593 23.1506 29.1159Z" fill="white"/>
</g>
<defs>
<clipPath id="clip0_266_61498">
<rect width="40" height="40" fill="white"/>
</clipPath>
</defs>
</svg>
