<svg width="24" height="24" viewBox="0 0 24 24" fill="none" xmlns="http://www.w3.org/2000/svg">
<g clip-path="url(#clip0_266_60738)">
<path d="M0 12C0 12.7065 0 12.785 0.0168381 13.385C0.0617397 14.714 0.202057 16.2392 0.735264 17.8486C1.11132 18.9869 1.81852 20.2149 2.52572 20.9888C3.42375 21.9756 4.66417 22.7832 6.0056 23.243C7.37509 23.7141 8.85686 23.9438 11.7362 24H12.2694C15.1543 23.9383 16.6304 23.7141 17.9999 23.243C19.3414 22.7832 20.5762 21.9756 21.4741 20.9888C22.1814 20.2093 22.8886 18.9869 23.2647 17.8486C23.7978 16.2392 23.9438 14.7084 23.9831 13.385C24 12.7907 24 12.7065 24 12C24 11.2935 24 11.2093 23.9831 10.6149C23.9383 9.28598 23.7978 7.76075 23.2647 6.15141C22.8886 5.01307 22.1814 3.78504 21.4741 3.01122C20.5762 2.0243 19.3358 1.21682 17.9999 0.75701C16.6304 0.285981 15.1487 0.0560747 12.2694 0H11.7362C8.85124 0.0616822 7.37509 0.285981 6.0056 0.75701C4.66417 1.21682 3.42937 2.0243 2.52572 3.01122C1.81852 3.79065 1.11132 5.01307 0.735264 6.15141C0.20767 7.76075 0.0617397 9.28598 0.0168381 10.6149C0 11.2093 0 11.2935 0 12Z" fill="#E78001"/>
<path d="M8.17234 8.8877C8.14346 9.06834 7.76213 11.62 7.72746 11.8627H8.58253C8.60565 11.6821 8.99273 9.13044 9.02741 8.8877H8.17234Z" fill="white"/>
<path d="M15.1691 8.8877C15.1402 9.06834 14.7589 11.62 14.7242 11.8627H16.729C16.7463 11.7329 16.7983 11.3885 16.8272 11.2192H15.6139L15.6948 10.6716H16.7983C16.8214 10.5417 16.8619 10.2369 16.8908 10.0732H15.7872L15.8681 9.53124H17.0525C17.0699 9.4014 17.1219 9.05705 17.1507 8.89333H15.1748L15.1691 8.8877Z" fill="white"/>
<path d="M5.64186 10.5872C5.64186 10.5872 6.35829 9.01782 6.41606 8.88232H7.49066C7.49066 9.09121 7.34623 11.6429 7.34623 11.8574H6.57204L6.69915 9.77429C6.69915 9.77429 5.82675 11.7219 5.76898 11.8574H5.15655L4.87924 9.77429C4.86191 9.87025 4.56726 11.259 4.41126 11.8574H3.64286C3.72375 11.5921 4.31304 9.0404 4.35926 8.88232H5.39344L5.6361 10.5872H5.64186Z" fill="white"/>
<path d="M13.6667 11.259C13.6667 11.259 13.7245 11.7445 13.7418 11.8574H14.5622C14.516 11.6146 14.0711 9.05733 14.0365 8.88232H12.9965C12.9388 9.00652 11.7544 11.5638 11.6099 11.8574H12.4419C12.4881 11.7558 12.6961 11.259 12.6961 11.259H13.6609H13.6667ZM12.933 10.6436L13.4241 9.53716L13.5858 10.6436H12.933Z" fill="white"/>
<path d="M10.2176 9.44657H10.4082C10.5411 9.44657 10.6855 9.45787 10.7722 9.55948C10.8357 9.63285 10.8589 9.72883 10.8415 9.85867C10.8415 9.85867 10.8126 10.0845 10.6624 10.1579C10.6624 10.1579 10.5527 10.2256 10.3736 10.2313H9.98646L10.7202 11.8627H11.5522L10.9224 10.6095C11.3037 10.5417 11.5984 10.4345 11.6735 9.86996C11.685 9.79657 11.6908 9.72883 11.6908 9.66673C11.6908 9.45787 11.633 9.2885 11.5233 9.1643C11.3153 8.9385 10.9629 8.8877 10.7029 8.8877H9.53004C9.50115 9.06834 9.11983 11.62 9.08518 11.8571H9.86514C9.88824 11.6934 10.2233 9.44092 10.2233 9.44092" fill="white"/>
<path d="M20.3572 8.57178C19.8603 10.5476 18.0693 11.6259 17.012 12.2017L16.9658 12.1452C17.3991 11.8121 18.8782 10.7621 19.3519 9.02904L20.3514 8.57178H20.3572Z" fill="white"/>
<path d="M13.1815 13.5561C13.1815 13.5561 13.2103 13.5505 13.2276 13.5449C13.2103 13.5449 13.1988 13.5505 13.1815 13.5561Z" fill="white"/>
<path d="M11.8179 13.8047C11.8179 13.8047 11.7833 13.8047 11.766 13.8159C11.7833 13.8159 11.8006 13.8103 11.8179 13.8047Z" fill="white"/>
<path d="M13.5109 13.4775C13.4531 13.4945 13.3895 13.5058 13.3317 13.5171C13.3895 13.5001 13.4531 13.4888 13.5109 13.4775Z" fill="white"/>
<path d="M14.8627 13.1104C14.7761 13.1386 14.6894 13.1612 14.597 13.1894C14.6894 13.1612 14.7761 13.133 14.8627 13.1104Z" fill="white"/>
<path d="M13.7246 13.4321C13.6841 13.4433 13.6495 13.449 13.609 13.4602C13.6437 13.449 13.6841 13.4433 13.7246 13.4321Z" fill="white"/>
<path d="M11.0842 13.5452L10.8589 13.438C10.7838 13.3928 10.6162 13.3025 10.6162 13.1387C10.6162 13.0597 10.6509 12.992 10.7029 12.9468C10.7722 12.8904 10.882 12.8678 10.9975 12.8904C11.142 12.9129 11.3153 13.0033 11.5002 13.1557C11.5868 12.992 11.7544 12.6871 11.8179 12.5742C11.6042 12.4049 11.402 12.3145 11.09 12.2637C10.7087 12.2129 10.3447 12.2863 10.0905 12.4726C9.87092 12.6307 9.73804 12.8621 9.70337 13.1444C9.69761 13.1896 9.69182 13.2404 9.69182 13.2855C9.69182 13.438 9.72649 13.5734 9.79581 13.6863C10.258 13.6751 10.7433 13.6525 11.2344 13.613C11.1882 13.5904 11.142 13.5622 11.09 13.5396" fill="white"/>
<path d="M14.545 12.3706C14.5276 12.4948 14.4641 12.8843 14.4352 13.0763C15.0361 12.9126 15.7698 12.6811 16.4458 12.3706H14.545Z" fill="white"/>
<path d="M14.8628 13.1104C14.7762 13.1386 14.6895 13.1612 14.597 13.1894C14.5797 13.1951 14.5624 13.2007 14.5393 13.2064C14.5046 13.2177 14.4699 13.229 14.4295 13.2402C14.4122 13.2402 14.389 13.2515 14.3717 13.2572C14.2504 13.2911 14.1233 13.3249 13.9904 13.3588C13.9673 13.3644 13.9442 13.3701 13.9153 13.3757C13.8806 13.387 13.8402 13.3927 13.8055 13.404C13.7766 13.4096 13.7478 13.4153 13.7246 13.4265C13.6842 13.4322 13.6495 13.4435 13.6091 13.4548C13.5744 13.4604 13.5398 13.4717 13.5051 13.4773C13.4473 13.4943 13.3896 13.5056 13.326 13.5169C13.2913 13.5225 13.2567 13.5338 13.222 13.5394C13.2047 13.5394 13.1931 13.5451 13.1758 13.5507C12.8233 13.6298 12.4536 13.6975 12.0549 13.7652C12.0492 13.7652 12.0376 13.7652 12.0318 13.7652C11.9625 13.7765 11.8874 13.7878 11.8123 13.7991H11.7603C11.6852 13.8161 11.6043 13.833 11.5292 13.8386C11.5234 13.8386 11.5176 13.8386 11.5119 13.8386C11.0901 13.9007 10.6395 13.9515 10.1715 13.9911C10.1022 13.9967 10.027 14.0024 9.95194 14.008C9.94616 14.008 9.93461 14.008 9.92882 14.008C9.8595 14.008 9.78439 14.0193 9.70928 14.0249C9.7035 14.0249 9.69195 14.0249 9.68618 14.0249C9.61108 14.0249 9.53597 14.0362 9.46086 14.0362C9.45508 14.0362 9.44929 14.0362 9.44353 14.0362C9.36842 14.0362 9.28753 14.0419 9.21242 14.0475H9.20663C8.808 14.0645 8.40358 14.0757 7.98182 14.0757H7.94715C7.85471 14.0757 7.76226 14.0757 7.66406 14.0757C7.64672 14.0757 7.62362 14.0757 7.60628 14.0757C7.2654 14.0757 6.91875 14.0588 6.56055 14.0419H6.55478C6.01746 14.0136 5.45704 13.9685 4.88507 13.9064L5.54948 13.3136C5.54948 13.3136 5.93659 13.4209 6.46811 13.5169C6.3699 12.941 6.27746 12.4386 6.26591 12.3652H5.22596C5.1624 12.4894 3.97802 15.0467 3.83936 15.3403H4.67132C4.71754 15.2387 4.99485 14.6007 4.99485 14.6007H5.86148C5.86148 14.6007 5.94814 15.2217 5.96548 15.3403H6.78587C6.76853 15.2443 6.68766 14.7983 6.59522 14.2733C7.17874 14.3072 7.76805 14.3128 8.31113 14.3015C8.34002 14.3467 8.35157 14.3919 8.35157 14.4427C8.35157 14.4596 8.35157 14.4765 8.35157 14.4991C8.34002 14.5669 8.30535 14.6233 8.24758 14.6572C8.13203 14.7306 7.97027 14.7137 7.86049 14.6967C7.59473 14.6516 7.38673 14.4596 7.21341 14.3015C7.10942 14.4653 6.8841 14.8153 6.80899 14.9282C7.12097 15.1991 7.46183 15.3685 7.82006 15.4137C8.18402 15.4645 8.54224 15.3854 8.808 15.1991C9.03911 15.0354 9.18353 14.7983 9.22976 14.5048C9.24131 14.4201 9.24709 14.3411 9.24709 14.2677C9.83061 14.2451 10.3217 14.2112 10.6337 14.183C10.7377 14.2564 10.7897 14.3411 10.7897 14.437C10.7897 14.454 10.7897 14.4709 10.7897 14.4935C10.7781 14.5612 10.7434 14.6177 10.6857 14.6516C10.5701 14.7249 10.4084 14.708 10.2986 14.6911C10.0328 14.6459 9.82483 14.454 9.65151 14.2959C9.54752 14.4596 9.3222 14.8096 9.24709 14.9225C9.55907 15.1935 9.89993 15.3629 10.2582 15.408C10.6221 15.4588 10.9803 15.3798 11.2461 15.1935C11.4772 15.0298 11.6274 14.7927 11.6736 14.4991C11.7025 14.3354 11.6967 14.1943 11.6563 14.0645C11.7892 14.0475 11.9163 14.0249 12.0376 14.008C11.9452 14.6346 11.8585 15.2161 11.8412 15.3233H13.846C13.8633 15.1935 13.9153 14.8491 13.9442 14.6798H12.7251L12.806 14.1322H13.9095C13.9269 14.0193 13.9673 13.7596 13.9904 13.5902C14.1406 13.5451 14.2157 13.5169 14.2157 13.5169C14.2157 13.5169 14.5913 13.4096 15.0708 13.2402C15.0015 13.7031 14.7877 15.1258 14.7588 15.329H15.6254C15.6486 15.154 15.9605 13.0935 15.9605 13.0935H16.5903C16.6076 12.9636 16.6712 12.5572 16.6943 12.3709C16.3707 12.5459 15.7525 12.8168 14.8744 13.0935" fill="white"/>
<path d="M8.91769 13.692C8.84258 13.6355 8.75593 13.5847 8.65193 13.5452L8.42661 13.438H8.42083C8.34572 13.3928 8.17817 13.3025 8.17817 13.1387C8.17817 13.0597 8.20706 12.992 8.26485 12.9468C8.33417 12.8904 8.44395 12.8678 8.55949 12.8904C8.70971 12.9129 8.87726 13.0033 9.06214 13.1557C9.1488 12.992 9.31635 12.6871 9.37988 12.5742C9.16613 12.4049 8.96391 12.3145 8.65193 12.2637C8.27061 12.2129 7.90663 12.2863 7.65242 12.4726C7.43288 12.6307 7.30001 12.8621 7.26533 13.1444C7.25955 13.1896 7.25955 13.2404 7.25955 13.2855C7.25955 13.4154 7.28267 13.5339 7.32889 13.6355C7.34623 13.6355 7.36354 13.6355 7.38088 13.6355C7.76798 13.6638 8.2995 13.6863 8.91193 13.692" fill="white"/>
<path d="M12.9619 13.0144H14.1463C14.1694 12.8845 14.2156 12.5402 14.2445 12.3765H12.2744C12.2628 12.4555 12.1877 12.9579 12.1011 13.5337C12.3726 13.4999 12.6442 13.4604 12.9099 13.4208L12.9677 13.02L12.9619 13.0144Z" fill="white"/>
</g>
<defs>
<clipPath id="clip0_266_60738">
<rect width="24" height="24" fill="white"/>
</clipPath>
</defs>
</svg>
