<svg width="40" height="40" viewBox="0 0 40 40" fill="none" xmlns="http://www.w3.org/2000/svg">
<g clip-path="url(#clip0_266_61594)">
<path d="M0 20C0 21.1776 0 21.3084 0.0280636 22.3084C0.1029 24.5234 0.336763 27.0654 1.22544 29.7476C1.8522 31.6449 3.03087 33.6916 4.20954 34.9813C5.70629 36.6261 7.77361 37.9718 10.0094 38.7382C12.2919 39.5232 14.7615 39.9064 19.5603 40H20.449C25.2573 39.8971 27.7175 39.5232 30 38.7382C32.2358 37.9718 34.2938 36.6261 35.7904 34.9813C36.9693 33.6823 38.1479 31.6449 38.7746 29.7476C39.6632 27.0654 39.9064 24.514 39.9718 22.3084C40 21.3178 40 21.1776 40 20C40 18.8224 40 18.6916 39.9718 17.6916C39.8971 15.4766 39.6632 12.9346 38.7746 10.2523C38.1479 8.35514 36.9693 6.30839 35.7904 5.01868C34.2938 3.37383 32.2264 2.02804 30 1.26168C27.7175 0.476636 25.2479 0.0934579 20.449 0H19.5603C14.7521 0.102804 12.2919 0.476636 10.0094 1.26168C7.77361 2.02804 5.71561 3.37383 4.20954 5.01868C3.03087 6.31775 1.8522 8.35514 1.22544 10.2523C0.346118 12.9346 0.1029 15.4766 0.0280636 17.6916C0 18.6823 0 18.8224 0 20Z" fill="#0064FF"/>
<mask id="mask0_266_61594" style="mask-type:luminance" maskUnits="userSpaceOnUse" x="7" y="8" width="26" height="24">
<path d="M32.1423 8.75H7.85657V31.6071H32.1423V8.75Z" fill="white"/>
</mask>
<g mask="url(#mask0_266_61594)">
<path d="M32.1423 8.75H7.85657V31.6071H32.1423V8.75Z" fill="#0064FF"/>
<path d="M21.3296 13.7587L22.3419 8.9807C22.3874 8.7407 22.1827 8.52338 21.9437 8.58052C20.4766 8.84338 18.9527 9.3007 17.4401 9.95227C10.6391 12.8443 6.52221 18.5139 8.25085 22.6176C9.55878 25.6924 13.7781 27.0071 18.6797 26.2412L17.6676 31.0192C17.6221 31.2592 17.8268 31.4765 18.0657 31.4194C19.5328 31.1565 21.0568 30.6992 22.5695 30.0477C29.3705 27.1556 33.4761 21.486 31.7474 17.3709C30.4509 14.3075 26.2313 12.9929 21.3296 13.7587Z" fill="white"/>
</g>
</g>
<defs>
<clipPath id="clip0_266_61594">
<rect width="40" height="40" fill="white"/>
</clipPath>
</defs>
</svg>
