<svg width="32" height="32" viewBox="0 0 32 32" fill="none" xmlns="http://www.w3.org/2000/svg">
<g clip-path="url(#clip0_266_48328)">
<mask id="mask0_266_48328" style="mask-type:luminance" maskUnits="userSpaceOnUse" x="0" y="0" width="32" height="32">
<path d="M16 0H15.6456C11.8056 0.08 9.832 0.3808 8.0056 1.0096C6.23754 1.61562 4.64571 2.64726 3.3704 4.0136C2.31218 5.24229 1.5023 6.66455 0.9856 8.2016C0.376247 10.1277 0.0528028 12.1328 0.0256004 14.1528C4.32134e-07 14.948 0 15.0568 0 15.9968C0 16.9368 4.32134e-07 17.0456 0.0256004 17.8408C0.0528515 19.8611 0.376294 21.8664 0.9856 23.7928C1.50304 25.3293 2.31285 26.7511 3.3704 27.98C4.6454 29.3473 6.23727 30.3797 8.0056 30.9864C9.832 31.616 11.804 31.9176 15.6456 31.9968H16.3536C20.1936 31.9168 22.168 31.616 23.9944 30.9864C25.7624 30.3795 27.354 29.3471 28.6288 27.98C29.6866 26.7512 30.4967 25.3293 31.0144 23.7928C31.6229 21.8662 31.9463 19.861 31.9744 17.8408C32 17.0456 32 16.936 32 15.9968C32 15.0576 32 14.948 31.9744 14.1528C31.9464 12.1329 31.623 10.1279 31.0144 8.2016C30.4974 6.6645 29.6873 5.24225 28.6288 4.0136C27.354 2.64629 25.7625 1.61354 23.9944 1.0064C22.168 0.3808 20.196 0.0792 16.3536 0H16Z" fill="white"/>
</mask>
<g mask="url(#mask0_266_48328)">
<path d="M40.5993 21.4624H-8.59912V32.3864H40.5993V21.4624Z" fill="black"/>
<path d="M40.5993 10.5386H-8.59912V21.4626H40.5993V10.5386Z" fill="white"/>
<path d="M40.5993 -0.38623H-8.59912V10.5378H40.5993V-0.38623Z" fill="#CE1126"/>
<path d="M8.81855 15.0329L7.80095 11.9033L6.78335 15.0329H3.48975L6.15455 16.9673L5.13695 20.0937L7.80095 18.1593L10.4649 20.0937L9.44735 16.9641L12.1113 15.0297L8.81855 15.0329Z" fill="#007A3D"/>
<path d="M25.8465 16.9673L28.5105 15.0329H25.2177L24.2009 11.9033L23.1833 15.0329H19.8889L22.5537 16.9673L21.5353 20.0937L24.2009 18.1625L26.8649 20.0969L25.8465 16.9673Z" fill="#007A3D"/>
</g>
</g>
<defs>
<clipPath id="clip0_266_48328">
<rect width="32" height="31.9968" fill="white"/>
</clipPath>
</defs>
</svg>
