<svg width="24" height="24" viewBox="0 0 24 24" fill="none" xmlns="http://www.w3.org/2000/svg">
<g clip-path="url(#clip0_266_45669)">
<mask id="mask0_266_45669" style="mask-type:luminance" maskUnits="userSpaceOnUse" x="0" y="0" width="24" height="24">
<path d="M11.9994 0H11.7336C8.85391 0.059994 7.37446 0.286171 6.0036 0.757124C4.67809 1.21255 3.48496 1.98702 2.52935 3.0123C1.73548 3.93328 1.12772 4.99945 0.739726 6.15178C0.282975 7.59606 0.0404205 9.0995 0.019798 10.6141C-4.4699e-09 11.2111 0 11.2927 0 11.9976C0 12.7025 -4.4699e-09 12.7841 0.019798 13.3775C0.040407 14.8925 0.282961 16.3963 0.739726 17.841C1.12734 18.9953 1.7351 20.0635 2.52935 20.9865C3.48503 22.0114 4.67817 22.7855 6.0036 23.2405C7.37446 23.7126 8.85271 23.9382 11.7336 23.9976H12.2658C15.1455 23.9376 16.6249 23.7126 17.9952 23.2405C19.3208 22.7855 20.5142 22.0114 21.4701 20.9865C22.2637 20.0647 22.8714 18.998 23.2597 17.8452C23.7162 16.4005 23.9587 14.8967 23.9796 13.3817C24 12.7859 24 12.7037 24 12.0018C24 11.2999 24 11.2153 23.9796 10.6183C23.9587 9.10372 23.7162 7.60032 23.2597 6.15598C22.8716 5.00315 22.2638 3.93641 21.4701 3.0147C20.5142 1.9894 19.3209 1.21492 17.9952 0.759524C16.6249 0.286171 15.1461 0.0593941 12.2658 0H11.9994Z" fill="white"/>
</mask>
<g mask="url(#mask0_266_45669)">
<path d="M2.31404 -0.267578H-0.565674L14.1029 9.57144H31.8473V7.8982H14.6338L2.31404 -0.267578Z" fill="white"/>
<path d="M-0.612549 24.3209H2.34935L14.6073 16.1563H31.8472V14.4585H14.1016L-0.612549 24.3209Z" fill="white"/>
<path d="M-5.08984 2.65405V4.70345L6.31322 12.0281L-5.08984 19.3366V21.3704L8.94035 12.0281L-5.08984 2.65405Z" fill="#F9B500"/>
<path d="M-5.08984 4.70288V19.2904L5.95685 12.0275L-5.08984 4.70288Z" fill="#12100B"/>
<path d="M-5.08984 4.70288L5.95685 12.0275L-5.08984 19.2904V19.3348L6.31322 12.0275L-5.08984 4.70288Z" fill="#12100B"/>
<path d="M2.34937 24.3211H31.8472V16.1565H14.6073L2.34937 24.3211Z" fill="#2C2E7F"/>
<path d="M44.1256 9.56724V14.4609H26.893H14.1022L-0.611891 24.321H-5.08984V21.3705L8.94095 12.0276L-5.08984 2.65353V-0.267578H-0.566896L14.1022 9.57144H26.893V9.56604L44.1256 9.56724Z" fill="#007646"/>
<path d="M14.6337 7.89821H31.8472V-0.267578H2.31396L14.6337 7.89821Z" fill="#D92C23"/>
</g>
</g>
<defs>
<clipPath id="clip0_266_45669">
<rect width="24" height="23.9976" fill="white"/>
</clipPath>
</defs>
</svg>
