<svg width="32" height="32" viewBox="0 0 32 32" fill="none" xmlns="http://www.w3.org/2000/svg">
<g clip-path="url(#clip0_266_47113)">
<mask id="mask0_266_47113" style="mask-type:luminance" maskUnits="userSpaceOnUse" x="0" y="0" width="33" height="32">
<path d="M16.0012 0H15.6468C11.8067 0.080002 9.83385 0.38161 8.0074 1.01043C6.23936 1.6173 4.64775 2.64979 3.37288 4.0169C2.31458 5.24585 1.50419 6.66805 0.986425 8.205C0.377686 10.1313 0.0542481 12.1363 0.0264007 14.1564C-5.96061e-09 14.9508 0 15.0604 0 16.0004C0 16.9404 -5.96061e-09 17.05 0.0264007 17.8444C0.0541244 19.8641 0.377291 21.8689 0.985625 23.795C1.50357 25.3316 2.31395 26.7535 3.37208 27.9823C4.6469 29.3496 6.2385 30.3824 8.0066 30.9896C9.83305 31.6184 11.8051 31.92 15.646 32H16.3556C20.1957 31.92 22.1694 31.6184 23.9966 30.9896C25.7644 30.3828 27.3556 29.3499 28.6295 27.9823C29.6878 26.7537 30.4982 25.3317 31.016 23.795C31.6246 21.8687 31.948 19.8636 31.976 17.8436C32.0016 17.0492 32.0016 16.9388 32.0016 15.9996C32.0016 15.0604 32.0016 14.95 31.976 14.1556C31.9481 12.1356 31.6246 10.1305 31.016 8.2042C30.4985 6.66711 29.6881 5.24485 28.6295 4.0161C27.3554 2.64899 25.7643 1.61671 23.9966 1.01043C22.1694 0.38161 20.1973 0.079202 16.3556 0H16.0012Z" fill="white"/>
</mask>
<g mask="url(#mask0_266_47113)">
<path d="M40.7842 -0.205566H-7.87381V32.2064H40.7842V-0.205566Z" fill="#FF0710"/>
<path d="M21.9669 20.1855C21.9669 20.1855 20.6557 16.2446 16.8468 16.6374C20.0813 17.5446 19.8581 20.2719 19.8581 20.2719H19.7085C19.6925 19.426 19.3774 18.6131 18.8191 17.9774C18.2609 17.3417 17.4955 16.9242 16.6588 16.799C17.0995 17.0289 17.4504 17.3999 17.6556 17.8526C17.8608 18.3053 17.9084 18.8137 17.7908 19.2967C17.7908 19.2967 16.622 21.8439 18.0908 22.8335C18.5275 23.1537 18.9883 23.4393 19.4693 23.688C19.6295 23.7987 19.7608 23.9463 19.852 24.1184C19.9432 24.2905 19.9916 24.482 19.9933 24.6768C20.029 25.0351 19.9719 25.3965 19.8277 25.7264C20.7478 25.1704 21.4572 24.3245 21.8444 23.3216C22.2316 22.3187 22.2747 21.2156 21.9669 20.1855ZM20.0157 21.5695L19.7861 22.0631L19.6805 21.5295L19.1405 21.4639L19.6205 21.1983L19.5149 20.6639L19.9149 21.0351L20.3901 20.7711L20.1613 21.2647L20.5613 21.6351L20.0157 21.5695Z" fill="white"/>
<path d="M14.2307 23.5301C14.2307 23.5301 17.7204 21.2804 16.3972 17.6899C16.3172 21.05 13.6259 21.51 13.6259 21.51L13.5883 21.3644C14.4034 21.1387 15.1123 20.6316 15.5892 19.9331C16.0662 19.2345 16.2804 18.3897 16.194 17.5483C16.0806 18.0321 15.8085 18.464 15.421 18.7752C15.0336 19.0863 14.5532 19.2588 14.0563 19.2652C14.0563 19.2652 11.3003 18.7644 10.7058 20.4316C10.5043 20.9343 10.342 21.4519 10.2202 21.9797C10.1528 22.1624 10.0425 22.3262 9.89853 22.4573C9.75457 22.5885 9.5812 22.6831 9.39302 22.7333C9.05497 22.8571 8.69074 22.8918 8.33539 22.8341C9.10165 23.5875 10.0966 24.0649 11.1638 24.1911C12.2309 24.3174 13.3098 24.0854 14.2307 23.5317M12.4067 21.9829L11.8715 21.8829L12.3627 21.6492L12.2923 21.1092L12.6667 21.5044L13.1571 21.2716L12.8979 21.7516L13.2715 22.1477L12.7371 22.0477L12.4771 22.5277L12.4067 21.9829Z" fill="white"/>
<path d="M9.25621 17.3868C9.25621 17.3868 12.6211 19.8205 15.4836 17.2812C12.3267 18.4348 10.9186 16.0876 10.9186 16.0876L11.0403 16.0004C11.5465 16.6778 12.2763 17.154 13.1003 17.3444C13.9243 17.5348 14.7891 17.4271 15.5412 17.0404C15.0494 17.1107 14.5483 17.0141 14.1179 16.7661C13.6875 16.5181 13.3526 16.133 13.1667 15.6724C13.1667 15.6724 12.6299 12.9211 10.861 12.9739C10.3195 12.969 9.77844 13.0059 9.24261 13.0843C9.04811 13.088 8.85558 13.0449 8.68125 12.9586C8.50692 12.8722 8.35592 12.7452 8.24098 12.5883C8.00223 12.3181 7.83694 11.9911 7.76097 11.6387C7.33842 12.627 7.25591 13.7277 7.52638 14.768C7.79684 15.8083 8.40498 16.7294 9.25541 17.3868M10.0338 15.1228L9.93222 14.5875L10.3322 14.9612L10.8122 14.6987L10.5794 15.1908L10.9795 15.5644L10.4402 15.4964L10.2082 15.9876L10.1066 15.4532L9.56582 15.386L10.0338 15.1228Z" fill="white"/>
<path d="M13.1619 10.185C13.1619 10.185 11.8899 14.1387 15.19 16.0763C13.1195 13.4291 14.9108 11.3642 14.9108 11.3642L15.0308 11.453C14.5437 12.1447 14.3174 12.9865 14.3919 13.8292C14.4665 14.6719 14.8371 15.4609 15.438 16.0563C15.2182 15.6108 15.154 15.1045 15.2555 14.6182C15.357 14.1318 15.6184 13.6935 15.998 13.3731C15.998 13.3731 18.4461 12.013 17.8476 10.3442C17.6847 9.82765 17.4819 9.32453 17.2412 8.83934C17.1776 8.65528 17.1589 8.45866 17.1867 8.26591C17.2146 8.07315 17.2881 7.88985 17.4012 7.73131C17.5839 7.42131 17.8435 7.16368 18.1548 6.9833C17.0847 6.88721 16.013 7.14938 15.1081 7.72862C14.2032 8.30786 13.5163 9.17134 13.1555 10.1834M15.5476 10.2226L16.0276 9.96097L15.7956 10.453L16.1956 10.8258L15.6556 10.7586L15.4244 11.2498L15.3268 10.717L14.786 10.649L15.266 10.3866L15.1644 9.85137L15.5476 10.2226Z" fill="white"/>
<path d="M21.2173 11.882C21.2173 11.882 17.0668 11.802 16.1604 15.5189C18.0988 12.7732 20.5909 13.8972 20.5909 13.8972L20.5405 14.038C19.7384 13.7703 18.8673 13.7954 18.0819 14.1088C17.2965 14.4222 16.6475 15.0037 16.25 15.7501C16.6138 15.412 17.0805 15.2055 17.5754 15.1636C18.0703 15.1217 18.565 15.2468 18.9805 15.5189C18.9805 15.5189 20.9885 17.4741 22.4118 16.4221C22.8595 16.1172 23.2832 15.7783 23.679 15.4085C23.837 15.2949 24.0201 15.2211 24.2127 15.1933C24.4052 15.1654 24.6017 15.1844 24.7854 15.2485C25.1351 15.3344 25.4566 15.5091 25.719 15.7557C25.5034 14.7029 24.9443 13.7516 24.1296 13.0509C23.3148 12.3503 22.2905 11.94 21.2173 11.8844M21.8661 14.1876L22.255 14.57L21.7165 14.49L21.4765 14.978L21.3853 14.442L20.8485 14.362L21.3285 14.1108L21.2389 13.5732L21.6269 13.9564L22.1069 13.7036L21.8661 14.1876Z" fill="white"/>
</g>
</g>
<defs>
<clipPath id="clip0_266_47113">
<rect width="32.0016" height="32" fill="white"/>
</clipPath>
</defs>
</svg>
