<svg width="32" height="32" viewBox="0 0 32 32" fill="none" xmlns="http://www.w3.org/2000/svg">
<g clip-path="url(#clip0_266_48365)">
<mask id="mask0_266_48365" style="mask-type:luminance" maskUnits="userSpaceOnUse" x="0" y="0" width="32" height="32">
<path d="M15.9996 0H15.6452C11.8053 0.079998 9.83255 0.38159 8.0054 1.01037C6.23777 1.61742 4.64656 2.64984 3.37192 4.0167C2.31335 5.24553 1.5032 6.66804 0.986375 8.2054C0.376946 10.1312 0.0535061 12.1359 0.0263993 14.1556C-5.96032e-09 14.9508 0 15.0604 0 16.0004C0 16.9404 -5.96032e-09 17.0484 0.0263993 17.8404C0.0535344 19.8606 0.376972 21.8659 0.986375 23.7922C1.50365 25.3294 2.31375 26.7518 3.37192 27.9809C4.64684 29.3472 6.23799 30.3793 8.0054 30.9864C9.83255 31.616 11.8037 31.9176 15.6452 31.9968H16.3548C20.1947 31.9168 22.1682 31.616 23.9946 30.9864C25.7622 30.3798 27.3535 29.3476 28.6281 27.9809C29.6863 26.7517 30.4966 25.3293 31.0144 23.7922C31.6231 21.8657 31.9465 19.8605 31.9744 17.8404C32 17.046 32 16.9372 32 16.0004C32 15.0636 32 14.9508 31.9744 14.1556C31.9465 12.136 31.623 10.1313 31.0144 8.2054C30.4967 6.66811 29.686 5.24568 28.6273 4.0167C27.3529 2.64952 25.7616 1.61703 23.9938 1.01037C22.1674 0.38159 20.1947 0.079198 16.3548 0H15.9996Z" fill="white"/>
</mask>
<g mask="url(#mask0_266_48365)">
<path d="M40.1239 -0.0703125H-8.12451V7.96469H40.1239V-0.0703125Z" fill="#EE161F"/>
<path d="M40.1239 24.0356H-8.12451V32.0706H40.1239V24.0356Z" fill="#EE161F"/>
<path d="M40.1239 7.96484H-8.12451V24.0356H40.1239V7.96484Z" fill="white"/>
<path d="M15.7796 7.96387C15.6196 8.75025 13.6589 9.80382 13.9909 10.0718C14.1509 9.89582 14.5829 10.1294 14.3309 10.319C14.08 10.492 13.817 10.6466 13.5437 10.7814C13.0581 11.0534 12.5221 11.3478 13.4285 11.4606C13.6237 11.6694 13.3485 12.0206 13.0885 11.9406C12.9338 11.9643 12.7886 12.0304 12.669 12.1315C12.5494 12.2326 12.4601 12.3647 12.4109 12.5134C12.2653 12.9661 9.547 13.8141 10.887 14.1277C11.4589 13.8941 12.2821 13.7429 12.0525 14.6629C11.7173 15.5757 10.5886 15.4925 10.047 16.1741C9.82254 16.414 9.57938 16.6358 9.3198 16.8372C9.3566 17.6924 10.3718 16.91 10.7294 16.6869C11.5149 16.5085 11.4198 17.6412 10.7478 17.7188C10.0261 18.1009 9.37469 18.603 8.82142 19.2036C8.70542 19.4436 8.38543 19.3708 8.21343 19.5364C8.10063 19.7452 8.38223 19.8564 8.55102 19.8348C9.51788 19.6279 10.4439 19.2627 11.2918 18.754C13.3205 19.0868 9.79739 20.2892 9.25981 20.3852C8.99021 20.31 8.78702 20.7899 9.08301 20.8755C9.40154 20.9388 9.72915 20.9412 10.0486 20.8827C11.0081 20.6355 11.9394 20.2897 12.8277 19.8508C15.0677 19.698 13.4925 22.4907 12.3781 23.0091C11.9433 23.1489 11.5293 23.3464 11.147 23.5963C10.827 23.7027 11.307 24.1379 11.379 23.7923C11.4845 23.6736 11.6154 23.5802 11.7618 23.5188C11.9083 23.4575 12.0667 23.4298 12.2253 23.4379C13.9917 23.3387 13.5053 22.1355 15.3669 22.4779C15.5836 22.3795 15.9228 22.4371 15.9796 22.7035C16.0828 23.0147 16.4044 23.1563 16.6588 23.3227C16.7508 23.4523 17.0588 23.7859 17.1276 23.4915C16.9516 22.5619 18.6884 23.2091 18.9052 23.6939C19.03 23.8659 19.3052 24.1619 19.5068 23.9339C19.7355 23.4163 17.6628 22.7019 17.6716 21.4859C17.6164 20.8539 17.4244 19.2204 18.4996 19.6076C20.7795 20.7228 20.8347 19.1124 23.6114 21.1123C25.2114 20.8651 21.6435 19.1924 21.2819 18.8932C21.2206 18.8709 21.1667 18.8318 21.1263 18.7805C21.086 18.7292 21.0608 18.6677 21.0536 18.6028C21.0463 18.5379 21.0573 18.4723 21.0854 18.4134C21.1134 18.3544 21.1574 18.3045 21.2123 18.2692C21.8715 17.8068 22.4235 18.6876 23.0939 18.6372C23.3875 18.5452 23.2451 18.1212 22.9827 18.0892C22.2347 17.6892 21.8051 16.7636 20.9371 16.5877C20.7624 16.557 20.5845 16.5479 20.4075 16.5605C20.2419 16.3805 20.4627 16.1053 20.6771 16.1277C21.0099 16.0797 22.8307 16.3173 22.4883 15.7517C21.8524 15.4969 21.1934 15.3045 20.5203 15.1773C20.2235 15.1597 20.2603 14.7693 20.5203 14.7261C20.9547 14.7509 21.4003 14.9037 21.8515 14.9341C22.4475 14.5669 20.5643 14.0117 20.3203 13.6269C19.8483 13.2717 19.4196 12.8621 18.942 12.515C18.4508 12.4102 18.166 11.8302 18.862 11.875C19.2953 12.0838 19.7669 12.2015 20.2475 12.2206C20.5019 12.0606 20.1387 11.9598 20.0075 11.9046C19.6768 11.7101 19.3615 11.4905 19.0644 11.2478C18.8076 11.0278 19.2828 10.9278 19.4468 11.0158C19.7195 11.1302 19.7507 10.7318 19.5467 10.6318C17.942 9.30463 16.518 10.0854 15.7772 7.96547M13.9917 11.0134C14.2717 11.0222 14.2317 11.527 13.9533 11.4934C13.6853 11.4758 13.7013 10.9598 13.9917 11.0134ZM16.6316 11.2854C16.9044 11.2366 16.962 11.7342 16.69 11.7574C16.406 11.8078 16.3012 11.2542 16.6316 11.2854ZM15.858 11.3502C16.4644 11.6934 15.526 12.1334 15.1757 11.9702C15.0077 11.7926 15.2501 11.5302 15.4373 11.4726C15.5812 11.4438 15.7132 11.379 15.858 11.3502ZM17.6396 11.3502C17.6949 11.3809 17.7391 11.4284 17.7659 11.4858C17.7926 11.5431 17.8005 11.6075 17.7884 11.6697C17.7764 11.7318 17.7449 11.7885 17.6987 11.8317C17.6524 11.8749 17.5936 11.9024 17.5308 11.9102C17.0972 11.8958 17.2252 11.2662 17.6396 11.3502ZM14.6333 11.883C15.0125 12.2638 14.2149 12.8933 13.8717 12.6526C13.7749 12.2662 14.3293 11.9918 14.6333 11.883ZM16.8732 12.9229C16.9308 12.9617 16.9748 13.0175 16.999 13.0826C17.0231 13.1476 17.0263 13.2187 17.0079 13.2856C16.9895 13.3525 16.9505 13.412 16.8965 13.4556C16.8425 13.4992 16.7761 13.5247 16.7068 13.5285C16.3524 13.3733 16.5916 12.9877 16.8764 12.9221M15.9868 12.9725C16.2492 13.0949 16.0484 13.5325 15.7844 13.4693C15.3845 13.3093 15.6164 12.9381 15.9868 12.9725ZM17.9068 13.2229C17.9784 13.2045 18.0535 13.2044 18.1251 13.2228C18.1967 13.2411 18.2625 13.2773 18.3164 13.3279C18.3703 13.3785 18.4105 13.4419 18.4333 13.5123C18.4561 13.5826 18.4607 13.6575 18.4468 13.7301C17.9988 14.4197 16.8212 13.3805 17.9068 13.2229ZM13.6597 13.2981C14.4357 13.2181 13.7629 14.3101 13.3181 13.7869C13.1909 13.5741 13.3949 13.2157 13.6581 13.2989L13.6597 13.2981ZM12.5629 13.4821C12.6901 13.5147 12.8069 13.579 12.9024 13.6691C12.9978 13.7593 13.0688 13.8722 13.1085 13.9973C12.9469 14.9781 11.5757 13.5037 12.5613 13.4829L12.5629 13.4821ZM19.1228 14.5093C19.1914 14.4994 19.2614 14.5121 19.3222 14.5454C19.383 14.5787 19.4314 14.6308 19.46 14.694C19.4886 14.7572 19.4959 14.8279 19.4808 14.8956C19.4657 14.9633 19.4291 15.0242 19.3764 15.0693C18.9372 15.4013 18.5052 14.5685 19.1236 14.5101L19.1228 14.5093ZM15.3973 15.0421C15.6428 15.0733 15.5636 15.4981 15.3365 15.4837C15.0965 15.4389 15.1485 15.0181 15.3973 15.0421ZM14.1525 15.2677C14.3533 15.1261 14.6109 15.4717 14.4445 15.6325C14.2453 15.7733 13.9861 15.4333 14.1525 15.2677ZM16.1316 15.3093C16.79 15.6733 16.4588 16.6005 15.9412 15.9029C15.8997 15.7971 15.896 15.6803 15.9307 15.5721C15.9653 15.464 16.0363 15.3711 16.1316 15.3093ZM16.8228 15.7197C17.122 15.6445 17.014 16.2693 16.7644 16.0525C16.7293 16.0002 16.7158 15.9363 16.7267 15.8743C16.7376 15.8123 16.772 15.7569 16.8228 15.7197ZM12.4845 16.1541C12.6829 16.0965 12.9709 16.1541 13.0261 16.3845C12.9461 16.8452 12.1909 16.9108 11.8005 16.9676C10.9694 16.2365 11.7965 16.1421 12.4845 16.1541ZM19.214 17.1324C20.2539 17.2284 19.014 18.2764 18.4364 17.702C18.3972 17.2956 18.8964 17.1636 19.214 17.1324ZM20.6331 17.4396C21.5795 17.5996 20.5651 18.694 20.0203 18.1404C19.8755 17.7468 20.3403 17.554 20.6331 17.4396ZM13.4965 17.8748C14.0277 17.7612 14.2581 18.9996 13.6301 18.7196C13.5213 18.546 13.2693 17.9812 13.4965 17.8748ZM15.5364 18.0276C15.8108 17.9092 16.166 18.2372 16.0164 18.5156C15.6876 18.9212 15.3693 18.3724 15.5372 18.0284L15.5364 18.0276ZM14.5437 18.2052C14.6101 18.1966 14.6776 18.2063 14.7389 18.2332C14.8003 18.2602 14.8531 18.3033 14.8917 18.3581C14.9303 18.4128 14.9532 18.477 14.958 18.5439C14.9628 18.6107 14.9493 18.6775 14.9189 18.7372C14.6445 18.7612 14.5013 18.4356 14.5437 18.2052Z" fill="#007A50"/>
</g>
</g>
<defs>
<clipPath id="clip0_266_48365">
<rect width="32" height="31.9968" fill="white"/>
</clipPath>
</defs>
</svg>
