<svg width="24" height="24" viewBox="0 0 24 24" fill="none" xmlns="http://www.w3.org/2000/svg">
<g clip-path="url(#clip0_266_46579)">
<mask id="mask0_266_46579" style="mask-type:luminance" maskUnits="userSpaceOnUse" x="0" y="0" width="24" height="24">
<path d="M11.9997 0H11.7339C8.85398 0.0599985 7.37442 0.286193 6.00405 0.757781C4.67833 1.21307 3.48492 1.98738 2.52894 3.01252C1.73501 3.93415 1.1274 5.00103 0.739781 6.15405C0.282709 7.59836 0.0401296 9.10196 0.0197995 10.6167C-4.47024e-09 11.2131 0 11.2953 0 12.0003C0 12.7053 -4.47024e-09 12.7863 0.0197995 13.3803C0.0401508 14.8954 0.282729 16.3994 0.739781 17.8442C1.12774 18.997 1.73531 20.0638 2.52894 20.9857C3.48513 22.0104 4.67849 22.7845 6.00405 23.2398C7.37442 23.712 8.85278 23.9382 11.7339 23.9976H12.2661C15.146 23.9376 16.6262 23.712 17.996 23.2398C19.3217 22.7848 20.5151 22.0107 21.4711 20.9857C22.2647 20.0638 22.8725 18.997 23.2608 17.8442C23.7173 16.3993 23.9599 14.8954 23.9808 13.3803C24 12.7845 24 12.7029 24 12.0003C24 11.2977 24 11.2131 23.9808 10.6167C23.9599 9.10201 23.7173 7.59851 23.2608 6.15405C22.8725 5.00108 22.2645 3.93426 21.4705 3.01252C20.5147 1.98714 19.3212 1.21278 17.9953 0.757781C16.6256 0.286193 15.146 0.0593985 12.2661 0H11.9997Z" fill="white"/>
</mask>
<g mask="url(#mask0_266_46579)">
<path d="M30.093 -0.0527344H-6.09326V5.97352H30.093V-0.0527344Z" fill="#EE161F"/>
<path d="M30.093 18.0266H-6.09326V24.0529H30.093V18.0266Z" fill="#EE161F"/>
<path d="M30.093 5.97363H-6.09326V18.0267H30.093V5.97363Z" fill="white"/>
<path d="M11.8347 5.9729C11.7147 6.56269 10.2442 7.35287 10.4932 7.55386C10.6132 7.42186 10.9372 7.59706 10.7482 7.73926C10.56 7.86902 10.3627 7.98493 10.1578 8.08605C9.79358 8.29004 9.39159 8.51084 10.0714 8.59544C10.2178 8.75203 10.0114 9.01542 9.81638 8.95543C9.70032 8.97325 9.59143 9.0228 9.50176 9.09861C9.41208 9.17442 9.34509 9.27354 9.30819 9.38502C9.199 9.72461 7.16025 10.3606 8.16522 10.5958C8.59421 10.4206 9.2116 10.3072 9.0394 10.9972C8.78801 11.6818 7.94143 11.6194 7.53524 12.1305C7.36691 12.3105 7.18454 12.4768 6.98985 12.6279C7.01745 13.2693 7.77883 12.6825 8.04703 12.5151C8.63621 12.3813 8.56481 13.2309 8.06083 13.2891C7.51957 13.5757 7.03102 13.9523 6.61606 14.4027C6.52906 14.5827 6.28907 14.5281 6.16007 14.6523C6.07548 14.8089 6.28667 14.8923 6.41327 14.8761C7.13841 14.7209 7.83295 14.447 8.46882 14.0655C9.99038 14.3151 7.34804 15.2169 6.94485 15.2889C6.74266 15.2325 6.59026 15.5925 6.81226 15.6567C7.05116 15.7041 7.29686 15.7059 7.53644 15.6621C8.25606 15.4767 8.95456 15.2173 9.62079 14.8881C11.3007 14.7735 10.1194 16.868 9.2836 17.2568C8.95751 17.3617 8.64695 17.5098 8.36022 17.6972C8.12022 17.777 8.48021 18.1034 8.53421 17.8442C8.61338 17.7552 8.71151 17.6851 8.82138 17.6391C8.93125 17.5931 9.05004 17.5724 9.169 17.5784C10.4938 17.504 10.129 16.6016 11.5251 16.8584C11.6877 16.7846 11.9421 16.8278 11.9847 17.0276C12.0621 17.261 12.3033 17.3672 12.4941 17.492C12.5631 17.5892 12.7941 17.8394 12.8457 17.6186C12.7137 16.9214 14.0163 17.4068 14.1789 17.7704C14.2725 17.8994 14.4789 18.1214 14.6301 17.9504C14.8017 17.5622 13.2471 17.0264 13.2537 16.1144C13.2123 15.6405 13.0683 14.4153 13.8747 14.7057C15.5846 15.5421 15.626 14.3343 17.7086 15.8343C18.9086 15.6489 16.2326 14.3943 15.9614 14.1699C15.9154 14.1531 15.875 14.1239 15.8448 14.0854C15.8145 14.0469 15.7956 14.0007 15.7902 13.9521C15.7847 13.9034 15.793 13.8542 15.814 13.81C15.8351 13.7658 15.8681 13.7284 15.9092 13.7019C16.4036 13.3551 16.8176 14.0157 17.3204 13.9779C17.5406 13.9089 17.4338 13.5909 17.237 13.5669C16.676 13.2669 16.3538 12.5727 15.7028 12.4407C15.5718 12.4178 15.4384 12.4109 15.3056 12.4203C15.1814 12.2853 15.347 12.0789 15.5078 12.0957C15.7574 12.0597 17.123 12.2379 16.8662 11.8138C16.3893 11.6227 15.895 11.4784 15.3902 11.383C15.1676 11.3698 15.1952 11.077 15.3902 11.0446C15.716 11.0632 16.0502 11.1778 16.3886 11.2006C16.8356 10.9252 15.4232 10.5088 15.2402 10.2202C14.8863 9.9538 14.5647 9.64661 14.2065 9.38622C13.8381 9.30762 13.6245 8.87263 14.1465 8.90623C14.4715 9.06288 14.8252 9.1511 15.1856 9.16542C15.3764 9.04542 15.1041 8.96983 15.0057 8.92843C14.7576 8.78256 14.5211 8.61789 14.2983 8.43584C14.1057 8.27084 14.4621 8.19585 14.5851 8.26184C14.7897 8.34764 14.8131 8.04885 14.6601 7.97385C13.4565 6.97848 12.3885 7.56406 11.8329 5.9741M10.4938 8.26004C10.7038 8.26664 10.6738 8.64523 10.465 8.62003C10.264 8.60684 10.276 8.21984 10.4938 8.26004ZM12.4737 8.46404C12.6783 8.42744 12.7215 8.80063 12.5175 8.81803C12.3045 8.85583 12.2259 8.44064 12.4737 8.46404ZM11.8935 8.51264C12.3483 8.77003 11.6445 9.10002 11.3817 8.97763C11.2557 8.84443 11.4375 8.64763 11.5779 8.60444C11.6859 8.58284 11.7849 8.53424 11.8935 8.51264ZM13.2297 8.51264C13.2712 8.53569 13.3044 8.57128 13.3244 8.61432C13.3445 8.65736 13.3504 8.70564 13.3413 8.75225C13.3323 8.79886 13.3087 8.84141 13.274 8.87381C13.2393 8.90621 13.1952 8.9268 13.1481 8.93263C12.8229 8.92183 12.9189 8.44964 13.2297 8.51264ZM10.975 8.91223C11.2593 9.19782 10.6612 9.67001 10.4038 9.48941C10.3312 9.19962 10.747 8.99383 10.975 8.91223ZM12.6549 9.69221C12.6981 9.72124 12.7311 9.76312 12.7492 9.81193C12.7674 9.86073 12.7697 9.914 12.7559 9.9642C12.7421 10.0144 12.7129 10.059 12.6724 10.0917C12.6319 10.1244 12.5821 10.1435 12.5301 10.1464C12.2643 10.03 12.4437 9.74081 12.6573 9.69161M11.9901 9.72941C12.1869 9.8212 12.0363 10.1494 11.8383 10.102C11.5383 9.982 11.7123 9.70361 11.9901 9.72941ZM13.4301 9.9172C13.4838 9.90336 13.5401 9.90332 13.5938 9.91708C13.6475 9.93084 13.6969 9.95796 13.7373 9.99592C13.7777 10.0339 13.8079 10.0814 13.825 10.1342C13.8421 10.1869 13.8455 10.2431 13.8351 10.2976C13.4991 10.8148 12.6159 10.0354 13.4301 9.9172ZM10.2448 9.9736C10.8268 9.9136 10.3222 10.7326 9.98858 10.3402C9.89318 10.1806 10.0462 9.9118 10.2436 9.9742L10.2448 9.9736ZM9.42219 10.1116C9.51758 10.136 9.60519 10.1843 9.67677 10.2519C9.74836 10.3195 9.80156 10.4042 9.83138 10.498C9.71018 11.2336 8.68181 10.1278 9.42099 10.1122L9.42219 10.1116ZM14.3421 10.882C14.3935 10.8745 14.446 10.884 14.4916 10.909C14.5373 10.934 14.5735 10.9731 14.595 11.0205C14.6164 11.0679 14.6219 11.1209 14.6106 11.1717C14.5993 11.2225 14.5718 11.2682 14.5323 11.302C14.2029 11.551 13.8789 10.9264 14.3427 10.8826L14.3421 10.882ZM11.5479 11.2816C11.7321 11.305 11.6727 11.6236 11.5023 11.6128C11.3223 11.5792 11.3613 11.2636 11.5479 11.2816ZM10.6144 11.4508C10.765 11.3446 10.9582 11.6038 10.8334 11.7244C10.684 11.83 10.4896 11.575 10.6144 11.4508ZM12.0987 11.482C12.5925 11.755 12.3441 12.4503 11.9559 11.9272C11.9248 11.8479 11.922 11.7602 11.948 11.6791C11.974 11.598 12.0273 11.5283 12.0987 11.482ZM12.6171 11.7898C12.8415 11.7334 12.7605 12.2019 12.5733 12.0394C12.547 12.0001 12.5369 11.9523 12.545 11.9057C12.5532 11.8592 12.579 11.8177 12.6171 11.7898ZM9.36339 12.1155C9.51219 12.0723 9.72818 12.1155 9.76958 12.2883C9.70958 12.6339 9.1432 12.6831 8.85041 12.7257C8.22702 12.1773 8.84741 12.1065 9.36339 12.1155ZM14.4105 12.8493C15.1904 12.9213 14.2605 13.7073 13.8273 13.2765C13.7979 12.9717 14.1723 12.8727 14.4105 12.8493ZM15.4748 13.0797C16.1846 13.1997 15.4238 14.0205 15.0153 13.6053C14.9067 13.3101 15.2552 13.1655 15.4748 13.0797ZM10.1224 13.4061C10.5208 13.3209 10.6936 14.2497 10.2226 14.0397C10.141 13.9095 9.95198 13.4859 10.1224 13.4061ZM11.6523 13.5207C11.8581 13.4319 12.1245 13.6779 12.0123 13.8867C11.7657 14.1909 11.5269 13.7793 11.6529 13.5213L11.6523 13.5207ZM10.9078 13.6539C10.9576 13.6475 11.0082 13.6547 11.0542 13.6749C11.1002 13.6951 11.1398 13.7275 11.1688 13.7685C11.1977 13.8096 11.2149 13.8578 11.2185 13.9079C11.2221 13.958 11.212 14.0081 11.1891 14.0529C10.9834 14.0709 10.876 13.8267 10.9078 13.6539Z" fill="#007A50"/>
</g>
</g>
<defs>
<clipPath id="clip0_266_46579">
<rect width="24" height="23.9976" fill="white"/>
</clipPath>
</defs>
</svg>
