<svg width="24" height="24" viewBox="0 0 24 24" fill="none" xmlns="http://www.w3.org/2000/svg">
<g clip-path="url(#clip0_266_45660)">
<mask id="mask0_266_45660" style="mask-type:luminance" maskUnits="userSpaceOnUse" x="0" y="0" width="24" height="25">
<path d="M12.0009 0H11.7351C8.85486 0.0600135 7.37455 0.287465 6.00405 0.757971C4.67821 1.21334 3.48482 1.9881 2.52919 3.01388C1.73518 3.93573 1.12752 5.00288 0.739855 6.15618C0.283049 7.60073 0.0404516 9.10445 0.0198015 10.6194C-4.47068e-09 11.2153 0 11.2957 0 12.0021C0 12.7085 8.27077e-08 12.7901 0.0186015 13.3824C0.0392399 14.8979 0.281835 16.4023 0.738655 17.8474C1.12646 19.0003 1.73412 20.067 2.52799 20.9885C3.48379 22.0145 4.67738 22.7895 6.00345 23.245C7.37395 23.7155 8.85246 23.9424 11.7345 24.0018H12.2661C15.1463 23.9418 16.6266 23.7155 17.9966 23.245C19.3226 22.7895 20.5162 22.0145 21.472 20.9885C22.2659 20.067 22.8735 19.0003 23.2613 17.8474C23.7185 16.4023 23.9611 14.898 23.9814 13.3824C24 12.7871 24 12.7049 24 12.0021C24 11.2993 24 11.2153 23.9814 10.6188C23.961 9.10383 23.7184 7.60007 23.2613 6.15558C22.874 5.00258 22.2667 3.93565 21.4732 3.01388C20.5173 1.98823 19.3237 1.21368 17.9977 0.758571C16.6278 0.288065 15.1487 0.0606136 12.2673 0.000600092L12.0009 0Z" fill="white"/>
</mask>
<g mask="url(#mask0_266_45660)">
<path d="M32.997 -0.827393H-5.52051V12.0023H32.997V-0.827393Z" fill="white"/>
<path d="M32.997 12.0022H-5.52051V24.8331H32.997V12.0022Z" fill="#FF142B"/>
<path d="M12.2568 0.5L13.2646 0.530273C15.4692 0.619069 16.6981 0.838477 17.8359 1.22949V1.23047C19.0777 1.65786 20.196 2.38264 21.0928 3.3418H21.0938C21.7514 4.10517 22.274 4.9738 22.6406 5.91016L22.7881 6.31543C23.2283 7.71108 23.4625 9.16361 23.4824 10.627V10.6367C23.502 11.225 23.502 11.3039 23.502 12.0029C23.502 12.7023 23.502 12.7787 23.4824 13.3672V13.377C23.4625 14.8403 23.2283 16.2928 22.7881 17.6885C22.4221 18.7761 21.8493 19.7829 21.1016 20.6533C20.2025 21.6163 19.081 22.3438 17.835 22.7715C16.5362 23.2185 15.1158 23.4424 12.2568 23.502H11.7461C8.88628 23.443 7.4667 23.2185 6.16797 22.7715C4.92191 22.3439 3.80009 21.6166 2.90137 20.6533C2.24667 19.8915 1.72591 19.0253 1.36035 18.0918L1.21289 17.6865C0.772895 16.2905 0.53972 14.8376 0.519531 13.374L0.518555 13.3652L0.501953 12.7256C0.499595 12.5457 0.5 12.3513 0.5 12.001C0.5 11.3001 0.499798 11.2234 0.520508 10.6357V10.625C0.540743 9.16178 0.774997 7.70911 1.21484 6.31348C1.58148 5.22584 2.15354 4.21819 2.90137 3.34766C3.79993 2.38463 4.92222 1.65815 6.16797 1.23047C7.30434 0.839355 8.5343 0.619087 10.7393 0.530273L11.7461 0.5H12.2568Z" stroke="#F6F6F6"/>
</g>
</g>
<defs>
<clipPath id="clip0_266_45660">
<rect width="24" height="24.0018" fill="white"/>
</clipPath>
</defs>
</svg>
