<svg width="32" height="32" viewBox="0 0 32 32" fill="none" xmlns="http://www.w3.org/2000/svg">
<g clip-path="url(#clip0_266_47177)">
<mask id="mask0_266_47177" style="mask-type:luminance" maskUnits="userSpaceOnUse" x="0" y="0" width="32" height="32">
<path d="M16 0H15.6456C11.8058 0.079996 9.83231 0.381581 8.0052 1.01035C6.23724 1.61661 4.64589 2.64912 3.37183 4.0166C2.314 5.24543 1.5037 6.66718 0.985551 8.20359C0.377375 10.1304 0.0539761 12.1358 0.0255992 14.1561C4.32112e-07 14.9505 0 15.0592 0 15.996C0 16.9328 4.32112e-07 17.0447 0.0255992 17.8399C0.0539167 19.86 0.377318 21.8651 0.985551 23.7916C1.50278 25.3284 2.31317 26.7504 3.37183 27.9786C4.64522 29.3482 6.23704 30.3822 8.006 30.9889C9.83311 31.6184 11.805 31.9192 15.6464 31.9992H16.3552C20.195 31.9192 22.1677 31.6184 23.9948 30.9889C25.7629 30.3825 27.3543 29.3497 28.6282 27.9818C29.6866 26.7534 30.4969 25.3315 31.0145 23.7948C31.6231 21.8684 31.9465 19.8632 31.9744 17.8431C32 17.0479 32 16.94 32 15.9992C32 15.0584 32 14.9505 31.9744 14.1593C31.9464 12.1389 31.623 10.1335 31.0145 8.20679C30.496 6.67052 29.6857 5.24883 28.6282 4.0198C27.3538 2.65265 25.7626 1.62019 23.9948 1.01355C22.1653 0.381581 20.195 0.079996 16.3544 0H16Z" fill="white"/>
</mask>
<g mask="url(#mask0_266_47177)">
<path d="M42.0003 16.0024H-7.03326V32.3304H42.0003V16.0024Z" fill="white"/>
<path d="M42.0003 -0.330566H-7.03326V16.0022H42.0003V-0.330566Z" fill="#FF142B"/>
<path d="M16.3447 0.5L17.6904 0.540039C20.6389 0.658771 22.295 0.953789 23.833 1.48242C25.5202 2.06313 27.0385 3.04993 28.2549 4.35547C29.2672 5.5328 30.0426 6.89456 30.5381 8.36621C31.1305 10.2433 31.4448 12.1969 31.4717 14.165L31.4727 14.1748C31.4988 14.9616 31.498 15.0689 31.498 16.002C31.498 16.9354 31.4988 17.0392 31.4727 17.8262L31.4717 17.8359C31.4449 19.8044 31.1306 21.7584 30.5381 23.6357C30.0419 25.1101 29.2639 26.4735 28.249 27.6523C27.0326 28.9538 25.516 29.9373 23.8311 30.5156C22.0759 31.1197 20.1629 31.4185 16.3447 31.498H15.6562C11.8365 31.4193 9.92424 31.1198 8.16895 30.5156L7.85449 30.4023C6.29214 29.812 4.88524 28.8692 3.74414 27.6455C2.73194 26.4684 1.95601 25.107 1.45996 23.6357C0.86717 21.7572 0.552561 19.8017 0.525391 17.832V17.8232L0.50293 16.9678C0.499771 16.7269 0.5 16.4668 0.5 15.999C0.5 15.0635 0.499627 14.9593 0.527344 14.1729L0.52832 14.1621C0.555548 12.194 0.869932 10.2404 1.46191 8.36328C1.89713 7.07226 2.54728 5.86569 3.38379 4.79395L3.75391 4.34277C4.89321 3.12398 6.2966 2.1846 7.85449 1.5957L8.16895 1.48242C9.70481 0.953815 11.3622 0.65878 14.3105 0.540039L15.6562 0.5H16.3447Z" stroke="#F6F6F6"/>
</g>
</g>
<defs>
<clipPath id="clip0_266_47177">
<rect width="32" height="31.9992" fill="white"/>
</clipPath>
</defs>
</svg>
