<svg width="32" height="32" viewBox="0 0 32 32" fill="none" xmlns="http://www.w3.org/2000/svg">
<g clip-path="url(#clip0_266_47359)">
<mask id="mask0_266_47359" style="mask-type:luminance" maskUnits="userSpaceOnUse" x="0" y="0" width="32" height="32">
<path d="M16.0008 0H15.6464C11.8062 0.080004 9.83249 0.381619 8.0052 1.01125C6.23684 1.61671 4.64519 2.64914 3.37137 4.017C2.31258 5.24626 1.50212 6.66911 0.984849 8.20681C0.376174 10.1332 0.0527297 12.1383 0.0248013 14.1583C1.49019e-08 14.9519 0 15.0624 0 16.0032C0 16.944 1.49019e-08 17.0521 0.0248013 17.8433C0.0527321 19.8636 0.376175 21.8689 0.984849 23.7956C1.50268 25.3326 2.31309 26.7548 3.37137 27.9838C4.64568 29.3513 6.23715 30.3839 8.0052 30.9904C9.83249 31.6192 11.8046 31.9216 15.6464 31.9992H16.3544C20.1946 31.9192 22.1675 31.6192 23.994 30.9904C25.7624 30.3837 27.3544 29.3511 28.6294 27.9838C29.6872 26.7547 30.4971 25.3325 31.0144 23.7956C31.6242 21.8692 31.9476 19.8637 31.9744 17.8433C32 17.0489 32 16.9384 32 16.0032C32 15.068 32 14.9519 31.9744 14.1583C31.9476 12.1382 31.6241 10.1329 31.0144 8.20681C30.4974 6.66976 29.6875 5.24747 28.6294 4.0186C27.3552 2.65053 25.7633 1.61762 23.9948 1.01125C22.1683 0.381619 20.1946 0.079204 16.3544 0H16.0008Z" fill="white"/>
</mask>
<g mask="url(#mask0_266_47359)">
<path d="M53.6651 -0.0336914H-0.526367V18.016H53.6651V-0.0336914Z" fill="#FF1228"/>
<path d="M53.6651 18.0161H-0.526367V36.0658H53.6651V18.0161Z" fill="white"/>
<path d="M6.87241 9.22284C6.85382 8.12843 7.17338 7.05494 7.78749 6.14888C8.4016 5.24281 9.28034 4.54832 10.3038 4.16019C9.58506 3.97352 8.83484 3.94199 8.10299 4.0677C7.37114 4.19342 6.67444 4.4735 6.05921 4.88931C5.44398 5.30513 4.92433 5.84715 4.53479 6.47934C4.14526 7.11154 3.89477 7.81942 3.79999 8.55591C3.70521 9.29241 3.76831 10.0406 3.98508 10.7509C4.20186 11.4611 4.56735 12.117 5.05725 12.6751C5.54715 13.2331 6.15024 13.6804 6.82641 13.9874C7.50259 14.2943 8.23635 14.4537 8.97892 14.4551C9.42595 14.4552 9.87108 14.3968 10.303 14.2815C9.28008 13.8939 8.4017 13.2 7.78774 12.2947C7.17377 11.3893 6.85412 10.3166 6.87241 9.22284Z" fill="white"/>
<path d="M12.6095 4.96338L12.8983 5.90983H13.8359L13.0743 6.49546L13.3639 7.4427L12.6063 6.85627L11.8486 7.4427L12.1375 6.49546L11.3806 5.90983H12.3167L12.6095 4.96338Z" fill="white"/>
<path d="M15.5408 7.15088L15.8304 8.09813H16.7673L16.0097 8.68456L16.2985 9.6318L15.5408 9.04697L14.7832 9.6318L15.0744 8.68696L14.3168 8.10053H15.2536L15.5408 7.15088Z" fill="white"/>
<path d="M9.67019 7.15088L9.959 8.09813H10.8966L10.1382 8.68456L10.4278 9.6318L9.67019 9.04697L8.91175 9.6318L9.20136 8.68456L8.44373 8.09813H9.38057L9.67019 7.15088Z" fill="white"/>
<path d="M10.8726 10.6069L11.1631 11.5534H12.0991L11.3423 12.139L11.6343 13.0871L10.8758 12.5014L10.1142 13.0871L10.4046 12.139L9.64539 11.5534H10.5822L10.8726 10.6069Z" fill="white"/>
<path d="M14.4224 10.6069L14.7121 11.5534H15.6489L14.8905 12.139L15.1801 13.0871L14.4224 12.5014L13.664 13.0871L13.9544 12.139L13.1968 11.5534H14.1328L14.4224 10.6069Z" fill="white"/>
<path d="M15.6478 0C11.808 0.080004 9.83459 0.380819 8.00752 1.00965C6.23989 1.61646 4.64888 2.64933 3.37507 4.017C2.31668 5.24568 1.50609 6.66763 0.988048 8.20441C0.379461 10.1311 0.0560591 12.1364 0.0281202 14.1567C0.00012233 14.9511 0.00012207 15.0616 0.00012207 16.0008C0.00012207 16.94 0.000122121 17.0497 0.0257202 17.8409C0.0535926 19.8615 0.376996 21.8671 0.985648 23.794C1.50382 25.3324 2.31526 26.7558 3.37507 27.9854C4.64893 29.3528 6.23994 30.3854 8.00752 30.992C9.83459 31.6208 11.8064 31.9224 15.6478 32.0016H16.3565C20.1962 31.9216 22.1689 31.6208 23.9959 30.992C25.7636 30.3852 27.3549 29.3527 28.6292 27.9854C29.6878 26.7567 30.4981 25.3344 31.0154 23.7972C31.6244 21.8704 31.9478 19.8647 31.9753 17.8441C32.0017 17.0497 32.0017 16.9408 32.0017 16.004C32.0017 15.0672 32.0017 14.9543 31.9753 14.1599C31.9478 12.1396 31.6244 10.1342 31.0154 8.20761C30.4979 6.67074 29.6876 5.24872 28.6292 4.0202C27.356 2.65184 25.7656 1.61791 23.9983 1.00965C22.1689 0.380819 20.197 0.080004 16.3565 0H15.6478Z" stroke="#F6F6F6"/>
</g>
</g>
<defs>
<clipPath id="clip0_266_47359">
<rect width="32" height="31.9992" fill="white"/>
</clipPath>
</defs>
</svg>
