<svg width="32" height="32" viewBox="0 0 32 32" fill="none" xmlns="http://www.w3.org/2000/svg">
<g clip-path="url(#clip0_266_47094)">
<mask id="mask0_266_47094" style="mask-type:luminance" maskUnits="userSpaceOnUse" x="0" y="0" width="32" height="33">
<path d="M16.0016 0H15.6472C11.8068 0.080008 9.83218 0.381638 8.0056 1.0105C6.2378 1.61723 4.64655 2.64985 3.37234 4.0172C2.31371 5.24607 1.50322 6.66842 0.985699 8.20562C0.376217 10.1319 0.0527388 12.1372 0.025603 14.1574C4.32177e-07 14.9519 0 15.0615 0 16.0016C0 16.9417 4.32177e-07 17.0505 0.025603 17.8418C0.0527414 19.8623 0.376219 21.8678 0.985699 23.7944C1.50304 25.3317 2.31354 26.754 3.37234 27.9828C4.64646 29.3504 6.23771 30.3833 8.0056 30.9903C9.83218 31.6192 11.8052 31.9208 15.6472 32.0008H16.356C20.1964 31.9208 22.1694 31.6192 23.996 30.9903C25.7645 30.3836 27.3565 29.351 28.6317 27.9836C29.6879 26.7548 30.4967 25.3334 31.0135 23.7976C31.6226 21.8709 31.9461 19.8654 31.9736 17.845C32 17.0505 32 16.9409 32 16.0048C32 15.0687 32 14.9551 31.9736 14.1606C31.9461 12.1404 31.6226 10.1352 31.0135 8.20882C30.4956 6.67196 29.6855 5.24972 28.6277 4.0204C27.3525 2.65301 25.7605 1.62041 23.992 1.0137C22.1694 0.381638 20.1972 0.0792079 16.356 0H16.0016Z" fill="white"/>
</mask>
<g mask="url(#mask0_266_47094)">
<path d="M-8.63762 -0.452632L-8.67047 32.4019L40.6513 32.4512L40.6841 -0.403311L-8.63762 -0.452632Z" fill="#FF3C30"/>
<path d="M24.5761 13.6286L18.4154 13.6222L18.4218 7.8264L13.6294 7.8208L13.623 13.6166L7.46235 13.6094L7.45755 18.4043L13.6182 18.4107L13.611 24.2064L18.4042 24.2112L18.4106 18.4163L24.5713 18.4219L24.5761 13.6286Z" fill="white"/>
</g>
</g>
<defs>
<clipPath id="clip0_266_47094">
<rect width="32" height="32.0008" fill="white"/>
</clipPath>
</defs>
</svg>
