<svg width="32" height="32" viewBox="0 0 32 32" fill="none" xmlns="http://www.w3.org/2000/svg">
<g clip-path="url(#clip0_266_47452)">
<mask id="mask0_266_47452" style="mask-type:luminance" maskUnits="userSpaceOnUse" x="0" y="0" width="32" height="32">
<path d="M15.9992 0H15.6448C11.8052 0.079992 9.83262 0.381562 8.0048 1.0095C6.23745 1.61673 4.64661 2.64936 3.37246 4.0164C2.31397 5.24437 1.50363 6.66593 0.986301 8.20238C0.3773 10.1281 0.053894 12.1327 0.0263974 14.1522C-5.95987e-09 14.9481 0 15.0569 0 15.9968C0 16.9367 -5.95987e-09 17.0455 0.0263974 17.8366C0.053876 19.8567 0.377281 21.8618 0.986301 23.788C1.50312 25.3271 2.31346 26.7514 3.37246 27.982C4.6467 29.3486 6.23756 30.3806 8.0048 30.9873C9.83262 31.6168 11.8036 31.9176 15.6448 31.9968H16.3544C20.194 31.9168 22.1666 31.6168 23.9936 30.9873C25.7611 30.3807 27.3522 29.3486 28.6267 27.982C29.6849 26.7529 30.4952 25.3306 31.0129 23.7936C31.6216 21.8673 31.945 19.8622 31.9728 17.8422C32 17.0479 32 16.9383 32 16.0024C32 15.0665 32 14.9537 31.9728 14.1578C31.9449 12.1383 31.6216 10.1338 31.0129 8.20798C30.4954 6.67087 29.6851 5.24855 28.6267 4.0196C27.3523 2.65253 25.7612 1.6199 23.9936 1.0127C22.1666 0.381562 20.1948 0.0791921 16.3544 0H15.9992Z" fill="white"/>
</mask>
<g mask="url(#mask0_266_47452)">
<path d="M3.08522 -0.356934H-0.754395L18.8036 12.7618H42.4629V10.5308H19.5116L3.08522 -0.356934Z" fill="white"/>
<path d="M-0.816895 32.4277H3.13231L19.4763 21.5416H42.4628V19.2778H18.8019L-0.816895 32.4277Z" fill="white"/>
<path d="M-6.78662 3.53857V6.2711L8.41746 16.0373L-6.78662 25.782V28.4937L11.9203 16.0373L-6.78662 3.53857Z" fill="#F9B500"/>
<path d="M-6.78662 6.27051V25.7206L7.94231 16.0367L-6.78662 6.27051Z" fill="#12100B"/>
<path d="M-6.78662 6.27051L7.94231 16.0367L-6.78662 25.7206V25.7798L8.41746 16.0367L-6.78662 6.27051Z" fill="#12100B"/>
<path d="M3.13232 32.4276H42.4628V21.5415H19.4763L3.13232 32.4276Z" fill="#2C2E7F"/>
<path d="M58.834 12.7562V19.2811H35.8571H18.8028L-0.816018 32.4278H-6.78662V28.4938L11.9211 16.0366L-6.78662 3.53788V-0.356934H-0.756024L18.8028 12.7618H35.8571V12.7546L58.834 12.7562Z" fill="#007646"/>
<path d="M19.5116 10.5308H42.4629V-0.356934H3.08521L19.5116 10.5308Z" fill="#D92C23"/>
</g>
</g>
<defs>
<clipPath id="clip0_266_47452">
<rect width="32" height="31.9968" fill="white"/>
</clipPath>
</defs>
</svg>
