<svg width="32" height="32" viewBox="0 0 32 32" fill="none" xmlns="http://www.w3.org/2000/svg">
<g clip-path="url(#clip0_266_46982)">
<mask id="mask0_266_46982" style="mask-type:luminance" maskUnits="userSpaceOnUse" x="0" y="0" width="32" height="32">
<path d="M15.9972 0.00239984H15.6436C11.8039 0.0823938 9.83046 0.383171 8.0034 1.01192C6.23548 1.61902 4.64404 2.65169 3.36935 4.0189C2.31134 5.24849 1.50155 6.6714 0.984726 8.20898C0.376229 10.1354 0.0528288 12.1405 0.0247982 14.1605C1.1026e-07 14.9549 0 15.0653 0 16.0044C0 16.9435 1.1026e-07 17.0531 0.0247982 17.8443C0.0528197 19.8646 0.376219 21.8699 0.984726 23.7966C1.50183 25.3334 2.31161 26.7554 3.36935 27.9843C4.64409 29.3513 6.23553 30.3837 8.0034 30.9905C9.83046 31.6192 11.8015 31.9208 15.6436 32H16.3524C20.1921 31.92 22.1655 31.6192 23.9918 30.9905C25.7597 30.3837 27.3511 29.3513 28.6259 27.9843C29.6836 26.7553 30.4937 25.3333 31.0113 23.7966C31.6203 21.87 31.9437 19.8646 31.9712 17.8443C31.996 17.0499 31.996 16.9411 31.996 16.0044C31.996 15.0677 31.996 14.9549 31.9712 14.1605C31.9436 12.1405 31.6202 10.1353 31.0113 8.20898C30.4935 6.67263 29.6835 5.25091 28.6259 4.0221C27.3516 2.65274 25.7598 1.61811 23.991 1.00952C22.1647 0.380771 20.1929 0.0783941 16.3516 0L15.9972 0.00239984Z" fill="white"/>
</mask>
<g mask="url(#mask0_266_46982)">
<path d="M54.4663 29.2129H-8.24658V31.7511H54.4663V29.2129Z" fill="#D11242"/>
<path d="M54.4663 26.6772H-8.24658V29.2139H54.4663V26.6772Z" fill="white"/>
<path d="M54.4663 24.1396H-8.24658V26.6771H54.4663V24.1396Z" fill="#D11242"/>
<path d="M54.4663 21.6021H-8.24658V24.1395H54.4663V21.6021Z" fill="white"/>
<path d="M54.4663 19.0654H-8.24658V21.6036H54.4663V19.0654Z" fill="#D11242"/>
<path d="M54.4663 16.5283H-8.24658V19.0657H54.4663V16.5283Z" fill="white"/>
<path d="M54.4663 13.9917H16.8387V16.5283H54.4663V13.9917Z" fill="#D11242"/>
<path d="M54.4663 11.4556H16.8387V13.9922H54.4663V11.4556Z" fill="white"/>
<path d="M54.4663 8.91748H16.8387V11.4557H54.4663V8.91748Z" fill="#D11242"/>
<path d="M54.4663 6.38086H16.8387V8.91747H54.4663V6.38086Z" fill="white"/>
<path d="M54.4663 3.84424H16.8387V6.38165H54.4663V3.84424Z" fill="#D11242"/>
<path d="M54.4663 1.30615H16.8387V3.84436H54.4663V1.30615Z" fill="white"/>
<path d="M54.4663 -1.23047H16.8387V1.30614H54.4663V-1.23047Z" fill="#D11242"/>
<path d="M16.8387 -1.23047H-8.24658V16.5282H16.8387V-1.23047Z" fill="#002D62"/>
<path d="M-0.401581 3.02499L-0.204796 2.41703L-0.721558 2.04106H-0.0816055L0.11598 1.43311L0.313565 2.04106H0.953517L0.435956 2.41703L0.633541 3.02499L0.11678 2.64901L-0.401581 3.02499Z" fill="white"/>
<path d="M1.68866 1.24942L1.88624 0.640664L1.36868 0.265493H2.00863L2.20622 -0.343262L2.4038 0.265493H3.04376L2.527 0.640664L2.72458 1.24942L2.20702 0.873447L1.68866 1.24942Z" fill="white"/>
<path d="M3.77893 3.02499L3.97572 2.41703L3.45895 2.04106H4.09891L4.29729 1.43311L4.49408 2.04106H5.13403L4.61727 2.41703L4.81485 3.02499L4.29809 2.64901L3.77893 3.02499Z" fill="white"/>
<path d="M5.86917 1.24942L6.06675 0.640664L5.54919 0.265493H6.18915L6.38593 -0.343262L6.58432 0.265493H7.22427L6.70671 0.640664L6.90429 1.24942L6.38673 0.873447L5.86917 1.24942Z" fill="white"/>
<path d="M7.95941 3.02499L8.157 2.41703L7.63943 2.04106H8.27939L8.47617 1.43311L8.67456 2.04106H9.31451L8.79695 2.41703L8.99453 3.02499L8.47217 2.64901L7.95941 3.02499Z" fill="white"/>
<path d="M10.0489 1.24942L10.2464 0.640664L9.72968 0.265493H10.3696L10.5672 -0.343262L10.7648 0.265493H11.4047L10.888 0.640664L11.0848 1.24942L10.5672 0.873447L10.0489 1.24942Z" fill="white"/>
<path d="M12.1391 3.02499L12.3367 2.41703L11.8199 2.04106H12.4599L12.6575 1.43311L12.8558 2.04106H13.4958L12.9774 2.41703L13.175 3.02499L12.6575 2.64901L12.1391 3.02499Z" fill="white"/>
<path d="M14.2317 1.24955L14.4293 0.640799L13.9117 0.264028H14.5517L14.7493 -0.344727L14.9469 0.264028H15.5868L15.0685 0.639199L15.266 1.24795L14.7485 0.871982L14.2317 1.24955Z" fill="white"/>
<path d="M-0.401581 6.58083L-0.204796 5.97367L-0.721558 5.5969H-0.0816055L0.11598 4.98975L0.313565 5.5969H0.953517L0.435956 5.97367L0.633541 6.58083L0.11678 6.20485L-0.401581 6.58083Z" fill="white"/>
<path d="M1.68866 4.80251L1.88624 4.19535L1.36868 3.81858H2.00863L2.20622 3.21143L2.4038 3.81858H3.04376L2.527 4.19535L2.72458 4.80251L2.20702 4.42653L1.68866 4.80251Z" fill="white"/>
<path d="M3.77893 6.58083L3.97572 5.97367L3.45895 5.5969H4.09891L4.29729 4.98975L4.49408 5.5969H5.13403L4.61727 5.97367L4.81485 6.58083L4.29649 6.20885L3.77893 6.58083Z" fill="white"/>
<path d="M5.86917 4.80251L6.06675 4.19535L5.54919 3.81858H6.18915L6.38593 3.21143L6.58432 3.81858H7.22427L6.70671 4.19535L6.90429 4.80251L6.38673 4.42653L5.86917 4.80251Z" fill="white"/>
<path d="M7.95941 6.58083L8.157 5.97367L7.63943 5.5969H8.27939L8.47617 4.98975L8.67456 5.5969H9.31451L8.79695 5.97367L8.99453 6.58083L8.47217 6.20885L7.95941 6.58083Z" fill="white"/>
<path d="M10.0489 4.80251L10.2464 4.19535L9.72968 3.81858H10.3696L10.5672 3.21143L10.7648 3.81858H11.4047L10.888 4.19535L11.0848 4.80251L10.5672 4.42653L10.0489 4.80251Z" fill="white"/>
<path d="M12.1391 6.58083L12.3367 5.97367L11.8199 5.5969H12.4599L12.6575 4.98975L12.8558 5.5969H13.4958L12.9774 5.97367L13.175 6.58083L12.6575 6.20485L12.1391 6.58083Z" fill="white"/>
<path d="M14.2317 4.80251L14.4293 4.19535L13.9117 3.81858H14.5517L14.7493 3.21143L14.9469 3.81858H15.5868L15.0685 4.19535L15.266 4.80251L14.7485 4.42653L14.2317 4.80251Z" fill="white"/>
<path d="M-0.401581 10.1365L-0.204796 9.52934L-0.721558 9.15256H-0.0816055L0.11598 8.54541L0.313565 9.15256H0.953517L0.435956 9.52934L0.633541 10.1365L0.11678 9.76132L-0.401581 10.1365Z" fill="white"/>
<path d="M1.68866 8.35932L1.88624 7.75217L1.36868 7.3754H2.00863L2.20622 6.76904L2.4038 7.3762H3.04376L2.527 7.75297L2.72458 8.36012L2.20702 7.98495L1.68866 8.35932Z" fill="white"/>
<path d="M3.77893 10.1365L3.97572 9.52934L3.45895 9.15256H4.09891L4.29729 8.54541L4.49408 9.15256H5.13403L4.61727 9.52934L4.81485 10.1365L4.29809 9.76132L3.77893 10.1365Z" fill="white"/>
<path d="M5.86917 8.35932L6.06675 7.75217L5.54919 7.3754H6.18915L6.38593 6.76904L6.58432 7.3762H7.22427L6.70671 7.75297L6.90429 8.36012L6.38673 7.98495L5.86917 8.35932Z" fill="white"/>
<path d="M7.95941 10.1365L8.157 9.52934L7.63943 9.15256H8.27939L8.47617 8.54541L8.67456 9.15256H9.31451L8.79695 9.52934L8.99453 10.1365L8.47697 9.76132L7.95941 10.1365Z" fill="white"/>
<path d="M10.0489 8.35932L10.2464 7.75217L9.72968 7.3754H10.3696L10.5664 6.76904L10.764 7.3762H11.4039L10.8872 7.75297L11.084 8.36012L10.5664 7.98495L10.0489 8.35932Z" fill="white"/>
<path d="M12.1391 10.1365L12.3367 9.52934L11.8199 9.15256H12.4599L12.6575 8.54541L12.8558 9.15256H13.4958L12.9774 9.52934L13.175 10.1365L12.6575 9.76132L12.1391 10.1365Z" fill="white"/>
<path d="M14.2317 8.35932L14.4293 7.75217L13.9117 7.3754H14.5517L14.7469 6.76904L14.9445 7.3762H15.5844L15.0661 7.75297L15.2636 8.36012L14.7461 7.98495L14.2317 8.35932Z" fill="white"/>
<path d="M-0.401581 13.6934L-0.204796 13.0855L-0.721558 12.7095H-0.0816055L0.11598 12.1016L0.313565 12.7095H0.953517L0.435956 13.0855L0.633541 13.6934L0.11678 13.3175L-0.401581 13.6934Z" fill="white"/>
<path d="M1.68866 11.9159L1.88624 11.308L1.36868 10.932H2.00863L2.20622 10.3232L2.4038 10.932H3.04376L2.527 11.308L2.72458 11.9159L2.20702 11.54L1.68866 11.9159Z" fill="white"/>
<path d="M3.77893 13.6934L3.97572 13.0855L3.45895 12.7095H4.09891L4.29729 12.1016L4.49408 12.7095H5.13403L4.61727 13.0855L4.81485 13.6934L4.29809 13.3175L3.77893 13.6934Z" fill="white"/>
<path d="M5.86917 11.9159L6.06675 11.308L5.54919 10.932H6.18915L6.38593 10.3232L6.58432 10.932H7.22427L6.70671 11.308L6.90429 11.9159L6.38673 11.54L5.86917 11.9159Z" fill="white"/>
<path d="M7.95941 13.6934L8.157 13.0855L7.63943 12.7095H8.27939L8.47617 12.1016L8.67456 12.7095H9.31451L8.79695 13.0855L8.99453 13.6934L8.47697 13.3175L7.95941 13.6934Z" fill="white"/>
<path d="M10.0489 11.9159L10.2464 11.308L9.72968 10.932H10.3696L10.5672 10.3232L10.7648 10.932H11.4047L10.888 11.308L11.0848 11.9159L10.5672 11.54L10.0489 11.9159Z" fill="white"/>
<path d="M12.1391 13.6934L12.3367 13.0855L11.8199 12.7095H12.4599L12.6575 12.1016L12.8558 12.7095H13.4958L12.9774 13.0855L13.175 13.6934L12.6575 13.3175L12.1391 13.6934Z" fill="white"/>
<path d="M14.2317 11.9157L14.4293 11.3078L13.9117 10.9286H14.5517L14.7493 10.3198L14.9469 10.9286H15.5868L15.0685 11.3046L15.266 11.9125L14.7485 11.5365L14.2317 11.9157Z" fill="white"/>
<path d="M1.68866 15.4715L1.88624 14.8643L1.36868 14.4883H2.00863L2.20622 13.8804L2.4038 14.4883H3.04376L2.527 14.8643L2.72458 15.4715L2.20702 15.0955L1.68866 15.4715Z" fill="white"/>
<path d="M5.86917 15.4715L6.06675 14.8643L5.54919 14.4883H6.18915L6.38593 13.8804L6.58432 14.4883H7.22427L6.70671 14.8643L6.90429 15.4715L6.38673 15.0955L5.86917 15.4715Z" fill="white"/>
<path d="M10.0489 15.4715L10.2464 14.8643L9.72968 14.4883H10.3696L10.5672 13.8804L10.7648 14.4883H11.4047L10.888 14.8643L11.0848 15.4715L10.5672 15.0955L10.0489 15.4715Z" fill="white"/>
<path d="M14.2317 15.4715L14.4293 14.8643L13.9117 14.4883H14.5517L14.7493 13.8804L14.9469 14.4883H15.5868L15.0685 14.8643L15.266 15.4715L14.7485 15.0955L14.2317 15.4715Z" fill="white"/>
</g>
</g>
<defs>
<clipPath id="clip0_266_46982">
<rect width="31.996" height="32" fill="white"/>
</clipPath>
</defs>
</svg>
