<svg width="32" height="32" viewBox="0 0 32 32" fill="none" xmlns="http://www.w3.org/2000/svg">
<g clip-path="url(#clip0_266_47186)">
<mask id="mask0_266_47186" style="mask-type:luminance" maskUnits="userSpaceOnUse" x="0" y="0" width="32" height="32">
<path d="M15.9992 0H15.6448C11.8052 0.079992 9.83262 0.381562 8.0048 1.0103C6.23731 1.61682 4.64636 2.64925 3.37246 4.0164C2.31438 5.24496 1.50409 6.6667 0.986301 8.20318C0.377731 10.1298 0.0543379 12.1351 0.0263974 14.1554C-5.95987e-09 14.9497 0 15.0585 0 15.9952C0 16.9319 -5.95987e-09 17.0439 0.0263974 17.839C0.0542872 19.8588 0.377683 21.8636 0.986301 23.7896C1.50318 25.3268 2.31356 26.7489 3.37246 27.9772C4.64618 29.3459 6.23744 30.3797 8.0056 30.9873C9.83342 31.6168 11.8052 31.9176 15.6456 31.9976H16.3552C20.1948 31.9176 22.1674 31.6168 23.9944 30.9873C25.7623 30.3807 27.3535 29.348 28.6275 27.9804C29.6862 26.7519 30.4965 25.3298 31.0137 23.7928C31.6219 21.8667 31.9453 19.8619 31.9736 17.8422C32 17.0471 32 16.9383 32 15.9984C32 15.0585 32 14.9497 31.9736 14.1586C31.9453 12.1384 31.6219 10.1331 31.0137 8.20638C30.4956 6.67004 29.6853 5.24835 28.6275 4.0196C27.3535 2.65226 25.7622 1.61982 23.9944 1.0135C22.1674 0.384762 20.1956 0.0831917 16.3552 0.00319973L15.9992 0Z" fill="white"/>
</mask>
<g mask="url(#mask0_266_47186)">
<path d="M54.161 -0.739746H-5.72339V39.1531H54.161V-0.739746Z" fill="#F20000"/>
<path d="M16.2312 -1.36621H-8.31274V14.9826H16.2312V-1.36621Z" fill="#0029CC"/>
<path d="M11.7852 9.17744C11.8748 8.76118 11.8748 8.33062 11.7852 7.91437L14.1442 8.5455L11.7852 9.17744ZM11.5004 3.96916L9.77262 5.69459C10.1785 5.82512 10.5519 6.04084 10.8677 6.32732L11.5004 3.96916ZM11.7084 7.63039L13.4355 5.90337L11.0749 6.5353C11.3619 6.85084 11.578 7.22426 11.7084 7.63039ZM11.0749 10.5525L13.4355 11.1844L11.7084 9.45821C11.5776 9.86394 11.3616 10.237 11.0749 10.5525ZM9.48785 5.61939L8.85591 3.26123L8.22397 5.61939C8.6405 5.52981 9.07132 5.52981 9.48785 5.61939ZM8.22397 11.4724L8.85591 13.8322L9.48785 11.4748C9.07132 11.5644 8.6405 11.5644 8.22397 11.4748M5.85941 8.5479C5.85877 8.33443 5.88103 8.1215 5.9258 7.91277L3.56604 8.5439L5.9258 9.17584C5.88082 8.9682 5.85803 8.75636 5.85781 8.5439M6.21058 13.1202L7.9376 11.394C7.53195 11.2633 7.15869 11.0479 6.84251 10.7621L6.21058 13.1202ZM6.63533 6.5337L4.27477 5.90177L6.0058 7.63039C6.13624 7.22426 6.35228 6.85084 6.63933 6.5353M6.0058 9.46141L4.27877 11.1876L6.63933 10.5557C6.35262 10.2402 6.13662 9.86714 6.0058 9.46141ZM9.77502 11.3956L11.5028 13.1218L10.8701 10.7637C10.5541 11.0497 10.1808 11.2651 9.77502 11.3956ZM7.9392 5.69459L6.21218 3.96916L6.84411 6.32732C7.16004 6.041 7.53336 5.8253 7.9392 5.69459ZM8.85591 5.90337C8.33403 5.90432 7.82413 6.05994 7.39066 6.35057C6.95719 6.64121 6.6196 7.05381 6.42054 7.53624C6.22148 8.01867 6.16989 8.54928 6.27228 9.06103C6.37468 9.57277 6.62647 10.0427 6.99583 10.4114C7.3652 10.7801 7.83556 11.031 8.34749 11.1325C8.85941 11.2339 9.38993 11.1814 9.872 10.9814C10.3541 10.7815 10.7661 10.4432 11.0559 10.0092C11.3457 9.57516 11.5004 9.06499 11.5004 8.5431C11.4988 7.84269 11.2194 7.17152 10.7237 6.6767C10.228 6.18189 9.55632 5.90379 8.85591 5.90337Z" fill="white"/>
</g>
</g>
<defs>
<clipPath id="clip0_266_47186">
<rect width="32" height="31.9976" fill="white"/>
</clipPath>
</defs>
</svg>
