<svg width="24" height="24" viewBox="0 0 24 24" fill="none" xmlns="http://www.w3.org/2000/svg">
<g clip-path="url(#clip0_266_45350)">
<mask id="mask0_266_45350" style="mask-type:luminance" maskUnits="userSpaceOnUse" x="0" y="0" width="24" height="25">
<path d="M12.0009 0H11.7351C8.85486 0.0600045 7.37455 0.285621 6.00405 0.757257C4.67832 1.21283 3.48484 1.98719 2.52859 3.01223C1.73505 3.93404 1.12743 5.00074 0.739256 6.15346C0.282444 7.59841 0.0398486 9.1025 0.0192015 10.6178C3.80008e-08 11.2136 0 11.2958 0 12.0009C0 12.706 3.80008e-08 12.7876 0.0192015 13.381C0.0398917 14.8963 0.282486 16.4004 0.739256 17.8453C1.12619 18.9993 1.73324 20.0673 2.52679 20.9902C3.48246 22.0149 4.67533 22.7891 6.00045 23.2445C7.37095 23.7156 8.84946 23.9424 11.7315 24.0018H12.2631C15.1433 23.9418 16.6236 23.7156 17.9935 23.2445C19.3202 22.7898 20.5146 22.0155 21.4714 20.9902C22.265 20.0684 22.8726 19.0017 23.2607 17.8489C23.7172 16.4039 23.9598 14.8999 23.9808 13.3846C24 12.7888 24 12.7066 24 12.0045C24 11.3024 24 11.2172 23.9808 10.6214C23.9599 9.10613 23.7173 7.60208 23.2607 6.15706C22.8723 5.00444 22.2647 3.93779 21.4714 3.01583C20.5155 1.98932 19.3217 1.21369 17.9953 0.757257C16.6254 0.285621 15.1463 0.0588044 12.2649 0H12.0009Z" fill="white"/>
</mask>
<g mask="url(#mask0_266_45350)">
<path d="M40.434 -0.971436H-2.95282V27.9321H40.434V-0.971436Z" fill="#19307A"/>
<path d="M3.87266 11.6548L4.28549 12.8837L5.50899 12.4384L4.80033 13.5251L5.91342 14.1996L4.61672 14.3262L4.78053 15.6115L3.87266 14.682L2.96419 15.6115L3.12861 14.3262L1.83191 14.1996L2.94499 13.5251L2.23574 12.4384L3.45983 12.8837L3.87266 11.6548Z" fill="white"/>
<path d="M15.9294 8.39771L16.152 9.06196L16.8121 8.82194L16.4292 9.40938L17.0293 9.77481L16.3278 9.84261L16.4166 10.5375L15.9258 10.0346L15.4344 10.5375L15.5238 9.84261L14.8223 9.77481L15.4224 9.40938L15.0389 8.82194L15.699 9.06196L15.9294 8.39771Z" fill="white"/>
<path d="M12.3927 -0.34668H-4.62036V10.6491H12.3927V-0.34668Z" fill="#19307A"/>
<path d="M6.21406 6.55859H5.09198V7.13524L10.454 10.6491H12.3927V10.6461L6.21406 6.55859Z" fill="white"/>
<path d="M7.32416 6.55844L12.3927 9.91029V9.52926L7.857 6.55664L7.32416 6.55844Z" fill="white"/>
<path d="M-0.114023 6.55844L-4.62036 9.48726V10.6369L1.66451 6.55664L-0.114023 6.55844Z" fill="white"/>
<path d="M2.67917 6.63062L-3.5163 10.6491H-2.74284L2.67917 7.12625V6.63062Z" fill="white"/>
<path d="M0.573028 3.74497L-4.62036 0.36792V0.76875L-0.0816207 3.74497H0.573028Z" fill="white"/>
<path d="M7.88095 3.74504L12.3933 0.813219V-0.338867L6.11682 3.74504H7.88095Z" fill="white"/>
<path d="M2.67918 3.74503V3.16418L-2.67862 -0.34668H-4.59576L1.69571 3.74503H2.67918Z" fill="white"/>
<path d="M5.09198 3.68202L11.2808 -0.34668H10.5104L5.09198 3.17498V3.68202Z" fill="white"/>
<path d="M2.67919 6.55859H1.66451L-4.62036 10.6371V10.6491H-3.51628L2.67919 6.6288V6.55859Z" fill="#FF0102"/>
<path d="M5.09198 3.74503H6.11686L12.3927 -0.338879V-0.34668H11.2808L5.09198 3.68202V3.74503Z" fill="#FF0102"/>
<path d="M6.21405 6.55859L12.3945 10.6461V9.91045L7.32593 6.55859H6.21405Z" fill="#FF0102"/>
<path d="M1.69571 3.74503L-4.59576 -0.34668H-4.62036V0.367974L0.573028 3.74503H1.69571Z" fill="#FF0102"/>
<path d="M3.15922 5.98315H-4.62036V6.5586H2.67919V10.6491H3.15922V5.98315Z" fill="white"/>
<path d="M4.63531 4.29467H12.3933V3.74503H5.09195V-0.34668H4.63531V4.29467Z" fill="white"/>
<path d="M5.09195 6.5586H12.3927V5.98315H4.63531V10.6491H5.09195V6.5586Z" fill="white"/>
<path d="M3.15922 4.29467V-0.34668H2.67919V3.74503H-4.62036V4.29467H3.15922Z" fill="white"/>
<path d="M4.63533 5.9832H12.3933V4.29407H4.63533V-0.34668H3.15922V4.29407H-4.62036V5.9832H3.15922V10.6491H4.63533V5.9832Z" fill="#FF0102"/>
</g>
</g>
<defs>
<clipPath id="clip0_266_45350">
<rect width="24" height="24.0018" fill="white"/>
</clipPath>
</defs>
</svg>
