<svg width="24" height="24" viewBox="0 0 24 24" fill="none" xmlns="http://www.w3.org/2000/svg">
<g clip-path="url(#clip0_266_46527)">
<mask id="mask0_266_46527" style="mask-type:luminance" maskUnits="userSpaceOnUse" x="0" y="0" width="24" height="24">
<path d="M11.9997 0H11.7339C8.85445 0.06 7.37571 0.2856 6.00495 0.7578C4.67835 1.2123 3.48415 1.98672 2.52796 3.0126C1.73434 3.93406 1.12703 5.00077 0.739671 6.1536C0.28244 7.59811 0.0398916 9.10197 0.0197965 10.617C-4.46957e-09 11.2128 0 11.295 0 12.0006C0 12.7062 -4.46957e-09 12.7866 0.0197965 13.3806C0.0398936 14.8958 0.282442 16.3999 0.739671 17.8446C1.12703 18.9978 1.73434 20.0649 2.52796 20.9868C3.4848 22.0132 4.67985 22.7878 6.00735 23.2422C7.37811 23.7144 8.85565 23.9406 11.7363 24H12.2679C15.1473 23.94 16.6273 23.7144 17.9968 23.2422C19.3229 22.7878 20.5164 22.0131 21.4714 20.9868C22.265 20.0655 22.8726 18.9993 23.2609 17.847C23.7173 16.4021 23.9598 14.8982 23.9808 13.383C24 12.7866 24 12.705 24 12.003C24 11.301 24 11.2152 23.9808 10.6194C23.9598 9.10445 23.7173 7.60071 23.2609 6.156C22.8725 5.00217 22.2639 3.93465 21.469 3.0126C20.514 1.98654 19.3205 1.21205 17.9944 0.7578C16.6255 0.2856 15.1467 0.06 12.2655 0H11.9997Z" fill="white"/>
</mask>
<g mask="url(#mask0_266_46527)">
<path d="M30.9197 8.08911H-6.2312V16.3403H30.9197V8.08911Z" fill="white"/>
<path d="M30.9202 16.3403H-6.23071V24.5915H30.9202V16.3403Z" fill="#DA0D15"/>
<path d="M30.9204 -0.161377H-6.23047V8.08982H30.9204V-0.161377Z" fill="#219E3F"/>
<path d="M28.903 17.1264H29.0716V17.7186H28.2317V17.3256H27.7236V17.7186H27.5556V17.1288H28.3955V17.5218H28.8994V17.3256H28.5634V17.1288H28.8994L28.903 17.1264ZM27.8946 17.7162H28.0625V17.52H27.8946V17.7162ZM29.4075 16.9302H29.7434V16.734H27.5586V16.9302H29.4075ZM27.8946 16.5372H29.0716V16.3386H27.5586V16.5348H27.8946V16.5372ZM30.5845 16.341H29.2395V16.5372H30.7525V16.3386L30.5845 16.341ZM30.5845 16.9302V17.5194H30.4159V16.734H30.2479V17.5194H30.08V16.734H29.912V17.1264H29.2395V17.7186H29.7434V17.5218H29.4075V17.3256H29.912V17.7186H30.7519V16.734H30.5839L30.5845 16.9302ZM25.3732 17.1264H25.204V17.3232H25.5406V17.5194H25.0361V17.1264H24.1962V17.7186H24.3642V17.3256H24.8687V17.7186H25.7085V17.1288H25.3726L25.3732 17.1264ZM24.5333 17.7162H24.7013V17.52H24.5333V17.7162ZM26.0463 16.9302H26.3822V16.734H24.1962V16.9302H26.0439H26.0463ZM24.5333 16.5372H25.7097V16.3386H24.1962V16.5348H24.5327L24.5333 16.5372ZM27.2227 16.341H25.8771V16.5372H27.39V16.3386L27.2227 16.341ZM27.2227 16.9302V17.5194H27.0547V16.734H26.8837V17.5194H26.7152V16.734H26.5472V17.1264H25.8771V17.7186H26.3816V17.5218H26.0439V17.3256H26.5478V17.7186H27.3876V16.734H27.2197L27.2227 16.9302ZM22.0114 17.1264H21.8446V17.3232H22.1806V17.5194H21.6766V17.1264H20.8368V17.7186H21.0048V17.3256H21.5087V17.7186H22.3485V17.1288H22.012L22.0114 17.1264ZM21.1715 17.7162H21.3395V17.52H21.1715V17.7162ZM22.6845 16.9302H23.021V16.734H20.8344V16.9302H22.6845ZM21.1715 16.5372H22.3485V16.3386H20.8344V16.5348H21.1703L21.1715 16.5372ZM23.8603 16.3386H22.5153V16.5348H24.0282V16.3386H23.8603ZM23.8603 16.9278V17.517H23.6917V16.734H23.5243V17.5194H23.3564V16.734H23.1884V17.1264H22.5153V17.7186H23.0198V17.5218H22.6845V17.3256H23.189V17.7186H24.0288V16.734H23.8609L23.8603 16.9278ZM18.649 17.124H18.481V17.3208H18.8169V17.517H18.3124V17.124H17.4726V17.7186H17.6406V17.3256H18.1451V17.7186H18.9849V17.1288H18.649V17.124ZM17.8091 17.7138H17.9771V17.5176H17.8091V17.7138ZM19.3221 16.9278H19.658V16.7316H17.472V16.9278H19.3221ZM17.8091 16.5348H18.9855V16.3386H17.472V16.5348H17.8085H17.8091ZM20.4985 16.3386H19.1529V16.5348H20.6658V16.3386H20.4985ZM20.4985 16.9278V17.517H20.3305V16.734H20.1625V17.5194H19.9945V16.734H19.826V17.1264H19.1529V17.7186H19.6574V17.5218H19.3215V17.3256H19.8254V17.7186H20.6652V16.734H20.4973L20.4985 16.9278ZM15.2872 17.124H15.1192V17.3208H15.4557V17.517H14.9512V17.124H14.1114V17.7186H14.2793V17.3256H14.7839V17.7186H15.6237V17.1288H15.2872V17.124ZM14.4473 17.7138H14.6153V17.5176H14.4473V17.7138ZM15.9602 16.9278H16.2968V16.7316H14.1102V16.9278H15.959H15.9602ZM14.4473 16.5348H15.6243V16.3386H14.1102V16.5348H14.4461H14.4473ZM17.1372 16.3386H15.7911V16.5348H17.304V16.3386H17.1372ZM17.1372 16.9278V17.517H16.9693V16.734H16.7995V17.5194H16.6315V16.734H16.4636V17.1264H15.7911V17.7186H16.2956V17.5218H15.959V17.3256H16.4636V17.7186H17.3034V16.734H17.1354L17.1372 16.9278ZM11.926 17.124H11.758V17.3208H12.0939V17.517H11.5864V17.124H10.7466V17.7186H10.9145V17.3256H11.419V17.7186H12.2589V17.1288H11.923L11.926 17.124ZM11.0861 17.7138H11.2541V17.5176H11.0861V17.7138ZM12.599 16.9278H12.935V16.7316H10.7466V16.9278H12.596H12.599ZM11.0861 16.5348H12.2625V16.3386H10.7466V16.5348H11.0831H11.0861ZM13.7754 16.3386H12.4263V16.5348H13.9398V16.3386H13.7754ZM13.7754 16.9278V17.517H13.6075V16.734H13.4395V17.5194H13.2715V16.734H13.1029V17.1264H12.4263V17.7186H12.9308V17.5218H12.5948V17.3256H13.0987V17.7186H13.9386V16.734H13.77L13.7754 16.9278ZM8.56414 17.124H8.39617V17.3208H8.73271V17.517H8.227V17.124H7.38715V17.7186H7.55512V17.3256H8.05963V17.7186H8.89948V17.1288H8.56294L8.56414 17.124ZM7.72429 17.7138H7.89226V17.5176H7.72429V17.7138ZM9.23722 16.9278H9.57376V16.7316H7.38715V16.9278H9.23482H9.23722ZM7.72429 16.5348H8.89888V16.3386H7.38715V16.5348H7.72309H7.72429ZM10.4142 16.3386H9.06685V16.5348H10.5798V16.3386H10.4142ZM10.4142 16.9278V17.517H10.2462V16.734H10.0777V17.5194H9.9067V16.734H9.73873V17.1264H9.06685V17.7186H9.57136V17.5218H9.23482V17.3256H9.73933V17.7186H10.5792V16.734H10.4112L10.4142 16.9278ZM5.20293 17.124H5.03496V17.3208H5.3709V17.517H4.86639V17.124H4.02653V17.7186H4.1951V17.3256H4.69902V17.7186H5.53887V17.1288H5.20293V17.124ZM4.36308 17.7138H4.53104V17.5176H4.36308V17.7138ZM5.87601 16.9278H6.21195V16.7316H4.02353V16.9278H5.87301H5.87601ZM4.36308 16.5348H5.53947V16.3386H4.02353V16.5348H4.36007H4.36308ZM7.0524 16.3386H5.70744V16.5348H7.22038V16.3386H7.0524ZM7.0524 16.9278V17.517H6.88443V16.734H6.71646V17.5194H6.54729V16.734H6.37872V17.1264H5.70744V17.7186H6.21135V17.5218H5.87541V17.3256H6.37932V17.7186H7.21918V16.734H7.0506L7.0524 16.9278ZM1.84112 17.124H1.67315V17.3208H2.00969V17.517H1.50218V17.124H0.662323V17.7186H0.830294V17.3256H1.33481V17.7186H2.17466V17.1288H1.83812L1.84112 17.124ZM1.00126 17.7138H1.16923V17.5176H1.00126V17.7138ZM2.5142 16.9278H2.85074V16.7316H0.661724V16.9278H2.5106H2.5142ZM1.00126 16.5348H2.17826V16.3386H0.661724V16.5348H0.997664H1.00126ZM3.69119 16.3386H2.34263V16.5348H3.85556V16.3386H3.69119ZM3.69119 16.9278V17.517H3.52322V16.734H3.35465V17.5194H3.18668V16.734H3.01871V17.1264H2.34263V17.7186H2.84714V17.5218H2.5106V17.3256H3.01511V17.7186H3.85496V16.734H3.68699L3.69119 16.9278ZM-1.52009 17.124H-1.68807V17.3208H-1.35212V17.517H-1.85604V17.124H-2.69589V17.7186H-2.52732V17.3256H-2.02341V17.7186H-1.18355V17.1288H-1.5195L-1.52009 17.124ZM-2.35995 17.7138H-2.19198V17.5176H-2.35995V17.7138ZM-0.847013 16.9278H-0.511071V16.7316H-2.70069V16.9278H-0.851212H-0.847013ZM-2.35995 16.5348H-1.18775V16.3386H-2.70069V16.5348H-2.36415H-2.35995ZM0.329381 16.3386H-1.01918V16.5348H0.493752V16.3386H0.329381ZM0.329381 16.9278V17.517H0.161411V16.734H-0.00655985V17.5194H-0.17453V16.734H-0.342501V17.1264H-1.01918V17.7186H-0.515271V17.5218H-0.851212V17.3256H-0.346701V17.7186H0.493153V16.734H0.324582L0.329381 16.9278ZM-4.88191 17.124H-5.04988V17.3208H-4.71334V17.517H-5.22205V17.124H-6.0625V17.7186H-5.89453V17.3256H-5.39062V17.7186H-4.55076V17.1288H-4.88611L-4.88191 17.124ZM-5.72656 17.7186H-5.55859V17.5224H-5.72656V17.7186ZM-4.21362 16.9326H-3.87708V16.7364H-6.0625V16.9326H-4.21362ZM-5.72656 16.5372H-4.55076V16.3386H-6.0625V16.5348H-5.72656V16.5372ZM-3.03663 16.3386H-4.38159V16.5348H-2.87106V16.3386H-3.03663ZM-3.03663 16.9278V17.517H-3.2046V16.734H-3.37257V17.5194H-3.54114V16.734H-3.71091V17.1264H-4.38159V17.7186H-3.87708V17.5218H-4.21362V17.3256H-3.71091V17.7186H-2.87106V16.734H-3.03903L-3.03663 16.9278Z" fill="white"/>
<path d="M28.903 7.107H29.0716V7.6986H28.2317V7.3056H27.7236V7.6986H27.5556V7.1088H28.3955V7.5018H28.8994V7.3056H28.5634V7.1088H28.8994L28.903 7.107ZM28.0631 7.5H27.8952V7.6986H28.0631V7.5ZM29.4081 6.9108H29.744V6.7146H27.5586V6.9108H29.4081ZM-3.2046 7.893H-4.38159V8.0898H-2.87106V7.893H-3.207H-3.2046ZM-4.88431 7.893H-6.0625V8.0898H-4.55076V7.893H-4.88611H-4.88431ZM30.5845 6.7146V7.5H30.4159V6.7146H30.2479V7.5H30.08V6.7146H29.912V7.107H29.2395V7.6986H29.7434V7.5018H29.4075V7.3056H29.912V7.6986H30.7519V6.7146H30.5845ZM25.3732 7.107H25.204V7.3038H25.5406V7.5H25.0361V7.107H24.1962V7.6986H24.3642V7.3056H24.8687V7.6986H25.7085V7.1088H25.3726L25.3732 7.107ZM24.7007 7.5H24.5327V7.6986H24.7007V7.5ZM26.0457 6.9108H26.3816V6.7146H24.1962V6.9108H26.0439H26.0457ZM0.157211 7.893H-1.01918V8.0898H0.493752V7.893H0.157211ZM-1.52249 7.893H-2.70069V8.0898H-1.18775V7.893H-1.52369H-1.52249ZM27.2233 6.9108V7.5H27.0553V6.7146H26.8837V7.5H26.7152V6.7146H26.5472V7.107H25.8771V7.6986H26.3816V7.5018H26.0439V7.3056H26.5478V7.6986H27.3876V6.7146H27.2197L27.2233 6.9108ZM22.012 7.107H21.8446V7.3038H22.1806V7.5H21.6766V7.107H20.8368V7.6986H21.0048V7.3056H21.5087V7.6986H22.3485V7.1088H22.012V7.107ZM21.3395 7.5H21.1715V7.6986H21.3395V7.5ZM22.6845 6.9108H23.021V6.7146H20.8344V6.9108H22.6845ZM3.51962 7.893H2.34263V8.0898H3.85556V7.893H3.51962ZM1.83992 7.893H0.661724V8.0898H2.17466V7.893H1.83812H1.83992ZM23.8621 6.9108V7.5H23.6935V6.7146H23.5243V7.5H23.3564V6.7146H23.1884V7.107H22.5153V7.6986H23.0198V7.5018H22.6845V7.3056H23.189V7.6986H24.0288V6.7146H23.8609L23.8621 6.9108ZM18.6508 7.107H18.4828V7.3038H18.8187V7.5H18.3142V7.107H17.4744V7.6986H17.6424V7.3056H18.1469V7.6986H18.9867V7.1088H18.6508V7.107ZM17.9783 7.5H17.8103V7.6986H17.9783V7.5ZM19.3233 6.9108H19.6592V6.7146H17.472V6.9108H19.3215H19.3233ZM6.88143 7.893H5.70744V8.0898H7.22038V7.893H6.88383H6.88143ZM5.20173 7.893H4.02353V8.0898H5.53647V7.893H5.20053H5.20173ZM20.4991 6.9108V7.5H20.3311V6.7146H20.1631V7.5H19.9951V6.7146H19.8266V7.107H19.1529V7.6986H19.6574V7.5018H19.3215V7.3056H19.8254V7.6986H20.6652V6.7146H20.4973L20.4991 6.9108ZM15.2878 7.107H15.1198V7.3038H15.4563V7.5H14.9518V7.107H14.112V7.6986H14.2799V7.3056H14.7845V7.6986H15.6243V7.1088H15.2878V7.107ZM14.6153 7.5H14.4473V7.6986H14.6153V7.5ZM15.9602 6.9108H16.2968V6.7146H14.1102V6.9108H15.959H15.9602ZM10.245 7.893H9.06685V8.0898H10.5798V7.893H10.2438H10.245ZM8.56534 7.893H7.38715V8.0898H8.89888V7.893H8.56234H8.56534ZM17.139 6.9108V7.5H16.9711V6.7146H16.7995V7.5H16.6315V6.7146H16.4636V7.107H15.7911V7.6986H16.2956V7.5018H15.959V7.3056H16.4636V7.6986H17.3034V6.7146H17.1354L17.139 6.9108ZM11.9277 7.107H11.7598V7.3038H12.0957V7.5H11.5864V7.107H10.7466V7.6986H10.9145V7.3056H11.419V7.6986H12.2589V7.1088H11.923L11.9277 7.107ZM11.2553 7.5H11.0873V7.6986H11.2553V7.5ZM12.6002 6.9108H12.9362V6.7146H10.7466V6.9108H12.596H12.6002ZM13.6087 7.893H12.4263V8.0898H13.9398V7.893H13.6033H13.6087ZM11.929 7.893H10.7466V8.0898H12.2595V7.893H11.9236H11.929ZM13.7778 6.9108V7.5H13.6099V6.7146H13.4419V7.5H13.2739V6.7146H13.1053V7.107H12.4263V7.6986H12.9308V7.5018H12.5948V7.3056H13.0987V7.6986H13.9386V6.7146H13.77L13.7778 6.9108ZM8.56654 7.107H8.39857V7.3038H8.73511V7.5H8.227V7.107H7.38715V7.6986H7.55512V7.3056H8.05963V7.6986H8.89948V7.1088H8.56294L8.56654 7.107ZM7.89406 7.5H7.72609V7.6986H7.89406V7.5ZM9.23902 6.9108H9.57556V6.7146H7.38715V6.9108H9.23482H9.23902ZM16.9723 7.893H15.7911V8.0898H17.304V7.893H16.9681H16.9723ZM15.2926 7.893H14.1102V8.0898H15.6231V7.893H15.2866H15.2926ZM10.4178 6.9108V7.5H10.2498V6.7146H10.0813V7.5H9.9067V6.7146H9.73873V7.107H9.06685V7.6986H9.57136V7.5018H9.23482V7.3056H9.73933V7.6986H10.5792V6.7146H10.4112L10.4178 6.9108ZM5.20653 7.107H5.03856V7.3038H5.3745V7.5H4.86999V7.107H4.03013V7.6986H4.1987V7.3056H4.70262V7.6986H5.54247V7.1088H5.20653V7.107ZM4.53405 7.5H4.36607V7.6986H4.53405V7.5ZM5.87901 6.9108H6.21495V6.7146H4.02353V6.9108H5.87301H5.87901ZM20.3365 7.893H19.1529V8.0898H20.6658V7.893H20.3299H20.3365ZM18.6568 7.893H17.472V8.0898H18.9849V7.893H18.649H18.6568ZM7.0494 6.9108V7.5H6.88143V6.7146H6.71346V7.5H6.54729V6.7146H6.37872V7.107H5.70744V7.6986H6.21135V7.5018H5.87541V7.3056H6.37932V7.6986H7.21918V6.7146H7.0506L7.0494 6.9108ZM1.83812 7.107H1.67015V7.3038H2.00669V7.5H1.50218V7.107H0.662323V7.6986H0.830294V7.3056H1.33481V7.6986H2.17466V7.1088H1.83812V7.107ZM1.16623 7.5H0.998264V7.6986H1.16623V7.5ZM2.5106 6.9108H2.84714V6.7146H0.661724V6.9108H2.5106ZM23.6917 7.893H22.5153V8.0898H24.0282V7.893H23.6917ZM22.012 7.893H20.8344V8.0898H22.3473V7.893H22.0108H22.012ZM3.68759 6.9108V7.5H3.51962V6.7146H3.35105V7.5H3.18308V6.7146H3.01511V7.107H2.34263V7.6986H2.84714V7.5018H2.5106V7.3056H3.01511V7.6986H3.85496V6.7146H3.68699L3.68759 6.9108ZM-1.52369 7.107H-1.69167V7.3038H-1.35572V7.5H-1.85964V7.107H-2.69949V7.6986H-2.53092V7.3056H-2.02701V7.6986H-1.18715V7.1088H-1.52309L-1.52369 7.107ZM-2.19618 7.5H-2.36415V7.6986H-2.19618V7.5ZM-0.851212 6.9108H-0.515271V6.7146H-2.70069V6.9108H-0.851212ZM27.0541 7.893H25.8771V8.0898H27.39V7.893H27.0541ZM25.3744 7.893H24.1962V8.0898H25.7091V7.893H25.3732H25.3744ZM0.325182 6.9108V7.5H0.157211V6.7146H-0.0107589V7.5H-0.17873V6.7146H-0.346701V7.107H-1.01918V7.6986H-0.515271V7.5018H-0.851212V7.3056H-0.346701V7.6986H0.493153V6.7146H0.324582L0.325182 6.9108ZM-4.88611 7.107H-5.05408V7.3038H-4.71754V7.5H-5.22205V7.107H-6.0625V7.6986H-5.89453V7.3056H-5.39062V7.6986H-4.55076V7.1088H-4.88611V7.107ZM-5.55799 7.5H-5.72596V7.6986H-5.55799V7.5ZM-4.21362 6.9108H-3.87708V6.7146H-6.0625V6.9108H-4.21362ZM30.4159 7.893H29.2395V8.0898H30.7525V7.893H30.4159ZM28.7362 7.893H27.5586V8.0898H29.0716V7.893H28.735H28.7362ZM-3.03663 6.9108V7.5H-3.2046V6.7146H-3.37257V7.5H-3.54114V6.7146H-3.71091V7.107H-4.38159V7.6986H-3.87708V7.5018H-4.21362V7.3056H-3.71091V7.6986H-2.87106V6.7146H-3.03903L-3.03663 6.9108Z" fill="white"/>
<path d="M12.7782 14.0359C12.8346 14.0071 12.8898 13.9759 12.9432 13.9441C13.3013 13.7284 13.6015 13.4286 13.8178 13.0708C14.0341 12.7129 14.16 12.3078 14.1846 11.8903C14.2092 11.4729 14.1317 11.0558 13.9589 10.675C13.786 10.2943 13.5231 9.96135 13.1927 9.70508C13.6256 10.3075 13.8057 11.0555 13.6944 11.7891C13.5831 12.5226 13.1892 13.1834 12.597 13.6303L12.7074 9.86288L12.3912 9.78728L12.3439 9.77588L12.2971 9.78728L11.9809 9.86288L12.0913 13.6303C11.4991 13.1834 11.1053 12.5226 10.9939 11.7891C10.8826 11.0555 11.0627 10.3075 11.4956 9.70508C11.1652 9.96135 10.9023 10.2943 10.7294 10.675C10.5566 11.0558 10.4791 11.4729 10.5037 11.8903C10.5283 12.3078 10.6542 12.7129 10.8705 13.0708C11.0868 13.4286 11.387 13.7284 11.7452 13.9441C11.7992 13.9771 11.8543 14.0041 11.9107 14.0359C11.6018 14.1468 11.2761 14.2034 10.9479 14.2033H10.9293C11.1716 14.2768 11.4235 14.314 11.6768 14.3137C11.8219 14.3134 11.9668 14.3012 12.1099 14.2771V14.3371L12.3421 14.6215L12.5742 14.3371V14.2771C12.7175 14.3011 12.8626 14.3134 13.0079 14.3137C13.261 14.314 13.5127 14.2768 13.7548 14.2033H13.7368C13.4096 14.2032 13.0849 14.1465 12.777 14.0359" fill="#DA0D15"/>
<path d="M13.395 9.71631C13.7061 9.93531 13.9691 10.2158 14.1675 10.5404C14.366 10.865 14.4957 11.2269 14.5488 11.6036C14.6019 11.9804 14.5772 12.364 14.4761 12.7309C14.3751 13.0977 14.1999 13.4399 13.9614 13.7363C14.3689 13.5405 14.7036 13.2202 14.917 12.8216C15.1303 12.423 15.2113 11.9669 15.1483 11.5192C15.0852 11.0715 14.8813 10.6555 14.5661 10.3314C14.2509 10.0073 13.8408 9.79186 13.395 9.71631Z" fill="#DA0D15"/>
<path d="M11.9398 9.75413C12.025 9.75423 12.1085 9.72986 12.1803 9.68392C12.2521 9.63797 12.3092 9.57238 12.3448 9.49494C12.3941 9.60251 12.484 9.68611 12.5949 9.72735C12.7058 9.76859 12.8285 9.76409 12.9361 9.71484C13.0437 9.66559 13.1273 9.57562 13.1685 9.46473C13.2098 9.35384 13.2053 9.23111 13.156 9.12354C13.1352 9.21559 13.0838 9.29784 13.0101 9.35677C12.9363 9.4157 12.8448 9.4478 12.7504 9.4478C12.656 9.4478 12.5645 9.4157 12.4908 9.35677C12.4171 9.29784 12.3656 9.21559 12.3448 9.12354C12.3243 9.21574 12.273 9.2982 12.1993 9.3573C12.1256 9.4164 12.034 9.44861 11.9395 9.44861C11.8451 9.44861 11.7534 9.4164 11.6797 9.3573C11.606 9.2982 11.5547 9.21574 11.5342 9.12354C11.5072 9.18138 11.4932 9.24448 11.4934 9.30834C11.4934 9.36693 11.505 9.42495 11.5274 9.47907C11.5498 9.5332 11.5827 9.58237 11.6242 9.62378C11.6657 9.66518 11.7149 9.69801 11.769 9.72037C11.8232 9.74274 11.8812 9.75421 11.9398 9.75413Z" fill="#DA0D15"/>
<path d="M11.2956 9.71631C10.8498 9.79186 10.4397 10.0073 10.1245 10.3314C9.80928 10.6555 9.6054 11.0715 9.54232 11.5192C9.47924 11.9669 9.56025 12.423 9.77362 12.8216C9.98698 13.2202 10.3216 13.5405 10.7292 13.7363C10.4905 13.4399 10.3152 13.0977 10.214 12.7309C10.1129 12.3641 10.0881 11.9804 10.1412 11.6036C10.1943 11.2268 10.3241 10.8649 10.5227 10.5402C10.7212 10.2156 10.9843 9.9352 11.2956 9.71631Z" fill="#DA0D15"/>
</g>
</g>
<defs>
<clipPath id="clip0_266_46527">
<rect width="24" height="24" fill="white"/>
</clipPath>
</defs>
</svg>
