<svg width="32" height="32" viewBox="0 0 32 32" fill="none" xmlns="http://www.w3.org/2000/svg">
<g clip-path="url(#clip0_266_48264)">
<mask id="mask0_266_48264" style="mask-type:luminance" maskUnits="userSpaceOnUse" x="0" y="0" width="32" height="33">
<path d="M16.0004 0H15.646C11.8059 0.080002 9.83225 0.38081 8.0058 1.00963C6.23813 1.6172 4.64689 2.64991 3.37208 4.0169C2.31336 5.24585 1.50292 6.6684 0.985625 8.2058C0.376593 10.1318 0.0531468 12.1366 0.0256007 14.1564C5.06652e-08 14.9508 0 15.0612 0 16.0004C0 16.9396 5.06652e-08 17.0492 0.0256007 17.8404C0.0530507 19.861 0.376496 21.8666 0.985625 23.7934C1.50257 25.3307 2.31305 26.7531 3.37208 27.9815C4.64546 29.3513 6.23703 30.3859 8.0058 30.9936C9.83225 31.6224 11.8043 31.9248 15.646 32.004H16.3548C20.1949 31.924 22.1686 31.6224 23.995 30.9936C25.7649 30.3871 27.3579 29.3533 28.6327 27.9839C29.69 26.754 30.499 25.3309 31.0152 23.7934C31.6238 21.8668 31.9473 19.8615 31.9752 17.8412C32 17.0468 32 16.938 32 16.0012C32 15.0644 32 14.9516 31.9752 14.1572C31.9473 12.1374 31.6238 10.1327 31.0152 8.2066C30.4986 6.6695 29.6896 5.24681 28.6327 4.0169C27.356 2.64914 25.7625 1.61638 23.9926 1.00963C22.1686 0.38081 20.1965 0.079202 16.3548 0H16.0004Z" fill="white"/>
</mask>
<g mask="url(#mask0_266_48264)">
<mask id="mask1_266_48264" style="mask-type:luminance" maskUnits="userSpaceOnUse" x="0" y="-1" width="32" height="33">
<path d="M16 -0.00390625H15.6456C11.8056 0.0760937 9.832 0.376894 8.0056 1.00569C6.23798 1.61325 4.64677 2.64594 3.372 4.01289C2.3133 5.24182 1.50289 6.66432 0.9856 8.20169C0.376583 10.1276 0.0531455 12.1324 0.0256001 14.1521C5.06639e-08 14.9465 0 15.0569 0 15.9961C0 16.9353 5.06639e-08 17.0449 0.0256001 17.8361C0.0530494 19.8566 0.376487 21.8622 0.9856 23.7889C1.50253 25.3262 2.31299 26.7485 3.372 27.9769C4.64534 29.3467 6.23688 30.3812 8.0056 30.9889C9.832 31.6177 11.804 31.9201 15.6456 31.9993H16.3544C20.1944 31.9193 22.168 31.6177 23.9944 30.9889C25.7643 30.3824 27.3572 29.3487 28.632 27.9793C29.6892 26.7494 30.4983 25.3264 31.0144 23.7889C31.623 21.8623 31.9465 19.8571 31.9744 17.8369C31.9992 17.0425 31.9992 16.9337 31.9992 15.9969C31.9992 15.0601 31.9992 14.9473 31.9744 14.1529C31.9465 12.1332 31.623 10.1285 31.0144 8.20249C30.4978 6.66543 29.6888 5.24277 28.632 4.01289C27.3553 2.64517 25.7619 1.61243 23.992 1.00569C22.168 0.376894 20.196 0.0752937 16.3544 -0.00390625H16Z" fill="white"/>
</mask>
<g mask="url(#mask1_266_48264)">
<path d="M47.8839 -0.210938H-0.808105V21.5163H47.8839V-0.210938Z" fill="#E10E00"/>
<path d="M47.8839 21.5161H-0.808105V32.2041H47.8839V21.5161Z" fill="#1E8206"/>
<path d="M7.7775 -0.209961H-0.808105V32.1948H7.7775V-0.209961Z" fill="white"/>
<path d="M7.38062 0.228027H-0.411377V31.764H7.38062V0.228027Z" fill="white"/>
<path fill-rule="evenodd" clip-rule="evenodd" d="M2.09345 30.0619H2.39185V29.5539H2.05345V29.0579H1.79505V28.4907H1.48785V28.9987H1.14145V29.5491H0.831055V30.0955H1.17185V30.6019H1.47585V31.1491H1.77745V30.5891H2.09345V30.0619ZM1.78305 30.0883H1.43905V29.5491H1.78305V30.0883Z" fill="#E10E00"/>
<path fill-rule="evenodd" clip-rule="evenodd" d="M4.59521 2.4466H4.90401V2.9962H5.25201V3.5042H5.55841V2.9362H5.81841V2.4394H6.15201V1.9298H5.85681V1.4018H5.54241V0.841797H5.24081V1.393H4.93521V1.8978H4.59521V2.4466ZM5.20321 1.9034H5.54721V2.4434H5.20321V1.9034Z" fill="#E10E00"/>
<path fill-rule="evenodd" clip-rule="evenodd" d="M0.836011 31.1489H0.516011V30.6225H0.174411V30.0537H-0.0983887V31.1345H0.266411V31.7193H-0.0983887V32.2073H1.12561V31.6841H0.836011V31.1489Z" fill="#E10E00"/>
<path fill-rule="evenodd" clip-rule="evenodd" d="M0.831055 2.4466H1.14145V2.9962H1.48785V3.5042H1.79505V2.9362H2.05345V2.4394H2.39185V1.9298H2.09345V1.4018H1.77745V0.841797H1.47585V1.393H1.17185V1.8978H0.831055V2.4466ZM1.43825 1.9034H1.78225V2.4434H1.43825V1.9034Z" fill="#E10E00"/>
<path fill-rule="evenodd" clip-rule="evenodd" d="M0.193611 17.3265H0.472011V16.7745H0.830411V16.2073H1.13841V15.6937H0.837611V15.1865H0.517611V14.6833H0.208811V14.1377H-0.0983887V17.8625H0.192811L0.193611 17.3265Z" fill="#E10E00"/>
<path fill-rule="evenodd" clip-rule="evenodd" d="M0.175211 1.37466H0.517611V0.847463H0.837611V0.312262H1.12721V-0.210938H-0.0983887V0.277863H0.265611V0.861863H-0.0983887V1.94186H0.174411L0.175211 1.37466Z" fill="#E10E00"/>
<path fill-rule="evenodd" clip-rule="evenodd" d="M5.85681 30.0619H6.15201V29.5539H5.81841V29.0579H5.55841V28.4907H5.25201V28.9987H4.90401V29.5491H4.59521V30.0955H4.93521V30.6019H5.24081V31.1491H5.54241V30.5891H5.85681V30.0619ZM5.54721 30.0883H5.20321V29.5491H5.54721V30.0883Z" fill="#E10E00"/>
<path fill-rule="evenodd" clip-rule="evenodd" d="M7.10705 17.8628V14.1372H6.79985V14.6836H6.49025V15.186H6.17025V15.6932H5.86865V16.2076H6.17745V16.7748H6.53585V17.3268H6.81585V17.8628H7.10705Z" fill="#E10E00"/>
<path d="M6.45916 5.63379H6.12476V6.16419H6.45916V5.63379Z" fill="#E10E00"/>
<path d="M0.832759 5.63477H0.497559V6.16437H0.832759V5.63477Z" fill="#E10E00"/>
<path fill-rule="evenodd" clip-rule="evenodd" d="M5.85041 -0.210938V0.322662H6.14801V0.889862H6.45761V1.38106H6.76321V1.93226H7.09121V2.45146H6.79201V2.98026H6.49601V3.53626H6.18801V4.03946H5.88961V4.58906H5.52081V5.13466H5.23601V4.58266H4.92721V4.02346H4.58801V3.49866H4.30001V2.98906H3.98001V2.45146H3.66401V1.94186H3.93761V1.37466H4.28241V0.847462H4.60241V0.312262H4.89201V-0.210938H3.65441V0.868262H3.34321V-0.210938H2.08641V0.322662H2.38481V0.889862H2.69361V1.38106H3.00081V1.93226H3.32721V2.45146H3.03201V2.98026H2.73281V3.53626H2.42401V4.03946H2.12481V4.58906H1.75761V5.13466H1.47201V4.58266H1.16321V4.02346H0.824011V3.49866H0.538411V2.98906H0.218411V2.45146H-0.0983887V3.46906H0.265611V4.05386H-0.0983887V5.64186H0.214411V5.09786H0.516011V4.56106H0.812811V5.09786H1.12561V5.64186H1.47841V6.17786H1.12561V6.68106H0.812811V7.21946H0.516011V6.68106H0.214411V6.17786H-0.0983887V7.74426H0.239211V8.29546H-0.0983887V9.36346H0.163211V8.82906H0.516811V8.31066H0.832011V7.73226H1.13441V7.20666H1.45921V6.68186H1.77201V7.21786H2.10641V7.77786H2.39201V8.28106H2.73841V8.83066H3.03201V9.33946H3.34001V9.89946H3.65281V9.33946H3.95201V8.83066H4.25761V8.31706H4.59521V7.74026H4.90881V7.22906H5.18321V6.68106H5.57201V7.24586H5.86801V7.75226H6.15201V8.30506H6.47841V8.82106H6.79841V9.36826H7.09681V8.31306H6.76081V7.74826H7.09841V6.17786H6.75361V6.68106H6.44081V7.21946H6.14241V6.68106H5.84001V6.17786H5.52721V5.64186H5.84001V5.09786H6.14241V4.56106H6.44081V5.09786H6.75361V5.64186H7.10321V4.05066H6.75601V3.46906H7.10321V0.854662H6.76161V0.294662H7.11201V-0.210938H5.85041ZM3.01201 6.17786V6.68106H2.69921V7.21946H2.40321V6.68106H2.09841V6.17786H1.78641V5.64186H2.09841V5.09786H2.40321V4.56106H2.69921V5.09786H3.01201V5.64186H3.36481V6.17786H3.01201ZM3.67201 8.28906H3.31121V7.22906H3.67201V8.28906ZM5.23601 6.17786H4.88481V6.68106H4.56961V7.21946H4.27361V6.68106H3.97121V6.17786H3.65761V5.64186H3.97121V5.09786H4.27361V4.56106H4.56961V5.09786H4.88481V5.64186H5.23601V6.17786Z" fill="#E10E00"/>
<path d="M4.58782 5.63379H4.25342V6.16419H4.58782V5.63379Z" fill="#E10E00"/>
<path d="M2.71899 5.63379H2.38379V6.16419H2.71899V5.63379Z" fill="#E10E00"/>
<path d="M4.58782 25.8257H4.25342V26.3593H4.58782V25.8257Z" fill="#E10E00"/>
<path fill-rule="evenodd" clip-rule="evenodd" d="M6.76161 31.1389H7.10321V28.5269H6.75601V27.9437H7.10321V26.3493H6.75361V26.8933H6.44081V27.4293H6.14241V26.8933H5.84001V26.3493H5.52721V25.8125H5.84001V25.3101H6.14241V24.7685H6.44081V25.3101H6.75361V25.8125H7.10321V24.2445H6.76561V23.6797H7.10161V22.6253H6.80321V23.1733H6.48321V23.6877H6.15201V24.2413H5.86801V24.7493H5.57201V25.3141H5.18321V24.7669H4.90881V24.2557H4.59521V23.6741H4.25761V23.1597H3.95201V22.6533H3.65441V22.0933H3.34161V22.6533H3.03201V23.1597H2.74081V23.7093H2.39201V24.2125H2.10401V24.7725H1.77201V25.3093H1.45921V24.7861H1.13441V24.2613H0.832011V23.6821H0.516811V23.1653H0.163211V22.6309H-0.0983887V23.6989H0.239211V24.2501H-0.0983887V25.8157H0.214411V25.3133H0.516011V24.7717H0.812811V25.3133H1.12561V25.8157H1.47841V26.3493H1.12561V26.8933H0.812811V27.4293H0.516011V26.8933H0.214411V26.3493H-0.0983887V27.9405H0.265611V28.5237H-0.0983887V29.5405H0.214411V29.0037H0.534411V28.4917H0.824011V27.9669H1.16321V27.4069H1.47201V26.8613H1.75761V27.4085H2.12481V27.9549H2.42401V28.4549H2.73281V29.0149H3.03201V29.5453H3.33121V30.0629H3.00081V30.6149H2.69361V31.1069H2.38481V31.6669H2.08641V32.2021H3.34321V31.1221H3.65441V32.2021H4.88961V31.6789H4.60001V31.1493H4.28001V30.6229H3.93761V30.0541H3.66401V29.5469H3.97681V29.0101H4.29681V28.4981H4.58481V27.9733H4.92401V27.4133H5.23281V26.8613H5.51761V27.4085H5.88641V27.9549H6.18481V28.4549H6.49601V29.0149H6.79201V29.5453H7.09121V30.0629H6.76321V30.6149H6.45761V31.1069H6.14801V31.6669H5.85041V32.2021H7.11201V31.6965H6.76001L6.76161 31.1389ZM3.36481 26.3493H3.01201V26.8933H2.69921V27.4293H2.40321V26.8933H2.09841V26.3493H1.78641V25.8125H2.09841V25.3101H2.40321V24.7685H2.69921V25.3101H3.01201V25.8125H3.36481V26.3493ZM3.31121 23.6989H3.67201V24.7589H3.31121V23.6989ZM5.23601 26.3493H4.88481V26.8933H4.56961V27.4293H4.27361V26.8933H3.97121V26.3493H3.65761V25.8125H3.97121V25.3101H4.27361V24.7685H4.56961V25.3101H4.88481V25.8125H5.23601V26.3493Z" fill="#E10E00"/>
<path d="M6.45916 25.8257H6.12476V26.3593H6.45916V25.8257Z" fill="#E10E00"/>
<path d="M2.71899 25.8257H2.38379V26.3593H2.71899V25.8257Z" fill="#E10E00"/>
<path d="M0.832759 25.8257H0.497559V26.3593H0.832759V25.8257Z" fill="#E10E00"/>
<path fill-rule="evenodd" clip-rule="evenodd" d="M0.177611 13.045H0.521611V13.6178H0.813611V14.1314H1.12801V13.5858H1.46401V13.0618H1.78401V12.5266H2.08001V11.9906H2.38241V11.4618H2.72801V10.9362H2.40801V10.397H2.09601V9.85059H1.14561V10.3754H1.78561V10.9538H1.48081V11.469H1.15601V12.0106H0.820811V11.4746H0.528811V10.9402H0.186411V10.3802H-0.0983887V11.477H0.232011V12.029H-0.0983887V12.5522H0.177611V13.045Z" fill="#E10E00"/>
<path fill-rule="evenodd" clip-rule="evenodd" d="M6.8254 10.9435H6.4862V11.4779H6.195V12.0139H5.8582V11.4691H5.5326V10.9499H5.231V10.3715H5.871V9.84668H4.923V10.3939H4.6102V10.9323H4.2854V11.4579H4.6318V11.9875H4.9358V12.5227H5.2334V13.0579H5.5534V13.5819H5.8878V14.1275H6.2022V13.6147H6.4934V13.0451H6.8406V12.5531H7.1118V12.0291H6.7782V11.4771H7.1118V10.3811H6.8238L6.8254 10.9435Z" fill="#E10E00"/>
<path fill-rule="evenodd" clip-rule="evenodd" d="M0.186411 21.0507H0.528811V20.5163H0.820811V19.9803H1.15601V20.5195H1.48081V21.0379H1.78321V21.6155H1.14321V22.1403H2.09201V21.5963H2.40401V21.0547H2.72401V20.5315H2.38161V20.0003H2.07921V19.4691H1.78321V18.9315H1.46321V18.4107H1.12801V17.8667H0.813611V18.3779H0.521611V18.9491H0.177611V19.4427H-0.0983887V19.9667H0.232011V20.5195H-0.0983887V21.6155H0.186411V21.0507Z" fill="#E10E00"/>
<path fill-rule="evenodd" clip-rule="evenodd" d="M6.83824 18.946H6.49024V18.3748H6.19984V17.8628H5.88544V18.4068H5.55104V18.9284H5.23104V19.4692H4.93424V20.0036H4.63184V20.5348H4.28784V21.0588H4.61264V21.6004H4.92544V22.1444H5.86864V21.6196H5.22864V21.0372H5.53024V20.5196H5.85584V19.9796H6.19184V20.5156H6.48384V21.0508H6.82304V21.6108H7.11184V20.5156H6.77584V19.9628H7.11184V19.4388H6.83824V18.946Z" fill="#E10E00"/>
<path fill-rule="evenodd" clip-rule="evenodd" d="M3.49819 12.0293H3.37259V12.5349H3.06619V13.0581H2.72219V13.6293H2.40779V14.1349H2.11499V14.6597H1.77979V17.3093H2.07899V17.8541H2.43259V18.3741H2.71899V18.9029H3.04699V19.4445H3.33579V19.9493H3.65579V19.4453H3.94379V18.9037H4.27179V18.3749H4.55739V17.8549H4.91099V17.3093H5.20938V14.6565H4.87179V14.1317H4.58139V13.6293H4.26779V13.0581H3.92379V12.5349H3.61659V12.0293H3.49819ZM2.40779 16.2813H2.04779V15.7093H2.40779V16.2813ZM4.57259 15.7093H4.93019V16.2789H4.57259V15.7093ZM3.66059 18.9429H3.30219V18.3757H3.66059V18.9429ZM3.92859 14.6581V14.1093H4.30139V15.1853H3.99979V15.7453H3.63419V16.2253H3.99979V16.7797H4.30139V17.8605H3.92859V17.3053H3.63899V16.7845H3.35179V17.3037H3.04059V17.8469L2.70859 17.8533V16.7669H3.02859V16.2237H3.37179V15.7437H3.03179V15.2005H2.71179V14.1141H3.04379V14.6589H3.35179V15.1773H3.64139V14.6573L3.92859 14.6581ZM3.66059 13.5965H3.30219V13.0285H3.66059V13.5965Z" fill="#E10E00"/>
</g>
</g>
</g>
<defs>
<clipPath id="clip0_266_48264">
<rect width="32" height="32.004" fill="white"/>
</clipPath>
</defs>
</svg>
