<svg width="24" height="24" viewBox="0 0 24 24" fill="none" xmlns="http://www.w3.org/2000/svg">
<g clip-path="url(#clip0_266_46464)">
<mask id="mask0_266_46464" style="mask-type:luminance" maskUnits="userSpaceOnUse" x="0" y="0" width="24" height="24">
<path d="M11.9976 0H11.7324C8.8524 0.06 7.3728 0.2862 6.0024 0.7566C4.67746 1.21249 3.48473 1.98676 2.529 3.0114C1.73506 3.93282 1.12743 4.99953 0.7398 6.1524C0.282988 7.59702 0.0404091 9.10081 0.0198 10.6158C-4.47035e-09 11.211 0 11.2938 0 11.9988C0 12.7038 -4.47035e-09 12.7854 0.0198 13.3788C0.0404024 14.894 0.282981 16.398 0.7398 17.8428C1.12687 18.9968 1.73454 20.0646 2.529 20.9868C3.48481 22.0123 4.6783 22.7869 6.0042 23.2422C7.3746 23.7132 8.853 23.94 11.7342 24H12.2658C15.1458 23.94 16.626 23.7132 17.9958 23.2422C19.3219 22.7871 20.5157 22.0125 21.4716 20.9868C22.2653 20.0655 22.8727 18.999 23.2602 17.8464C23.7173 16.4016 23.9599 14.8976 23.9802 13.3824C24 12.7866 24 12.705 24 12.0024C24 11.2998 24 11.2146 23.9802 10.6194C23.9599 9.10438 23.7173 7.60055 23.2602 6.156C22.8724 5.00186 22.2644 3.93392 21.4698 3.0114C20.5136 1.98592 19.32 1.2112 17.994 0.7554C16.6242 0.2862 15.1452 0.06 12.264 0H11.9976Z" fill="white"/>
</mask>
<g mask="url(#mask0_266_46464)">
<path d="M-0.170898 19.2941V-0.168701H7.9441V24.1685H-0.170898V19.2941Z" fill="#F67E0B"/>
<path d="M24.1674 4.7057V19.2941C24.1682 19.9342 24.0427 20.5682 23.7982 21.1598C23.5537 21.7514 23.1949 22.289 22.7424 22.7417C22.2898 23.1945 21.7524 23.5536 21.161 23.7984C20.5695 24.0432 19.9356 24.169 19.2954 24.1685H16.0554V-0.1687H19.2954C19.9356 -0.169174 20.5695 -0.0433995 21.161 0.201424C21.7524 0.446247 22.2898 0.805312 22.7424 1.25807C23.1949 1.71082 23.5537 2.24838 23.7982 2.83997C24.0427 3.43156 24.1682 4.06556 24.1674 4.7057Z" fill="#009D60"/>
<path d="M16.053 -0.16333H7.93799V24.1625H16.053V-0.16333Z" fill="white"/>
</g>
</g>
<defs>
<clipPath id="clip0_266_46464">
<rect width="24" height="24" fill="white"/>
</clipPath>
</defs>
</svg>
