<svg width="24" height="24" viewBox="0 0 24 24" fill="none" xmlns="http://www.w3.org/2000/svg">
<g clip-path="url(#clip0_266_46888)">
<mask id="mask0_266_46888" style="mask-type:luminance" maskUnits="userSpaceOnUse" x="0" y="0" width="24" height="24">
<path d="M12.0006 0H11.7342C8.8542 0.06 7.3752 0.2862 6.0042 0.7584C4.67861 1.21213 3.48538 1.98578 2.5302 3.0108C1.73607 3.93197 1.12824 4.99848 0.7404 6.1512C0.283547 7.59602 0.0409679 9.10001 0.0204 10.6152C2.23517e-08 11.211 0 11.2932 0 11.9982C0 12.7032 2.23517e-08 12.7854 0.0204 13.3782C0.0409746 14.8932 0.283554 16.397 0.7404 17.8416C1.12782 18.9954 1.73568 20.063 2.5302 20.985C3.48551 22.0107 4.67891 22.7852 6.0048 23.2398C7.3758 23.712 8.8542 23.94 11.7342 24H12.2664C15.1464 23.94 16.626 23.7138 17.9964 23.2416C19.3224 22.7868 20.516 22.0124 21.4716 20.9868C22.2655 20.0653 22.8731 18.9986 23.2608 17.8458C23.7173 16.4011 23.9599 14.8974 23.9808 13.3824C24 12.7872 24 12.7038 24 12.0024C24 11.301 24 11.2152 23.9808 10.6194C23.9599 9.10424 23.7173 7.6003 23.2608 6.1554C22.8736 5.00138 22.2662 3.93345 21.4722 3.0108C20.5167 1.98501 19.3231 1.21056 17.997 0.756C16.6266 0.2838 15.1476 0.057 12.267 0H12.0006Z" fill="white"/>
</mask>
<g mask="url(#mask0_266_46888)">
<path d="M-0.445801 19.5359V-0.360107H19.4742C20.4727 -0.360218 21.4483 -0.0607756 22.2748 0.499502C23.1013 1.05978 23.7407 1.85512 24.1104 2.78269C24.3342 3.36651 24.4475 3.98685 24.4446 4.61209V19.5359C24.4471 20.1611 24.3338 20.7814 24.1104 21.3653C23.7418 22.2945 23.103 23.0919 22.2765 23.6543C21.45 24.2167 20.4739 24.5183 19.4742 24.5201H-0.445801V19.5359Z" fill="#4289DB"/>
<path d="M12.0065 6.60596L13.3619 10.7808H17.7575L14.2013 13.3668L15.5627 17.5422L12.0065 14.9622L8.45031 17.5422L9.80631 13.3668L6.24951 10.7808H10.6451L12.0065 6.60596Z" fill="white"/>
</g>
</g>
<defs>
<clipPath id="clip0_266_46888">
<rect width="24" height="24" fill="white"/>
</clipPath>
</defs>
</svg>
