<svg width="24" height="24" viewBox="0 0 24 24" fill="none" xmlns="http://www.w3.org/2000/svg">
<g clip-path="url(#clip0_266_45650)">
<mask id="mask0_266_45650" style="mask-type:luminance" maskUnits="userSpaceOnUse" x="0" y="0" width="24" height="24">
<path d="M11.9988 0H11.7324C8.8524 0.06 7.3728 0.2862 6.0024 0.7572C4.67647 1.21242 3.48296 1.98701 2.5272 3.0126C1.7339 3.93427 1.12671 5.00093 0.7392 6.1536C0.282413 7.59823 0.0398354 9.10201 0.0192003 10.617C3.241e-07 11.2134 0 11.295 0 12.0006C0 12.7062 3.241e-07 12.7872 0.0192003 13.3806C0.0398804 14.8958 0.282457 16.3998 0.7392 17.8446C1.12735 18.9972 1.73492 20.0639 2.5284 20.9856C3.4842 22.011 4.67771 22.7854 6.0036 23.2404C7.374 23.712 8.8524 23.9382 11.7336 23.9976H12.2658C15.1458 23.9376 16.6254 23.712 17.9958 23.2404C19.3218 22.7855 20.5153 22.0111 21.471 20.9856C22.2647 20.0639 22.8724 18.9973 23.2608 17.8446C23.7173 16.3997 23.9599 14.8958 23.9808 13.3806C24 12.7848 24 12.702 24 12.0006C24 11.2992 24 11.2134 23.9808 10.617C23.9599 9.10204 23.7173 7.59829 23.2608 6.1536C22.8727 5.0008 22.2649 3.93414 21.471 3.0126C20.5147 1.9878 19.3207 1.21423 17.9946 0.7602C16.6242 0.2862 15.1452 0.0594 12.2646 0H11.9988Z" fill="white"/>
</mask>
<g mask="url(#mask0_266_45650)">
<path d="M30.3175 -0.439697H-7.24072V24.5803H30.3175V-0.439697Z" fill="white"/>
<path d="M30.3175 16.2415H-7.24072V24.5803H30.3175V16.2415Z" fill="#DF352A"/>
<path d="M30.3175 7.90161H-7.24072V16.2416H30.3175V7.90161Z" fill="#074E9F"/>
<path d="M12.2559 0.5L13.2637 0.530273C15.4684 0.619079 16.697 0.839345 17.835 1.23047V1.22949C19.0766 1.65684 20.1941 2.38274 21.0908 3.3418H21.0918C21.7493 4.10497 22.2721 4.97309 22.6387 5.90918L22.7861 6.31543C23.2262 7.7108 23.4605 9.16294 23.4805 10.626V10.6357C23.5 11.224 23.5 11.303 23.5 12.002C23.5 12.3515 23.5005 12.5457 23.498 12.7256L23.4805 13.3662V13.376C23.4605 14.8393 23.2263 16.2918 22.7861 17.6875C22.4201 18.7753 21.8475 19.7819 21.0996 20.6523C20.2008 21.6149 19.0796 22.342 17.834 22.7695H17.833C16.5344 23.2165 15.1146 23.4404 12.2559 23.5H11.7451C9.24305 23.4484 7.84375 23.2709 6.66309 22.9277L6.16797 22.7695C4.92609 22.3434 3.80733 21.6196 2.91016 20.6611C2.15756 19.788 1.58086 18.7771 1.21289 17.6846C0.773039 16.2889 0.539716 14.8363 0.519531 13.373L0.518555 13.3643L0.501953 12.7246C0.499596 12.5447 0.5 12.3503 0.5 12C0.5 11.2991 0.499793 11.2226 0.520508 10.6348V10.624C0.540743 9.16075 0.774933 7.70817 1.21484 6.3125C1.53675 5.35765 2.01804 4.46553 2.63672 3.67285L2.91016 3.33887C3.75105 2.44042 4.78641 1.74782 5.93555 1.31348L6.16797 1.23047C7.30423 0.839396 8.5336 0.619085 10.7383 0.530273L11.7451 0.5H12.2559Z" stroke="#F6F6F6"/>
</g>
</g>
<defs>
<clipPath id="clip0_266_45650">
<rect width="24" height="23.9976" fill="white"/>
</clipPath>
</defs>
</svg>
