<svg width="24" height="24" viewBox="0 0 24 24" fill="none" xmlns="http://www.w3.org/2000/svg">
<g clip-path="url(#clip0_266_46482)">
<mask id="mask0_266_46482" style="mask-type:luminance" maskUnits="userSpaceOnUse" x="0" y="0" width="24" height="25">
<path d="M12.0003 0H11.7345C8.85442 0.0600015 7.37418 0.285607 6.00435 0.757219C4.6786 1.2129 3.48517 1.98744 2.52906 3.01268C1.73502 3.93439 1.12719 5.0013 0.739219 6.15435C0.282444 7.59882 0.0398601 9.10244 0.0192005 10.6173C3.79989e-08 11.2131 0 11.2959 0 12.0003C0 12.7047 3.79989e-08 12.7869 0.0192005 13.3803C0.039788 14.8958 0.282372 16.4 0.739219 17.845C1.12693 18.998 1.73479 20.0648 2.52906 20.9861C3.48409 22.0135 4.67778 22.7894 6.00435 23.2452C7.37418 23.7168 8.85322 23.9436 11.7345 24.003H12.2661C15.1462 23.943 16.6264 23.7168 17.9963 23.2452C19.3237 22.7903 20.5184 22.015 21.4745 20.9879C22.2675 20.0655 22.8743 18.9982 23.2614 17.845C23.7179 16.4001 23.9605 14.8961 23.9814 13.3809C24 12.7851 24 12.7035 24 12.0009C24 11.2983 24 11.2137 23.9814 10.6179C23.9604 9.10306 23.7179 7.59949 23.2614 6.15495C22.8739 5.00213 22.2672 3.93511 21.4745 3.01268C20.517 1.98685 19.3219 1.21229 17.9944 0.757219C16.6264 0.285607 15.1474 0.0594015 12.2661 0H12.0003Z" fill="white"/>
</mask>
<g mask="url(#mask0_266_46482)">
<path d="M35.914 -0.155518H-0.605957V16.1403H35.914V-0.155518Z" fill="#E10E00"/>
<path d="M35.914 16.1404H-0.605957V24.1566H35.914V16.1404Z" fill="#1E8206"/>
<path d="M5.8334 -0.154785H-0.605957V24.1494H5.8334V-0.154785Z" fill="white"/>
<path d="M5.5358 0.173828H-0.30835V23.8264H5.5358V0.173828Z" fill="white"/>
<path fill-rule="evenodd" clip-rule="evenodd" d="M1.57036 22.5498H1.79416V22.1688H1.54036V21.7967H1.34655V21.3713H1.11615V21.7523H0.856341V22.1652H0.623535V22.575H0.879141V22.9548H1.10715V23.3652H1.33335V22.9452H1.57036V22.5498ZM1.33755 22.5696H1.07955V22.1652H1.33755V22.5696Z" fill="#E10E00"/>
<path fill-rule="evenodd" clip-rule="evenodd" d="M3.44653 1.83766H3.67814V2.24987H3.93915V2.63088H4.16895V2.20487H4.36396V1.83226H4.61416V1.45005H4.39276V1.05404H4.15695V0.634033H3.93075V1.04744H3.70154V1.42605H3.44653V1.83766ZM3.90254 1.43025H4.16055V1.83526H3.90254V1.43025Z" fill="#E10E00"/>
<path fill-rule="evenodd" clip-rule="evenodd" d="M0.627087 23.3651H0.387081V22.9703H0.130875V22.5437H-0.0737305V23.3543H0.199876V23.7929H-0.0737305V24.1589H0.844292V23.7665H0.627087V23.3651Z" fill="#E10E00"/>
<path fill-rule="evenodd" clip-rule="evenodd" d="M0.623535 1.83766H0.856341V2.24987H1.11615V2.63088H1.34655V2.20487H1.54036V1.83226H1.79416V1.45005H1.57036V1.05404H1.33335V0.634033H1.10715V1.04744H0.879141V1.42605H0.623535V1.83766ZM1.07895 1.43025H1.33695V1.83526H1.07895V1.43025Z" fill="#E10E00"/>
<path fill-rule="evenodd" clip-rule="evenodd" d="M0.145275 12.9981H0.35408V12.5841H0.622887V12.1587H0.853893V11.7735H0.628287V11.3931H0.388281V11.0157H0.156675V10.6064H-0.0737305V13.4001H0.144675L0.145275 12.9981Z" fill="#E10E00"/>
<path fill-rule="evenodd" clip-rule="evenodd" d="M0.131475 1.03371H0.388281V0.638302H0.628287V0.236892H0.845492V-0.155518H-0.0737305V0.211092H0.199276V0.649103H-0.0737305V1.45912H0.130875L0.131475 1.03371Z" fill="#E10E00"/>
<path fill-rule="evenodd" clip-rule="evenodd" d="M4.39276 22.5498H4.61416V22.1688H4.36396V21.7967H4.16895V21.3713H3.93915V21.7523H3.67814V22.1652H3.44653V22.575H3.70154V22.9548H3.93075V23.3652H4.15695V22.9452H4.39276V22.5498ZM4.16055 22.5696H3.90254V22.1652H4.16055V22.5696Z" fill="#E10E00"/>
<path fill-rule="evenodd" clip-rule="evenodd" d="M5.33068 13.4V10.6057H5.10027V11.0155H4.86807V11.3923H4.62806V11.7727H4.40186V12.1586H4.63346V12.584H4.90227V12.998H5.11227V13.4H5.33068Z" fill="#E10E00"/>
<path d="M4.84456 4.22827H4.59375V4.62608H4.84456V4.22827Z" fill="#E10E00"/>
<path d="M0.624697 4.22876H0.373291V4.62597H0.624697V4.22876Z" fill="#E10E00"/>
<path fill-rule="evenodd" clip-rule="evenodd" d="M4.38798 -0.155518V0.244692H4.61119V0.670103H4.84339V1.03851H5.0726V1.45192H5.3186V1.84133H5.0942V2.23794H4.87219V2.65495H4.64119V3.03236H4.41738V3.44457H4.14078V3.85378H3.92717V3.43977H3.69556V3.02036H3.44116V2.62675H3.22515V2.24454H2.98515V1.84133H2.74814V1.45912H2.95335V1.03371H3.21195V0.638302H3.45196V0.236892H3.66916V-0.155518H2.74094V0.653903H2.50753V-0.155518H1.56491V0.244692H1.78872V0.670103H2.02032V1.03851H2.25073V1.45192H2.49553V1.84133H2.27413V2.23794H2.04972V2.65495H1.81812V3.03236H1.59371V3.44457H1.3183V3.85378H1.1041V3.43977H0.872493V3.02036H0.618087V2.62675H0.403881V2.24454H0.163875V1.84133H-0.0737305V2.60455H0.199276V3.04316H-0.0737305V4.23419H0.160875V3.82618H0.387081V3.42357H0.609687V3.82618H0.844293V4.23419H1.1089V4.6362H0.844293V5.01361H0.609687V5.41742H0.387081V5.01361H0.160875V4.6362H-0.0737305V5.81103H0.179476V6.22444H-0.0737305V7.02546H0.122474V6.62465H0.387681V6.23584H0.624087V5.80203H0.850893V5.40782H1.0945V5.01421H1.3291V5.41622H1.57991V5.83623H1.79412V6.21364H2.05392V6.62585H2.27413V7.00746H2.50513V7.42747H2.73974V7.00746H2.96415V6.62585H3.19335V6.24064H3.44656V5.80803H3.68176V5.42462H3.88757V5.01361H4.17918V5.43722H4.40118V5.81703H4.61419V6.23164H4.85899V6.61865H5.099V7.02906H5.3228V6.23764H5.0708V5.81403H5.32401V4.6362H5.0654V5.01361H4.83079V5.41742H4.60699V5.01361H4.38018V4.6362H4.14558V4.23419H4.38018V3.82618H4.60699V3.42357H4.83079V3.82618H5.0654V4.23419H5.3276V3.04076H5.0672V2.60455H5.3276V0.643702H5.0714V0.223692H5.3342V-0.155518H4.38798ZM2.25913 4.6362V5.01361H2.02452V5.41742H1.80252V5.01361H1.57391V4.6362H1.3399V4.23419H1.57391V3.82618H1.80252V3.42357H2.02452V3.82618H2.25913V4.23419H2.52373V4.6362H2.25913ZM2.75414 6.21964H2.48353V5.42462H2.75414V6.21964ZM3.92717 4.6362H3.66376V5.01361H3.42736V5.41742H3.20535V5.01361H2.97855V4.6362H2.74334V4.23419H2.97855V3.82618H3.20535V3.42357H3.42736V3.82618H3.66376V4.23419H3.92717V4.6362Z" fill="#E10E00"/>
<path d="M3.44124 4.22827H3.19043V4.62608H3.44124V4.22827Z" fill="#E10E00"/>
<path d="M2.03949 4.22827H1.78809V4.62608H2.03949V4.22827Z" fill="#E10E00"/>
<path d="M3.44124 19.3726H3.19043V19.7728H3.44124V19.3726Z" fill="#E10E00"/>
<path fill-rule="evenodd" clip-rule="evenodd" d="M5.0714 23.3574H5.3276V21.3983H5.0672V20.9609H5.3276V19.7651H5.0654V20.1731H4.83079V20.5751H4.60699V20.1731H4.38018V19.7651H4.14558V19.3625H4.38018V18.9857H4.60699V18.5794H4.83079V18.9857H5.0654V19.3625H5.3276V18.1864H5.0744V17.7628H5.32641V16.972H5.1026V17.383H4.86259V17.7688H4.61419V18.184H4.40118V18.565H4.17918V18.9887H3.88757V18.5782H3.68176V18.1948H3.44656V17.7586H3.19335V17.3728H2.96415V16.993H2.74094V16.573H2.50633V16.993H2.27413V17.3728H2.05572V17.785H1.79412V18.1624H1.57811V18.5824H1.3291V18.9851H1.0945V18.5926H0.850893V18.199H0.624087V17.7646H0.387681V17.377H0.122474V16.9762H-0.0737305V17.7772H0.179476V18.1906H-0.0737305V19.3649H0.160875V18.9881H0.387081V18.5818H0.609687V18.9881H0.844293V19.3649H1.1089V19.7651H0.844293V20.1731H0.609687V20.5751H0.387081V20.1731H0.160875V19.7651H-0.0737305V20.9585H0.199276V21.3959H-0.0737305V22.1585H0.160875V21.7559H0.400881V21.3719H0.618087V20.9783H0.872493V20.5583H1.1041V20.1491H1.3183V20.5595H1.59371V20.9693H1.81812V21.3443H2.04972V21.7643H2.27413V22.1621H2.49853V22.5503H2.25073V22.9644H2.02032V23.3334H1.78872V23.7534H1.56491V24.1548H2.50753V23.3448H2.74094V24.1548H3.66736V23.7624H3.45016V23.3652H3.21015V22.9704H2.95335V22.5437H2.74814V22.1633H2.98275V21.7607H3.22275V21.3767H3.43876V20.9831H3.69316V20.5631H3.92477V20.1491H4.13838V20.5595H4.41498V20.9693H4.63879V21.3443H4.87219V21.7643H5.0942V22.1621H5.3186V22.5503H5.0726V22.9644H4.84339V23.3334H4.61119V23.7534H4.38798V24.1548H5.3342V23.7756H5.0702L5.0714 23.3574ZM2.52373 19.7651H2.25913V20.1731H2.02452V20.5751H1.80252V20.1731H1.57391V19.7651H1.3399V19.3625H1.57391V18.9857H1.80252V18.5794H2.02452V18.9857H2.25913V19.3625H2.52373V19.7651ZM2.48353 17.7772H2.75414V18.5722H2.48353V17.7772ZM3.92717 19.7651H3.66376V20.1731H3.42736V20.5751H3.20535V20.1731H2.97855V19.7651H2.74334V19.3625H2.97855V18.9857H3.20535V18.5794H3.42736V18.9857H3.66376V19.3625H3.92717V19.7651Z" fill="#E10E00"/>
<path d="M4.84456 19.3726H4.59375V19.7728H4.84456V19.3726Z" fill="#E10E00"/>
<path d="M2.03949 19.3726H1.78809V19.7728H2.03949V19.3726Z" fill="#E10E00"/>
<path d="M0.624697 19.3726H0.373291V19.7728H0.624697V19.3726Z" fill="#E10E00"/>
<path fill-rule="evenodd" clip-rule="evenodd" d="M0.133275 9.78673H0.391281V10.2163H0.610286V10.6016H0.846092V10.1923H1.0981V9.79933H1.3381V9.39792H1.56011V8.99591H1.78692V8.5993H2.04612V8.20509H1.80612V7.80068H1.57211V7.39087H0.859293V7.78448H1.3393V8.21829H1.1107V8.6047H0.867093V9.01091H0.615687V8.6089H0.396681V8.20809H0.139875V7.78808H-0.0737305V8.6107H0.174076V9.02471H-0.0737305V9.41712H0.133275V9.78673Z" fill="#E10E00"/>
<path fill-rule="evenodd" clip-rule="evenodd" d="M5.1194 8.21056H4.865V8.61137H4.64659V9.01338H4.39399V8.60477H4.14978V8.21536H3.92357V7.78155H4.40359V7.38794H3.69257V7.79835H3.45796V8.20216H3.21436V8.59637H3.47416V8.99358H3.70217V9.39499H3.92537V9.7964H4.16538V10.1894H4.41619V10.5986H4.65199V10.214H4.8704V9.7868H5.1308V9.41779H5.33421V9.02478H5.084V8.61077H5.33421V7.78875H5.1182L5.1194 8.21056Z" fill="#E10E00"/>
<path fill-rule="evenodd" clip-rule="evenodd" d="M0.139875 15.7911H0.396681V15.3903H0.615687V14.9883H0.867093V15.3927H1.1107V15.7815H1.3375V16.2147H0.857493V16.6084H1.56911V16.2003H1.80312V15.7941H2.04312V15.4017H1.78632V15.0033H1.55951V14.6049H1.3375V14.2017H1.0975V13.8111H0.846093V13.4031H0.610287V13.7865H0.391281V14.2149H0.133275V14.5851H-0.0737305V14.9781H0.174076V15.3927H-0.0737305V16.2147H0.139875V15.7911Z" fill="#E10E00"/>
<path fill-rule="evenodd" clip-rule="evenodd" d="M5.12891 14.2123H4.86791V13.7839H4.6501V13.3999H4.41429V13.8079H4.16349V14.1991H3.92348V14.6047H3.70088V15.0055H3.47407V15.404H3.21606V15.797H3.45967V16.2032H3.69428V16.6112H4.40169V16.2176H3.92168V15.7808H4.14789V15.3926H4.39209V14.9875H4.6441V15.3896H4.86311V15.791H5.11751V16.211H5.33412V15.3896H5.08211V14.9749H5.33412V14.5819H5.12891V14.2123Z" fill="#E10E00"/>
<path fill-rule="evenodd" clip-rule="evenodd" d="M2.62404 9.02466H2.52983V9.40387H2.30003V9.79628H2.04202V10.2247H1.80622V10.6039H1.58661V10.9975H1.33521V12.9848H1.55961V13.3934H1.82482V13.7834H2.03962V14.18H2.28563V14.5862H2.50223V14.9648H2.74224V14.5868H2.95825V14.1806H3.20425V13.784H3.41846V13.394H3.68366V12.9848H3.90747V10.9951H3.65426V10.6015H3.43646V10.2247H3.20125V9.79628H2.94325V9.40387H2.71284V9.02466H2.62404ZM1.80622 12.2137H1.53621V11.7847H1.80622V12.2137ZM3.42986 11.7847H3.69806V12.2119H3.42986V11.7847ZM2.74584 14.21H2.47703V13.7846H2.74584V14.21ZM2.94685 10.9963V10.5847H3.22645V11.3917H3.00025V11.8117H2.72604V12.1717H3.00025V12.5875H3.22645V13.3982H2.94685V12.9818H2.72964V12.5911H2.51423V12.9806H2.28083V13.388L2.03182 13.3928V12.5779H2.27183V12.1705H2.52923V11.8105H2.27423V11.4031H2.03422V10.5883H2.28323V10.9969H2.51423V11.3857H2.73144V10.9957L2.94685 10.9963ZM2.74584 10.2001H2.47703V9.77408H2.74584V10.2001Z" fill="#E10E00"/>
</g>
</g>
<defs>
<clipPath id="clip0_266_46482">
<rect width="24" height="24.003" fill="white"/>
</clipPath>
</defs>
</svg>
