<svg width="32" height="32" viewBox="0 0 32 32" fill="none" xmlns="http://www.w3.org/2000/svg">
<path d="M5 6H21C22.1046 6 23 6.89543 23 8V15C23 16.1046 22.1046 17 21 17H7C5.89543 17 5 16.1046 5 15V6Z" stroke="#111111" stroke-width="1.5" stroke-linecap="round"/>
<path d="M8.5 9.5H11.5" stroke="#111111" stroke-width="1.5" stroke-linecap="round"/>
<path d="M4.80232 18.7791C4.91486 17.7663 5.77099 17 6.79009 17H21.2099C22.229 17 23.0851 17.7663 23.1977 18.7791L23.7532 23.7791C23.8849 24.9639 22.9575 26 21.7655 26H6.23453C5.04251 26 4.11513 24.9639 4.24676 23.7791L4.80232 18.7791Z" stroke="#111111" stroke-width="1.5" stroke-linecap="round"/>
<ellipse cx="21.5" cy="21.5" rx="6.5" ry="6.5" transform="rotate(-180 21.5 21.5)" fill="#111111"/>
<path fill-rule="evenodd" clip-rule="evenodd" d="M18.1996 19.0485C18.4674 18.9208 18.7796 19.0539 18.8968 19.3458L19.9559 21.9838L21.015 19.3458C21.0993 19.1358 21.2897 19.0001 21.5 19.0001C21.7103 19.0001 21.9007 19.1358 21.985 19.3458L23.0441 21.9838L24.1032 19.3458C24.2204 19.0539 24.5326 18.9208 24.8004 19.0485C25.0683 19.1762 25.1905 19.5164 25.0733 19.8083L24.6257 20.9232H25.4706C25.763 20.9232 26 21.1815 26 21.5001C26 21.8187 25.763 22.077 25.4706 22.077H24.1624L23.5291 23.6543C23.4448 23.8643 23.2545 24 23.0441 24C22.8338 24 22.6434 23.8643 22.5591 23.6543L21.5 21.0164L20.4409 23.6543C20.3566 23.8643 20.1662 24 19.9559 24C19.7455 24 19.5552 23.8643 19.4709 23.6543L18.8376 22.077H17.5294C17.237 22.077 17 21.8187 17 21.5001C17 21.1815 17.237 20.9232 17.5294 20.9232H18.3743L17.9267 19.8083C17.8095 19.5164 17.9317 19.1762 18.1996 19.0485Z" fill="white"/>
</svg>
