<svg width="36" height="36" viewBox="0 0 36 36" fill="none" xmlns="http://www.w3.org/2000/svg">
<path d="M11.0144 23.3598C11.1628 22.9731 10.9697 22.5393 10.583 22.3908C10.1963 22.2424 9.76248 22.4356 9.61404 22.8223L7.28464 28.8905C7.1362 29.2772 7.32935 29.711 7.71605 29.8595C8.10276 30.0079 8.53657 29.8148 8.68502 29.4281L11.0144 23.3598Z" fill="#111111"/>
<path d="M25.5 4H5.5C3.567 4 2 5.567 2 7.5V21.5C2 23.433 3.567 25 5.5 25H25.5C27.433 25 29 23.433 29 21.5V7.5C29 5.567 27.433 4 25.5 4Z" fill="white" stroke="#111111"/>
<path d="M8 14H7C6.44772 14 6 14.4477 6 15V20C6 20.5523 6.44772 21 7 21H8C8.55228 21 9 20.5523 9 20V15C9 14.4477 8.55228 14 8 14Z" fill="white" stroke="#111111"/>
<path d="M12 10H13C13.5523 10 14 10.4477 14 11V20C14 20.5523 13.5523 21 13 21H12C11.4477 21 11 20.5523 11 20V11C11 10.4477 11.4477 10 12 10Z" fill="#B9B5EF" stroke="#111111"/>
<path d="M18 12H17C16.4477 12 16 12.4477 16 13V20C16 20.5523 16.4477 21 17 21H18C18.5523 21 19 20.5523 19 20V13C19 12.4477 18.5523 12 18 12Z" stroke="#111111"/>
<path d="M18 12H17C16.4477 12 16 12.4477 16 13V20C16 20.5523 16.4477 21 17 21H18C18.5523 21 19 20.5523 19 20V13C19 12.4477 18.5523 12 18 12Z" stroke="white" stroke-opacity="0.2"/>
<path d="M22 8H23C23.5523 8 24 8.44772 24 9V20C24 20.5523 23.5523 21 23 21H22C21.4477 21 21 20.5523 21 20V9C21 8.44772 21.4477 8 22 8Z" fill="#B9B5EF" stroke="#111111"/>
<path d="M26.5 31.5C30.366 31.5 33.5 28.366 33.5 24.5C33.5 20.634 30.366 17.5 26.5 17.5C22.634 17.5 19.5 20.634 19.5 24.5C19.5 28.366 22.634 31.5 26.5 31.5Z" fill="#FEE456"/>
<path d="M26.5 31C30.0899 31 33 28.0899 33 24.5C33 20.9101 30.0899 18 26.5 18C22.9101 18 20 20.9101 20 24.5C20 28.0899 22.9101 31 26.5 31Z" stroke="#111111"/>
<path d="M23.2998 22.2002L23.5108 23.4192L24.7298 23.2082" stroke="#111111" stroke-width="0.8" stroke-linecap="round" stroke-linejoin="round"/>
<path d="M23.688 23.4014C23.851 22.8524 24.1507 22.3539 24.559 21.9524C24.9685 21.5909 25.4694 21.3488 26.007 21.2524C26.3943 21.1769 26.793 21.1818 27.1783 21.2668C27.5636 21.3518 27.9273 21.515 28.247 21.7464C28.5168 21.9401 28.7533 22.1765 28.947 22.4464C29.2271 22.8368 29.4161 23.2852 29.5 23.7584" stroke="#111111" stroke-width="0.8" stroke-linecap="round" stroke-linejoin="round"/>
<path d="M29.6997 26.7588L29.4887 25.5398L28.2697 25.7508" stroke="#111111" stroke-width="0.8" stroke-linecap="round" stroke-linejoin="round"/>
<path d="M29.312 25.5576C29.149 26.1065 28.8493 26.6051 28.441 27.0066C28.0315 27.3681 27.5306 27.6102 26.993 27.7066C26.6057 27.7821 26.207 27.7771 25.8217 27.6922C25.4364 27.6072 25.0727 27.444 24.753 27.2126C24.4832 27.0189 24.2467 26.7824 24.053 26.5126C23.7729 26.1221 23.5839 25.6738 23.5 25.2006" stroke="#111111" stroke-width="0.8" stroke-linecap="round" stroke-linejoin="round"/>
</svg>
