<svg width="32" height="32" viewBox="0 0 32 32" fill="none" xmlns="http://www.w3.org/2000/svg">
<path fill-rule="evenodd" clip-rule="evenodd" d="M5.44043 13.7168L16.0014 5.02979L26.5614 13.7168V24.9998C26.5596 25.5271 26.4539 26.0488 26.2503 26.5353C26.0468 27.0217 25.7494 27.4633 25.3752 27.8347C25.0009 28.2062 24.5571 28.5003 24.0692 28.7002C23.5813 28.9001 23.0587 29.0019 22.5314 28.9998H9.47143C8.94409 29.0019 8.4215 28.9001 7.9335 28.7002C7.44551 28.5003 7.00167 28.2062 6.62735 27.8348C6.25302 27.4633 5.95554 27.0218 5.75188 26.5354C5.54823 26.0489 5.4424 25.5271 5.44043 24.9998V13.7168Z" fill="#9E9EEE"/>
<path d="M27.9464 16.4688C27.5704 16.4694 27.207 16.3336 26.9234 16.0868L15.9994 6.58983L5.0764 16.0898C4.76565 16.3592 4.36119 16.4952 3.95081 16.4683C3.54042 16.4413 3.15723 16.2536 2.8844 15.9458C2.7496 15.7939 2.64634 15.6168 2.58059 15.4246C2.51485 15.2324 2.48794 15.0291 2.50143 14.8265C2.51492 14.6239 2.56854 14.4259 2.65918 14.2442C2.74981 14.0624 2.87566 13.9005 3.0294 13.7678L14.9764 3.38183C15.2607 3.13556 15.6243 3 16.0004 3C16.3765 3 16.7401 3.13556 17.0244 3.38183L28.9704 13.7678C29.1236 13.9006 29.249 14.0624 29.3393 14.2439C29.4296 14.4254 29.4829 14.623 29.4963 14.8253C29.5097 15.0276 29.4829 15.2305 29.4173 15.4223C29.3517 15.6141 29.2488 15.7911 29.1144 15.9428C28.9684 16.1086 28.7886 16.2412 28.5872 16.332C28.3858 16.4227 28.1673 16.4693 27.9464 16.4688Z" fill="#6D6DE2"/>
<path d="M14.2 15H12.8C12.3582 15 12 15.3582 12 15.8V17.2C12 17.6418 12.3582 18 12.8 18H14.2C14.6418 18 15 17.6418 15 17.2V15.8C15 15.3582 14.6418 15 14.2 15Z" fill="white"/>
<path d="M19.2 15H17.8C17.3582 15 17 15.3582 17 15.8V17.2C17 17.6418 17.3582 18 17.8 18H19.2C19.6418 18 20 17.6418 20 17.2V15.8C20 15.3582 19.6418 15 19.2 15Z" fill="white"/>
<path d="M14.2 20H12.8C12.3582 20 12 20.3582 12 20.8V22.2C12 22.6418 12.3582 23 12.8 23H14.2C14.6418 23 15 22.6418 15 22.2V20.8C15 20.3582 14.6418 20 14.2 20Z" fill="white"/>
<path d="M19.2 20H17.8C17.3582 20 17 20.3582 17 20.8V22.2C17 22.6418 17.3582 23 17.8 23H19.2C19.6418 23 20 22.6418 20 22.2V20.8C20 20.3582 19.6418 20 19.2 20Z" fill="white"/>
</svg>
