<svg width="36" height="36" viewBox="0 0 36 36" fill="none" xmlns="http://www.w3.org/2000/svg">
<path d="M24.591 31H6.41098C5.56176 31.051 4.72679 30.7643 4.08804 30.2023C3.44929 29.6404 3.05855 28.8488 3.00098 28V7.99995C3.05855 7.15115 3.44929 6.35951 4.08804 5.79756C4.72679 5.23562 5.56176 4.94892 6.41098 4.99995H24.591C25.44 4.94919 26.2747 5.23601 26.9133 5.79793C27.5518 6.35985 27.9424 7.15133 28 7.99995V28C27.9424 28.8486 27.5518 29.6401 26.9133 30.202C26.2747 30.7639 25.44 31.0507 24.591 31Z" fill="white"/>
<path d="M22.501 31.5H6.50098C5.57272 31.5 4.68248 31.1313 4.0261 30.4749C3.36973 29.8185 3.00098 28.9283 3.00098 28V8C3.00098 7.07174 3.36973 6.1815 4.0261 5.52513C4.68248 4.86875 5.57272 4.5 6.50098 4.5H24.501C24.9606 4.5 25.4157 4.59053 25.8404 4.76642C26.265 4.94231 26.6508 5.20012 26.9758 5.52513C27.3009 5.85013 27.5587 6.23597 27.7346 6.66061C27.9104 7.08525 28.001 7.54037 28.001 8V28C28.001 28.4596 27.9104 28.9148 27.7346 29.3394C27.5587 29.764 27.3009 30.1499 26.9758 30.4749C26.6508 30.7999 26.265 31.0577 25.8404 31.2336C25.4157 31.4095 24.9606 31.5 24.501 31.5M6.50098 5.5C5.83793 5.5 5.20205 5.76339 4.73321 6.23223C4.26437 6.70107 4.00098 7.33696 4.00098 8V28C4.00098 28.663 4.26437 29.2989 4.73321 29.7678C5.20205 30.2366 5.83793 30.5 6.50098 30.5H24.501C25.164 30.5 25.7999 30.2366 26.2687 29.7678C26.7376 29.2989 27.001 28.663 27.001 28V8C27.001 7.33696 26.7376 6.70107 26.2687 6.23223C25.7999 5.76339 25.164 5.5 24.501 5.5H6.50098Z" fill="#111111"/>
<path d="M31.75 23.9873H24.25C23.7859 23.9873 23.3408 23.8029 23.0126 23.4747C22.6844 23.1466 22.5 22.7014 22.5 22.2373C22.5 21.7732 22.6844 21.3281 23.0126 20.9999C23.3408 20.6717 23.7859 20.4873 24.25 20.4873H31.75C32.2141 20.4873 32.6592 20.6717 32.9874 20.9999C33.3156 21.3281 33.5 21.7732 33.5 22.2373C33.5 22.7014 33.3156 23.1466 32.9874 23.4747C32.6592 23.8029 32.2141 23.9873 31.75 23.9873Z" fill="#FEE456"/>
<path d="M31.75 24.4883H24.25C23.6533 24.4883 23.081 24.2512 22.659 23.8293C22.2371 23.4073 22 22.835 22 22.2383C22 21.6415 22.2371 21.0692 22.659 20.6473C23.081 20.2253 23.6533 19.9883 24.25 19.9883H31.75C32.3467 19.9883 32.919 20.2253 33.341 20.6473C33.7629 21.0692 34 21.6415 34 22.2383C34 22.835 33.7629 23.4073 33.341 23.8293C32.919 24.2512 32.3467 24.4883 31.75 24.4883ZM24.25 20.9883C23.9185 20.9883 23.6005 21.12 23.3661 21.3544C23.1317 21.5888 23 21.9068 23 22.2383C23 22.5698 23.1317 22.8877 23.3661 23.1222C23.6005 23.3566 23.9185 23.4883 24.25 23.4883H31.75C32.0815 23.4883 32.3995 23.3566 32.6339 23.1222C32.8683 22.8877 33 22.5698 33 22.2383C33 21.9068 32.8683 21.5888 32.6339 21.3544C32.3995 21.12 32.0815 20.9883 31.75 20.9883H24.25Z" fill="#111111"/>
<path d="M31.75 27.5H24.25C23.7859 27.5 23.3408 27.3156 23.0126 26.9874C22.6844 26.6592 22.5 26.2141 22.5 25.75C22.5 25.2859 22.6844 24.8408 23.0126 24.5126C23.3408 24.1844 23.7859 24 24.25 24H31.75C32.2141 24 32.6592 24.1844 32.9874 24.5126C33.3156 24.8408 33.5 25.2859 33.5 25.75C33.5 26.2141 33.3156 26.6592 32.9874 26.9874C32.6592 27.3156 32.2141 27.5 31.75 27.5Z" fill="#FEE456"/>
<path d="M31.75 28H24.25C23.6533 28 23.081 27.7629 22.659 27.341C22.2371 26.919 22 26.3467 22 25.75C22 25.1533 22.2371 24.581 22.659 24.159C23.081 23.7371 23.6533 23.5 24.25 23.5H31.75C32.3467 23.5 32.919 23.7371 33.341 24.159C33.7629 24.581 34 25.1533 34 25.75C34 26.3467 33.7629 26.919 33.341 27.341C32.919 27.7629 32.3467 28 31.75 28ZM24.25 24.5C23.9185 24.5 23.6005 24.6317 23.3661 24.8661C23.1317 25.1005 23 25.4185 23 25.75C23 26.0815 23.1317 26.3995 23.3661 26.6339C23.6005 26.8683 23.9185 27 24.25 27H31.75C32.0815 27 32.3995 26.8683 32.6339 26.6339C32.8683 26.3995 33 26.0815 33 25.75C33 25.4185 32.8683 25.1005 32.6339 24.8661C32.3995 24.6317 32.0815 24.5 31.75 24.5H24.25Z" fill="#111111"/>
<path d="M31.75 31H24.25C23.7859 31 23.3408 30.8156 23.0126 30.4874C22.6844 30.1592 22.5 29.7141 22.5 29.25C22.5 28.7859 22.6844 28.3408 23.0126 28.0126C23.3408 27.6844 23.7859 27.5 24.25 27.5H31.75C32.2141 27.5 32.6592 27.6844 32.9874 28.0126C33.3156 28.3408 33.5 28.7859 33.5 29.25C33.5 29.7141 33.3156 30.1592 32.9874 30.4874C32.6592 30.8156 32.2141 31 31.75 31Z" fill="#FEE456"/>
<path d="M31.75 31.5H24.25C23.6533 31.5 23.081 31.2629 22.659 30.841C22.2371 30.419 22 29.8467 22 29.25C22 28.6533 22.2371 28.081 22.659 27.659C23.081 27.2371 23.6533 27 24.25 27H31.75C32.3467 27 32.919 27.2371 33.341 27.659C33.7629 28.081 34 28.6533 34 29.25C34 29.8467 33.7629 30.419 33.341 30.841C32.919 31.2629 32.3467 31.5 31.75 31.5ZM24.25 28C23.9185 28 23.6005 28.1317 23.3661 28.3661C23.1317 28.6005 23 28.9185 23 29.25C23 29.5815 23.1317 29.8995 23.3661 30.1339C23.6005 30.3683 23.9185 30.5 24.25 30.5H31.75C32.0815 30.5 32.3995 30.3683 32.6339 30.1339C32.8683 29.8995 33 29.5815 33 29.25C33 28.9185 32.8683 28.6005 32.6339 28.3661C32.3995 28.1317 32.0815 28 31.75 28H24.25Z" fill="#111111"/>
<path d="M14.5217 15.6048C14.5668 16.2544 14.4062 16.9016 14.0627 17.4548C13.8989 17.666 13.6853 17.8335 13.441 17.9422C13.1967 18.0509 12.9294 18.0975 12.6627 18.0778C12.4001 18.095 12.1372 18.0489 11.8962 17.9432C11.6552 17.8376 11.4431 17.6756 11.2777 17.4708C10.9292 16.9377 10.7613 16.3066 10.7987 15.6708V14.6868C10.7527 14.0403 10.9134 13.3959 11.2577 12.8468C11.4236 12.6384 11.6378 12.4736 11.8818 12.3668C12.1257 12.2599 12.3921 12.2143 12.6577 12.2338C12.921 12.2147 13.1851 12.2592 13.4275 12.3637C13.67 12.4681 13.8837 12.6294 14.0507 12.8338C14.3943 13.364 14.5593 13.9901 14.5217 14.6208V15.6048ZM13.5727 14.5428C13.5996 14.1393 13.5242 13.7355 13.3537 13.3688C13.2837 13.2487 13.1815 13.1506 13.0588 13.0854C12.936 13.0202 12.7974 12.9905 12.6587 12.9998C12.5233 12.991 12.3881 13.0193 12.2675 13.0817C12.147 13.1441 12.0458 13.2382 11.9747 13.3538C11.8052 13.6947 11.726 14.0735 11.7447 14.4538V15.7428C11.7193 16.1507 11.7956 16.5586 11.9667 16.9298C12.0343 17.0547 12.136 17.1578 12.2599 17.227C12.3839 17.2963 12.525 17.3288 12.6667 17.3208C12.8017 17.3286 12.9362 17.2991 13.0555 17.2354C13.1748 17.1717 13.2742 17.0763 13.3427 16.9598C13.5133 16.6082 13.5924 16.2191 13.5727 15.8288V14.5428ZM15.1227 13.4058C15.1172 13.2496 15.1438 13.0939 15.2009 12.9483C15.258 12.8028 15.3444 12.6705 15.4547 12.5598C15.57 12.4487 15.7066 12.3621 15.8564 12.3054C16.0061 12.2487 16.1658 12.2229 16.3257 12.2298C16.4867 12.2223 16.6475 12.2477 16.7982 12.3044C16.949 12.3612 17.0867 12.4481 17.2027 12.5598C17.3137 12.6739 17.4002 12.8095 17.4569 12.9583C17.5137 13.107 17.5395 13.2658 17.5327 13.4248V13.7058C17.5382 13.8609 17.5117 14.0156 17.4549 14.16C17.3981 14.3045 17.3123 14.4358 17.2027 14.5458C17.0876 14.6565 16.9513 14.7426 16.8019 14.799C16.6525 14.8554 16.4933 14.8808 16.3337 14.8738C16.0129 14.8854 15.7005 14.7696 15.4647 14.5518C15.3495 14.4394 15.2594 14.3038 15.2005 14.154C15.1415 14.0042 15.115 13.8436 15.1227 13.6828V13.4058ZM15.7867 13.7058C15.7792 13.865 15.8329 14.0209 15.9367 14.1418C15.9871 14.1972 16.0491 14.2408 16.1182 14.2695C16.1873 14.2982 16.262 14.3112 16.3367 14.3078C16.4101 14.3105 16.4832 14.2971 16.5507 14.2684C16.6183 14.2397 16.6788 14.1965 16.7277 14.1418C16.832 14.0154 16.8848 13.8544 16.8757 13.6908V13.4058C16.8828 13.2464 16.8292 13.0903 16.7257 12.9688C16.6757 12.9129 16.6138 12.8689 16.5446 12.8399C16.4754 12.8108 16.4007 12.7975 16.3257 12.8008C16.2517 12.7977 16.1778 12.8114 16.1098 12.8408C16.0417 12.8702 15.9812 12.9147 15.9327 12.9708C15.8309 13.0969 15.779 13.2559 15.7867 13.4178V13.7058ZM17.8567 16.6058C17.8505 16.4485 17.8776 16.2916 17.9362 16.1455C17.9948 15.9994 18.0836 15.8672 18.1967 15.7578C18.3128 15.6493 18.4491 15.5648 18.5979 15.5092C18.7467 15.4536 18.905 15.428 19.0637 15.4338C19.2228 15.4275 19.3816 15.4528 19.5308 15.5085C19.68 15.5641 19.8166 15.6488 19.9327 15.7578C20.0471 15.8719 20.1363 16.0088 20.1945 16.1595C20.2527 16.3102 20.2787 16.4714 20.2707 16.6328V16.9098C20.2759 17.0643 20.2496 17.2182 20.1936 17.3622C20.1376 17.5062 20.0529 17.6374 19.9447 17.7478C19.8296 17.8597 19.6927 17.9467 19.5425 18.0034C19.3923 18.0602 19.2321 18.0855 19.0717 18.0778C18.9106 18.0851 18.7495 18.06 18.5982 18.004C18.4469 17.948 18.3083 17.8623 18.1907 17.7518C18.0786 17.6392 17.991 17.5045 17.9335 17.3563C17.876 17.2081 17.8499 17.0496 17.8567 16.8908V16.6058ZM18.5207 16.9058C18.5142 17.0655 18.5694 17.2216 18.6747 17.3418C18.7248 17.3978 18.7866 17.4421 18.8558 17.4714C18.9249 17.5008 18.9997 17.5146 19.0747 17.5118C19.1481 17.5153 19.2214 17.5026 19.2893 17.4746C19.3572 17.4466 19.4182 17.404 19.4677 17.3498C19.5673 17.2217 19.6167 17.0617 19.6067 16.8998V16.6068C19.6147 16.4469 19.5602 16.2902 19.4547 16.1698C19.4057 16.1149 19.3454 16.0712 19.2779 16.0419C19.2104 16.0125 19.1373 15.9982 19.0637 15.9998C18.9903 15.9971 18.9171 16.0103 18.8492 16.0386C18.7814 16.0669 18.7205 16.1097 18.6707 16.1638C18.5647 16.2901 18.511 16.4522 18.5207 16.6168V16.9058ZM16.5287 17.5738L16.0407 17.2928L18.8177 12.8478L19.3057 13.1288L16.5287 17.5738Z" fill="#111111"/>
</svg>
