<svg width="36" height="36" viewBox="0 0 36 36" fill="none" xmlns="http://www.w3.org/2000/svg">
<path d="M24.591 31H6.41098C5.56176 31.051 4.72679 30.7643 4.08804 30.2023C3.44929 29.6404 3.05855 28.8488 3.00098 28V7.99995C3.05855 7.15115 3.44929 6.35951 4.08804 5.79756C4.72679 5.23562 5.56176 4.94892 6.41098 4.99995H24.591C25.44 4.94919 26.2747 5.23601 26.9133 5.79793C27.5518 6.35985 27.9424 7.15133 28 7.99995V28C27.9424 28.8486 27.5518 29.6401 26.9133 30.202C26.2747 30.7639 25.44 31.0507 24.591 31Z" fill="white"/>
<path d="M22.501 31.5H6.50098C5.57272 31.5 4.68248 31.1313 4.0261 30.4749C3.36973 29.8185 3.00098 28.9283 3.00098 28V8C3.00098 7.07174 3.36973 6.1815 4.0261 5.52513C4.68248 4.86875 5.57272 4.5 6.50098 4.5H24.501C24.9606 4.5 25.4157 4.59053 25.8404 4.76642C26.265 4.94231 26.6508 5.20012 26.9758 5.52513C27.3009 5.85013 27.5587 6.23597 27.7346 6.66061C27.9104 7.08525 28.001 7.54037 28.001 8V28C28.001 28.4596 27.9104 28.9148 27.7346 29.3394C27.5587 29.764 27.3009 30.1499 26.9758 30.4749C26.6508 30.7999 26.265 31.0577 25.8404 31.2336C25.4157 31.4095 24.9606 31.5 24.501 31.5M6.50098 5.5C5.83793 5.5 5.20205 5.76339 4.73321 6.23223C4.26437 6.70107 4.00098 7.33696 4.00098 8V28C4.00098 28.663 4.26437 29.2989 4.73321 29.7678C5.20205 30.2366 5.83793 30.5 6.50098 30.5H24.501C25.164 30.5 25.7999 30.2366 26.2687 29.7678C26.7376 29.2989 27.001 28.663 27.001 28V8C27.001 7.33696 26.7376 6.70107 26.2687 6.23223C25.7999 5.76339 25.164 5.5 24.501 5.5H6.50098Z" fill="#111111"/>
<path d="M31.75 23.9873H24.25C23.7859 23.9873 23.3408 23.8029 23.0126 23.4747C22.6844 23.1466 22.5 22.7014 22.5 22.2373C22.5 21.7732 22.6844 21.3281 23.0126 20.9999C23.3408 20.6717 23.7859 20.4873 24.25 20.4873H31.75C32.2141 20.4873 32.6592 20.6717 32.9874 20.9999C33.3156 21.3281 33.5 21.7732 33.5 22.2373C33.5 22.7014 33.3156 23.1466 32.9874 23.4747C32.6592 23.8029 32.2141 23.9873 31.75 23.9873Z" fill="#FEE456"/>
<path d="M31.75 24.4883H24.25C23.6533 24.4883 23.081 24.2512 22.659 23.8293C22.2371 23.4073 22 22.835 22 22.2383C22 21.6415 22.2371 21.0692 22.659 20.6473C23.081 20.2253 23.6533 19.9883 24.25 19.9883H31.75C32.3467 19.9883 32.919 20.2253 33.341 20.6473C33.7629 21.0692 34 21.6415 34 22.2383C34 22.835 33.7629 23.4073 33.341 23.8293C32.919 24.2512 32.3467 24.4883 31.75 24.4883ZM24.25 20.9883C23.9185 20.9883 23.6005 21.12 23.3661 21.3544C23.1317 21.5888 23 21.9068 23 22.2383C23 22.5698 23.1317 22.8877 23.3661 23.1222C23.6005 23.3566 23.9185 23.4883 24.25 23.4883H31.75C32.0815 23.4883 32.3995 23.3566 32.6339 23.1222C32.8683 22.8877 33 22.5698 33 22.2383C33 21.9068 32.8683 21.5888 32.6339 21.3544C32.3995 21.12 32.0815 20.9883 31.75 20.9883H24.25Z" fill="#111111"/>
<path d="M31.75 27.5H24.25C23.7859 27.5 23.3408 27.3156 23.0126 26.9874C22.6844 26.6592 22.5 26.2141 22.5 25.75C22.5 25.2859 22.6844 24.8408 23.0126 24.5126C23.3408 24.1844 23.7859 24 24.25 24H31.75C32.2141 24 32.6592 24.1844 32.9874 24.5126C33.3156 24.8408 33.5 25.2859 33.5 25.75C33.5 26.2141 33.3156 26.6592 32.9874 26.9874C32.6592 27.3156 32.2141 27.5 31.75 27.5Z" fill="#FEE456"/>
<path d="M31.75 28H24.25C23.6533 28 23.081 27.7629 22.659 27.341C22.2371 26.919 22 26.3467 22 25.75C22 25.1533 22.2371 24.581 22.659 24.159C23.081 23.7371 23.6533 23.5 24.25 23.5H31.75C32.3467 23.5 32.919 23.7371 33.341 24.159C33.7629 24.581 34 25.1533 34 25.75C34 26.3467 33.7629 26.919 33.341 27.341C32.919 27.7629 32.3467 28 31.75 28ZM24.25 24.5C23.9185 24.5 23.6005 24.6317 23.3661 24.8661C23.1317 25.1005 23 25.4185 23 25.75C23 26.0815 23.1317 26.3995 23.3661 26.6339C23.6005 26.8683 23.9185 27 24.25 27H31.75C32.0815 27 32.3995 26.8683 32.6339 26.6339C32.8683 26.3995 33 26.0815 33 25.75C33 25.4185 32.8683 25.1005 32.6339 24.8661C32.3995 24.6317 32.0815 24.5 31.75 24.5H24.25Z" fill="#111111"/>
<path d="M31.75 31H24.25C23.7859 31 23.3408 30.8156 23.0126 30.4874C22.6844 30.1592 22.5 29.7141 22.5 29.25C22.5 28.7859 22.6844 28.3408 23.0126 28.0126C23.3408 27.6844 23.7859 27.5 24.25 27.5H31.75C32.2141 27.5 32.6592 27.6844 32.9874 28.0126C33.3156 28.3408 33.5 28.7859 33.5 29.25C33.5 29.7141 33.3156 30.1592 32.9874 30.4874C32.6592 30.8156 32.2141 31 31.75 31Z" fill="#FEE456"/>
<path d="M31.75 31.5H24.25C23.6533 31.5 23.081 31.2629 22.659 30.841C22.2371 30.419 22 29.8467 22 29.25C22 28.6533 22.2371 28.081 22.659 27.659C23.081 27.2371 23.6533 27 24.25 27H31.75C32.3467 27 32.919 27.2371 33.341 27.659C33.7629 28.081 34 28.6533 34 29.25C34 29.8467 33.7629 30.419 33.341 30.841C32.919 31.2629 32.3467 31.5 31.75 31.5ZM24.25 28C23.9185 28 23.6005 28.1317 23.3661 28.3661C23.1317 28.6005 23 28.9185 23 29.25C23 29.5815 23.1317 29.8995 23.3661 30.1339C23.6005 30.3683 23.9185 30.5 24.25 30.5H31.75C32.0815 30.5 32.3995 30.3683 32.6339 30.1339C32.8683 29.8995 33 29.5815 33 29.25C33 28.9185 32.8683 28.6005 32.6339 28.3661C32.3995 28.1317 32.0815 28 31.75 28H24.25Z" fill="#111111"/>
<path d="M11.2121 17.9998H10.2671V13.4338L8.87207 13.9108V13.1108L11.0911 12.2948H11.2121V17.9998ZM13.2421 15.1798L13.5511 12.3128H16.6051V13.1328H14.3401L14.1841 14.4918C14.4556 14.3383 14.7632 14.26 15.0751 14.2648C15.3112 14.2516 15.5473 14.2915 15.766 14.3815C15.9848 14.4714 16.1806 14.6093 16.3391 14.7848C16.6566 15.18 16.8172 15.6785 16.7901 16.1848C16.8025 16.4367 16.7647 16.6885 16.6789 16.9256C16.5931 17.1627 16.4609 17.3803 16.2901 17.5658C16.1091 17.7413 15.8938 17.8773 15.6577 17.9655C15.4215 18.0536 15.1697 18.0918 14.9181 18.0778C14.4465 18.0951 13.9852 17.9373 13.6231 17.6348C13.4538 17.4894 13.3168 17.3102 13.2208 17.1087C13.1249 16.9072 13.0722 16.6879 13.0661 16.4648H13.9841C14.004 16.7058 14.1106 16.9314 14.2841 17.0998C14.4581 17.2512 14.6836 17.3299 14.9141 17.3198C15.0451 17.3268 15.1758 17.3021 15.2952 17.2477C15.4147 17.1934 15.5192 17.1111 15.6001 17.0078C15.7736 16.7589 15.8582 16.4587 15.8401 16.1558C15.8562 15.8577 15.7598 15.5643 15.5701 15.3338C15.476 15.2324 15.3607 15.153 15.2325 15.1012C15.1042 15.0493 14.9662 15.0263 14.8281 15.0338C14.6795 15.03 14.5315 15.053 14.3911 15.1018C14.2447 15.1651 14.1119 15.2561 14.0001 15.3698L13.2421 15.1798ZM17.3001 13.4058C17.2945 13.2496 17.3211 13.0939 17.3782 12.9483C17.4353 12.8028 17.5217 12.6705 17.6321 12.5598C17.747 12.449 17.8831 12.3627 18.0323 12.306C18.1815 12.2493 18.3406 12.2234 18.5001 12.2298C18.661 12.2223 18.8218 12.2477 18.9726 12.3044C19.1234 12.3612 19.261 12.4481 19.3771 12.5598C19.488 12.6739 19.5745 12.8095 19.6313 12.9583C19.688 13.107 19.7138 13.2658 19.7071 13.4248V13.7058C19.7125 13.8609 19.686 14.0156 19.6292 14.16C19.5725 14.3045 19.4866 14.4358 19.3771 14.5458C19.262 14.6565 19.1256 14.7426 18.9762 14.799C18.8269 14.8554 18.6676 14.8808 18.5081 14.8738C18.1873 14.8854 17.8749 14.7696 17.6391 14.5518C17.5245 14.4392 17.4351 14.3037 17.3767 14.1541C17.3182 14.0045 17.2921 13.8442 17.3001 13.6838V13.4058ZM17.9641 13.7058C17.9566 13.865 18.0102 14.0209 18.1141 14.1418C18.1644 14.1972 18.2264 14.2408 18.2955 14.2695C18.3647 14.2982 18.4393 14.3112 18.5141 14.3078C18.5865 14.3099 18.6586 14.2963 18.7252 14.2678C18.7919 14.2393 18.8515 14.1966 18.9001 14.1428C19.0043 14.0164 19.0572 13.8554 19.0481 13.6918V13.4068C19.0551 13.2474 19.0015 13.0913 18.8981 12.9698C18.8484 12.9139 18.7869 12.8696 18.7181 12.8402C18.6493 12.8108 18.5748 12.797 18.5001 12.7998C18.426 12.7967 18.3522 12.8104 18.2841 12.8398C18.2161 12.8692 18.1555 12.9137 18.1071 12.9698C18.0053 13.0959 17.9533 13.2549 17.9611 13.4168L17.9641 13.7058ZM20.0341 16.6058C20.0278 16.4485 20.0549 16.2916 20.1135 16.1455C20.1721 15.9994 20.2609 15.8672 20.3741 15.7578C20.4901 15.6493 20.6264 15.5648 20.7752 15.5092C20.924 15.4536 21.0823 15.428 21.2411 15.4338C21.4002 15.4275 21.5589 15.4528 21.7081 15.5085C21.8573 15.5641 21.994 15.6488 22.1101 15.7578C22.2244 15.8719 22.3136 16.0088 22.3718 16.1595C22.43 16.3102 22.456 16.4714 22.4481 16.6328V16.9098C22.4532 17.0643 22.427 17.2182 22.3709 17.3622C22.3149 17.5062 22.2302 17.6374 22.1221 17.7478C22.0069 17.8597 21.87 17.9467 21.7198 18.0034C21.5697 18.0602 21.4094 18.0855 21.2491 18.0778C21.0879 18.0851 20.9269 18.06 20.7756 18.004C20.6242 17.948 20.4857 17.8623 20.3681 17.7518C20.2559 17.6392 20.1683 17.5045 20.1108 17.3563C20.0534 17.2081 20.0272 17.0496 20.0341 16.8908V16.6058ZM20.6981 16.9058C20.6916 17.0655 20.7467 17.2216 20.8521 17.3418C20.9021 17.3978 20.964 17.4421 21.0331 17.4714C21.1022 17.5008 21.177 17.5146 21.2521 17.5118C21.3255 17.5153 21.3987 17.5026 21.4666 17.4746C21.5346 17.4466 21.5955 17.404 21.6451 17.3498C21.7432 17.2211 21.7911 17.0612 21.7801 16.8998V16.6068C21.788 16.4469 21.7335 16.2902 21.6281 16.1698C21.5792 16.115 21.519 16.0714 21.4517 16.0421C21.3844 16.0128 21.3115 15.9983 21.2381 15.9998C21.1646 15.9971 21.0914 16.0103 21.0236 16.0386C20.9557 16.0669 20.8948 16.1097 20.8451 16.1638C20.739 16.2901 20.6853 16.4522 20.6951 16.6168L20.6981 16.9058ZM18.7001 17.5738L18.2141 17.2928L20.9911 12.8478L21.4791 13.1288L18.7001 17.5738Z" fill="#111111"/>
</svg>
