<svg width="36" height="36" viewBox="0 0 36 36" fill="none" xmlns="http://www.w3.org/2000/svg">
<path d="M24.591 31H6.41098C5.56176 31.051 4.72679 30.7643 4.08804 30.2023C3.44929 29.6404 3.05855 28.8488 3.00098 28V7.99995C3.05855 7.15115 3.44929 6.35951 4.08804 5.79756C4.72679 5.23562 5.56176 4.94892 6.41098 4.99995H24.591C25.44 4.94919 26.2747 5.23601 26.9133 5.79793C27.5518 6.35985 27.9424 7.15133 28 7.99995V28C27.9424 28.8486 27.5518 29.6401 26.9133 30.202C26.2747 30.7639 25.44 31.0507 24.591 31Z" fill="white"/>
<path d="M22.501 31.5H6.50098C5.57272 31.5 4.68248 31.1313 4.0261 30.4749C3.36973 29.8185 3.00098 28.9283 3.00098 28V8C3.00098 7.07174 3.36973 6.1815 4.0261 5.52513C4.68248 4.86875 5.57272 4.5 6.50098 4.5H24.501C24.9606 4.5 25.4157 4.59053 25.8404 4.76642C26.265 4.94231 26.6508 5.20012 26.9758 5.52513C27.3009 5.85013 27.5587 6.23597 27.7346 6.66061C27.9104 7.08525 28.001 7.54037 28.001 8V28C28.001 28.4596 27.9104 28.9148 27.7346 29.3394C27.5587 29.764 27.3009 30.1499 26.9758 30.4749C26.6508 30.7999 26.265 31.0577 25.8404 31.2336C25.4157 31.4095 24.9606 31.5 24.501 31.5M6.50098 5.5C5.83793 5.5 5.20205 5.76339 4.73321 6.23223C4.26437 6.70107 4.00098 7.33696 4.00098 8V28C4.00098 28.663 4.26437 29.2989 4.73321 29.7678C5.20205 30.2366 5.83793 30.5 6.50098 30.5H24.501C25.164 30.5 25.7999 30.2366 26.2687 29.7678C26.7376 29.2989 27.001 28.663 27.001 28V8C27.001 7.33696 26.7376 6.70107 26.2687 6.23223C25.7999 5.76339 25.164 5.5 24.501 5.5H6.50098Z" fill="#111111"/>
<path d="M31.75 23.9873H24.25C23.7859 23.9873 23.3408 23.8029 23.0126 23.4747C22.6844 23.1466 22.5 22.7014 22.5 22.2373C22.5 21.7732 22.6844 21.3281 23.0126 20.9999C23.3408 20.6717 23.7859 20.4873 24.25 20.4873H31.75C32.2141 20.4873 32.6592 20.6717 32.9874 20.9999C33.3156 21.3281 33.5 21.7732 33.5 22.2373C33.5 22.7014 33.3156 23.1466 32.9874 23.4747C32.6592 23.8029 32.2141 23.9873 31.75 23.9873Z" fill="#FEE456"/>
<path d="M31.75 24.4883H24.25C23.6533 24.4883 23.081 24.2512 22.659 23.8293C22.2371 23.4073 22 22.835 22 22.2383C22 21.6415 22.2371 21.0692 22.659 20.6473C23.081 20.2253 23.6533 19.9883 24.25 19.9883H31.75C32.3467 19.9883 32.919 20.2253 33.341 20.6473C33.7629 21.0692 34 21.6415 34 22.2383C34 22.835 33.7629 23.4073 33.341 23.8293C32.919 24.2512 32.3467 24.4883 31.75 24.4883ZM24.25 20.9883C23.9185 20.9883 23.6005 21.12 23.3661 21.3544C23.1317 21.5888 23 21.9068 23 22.2383C23 22.5698 23.1317 22.8877 23.3661 23.1222C23.6005 23.3566 23.9185 23.4883 24.25 23.4883H31.75C32.0815 23.4883 32.3995 23.3566 32.6339 23.1222C32.8683 22.8877 33 22.5698 33 22.2383C33 21.9068 32.8683 21.5888 32.6339 21.3544C32.3995 21.12 32.0815 20.9883 31.75 20.9883H24.25Z" fill="#111111"/>
<path d="M31.75 27.5H24.25C23.7859 27.5 23.3408 27.3156 23.0126 26.9874C22.6844 26.6592 22.5 26.2141 22.5 25.75C22.5 25.2859 22.6844 24.8408 23.0126 24.5126C23.3408 24.1844 23.7859 24 24.25 24H31.75C32.2141 24 32.6592 24.1844 32.9874 24.5126C33.3156 24.8408 33.5 25.2859 33.5 25.75C33.5 26.2141 33.3156 26.6592 32.9874 26.9874C32.6592 27.3156 32.2141 27.5 31.75 27.5Z" fill="#FEE456"/>
<path d="M31.75 28H24.25C23.6533 28 23.081 27.7629 22.659 27.341C22.2371 26.919 22 26.3467 22 25.75C22 25.1533 22.2371 24.581 22.659 24.159C23.081 23.7371 23.6533 23.5 24.25 23.5H31.75C32.3467 23.5 32.919 23.7371 33.341 24.159C33.7629 24.581 34 25.1533 34 25.75C34 26.3467 33.7629 26.919 33.341 27.341C32.919 27.7629 32.3467 28 31.75 28ZM24.25 24.5C23.9185 24.5 23.6005 24.6317 23.3661 24.8661C23.1317 25.1005 23 25.4185 23 25.75C23 26.0815 23.1317 26.3995 23.3661 26.6339C23.6005 26.8683 23.9185 27 24.25 27H31.75C32.0815 27 32.3995 26.8683 32.6339 26.6339C32.8683 26.3995 33 26.0815 33 25.75C33 25.4185 32.8683 25.1005 32.6339 24.8661C32.3995 24.6317 32.0815 24.5 31.75 24.5H24.25Z" fill="#111111"/>
<path d="M31.75 31H24.25C23.7859 31 23.3408 30.8156 23.0126 30.4874C22.6844 30.1592 22.5 29.7141 22.5 29.25C22.5 28.7859 22.6844 28.3408 23.0126 28.0126C23.3408 27.6844 23.7859 27.5 24.25 27.5H31.75C32.2141 27.5 32.6592 27.6844 32.9874 28.0126C33.3156 28.3408 33.5 28.7859 33.5 29.25C33.5 29.7141 33.3156 30.1592 32.9874 30.4874C32.6592 30.8156 32.2141 31 31.75 31Z" fill="#FEE456"/>
<path d="M31.75 31.5H24.25C23.6533 31.5 23.081 31.2629 22.659 30.841C22.2371 30.419 22 29.8467 22 29.25C22 28.6533 22.2371 28.081 22.659 27.659C23.081 27.2371 23.6533 27 24.25 27H31.75C32.3467 27 32.919 27.2371 33.341 27.659C33.7629 28.081 34 28.6533 34 29.25C34 29.8467 33.7629 30.419 33.341 30.841C32.919 31.2629 32.3467 31.5 31.75 31.5ZM24.25 28C23.9185 28 23.6005 28.1317 23.3661 28.3661C23.1317 28.6005 23 28.9185 23 29.25C23 29.5815 23.1317 29.8995 23.3661 30.1339C23.6005 30.3683 23.9185 30.5 24.25 30.5H31.75C32.0815 30.5 32.3995 30.3683 32.6339 30.1339C32.8683 29.8995 33 29.5815 33 29.25C33 28.9185 32.8683 28.6005 32.6339 28.3661C32.3995 28.1317 32.0815 28 31.75 28H24.25Z" fill="#111111"/>
<path d="M12.1683 14.9303C12.1865 15.3369 12.0556 15.7363 11.8003 16.0533C11.6892 16.1915 11.5481 16.3027 11.3876 16.3782C11.2272 16.4537 11.0516 16.4917 10.8743 16.4893C10.6909 16.4913 10.5091 16.4541 10.3413 16.3803C10.1406 16.2818 9.95586 16.1537 9.79326 16.0003C9.66207 15.8739 9.51717 15.7625 9.36126 15.6683C9.27448 15.6256 9.17896 15.6037 9.08226 15.6043C9.00243 15.6011 8.92304 15.6177 8.85117 15.6526C8.77929 15.6875 8.71715 15.7396 8.67026 15.8043C8.56404 15.9603 8.51139 16.1467 8.52026 16.3353H7.76626C7.74873 15.9379 7.87473 15.5474 8.12126 15.2353C8.23336 15.0967 8.37602 14.9859 8.53805 14.9117C8.70009 14.8374 8.87711 14.8017 9.05526 14.8073C9.24433 14.8064 9.43144 14.8456 9.60426 14.9223C9.8039 15.017 9.98719 15.1429 10.1473 15.2953C10.2725 15.4186 10.4114 15.5273 10.5613 15.6193C10.649 15.6635 10.746 15.6861 10.8443 15.6853C10.9278 15.6865 11.0103 15.6672 11.0846 15.629C11.1589 15.5908 11.2227 15.5349 11.2703 15.4663C11.3838 15.307 11.4415 15.1147 11.4343 14.9193L12.1683 14.9303ZM15.4213 18.0003H14.4763V13.4343L13.0813 13.9113V13.1113L15.3003 12.2933H15.4213V18.0003ZM22.1003 13.8883V15.6723H22.8123V11.5723H22.1003V13.3003H20.9803V13.8843L22.1003 13.8883ZM22.8203 18.5683V16.0323H18.1323V16.6003H22.1003V18.5683H22.8203ZM18.9483 11.9203C18.7145 11.9103 18.4812 11.9476 18.2621 12.0298C18.0431 12.112 17.8429 12.2374 17.6734 12.3987C17.5039 12.56 17.3686 12.7537 17.2757 12.9684C17.1827 13.1831 17.1339 13.4143 17.1323 13.6483C17.1355 13.8793 17.1858 14.1072 17.2801 14.318C17.3744 14.5289 17.5107 14.7184 17.6806 14.8749C17.8506 15.0314 18.0506 15.1515 18.2686 15.2281C18.4865 15.3047 18.7178 15.3361 18.9483 15.3203C19.1787 15.3361 19.41 15.3047 19.628 15.2281C19.8459 15.1515 20.046 15.0314 20.2159 14.8749C20.3859 14.7184 20.5221 14.5289 20.6164 14.318C20.7107 14.1072 20.761 13.8793 20.7643 13.6483C20.7627 13.4143 20.7141 13.183 20.6211 12.9683C20.5282 12.7535 20.3929 12.5597 20.2234 12.3984C20.0539 12.2371 19.8536 12.1116 19.6345 12.0295C19.4154 11.9473 19.182 11.9102 18.9483 11.9203ZM18.9483 12.5363C19.0954 12.5299 19.2423 12.5544 19.3794 12.6082C19.5166 12.662 19.6409 12.7439 19.7445 12.8486C19.8481 12.9534 19.9287 13.0786 19.981 13.2163C20.0333 13.354 20.0562 13.5012 20.0483 13.6483C20.0545 13.7944 20.0303 13.9402 19.9772 14.0765C19.9241 14.2127 19.8433 14.3365 19.7399 14.4399C19.6365 14.5433 19.5127 14.6241 19.3765 14.6772C19.2402 14.7303 19.0944 14.7545 18.9483 14.7483C18.8026 14.7528 18.6575 14.7275 18.5219 14.6739C18.3864 14.6202 18.2633 14.5393 18.1603 14.4363C18.0572 14.3332 17.9763 14.2101 17.9227 14.0746C17.869 13.939 17.8437 13.794 17.8483 13.6483C17.8427 13.5018 17.8673 13.3557 17.9205 13.2191C17.9737 13.0825 18.0543 12.9582 18.1574 12.854C18.2605 12.7498 18.3839 12.6678 18.5199 12.6131C18.6559 12.5585 18.8017 12.5323 18.9483 12.5363Z" fill="#111111"/>
</svg>
