<svg width="36" height="36" viewBox="0 0 36 36" fill="none" xmlns="http://www.w3.org/2000/svg">
<path d="M24.591 31H6.41098C5.56176 31.051 4.72679 30.7643 4.08804 30.2023C3.44929 29.6404 3.05855 28.8488 3.00098 28V7.99995C3.05855 7.15115 3.44929 6.35951 4.08804 5.79756C4.72679 5.23562 5.56176 4.94892 6.41098 4.99995H24.591C25.44 4.94919 26.2747 5.23601 26.9133 5.79793C27.5518 6.35985 27.9424 7.15133 28 7.99995V28C27.9424 28.8486 27.5518 29.6401 26.9133 30.202C26.2747 30.7639 25.44 31.0507 24.591 31Z" fill="white"/>
<path d="M22.501 31.5H6.50098C5.57272 31.5 4.68248 31.1313 4.0261 30.4749C3.36973 29.8185 3.00098 28.9283 3.00098 28V8C3.00098 7.07174 3.36973 6.1815 4.0261 5.52513C4.68248 4.86875 5.57272 4.5 6.50098 4.5H24.501C24.9606 4.5 25.4157 4.59053 25.8404 4.76642C26.265 4.94231 26.6508 5.20012 26.9758 5.52513C27.3009 5.85013 27.5587 6.23597 27.7346 6.66061C27.9104 7.08525 28.001 7.54037 28.001 8V28C28.001 28.4596 27.9104 28.9148 27.7346 29.3394C27.5587 29.764 27.3009 30.1499 26.9758 30.4749C26.6508 30.7999 26.265 31.0577 25.8404 31.2336C25.4157 31.4095 24.9606 31.5 24.501 31.5M6.50098 5.5C5.83793 5.5 5.20205 5.76339 4.73321 6.23223C4.26437 6.70107 4.00098 7.33696 4.00098 8V28C4.00098 28.663 4.26437 29.2989 4.73321 29.7678C5.20205 30.2366 5.83793 30.5 6.50098 30.5H24.501C25.164 30.5 25.7999 30.2366 26.2687 29.7678C26.7376 29.2989 27.001 28.663 27.001 28V8C27.001 7.33696 26.7376 6.70107 26.2687 6.23223C25.7999 5.76339 25.164 5.5 24.501 5.5H6.50098Z" fill="#111111"/>
<path d="M31.75 23.9873H24.25C23.7859 23.9873 23.3408 23.8029 23.0126 23.4747C22.6844 23.1466 22.5 22.7014 22.5 22.2373C22.5 21.7732 22.6844 21.3281 23.0126 20.9999C23.3408 20.6717 23.7859 20.4873 24.25 20.4873H31.75C32.2141 20.4873 32.6592 20.6717 32.9874 20.9999C33.3156 21.3281 33.5 21.7732 33.5 22.2373C33.5 22.7014 33.3156 23.1466 32.9874 23.4747C32.6592 23.8029 32.2141 23.9873 31.75 23.9873Z" fill="#FEE456"/>
<path d="M31.75 24.4883H24.25C23.6533 24.4883 23.081 24.2512 22.659 23.8293C22.2371 23.4073 22 22.835 22 22.2383C22 21.6415 22.2371 21.0692 22.659 20.6473C23.081 20.2253 23.6533 19.9883 24.25 19.9883H31.75C32.3467 19.9883 32.919 20.2253 33.341 20.6473C33.7629 21.0692 34 21.6415 34 22.2383C34 22.835 33.7629 23.4073 33.341 23.8293C32.919 24.2512 32.3467 24.4883 31.75 24.4883ZM24.25 20.9883C23.9185 20.9883 23.6005 21.12 23.3661 21.3544C23.1317 21.5888 23 21.9068 23 22.2383C23 22.5698 23.1317 22.8877 23.3661 23.1222C23.6005 23.3566 23.9185 23.4883 24.25 23.4883H31.75C32.0815 23.4883 32.3995 23.3566 32.6339 23.1222C32.8683 22.8877 33 22.5698 33 22.2383C33 21.9068 32.8683 21.5888 32.6339 21.3544C32.3995 21.12 32.0815 20.9883 31.75 20.9883H24.25Z" fill="#111111"/>
<path d="M31.75 27.5H24.25C23.7859 27.5 23.3408 27.3156 23.0126 26.9874C22.6844 26.6592 22.5 26.2141 22.5 25.75C22.5 25.2859 22.6844 24.8408 23.0126 24.5126C23.3408 24.1844 23.7859 24 24.25 24H31.75C32.2141 24 32.6592 24.1844 32.9874 24.5126C33.3156 24.8408 33.5 25.2859 33.5 25.75C33.5 26.2141 33.3156 26.6592 32.9874 26.9874C32.6592 27.3156 32.2141 27.5 31.75 27.5Z" fill="#FEE456"/>
<path d="M31.75 28H24.25C23.6533 28 23.081 27.7629 22.659 27.341C22.2371 26.919 22 26.3467 22 25.75C22 25.1533 22.2371 24.581 22.659 24.159C23.081 23.7371 23.6533 23.5 24.25 23.5H31.75C32.3467 23.5 32.919 23.7371 33.341 24.159C33.7629 24.581 34 25.1533 34 25.75C34 26.3467 33.7629 26.919 33.341 27.341C32.919 27.7629 32.3467 28 31.75 28ZM24.25 24.5C23.9185 24.5 23.6005 24.6317 23.3661 24.8661C23.1317 25.1005 23 25.4185 23 25.75C23 26.0815 23.1317 26.3995 23.3661 26.6339C23.6005 26.8683 23.9185 27 24.25 27H31.75C32.0815 27 32.3995 26.8683 32.6339 26.6339C32.8683 26.3995 33 26.0815 33 25.75C33 25.4185 32.8683 25.1005 32.6339 24.8661C32.3995 24.6317 32.0815 24.5 31.75 24.5H24.25Z" fill="#111111"/>
<path d="M31.75 31H24.25C23.7859 31 23.3408 30.8156 23.0126 30.4874C22.6844 30.1592 22.5 29.7141 22.5 29.25C22.5 28.7859 22.6844 28.3408 23.0126 28.0126C23.3408 27.6844 23.7859 27.5 24.25 27.5H31.75C32.2141 27.5 32.6592 27.6844 32.9874 28.0126C33.3156 28.3408 33.5 28.7859 33.5 29.25C33.5 29.7141 33.3156 30.1592 32.9874 30.4874C32.6592 30.8156 32.2141 31 31.75 31Z" fill="#FEE456"/>
<path d="M31.75 31.5H24.25C23.6533 31.5 23.081 31.2629 22.659 30.841C22.2371 30.419 22 29.8467 22 29.25C22 28.6533 22.2371 28.081 22.659 27.659C23.081 27.2371 23.6533 27 24.25 27H31.75C32.3467 27 32.919 27.2371 33.341 27.659C33.7629 28.081 34 28.6533 34 29.25C34 29.8467 33.7629 30.419 33.341 30.841C32.919 31.2629 32.3467 31.5 31.75 31.5ZM24.25 28C23.9185 28 23.6005 28.1317 23.3661 28.3661C23.1317 28.6005 23 28.9185 23 29.25C23 29.5815 23.1317 29.8995 23.3661 30.1339C23.6005 30.3683 23.9185 30.5 24.25 30.5H31.75C32.0815 30.5 32.3995 30.3683 32.6339 30.1339C32.8683 29.8995 33 29.5815 33 29.25C33 28.9185 32.8683 28.6005 32.6339 28.3661C32.3995 28.1317 32.0815 28 31.75 28H24.25Z" fill="#111111"/>
<path d="M12.6898 14.9298C12.7072 15.3368 12.5753 15.7362 12.3188 16.0528C12.2078 16.1911 12.0666 16.3022 11.9062 16.3777C11.7457 16.4533 11.5702 16.4913 11.3928 16.4888C11.2094 16.4908 11.0277 16.4536 10.8598 16.3798C10.6602 16.281 10.4765 16.153 10.3148 15.9998C10.1837 15.8734 10.0388 15.762 9.88284 15.6678C9.79476 15.6249 9.69781 15.6033 9.59984 15.6048C9.52 15.6016 9.44062 15.6182 9.36874 15.6531C9.29687 15.688 9.23473 15.7401 9.18784 15.8048C9.08161 15.9609 9.02897 16.1472 9.03784 16.3358H8.28384C8.2663 15.9384 8.39231 15.548 8.63884 15.2358C8.75094 15.0972 8.89359 14.9865 9.05563 14.9122C9.21767 14.838 9.39469 14.8022 9.57284 14.8078C9.76191 14.8069 9.94902 14.8461 10.1218 14.9228C10.3215 15.0175 10.5048 15.1435 10.6648 15.2958C10.7901 15.4191 10.929 15.5278 11.0788 15.6198C11.1666 15.664 11.2636 15.6866 11.3618 15.6858C11.4454 15.6871 11.5279 15.6677 11.6022 15.6295C11.6765 15.5914 11.7403 15.5355 11.7878 15.4668C11.9014 15.3076 11.959 15.1152 11.9518 14.9198L12.6898 14.9298ZM17.1578 12.8398L14.8848 17.9998H13.8848L16.1578 13.0738H13.2168V12.3118H17.1578V12.8398ZM17.6808 13.4058C17.6753 13.2496 17.7019 13.0939 17.759 12.9483C17.8161 12.8028 17.9025 12.6705 18.0128 12.5598C18.1281 12.4487 18.2647 12.3621 18.4145 12.3054C18.5642 12.2487 18.7239 12.2229 18.8838 12.2298C19.0448 12.2223 19.2056 12.2477 19.3563 12.3044C19.5071 12.3612 19.6448 12.4481 19.7608 12.5598C19.8718 12.6739 19.9583 12.8095 20.015 12.9583C20.0718 13.107 20.0976 13.2658 20.0908 13.4248V13.7058C20.0963 13.8609 20.0698 14.0156 20.013 14.16C19.9562 14.3045 19.8704 14.4358 19.7608 14.5458C19.6457 14.6565 19.5094 14.7426 19.36 14.799C19.2106 14.8554 19.0513 14.8808 18.8918 14.8738C18.571 14.8854 18.2586 14.7696 18.0228 14.5518C17.9076 14.4394 17.8175 14.3038 17.7586 14.154C17.6996 14.0042 17.6731 13.8436 17.6808 13.6828V13.4058ZM18.3448 13.7058C18.3385 13.866 18.394 14.0224 18.4998 14.1428C18.5502 14.1982 18.6122 14.2418 18.6813 14.2705C18.7504 14.2992 18.8251 14.3122 18.8998 14.3088C18.9732 14.3115 19.0463 14.2981 19.1138 14.2694C19.1814 14.2407 19.2418 14.1975 19.2908 14.1428C19.3951 14.0164 19.4479 13.8554 19.4388 13.6918V13.4068C19.4459 13.2474 19.3923 13.0913 19.2888 12.9698C19.2387 12.9139 19.1769 12.8699 19.1077 12.8409C19.0385 12.8118 18.9638 12.7985 18.8888 12.8018C18.8148 12.7987 18.7409 12.8124 18.6729 12.8418C18.6048 12.8712 18.5443 12.9157 18.4958 12.9718C18.394 13.0979 18.3421 13.2569 18.3498 13.4188L18.3448 13.7058ZM20.4148 16.6058C20.4086 16.4485 20.4357 16.2916 20.4943 16.1455C20.5529 15.9994 20.6417 15.8672 20.7548 15.7578C20.8709 15.6493 21.0072 15.5648 21.156 15.5092C21.3048 15.4536 21.4631 15.428 21.6218 15.4338C21.7809 15.4275 21.9397 15.4528 22.0889 15.5085C22.2381 15.5641 22.3747 15.6488 22.4908 15.7578C22.6052 15.8719 22.6944 16.0088 22.7526 16.1595C22.8108 16.3102 22.8368 16.4714 22.8288 16.6328V16.9098C22.8336 17.0645 22.8069 17.2185 22.7503 17.3626C22.6938 17.5066 22.6086 17.6377 22.4998 17.7478C22.3847 17.8597 22.2478 17.9467 22.0976 18.0034C21.9474 18.0602 21.7872 18.0855 21.6268 18.0778C21.4657 18.0851 21.3046 18.06 21.1533 18.004C21.002 17.948 20.8634 17.8623 20.7458 17.7518C20.6337 17.6392 20.5461 17.5045 20.4886 17.3563C20.4311 17.2081 20.405 17.0496 20.4118 16.8908L20.4148 16.6058ZM21.0788 16.9058C21.0723 17.0655 21.1275 17.2216 21.2328 17.3418C21.2829 17.3978 21.3447 17.4421 21.4139 17.4714C21.483 17.5008 21.5578 17.5146 21.6328 17.5118C21.7062 17.5153 21.7795 17.5026 21.8474 17.4746C21.9153 17.4466 21.9763 17.404 22.0258 17.3498C22.1254 17.2217 22.1748 17.0617 22.1648 16.8998V16.6068C22.1728 16.4469 22.1183 16.2902 22.0128 16.1698C21.9638 16.1149 21.9035 16.0712 21.836 16.0419C21.7685 16.0125 21.6954 15.9982 21.6218 15.9998C21.5484 15.9971 21.4752 16.0103 21.4073 16.0386C21.3395 16.0669 21.2786 16.1097 21.2288 16.1638C21.1228 16.2901 21.0691 16.4522 21.0788 16.6168V16.9058ZM19.0868 17.5738L18.5998 17.2928L21.3758 12.8478L21.8638 13.1288L19.0868 17.5738Z" fill="#111111"/>
</svg>
