<svg width="36" height="36" viewBox="0 0 36 36" fill="none" xmlns="http://www.w3.org/2000/svg">
<path d="M24.591 31H6.41098C5.56176 31.051 4.72679 30.7643 4.08804 30.2023C3.44929 29.6404 3.05855 28.8488 3.00098 28V7.99995C3.05855 7.15115 3.44929 6.35951 4.08804 5.79756C4.72679 5.23562 5.56176 4.94892 6.41098 4.99995H24.591C25.44 4.94919 26.2747 5.23601 26.9133 5.79793C27.5518 6.35985 27.9424 7.15133 28 7.99995V28C27.9424 28.8486 27.5518 29.6401 26.9133 30.202C26.2747 30.7639 25.44 31.0507 24.591 31Z" fill="white"/>
<path d="M22.501 31.5H6.50098C5.57272 31.5 4.68248 31.1313 4.0261 30.4749C3.36973 29.8185 3.00098 28.9283 3.00098 28V8C3.00098 7.07174 3.36973 6.1815 4.0261 5.52513C4.68248 4.86875 5.57272 4.5 6.50098 4.5H24.501C24.9606 4.5 25.4157 4.59053 25.8404 4.76642C26.265 4.94231 26.6508 5.20012 26.9758 5.52513C27.3009 5.85013 27.5587 6.23597 27.7346 6.66061C27.9104 7.08525 28.001 7.54037 28.001 8V28C28.001 28.4596 27.9104 28.9148 27.7346 29.3394C27.5587 29.764 27.3009 30.1499 26.9758 30.4749C26.6508 30.7999 26.265 31.0577 25.8404 31.2336C25.4157 31.4095 24.9606 31.5 24.501 31.5M6.50098 5.5C5.83793 5.5 5.20205 5.76339 4.73321 6.23223C4.26437 6.70107 4.00098 7.33696 4.00098 8V28C4.00098 28.663 4.26437 29.2989 4.73321 29.7678C5.20205 30.2366 5.83793 30.5 6.50098 30.5H24.501C25.164 30.5 25.7999 30.2366 26.2687 29.7678C26.7376 29.2989 27.001 28.663 27.001 28V8C27.001 7.33696 26.7376 6.70107 26.2687 6.23223C25.7999 5.76339 25.164 5.5 24.501 5.5H6.50098Z" fill="#111111"/>
<path d="M31.75 23.9873H24.25C23.7859 23.9873 23.3408 23.8029 23.0126 23.4747C22.6844 23.1466 22.5 22.7014 22.5 22.2373C22.5 21.7732 22.6844 21.3281 23.0126 20.9999C23.3408 20.6717 23.7859 20.4873 24.25 20.4873H31.75C32.2141 20.4873 32.6592 20.6717 32.9874 20.9999C33.3156 21.3281 33.5 21.7732 33.5 22.2373C33.5 22.7014 33.3156 23.1466 32.9874 23.4747C32.6592 23.8029 32.2141 23.9873 31.75 23.9873Z" fill="#FEE456"/>
<path d="M31.75 24.4883H24.25C23.6533 24.4883 23.081 24.2512 22.659 23.8293C22.2371 23.4073 22 22.835 22 22.2383C22 21.6415 22.2371 21.0692 22.659 20.6473C23.081 20.2253 23.6533 19.9883 24.25 19.9883H31.75C32.3467 19.9883 32.919 20.2253 33.341 20.6473C33.7629 21.0692 34 21.6415 34 22.2383C34 22.835 33.7629 23.4073 33.341 23.8293C32.919 24.2512 32.3467 24.4883 31.75 24.4883ZM24.25 20.9883C23.9185 20.9883 23.6005 21.12 23.3661 21.3544C23.1317 21.5888 23 21.9068 23 22.2383C23 22.5698 23.1317 22.8877 23.3661 23.1222C23.6005 23.3566 23.9185 23.4883 24.25 23.4883H31.75C32.0815 23.4883 32.3995 23.3566 32.6339 23.1222C32.8683 22.8877 33 22.5698 33 22.2383C33 21.9068 32.8683 21.5888 32.6339 21.3544C32.3995 21.12 32.0815 20.9883 31.75 20.9883H24.25Z" fill="#111111"/>
<path d="M31.75 27.5H24.25C23.7859 27.5 23.3408 27.3156 23.0126 26.9874C22.6844 26.6592 22.5 26.2141 22.5 25.75C22.5 25.2859 22.6844 24.8408 23.0126 24.5126C23.3408 24.1844 23.7859 24 24.25 24H31.75C32.2141 24 32.6592 24.1844 32.9874 24.5126C33.3156 24.8408 33.5 25.2859 33.5 25.75C33.5 26.2141 33.3156 26.6592 32.9874 26.9874C32.6592 27.3156 32.2141 27.5 31.75 27.5Z" fill="#FEE456"/>
<path d="M31.75 28H24.25C23.6533 28 23.081 27.7629 22.659 27.341C22.2371 26.919 22 26.3467 22 25.75C22 25.1533 22.2371 24.581 22.659 24.159C23.081 23.7371 23.6533 23.5 24.25 23.5H31.75C32.3467 23.5 32.919 23.7371 33.341 24.159C33.7629 24.581 34 25.1533 34 25.75C34 26.3467 33.7629 26.919 33.341 27.341C32.919 27.7629 32.3467 28 31.75 28ZM24.25 24.5C23.9185 24.5 23.6005 24.6317 23.3661 24.8661C23.1317 25.1005 23 25.4185 23 25.75C23 26.0815 23.1317 26.3995 23.3661 26.6339C23.6005 26.8683 23.9185 27 24.25 27H31.75C32.0815 27 32.3995 26.8683 32.6339 26.6339C32.8683 26.3995 33 26.0815 33 25.75C33 25.4185 32.8683 25.1005 32.6339 24.8661C32.3995 24.6317 32.0815 24.5 31.75 24.5H24.25Z" fill="#111111"/>
<path d="M31.75 31H24.25C23.7859 31 23.3408 30.8156 23.0126 30.4874C22.6844 30.1592 22.5 29.7141 22.5 29.25C22.5 28.7859 22.6844 28.3408 23.0126 28.0126C23.3408 27.6844 23.7859 27.5 24.25 27.5H31.75C32.2141 27.5 32.6592 27.6844 32.9874 28.0126C33.3156 28.3408 33.5 28.7859 33.5 29.25C33.5 29.7141 33.3156 30.1592 32.9874 30.4874C32.6592 30.8156 32.2141 31 31.75 31Z" fill="#FEE456"/>
<path d="M31.75 31.5H24.25C23.6533 31.5 23.081 31.2629 22.659 30.841C22.2371 30.419 22 29.8467 22 29.25C22 28.6533 22.2371 28.081 22.659 27.659C23.081 27.2371 23.6533 27 24.25 27H31.75C32.3467 27 32.919 27.2371 33.341 27.659C33.7629 28.081 34 28.6533 34 29.25C34 29.8467 33.7629 30.419 33.341 30.841C32.919 31.2629 32.3467 31.5 31.75 31.5ZM24.25 28C23.9185 28 23.6005 28.1317 23.3661 28.3661C23.1317 28.6005 23 28.9185 23 29.25C23 29.5815 23.1317 29.8995 23.3661 30.1339C23.6005 30.3683 23.9185 30.5 24.25 30.5H31.75C32.0815 30.5 32.3995 30.3683 32.6339 30.1339C32.8683 29.8995 33 29.5815 33 29.25C33 28.9185 32.8683 28.6005 32.6339 28.3661C32.3995 28.1317 32.0815 28 31.75 28H24.25Z" fill="#111111"/>
<path d="M22.8209 16.0322V18.5674H22.1002V16.5996H18.1325V16.0322H22.8209Z" fill="#111111"/>
<path d="M16.5407 13.1201H14.2721L14.1159 14.4785C14.3874 14.3251 14.6956 14.2471 15.0075 14.252C15.2437 14.2386 15.48 14.2782 15.6989 14.3682C15.9177 14.4581 16.1136 14.5959 16.2721 14.7715C16.5897 15.1667 16.7504 15.6656 16.7233 16.1719C16.7357 16.4236 16.6977 16.6751 16.612 16.9121C16.5261 17.1492 16.3941 17.3672 16.2233 17.5527C16.0425 17.728 15.8274 17.864 15.5915 17.9521C15.3555 18.0403 15.1037 18.0783 14.8522 18.0645C14.3807 18.0817 13.9194 17.9245 13.5573 17.6221C13.388 17.4767 13.2509 17.2972 13.1549 17.0957C13.0591 16.8943 13.0068 16.6751 13.0006 16.4521H13.9186C13.9386 16.693 14.045 16.9186 14.2184 17.0869C14.3924 17.2382 14.6179 17.3167 14.8483 17.3066C14.9786 17.313 15.1085 17.2877 15.2272 17.2334C15.3457 17.1792 15.4495 17.0977 15.5299 16.9951C15.7042 16.7464 15.7896 16.4457 15.7721 16.1426C15.7882 15.8447 15.6921 15.5517 15.5026 15.3213C15.4085 15.2199 15.2929 15.1397 15.1647 15.0879C15.0365 15.0361 14.8984 15.0131 14.7604 15.0205C14.6118 15.0167 14.4633 15.0401 14.3229 15.0889C14.1767 15.1522 14.044 15.243 13.9323 15.3564L13.1774 15.167L13.486 12.2998H16.5407V13.1201Z" fill="#111111"/>
<path d="M9.05532 14.8066C9.24428 14.8058 9.43141 14.8453 9.60415 14.9219C9.80372 15.0166 9.98708 15.1426 10.1471 15.2949C10.2724 15.4182 10.4114 15.5272 10.5612 15.6191C10.6489 15.6633 10.7462 15.6854 10.8444 15.6846C10.9278 15.6858 11.0104 15.667 11.0846 15.6289C11.1588 15.5908 11.2226 15.5344 11.2702 15.4658C11.3837 15.3066 11.4414 15.1143 11.4342 14.9189L12.1686 14.9297C12.1868 15.3363 12.0558 15.7357 11.8004 16.0527C11.6894 16.1909 11.5487 16.3024 11.3883 16.3779C11.2279 16.4535 11.052 16.4917 10.8747 16.4893C10.6913 16.4913 10.5093 16.4537 10.3415 16.3799C10.1408 16.2814 9.95615 16.1533 9.7936 16C9.66252 15.8737 9.51773 15.7622 9.36196 15.668C9.27521 15.6253 9.17933 15.603 9.08266 15.6035C9.00283 15.6003 8.92309 15.6175 8.85122 15.6523C8.77948 15.6872 8.71737 15.7391 8.67055 15.8037C8.56433 15.9598 8.51129 16.1464 8.52016 16.335H7.76626C7.74872 15.9376 7.87519 15.5465 8.12172 15.2344C8.23379 15.096 8.37681 14.9853 8.53872 14.9111C8.70059 14.837 8.87737 14.8011 9.05532 14.8066Z" fill="#111111"/>
<path d="M22.8122 11.5713V15.6719H22.1002V13.8877L20.9801 13.8838V13.2998H22.1002V11.5713H22.8122Z" fill="#111111"/>
<path fill-rule="evenodd" clip-rule="evenodd" d="M18.9489 11.9199C19.1824 11.9099 19.4155 11.9473 19.6344 12.0293C19.8533 12.1114 20.0539 12.2364 20.2233 12.3975C20.3928 12.5588 20.5288 12.753 20.6217 12.9678C20.7146 13.1824 20.7627 13.4136 20.7643 13.6475C20.761 13.8784 20.7111 14.1065 20.6168 14.3174C20.5226 14.5281 20.3862 14.7176 20.2165 14.874C20.0466 15.0304 19.8464 15.151 19.6286 15.2275C19.4107 15.3041 19.1792 15.3351 18.9489 15.3193C18.7185 15.3351 18.4871 15.304 18.2692 15.2275C18.0512 15.151 17.8512 15.0305 17.6813 14.874C17.5113 14.7176 17.3742 14.5283 17.2799 14.3174C17.1857 14.1066 17.1357 13.8783 17.1325 13.6475C17.1342 13.4136 17.1831 13.1824 17.276 12.9678C17.369 12.7532 17.5041 12.5596 17.6735 12.3984C17.8429 12.2372 18.0433 12.1115 18.2623 12.0293C18.4814 11.9471 18.7151 11.91 18.9489 11.9199ZM18.9489 12.5361C18.8024 12.5322 18.6562 12.5577 18.5202 12.6123C18.3842 12.6669 18.2609 12.7493 18.1579 12.8535C18.0548 12.9577 17.9737 13.0821 17.9206 13.2188C17.8675 13.3552 17.8428 13.5012 17.8483 13.6475C17.8437 13.7931 17.8689 13.9387 17.9225 14.0742C17.9762 14.2097 18.0577 14.3325 18.1608 14.4355C18.2639 14.5386 18.3866 14.6202 18.5221 14.6738C18.6576 14.7275 18.8032 14.7526 18.9489 14.748C19.0948 14.7542 19.2405 14.7298 19.3766 14.6768C19.5128 14.6237 19.6365 14.5428 19.7399 14.4395C19.8432 14.3361 19.9241 14.2123 19.9772 14.0762C20.0303 13.9399 20.0547 13.7936 20.0485 13.6475C20.0564 13.5005 20.0334 13.3534 19.9811 13.2158C19.9288 13.0782 19.8483 12.9533 19.7448 12.8486C19.6412 12.7439 19.5167 12.6612 19.3795 12.6074C19.2426 12.5537 19.0958 12.5298 18.9489 12.5361Z" fill="#111111"/>
</svg>
