<svg width="32" height="32" viewBox="0 0 32 32" fill="none" xmlns="http://www.w3.org/2000/svg">
<path d="M1 9C1 7.34315 2.34315 6 4 6H22.5549C23.5697 6 24.5157 6.51304 25.0693 7.36357L29.8825 14.7592C30.5564 15.7947 30.5266 17.1374 29.8075 18.1419L25.0793 24.7463C24.516 25.5332 23.6077 26 22.64 26H4C2.34315 26 1 24.6569 1 23V9Z" fill="#A766E7"/>
<path d="M14.4194 22C14.2013 22 14.0184 21.9361 13.8708 21.8083C13.7232 21.6806 13.6494 21.5222 13.6494 21.3333V20.5667C13.0719 20.4556 12.565 20.2611 12.1286 19.9833C11.6923 19.7056 11.3394 19.3167 11.0699 18.8167C10.98 18.6611 10.9768 18.4972 11.0602 18.325C11.1437 18.1528 11.2945 18.0278 11.5126 17.95C11.6923 17.8833 11.8784 17.8861 12.0709 17.9583C12.2634 18.0306 12.411 18.15 12.5136 18.3167C12.7318 18.65 13.0077 18.9028 13.3414 19.075C13.6751 19.2472 14.0858 19.3333 14.5734 19.3333C15.0996 19.3333 15.5456 19.2306 15.9113 19.025C16.2771 18.8194 16.46 18.5 16.46 18.0667C16.46 17.6778 16.3188 17.3694 16.0365 17.1417C15.7541 16.9139 15.0996 16.6556 14.0729 16.3667C12.9692 16.0667 12.2121 15.7083 11.8014 15.2917C11.3907 14.875 11.1854 14.3667 11.1854 13.7667C11.1854 13.0444 11.4549 12.4833 11.9939 12.0833C12.5329 11.6833 13.0847 11.4556 13.6494 11.4V10.6667C13.6494 10.4778 13.7232 10.3194 13.8708 10.1917C14.0184 10.0639 14.2013 10 14.4194 10C14.6376 10 14.8205 10.0639 14.9681 10.1917C15.1157 10.3194 15.1894 10.4778 15.1894 10.6667V11.4C15.6771 11.4667 16.1006 11.6028 16.46 11.8083C16.8193 12.0139 17.1145 12.2667 17.3455 12.5667C17.461 12.7111 17.4834 12.8722 17.4129 13.05C17.3423 13.2278 17.1979 13.3556 16.9797 13.4333C16.8001 13.5 16.614 13.5028 16.4215 13.4417C16.229 13.3806 16.0493 13.2722 15.8825 13.1167C15.7156 12.9611 15.5199 12.8417 15.2953 12.7583C15.0707 12.675 14.7916 12.6333 14.4579 12.6333C13.8933 12.6333 13.4633 12.7417 13.1682 12.9583C12.873 13.175 12.7254 13.4444 12.7254 13.7667C12.7254 14.1333 12.9179 14.4222 13.3029 14.6333C13.6879 14.8444 14.3553 15.0667 15.3049 15.3C16.1905 15.5222 16.861 15.875 17.3166 16.3583C17.7722 16.8417 18 17.4 18 18.0333C18 18.8222 17.7305 19.4222 17.1915 19.8333C16.6525 20.2444 15.9851 20.5 15.1894 20.6V21.3333C15.1894 21.5222 15.1157 21.6806 14.9681 21.8083C14.8205 21.9361 14.6376 22 14.4194 22Z" fill="white"/>
</svg>
