<svg width="36" height="36" viewBox="0 0 36 36" fill="none" xmlns="http://www.w3.org/2000/svg">
<mask id="path-1-inside-1_262_10445" fill="white">
<path d="M2.51648 15.998C2.39699 15.9988 2.28095 15.958 2.18822 15.8827C2.0955 15.8073 2.03186 15.702 2.00823 15.5849C1.98459 15.4678 2.00241 15.3461 2.05865 15.2407C2.11489 15.1352 2.20604 15.0526 2.31648 15.007L25.9085 5.17902C26.0346 5.12598 26.1766 5.1252 26.3033 5.17687C26.43 5.22854 26.5309 5.32841 26.584 5.45452C26.637 5.58063 26.6378 5.72265 26.5861 5.84933C26.5345 5.97601 26.4346 6.07698 26.3085 6.13002L2.71348 15.958C2.6502 15.9847 2.58217 15.9983 2.51348 15.998"/>
</mask>
<path d="M2.51648 15.998C2.39699 15.9988 2.28095 15.958 2.18822 15.8827C2.0955 15.8073 2.03186 15.702 2.00823 15.5849C1.98459 15.4678 2.00241 15.3461 2.05865 15.2407C2.11489 15.1352 2.20604 15.0526 2.31648 15.007L25.9085 5.17902C26.0346 5.12598 26.1766 5.1252 26.3033 5.17687C26.43 5.22854 26.5309 5.32841 26.584 5.45452C26.637 5.58063 26.6378 5.72265 26.5861 5.84933C26.5345 5.97601 26.4346 6.07698 26.3085 6.13002L2.71348 15.958C2.6502 15.9847 2.58217 15.9983 2.51348 15.998" fill="#212121"/>
<path d="M2.31648 15.007L2.69816 15.9313L2.70103 15.9301L2.31648 15.007ZM25.9085 5.17902L26.293 6.10213L26.2962 6.1008L25.9085 5.17902ZM26.3085 6.13002L26.693 7.05315L26.6962 7.0518L26.3085 6.13002ZM2.71348 15.958L2.32897 15.0349L2.32451 15.0368L2.71348 15.958ZM2.51648 15.998L2.50981 14.998C2.62234 14.9973 2.73163 15.0357 2.81895 15.1067L2.18822 15.8827L1.55749 16.6587C1.83027 16.8804 2.17165 17.0003 2.52315 16.998L2.51648 15.998ZM2.18822 15.8827L2.81895 15.1067C2.90628 15.1776 2.9662 15.2768 2.98846 15.3871L2.00823 15.5849L1.02799 15.7827C1.09753 16.1273 1.28472 16.437 1.55749 16.6587L2.18822 15.8827ZM2.00823 15.5849L2.98846 15.3871C3.01072 15.4974 2.99394 15.612 2.94097 15.7113L2.05865 15.2407L1.17633 14.77C1.01089 15.0802 0.95845 15.4382 1.02799 15.7827L2.00823 15.5849ZM2.05865 15.2407L2.94097 15.7113C2.88801 15.8106 2.80217 15.8884 2.69816 15.9313L2.31648 15.007L1.9348 14.0827C1.6099 14.2169 1.34177 14.4599 1.17633 14.77L2.05865 15.2407ZM2.31648 15.007L2.70103 15.9301L26.293 6.10213L25.9085 5.17902L25.5239 4.25592L1.93193 14.0839L2.31648 15.007ZM25.9085 5.17902L26.2962 6.1008C26.1778 6.15059 26.0445 6.15131 25.9256 6.10282L26.3033 5.17687L26.6809 4.25092C26.3087 4.0991 25.8914 4.10137 25.5208 4.25724L25.9085 5.17902ZM26.3033 5.17687L25.9256 6.10282C25.8067 6.05433 25.712 5.96059 25.6622 5.84223L26.584 5.45452L27.5058 5.06681C27.3499 4.69623 27.0532 4.40275 26.6809 4.25092L26.3033 5.17687ZM26.584 5.45452L25.6622 5.84223C25.6124 5.72387 25.6117 5.59058 25.6602 5.47168L26.5861 5.84933L27.5121 6.22697C27.6639 5.85471 27.6616 5.43739 27.5058 5.06681L26.584 5.45452ZM26.5861 5.84933L25.6602 5.47168C25.7087 5.35279 25.8024 5.25802 25.9208 5.20824L26.3085 6.13002L26.6962 7.0518C27.0668 6.89593 27.3603 6.59923 27.5121 6.22697L26.5861 5.84933ZM26.3085 6.13002L25.924 5.2069L2.32897 15.0349L2.71348 15.958L3.09799 16.8811L26.693 7.05314L26.3085 6.13002ZM2.71348 15.958L2.32451 15.0368C2.38579 15.0109 2.45169 14.9977 2.51821 14.998L2.51348 15.998L2.50876 16.998C2.71265 16.999 2.91462 16.9586 3.10246 16.8793L2.71348 15.958Z" fill="white" mask="url(#path-1-inside-1_262_10445)"/>
<path d="M23.3142 3.5C23.3161 3.50003 23.3183 3.50028 23.3201 3.50098L27.3484 5.11328C27.3501 5.11401 27.3519 5.11491 27.3533 5.11621C27.3546 5.11756 27.3554 5.11933 27.3562 5.12109C27.357 5.1229 27.3572 5.12501 27.3572 5.12695L27.3562 5.13281L25.7205 9.21973C25.7193 9.22241 25.717 9.22493 25.7146 9.22656C25.7106 9.22918 25.7077 9.22938 25.7068 9.22949H25.7019L25.7009 9.22852L25.6921 9.2207C25.6906 9.21703 25.6908 9.21274 25.6921 9.20898L27.1365 5.59961L27.323 5.13574L26.8582 4.94922L23.3083 3.5293C23.3065 3.52856 23.3049 3.52772 23.3035 3.52637C23.302 3.52496 23.3004 3.52335 23.2996 3.52148C23.2988 3.51966 23.2986 3.5176 23.2986 3.51562C23.2986 3.51363 23.2988 3.5116 23.2996 3.50977C23.3002 3.50805 23.3012 3.50626 23.3025 3.50488C23.3039 3.50343 23.3065 3.50177 23.3083 3.50098C23.3101 3.5003 23.3124 3.50002 23.3142 3.5Z" fill="#212121" stroke="white"/>
<path d="M18.2655 32.7689H23.4165V13.7139C23.4165 13.3042 23.2537 12.9112 22.964 12.6215C22.6742 12.3317 22.2813 12.1689 21.8715 12.1689H19.8115C19.4017 12.1689 19.0088 12.3317 18.719 12.6215C18.4293 12.9112 18.2665 13.3042 18.2665 13.7139L18.2655 32.7689Z" fill="#B9B5EF"/>
<path d="M23.416 33.2873H18.265C18.1284 33.2873 17.9974 33.2331 17.9008 33.1365C17.8043 33.0399 17.75 32.9089 17.75 32.7723V13.7133C17.7505 13.1671 17.9677 12.6435 18.3539 12.2573C18.7402 11.8711 19.2638 11.6538 19.81 11.6533H21.874C22.4202 11.6538 22.9438 11.8711 23.3301 12.2573C23.7163 12.6435 23.9335 13.1671 23.934 13.7133V32.7723C23.934 32.9089 23.8797 33.0399 23.7832 33.1365C23.6866 33.2331 23.5556 33.2873 23.419 33.2873M18.78 32.2543H22.901V13.7133C22.9007 13.4402 22.7921 13.1784 22.599 12.9853C22.4059 12.7922 22.1441 12.6836 21.871 12.6833H19.811C19.5379 12.6836 19.2761 12.7922 19.083 12.9853C18.8899 13.1784 18.7813 13.4402 18.781 13.7133L18.78 32.2543Z" fill="#111111"/>
<path d="M11.1429 32.7727H15.2639C15.4005 32.7727 15.5315 32.7184 15.6281 32.6218C15.7246 32.5253 15.7789 32.3943 15.7789 32.2577V18.3497C15.7789 17.9399 15.6161 17.547 15.3264 17.2572C15.0366 16.9675 14.6437 16.8047 14.2339 16.8047H12.1739C11.7641 16.8047 11.3712 16.9675 11.0814 17.2572C10.7917 17.547 10.6289 17.9399 10.6289 18.3497V32.2577C10.6289 32.3943 10.6832 32.5253 10.7797 32.6218C10.8763 32.7184 11.0063 32.7727 11.1429 32.7727Z" fill="white"/>
<path d="M15.2644 33.2901H11.1424C10.8693 33.2898 10.6075 33.1812 10.4144 32.9881C10.2213 32.795 10.1127 32.5332 10.1124 32.2601V18.3491C10.113 17.8029 10.3302 17.2792 10.7164 16.893C11.1026 16.5068 11.6262 16.2896 12.1724 16.2891H14.2324C14.7786 16.2896 15.3023 16.5068 15.6885 16.893C16.0747 17.2792 16.2919 17.8029 16.2924 18.3491V32.2571C16.293 32.5303 16.185 32.7926 15.9922 32.9863C15.7995 33.18 15.5377 33.2893 15.2644 33.2901ZM12.1724 17.3191C11.8993 17.3193 11.6375 17.4279 11.4444 17.621C11.2513 17.8141 11.1427 18.076 11.1424 18.3491V32.2571H15.2644V18.3491C15.2642 18.076 15.1556 17.8141 14.9625 17.621C14.7693 17.4279 14.5075 17.3193 14.2344 17.3191H12.1724Z" fill="#111111"/>
<path d="M2.98853 32.7734H8.13953V22.9864C8.13953 22.7835 8.09956 22.5826 8.02192 22.3952C7.94428 22.2077 7.83047 22.0374 7.68701 21.8939C7.54354 21.7505 7.37322 21.6367 7.18577 21.559C6.99832 21.4814 6.79742 21.4414 6.59453 21.4414H4.53353C4.12377 21.4414 3.73079 21.6042 3.44105 21.8939C3.1513 22.1837 2.98853 22.5766 2.98853 22.9864V32.7734Z" fill="white"/>
<path d="M8.13951 33.2868H2.98851C2.85192 33.2868 2.72093 33.2325 2.62435 33.136C2.52777 33.0394 2.47351 32.9084 2.47351 32.7718V22.9848C2.47404 22.4386 2.69125 21.915 3.07746 21.5288C3.46367 21.1425 3.98733 20.9253 4.53351 20.9248H6.59451C7.14069 20.9253 7.66436 21.1425 8.05057 21.5288C8.43678 21.915 8.65398 22.4386 8.65451 22.9848V32.7718C8.65451 32.9084 8.60025 33.0394 8.50367 33.136C8.40709 33.2325 8.2761 33.2868 8.13951 33.2868ZM3.50351 32.2568H7.62451V22.9848C7.62425 22.7117 7.51564 22.4499 7.32254 22.2568C7.12943 22.0637 6.8676 21.9551 6.59451 21.9548H4.53351C4.26042 21.9551 3.99859 22.0637 3.80548 22.2568C3.61238 22.4499 3.50378 22.7117 3.50351 22.9848V32.2568Z" fill="#111111"/>
<path d="M28.96 33.2868H2.68297C2.54638 33.2868 2.41539 33.2326 2.31881 33.136C2.22223 33.0394 2.16797 32.9084 2.16797 32.7718C2.16797 32.6352 2.22223 32.5043 2.31881 32.4077C2.41539 32.3111 2.54638 32.2568 2.68297 32.2568H28.96C29.0966 32.2568 29.2275 32.3111 29.3241 32.4077C29.4207 32.5043 29.475 32.6352 29.475 32.7718C29.475 32.9084 29.4207 33.0394 29.3241 33.136C29.2275 33.2326 29.0966 33.2868 28.96 33.2868Z" fill="#111111"/>
<path d="M33.4835 26.9214C33.4835 28.1949 33.1058 29.4399 32.3983 30.4987C31.6908 31.5576 30.6851 32.3829 29.5086 32.8703C28.332 33.3576 27.0373 33.4851 25.7883 33.2367C24.5392 32.9882 23.3919 32.375 22.4914 31.4745C21.5909 30.574 20.9776 29.4267 20.7292 28.1776C20.4807 26.9286 20.6083 25.6339 21.0956 24.4573C21.583 23.2808 22.4083 22.2751 23.4672 21.5676C24.526 20.8601 25.771 20.4824 27.0445 20.4824C27.8901 20.4823 28.7274 20.6488 29.5087 20.9723C30.29 21.2958 30.9999 21.7701 31.5978 22.3681C32.1958 22.966 32.6701 23.6759 32.9936 24.4572C33.3171 25.2384 33.4836 26.0758 33.4835 26.9214Z" fill="#FEE456"/>
<path d="M27.0468 33.8748C25.6714 33.8748 24.3269 33.467 23.1833 32.7028C22.0398 31.9387 21.1485 30.8527 20.6221 29.582C20.0958 28.3113 19.9581 26.9131 20.2264 25.5641C20.4947 24.2152 21.157 22.9761 22.1296 22.0036C23.1021 21.031 24.3412 20.3687 25.6901 20.1004C27.0391 19.8321 28.4373 19.9698 29.708 20.4961C30.9786 21.0225 32.0647 21.9138 32.8288 23.0574C33.5929 24.2009 34.0008 25.5454 34.0008 26.9208C33.9987 28.7645 33.2653 30.532 31.9617 31.8357C30.658 33.1394 28.8904 33.8727 27.0468 33.8748ZM27.0468 20.9978C25.875 20.9974 24.7294 21.3445 23.7549 21.9953C22.7804 22.646 22.0208 23.5711 21.5722 24.6536C21.1235 25.7361 21.006 26.9274 21.2344 28.0767C21.4629 29.226 22.027 30.2817 22.8555 31.1103C23.684 31.939 24.7397 32.5033 25.8889 32.7319C27.0382 32.9606 28.2295 32.8432 29.312 32.3948C30.3946 31.9463 31.3198 31.1868 31.9707 30.2125C32.6217 29.2381 32.969 28.0926 32.9688 26.9208C32.9672 25.3501 32.3425 23.8443 31.2319 22.7337C30.1213 21.623 28.6154 20.9984 27.0448 20.9968" fill="#111111"/>
<path d="M28.3885 29.3684C28.2911 29.3684 28.1957 29.3409 28.1132 29.289C28.0308 29.2372 27.9647 29.1631 27.9225 29.0754L27.0775 27.3044L26.2885 29.0644C26.2496 29.1595 26.1814 29.2399 26.0939 29.2938C26.0064 29.3477 25.904 29.3724 25.8015 29.3644C25.6994 29.3611 25.6007 29.3277 25.5177 29.2682C25.4347 29.2087 25.3713 29.126 25.3355 29.0304L24.0925 25.6994C24.0653 25.6354 24.0515 25.5665 24.0516 25.497C24.0518 25.4275 24.0661 25.3587 24.0935 25.2949C24.121 25.231 24.1611 25.1734 24.2115 25.1255C24.2618 25.0775 24.3213 25.0403 24.3865 25.0159C24.4516 24.9916 24.521 24.9807 24.5904 24.9839C24.6598 24.9872 24.7279 25.0044 24.7905 25.0346C24.8531 25.0648 24.909 25.1074 24.9547 25.1598C25.0004 25.2122 25.035 25.2732 25.0565 25.3394L25.8615 27.4944L26.5925 25.8644C26.6327 25.7746 26.6977 25.6982 26.7799 25.6443C26.8622 25.5903 26.9581 25.561 27.0564 25.5598C27.1548 25.5587 27.2514 25.5857 27.3349 25.6377C27.4183 25.6897 27.4852 25.7646 27.5275 25.8534L28.3675 27.6134L29.3765 25.3134C29.4029 25.2504 29.4417 25.1933 29.4904 25.1455C29.5392 25.0977 29.597 25.06 29.6604 25.0347C29.7239 25.0094 29.7917 24.997 29.86 24.9981C29.9283 24.9993 29.9957 25.014 30.0582 25.0415C30.1207 25.069 30.1772 25.1086 30.2243 25.1581C30.2714 25.2075 30.3081 25.2659 30.3324 25.3297C30.3568 25.3936 30.3681 25.4616 30.3659 25.5298C30.3637 25.5981 30.3479 25.6653 30.3195 25.7274L28.8585 29.0574C28.8188 29.1479 28.754 29.2251 28.6718 29.2799C28.5895 29.3347 28.4933 29.3647 28.3945 29.3664L28.3885 29.3684Z" fill="#111111"/>
<path d="M25.1534 27.9812H24.2464C24.1099 27.9812 23.9789 27.9269 23.8823 27.8303C23.7857 27.7337 23.7314 27.6028 23.7314 27.4662C23.7314 27.3296 23.7857 27.1986 23.8823 27.102C23.9789 27.0054 24.1099 26.9512 24.2464 26.9512H25.1564C25.293 26.9512 25.424 27.0054 25.5206 27.102C25.6172 27.1986 25.6714 27.3296 25.6714 27.4662C25.6714 27.6028 25.6172 27.7337 25.5206 27.8303C25.424 27.9269 25.293 27.9812 25.1564 27.9812" fill="#111111"/>
<path d="M29.85 27.9812H29.1C28.9634 27.9812 28.8324 27.9269 28.7358 27.8303C28.6392 27.7337 28.585 27.6028 28.585 27.4662C28.585 27.3296 28.6392 27.1986 28.7358 27.102C28.8324 27.0054 28.9634 26.9512 29.1 26.9512H29.85C29.9865 26.9512 30.1175 27.0054 30.2141 27.102C30.3107 27.1986 30.365 27.3296 30.365 27.4662C30.365 27.6028 30.3107 27.7337 30.2141 27.8303C30.1175 27.9269 29.9865 27.9812 29.85 27.9812Z" fill="#111111"/>
</svg>
