<svg width="32" height="32" viewBox="0 0 32 32" fill="none" xmlns="http://www.w3.org/2000/svg">
<path d="M5.65219 27.6691H26.3732L27.0732 23.2871H4.9502L5.65219 27.6691Z" fill="#F89D15"/>
<path d="M28.4468 12.0948C22.5608 19.0098 18.3028 11.4758 16.7068 7.80176H15.3238C13.7238 11.4758 9.46976 19.0098 3.58476 12.0948L2.80176 12.4538C3.86276 17.8138 4.53076 21.1758 4.94976 23.2858H27.0798C27.4968 21.1748 28.1658 17.8128 29.2258 12.4538L28.4468 12.0948Z" fill="#F8C315"/>
<path d="M18.0279 6.35998C18.0253 6.75751 17.9051 7.14538 17.6824 7.47468C17.4597 7.80398 17.1445 8.05997 16.7765 8.21036C16.4085 8.36076 16.0043 8.39883 15.6147 8.31978C15.2251 8.24073 14.8676 8.04809 14.5873 7.76616C14.3071 7.48422 14.1166 7.12562 14.0398 6.73556C13.9631 6.3455 14.0036 5.94145 14.1561 5.57436C14.3087 5.20727 14.5666 4.89358 14.8972 4.67284C15.2278 4.4521 15.6164 4.33419 16.0139 4.33398C16.2793 4.33451 16.5419 4.38736 16.7868 4.48951C17.0317 4.59166 17.254 4.7411 17.4411 4.92928C17.6282 5.11747 17.7763 5.3407 17.877 5.5862C17.9777 5.83169 18.029 6.09464 18.0279 6.35998Z" fill="#F8C315"/>
<path d="M4.36477 10.7062C4.36201 11.1035 4.24169 11.491 4.01897 11.82C3.79626 12.149 3.48113 12.4047 3.11331 12.5549C2.74549 12.7051 2.34144 12.743 1.95211 12.6639C1.56277 12.5847 1.20558 12.3921 0.925551 12.1103C0.645526 11.8285 0.455208 11.47 0.37859 11.0802C0.301972 10.6904 0.342483 10.2866 0.495016 9.91971C0.647549 9.55286 0.905276 9.23939 1.23571 9.0188C1.56614 8.79821 1.95448 8.68038 2.35177 8.68018C2.61703 8.68083 2.87956 8.73378 3.12434 8.83598C3.36912 8.93819 3.59135 9.08766 3.77832 9.27583C3.96528 9.464 4.11331 9.68719 4.21394 9.93262C4.31457 10.1781 4.36583 10.4409 4.36477 10.7062Z" fill="#F8C315"/>
<path d="M31.687 10.7057C31.6843 11.1031 31.5639 11.4907 31.3411 11.8198C31.1183 12.1488 30.8031 12.4045 30.4351 12.5546C30.0672 12.7047 29.663 12.7425 29.2736 12.6632C28.8842 12.5839 28.5271 12.3911 28.2471 12.1091C27.9672 11.8271 27.777 11.4684 27.7006 11.0785C27.6242 10.6885 27.665 10.2846 27.8179 9.91784C27.9707 9.55103 28.2287 9.23769 28.5594 9.01734C28.8901 8.79699 29.2787 8.6795 29.676 8.67969C29.9412 8.68034 30.2036 8.7333 30.4483 8.83553C30.693 8.93777 30.9151 9.08726 31.1019 9.27546C31.2887 9.46366 31.4365 9.68686 31.5369 9.93228C31.6373 10.1777 31.6884 10.4405 31.687 10.7057Z" fill="#F8C315"/>
</svg>
