<svg width="56" height="56" viewBox="0 0 56 56" fill="none" xmlns="http://www.w3.org/2000/svg">
<path d="M49.8172 12.107C49.2352 11.937 47.2172 11.336 44.4862 10.384C38.7642 8.46386 33.2427 5.99085 28.0002 3C18.8172 8.532 6.00024 12.161 6.00024 12.161V27.167C5.98423 30.6462 6.77889 34.0813 8.32124 37.2C9.31935 39.2082 10.5823 41.0735 12.0762 42.746C18.5872 50.09 28.0002 53 28.0002 53C28.0002 53 50.0002 46.206 50.0002 27.167V12.161L49.8172 12.107Z" fill="#19973C"/>
<path d="M41.2719 22.0781H39.4319V26.7991H31.9079V22.0781H30.0679C29.8402 22.0988 29.6298 22.208 29.482 22.3824C29.3343 22.5567 29.2609 22.7822 29.2779 23.0101V32.9881C29.2606 33.2162 29.3339 33.4419 29.4817 33.6165C29.6295 33.7911 29.84 33.9005 30.0679 33.9211H31.9079V28.8501H39.4309V33.9211H41.2709C41.4988 33.9005 41.7094 33.7911 41.8574 33.6166C42.0054 33.442 42.0788 33.2163 42.0619 32.9881V23.0101C42.0801 22.7819 42.0073 22.5557 41.8592 22.3811C41.7112 22.2064 41.5 22.0975 41.2719 22.0781Z" fill="white"/>
<path d="M26.21 22.0781H24.368V31.1451L18.838 23.9041C17.915 22.8461 17.283 22.0781 15.813 22.0781H13.938V32.9881C13.9208 33.2169 13.9946 33.4431 14.1432 33.6178C14.2919 33.7925 14.5035 33.9015 14.732 33.9211H16.571V24.8101L22.138 32.0041C23.079 33.0851 23.916 33.9211 25.279 33.9211H26.999V23.0101C27.0165 22.7822 26.9435 22.5566 26.7958 22.3822C26.6481 22.2077 26.4376 22.0985 26.21 22.0781Z" fill="white"/>
</svg>
