<svg width="32" height="32" viewBox="0 0 32 32" fill="none" xmlns="http://www.w3.org/2000/svg">
<path d="M30.8761 5.829C30.4761 5.72 29.1061 5.336 27.2411 4.729C23.3552 3.50568 19.5919 1.92248 16.0001 0C11.2224 2.48123 6.19403 4.44665 1.00009 5.863V15.463C0.992061 17.7012 1.53576 19.9069 2.58309 21.885C3.27023 23.1797 4.13158 24.3742 5.14309 25.435C8.1963 28.4456 11.9157 30.6947 16.0001 32C16.0001 32 31.0001 27.652 31.0001 15.467V5.867L30.8761 5.833" fill="#19973C"/>
<path d="M24.4923 12H23.3143V15.021H18.4993V12H17.3223C17.1758 12.013 17.0404 12.0833 16.9457 12.1957C16.8509 12.3081 16.8044 12.4535 16.8163 12.6V18.982C16.8046 19.1285 16.8512 19.2737 16.946 19.386C17.0407 19.4983 17.1759 19.5688 17.3223 19.582H18.5003V16.334H23.3153V19.579H24.4933C24.6398 19.566 24.7753 19.4957 24.8703 19.3833C24.9652 19.271 25.0119 19.1256 25.0003 18.979V12.6C25.0066 12.5273 24.9985 12.454 24.9764 12.3845C24.9543 12.3149 24.9186 12.2504 24.8715 12.1946C24.8244 12.1389 24.7667 12.093 24.7018 12.0596C24.6369 12.0262 24.565 12.0059 24.4923 12Z" fill="white"/>
<path d="M14.8538 12H13.6748V17.8L10.1338 13.168C9.54479 12.491 9.14079 12 8.19979 12H6.99979V18.982C6.98816 19.1288 7.03503 19.2743 7.13019 19.3867C7.22535 19.499 7.36108 19.5693 7.50779 19.582H8.68479V13.749L12.2478 18.349C12.4662 18.694 12.7611 18.9842 13.1097 19.197C13.4582 19.4097 13.8511 19.5394 14.2578 19.576H15.3578V12.6C15.3701 12.4543 15.3245 12.3097 15.2309 12.1974C15.1373 12.0851 15.0033 12.0142 14.8578 12" fill="white"/>
</svg>
