<svg width="56" height="56" viewBox="0 0 56 56" fill="none" xmlns="http://www.w3.org/2000/svg">
<path d="M49.8172 12.107C49.2352 11.937 47.2172 11.336 44.4862 10.384C38.7642 8.46386 33.2427 5.99085 28.0002 3C18.8172 8.532 6.00024 12.161 6.00024 12.161V27.167C5.98423 30.6462 6.77889 34.0813 8.32124 37.2C9.31935 39.2082 10.5823 41.0735 12.0762 42.746C18.5872 50.09 28.0002 53 28.0002 53C28.0002 53 50.0002 46.206 50.0002 27.167V12.161L49.8172 12.107Z" fill="#F9E000"/>
<path d="M28.033 18C21.941 18 17 21.976 17 26.882C17 30.037 19.047 32.801 22.118 34.382L21.08 38.335C21.0607 38.3929 21.0577 38.455 21.0715 38.5145C21.0852 38.574 21.1152 38.6285 21.158 38.672C21.1869 38.7029 21.2217 38.7277 21.2603 38.7449C21.299 38.7621 21.3407 38.7713 21.383 38.772C21.4529 38.7706 21.5201 38.7447 21.573 38.699L26.047 35.619C26.7045 35.7174 27.3682 35.7678 28.033 35.77C34.125 35.77 39.066 31.794 39.066 26.887C39.066 21.98 34.124 18 28.033 18Z" fill="white"/>
</svg>
