<svg width="32" height="32" viewBox="0 0 32 32" fill="none" xmlns="http://www.w3.org/2000/svg">
<path d="M6 6H26.248" stroke="#D3D3D3" stroke-width="1.5"/>
<path d="M6 26H26.248" stroke="#D3D3D3" stroke-width="1.5"/>
<path d="M6 26L26.1992 6" stroke="#D3D3D3" stroke-width="1.5"/>
<path d="M6 8C7.10457 8 8 7.10457 8 6C8 4.89543 7.10457 4 6 4C4.89543 4 4 4.89543 4 6C4 7.10457 4.89543 8 6 8Z" fill="#19973C"/>
<path d="M6 18C7.10457 18 8 17.1046 8 16C8 14.8954 7.10457 14 6 14C4.89543 14 4 14.8954 4 16C4 17.1046 4.89543 18 6 18Z" fill="#D3D3D3"/>
<path d="M6 28C7.10457 28 8 27.1046 8 26C8 24.8954 7.10457 24 6 24C4.89543 24 4 24.8954 4 26C4 27.1046 4.89543 28 6 28Z" fill="#19973C"/>
<path d="M16 8C17.1046 8 18 7.10457 18 6C18 4.89543 17.1046 4 16 4C14.8954 4 14 4.89543 14 6C14 7.10457 14.8954 8 16 8Z" fill="#19973C"/>
<path d="M16 18C17.1046 18 18 17.1046 18 16C18 14.8954 17.1046 14 16 14C14.8954 14 14 14.8954 14 16C14 17.1046 14.8954 18 16 18Z" fill="#19973C"/>
<path d="M16 28C17.1046 28 18 27.1046 18 26C18 24.8954 17.1046 24 16 24C14.8954 24 14 24.8954 14 26C14 27.1046 14.8954 28 16 28Z" fill="#19973C"/>
<path d="M26 8C27.1046 8 28 7.10457 28 6C28 4.89543 27.1046 4 26 4C24.8954 4 24 4.89543 24 6C24 7.10457 24.8954 8 26 8Z" fill="#19973C"/>
<path d="M26 18C27.1046 18 28 17.1046 28 16C28 14.8954 27.1046 14 26 14C24.8954 14 24 14.8954 24 16C24 17.1046 24.8954 18 26 18Z" fill="#D3D3D3"/>
<path d="M26 28C27.1046 28 28 27.1046 28 26C28 24.8954 27.1046 24 26 24C24.8954 24 24 24.8954 24 26C24 27.1046 24.8954 28 26 28Z" fill="#19973C"/>
</svg>
