<svg width="32" height="32" viewBox="0 0 32 32" fill="none" xmlns="http://www.w3.org/2000/svg">
<path d="M30.8761 5.829C30.4761 5.72 29.1061 5.336 27.2411 4.729C23.3552 3.50568 19.5919 1.92248 16.0001 0C11.2224 2.48123 6.19403 4.44665 1.00009 5.863V15.463C0.992061 17.7012 1.53576 19.9069 2.58309 21.885C3.27023 23.1797 4.13158 24.3742 5.14309 25.435C8.1963 28.4456 11.9157 30.6947 16.0001 32C16.0001 32 31.0001 27.652 31.0001 15.467V5.867L30.8761 5.833" fill="#FE3A4A"/>
<path d="M16.793 16.9C16.9743 16.9 17.1483 16.8281 17.2767 16.7001C17.4051 16.572 17.4775 16.3983 17.478 16.217V11.424C17.4777 11.2425 17.4054 11.0685 17.277 10.9403C17.1486 10.812 16.9745 10.74 16.793 10.74H14.74V16.9H16.793ZM14.739 24.433H12V8H16.793C17.2427 7.99987 17.688 8.08834 18.1035 8.26037C18.5189 8.43239 18.8965 8.6846 19.2144 9.00257C19.5324 9.32055 19.7846 9.69806 19.9566 10.1135C20.1287 10.529 20.2171 10.9743 20.217 11.424V16.217C20.217 16.6666 20.1284 17.1118 19.9563 17.5272C19.7843 17.9425 19.532 18.3199 19.2141 18.6378C18.8961 18.9556 18.5186 19.2078 18.1032 19.3797C17.6878 19.5517 17.2426 19.6401 16.793 19.64H14.739V24.433Z" fill="white"/>
</svg>
