<svg width="56" height="56" viewBox="0 0 56 56" fill="none" xmlns="http://www.w3.org/2000/svg">
<path d="M49.8172 12.107C49.2352 11.937 47.2172 11.336 44.4862 10.384C38.7642 8.46386 33.2427 5.99085 28.0002 3C18.8172 8.532 6.00024 12.161 6.00024 12.161V27.167C5.98423 30.6462 6.77889 34.0813 8.32124 37.2C9.31935 39.2082 10.5823 41.0735 12.0762 42.746C18.5872 50.09 28.0002 53 28.0002 53C28.0002 53 50.0002 46.206 50.0002 27.167V12.161L49.8172 12.107Z" fill="#FE3A4A"/>
<path d="M24 18H29C29.7956 18 30.5587 18.3161 31.1213 18.8787C31.6839 19.4413 32 20.2044 32 21V28C32 28.7956 31.6839 29.5587 31.1213 30.1213C30.5587 30.6839 29.7956 31 29 31H24V18Z" stroke="white" stroke-width="4"/>
<path d="M26 29H22V40H26V29Z" fill="white"/>
</svg>
