<svg width="32" height="32" viewBox="0 0 32 32" fill="none" xmlns="http://www.w3.org/2000/svg">
<path d="M3 8C3 6.89543 3.89543 6 5 6H27C28.1046 6 29 6.89543 29 8V24C29 26.2091 27.2091 28 25 28H7C4.79086 28 3 26.2091 3 24V8Z" fill="#EBEFE6"/>
<path d="M3 8C3 6.89543 3.89543 6 5 6H27C28.1046 6 29 6.89543 29 8V22C29 24.2091 27.2091 26 25 26H7C4.79086 26 3 24.2091 3 22V8Z" fill="#7AC51C"/>
<path d="M19.5 15.5L14.6827 20.5L12.5 18.2346" stroke="white" stroke-width="1.5" stroke-linecap="round" stroke-linejoin="round"/>
<path d="M3 8C3 6.89543 3.89543 6 5 6H27C28.1046 6 29 6.89543 29 8V11H3V8Z" fill="#19973C"/>
</svg>
