<svg width="32" height="32" viewBox="0 0 32 32" fill="none" xmlns="http://www.w3.org/2000/svg">
<path d="M3 5C3 3.89543 3.89543 3 5 3H21C22.1046 3 23 3.89543 23 5V24C23 25.1046 22.1046 26 21 26H5C3.89543 26 3 25.1046 3 24V5Z" fill="#D7E0EF"/>
<path d="M8.71236 6C8.84232 6.00009 8.9568 6.04361 9.04733 6.13118C9.13768 6.21877 9.18283 6.329 9.18291 6.45386V6.7522C9.38716 6.79325 9.57023 6.86383 9.7298 6.9659C9.90912 7.08068 10.0579 7.22186 10.1741 7.39014C10.2493 7.49525 10.2617 7.61539 10.2186 7.73714C10.1746 7.86062 10.0833 7.94818 9.95539 7.99951C9.84428 8.04547 9.72848 8.04756 9.61359 8.00692C9.50414 7.96807 9.40496 7.90042 9.31736 7.80908C9.2495 7.7384 9.17023 7.68392 9.07923 7.64616C8.99182 7.60998 8.87672 7.59013 8.73059 7.59009C8.4806 7.59012 8.30748 7.6438 8.19624 7.73503C8.0815 7.82939 8.02761 7.94296 8.02761 8.07992C8.02784 8.23304 8.0964 8.35211 8.24751 8.44491C8.4136 8.54671 8.71317 8.6605 9.15671 8.78239C9.58736 8.90324 9.92493 9.0977 10.1559 9.37166C10.3855 9.64407 10.5 9.96095 10.5 10.3164C10.4999 10.7508 10.366 11.0968 10.0841 11.3373C9.83561 11.5493 9.5341 11.6854 9.18291 11.7489V12.0461C9.18283 12.171 9.13768 12.2812 9.04733 12.3688C8.9568 12.4564 8.84232 12.4999 8.71236 12.5C8.58231 12.4999 8.46797 12.4565 8.37739 12.3688C8.2869 12.2812 8.24189 12.1711 8.24181 12.0461V11.7235C7.9927 11.66 7.76853 11.5621 7.57301 11.423C7.35197 11.2657 7.17798 11.0463 7.0455 10.7724L7.04436 10.7734C6.98709 10.6626 6.98618 10.5444 7.03638 10.4285C7.08735 10.311 7.17983 10.2262 7.30527 10.1757C7.41958 10.1283 7.53926 10.1324 7.65505 10.181C7.76811 10.2285 7.85576 10.3067 7.91482 10.4127L7.98888 10.5259C8.06785 10.6307 8.1591 10.7127 8.26232 10.7724C8.39785 10.8506 8.57056 10.8919 8.78414 10.8919C9.01386 10.8919 9.20124 10.8425 9.35154 10.748C9.48694 10.6629 9.56004 10.5316 9.56004 10.3333C9.56001 10.1531 9.50145 10.0211 9.39483 9.92497C9.34168 9.87711 9.2452 9.81874 9.09518 9.75252C8.94706 9.68715 8.7545 9.61693 8.51639 9.54199C7.99394 9.38309 7.61376 9.18753 7.40097 8.94637C7.1905 8.70735 7.08667 8.41604 7.08651 8.07992C7.08651 7.67695 7.22239 7.35048 7.50351 7.11719C7.73897 6.92183 7.98541 6.79704 8.24181 6.74902V6.45386C8.24189 6.3289 8.2869 6.2188 8.37739 6.13118C8.46797 6.04352 8.58231 6.00006 8.71236 6Z" fill="#627388"/>
<rect x="7" y="15" width="12" height="1.5" rx="0.75" fill="#AEBED3"/>
<rect x="7" y="18.5" width="6.66667" height="1.5" rx="0.75" fill="#AEBED3"/>
<path d="M24.682 26.682C26.4393 24.9246 26.4393 22.0754 24.682 20.318C22.9246 18.5607 20.0754 18.5607 18.318 20.318C16.5607 22.0754 16.5607 24.9246 18.318 26.682C20.0754 28.4393 22.9246 28.4393 24.682 26.682Z" stroke="#627388" stroke-width="1.5"/>
<path d="M25 27L28 30" stroke="#627388" stroke-width="1.5" stroke-linecap="round"/>
</svg>
