<svg width="32" height="32" viewBox="0 0 32 32" fill="none" xmlns="http://www.w3.org/2000/svg">
<path d="M9.61334 8.05199C7.75828 8.83187 6.1667 10.1289 5.02838 11.7883C3.89006 13.4477 3.25306 15.3996 3.19336 17.411C3.20465 18.7075 3.47183 19.9891 3.97961 21.1821C4.4874 22.3751 5.22576 23.4561 6.15234 24.363C6.73444 24.9668 7.14819 25.7125 7.35236 26.526L8.05237 29.1581C8.09056 29.3922 8.21027 29.6052 8.39032 29.7596C8.57037 29.9141 8.79918 30 9.03638 30.0021H11.6874C11.8195 30.0021 11.9502 29.9759 12.0721 29.925C12.1941 29.8742 12.3047 29.7997 12.3977 29.7059C12.4907 29.6121 12.5641 29.5009 12.6138 29.3785C12.6636 29.2562 12.6886 29.1251 12.6874 28.993L12.7614 28.307C12.7699 28.2388 12.7921 28.1731 12.8265 28.1136C12.861 28.0542 12.9071 28.0023 12.9621 27.9611C13.0171 27.9198 13.0798 27.89 13.1465 27.8735C13.2132 27.857 13.2825 27.8541 13.3503 27.865C13.9606 27.9468 14.5756 27.9885 15.1913 27.99C15.6475 27.9916 16.1035 27.9697 16.5574 27.9241C16.6244 27.9144 16.6927 27.9185 16.7581 27.936C16.8235 27.9536 16.8847 27.9842 16.9379 28.0261C16.9911 28.068 17.0352 28.1202 17.0676 28.1797C17.1 28.2391 17.12 28.3046 17.1263 28.3721L17.1934 29.005C17.1934 29.2702 17.2987 29.5246 17.4863 29.7121C17.6738 29.8997 17.9281 30.005 18.1934 30.005H20.8444C21.0819 30.0041 21.3113 29.9187 21.4916 29.764C21.6719 29.6094 21.7913 29.3956 21.8284 29.161L22.3503 27.176C22.5933 26.2527 23.0979 25.4193 23.8033 24.776C25.14 23.5797 26.1434 22.0572 26.7154 20.357L28.3484 20.0801C28.5859 20.0418 28.8019 19.92 28.9577 19.7367C29.1135 19.5534 29.1988 19.3206 29.1984 19.0801V16.251C29.1954 16.0125 29.1086 15.7828 28.9532 15.6019C28.7978 15.4211 28.5837 15.3008 28.3484 15.2621L26.8754 15.0181C26.3944 13.2497 25.4462 11.6435 24.1304 10.368C24.0538 9.24593 24.2778 8.12373 24.7794 7.11706C24.819 7.0352 24.8359 6.94413 24.8284 6.85351C24.8208 6.76288 24.7891 6.67597 24.7365 6.6018C24.6838 6.52762 24.6123 6.46895 24.5292 6.43188C24.4462 6.3948 24.3547 6.38065 24.2643 6.39098C23.6182 6.44044 22.9886 6.61885 22.4125 6.91564C21.8365 7.21243 21.3257 7.6216 20.9103 8.11901C20.043 7.70278 19.1312 7.38643 18.1924 7.17602" fill="#FFCD3B"/>
<path d="M22.816 14.2529C22.816 14.7038 22.6369 15.1363 22.3181 15.4551C21.9993 15.7739 21.5669 15.953 21.116 15.953C20.6652 15.953 20.2328 15.7739 19.9139 15.4551C19.5951 15.1363 19.416 14.7038 19.416 14.2529" stroke="#AB6515" stroke-width="1.2" stroke-linecap="round"/>
<path d="M9.66049 11.1378C9.20535 10.4616 8.91499 9.68804 8.81271 8.87936C8.71043 8.07067 8.79911 7.24929 9.07156 6.48104C9.34401 5.71279 9.79269 5.01909 10.3816 4.45553C10.9705 3.89197 11.6833 3.4743 12.4628 3.23592C13.2423 2.99754 14.0668 2.94508 14.8702 3.08285C15.6736 3.22061 16.4335 3.54468 17.0891 4.02914C17.7446 4.51359 18.2776 5.14495 18.6451 5.87252C19.0126 6.60009 19.2045 7.4037 19.2055 8.21883C19.2041 8.89034 19.0752 9.55543 18.8255 10.1788" fill="#E18B24"/>
<path d="M8.71582 12.1116C10.6587 10.5336 13.08 9.66242 15.5828 9.64062C16.9834 9.64157 18.37 9.92056 19.6619 10.4615" stroke="#FFCD3B" stroke-width="2"/>
</svg>
