<svg width="36" height="36" viewBox="0 0 36 36" fill="none" xmlns="http://www.w3.org/2000/svg">
<path d="M31.6969 7.93164H4.30293C3.8449 7.93164 3.40563 8.11359 3.08175 8.43747C2.75788 8.76134 2.57593 9.20061 2.57593 9.65864V24.4816C2.57593 24.9528 2.66873 25.4194 2.84905 25.8547C3.02936 26.29 3.29365 26.6856 3.62683 27.0187C3.96001 27.3519 4.35554 27.6162 4.79086 27.7965C5.22618 27.9768 5.69274 28.0696 6.16393 28.0696H29.8359C30.3071 28.0696 30.7737 27.9768 31.209 27.7965C31.6443 27.6162 32.0399 27.3519 32.373 27.0187C32.7062 26.6856 32.9705 26.29 33.1508 25.8547C33.3311 25.4194 33.4239 24.9528 33.4239 24.4816V9.65864C33.4239 9.43185 33.3793 9.20728 33.2925 8.99775C33.2057 8.78822 33.0785 8.59783 32.9181 8.43747C32.7577 8.2771 32.5674 8.14989 32.3578 8.0631C32.1483 7.97631 31.9237 7.93164 31.6969 7.93164Z" fill="white"/>
<path d="M29.836 28.6455H6.164C5.06004 28.6441 4.00168 28.205 3.22107 27.4244C2.44045 26.6438 2.00132 25.5854 2 24.4815L2 9.65547C2.00158 9.04596 2.24441 8.46186 2.6754 8.03087C3.10639 7.59988 3.69049 7.35705 4.3 7.35547H31.7C32.3095 7.35705 32.8936 7.59988 33.3246 8.03087C33.7556 8.46186 33.9984 9.04596 34 9.65547V24.4815C33.9987 25.5854 33.5595 26.6438 32.7789 27.4244C31.9983 28.205 30.94 28.6441 29.836 28.6455ZM4.3 8.50747C3.99594 8.50878 3.7047 8.63016 3.4897 8.84516C3.27469 9.06017 3.15332 9.35141 3.152 9.65547V24.4815C3.15306 25.28 3.47073 26.0455 4.03536 26.6101C4.59999 27.1747 5.36549 27.4924 6.164 27.4935H29.836C30.6346 27.4927 31.4002 27.1751 31.9649 26.6104C32.5296 26.0457 32.8472 25.2801 32.848 24.4815V9.65547C32.8467 9.35141 32.7253 9.06017 32.5103 8.84516C32.2953 8.63016 32.0041 8.50878 31.7 8.50747H4.3Z" fill="#111111"/>
<path d="M28.358 24.2042C28.2471 24.2041 28.1387 24.172 28.0456 24.1119C27.9525 24.0518 27.8787 23.9662 27.833 23.8652L26.678 21.3042L25.707 23.8292C25.6647 23.9421 25.5877 24.0387 25.4871 24.105C25.3865 24.1713 25.2674 24.2039 25.147 24.1982C25.0269 24.1937 24.9112 24.1517 24.8162 24.0782C24.7212 24.0047 24.6515 23.9033 24.617 23.7882L23.15 18.8882C23.1187 18.7463 23.1422 18.5979 23.2157 18.4727C23.2893 18.3474 23.4074 18.2546 23.5465 18.2127C23.6856 18.1709 23.8354 18.1831 23.9658 18.247C24.0962 18.3109 24.1977 18.4217 24.25 18.5572L25.238 21.8442L26.098 19.6042C26.1389 19.4983 26.2101 19.4069 26.3028 19.3414C26.3955 19.2759 26.5055 19.2392 26.619 19.236C26.7324 19.2328 26.8443 19.2632 26.9406 19.3234C27.0368 19.3835 27.1131 19.4708 27.16 19.5742L28.236 21.9542L29.207 18.5632C29.2525 18.4205 29.3518 18.3011 29.4838 18.2303C29.6159 18.1596 29.7703 18.1431 29.9143 18.1844C30.0583 18.2256 30.1806 18.3213 30.2552 18.4512C30.3299 18.5812 30.3509 18.735 30.314 18.8802L28.914 23.7802C28.8815 23.8936 28.815 23.9944 28.7234 24.0688C28.6318 24.1432 28.5196 24.1876 28.402 24.1962H28.36" fill="#111111"/>
<path d="M24.1911 21.4791H23.0001C22.8473 21.4791 22.7008 21.4185 22.5928 21.3104C22.4848 21.2024 22.4241 21.0559 22.4241 20.9031C22.4241 20.7504 22.4848 20.6039 22.5928 20.4959C22.7008 20.3878 22.8473 20.3271 23.0001 20.3271H24.1911C24.3438 20.3271 24.4903 20.3878 24.5984 20.4959C24.7064 20.6039 24.7671 20.7504 24.7671 20.9031C24.7671 21.0559 24.7064 21.2024 24.5984 21.3104C24.4903 21.4185 24.3438 21.4791 24.1911 21.4791Z" fill="#111111"/>
<path d="M30.546 21.4791H29.356C29.2033 21.4791 29.0568 21.4185 28.9487 21.3104C28.8407 21.2024 28.78 21.0559 28.78 20.9031C28.78 20.7504 28.8407 20.6039 28.9487 20.4959C29.0568 20.3878 29.2033 20.3271 29.356 20.3271H30.546C30.6988 20.3271 30.8453 20.3878 30.9533 20.4959C31.0613 20.6039 31.122 20.7504 31.122 20.9031C31.122 21.0559 31.0613 21.2024 30.9533 21.3104C30.8453 21.4185 30.6988 21.4791 30.546 21.4791Z" fill="#111111"/>
<path d="M31.6969 7.93164H4.30293C3.8449 7.93164 3.40563 8.11359 3.08175 8.43747C2.75788 8.76134 2.57593 9.20061 2.57593 9.65864V12.4996H33.4239V9.65864C33.4239 9.20061 33.242 8.76134 32.9181 8.43747C32.5942 8.11359 32.155 7.93164 31.6969 7.93164Z" fill="#B9B5EF"/>
<path d="M33.424 13.0755H2.576C2.42324 13.0755 2.27673 13.0148 2.16871 12.9068C2.06069 12.7987 2 12.6522 2 12.4995V9.65547C2.00158 9.04596 2.24441 8.46186 2.6754 8.03087C3.10639 7.59988 3.69049 7.35705 4.3 7.35547H31.7C32.3095 7.35705 32.8936 7.59988 33.3246 8.03087C33.7556 8.46186 33.9984 9.04596 34 9.65547V12.4995C34 12.6522 33.9393 12.7987 33.8313 12.9068C33.7233 13.0148 33.5768 13.0755 33.424 13.0755ZM3.152 11.9235H32.852V9.65547C32.8507 9.35071 32.7288 9.05888 32.5129 8.84376C32.297 8.62864 32.0048 8.50773 31.7 8.50747H4.3C3.99594 8.50878 3.7047 8.63016 3.4897 8.84516C3.27469 9.06017 3.15332 9.35141 3.152 9.65547V11.9235Z" fill="#111111"/>
</svg>
