<svg width="36" height="36" viewBox="0 0 36 36" fill="none" xmlns="http://www.w3.org/2000/svg">
<path d="M3.51709 18.4873H32.4831V28.1953C32.4831 29.0175 32.1565 29.806 31.5751 30.3873C30.9938 30.9687 30.2053 31.2953 29.3831 31.2953H6.61709C5.79492 31.2953 5.00642 30.9687 4.42506 30.3873C3.8437 29.806 3.51709 29.0175 3.51709 28.1953V18.4873Z" fill="white"/>
<path d="M29.379 31.8167H6.621C5.66046 31.8157 4.7396 31.4334 4.06068 30.7539C3.38175 30.0744 3.00026 29.1533 3 28.1927V17.9697H33V28.1927C32.9989 29.1528 32.6171 30.0732 31.9383 30.752C31.2594 31.4308 30.339 31.8127 29.379 31.8137M4.034 19.0037V28.1927C4.03479 28.8783 4.3075 29.5356 4.7923 30.0204C5.2771 30.5052 5.93439 30.7779 6.62 30.7787H29.379C30.0648 30.7782 30.7223 30.5056 31.2073 30.0208C31.6924 29.536 31.9652 28.8785 31.966 28.1927V19.0037H4.034Z" fill="#111111"/>
<path d="M32.4831 18.4869H3.51709V12.4389C3.51709 11.6167 3.8437 10.8282 4.42506 10.2468C5.00642 9.66547 5.79492 9.33887 6.61709 9.33887H29.3791C30.2013 9.33887 30.9898 9.66547 31.5711 10.2468C32.1525 10.8282 32.4791 11.6167 32.4791 12.4389L32.4831 18.4869Z" fill="#B9B5EF"/>
<path d="M33 19.0053H3V12.4403C3.00106 11.4803 3.3829 10.5599 4.06174 9.88107C4.74058 9.20223 5.66098 8.82039 6.621 8.81934H29.379C30.339 8.82039 31.2594 9.20223 31.9383 9.88107C32.6171 10.5599 32.9989 11.4803 33 12.4403V19.0053ZM4.034 17.9703H31.966V12.4403C31.9652 11.7547 31.6925 11.0974 31.2077 10.6126C30.7229 10.1278 30.0656 9.85513 29.38 9.85434H6.621C5.93539 9.85513 5.2781 10.1278 4.7933 10.6126C4.3085 11.0974 4.03579 11.7547 4.035 12.4403L4.034 17.9703Z" fill="#111111"/>
<path d="M12.053 20.3176H9.464C9.07572 20.3176 8.70335 20.1634 8.4288 19.8889C8.15424 19.6143 8 19.2419 8 18.8536C8 18.4654 8.15424 18.093 8.4288 17.8184C8.70335 17.5439 9.07572 17.3896 9.464 17.3896H12.053C12.2453 17.3896 12.4356 17.4275 12.6132 17.5011C12.7909 17.5747 12.9523 17.6825 13.0882 17.8184C13.2241 17.9544 13.332 18.1158 13.4056 18.2934C13.4791 18.471 13.517 18.6614 13.517 18.8536C13.517 19.0459 13.4791 19.2363 13.4056 19.4139C13.332 19.5915 13.2241 19.7529 13.0882 19.8889C12.9523 20.0248 12.7909 20.1326 12.6132 20.2062C12.4356 20.2798 12.2453 20.3176 12.053 20.3176Z" fill="white"/>
<path d="M12.0529 20.8351H9.46392C8.9384 20.8351 8.43439 20.6263 8.06279 20.2547C7.69119 19.8831 7.48242 19.3791 7.48242 18.8536C7.48242 18.328 7.69119 17.824 8.06279 17.4524C8.43439 17.0808 8.9384 16.8721 9.46392 16.8721H12.0529C12.5784 16.8721 13.0825 17.0808 13.4541 17.4524C13.8257 17.824 14.0344 18.328 14.0344 18.8536C14.0344 19.3791 13.8257 19.8831 13.4541 20.2547C13.0825 20.6263 12.5784 20.8351 12.0529 20.8351ZM9.46392 17.9071C9.21276 17.9071 8.97189 18.0068 8.79429 18.1844C8.61669 18.362 8.51692 18.6029 8.51692 18.8541C8.51692 19.1052 8.61669 19.3461 8.79429 19.5237C8.97189 19.7013 9.21276 19.8011 9.46392 19.8011H12.0529C12.3041 19.8011 12.545 19.7013 12.7226 19.5237C12.9001 19.3461 12.9999 19.1052 12.9999 18.8541C12.9999 18.6029 12.9001 18.362 12.7226 18.1844C12.545 18.0068 12.3041 17.9071 12.0529 17.9071H9.46392Z" fill="#111111"/>
<path d="M26.5359 20.3176H23.9469C23.5586 20.3176 23.1863 20.1634 22.9117 19.8889C22.6372 19.6143 22.4829 19.2419 22.4829 18.8536C22.4829 18.4654 22.6372 18.093 22.9117 17.8184C23.1863 17.5439 23.5586 17.3896 23.9469 17.3896H26.5359C26.9242 17.3896 27.2966 17.5439 27.5711 17.8184C27.8457 18.093 27.9999 18.4654 27.9999 18.8536C27.9999 19.2419 27.8457 19.6143 27.5711 19.8889C27.2966 20.1634 26.9242 20.3176 26.5359 20.3176Z" fill="white"/>
<path d="M26.5361 20.8351H23.9471C23.4215 20.8351 22.9175 20.6263 22.5459 20.2547C22.1743 19.8831 21.9656 19.3791 21.9656 18.8536C21.9656 18.328 22.1743 17.824 22.5459 17.4524C22.9175 17.0808 23.4215 16.8721 23.9471 16.8721H26.5361C27.0616 16.8721 27.5656 17.0808 27.9372 17.4524C28.3088 17.824 28.5176 18.328 28.5176 18.8536C28.5176 19.3791 28.3088 19.8831 27.9372 20.2547C27.5656 20.6263 27.0616 20.8351 26.5361 20.8351ZM23.9471 17.9071C23.6959 17.9071 23.455 18.0068 23.2774 18.1844C23.0998 18.362 23.0001 18.6029 23.0001 18.8541C23.0001 19.1052 23.0998 19.3461 23.2774 19.5237C23.455 19.7013 23.6959 19.8011 23.9471 19.8011H26.5361C26.7872 19.8011 27.0281 19.7013 27.2057 19.5237C27.3833 19.3461 27.4831 19.1052 27.4831 18.8541C27.4831 18.6029 27.3833 18.362 27.2057 18.1844C27.0281 18.0068 26.7872 17.9071 26.5361 17.9071H23.9471Z" fill="#111111"/>
<path d="M23.928 9.01802H22.893V7.35702C22.8925 7.00631 22.753 6.6701 22.505 6.42211C22.257 6.17411 21.9208 6.03455 21.57 6.03402H14.433C14.0823 6.03455 13.7461 6.17411 13.4981 6.42211C13.2501 6.6701 13.1106 7.00631 13.11 7.35702V9.01802H12.071V7.35702C12.0713 7.0471 12.1326 6.74027 12.2515 6.45404C12.3703 6.16782 12.5444 5.9078 12.7637 5.68884C12.983 5.46988 13.2433 5.29626 13.5298 5.1779C13.8162 5.05954 14.1231 4.99876 14.433 4.99902H21.575C22.2003 4.99955 22.7997 5.24816 23.2418 5.69025C23.6839 6.13235 23.9325 6.73181 23.933 7.35702L23.928 9.01802Z" fill="#111111"/>
</svg>
