<svg width="32" height="32" viewBox="0 0 32 32" fill="none" xmlns="http://www.w3.org/2000/svg">
<path d="M27.2 7.1624H13.971C13.8926 7.08337 13.8065 7.01236 13.714 6.9504L11.2 5.2884C10.9146 5.10073 10.5806 5.00062 10.239 5.0004H3.694C3.25475 4.99074 2.82963 5.15582 2.512 5.45938C2.19438 5.76295 2.01023 6.18016 2 6.6194V22.3194C2.01653 23.046 2.32063 23.7363 2.84556 24.2389C3.3705 24.7416 4.07339 25.0154 4.8 25.0004H27.2C27.9264 25.0154 28.6292 24.7417 29.1541 24.2393C29.679 23.7369 29.9832 23.0468 30 22.3204V9.8424C29.9832 9.116 29.679 8.42591 29.1541 7.9235C28.6292 7.42109 27.9264 7.14738 27.2 7.1624Z" fill="#9F5700"/>
<path d="M28 10.0005H4C2.89543 10.0005 2 10.8959 2 12.0005V25.0005C2 26.1051 2.89543 27.0005 4 27.0005H28C29.1046 27.0005 30 26.1051 30 25.0005V12.0005C30 10.8959 29.1046 10.0005 28 10.0005Z" fill="#F4A12B"/>
</svg>
