<svg width="36" height="36" viewBox="0 0 36 36" fill="none" xmlns="http://www.w3.org/2000/svg">
<path d="M12.5 31.999C16.0899 31.999 19 30.2082 19 27.999C19 25.7899 16.0899 23.999 12.5 23.999C8.91015 23.999 6 25.7899 6 27.999C6 30.2082 8.91015 31.999 12.5 31.999Z" fill="#6EC4F6"/>
<path d="M14.001 5.30908H28.001C28.5314 5.30908 29.0401 5.5198 29.4152 5.89487C29.7903 6.26994 30.001 6.77865 30.001 7.30908V15.3091C30.001 15.8395 29.7903 16.3482 29.4152 16.7233C29.0401 17.0984 28.5314 17.3091 28.001 17.3091H14.001C13.4705 17.3091 12.9618 17.0984 12.5868 16.7233C12.2117 16.3482 12.001 15.8395 12.001 15.3091V7.30908C12.001 6.77865 12.2117 6.26994 12.5868 5.89487C12.9618 5.5198 13.4705 5.30908 14.001 5.30908Z" fill="#F46562"/>
<path d="M12.5068 28.357C12.1843 28.3653 11.8716 28.2453 11.6374 28.0234C11.4032 27.8014 11.2667 27.4955 11.2578 27.173V5.183C11.2667 4.86045 11.4032 4.55462 11.6374 4.33264C11.8716 4.11066 12.1843 3.99066 12.5068 3.999C12.8297 3.99012 13.1429 4.10988 13.3775 4.33192C13.6121 4.55396 13.7489 4.8601 13.7578 5.183V27.173C13.7489 27.4955 13.6124 27.8014 13.3782 28.0234C13.1441 28.2453 12.8314 28.3653 12.5088 28.357" fill="#F5B92C"/>
</svg>
