<svg width="48" height="48" viewBox="0 0 48 48" fill="none" xmlns="http://www.w3.org/2000/svg">
<path d="M42 25.1642C42 33.6022 31.549 39.8701 26.565 42.3871C25.7711 42.7883 24.894 42.9974 24.0045 42.9974C23.115 42.9974 22.2379 42.7883 21.444 42.3871C16.462 39.8721 6 33.5872 6 25.1591V12.9801C6.0094 12.4265 6.22103 11.8954 6.59497 11.487C6.96891 11.0786 7.47932 10.8212 8.03 10.7632C12.8001 10.4035 17.3757 8.72237 21.244 5.90814C22.0422 5.31922 23.0081 5.00146 24 5.00146C24.9919 5.00146 25.9578 5.31922 26.756 5.90814C30.6243 8.72237 35.1999 10.4035 39.97 10.7632C40.5207 10.8212 41.0311 11.0786 41.405 11.487C41.779 11.8954 41.9906 12.4265 42 12.9801V25.1642Z" fill="#E97192"/>
<path d="M30 24H18C17.4477 24 17 24.4477 17 25C17 25.5523 17.4477 26 18 26H30C30.5523 26 31 25.5523 31 25C31 24.4477 30.5523 24 30 24Z" fill="white"/>
<path d="M25 31V19C25 18.4477 24.5523 18 24 18C23.4477 18 23 18.4477 23 19V31C23 31.5523 23.4477 32 24 32C24.5523 32 25 31.5523 25 31Z" fill="white"/>
</svg>
