<svg width="32" height="32" viewBox="0 0 32 32" fill="none" xmlns="http://www.w3.org/2000/svg">
<path d="M8.929 3.98057C8.72666 3.51809 9.0655 3 9.57031 3H22.4297C22.9345 3 23.2733 3.51809 23.071 3.98057L20 11H12L8.929 3.98057Z" fill="#9797FF"/>
<path d="M5 17C5 11.4772 9.47715 7 15 7H17C22.5228 7 27 11.4772 27 17V25C27 26.6569 25.6569 28 24 28H8C6.34315 28 5 26.6569 5 25V17Z" fill="#7677E6"/>
<path d="M20.4571 17.9023C20.6051 17.9024 20.7358 17.9486 20.8439 18.0431C20.9561 18.1412 21.0078 18.2678 20.9885 18.4136L20.9876 18.4127C20.9342 19.0546 20.7688 19.6544 20.4887 20.2108C20.2087 20.767 19.8452 21.2523 19.3981 21.6653C18.9512 22.0781 18.4379 22.4036 17.8594 22.6419C17.2788 22.881 16.6584 23 16 23C15.1526 23 14.3712 22.8077 13.658 22.4207C13.0363 22.0834 12.5125 21.6466 12.0867 21.1118V21.5657C12.0867 21.7165 12.0344 21.8479 11.9297 21.9525C11.8251 22.057 11.6937 22.1086 11.5429 22.1086C11.3921 22.1085 11.2607 22.0571 11.1561 21.9525C11.0515 21.8479 11.0001 21.7165 11 21.5657V19.7828C11 19.632 11.0516 19.5007 11.1561 19.396C11.2607 19.2914 11.3921 19.2391 11.5429 19.239H13.3257C13.4767 19.239 13.6079 19.2913 13.7126 19.396C13.8173 19.5007 13.8696 19.6319 13.8696 19.7828C13.8696 19.9337 13.8172 20.065 13.7126 20.1697C13.6079 20.2742 13.4766 20.3267 13.3257 20.3267H12.8585C13.1912 20.7778 13.6131 21.1478 14.1262 21.4355C14.6939 21.7536 15.3179 21.9133 16 21.9133C17.0231 21.9133 17.8996 21.5726 18.635 20.8916C19.3715 20.2096 19.7897 19.3738 19.8912 18.3801V18.3782C19.9091 18.2354 19.9732 18.1162 20.0837 18.0287C20.191 17.9438 20.3173 17.9023 20.4571 17.9023Z" fill="white"/>
<path d="M16 13C16.8474 13 17.6288 13.1923 18.342 13.5793C18.9635 13.9165 19.4876 14.3527 19.9133 14.8872V14.4343C19.9133 14.2835 19.9656 14.1521 20.0703 14.0475C20.1749 13.943 20.3063 13.8914 20.4571 13.8914C20.6079 13.8915 20.7393 13.9429 20.8439 14.0475C20.9485 14.1521 20.9999 14.2835 21 14.4343V16.2172C21 16.368 20.9484 16.4993 20.8439 16.604C20.7393 16.7086 20.6079 16.7609 20.4571 16.761H18.6743C18.5233 16.761 18.3921 16.7087 18.2874 16.604C18.1827 16.4993 18.1304 16.3681 18.1304 16.2172C18.1304 16.0663 18.1828 15.935 18.2874 15.8303C18.3921 15.7258 18.5234 15.6733 18.6743 15.6733H19.1415C18.8088 15.2222 18.3869 14.8522 17.8738 14.5645C17.3061 14.2464 16.6821 14.0867 16 14.0867C14.9769 14.0867 14.1004 14.4273 13.365 15.1084C12.6285 15.7904 12.2103 16.6262 12.1088 17.6199V17.6218C12.0909 17.7646 12.0268 17.8838 11.9163 17.9713C11.809 18.0562 11.6827 18.0977 11.5429 18.0977C11.3949 18.0976 11.2642 18.0514 11.1561 17.9569C11.0439 17.8588 10.9922 17.7322 11.0115 17.5864C11.0649 16.9448 11.2314 16.3454 11.5113 15.7892C11.7913 15.233 12.1548 14.7477 12.6019 14.3347C13.0488 13.9219 13.5621 13.5964 14.1406 13.3581C14.7212 13.119 15.3416 13 16 13Z" fill="white"/>
</svg>
