<svg width="36" height="36" viewBox="0 0 36 36" fill="none" xmlns="http://www.w3.org/2000/svg">
<path d="M18.0764 22.7123C18.0764 22.7123 8.17738 22.0773 4.44838 18.4043C4.26139 18.2229 4.12584 17.9952 4.05557 17.7443C3.9853 17.4934 3.98282 17.2284 4.04838 16.9763C4.80138 14.0983 7.03838 3.93729 18.0764 4.00029C29.0084 3.93729 31.4204 14.1403 31.9764 16.9943C32.0239 17.2376 32.0094 17.4889 31.934 17.725C31.8587 17.9612 31.725 18.1745 31.5454 18.3453C30.2234 19.6093 26.3614 22.4363 18.0784 22.7113" fill="#0B6A46"/>
<path d="M19.4362 29.6883H6.90918L7.68318 14.7203L16.5092 14.2783V14.1323L17.9712 14.2053L19.4332 14.1323V14.2783L28.2612 14.7193L29.0342 29.6883H19.4362Z" fill="#111111"/>
<path d="M16.8454 31.9513C14.922 31.7163 13.0916 30.99 11.5305 29.8422C9.96943 28.6945 8.73024 27.164 7.93236 25.3983C7.72878 25.5513 7.49087 25.6523 7.23936 25.6923C6.04736 25.8763 4.87536 24.5923 4.62336 22.8253C4.37136 21.0583 5.13336 19.4783 6.32336 19.2953C6.4153 19.2811 6.50839 19.2757 6.60136 19.2793C6.61582 18.2615 6.74258 17.2483 6.97936 16.2583C7.00669 15.869 7.04402 15.469 7.09136 15.0583C7.84136 8.58729 13.9754 6.4663 16.4004 5.8773C17.0543 5.71647 17.7321 5.67682 18.4004 5.7603C20.2881 5.98088 22.1042 6.61422 23.7197 7.61537C25.3353 8.61653 26.7107 9.96097 27.7484 11.5533C28.3256 12.4741 28.6489 13.5312 28.6854 14.6173C28.7024 15.0743 28.7144 15.6173 28.7134 16.2253C28.9334 17.1341 29.0603 18.0628 29.0924 18.9973C29.2838 18.9508 29.4825 18.9419 29.6774 18.9713C30.8704 19.1553 31.6314 20.7353 31.3774 22.5023C31.1234 24.2693 29.9544 25.5523 28.7624 25.3693C28.465 25.3199 28.1877 25.1874 27.9624 24.9873C27.1485 27.0023 25.7671 28.7376 23.9859 29.9825C22.2046 31.2274 20.1003 31.9284 17.9284 32.0003H17.8284C17.5001 32.0009 17.172 31.9845 16.8454 31.9513Z" fill="#FAD7C4"/>
<path d="M12.3398 20.9501C12.3398 20.0561 12.7738 19.3301 13.3108 19.3301C13.8478 19.3301 14.2818 20.0551 14.2818 20.9501C14.2818 21.8451 13.8478 22.5701 13.3108 22.5701C12.7738 22.5701 12.3398 21.8451 12.3398 20.9501Z" fill="black"/>
<path d="M21.7236 20.9501C21.7236 20.0561 22.1576 19.3301 22.6946 19.3301C23.2316 19.3301 23.6646 20.0551 23.6646 20.9501C23.6646 21.8451 23.2306 22.5701 22.6946 22.5701C22.1586 22.5701 21.7236 21.8451 21.7236 20.9501Z" fill="black"/>
<path d="M7.02349 16.0912C7.04616 15.8186 7.07349 15.5419 7.10549 15.2612C7.85349 8.67923 13.9835 6.52223 16.4015 5.92423C17.0549 5.76029 17.7332 5.71993 18.4015 5.80523C20.2969 6.03457 22.1177 6.68201 23.7324 7.70079C25.3471 8.71956 26.7154 10.0842 27.7385 11.6962C28.3148 12.6359 28.6364 13.7095 28.6715 14.8112C28.6855 15.2032 28.6965 15.6602 28.6995 16.1642C28.8378 16.7238 28.9407 17.2916 29.0075 17.8642C26.0875 19.0762 21.7385 18.1012 18.0985 15.1382C17.0727 14.3064 16.1555 13.3489 15.3685 12.2882C14.564 13.6507 13.5557 14.882 12.3785 15.9392C10.7317 17.4637 8.756 18.5884 6.60449 19.2262C6.62346 18.1686 6.76405 17.1167 7.02349 16.0912Z" fill="#111111"/>
<path d="M6.49843 17.7302C6.75343 14.5772 8.19143 5.59815 18.0114 5.61015C18.0114 5.61015 28.7354 4.73315 29.3514 17.9701C29.3521 18.0498 29.3282 18.1278 29.2828 18.1933C29.2375 18.2588 29.173 18.3087 29.0981 18.3361C29.0233 18.3635 28.9418 18.3671 28.8649 18.3463C28.7879 18.3255 28.7193 18.2815 28.6684 18.2201C27.375 16.7239 25.7653 15.5336 23.9556 14.7355C22.1459 13.9374 20.1815 13.5513 18.2044 13.6052C16.1636 13.5707 14.1364 13.9427 12.2407 14.6993C10.345 15.4559 8.61872 16.582 7.16243 18.0121C7.10843 18.0691 7.03832 18.1082 6.96149 18.1242C6.88466 18.1402 6.80478 18.1323 6.73255 18.1016C6.66032 18.0709 6.59918 18.0189 6.55734 17.9525C6.5155 17.8861 6.49494 17.8085 6.49843 17.7302Z" fill="#19A854"/>
</svg>
