<svg width="32" height="32" viewBox="0 0 32 32" fill="none" xmlns="http://www.w3.org/2000/svg">
<path d="M17.1663 25.3337C17.1663 24.6893 16.644 24.167 15.9997 24.167C15.3553 24.167 14.833 24.6893 14.833 25.3337V28.8337C14.833 29.478 15.3553 30.0003 15.9997 30.0003C16.644 30.0003 17.1663 29.478 17.1663 28.8337V25.3337Z" fill="#E8A2BA"/>
<path d="M17.1663 3.16667C17.1663 2.52233 16.644 2 15.9997 2C15.3553 2 14.833 2.52233 14.833 3.16667V6.66667C14.833 7.311 15.3553 7.83333 15.9997 7.83333C16.644 7.83333 17.1663 7.311 17.1663 6.66667V3.16667Z" fill="#E8A2BA"/>
<path d="M12.5003 25.3337C12.5003 24.6893 11.978 24.167 11.3337 24.167C10.6893 24.167 10.167 24.6893 10.167 25.3337V28.8337C10.167 29.478 10.6893 30.0003 11.3337 30.0003C11.978 30.0003 12.5003 29.478 12.5003 28.8337V25.3337Z" fill="#E8A2BA"/>
<path d="M12.5003 3.16667C12.5003 2.52233 11.978 2 11.3337 2C10.6893 2 10.167 2.52233 10.167 3.16667V6.66667C10.167 7.311 10.6893 7.83333 11.3337 7.83333C11.978 7.83333 12.5003 7.311 12.5003 6.66667V3.16667Z" fill="#E8A2BA"/>
<path d="M21.8333 25.3332C21.8333 24.6888 21.311 24.1665 20.6667 24.1665C20.0223 24.1665 19.5 24.6888 19.5 25.3332V28.8332C19.5 29.4775 20.0223 29.9998 20.6667 29.9998C21.311 29.9998 21.8333 29.4775 21.8333 28.8332V25.3332Z" fill="#E8A2BA"/>
<path d="M21.8333 3.16667C21.8333 2.52233 21.311 2 20.6667 2C20.0223 2 19.5 2.52233 19.5 3.16667V6.66667C19.5 7.311 20.0223 7.83333 20.6667 7.83333C21.311 7.83333 21.8333 7.311 21.8333 6.66667V3.16667Z" fill="#E8A2BA"/>
<path d="M25.3337 14.8337C24.6893 14.8337 24.167 15.356 24.167 16.0003C24.167 16.6447 24.6893 17.167 25.3337 17.167L28.8337 17.167C29.478 17.167 30.0003 16.6447 30.0003 16.0003C30.0003 15.356 29.478 14.8337 28.8337 14.8337L25.3337 14.8337Z" fill="#E8A2BA"/>
<path d="M3.16667 14.8332C2.52233 14.8332 2 15.3555 2 15.9998C2 16.6442 2.52233 17.1665 3.16667 17.1665L6.66666 17.1665C7.31099 17.1665 7.83333 16.6442 7.83333 15.9998C7.83333 15.3555 7.31099 14.8332 6.66666 14.8332L3.16667 14.8332Z" fill="#E8A2BA"/>
<path d="M25.3337 19.4997C24.6893 19.4997 24.167 20.022 24.167 20.6663C24.167 21.3107 24.6893 21.833 25.3337 21.833L28.8337 21.833C29.478 21.833 30.0003 21.3107 30.0003 20.6663C30.0003 20.022 29.478 19.4997 28.8337 19.4997L25.3337 19.4997Z" fill="#E8A2BA"/>
<path d="M3.16667 19.5002C2.52233 19.5002 2 20.0225 2 20.6668C2 21.3112 2.52233 21.8335 3.16667 21.8335L6.66666 21.8335C7.31099 21.8335 7.83333 21.3112 7.83333 20.6668C7.83333 20.0225 7.31099 19.5002 6.66666 19.5002L3.16667 19.5002Z" fill="#E8A2BA"/>
<path d="M25.3337 10.1667C24.6893 10.1667 24.167 10.689 24.167 11.3333C24.167 11.9777 24.6893 12.5 25.3337 12.5L28.8337 12.5C29.478 12.5 30.0003 11.9777 30.0003 11.3333C30.0003 10.689 29.478 10.1667 28.8337 10.1667L25.3337 10.1667Z" fill="#E8A2BA"/>
<path d="M3.16667 10.1667C2.52233 10.1667 2 10.689 2 11.3333C2 11.9777 2.52233 12.5 3.16667 12.5L6.66666 12.5C7.31099 12.5 7.83333 11.9777 7.83333 11.3333C7.83333 10.689 7.31099 10.1667 6.66666 10.1667L3.16667 10.1667Z" fill="#E8A2BA"/>
<path d="M24.0769 5.5H7.92307C6.58485 5.5 5.5 6.9103 5.5 8.65V23.35C5.5 25.0897 6.58485 26.5 7.92307 26.5H24.0769C25.4151 26.5 26.5 25.0897 26.5 23.35V8.65C26.5 6.9103 25.4151 5.5 24.0769 5.5Z" fill="#C7355D"/>
<path d="M21.9989 20.0397C21.9989 20.3385 21.8912 20.5732 21.676 20.7439C21.4608 20.9146 21.2128 21 20.932 21C20.6326 21 20.3799 20.9146 20.174 20.7439C19.9682 20.5732 19.8652 20.3385 19.8652 20.0397V11.9731C19.8652 11.6743 19.9682 11.4396 20.174 11.2689C20.3799 11.0896 20.6326 11 20.932 11C21.2128 11 21.4608 11.0896 21.676 11.2689C21.8912 11.4396 21.9989 11.6743 21.9989 11.9731V20.0397Z" fill="white"/>
<path d="M10.7598 20.9744C10.6287 20.9659 10.5071 20.9317 10.3948 20.872C10.2919 20.8122 10.203 20.7311 10.1281 20.6287C10.0626 20.5348 10.0205 20.4153 10.0018 20.2702C9.9924 20.1336 10.0205 19.9757 10.086 19.7964L12.7951 12.0755C12.8419 11.939 12.9027 11.8067 12.9776 11.6786C13.0618 11.5506 13.1648 11.4353 13.2864 11.3329C13.4081 11.2305 13.5484 11.1494 13.7075 11.0896C13.876 11.0299 14.0678 11 14.283 11C14.7135 11 15.0317 11.1024 15.2376 11.3073C15.4528 11.5036 15.6212 11.7597 15.7429 12.0755L18.4661 19.7964C18.5316 19.9757 18.555 20.1336 18.5363 20.2702C18.5269 20.4153 18.4848 20.5348 18.4099 20.6287C18.3444 20.7311 18.2555 20.8122 18.1432 20.872C18.0309 20.9317 17.9139 20.9659 17.7923 20.9744C17.4273 21.0085 17.1419 20.9317 16.936 20.7439C16.7302 20.5647 16.5617 20.283 16.4307 19.8988L15.9254 18.4136H12.6126L12.1213 19.8988C11.9903 20.283 11.8219 20.5647 11.616 20.7439C11.4101 20.9317 11.1247 21.0085 10.7598 20.9744ZM14.269 13.4328L13.118 16.8899H15.42L14.269 13.4328Z" fill="white"/>
</svg>
