<svg width="24" height="24" viewBox="0 0 24 24" fill="none" xmlns="http://www.w3.org/2000/svg">
<path d="M14.9094 7.89705L16.6724 3.27504C16.744 3.16671 16.7825 3.03991 16.7834 2.91011C16.7843 2.78031 16.7476 2.65305 16.6776 2.54371C16.6077 2.43438 16.5075 2.34769 16.3892 2.29414C16.271 2.24059 16.1398 2.22248 16.0114 2.24202H7.48141C7.3534 2.2234 7.22277 2.24218 7.10518 2.2961C6.9876 2.35001 6.88811 2.43676 6.81869 2.54591C6.74926 2.65506 6.71287 2.78198 6.71389 2.91133C6.71491 3.04068 6.75329 3.167 6.82442 3.27504L8.58346 7.89705" fill="#F4A12B"/>
<path d="M10 7H14C15.8565 7 17.637 7.7375 18.9497 9.05025C20.2625 10.363 21 12.1435 21 14V20C21 20.5304 20.7893 21.0391 20.4142 21.4142C20.0391 21.7893 19.5304 22 19 22H5C4.46957 22 3.96086 21.7893 3.58579 21.4142C3.21071 21.0391 3 20.5304 3 20V14C3 12.1435 3.7375 10.363 5.05025 9.05025C6.36301 7.7375 8.14348 7 10 7Z" fill="#F4A12B"/>
<path d="M15.526 5.3418H7.95801C7.40572 5.3418 6.95801 5.78951 6.95801 6.3418V6.5498C6.95801 7.10208 7.40572 7.5498 7.95801 7.5498H15.526C16.0783 7.5498 16.526 7.10208 16.526 6.5498V6.3418C16.526 5.78951 16.0783 5.3418 15.526 5.3418Z" fill="#9F5700"/>
</svg>
