<svg width="28" height="28" viewBox="0 0 28 28" fill="none" xmlns="http://www.w3.org/2000/svg">
<path d="M24 3.80078H4C2.89543 3.80078 2 4.69621 2 5.80078V25.0008C2 26.1054 2.89543 27.0008 4 27.0008H24C25.1046 27.0008 26 26.1054 26 25.0008V5.80078C26 4.69621 25.1046 3.80078 24 3.80078Z" fill="#E9BAE3"/>
<path d="M17.5317 3.80078H10.4727V27.0008H17.5317V3.80078Z" fill="url(#paint0_linear_262_7329)"/>
<path d="M14.3062 8.29231H13.8862L12.3862 11.8923L11.0972 11.3493L12.4742 8.04131L12.4302 8.01531C11.861 8.47292 11.16 8.73581 10.4302 8.76531C10.221 8.76653 10.0125 8.73997 9.81024 8.68631C8.63024 8.37031 7.77824 7.20131 7.26424 5.22031C6.99975 4.41818 7.05853 3.54452 7.42809 2.78505C7.79765 2.02558 8.44884 1.44019 9.24324 1.15331C9.59821 1.03096 9.97412 0.981025 10.3487 1.00645C10.7233 1.03187 11.089 1.13213 11.4242 1.30131C12.2445 1.74665 12.8898 2.45649 13.2552 3.31531C13.3415 3.30472 13.4284 3.30004 13.5152 3.30131H14.7002C14.7825 3.30134 14.8647 3.30669 14.9462 3.31731C15.3098 2.45584 15.9569 1.74452 16.7802 1.30131C17.1153 1.13227 17.4808 1.03208 17.8553 1.00666C18.2297 0.981236 18.6054 1.0311 18.9602 1.15331C19.7548 1.43997 20.4061 2.02534 20.7757 2.78488C21.1453 3.54442 21.204 4.41819 20.9392 5.22031C20.4252 7.20031 19.5702 8.36531 18.3952 8.68531C18.193 8.73898 17.9845 8.76555 17.7752 8.76431H17.7692C17.0427 8.73533 16.3444 8.47501 15.7762 8.02131L15.7222 8.05231L17.0952 11.3523L15.8062 11.8953L14.3062 8.29231ZM18.0302 7.32431C18.6682 7.15531 19.2162 6.27831 19.5852 4.86631C19.6714 4.6383 19.7116 4.39547 19.7034 4.15185C19.6953 3.90823 19.6389 3.66863 19.5377 3.4469C19.4365 3.22516 19.2923 3.02567 19.1135 2.85994C18.9348 2.69421 18.725 2.56553 18.4962 2.48131C18.3168 2.42008 18.1267 2.39595 17.9376 2.41039C17.7485 2.42483 17.5643 2.47754 17.3962 2.56531C16.836 2.88264 16.4042 3.38557 16.1752 3.98731C16.4408 4.30125 16.6001 4.69123 16.6302 5.10131L16.7142 6.20131C16.732 6.44491 16.7046 6.68971 16.6332 6.92331C16.8234 7.08702 17.0467 7.20763 17.2878 7.27685C17.529 7.34607 17.7822 7.36226 18.0302 7.32431ZM9.70724 2.48131C9.47856 2.56565 9.26883 2.69439 9.09012 2.86013C8.9114 3.02586 8.76724 3.22531 8.66593 3.44699C8.56461 3.66866 8.50815 3.90819 8.4998 4.15178C8.49144 4.39537 8.53135 4.63821 8.61724 4.86631C8.98624 6.28331 9.53424 7.15631 10.1712 7.32431C10.4209 7.3603 10.6755 7.34155 10.9172 7.26938C11.159 7.1972 11.3821 7.07331 11.5712 6.90631C11.5009 6.6756 11.4748 6.4337 11.4942 6.19331L11.5802 5.10131C11.6118 4.69667 11.7691 4.31204 12.0302 4.00131C11.8027 3.39515 11.3709 2.88731 10.8092 2.56531C10.6059 2.46187 10.3813 2.40709 10.1532 2.40531C10.0014 2.4056 9.85063 2.43129 9.70724 2.48131Z" fill="#E24949"/>
<defs>
<linearGradient id="paint0_linear_262_7329" x1="14.0022" y1="3.80078" x2="14.0022" y2="27.0008" gradientUnits="userSpaceOnUse">
<stop stop-color="#7E0B6F"/>
<stop offset="1" stop-color="#AD1A7C"/>
</linearGradient>
</defs>
</svg>
