<svg width="24" height="24" viewBox="0 0 24 24" fill="none" xmlns="http://www.w3.org/2000/svg">
<path d="M11.3295 14.8419C11.3917 14.7173 11.4875 14.6125 11.606 14.5393C11.7245 14.466 11.861 14.4272 12.0003 14.4272C12.1396 14.4272 12.2762 14.466 12.3947 14.5393C12.5132 14.6125 12.6089 14.7173 12.6712 14.8419L15.207 19.9149C15.2641 20.0293 15.2911 20.1563 15.2853 20.2839C15.2796 20.4116 15.2413 20.5357 15.1741 20.6444C15.1069 20.7531 15.0131 20.8429 14.9015 20.9051C14.7899 20.9674 14.6643 21.0001 14.5365 21.0002H9.46347C9.33567 21.0001 9.21002 20.9674 9.09842 20.9051C8.98682 20.8429 8.89299 20.7531 8.82582 20.6444C8.75865 20.5357 8.72038 20.4116 8.71463 20.2839C8.70888 20.1563 8.73584 20.0293 8.79297 19.9149L11.3295 14.8419Z" fill="#6D6DE2"/>
<path d="M19.5 3H4.5C3.25736 3 2.25 4.00736 2.25 5.25V15.75C2.25 16.9926 3.25736 18 4.5 18H19.5C20.7426 18 21.75 16.9926 21.75 15.75V5.25C21.75 4.00736 20.7426 3 19.5 3Z" fill="#8295F1"/>
<path d="M6.75 10.5C6.75 10.0858 6.41421 9.75 6 9.75C5.58579 9.75 5.25 10.0858 5.25 10.5V14.25C5.25 14.6642 5.58579 15 6 15C6.41421 15 6.75 14.6642 6.75 14.25V10.5Z" fill="white"/>
<path d="M12.75 9.75C12.75 9.33579 12.4142 9 12 9C11.5858 9 11.25 9.33579 11.25 9.75V14.25C11.25 14.6642 11.5858 15 12 15C12.4142 15 12.75 14.6642 12.75 14.25V9.75Z" fill="white"/>
<path d="M18.75 9.75C18.75 9.33579 18.4142 9 18 9C17.5858 9 17.25 9.33579 17.25 9.75V14.25C17.25 14.6642 17.5858 15 18 15C18.4142 15 18.75 14.6642 18.75 14.25V9.75Z" fill="white"/>
<path d="M9.75 7.5C9.75 7.08579 9.41421 6.75 9 6.75C8.58579 6.75 8.25 7.08579 8.25 7.5V14.25C8.25 14.6642 8.58579 15 9 15C9.41421 15 9.75 14.6642 9.75 14.25V7.5Z" fill="white"/>
<path d="M15.75 12C15.75 11.5858 15.4142 11.25 15 11.25C14.5858 11.25 14.25 11.5858 14.25 12V14.25C14.25 14.6642 14.5858 15 15 15C15.4142 15 15.75 14.6642 15.75 14.25V12Z" fill="white"/>
</svg>
