<svg width="32" height="32" viewBox="0 0 32 32" fill="none" xmlns="http://www.w3.org/2000/svg">
<g clip-path="url(#clip0_262_7951)">
<path d="M16.6216 21.427L16.5896 20.1C11.4296 20.087 9.16757 16.857 9.14557 14.235C9.07976 13.1985 9.42767 12.1782 10.113 11.3978C10.7984 10.6174 11.7652 10.1406 12.8016 10.072C13.3706 10.0734 13.931 10.2114 14.4356 10.4743C14.9402 10.7372 15.3744 11.1175 15.7016 11.583C16.0122 11.0845 16.4487 10.6767 16.9671 10.4005C17.4855 10.1244 18.0675 9.9897 18.6546 10.01C20.1816 9.99704 22.2386 11.282 22.2646 14.257C22.2896 17.057 20.2716 20.123 16.6226 21.423M15.6286 3.27204C8.62557 3.33504 2.85357 8.45904 2.91157 15.063C2.96382 16.8113 3.42022 18.5237 4.24501 20.0661C5.06981 21.6085 6.24057 22.9389 7.66557 23.953L6.87957 27.753C21.6556 32.017 28.6056 21.272 28.5476 14.867C28.4916 8.33304 22.7556 3.21004 15.6286 3.27204Z" fill="#E8272D"/>
<path d="M16.741 26.491L16.622 21.427C13.8816 22.3059 10.9323 22.2877 8.20297 21.375L7.66797 23.953C10.3072 25.8249 13.5145 26.7224 16.742 26.492" fill="#71000E"/>
</g>
<defs>
<clipPath id="clip0_262_7951">
<rect width="32" height="32" fill="white"/>
</clipPath>
</defs>
</svg>
