<svg width="56" height="56" viewBox="0 0 56 56" fill="none" xmlns="http://www.w3.org/2000/svg">
<g clip-path="url(#clip0_262_7099)">
<path d="M33 0H23C10.2975 0 0 10.2975 0 23V33C0 45.7025 10.2975 56 23 56H33C45.7025 56 56 45.7025 56 33V23C56 10.2975 45.7025 0 33 0Z" fill="#D3D3D3"/>
<path d="M18 31C19.6569 31 21 29.6569 21 28C21 26.3431 19.6569 25 18 25C16.3431 25 15 26.3431 15 28C15 29.6569 16.3431 31 18 31Z" fill="white"/>
<path d="M28 31C29.6569 31 31 29.6569 31 28C31 26.3431 29.6569 25 28 25C26.3431 25 25 26.3431 25 28C25 29.6569 26.3431 31 28 31Z" fill="white"/>
<path d="M38 31C39.6569 31 41 29.6569 41 28C41 26.3431 39.6569 25 38 25C36.3431 25 35 26.3431 35 28C35 29.6569 36.3431 31 38 31Z" fill="white"/>
</g>
<defs>
<clipPath id="clip0_262_7099">
<rect width="56" height="56" fill="white"/>
</clipPath>
</defs>
</svg>
