<svg width="36" height="36" viewBox="0 0 36 36" fill="none" xmlns="http://www.w3.org/2000/svg">
<path d="M28.501 19.5C28.501 22.0712 27.7385 24.5846 26.3101 26.7224C24.8816 28.8603 22.8513 30.5265 20.4759 31.5104C18.1004 32.4944 15.4866 32.7518 12.9648 32.2502C10.4431 31.7486 8.12668 30.5105 6.30859 28.6924C4.49051 26.8743 3.25238 24.5579 2.75077 22.0362C2.24917 19.5144 2.50661 16.9006 3.49055 14.5251C4.47449 12.1497 6.14073 10.1194 8.27857 8.6909C10.4164 7.26244 12.9298 6.5 15.501 6.5C18.9488 6.5 22.2554 7.86964 24.6934 10.3076C27.1313 12.7456 28.501 16.0522 28.501 19.5Z" fill="white" stroke="#111111"/>
<path d="M25.502 19.5C25.502 21.4778 24.9155 23.4112 23.8167 25.0557C22.7178 26.7002 21.1561 27.9819 19.3288 28.7388C17.5015 29.4957 15.4909 29.6937 13.5511 29.3079C11.6112 28.922 9.82942 27.9696 8.43089 26.5711C7.03237 25.1725 6.07996 23.3907 5.6941 21.4509C5.30825 19.5111 5.50629 17.5004 6.26316 15.6732C7.02004 13.8459 8.30176 12.2841 9.94626 11.1853C11.5907 10.0865 13.5241 9.5 15.502 9.5C16.8152 9.5 18.1155 9.75866 19.3288 10.2612C20.5421 10.7638 21.6444 11.5003 22.573 12.4289C23.5016 13.3575 24.2382 14.4599 24.7408 15.6732C25.2433 16.8864 25.502 18.1868 25.502 19.5Z" fill="white" stroke="#111111"/>
<path d="M17.599 23.3326C17.5064 23.3324 17.4157 23.3065 17.3369 23.2578C17.2582 23.209 17.1945 23.1394 17.153 23.0566L15.353 19.4816L13.834 23.0286C13.7952 23.1224 13.7281 23.2017 13.6421 23.2555C13.556 23.3093 13.4553 23.3348 13.354 23.3286C13.2529 23.3243 13.1554 23.2894 13.0745 23.2285C12.9936 23.1676 12.9331 23.0836 12.901 22.9876L10.957 17.1566C10.9208 17.0325 10.9341 16.8991 10.9941 16.7845C11.0541 16.67 11.1562 16.5832 11.2789 16.5423C11.4016 16.5014 11.5353 16.5096 11.6521 16.5652C11.7688 16.6209 11.8595 16.7196 11.905 16.8406L13.433 21.4236L14.858 18.0976C14.8959 18.0106 14.9578 17.9362 15.0364 17.8831C15.1151 17.83 15.2072 17.8003 15.302 17.7976C15.397 17.7959 15.4906 17.8207 15.5722 17.8693C15.6538 17.9179 15.7203 17.9883 15.764 18.0726L17.495 21.5126L18.982 16.8516C19.0259 16.7304 19.1149 16.6308 19.2305 16.5736C19.3461 16.5164 19.4793 16.5061 19.6023 16.5449C19.7253 16.5836 19.8286 16.6683 19.8906 16.7814C19.9526 16.8944 19.9685 17.0271 19.935 17.1516L18.076 22.9826C18.0457 23.0771 17.988 23.1605 17.9102 23.2221C17.8324 23.2838 17.738 23.3208 17.639 23.3286H17.6" fill="#111111"/>
<path d="M12.078 20.0928H10.5C10.3674 20.0928 10.2402 20.0401 10.1464 19.9463C10.0527 19.8526 10 19.7254 10 19.5928C10 19.4602 10.0527 19.333 10.1464 19.2392C10.2402 19.1455 10.3674 19.0928 10.5 19.0928H12.078C12.2106 19.0928 12.3378 19.1455 12.4316 19.2392C12.5253 19.333 12.578 19.4602 12.578 19.5928C12.578 19.7254 12.5253 19.8526 12.4316 19.9463C12.3378 20.0401 12.2106 20.0928 12.078 20.0928Z" fill="#111111"/>
<path d="M20.4989 20.0928H18.9229C18.7902 20.0928 18.6631 20.0401 18.5693 19.9463C18.4755 19.8526 18.4229 19.7254 18.4229 19.5928C18.4229 19.4602 18.4755 19.333 18.5693 19.2392C18.6631 19.1455 18.7902 19.0928 18.9229 19.0928H20.4989C20.6315 19.0928 20.7586 19.1455 20.8524 19.2392C20.9462 19.333 20.9989 19.4602 20.9989 19.5928C20.9989 19.7254 20.9462 19.8526 20.8524 19.9463C20.7586 20.0401 20.6315 20.0928 20.4989 20.0928Z" fill="#111111"/>
<path d="M31.1828 3.51172H21.8368C21.5639 3.51172 21.2937 3.56547 21.0416 3.6699C20.7895 3.77433 20.5604 3.92739 20.3674 4.12035C20.1745 4.31331 20.0214 4.54239 19.917 4.7945C19.8125 5.04662 19.7588 5.31683 19.7588 5.58972V12.4257C19.7588 12.6986 19.8125 12.9688 19.917 13.2209C20.0214 13.473 20.1745 13.7021 20.3674 13.8951C20.5604 14.088 20.7895 14.2411 21.0416 14.3455C21.2937 14.45 21.5639 14.5037 21.8368 14.5037H25.3468L26.6208 16.7507L27.8208 14.5037H31.1828C31.4558 14.5038 31.7261 14.4502 31.9783 14.3458C32.2305 14.2415 32.4597 14.0884 32.6528 13.8954C32.8459 13.7025 32.999 13.4733 33.1035 13.2212C33.208 12.969 33.2618 12.6987 33.2618 12.4257V5.58972C33.2618 5.31675 33.208 5.04645 33.1035 4.79427C32.999 4.54209 32.8459 4.31297 32.6528 4.12C32.4597 3.92702 32.2305 3.77398 31.9783 3.66961C31.7261 3.56524 31.4558 3.51159 31.1828 3.51172Z" fill="#B9B5EF"/>
<path d="M26.6191 17.261C26.5279 17.2614 26.4383 17.2374 26.3595 17.1915C26.2807 17.1456 26.2157 17.0795 26.1711 17L25.0441 15.011H21.8361C21.1498 15.0102 20.4919 14.7373 20.0066 14.2522C19.5213 13.767 19.2481 13.1092 19.2471 12.423V5.589C19.2479 4.9026 19.5209 4.24454 20.0062 3.75918C20.4916 3.27382 21.1497 3.00079 21.8361 3H31.1801C31.8668 3.00026 32.5254 3.27305 33.0112 3.75847C33.497 4.24389 33.7703 4.90225 33.7711 5.589V12.425C33.77 13.1112 33.4969 13.769 33.0115 14.2542C32.5262 14.7393 31.8683 15.0122 31.1821 15.013H28.1221L27.0711 16.99C27.0282 17.0709 26.9643 17.1387 26.8862 17.1864C26.8081 17.234 26.7186 17.2598 26.6271 17.261H26.6191ZM21.8361 4.021C21.4208 4.02206 21.0229 4.18769 20.7296 4.48161C20.4362 4.77552 20.2713 5.17374 20.2711 5.589V12.425C20.2716 12.8406 20.437 13.239 20.731 13.5328C21.0249 13.8266 21.4235 13.9917 21.8391 13.992H25.3491C25.4394 13.9921 25.528 14.0161 25.606 14.0616C25.684 14.1071 25.7485 14.1725 25.7931 14.251L26.6081 15.69L27.3671 14.263C27.4105 14.1811 27.4755 14.1126 27.5549 14.0648C27.6344 14.0171 27.7254 13.9919 27.8181 13.992H31.1831C31.5987 13.9917 31.9972 13.8266 32.2912 13.5328C32.5851 13.239 32.7505 12.8406 32.7511 12.425V5.589C32.7508 5.17322 32.5855 4.77455 32.2915 4.48055C31.9975 4.18655 31.5988 4.02126 31.1831 4.021H21.8361Z" fill="#111111"/>
<path d="M26.5709 10.3876C26.4321 10.3876 26.2989 10.3325 26.2007 10.2345C26.1025 10.1364 26.0471 10.0034 26.0469 9.86457V6.02358C26.0528 5.88869 26.1105 5.76129 26.208 5.66793C26.3056 5.57457 26.4354 5.52246 26.5704 5.52246C26.7054 5.52246 26.8352 5.57457 26.9327 5.66793C27.0303 5.76129 27.088 5.88869 27.0939 6.02358V9.86358C27.0939 10.0023 27.0388 10.1353 26.9407 10.2334C26.8426 10.3315 26.7096 10.3866 26.5709 10.3866" fill="#111111"/>
<path d="M27.0939 11.9576C27.0939 12.0613 27.0631 12.1626 27.0055 12.2488C26.9479 12.335 26.866 12.4022 26.7702 12.4418C26.6744 12.4814 26.569 12.4918 26.4673 12.4715C26.3656 12.4512 26.2723 12.4011 26.199 12.3278C26.1258 12.2544 26.076 12.1609 26.0558 12.0592C26.0357 11.9575 26.0463 11.8521 26.0861 11.7564C26.1259 11.6606 26.1932 11.5789 26.2795 11.5214C26.3658 11.464 26.4672 11.4334 26.5709 11.4336C26.7097 11.4339 26.8427 11.4892 26.9408 11.5874C27.0388 11.6857 27.0939 11.8188 27.0939 11.9576Z" fill="#111111"/>
</svg>
