<svg width="28" height="28" viewBox="0 0 28 28" fill="none" xmlns="http://www.w3.org/2000/svg">
<path d="M14 28C21.732 28 28 21.732 28 14C28 6.26801 21.732 0 14 0C6.26801 0 0 6.26801 0 14C0 21.732 6.26801 28 14 28Z" fill="#C26391"/>
<path d="M16.8102 13.2632H16.4652L16.6402 12.7882C16.7402 12.5132 16.6002 12.2132 16.3252 12.1132C16.0552 12.0132 15.7502 12.1532 15.6502 12.4282L15.1002 13.9431L14.4852 12.4082C14.4052 12.2082 14.2102 12.0781 14.0002 12.0781C13.7902 12.0781 13.5902 12.2082 13.5152 12.4082L12.9002 13.9431L12.3502 12.4282C12.2502 12.1582 11.9502 12.0132 11.6752 12.1132C11.4052 12.2132 11.2602 12.5132 11.3602 12.7882L11.5302 13.2632H11.1852C10.8952 13.2632 10.6602 13.4982 10.6602 13.7882C10.6602 14.0782 10.8952 14.3131 11.1852 14.3131H11.9102L12.3752 15.5981C12.4502 15.8031 12.6452 15.9381 12.8602 15.9431C13.0752 15.9331 13.2752 15.8132 13.3552 15.6132L13.9902 14.0182L14.6252 15.6132C14.7052 15.8132 14.9002 15.9431 15.1102 15.9431H15.1202C15.3402 15.9431 15.5302 15.8031 15.6052 15.5981L16.0702 14.3131H16.7952C17.0852 14.3131 17.3202 14.0782 17.3202 13.7882C17.3202 13.4982 17.0852 13.2632 16.7952 13.2632H16.8102Z" fill="white"/>
<path d="M18.9704 14.8894H19.1804C19.4104 14.8894 19.6004 14.6994 19.6004 14.4694V12.1644C19.6004 9.30443 17.2804 6.98438 14.4204 6.98438H13.5804C10.7204 6.98438 8.40039 9.30443 8.40039 12.1644V17.0594C8.40039 18.0644 9.21539 18.8844 10.2254 18.8844H11.4254C11.6654 20.0944 12.7254 21.0144 14.0004 21.0144C15.2754 21.0144 16.3354 20.0994 16.5754 18.8844H17.7754C18.7804 18.8844 19.6004 18.0694 19.6004 17.0594V16.3494C19.6004 16.1194 19.4104 15.9294 19.1804 15.9294H18.9704C18.7404 15.9294 18.5504 16.1194 18.5504 16.3494V17.0594C18.5504 17.4894 18.2054 17.8344 17.7754 17.8344H10.2254C9.79539 17.8344 9.45039 17.4894 9.45039 17.0594V12.1644C9.45039 9.88443 11.3004 8.03442 13.5804 8.03442H14.4204C16.7004 8.03442 18.5504 9.88443 18.5504 12.1644V14.4694C18.5504 14.6994 18.7404 14.8894 18.9704 14.8894ZM14.0004 19.9644C13.3104 19.9644 12.7304 19.5094 12.5154 18.8844H15.4804C15.2704 19.5094 14.6904 19.9644 13.9954 19.9644H14.0004Z" fill="white"/>
</svg>
