<svg width="36" height="36" viewBox="0 0 36 36" fill="none" xmlns="http://www.w3.org/2000/svg">
<path d="M30 8H6C4.34315 8 3 9.34315 3 11V29C3 30.6569 4.34315 32 6 32H30C31.6569 32 33 30.6569 33 29V11C33 9.34315 31.6569 8 30 8Z" fill="#6EC4F6"/>
<path d="M29 15H7C5.89543 15 5 15.8954 5 17V28C5 29.1046 5.89543 30 7 30H29C30.1046 30 31 29.1046 31 28V17C31 15.8954 30.1046 15 29 15Z" fill="white"/>
<path d="M14 6.5C14 5.67157 13.3284 5 12.5 5C11.6716 5 11 5.67157 11 6.5V11.5C11 12.3284 11.6716 13 12.5 13C13.3284 13 14 12.3284 14 11.5V6.5Z" fill="#0C629C"/>
<path d="M25 6.5C25 5.67157 24.3284 5 23.5 5C22.6716 5 22 5.67157 22 6.5V11.5C22 12.3284 22.6716 13 23.5 13C24.3284 13 25 12.3284 25 11.5V6.5Z" fill="#0C629C"/>
<path d="M11.6572 25.6661H10.5302V19.9831H9.15723V19.1541L11.6572 18.9131V25.6661Z" fill="#111111"/>
<path d="M18.0272 22.631C16.9541 22.8163 15.8661 22.9017 14.7772 22.886H14.2002V18.945H15.0502V22.186C16.0202 22.1856 16.9883 22.1027 17.9442 21.938L18.0272 22.631ZM20.1362 25.048V25.74H15.1162V23.447H15.9652V25.047L20.1362 25.048ZM19.0972 21.426H17.1202V20.754H19.0992V20.019H17.1202V19.342H19.0992V18.436H19.9492V23.936H19.0992L19.0972 21.426Z" fill="#111111"/>
<path d="M24.3799 18.5C24.5125 18.5 24.6397 18.5527 24.7334 18.6464C24.8272 18.7402 24.8799 18.8674 24.8799 19V25C24.8799 25.1326 24.8272 25.2598 24.7334 25.3536C24.6397 25.4473 24.5125 25.5 24.3799 25.5C24.2473 25.5 24.1201 25.4473 24.0263 25.3536C23.9326 25.2598 23.8799 25.1326 23.8799 25V19C23.8799 18.8674 23.9326 18.7402 24.0263 18.6464C24.1201 18.5527 24.2473 18.5 24.3799 18.5Z" fill="#111111"/>
<path d="M26.3429 23.3048C26.4414 23.3048 26.5378 23.3339 26.6199 23.3886C26.7019 23.4432 26.766 23.5209 26.804 23.6118C26.8421 23.7028 26.8524 23.8029 26.8337 23.8997C26.815 23.9965 26.7681 24.0856 26.6989 24.1558L24.7279 26.1558C24.6348 26.2502 24.508 26.3037 24.3754 26.3047C24.2428 26.3056 24.1153 26.2539 24.0209 26.1608L21.9919 24.1608C21.9408 24.1159 21.8995 24.061 21.8703 23.9996C21.8412 23.9381 21.8249 23.8714 21.8225 23.8035C21.82 23.7355 21.8314 23.6678 21.8561 23.6044C21.8807 23.541 21.9179 23.4833 21.9656 23.4349C22.0133 23.3864 22.0703 23.3481 22.1333 23.3224C22.1962 23.2968 22.2638 23.2842 22.3317 23.2855C22.3997 23.2868 22.4667 23.3019 22.5286 23.33C22.5905 23.3581 22.6461 23.3985 22.6919 23.4488L24.3649 25.0978L25.9869 23.4518C26.0335 23.405 26.089 23.3679 26.1501 23.3426C26.2112 23.3174 26.2767 23.3045 26.3429 23.3048Z" fill="#111111"/>
</svg>
