<svg width="36" height="36" viewBox="0 0 36 36" fill="none" xmlns="http://www.w3.org/2000/svg">
<path d="M30.2662 33.0167H5.7332C4.88451 33.0167 4.07058 32.6795 3.47046 32.0794C2.87034 31.4793 2.5332 30.6654 2.5332 29.8167V13.5967H33.4662V29.8167C33.4662 30.6654 33.1291 31.4793 32.5289 32.0794C31.9288 32.6795 31.1149 33.0167 30.2662 33.0167Z" fill="white"/>
<path d="M30.267 33.5505H5.733C4.74335 33.5492 3.79462 33.1554 3.09483 32.4556C2.39504 31.7559 2.00132 30.8071 2 29.8175V13.0635H34V29.8175C33.9987 30.8071 33.605 31.7559 32.9052 32.4556C32.2054 33.1554 31.2566 33.5492 30.267 33.5505ZM3.067 14.1305V29.8175C3.06779 30.5246 3.34904 31.2025 3.84902 31.7025C4.34901 32.2024 5.02691 32.4837 5.734 32.4845H30.267C30.9741 32.4837 31.652 32.2024 32.152 31.7025C32.652 31.2025 32.9332 30.5246 32.934 29.8175V14.1305H3.067Z" fill="#111111"/>
<path d="M5.7332 6.12988H30.2662C31.1149 6.12988 31.9288 6.46702 32.5289 7.06714C33.1291 7.66726 33.4662 8.48119 33.4662 9.32988V13.5969H2.5332V9.32988C2.5332 8.48119 2.87034 7.66726 3.47046 7.06714C4.07058 6.46702 4.88451 6.12988 5.7332 6.12988Z" fill="#B9B5EF"/>
<path d="M34 14.1277H2V9.32768C2.00185 8.33838 2.39581 7.39016 3.09554 6.6908C3.79527 5.99145 4.7437 5.598 5.733 5.59668H30.267C31.2563 5.598 32.2047 5.99145 32.9045 6.6908C33.6042 7.39016 33.9981 8.33838 34 9.32768V14.1277ZM3.067 13.0637H32.933V9.32768C32.9322 8.62059 32.651 7.94269 32.151 7.4427C31.651 6.94272 30.9731 6.66147 30.266 6.66068H5.733C5.02608 6.66174 4.34844 6.9431 3.84867 7.44306C3.3489 7.94301 3.06779 8.62076 3.067 9.32768V13.0637Z" fill="#111111"/>
<path d="M10.2669 9.93344C10.0217 9.93344 9.77896 9.88515 9.55244 9.79132C9.32593 9.6975 9.12011 9.55998 8.94675 9.38661C8.77338 9.21324 8.63586 9.00742 8.54203 8.78091C8.44821 8.5544 8.39991 8.31162 8.39991 8.06644V5.40044C8.39416 5.15169 8.43818 4.9043 8.52939 4.67281C8.6206 4.44132 8.75717 4.23039 8.93106 4.05243C9.10495 3.87447 9.31266 3.73306 9.54198 3.63651C9.7713 3.53997 10.0176 3.49023 10.2664 3.49023C10.5152 3.49023 10.7615 3.53997 10.9909 3.63651C11.2202 3.73306 11.4279 3.87447 11.6018 4.05243C11.7757 4.23039 11.9122 4.44132 12.0034 4.67281C12.0947 4.9043 12.1387 5.15169 12.1329 5.40044V8.06644C12.1329 8.56143 11.9363 9.03615 11.5864 9.38626C11.2365 9.73636 10.7619 9.93318 10.2669 9.93344Z" fill="white"/>
<path d="M10.2672 10.467C9.63067 10.467 9.02022 10.2141 8.57013 9.76406C8.12004 9.31397 7.86719 8.70352 7.86719 8.067V5.4C7.86719 4.76348 8.12004 4.15303 8.57013 3.70294C9.02022 3.25286 9.63067 3 10.2672 3C10.9037 3 11.5142 3.25286 11.9642 3.70294C12.4143 4.15303 12.6672 4.76348 12.6672 5.4V8.067C12.6672 8.70352 12.4143 9.31397 11.9642 9.76406C11.5142 10.2141 10.9037 10.467 10.2672 10.467ZM10.2672 4.067C9.91382 4.06753 9.57507 4.20814 9.3252 4.45801C9.07533 4.70788 8.93472 5.04663 8.93419 5.4V8.067C8.93419 8.24212 8.96868 8.41552 9.03569 8.57731C9.10271 8.7391 9.20093 8.8861 9.32476 9.00993C9.44859 9.13375 9.59559 9.23198 9.75738 9.29899C9.91917 9.36601 10.0926 9.4005 10.2677 9.4005C10.4428 9.4005 10.6162 9.36601 10.778 9.29899C10.9398 9.23198 11.0868 9.13375 11.2106 9.00993C11.3344 8.8861 11.4327 8.7391 11.4997 8.57731C11.5667 8.41552 11.6012 8.24212 11.6012 8.067V5.4C11.6007 5.04646 11.4599 4.70756 11.2098 4.45766C10.9597 4.20776 10.6207 4.06726 10.2672 4.067Z" fill="#111111"/>
<path d="M25.7342 9.93297C25.239 9.93297 24.7642 9.73627 24.414 9.38613C24.0639 9.036 23.8672 8.56113 23.8672 8.06597V5.39997C23.8785 4.91242 24.0801 4.44864 24.4289 4.10782C24.7777 3.76699 25.246 3.57617 25.7337 3.57617C26.2214 3.57617 26.6897 3.76699 27.0385 4.10782C27.3873 4.44864 27.5889 4.91242 27.6002 5.39997V8.06597C27.6002 8.56095 27.4036 9.03568 27.0537 9.38578C26.7038 9.73588 26.2292 9.9327 25.7342 9.93297Z" fill="white"/>
<path d="M25.733 10.467C25.0965 10.467 24.486 10.2141 24.0359 9.76406C23.5859 9.31397 23.333 8.70352 23.333 8.067V5.4C23.333 4.76348 23.5859 4.15303 24.0359 3.70294C24.486 3.25286 25.0965 3 25.733 3C26.3695 3 26.98 3.25286 27.4301 3.70294C27.8802 4.15303 28.133 4.76348 28.133 5.4V8.067C28.133 8.70352 27.8802 9.31397 27.4301 9.76406C26.98 10.2141 26.3695 10.467 25.733 10.467ZM25.733 4.067C25.3796 4.06753 25.0409 4.20814 24.791 4.45801C24.5411 4.70788 24.4005 5.04663 24.4 5.4V8.067C24.4 8.42067 24.5405 8.75985 24.7906 9.00993C25.0407 9.26001 25.3798 9.4005 25.7335 9.4005C26.0872 9.4005 26.4264 9.26001 26.6764 9.00993C26.9265 8.75985 27.067 8.42067 27.067 8.067V5.4C27.0665 5.04646 26.9257 4.70756 26.6756 4.45766C26.4256 4.20776 26.0866 4.06726 25.733 4.067Z" fill="#111111"/>
<path d="M10.4988 19.7265C10.7484 19.7255 10.9973 19.7526 11.2408 19.8075C11.4606 19.8549 11.6746 19.9264 11.8788 20.0205L11.6508 20.9445C11.4763 20.8686 11.296 20.8064 11.1118 20.7585C10.9123 20.7112 10.7078 20.6887 10.5028 20.6915C10.2787 20.6853 10.0563 20.733 9.85444 20.8306C9.65257 20.9283 9.47711 21.0729 9.34281 21.2525C9.03019 21.6921 8.87611 22.2249 8.90581 22.7635V22.7985C9.10667 22.6152 9.34093 22.4723 9.59581 22.3775C9.87217 22.2764 10.1646 22.2263 10.4588 22.2295C10.7481 22.2171 11.0362 22.2716 11.3009 22.3889C11.5656 22.5061 11.7997 22.6829 11.9848 22.9055C12.3631 23.4203 12.5602 24.0459 12.5453 24.6845C12.5305 25.3231 12.3046 25.9389 11.9028 26.4355C11.69 26.6691 11.4288 26.8534 11.1375 26.9757C10.8461 27.098 10.5316 27.1553 10.2158 27.1435C9.87775 27.1531 9.54166 27.0889 9.23084 26.9556C8.92002 26.8223 8.64192 26.623 8.41581 26.3715C7.91458 25.7685 7.6621 24.9972 7.70982 24.2145V22.8335C7.67042 22.0063 7.95569 21.1964 8.50481 20.5765C8.75766 20.2996 9.06713 20.0802 9.41221 19.9334C9.75729 19.7865 10.1299 19.7157 10.5048 19.7255M10.1618 23.1635C9.89538 23.1555 9.63083 23.2106 9.38981 23.3245C9.1898 23.421 9.02153 23.5726 8.90481 23.7615V24.2755C8.87359 24.7726 9.00295 25.2665 9.27381 25.6845C9.37821 25.8378 9.51878 25.963 9.68309 26.049C9.84739 26.135 10.0304 26.1791 10.2158 26.1775C10.3807 26.1812 10.5437 26.1416 10.6885 26.0629C10.8334 25.9841 10.9552 25.8689 11.0418 25.7285C11.2509 25.3981 11.3555 25.0123 11.3418 24.6215C11.3588 24.2452 11.2473 23.8742 11.0258 23.5695C10.9239 23.4386 10.792 23.334 10.6414 23.2644C10.4907 23.1948 10.3256 23.1623 10.1598 23.1695" fill="#111111"/>
<path d="M16.5361 20.3213C16.6051 21.3894 16.3656 22.4548 15.8461 23.3905C15.3267 24.3263 14.5491 25.093 13.6061 25.5993L13.0791 24.9563C13.8112 24.589 14.4334 24.035 14.8827 23.3502C15.3321 22.6654 15.5926 21.8741 15.6381 21.0563H13.4131V20.3213H16.5361ZM19.8791 19.3213V27.2653H19.0171V23.1653H18.1111V26.8943H17.2571V19.5303H18.1111V22.4213H19.0171V19.3213H19.8791Z" fill="#111111"/>
<path d="M23.2522 22.8463C22.5662 22.8733 21.9062 22.8733 21.3082 22.8733L21.1992 22.2203C22.7302 22.2203 24.6482 22.2113 26.3282 22.0363L26.3902 22.6073C25.6592 22.7133 24.9032 22.7743 24.1642 22.8073V23.9773H23.2492L23.2522 22.8463ZM21.7742 20.6463C21.7742 19.9163 22.5652 19.4593 23.7532 19.4593C24.9412 19.4593 25.7242 19.9163 25.7242 20.6463C25.7242 21.3763 24.9332 21.8343 23.7532 21.8343C22.5732 21.8343 21.7742 21.3763 21.7742 20.6463ZM28.0292 26.5463V27.1883H22.3902V25.3883H26.8992V24.8603H22.3722V24.2373H27.7992V25.9703H23.2872V26.5503L28.0292 26.5463ZM22.6292 20.6463C22.6292 21.0163 23.0692 21.2273 23.7552 21.2273C24.4412 21.2273 24.8722 21.0153 24.8722 20.6463C24.8722 20.2773 24.4322 20.0663 23.7552 20.0663C23.0782 20.0663 22.6292 20.2773 22.6292 20.6463ZM26.8962 23.0463V19.3203H27.7992V23.9563H26.8932V23.6133H25.3992V23.0503L26.8962 23.0463Z" fill="#111111"/>
</svg>
