<svg width="36" height="36" viewBox="0 0 36 36" fill="none" xmlns="http://www.w3.org/2000/svg">
<path d="M30.2662 33.0588H5.73317C4.86985 33.0439 4.0478 32.6867 3.44775 32.0658C2.84769 31.4449 2.51873 30.6112 2.53317 29.7478V12.9648H33.4662V29.7478C33.4806 30.6112 33.1517 31.4449 32.5516 32.0658C31.9515 32.6867 31.1295 33.0439 30.2662 33.0588Z" fill="white"/>
<path d="M30.2671 33.6111H5.73313C5.234 33.6024 4.74148 33.4954 4.2837 33.2962C3.82593 33.0971 3.41188 32.8097 3.06521 32.4505C2.71854 32.0913 2.44605 31.6673 2.2633 31.2028C2.08055 30.7382 1.99112 30.2422 2.00013 29.7431V12.4131H34.0001V29.7431C34.017 30.7503 33.6332 31.7229 32.9333 32.4473C32.2333 33.1717 31.2743 33.5885 30.2671 33.6061M3.06713 13.5171V29.7431C3.05589 30.4623 3.33034 31.1567 3.8303 31.6739C4.33025 32.1911 5.01491 32.4889 5.73413 32.5021H30.2671C30.9862 32.4887 31.6706 32.1907 32.1703 31.6736C32.6701 31.1564 32.9444 30.4622 32.9331 29.7431V13.5171H3.06713Z" fill="#111111"/>
<path d="M5.73317 5.23926H30.2662C31.1295 5.25425 31.9515 5.61144 32.5516 6.23231C33.1517 6.85318 33.4806 7.68692 33.4662 8.55026V12.9693H2.53317V8.55026C2.51873 7.68692 2.84769 6.85318 3.44775 6.23231C4.0478 5.61144 4.86985 5.25425 5.73317 5.23926Z" fill="#B9B5EF"/>
<path d="M34 13.5165H2.00004V8.54952C1.98319 7.54234 2.36693 6.56968 3.06692 5.84531C3.76691 5.12094 4.72588 4.70414 5.73304 4.68652H30.267C31.2742 4.70414 32.2332 5.12094 32.9332 5.84531C33.6332 6.56968 34.0169 7.54234 34 8.54952V13.5165ZM3.06704 12.4165H32.933V8.54952C32.9443 7.83027 32.6698 7.13591 32.1699 6.61871C31.6699 6.1015 30.9853 5.80367 30.266 5.79052H5.73304C5.014 5.80394 4.3296 6.10188 3.82986 6.61905C3.33011 7.13623 3.0558 7.83044 3.06704 8.54952V12.4165Z" fill="#111111"/>
<path d="M10.2669 9.17388C9.76335 9.1652 9.28382 8.95693 8.93373 8.59484C8.58364 8.23275 8.39165 7.74647 8.39994 7.24288V4.48288C8.38986 4.23148 8.43067 3.98062 8.51993 3.74538C8.60918 3.51013 8.74505 3.29534 8.91936 3.1139C9.09367 2.93245 9.30285 2.78809 9.53433 2.68948C9.76581 2.59087 10.0148 2.54004 10.2664 2.54004C10.518 2.54004 10.7671 2.59087 10.9985 2.68948C11.23 2.78809 11.4392 2.93245 11.6135 3.1139C11.7878 3.29534 11.9237 3.51013 12.0129 3.74538C12.1022 3.98062 12.143 4.23148 12.1329 4.48288V7.24288C12.1412 7.74647 11.9492 8.23275 11.5991 8.59484C11.2491 8.95693 10.7705 9.1652 10.2669 9.17388Z" fill="white"/>
<path d="M10.267 9.72601C9.61965 9.71391 9.00351 9.44565 8.55363 8.98002C8.10375 8.51439 7.85683 7.88939 7.867 7.24201V4.48301C7.867 3.84649 8.11986 3.23604 8.56995 2.78595C9.02003 2.33586 9.63048 2.08301 10.267 2.08301C10.9035 2.08301 11.514 2.33586 11.9641 2.78595C12.4141 3.23604 12.667 3.84649 12.667 4.48301V7.24201C12.6769 7.88922 12.4299 8.51396 11.98 8.97937C11.5302 9.44478 10.9142 9.71391 10.267 9.72601ZM10.267 3.10301C9.90743 3.10984 9.56523 3.25893 9.31538 3.51759C9.06552 3.77626 8.92838 4.12342 8.934 4.48301V7.24201C8.92912 7.4202 8.96 7.59756 9.02482 7.76361C9.08964 7.92967 9.18709 8.08105 9.3114 8.20881C9.43571 8.33657 9.58436 8.43812 9.74858 8.50746C9.9128 8.5768 10.0892 8.61253 10.2675 8.61253C10.4458 8.61253 10.6222 8.5768 10.7864 8.50746C10.9506 8.43812 11.0993 8.33657 11.2236 8.20881C11.3479 8.08105 11.4454 7.92967 11.5102 7.76361C11.575 7.59756 11.6059 7.4202 11.601 7.24201V4.48301C11.6074 4.12273 11.4705 3.77465 11.2203 3.51531C10.9702 3.25596 10.6273 3.10658 10.267 3.10001" fill="#111111"/>
<path d="M25.7342 9.17388C25.2306 9.1652 24.7511 8.95693 24.401 8.59484C24.0509 8.23275 23.8589 7.74647 23.8672 7.24288V4.48288C23.8571 4.23148 23.898 3.98062 23.9872 3.74538C24.0765 3.51013 24.2123 3.29534 24.3866 3.1139C24.561 2.93245 24.7701 2.78809 25.0016 2.68948C25.2331 2.59087 25.4821 2.54004 25.7337 2.54004C25.9853 2.54004 26.2343 2.59087 26.4658 2.68948C26.6973 2.78809 26.9065 2.93245 27.0808 3.1139C27.2551 3.29534 27.391 3.51013 27.4802 3.74538C27.5695 3.98062 27.6103 4.23148 27.6002 4.48288V7.24288C27.6085 7.74647 27.4165 8.23275 27.0664 8.59484C26.7163 8.95693 26.2378 9.1652 25.7342 9.17388Z" fill="white"/>
<path d="M25.7333 9.72601C25.086 9.71391 24.4698 9.44565 24.0199 8.98002C23.5701 8.51439 23.3231 7.88939 23.3333 7.24201V4.48301C23.3333 3.84649 23.5862 3.23604 24.0363 2.78595C24.4863 2.33586 25.0968 2.08301 25.7333 2.08301C26.3698 2.08301 26.9803 2.33586 27.4304 2.78595C27.8805 3.23604 28.1333 3.84649 28.1333 4.48301V7.24201C28.1432 7.88922 27.8962 8.51396 27.4463 8.97937C26.9965 9.44478 26.3805 9.71391 25.7333 9.72601ZM25.7333 3.10301C25.3737 3.10984 25.0315 3.25893 24.7817 3.51759C24.5318 3.77626 24.3947 4.12342 24.4003 4.48301V7.24201C24.3954 7.4202 24.4263 7.59756 24.4911 7.76361C24.556 7.92967 24.6534 8.08105 24.7777 8.20881C24.902 8.33657 25.0507 8.43812 25.2149 8.50746C25.3791 8.5768 25.5556 8.61253 25.7338 8.61253C25.9121 8.61253 26.0885 8.5768 26.2527 8.50746C26.4169 8.43812 26.5656 8.33657 26.6899 8.20881C26.8142 8.08105 26.9117 7.92967 26.9765 7.76361C27.0413 7.59756 27.0722 7.4202 27.0673 7.24201V4.48301C27.0737 4.12273 26.9368 3.77465 26.6867 3.51531C26.4365 3.25596 26.0936 3.10658 25.7333 3.10001" fill="#111111"/>
<path d="M7.23892 22.5789H8.07492C8.22851 22.5935 8.38344 22.5742 8.52876 22.5224C8.67408 22.4706 8.80624 22.3874 8.91592 22.2789C9.10164 22.0372 9.19331 21.7362 9.17392 21.4319C9.19304 21.1292 9.09371 20.8308 8.89692 20.5999C8.78885 20.4966 8.6603 20.417 8.51958 20.3663C8.37886 20.3157 8.22909 20.2951 8.07992 20.3059C7.78569 20.2938 7.49843 20.3975 7.27992 20.5949C7.17719 20.6923 7.09647 20.8104 7.04317 20.9415C6.98988 21.0726 6.96524 21.2135 6.97092 21.3549H5.81392L5.80392 21.3249C5.7894 21.0543 5.83742 20.784 5.94425 20.535C6.05108 20.286 6.21384 20.0649 6.41992 19.8889C6.87402 19.4924 7.46245 19.2842 8.06492 19.3069C8.67485 19.2756 9.27456 19.4728 9.74692 19.8599C9.96106 20.0594 10.1284 20.3038 10.237 20.5756C10.3456 20.8474 10.3927 21.1398 10.3749 21.4319C10.3719 21.76 10.2739 22.0803 10.0929 22.3539C9.89826 22.6564 9.6205 22.8963 9.29292 23.0449C9.66179 23.1649 9.97907 23.4063 10.1929 23.7299C10.3883 24.0449 10.489 24.4094 10.4829 24.7799C10.4979 25.0821 10.4445 25.3838 10.3268 25.6626C10.209 25.9413 10.03 26.1899 9.80292 26.3899C9.31522 26.7929 8.69607 27.0019 8.06392 26.9769C7.45625 26.9965 6.8611 26.8014 6.38292 26.4259C6.15908 26.2439 5.98293 26.0101 5.86968 25.7448C5.75643 25.4794 5.70949 25.1905 5.73292 24.9029L5.74292 24.8719H6.90192C6.89603 25.0205 6.92168 25.1686 6.97718 25.3064C7.03268 25.4443 7.11678 25.5689 7.22392 25.6719C7.45709 25.8832 7.76463 25.9933 8.07892 25.9779C8.23903 25.9868 8.3993 25.9639 8.55051 25.9105C8.70171 25.8571 8.84086 25.7743 8.95992 25.6669C9.0716 25.5497 9.15785 25.4107 9.21326 25.2586C9.26867 25.1065 9.29205 24.9445 9.28192 24.7829C9.3099 24.4468 9.20386 24.1132 8.98692 23.8549C8.86263 23.7463 8.71775 23.6637 8.56091 23.6122C8.40406 23.5606 8.23844 23.5412 8.07392 23.5549H7.23892V22.5789Z" fill="#111111"/>
<path d="M16.0553 23.9979C16.1094 24.7882 15.8851 25.5726 15.4213 26.2149C15.2024 26.4552 14.9358 26.6472 14.6385 26.7786C14.3412 26.9099 14.0198 26.9778 13.6948 26.9778C13.3697 26.9778 13.0483 26.9099 12.751 26.7786C12.4537 26.6472 12.1871 26.4552 11.9683 26.2149C11.5016 25.5738 11.2757 24.7889 11.3303 23.9979V22.2979C11.2766 21.5077 11.5005 20.7236 11.9633 20.0809C12.1813 19.839 12.4476 19.6456 12.7451 19.5133C13.0426 19.3809 13.3646 19.3125 13.6903 19.3125C14.0159 19.3125 14.3379 19.3809 14.6354 19.5133C14.9329 19.6456 15.1992 19.839 15.4173 20.0809C15.8827 20.7225 16.1085 21.507 16.0553 22.2979V23.9979ZM14.8553 22.0979C14.8877 21.6264 14.7835 21.1556 14.5553 20.7419C14.4559 20.6057 14.3259 20.4949 14.1757 20.4186C14.0254 20.3422 13.8593 20.3024 13.6908 20.3024C13.5222 20.3024 13.3561 20.3422 13.2059 20.4186C13.0556 20.4949 12.9256 20.6057 12.8263 20.7419C12.6006 21.1565 12.4982 21.627 12.5313 22.0979V24.1689C12.4978 24.6429 12.602 25.1166 12.8313 25.5329C12.9251 25.6755 13.0545 25.7913 13.2067 25.8688C13.3589 25.9463 13.5287 25.9829 13.6993 25.9749C13.8687 25.9836 14.0374 25.9477 14.1885 25.8706C14.3397 25.7936 14.4679 25.6781 14.5603 25.5359C14.7846 25.1172 14.8858 24.6436 14.8523 24.1699L14.8553 22.0979Z" fill="#111111"/>
<path d="M21.163 23.5187C20.0194 23.7233 18.8587 23.8178 17.697 23.8007H17.082V19.4507H17.988V23.0287C19.0231 23.0292 20.0562 22.9375 21.075 22.7547L21.163 23.5187ZM23.415 26.1867V26.9507H18.058V24.4207H18.964V26.1867H23.415ZM22.307 22.1867H20.195V21.4397H22.305V20.6297H20.195V19.8867H22.305V18.8867H23.211V24.9567H22.305L22.307 22.1867Z" fill="#111111"/>
<path d="M27.8631 27.5748C27.7192 27.5721 27.5823 27.5125 27.4824 27.409C27.3825 27.3055 27.3277 27.1666 27.3301 27.0228V20.4048C27.327 20.3328 27.3385 20.2609 27.3639 20.1934C27.3893 20.126 27.4281 20.0644 27.4779 20.0123C27.5278 19.9603 27.5876 19.9188 27.6539 19.8905C27.7202 19.8622 27.7915 19.8477 27.8636 19.8477C27.9357 19.8477 28.007 19.8622 28.0733 19.8905C28.1396 19.9188 28.1994 19.9603 28.2493 20.0123C28.2991 20.0644 28.3379 20.126 28.3633 20.1934C28.3887 20.2609 28.4002 20.3328 28.3971 20.4048V27.0268C28.3995 27.1706 28.3447 27.3095 28.2448 27.413C28.1449 27.5165 28.0079 27.5761 27.8641 27.5788" fill="#111111"/>
<path d="M25.769 22.273C25.6992 22.2728 25.6302 22.2586 25.566 22.2313C25.5017 22.204 25.4436 22.1641 25.395 22.114C25.2941 22.0096 25.2373 21.8703 25.2363 21.725C25.2354 21.5798 25.2904 21.4397 25.39 21.334L27.49 19.127C27.5385 19.0759 27.5968 19.035 27.6614 19.0068C27.726 18.9787 27.7956 18.9638 27.866 18.963C27.9368 18.9615 28.0071 18.9748 28.0724 19.0022C28.1377 19.0296 28.1965 19.0704 28.245 19.122L30.409 21.326C30.51 21.4305 30.5668 21.5698 30.5677 21.715C30.5687 21.8603 30.5136 22.0003 30.414 22.106C30.3658 22.1574 30.3076 22.1985 30.243 22.2267C30.1785 22.255 30.1088 22.2699 30.0383 22.2704C29.9678 22.271 29.898 22.2572 29.8329 22.23C29.7679 22.2028 29.7091 22.1626 29.66 22.112L27.875 20.292L26.147 22.106C26.0982 22.1578 26.0393 22.199 25.9739 22.2272C25.9086 22.2554 25.8382 22.27 25.767 22.27" fill="#111111"/>
</svg>
