<svg width="36" height="36" viewBox="0 0 36 36" fill="none" xmlns="http://www.w3.org/2000/svg">
<path d="M30.2662 33.0588H5.73317C4.86985 33.0439 4.0478 32.6867 3.44775 32.0658C2.84769 31.4449 2.51873 30.6112 2.53317 29.7478V12.9648H33.4662V29.7478C33.4806 30.6112 33.1517 31.4449 32.5516 32.0658C31.9515 32.6867 31.1295 33.0439 30.2662 33.0588Z" fill="white"/>
<path d="M30.2671 33.6111H5.73313C5.234 33.6024 4.74148 33.4954 4.2837 33.2962C3.82593 33.0971 3.41188 32.8097 3.06521 32.4505C2.71854 32.0913 2.44605 31.6673 2.2633 31.2028C2.08055 30.7382 1.99112 30.2422 2.00013 29.7431V12.4131H34.0001V29.7431C34.017 30.7503 33.6332 31.7229 32.9333 32.4473C32.2333 33.1717 31.2743 33.5885 30.2671 33.6061M3.06713 13.5171V29.7431C3.05589 30.4623 3.33034 31.1567 3.8303 31.6739C4.33025 32.1911 5.01491 32.4889 5.73413 32.5021H30.2671C30.9862 32.4887 31.6706 32.1907 32.1703 31.6736C32.6701 31.1564 32.9444 30.4622 32.9331 29.7431V13.5171H3.06713Z" fill="#111111"/>
<path d="M5.73317 5.23926H30.2662C31.1295 5.25425 31.9515 5.61144 32.5516 6.23231C33.1517 6.85318 33.4806 7.68692 33.4662 8.55026V12.9693H2.53317V8.55026C2.51873 7.68692 2.84769 6.85318 3.44775 6.23231C4.0478 5.61144 4.86985 5.25425 5.73317 5.23926Z" fill="#B9B5EF"/>
<path d="M34 13.5165H2.00004V8.54952C1.98319 7.54234 2.36693 6.56968 3.06692 5.84531C3.76691 5.12094 4.72588 4.70414 5.73304 4.68652H30.267C31.2742 4.70414 32.2332 5.12094 32.9332 5.84531C33.6332 6.56968 34.0169 7.54234 34 8.54952V13.5165ZM3.06704 12.4165H32.933V8.54952C32.9443 7.83027 32.6698 7.13591 32.1699 6.61871C31.6699 6.1015 30.9853 5.80367 30.266 5.79052H5.73304C5.014 5.80394 4.3296 6.10188 3.82986 6.61905C3.33011 7.13623 3.0558 7.83044 3.06704 8.54952V12.4165Z" fill="#111111"/>
<path d="M10.2669 9.17388C9.76335 9.1652 9.28382 8.95693 8.93373 8.59484C8.58364 8.23275 8.39165 7.74647 8.39994 7.24288V4.48288C8.38986 4.23148 8.43067 3.98062 8.51993 3.74538C8.60918 3.51013 8.74505 3.29534 8.91936 3.1139C9.09367 2.93245 9.30285 2.78809 9.53433 2.68948C9.76581 2.59087 10.0148 2.54004 10.2664 2.54004C10.518 2.54004 10.7671 2.59087 10.9985 2.68948C11.23 2.78809 11.4392 2.93245 11.6135 3.1139C11.7878 3.29534 11.9237 3.51013 12.0129 3.74538C12.1022 3.98062 12.143 4.23148 12.1329 4.48288V7.24288C12.1412 7.74647 11.9492 8.23275 11.5991 8.59484C11.2491 8.95693 10.7705 9.1652 10.2669 9.17388Z" fill="white"/>
<path d="M10.267 9.72601C9.61965 9.71391 9.00351 9.44565 8.55363 8.98002C8.10375 8.51439 7.85683 7.88939 7.867 7.24201V4.48301C7.867 3.84649 8.11986 3.23604 8.56995 2.78595C9.02003 2.33586 9.63048 2.08301 10.267 2.08301C10.9035 2.08301 11.514 2.33586 11.9641 2.78595C12.4141 3.23604 12.667 3.84649 12.667 4.48301V7.24201C12.6769 7.88922 12.4299 8.51396 11.98 8.97937C11.5302 9.44478 10.9142 9.71391 10.267 9.72601ZM10.267 3.10301C9.90743 3.10984 9.56523 3.25893 9.31538 3.51759C9.06552 3.77626 8.92838 4.12342 8.934 4.48301V7.24201C8.92912 7.4202 8.96 7.59756 9.02482 7.76361C9.08964 7.92967 9.18709 8.08105 9.3114 8.20881C9.43571 8.33657 9.58436 8.43812 9.74858 8.50746C9.9128 8.5768 10.0892 8.61253 10.2675 8.61253C10.4458 8.61253 10.6222 8.5768 10.7864 8.50746C10.9506 8.43812 11.0993 8.33657 11.2236 8.20881C11.3479 8.08105 11.4454 7.92967 11.5102 7.76361C11.575 7.59756 11.6059 7.4202 11.601 7.24201V4.48301C11.6074 4.12273 11.4705 3.77465 11.2203 3.51531C10.9702 3.25596 10.6273 3.10658 10.267 3.10001" fill="#111111"/>
<path d="M25.7342 9.17388C25.2306 9.1652 24.7511 8.95693 24.401 8.59484C24.0509 8.23275 23.8589 7.74647 23.8672 7.24288V4.48288C23.8571 4.23148 23.898 3.98062 23.9872 3.74538C24.0765 3.51013 24.2123 3.29534 24.3866 3.1139C24.561 2.93245 24.7701 2.78809 25.0016 2.68948C25.2331 2.59087 25.4821 2.54004 25.7337 2.54004C25.9853 2.54004 26.2343 2.59087 26.4658 2.68948C26.6973 2.78809 26.9065 2.93245 27.0808 3.1139C27.2551 3.29534 27.391 3.51013 27.4802 3.74538C27.5695 3.98062 27.6103 4.23148 27.6002 4.48288V7.24288C27.6085 7.74647 27.4165 8.23275 27.0664 8.59484C26.7163 8.95693 26.2378 9.1652 25.7342 9.17388Z" fill="white"/>
<path d="M25.7333 9.72601C25.086 9.71391 24.4698 9.44565 24.0199 8.98002C23.5701 8.51439 23.3231 7.88939 23.3333 7.24201V4.48301C23.3333 3.84649 23.5862 3.23604 24.0363 2.78595C24.4863 2.33586 25.0968 2.08301 25.7333 2.08301C26.3698 2.08301 26.9803 2.33586 27.4304 2.78595C27.8805 3.23604 28.1333 3.84649 28.1333 4.48301V7.24201C28.1432 7.88922 27.8962 8.51396 27.4463 8.97937C26.9965 9.44478 26.3805 9.71391 25.7333 9.72601ZM25.7333 3.10301C25.3737 3.10984 25.0315 3.25893 24.7817 3.51759C24.5318 3.77626 24.3947 4.12342 24.4003 4.48301V7.24201C24.3954 7.4202 24.4263 7.59756 24.4911 7.76361C24.556 7.92967 24.6534 8.08105 24.7777 8.20881C24.902 8.33657 25.0507 8.43812 25.2149 8.50746C25.3791 8.5768 25.5556 8.61253 25.7338 8.61253C25.9121 8.61253 26.0885 8.5768 26.2527 8.50746C26.4169 8.43812 26.5656 8.33657 26.6899 8.20881C26.8142 8.08105 26.9117 7.92967 26.9765 7.76361C27.0413 7.59756 27.0722 7.4202 27.0673 7.24201V4.48301C27.0737 4.12273 26.9368 3.77465 26.6867 3.51531C26.4365 3.25596 26.0936 3.10658 25.7333 3.10001" fill="#111111"/>
<path d="M10.32 22.578H11.156C11.3096 22.5926 11.4645 22.5734 11.6099 22.5215C11.7552 22.4697 11.8874 22.3865 11.997 22.278C12.1821 22.0359 12.2734 21.7351 12.254 21.431C12.273 21.1282 12.1737 20.8299 11.977 20.599C11.8689 20.4956 11.7404 20.416 11.5997 20.3654C11.4589 20.3147 11.3092 20.2942 11.16 20.305C10.8656 20.2931 10.5783 20.3972 10.36 20.595C10.2573 20.6923 10.1765 20.8104 10.1232 20.9415C10.0699 21.0726 10.0453 21.2136 10.051 21.355H8.89499L8.88499 21.325C8.87039 21.0542 8.91837 20.7838 9.0252 20.5345C9.13203 20.2853 9.29484 20.0641 9.50099 19.888C9.95535 19.4919 10.5437 19.2841 11.146 19.307C11.7563 19.2755 12.3563 19.4727 12.829 19.86C13.0432 20.0594 13.2106 20.3038 13.3192 20.5756C13.4277 20.8474 13.4748 21.1398 13.457 21.432C13.4539 21.7601 13.356 22.0803 13.175 22.354C12.9807 22.657 12.7029 22.8974 12.375 23.046C12.7439 23.1658 13.0612 23.4073 13.275 23.731C13.4704 24.0459 13.571 24.4104 13.565 24.781C13.5798 25.0832 13.5263 25.3848 13.4086 25.6635C13.2909 25.9422 13.1119 26.1909 12.885 26.391C12.3968 26.7938 11.7774 27.0028 11.145 26.978C10.5377 26.9971 9.94299 26.8021 9.46499 26.427C9.24109 26.245 9.06488 26.0112 8.95163 25.7459C8.83837 25.4805 8.79148 25.1915 8.81499 24.904L8.82499 24.873H9.98299C9.97735 25.0215 10.0031 25.1695 10.0586 25.3073C10.1141 25.4452 10.1981 25.5698 10.305 25.673C10.5387 25.884 10.8465 25.9936 11.161 25.978C11.3211 25.987 11.4814 25.9642 11.6327 25.9108C11.7839 25.8574 11.923 25.7745 12.042 25.667C12.1536 25.5497 12.2398 25.4107 12.2952 25.2586C12.3507 25.1065 12.3741 24.9445 12.364 24.783C12.3919 24.4471 12.2859 24.1139 12.069 23.856C11.9447 23.7473 11.7998 23.6647 11.643 23.6132C11.4861 23.5617 11.3205 23.5422 11.156 23.556H10.32V22.578Z" fill="#111111"/>
<path d="M18.7372 23.5187C17.5936 23.7234 16.4329 23.8178 15.2712 23.8007H14.6562V19.4507H15.5623V23.0287C16.5973 23.0292 17.6304 22.9375 18.6493 22.7547L18.7372 23.5187ZM20.9893 26.1867V26.9507H15.6273V24.4207H16.5333V26.1867H20.9893ZM19.8813 22.1867H17.7692V21.4397H19.8802V20.6297H17.7692V19.8867H19.8802V18.8867H20.7862V24.9567H19.8802L19.8813 22.1867Z" fill="#111111"/>
<path d="M25.4764 26.6872C25.3325 26.6845 25.1956 26.6249 25.0957 26.5214C24.9957 26.4179 24.941 26.279 24.9434 26.1352V19.5132C24.9403 19.4412 24.9517 19.3693 24.9771 19.3018C25.0026 19.2344 25.0413 19.1728 25.0912 19.1207C25.141 19.0687 25.2009 19.0272 25.2672 18.9989C25.3335 18.9706 25.4048 18.9561 25.4769 18.9561C25.5489 18.9561 25.6203 18.9706 25.6865 18.9989C25.7528 19.0272 25.8127 19.0687 25.8625 19.1207C25.9124 19.1728 25.9512 19.2344 25.9766 19.3018C26.002 19.3693 26.0135 19.4412 26.0104 19.5132V26.1352C26.0128 26.279 25.958 26.4179 25.8581 26.5214C25.7581 26.6249 25.6202 26.6845 25.4764 26.6872Z" fill="#111111"/>
<path d="M25.4683 27.5751C25.3986 27.5748 25.3295 27.5606 25.2653 27.5333C25.2011 27.506 25.143 27.4661 25.0943 27.4161L22.9253 25.2081C22.8243 25.1038 22.7672 24.9645 22.7661 24.8193C22.765 24.6741 22.8199 24.534 22.9193 24.4281C22.9675 24.3764 23.0257 24.3351 23.0904 24.3067C23.1551 24.2782 23.2249 24.2633 23.2955 24.2627C23.3662 24.2622 23.4362 24.276 23.5013 24.3034C23.5665 24.3308 23.6253 24.3712 23.6743 24.4221L25.4593 26.2421L27.1863 24.4281C27.2346 24.3765 27.2928 24.3353 27.3575 24.307C27.4222 24.2786 27.4919 24.2637 27.5625 24.2632C27.6332 24.2626 27.7031 24.2764 27.7683 24.3037C27.8334 24.331 27.8923 24.3713 27.9413 24.4221C28.0423 24.5265 28.0991 24.6659 28.1 24.8111C28.101 24.9563 28.0459 25.0964 27.9463 25.2021L25.8463 27.4091C25.7979 27.4603 25.7396 27.5012 25.675 27.5293C25.6104 27.5575 25.5408 27.5724 25.4703 27.5731L25.4683 27.5751Z" fill="#111111"/>
</svg>
