<svg width="36" height="36" viewBox="0 0 36 36" fill="none" xmlns="http://www.w3.org/2000/svg">
<path d="M30.2662 33.0167H5.7332C4.88451 33.0167 4.07058 32.6795 3.47046 32.0794C2.87034 31.4793 2.5332 30.6654 2.5332 29.8167V13.5967H33.4662V29.8167C33.4662 30.6654 33.1291 31.4793 32.5289 32.0794C31.9288 32.6795 31.1149 33.0167 30.2662 33.0167Z" fill="white"/>
<path d="M30.267 33.5505H5.733C4.74335 33.5492 3.79462 33.1554 3.09483 32.4556C2.39504 31.7559 2.00132 30.8071 2 29.8175V13.0635H34V29.8175C33.9987 30.8071 33.605 31.7559 32.9052 32.4556C32.2054 33.1554 31.2566 33.5492 30.267 33.5505ZM3.067 14.1305V29.8175C3.06779 30.5246 3.34904 31.2025 3.84902 31.7025C4.34901 32.2024 5.02691 32.4837 5.734 32.4845H30.267C30.9741 32.4837 31.652 32.2024 32.152 31.7025C32.652 31.2025 32.9332 30.5246 32.934 29.8175V14.1305H3.067Z" fill="#111111"/>
<path d="M5.7332 6.12988H30.2662C31.1149 6.12988 31.9288 6.46702 32.5289 7.06714C33.1291 7.66726 33.4662 8.48119 33.4662 9.32988V13.5969H2.5332V9.32988C2.5332 8.48119 2.87034 7.66726 3.47046 7.06714C4.07058 6.46702 4.88451 6.12988 5.7332 6.12988Z" fill="#B9B5EF"/>
<path d="M34 14.1277H2V9.32768C2.00185 8.33838 2.39581 7.39016 3.09554 6.6908C3.79527 5.99145 4.7437 5.598 5.733 5.59668H30.267C31.2563 5.598 32.2047 5.99145 32.9045 6.6908C33.6042 7.39016 33.9981 8.33838 34 9.32768V14.1277ZM3.067 13.0637H32.933V9.32768C32.9322 8.62059 32.651 7.94269 32.151 7.4427C31.651 6.94272 30.9731 6.66147 30.266 6.66068H5.733C5.02608 6.66174 4.34844 6.9431 3.84867 7.44306C3.3489 7.94301 3.06779 8.62076 3.067 9.32768V13.0637Z" fill="#111111"/>
<path d="M10.471 9.93344C9.97586 9.93344 9.50098 9.73674 9.15085 9.38661C8.80072 9.03648 8.60402 8.5616 8.60402 8.06644V5.40044C8.59826 5.15169 8.64228 4.9043 8.73349 4.67281C8.8247 4.44132 8.96127 4.23039 9.13516 4.05243C9.30905 3.87447 9.51676 3.73306 9.74608 3.63651C9.9754 3.53997 10.2217 3.49023 10.4705 3.49023C10.7193 3.49023 10.9656 3.53997 11.195 3.63651C11.4243 3.73306 11.632 3.87447 11.8059 4.05243C11.9798 4.23039 12.1163 4.44132 12.2075 4.67281C12.2988 4.9043 12.3428 5.15169 12.337 5.40044V8.06644C12.337 8.56143 12.1405 9.03615 11.7905 9.38626C11.4406 9.73636 10.966 9.93318 10.471 9.93344Z" fill="white"/>
<path d="M10.4698 10.467C10.1547 10.467 9.84257 10.4049 9.55138 10.2843C9.2602 10.1637 8.99563 9.98692 8.77277 9.76406C8.54991 9.5412 8.37312 9.27662 8.25251 8.98544C8.1319 8.69426 8.06982 8.38217 8.06982 8.067V5.4C8.06982 4.76348 8.32268 4.15303 8.77277 3.70294C9.22286 3.25286 9.8333 3 10.4698 3C11.1063 3 11.7168 3.25286 12.1669 3.70294C12.617 4.15303 12.8698 4.76348 12.8698 5.4V8.067C12.8698 8.70352 12.617 9.31397 12.1669 9.76406C11.7168 10.2141 11.1063 10.467 10.4698 10.467ZM10.4698 4.067C10.1165 4.06753 9.77771 4.20814 9.52783 4.45801C9.27796 4.70788 9.13735 5.04663 9.13682 5.4V8.067C9.13682 8.42067 9.27732 8.75985 9.5274 9.00993C9.77748 9.26001 10.1167 9.4005 10.4703 9.4005C10.824 9.4005 11.1632 9.26001 11.4133 9.00993C11.6633 8.75985 11.8038 8.42067 11.8038 8.067V5.4C11.8033 5.04663 11.6627 4.70788 11.4128 4.45801C11.1629 4.20814 10.8242 4.06753 10.4708 4.067" fill="#111111"/>
<path d="M25.9368 9.93344C25.4417 9.93344 24.9668 9.73674 24.6167 9.38661C24.2665 9.03648 24.0698 8.5616 24.0698 8.06644V5.40044C24.0641 5.15169 24.1081 4.9043 24.1993 4.67281C24.2905 4.44132 24.4271 4.23039 24.601 4.05243C24.7749 3.87447 24.9826 3.73306 25.2119 3.63651C25.4412 3.53997 25.6875 3.49023 25.9363 3.49023C26.1852 3.49023 26.4315 3.53997 26.6608 3.63651C26.8901 3.73306 27.0978 3.87447 27.2717 4.05243C27.4456 4.23039 27.5821 4.44132 27.6734 4.67281C27.7646 4.9043 27.8086 5.15169 27.8028 5.40044V8.06644C27.8028 8.56143 27.6063 9.03615 27.2564 9.38626C26.9064 9.73636 26.4318 9.93318 25.9368 9.93344Z" fill="white"/>
<path d="M25.9371 10.467C25.3006 10.467 24.6901 10.2141 24.2401 9.76406C23.79 9.31397 23.5371 8.70352 23.5371 8.067V5.4C23.5371 4.76348 23.79 4.15303 24.2401 3.70294C24.6901 3.25286 25.3006 3 25.9371 3C26.5736 3 27.1841 3.25286 27.6342 3.70294C28.0843 4.15303 28.3371 4.76348 28.3371 5.4V8.067C28.3371 8.70352 28.0843 9.31397 27.6342 9.76406C27.1841 10.2141 26.5736 10.467 25.9371 10.467ZM25.9371 4.067C25.5837 4.06753 25.245 4.20814 24.9951 4.45801C24.7452 4.70788 24.6046 5.04663 24.6041 5.4V8.067C24.6041 8.42067 24.7446 8.75985 24.9947 9.00993C25.2448 9.26001 25.5839 9.4005 25.9376 9.4005C26.2913 9.4005 26.6305 9.26001 26.8805 9.00993C27.1306 8.75985 27.2711 8.42067 27.2711 8.067V5.4C27.2706 5.04663 27.13 4.70788 26.8801 4.45801C26.6302 4.20814 26.2905 4.06753 25.9371 4.067Z" fill="#111111"/>
<path d="M9.06593 27.0351H7.86593V20.9731H6.39893V20.0881L9.06593 19.8301V27.0351Z" fill="#111111"/>
<path d="M16.257 24.2639C16.3099 25.0309 16.0848 25.7912 15.623 26.4059C15.3999 26.639 15.1319 26.8245 14.8352 26.9512C14.5385 27.0779 14.2192 27.1432 13.8965 27.1432C13.5739 27.1432 13.2546 27.0779 12.9578 26.9512C12.6611 26.8245 12.3931 26.639 12.17 26.4059C11.7055 25.7924 11.4789 25.0315 11.532 24.2639V22.6119C11.48 21.8452 11.7046 21.0852 12.165 20.4699C12.3874 20.2354 12.6552 20.0486 12.9521 19.921C13.249 19.7934 13.5688 19.7275 13.892 19.7275C14.2152 19.7275 14.535 19.7934 14.8319 19.921C15.1288 20.0486 15.3966 20.2354 15.619 20.4699C16.0822 21.084 16.3087 21.8444 16.257 22.6119V24.2639ZM15.057 22.4319C15.0889 21.9752 14.9845 21.5192 14.757 21.1219C14.655 20.9897 14.524 20.8827 14.3741 20.809C14.2243 20.7354 14.0595 20.6971 13.8925 20.6971C13.7255 20.6971 13.5608 20.7354 13.4109 20.809C13.261 20.8827 13.13 20.9897 13.028 21.1219C12.8031 21.5201 12.7005 21.9757 12.733 22.4319V24.4319C12.7 24.8913 12.8045 25.3501 13.033 25.7499C13.1294 25.8891 13.2597 26.0014 13.4116 26.0761C13.5635 26.1508 13.732 26.1855 13.901 26.1769C14.069 26.1862 14.2365 26.1519 14.3873 26.0775C14.5382 26.003 14.6672 25.8909 14.762 25.7519C14.9859 25.3494 15.0873 24.8903 15.054 24.4309L15.057 22.4319Z" fill="#111111"/>
<path d="M21.3662 23.7973C20.2218 23.9953 19.0614 24.0867 17.9002 24.0703H17.2852V19.8703H18.1912V23.3213C19.2258 23.3218 20.2586 23.2335 21.2782 23.0573L21.3662 23.7973ZM23.6182 26.3753V27.1143H18.2612V24.6683H19.1672V26.3753H23.6182ZM22.5102 22.5133H20.3982V21.7923H22.5092V21.0093H20.3982V20.2873H22.5092V19.3213H23.4152V25.1893H22.5092L22.5102 22.5133Z" fill="#111111"/>
<path d="M28.1438 26.8571C28.0025 26.8571 27.8669 26.801 27.767 26.701C27.667 26.6011 27.6108 26.4655 27.6108 26.3241V19.9241C27.6108 19.7826 27.667 19.6469 27.7671 19.5469C27.8671 19.4468 28.0028 19.3906 28.1443 19.3906C28.2858 19.3906 28.4215 19.4468 28.5216 19.5469C28.6216 19.6469 28.6778 19.7826 28.6778 19.9241V26.3241C28.6778 26.4655 28.6217 26.6011 28.5217 26.701C28.4218 26.801 28.2852 26.8571 28.1438 26.8571Z" fill="#111111"/>
<path d="M28.1371 27.7163C27.9971 27.716 27.8628 27.6607 27.7631 27.5623L25.5991 25.4293C25.5493 25.3801 25.5096 25.3216 25.4824 25.2571C25.4552 25.1926 25.4409 25.1234 25.4404 25.0534C25.44 24.9833 25.4533 24.9139 25.4797 24.8491C25.506 24.7842 25.5449 24.7252 25.5941 24.6753C25.6433 24.6255 25.7018 24.5858 25.7663 24.5586C25.8308 24.5314 25.9001 24.5171 25.9701 24.5167C26.0401 24.5162 26.1095 24.5295 26.1744 24.5559C26.2392 24.5823 26.2983 24.6211 26.3481 24.6703L28.1331 26.4293L29.8591 24.6733C29.9083 24.6235 29.9668 24.5838 30.0313 24.5566C30.0958 24.5294 30.1651 24.5151 30.2351 24.5147C30.3051 24.5142 30.3745 24.5275 30.4394 24.5539C30.5042 24.5803 30.5633 24.6191 30.6131 24.6683C30.6629 24.7175 30.7026 24.776 30.7298 24.8405C30.757 24.905 30.7713 24.9743 30.7718 25.0443C30.7722 25.1143 30.7589 25.1837 30.7325 25.2486C30.7062 25.3134 30.6673 25.3725 30.6181 25.4223L28.5181 27.5553C28.469 27.6052 28.4104 27.645 28.3459 27.6722C28.2814 27.6995 28.2121 27.7138 28.1421 27.7143L28.1371 27.7163Z" fill="#111111"/>
</svg>
