<svg width="36" height="36" viewBox="0 0 36 36" fill="none" xmlns="http://www.w3.org/2000/svg">
<path d="M32.9701 26.0344L21.2511 5.42641C20.9243 4.85263 20.4515 4.37559 19.8807 4.04375C19.3099 3.71191 18.6614 3.53711 18.0011 3.53711C17.3408 3.53711 16.6923 3.71191 16.1214 4.04375C15.5506 4.37559 15.0778 4.85263 14.7511 5.42641L3.03307 26.0344C2.70959 26.6034 2.54103 27.2472 2.54423 27.9017C2.54744 28.5562 2.72229 29.1984 3.05132 29.7641C3.38035 30.3299 3.85206 30.7995 4.41933 31.1259C4.9866 31.4523 5.62958 31.6242 6.28407 31.6244H29.7181C30.3726 31.6244 31.0158 31.4526 31.5832 31.1263C32.1506 30.7999 32.6224 30.3304 32.9516 29.7646C33.2807 29.1988 33.4557 28.5565 33.4589 27.902C33.4622 27.2474 33.2936 26.6034 32.9701 26.0344Z" fill="white"/>
<path d="M29.718 32.1554H6.28101C5.53286 32.1554 4.7978 31.9591 4.14928 31.5861C3.50076 31.2131 2.96148 30.6764 2.58534 30.0297C2.20919 29.383 2.00935 28.6489 2.00579 27.9007C2.00222 27.1526 2.19505 26.4166 2.56501 25.7664L14.284 5.16636C14.6573 4.50999 15.1978 3.96422 15.8506 3.58455C16.5033 3.20489 17.2449 3.00488 18 3.00488C18.7551 3.00488 19.4967 3.20489 20.1495 3.58455C20.8022 3.96422 21.3427 4.50999 21.716 5.16636L33.435 25.7664C33.805 26.4166 33.9978 27.1526 33.9942 27.9007C33.9907 28.6489 33.7908 29.383 33.4147 30.0297C33.0385 30.6764 32.4993 31.2131 31.8507 31.5861C31.2022 31.9591 30.4662 32.1554 29.718 32.1554ZM18 4.06936C17.433 4.06578 16.8754 4.21427 16.3852 4.49936C15.895 4.78445 15.4903 5.19573 15.213 5.69036L3.49401 26.2954C3.21672 26.7831 3.07223 27.3351 3.07499 27.8961C3.07775 28.4572 3.22765 29.0077 3.50972 29.4927C3.79179 29.9777 4.19616 30.3802 4.68246 30.66C5.16875 30.9398 5.71995 31.0872 6.28101 31.0874H29.718C30.2791 31.0872 30.8303 30.9398 31.3166 30.66C31.8029 30.3802 32.2072 29.9777 32.4893 29.4927C32.7714 29.0077 32.9213 28.4572 32.924 27.8961C32.9268 27.3351 32.7823 26.7831 32.505 26.2954L20.787 5.68936C20.5096 5.19491 20.1048 4.78384 19.6146 4.49893C19.1245 4.21402 18.5669 4.06568 18 4.06936Z" fill="#111111"/>
<path d="M30.879 26.5588L19.858 7.17984C19.6713 6.85178 19.401 6.57903 19.0746 6.38929C18.7483 6.19956 18.3775 6.09961 18 6.09961C17.6225 6.09961 17.2518 6.19956 16.9254 6.38929C16.5991 6.57903 16.3288 6.85178 16.142 7.17984L5.12102 26.5588C4.936 26.8839 4.83956 27.2519 4.84133 27.626C4.8431 28 4.94303 28.367 5.13111 28.6904C5.3192 29.0137 5.58886 29.282 5.91314 29.4685C6.23742 29.6549 6.60496 29.753 6.97902 29.7528H29.021C29.3951 29.753 29.7626 29.6549 30.0869 29.4685C30.4112 29.282 30.6808 29.0137 30.8689 28.6904C31.057 28.367 31.1569 28 31.1587 27.626C31.1605 27.2519 31.064 26.8839 30.879 26.5588Z" fill="#B9B5EF"/>
<path d="M15.9013 16.5874C15.4433 16.1294 14.7008 16.1292 14.243 16.5871C13.7852 17.0449 13.7854 17.7873 14.2434 18.2453L20.5434 24.5454C21.0015 25.0034 21.7439 25.0036 22.2017 24.5458C22.6595 24.0879 22.6594 23.3455 22.2014 22.8875L15.9013 16.5874Z" fill="white"/>
<path d="M20.5445 16.5893L14.2435 22.8903C13.7854 23.3484 13.7853 24.0909 14.2431 24.5488C14.701 25.0067 15.4436 25.0065 15.9017 24.5485L22.2027 18.2474C22.6608 17.7893 22.6609 17.0468 22.203 16.5889C21.7452 16.131 21.0026 16.1312 20.5445 16.5893Z" fill="white"/>
</svg>
