<svg width="36" height="36" viewBox="0 0 36 36" fill="none" xmlns="http://www.w3.org/2000/svg">
<path d="M31.453 25.9024L20.307 6.30744C19.9964 5.76126 19.5467 5.3071 19.0036 4.99116C18.4605 4.67522 17.8433 4.50879 17.215 4.50879C16.5867 4.50879 15.9696 4.67522 15.4265 4.99116C14.8834 5.3071 14.4336 5.76126 14.123 6.30744L2.98002 25.9024C2.67218 26.4435 2.51172 27.0559 2.51469 27.6784C2.51766 28.3009 2.68394 28.9117 2.99692 29.4498C3.30991 29.9879 3.75863 30.4345 4.29826 30.7448C4.83788 31.0552 5.44951 31.2185 6.07202 31.2184H28.361C28.9835 31.2185 29.5952 31.0552 30.1348 30.7448C30.6744 30.4345 31.1231 29.9879 31.4361 29.4498C31.7491 28.9117 31.9154 28.3009 31.9184 27.6784C31.9213 27.0559 31.7609 26.4435 31.453 25.9024Z" fill="white"/>
<path d="M28.3614 31.7264H6.0724C5.36095 31.7263 4.66197 31.5396 4.04529 31.1848C3.42861 30.83 2.91581 30.3197 2.55811 29.7047C2.20041 29.0897 2.01034 28.3916 2.00688 27.6802C2.00342 26.9687 2.1867 26.2688 2.5384 25.6504L13.6834 6.05039C14.0383 5.42601 14.5523 4.9068 15.1731 4.54561C15.7938 4.18442 16.4992 3.99414 17.2174 3.99414C17.9356 3.99414 18.641 4.18442 19.2617 4.54561C19.8825 4.9068 20.3965 5.42601 20.7514 6.05039L31.8964 25.6504C32.2478 26.2688 32.4309 26.9686 32.4273 27.6799C32.4238 28.3912 32.2336 29.0891 31.876 29.7039C31.5183 30.3188 31.0056 30.829 30.3891 31.1837C29.7725 31.5384 29.0737 31.7252 28.3624 31.7254M17.2164 5.01539C16.6772 5.01205 16.1469 5.15334 15.6808 5.42454C15.2148 5.69574 14.8299 6.08694 14.5664 6.55739L3.4214 26.1534C3.15773 26.6171 3.02035 27.1419 3.02297 27.6754C3.0256 28.2088 3.16813 28.7323 3.43635 29.1934C3.70456 29.6545 4.08906 30.0372 4.55145 30.3032C5.01385 30.5692 5.53794 30.7093 6.0714 30.7094H28.3614C28.8949 30.7093 29.4189 30.5692 29.8813 30.3032C30.3437 30.0372 30.7282 29.6545 30.9964 29.1934C31.2647 28.7323 31.4072 28.2088 31.4098 27.6754C31.4124 27.1419 31.2751 26.6171 31.0114 26.1534L19.8664 6.55739C19.6029 6.08694 19.218 5.69574 18.752 5.42454C18.2859 5.15334 17.7556 5.01205 17.2164 5.01539Z" fill="#111111"/>
<path d="M29.4643 26.4039L18.9883 7.97586C18.8108 7.6638 18.5537 7.40432 18.2434 7.22382C17.933 7.04333 17.5804 6.94824 17.2213 6.94824C16.8623 6.94824 16.5097 7.04333 16.1993 7.22382C15.8889 7.40432 15.6319 7.6638 15.4543 7.97586L4.96834 26.4039C4.79273 26.713 4.7013 27.0629 4.70315 27.4185C4.70501 27.774 4.80009 28.1229 4.97891 28.4302C5.15773 28.7376 5.41403 28.9927 5.72223 29.17C6.03044 29.3473 6.37976 29.4407 6.73534 29.4409H27.6973C28.053 29.441 28.4025 29.3478 28.7109 29.1706C29.0193 28.9933 29.2757 28.7382 29.4546 28.4307C29.6335 28.1233 29.7285 27.7743 29.7302 27.4186C29.732 27.0629 29.6403 26.713 29.4643 26.4039Z" fill="#B9B5EF"/>
<path d="M17.2164 22.3481C16.947 22.3481 16.6886 22.2411 16.498 22.0505C16.3075 21.86 16.2004 21.6016 16.2004 21.3321V13.2001C16.2004 12.9305 16.3075 12.672 16.4982 12.4813C16.6888 12.2907 16.9473 12.1836 17.2169 12.1836C17.4865 12.1836 17.7451 12.2907 17.9357 12.4813C18.1263 12.672 18.2334 12.9305 18.2334 13.2001V21.3311C18.2334 21.4645 18.2072 21.5966 18.1561 21.7199C18.105 21.8432 18.0302 21.9552 17.9359 22.0495C17.8415 22.1439 17.7295 22.2187 17.6062 22.2698C17.483 22.3208 17.3509 22.3471 17.2174 22.3471" fill="white"/>
<path d="M18.4874 25.2505C18.4874 25.5017 18.4129 25.7472 18.2734 25.956C18.1338 26.1649 17.9355 26.3277 17.7034 26.4238C17.4713 26.5199 17.216 26.5451 16.9696 26.4961C16.7233 26.4471 16.497 26.3261 16.3194 26.1485C16.1417 25.9709 16.0208 25.7446 15.9718 25.4982C15.9228 25.2519 15.9479 24.9965 16.0441 24.7645C16.1402 24.5324 16.303 24.3341 16.5118 24.1945C16.7207 24.055 16.9662 23.9805 17.2174 23.9805C17.3842 23.9805 17.5493 24.0133 17.7034 24.0771C17.8575 24.141 17.9975 24.2345 18.1154 24.3524C18.2333 24.4704 18.3269 24.6104 18.3907 24.7645C18.4545 24.9185 18.4874 25.0837 18.4874 25.2505Z" fill="white"/>
<path d="M31.101 24.93H23.479C23.0146 24.919 22.573 24.7268 22.2484 24.3945C21.9239 24.0622 21.7422 23.6161 21.7422 23.1515C21.7422 22.687 21.9239 22.2409 22.2484 21.9086C22.573 21.5763 23.0146 21.3841 23.479 21.373H31.102C31.5664 21.3841 32.0081 21.5763 32.3326 21.9086C32.6571 22.2409 32.8388 22.687 32.8388 23.1515C32.8388 23.6161 32.6571 24.0622 32.3326 24.3945C32.0081 24.7268 31.5654 24.919 31.101 24.93Z" fill="#FEE456"/>
<path d="M31.1024 25.4383H23.4794C22.8728 25.4383 22.2911 25.1973 21.8622 24.7684C21.4333 24.3395 21.1924 23.7578 21.1924 23.1513C21.1924 22.5447 21.4333 21.963 21.8622 21.5341C22.2911 21.1052 22.8728 20.8643 23.4794 20.8643H31.1024C31.7089 20.8643 32.2906 21.1052 32.7195 21.5341C33.1484 21.963 33.3894 22.5447 33.3894 23.1513C33.3894 23.7578 33.1484 24.3395 32.7195 24.7684C32.2906 25.1973 31.7089 25.4383 31.1024 25.4383ZM23.4794 21.8783C23.1424 21.8783 22.8193 22.0121 22.581 22.2504C22.3427 22.4886 22.2089 22.8118 22.2089 23.1488C22.2089 23.4857 22.3427 23.8089 22.581 24.0471C22.8193 24.2854 23.1424 24.4193 23.4794 24.4193H31.1024C31.4393 24.4193 31.7625 24.2854 32.0008 24.0471C32.239 23.8089 32.3729 23.4857 32.3729 23.1488C32.3729 22.8118 32.239 22.4886 32.0008 22.2504C31.7625 22.0121 31.4393 21.8783 31.1024 21.8783H23.4794Z" fill="#111111"/>
<path d="M31.101 28.4994H23.479C23.0146 28.4884 22.573 28.2962 22.2484 27.9638C21.9239 27.6315 21.7422 27.1854 21.7422 26.7209C21.7422 26.2564 21.9239 25.8103 22.2484 25.4779C22.573 25.1456 23.0146 24.9534 23.479 24.9424H31.102C31.5664 24.9534 32.0081 25.1456 32.3326 25.4779C32.6571 25.8103 32.8388 26.2564 32.8388 26.7209C32.8388 27.1854 32.6571 27.6315 32.3326 27.9638C32.0081 28.2962 31.5654 28.4884 31.101 28.4994Z" fill="#FEE456"/>
<path d="M31.1024 29.0086H23.4794C23.1791 29.0086 22.8817 28.9494 22.6042 28.8345C22.3267 28.7195 22.0746 28.5511 21.8622 28.3387C21.6499 28.1264 21.4814 27.8742 21.3665 27.5968C21.2515 27.3193 21.1924 27.0219 21.1924 26.7216C21.1924 26.4212 21.2515 26.1238 21.3665 25.8464C21.4814 25.5689 21.6499 25.3168 21.8622 25.1044C22.0746 24.892 22.3267 24.7236 22.6042 24.6087C22.8817 24.4937 23.1791 24.4346 23.4794 24.4346H31.1024C31.7089 24.4346 32.2906 24.6755 32.7195 25.1044C33.1484 25.5333 33.3894 26.115 33.3894 26.7216C33.3894 27.3281 33.1484 27.9098 32.7195 28.3387C32.2906 28.7676 31.7089 29.0086 31.1024 29.0086ZM23.4794 25.4516C23.1424 25.4516 22.8193 25.5854 22.581 25.8237C22.3427 26.062 22.2089 26.3851 22.2089 26.7221C22.2089 27.059 22.3427 27.3822 22.581 27.6204C22.8193 27.8587 23.1424 27.9926 23.4794 27.9926H31.1024C31.4393 27.9926 31.7625 27.8587 32.0008 27.6204C32.239 27.3822 32.3729 27.059 32.3729 26.7221C32.3729 26.3851 32.239 26.062 32.0008 25.8237C31.7625 25.5854 31.4393 25.4516 31.1024 25.4516H23.4794Z" fill="#111111"/>
<path d="M31.101 32.057H23.479C23.0146 32.046 22.573 31.8538 22.2484 31.5214C21.9239 31.1891 21.7422 30.743 21.7422 30.2785C21.7422 29.814 21.9239 29.3679 22.2484 29.0356C22.573 28.7032 23.0146 28.511 23.479 28.5H31.102C31.5664 28.511 32.0081 28.7032 32.3326 29.0356C32.6571 29.3679 32.8388 29.814 32.8388 30.2785C32.8388 30.743 32.6571 31.1891 32.3326 31.5214C32.0081 31.8538 31.5654 32.046 31.101 32.057Z" fill="#FEE456"/>
<path d="M31.1024 32.5662H23.4794C22.8728 32.5662 22.2911 32.3252 21.8622 31.8963C21.4333 31.4674 21.1924 30.8857 21.1924 30.2792C21.1924 29.6726 21.4333 29.0909 21.8622 28.662C22.2911 28.2331 22.8728 27.9922 23.4794 27.9922H31.1024C31.7089 27.9922 32.2906 28.2331 32.7195 28.662C33.1484 29.0909 33.3894 29.6726 33.3894 30.2792C33.3894 30.8857 33.1484 31.4674 32.7195 31.8963C32.2906 32.3252 31.7089 32.5662 31.1024 32.5662ZM23.4794 29.0092C23.1424 29.0092 22.8193 29.143 22.581 29.3813C22.3427 29.6196 22.2089 29.9427 22.2089 30.2797C22.2089 30.6166 22.3427 30.9398 22.581 31.1781C22.8193 31.4163 23.1424 31.5502 23.4794 31.5502H31.1024C31.4393 31.5502 31.7625 31.4163 32.0008 31.1781C32.239 30.9398 32.3729 30.6166 32.3729 30.2797C32.3729 29.9427 32.239 29.6196 32.0008 29.3813C31.7625 29.143 31.4393 29.0092 31.1024 29.0092H23.4794Z" fill="#111111"/>
</svg>
