<svg width="36" height="36" viewBox="0 0 36 36" fill="none" xmlns="http://www.w3.org/2000/svg">
<path d="M13 2H23C23.5304 2 24.0391 2.21071 24.4142 2.58579C24.7893 2.96086 25 3.46957 25 4V14H11V4C11 3.46957 11.2107 2.96086 11.5858 2.58579C11.9609 2.21071 12.4696 2 13 2Z" fill="white"/>
<path d="M13 2.5H23C23.3978 2.5 23.7794 2.65804 24.0607 2.93934C24.342 3.22064 24.5 3.60218 24.5 4V13.5H11.5V4C11.5 3.60218 11.658 3.22064 11.9393 2.93934C12.2206 2.65804 12.6022 2.5 13 2.5Z" stroke="#111111"/>
<path d="M22 2H14V14H22V2Z" fill="white"/>
<path d="M21.5 2.5H14.5V13.5H21.5V2.5Z" stroke="#111111"/>
<path d="M29.4019 22.0366C29.4019 24.2989 28.7311 26.5103 27.4742 28.3912C26.2174 30.2722 24.431 31.7383 22.341 32.604C20.251 33.4697 17.9512 33.6962 15.7324 33.2549C13.5137 32.8135 11.4756 31.7242 9.876 30.1245C8.27636 28.5249 7.187 26.4868 6.74566 24.2681C6.30432 22.0493 6.53083 19.7495 7.39655 17.6595C8.26227 15.5695 9.7283 13.7831 11.6093 12.5263C13.4902 11.2695 15.7017 10.5986 17.9639 10.5986C20.9973 10.5989 23.9065 11.8041 26.0515 13.949C28.1965 16.094 29.4016 19.0032 29.4019 22.0366Z" fill="white"/>
<path d="M17.963 34.0012C15.5969 34.0012 13.284 33.2996 11.3167 31.9851C9.34941 30.6706 7.81609 28.8022 6.91063 26.6162C6.00518 24.4303 5.76828 22.0249 6.22987 19.7043C6.69147 17.3837 7.83083 15.2521 9.50389 13.5791C11.1769 11.906 13.3085 10.7667 15.6291 10.3051C17.9497 9.84347 20.3551 10.0804 22.541 10.9858C24.727 11.8913 26.5954 13.4246 27.9099 15.3919C29.2244 17.3592 29.926 19.6721 29.926 22.0382C29.9226 25.2099 28.6611 28.2508 26.4183 30.4935C24.1756 32.7363 21.1347 33.9978 17.963 34.0012ZM17.963 11.1252C15.8043 11.125 13.6941 11.765 11.8991 12.9641C10.1042 14.1633 8.70515 15.8678 7.87898 17.8621C7.0528 19.8564 6.83658 22.051 7.25767 24.1682C7.67875 26.2854 8.71823 28.2302 10.2446 29.7566C11.7711 31.283 13.7158 32.3225 15.833 32.7435C17.9502 33.1646 20.1448 32.9484 22.1391 32.1222C24.1334 31.2961 25.8379 29.897 27.0371 28.1021C28.2363 26.3071 28.8762 24.1969 28.876 22.0382C28.8728 19.1448 27.7221 16.3708 25.6762 14.3247C23.6303 12.2786 20.8564 11.1286 17.963 11.1252Z" fill="#111111"/>
<path d="M27.383 22.0372C27.383 23.9003 26.8305 25.7215 25.7954 27.2707C24.7603 28.8198 23.2891 30.0272 21.5679 30.7401C19.8466 31.4531 17.9525 31.6397 16.1252 31.2762C14.2979 30.9127 12.6194 30.0155 11.302 28.6981C9.98462 27.3807 9.08745 25.7022 8.72398 23.8749C8.3605 22.0476 8.54705 20.1536 9.26003 18.4323C9.97301 16.711 11.1804 15.2398 12.7295 14.2047C14.2786 13.1697 16.0999 12.6172 17.963 12.6172C20.4613 12.6172 22.8573 13.6096 24.6239 15.3762C26.3905 17.1428 27.383 19.5388 27.383 22.0372Z" fill="#2B9AC9"/>
<path d="M15.2109 22.0639L15.7509 17.0459H21.0999V18.4819H17.1319L16.8589 20.8609C17.3338 20.5914 17.8719 20.4534 18.4179 20.4609C18.8309 20.4379 19.2438 20.5076 19.6264 20.6649C20.009 20.8222 20.3515 21.0631 20.6289 21.3699C21.1845 22.0605 21.4658 22.9318 21.4189 23.8169C21.4417 24.2585 21.3759 24.7001 21.2255 25.1159C21.075 25.5317 20.8429 25.9131 20.5429 26.2379C20.2267 26.5456 19.8502 26.7844 19.4372 26.9393C19.0241 27.0942 18.5834 27.1618 18.1429 27.1379C17.3175 27.1675 16.5104 26.8908 15.8769 26.3609C15.5804 26.1064 15.3403 25.7928 15.1721 25.4401C15.0038 25.0874 14.9111 24.7035 14.8999 24.3129H16.5099C16.5439 24.7337 16.7285 25.1282 17.0299 25.4239C17.3357 25.6898 17.7321 25.828 18.1369 25.8099C18.3649 25.8209 18.5922 25.777 18.7998 25.682C19.0074 25.587 19.1892 25.4436 19.3299 25.2639C19.6359 24.8295 19.7864 24.3045 19.7569 23.7739C19.7854 23.252 19.6169 22.7385 19.2849 22.3349C19.1205 22.1564 18.9188 22.0164 18.6941 21.9247C18.4694 21.8331 18.2272 21.7922 17.9849 21.8049C17.7244 21.7984 17.4649 21.839 17.2189 21.9249C16.9629 22.0355 16.7307 22.1944 16.5349 22.3929L15.2109 22.0639Z" fill="white"/>
</svg>
