<svg width="36" height="36" viewBox="0 0 36 36" fill="none" xmlns="http://www.w3.org/2000/svg">
<path d="M13 2H23C23.5304 2 24.0391 2.21071 24.4142 2.58579C24.7893 2.96086 25 3.46957 25 4V14H11V4C11 3.46957 11.2107 2.96086 11.5858 2.58579C11.9609 2.21071 12.4696 2 13 2Z" fill="white"/>
<path d="M13 2.5H23C23.3978 2.5 23.7794 2.65804 24.0607 2.93934C24.342 3.22064 24.5 3.60218 24.5 4V13.5H11.5V4C11.5 3.60218 11.658 3.22064 11.9393 2.93934C12.2206 2.65804 12.6022 2.5 13 2.5Z" stroke="#111111"/>
<path d="M22 2H14V14H22V2Z" fill="white"/>
<path d="M21.5 2.5H14.5V13.5H21.5V2.5Z" stroke="#111111"/>
<path d="M29.4019 22.0366C29.4019 24.2989 28.7311 26.5103 27.4742 28.3912C26.2174 30.2722 24.431 31.7383 22.341 32.604C20.251 33.4697 17.9512 33.6962 15.7324 33.2549C13.5137 32.8135 11.4756 31.7242 9.876 30.1245C8.27636 28.5249 7.187 26.4868 6.74566 24.2681C6.30432 22.0493 6.53083 19.7495 7.39655 17.6595C8.26227 15.5695 9.7283 13.7831 11.6093 12.5263C13.4902 11.2695 15.7017 10.5986 17.9639 10.5986C20.9973 10.5989 23.9065 11.8041 26.0515 13.949C28.1965 16.094 29.4016 19.0032 29.4019 22.0366Z" fill="white"/>
<path d="M17.963 34.0012C15.5969 34.0012 13.284 33.2996 11.3167 31.9851C9.34941 30.6706 7.81609 28.8022 6.91063 26.6162C6.00518 24.4303 5.76828 22.0249 6.22987 19.7043C6.69147 17.3837 7.83083 15.2521 9.50389 13.5791C11.1769 11.906 13.3085 10.7667 15.6291 10.3051C17.9497 9.84347 20.3551 10.0804 22.541 10.9858C24.727 11.8913 26.5954 13.4246 27.9099 15.3919C29.2244 17.3592 29.926 19.6721 29.926 22.0382C29.9226 25.2099 28.6611 28.2508 26.4183 30.4935C24.1756 32.7363 21.1347 33.9978 17.963 34.0012ZM17.963 11.1252C15.8043 11.125 13.6941 11.765 11.8991 12.9641C10.1042 14.1633 8.70515 15.8678 7.87898 17.8621C7.0528 19.8564 6.83658 22.051 7.25767 24.1682C7.67875 26.2854 8.71823 28.2302 10.2446 29.7566C11.7711 31.283 13.7158 32.3225 15.833 32.7435C17.9502 33.1646 20.1448 32.9484 22.1391 32.1222C24.1334 31.2961 25.8379 29.897 27.0371 28.1021C28.2363 26.3071 28.8762 24.1969 28.876 22.0382C28.8728 19.1448 27.7221 16.3708 25.6762 14.3247C23.6303 12.2786 20.8564 11.1286 17.963 11.1252Z" fill="#111111"/>
<path d="M27.383 22.0372C27.383 23.9003 26.8305 25.7215 25.7954 27.2707C24.7603 28.8198 23.2891 30.0272 21.5679 30.7401C19.8466 31.4531 17.9525 31.6397 16.1252 31.2762C14.2979 30.9127 12.6194 30.0155 11.302 28.6981C9.98462 27.3807 9.08745 25.7022 8.72398 23.8749C8.3605 22.0476 8.54705 20.1536 9.26003 18.4323C9.97301 16.711 11.1804 15.2398 12.7295 14.2047C14.2786 13.1697 16.0999 12.6172 17.963 12.6172C20.4613 12.6172 22.8573 13.6096 24.6239 15.3762C26.3905 17.1428 27.383 19.5388 27.383 22.0372Z" fill="#015AAC"/>
<path d="M19.9349 17.0002V18.3742H19.7289C18.9171 18.3462 18.1234 18.6185 17.4999 19.1392C16.9159 19.6936 16.5624 20.4477 16.5099 21.2512C16.772 20.9748 17.0896 20.7569 17.4419 20.612C17.7942 20.467 18.1732 20.3983 18.5539 20.4102C18.9493 20.3929 19.3434 20.4679 19.7047 20.6293C20.0661 20.7907 20.385 21.0341 20.6359 21.3402C21.1656 22.025 21.4356 22.8753 21.3979 23.7402C21.4378 24.6461 21.1167 25.5309 20.5049 26.2002C20.2029 26.5128 19.8382 26.7578 19.4347 26.9193C19.0312 27.0808 18.5981 27.1551 18.1639 27.1372C17.7037 27.151 17.2465 27.0591 16.8275 26.8684C16.4084 26.6776 16.0387 26.3933 15.7469 26.0372C15.1008 25.2185 14.772 24.194 14.8209 23.1522V22.5852C14.7346 21.1076 15.1893 19.6491 16.0999 18.4822C16.5608 17.9768 17.1293 17.5812 17.7635 17.3247C18.3976 17.0682 19.0812 16.9573 19.7639 17.0002H19.9349ZM18.1499 21.7502C17.793 21.7484 17.444 21.8559 17.1499 22.0582C16.8505 22.2586 16.6182 22.5443 16.4829 22.8782V23.3842C16.4505 24.005 16.6131 24.6204 16.9479 25.1442C17.0766 25.3461 17.2543 25.5122 17.4645 25.6269C17.6747 25.7416 17.9105 25.8012 18.1499 25.8002C18.375 25.8087 18.5987 25.7628 18.8022 25.6663C19.0057 25.5699 19.183 25.4258 19.3189 25.2462C19.6235 24.8226 19.7754 24.3083 19.7499 23.7872C19.7736 23.262 19.6196 22.7442 19.3129 22.3172C19.179 22.1361 19.0033 21.99 18.8008 21.8913C18.5984 21.7926 18.3751 21.7442 18.1499 21.7502Z" fill="white"/>
</svg>
