<svg width="32" height="32" viewBox="0 0 32 32" fill="none" xmlns="http://www.w3.org/2000/svg">
<path d="M11.1111 27.999H20.887C21.5012 27.999 21.999 27.5513 21.999 26.999C21.999 26.4467 21.5012 25.999 20.887 25.999H11.1111C10.4969 25.999 9.99902 26.4467 9.99902 26.999C9.99902 27.5513 10.4969 27.999 11.1111 27.999Z" fill="#9E9EEE"/>
<path d="M14.999 5.07802L14.999 26.92C14.999 27.5159 15.4467 27.999 15.999 27.999C16.5513 27.999 16.999 27.5159 16.999 26.92V5.07802C16.999 4.48211 16.5513 3.99902 15.999 3.99902C15.4467 3.99902 14.999 4.48211 14.999 5.07802Z" fill="#9E9EEE"/>
<path d="M7.19351 5.99902L24.8045 5.99902C24.9119 5.99902 24.999 5.91695 24.999 5.81571V4.18234C24.999 4.0811 24.9119 3.99902 24.8045 3.99902L7.19351 3.99902C7.0861 3.99902 6.99902 4.0811 6.99902 4.18234V5.81571C6.99902 5.91695 7.0861 5.99902 7.19351 5.99902Z" fill="#9E9EEE"/>
<path d="M6.81447 4.0858C6.83585 4.0596 6.86283 4.03827 6.89354 4.0233C6.92425 4.00833 6.95794 4.00007 6.99226 3.99912C7.02658 3.99816 7.0607 4.00452 7.09224 4.01776C7.12377 4.031 7.15196 4.05079 7.17483 4.07576C8.12207 5.11171 12.3321 9.88389 11.9779 12.4928C11.8808 13.7356 11.2993 14.895 10.3528 15.7329C9.40635 16.5707 8.16675 17.0234 6.8886 16.998C5.62427 16.9861 4.4127 16.5023 3.50317 15.6459C2.59364 14.7896 2.05534 13.626 1.99902 12.3945C1.99902 10.1338 5.93313 5.16993 6.81447 4.0858Z" fill="#4859AE"/>
<path d="M24.8145 4.0858C24.8358 4.0596 24.8628 4.03827 24.8935 4.0233C24.9242 4.00833 24.9579 4.00007 24.9923 3.99912C25.0266 3.99816 25.0607 4.00452 25.0922 4.01776C25.1238 4.031 25.152 4.05079 25.1748 4.07576C26.1221 5.11171 30.3321 9.88389 29.9779 12.4928C29.8808 13.7356 29.2993 14.895 28.3528 15.7329C27.4064 16.5707 26.1667 17.0234 24.8886 16.998C23.6243 16.9861 22.4127 16.5023 21.5032 15.6459C20.5936 14.7896 20.0553 13.626 19.999 12.3945C19.999 10.1338 23.9331 5.16993 24.8145 4.0858Z" fill="#4859AE"/>
</svg>
