<svg width="36" height="36" viewBox="0 0 36 36" fill="none" xmlns="http://www.w3.org/2000/svg">
<path d="M27.6674 21.7856C27.5017 21.6491 27.3108 21.5467 27.1055 21.4841C26.9002 21.4215 26.6846 21.4 26.4709 21.4208C26.2573 21.4416 26.0499 21.5043 25.8605 21.6053C25.6712 21.7064 25.5036 21.8437 25.3674 22.0096C24.933 22.531 24.4424 23.0029 23.9044 23.4166L21.6134 18.5966H22.8134C23.2462 18.5966 23.6613 18.4246 23.9674 18.1186C24.2734 17.8125 24.4454 17.3974 24.4454 16.9646C24.4454 16.5317 24.2734 16.1166 23.9674 15.8106C23.6613 15.5045 23.2462 15.3326 22.8134 15.3326H10.4634L9.77137 12.9326H17.4714C17.9042 12.9326 18.3193 12.7606 18.6254 12.4546C18.9314 12.1485 19.1034 11.7334 19.1034 11.3006C19.1034 10.8677 18.9314 10.4526 18.6254 10.1466C18.3193 9.84051 17.9042 9.66857 17.4714 9.66857H8.83437L7.12137 3.71557C6.99649 3.30604 6.71568 2.96198 6.33948 2.75758C5.96328 2.55317 5.52182 2.50479 5.11027 2.62286C4.69872 2.74093 4.35006 3.016 4.13945 3.38876C3.92883 3.76153 3.87314 4.20212 3.98437 4.61557L7.66537 17.4156C7.76094 17.7463 7.95883 18.0383 8.23066 18.2496C8.50249 18.4609 8.83427 18.5806 9.17837 18.5916L6.88637 23.4156C6.34836 23.0019 5.85771 22.53 5.42337 22.0086C5.14636 21.6808 4.7514 21.4754 4.32401 21.4367C3.89661 21.398 3.47119 21.5292 3.13984 21.8019C2.80849 22.0746 2.59789 22.4669 2.55363 22.8937C2.50937 23.3206 2.63502 23.7477 2.90337 24.0826C3.99528 25.3851 5.32532 26.4677 6.82237 27.2726C6.83337 27.2776 6.84137 27.2856 6.85237 27.2906H6.86537C9.49252 28.6819 12.4247 29.3974 15.3974 29.3726C18.3698 29.3973 21.3015 28.6818 23.9284 27.2906H23.9424C23.9534 27.2856 23.9624 27.2776 23.9734 27.2716C25.4699 26.4669 26.7996 25.3846 27.8914 24.0826C28.028 23.917 28.1306 23.7261 28.1934 23.5209C28.2561 23.3156 28.2777 23.1 28.257 22.8863C28.2363 22.6727 28.1737 22.4652 28.0726 22.2758C27.9716 22.0864 27.8343 21.9188 27.6684 21.7826M9.73437 25.0326L12.7944 18.5936H18.0064L21.0634 25.0326C17.4236 26.4689 13.3741 26.4689 9.73437 25.0326Z" fill="white"/>
<path d="M15.4002 29.909C12.3521 29.9356 9.34507 29.2047 6.64921 27.782L6.53821 27.721C4.99271 26.8884 3.62045 25.7684 2.49521 24.421C2.13197 23.9767 1.95959 23.4066 2.01581 22.8355C2.07204 22.2644 2.3523 21.7389 2.79521 21.374C3.0149 21.1936 3.26796 21.0583 3.53994 20.9758C3.81193 20.8933 4.0975 20.8651 4.38036 20.893C4.66321 20.9209 4.93781 21.0042 5.18847 21.1382C5.43913 21.2722 5.66093 21.4542 5.84121 21.674C6.10649 21.9956 6.396 22.2965 6.70721 22.574L8.41921 18.974C8.11732 18.8509 7.84727 18.661 7.62937 18.4185C7.41148 18.176 7.25141 17.8872 7.16121 17.574L3.47221 4.76696C3.31379 4.21518 3.3809 3.62309 3.65878 3.12075C3.93667 2.61842 4.4026 2.24696 4.95421 2.08796C5.22736 2.00899 5.51341 1.98469 5.79596 2.01647C6.07852 2.04825 6.35202 2.13547 6.6008 2.27315C6.84958 2.41082 7.06875 2.59624 7.24574 2.81877C7.42273 3.0413 7.55406 3.29658 7.63221 3.56996L9.23221 9.13296H17.4722C18.0463 9.13296 18.5968 9.36101 19.0027 9.76693C19.4087 10.1729 19.6367 10.7234 19.6367 11.2975C19.6367 11.8715 19.4087 12.4221 19.0027 12.828C18.5968 13.2339 18.0463 13.462 17.4722 13.462H10.4782L10.8632 14.801H22.8192C23.3933 14.801 23.9438 15.029 24.3497 15.4349C24.7557 15.8409 24.9837 16.3914 24.9837 16.9655C24.9837 17.5395 24.7557 18.0901 24.3497 18.496C23.9438 18.9019 23.3933 19.13 22.8192 19.13H22.4582L24.0922 22.569C24.4032 22.2916 24.6924 21.9907 24.9572 21.669C25.138 21.4495 25.3602 21.2677 25.6112 21.1341C25.8622 21.0005 26.1371 20.9176 26.4201 20.8902C26.7031 20.8628 26.9888 20.8914 27.2608 20.9744C27.5327 21.0574 27.7857 21.1932 28.0052 21.374C28.2247 21.5547 28.4065 21.777 28.5401 22.028C28.6737 22.279 28.7566 22.5538 28.784 22.8369C28.8114 23.1199 28.7827 23.4056 28.6997 23.6775C28.6167 23.9495 28.481 24.2025 28.3002 24.422C27.166 25.7767 25.7836 26.9026 24.2272 27.739L24.1152 27.796C21.4285 29.2119 18.4321 29.938 15.3952 29.909M7.10021 26.821C9.65539 28.1757 12.5082 28.8714 15.4002 28.845C18.2838 28.8721 21.1285 28.1788 23.6762 26.828L23.7462 26.793C25.1728 26.0215 26.4407 24.9873 27.4832 23.745C27.5751 23.6333 27.6442 23.5047 27.6864 23.3664C27.7286 23.2281 27.7432 23.0828 27.7292 22.9389C27.7153 22.795 27.6732 22.6552 27.6052 22.5275C27.5373 22.3999 27.4448 22.2869 27.3332 22.195C27.2216 22.103 27.093 22.034 26.9546 21.9918C26.8163 21.9496 26.6711 21.935 26.5271 21.9489C26.3832 21.9629 26.2434 22.005 26.1158 22.073C25.9882 22.1409 25.8751 22.2333 25.7832 22.345C25.3242 22.8963 24.8057 23.3953 24.2372 23.833L23.7142 24.24L20.7762 18.06H22.8222C23.114 18.06 23.3937 17.9441 23.6 17.7378C23.8063 17.5315 23.9222 17.2517 23.9222 16.96C23.9222 16.6682 23.8063 16.3884 23.6 16.1821C23.3937 15.9759 23.114 15.86 22.8222 15.86H10.0612L9.06121 12.392H17.4702C17.6147 12.392 17.7577 12.3635 17.8912 12.3082C18.0246 12.2529 18.1459 12.1719 18.248 12.0698C18.3502 11.9676 18.4312 11.8464 18.4865 11.7129C18.5418 11.5795 18.5702 11.4364 18.5702 11.292C18.5702 11.1475 18.5418 11.0045 18.4865 10.871C18.4312 10.7376 18.3502 10.6163 18.248 10.5141C18.1459 10.412 18.0246 10.331 17.8912 10.2757C17.7577 10.2204 17.6147 10.192 17.4702 10.192H8.43121L6.60921 3.86396C6.56942 3.72403 6.50226 3.59337 6.41163 3.47957C6.321 3.36576 6.20869 3.27107 6.08121 3.20096C5.82583 3.06132 5.52552 3.02859 5.24605 3.10994C4.96659 3.19128 4.73076 3.38008 4.59021 3.63496C4.51999 3.76114 4.47544 3.89998 4.45913 4.04346C4.44283 4.18695 4.45509 4.33224 4.49521 4.47096L8.17621 17.271C8.24103 17.4936 8.37457 17.6902 8.55776 17.8324C8.74095 17.9746 8.96441 18.0553 9.19621 18.063L10.0062 18.091L7.08221 24.244L6.55921 23.837C5.99067 23.399 5.4722 22.8997 5.01321 22.348C4.92129 22.2363 4.80828 22.1439 4.68063 22.076C4.55299 22.008 4.41321 21.9659 4.26928 21.9519C4.12535 21.938 3.98008 21.9526 3.84178 21.9948C3.70347 22.037 3.57484 22.106 3.46321 22.198C3.35159 22.2899 3.25917 22.4029 3.19122 22.5305C3.12327 22.6582 3.08113 22.798 3.0672 22.9419C3.05327 23.0858 3.06783 23.2311 3.11004 23.3694C3.15225 23.5077 3.22129 23.6363 3.31321 23.748C4.36201 24.996 5.63958 26.0323 7.07721 26.801L7.10021 26.821ZM15.3932 26.646C13.3856 26.6506 11.3955 26.2715 9.53021 25.529L9.00721 25.317L12.4532 18.064H18.3382L21.7852 25.317L21.2622 25.529C19.3972 26.2713 17.4075 26.6504 15.4002 26.646M10.4622 24.746C13.6626 25.8442 17.1378 25.8442 20.3382 24.746L17.6702 19.131H13.1302L10.4622 24.746Z" fill="#111111"/>
<path d="M31.4572 25.27H23.9372C23.4042 25.27 22.8929 25.0583 22.516 24.6813C22.139 24.3044 21.9272 23.7931 21.9272 23.26C21.9272 22.7267 22.1391 22.2152 22.5163 21.838C22.8934 21.4609 23.4049 21.249 23.9382 21.249H31.4582C31.9837 21.2607 32.4837 21.4777 32.8512 21.8535C33.2186 22.2292 33.4244 22.7339 33.4244 23.2595C33.4244 23.7851 33.2186 24.2898 32.8512 24.6656C32.4837 25.0413 31.9827 25.2583 31.4572 25.27Z" fill="#FEE456"/>
<path d="M31.456 25.8018H23.937C23.2626 25.8018 22.6158 25.5339 22.1389 25.057C21.662 24.5801 21.394 23.9333 21.394 23.2588C21.394 22.5844 21.662 21.9376 22.1389 21.4607C22.6158 20.9837 23.2626 20.7158 23.937 20.7158H31.457C32.1315 20.7158 32.7783 20.9837 33.2552 21.4607C33.7321 21.9376 34 22.5844 34 23.2588C34 23.9333 33.7321 24.5801 33.2552 25.057C32.7783 25.5339 32.1305 25.8018 31.456 25.8018ZM23.938 21.7808C23.5459 21.7808 23.1699 21.9366 22.8926 22.2139C22.6153 22.4911 22.4595 22.8672 22.4595 23.2593C22.4595 23.6514 22.6153 24.0275 22.8926 24.3048C23.1699 24.5821 23.5459 24.7378 23.938 24.7378H31.457C31.8492 24.7378 32.2252 24.5821 32.5025 24.3048C32.7798 24.0275 32.9355 23.6514 32.9355 23.2593C32.9355 22.8672 32.7798 22.4911 32.5025 22.2139C32.2252 21.9366 31.8492 21.7808 31.457 21.7808H23.938Z" fill="#111111"/>
<path d="M31.4572 29.2925H23.9372C23.4041 29.2922 22.8928 29.0803 22.5159 28.7031C22.139 28.326 21.9272 27.8147 21.9272 27.2815C21.9272 26.7482 22.1391 26.2367 22.5163 25.8595C22.8934 25.4824 23.4049 25.2705 23.9382 25.2705H31.4582C31.9914 25.2708 32.5027 25.4828 32.8796 25.8599C33.2565 26.237 33.4682 26.7483 33.4682 27.2815C33.4682 27.8149 33.2564 28.3264 32.8792 28.7035C32.5021 29.0806 31.9906 29.2925 31.4572 29.2925Z" fill="#FEE456"/>
<path d="M31.4571 29.8282H23.9371C23.2624 29.8282 22.6153 29.5602 22.1382 29.0831C21.6611 28.606 21.3931 27.9589 21.3931 27.2842C21.3931 26.6095 21.6611 25.9624 22.1382 25.4854C22.6153 25.0083 23.2624 24.7402 23.9371 24.7402H31.4561C32.1308 24.7402 32.7779 25.0083 33.2549 25.4854C33.732 25.9624 34.0001 26.6095 34.0001 27.2842C34.0001 27.9589 33.732 28.606 33.2549 29.0831C32.7779 29.5602 32.1318 29.8282 31.4571 29.8282ZM23.9371 25.8042C23.5447 25.8042 23.1684 25.9601 22.8909 26.2376C22.6134 26.515 22.4576 26.8913 22.4576 27.2837C22.4576 27.6761 22.6134 28.0524 22.8909 28.3299C23.1684 28.6074 23.5447 28.7632 23.9371 28.7632H31.4571C31.8495 28.7632 32.2258 28.6074 32.5032 28.3299C32.7807 28.0524 32.9366 27.6761 32.9366 27.2837C32.9366 26.8913 32.7807 26.515 32.5032 26.2376C32.2258 25.9601 31.8495 25.8042 31.4571 25.8042H23.9371Z" fill="#111111"/>
<path d="M31.4573 33.314H23.9373C23.4041 33.314 22.8927 33.1022 22.5156 32.7253C22.1385 32.3484 21.9265 31.8371 21.9263 31.304C21.9263 30.7706 22.1381 30.2591 22.5153 29.882C22.8924 29.5048 23.4039 29.293 23.9373 29.293H31.4573C31.9827 29.3047 32.4827 29.5217 32.8502 29.8974C33.2177 30.2732 33.4234 30.7779 33.4234 31.3035C33.4234 31.8291 33.2177 32.3338 32.8502 32.7095C32.4827 33.0853 31.9827 33.3022 31.4573 33.314Z" fill="#FEE456"/>
<path d="M31.456 33.8467H23.937C23.2626 33.8467 22.6158 33.5788 22.1389 33.1019C21.662 32.625 21.394 31.9782 21.394 31.3037C21.394 30.6293 21.662 29.9825 22.1389 29.5056C22.6158 29.0287 23.2626 28.7607 23.937 28.7607H31.456C32.1305 28.7607 32.7773 29.0287 33.2542 29.5056C33.7311 29.9825 33.999 30.6293 33.999 31.3037C33.999 31.9782 33.7311 32.625 33.2542 33.1019C32.7773 33.5788 32.1305 33.8467 31.456 33.8467ZM23.937 29.8257C23.5449 29.8257 23.1689 29.9815 22.8916 30.2588C22.6143 30.5361 22.4585 30.9121 22.4585 31.3042C22.4585 31.6964 22.6143 32.0724 22.8916 32.3497C23.1689 32.627 23.5449 32.7827 23.937 32.7827H31.456C31.8482 32.7827 32.2242 32.627 32.5015 32.3497C32.7788 32.0724 32.9345 31.6964 32.9345 31.3042C32.9345 30.9121 32.7788 30.5361 32.5015 30.2588C32.2242 29.9815 31.8482 29.8257 31.456 29.8257H23.937Z" fill="#111111"/>
</svg>
