<svg width="36" height="36" viewBox="0 0 36 36" fill="none" xmlns="http://www.w3.org/2000/svg">
<path d="M16.2643 32.877C14.3634 32.5308 12.5811 31.7088 11.0836 30.4878C9.58606 29.2667 8.42214 27.6863 7.70032 25.894C7.4501 26.1467 7.12694 26.3146 6.77632 26.374C5.53432 26.566 4.31332 25.217 4.05032 23.361C3.78732 21.505 4.58132 19.845 5.82432 19.652C6.04575 19.6192 6.27162 19.6331 6.48732 19.693C6.40309 18.1935 6.44926 16.6895 6.62532 15.198C7.40532 8.39802 13.8053 6.17402 16.3313 5.55502C17.0135 5.38595 17.7212 5.34493 18.4183 5.43402C20.3912 5.66765 22.288 6.33436 23.9732 7.38647C25.6584 8.43857 27.0902 9.85008 28.1663 11.52C28.7679 12.4886 29.1042 13.5984 29.1413 14.738C29.1993 16.305 29.1726 17.8739 29.0613 19.438C29.0613 19.4733 29.064 19.509 29.0693 19.545C29.4017 19.3446 29.793 19.2648 30.1773 19.319C31.4203 19.512 32.2143 21.172 31.9513 23.028C31.6883 24.884 30.4673 26.228 29.2243 26.039C28.8193 25.9674 28.4527 25.7549 28.1893 25.439C27.4425 27.5684 26.0761 29.4258 24.2657 30.7728C22.4553 32.1197 20.2835 32.8947 18.0293 32.998H17.8173C17.2972 33.0006 16.7778 32.9601 16.2643 32.877Z" fill="#FAD7C4"/>
<path d="M12.9577 23.6626C14.5372 23.6626 15.8177 22.4032 15.8177 20.8496C15.8177 19.296 14.5372 18.0366 12.9577 18.0366C11.3781 18.0366 10.0977 19.296 10.0977 20.8496C10.0977 22.4032 11.3781 23.6626 12.9577 23.6626Z" stroke="#707070"/>
<path d="M21.9176 23.6626C23.4972 23.6626 24.7776 22.4032 24.7776 20.8496C24.7776 19.296 23.4972 18.0366 21.9176 18.0366C20.3381 18.0366 19.0576 19.296 19.0576 20.8496C19.0576 22.4032 20.3381 23.6626 21.9176 23.6626Z" stroke="#707070"/>
<path d="M15.7578 20.2979H19.1178" stroke="#707070"/>
<path d="M23.9492 11.194C22.8214 11.0524 21.7038 10.8389 20.6032 10.555H12.6822C11.928 10.562 11.1855 10.7431 10.5127 11.0841C9.83985 11.4251 9.25484 11.9168 8.80322 12.521C8.03959 13.5274 7.62939 14.7577 7.63622 16.021L7.34922 19.269C7.34922 19.269 7.32822 20.158 5.59622 19.694C5.59622 19.694 4.94922 19.269 4.94922 13.459C4.96147 11.8004 5.48332 10.1856 6.44406 8.83348C7.40479 7.48137 8.75796 6.45729 10.3202 5.9C11.9302 3.582 14.0782 3 16.7642 3C18.7802 3 21.4032 3.657 22.5832 5.464C22.7957 5.39992 23.0117 5.3485 23.2302 5.31C24.5592 5.078 26.5492 6.825 27.4492 7.795C31.6592 12.289 29.1832 19.613 29.1832 19.613L27.9012 19.869C27.0772 11.613 23.9492 11.194 23.9492 11.194Z" fill="#C1BBBB"/>
</svg>
