<svg width="32" height="32" viewBox="0 0 32 32" fill="none" xmlns="http://www.w3.org/2000/svg">
<path d="M28.0001 16.797C28.0001 22.571 21.0331 26.859 17.7101 28.581C17.1828 28.8552 16.5973 28.9983 16.0031 28.9983C15.4088 28.9983 14.8233 28.8552 14.2961 28.581C10.9751 26.86 3.99609 22.561 3.99609 16.794V8.457C3.99912 8.08268 4.13864 7.72233 4.38849 7.44357C4.63834 7.16482 4.98133 6.98682 5.35309 6.94299C8.54481 6.6924 11.5997 5.54037 14.1621 3.621C14.6901 3.21851 15.3357 3.00049 15.9996 3.00049C16.6635 3.00049 17.3091 3.21851 17.8371 3.621C20.3998 5.54055 23.455 6.69259 26.6471 6.94299C27.0186 6.98779 27.3611 7.1666 27.6102 7.44589C27.8593 7.72518 27.9979 8.08576 28.0001 8.45999V16.797Z" fill="#E97192"/>
<path d="M10 20.2881V18.0591" stroke="white" stroke-width="2" stroke-linecap="round"/>
<path d="M14 20.355V14.533" stroke="white" stroke-width="2" stroke-linecap="round"/>
<path d="M18 20.5889V16.9049" stroke="white" stroke-width="2" stroke-linecap="round"/>
<path d="M22 20.2549V10.7819" stroke="white" stroke-width="2" stroke-linecap="round"/>
</svg>
