<svg width="36" height="36" viewBox="0 0 36 36" fill="none" xmlns="http://www.w3.org/2000/svg">
<path d="M16 31.004C23.1797 31.004 29 25.1828 29 18.002C29 10.8212 23.1797 5 16 5C8.8203 5 3 10.8212 3 18.002C3 25.1828 8.8203 31.004 16 31.004Z" fill="#0C629C"/>
<path d="M9 18.2582C9 15.5482 10.322 14.0002 12.434 14.0002C13.1006 13.9341 13.7683 14.1141 14.3113 14.5063C14.8543 14.8984 15.2351 15.4757 15.382 16.1292H14.059C13.9568 15.7864 13.7391 15.4896 13.4429 15.2891C13.1467 15.0886 12.7902 14.9968 12.434 15.0292C11.075 15.0292 10.286 16.0832 10.286 17.8352H10.386C10.6518 17.4942 10.9947 17.2212 11.3865 17.0385C11.7784 16.8558 12.2079 16.7686 12.64 16.7842C12.995 16.7603 13.3512 16.8081 13.6873 16.9248C14.0235 17.0415 14.3326 17.2248 14.5964 17.4636C14.8602 17.7025 15.0731 17.992 15.2225 18.3149C15.3719 18.6378 15.4547 18.9876 15.466 19.3432C15.466 20.8492 14.217 22.0102 12.325 22.0002C10.7 21.9892 9 21.1392 9 18.2582ZM14.168 19.3652C14.1579 19.1386 14.1024 18.9163 14.0048 18.7116C13.9071 18.5068 13.7693 18.3238 13.5996 18.1733C13.4298 18.0228 13.2315 17.908 13.0165 17.8357C12.8015 17.7634 12.5742 17.735 12.348 17.7522C11.882 17.7213 11.4224 17.8739 11.0674 18.1774C10.7123 18.4808 10.4901 18.9111 10.448 19.3762C10.4826 19.8385 10.6974 20.2687 11.0459 20.5743C11.3945 20.8799 11.8492 21.0364 12.312 21.0102C12.5425 21.0272 12.7741 20.9978 12.9931 20.9238C13.2121 20.8497 13.4141 20.7326 13.5871 20.5793C13.7601 20.426 13.9006 20.2395 14.0004 20.031C14.1001 19.8225 14.1571 19.5961 14.168 19.3652Z" fill="white" stroke="white" stroke-width="0.5" stroke-linecap="round" stroke-linejoin="round"/>
<path d="M16.8984 19.8604H18.1984C18.2906 20.2222 18.5111 20.5383 18.8188 20.7498C19.1265 20.9613 19.5006 21.0539 19.8714 21.0104C20.0989 21.0313 20.3283 21.0056 20.5455 20.9348C20.7627 20.864 20.9632 20.7496 21.1346 20.5985C21.3061 20.4475 21.4449 20.2631 21.5425 20.0565C21.6401 19.85 21.6946 19.6257 21.7024 19.3974C21.692 19.1631 21.634 18.9334 21.532 18.7223C21.4301 18.5111 21.2862 18.3229 21.1093 18.169C20.9323 18.0152 20.7259 17.8989 20.5027 17.8273C20.2794 17.7557 20.0439 17.7302 19.8104 17.7524C19.5156 17.7201 19.2176 17.7668 18.9468 17.8877C18.676 18.0086 18.4422 18.1993 18.2694 18.4404H17.0074L17.5784 14.1104H22.5524V15.1184H18.6824L18.3904 17.3014H18.4764C18.9509 16.9439 19.5326 16.7581 20.1264 16.7744C20.4877 16.7451 20.8512 16.79 21.1945 16.9062C21.5378 17.0225 21.8537 17.2076 22.1229 17.4503C22.3921 17.693 22.6089 17.9882 22.76 18.3176C22.9111 18.6471 22.9932 19.004 23.0014 19.3664C23.0014 20.9034 21.7014 22.0004 19.8724 22.0004C18.2104 22.0004 16.9604 21.1004 16.8994 19.8614" fill="white"/>
<path d="M16.8984 19.8604H18.1984C18.2906 20.2222 18.5111 20.5383 18.8188 20.7498C19.1265 20.9613 19.5006 21.0539 19.8714 21.0104C20.0989 21.0313 20.3283 21.0056 20.5455 20.9348C20.7627 20.864 20.9632 20.7496 21.1346 20.5985C21.3061 20.4475 21.4449 20.2631 21.5425 20.0565C21.6401 19.85 21.6946 19.6257 21.7024 19.3974C21.692 19.1631 21.634 18.9334 21.532 18.7223C21.4301 18.5111 21.2862 18.3229 21.1093 18.169C20.9323 18.0152 20.7259 17.8989 20.5027 17.8273C20.2794 17.7557 20.0439 17.7302 19.8104 17.7524C19.5156 17.7201 19.2176 17.7668 18.9468 17.8877C18.676 18.0086 18.4422 18.1993 18.2694 18.4404H17.0074L17.5784 14.1104H22.5524V15.1184H18.6824L18.3904 17.3014H18.4764C18.9509 16.9439 19.5326 16.7581 20.1264 16.7744C20.4877 16.7451 20.8512 16.79 21.1945 16.9062C21.5378 17.0225 21.8537 17.2076 22.1229 17.4503C22.3921 17.693 22.6089 17.9882 22.76 18.3176C22.9111 18.6471 22.9932 19.004 23.0014 19.3664C23.0014 20.9034 21.7014 22.0004 19.8724 22.0004C18.2104 22.0004 16.9604 21.1004 16.8994 19.8614" stroke="white" stroke-width="0.5" stroke-linecap="round" stroke-linejoin="round"/>
<path d="M34.002 26C34.002 27.3845 33.5914 28.7378 32.8222 29.889C32.0531 31.0401 30.9598 31.9373 29.6807 32.4672C28.4017 32.997 26.9942 33.1356 25.6363 32.8655C24.2785 32.5954 23.0312 31.9287 22.0522 30.9497C21.0732 29.9708 20.4066 28.7235 20.1365 27.3656C19.8664 26.0078 20.005 24.6003 20.5348 23.3212C21.0646 22.0421 21.9618 20.9489 23.113 20.1797C24.2641 19.4105 25.6175 19 27.002 19C28.8585 19 30.6389 19.7375 31.9517 21.0503C33.2645 22.363 34.002 24.1435 34.002 26Z" fill="#F2690F"/>
<path d="M26.4613 29.3481V24.0251L25.2073 25.2941C25.157 25.3455 25.0967 25.3862 25.0302 25.4137C24.9637 25.4412 24.8923 25.4549 24.8203 25.4541C24.6783 25.4534 24.542 25.3983 24.4393 25.3001C24.3879 25.2497 24.347 25.1896 24.3189 25.1233C24.2907 25.057 24.276 24.9858 24.2754 24.9138C24.2748 24.8418 24.2885 24.7704 24.3156 24.7037C24.3427 24.637 24.3827 24.5763 24.4333 24.5251L26.5863 22.3431C26.688 22.2408 26.8259 22.1828 26.9701 22.1817C27.1143 22.1805 27.2531 22.2364 27.3563 22.3371L29.5663 24.5201C29.6668 24.622 29.7233 24.7594 29.7235 24.9025C29.7237 25.0457 29.6677 25.1832 29.5675 25.2854C29.4674 25.3877 29.3311 25.4465 29.1879 25.4493C29.0448 25.452 28.9063 25.3985 28.8023 25.3001L27.5503 24.0651V29.3481C27.5453 29.4151 27.5271 29.4804 27.4967 29.5404C27.4664 29.6003 27.4245 29.6537 27.3735 29.6975C27.3225 29.7412 27.2634 29.7745 27.1995 29.7953C27.1357 29.8162 27.0683 29.8243 27.0013 29.8191C26.8674 29.8276 26.7355 29.7829 26.6344 29.6947C26.5333 29.6065 26.4711 29.4819 26.4613 29.3481Z" fill="white" stroke="white" stroke-width="0.5" stroke-linecap="round"/>
</svg>
