<svg width="32" height="32" viewBox="0 0 32 32" fill="none" xmlns="http://www.w3.org/2000/svg">
<path fill-rule="evenodd" clip-rule="evenodd" d="M16.031 3.00008C12.5831 2.98775 9.27164 4.34556 6.82495 6.77481C4.37826 9.20407 2.99679 12.5058 2.98446 15.9536C2.97213 19.4014 4.32994 22.7129 6.75919 25.1596C9.18844 27.6063 12.4901 28.9878 15.938 29.0001C17.64 29.0014 19.3253 28.665 20.8964 28.0105C22.4676 27.356 23.8932 26.3963 25.091 25.1871L16.031 15.9871V3.00008Z" fill="#C7355D"/>
<path fill-rule="evenodd" clip-rule="evenodd" d="M16 2.99999V16L25.067 25.219C26.3069 24.0111 27.2937 22.5682 27.9698 20.9747C28.646 19.3812 28.9979 17.669 29.005 15.938C29.0171 14.2299 28.6885 12.5366 28.0384 10.957C27.3882 9.37745 26.4297 7.94338 25.2187 6.73868C24.0078 5.53399 22.5688 4.58284 20.9859 3.94089C19.403 3.29894 17.708 2.97907 16 2.99999Z" fill="#FFE6E6"/>
</svg>
