<svg width="24" height="24" viewBox="0 0 24 24" fill="none" xmlns="http://www.w3.org/2000/svg">
<path d="M13.0688 13.5V12.667C12.6787 12.5838 12.3493 12.4248 12.0805 12.1898C11.8118 11.9548 11.6183 11.6267 11.5 11.2055L12.4195 10.8722C12.5174 11.1905 12.6635 11.4252 12.8578 11.5764C13.0521 11.7275 13.3005 11.8031 13.603 11.8031C13.8696 11.8031 14.087 11.7526 14.2554 11.6515C14.4238 11.5504 14.508 11.3925 14.508 11.1778C14.508 10.9813 14.4315 10.819 14.2784 10.6909C14.1254 10.5629 13.7815 10.4219 13.2466 10.268C12.6787 10.1042 12.2824 9.89552 12.0578 9.64191C11.8331 9.38836 11.7207 9.08346 11.7207 8.7272C11.7207 8.32991 11.8583 8.00833 12.1335 7.76244C12.4088 7.51662 12.7206 7.36715 13.0688 7.31402V6.5H13.9688V7.31402C14.3233 7.37899 14.6164 7.50886 14.8483 7.70365C15.0802 7.89843 15.2508 8.13994 15.3602 8.42819L14.4522 8.78581C14.3747 8.59033 14.2603 8.44016 14.1092 8.3353C13.9581 8.23037 13.7595 8.17791 13.5132 8.17791C13.2417 8.17791 13.0404 8.22891 12.9094 8.33093C12.7783 8.43294 12.7128 8.55965 12.7128 8.71106C12.7128 8.89501 12.8001 9.04176 12.9748 9.15131C13.1495 9.26092 13.4954 9.3858 14.0126 9.52593C14.4958 9.65973 14.8646 9.86883 15.1187 10.1532C15.3729 10.4376 15.5 10.7728 15.5 11.1588C15.5 11.6227 15.3538 11.9772 15.0613 12.2223C14.7688 12.4673 14.4046 12.6218 13.9688 12.686V13.5H13.0688Z" fill="white"/>
<path d="M17.5 15.5C18.7275 14.6134 19.5 13.3249 19.5 11.8908C19.5 8.3121 16.4317 6.07221 14.6834 5.08643M7.8393 13.5C7.61954 12.9965 7.5 12.4549 7.5 11.8908C7.5 8.3121 10.5683 6.07221 12.3166 5.08643" stroke="white" stroke-linecap="round" stroke-linejoin="round"/>
<path d="M10.7412 1.93848C11.5935 1.67767 12.5122 1.73937 13.3223 2.11133L13.627 2.25195C13.948 2.39939 14.3043 2.45533 14.6553 2.41504L15.4512 2.32422C15.8202 2.28186 16.1052 2.64206 15.9785 2.99121L15.249 5H11.751L10.6826 2.05664C10.6649 2.0078 10.6915 1.95369 10.7412 1.93848Z" stroke="white" stroke-linecap="round" stroke-linejoin="round"/>
<path d="M2.45547 16.5L7.5 21.5445L5.54453 23.5L0.5 18.4555L2.45547 16.5Z" stroke="white" stroke-linecap="round" stroke-linejoin="round"/>
<path d="M10.6666 17.318H16.3333C16.9777 17.318 17.5 16.7588 17.5 16.069C17.5 15.3791 16.9777 14.8199 16.3333 14.8199H12.7019C12.1478 14.8199 11.6129 14.5909 11.1539 14.2807C10.7194 13.9871 10.1236 13.6665 9.4999 13.5709C6.68486 13.1395 4.68489 14.7043 3.5 17.5" stroke="white" stroke-linecap="round" stroke-linejoin="round"/>
<path d="M7 20.5H16.5403C17.0825 20.5 17.6015 20.2798 17.9784 19.8899L22.5008 15.211C23.1664 14.5908 23.1664 13.5853 22.5008 12.9651C21.8351 12.345 20.7559 12.345 20.0902 12.9651L17.5832 15.3008" stroke="white" stroke-linecap="round" stroke-linejoin="round"/>
</svg>
