<svg width="24" height="24" viewBox="0 0 24 24" fill="none" xmlns="http://www.w3.org/2000/svg">
<path d="M10.4199 7H7.41992C7.00492 7 6.66992 6.665 6.66992 6.25C6.66992 5.835 7.00492 5.5 7.41992 5.5H10.4199C10.8349 5.5 11.1699 5.835 11.1699 6.25C11.1699 6.665 10.8349 7 10.4199 7Z" fill="white"/>
<path d="M18.0946 3.5C18.6796 3.5 19.1546 3.975 19.1546 4.56V9.39C19.1546 9.975 18.6796 10.45 18.0946 10.45H5.90961C5.32461 10.45 4.84961 9.975 4.84961 9.39V3.5H18.0946ZM18.0946 2H3.34961V9.39C3.34961 10.8 4.49961 11.95 5.90961 11.95H18.0946C19.5046 11.95 20.6546 10.805 20.6546 9.39V4.56C20.6546 3.15 19.5046 2 18.0946 2Z" fill="white"/>
<path d="M18.1097 12C18.7047 12 19.2047 12.445 19.2697 13.035L19.9947 19.195C20.0747 19.89 19.5347 20.5 18.8347 20.5H5.16466C4.46466 20.5 3.91966 19.89 4.00466 19.195L4.72967 13.035C4.79967 12.445 5.29967 12 5.88967 12H18.1097ZM18.1097 10.5H5.88967C4.53467 10.5 3.39468 11.515 3.23968 12.86L2.51467 19.02C2.42467 19.775 2.66467 20.535 3.16967 21.105C3.67467 21.675 4.40466 22 5.16466 22H18.8347C19.5947 22 20.3247 21.675 20.8297 21.105C21.3347 20.535 21.5747 19.775 21.4847 19.02L20.7597 12.86C20.5997 11.515 19.4597 10.5 18.1097 10.5Z" fill="white"/>
</svg>
