<svg width="24" height="24" viewBox="0 0 24 24" fill="none" xmlns="http://www.w3.org/2000/svg">
<path d="M13 17H18C18.7956 17 19.5587 16.6839 20.1213 16.1213C20.6839 15.5587 21 14.7956 21 14V6C21 5.20435 20.6839 4.44127 20.1213 3.87866C19.5587 3.31605 18.7956 3 18 3H6C5.20435 3 4.4413 3.31605 3.87869 3.87866C3.31608 4.44127 3 5.20435 3 6V14C3 14.7956 3.31608 15.5587 3.87869 16.1213C4.4413 16.6839 5.20435 17 6 17H8V21L13 17Z" stroke="white" stroke-width="1.5" stroke-linecap="round" stroke-linejoin="round"/>
<path d="M16.395 12.5V7.5" stroke="white" stroke-width="1.5" stroke-linecap="round" stroke-linejoin="round"/>
<circle cx="12.5" cy="10" r="0.5" fill="white" stroke="white" stroke-width="1.2"/>
<circle cx="8" cy="10" r="0.5" fill="white" stroke="white" stroke-width="1.2"/>
</svg>
