<svg width="24" height="24" viewBox="0 0 24 24" fill="none" xmlns="http://www.w3.org/2000/svg">
<path d="M12.675 12.18C14.545 11.18 15.82 9.205 15.82 6.94C15.82 3.665 13.155 1 9.875 1C6.595 1 3.93001 3.665 3.93001 6.94C3.93001 9.205 5.205 11.175 7.075 12.18C3.13 13.415 0.25 17.18 0.25 21.63C0.25 22.11 0.630006 22.5 1.10001 22.5C1.57001 22.5 1.95 22.11 1.95 21.63C1.95 17.145 5.505 13.495 9.88 13.495C14.255 13.495 17.81 17.145 17.81 21.63C17.81 22.11 18.19 22.5 18.66 22.5C19.13 22.5 19.51 22.11 19.51 21.63C19.51 17.18 16.63 13.415 12.685 12.18H12.675ZM5.63 6.94C5.63 4.6 7.535 2.69501 9.875 2.69501C12.215 2.69501 14.12 4.6 14.12 6.94C14.12 9.28 12.215 11.185 9.875 11.185C7.535 11.185 5.63 9.28 5.63 6.94Z" fill="#212121"/>
<path d="M22.8987 9.20499H20.9187V7.22501C20.9187 6.75501 20.5387 6.375 20.0687 6.375C19.5987 6.375 19.2187 6.75501 19.2187 7.22501V9.20499H17.2387C16.7687 9.20499 16.3887 9.58499 16.3887 10.055C16.3887 10.525 16.7687 10.905 17.2387 10.905H19.2187V12.885C19.2187 13.355 19.5987 13.735 20.0687 13.735C20.5387 13.735 20.9187 13.355 20.9187 12.885V10.905H22.8987C23.3687 10.905 23.7487 10.525 23.7487 10.055C23.7487 9.58499 23.3687 9.20499 22.8987 9.20499Z" fill="#212121"/>
</svg>
