<svg width="24" height="24" viewBox="0 0 24 24" fill="none" xmlns="http://www.w3.org/2000/svg">
<path d="M16.9998 10.7499H16.3448L16.5248 10.2599C16.6648 9.86987 16.4648 9.43988 16.0748 9.29988C15.6848 9.15988 15.2548 9.35988 15.1148 9.74988L13.9698 12.8999L12.6998 9.72488C12.5848 9.43988 12.3098 9.25488 12.0048 9.25488C11.6998 9.25488 11.4198 9.43988 11.3098 9.72488L10.0398 12.8999L8.89478 9.74988C8.75478 9.35988 8.32478 9.15988 7.93478 9.29988C7.54478 9.43988 7.34477 9.86987 7.48477 10.2599L7.66476 10.7499H7.00977C6.59477 10.7499 6.25977 11.0849 6.25977 11.4999C6.25977 11.9149 6.59477 12.2499 7.00977 12.2499H8.20978L9.30478 15.2549C9.40978 15.5449 9.68479 15.7449 9.99979 15.7499C10.3298 15.7399 10.5948 15.5649 10.7098 15.2799L12.0148 12.0199L13.3198 15.2799C13.4348 15.5649 13.7098 15.7499 14.0148 15.7499H14.0248C14.3348 15.7449 14.6098 15.5499 14.7198 15.2549L15.8148 12.2499H17.0148C17.4298 12.2499 17.7648 11.9149 17.7648 11.4999C17.7648 11.0849 17.4298 10.7499 17.0148 10.7499H16.9998Z" fill="#B0B0B0"/>
<path d="M12 2C6.475 2 2 6.475 2 12C2 17.525 6.475 22 12 22C17.525 22 22 17.525 22 12C22 6.475 17.525 2 12 2ZM12 20.5C7.315 20.5 3.5 16.685 3.5 12C3.5 7.315 7.315 3.5 12 3.5C16.685 3.5 20.5 7.315 20.5 12C20.5 16.685 16.685 20.5 12 20.5Z" fill="#B0B0B0"/>
</svg>
