<svg width="24" height="24" viewBox="0 0 24 24" fill="none" xmlns="http://www.w3.org/2000/svg">
<path d="M14.222 20.7071C14.0345 20.8946 13.7802 21 13.515 21.0001H11.5V18.9851C11.5001 18.7199 11.6055 18.4656 11.793 18.2781L18.562 11.5041C18.8848 11.1813 19.3225 11 19.779 11C20.2355 11 20.6732 11.1813 20.996 11.5041C21.3188 11.8269 21.5001 12.2646 21.5001 12.7211C21.5001 13.1776 21.3188 13.6153 20.996 13.9381L14.222 20.7071Z" stroke="white" stroke-width="1.5" stroke-linecap="round" stroke-linejoin="round"/>
<path d="M16.064 14.0088L18.494 16.4388" stroke="white" stroke-width="1.5" stroke-linecap="round" stroke-linejoin="round"/>
<path d="M20.2181 14.7148L21.1181 15.6148C21.3456 15.8428 21.4734 16.1518 21.4734 16.4738C21.4734 16.7959 21.3456 17.1049 21.1181 17.3328L19.4771 18.9738" stroke="white" stroke-width="1.5" stroke-linecap="round" stroke-linejoin="round"/>
<path d="M6.5 9H12.5" stroke="white" stroke-width="1.5" stroke-linecap="round" stroke-linejoin="round"/>
<path d="M6.5 13H10.5" stroke="white" stroke-width="1.5" stroke-linecap="round" stroke-linejoin="round"/>
<path d="M8.5 21H5.5C4.70435 21 3.94129 20.6839 3.37868 20.1213C2.81607 19.5587 2.5 18.7956 2.5 18V6C2.5 5.20435 2.81607 4.44129 3.37868 3.87868C3.94129 3.31607 4.70435 3 5.5 3H17.5C18.2956 3 19.0587 3.31607 19.6213 3.87868C20.1839 4.44129 20.5 5.20435 20.5 6V8" stroke="white" stroke-width="1.5" stroke-linecap="round" stroke-linejoin="round"/>
</svg>
