<svg width="24" height="24" viewBox="0 0 24 24" fill="none" xmlns="http://www.w3.org/2000/svg">
<path d="M19.5 4H4.5C2.565 4 1 5.565 1 7.5V16.5C1 18.435 2.565 20 4.5 20H19.5C21.435 20 23 18.435 23 16.5V7.5C23 5.565 21.435 4 19.5 4ZM4.5 5.5H19.5C20.605 5.5 21.5 6.395 21.5 7.5H2.5C2.5 6.395 3.395 5.5 4.5 5.5ZM19.5 18.5H4.5C3.395 18.5 2.5 17.605 2.5 16.5V9H21.5V16.5C21.5 17.605 20.605 18.5 19.5 18.5Z" fill="#B0B0B0"/>
<path d="M4 15.5H9V10.5H4V15.5ZM5.5 12H7.5V14H5.5V12Z" fill="#B0B0B0"/>
<path d="M18.5 15.5H15C14.585 15.5 14.25 15.835 14.25 16.25C14.25 16.665 14.585 17 15 17H18.5C18.915 17 19.25 16.665 19.25 16.25C19.25 15.835 18.915 15.5 18.5 15.5Z" fill="#B0B0B0"/>
</svg>
