<svg width="24" height="24" viewBox="0 0 24 24" fill="none" xmlns="http://www.w3.org/2000/svg">
<path d="M14.248 8.71478C14.5345 8.42846 14.9987 8.42836 15.2851 8.71478C15.5715 9.00119 15.5714 9.46541 15.2851 9.75189L13.037 11.9999L15.2851 14.248C15.5714 14.5345 15.5715 14.9987 15.2851 15.2851C14.9987 15.5715 14.5345 15.5714 14.248 15.2851L11.9999 13.037L9.75189 15.2851C9.46541 15.5714 9.00119 15.5715 8.71478 15.2851C8.42836 14.9987 8.42846 14.5345 8.71478 14.248L10.9628 11.9999L8.71478 9.75189C8.42846 9.46541 8.42836 9.00119 8.71478 8.71478C9.00119 8.42836 9.46541 8.42846 9.75189 8.71478L11.9999 10.9628L14.248 8.71478Z" fill="#D3D3D3"/>
<path d="M22 12C22 6.47715 17.5228 2 12 2C6.47715 2 2 6.47715 2 12C2 17.5228 6.47715 22 12 22C17.5228 22 22 17.5228 22 12Z" stroke="#D3D3D3" stroke-width="1.5" stroke-linecap="round" stroke-linejoin="round"/>
</svg>
