<svg width="24" height="24" viewBox="0 0 24 24" fill="none" xmlns="http://www.w3.org/2000/svg">
<path d="M22 18V6C22 4.89543 21.1046 4 20 4L4 4C2.89543 4 2 4.89543 2 6V18C2 19.1046 2.89543 20 4 20H20C21.1046 20 22 19.1046 22 18Z" stroke="white" stroke-width="1.5" stroke-linecap="round" stroke-linejoin="round"/>
<path d="M14 9.5H17" stroke="white" stroke-width="1.5" stroke-linecap="round"/>
<path d="M19 12.5H14" stroke="white" stroke-width="1.5" stroke-linecap="round"/>
<path d="M8.5 11.5C9.60457 11.5 10.5 10.6046 10.5 9.5C10.5 8.39543 9.60457 7.5 8.5 7.5C7.39543 7.5 6.5 8.39543 6.5 9.5C6.5 10.6046 7.39543 11.5 8.5 11.5Z" stroke="white" stroke-width="1.5" stroke-linecap="round" stroke-linejoin="round"/>
<path d="M11.9951 16.5C11.8431 15.8817 11.582 15.2956 11.2241 14.769C11.0036 14.4027 10.6971 14.0957 10.3312 13.8746C9.96525 13.6535 9.5509 13.5249 9.12408 13.5H7.86609C7.43927 13.5249 7.02498 13.6535 6.65906 13.8746C6.29314 14.0957 5.98664 14.4027 5.76611 14.769C5.40826 15.2956 5.14717 15.8818 4.99512 16.5" stroke="white" stroke-width="1.5" stroke-linecap="round" stroke-linejoin="round"/>
</svg>
