<svg width="24" height="24" viewBox="0 0 24 24" fill="none" xmlns="http://www.w3.org/2000/svg">
<path d="M21.5 5.5H2.5C2.225 5.5 2 5.275 2 5C2 4.725 2.225 4.5 2.5 4.5H21.5C21.775 4.5 22 4.725 22 5C22 5.275 21.775 5.5 21.5 5.5Z" fill="white"/>
<path d="M21.5 12.5H2.5C2.225 12.5 2 12.275 2 12C2 11.725 2.225 11.5 2.5 11.5H21.5C21.775 11.5 22 11.725 22 12C22 12.275 21.775 12.5 21.5 12.5Z" fill="white"/>
<path d="M21.5 19.5H2.5C2.225 19.5 2 19.275 2 19C2 18.725 2.225 18.5 2.5 18.5H21.5C21.775 18.5 22 18.725 22 19C22 19.275 21.775 19.5 21.5 19.5Z" fill="white"/>
</svg>
