<svg width="24" height="24" viewBox="0 0 24 24" fill="none" xmlns="http://www.w3.org/2000/svg">
<ellipse cx="15" cy="6" rx="7" ry="3" stroke="white" stroke-linecap="round" stroke-linejoin="round"/>
<path d="M8 6V9C8 10.6569 11.134 12 15 12C18.866 12 22 10.6569 22 9V6" stroke="white" stroke-linecap="round" stroke-linejoin="round"/>
<path d="M8 9V12C8 13.6569 11.134 15 15 15C18.866 15 22 13.6569 22 12V9" stroke="white" stroke-linecap="round" stroke-linejoin="round"/>
<path d="M8 12V15C8 16.6569 11.134 18 15 18C18.866 18 22 16.6569 22 15V12" stroke="white" stroke-linecap="round" stroke-linejoin="round"/>
<path d="M19 8.5V17" stroke="white" stroke-linecap="round" stroke-linejoin="round"/>
<circle cx="7.5" cy="15.5" r="6.5" fill="#212121" stroke="white" stroke-linecap="round" stroke-linejoin="round"/>
<path d="M6.96099 19.5V18.548C6.47339 18.453 6.06162 18.2712 5.72567 18.0026C5.38973 17.734 5.14784 17.3591 5 16.8777L6.14936 16.4969C6.27176 16.8606 6.4544 17.1288 6.69727 17.3016C6.94014 17.4743 7.25065 17.5607 7.62881 17.5607C7.96196 17.5607 8.23377 17.5029 8.44426 17.3874C8.65474 17.2719 8.75998 17.0915 8.75998 16.8461C8.75998 16.6214 8.66432 16.436 8.47299 16.2896C8.28175 16.1433 7.85184 15.9822 7.18326 15.8063C6.47339 15.6191 5.97804 15.3806 5.69719 15.0908C5.41635 14.801 5.27593 14.4525 5.27593 14.0454C5.27593 13.5913 5.44793 13.2238 5.79192 12.9428C6.13601 12.6619 6.52569 12.491 6.96099 12.4303V11.5H8.08606V12.4303C8.52907 12.5046 8.89549 12.653 9.18532 12.8756C9.47523 13.0982 9.68855 13.3742 9.82529 13.7036L8.6903 14.1124C8.59332 13.8889 8.4504 13.7173 8.26153 13.5975C8.07267 13.4776 7.82433 13.4176 7.51653 13.4176C7.17711 13.4176 6.92551 13.4759 6.76174 13.5925C6.59788 13.7091 6.51594 13.8539 6.51594 14.0269C6.51594 14.2372 6.62513 14.4049 6.8435 14.5301C7.06187 14.6553 7.49428 14.7981 8.14074 14.9582C8.74481 15.1111 9.2057 15.3501 9.52342 15.6751C9.84114 16.0001 10 16.3832 10 16.8244C10 17.3545 9.81719 17.7597 9.45158 18.0397C9.08597 18.3197 8.63079 18.4964 8.08606 18.5697V19.5H6.96099Z" fill="white"/>
</svg>
