<svg width="24" height="24" viewBox="0 0 24 24" fill="none" xmlns="http://www.w3.org/2000/svg">
<path d="M21 20.5H3.75V2.75C3.75 2.335 3.415 2 3 2C2.585 2 2.25 2.335 2.25 2.75V22H21C21.415 22 21.75 21.665 21.75 21.25C21.75 20.835 21.415 20.5 21 20.5Z" fill="#B0B0B0"/>
<path d="M19.7485 5.5H15.9985C15.5835 5.5 15.2485 5.835 15.2485 6.25C15.2485 6.665 15.5835 7 15.9985 7H19.0785L13.9735 12.105L11.7535 9.88501C11.4585 9.59001 10.9835 9.59001 10.6935 9.88501L6.16852 14.41C5.87352 14.705 5.87352 15.18 6.16852 15.47C6.31352 15.615 6.50851 15.69 6.69851 15.69C6.88851 15.69 7.08351 15.615 7.22851 15.47L11.2235 11.475L13.4435 13.695C13.7385 13.99 14.2135 13.99 14.5035 13.695L19.7485 8.45001V10.75C19.7485 11.165 20.0835 11.5 20.4985 11.5C20.9135 11.5 21.2485 11.165 21.2485 10.75V5.5H19.7485Z" fill="#B0B0B0"/>
</svg>
