<svg width="24" height="24" viewBox="0 0 24 24" fill="none" xmlns="http://www.w3.org/2000/svg">
<path d="M12 22C6.485 22 2 17.515 2 12C2 6.485 6.485 2 12 2C17.515 2 22 6.485 22 12C22 17.515 17.515 22 12 22ZM12 3.5C7.315 3.5 3.5 7.315 3.5 12C3.5 16.685 7.315 20.5 12 20.5C16.685 20.5 20.5 16.685 20.5 12C20.5 7.315 16.685 3.5 12 3.5Z" fill="#111111"/>
<path d="M11.28 15.2747C11.28 15.2747 11.26 15.2747 11.25 15.2747C11.24 15.2747 11.23 15.2747 11.22 15.2747C11.03 15.2747 10.84 15.2047 10.69 15.0597C10.635 15.0047 10.605 14.9397 10.57 14.8797L8.19 12.4997C7.895 12.2047 7.895 11.7297 8.19 11.4397C8.335 11.2947 8.525 11.2197 8.72 11.2197C8.915 11.2197 9.105 11.2947 9.25 11.4397L11.25 13.4397L14.75 9.43973C14.895 9.29473 15.09 9.21973 15.28 9.21973C15.47 9.21973 15.665 9.29473 15.81 9.43973C16.105 9.73473 16.105 10.2097 15.81 10.4997L11.93 14.8797C11.9 14.9447 11.865 15.0097 11.81 15.0597C11.665 15.2047 11.475 15.2747 11.28 15.2747Z" fill="#111111"/>
</svg>
