<svg width="32" height="32" viewBox="0 0 32 32" fill="none" xmlns="http://www.w3.org/2000/svg">
<path d="M25.2209 25.5739L26.3982 24.3943C26.7836 24.0074 27 23.4836 27 22.9375C27 22.3914 26.7836 21.8676 26.3982 21.4806L23.7605 18.8442C23.5053 18.5884 23.2021 18.3855 22.8684 18.2471C22.5346 18.1087 22.1768 18.0374 21.8155 18.0374C21.4542 18.0374 21.0964 18.1087 20.7626 18.2471C20.4289 18.3855 20.1257 18.5884 19.8705 18.8442L17.8073 20.9062C16.2726 20.3341 14.8789 19.4387 13.7206 18.2809C12.5624 17.1231 11.6665 15.7299 11.0939 14.1956L13.1596 12.1285C13.6754 11.6126 13.9652 10.9129 13.9652 10.1834C13.9652 9.45394 13.6754 8.7543 13.1596 8.23835L10.5252 5.60271C10.1386 5.21677 9.61453 5 9.06816 5C8.5218 5 7.99776 5.21677 7.61109 5.60271L6.42628 6.78234C5.51422 7.69533 5.00134 8.93259 5.00001 10.223C4.99814 12.4268 5.43095 14.6094 6.27365 16.6459C7.11635 18.6823 8.35242 20.5326 9.9111 22.0909C11.4698 23.6491 13.3205 24.8848 15.3573 25.7272C17.3942 26.5696 19.5772 27.0021 21.7814 27C23.0716 26.9992 24.3087 26.4863 25.2209 25.5739Z" fill="#4579FF"/>
</svg>
