<svg width="32" height="32" viewBox="0 0 32 32" fill="none" xmlns="http://www.w3.org/2000/svg">
<path d="M1.99817 17.1342C1.9839 13.6177 3.20814 10.2084 5.45618 7.50423M8.21497 4.96822C10.656 3.24804 13.5982 2.38451 16.5817 2.51241C19.5652 2.64031 22.4223 3.75235 24.7072 5.67513M28.3273 10.1942C29.4309 12.3407 30.0038 14.7206 29.9982 17.1342C30.024 19.6852 29.7135 22.2284 29.0743 24.6982" stroke="#19973C" stroke-width="1.5" stroke-linecap="round"/>
<path d="M22.3618 28.1111C23.5845 26.5743 24.5656 24.8599 25.271 23.0271C25.7241 21.2665 25.9441 19.454 25.9258 17.6361C25.9405 14.8524 24.8663 12.1733 22.9321 10.1711M19.4321 7.8451C18.338 7.42104 17.1744 7.204 16.001 7.20508C12.001 7.20508 9.35807 9.07308 7.60107 12.9551M6.08594 16.7391C5.96 18.4581 5.23544 20.0784 4.03809 21.3181" stroke="#19973C" stroke-width="1.5" stroke-linecap="round"/>
<path d="M17.7793 29.1571C19.0343 27.3381 21.2533 24.067 21.3423 20.271C21.3503 19.898 21.3551 19.5051 21.3481 19.1001M21.0093 15.9131C20.5503 13.9411 19.5141 12.2531 17.2681 11.9131C12.8861 11.2391 11.5912 13.7851 11.1602 18.1851C10.8602 21.2151 9.98898 23.6561 8.10498 24.9801" stroke="#19973C" stroke-width="1.5" stroke-linecap="round"/>
<path d="M13.1987 29.1573C16.3447 24.9483 17.763 22.2763 17.271 17.1353" stroke="#19973C" stroke-width="1.5" stroke-linecap="round"/>
</svg>
