<svg width="24" height="24" viewBox="0 0 24 24" fill="none" xmlns="http://www.w3.org/2000/svg">
<path d="M8 14.6254L10.5949 12C13.0459 12 18.7962 12 19.9274 12C21.3414 12 20.493 13.6732 19.9274 14.5099C19.3618 15.3465 19.8714 15.6254 21.0586 17.8563C22.2459 20.0873 20.8524 22.5972 19.079 22.8761C17.7473 23.0855 10.4421 22.9804 6.88567 22.915C5.59942 22.8914 4.20054 22.7287 3.37843 21.7392C1.96585 20.0389 2.44363 17.4889 3.5 16.3534" stroke="#111111" stroke-linecap="round" stroke-linejoin="round"/>
<path d="M5.42157 10L7.61765 12.3226H5.22934C4.46014 12.3226 3.97894 13.1547 4.36264 13.8214L5.90569 16.5025C6.60166 17.7117 8.29068 17.8547 9.18007 16.7797L11.1863 14.3548H17.5" stroke="#111111" stroke-linecap="round" stroke-linejoin="round"/>
<path d="M17.5 10L15.5 12" stroke="#111111" stroke-linecap="round" stroke-linejoin="round"/>
<circle cx="12.5" cy="8" r="1.5" stroke="#111111" stroke-linecap="round" stroke-linejoin="round"/>
<circle cx="8.5" cy="5" r="1.5" stroke="#111111" stroke-linecap="round" stroke-linejoin="round"/>
<circle cx="13.5" cy="3" r="1.5" stroke="#111111" stroke-linecap="round" stroke-linejoin="round"/>
</svg>
