<svg width="24" height="24" viewBox="0 0 24 24" fill="none" xmlns="http://www.w3.org/2000/svg">
<path d="M12.8349 9.92505H11.2949V16.795H12.8349V9.92505Z" fill="#111111"/>
<path d="M12.0699 7.31494C11.7899 7.31494 11.5749 7.39494 11.4249 7.54994C11.2749 7.70494 11.2 7.90494 11.2 8.13994C11.2 8.37494 11.2749 8.56494 11.4249 8.71994C11.5749 8.87494 11.7899 8.94994 12.0699 8.94994C12.3499 8.94994 12.5649 8.87494 12.7149 8.71994C12.8649 8.56494 12.9449 8.36994 12.9449 8.13994C12.9449 7.90994 12.8699 7.70494 12.7149 7.54994C12.5599 7.39494 12.3449 7.31494 12.0699 7.31494Z" fill="#111111"/>
<path d="M12 21C7.04 21 3 16.96 3 12C3 7.04 7.04 3 12 3C16.96 3 21 7.04 21 12C21 16.96 16.96 21 12 21ZM12 4C7.59 4 4 7.59 4 12C4 16.41 7.59 20 12 20C16.41 20 20 16.41 20 12C20 7.59 16.41 4 12 4Z" fill="#111111"/>
</svg>
