<svg width="36" height="36" viewBox="0 0 36 36" fill="none" xmlns="http://www.w3.org/2000/svg">
<g filter="url(#filter0_i_262_8461)">
<path d="M29.025 9.40681C27.6385 7.95858 25.7482 7.09894 23.7455 7.00587C21.7427 6.91279 19.7808 7.59342 18.266 8.90681L17.995 9.14277L17.724 8.90681C16.2108 7.59323 14.2501 6.91241 12.2484 7.0055C10.2468 7.09859 8.35778 7.95846 6.97302 9.40681C5.73825 10.7023 5.03401 12.4136 4.99939 14.2029C4.96477 15.9922 5.60228 17.7295 6.78601 19.0718C7.00293 19.3253 7.23675 19.5639 7.48596 19.7858L17.996 28.9978L28.506 19.7858C28.7542 19.5629 28.988 19.3244 29.2059 19.0718C30.3902 17.7302 31.0287 15.9934 30.9952 14.2041C30.9617 12.4149 30.2587 10.7031 29.025 9.40681Z" fill="#F67F7D"/>
</g>
<defs>
<filter id="filter0_i_262_8461" x="4.99805" y="2.99707" width="25.998" height="26.001" filterUnits="userSpaceOnUse" color-interpolation-filters="sRGB">
<feFlood flood-opacity="0" result="BackgroundImageFix"/>
<feBlend mode="normal" in="SourceGraphic" in2="BackgroundImageFix" result="shape"/>
<feColorMatrix in="SourceAlpha" type="matrix" values="0 0 0 0 0 0 0 0 0 0 0 0 0 0 0 0 0 0 127 0" result="hardAlpha"/>
<feOffset dy="-4"/>
<feGaussianBlur stdDeviation="3"/>
<feComposite in2="hardAlpha" operator="arithmetic" k2="-1" k3="1"/>
<feColorMatrix type="matrix" values="0 0 0 0 0.882353 0 0 0 0 0.407843 0 0 0 0 0.403922 0 0 0 1 0"/>
<feBlend mode="normal" in2="shape" result="effect1_innerShadow_262_8461"/>
</filter>
</defs>
</svg>
