<svg width="24" height="24" viewBox="0 0 24 24" fill="none" xmlns="http://www.w3.org/2000/svg">
<path d="M19.5 2H2V5.5C2 6.525 2.62 7.40501 3.5 7.79001V19.5C3.5 20.88 4.62 22 6 22H18C19.38 22 20.5 20.88 20.5 19.5V7.79001C21.38 7.40501 22 6.525 22 5.5V4.5C22 3.12 20.88 2 19.5 2ZM19 9V19.5C19 20.05 18.55 20.5 18 20.5H6C5.45 20.5 5 20.05 5 19.5V8H19V9ZM20.5 5.5C20.5 6.05 20.05 6.5 19.5 6.5H4.5C3.95 6.5 3.5 6.05 3.5 5.5V3.5H19.5C20.05 3.5 20.5 3.95 20.5 4.5V5.5Z" fill="#707070"/>
<path d="M12.8601 16.5001C12.9051 16.5051 12.9501 16.5051 13.0001 16.5001H14.0001V15.0001H16.0001V16.5001H17.0001C17.2451 16.5351 17.4651 16.3601 17.5001 16.1201C17.5051 16.0801 17.5051 16.0401 17.5001 16.0001V12.5001C17.5001 12.2251 17.2751 12.0001 17.0001 12.0001H16.0001V13.5001H14.0001V12.0001H13.0001C12.7551 11.9651 12.5351 12.1401 12.5001 12.3801C12.4951 12.4201 12.4951 12.4601 12.5001 12.5001V16.0001C12.4601 16.2401 12.6251 16.4601 12.8601 16.5001Z" fill="#707070"/>
<path d="M6.92414 16.4999C6.92414 16.4999 6.97414 16.4999 6.99914 16.4999H7.99914V13.9999L9.49914 15.9999C9.90914 16.3699 10.4491 16.5499 10.9991 16.4999H11.9991V12.4999C12.0041 12.2299 11.7891 12.0049 11.5191 11.9999C11.5141 11.9999 11.5041 11.9999 11.4991 11.9999H10.4991V14.9999L8.49914 12.4999C8.29914 12.1449 7.90414 11.9499 7.49914 11.9999H6.49414L6.49914 15.9999C6.47914 16.2549 6.66914 16.4799 6.92414 16.4999Z" fill="#707070"/>
</svg>
