<svg width="24" height="24" viewBox="0 0 24 24" fill="none" xmlns="http://www.w3.org/2000/svg">
<path d="M18 5.47528H16.355C16.14 3.26528 14.27 1.53027 12 1.53027C9.73 1.53027 7.86 3.26528 7.645 5.47528H3.5V19.9753C3.5 21.3553 4.62 22.4753 6 22.4753H18C19.38 22.4753 20.5 21.3553 20.5 19.9753V7.97528C20.5 6.59528 19.38 5.47528 18 5.47528ZM12 3.02527C13.44 3.02527 14.635 4.09028 14.84 5.47028H9.155C9.365 4.08528 10.555 3.02527 11.995 3.02527H12ZM19 19.9753C19 20.5253 18.55 20.9753 18 20.9753H6C5.45 20.9753 5 20.5253 5 19.9753V6.97528H7.625V8.17029C7.625 8.58529 7.96 8.92029 8.375 8.92029C8.79 8.92029 9.125 8.58529 9.125 8.17029V6.97528H14.88V8.17029C14.88 8.58529 15.215 8.92029 15.63 8.92029C16.045 8.92029 16.38 8.58529 16.38 8.17029V6.97528H18.005C18.555 6.97528 19.005 7.42528 19.005 7.97528V19.9753H19Z" fill="#707070"/>
</svg>
