<svg width="20" height="20" viewBox="0 0 20 20" fill="none" xmlns="http://www.w3.org/2000/svg">
<path d="M10 0C4.475 0 0 4.475 0 10C0 15.525 4.475 20 10 20C15.525 20 20 15.525 20 10C20 4.475 15.525 0 10 0ZM13.28 13.4C13.28 13.76 13.045 14.08 12.7 14.195C12.615 14.22 12.53 14.235 12.445 14.235C12.18 14.235 11.93 14.11 11.77 13.89L8.385 9.19V13.405C8.385 13.865 8.01 14.24 7.55 14.24C7.09 14.24 6.715 13.865 6.715 13.405V6.60501C6.715 6.24501 6.95 5.925 7.295 5.81C7.64 5.7 8.015 5.81999 8.225 6.11499L11.61 10.815V6.60001C11.61 6.14001 11.985 5.76501 12.445 5.76501C12.905 5.76501 13.28 6.14001 13.28 6.60001V13.4Z" fill="#E24949"/>
</svg>
