<svg width="24" height="24" viewBox="0 0 24 24" fill="none" xmlns="http://www.w3.org/2000/svg">
<path d="M9 9.5H6V6.5" stroke="#111111" stroke-width="1.5" stroke-linecap="round" stroke-linejoin="round"/>
<path d="M6.35407 9.13333C6.87724 8.20237 7.64584 7.42213 8.58171 6.87195C9.51758 6.32177 10.5873 6.0213 11.6821 6.00109C12.7769 5.98088 13.8577 6.24166 14.8146 6.7569C15.7715 7.27214 16.5703 8.02346 17.1297 8.93444C17.6892 9.84541 17.9894 10.8835 17.9997 11.9432C18.0101 13.0029 17.7303 14.0464 17.1887 14.9674C16.6471 15.8885 15.8632 16.6543 14.9166 17.187C13.9699 17.7196 12.8944 18.0002 11.7994 18C10.543 17.9912 9.31827 17.6173 8.28415 16.9266C7.25003 16.2359 6.45423 15.2604 6 14.1267" stroke="#111111" stroke-width="1.5" stroke-linecap="round" stroke-linejoin="round"/>
</svg>
