<svg width="20" height="20" viewBox="0 0 20 20" fill="none" xmlns="http://www.w3.org/2000/svg">
<circle cx="10" cy="10" r="10" fill="#FF9900"/>
<path d="M7.75173 13.7618C7.75173 13.7618 10.5605 14.25 13.7967 14.25C14.2484 14.25 14.7952 14.0084 14.8022 13.4932C14.8074 13.0304 14.6205 12.777 14.1342 12.777L14.2518 12.7652C14.7035 12.7652 15.1569 12.3783 15.1864 11.9391C15.2175 11.456 14.9683 11.086 14.4803 11.086H14.5824C15.0341 11.0843 15.5394 10.7364 15.5688 10.2972C15.6 9.81403 15.1639 9.44409 14.6776 9.44409L14.9752 9.42888C15.4269 9.42888 15.7211 9.08596 15.7488 8.64507C15.78 8.16195 15.1985 7.77173 14.7104 7.77173H11.9069C11.6473 7.77173 11.4535 7.53861 11.5088 7.29198C11.7407 6.24971 11.54 5.35441 11.1852 4.6331C10.8703 3.99457 9.88901 4.20066 9.87517 4.90845C9.83017 7.30887 7.75 7.94065 7.75 7.94065" stroke="white" stroke-linecap="round" stroke-linejoin="round"/>
<path d="M6.25 7.25C7.07843 7.25 7.75 7.92157 7.75 8.75V12.75C7.75 13.5784 7.07843 14.25 6.25 14.25H4.75V7.25H6.25Z" stroke="white" stroke-linecap="round"/>
</svg>
