<svg width="24" height="24" viewBox="0 0 24 24" fill="none" xmlns="http://www.w3.org/2000/svg">
<path d="M12 20C13.6569 20 15 18.6569 15 17C15 15.3431 13.6569 14 12 14C10.3431 14 9 15.3431 9 17C9 18.6569 10.3431 20 12 20Z" fill="#9E4C00"/>
<path d="M12.001 7.08498C12.7145 7.08498 13.293 6.50653 13.293 5.79298C13.293 5.07942 12.7145 4.50098 12.001 4.50098C11.2874 4.50098 10.709 5.07942 10.709 5.79298C10.709 6.50653 11.2874 7.08498 12.001 7.08498Z" stroke="#FFAF1E"/>
<path d="M6.75099 10.2279C6.74651 9.64936 6.85619 9.07559 7.07374 8.53946C7.29129 8.00333 7.61243 7.51534 8.01881 7.10349C8.42518 6.69163 8.90879 6.36397 9.44196 6.13925C9.97514 5.91454 10.5474 5.79722 11.126 5.79395H12.876C13.4545 5.79722 14.0267 5.91451 14.5598 6.13916C15.0929 6.36381 15.5764 6.6914 15.9828 7.10315C16.3892 7.5149 16.7103 8.00274 16.928 8.53876C17.1456 9.07477 17.2553 9.64844 17.251 10.2269V12.9629C17.2504 13.4807 17.4538 13.9779 17.817 14.3469L18.436 14.9739C18.7991 15.343 19.0024 15.8402 19.002 16.3579C19.0052 16.8452 18.8147 17.3139 18.4725 17.6608C18.1303 18.0077 17.6643 18.2045 17.177 18.2079H6.82697C6.33968 18.2045 5.8737 18.0077 5.53147 17.6608C5.18924 17.3139 4.9988 16.8452 5.00199 16.3579C5.00155 15.8402 5.20484 15.343 5.56797 14.9739L6.18699 14.3469C6.55021 13.9779 6.75355 13.4807 6.753 12.9629L6.75099 10.2279Z" fill="#FFAF1E"/>
</svg>
