<svg width="24" height="24" viewBox="0 0 24 24" fill="none" xmlns="http://www.w3.org/2000/svg">
<path d="M18.7852 6.53397C18.3715 6.07918 17.8721 5.7102 17.3155 5.44806C16.7589 5.18592 16.156 5.03579 15.5413 5.00621C14.9265 4.97664 14.312 5.06819 13.7328 5.27569C13.1535 5.48318 12.6208 5.80253 12.1652 6.2155L11.9985 6.36544L11.8316 6.2155C10.9526 5.41784 9.80275 4.98351 8.61489 5.00048C7.42704 5.01745 6.29009 5.48448 5.43437 6.30691C4.57865 7.12935 4.06812 8.2457 4.00634 9.42977C3.94456 10.6138 4.33614 11.7771 5.10164 12.6838C5.23513 12.8449 5.37936 12.9967 5.53348 13.1383L12.0005 19L18.4675 13.1383C18.6212 12.9961 18.7657 12.8443 18.9001 12.6838C19.6298 11.8184 20.0203 10.7182 19.9992 9.58734C19.9781 8.45647 19.5467 7.3716 18.7852 6.53397Z" fill="#EC6A6A"/>
</svg>
