<svg width="24" height="24" viewBox="0 0 24 24" fill="none" xmlns="http://www.w3.org/2000/svg">
<path d="M9.12741 11.7321L9.70354 9.90625H9.71296L10.2702 11.7321H9.12741Z" fill="white"/>
<path fill-rule="evenodd" clip-rule="evenodd" d="M3.5 10.843C3.5 7.06493 7.30505 4 11.9976 4H12.0024C16.6949 4 20.5 7.06493 20.5 10.843C20.5 14.621 16.6949 17.686 12.0024 17.686C11.4925 17.6812 10.9779 17.6434 10.4728 17.5679L7.02651 19.9433C6.98402 19.9764 6.93209 20 6.88016 20C6.81407 20 6.7527 19.9717 6.70549 19.9244C6.63467 19.8583 6.61579 19.7544 6.64411 19.6647L7.44195 16.6187C5.07677 15.405 3.5 13.2751 3.5 10.843ZM7.32865 13.3837C7.41835 13.2798 7.46085 13.1429 7.46085 13.0059L7.45613 13.0106V9.76152H8.38143C8.5089 9.76624 8.63634 9.72845 8.7402 9.64817C8.83462 9.5726 8.88657 9.44982 8.88185 9.32703C8.88497 9.3083 8.88396 9.2875 8.88292 9.26601C8.88239 9.25499 8.88185 9.24379 8.88185 9.23259C8.86297 9.12397 8.79688 9.03424 8.70718 8.97757C8.60804 8.9209 8.49473 8.89257 8.38143 8.89257H5.55358C5.4214 8.88785 5.29395 8.93034 5.19009 9.00591C5.09568 9.08147 5.04375 9.20425 5.04847 9.32703C5.05309 9.35473 5.05769 9.38694 5.0623 9.41924L5.06262 9.42149C5.0815 9.53011 5.14287 9.61984 5.23257 9.67651C5.3317 9.73318 5.44501 9.76152 5.55831 9.76152H6.48362V13.0106C6.4789 13.0531 6.48363 13.1004 6.49307 13.1429C6.51195 13.2515 6.57331 13.3554 6.65829 13.4262C6.74799 13.4923 6.85656 13.5254 6.96986 13.5254C7.10204 13.5301 7.23423 13.4782 7.32865 13.3837ZM11.1762 13.5254C11.2942 13.5254 11.4122 13.4782 11.4972 13.3932L11.5019 13.3884C11.5916 13.3081 11.6436 13.1901 11.6436 13.0673C11.6423 13.0594 11.6406 13.0508 11.6388 13.0414C11.634 13.0169 11.6281 12.9868 11.6247 12.9492C11.6011 12.8548 11.5775 12.7603 11.5444 12.6706L10.3595 9.18064C10.3312 9.05785 10.2603 8.94924 10.1565 8.8784C10.0621 8.82173 9.95348 8.79811 9.84018 8.79811H9.60413C9.49555 8.79811 9.39168 8.82173 9.30199 8.87367C9.22173 8.93507 9.15564 9.02007 9.12732 9.11924L7.86212 12.6753C7.83851 12.7414 7.8149 12.8123 7.79602 12.8878C7.77713 12.9492 7.76769 13.0106 7.76769 13.072C7.76769 13.1098 7.77242 13.1476 7.77714 13.1806C7.79603 13.2798 7.84796 13.3695 7.92822 13.4357C8.00847 13.4971 8.11232 13.5301 8.21618 13.5254C8.40974 13.549 8.59385 13.4309 8.6505 13.242L8.90545 12.4817H10.4822L10.7372 13.242C10.7985 13.4262 10.9826 13.5443 11.1762 13.5254ZM14.4053 13.4451C14.5375 13.4498 14.6649 13.4073 14.7688 13.3318L14.7735 13.327C14.868 13.2515 14.9199 13.1287 14.9199 13.0059C14.9192 13.0019 14.9185 12.9978 14.9179 12.9936C14.9137 12.9682 14.9091 12.9398 14.901 12.9114C14.8821 12.8076 14.8207 12.7131 14.7358 12.6564C14.6319 12.595 14.5186 12.5667 14.4006 12.5714H12.7671V9.32232C12.7719 9.27982 12.7671 9.23258 12.7577 9.19008C12.7388 9.08146 12.6775 8.98229 12.5925 8.91145C12.5075 8.83589 12.3942 8.80284 12.2809 8.80284C12.144 8.79339 12.0165 8.85006 11.9221 8.94451C11.8277 9.04841 11.7852 9.18537 11.7852 9.32232V12.8406C11.7852 12.9067 11.7947 12.9776 11.8041 13.0437C11.823 13.1665 11.8938 13.2798 11.9929 13.3507C12.1015 13.4168 12.2337 13.4498 12.3612 13.4451H14.4053ZM18.0829 13.5254C18.2151 13.5301 18.3426 13.4876 18.4417 13.4073H18.4322C18.5361 13.3129 18.5927 13.1712 18.5786 13.0295V12.9965C18.5786 12.9917 18.5774 12.987 18.5762 12.9823C18.575 12.9776 18.5739 12.9728 18.5739 12.9681C18.5408 12.8689 18.4936 12.7698 18.4322 12.68L18.3945 12.6187L17.2048 10.6966L18.2103 9.57733C18.2576 9.52538 18.2953 9.47343 18.3284 9.41204C18.3614 9.35537 18.3756 9.28925 18.3756 9.22314V9.18536C18.3756 9.18112 18.3737 9.17592 18.3716 9.17019C18.369 9.16318 18.3661 9.15538 18.3661 9.14758C18.3473 9.04368 18.2906 8.95868 18.2056 8.90201C18.1207 8.84062 18.0168 8.80755 17.913 8.80755C17.8421 8.80755 17.7713 8.82645 17.7099 8.86423C17.6391 8.91618 17.573 8.97285 17.5211 9.03897L15.9821 10.8383V9.32703C15.9821 9.28453 15.9821 9.23731 15.9726 9.1948C15.9538 9.08619 15.8924 8.98701 15.8074 8.91618C15.7224 8.84061 15.6091 8.80755 15.4958 8.80755C15.3636 8.79811 15.2315 8.85006 15.1371 8.94924C15.0426 9.05313 14.9954 9.19008 15.0049 9.32703V13.0153C15.0001 13.0578 15.0001 13.1051 15.0096 13.1476C15.0332 13.2562 15.0898 13.3601 15.1748 13.4309C15.2645 13.497 15.3778 13.5301 15.4911 13.5301C15.628 13.5348 15.7555 13.4829 15.8499 13.3884C15.9443 13.2845 15.9915 13.1476 15.9821 13.0106V11.9764L16.5203 11.405L17.6486 13.2562C17.691 13.3412 17.7571 13.4168 17.8374 13.4734C17.9129 13.5112 17.9979 13.5254 18.0829 13.5254Z" fill="white"/>
</svg>
