<svg width="24" height="24" viewBox="0 0 24 24" fill="none" xmlns="http://www.w3.org/2000/svg">
<path d="M8.69349 7.51271L7.63753 5.69356C7.61033 5.64556 7.57335 5.60373 7.52895 5.57077C7.48455 5.53781 7.43371 5.51443 7.37969 5.50215C7.32568 5.48986 7.26967 5.48893 7.21528 5.49942C7.16088 5.50991 7.10929 5.53159 7.0638 5.56306C6.06156 6.26975 5.22457 7.18327 4.61005 8.24118C3.99553 9.2991 3.61796 10.4765 3.50315 11.6928C3.49889 11.7473 3.50602 11.802 3.5241 11.8536C3.54217 11.9052 3.57079 11.9524 3.60816 11.9925C3.64552 12.0325 3.69082 12.0644 3.7412 12.0862C3.79158 12.1079 3.84595 12.1191 3.90088 12.1189H6.01182C6.10801 12.1183 6.2006 12.0824 6.27193 12.0182C6.34326 11.9541 6.38835 11.866 6.39861 11.7709C6.49363 11.0321 6.73553 10.3194 7.11023 9.6744C7.48493 9.0294 7.98494 8.46497 8.58113 8.01397C8.65924 7.95814 8.71389 7.87562 8.73462 7.78222C8.75535 7.68882 8.74071 7.5911 8.69349 7.50777" fill="#30CE24"/>
<path d="M14.6753 7.1505L15.7313 5.33135C15.759 5.28426 15.7766 5.23199 15.783 5.17782C15.7894 5.12365 15.7845 5.06874 15.7685 5.01656C15.7525 4.96437 15.7259 4.91604 15.6902 4.87459C15.6546 4.83314 15.6107 4.79948 15.5613 4.77571C14.4436 4.26462 13.2279 4 11.9976 4C10.7674 4 9.55172 4.26462 8.43401 4.77571C8.38446 4.7993 8.34036 4.83283 8.3045 4.8742C8.26863 4.91556 8.24177 4.96387 8.22561 5.01607C8.20945 5.06827 8.20434 5.12323 8.2106 5.1775C8.21686 5.23176 8.23436 5.28414 8.26199 5.33135L9.32094 7.15346C9.36962 7.23612 9.44743 7.29786 9.53928 7.32672C9.63113 7.35558 9.73049 7.34951 9.8181 7.30967C10.5094 7.02163 11.2515 6.87329 12.0011 6.87329C12.7507 6.87329 13.4928 7.02163 14.1841 7.30967C14.2719 7.34919 14.3713 7.355 14.4631 7.32597C14.5549 7.29694 14.6326 7.23514 14.6813 7.15248" fill="#F4C42C"/>
<path d="M16.8887 9.67761C17.2647 10.3257 17.5052 11.0427 17.5957 11.7855C17.605 11.8784 17.6485 11.9646 17.7179 12.0276C17.7873 12.0905 17.8776 12.1258 17.9715 12.1265H20.1103C20.1637 12.127 20.2166 12.1164 20.2657 12.0955C20.3148 12.0745 20.3589 12.0438 20.3955 12.005C20.432 11.9663 20.46 11.9205 20.4779 11.8704C20.4957 11.8204 20.5029 11.7672 20.4991 11.7143C20.3908 10.4893 20.0143 9.30281 19.3959 8.23792C18.7775 7.17303 17.9323 6.25557 16.9195 5.54991C16.8753 5.52037 16.8255 5.50021 16.7731 5.49067C16.7207 5.48114 16.6669 5.48244 16.615 5.4945C16.5631 5.50656 16.5143 5.52912 16.4716 5.56076C16.4289 5.59241 16.3932 5.63247 16.3667 5.67844L15.2978 7.52132C15.2514 7.6025 15.2368 7.69788 15.2568 7.78913C15.2768 7.88037 15.33 7.96105 15.4062 8.01565C16.0082 8.46436 16.5125 9.02972 16.8887 9.67761Z" fill="#FF7F29"/>
<path d="M7.10652 15.2917C6.73137 14.6476 6.49123 13.9346 6.40055 13.1957C6.38992 13.1001 6.34457 13.0115 6.273 12.9467C6.20143 12.882 6.10855 12.8453 6.01177 12.8438H3.89885C3.84401 12.8436 3.78973 12.8547 3.73942 12.8764C3.68912 12.8981 3.64387 12.9299 3.60652 12.9699C3.56917 13.0098 3.54052 13.057 3.52238 13.1084C3.50425 13.1599 3.49701 13.2145 3.50112 13.2689C3.61112 14.4888 3.98719 15.6702 4.60315 16.7308C5.21911 17.7915 6.06016 18.7059 7.06774 19.4105C7.11322 19.4412 7.16461 19.4622 7.21867 19.4722C7.27273 19.4822 7.32829 19.4809 7.38183 19.4685C7.43537 19.456 7.48573 19.4327 7.52973 19.3999C7.57374 19.3671 7.61043 19.3256 7.63749 19.278L8.69345 17.4579C8.74055 17.3737 8.75512 17.2753 8.73443 17.1812C8.71375 17.0871 8.65922 17.0037 8.58109 16.9467C7.98382 16.4988 7.48335 15.936 7.1095 15.2917" fill="#367EE8"/>
<path d="M15.278 17.4154L16.3857 19.3265C16.4097 19.3676 16.4419 19.4034 16.4804 19.4317C16.5188 19.4599 16.5627 19.48 16.6093 19.4908C16.6559 19.5015 16.7042 19.5027 16.7512 19.4941C16.7983 19.4856 16.8431 19.4676 16.8828 19.4411C17.9075 18.7299 18.7624 17.8036 19.3873 16.7277C20.0122 15.6517 20.3918 14.4524 20.4992 13.2145C20.5025 13.167 20.4959 13.1193 20.4798 13.0744C20.4637 13.0295 20.4385 12.9884 20.4058 12.9536C20.3731 12.9189 20.3335 12.8911 20.2895 12.8722C20.2455 12.8533 20.1981 12.8436 20.1502 12.8438H17.9358C17.8523 12.8446 17.7721 12.876 17.7104 12.932C17.6488 12.988 17.6101 13.0647 17.6017 13.1473C17.5109 13.9021 17.2668 14.6307 16.8843 15.2889C16.5018 15.9471 15.9888 16.5212 15.3765 16.9764C15.3081 17.0243 15.26 17.0957 15.2416 17.1768C15.2233 17.2579 15.2359 17.343 15.277 17.4154" fill="#FF3333"/>
<path d="M12.0595 19L13.4457 17.0047C13.4931 16.9403 13.5104 16.8615 13.4939 16.7855L11.9941 10L10.5061 16.7846C10.4896 16.8605 10.5069 16.9393 10.5543 17.0037L11.9373 18.999L12.0595 19Z" fill="#8F8F8F"/>
</svg>
