<svg width="24" height="24" viewBox="0 0 24 24" fill="none" xmlns="http://www.w3.org/2000/svg">
<path d="M7.24059 10.1436H4.05859V18.3206H7.24059V10.1436Z" fill="#8BCCFF"/>
<path d="M13.6051 10.144H10.4231V18.321H13.6051V10.144Z" fill="#8BCCFF"/>
<path d="M19.9691 10.144H16.7871V18.321H19.9691V10.144Z" fill="#8BCCFF"/>
<path d="M11.699 2.57188L2.37602 7.22888C2.26274 7.28553 2.16747 7.37259 2.10088 7.48033C2.03429 7.58807 1.99902 7.71223 1.99902 7.83888V9.46088C1.99929 9.64159 2.07126 9.8148 2.19913 9.94248C2.327 10.0702 2.50032 10.1419 2.68102 10.1419H21.319C21.4994 10.1414 21.6722 10.0694 21.7996 9.94178C21.9271 9.81415 21.9988 9.64124 21.999 9.46088V7.83888C21.9991 7.7122 21.9639 7.588 21.8973 7.48024C21.8307 7.37248 21.7354 7.28543 21.622 7.22888L12.305 2.57188C12.2103 2.52461 12.1059 2.5 12 2.5C11.8942 2.5 11.7897 2.52461 11.695 2.57188" fill="#2A57D8"/>
<path d="M21.632 21.5008H2.34402C2.25253 21.5008 2.16477 21.4645 2.10007 21.3998C2.03537 21.3351 1.99902 21.2473 1.99902 21.1558V19.6998C1.99876 19.5186 2.03424 19.3391 2.10342 19.1715C2.1726 19.004 2.27414 18.8517 2.40222 18.7235C2.5303 18.5952 2.6824 18.4934 2.84984 18.424C3.01728 18.3546 3.19676 18.3188 3.37802 18.3188H20.599C20.9648 18.3188 21.3155 18.4641 21.5741 18.7227C21.8327 18.9814 21.978 19.3321 21.978 19.6978V21.1548C21.978 21.2463 21.9417 21.3341 21.877 21.3988C21.8123 21.4635 21.7245 21.4998 21.633 21.4998" fill="#456FFF"/>
<path d="M13.1411 7.19069C13.1411 7.41532 13.0745 7.63492 12.9498 7.82171C12.825 8.0085 12.6476 8.15411 12.4401 8.24012C12.2326 8.32613 12.0042 8.34868 11.7839 8.30493C11.5636 8.26118 11.3611 8.15309 11.2022 7.99431C11.0433 7.83554 10.935 7.63322 10.8911 7.41292C10.8471 7.19263 10.8695 6.96425 10.9553 6.75665C11.0412 6.54906 11.1866 6.37157 11.3733 6.24662C11.56 6.12168 11.7795 6.05489 12.0041 6.05469C12.1534 6.05456 12.3012 6.08384 12.4392 6.14087C12.5771 6.1979 12.7025 6.28156 12.8081 6.38706C12.9137 6.49256 12.9974 6.61784 13.0546 6.75573C13.1117 6.89362 13.1411 7.04142 13.1411 7.19069Z" fill="#E0B017"/>
</svg>
