<svg width="16" height="16" viewBox="0 0 16 16" fill="none" xmlns="http://www.w3.org/2000/svg">
<path d="M12.3243 15.4992C12.2393 15.4992 12.1593 15.4792 12.0843 15.4391L8 13.1824L3.91567 15.4391C3.75069 15.5293 3.54073 15.5193 3.38575 15.409C3.23078 15.2987 3.15078 15.1081 3.18077 14.9175L3.96565 10.1033L0.64117 6.69828C0.511191 6.56288 0.466208 6.3673 0.526199 6.18677C0.586189 6.00624 0.741158 5.88088 0.926128 5.85079L5.50041 5.15373L7.55006 0.785847C7.63505 0.610329 7.81003 0.5 8 0.5C8.18997 0.5 8.36993 0.610329 8.44991 0.785847L10.4996 5.15373L15.0738 5.85079C15.2588 5.88088 15.4138 6.01125 15.4738 6.18677C15.5338 6.3673 15.4888 6.56288 15.3588 6.69828L12.0344 10.1033L12.8192 14.9175C12.8492 15.1081 12.7692 15.2987 12.6143 15.409C12.5293 15.4692 12.4243 15.4992 12.3243 15.4992ZM7.995 12.1042C8.07999 12.1042 8.15996 12.1243 8.23495 12.1644L11.6594 14.06L10.9995 10.0131C10.9745 9.8576 11.0245 9.69712 11.1345 9.58178L13.954 6.69327L10.0797 6.10153C9.91468 6.07646 9.7747 5.97113 9.70472 5.82069L7.995 2.17494L6.28528 5.82069C6.21529 5.97113 6.07532 6.07646 5.91034 6.10153L2.03597 6.69327L4.85549 9.58178C4.96547 9.69712 5.01547 9.8576 4.99048 10.0131L4.33058 14.06L7.75505 12.1644C7.83004 12.1243 7.91501 12.1042 7.995 12.1042Z" fill="#B3B3B3"/>
</svg>
