<svg width="32" height="32" viewBox="0 0 32 32" fill="none" xmlns="http://www.w3.org/2000/svg">
<g clip-path="url(#clip0_266_47038)">
<mask id="mask0_266_47038" style="mask-type:luminance" maskUnits="userSpaceOnUse" x="0" y="0" width="32" height="32">
<path d="M15.6468 0C11.8073 0.08 9.83397 0.3808 8.007 1.0096C6.23945 1.61638 4.64853 2.6492 3.37478 4.0168C2.31644 5.24541 1.5059 6.6673 0.987877 8.204C0.37932 10.1305 0.0559342 12.1358 0.0279968 14.156C2.59248e-07 14.9504 0 15.0608 0 16C0 16.9392 5.06576e-08 17.0488 0.0255969 17.84C0.0534678 19.8605 0.376855 21.866 0.985477 23.7928C1.50362 25.3312 2.31502 26.7545 3.37478 27.984C4.64858 29.3514 6.23951 30.3839 8.007 30.9904C9.83397 31.6192 11.8057 31.9208 15.6468 32H16.3556C20.1951 31.92 22.1676 31.6192 23.9946 30.9904C25.7622 30.3837 27.3534 29.3512 28.6276 27.984C29.6862 26.7554 30.4965 25.3331 31.0137 23.796C31.6227 21.8693 31.9461 19.8637 31.9736 17.8432C32 17.0488 32 16.94 32 16.0032C32 15.0664 32 14.9536 31.9736 14.1592C31.9461 12.139 31.6227 10.1337 31.0137 8.2072C30.4963 6.6704 29.686 5.24846 28.6276 4.02C27.3545 2.65171 25.7642 1.61783 23.997 1.0096C22.1676 0.3808 20.1959 0.08 16.3556 0H15.6468Z" fill="white"/>
</mask>
<g mask="url(#mask0_266_47038)">
<path d="M36.5618 0H-4.55945V32H36.5618V0Z" fill="white"/>
<path d="M15.9979 7.97607C17.6233 7.97655 19.212 8.45902 20.5631 9.36248C21.9143 10.2659 22.9673 11.5498 23.5889 13.0518C24.2105 14.5537 24.3729 16.2063 24.0555 17.8005C23.738 19.3948 22.955 20.8591 21.8055 22.0083C20.656 23.1575 19.1916 23.94 17.5975 24.2568C16.0033 24.5737 14.351 24.4106 12.8495 23.7884C11.348 23.1661 10.0647 22.1125 9.16183 20.7608C8.25901 19.4091 7.77722 17.82 7.77737 16.1945C7.77822 14.0145 8.64469 11.9242 10.1863 10.383C11.7278 8.84184 13.8183 7.97607 15.9979 7.97607Z" fill="#ED1C2F"/>
<path d="M16.3447 0.5L17.6914 0.540039C20.4297 0.650313 22.0533 0.912786 23.5029 1.37305L23.834 1.48242C25.5174 2.06184 27.033 3.0455 28.248 4.34668H28.249C29.138 5.37863 29.8452 6.55258 30.3408 7.81836L30.54 8.36719C31.0582 10.0093 31.3638 11.71 31.4502 13.4277L31.4736 14.166V14.1758C31.4998 14.9627 31.5 15.0696 31.5 16.0029C31.5 16.9363 31.4998 17.0395 31.4736 17.8262V17.8359C31.4469 19.8046 31.1325 21.7592 30.54 23.6367C30.0439 25.1111 29.2658 26.4745 28.251 27.6533C27.1107 28.8735 25.7069 29.8149 24.1475 30.4043L23.832 30.5176C22.0767 31.1217 20.1634 31.4204 16.3447 31.5H15.6572C11.8373 31.4212 9.92528 31.1217 8.16992 30.5176H8.16895C6.48512 29.9397 4.96855 28.9577 3.75293 27.6572H3.75391C2.73634 26.4767 1.9565 25.1099 1.45898 23.6328C0.866986 21.7554 0.552543 19.8014 0.525391 17.833V17.8242L0.50293 16.9688C0.499769 16.7278 0.5 16.4679 0.5 16C0.5 15.0644 0.499632 14.9602 0.527344 14.1738L0.52832 14.1631C0.555541 12.1947 0.869818 10.2407 1.46191 8.36328C1.89716 7.0723 2.54729 5.86567 3.38379 4.79395L3.75391 4.34277C4.96934 3.04255 6.48546 2.06041 8.16895 1.48242H8.16992C9.70586 0.953808 11.3629 0.658775 14.3115 0.540039L15.6572 0.5H16.3447Z" stroke="#F6F6F6"/>
</g>
</g>
<defs>
<clipPath id="clip0_266_47038">
<rect width="32" height="32" fill="white"/>
</clipPath>
</defs>
</svg>
