<svg width="32" height="32" viewBox="0 0 32 32" fill="none" xmlns="http://www.w3.org/2000/svg">
<g clip-path="url(#clip0_266_47233)">
<mask id="mask0_266_47233" style="mask-type:luminance" maskUnits="userSpaceOnUse" x="0" y="0" width="32" height="32">
<path d="M16 0H15.6432C11.8034 0.079996 9.83071 0.379981 8.0036 1.00875C6.23641 1.61563 4.64571 2.64807 3.37183 4.015C2.31397 5.24411 1.50368 6.66613 0.985551 8.20279C0.377285 10.1293 0.0538816 12.1344 0.0255984 14.1545C-3.30789e-07 14.9489 0 15.0576 0 15.9944C0 16.9312 -3.30789e-07 17.044 0.0255984 17.8391C0.0538793 19.8589 0.377283 21.8638 0.985551 23.79C1.50296 25.327 2.31333 26.7491 3.37183 27.9778C4.64594 29.3458 6.23721 30.3791 8.0052 30.9865C9.83231 31.616 11.8042 31.9168 15.6448 31.996H16.3544C20.1942 31.916 22.1669 31.616 23.994 30.9865C25.7619 30.3797 27.3532 29.347 28.6274 27.9794C29.6859 26.7507 30.4962 25.3286 31.0136 23.7916C31.6223 21.8654 31.9457 19.8606 31.9736 17.8407C32 17.0455 32 16.9368 32 15.996C32 15.0552 32 14.9473 31.9736 14.1561C31.9457 12.136 31.6223 10.1308 31.0136 8.20439C30.4955 6.66773 29.6852 5.24571 28.6274 4.0166C27.3532 2.64927 25.7619 1.61679 23.994 1.01035C22.1669 0.379981 20.195 0.0791961 16.3544 0H16Z" fill="white"/>
</mask>
<g mask="url(#mask0_266_47233)">
<path d="M40.9827 -0.691895H-9.2356V32.7616H40.9827V-0.691895Z" fill="white"/>
<path d="M40.9827 21.6094H-9.2356V32.7616H40.9827V21.6094Z" fill="#23AE49"/>
<path d="M40.9827 -0.691895H-9.2356V10.4579H40.9827V-0.691895Z" fill="#F89C4D"/>
<path d="M15.2912 11.6122C14.4167 11.7278 13.5961 12.1001 12.9331 12.682C12.2702 13.264 11.7947 14.0294 11.5667 14.8815C11.3387 15.7337 11.3685 16.6343 11.6524 17.4695C11.9362 18.3047 12.4613 19.037 13.1613 19.5739C13.8613 20.1107 14.7047 20.4279 15.5849 20.4854C16.4652 20.5429 17.3427 20.3381 18.1066 19.897C18.8705 19.4558 19.4864 18.798 19.8765 18.0068C20.2666 17.2157 20.4133 16.3266 20.2981 15.452C20.2217 14.8711 20.0314 14.3109 19.7384 13.8035C19.4453 13.296 19.0552 12.8513 18.5902 12.4948C18.1252 12.1382 17.5946 11.8767 17.0285 11.7253C16.4624 11.5738 15.8721 11.5354 15.2912 11.6122ZM16.3823 19.9022C15.6171 20.0029 14.8391 19.8744 14.1468 19.533C13.4546 19.1915 12.8791 18.6524 12.4933 17.9839C12.1075 17.3154 11.9286 16.5474 11.9792 15.7772C12.0299 15.007 12.3079 14.2691 12.778 13.6569C13.248 13.0446 13.8891 12.5856 14.6202 12.3378C15.3512 12.0899 16.1393 12.0645 16.8848 12.2646C17.6302 12.4647 18.2996 12.8814 18.8083 13.462C19.3169 14.0426 19.6419 14.7611 19.7422 15.5264C19.8761 16.5521 19.5976 17.589 18.9676 18.4094C18.3376 19.2299 17.4078 19.7668 16.3823 19.9022Z" fill="#271D70"/>
<path d="M15.7712 15.26C15.6178 15.2801 15.4738 15.3452 15.3575 15.4471C15.2411 15.5491 15.1576 15.6832 15.1176 15.8326C15.0775 15.982 15.0827 16.14 15.1325 16.2864C15.1823 16.4329 15.2744 16.5613 15.3972 16.6554C15.5199 16.7494 15.6679 16.805 15.8222 16.8149C15.9766 16.8249 16.1305 16.7888 16.2643 16.7112C16.3981 16.6337 16.506 16.5182 16.5741 16.3793C16.6423 16.2405 16.6677 16.0845 16.6471 15.9312C16.6197 15.7262 16.512 15.5404 16.3479 15.4146C16.1837 15.2888 15.9763 15.2332 15.7712 15.26Z" fill="#271D70"/>
<path d="M15.3632 12.165L15.8015 14.4705L15.8151 15.5905L15.5367 14.5073L15.3632 12.165Z" fill="#271D70"/>
<path d="M16.3824 19.9025L15.944 17.5994L15.9304 16.4795L16.2104 17.5658L16.3824 19.9025Z" fill="#271D70"/>
<path d="M14.3784 12.4272L15.4 14.5391L15.7016 15.6183L15.152 14.6407L14.3784 12.4272Z" fill="#271D70"/>
<path d="M17.3678 19.6405L16.3471 17.527L16.0431 16.4463L16.5943 17.4262L17.3678 19.6405Z" fill="#271D70"/>
<path d="M13.4961 12.9385L15.0288 14.7136L15.6016 15.6807L14.816 14.8752L13.4961 12.9385Z" fill="#271D70"/>
<path d="M18.2511 19.1295L16.7183 17.3536L16.1448 16.3872L16.9311 17.1872L18.2511 19.1295Z" fill="#271D70"/>
<path d="M12.2642 14.541L14.4808 15.3122L15.4608 15.8633L14.3785 15.561L12.2642 14.541Z" fill="#271D70"/>
<path d="M19.4829 17.5274L17.2662 16.7563L16.2831 16.2051L17.3654 16.5091L19.4829 17.5274Z" fill="#271D70"/>
<path d="M12.0001 15.5264L14.3416 15.6968L15.4304 15.9735L14.3104 15.9647L12.0001 15.5264Z" fill="#271D70"/>
<path d="M19.7454 16.5431L17.4031 16.3695L16.3143 16.0903L17.4399 16.1071L19.7454 16.5431Z" fill="#271D70"/>
<path d="M12.2642 17.5271L14.3785 16.5071L15.4608 16.2031L14.4808 16.7543L12.2642 17.5271Z" fill="#271D70"/>
<path d="M19.4829 14.541L17.3694 15.561L16.2831 15.8674L17.2622 15.3162L19.4829 14.541Z" fill="#271D70"/>
<path d="M12.7753 18.4097L14.5512 16.8778L15.5191 16.3066L14.7192 17.0922L12.7753 18.4097Z" fill="#271D70"/>
<path d="M18.9718 13.6577L17.1935 15.1912L16.2272 15.7624L17.0271 14.9784L18.9718 13.6577Z" fill="#271D70"/>
<path d="M14.3784 19.6405L15.152 17.4262L15.7016 16.4463L15.4032 17.527L14.3784 19.6405Z" fill="#271D70"/>
<path d="M17.3678 12.4272L16.5951 14.6431L16.0431 15.6207L16.3463 14.5415L17.3678 12.4272Z" fill="#271D70"/>
<path d="M15.3632 19.9025L15.5367 17.5634L15.8151 16.4771L15.8015 17.597L15.3632 19.9025Z" fill="#271D70"/>
<path d="M16.3823 12.165L16.2103 14.5073L15.9303 15.5953L15.9439 14.4753L16.3823 12.165Z" fill="#271D70"/>
<path d="M19.7453 15.5264L17.4399 15.9647L16.3159 15.9735L17.4047 15.6968L19.7453 15.5264Z" fill="#271D70"/>
<path d="M12.0001 16.5432L14.3072 16.1072L15.4272 16.0928L14.3384 16.372L12.0001 16.5432Z" fill="#271D70"/>
<path d="M18.9717 18.4097L17.031 17.0922L16.2311 16.3066L17.1974 16.8778L18.9717 18.4097Z" fill="#271D70"/>
<path d="M12.7753 13.6577L14.7152 14.9784L15.5151 15.7624L14.5472 15.1912L12.7753 13.6577Z" fill="#271D70"/>
<path d="M13.4961 19.1295L14.816 17.1896L15.6016 16.3896L15.0288 17.356L13.4961 19.1295Z" fill="#271D70"/>
<path d="M18.2511 12.9385L16.9311 14.8752L16.1448 15.6807L16.7183 14.7136L18.2511 12.9385Z" fill="#271D70"/>
<path d="M14.8112 12.0745C14.7615 12.0888 14.7193 12.1218 14.6936 12.1666C14.6679 12.2114 14.6607 12.2645 14.6736 12.3145C14.6803 12.3393 14.6919 12.3624 14.7076 12.3827C14.7233 12.403 14.7429 12.42 14.7652 12.4327C14.7875 12.4454 14.8121 12.4536 14.8375 12.4568C14.863 12.46 14.8888 12.4581 14.9136 12.4513C14.9386 12.4449 14.962 12.4336 14.9825 12.418C15.0031 12.4024 15.0203 12.3828 15.0331 12.3604C15.0459 12.338 15.0541 12.3133 15.0572 12.2877C15.0603 12.2621 15.0583 12.2361 15.0512 12.2113C15.0378 12.161 15.0051 12.118 14.9601 12.0917C14.9151 12.0655 14.8615 12.0582 14.8112 12.0713" fill="#271D70"/>
<path d="M16.8327 19.6144C16.7953 19.6243 16.7616 19.6452 16.7361 19.6743C16.7105 19.7034 16.6941 19.7394 16.689 19.7778C16.6839 19.8163 16.6902 19.8553 16.7073 19.8901C16.7244 19.9249 16.7514 19.9538 16.7849 19.9733C16.8184 19.9927 16.857 20.0018 16.8956 19.9993C16.9343 19.9969 16.9714 19.983 17.0022 19.9595C17.033 19.936 17.0561 19.9039 17.0687 19.8672C17.0812 19.8306 17.0826 19.791 17.0727 19.7536C17.0592 19.7034 17.0264 19.6605 16.9814 19.6345C16.9364 19.6084 16.883 19.6012 16.8327 19.6144Z" fill="#271D70"/>
<path d="M13.8225 12.4843C13.7776 12.5105 13.745 12.5534 13.7315 12.6035C13.718 12.6537 13.7248 12.7071 13.7505 12.7523C13.7635 12.7744 13.7808 12.7938 13.8013 12.8093C13.8219 12.8247 13.8453 12.836 13.8702 12.8424C13.8951 12.8488 13.921 12.8502 13.9464 12.8465C13.9719 12.8429 13.9963 12.8342 14.0184 12.8211C14.0407 12.8087 14.0602 12.792 14.0758 12.772C14.0914 12.7519 14.1028 12.729 14.1094 12.7044C14.116 12.6799 14.1175 12.6542 14.114 12.6291C14.1105 12.6039 14.1019 12.5797 14.0888 12.5579C14.0763 12.5355 14.0594 12.5158 14.0392 12.4999C14.0189 12.484 13.9958 12.4724 13.971 12.4655C13.9462 12.4587 13.9203 12.4568 13.8948 12.46C13.8694 12.4633 13.8447 12.4715 13.8225 12.4843Z" fill="#271D70"/>
<path d="M17.7286 19.2437C17.6834 19.2698 17.6505 19.3128 17.637 19.3632C17.6234 19.4136 17.6305 19.4673 17.6566 19.5125C17.6841 19.5545 17.7266 19.5844 17.7755 19.5959C17.8243 19.6075 17.8758 19.5999 17.9192 19.5746C17.9626 19.5494 17.9946 19.5085 18.0087 19.4603C18.0229 19.4121 18.0179 19.3603 17.995 19.3157C17.9692 19.2708 17.9267 19.238 17.8767 19.2245C17.8268 19.211 17.7735 19.2179 17.7286 19.2437Z" fill="#271D70"/>
<path d="M12.9737 13.137C12.9555 13.1551 12.9411 13.1766 12.9312 13.2002C12.9213 13.2239 12.9163 13.2493 12.9163 13.275C12.9163 13.3006 12.9213 13.326 12.9312 13.3497C12.9411 13.3734 12.9555 13.3949 12.9737 13.413C12.9917 13.4317 13.0133 13.4466 13.0371 13.4569C13.0609 13.4672 13.0866 13.4726 13.1125 13.4729C13.1385 13.4732 13.1642 13.4682 13.1883 13.4584C13.2123 13.4486 13.2341 13.4341 13.2525 13.4157C13.2708 13.3974 13.2854 13.3756 13.2952 13.3515C13.305 13.3275 13.3099 13.3017 13.3097 13.2758C13.3094 13.2498 13.304 13.2242 13.2937 13.2003C13.2834 13.1765 13.2684 13.155 13.2497 13.137C13.2319 13.1184 13.2105 13.1036 13.1867 13.0935C13.163 13.0833 13.1375 13.0781 13.1117 13.0781C13.0859 13.0781 13.0604 13.0833 13.0367 13.0935C13.013 13.1036 12.9916 13.1184 12.9737 13.137Z" fill="#271D70"/>
<path d="M18.4966 18.6551C18.46 18.6917 18.4395 18.7413 18.4395 18.7931C18.4395 18.8448 18.46 18.8945 18.4966 18.9311C18.5336 18.9671 18.5833 18.9873 18.635 18.9873C18.6867 18.9873 18.7363 18.9671 18.7734 18.9311C18.7915 18.9129 18.8059 18.8913 18.8157 18.8676C18.8254 18.8439 18.8305 18.8185 18.8304 18.7928C18.8304 18.7671 18.8253 18.7417 18.8154 18.718C18.8056 18.6943 18.7912 18.6728 18.773 18.6547C18.7548 18.6366 18.7332 18.6222 18.7095 18.6124C18.6858 18.6026 18.6604 18.5976 18.6347 18.5977C18.609 18.5977 18.5836 18.6028 18.5599 18.6126C18.5362 18.6225 18.5147 18.6369 18.4966 18.6551Z" fill="#271D70"/>
<path d="M12.3209 13.984C12.2953 14.0292 12.2885 14.0826 12.3019 14.1328C12.3154 14.1829 12.3481 14.2258 12.3929 14.252C12.4264 14.2711 12.4647 14.2798 12.5031 14.2771C12.5416 14.2744 12.5783 14.2604 12.6088 14.2369C12.6393 14.2133 12.6621 14.1813 12.6744 14.1448C12.6867 14.1083 12.688 14.069 12.678 14.0318C12.668 13.9946 12.6472 13.9611 12.6183 13.9357C12.5893 13.9103 12.5535 13.894 12.5153 13.8889C12.4772 13.8838 12.4383 13.8901 12.4037 13.9071C12.3691 13.924 12.3403 13.9508 12.3209 13.984Z" fill="#271D70"/>
<path d="M19.083 17.8872C19.0634 17.9205 19.0542 17.9588 19.0565 17.9974C19.0587 18.0359 19.0724 18.0729 19.0957 18.1037C19.119 18.1345 19.1509 18.1576 19.1873 18.1703C19.2238 18.183 19.2632 18.1845 19.3005 18.1748C19.3379 18.1651 19.3715 18.1445 19.3972 18.1156C19.4228 18.0868 19.4394 18.051 19.4447 18.0128C19.45 17.9745 19.4438 17.9356 19.427 17.9008C19.4102 17.8661 19.3834 17.8371 19.3502 17.8176C19.3054 17.7916 19.2523 17.7843 19.2022 17.7973C19.1522 17.8104 19.1093 17.8427 19.083 17.8872Z" fill="#271D70"/>
<path d="M11.9114 14.9738C11.8979 15.0239 11.9049 15.0773 11.9308 15.1222C11.9566 15.1671 11.9993 15.1999 12.0494 15.2134C12.0994 15.2269 12.1528 15.2199 12.1977 15.194C12.2427 15.1681 12.2755 15.1255 12.289 15.0754C12.2956 15.0506 12.2974 15.0247 12.294 14.9993C12.2907 14.9738 12.2824 14.9493 12.2696 14.927C12.2568 14.9048 12.2397 14.8853 12.2193 14.8696C12.199 14.854 12.1758 14.8425 12.151 14.8358C12.1262 14.8291 12.1003 14.8274 12.0749 14.8307C12.0494 14.8341 12.0248 14.8424 12.0026 14.8552C11.9803 14.868 11.9608 14.8851 11.9452 14.9054C11.9295 14.9258 11.918 14.949 11.9114 14.9738Z" fill="#271D70"/>
<path d="M19.4565 16.9943C19.4491 17.0192 19.4468 17.0453 19.4498 17.0711C19.4528 17.0968 19.461 17.1217 19.4739 17.1442C19.4869 17.1667 19.5043 17.1862 19.5251 17.2017C19.5459 17.2172 19.5697 17.2283 19.5949 17.2343C19.6196 17.2415 19.6455 17.2436 19.671 17.2406C19.6965 17.2376 19.7212 17.2295 19.7435 17.2169C19.7659 17.2042 19.7855 17.1872 19.8012 17.1668C19.8169 17.1465 19.8283 17.1232 19.8349 17.0983C19.8415 17.0735 19.8431 17.0477 19.8397 17.0223C19.8362 16.9969 19.8279 16.9724 19.815 16.9502C19.8021 16.928 19.7849 16.9086 19.7646 16.893C19.7442 16.8775 19.7209 16.8661 19.6961 16.8595C19.6713 16.853 19.6455 16.8514 19.6201 16.8548C19.5946 16.8582 19.5701 16.8666 19.548 16.8795C19.5258 16.8924 19.5064 16.9095 19.4908 16.9299C19.4753 16.9503 19.4639 16.9735 19.4573 16.9983" fill="#271D70"/>
<path d="M11.7714 16.0329C11.7709 16.0718 11.782 16.1099 11.8032 16.1425C11.8245 16.175 11.8549 16.2005 11.8907 16.2157C11.9265 16.2309 11.9659 16.2351 12.0041 16.2279C12.0423 16.2206 12.0774 16.2021 12.1051 16.1748C12.1327 16.1475 12.1516 16.1126 12.1594 16.0745C12.1672 16.0364 12.1634 15.9969 12.1487 15.9609C12.1339 15.925 12.1088 15.8942 12.0765 15.8726C12.0442 15.8509 12.0062 15.8394 11.9674 15.8394C11.9158 15.8394 11.8663 15.8597 11.8296 15.8959C11.7929 15.9321 11.772 15.9814 11.7714 16.0329Z" fill="#271D70"/>
<path d="M19.5837 16.0329C19.5834 16.0716 19.5946 16.1095 19.6159 16.1418C19.6371 16.1741 19.6675 16.1994 19.7031 16.2144C19.7388 16.2294 19.7781 16.2335 19.816 16.2262C19.854 16.2188 19.8889 16.2004 19.9164 16.1731C19.9438 16.1459 19.9626 16.1111 19.9702 16.0732C19.9779 16.0353 19.9741 15.996 19.9594 15.9602C19.9447 15.9245 19.9197 15.8939 19.8875 15.8724C19.8554 15.8508 19.8176 15.8394 19.7789 15.8394C19.7274 15.8394 19.678 15.8597 19.6415 15.896C19.6049 15.9322 19.5842 15.9815 19.5837 16.0329Z" fill="#271D70"/>
<path d="M11.9113 17.0944C11.9246 17.1445 11.9572 17.1872 12.0019 17.2133C12.0467 17.2393 12.1 17.2465 12.1501 17.2332C12.2002 17.22 12.2429 17.1873 12.2689 17.1426C12.295 17.0978 12.3021 17.0445 12.2889 16.9944C12.2756 16.9444 12.243 16.9016 12.1982 16.8756C12.1534 16.8495 12.1002 16.8424 12.0501 16.8556C12 16.8689 11.9573 16.9015 11.9312 16.9463C11.9052 16.9911 11.898 17.0443 11.9113 17.0944Z" fill="#271D70"/>
<path d="M19.4565 15.0752C19.4706 15.125 19.5036 15.1673 19.5484 15.193C19.5933 15.2188 19.6465 15.2259 19.6965 15.2128C19.7214 15.2061 19.7446 15.1946 19.765 15.1789C19.7853 15.1633 19.8024 15.1437 19.8152 15.1214C19.828 15.0991 19.8362 15.0745 19.8395 15.049C19.8427 15.0235 19.8409 14.9976 19.8341 14.9728C19.8275 14.948 19.816 14.9248 19.8003 14.9045C19.7847 14.8841 19.7652 14.867 19.7429 14.8542C19.7207 14.8414 19.6961 14.8331 19.6706 14.8298C19.6452 14.8264 19.6193 14.8282 19.5945 14.8348C19.5697 14.8415 19.5465 14.853 19.5262 14.8687C19.5058 14.8843 19.4887 14.9038 19.4759 14.9261C19.4631 14.9483 19.4548 14.9729 19.4515 14.9983C19.4482 15.0238 19.4499 15.0504 19.4565 15.0752Z" fill="#271D70"/>
<path d="M12.321 18.0822C12.34 18.1159 12.3686 18.1432 12.4032 18.1606C12.4378 18.178 12.4767 18.1847 12.5151 18.1799C12.5535 18.1751 12.5896 18.159 12.6189 18.1336C12.6481 18.1083 12.6691 18.0748 12.6793 18.0374C12.6894 18.0001 12.6883 17.9605 12.6759 17.9239C12.6635 17.8872 12.6406 17.855 12.6099 17.8314C12.5792 17.8079 12.5422 17.7939 12.5036 17.7914C12.4649 17.7889 12.4264 17.798 12.393 17.8174C12.3708 17.83 12.3514 17.8469 12.3357 17.867C12.3201 17.8872 12.3086 17.9102 12.3019 17.9348C12.2953 17.9594 12.2935 17.9851 12.2968 18.0104C12.3 18.0357 12.3082 18.0601 12.321 18.0822Z" fill="#271D70"/>
<path d="M19.083 14.1796C19.1023 14.2131 19.131 14.2401 19.1656 14.2572C19.2002 14.2744 19.2391 14.2809 19.2773 14.276C19.3156 14.271 19.3516 14.2548 19.3807 14.2294C19.4098 14.204 19.4307 14.1706 19.4407 14.1333C19.4508 14.0961 19.4496 14.0566 19.4373 14.02C19.4249 13.9835 19.402 13.9513 19.3715 13.9278C19.3409 13.9042 19.304 13.8902 19.2655 13.8876C19.2269 13.8851 19.1885 13.8939 19.155 13.9132C19.1102 13.939 19.0774 13.9815 19.0639 14.0315C19.0504 14.0814 19.0573 14.1347 19.083 14.1796Z" fill="#271D70"/>
<path d="M12.9736 18.932C12.9916 18.9507 13.0132 18.9657 13.037 18.976C13.0608 18.9862 13.0865 18.9917 13.1124 18.9919C13.1384 18.9922 13.1641 18.9873 13.1882 18.9775C13.2122 18.9676 13.234 18.9531 13.2524 18.9348C13.2708 18.9164 13.2853 18.8946 13.2951 18.8706C13.3049 18.8465 13.3098 18.8208 13.3096 18.7948C13.3093 18.7689 13.3039 18.7432 13.2936 18.7194C13.2833 18.6955 13.2683 18.674 13.2496 18.656C13.2128 18.6206 13.1635 18.6011 13.1124 18.6016C13.0613 18.6021 13.0125 18.6226 12.9764 18.6587C12.9402 18.6949 12.9197 18.7437 12.9192 18.7948C12.9187 18.8459 12.9382 18.8952 12.9736 18.932Z" fill="#271D70"/>
<path d="M18.4966 13.4129C18.5337 13.449 18.5833 13.4692 18.635 13.4692C18.6867 13.4692 18.7364 13.449 18.7734 13.4129C18.8006 13.3856 18.8191 13.3508 18.8265 13.313C18.834 13.2751 18.83 13.2359 18.8152 13.2003C18.8004 13.1647 18.7754 13.1343 18.7433 13.1129C18.7113 13.0915 18.6736 13.0801 18.635 13.0801C18.5964 13.0801 18.5588 13.0915 18.5267 13.1129C18.4946 13.1343 18.4696 13.1647 18.4548 13.2003C18.44 13.2359 18.436 13.2751 18.4435 13.313C18.4509 13.3508 18.4694 13.3856 18.4966 13.4129Z" fill="#271D70"/>
<path d="M13.8225 19.5822C13.8445 19.5953 13.8689 19.6039 13.8943 19.6075C13.9196 19.611 13.9454 19.6095 13.9702 19.6031C13.995 19.5966 14.0182 19.5853 14.0386 19.5697C14.059 19.5542 14.0761 19.5348 14.0889 19.5126C14.1148 19.4678 14.1217 19.4145 14.1083 19.3644C14.0949 19.3144 14.0621 19.2717 14.0173 19.2459C13.9724 19.22 13.9191 19.213 13.869 19.2264C13.819 19.2398 13.7764 19.2726 13.7505 19.3175C13.725 19.3621 13.7183 19.4151 13.7318 19.4647C13.7453 19.5143 13.7779 19.5566 13.8225 19.5822Z" fill="#271D70"/>
<path d="M17.7286 12.8208C17.7505 12.8342 17.7749 12.8431 17.8003 12.8469C17.8257 12.8507 17.8516 12.8494 17.8764 12.843C17.9013 12.8365 17.9246 12.8252 17.945 12.8096C17.9654 12.7939 17.9824 12.7744 17.995 12.752C18.0094 12.7297 18.019 12.7048 18.0234 12.6787C18.0278 12.6525 18.0268 12.6258 18.0205 12.6C18.0142 12.5743 18.0028 12.5501 17.9868 12.529C17.9709 12.5078 17.9508 12.4901 17.9278 12.4769C17.9048 12.4638 17.8794 12.4554 17.8531 12.4524C17.8268 12.4494 17.8001 12.4518 17.7747 12.4594C17.7494 12.4671 17.7258 12.4798 17.7055 12.4968C17.6852 12.5138 17.6686 12.5348 17.6566 12.5584C17.6435 12.5802 17.635 12.6045 17.6315 12.6297C17.628 12.6549 17.6297 12.6805 17.6365 12.705C17.6432 12.7296 17.6548 12.7525 17.6707 12.7724C17.6865 12.7923 17.7062 12.8088 17.7286 12.8208Z" fill="#271D70"/>
<path d="M14.8112 19.9934C14.8486 20.0037 14.8882 20.0026 14.925 19.9903C14.9618 19.978 14.9941 19.955 15.0179 19.9243C15.0416 19.8936 15.0557 19.8566 15.0584 19.8179C15.0611 19.7792 15.0522 19.7406 15.0329 19.7069C15.0136 19.6733 14.9847 19.6461 14.95 19.6288C14.9152 19.6116 14.8761 19.605 14.8377 19.61C14.7992 19.615 14.7631 19.6313 14.7339 19.6568C14.7047 19.6824 14.6837 19.716 14.6736 19.7535C14.6601 19.8035 14.667 19.8569 14.6928 19.9019C14.7186 19.9469 14.7612 19.9798 14.8112 19.9934Z" fill="#271D70"/>
<path d="M16.8327 12.452C16.87 12.4621 16.9094 12.4608 16.9459 12.4485C16.9824 12.4361 17.0145 12.4132 17.038 12.3827C17.0616 12.3521 17.0755 12.3153 17.0782 12.2768C17.0808 12.2383 17.0719 12.1999 17.0528 12.1665C17.0336 12.133 17.0049 12.106 16.9704 12.0888C16.9358 12.0716 16.897 12.065 16.8587 12.0699C16.8205 12.0748 16.7845 12.0909 16.7554 12.1162C16.7263 12.1415 16.7053 12.1749 16.6951 12.2121C16.6884 12.2369 16.6865 12.2627 16.6898 12.2882C16.693 12.3137 16.7013 12.3383 16.7141 12.3606C16.7269 12.3829 16.7439 12.4025 16.7643 12.4182C16.7847 12.4339 16.8079 12.4454 16.8327 12.452Z" fill="#271D70"/>
<path d="M15.8736 20.1321C15.9122 20.1319 15.9498 20.1203 15.9818 20.0988C16.0138 20.0773 16.0387 20.0467 16.0534 20.011C16.068 19.9754 16.0718 19.9361 16.0641 19.8983C16.0565 19.8605 16.0379 19.8258 16.0105 19.7986C15.9832 19.7714 15.9484 19.7529 15.9106 19.7454C15.8727 19.7379 15.8335 19.7418 15.7979 19.7566C15.7623 19.7714 15.7319 19.7964 15.7105 19.8285C15.689 19.8606 15.6776 19.8983 15.6776 19.9369C15.6775 19.9626 15.6825 19.9881 15.6923 20.0119C15.7022 20.0357 15.7166 20.0573 15.7348 20.0754C15.7531 20.0936 15.7747 20.1079 15.7985 20.1177C15.8224 20.1274 15.8479 20.1323 15.8736 20.1321Z" fill="#271D70"/>
<path d="M15.8736 12.3253C15.912 12.325 15.9495 12.3133 15.9812 12.2917C16.013 12.2701 16.0377 12.2396 16.0521 12.204C16.0666 12.1684 16.0701 12.1293 16.0624 12.0917C16.0547 12.0541 16.0359 12.0196 16.0086 11.9926C15.9813 11.9656 15.9466 11.9473 15.9089 11.94C15.8711 11.9328 15.8321 11.9368 15.7967 11.9517C15.7613 11.9666 15.7311 11.9916 15.7099 12.0237C15.6887 12.0557 15.6775 12.0933 15.6776 12.1317C15.6777 12.1573 15.6829 12.1826 15.6928 12.2062C15.7027 12.2298 15.7172 12.2512 15.7354 12.2692C15.7536 12.2872 15.7752 12.3014 15.7989 12.311C15.8226 12.3207 15.848 12.3255 15.8736 12.3253Z" fill="#271D70"/>
</g>
</g>
<defs>
<clipPath id="clip0_266_47233">
<rect width="32" height="31.996" fill="white"/>
</clipPath>
</defs>
</svg>
