<svg width="32" height="32" viewBox="0 0 32 32" fill="none" xmlns="http://www.w3.org/2000/svg">
<g clip-path="url(#clip0_266_47443)">
<mask id="mask0_266_47443" style="mask-type:luminance" maskUnits="userSpaceOnUse" x="0" y="0" width="32" height="33">
<path d="M16.0012 0H15.6468C11.8065 0.080018 9.83274 0.383286 8.0054 1.01063C6.23762 1.61779 4.64643 2.6508 3.37225 4.0185C2.31358 5.24764 1.50335 6.6705 0.986474 8.20825C0.377398 10.1343 0.0539354 12.1393 0.026402 14.1592C-5.96091e-09 14.9538 0 15.061 0 16.0028C0 16.9446 1.10277e-07 17.0534 0.024802 17.8432C0.0523199 19.8639 0.375781 21.8697 0.984874 23.7966C1.50194 25.3337 2.31216 26.756 3.37065 27.9847C4.64505 29.3527 6.23651 30.386 8.0046 30.9934C9.83194 31.6207 11.8033 31.9232 15.646 32.0024H16.3548C20.1951 31.9224 22.1689 31.6207 23.9954 30.9934C25.7635 30.386 27.3549 29.3527 28.6293 27.9847C29.6878 26.756 30.4981 25.3337 31.0151 23.7966C31.6246 21.8698 31.9481 19.8639 31.9752 17.8432C32 17.0494 32 16.9398 32 16.0028C32 15.0658 32 14.9538 31.9752 14.1584C31.948 12.1384 31.6245 10.1334 31.0151 8.20745C30.4986 6.67011 29.689 5.24754 28.6309 4.0185C27.3565 2.65098 25.765 1.61824 23.997 1.01143C22.1705 0.384086 20.1983 0.0808181 16.3564 0.000800122L16.0012 0Z" fill="white"/>
</mask>
<g mask="url(#mask0_266_47443)">
<path d="M43.9961 -1.10352H-7.3606V16.0027H43.9961V-1.10352Z" fill="white"/>
<path d="M43.9961 16.0024H-7.3606V33.1103H43.9961V16.0024Z" fill="#FF142B"/>
<path d="M16.3467 0.5L17.6924 0.540039C20.6413 0.658777 22.2977 0.953726 23.8359 1.48242C25.5233 2.0632 27.0423 3.04981 28.2588 4.35547C29.2713 5.53298 30.0464 6.8953 30.542 8.36719C31.1345 10.2445 31.4487 12.1985 31.4756 14.167L31.4766 14.1768C31.5027 14.9638 31.502 15.0713 31.502 16.0049C31.502 16.938 31.5027 17.0412 31.4766 17.8281L31.4756 17.8379C31.4488 19.8067 31.1346 21.761 30.542 23.6387C30.0467 25.1104 29.271 26.472 28.2588 27.6494C27.1175 28.8725 25.7114 29.8158 24.1494 30.4062L23.834 30.5195C22.08 31.1232 20.1686 31.4221 16.3564 31.502H15.6484C11.8347 31.4229 9.92395 31.1232 8.16992 30.5195L7.85547 30.4062C6.29569 29.8169 4.89114 28.876 3.75098 27.6553C2.73577 26.4764 1.95702 25.113 1.45996 23.6387C0.86711 21.7599 0.552564 19.8039 0.525391 17.834V17.8252L0.50293 16.9697C0.499772 16.7289 0.5 16.4687 0.5 16.001C0.5 15.0654 0.499629 14.9612 0.527344 14.1748L0.52832 14.1641C0.555542 12.1956 0.869843 10.2417 1.46191 8.36426C1.89721 7.07301 2.54711 5.86587 3.38379 4.79395L3.75391 4.34375C4.96959 3.0431 6.48596 2.06051 8.16992 1.48242C9.70601 0.953736 11.3636 0.658791 14.3125 0.540039L15.6582 0.5H16.3467Z" stroke="#F6F6F6"/>
</g>
</g>
<defs>
<clipPath id="clip0_266_47443">
<rect width="32" height="32.0024" fill="white"/>
</clipPath>
</defs>
</svg>
