<svg width="32" height="32" viewBox="0 0 32 32" fill="none" xmlns="http://www.w3.org/2000/svg">
<g clip-path="url(#clip0_266_48682)">
<mask id="mask0_266_48682" style="mask-type:luminance" maskUnits="userSpaceOnUse" x="0" y="0" width="32" height="32">
<path d="M16.0004 0H15.646C11.8059 0.080002 9.83224 0.381609 8.005 1.00963C6.23877 1.61778 4.64896 2.65046 3.37528 4.0169C2.31706 5.24607 1.50692 6.66857 0.989625 8.2058C0.380525 10.1317 0.0570778 12.1366 0.0296007 14.1564C0 14.9516 0 15.0628 0 16.0012C0 16.9396 2.98031e-09 17.0492 0.0256006 17.8412C0.0532552 19.8615 0.376697 21.8669 0.985625 23.7934C1.5028 25.3302 2.31296 26.7522 3.37128 27.9807C4.64499 29.3488 6.2366 30.3815 8.005 30.9872C9.83224 31.6168 11.8043 31.9184 15.646 31.9984H16.3548C20.1949 31.9184 22.1678 31.6168 23.9942 30.9872C25.763 30.3814 27.3551 29.3488 28.6295 27.9807C29.6876 26.7522 30.4975 25.3302 31.0144 23.7934C31.6236 21.8669 31.9471 19.8616 31.9744 17.8412C32 17.046 32 16.938 32 16.0012C32 15.0644 32 14.9516 31.9744 14.1564C31.9473 12.1365 31.6238 10.1317 31.0144 8.2058C30.4973 6.66863 29.6875 5.24614 28.6295 4.0169C27.3559 2.65077 25.7664 1.61814 24.0006 1.00963C22.1718 0.381609 20.2005 0.080002 16.3588 0H16.0004Z" fill="white"/>
</mask>
<g mask="url(#mask0_266_48682)">
<path d="M55.6183 -0.297852H-0.399902V32.3534H55.6183V-0.297852Z" fill="#4A9318"/>
<path d="M55.6183 4.36621H-0.399902V27.6892H55.6183V4.36621Z" fill="#F6D128"/>
<path d="M55.6183 9.03027H-0.399902V23.0242H55.6183V9.03027Z" fill="#CB0423"/>
<path d="M55.6183 13.6963H-0.399902V18.3604H55.6183V13.6963Z" fill="black"/>
<path fill-rule="evenodd" clip-rule="evenodd" d="M-0.399902 -0.297852V32.3534H0.787327L22.5559 16.0282L0.787327 -0.297852H-0.399902Z" fill="black"/>
<path fill-rule="evenodd" clip-rule="evenodd" d="M-0.399902 -0.297852V32.3534L21.3694 16.0282L-0.399902 -0.297852Z" fill="white"/>
<path fill-rule="evenodd" clip-rule="evenodd" d="M8.4117 7.73535L4.74121 15.1755L10.3205 17.9244L8.4117 7.73535Z" fill="#CB0423"/>
<path fill-rule="evenodd" clip-rule="evenodd" d="M8.41164 7.73535L12.0821 15.1755L6.50439 17.9244L8.41164 7.73535Z" fill="#CB0423"/>
<path fill-rule="evenodd" clip-rule="evenodd" d="M8.41159 7.73535L5.63232 15.5483L11.4933 17.6332L8.41159 7.73535Z" fill="#CB0423"/>
<path fill-rule="evenodd" clip-rule="evenodd" d="M8.41144 7.73535L11.1899 15.5483L5.33057 17.6332L8.41144 7.73535Z" fill="#CB0423"/>
<path fill-rule="evenodd" clip-rule="evenodd" d="M16.298 13.4625L8.09142 12.2705L7.2002 18.4275L16.298 13.4625Z" fill="#CB0423"/>
<path fill-rule="evenodd" clip-rule="evenodd" d="M0.523926 13.4625L8.73053 12.2705L9.62495 18.4251L0.523926 13.4625Z" fill="#CB0423"/>
<path fill-rule="evenodd" clip-rule="evenodd" d="M16.2981 13.4627L8.00834 13.2363L7.84033 19.4541L16.2981 13.4627Z" fill="#CB0423"/>
<path fill-rule="evenodd" clip-rule="evenodd" d="M0.523926 13.4627L8.81373 13.2339L8.98574 19.4516L0.523926 13.4627Z" fill="#CB0423"/>
<path fill-rule="evenodd" clip-rule="evenodd" d="M12.5998 21.794L11.1461 14.8179L7.65723 15.5451L12.5998 21.794Z" fill="#CB0423"/>
<path fill-rule="evenodd" clip-rule="evenodd" d="M12.5998 21.7938L6.41406 18.2545L8.18371 15.1616L12.5998 21.7938Z" fill="#CB0423"/>
<path fill-rule="evenodd" clip-rule="evenodd" d="M4.22168 21.7938L10.4074 18.2545L8.64019 15.1616L4.22168 21.7938Z" fill="#CB0423"/>
<path fill-rule="evenodd" clip-rule="evenodd" d="M4.22168 21.794L5.67532 14.8179L9.165 15.5451L4.22168 21.794Z" fill="#CB0423"/>
<path fill-rule="evenodd" clip-rule="evenodd" d="M11.2579 21.2075C11.2625 20.1458 11.452 19.093 11.8179 18.0963C12.023 17.5375 12.2718 16.9958 12.562 16.4762C12.7079 16.4852 12.8518 16.514 12.99 16.5618C13.4476 16.689 13.5732 16.665 13.5732 16.4522C13.5732 16.3314 13.1052 15.9146 10.8171 14.0002C9.27707 12.7097 8.01224 11.6921 7.94904 11.6921C7.92075 11.6933 7.8927 11.6864 7.86818 11.6723C7.84367 11.6581 7.8237 11.6372 7.81064 11.6121C7.79704 11.5697 7.72344 11.0705 7.65063 10.5017C7.60372 10.081 7.52672 9.66415 7.42023 9.25444C7.33814 9.08039 7.20616 8.93468 7.04106 8.83581C6.87596 8.73695 6.68519 8.68941 6.49301 8.69923C6.37559 8.67393 6.25429 8.67258 6.13634 8.69526C6.0184 8.71795 5.90624 8.76419 5.80659 8.83123C5.65457 8.92324 5.48298 8.97806 5.30578 8.99124C5.24208 8.98975 5.17871 9.00085 5.11932 9.02391C5.05992 9.04697 5.00566 9.08153 4.95965 9.12561C4.91364 9.16968 4.87679 9.22241 4.85121 9.28076C4.82562 9.33912 4.81181 9.40195 4.81056 9.46565V9.63765L5.21057 9.62565C5.42978 9.61925 5.54178 9.62565 5.45778 9.64405C5.17377 9.69845 5.28817 10.1001 5.62258 10.2201C5.98259 10.3489 5.96819 10.2729 5.96819 11.9609C6.02812 12.597 5.99089 13.2385 5.85779 13.8634C5.71258 14.395 5.71258 14.9558 5.85779 15.4874C5.91619 15.673 5.96499 15.845 5.96659 15.8698C5.8551 16.049 5.72793 16.2179 5.58658 16.3746C5.2534 16.7265 5.03953 17.1743 4.97537 17.6547C4.96522 17.762 4.92716 17.8649 4.86496 17.9531C4.79632 18.0501 4.7588 18.1658 4.75737 18.2846C4.75594 18.4035 4.79067 18.52 4.85696 18.6187C5.2006 19.5872 5.44349 20.5885 5.58178 21.6068C5.58178 21.7724 5.60818 21.7668 6.49141 21.5804C7.56847 21.4195 8.66178 21.3983 9.74429 21.5171C10.1387 21.5732 10.5979 21.658 10.7643 21.7036C11.2891 21.8484 11.2603 21.8772 11.2619 21.2003" fill="black"/>
<path fill-rule="evenodd" clip-rule="evenodd" d="M10.5396 21.5533C9.67208 21.3581 8.78151 21.2857 7.8939 21.3381C7.39388 21.3597 6.86907 21.3997 6.72827 21.4269L6.47306 21.4773L6.40986 21.0501C6.38157 20.9032 6.36631 20.7541 6.36426 20.6045C6.54202 20.5626 6.72206 20.5311 6.90347 20.5101C8.25713 20.3771 9.62209 20.4133 10.9668 20.6181L11.1468 20.6549V21.1685C11.1468 21.5429 11.1276 21.6797 11.0772 21.6741C11.0396 21.6693 10.7972 21.6149 10.5396 21.5533Z" fill="#FCFF2C"/>
<path fill-rule="evenodd" clip-rule="evenodd" d="M5.68845 21.5917C5.68845 21.4685 5.38204 19.9965 5.24844 19.4773C5.15723 19.1221 5.08203 18.8109 5.08203 18.7821C5.08203 18.7533 5.16203 18.7885 5.26764 18.8581C5.35321 18.9223 5.45222 18.9663 5.55724 18.9869C5.84125 18.9909 5.99645 19.4181 6.23726 20.8557C6.27166 21.0565 6.31006 21.2829 6.32446 21.3565C6.34686 21.4717 6.31566 21.4973 6.07166 21.5549C5.76365 21.6285 5.68845 21.6349 5.68845 21.5917Z" fill="#FCFF2C"/>
<path fill-rule="evenodd" clip-rule="evenodd" d="M11.0686 20.465C11.0518 20.4338 11.0742 20.3754 11.1198 20.3338C11.1862 20.2714 11.1998 20.2754 11.1998 20.353C11.1998 20.4674 11.1094 20.5426 11.0662 20.465" fill="#FCFF2C"/>
<path fill-rule="evenodd" clip-rule="evenodd" d="M6.64041 20.2304C6.78681 20.0704 6.79001 20.0656 6.90442 20.1816C7.01882 20.2976 7.01482 20.3016 6.92122 20.3416C6.83557 20.3708 6.74604 20.387 6.65561 20.3896H6.49561L6.64041 20.2304Z" fill="#FCFF2C"/>
<path fill-rule="evenodd" clip-rule="evenodd" d="M10.2762 20.3244C10.3056 20.2644 10.35 20.2129 10.405 20.1748C10.4978 20.1076 10.525 20.1172 10.6106 20.2468L10.7098 20.3956H10.4802C10.3314 20.3956 10.2594 20.37 10.2738 20.3244" fill="#FCFF2C"/>
<path fill-rule="evenodd" clip-rule="evenodd" d="M10.767 20.2362C10.7192 20.183 10.6849 20.1191 10.667 20.0498C10.752 20.0447 10.8374 20.053 10.9198 20.0746L11.1598 20.1194L11.0238 20.261L10.8878 20.4034L10.767 20.2362Z" fill="#FCFF2C"/>
<path fill-rule="evenodd" clip-rule="evenodd" d="M6.26086 20.2461C6.22006 20.1277 6.31606 20.0309 6.47366 20.0293C6.59927 20.0293 6.59607 20.0413 6.43366 20.2109C6.30966 20.3405 6.29446 20.3437 6.26086 20.2461Z" fill="#FCFF2C"/>
<path fill-rule="evenodd" clip-rule="evenodd" d="M7.54812 20.1353L7.69293 19.9673L7.83373 20.1033C7.91373 20.1833 7.98413 20.2473 7.99373 20.2513C7.89926 20.2694 7.80348 20.2798 7.70733 20.2825L7.40332 20.3033L7.54812 20.1353Z" fill="#FCFF2C"/>
<path fill-rule="evenodd" clip-rule="evenodd" d="M9.50139 20.2796L9.31738 20.2412L9.44939 20.1036L9.58219 19.9668L9.74219 20.1492C9.9158 20.3508 9.8966 20.3612 9.50139 20.2796Z" fill="#FCFF2C"/>
<path fill-rule="evenodd" clip-rule="evenodd" d="M7.06662 20.1195L6.93701 19.9659H7.13462C7.23431 19.9683 7.33374 19.9546 7.42902 19.9251C7.50903 19.8923 7.49943 19.9251 7.39542 20.0787C7.35371 20.1534 7.29803 20.2194 7.23142 20.2731C7.16697 20.2332 7.11098 20.181 7.06662 20.1195Z" fill="#FCFF2C"/>
<path fill-rule="evenodd" clip-rule="evenodd" d="M8.47255 20.0893L8.63255 19.9053L8.78695 20.0653C8.84444 20.1215 8.89642 20.1831 8.94216 20.2493C8.83882 20.2687 8.73351 20.2754 8.62855 20.2693H8.31494L8.47255 20.0893Z" fill="#FCFF2C"/>
<path fill-rule="evenodd" clip-rule="evenodd" d="M9.933 20.1194L9.8042 19.9658H10.0618C10.3402 19.9658 10.3754 20.013 10.2218 20.1706C10.0922 20.301 10.0898 20.301 9.9362 20.1194" fill="#FCFF2C"/>
<path fill-rule="evenodd" clip-rule="evenodd" d="M8.00021 20.0571L7.87061 19.9043H8.46022L8.33062 20.0571C8.17061 20.2467 8.15941 20.2467 8.00021 20.0571Z" fill="#FCFF2C"/>
<path fill-rule="evenodd" clip-rule="evenodd" d="M8.99533 20.0571L8.86572 19.9043H9.45614L9.32653 20.0571C9.16653 20.2467 9.15533 20.2467 8.99533 20.0571Z" fill="#FCFF2C"/>
<path fill-rule="evenodd" clip-rule="evenodd" d="M10.7602 19.9034C10.6234 19.877 10.0754 19.8234 9.54177 19.7786C8.50882 19.7081 7.47136 19.7438 6.44569 19.885C6.23528 19.9138 6.18408 19.9018 6.18408 19.8282C6.18408 19.6682 7.28971 19.5674 8.99535 19.5674C9.82977 19.5674 10.6754 19.5906 10.8834 19.6186C11.229 19.6658 11.2562 19.6802 11.2562 19.8178C11.2562 19.9778 11.209 19.989 10.7602 19.9034Z" fill="#FCFF2C"/>
<path fill-rule="evenodd" clip-rule="evenodd" d="M6.47283 19.3826C6.5447 19.2992 6.62952 19.2279 6.72404 19.1714C6.79286 19.2062 6.85217 19.2573 6.89684 19.3202L7.02165 19.469L6.75444 19.5074C6.60724 19.529 6.43443 19.5562 6.37683 19.5714C6.29683 19.5898 6.31923 19.541 6.47283 19.3826Z" fill="#FCFF2C"/>
<path fill-rule="evenodd" clip-rule="evenodd" d="M6.0805 19.4098C6.0397 19.2874 6.0509 19.2498 6.1453 19.2122C6.21445 19.1852 6.28905 19.175 6.36291 19.1826C6.45331 19.1978 6.44291 19.2234 6.29811 19.3778L6.1301 19.557L6.0805 19.4098Z" fill="#FCFF2C"/>
<path fill-rule="evenodd" clip-rule="evenodd" d="M11.2002 19.482C11.2002 19.4532 11.2354 19.4124 11.2802 19.394C11.325 19.3756 11.3506 19.3884 11.3298 19.4492C11.2962 19.5452 11.201 19.57 11.201 19.482" fill="#FCFF2C"/>
<path fill-rule="evenodd" clip-rule="evenodd" d="M7.4965 19.2628C7.5765 19.1612 7.6453 19.0732 7.6453 19.0684C7.70714 19.1175 7.76542 19.171 7.81971 19.2284L7.99491 19.4012L7.67491 19.4212L7.3501 19.442L7.4965 19.2628Z" fill="#FCFF2C"/>
<path fill-rule="evenodd" clip-rule="evenodd" d="M10.4427 19.4308L10.2075 19.4068L10.3763 19.2508L10.5443 19.0908L10.6803 19.2308C10.8275 19.3852 10.8547 19.4796 10.7459 19.4628C10.7083 19.4572 10.5723 19.4412 10.4427 19.4284" fill="#FCFF2C"/>
<path fill-rule="evenodd" clip-rule="evenodd" d="M7.03305 19.2611L6.87305 19.1203L7.13705 19.0755C7.23038 19.0541 7.32642 19.0471 7.42186 19.0547C7.43306 19.0675 7.38586 19.1507 7.31706 19.2403L7.19146 19.4003L7.03305 19.2611Z" fill="#FCFF2C"/>
<path fill-rule="evenodd" clip-rule="evenodd" d="M9.44654 19.3626L9.31934 19.3234L9.45854 19.1762C9.57774 19.0514 9.61294 19.0418 9.68654 19.1098C9.74337 19.1661 9.79114 19.2309 9.82815 19.3018C9.87455 19.3994 9.86095 19.4138 9.72815 19.4082C9.63284 19.4039 9.53834 19.3886 9.44654 19.3626Z" fill="#FCFF2C"/>
<path fill-rule="evenodd" clip-rule="evenodd" d="M10.8397 19.2228L10.6797 19.0308L10.8173 19.0692C10.935 19.095 11.0552 19.1082 11.1757 19.1084H11.3965L11.2309 19.2596C11.1723 19.3187 11.1061 19.3698 11.0341 19.4116C10.9598 19.3592 10.8946 19.2948 10.8413 19.2212" fill="#FCFF2C"/>
<path fill-rule="evenodd" clip-rule="evenodd" d="M8.01165 19.2082C7.96089 19.1563 7.92092 19.0949 7.89404 19.0274C7.89404 19.005 8.03405 18.9858 8.20605 18.9858H8.51726L8.41326 19.1146C8.22845 19.3418 8.14045 19.361 8.01325 19.2082" fill="#FCFF2C"/>
<path fill-rule="evenodd" clip-rule="evenodd" d="M8.51942 19.1952C8.69703 19.0216 8.75943 19.0256 8.87383 19.2192C8.95383 19.352 8.95383 19.3528 8.65782 19.352H8.36182L8.51942 19.1952Z" fill="#FCFF2C"/>
<path fill-rule="evenodd" clip-rule="evenodd" d="M9.88746 19.1664L9.76025 18.9824H9.89626C9.99828 18.9861 10.0998 18.9989 10.1995 19.0208L10.3691 19.0592L10.2131 19.2048C10.1599 19.2593 10.1006 19.3074 10.0363 19.348C9.98143 19.2915 9.93214 19.2299 9.88906 19.164" fill="#FCFF2C"/>
<path fill-rule="evenodd" clip-rule="evenodd" d="M8.99533 19.1429L8.86572 18.9893H9.45614L9.32653 19.1429C9.16653 19.3325 9.15533 19.3325 8.99533 19.1429Z" fill="#FCFF2C"/>
<path fill-rule="evenodd" clip-rule="evenodd" d="M6.04817 18.9395C6.09049 18.8038 6.12574 18.666 6.15377 18.5267L6.21937 18.2203L6.82419 17.8827C7.11121 17.7281 7.38637 17.5524 7.64741 17.3571C7.76821 17.2531 7.89382 17.1491 7.92902 17.1283C8.72947 17.123 9.52907 17.1813 10.3203 17.3027C10.8651 17.3899 11.8195 17.5787 11.8515 17.6051C11.8004 17.8145 11.7384 18.0212 11.6659 18.2243C11.5563 18.5579 11.4563 18.8683 11.4443 18.9139C11.4275 18.9771 11.3603 18.9875 11.1747 18.9563C9.67088 18.8092 8.1559 18.8175 6.65379 18.9811C6.08337 19.0731 6.00017 19.0667 6.04977 18.9379" fill="#FCFF2C"/>
<path fill-rule="evenodd" clip-rule="evenodd" d="M10.6545 18.5619C10.7361 18.4779 10.7922 18.3726 10.8163 18.258C10.8404 18.1435 10.8315 18.0244 10.7906 17.9148C10.7497 17.8051 10.6785 17.7093 10.5853 17.6384C10.4921 17.5676 10.3808 17.5247 10.2641 17.5146C10.1866 17.5155 10.1101 17.5325 10.0394 17.5644C9.9688 17.5964 9.90557 17.6427 9.85375 17.7004C9.80194 17.7581 9.76266 17.8259 9.73842 17.8995C9.71418 17.9732 9.70549 18.0511 9.71292 18.1283C9.69819 18.243 9.72046 18.3594 9.77651 18.4606C9.83255 18.5618 9.91943 18.6425 10.0245 18.6909C10.1296 18.7392 10.2473 18.7528 10.3607 18.7296C10.474 18.7064 10.5769 18.6477 10.6545 18.5619Z" fill="black"/>
<path fill-rule="evenodd" clip-rule="evenodd" d="M10.0612 18.5475C9.99245 18.4989 9.93692 18.4339 9.8997 18.3584C9.86247 18.2829 9.84471 18.1993 9.84805 18.1152C9.85139 18.031 9.87572 17.9491 9.91882 17.8768C9.96191 17.8044 10.0224 17.744 10.0948 17.7011C10.1638 17.6694 10.2399 17.6564 10.3155 17.6635C10.3911 17.6706 10.4635 17.6975 10.5254 17.7414C10.5872 17.7854 10.6365 17.8449 10.668 17.9139C10.6996 17.983 10.7124 18.0591 10.7052 18.1347C10.7059 18.2107 10.6874 18.2857 10.6513 18.3526C10.6153 18.4195 10.5629 18.4762 10.499 18.5175C10.4351 18.5587 10.3618 18.583 10.286 18.5883C10.2101 18.5935 10.1342 18.5795 10.0652 18.5475" fill="#FCFF2C"/>
<path fill-rule="evenodd" clip-rule="evenodd" d="M8.43848 18.5224C8.51568 18.4528 8.57474 18.3654 8.61058 18.2678C8.64641 18.1702 8.65793 18.0653 8.64415 17.9623C8.63036 17.8593 8.59168 17.7611 8.53145 17.6764C8.47123 17.5916 8.39126 17.5229 8.29848 17.476C8.2374 17.447 8.1712 17.4303 8.10367 17.4269C8.03613 17.4235 7.9686 17.4335 7.90492 17.4562C7.84124 17.479 7.78267 17.514 7.73256 17.5594C7.68244 17.6048 7.64177 17.6596 7.61286 17.7208C7.53251 17.8341 7.4963 17.9729 7.51103 18.1111C7.52576 18.2493 7.59042 18.3773 7.69287 18.4712C7.73235 18.5317 7.78535 18.5823 7.84769 18.6189C7.91003 18.6555 7.98001 18.6771 8.05213 18.6821C8.12424 18.687 8.19652 18.6752 8.26329 18.6475C8.33005 18.6198 8.38947 18.577 8.43688 18.5224" fill="black"/>
<path fill-rule="evenodd" clip-rule="evenodd" d="M7.9108 18.4946C7.82357 18.4419 7.75456 18.3638 7.71308 18.2708C7.67161 18.1777 7.65965 18.0741 7.67883 17.9741C7.69801 17.874 7.7474 17.7822 7.82034 17.7111C7.89329 17.6399 7.98629 17.5928 8.08681 17.5762C8.18533 17.5899 8.27723 17.6336 8.35001 17.7014C8.42278 17.7693 8.47289 17.8579 8.49353 17.9552C8.51416 18.0525 8.50431 18.1538 8.46532 18.2453C8.42633 18.3368 8.36009 18.4141 8.27561 18.4666C8.09961 18.5682 8.07801 18.5698 7.9108 18.4946Z" fill="#FCFF2C"/>
<path fill-rule="evenodd" clip-rule="evenodd" d="M5.79944 18.7668C5.87944 18.5404 5.86664 18.25 5.78104 18.25C5.73624 18.25 5.70984 18.33 5.70984 18.4644C5.71441 18.5667 5.68911 18.6682 5.63703 18.7564C5.57623 18.8196 5.56823 18.7708 5.59383 18.4804C5.61063 18.286 5.60343 18.1284 5.57783 18.1284C5.52823 18.1284 5.43223 18.4212 5.39703 18.6788C5.37703 18.83 5.37623 18.83 5.33063 18.6516C5.31289 18.582 5.31021 18.5093 5.32277 18.4386C5.33532 18.3678 5.36282 18.3005 5.40343 18.2412C5.46967 18.1133 5.51017 17.9735 5.52263 17.83C5.52263 17.6796 5.62743 17.534 6.13545 16.9844C6.47305 16.6196 6.86507 16.166 7.00827 15.9764C7.25547 15.6507 7.26747 15.6179 7.25787 15.2867C7.26182 15.1573 7.247 15.0279 7.21387 14.9027C7.14907 14.8299 7.06347 15.2003 7.09707 15.4019C7.12907 15.5843 7.09707 15.6459 6.74026 16.0948C6.52586 16.3668 6.16185 16.7756 5.93224 17.0052C5.50903 17.43 5.35623 17.6588 5.35623 17.874C5.33858 18.0058 5.30277 18.1345 5.24982 18.2564C5.19916 18.3585 5.17391 18.4713 5.17622 18.5852C5.19542 18.6244 5.18262 18.6228 5.14182 18.5852C5.10102 18.5476 5.09142 18.446 5.13062 18.2516C5.15939 18.1475 5.16808 18.0389 5.15622 17.9316C5.09782 17.8252 5.02742 17.962 4.99622 18.2516C4.97622 18.4188 4.93862 18.5396 4.91222 18.5212C4.83221 18.466 4.85781 18.1652 4.95542 18.01C5.02337 17.8765 5.07007 17.7331 5.09382 17.5852C5.18226 17.1212 5.40091 16.6919 5.72424 16.3476C5.91784 16.1132 6.07625 15.9107 6.07625 15.9003C6.07625 15.8899 6.02504 15.7163 5.96264 15.5171C5.81766 14.9987 5.80966 14.4515 5.93944 13.9291C6.12285 13.4134 6.4242 12.9477 6.81946 12.5691C7.28668 12.0843 7.72989 11.7938 7.94509 11.829C8.1299 11.8602 13.4652 16.3228 13.4652 16.4476C13.4647 16.4597 13.4618 16.4715 13.4566 16.4825C13.4514 16.4934 13.4441 16.5032 13.4351 16.5112C13.4261 16.5193 13.4155 16.5255 13.4041 16.5294C13.3926 16.5333 13.3805 16.5348 13.3684 16.534C13.3148 16.534 11.9572 16.1228 10.3516 15.6211C7.78509 14.8211 7.41628 14.6899 7.30508 14.5467C7.2292 14.4427 7.187 14.3179 7.18414 14.1892C7.18128 14.0605 7.2179 13.934 7.28908 13.8267C7.3439 13.7563 7.38168 13.6741 7.39948 13.5867C7.39948 13.4515 7.12747 13.7979 7.07947 13.9995C7.05456 14.1344 7.06133 14.2733 7.09923 14.4052C7.13713 14.5371 7.20513 14.6584 7.29788 14.7595C7.65026 14.918 8.01329 15.0516 8.3843 15.1595C9.29313 15.4467 9.35473 15.4795 9.40353 15.6395C9.51953 16.026 9.13712 16.4748 8.58591 16.5996C8.38191 16.6532 8.19124 16.7486 8.02589 16.8796C7.59269 17.2545 7.11655 17.5768 6.60746 17.8396C6.44751 17.9074 6.29474 17.991 6.15145 18.0892C6.08652 18.214 6.04477 18.3495 6.02824 18.4892C5.96264 18.8684 5.93704 18.9276 5.83144 18.9276C5.77064 18.9276 5.76504 18.894 5.80744 18.7676" fill="#FCFF2C"/>
<path fill-rule="evenodd" clip-rule="evenodd" d="M11.3948 17.3568C10.6118 17.1851 9.81786 17.0675 9.01869 17.0048L8.13867 16.9248L8.46908 16.7912C8.66834 16.7095 8.86232 16.6155 9.04989 16.5096C9.1426 16.449 9.24638 16.4073 9.35527 16.387C9.46415 16.3667 9.57598 16.3681 9.68431 16.3912C10.1763 16.4312 10.5075 16.3336 10.6307 16.116C10.6819 16.0232 10.7315 15.9384 10.7387 15.9248C11.0324 15.9882 11.3222 16.0683 11.6068 16.1648L12.4596 16.4264L12.2948 16.7408C12.2036 16.9112 12.0884 17.1408 12.0396 17.252C11.9396 17.4736 11.9044 17.4808 11.3916 17.3544" fill="#FCFF2C"/>
<path fill-rule="evenodd" clip-rule="evenodd" d="M9.45459 16.2392C9.40819 16.208 9.40979 16.1672 9.46339 16.0856C9.50899 16.0168 9.54979 15.9992 9.57219 16.0392C9.62339 16.1312 9.53059 16.292 9.45459 16.2392Z" fill="#FCFF2C"/>
<path fill-rule="evenodd" clip-rule="evenodd" d="M9.65772 16.2275C9.65772 16.1475 9.69692 16.1475 9.73772 16.2275C9.75692 16.2619 9.74572 16.2891 9.71372 16.2891C9.70581 16.289 9.698 16.2873 9.69075 16.2841C9.6835 16.281 9.67696 16.2764 9.67151 16.2706C9.66607 16.2649 9.66183 16.2581 9.65905 16.2507C9.65627 16.2433 9.655 16.2354 9.65532 16.2275" fill="#FCFF2C"/>
<path fill-rule="evenodd" clip-rule="evenodd" d="M9.93311 16.1939C9.93311 16.1411 9.95791 16.1139 9.98831 16.1363C10.0603 16.1851 10.0603 16.2899 9.98831 16.2899C9.95791 16.2899 9.93311 16.2467 9.93311 16.1939Z" fill="#FCFF2C"/>
<path fill-rule="evenodd" clip-rule="evenodd" d="M10.1939 16.1914C10.1665 16.1502 10.1526 16.1016 10.1539 16.0522C10.1539 15.9834 10.1691 15.977 10.2147 16.0266C10.2315 16.0451 10.2438 16.0671 10.2507 16.0911C10.2576 16.1151 10.259 16.1404 10.2547 16.165C10.2435 16.2042 10.2155 16.2162 10.1939 16.1914Z" fill="#FCFF2C"/>
<path fill-rule="evenodd" clip-rule="evenodd" d="M9.75321 16.069C9.72626 16.0276 9.71207 15.9792 9.71241 15.9298C9.71241 15.861 9.72921 15.8498 9.77401 15.9034C9.79083 15.9221 9.80323 15.9443 9.81029 15.9684C9.81736 15.9925 9.8189 16.0178 9.81481 16.0426C9.80361 16.0818 9.77481 16.093 9.75321 16.069Z" fill="#FCFF2C"/>
<path fill-rule="evenodd" clip-rule="evenodd" d="M10.4005 16.04C10.3405 15.9336 10.4085 15.9112 10.4805 16.0128C10.5245 16.0704 10.5285 16.1056 10.4917 16.1056C10.4719 16.1028 10.4531 16.0954 10.4367 16.084C10.4203 16.0726 10.4068 16.0575 10.3973 16.04" fill="#FCFF2C"/>
<path fill-rule="evenodd" clip-rule="evenodd" d="M9.96356 15.9249C9.95621 15.9085 9.95458 15.8901 9.95893 15.8727C9.96328 15.8553 9.97337 15.8399 9.98756 15.8289C10.0188 15.8081 10.0436 15.8345 10.0436 15.8873C10.0436 15.9945 10.0108 16.0105 9.96356 15.9249Z" fill="#FCFF2C"/>
<path fill-rule="evenodd" clip-rule="evenodd" d="M10.21 15.8257C10.21 15.7729 10.234 15.7457 10.2644 15.7681C10.3364 15.8177 10.3348 15.9217 10.2644 15.9217C10.234 15.9217 10.21 15.8785 10.21 15.8257Z" fill="#FCFF2C"/>
<path fill-rule="evenodd" clip-rule="evenodd" d="M9.54736 15.7715C9.54736 15.6635 9.58016 15.6483 9.62737 15.7339C9.63543 15.75 9.63745 15.7684 9.63304 15.7859C9.62864 15.8034 9.61811 15.8187 9.60336 15.8291C9.57216 15.8507 9.54736 15.8243 9.54736 15.7715Z" fill="#FCFF2C"/>
<path fill-rule="evenodd" clip-rule="evenodd" d="M9.76855 15.7027C9.76855 15.6499 9.79336 15.6227 9.82376 15.6451C9.89496 15.6939 9.89496 15.7987 9.82376 15.7987C9.79336 15.7987 9.76855 15.7555 9.76855 15.7027Z" fill="#FCFF2C"/>
<path fill-rule="evenodd" clip-rule="evenodd" d="M6.06172 12.7568C6.04572 12.4912 6.04572 11.8767 6.06172 11.3831C6.09292 10.3687 6.06892 10.2687 5.75771 10.1575C5.5041 10.0663 5.4121 9.9903 5.4121 9.8695C5.4121 9.78949 5.4689 9.78229 5.74731 9.8143C6.03932 9.8487 6.08012 9.8407 6.06732 9.75269C6.04012 9.59269 5.65371 9.47509 5.2449 9.49909C4.92489 9.51749 4.88409 9.50789 4.90569 9.41908C4.94113 9.3172 5.00823 9.22932 5.09719 9.16829C5.18614 9.10726 5.29228 9.07628 5.4001 9.07988C5.56594 9.05749 5.72654 9.00604 5.87451 8.92787C6.06176 8.82167 6.28062 8.78538 6.49213 8.82547C7.21214 8.86627 7.35135 9.07908 7.54015 10.4511C7.61375 10.9847 7.67376 11.4783 7.67536 11.5495C7.67536 11.6415 7.57535 11.7519 7.32175 11.9335C6.90555 12.2446 6.53827 12.6162 6.23212 13.036L6.09292 13.2408L6.06172 12.7568Z" fill="#FCFF2C"/>
<path fill-rule="evenodd" clip-rule="evenodd" d="M6.59869 9.5474C6.63704 9.51297 6.6617 9.46589 6.66817 9.41476C6.67463 9.36363 6.66246 9.31189 6.63389 9.269C6.55389 9.07699 6.46429 9.12019 6.50189 9.3322C6.52349 9.4578 6.50669 9.4874 6.41149 9.4874C6.31629 9.4874 6.29549 9.449 6.29549 9.2954C6.29549 9.14179 6.28268 9.11539 6.21548 9.18099C6.18986 9.20551 6.16963 9.2351 6.15608 9.26787C6.14253 9.30065 6.13596 9.33589 6.13679 9.37134C6.13762 9.40679 6.14582 9.44168 6.16089 9.47379C6.17595 9.50589 6.19754 9.53451 6.22428 9.5578C6.34189 9.70421 6.47709 9.70101 6.60189 9.5474" fill="black"/>
<path d="M16.3457 0.5L17.6914 0.540039C20.4297 0.650291 22.0533 0.912856 23.5029 1.37305L23.835 1.48242C25.5184 2.06187 27.034 3.04545 28.249 4.34668H28.25C29.1391 5.37876 29.8452 6.55339 30.3408 7.81934L30.541 8.36719C31.1333 10.2442 31.4477 12.1979 31.4746 14.166V14.1758C31.5008 14.9628 31.501 15.0703 31.501 16.0039C31.501 16.4708 31.5003 16.7298 31.4971 16.9707L31.4746 17.8271V17.8369C31.4478 19.8054 31.1334 21.7594 30.541 23.6367C30.0457 25.1085 29.2701 26.471 28.2578 27.6484C27.0403 28.9532 25.521 29.9392 23.833 30.5186H23.832C22.0768 31.1226 20.164 31.4214 16.3457 31.501H15.6572C11.8373 31.4222 9.92531 31.1227 8.16992 30.5186C6.48467 29.9403 4.96716 28.9563 3.75098 27.6543C2.73489 26.4745 1.95601 25.1095 1.45898 23.6338C0.866945 21.7564 0.552586 19.8024 0.525391 17.834V17.8242L0.50293 16.9697C0.499761 16.7287 0.5 16.4683 0.5 16C0.5 15.0646 0.499627 14.9603 0.527344 14.1738L0.52832 14.1631C0.555556 12.1949 0.869966 10.2414 1.46191 8.36426C1.95799 6.89266 2.7329 5.5301 3.74512 4.35254C4.88599 3.12912 6.29259 2.1862 7.85449 1.5957L8.16992 1.48242C9.70589 0.953779 11.363 0.658792 14.3115 0.540039L15.6572 0.5H16.3457Z" stroke="#F6F6F6"/>
</g>
</g>
<defs>
<clipPath id="clip0_266_48682">
<rect width="32" height="31.9984" fill="white"/>
</clipPath>
</defs>
</svg>
