<svg width="24" height="24" viewBox="0 0 24 24" fill="none" xmlns="http://www.w3.org/2000/svg">
<g clip-path="url(#clip0_266_45403)">
<mask id="mask0_266_45403" style="mask-type:luminance" maskUnits="userSpaceOnUse" x="0" y="0" width="24" height="24">
<path d="M11.9994 0H11.7336C8.85392 0.059994 7.37446 0.286171 6.0036 0.757724C4.67798 1.21262 3.48477 1.98694 2.52935 3.0123C1.73579 3.93372 1.12807 5.00002 0.739726 6.15239C0.283298 7.59736 0.0407534 9.10134 0.019798 10.6165C-4.4699e-09 11.2123 0 11.2939 0 11.9964C0 12.6989 -4.4699e-09 12.7829 0.019798 13.3793C0.0407154 14.8941 0.283263 16.3977 0.739726 17.8422C1.12739 18.9951 1.73517 20.0617 2.52935 20.9829C3.48463 22.0094 4.67808 22.7848 6.0042 23.2405C7.37506 23.7126 8.85392 23.9382 11.7342 23.9982H12.2664C15.1461 23.9382 16.6255 23.7126 17.9958 23.2405C19.3217 22.7855 20.5151 22.011 21.4707 20.9853C22.2646 20.0639 22.8724 18.9974 23.2603 17.8446C23.7165 16.4 23.959 14.8964 23.9802 13.3817C24 12.7853 24 12.7037 24 11.9988C24 11.2939 24 11.2123 23.9802 10.6189C23.959 9.10376 23.7164 7.59982 23.2603 6.15479C22.8717 5.00253 22.264 3.93627 21.4707 3.0147C20.5151 1.9892 19.3217 1.21486 17.9958 0.760124C16.6255 0.288571 15.1467 0.0623938 12.2664 0.0023998L11.9994 0Z" fill="white"/>
</mask>
<g mask="url(#mask0_266_45403)">
<path d="M40.6207 -0.554932H-4.2926V29.3647H40.6207V-0.554932Z" fill="#F20000"/>
<path d="M12.1733 -1.02466H-6.23462V11.2369H12.1733V-1.02466Z" fill="#0029CC"/>
<path d="M8.83882 6.8832C8.90602 6.57101 8.90602 6.24809 8.83882 5.9359L10.608 6.40925L8.83882 6.8832ZM8.62524 2.97699L7.32937 4.27106C7.63381 4.36896 7.91383 4.53075 8.15069 4.74562L8.62524 2.97699ZM8.78123 5.72292L10.0765 4.42765L8.30607 4.9016C8.52136 5.13825 8.68339 5.41832 8.78123 5.72292ZM8.30607 7.9145L10.0765 8.38845L8.78123 7.09378C8.68311 7.39807 8.52111 7.67789 8.30607 7.9145ZM7.11579 4.21467L6.64184 2.44604L6.16789 4.21467C6.48029 4.14748 6.8034 4.14748 7.11579 4.21467ZM6.16789 8.60443L6.64184 10.3743L7.11579 8.60623C6.8034 8.67342 6.48029 8.67342 6.16789 8.60623M4.39447 6.41105C4.39398 6.25094 4.41068 6.09124 4.44426 5.9347L2.67444 6.40805L4.44426 6.882C4.41052 6.72627 4.39343 6.56739 4.39327 6.40805M4.65784 9.84031L5.95311 8.54564C5.64887 8.44758 5.36892 8.28603 5.13179 8.07168L4.65784 9.84031ZM4.97641 4.9004L3.20599 4.42645L4.50426 5.72292C4.60209 5.41832 4.76412 5.13825 4.97941 4.9016M4.50426 7.09618L3.20898 8.39085L4.97941 7.9169C4.76437 7.68029 4.60237 7.40047 4.50426 7.09618ZM7.33117 8.54684L8.62704 9.84151L8.15249 8.07288C7.91546 8.28736 7.63548 8.44893 7.33117 8.54684ZM5.95431 4.27106L4.65904 2.97699L5.13299 4.74562C5.36994 4.53087 5.64993 4.3691 5.95431 4.27106ZM6.64184 4.42765C6.25043 4.42836 5.86801 4.54508 5.54291 4.76305C5.2178 4.98103 4.96461 5.29048 4.81531 5.6523C4.66602 6.01413 4.62732 6.41208 4.70412 6.79589C4.78092 7.1797 4.96976 7.53213 5.24678 7.80865C5.52381 8.08517 5.87658 8.27337 6.26052 8.34947C6.64447 8.42557 7.04236 8.38615 7.40391 8.2362C7.76546 8.08625 8.07445 7.83249 8.29184 7.50699C8.50922 7.1815 8.62524 6.79886 8.62524 6.40745C8.62397 5.88214 8.41448 5.37876 8.0427 5.00765C7.67091 4.63654 7.16715 4.42796 6.64184 4.42765Z" fill="white"/>
</g>
</g>
<defs>
<clipPath id="clip0_266_45403">
<rect width="24" height="23.9982" fill="white"/>
</clipPath>
</defs>
</svg>
