<svg width="32" height="32" viewBox="0 0 32 32" fill="none" xmlns="http://www.w3.org/2000/svg">
<g clip-path="url(#clip0_266_47433)">
<mask id="mask0_266_47433" style="mask-type:luminance" maskUnits="userSpaceOnUse" x="0" y="0" width="32" height="32">
<path d="M15.9984 0H15.6432C11.8032 0.08 9.8304 0.3816 8.0032 1.0096C6.23529 1.61656 4.64395 2.64934 3.3696 4.0168C2.31187 5.2457 1.50228 6.66791 0.9856 8.2048C0.376551 10.131 0.0531138 12.136 0.0256004 14.156C4.32134e-07 14.9512 0 15.06 0 16.0008C0 16.9416 4.32134e-07 17.0496 0.0256004 17.8408C0.0531738 19.861 0.376609 21.8663 0.9856 23.7928C1.50313 25.3297 2.31323 26.7518 3.3712 27.9808C4.6456 29.348 6.23694 30.3805 8.0048 30.9872C9.832 31.616 11.8032 31.9176 15.6448 31.9968H16.3544C20.1944 31.9168 22.1672 31.616 23.9944 30.9872C25.7624 30.3807 27.3538 29.3482 28.628 27.9808C29.6862 26.7518 30.4966 25.3297 31.0144 23.7928C31.623 21.8663 31.9465 19.861 31.9744 17.8408C32 17.0464 32 16.936 32 16.0008C32 15.0656 32 14.9512 31.9744 14.156C31.9465 12.136 31.6231 10.1311 31.0144 8.2048C30.497 6.66774 29.6866 5.24552 28.628 4.0168C27.3529 2.6504 25.761 1.61897 23.9928 1.0136C22.1656 0.3816 20.1936 0.0792 16.3528 0H15.9984Z" fill="white"/>
</mask>
<g mask="url(#mask0_266_47433)">
<path d="M40.4233 -0.586426H-9.6543V32.7736H40.4233V-0.586426Z" fill="white"/>
<path d="M40.4233 21.6553H-9.6543V32.7737H40.4233V21.6553Z" fill="#DF352A"/>
<path d="M40.4233 10.5352H-9.6543V21.6552H40.4233V10.5352Z" fill="#074E9F"/>
<path d="M16.3447 0.5L17.6914 0.540039C20.4297 0.650313 22.0533 0.912786 23.5029 1.37305L23.834 1.48242C25.5174 2.06184 27.033 3.0455 28.248 4.34668H28.249C29.138 5.37863 29.8452 6.55258 30.3408 7.81836L30.54 8.36719C31.0582 10.0093 31.3638 11.71 31.4502 13.4277L31.4736 14.166V14.1758C31.4998 14.9627 31.5 15.0696 31.5 16.0029C31.5 16.9363 31.4998 17.0395 31.4736 17.8262V17.8359C31.4469 19.8046 31.1325 21.7592 30.54 23.6367C30.0439 25.1111 29.2658 26.4745 28.251 27.6533C27.1107 28.8735 25.7069 29.8149 24.1475 30.4043L23.832 30.5176C22.0767 31.1217 20.1634 31.4204 16.3447 31.5H15.6572C11.8373 31.4212 9.92528 31.1217 8.16992 30.5176H8.16895C6.48512 29.9397 4.96855 28.9577 3.75293 27.6572H3.75391C2.73634 26.4767 1.9565 25.1099 1.45898 23.6328C0.866986 21.7554 0.552543 19.8014 0.525391 17.833V17.8242L0.50293 16.9688C0.499769 16.7278 0.5 16.4679 0.5 16C0.5 15.0644 0.499632 14.9602 0.527344 14.1738L0.52832 14.1631C0.555541 12.1947 0.869818 10.2407 1.46191 8.36328C1.89716 7.0723 2.54729 5.86567 3.38379 4.79395L3.75391 4.34277C4.96934 3.04255 6.48546 2.06041 8.16895 1.48242H8.16992C9.70586 0.953808 11.3629 0.658775 14.3115 0.540039L15.6572 0.5H16.3447Z" stroke="#F6F6F6"/>
</g>
</g>
<defs>
<clipPath id="clip0_266_47433">
<rect width="32" height="31.9968" fill="white"/>
</clipPath>
</defs>
</svg>
