<svg width="32" height="32" viewBox="0 0 32 32" fill="none" xmlns="http://www.w3.org/2000/svg">
<g clip-path="url(#clip0_266_47349)">
<mask id="mask0_266_47349" style="mask-type:luminance" maskUnits="userSpaceOnUse" x="0" y="0" width="32" height="32">
<path d="M16.0008 0H15.6464C11.8064 0.08 9.8328 0.3816 8.0056 1.0104C6.23774 1.6166 4.64654 2.64918 3.3728 4.0168C2.31444 5.2455 1.50381 6.66736 0.9856 8.204C0.377303 10.1306 0.0538847 12.1358 0.0256001 14.156C5.06639e-08 14.9504 0 15.0608 0 15.996C0 16.9312 5.06639e-08 17.0464 0.0256001 17.84C0.0538847 19.8602 0.377303 21.8654 0.9856 23.792C1.50381 25.3286 2.31444 26.7505 3.3728 27.9792C4.64671 29.3468 6.23783 30.3796 8.0056 30.9864C9.8328 31.6144 11.8048 31.916 15.6464 31.996H16.3552C20.1952 31.916 22.1688 31.6144 23.9952 30.9864C25.7633 30.3793 27.3548 29.3465 28.6296 27.9792C29.6875 26.7506 30.4973 25.3286 31.0144 23.792C31.6238 21.8656 31.9472 19.8603 31.9744 17.84C32 17.0464 32 16.9368 32 15.996C32 15.0552 32 14.9472 31.9744 14.156C31.9472 12.1357 31.6238 10.1304 31.0144 8.204C30.4987 6.66647 29.6899 5.24344 28.6328 4.0136C27.3589 2.6466 25.7681 1.61411 24.0008 1.0072C22.172 0.3784 20.2 0.08 16.3584 0H16.0008Z" fill="white"/>
</mask>
<g mask="url(#mask0_266_47349)">
<path d="M11.7704 -1.27979H-5.51917V33.2722H11.7704V-1.27979Z" fill="#BC0030"/>
<path d="M53.7608 -1.27979H11.7704V10.2362H53.7608V-1.27979Z" fill="#3F9B13"/>
<path d="M53.7608 10.2363H11.7704V21.7547H53.7608V10.2363Z" fill="white"/>
<path d="M53.7608 21.7544H11.7704V33.272H53.7608V21.7544Z" fill="black"/>
</g>
</g>
<defs>
<clipPath id="clip0_266_47349">
<rect width="32" height="31.996" fill="white"/>
</clipPath>
</defs>
</svg>
