<svg width="24" height="24" viewBox="0 0 24 24" fill="none" xmlns="http://www.w3.org/2000/svg">
<g clip-path="url(#clip0_266_45394)">
<mask id="mask0_266_45394" style="mask-type:luminance" maskUnits="userSpaceOnUse" x="0" y="0" width="24" height="24">
<path d="M12 0H11.7342C8.85436 0.059997 7.37423 0.286186 6.0039 0.757762C4.67793 1.21246 3.48442 1.98684 2.52887 3.01245C1.7355 3.93407 1.12778 5.00038 0.739163 6.15269C0.283032 7.59781 0.0404821 9.10182 0.0191994 10.6171C3.24084e-07 11.2128 0 11.2944 0 11.997C0 12.6996 3.24084e-07 12.7836 0.0191994 13.3799C0.0404375 14.895 0.282989 16.3988 0.739163 17.8437C1.12708 18.9963 1.73487 20.0628 2.52887 20.984C3.48391 22.0111 4.67778 22.7866 6.0045 23.2416C7.37483 23.7138 8.85376 23.9394 11.7348 23.9994H12.2664C15.1462 23.9394 16.6258 23.7138 17.9961 23.2416C19.3222 22.7869 20.5157 22.0123 21.4711 20.9864C22.2649 20.065 22.8727 18.9986 23.2608 17.8461C23.7173 16.4013 23.9599 14.8974 23.9808 13.3823C24 12.786 24 12.705 24 11.9994C24 11.2938 24 11.2128 23.9808 10.6195C23.9598 9.1042 23.7172 7.60015 23.2608 6.15509C22.872 5.00289 22.2643 3.93662 21.4711 3.01485C20.5154 1.98949 19.3219 1.21515 17.9961 0.760162C16.624 0.286186 15.1462 0.059997 12.2658 0H12Z" fill="white"/>
</mask>
<g mask="url(#mask0_266_45394)">
<path d="M31.5002 12.0017H-5.27496V24.2477H31.5002V12.0017Z" fill="white"/>
<path d="M31.5002 -0.247803H-5.27496V12.0018H31.5002V-0.247803Z" fill="#FF142B"/>
<path d="M12.2559 0.5L13.2627 0.530273C15.4675 0.619065 16.6961 0.83936 17.834 1.23047V1.22949C19.0793 1.6581 20.2006 2.38629 21.0986 3.34961C21.8465 4.21993 22.4189 5.22683 22.7852 6.31445C23.2253 7.70978 23.4585 9.162 23.4785 10.625V10.626L23.4795 10.6357C23.499 11.2238 23.499 11.3028 23.499 12.002C23.499 12.7011 23.499 12.7769 23.4795 13.3652V13.375C23.4596 14.8383 23.2253 16.2909 22.7852 17.6865C22.4183 18.7766 21.843 19.7846 21.0928 20.6562C20.1949 21.616 19.0762 22.3418 17.833 22.7686H17.832C16.5336 23.2154 15.1142 23.4395 12.2559 23.499H11.7451C8.88564 23.4401 7.46651 23.2155 6.16797 22.7686H6.16699C4.92533 22.3424 3.8072 21.6185 2.91016 20.6602C2.25162 19.8961 1.72744 19.0272 1.36035 18.0898L1.21289 17.6846C0.772894 16.2887 0.539719 14.8356 0.519531 13.3721L0.518555 13.3633L0.501953 12.7246C0.499587 12.5445 0.5 12.3497 0.5 11.999C0.5 11.2985 0.499792 11.2216 0.520508 10.6338V10.623C0.540772 9.16006 0.775043 7.70791 1.21484 6.3125C1.58231 5.22242 2.15689 4.21364 2.90723 3.3418C3.80467 2.38194 4.9241 1.65722 6.16699 1.23047L6.16797 1.22949C7.30414 0.838496 8.53364 0.619056 10.7383 0.530273L11.7451 0.5H12.2559Z" stroke="#F6F6F6"/>
</g>
</g>
<defs>
<clipPath id="clip0_266_45394">
<rect width="24" height="23.9994" fill="white"/>
</clipPath>
</defs>
</svg>
