<svg width="24" height="24" viewBox="0 0 24 24" fill="none" xmlns="http://www.w3.org/2000/svg">
<g clip-path="url(#clip0_266_45330)">
<mask id="mask0_266_45330" style="mask-type:luminance" maskUnits="userSpaceOnUse" x="0" y="0" width="24" height="24">
<path d="M12.0003 0H11.7345C8.85458 0.0599985 7.37502 0.286193 6.00525 0.757781C4.67928 1.21291 3.48564 1.98724 2.52954 3.01252C1.73585 3.93419 1.12808 5.00078 0.739781 6.15345C0.28325 7.5981 0.040684 9.10181 0.0197995 10.6167C-4.47024e-09 11.2125 0 11.2947 0 11.9997C0 12.7047 -4.47024e-09 12.7869 0.0197995 13.3827C0.0405913 14.8974 0.282954 16.4009 0.739182 17.8454C1.12762 18.9978 1.73538 20.0641 2.52894 20.9857C3.485 22.0111 4.67864 22.7857 6.00465 23.241C7.37442 23.7126 8.85338 23.9388 11.7339 23.9988H12.2661C15.146 23.9388 16.6262 23.7126 17.9966 23.241C19.3223 22.7859 20.5157 22.0114 21.4711 20.9857C22.2648 20.0643 22.8725 18.9978 23.2608 17.8454C23.7172 16.4007 23.9598 14.897 23.9808 13.3821C24 12.7863 24 12.7035 24 11.9991C24 11.2947 24 11.2119 23.9808 10.6161C23.9599 9.10121 23.7173 7.59751 23.2608 6.15285C22.8728 5.00008 22.265 3.93344 21.4711 3.01192C20.5156 1.98665 19.3222 1.21247 17.9966 0.757781C16.6262 0.286193 15.1472 0.0593985 12.2661 0H12.0003Z" fill="white"/>
</mask>
<g mask="url(#mask0_266_45330)">
<path d="M30.5866 -0.154297H-5.90506V24.1535H30.5866V-0.154297Z" fill="#FF0710"/>
<path d="M16.4744 15.1381C16.4744 15.1381 15.491 12.1826 12.6345 12.4772C15.0602 13.1576 14.8928 15.2029 14.8928 15.2029H14.7806C14.7686 14.5685 14.5323 13.9589 14.1136 13.4821C13.695 13.0054 13.121 12.6923 12.4935 12.5984C12.8239 12.7708 13.0871 13.049 13.241 13.3885C13.3949 13.7281 13.4306 14.1093 13.3424 14.4715C13.3424 14.4715 12.4659 16.3819 13.5674 17.1241C13.8949 17.3641 14.2405 17.5784 14.6012 17.7649C14.7214 17.8479 14.8198 17.9586 14.8882 18.0877C14.9566 18.2168 14.993 18.3604 14.9942 18.5064C15.0209 18.7751 14.9782 19.0462 14.87 19.2936C15.5601 18.8766 16.0921 18.2422 16.3825 17.4901C16.6729 16.7379 16.7052 15.9106 16.4744 15.1381ZM15.011 16.1761L14.8388 16.5463L14.7596 16.1461L14.3546 16.0969L14.7146 15.8977L14.6354 15.4969L14.9354 15.7753L15.2918 15.5773L15.1202 15.9475L15.4202 16.2253L15.011 16.1761Z" fill="white"/>
<path d="M10.6725 17.6467C10.6725 17.6467 13.2897 15.9596 12.2973 13.2668C12.2373 15.7868 10.219 16.1318 10.219 16.1318L10.1908 16.0226C10.8021 15.8532 11.3337 15.4729 11.6914 14.9491C12.0491 14.4252 12.2097 13.7917 12.1449 13.1606C12.0598 13.5235 11.8558 13.8474 11.5652 14.0807C11.2747 14.3141 10.9144 14.4434 10.5417 14.4482C10.5417 14.4482 8.4748 14.0726 8.02901 15.323C7.87787 15.7 7.75611 16.0882 7.66482 16.484C7.61426 16.621 7.53152 16.7439 7.42355 16.8422C7.31558 16.9406 7.18556 17.0115 7.04443 17.0491C6.79091 17.142 6.51775 17.1681 6.25125 17.1247C6.82592 17.6898 7.57208 18.0478 8.37242 18.1425C9.17275 18.2372 9.98186 18.0632 10.6725 17.6479M9.30458 16.4864L8.90318 16.4114L9.27158 16.2362L9.21878 15.8312L9.49957 16.1276L9.86736 15.953L9.67297 16.313L9.95316 16.61L9.55237 16.535L9.35737 16.895L9.30458 16.4864Z" fill="white"/>
<path d="M6.94183 13.0394C6.94183 13.0394 9.46537 14.8646 11.6121 12.9602C9.24458 13.8254 8.1886 12.065 8.1886 12.065L8.2798 11.9996C8.65943 12.5077 9.20681 12.8648 9.82476 13.0076C10.4427 13.1504 11.0913 13.0696 11.6553 12.7796C11.2865 12.8323 10.9107 12.7599 10.5879 12.5739C10.2651 12.3879 10.014 12.0991 9.87456 11.7536C9.87456 11.7536 9.47197 9.69029 8.1454 9.72989C7.73929 9.72622 7.33349 9.7539 6.93163 9.81269C6.78577 9.81547 6.64138 9.78313 6.51064 9.71838C6.3799 9.65364 6.26665 9.5584 6.18045 9.4407C6.0014 9.23808 5.87743 8.99284 5.82046 8.72852C5.50357 9.46975 5.44168 10.2952 5.64452 11.0754C5.84736 11.8556 6.30345 12.5464 6.94123 13.0394M7.52502 11.3415L7.44882 10.9401L7.74881 11.2203L8.1088 11.0235L7.93421 11.3924L8.2342 11.6726L7.82981 11.6216L7.65582 11.99L7.57962 11.5892L7.17403 11.5388L7.52502 11.3415Z" fill="white"/>
<path d="M9.87094 7.63837C9.87094 7.63837 8.91696 10.6035 11.3919 12.0567C9.83914 10.0713 11.1825 8.52275 11.1825 8.52275L11.2725 8.58934C10.9072 9.10807 10.7375 9.73942 10.7934 10.3714C10.8493 11.0034 11.1272 11.5951 11.5779 12.0417C11.4131 11.7075 11.3649 11.3278 11.441 10.9631C11.5171 10.5984 11.7132 10.2696 11.9979 10.0293C11.9979 10.0293 13.8338 9.00933 13.385 7.75776C13.2628 7.37039 13.1108 6.99307 12.9303 6.62919C12.8825 6.49115 12.8685 6.3437 12.8894 6.19914C12.9103 6.05458 12.9654 5.91711 13.0503 5.79821C13.1873 5.56572 13.3819 5.3725 13.6154 5.23723C12.8129 5.16517 12.0091 5.36179 11.3305 5.79619C10.6518 6.2306 10.1367 6.87818 9.86613 7.63717M11.6601 7.66657L12.0201 7.47037L11.8461 7.83936L12.1461 8.11896L11.7411 8.06856L11.5677 8.43695L11.4945 8.03736L11.0889 7.98636L11.4489 7.78956L11.3727 7.38817L11.6601 7.66657Z" fill="white"/>
<path d="M15.9122 8.91099C15.9122 8.91099 12.7995 8.85099 12.1197 11.6385C13.5735 9.57937 15.4424 10.4224 15.4424 10.4224L15.4046 10.528C14.803 10.3272 14.1498 10.346 13.5608 10.581C12.9717 10.8161 12.485 11.2521 12.1869 11.8119C12.4598 11.5584 12.8097 11.4035 13.1809 11.3721C13.552 11.3406 13.923 11.4345 14.2346 11.6385C14.2346 11.6385 15.7406 13.1049 16.808 12.3159C17.1438 12.0872 17.4615 11.8331 17.7583 11.5557C17.8769 11.4706 18.0141 11.4152 18.1586 11.3943C18.303 11.3735 18.4503 11.3877 18.5881 11.4357C18.8503 11.5002 19.0915 11.6312 19.2883 11.8161C19.1266 11.0266 18.7073 10.3131 18.0963 9.78767C17.4852 9.2622 16.717 8.95447 15.9122 8.91279M16.3988 10.6401L16.6904 10.9269L16.2866 10.8669L16.1066 11.2329L16.0382 10.8309L15.6356 10.7709L15.9956 10.5825L15.9284 10.1794L16.2194 10.4668L16.5794 10.2772L16.3988 10.6401Z" fill="white"/>
</g>
</g>
<defs>
<clipPath id="clip0_266_45330">
<rect width="24" height="23.9988" fill="white"/>
</clipPath>
</defs>
</svg>
