<svg width="32" height="32" viewBox="0 0 32 32" fill="none" xmlns="http://www.w3.org/2000/svg">
<g clip-path="url(#clip0_266_47125)">
<mask id="mask0_266_47125" style="mask-type:luminance" maskUnits="userSpaceOnUse" x="0" y="0" width="32" height="32">
<path d="M15.998 0H15.6436C11.8039 0.079994 9.83046 0.381571 8.0034 1.01032C6.23553 1.61666 4.64424 2.64913 3.37015 4.0165C2.3122 5.24537 1.50216 6.66743 0.984726 8.20419C0.376173 10.1306 0.0527715 12.1357 0.0247983 14.1557C1.1026e-07 14.9501 0 15.0597 0 15.9956C0 16.9315 1.1026e-07 17.0443 0.0247983 17.8355C0.0528976 19.8555 0.376296 21.8606 0.984726 23.787C1.50132 25.3268 2.31139 26.7519 3.37015 27.9835C4.64424 29.3509 6.23553 30.3833 8.0034 30.9897C9.83046 31.6184 11.8015 31.9208 15.6436 32H16.3524C20.1921 31.92 22.1655 31.6184 23.9918 30.9897C25.7598 30.3836 27.3511 29.351 28.6251 27.9835C29.6834 26.7548 30.4937 25.3327 31.0113 23.7958C31.6201 21.8695 31.9436 19.8643 31.9712 17.8443C31.996 17.0499 31.996 16.9403 31.996 16.0044C31.996 15.0685 31.996 14.9549 31.9712 14.1645C31.9437 12.1444 31.6203 10.1393 31.0113 8.21299C30.4939 6.67604 29.6835 5.25393 28.6251 4.0253C27.3511 2.65775 25.7598 1.62525 23.9918 1.01912C22.1655 0.385571 20.1937 0.0791941 16.3524 0H15.998Z" fill="white"/>
</mask>
<g mask="url(#mask0_266_47125)">
<path d="M42.7992 -1.21436H-8.88013V33.2127H42.7992V-1.21436Z" fill="#0067AA"/>
<path d="M42.796 12.5358H14.0182V-1.21436H7.36345V12.5366H-8.88013V19.4289H7.36345V33.2119H14.0182V19.4281H42.796V12.5358Z" fill="#FFD500"/>
</g>
</g>
<defs>
<clipPath id="clip0_266_47125">
<rect width="31.996" height="32" fill="white"/>
</clipPath>
</defs>
</svg>
