<svg width="32" height="32" viewBox="0 0 32 32" fill="none" xmlns="http://www.w3.org/2000/svg">
<g clip-path="url(#clip0_266_48339)">
<mask id="mask0_266_48339" style="mask-type:luminance" maskUnits="userSpaceOnUse" x="0" y="0" width="32" height="32">
<path d="M15.9972 0H15.6428C11.8031 0.079994 9.82966 0.381571 8.0026 1.00952C6.23563 1.6166 4.64543 2.64963 3.37255 4.0173C2.31416 5.24556 1.50406 6.66744 0.987125 8.20418C0.378043 10.1302 0.0546283 12.1351 0.0271975 14.1549C-4.47001e-07 14.9493 0 15.0589 0 15.9988C0 16.9387 -4.47001e-07 17.0483 0.0271975 17.8427C0.0546768 19.8628 0.37809 21.8679 0.987125 23.7942C1.50443 25.3305 2.3145 26.7521 3.37255 27.9803C4.64638 29.3482 6.23773 30.381 8.0058 30.9873C9.83286 31.616 11.8047 31.9176 15.646 31.9976H16.3548C20.1945 31.9176 22.1671 31.616 23.995 30.9873C25.7631 30.381 27.3544 29.3482 28.6283 27.9803C29.6866 26.7521 30.4969 25.3306 31.0145 23.7942C31.6223 21.8676 31.9457 19.8627 31.9744 17.8427C32 17.0483 32 16.9387 32 15.9988C32 15.0589 32 14.9493 31.9744 14.1549C31.9458 12.1352 31.6224 10.1305 31.0145 8.20418C30.4973 6.6674 29.6869 5.24551 28.6283 4.0173C27.3535 2.64905 25.761 1.61624 23.9918 1.01032C22.1639 0.381571 20.1929 0.079994 16.3516 0H15.9972Z" fill="white"/>
</mask>
<g mask="url(#mask0_266_48339)">
<path d="M54.3383 26.6978H-10.6265V32.1069H54.3383V26.6978Z" fill="#09529C"/>
<path d="M54.3383 25.7964H-10.6265V26.6979H54.3383V25.7964Z" fill="white"/>
<path d="M54.3383 5.96094H-10.6265V25.7962H54.3383V5.96094Z" fill="#E31921"/>
<path d="M11.967 8.72563C10.4727 8.53075 8.95492 8.80867 7.62663 9.52037C6.29834 10.2321 5.22624 11.3418 4.56082 12.6939C3.8954 14.046 3.67005 15.5725 3.9164 17.0592C4.16276 18.5458 4.86845 19.918 5.93444 20.9832C7.00042 22.0484 8.37318 22.753 9.86004 22.9982C11.3469 23.2434 12.8732 23.0169 14.2248 22.3504C15.5763 21.684 16.6853 20.611 17.396 19.2822C18.1066 17.9533 18.3834 16.4353 18.1874 14.9412C17.9794 13.3649 17.2571 11.9012 16.1324 10.7774C15.0077 9.65354 13.5435 8.93232 11.967 8.72563Z" fill="white"/>
<path d="M13.5684 16.7033L17.6785 13.7196H12.5981L11.0278 8.89111L9.45835 13.7196H4.37793L8.48802 16.7033L6.91774 21.5318L11.0278 18.5472L15.1387 21.5318L13.5684 16.7033Z" fill="#E31921"/>
<path d="M54.3383 5.05957H-10.6265V5.9611H54.3383V5.05957Z" fill="white"/>
<path d="M54.3383 -0.349609H-10.6265V5.05959H54.3383V-0.349609Z" fill="#09529C"/>
</g>
</g>
<defs>
<clipPath id="clip0_266_48339">
<rect width="32" height="31.9976" fill="white"/>
</clipPath>
</defs>
</svg>
