<svg width="32" height="32" viewBox="0 0 32 32" fill="none" xmlns="http://www.w3.org/2000/svg">
<g clip-path="url(#clip0_266_47374)">
<mask id="mask0_266_47374" style="mask-type:luminance" maskUnits="userSpaceOnUse" x="0" y="0" width="32" height="32">
<path d="M16.0012 0H15.6469C11.8077 0.08 9.83539 0.3824 8.0078 1.012C6.24043 1.618 4.64961 2.6503 3.37604 4.0176C2.31601 5.24579 1.50438 6.66808 0.986178 8.2056C0.3773 10.1318 0.053935 12.1368 0.0263933 14.1568C-7.68727e-07 14.9512 0 15.0616 0 16.0016C0 16.9416 -7.68727e-07 17.0496 0.0263933 17.8416C0.0538505 19.8624 0.377214 21.8682 0.986178 23.7952C1.50353 25.3322 2.31375 26.7545 3.37204 27.9832C4.64582 29.3502 6.23658 30.3825 8.0038 30.9888C9.83139 31.6184 11.8021 31.9208 15.6429 31.9992H16.3523C20.1915 31.9192 22.1638 31.6184 23.9906 30.9888C25.7582 30.3827 27.3492 29.3504 28.6232 27.9832C29.6826 26.7546 30.4941 25.3324 31.013 23.7952C31.6216 21.8684 31.9449 19.8629 31.9728 17.8424C32 17.048 32 16.9384 32 16.0024C32 15.0664 32 14.952 31.9728 14.1576C31.9449 12.1377 31.6216 10.1327 31.013 8.2064C30.4957 6.66934 29.6855 5.24712 28.6272 4.0184C27.3534 2.65091 25.7623 1.61859 23.9946 1.0128C22.1678 0.3832 20.1963 0.0807999 16.3563 0.000799942L16.0012 0Z" fill="white"/>
</mask>
<g mask="url(#mask0_266_47374)">
<path d="M56.569 30.5122H-1.60034V32.9322H56.569V30.5122Z" fill="white"/>
<path d="M56.0339 0.148926H-5.02832V2.69453H56.0339V0.148926Z" fill="#D80031"/>
<path d="M56.0339 2.69434H-5.02832V5.23594H56.0339V2.69434Z" fill="white"/>
<path d="M56.0339 5.23633H-5.02832V7.78113H56.0339V5.23633Z" fill="#D80031"/>
<path d="M56.0339 7.78076H-5.02832V10.3224H56.0339V7.78076Z" fill="white"/>
<path d="M56.0339 10.3223H-5.02832V12.8655H56.0339V10.3223Z" fill="#D80031"/>
<path d="M56.0339 12.8657H-5.02832V15.4089H56.0339V12.8657Z" fill="white"/>
<path d="M56.0339 15.4087H-5.02832V17.9503H56.0339V15.4087Z" fill="#D80031"/>
<path d="M56.0339 17.9497H-5.02832V20.4945H56.0339V17.9497Z" fill="white"/>
<path d="M56.0339 20.4951H-5.02832V23.0351H56.0339V20.4951Z" fill="#D80031"/>
<path d="M56.0339 23.0347H-5.02832V25.5795H56.0339V23.0347Z" fill="white"/>
<path d="M56.0339 25.5791H-5.02832V28.1223H56.0339V25.5791Z" fill="#D80031"/>
<path d="M56.0339 28.1226H-5.02832V30.6658H56.0339V28.1226Z" fill="white"/>
<path d="M56.0339 30.6655H-5.02832V33.2087H56.0339V30.6655Z" fill="#D80031"/>
<path d="M18.532 -5.32471H-17.0896V15.0217H18.532V-5.32471Z" fill="#2530A9"/>
<path fill-rule="evenodd" clip-rule="evenodd" d="M6.78507 9.69455C6.78576 9.00055 6.97132 8.31926 7.32267 7.7208C7.67401 7.12234 8.17843 6.62833 8.78403 6.28961C9.38963 5.95089 10.0745 5.7797 10.7682 5.79364C11.462 5.80759 12.1394 6.00617 12.7309 6.36895C12.0893 5.79565 11.2955 5.42031 10.4453 5.28821C9.59511 5.1561 8.72487 5.27289 7.93957 5.62446C7.15427 5.97604 6.48746 6.5474 6.01957 7.2696C5.55169 7.9918 5.30273 8.83398 5.30273 9.69455C5.30273 10.5551 5.55169 11.3973 6.01957 12.1195C6.48746 12.8417 7.15427 13.4131 7.93957 13.7646C8.72487 14.1162 9.59511 14.233 10.4453 14.1009C11.2955 13.9688 12.0893 13.5935 12.7309 13.0202C12.1394 13.3829 11.462 13.5815 10.7682 13.5955C10.0745 13.6094 9.38963 13.4382 8.78403 13.0995C8.17843 12.7608 7.67401 12.2668 7.32267 11.6683C6.97132 11.0698 6.78576 10.3886 6.78507 9.69455Z" fill="#F5D028"/>
<path fill-rule="evenodd" clip-rule="evenodd" d="M15.7095 9.69465L17.8466 8.86745L15.5615 9.05065L17.1284 7.37865L15.1488 8.53305L15.8351 6.34585L14.5553 8.24585L14.2242 5.97705L13.9843 7.60265L13.9163 8.07145L13.8899 8.24585L12.6102 6.34585L13.2972 8.53305L11.3177 7.37865L12.8837 9.05065L10.5986 8.86745L12.7374 9.69465L10.5986 10.5211L12.8837 10.3403L11.3177 12.0123L13.2972 10.8563L12.6078 13.0435L13.8875 11.1443L13.9139 11.3179L13.9819 11.7867L14.2218 13.4115L14.5529 11.1443L15.8327 13.0435L15.1464 10.8563L17.126 12.0123L15.5591 10.3403L17.8442 10.5211L15.7095 9.69465Z" fill="#F5D028"/>
</g>
</g>
<defs>
<clipPath id="clip0_266_47374">
<rect width="32" height="31.9992" fill="white"/>
</clipPath>
</defs>
</svg>
