<svg width="24" height="24" viewBox="0 0 24 24" fill="none" xmlns="http://www.w3.org/2000/svg">
<g clip-path="url(#clip0_266_45547)">
<mask id="mask0_266_45547" style="mask-type:luminance" maskUnits="userSpaceOnUse" x="0" y="0" width="24" height="24">
<path d="M11.9982 0H11.733C8.85332 0.059994 7.37326 0.286171 6.003 0.757724C4.67727 1.21275 3.4839 1.98704 2.52815 3.0123C1.73441 3.9335 1.12686 4.99988 0.739126 6.15239C0.282394 7.59708 0.0398413 9.10091 0.0191978 10.6159C-2.4808e-07 11.2117 0 11.2945 0 11.9958C0 12.6971 -2.4808e-07 12.7835 0.0191978 13.3787C0.0398413 14.8937 0.282394 16.3975 0.739126 17.8422C1.12686 18.9947 1.73441 20.0611 2.52815 20.9823C3.48402 22.0076 4.67734 22.782 6.003 23.2375C7.37326 23.7084 8.85151 23.9346 11.733 23.9946H12.2646C15.1443 23.9346 16.6243 23.7084 17.994 23.2375C19.3198 22.7823 20.5132 22.0078 21.4689 20.9823C22.2634 20.0611 22.8719 18.9948 23.2609 17.8422C23.717 16.3974 23.9596 14.8936 23.9808 13.3787C24 12.7835 24 12.7013 24 11.9958C24 11.2903 24 11.2093 23.9808 10.6159C23.9596 9.10096 23.717 7.59722 23.2609 6.15239C22.8726 4.99998 22.2649 3.93366 21.4713 3.0123C20.5157 1.9868 19.3223 1.21246 17.9964 0.757724C16.6243 0.283772 15.1455 0.059994 12.2646 0H11.9982Z" fill="white"/>
</mask>
<g mask="url(#mask0_266_45547)">
<path d="M37.7806 -0.959961H-6.67615V7.64918H37.7806V-0.959961Z" fill="#419976"/>
<path d="M37.7806 7.64917H-6.67615V16.3003H37.7806V7.64917Z" fill="white"/>
<path d="M37.7806 16.3003H-6.67615V24.9514H37.7806V16.3003Z" fill="#BC0030"/>
<path fill-rule="evenodd" clip-rule="evenodd" d="M-6.67615 -0.959961V24.9515L6.29096 16.3003V7.64918L-6.61075 -0.959961H-6.67615Z" fill="black"/>
</g>
</g>
<defs>
<clipPath id="clip0_266_45547">
<rect width="24" height="23.9946" fill="white"/>
</clipPath>
</defs>
</svg>
