<svg width="24" height="24" viewBox="0 0 24 24" fill="none" xmlns="http://www.w3.org/2000/svg">
<g clip-path="url(#clip0_266_45566)">
<mask id="mask0_266_45566" style="mask-type:luminance" maskUnits="userSpaceOnUse" x="0" y="0" width="24" height="24">
<path d="M12.0006 0H11.7348C8.8548 0.06 7.3746 0.2862 6.0042 0.7578C4.67831 1.21245 3.48491 1.98689 2.5296 3.0126C1.73583 3.93412 1.12786 5.00052 0.7392 6.153C0.282977 7.59797 0.0404135 9.10187 0.0192 10.617C3.7998e-08 11.2128 0 11.2956 0 11.997C0 12.6984 3.7998e-08 12.7848 0.0192 13.38C0.0404135 14.8951 0.282977 16.399 0.7392 17.844C1.12786 18.9965 1.73583 20.0629 2.5296 20.9844C3.48503 22.0101 4.67837 22.7847 6.0042 23.2398C7.3746 23.7108 8.8536 23.937 11.7348 23.997H12.2664C15.1464 23.937 16.6266 23.7108 17.9964 23.2398C19.3224 22.7844 20.5161 22.0099 21.4722 20.9844C22.2656 20.0629 22.873 18.9965 23.2608 17.844C23.7178 16.3992 23.9604 14.8952 23.9808 13.38C24 12.7848 24 12.7026 24 11.997C24 11.2914 24 11.2104 23.9808 10.617C23.9604 9.1018 23.7178 7.59778 23.2608 6.153C22.874 4.99985 22.2674 3.93258 21.4746 3.0102C20.5191 1.98495 19.3261 1.21058 18.0006 0.7554C16.629 0.2838 15.15 0.06 12.2688 0H12.0006Z" fill="white"/>
</mask>
<g mask="url(#mask0_266_45566)">
<path d="M8.8278 -0.959961H-4.1394V24.954H8.8278V-0.959961Z" fill="#BC0030"/>
<path d="M40.3206 -0.959961H8.82776V7.67704H40.3206V-0.959961Z" fill="#3F9B13"/>
<path d="M40.3206 7.677H8.82776V16.3158H40.3206V7.677Z" fill="white"/>
<path d="M40.3206 16.3159H8.82776V24.9541H40.3206V16.3159Z" fill="black"/>
</g>
</g>
<defs>
<clipPath id="clip0_266_45566">
<rect width="24" height="23.997" fill="white"/>
</clipPath>
</defs>
</svg>
