<svg width="24" height="24" viewBox="0 0 24 24" fill="none" xmlns="http://www.w3.org/2000/svg">
<g clip-path="url(#clip0_266_45199)">
<mask id="mask0_266_45199" style="mask-type:luminance" maskUnits="userSpaceOnUse" x="0" y="0" width="24" height="25">
<path d="M11.9994 0.0018001H11.7342C8.85404 0.0618031 7.37377 0.287414 6.0033 0.759038C4.67719 1.21442 3.48347 1.98901 2.52733 3.01455C1.73372 3.93686 1.1263 5.00417 0.738637 6.15751C0.282207 7.60251 0.0396266 9.10651 0.018601 10.6217C8.27056e-08 11.2176 0 11.3004 0 12.0048C0 12.7092 8.27056e-08 12.7914 0.018601 13.3849C0.0396197 14.9003 0.2822 16.4045 0.738637 17.8497C1.12651 19.0024 1.73392 20.0691 2.52733 20.9909C3.4835 22.0162 4.67723 22.7906 6.0033 23.2458C7.37377 23.7174 8.85224 23.9436 11.7342 24.003H12.2658C15.146 23.943 16.6262 23.7174 17.9961 23.2458C19.3222 22.7906 20.5159 22.0162 21.4721 20.9909C22.2655 20.069 22.8731 19.0023 23.2614 17.8497C23.7182 16.4046 23.9608 14.9003 23.9814 13.3849C24 12.789 24 12.7074 24 12.0048C24 11.3022 24 11.2176 23.9814 10.6217C23.9607 9.10648 23.7181 7.60243 23.2614 6.15751C22.873 5.0051 22.2654 3.93867 21.4721 3.01695C20.5162 1.9898 19.3223 1.21373 17.9955 0.757238C16.6256 0.285614 15.1466 0.0588029 12.2652 0L11.9994 0.0018001Z" fill="white"/>
</mask>
<g mask="url(#mask0_266_45199)">
<path d="M40.8549 21.9126H-6.1857V23.8165H40.8549V21.9126Z" fill="#D11242"/>
<path d="M40.8549 20.0105H-6.1857V21.9132H40.8549V20.0105Z" fill="white"/>
<path d="M40.8549 18.1072H-6.1857V20.0105H40.8549V18.1072Z" fill="#D11242"/>
<path d="M40.8549 16.2039H-6.1857V18.1072H40.8549V16.2039Z" fill="white"/>
<path d="M40.8549 14.301H-6.1857V16.2049H40.8549V14.301Z" fill="#D11242"/>
<path d="M40.8549 12.3977H-6.1857V14.301H40.8549V12.3977Z" fill="white"/>
<path d="M40.8549 10.4951H12.6306V12.3978H40.8549V10.4951Z" fill="#D11242"/>
<path d="M40.8549 8.59302H12.6306V10.4957H40.8549V8.59302Z" fill="white"/>
<path d="M40.8549 6.68921H12.6306V8.5931H40.8549V6.68921Z" fill="#D11242"/>
<path d="M40.8549 4.78638H12.6306V6.68907H40.8549V4.78638Z" fill="white"/>
<path d="M40.8549 2.88379H12.6306V4.78708H40.8549V2.88379Z" fill="#D11242"/>
<path d="M40.8549 0.979736H12.6306V2.88363H40.8549V0.979736Z" fill="white"/>
<path d="M40.8549 -0.922852H12.6306V0.979844H40.8549V-0.922852Z" fill="#D11242"/>
<path d="M12.6306 -0.922852H-6.1857V12.3978H12.6306V-0.922852Z" fill="#002D62"/>
<path d="M-0.301217 2.26926L-0.153609 1.81323L-0.541229 1.53122H-0.0612051L0.0870027 1.0752L0.23521 1.53122H0.715234L0.327014 1.81323L0.475222 2.26926L0.0876024 1.98724L-0.301217 2.26926Z" fill="white"/>
<path d="M1.26668 0.937335L1.41489 0.480713L1.02667 0.199299H1.5067L1.6549 -0.257324L1.80311 0.199299H2.28314L1.89552 0.480713L2.04372 0.937335L1.6555 0.655321L1.26668 0.937335Z" fill="white"/>
<path d="M2.83456 2.26926L2.98216 1.81323L2.59454 1.53122H3.07457L3.22337 1.0752L3.37098 1.53122H3.85101L3.46339 1.81323L3.61159 2.26926L3.22397 1.98724L2.83456 2.26926Z" fill="white"/>
<path d="M4.40243 0.937335L4.55063 0.480713L4.16241 0.199299H4.64244L4.79005 -0.257324L4.93885 0.199299H5.41888L5.03066 0.480713L5.17887 0.937335L4.79065 0.655321L4.40243 0.937335Z" fill="white"/>
<path d="M5.9703 2.26926L6.11851 1.81323L5.73029 1.53122H6.21031L6.35792 1.0752L6.50673 1.53122H6.98675L6.59853 1.81323L6.74674 2.26926L6.35492 1.98724L5.9703 2.26926Z" fill="white"/>
<path d="M7.5376 0.937335L7.68581 0.480713L7.29819 0.199299H7.77821L7.92642 -0.257324L8.07463 0.199299H8.55465L8.16703 0.480713L8.31464 0.937335L7.92642 0.655321L7.5376 0.937335Z" fill="white"/>
<path d="M9.10547 2.26926L9.25368 1.81323L8.86606 1.53122H9.34608L9.49429 1.0752L9.6431 1.53122H10.1231L9.7343 1.81323L9.88251 2.26926L9.49429 1.98724L9.10547 2.26926Z" fill="white"/>
<path d="M10.6751 0.937315L10.8233 0.480692L10.4351 0.198078H10.9151L11.0634 -0.258545L11.2116 0.198078H11.6916L11.3028 0.479492L11.451 0.936115L11.0628 0.654101L10.6751 0.937315Z" fill="white"/>
<path d="M-0.301217 4.93638L-0.153609 4.48096L-0.541229 4.19834H-0.0612051L0.0870027 3.74292L0.23521 4.19834H0.715234L0.327014 4.48096L0.475222 4.93638L0.0876024 4.65437L-0.301217 4.93638Z" fill="white"/>
<path d="M1.26668 3.60264L1.41489 3.14722L1.02667 2.8646H1.5067L1.6549 2.40918L1.80311 2.8646H2.28314L1.89552 3.14722L2.04372 3.60264L1.6555 3.32063L1.26668 3.60264Z" fill="white"/>
<path d="M2.83456 4.93638L2.98216 4.48096L2.59454 4.19834H3.07457L3.22337 3.74292L3.37098 4.19834H3.85101L3.46339 4.48096L3.61159 4.93638L3.22277 4.65737L2.83456 4.93638Z" fill="white"/>
<path d="M4.40243 3.60264L4.55063 3.14722L4.16241 2.8646H4.64244L4.79005 2.40918L4.93885 2.8646H5.41888L5.03066 3.14722L5.17887 3.60264L4.79065 3.32063L4.40243 3.60264Z" fill="white"/>
<path d="M5.9703 4.93638L6.11851 4.48096L5.73029 4.19834H6.21031L6.35792 3.74292L6.50673 4.19834H6.98675L6.59853 4.48096L6.74674 4.93638L6.35492 4.65737L5.9703 4.93638Z" fill="white"/>
<path d="M7.5376 3.60264L7.68581 3.14722L7.29819 2.8646H7.77821L7.92642 2.40918L8.07463 2.8646H8.55465L8.16703 3.14722L8.31464 3.60264L7.92642 3.32063L7.5376 3.60264Z" fill="white"/>
<path d="M9.10547 4.93638L9.25368 4.48096L8.86606 4.19834H9.34608L9.49429 3.74292L9.6431 4.19834H10.1231L9.7343 4.48096L9.88251 4.93638L9.49429 4.65437L9.10547 4.93638Z" fill="white"/>
<path d="M10.6751 3.60264L10.8233 3.14722L10.4351 2.8646H10.9151L11.0634 2.40918L11.2116 2.8646H11.6916L11.3028 3.14722L11.451 3.60264L11.0628 3.32063L10.6751 3.60264Z" fill="white"/>
<path d="M-0.301217 7.60362L-0.153609 7.14819L-0.541229 6.86558H-0.0612051L0.0870027 6.41016L0.23521 6.86558H0.715234L0.327014 7.14819L0.475222 7.60362L0.0876024 7.3222L-0.301217 7.60362Z" fill="white"/>
<path d="M1.26668 6.27025L1.41489 5.81483L1.02667 5.53222H1.5067L1.6549 5.07739L1.80311 5.53282H2.28314L1.89552 5.81543L2.04372 6.27085L1.6555 5.98944L1.26668 6.27025Z" fill="white"/>
<path d="M2.83456 7.60362L2.98216 7.14819L2.59454 6.86558H3.07457L3.22337 6.41016L3.37098 6.86558H3.85101L3.46339 7.14819L3.61159 7.60362L3.22397 7.3222L2.83456 7.60362Z" fill="white"/>
<path d="M4.40243 6.27025L4.55063 5.81483L4.16241 5.53222H4.64244L4.79005 5.07739L4.93885 5.53282H5.41888L5.03066 5.81543L5.17887 6.27085L4.79065 5.98944L4.40243 6.27025Z" fill="white"/>
<path d="M5.9703 7.60362L6.11851 7.14819L5.73029 6.86558H6.21031L6.35792 6.41016L6.50673 6.86558H6.98675L6.59853 7.14819L6.74674 7.60362L6.35852 7.3222L5.9703 7.60362Z" fill="white"/>
<path d="M7.5376 6.27025L7.68581 5.81483L7.29819 5.53222H7.77821L7.92582 5.07739L8.07403 5.53282H8.55405L8.16643 5.81543L8.31404 6.27085L7.92582 5.98944L7.5376 6.27025Z" fill="white"/>
<path d="M9.10547 7.60362L9.25368 7.14819L8.86606 6.86558H9.34608L9.49429 6.41016L9.6431 6.86558H10.1231L9.7343 7.14819L9.88251 7.60362L9.49429 7.3222L9.10547 7.60362Z" fill="white"/>
<path d="M10.6751 6.27025L10.8233 5.81483L10.4351 5.53222H10.9151L11.0616 5.07739L11.2098 5.53282H11.6898L11.301 5.81543L11.4492 6.27085L11.061 5.98944L10.6751 6.27025Z" fill="white"/>
<path d="M-0.301217 10.2712L-0.153609 9.81518L-0.541229 9.53317H-0.0612051L0.0870027 9.07715L0.23521 9.53317H0.715234L0.327014 9.81518L0.475222 10.2712L0.0876024 9.98919L-0.301217 10.2712Z" fill="white"/>
<path d="M1.26668 8.93807L1.41489 8.48205L1.02667 8.20003H1.5067L1.6549 7.74341L1.80311 8.20003H2.28314L1.89552 8.48205L2.04372 8.93807L1.6555 8.65605L1.26668 8.93807Z" fill="white"/>
<path d="M2.83456 10.2712L2.98216 9.81518L2.59454 9.53317H3.07457L3.22337 9.07715L3.37098 9.53317H3.85101L3.46339 9.81518L3.61159 10.2712L3.22397 9.98919L2.83456 10.2712Z" fill="white"/>
<path d="M4.40243 8.93807L4.55063 8.48205L4.16241 8.20003H4.64244L4.79005 7.74341L4.93885 8.20003H5.41888L5.03066 8.48205L5.17887 8.93807L4.79065 8.65605L4.40243 8.93807Z" fill="white"/>
<path d="M5.9703 10.2712L6.11851 9.81518L5.73029 9.53317H6.21031L6.35792 9.07715L6.50673 9.53317H6.98675L6.59853 9.81518L6.74674 10.2712L6.35852 9.98919L5.9703 10.2712Z" fill="white"/>
<path d="M7.5376 8.93807L7.68581 8.48205L7.29819 8.20003H7.77821L7.92642 7.74341L8.07463 8.20003H8.55465L8.16703 8.48205L8.31464 8.93807L7.92642 8.65605L7.5376 8.93807Z" fill="white"/>
<path d="M9.10547 10.2712L9.25368 9.81518L8.86606 9.53317H9.34608L9.49429 9.07715L9.6431 9.53317H10.1231L9.7343 9.81518L9.88251 10.2712L9.49429 9.98919L9.10547 10.2712Z" fill="white"/>
<path d="M10.6751 8.93803L10.8233 8.482L10.4351 8.19759H10.9151L11.0634 7.74097L11.2116 8.19759H11.6916L11.3028 8.4796L11.451 8.93563L11.0628 8.65361L10.6751 8.93803Z" fill="white"/>
<path d="M1.26668 11.6051L1.41489 11.1497L1.02667 10.8676H1.5067L1.6549 10.4116L1.80311 10.8676H2.28314L1.89552 11.1497L2.04372 11.6051L1.6555 11.3231L1.26668 11.6051Z" fill="white"/>
<path d="M4.40243 11.6051L4.55063 11.1497L4.16241 10.8676H4.64244L4.79005 10.4116L4.93885 10.8676H5.41888L5.03066 11.1497L5.17887 11.6051L4.79065 11.3231L4.40243 11.6051Z" fill="white"/>
<path d="M7.5376 11.6051L7.68581 11.1497L7.29819 10.8676H7.77821L7.92642 10.4116L8.07463 10.8676H8.55465L8.16703 11.1497L8.31464 11.6051L7.92642 11.3231L7.5376 11.6051Z" fill="white"/>
<path d="M10.6751 11.6051L10.8233 11.1497L10.4351 10.8676H10.9151L11.0634 10.4116L11.2116 10.8676H11.6916L11.3028 11.1497L11.451 11.6051L11.0628 11.3231L10.6751 11.6051Z" fill="white"/>
</g>
</g>
<defs>
<clipPath id="clip0_266_45199">
<rect width="24" height="24.003" fill="white"/>
</clipPath>
</defs>
</svg>
