<svg width="32" height="32" viewBox="0 0 32 32" fill="none" xmlns="http://www.w3.org/2000/svg">
<g clip-path="url(#clip0_266_48754)">
<mask id="mask0_266_48754" style="mask-type:luminance" maskUnits="userSpaceOnUse" x="0" y="0" width="32" height="32">
<path d="M16.0008 0H15.6464C11.8062 0.080004 9.83169 0.380819 8.0052 1.00885C6.23733 1.6169 4.64603 2.6502 3.37137 4.0178C2.31312 5.247 1.50296 6.66953 0.985649 8.20681C0.376907 10.1332 0.0534609 12.1383 0.0256013 14.1583C-2.08627e-08 14.9527 0 15.0624 0 16.0024C0 16.9424 -2.08627e-08 17.0513 0.0256013 17.8425C0.0537522 19.863 0.377189 21.8686 0.985649 23.7956C1.50324 25.332 2.31339 26.7537 3.37137 27.9822C4.6454 29.35 6.23696 30.3826 8.0052 30.9888C9.83169 31.6184 11.8038 31.92 15.6464 31.9992H16.3544C20.1946 31.9192 22.1683 31.6184 23.9956 30.9888C25.764 30.3825 27.3558 29.3499 28.6302 27.9822C29.6879 26.7536 30.4978 25.332 31.0152 23.7956C31.6232 21.8685 31.9467 19.863 31.9752 17.8425C32 17.0481 32 16.9392 32 16.0024C32 15.0656 32 14.9527 31.9752 14.1583C31.9469 12.1383 31.6235 10.1333 31.0152 8.20681C30.4981 6.6696 29.6882 5.24707 28.6302 4.0178C27.3549 2.65095 25.7634 1.61825 23.9956 1.01045C22.1683 0.380819 20.197 0.079204 16.3544 0H16.0008Z" fill="white"/>
</mask>
<g mask="url(#mask0_266_48754)">
<path d="M55.0883 -0.222168H-0.383301V10.5552H55.0883V-0.222168Z" fill="#C0003B"/>
<path d="M55.0883 10.5542H-0.383301V21.3331H55.0883V10.5542Z" fill="white"/>
<path d="M55.0883 21.3335H-0.383301V32.1108H55.0883V21.3335Z" fill="black"/>
<path fill-rule="evenodd" clip-rule="evenodd" d="M-0.383301 -0.222168V32.1106L21.189 15.9442L-0.383301 -0.222168Z" fill="#2F742E"/>
</g>
</g>
<defs>
<clipPath id="clip0_266_48754">
<rect width="32" height="31.9992" fill="white"/>
</clipPath>
</defs>
</svg>
