<svg width="24" height="24" viewBox="0 0 24 24" fill="none" xmlns="http://www.w3.org/2000/svg">
<g clip-path="url(#clip0_266_46896)">
<mask id="mask0_266_46896" style="mask-type:luminance" maskUnits="userSpaceOnUse" x="0" y="0" width="24" height="24">
<path d="M12.0003 0H11.7345C8.85442 0.0600015 7.37418 0.286207 6.00375 0.757219C4.67908 1.21334 3.48672 1.98784 2.53146 3.01268C1.7378 3.93455 1.13019 5.00143 0.742219 6.15435C0.285394 7.59881 0.0428083 9.10243 0.0222006 10.6173C0 11.2137 0 11.2971 0 12.0009C0 12.7047 2.23523e-09 12.7869 0.0192005 13.3809C0.0399414 14.8961 0.282522 16.4002 0.739218 17.845C1.1271 18.9977 1.73472 20.0641 2.52846 20.9855C3.48374 22.0116 4.67745 22.7861 6.00375 23.2404C7.37418 23.7126 8.85322 23.9388 11.7345 23.9988H12.2661C15.1462 23.9388 16.6258 23.7126 17.9956 23.2404C19.3223 22.7861 20.5163 22.0116 21.4721 20.9855C22.2657 20.0641 22.8731 18.9976 23.2608 17.845C23.7177 16.4002 23.9603 14.8962 23.9808 13.3809C24 12.7845 24 12.7035 24 12.0009C24 11.2983 24 11.2137 23.9808 10.6173C23.9605 9.10241 23.7179 7.59874 23.2608 6.15435C22.873 5.00147 22.2656 3.9346 21.4721 3.01268C20.5169 1.98808 19.3248 1.2136 18.0005 0.757219C16.6288 0.286207 15.1504 0.0600015 12.2691 0H12.0003Z" fill="white"/>
</mask>
<g mask="url(#mask0_266_46896)">
<path d="M41.7138 -0.223145H-0.299805V24.2653H41.7138V-0.223145Z" fill="#4A9318"/>
<path d="M41.7138 3.2749H-0.299805V20.7671H41.7138V3.2749Z" fill="#F6D128"/>
<path d="M41.7138 6.77295H-0.299805V17.2684H41.7138V6.77295Z" fill="#CB0423"/>
<path d="M41.7138 10.2722H-0.299805V13.7703H41.7138V10.2722Z" fill="black"/>
<path fill-rule="evenodd" clip-rule="evenodd" d="M-0.299805 -0.223145V24.2653H0.590618L16.917 12.0214L0.590618 -0.223145H-0.299805Z" fill="black"/>
<path fill-rule="evenodd" clip-rule="evenodd" d="M-0.299805 -0.223145V24.2653L16.0272 12.0214L-0.299805 -0.223145Z" fill="white"/>
<path fill-rule="evenodd" clip-rule="evenodd" d="M6.30853 5.80151L3.55566 11.3817L7.74017 13.4433L6.30853 5.80151Z" fill="#CB0423"/>
<path fill-rule="evenodd" clip-rule="evenodd" d="M6.30885 5.80151L9.06172 11.3817L4.87842 13.4433L6.30885 5.80151Z" fill="#CB0423"/>
<path fill-rule="evenodd" clip-rule="evenodd" d="M6.30857 5.80151L4.22412 11.6613L8.61983 13.2249L6.30857 5.80151Z" fill="#CB0423"/>
<path fill-rule="evenodd" clip-rule="evenodd" d="M6.3087 5.80151L8.39256 11.6613L3.99805 13.2249L6.3087 5.80151Z" fill="#CB0423"/>
<path fill-rule="evenodd" clip-rule="evenodd" d="M12.2238 10.0971L6.06881 9.20312L5.40039 13.8208L12.2238 10.0971Z" fill="#CB0423"/>
<path fill-rule="evenodd" clip-rule="evenodd" d="M0.393066 10.0971L6.54802 9.20312L7.21884 13.819L0.393066 10.0971Z" fill="#CB0423"/>
<path fill-rule="evenodd" clip-rule="evenodd" d="M12.2237 10.0971L6.00637 9.92725L5.88037 14.5906L12.2237 10.0971Z" fill="#CB0423"/>
<path fill-rule="evenodd" clip-rule="evenodd" d="M0.393066 10.0971L6.61042 9.92554L6.73942 14.5889L0.393066 10.0971Z" fill="#CB0423"/>
<path fill-rule="evenodd" clip-rule="evenodd" d="M9.45006 16.3457L8.35983 11.1135L5.74316 11.6589L9.45006 16.3457Z" fill="#CB0423"/>
<path fill-rule="evenodd" clip-rule="evenodd" d="M9.44986 16.3457L4.81055 13.6912L6.13778 11.3716L9.44986 16.3457Z" fill="#CB0423"/>
<path fill-rule="evenodd" clip-rule="evenodd" d="M3.1665 16.3457L7.80582 13.6912L6.48039 11.3716L3.1665 16.3457Z" fill="#CB0423"/>
<path fill-rule="evenodd" clip-rule="evenodd" d="M3.1665 16.3457L4.25673 11.1135L6.874 11.6589L3.1665 16.3457Z" fill="#CB0423"/>
<path fill-rule="evenodd" clip-rule="evenodd" d="M8.44381 15.9058C8.44724 15.1095 8.58937 14.3198 8.86382 13.5723C9.0176 13.1533 9.20418 12.747 9.42183 12.3573C9.53126 12.364 9.63925 12.3856 9.74284 12.4215C10.0861 12.5169 10.1803 12.4989 10.1803 12.3393C10.1803 12.2487 9.82924 11.9361 8.1132 10.5002C6.95817 9.53242 6.00955 8.7692 5.96215 8.7692C5.94093 8.77011 5.91989 8.76495 5.9015 8.75432C5.88312 8.74369 5.86814 8.72804 5.85834 8.7092C5.84814 8.6774 5.79294 8.30299 5.73834 7.87638C5.70315 7.56084 5.64541 7.24823 5.56554 6.94095C5.50397 6.81042 5.40499 6.70113 5.28116 6.62698C5.15734 6.55284 5.01426 6.51718 4.87012 6.52454C4.78206 6.50557 4.69108 6.50456 4.60262 6.52157C4.51416 6.53858 4.43005 6.57327 4.35531 6.62355C4.24129 6.69255 4.1126 6.73367 3.9797 6.74355C3.93192 6.74243 3.8844 6.75076 3.83985 6.76806C3.79531 6.78535 3.75461 6.81127 3.72011 6.84433C3.6856 6.87738 3.65796 6.91693 3.63877 6.96069C3.61958 7.00446 3.60922 7.05158 3.60829 7.09936V7.22836L3.9083 7.21936C4.0727 7.21456 4.1567 7.21936 4.0937 7.23316C3.8807 7.27396 3.9665 7.57517 4.2173 7.66517C4.48731 7.76178 4.47651 7.70477 4.47651 8.97081C4.52145 9.44786 4.49353 9.92898 4.39371 10.3976C4.2848 10.7963 4.2848 11.217 4.39371 11.6157C4.43751 11.7549 4.47411 11.8839 4.47531 11.9025C4.39169 12.0369 4.29631 12.1636 4.1903 12.2811C3.94041 12.545 3.78002 12.8809 3.73189 13.2411C3.72428 13.3217 3.69574 13.3988 3.64909 13.4649C3.59761 13.5377 3.56946 13.6244 3.56839 13.7136C3.56732 13.8027 3.59337 13.8901 3.64309 13.9641C3.90081 14.6905 4.08298 15.4415 4.1867 16.2052C4.1867 16.3294 4.2065 16.3252 4.86892 16.1854C5.67672 16.0648 6.4967 16.0488 7.30858 16.138C7.60439 16.18 7.9488 16.2436 8.0736 16.2778C8.46721 16.3864 8.44561 16.408 8.44681 15.9004" fill="black"/>
<path fill-rule="evenodd" clip-rule="evenodd" d="M7.90492 16.165C7.25431 16.0186 6.58638 15.9643 5.92067 16.0036C5.54566 16.0198 5.15205 16.0498 5.04644 16.0702L4.85504 16.108L4.80764 15.7876C4.78642 15.6774 4.77497 15.5655 4.77344 15.4533C4.90676 15.4219 5.04179 15.3983 5.17785 15.3825C6.19309 15.2828 7.21681 15.31 8.22532 15.4635L8.36033 15.4911V15.8764C8.36033 16.1572 8.34593 16.2598 8.30813 16.2556C8.27992 16.252 8.09812 16.2112 7.90492 16.165Z" fill="#FCFF2C"/>
<path fill-rule="evenodd" clip-rule="evenodd" d="M4.26633 16.1939C4.26633 16.1015 4.03653 14.9975 3.93633 14.6081C3.86792 14.3417 3.81152 14.1083 3.81152 14.0867C3.81152 14.0651 3.87152 14.0915 3.95073 14.1437C4.01491 14.1919 4.08917 14.2249 4.16793 14.2403C4.38094 14.2433 4.49734 14.5637 4.67794 15.6419C4.70375 15.7925 4.73255 15.9623 4.74335 16.0175C4.76015 16.1039 4.73675 16.1231 4.55374 16.1663C4.32274 16.2215 4.26633 16.2263 4.26633 16.1939Z" fill="#FCFF2C"/>
<path fill-rule="evenodd" clip-rule="evenodd" d="M8.30154 15.3491C8.28894 15.3257 8.30574 15.2819 8.33994 15.2507C8.38974 15.2039 8.39994 15.2069 8.39994 15.2651C8.39994 15.3509 8.33214 15.4073 8.29974 15.3491" fill="#FCFF2C"/>
<path fill-rule="evenodd" clip-rule="evenodd" d="M4.98018 15.1733C5.08999 15.0533 5.09239 15.0497 5.17819 15.1367C5.26399 15.2237 5.26099 15.2267 5.19079 15.2567C5.12655 15.2786 5.05941 15.2907 4.99158 15.2927H4.87158L4.98018 15.1733Z" fill="#FCFF2C"/>
<path fill-rule="evenodd" clip-rule="evenodd" d="M7.70726 15.2436C7.72936 15.1985 7.76261 15.1599 7.80386 15.1314C7.87346 15.081 7.89386 15.0882 7.95806 15.1854L8.03246 15.297H7.86026C7.74866 15.297 7.69466 15.2778 7.70546 15.2436" fill="#FCFF2C"/>
<path fill-rule="evenodd" clip-rule="evenodd" d="M8.075 15.1775C8.03916 15.1376 8.01344 15.0897 8 15.0377C8.06379 15.0339 8.12778 15.0401 8.1896 15.0563L8.36961 15.0899L8.26761 15.1961L8.1656 15.3029L8.075 15.1775Z" fill="#FCFF2C"/>
<path fill-rule="evenodd" clip-rule="evenodd" d="M4.69601 15.1846C4.66541 15.0958 4.73741 15.0232 4.85561 15.022C4.94982 15.022 4.94742 15.031 4.82561 15.1582C4.73261 15.2554 4.72121 15.2578 4.69601 15.1846Z" fill="#FCFF2C"/>
<path fill-rule="evenodd" clip-rule="evenodd" d="M5.66134 15.1018L5.76994 14.9758L5.87554 15.0778C5.93554 15.1378 5.98835 15.1858 5.99555 15.1888C5.92469 15.2024 5.85285 15.2102 5.78074 15.2122L5.55273 15.2278L5.66134 15.1018Z" fill="#FCFF2C"/>
<path fill-rule="evenodd" clip-rule="evenodd" d="M7.1258 15.2099L6.98779 15.1811L7.0868 15.0779L7.1864 14.9753L7.3064 15.1121C7.4366 15.2633 7.4222 15.2711 7.1258 15.2099Z" fill="#FCFF2C"/>
<path fill-rule="evenodd" clip-rule="evenodd" d="M5.30033 15.0898L5.20312 14.9746H5.35133C5.4261 14.9764 5.50067 14.966 5.57213 14.944C5.63214 14.9194 5.62494 14.944 5.54693 15.0592C5.51565 15.1152 5.47389 15.1647 5.42393 15.205C5.3756 15.175 5.3336 15.1359 5.30033 15.0898Z" fill="#FCFF2C"/>
<path fill-rule="evenodd" clip-rule="evenodd" d="M6.35453 15.067L6.47453 14.929L6.59034 15.049C6.63346 15.0911 6.67243 15.1373 6.70674 15.187C6.62924 15.2015 6.55025 15.2066 6.47153 15.202H6.23633L6.35453 15.067Z" fill="#FCFF2C"/>
<path fill-rule="evenodd" clip-rule="evenodd" d="M7.45012 15.0898L7.35352 14.9746H7.54672C7.75553 14.9746 7.78193 15.01 7.66672 15.1282C7.56952 15.226 7.56772 15.226 7.45252 15.0898" fill="#FCFF2C"/>
<path fill-rule="evenodd" clip-rule="evenodd" d="M6.00052 15.0431L5.90332 14.9285H6.34553L6.24833 15.0431C6.12833 15.1853 6.11993 15.1853 6.00052 15.0431Z" fill="#FCFF2C"/>
<path fill-rule="evenodd" clip-rule="evenodd" d="M6.74662 15.0431L6.64941 14.9285H7.09223L6.99502 15.0431C6.87502 15.1853 6.86662 15.1853 6.74662 15.0431Z" fill="#FCFF2C"/>
<path fill-rule="evenodd" clip-rule="evenodd" d="M8.07027 14.9278C7.96767 14.908 7.55666 14.8678 7.15645 14.8342C6.38174 14.7813 5.60364 14.8081 4.83439 14.914C4.67658 14.9356 4.63818 14.9266 4.63818 14.8714C4.63818 14.7514 5.46741 14.6758 6.74664 14.6758C7.37245 14.6758 8.00667 14.6932 8.16267 14.7142C8.42188 14.7496 8.44228 14.7604 8.44228 14.8636C8.44228 14.9836 8.40688 14.992 8.07027 14.9278Z" fill="#FCFF2C"/>
<path fill-rule="evenodd" clip-rule="evenodd" d="M4.85499 14.5373C4.90889 14.4747 4.9725 14.4213 5.0434 14.3789C5.09501 14.405 5.1395 14.4433 5.173 14.4905L5.2666 14.6021L5.0662 14.6309C4.95579 14.6471 4.82619 14.6675 4.78299 14.6789C4.72299 14.6927 4.73979 14.6561 4.85499 14.5373Z" fill="#FCFF2C"/>
<path fill-rule="evenodd" clip-rule="evenodd" d="M4.56025 14.5577C4.52965 14.4659 4.53805 14.4377 4.60886 14.4095C4.66071 14.3892 4.71667 14.3816 4.77206 14.3873C4.83986 14.3987 4.83206 14.4179 4.72346 14.5337L4.59746 14.6681L4.56025 14.5577Z" fill="#FCFF2C"/>
<path fill-rule="evenodd" clip-rule="evenodd" d="M8.40039 14.6116C8.40039 14.59 8.42679 14.5594 8.46039 14.5456C8.49399 14.5318 8.51319 14.5414 8.49759 14.587C8.47239 14.659 8.40099 14.6776 8.40099 14.6116" fill="#FCFF2C"/>
<path fill-rule="evenodd" clip-rule="evenodd" d="M5.6225 14.4473C5.6825 14.3711 5.7341 14.3051 5.7341 14.3015C5.78048 14.3384 5.82419 14.3785 5.8649 14.4215L5.99631 14.5511L5.7563 14.5661L5.5127 14.5817L5.6225 14.4473Z" fill="#FCFF2C"/>
<path fill-rule="evenodd" clip-rule="evenodd" d="M7.83217 14.5731L7.65576 14.5551L7.78237 14.4381L7.90837 14.3181L8.01037 14.4231C8.12077 14.5389 8.14117 14.6097 8.05957 14.5971C8.03137 14.5929 7.92937 14.5809 7.83217 14.5713" fill="#FCFF2C"/>
<path fill-rule="evenodd" clip-rule="evenodd" d="M5.27479 14.4461L5.15479 14.3405L5.35279 14.3069C5.42278 14.2909 5.49481 14.2856 5.5664 14.2913C5.5748 14.3009 5.53939 14.3633 5.48779 14.4305L5.39359 14.5505L5.27479 14.4461Z" fill="#FCFF2C"/>
<path fill-rule="evenodd" clip-rule="evenodd" d="M7.08515 14.5223L6.98975 14.4929L7.09415 14.3825C7.18355 14.2889 7.20995 14.2817 7.26515 14.3327C7.30777 14.375 7.3436 14.4235 7.37136 14.4767C7.40616 14.5499 7.39596 14.5607 7.29635 14.5565C7.22487 14.5533 7.154 14.5418 7.08515 14.5223Z" fill="#FCFF2C"/>
<path fill-rule="evenodd" clip-rule="evenodd" d="M8.12977 14.4172L8.00977 14.2732L8.11297 14.302C8.20126 14.3214 8.29138 14.3313 8.38177 14.3314H8.54738L8.42318 14.4448C8.37921 14.4891 8.32958 14.5275 8.27557 14.5588C8.21981 14.5195 8.17095 14.4713 8.13097 14.416" fill="#FCFF2C"/>
<path fill-rule="evenodd" clip-rule="evenodd" d="M6.00861 14.4063C5.97054 14.3674 5.94057 14.3213 5.92041 14.2707C5.92041 14.2539 6.02541 14.2395 6.15442 14.2395H6.38782L6.30982 14.3361C6.17122 14.5065 6.10521 14.5209 6.00981 14.4063" fill="#FCFF2C"/>
<path fill-rule="evenodd" clip-rule="evenodd" d="M6.38969 14.3969C6.52289 14.2667 6.56969 14.2697 6.65549 14.4149C6.7155 14.5145 6.7155 14.5151 6.49349 14.5145H6.27148L6.38969 14.3969Z" fill="#FCFF2C"/>
<path fill-rule="evenodd" clip-rule="evenodd" d="M7.41572 14.3753L7.32031 14.2373H7.42232C7.49883 14.2401 7.57494 14.2497 7.64972 14.2661L7.77692 14.2949L7.65992 14.4041C7.62006 14.445 7.57556 14.481 7.52732 14.5115C7.4862 14.4691 7.44923 14.4229 7.41692 14.3735" fill="#FCFF2C"/>
<path fill-rule="evenodd" clip-rule="evenodd" d="M6.74662 14.3571L6.64941 14.2419H7.09223L6.99502 14.3571C6.87502 14.4993 6.86662 14.4993 6.74662 14.3571Z" fill="#FCFF2C"/>
<path fill-rule="evenodd" clip-rule="evenodd" d="M4.53625 14.2049C4.56799 14.1031 4.59443 13.9998 4.61545 13.8953L4.66465 13.6655L5.11826 13.4123C5.33353 13.2963 5.5399 13.1645 5.73568 13.018C5.82628 12.94 5.92048 12.862 5.94689 12.8464C6.54722 12.8425 7.14692 12.8862 7.74033 12.9772C8.14894 13.0426 8.86476 13.1842 8.88876 13.204C8.85041 13.3612 8.80395 13.5162 8.74956 13.6685C8.66735 13.9187 8.59235 14.1515 8.58335 14.1857C8.57075 14.2331 8.52035 14.2409 8.38115 14.2175C7.25328 14.1071 6.11705 14.1134 4.99046 14.2361C4.56265 14.3051 4.50025 14.3003 4.53745 14.2037" fill="#FCFF2C"/>
<path fill-rule="evenodd" clip-rule="evenodd" d="M7.99127 13.9217C8.05247 13.8587 8.09455 13.7797 8.11261 13.6938C8.13068 13.6079 8.12399 13.5186 8.09332 13.4363C8.06265 13.3541 8.00927 13.2822 7.93937 13.2291C7.86947 13.1759 7.78594 13.1438 7.69847 13.1362C7.64032 13.1369 7.58293 13.1496 7.52995 13.1736C7.47697 13.1976 7.42955 13.2323 7.39068 13.2755C7.35182 13.3188 7.32236 13.3697 7.30418 13.4249C7.286 13.4801 7.27949 13.5386 7.28506 13.5964C7.27401 13.6825 7.29071 13.7698 7.33275 13.8457C7.37478 13.9216 7.43994 13.9821 7.51874 14.0184C7.59754 14.0547 7.68587 14.0649 7.77086 14.0475C7.85585 14.0301 7.93307 13.986 7.99127 13.9217Z" fill="black"/>
<path fill-rule="evenodd" clip-rule="evenodd" d="M7.54591 13.9107C7.49434 13.8743 7.45269 13.8256 7.42477 13.7689C7.39685 13.7123 7.38354 13.6496 7.38604 13.5865C7.38854 13.5234 7.40679 13.4619 7.43911 13.4077C7.47143 13.3534 7.51681 13.3082 7.57111 13.2759C7.62285 13.2522 7.67993 13.2424 7.73662 13.2478C7.79331 13.2531 7.8476 13.2732 7.89402 13.3062C7.94043 13.3392 7.97734 13.3838 8.00103 13.4356C8.02471 13.4874 8.03433 13.5445 8.02892 13.6011C8.02946 13.6582 8.01556 13.7144 7.98851 13.7646C7.96146 13.8148 7.92215 13.8573 7.87423 13.8882C7.82631 13.9191 7.77135 13.9374 7.71447 13.9413C7.65758 13.9453 7.60063 13.9347 7.54891 13.9107" fill="#FCFF2C"/>
<path fill-rule="evenodd" clip-rule="evenodd" d="M6.32935 13.8922C6.38725 13.8399 6.43155 13.7744 6.45842 13.7012C6.4853 13.628 6.49394 13.5494 6.4836 13.4721C6.47326 13.3948 6.44425 13.3212 6.39908 13.2577C6.35391 13.1941 6.29394 13.1425 6.22435 13.1073C6.17854 13.0856 6.12889 13.0731 6.07824 13.0706C6.02759 13.068 5.97694 13.0755 5.92918 13.0925C5.88142 13.1096 5.83749 13.1359 5.79991 13.1699C5.76232 13.204 5.73182 13.2451 5.71014 13.2909C5.64987 13.376 5.62271 13.4801 5.63376 13.5837C5.64481 13.6873 5.6933 13.7834 5.77014 13.8538C5.79975 13.8992 5.8395 13.9371 5.88626 13.9645C5.93301 13.992 5.9855 14.0082 6.03958 14.0119C6.09367 14.0156 6.14788 14.0068 6.19795 13.986C6.24803 13.9652 6.29259 13.9331 6.32815 13.8922" fill="black"/>
<path fill-rule="evenodd" clip-rule="evenodd" d="M5.9331 13.8712C5.86767 13.8317 5.81592 13.7731 5.78481 13.7033C5.75371 13.6335 5.74474 13.5558 5.75912 13.4808C5.77351 13.4057 5.81055 13.3369 5.86526 13.2835C5.91997 13.2302 5.98971 13.1949 6.06511 13.1824C6.139 13.1927 6.20792 13.2255 6.2625 13.2763C6.31709 13.3272 6.35467 13.3936 6.37015 13.4666C6.38562 13.5396 6.37823 13.6156 6.34899 13.6842C6.31975 13.7528 6.27007 13.8108 6.20671 13.8502C6.07471 13.9264 6.05851 13.9276 5.9331 13.8712Z" fill="#FCFF2C"/>
<path fill-rule="evenodd" clip-rule="evenodd" d="M4.34995 14.0751C4.40995 13.9053 4.40035 13.6875 4.33614 13.6875C4.30254 13.6875 4.28274 13.7475 4.28274 13.8483C4.28617 13.9251 4.2672 14.0012 4.22814 14.0673C4.18254 14.1147 4.17654 14.0781 4.19574 13.8603C4.20834 13.7145 4.20294 13.5963 4.18374 13.5963C4.14654 13.5963 4.07454 13.8159 4.04814 14.0091C4.03314 14.1225 4.03254 14.1225 3.99834 13.9887C3.98504 13.9365 3.98303 13.882 3.99244 13.8289C4.00186 13.7758 4.02248 13.7254 4.05294 13.6809C4.10262 13.5849 4.13299 13.4802 4.14234 13.3725C4.14234 13.2597 4.22094 13.1505 4.60195 12.7383C4.85516 12.4647 5.14917 12.1245 5.25657 11.9823C5.44197 11.7381 5.45097 11.7135 5.44377 11.465C5.44673 11.368 5.43562 11.2709 5.41077 11.177C5.36217 11.1224 5.29797 11.4002 5.32317 11.5515C5.34717 11.6883 5.32317 11.7345 5.05556 12.0711C4.89476 12.2751 4.62175 12.5817 4.44955 12.7539C4.13214 13.0725 4.01754 13.2441 4.01754 13.4055C4.0043 13.5043 3.97745 13.6008 3.93773 13.6923C3.89973 13.7689 3.8808 13.8535 3.88253 13.9389C3.89693 13.9683 3.88733 13.9671 3.85673 13.9389C3.82613 13.9107 3.81893 13.8345 3.84833 13.6887C3.86991 13.6106 3.87643 13.5292 3.86753 13.4487C3.82373 13.3689 3.77093 13.4715 3.74753 13.6887C3.73253 13.8141 3.70433 13.9047 3.68453 13.8909C3.62453 13.8495 3.64373 13.6239 3.71693 13.5075C3.76789 13.4073 3.80292 13.2998 3.82073 13.1889C3.88706 12.8409 4.05105 12.5189 4.29354 12.2607C4.43875 12.0849 4.55755 11.9331 4.55755 11.9253C4.55755 11.9175 4.51915 11.7873 4.47235 11.6379C4.36361 11.249 4.35761 10.8387 4.45495 10.4468C4.5925 10.0601 4.81851 9.71076 5.11496 9.4268C5.46537 9.06319 5.79778 8.84538 5.95919 8.87179C6.09779 8.89519 10.0993 12.2421 10.0993 12.3357C10.0989 12.3447 10.0967 12.3536 10.0928 12.3618C10.089 12.37 10.0835 12.3774 10.0767 12.3834C10.0699 12.3895 10.062 12.3941 10.0534 12.397C10.0448 12.4 10.0357 12.4011 10.0267 12.4005C9.98649 12.4005 8.96826 12.0921 7.76403 11.7159C5.83918 11.1158 5.56258 11.0174 5.47917 10.91C5.42227 10.832 5.39061 10.7385 5.38847 10.6419C5.38632 10.5454 5.41379 10.4505 5.46717 10.37C5.50829 10.3172 5.53663 10.2556 5.54997 10.19C5.54997 10.0886 5.34597 10.3484 5.30997 10.4996C5.29129 10.6008 5.29636 10.705 5.32479 10.8039C5.35321 10.9028 5.40421 10.9938 5.47377 11.0696C5.73806 11.1885 6.01033 11.2887 6.28859 11.3696C6.97021 11.5851 7.01641 11.6097 7.05301 11.7297C7.14001 12.0195 6.85321 12.3561 6.4398 12.4497C6.2868 12.4899 6.14379 12.5614 6.01979 12.6597C5.69488 12.9409 5.33778 13.1826 4.95596 13.3797C4.836 13.4305 4.72142 13.4932 4.61395 13.5669C4.56525 13.6605 4.53394 13.7621 4.52155 13.8669C4.47235 14.1513 4.45315 14.1957 4.37395 14.1957C4.32834 14.1957 4.32414 14.1705 4.35595 14.0757" fill="#FCFF2C"/>
<path fill-rule="evenodd" clip-rule="evenodd" d="M8.54606 13.0179C7.95881 12.8891 7.36339 12.8009 6.76402 12.7539L6.104 12.6939L6.35181 12.5937C6.50126 12.5324 6.64674 12.4618 6.78742 12.3825C6.85695 12.337 6.93479 12.3057 7.01645 12.2905C7.09811 12.2752 7.18199 12.2763 7.26323 12.2937C7.63224 12.3237 7.88065 12.2505 7.97305 12.0873C8.01145 12.0176 8.04865 11.954 8.05405 11.9438C8.27432 11.9914 8.49168 12.0515 8.70507 12.1239L9.34468 12.3201L9.22108 12.5559C9.15268 12.6837 9.06628 12.8559 9.02968 12.9393C8.95467 13.1055 8.92827 13.1109 8.54367 13.0161" fill="#FCFF2C"/>
<path fill-rule="evenodd" clip-rule="evenodd" d="M7.09131 12.1798C7.05651 12.1564 7.05771 12.1258 7.09791 12.0645C7.13211 12.0129 7.16271 11.9997 7.17951 12.0297C7.21791 12.0987 7.14831 12.2194 7.09131 12.1798Z" fill="#FCFF2C"/>
<path fill-rule="evenodd" clip-rule="evenodd" d="M7.24354 12.1707C7.24354 12.1107 7.27294 12.1107 7.30354 12.1707C7.31794 12.1965 7.30954 12.2169 7.28554 12.2169C7.2796 12.2169 7.27374 12.2156 7.26831 12.2132C7.26287 12.2108 7.25796 12.2074 7.25388 12.2031C7.24979 12.1988 7.24662 12.1937 7.24453 12.1881C7.24245 12.1826 7.24149 12.1767 7.24174 12.1707" fill="#FCFF2C"/>
<path fill-rule="evenodd" clip-rule="evenodd" d="M7.4502 12.1456C7.4502 12.106 7.4688 12.0856 7.4916 12.1024C7.5456 12.139 7.5456 12.2176 7.4916 12.2176C7.4688 12.2176 7.4502 12.1852 7.4502 12.1456Z" fill="#FCFF2C"/>
<path fill-rule="evenodd" clip-rule="evenodd" d="M7.64579 12.1438C7.62527 12.1129 7.6148 12.0764 7.61579 12.0394C7.61579 11.9878 7.62719 11.983 7.66139 12.0202C7.67396 12.034 7.6832 12.0506 7.6884 12.0686C7.6936 12.0866 7.69462 12.1055 7.69139 12.124C7.68299 12.1534 7.66199 12.1624 7.64579 12.1438Z" fill="#FCFF2C"/>
<path fill-rule="evenodd" clip-rule="evenodd" d="M7.31478 12.0519C7.29457 12.0208 7.28393 11.9845 7.28418 11.9475C7.28418 11.8959 7.29678 11.8875 7.33039 11.9277C7.343 11.9417 7.3523 11.9583 7.3576 11.9764C7.36289 11.9945 7.36405 12.0135 7.36099 12.0321C7.35259 12.0615 7.33099 12.0699 7.31478 12.0519Z" fill="#FCFF2C"/>
<path fill-rule="evenodd" clip-rule="evenodd" d="M7.80049 12.0305C7.75549 11.9507 7.80649 11.9339 7.86049 12.0101C7.89349 12.0533 7.89649 12.0797 7.86889 12.0797C7.85407 12.0776 7.83995 12.072 7.82766 12.0635C7.81536 12.0549 7.80524 12.0436 7.79809 12.0305" fill="#FCFF2C"/>
<path fill-rule="evenodd" clip-rule="evenodd" d="M7.47303 11.944C7.46752 11.9318 7.4663 11.918 7.46956 11.9049C7.47283 11.8919 7.48039 11.8803 7.49103 11.872C7.51443 11.8564 7.53303 11.8762 7.53303 11.9158C7.53303 11.9962 7.50843 12.0082 7.47303 11.944Z" fill="#FCFF2C"/>
<path fill-rule="evenodd" clip-rule="evenodd" d="M7.65771 11.8697C7.65771 11.8301 7.67572 11.8097 7.69852 11.8265C7.75252 11.8637 7.75132 11.9417 7.69852 11.9417C7.67572 11.9417 7.65771 11.9093 7.65771 11.8697Z" fill="#FCFF2C"/>
<path fill-rule="evenodd" clip-rule="evenodd" d="M7.16064 11.8288C7.16064 11.7478 7.18525 11.7364 7.22065 11.8006C7.2267 11.8127 7.22821 11.8266 7.22491 11.8397C7.2216 11.8528 7.2137 11.8643 7.20265 11.872C7.17924 11.8882 7.16064 11.8684 7.16064 11.8288Z" fill="#FCFF2C"/>
<path fill-rule="evenodd" clip-rule="evenodd" d="M7.32617 11.7771C7.32617 11.7375 7.34477 11.7171 7.36757 11.7339C7.42098 11.7705 7.42098 11.8491 7.36757 11.8491C7.34477 11.8491 7.32617 11.8167 7.32617 11.7771Z" fill="#FCFF2C"/>
<path fill-rule="evenodd" clip-rule="evenodd" d="M4.54641 9.56782C4.53441 9.36862 4.53441 8.9078 4.54641 8.53759C4.56981 7.77678 4.55181 7.70177 4.3184 7.61837C4.1282 7.54997 4.0592 7.49297 4.0592 7.40237C4.0592 7.34236 4.1018 7.33697 4.3106 7.36097C4.52961 7.38677 4.56021 7.38077 4.55061 7.31476C4.53021 7.19476 4.2404 7.10656 3.93379 7.12456C3.69379 7.13836 3.66319 7.13116 3.67939 7.06456C3.70597 6.98814 3.7563 6.92223 3.82301 6.87646C3.88973 6.83069 3.96933 6.80745 4.0502 6.81015C4.17458 6.79336 4.29503 6.75477 4.40601 6.69615C4.54644 6.6165 4.71059 6.58928 4.86922 6.61935C5.40923 6.64995 5.51363 6.80955 5.65524 7.83858C5.71044 8.23879 5.75544 8.609 5.75664 8.6624C5.75664 8.7314 5.68164 8.8142 5.49143 8.95041C5.17928 9.18368 4.90382 9.46237 4.67421 9.77723L4.56981 9.93083L4.54641 9.56782Z" fill="#FCFF2C"/>
<path fill-rule="evenodd" clip-rule="evenodd" d="M4.94902 7.16055C4.97778 7.13473 4.99628 7.09941 5.00113 7.06107C5.00597 7.02272 4.99685 6.98391 4.97542 6.95175C4.91542 6.80774 4.84822 6.84014 4.87642 6.99915C4.89262 7.09335 4.88002 7.11555 4.80862 7.11555C4.73721 7.11555 4.72161 7.08675 4.72161 6.97155C4.72161 6.85634 4.71201 6.83654 4.66161 6.88574C4.6424 6.90413 4.62722 6.92633 4.61706 6.95091C4.6069 6.97549 4.60197 7.00191 4.60259 7.0285C4.60321 7.05509 4.60937 7.08126 4.62067 7.10534C4.63196 7.12942 4.64816 7.15088 4.66821 7.16835C4.75641 7.27815 4.85782 7.27575 4.95142 7.16055" fill="black"/>
<path d="M12.2568 0.5L13.2637 0.530273C15.4688 0.619076 16.6979 0.839293 17.8359 1.23047C19.0789 1.6584 20.1985 2.38396 21.0957 3.34473C21.7521 4.10736 22.2736 4.97507 22.6396 5.91016L22.7871 6.31543C23.2272 7.71092 23.4605 9.16379 23.4805 10.627L23.4814 10.6367C23.501 11.2247 23.501 11.3038 23.501 12.0029C23.501 12.702 23.501 12.7778 23.4814 13.3662L23.4805 13.376C23.4606 14.8393 23.2273 16.2919 22.7871 17.6875C22.4211 18.7751 21.8483 19.782 21.1006 20.6523C20.2579 21.555 19.2195 22.2507 18.0664 22.6865L17.834 22.7705C16.5354 23.2175 15.1155 23.4414 12.2568 23.501H11.7461C8.88627 23.442 7.46666 23.2175 6.16797 22.7705L5.93555 22.6865C4.78241 22.2508 3.74385 21.5553 2.90137 20.6523C2.24666 19.8905 1.72591 19.0243 1.36035 18.0908L1.21289 17.6855C0.772931 16.2897 0.539719 14.8365 0.519531 13.373L0.518555 13.3643L0.501953 12.7256C0.499587 12.5455 0.5 12.3508 0.5 12C0.5 11.2993 0.49979 11.2226 0.520508 10.6348V10.624C0.540758 9.16072 0.774909 7.7082 1.21484 6.3125C1.58241 5.22226 2.15767 4.21373 2.9082 3.3418C3.74943 2.44222 4.78548 1.74922 5.93555 1.31445L6.16797 1.23047C7.30421 0.839402 8.53371 0.619094 10.7383 0.530273L11.7461 0.5H12.2568Z" stroke="#F6F6F6"/>
</g>
</g>
<defs>
<clipPath id="clip0_266_46896">
<rect width="24" height="23.9988" fill="white"/>
</clipPath>
</defs>
</svg>
