<svg width="32" height="32" viewBox="0 0 32 32" fill="none" xmlns="http://www.w3.org/2000/svg">
<g clip-path="url(#clip0_266_48375)">
<mask id="mask0_266_48375" style="mask-type:luminance" maskUnits="userSpaceOnUse" x="0" y="0" width="32" height="32">
<path d="M15.9992 0H15.6448C11.805 0.080016 9.83231 0.382477 8.0052 1.0114C6.23714 1.61648 4.64546 2.64818 3.37103 4.0152C2.31262 5.2438 1.5025 6.66608 0.985551 8.20324C0.376633 10.1298 0.0532143 12.1353 0.0255987 14.1556C2.98008e-09 14.9502 0 15.0598 0 16.0008C0 16.9418 2.98008e-09 17.0498 0.0255987 17.8412C0.0530302 19.8616 0.376453 21.867 0.985551 23.7936C1.5029 25.3308 2.31298 26.7532 3.37103 27.9824C4.64531 29.3503 6.23695 30.3831 8.0052 30.9894C9.83231 31.6191 11.8042 31.9208 15.6448 32H16.3536C20.1934 31.92 22.1669 31.6191 23.994 30.9894C25.7619 30.3829 27.3532 29.3501 28.6274 27.9824C29.6857 26.7533 30.4961 25.3308 31.0136 23.7936C31.6224 21.8669 31.9458 19.8615 31.9736 17.8412C32 17.0466 32 16.937 32 16.0008C32 15.0646 32 14.9502 31.9736 14.1556C31.9456 12.1353 31.6222 10.1299 31.0136 8.20324C30.4964 6.66603 29.686 5.24375 28.6274 4.0152C27.3535 2.6472 25.7621 1.6144 23.994 1.0082C22.1669 0.382476 20.1982 0.080016 16.3536 0H15.9992Z" fill="white"/>
</mask>
<g mask="url(#mask0_266_48375)">
<path d="M-0.120605 25.794V-0.305658H25.9701C27.2803 -0.307463 28.5608 0.0844071 29.6457 0.819162C30.7305 1.55392 31.5698 2.59768 32.0546 3.81517C32.3517 4.58072 32.5055 5.39443 32.5082 6.21565V25.794C32.5071 26.6515 32.3371 27.5004 32.0079 28.2922C31.6787 29.084 31.1968 29.8031 30.5896 30.4085C29.9824 31.0139 29.2619 31.4937 28.4693 31.8205C27.6766 32.1472 26.8274 32.3145 25.9701 32.3129H-0.120605V25.794Z" fill="#254AA3"/>
<path d="M9.94544 6.43652L10.351 7.67332H11.651L10.5958 8.44132L11.0014 9.67732L9.94544 8.90932L8.89029 9.67732L9.29507 8.44132L8.24072 7.67332H9.54706L9.94544 6.43652Z" fill="white"/>
<path d="M22.2343 6.43652L22.6407 7.67332H23.9398L22.8847 8.43412L23.2895 9.67732L22.2343 8.90932L21.1792 9.67732L21.584 8.43412L20.5288 7.67332H21.8287L22.2343 6.43652Z" fill="white"/>
<path d="M26.1181 7.86768L26.5181 9.10448H27.8252L26.7701 9.87248L27.1749 11.1085L26.1181 10.3477L25.063 11.1085L25.4677 9.87248L24.4126 9.10448H25.7181L26.1181 7.86768Z" fill="white"/>
<path d="M6.0581 7.86768L6.46368 9.10448H7.76361L6.71486 9.87248L7.11484 11.1085L6.0589 10.3477L5.01015 11.1085L5.41013 9.87248L4.35498 9.10448H5.65972L6.0581 7.86768Z" fill="white"/>
<path d="M14.0276 5.71631L14.4276 6.95231H15.7348L14.6796 7.72111L15.0852 8.95711L14.0292 8.18911L12.9741 8.95711L13.3789 7.72111L12.3237 6.95231H13.6229L14.0276 5.71631Z" fill="white"/>
<path d="M18.1523 5.71631L18.5579 6.95231H19.8578L18.8091 7.72111L19.209 8.95711L18.1539 8.18911L17.1051 8.95711L17.5051 7.72111L16.4468 6.95231H17.7539L18.1523 5.71631Z" fill="white"/>
<path d="M14.9643 10.9078C14.9787 10.9214 14.8315 10.9214 14.8179 10.9982C14.8043 11.075 14.6715 11.0686 14.6715 11.131C14.6715 11.1934 14.4891 11.243 14.4891 11.243L14.2443 11.2222C14.2443 11.2222 14.2235 11.1422 14.1883 11.1798C14.1546 11.2071 14.1125 11.2221 14.0691 11.2222L13.9091 11.2078C13.9091 11.2078 13.7492 11.2078 13.7692 11.271C13.7892 11.3343 13.8739 11.3759 13.9227 11.4247C13.9423 11.4388 13.9578 11.4579 13.9677 11.4799C13.9775 11.502 13.9813 11.5263 13.9787 11.5503C13.9787 11.5991 13.9363 11.6135 13.9363 11.6415C13.9363 11.6695 13.9299 11.7599 14.0275 11.7599H14.2443C14.2873 11.7701 14.3276 11.7892 14.3627 11.8159C14.4051 11.8576 14.3915 11.9696 14.3915 11.9696C14.3915 11.9696 14.2651 11.984 14.3355 12.0536C14.4059 12.1232 14.4683 12.2424 14.5171 12.2424C14.5645 12.2432 14.6107 12.2573 14.6503 12.2832C14.69 12.3091 14.7214 12.3458 14.7411 12.3889C14.7485 12.4318 14.7468 12.4759 14.7359 12.5181C14.725 12.5603 14.7052 12.5997 14.6779 12.6337L14.5587 12.7521C14.5515 12.7593 14.3627 12.7449 14.3627 12.7873C14.3773 12.8387 14.3985 12.8879 14.4259 12.9338C14.4259 12.9338 14.5451 12.941 14.5451 12.997C14.5451 13.053 14.4403 13.077 14.4819 13.1226C14.5098 13.1717 14.5267 13.2263 14.5315 13.2826C14.4931 13.2862 14.4565 13.3006 14.4259 13.3242C14.3915 13.3523 14.2371 13.3315 14.2371 13.3939C14.2136 13.4842 14.1784 13.5711 14.1323 13.6523C14.1323 13.6523 13.9435 13.6875 13.9435 13.6523C13.9435 13.6171 13.9579 13.5547 13.8811 13.5547C13.8044 13.5547 13.7212 13.5475 13.7212 13.6243C13.7212 13.7011 13.574 13.7227 13.546 13.7995C13.518 13.8764 13.414 14.03 13.414 14.03C13.414 14.03 13.19 13.9604 13.1612 13.9604C13.1324 13.9604 13.1268 14.0156 13.0708 14.0716C13.0148 14.1276 12.9172 14.2116 12.9172 14.2116C12.9084 14.2118 12.8998 14.2138 12.8918 14.2175C12.8839 14.2211 12.8767 14.2264 12.8709 14.2329C12.865 14.2394 12.8606 14.2471 12.8578 14.2554C12.8551 14.2637 12.854 14.2725 12.8548 14.2812V14.4005C12.8548 14.4629 12.9948 14.4565 12.9948 14.5469C12.9948 14.6373 12.91 14.6165 12.9948 14.7005C13.0796 14.7845 13.1124 14.7805 13.1476 14.847C13.1828 14.9134 13.2596 14.927 13.2948 14.9942C13.33 15.0614 13.1964 15.1334 13.1964 15.1542C13.1964 15.175 12.9172 15.1054 12.8676 15.1542C12.8159 15.2027 12.7693 15.2563 12.7284 15.3142C12.7284 15.3287 12.5684 15.2726 12.5252 15.3639C12.4826 15.44 12.4198 15.5029 12.3436 15.5455C12.2756 15.5338 12.2096 15.5126 12.1476 15.4823C12.1204 15.4543 12.0364 15.4023 11.9804 15.4263C11.9098 15.4507 11.8373 15.4694 11.7637 15.4823C11.7207 15.4969 11.6761 15.5063 11.6309 15.5103C11.5749 15.5103 11.4141 15.4191 11.4141 15.4543C11.3765 15.543 11.3295 15.6275 11.2741 15.7063C11.2741 15.7063 11.1941 15.7199 11.1621 15.6847C11.1301 15.6495 11.0821 15.5799 11.0573 15.6047C11.0325 15.6295 10.9245 15.6887 10.9109 15.7031C10.8973 15.7175 10.8829 15.6887 10.8197 15.7519C10.7565 15.8151 10.6733 15.8704 10.6733 15.9472C10.6733 16.024 10.5261 16.1072 10.4637 16.1072C10.4013 16.1072 10.2605 16.1144 10.3301 16.1872C10.3997 16.26 10.2397 16.32 10.2397 16.3689C10.2397 16.4177 10.2685 16.4529 10.2045 16.4529C10.1405 16.4529 10.0789 16.5089 9.98134 16.4809C9.88375 16.4529 9.74135 16.4249 9.74135 16.4249C9.74135 16.4249 9.72775 16.3969 9.66136 16.3969C9.59496 16.3969 9.43737 16.4601 9.37417 16.3969C9.31097 16.3337 9.33257 16.3128 9.24858 16.2712C9.16458 16.2296 9.10858 16.1312 9.00859 16.2008C8.92807 16.274 8.8325 16.3286 8.7286 16.3609C8.66541 16.3609 8.58141 16.3817 8.58141 16.4409C8.58141 16.5001 8.53261 16.5321 8.46222 16.5529C8.39182 16.5737 8.31582 16.6329 8.35742 16.7201C8.39902 16.8073 8.25983 16.8802 8.27743 16.9442C8.30374 17.0182 8.34703 17.0851 8.40382 17.1394C8.45342 17.1882 8.35502 17.2794 8.49422 17.321C8.63341 17.3627 8.7182 17.321 8.823 17.3635C8.89806 17.3797 8.96925 17.4104 9.03259 17.4539C9.11216 17.5023 9.20006 17.5354 9.29178 17.5515C9.29178 17.5515 9.45897 17.6843 9.45897 17.7195C9.45897 17.7547 9.47337 17.7403 9.39657 17.8171C9.32446 17.9037 9.26122 17.9972 9.20778 18.0964C9.20778 18.0964 9.17978 18.3132 9.23578 18.3693C9.29178 18.4253 9.27018 18.5645 9.27018 18.5997C9.27018 18.6349 9.15258 18.6797 9.19018 18.7181C9.22778 18.7565 9.27018 18.8446 9.30937 18.8782C9.34857 18.9118 9.26778 18.9206 9.36617 19.0182C9.43383 19.0848 9.51596 19.1349 9.60616 19.1646C9.72011 19.1983 9.82694 19.2525 9.92134 19.3247C9.98298 19.3814 10.0224 19.4583 10.0325 19.5415C10.0597 19.6242 10.1076 19.6986 10.1717 19.7575C10.2005 19.7855 10.1373 19.884 10.1717 19.9256C10.2061 19.9672 10.3261 19.9392 10.3261 19.9744C10.3261 20.0096 10.1661 20.0544 10.3045 20.128C10.4429 20.2016 10.4237 20.1632 10.4805 20.2192C10.5079 20.24 10.529 20.268 10.5413 20.3001C10.5536 20.3322 10.5566 20.3671 10.5501 20.4009C10.5357 20.4569 10.4309 20.5121 10.4309 20.5545C10.434 20.6251 10.4583 20.6931 10.5005 20.7497C10.5429 20.7921 10.5429 20.7361 10.5989 20.7849C10.6391 20.8722 10.6559 20.9685 10.6477 21.0642C10.6477 21.1346 10.5917 21.1898 10.6477 21.2458C10.7037 21.3018 10.6541 21.4275 10.7037 21.4699C10.7533 21.5123 10.6965 21.5675 10.8149 21.5883C10.9011 21.5956 10.9878 21.5956 11.0741 21.5883C11.1437 21.5883 11.1581 21.6163 11.2205 21.6163C11.3095 21.599 11.3964 21.5722 11.4797 21.5363C11.5773 21.5083 11.6053 21.4107 11.6821 21.5363C11.7589 21.6619 11.6957 21.6899 11.8292 21.7251C11.9628 21.7603 12.0948 21.7251 12.1228 21.7947C12.1508 21.8644 12.15 21.9548 12.1924 21.9972C12.2348 22.0396 12.2724 21.9348 12.402 22.018C12.5316 22.1012 12.5212 22.046 12.6188 22.1372C12.7164 22.2284 13.0588 22.5845 13.1292 22.6541C13.1996 22.7237 13.1988 22.7941 13.2828 22.8846C13.3668 22.975 13.402 22.8846 13.374 23.0382C13.346 23.1918 13.2764 23.2134 13.374 23.3174C13.4716 23.4215 13.454 23.5487 13.4924 23.5975C13.5308 23.6463 13.646 23.8904 13.6116 23.9256C13.5772 23.9608 13.5204 23.9672 13.5484 24.0448C13.5764 24.1224 13.5068 24.2048 13.5276 24.2888C13.5484 24.3729 13.5068 24.4289 13.5692 24.4849C13.6316 24.5409 13.6964 24.5649 13.7788 24.6385C13.8611 24.7121 13.9059 24.7185 13.9059 24.8266C13.9059 24.9346 13.746 25.0082 13.8979 25.2042C14.0499 25.4003 14.1283 25.5115 14.1635 25.5467C14.1987 25.5819 14.1915 25.6723 14.1915 25.6723C14.1915 25.6723 14.0939 25.7075 14.1219 25.7355C14.1499 25.7635 14.2019 25.882 14.1635 25.9172C14.1079 25.9719 14.0588 26.0328 14.0171 26.0988C14.0171 26.1196 13.9331 26.1684 13.9123 26.1788C13.8715 26.2266 13.8268 26.2711 13.7788 26.3116C13.7572 26.3566 13.7466 26.4059 13.7478 26.4557C13.7491 26.5055 13.7622 26.5543 13.786 26.5981C13.8563 26.7029 13.9187 26.7453 13.9539 26.8149C13.9891 26.8846 13.8979 26.9334 14.0235 26.9334C14.1491 26.9334 14.1155 26.9198 14.1987 26.8846C14.2819 26.8494 14.3171 26.7733 14.3587 26.7733C14.4096 26.7807 14.4565 26.8053 14.4915 26.843C14.5259 26.8782 14.5403 26.9334 14.5819 26.9334C14.6614 26.9379 14.7409 26.9237 14.8139 26.8918C14.9315 26.843 14.8267 26.8117 15.0435 26.7317C15.2603 26.6517 15.2331 26.6517 15.2675 26.5717C15.3019 26.4917 15.3475 26.4117 15.4275 26.4117C15.5075 26.4117 15.4763 26.2436 15.5179 26.2436C15.5595 26.2436 15.6515 26.2084 15.5667 26.1636C15.4999 26.1204 15.437 26.0714 15.3787 26.0172C15.3819 25.9466 15.3913 25.8765 15.4067 25.8075C15.4275 25.7275 15.3643 25.6955 15.3643 25.6323C15.3643 25.5691 15.3155 25.4931 15.3155 25.4227V25.213C15.3155 25.1858 15.1963 25.1018 15.2803 25.0106C15.3643 24.9194 15.3603 24.8714 15.3603 24.8714C15.3646 24.758 15.3982 24.6478 15.4579 24.5513C15.5379 24.4713 15.4515 24.4185 15.5979 24.3697C15.6727 24.3288 15.7574 24.3094 15.8426 24.3136C15.9383 24.3027 16.0261 24.2551 16.0874 24.1808C16.1434 24.1184 16.129 24.1248 16.2338 24.1248C16.3386 24.1248 16.3738 24.16 16.465 24.1248C16.507 24.1086 16.5453 24.0842 16.5777 24.053C16.6101 24.0218 16.636 23.9845 16.6538 23.9432C16.6538 23.9152 16.8138 23.6287 16.9818 23.6567C17.1498 23.6847 17.101 23.7967 17.2754 23.6783C17.4498 23.5599 17.3034 23.4335 17.5834 23.4335C17.8633 23.4335 17.8561 23.4191 18.0025 23.3287C18.1489 23.2382 18.1073 23.1686 18.2121 23.119C18.3583 23.0459 18.5103 22.9852 18.6665 22.9374C18.7153 22.9374 18.7369 23.0174 18.7937 23.0174C18.8505 23.0174 18.8737 22.9542 19.0033 23.0382C19.1329 23.1222 19.0305 23.171 19.1489 23.283C19.2673 23.3951 19.3585 23.3319 19.3801 23.4783C19.3947 23.5835 19.4215 23.6866 19.4601 23.7855C19.5089 23.8904 19.3801 23.9672 19.4601 24.0512C19.5202 24.1133 19.5982 24.155 19.6833 24.1704C19.8638 24.1806 20.0449 24.1664 20.2216 24.128C20.2648 24.0864 20.1728 23.912 20.2848 24.0232C20.3968 24.1344 20.4312 24.1216 20.4664 24.0936C20.5016 24.0656 20.3864 23.7855 20.3544 23.7511C20.3412 23.7038 20.3388 23.6542 20.3474 23.6059C20.356 23.5575 20.3753 23.5117 20.404 23.4719C20.4516 23.4305 20.4835 23.374 20.4944 23.3118C20.4944 23.2838 20.3824 23.0598 20.5784 22.9694C20.7744 22.879 20.732 22.9278 20.7952 22.8646C20.8584 22.8013 20.8368 22.7389 20.928 22.6477C21.0192 22.5565 21.0464 22.5221 21.0464 22.5221C21.0464 22.5221 21.1512 22.4317 21.2216 22.4733C21.292 22.5149 21.2008 22.6197 21.3616 22.6197C21.3922 22.6188 21.4223 22.6114 21.4498 22.5977C21.4773 22.5841 21.5015 22.5647 21.5207 22.5408C21.54 22.5169 21.5538 22.4891 21.5613 22.4594C21.5687 22.4296 21.5696 22.3986 21.564 22.3685C21.5432 22.2636 21.4664 22.2148 21.564 22.166C21.6616 22.1172 21.6272 22.0956 21.7112 22.0956C21.7952 22.0956 21.8575 22.0404 21.9135 22.0892C21.9695 22.138 21.9935 22.1796 22.0671 22.1796C22.1407 22.1796 22.0743 22.3397 22.1791 22.3965C22.2839 22.4533 22.4311 22.4869 22.4727 22.4453C22.5143 22.4037 22.5423 22.5253 22.6055 22.4173C22.6687 22.3092 22.6199 22.278 22.6855 22.2076C22.701 22.1972 22.7137 22.1832 22.7225 22.1667C22.7313 22.1503 22.7359 22.1319 22.7359 22.1132C22.7359 22.0945 22.7313 22.0762 22.7225 22.0597C22.7137 22.0432 22.701 22.0292 22.6855 22.0188C22.6481 21.9657 22.6285 21.9021 22.6295 21.8372C22.6295 21.8372 22.5495 21.7051 22.5247 21.7259C22.4999 21.7467 22.5047 21.8308 22.4343 21.7675C22.3639 21.7043 22.3079 21.6979 22.3079 21.6347C22.3079 21.5715 22.2455 21.5163 22.2663 21.4603C22.285 21.4112 22.2947 21.3592 22.2951 21.3066L22.3919 21.1106C22.3919 21.1106 22.4623 21.0482 22.4967 21.0826C22.5311 21.117 22.5767 21.237 22.6295 21.1386C22.6823 21.0402 22.6783 20.8874 22.7839 20.929C22.8895 20.9706 22.8543 21.009 22.9303 21.009C23.0063 21.009 23.0639 21.0442 23.1335 20.9746C23.2031 20.905 23.1055 20.8698 23.2383 20.7345C23.3711 20.5993 23.4479 20.6297 23.3919 20.5385C23.3359 20.4473 23.2591 20.4129 23.2591 20.3569C23.2591 20.3008 23.1471 20.0368 23.1887 19.9936C23.2303 19.9504 23.3847 19.9872 23.4759 19.896C23.5671 19.8047 23.5319 19.7839 23.6087 19.7143C23.6855 19.6447 23.7551 19.5607 23.7687 19.5463C23.7792 19.5134 23.7957 19.4827 23.8175 19.4559C23.8454 19.4207 23.7471 19.2326 23.8175 19.2326C23.8878 19.2326 23.7823 19.1206 23.8518 19.0574C23.9122 19.0065 23.981 18.9664 24.055 18.939H24.2086C24.2236 18.8798 24.2474 18.8232 24.279 18.7709C24.3067 18.6514 24.3067 18.5272 24.279 18.4077C24.2474 18.3665 24.2206 18.322 24.199 18.2748L24.3526 18.1844L24.4326 18.1044L24.5382 17.9996C24.5582 17.9788 24.4886 17.9084 24.5726 17.9084C24.6566 17.9084 24.7406 17.9572 24.7406 17.8284C24.7467 17.7905 24.7425 17.7518 24.7284 17.7161C24.7144 17.6805 24.6909 17.6493 24.6606 17.6259C24.6118 17.5699 24.4862 17.4515 24.4662 17.4235C24.4462 17.3955 24.3462 17.2906 24.3326 17.277C24.319 17.2634 24.2526 17.2554 24.1998 17.2626C24.147 17.2698 23.9198 17.2274 23.899 17.2418C23.8782 17.2562 23.7943 17.277 23.7943 17.3467C23.7971 17.3705 23.7948 17.3948 23.7875 17.4177C23.7802 17.4406 23.768 17.4617 23.7519 17.4795C23.7239 17.5075 23.6719 17.5699 23.6191 17.5699C23.5663 17.5699 23.4727 17.5491 23.4519 17.5003C23.4298 17.4455 23.4111 17.3893 23.3959 17.3323C23.3959 17.3042 23.3743 17.2138 23.2975 17.2346C23.227 17.2584 23.1526 17.269 23.0783 17.2658C23.0783 17.2658 22.9383 17.2378 22.9111 17.1858C22.8963 17.1357 22.889 17.0837 22.8895 17.0314L22.7503 16.8922C22.7436 16.8739 22.731 16.8585 22.7144 16.8483C22.6979 16.8382 22.6784 16.8339 22.6591 16.8362C22.5791 16.8362 22.4991 16.8642 22.4631 16.8642C22.4146 16.8567 22.3652 16.8567 22.3167 16.8642C22.2463 16.8778 22.1279 16.7841 22.0999 16.7593C22.0719 16.7345 21.8903 16.7241 21.8903 16.7241C21.8903 16.7241 21.7856 16.6545 21.7432 16.6961C21.7008 16.7377 21.5832 16.7593 21.5832 16.7105C21.5847 16.6927 21.5813 16.6749 21.5733 16.6589C21.5653 16.6429 21.5531 16.6295 21.5379 16.6201C21.5228 16.6106 21.5053 16.6056 21.4874 16.6054C21.4696 16.6053 21.4521 16.6101 21.4368 16.6193C21.356 16.653 21.2713 16.6766 21.1848 16.6897C21.1224 16.6897 21.0104 16.6681 21.0104 16.5985C21.0104 16.5289 21.08 16.4801 21.1224 16.4449C21.1648 16.4097 21.2024 16.4033 21.2024 16.3649C21.2024 16.3264 21.1464 16.3024 21.1752 16.26C21.1975 16.2022 21.2067 16.1402 21.2024 16.0784C21.2024 16.0368 21.2584 15.9808 21.2824 15.96C21.3064 15.9392 21.3664 15.9392 21.3664 15.9392C21.3664 15.9392 21.4288 15.8199 21.3664 15.7847C21.304 15.7495 21.3384 15.6663 21.352 15.6311C21.3656 15.5959 21.3384 15.5759 21.388 15.5263C21.4376 15.4767 21.3728 15.4639 21.468 15.4287C21.5632 15.3935 21.5592 15.3487 21.5312 15.2822C21.4674 15.2109 21.3809 15.164 21.2864 15.1494C21.244 15.1494 21.16 15.2054 21.1264 15.2054C21.0771 15.2098 21.0277 15.1974 20.9864 15.1702C20.9512 15.135 20.9064 15.0582 20.8672 15.0798C20.828 15.1014 20.7344 15.0726 20.7344 15.0374C20.7344 15.0022 20.7176 14.8974 20.6832 14.8974C20.6488 14.8974 20.3256 14.7853 20.2832 14.827C20.2408 14.8686 20.2032 15.023 20.1232 14.939C20.0645 14.8774 20.0127 14.8095 19.9688 14.7365L19.8432 14.6109C19.8083 14.5694 19.7812 14.522 19.7633 14.4709C19.7429 14.4305 19.7116 14.3966 19.6729 14.3733C19.6729 14.3733 19.6793 14.31 19.6793 14.282C19.6793 14.254 19.6241 14.1916 19.6449 14.1428C19.6657 14.094 19.6513 14.1004 19.6585 14.0028C19.6657 13.9052 19.6241 13.8908 19.6241 13.8284C19.6241 13.7659 19.6097 13.6955 19.6097 13.6251C19.6097 13.5547 19.5297 13.4931 19.5049 13.4715C19.4801 13.4499 19.4073 13.4163 19.3793 13.4371C19.3513 13.4579 19.3089 13.4579 19.2993 13.5275C19.2897 13.5971 19.1945 13.6531 19.1665 13.6251C19.1385 13.5971 19.0681 13.5627 19.0681 13.5275C19.0609 13.4925 19.0467 13.4593 19.0265 13.4299C19.0265 13.4299 19.0545 13.325 18.9777 13.2834C18.9009 13.2418 18.8521 13.241 18.8665 13.1714C18.8802 13.1068 18.8802 13.04 18.8665 12.9754C18.8521 12.9202 18.7817 12.857 18.7817 12.8153C18.7817 12.7737 18.8169 12.7521 18.8377 12.6961C18.8585 12.6401 18.9425 12.5985 18.8801 12.5361C18.8342 12.4906 18.792 12.4417 18.7537 12.3897C18.7185 12.3617 18.6073 12.32 18.5793 12.3481C18.5513 12.3761 18.4529 12.292 18.4321 12.2496C18.4113 12.2072 18.3521 12.1312 18.3137 12.1872C18.2753 12.2432 18.2857 12.2992 18.2153 12.3409C18.1497 12.377 18.0821 12.4096 18.0129 12.4385C17.9921 12.4385 17.8873 12.3128 17.8873 12.3128C17.8463 12.2675 17.7995 12.2277 17.7482 12.1944C17.6986 12.1728 17.5938 12.1032 17.5722 12.1032C17.5506 12.1032 17.3002 12.1032 17.2586 12.1448C17.217 12.1864 17.1602 12.236 17.1602 12.236C17.109 12.2176 17.0597 12.1943 17.013 12.1664C16.9794 12.1448 16.853 12.124 16.853 12.0752C16.853 12.0264 16.8186 11.9568 16.773 11.9568C16.7274 11.9568 16.693 11.8864 16.6186 11.8864C16.5488 11.8735 16.4836 11.8423 16.4298 11.7959C16.4162 11.7751 16.2138 11.7959 16.2138 11.7959C16.2138 11.7959 16.1338 11.7047 16.0802 11.7047C16.0266 11.7047 15.8498 11.7047 15.9202 11.6351C15.9906 11.5655 16.0002 11.5095 16.0466 11.5095C16.093 11.5095 16.0754 11.4951 16.0954 11.4255C16.1154 11.3559 16.0954 11.279 16.1754 11.279C16.2208 11.2866 16.2674 11.2793 16.3082 11.2582C16.3778 11.2302 16.4682 11.1038 16.413 11.0486C16.3601 11.0047 16.3039 10.9648 16.245 10.9294C16.2242 10.9086 16.0914 10.7901 16.0914 10.7341C16.0914 10.6781 15.9658 10.6541 15.9658 10.6077C15.9658 10.5613 15.9026 10.5453 15.833 10.5661C15.7635 10.5869 15.6227 10.5525 15.6515 10.6357C15.6803 10.7189 15.7419 10.7621 15.6859 10.7829C15.6299 10.8037 15.5395 10.7829 15.5179 10.8037C15.4963 10.8245 15.3995 10.6781 15.3291 10.7549C15.2798 10.7997 15.2197 10.8308 15.1547 10.8454C15.1547 10.8454 15.0571 10.7829 15.0427 10.7901C15.0283 10.7973 14.8827 10.8246 14.9627 10.9086" fill="#FFDE36"/>
</g>
</g>
<defs>
<clipPath id="clip0_266_48375">
<rect width="32" height="32" fill="white"/>
</clipPath>
</defs>
</svg>
