<svg width="32" height="32" viewBox="0 0 32 32" fill="none" xmlns="http://www.w3.org/2000/svg">
<g clip-path="url(#clip0_266_47330)">
<mask id="mask0_266_47330" style="mask-type:luminance" maskUnits="userSpaceOnUse" x="0" y="0" width="32" height="32">
<path d="M15.9976 0H15.644C11.8044 0.08001 9.83102 0.381648 8.004 1.01053C6.23636 1.61737 4.6452 2.64999 3.37086 4.0173C2.31255 5.24584 1.50248 6.668 0.985501 8.20502C0.376526 10.1317 0.0531217 12.1373 0.0255971 14.1578C-3.30773e-07 14.9523 0 15.0627 0 15.998C0 16.9333 -3.30773e-07 17.0485 0.0255971 17.8422C0.0531217 19.8627 0.376526 21.8683 0.985501 23.795C1.50248 25.332 2.31255 26.7542 3.37086 27.9827C4.64536 29.35 6.23645 30.3828 8.004 30.9903C9.83102 31.6184 11.802 31.92 15.644 32H16.3528C20.1924 31.92 22.1658 31.6184 23.992 30.9903C25.7597 30.3832 27.3509 29.3503 28.6251 27.9827C29.6845 26.7542 30.4959 25.3321 31.0145 23.795C31.6227 21.8681 31.9461 19.8627 31.9744 17.8422C32 17.0485 32 16.9389 32 15.998C32 15.0571 32 14.9491 31.9744 14.1578C31.9461 12.1373 31.6227 10.1319 31.0145 8.20502C30.4968 6.66814 29.6865 5.24605 28.6283 4.0173C27.3543 2.64966 25.763 1.61698 23.9952 1.01053C22.1658 0.378447 20.194 0.08001 16.3528 0H15.9976Z" fill="white"/>
</mask>
<g mask="url(#mask0_266_47330)">
<path d="M50.3742 -1.28027H-8.90149V10.2012H50.3742V-1.28027Z" fill="#419976"/>
<path d="M50.3742 10.2012H-8.90149V21.7386H50.3742V10.2012Z" fill="white"/>
<path d="M50.3742 21.7388H-8.90149V33.2762H50.3742V21.7388Z" fill="#BC0030"/>
<path fill-rule="evenodd" clip-rule="evenodd" d="M-8.90149 -1.28027V33.276L8.38798 21.7386V10.2012L-8.8143 -1.28027H-8.90149Z" fill="black"/>
</g>
</g>
<defs>
<clipPath id="clip0_266_47330">
<rect width="32" height="32" fill="white"/>
</clipPath>
</defs>
</svg>
