<svg width="32" height="32" viewBox="0 0 32 32" fill="none" xmlns="http://www.w3.org/2000/svg">
<g clip-path="url(#clip0_266_48352)">
<mask id="mask0_266_48352" style="mask-type:luminance" maskUnits="userSpaceOnUse" x="0" y="0" width="32" height="32">
<path d="M16.002 0H15.6476C11.8075 0.080002 9.83465 0.380809 8.0082 1.00963C6.23996 1.61649 4.64829 2.6493 3.37368 4.0169C2.3145 5.24549 1.50352 6.66776 0.985624 8.20501C0.376639 10.1312 0.0531949 12.1363 0.0256003 14.1564C-3.30814e-07 14.9516 0 15.0604 0 16.0012C0 16.942 -3.30814e-07 17.0492 0.0256003 17.8412C0.0532549 19.8615 0.376696 21.8669 0.985624 23.7934C1.50335 25.33 2.31346 26.7519 3.37128 27.9807C4.64615 29.3478 6.23776 30.3803 8.0058 30.9872C9.83225 31.6168 11.8035 31.9184 15.6452 31.9976H16.3548C20.1949 31.9176 22.1686 31.6168 23.995 30.9872C25.7629 30.3805 27.3543 29.3479 28.6287 27.9807C29.6868 26.752 30.4969 25.3301 31.0144 23.7934C31.6233 21.8669 31.9467 19.8615 31.9744 17.8412C32 17.046 32 16.9364 32 16.0012C32 15.066 32 14.9516 31.9744 14.1564C31.9468 12.1363 31.6233 10.1313 31.0144 8.20501C30.4975 6.66781 29.6873 5.24549 28.6287 4.0169C27.3545 2.64915 25.7631 1.61631 23.995 1.00963C22.171 0.380809 20.1981 0.079202 16.3572 0H16.002Z" fill="white"/>
</mask>
<g mask="url(#mask0_266_48352)">
<path d="M49.2229 -0.393555H0.00244141V6.16421H49.2229V-0.393555Z" fill="#002D99"/>
<path d="M49.2229 6.16406H0.00244141V12.7218H49.2229V6.16406Z" fill="white"/>
<path d="M49.2229 12.7212H0.00244141V19.279H49.2229V12.7212Z" fill="#002D99"/>
<path d="M49.2229 19.2788H0.00244141V25.8366H49.2229V19.2788Z" fill="white"/>
<path d="M49.2229 25.8369H0.00244141V32.3947H49.2229V25.8369Z" fill="#002D99"/>
<path d="M-4.13428 -0.393555L24.2496 16.0005L-4.13428 32.3945V-0.393555Z" fill="#CC152A"/>
<path d="M9.50549 11.1587L10.6143 14.5516L14.1864 14.5572L11.2999 16.6596L12.3984 20.0557L9.50549 17.9621L6.61262 20.0557L7.71104 16.6596L4.82617 14.5572L8.39826 14.5516L9.50549 11.1587Z" fill="white"/>
</g>
</g>
<defs>
<clipPath id="clip0_266_48352">
<rect width="32" height="31.9976" fill="white"/>
</clipPath>
</defs>
</svg>
