<svg width="32" height="32" viewBox="0 0 32 32" fill="none" xmlns="http://www.w3.org/2000/svg">
<g clip-path="url(#clip0_266_47133)">
<mask id="mask0_266_47133" style="mask-type:luminance" maskUnits="userSpaceOnUse" x="0" y="0" width="32" height="32">
<path d="M16 0H15.6456C11.8056 0.08 9.832 0.3808 8.0048 1.0096C6.23729 1.61699 4.64611 2.64939 3.3712 4.016C2.31323 5.245 1.50313 6.66715 0.9856 8.204C0.376564 10.1305 0.0531274 12.1358 0.0256 14.156C5.06639e-08 14.9504 0 15.06 0 16C0 16.94 5.06639e-08 17.0488 0.0256 17.84C0.0531849 19.8602 0.37662 21.8655 0.9856 23.792C1.50147 25.3305 2.31082 26.7544 3.3688 27.9848C4.64293 29.351 6.2333 30.3832 8 30.9904C9.8272 31.6184 11.7984 31.9208 15.6408 32H16.3496C20.1896 31.92 22.1632 31.6184 23.9896 30.9904C25.7584 30.3841 27.3508 29.3519 28.6264 27.9848C29.6844 26.7558 30.4945 25.3337 31.012 23.7968C31.6206 21.8702 31.944 19.865 31.972 17.8448C31.9976 17.0504 31.9976 16.9408 31.9976 16.0048C31.9976 15.0688 31.9976 14.9552 31.972 14.1608C31.9441 12.1406 31.6206 10.1353 31.012 8.2088C30.4942 6.67209 29.6841 5.25 28.6264 4.0208C27.3519 2.65223 25.7603 1.61813 23.992 1.0096C22.1656 0.3808 20.1936 0.0784 16.352 0H16Z" fill="white"/>
</mask>
<g mask="url(#mask0_266_47133)">
<path d="M53.908 -1.29541H-3.93677V37.2398H53.908V-1.29541Z" fill="#19307A"/>
<path d="M5.16324 15.5381L5.71364 17.1765L7.34484 16.5829L6.40004 18.0317L7.88404 18.9309L6.15524 19.0997L6.37364 20.8133L5.16324 19.5741L3.95204 20.8133L4.17124 19.0997L2.44244 18.9309L3.92644 18.0317L2.98084 16.5829L4.61284 17.1765L5.16324 15.5381Z" fill="white"/>
<path d="M21.2376 11.1958L21.5344 12.0814L22.4144 11.7614L21.904 12.5446L22.704 13.0318L21.7688 13.1222L21.8872 14.0486L21.2328 13.3782L20.5776 14.0486L20.6968 13.1222L19.7616 13.0318L20.5616 12.5446L20.0504 11.7614L20.9304 12.0814L21.2376 11.1958Z" fill="white"/>
<path d="M16.5224 -0.462402H-6.15997V14.1976H16.5224V-0.462402Z" fill="#19307A"/>
<path d="M8.28482 8.74365H6.78882V9.51245L13.9376 14.1973H16.5224V14.1933L8.28482 8.74365Z" fill="white"/>
<path d="M9.76483 8.74361L16.5224 13.2124V12.7044L10.4752 8.74121L9.76483 8.74361Z" fill="white"/>
<path d="M-0.151973 8.74361L-6.15997 12.6484V14.1812L2.21923 8.74121L-0.151973 8.74361Z" fill="white"/>
<path d="M3.57201 8.83984L-4.68799 14.1974H-3.65679L3.57201 9.50064V8.83984Z" fill="white"/>
<path d="M0.764026 4.99263L-6.15997 0.490234V1.02463L-0.108773 4.99263H0.764026Z" fill="white"/>
<path d="M10.5072 4.99265L16.5232 1.08385V-0.452148L8.15521 4.99265H10.5072Z" fill="white"/>
<path d="M3.572 4.9928V4.2184L-3.5712 -0.462402H-6.1272L2.2608 4.9928H3.572Z" fill="white"/>
<path d="M6.78882 4.9088L15.04 -0.462402H14.0128L6.78882 4.2328V4.9088Z" fill="white"/>
<path d="M3.57203 8.74365H2.21923L-6.15997 14.1813V14.1973H-4.68797L3.57203 8.83725V8.74365Z" fill="#FF0102"/>
<path d="M6.78882 4.9928H8.15522L16.5224 -0.452002V-0.462402H15.04L6.78882 4.9088V4.9928Z" fill="#FF0102"/>
<path d="M8.28485 8.74365L16.5249 14.1933V13.2125L9.76725 8.74365H8.28485Z" fill="#FF0102"/>
<path d="M2.26083 4.9928L-6.12717 -0.462402H-6.15997V0.490398L0.764026 4.9928H2.26083Z" fill="#FF0102"/>
<path d="M4.21203 7.97656H-6.15997V8.74376H3.57203V14.1974H4.21203V7.97656Z" fill="white"/>
<path d="M6.18005 5.7256H16.5233V4.9928H6.78885V-0.462402H6.18005V5.7256Z" fill="white"/>
<path d="M6.78885 8.74376H16.5225V7.97656H6.18005V14.1974H6.78885V8.74376Z" fill="white"/>
<path d="M4.21203 5.7256V-0.462402H3.57203V4.9928H-6.15997V5.7256H4.21203Z" fill="white"/>
<path d="M6.18003 7.9768H16.5232V5.7248H6.18003V-0.462402H4.21203V5.7248H-6.15997V7.9768H4.21203V14.1976H6.18003V7.9768Z" fill="#FF0102"/>
</g>
</g>
<defs>
<clipPath id="clip0_266_47133">
<rect width="31.9976" height="32" fill="white"/>
</clipPath>
</defs>
</svg>
