<svg width="24" height="24" viewBox="0 0 24 24" fill="none" xmlns="http://www.w3.org/2000/svg">
<g clip-path="url(#clip0_266_45450)">
<mask id="mask0_266_45450" style="mask-type:luminance" maskUnits="userSpaceOnUse" x="0" y="0" width="24" height="24">
<path d="M12 0H11.7324C8.85256 0.059997 7.37303 0.284986 6.0027 0.756562C4.6773 1.21172 3.48428 1.98605 2.52887 3.01125C1.73548 3.93308 1.12776 4.9996 0.739163 6.15209C0.282964 7.59699 0.0404112 9.10081 0.0191988 10.6159C-2.48092e-07 11.2116 0 11.2932 0 11.9958C0 12.6984 -2.48092e-07 12.783 0.0191988 13.3793C0.0404095 14.8942 0.282963 16.3978 0.739163 17.8425C1.12722 18.9952 1.73499 20.0619 2.52887 20.9834C3.48445 22.0093 4.67791 22.7843 6.0039 23.2398C7.37423 23.712 8.85316 23.9376 11.7336 23.997H12.2658C15.1456 23.937 16.6252 23.712 17.9955 23.2398C19.3214 22.7848 20.5149 22.0102 21.4705 20.9846C22.2644 20.0631 22.8722 18.9964 23.2602 17.8437C23.7167 16.3991 23.9593 14.8954 23.9802 13.3805C24 12.7842 24 12.7026 24 11.997C24 11.2914 24 11.2104 23.9802 10.6171C23.9593 9.10199 23.7167 7.59812 23.2602 6.15329C22.8716 5.0008 22.2639 3.93428 21.4705 3.01245C20.5149 1.98695 19.3214 1.21259 17.9955 0.757762C16.6252 0.284986 15.1462 0.059397 12.2658 0H12Z" fill="white"/>
</mask>
<g mask="url(#mask0_266_45450)">
<path d="M30.7371 -0.519043H-6.92664V24.5711H30.7371V-0.519043Z" fill="white"/>
<path d="M30.7371 16.207H-6.92664V24.5712H30.7371V16.207Z" fill="#23AE49"/>
<path d="M30.7371 -0.519043H-6.92664V7.84334H30.7371V-0.519043Z" fill="#F89C4D"/>
<path d="M11.4684 8.70903C10.8125 8.79573 10.1971 9.07495 9.69988 9.5114C9.20267 9.94785 8.84603 10.5219 8.67505 11.161C8.50407 11.8002 8.52643 12.4756 8.7393 13.102C8.95218 13.7284 9.346 14.2777 9.87098 14.6803C10.396 15.0829 11.0285 15.3208 11.6887 15.3639C12.3489 15.4071 13.0071 15.2535 13.58 14.9226C14.1529 14.5917 14.6148 14.0984 14.9074 13.505C15.2 12.9116 15.31 12.2448 15.2236 11.5889C15.1663 11.1532 15.0236 10.733 14.8038 10.3525C14.584 9.97191 14.2914 9.63838 13.9427 9.37095C13.594 9.10351 13.196 8.9074 12.7714 8.79382C12.3469 8.68025 11.9041 8.65143 11.4684 8.70903ZM12.2868 14.9265C11.7128 15.0021 11.1293 14.9057 10.6102 14.6496C10.091 14.3935 9.65939 13.9892 9.37002 13.4878C9.08064 12.9864 8.94647 12.4105 8.98447 11.8328C9.02247 11.2551 9.23093 10.7017 9.5835 10.2425C9.93606 9.78336 10.4169 9.43907 10.9651 9.25319C11.5134 9.06732 12.1045 9.04822 12.6636 9.19832C13.2227 9.34841 13.7248 9.66095 14.1062 10.0964C14.4877 10.5319 14.7315 11.0707 14.8067 11.6447C14.9071 12.4139 14.6982 13.1916 14.2257 13.807C13.7533 14.4223 13.0559 14.8249 12.2868 14.9265Z" fill="#271D70"/>
<path d="M11.8284 11.4449C11.7134 11.4599 11.6054 11.5088 11.5181 11.5852C11.4309 11.6617 11.3683 11.7623 11.3382 11.8743C11.3082 11.9864 11.3121 12.1049 11.3494 12.2147C11.3867 12.3245 11.4558 12.4208 11.5479 12.4914C11.64 12.562 11.7509 12.6036 11.8667 12.6111C11.9825 12.6185 12.0979 12.5915 12.1983 12.5333C12.2986 12.4752 12.3795 12.3885 12.4306 12.2844C12.4817 12.1802 12.5008 12.0633 12.4854 11.9483C12.4648 11.7945 12.3841 11.6552 12.2609 11.5608C12.1378 11.4665 11.9822 11.4248 11.8284 11.4449Z" fill="#271D70"/>
<path d="M11.5225 9.12378L11.8512 10.8529L11.8614 11.6929L11.6527 10.8805L11.5225 9.12378Z" fill="#271D70"/>
<path d="M12.2869 14.9266L11.9581 13.1993L11.9479 12.3594L12.1579 13.1741L12.2869 14.9266Z" fill="#271D70"/>
<path d="M10.7839 9.32056L11.5501 10.9045L11.7763 11.7138L11.3641 10.9807L10.7839 9.32056Z" fill="#271D70"/>
<path d="M13.026 14.7304L12.2605 13.1453L12.0325 12.3347L12.4459 13.0697L13.026 14.7304Z" fill="#271D70"/>
<path d="M10.1221 9.70386L11.2716 11.0352L11.7012 11.7606L11.112 11.1564L10.1221 9.70386Z" fill="#271D70"/>
<path d="M13.6884 14.347L12.5388 13.015L12.1086 12.2903L12.6984 12.8903L13.6884 14.347Z" fill="#271D70"/>
<path d="M9.19812 10.9055L10.8606 11.4839L11.5956 11.8973L10.7838 11.6705L9.19812 10.9055Z" fill="#271D70"/>
<path d="M14.6123 13.1453L12.9498 12.5669L12.2124 12.1536L13.0242 12.3816L14.6123 13.1453Z" fill="#271D70"/>
<path d="M9.00012 11.6448L10.7562 11.7726L11.5728 11.9802L10.7328 11.9736L9.00012 11.6448Z" fill="#271D70"/>
<path d="M14.8091 12.4072L13.0524 12.277L12.2358 12.0676L13.08 12.0802L14.8091 12.4072Z" fill="#271D70"/>
<path d="M9.19812 13.1453L10.7838 12.3803L11.5956 12.1523L10.8606 12.5657L9.19812 13.1453Z" fill="#271D70"/>
<path d="M14.6123 10.9055L13.0272 11.6705L12.2124 11.9003L12.9468 11.4869L14.6123 10.9055Z" fill="#271D70"/>
<path d="M9.58154 13.8071L10.9135 12.6581L11.6394 12.2297L11.0395 12.8189L9.58154 13.8071Z" fill="#271D70"/>
<path d="M14.2289 10.2432L12.8952 11.3933L12.1704 11.8217L12.7704 11.2337L14.2289 10.2432Z" fill="#271D70"/>
<path d="M10.7839 14.7304L11.3641 13.0697L11.7763 12.3347L11.5525 13.1453L10.7839 14.7304Z" fill="#271D70"/>
<path d="M13.026 9.32056L12.4465 10.9825L12.0325 11.7156L12.2599 10.9063L13.026 9.32056Z" fill="#271D70"/>
<path d="M11.5225 14.9265L11.6527 13.1722L11.8614 12.3574L11.8512 13.1974L11.5225 14.9265Z" fill="#271D70"/>
<path d="M12.2869 9.12378L12.1579 10.8805L11.9479 11.6965L11.9581 10.8565L12.2869 9.12378Z" fill="#271D70"/>
<path d="M14.8091 11.6448L13.08 11.9736L12.2371 11.9802L13.0536 11.7726L14.8091 11.6448Z" fill="#271D70"/>
<path d="M9.00012 12.4074L10.7304 12.0804L11.5704 12.0696L10.7538 12.279L9.00012 12.4074Z" fill="#271D70"/>
<path d="M14.229 13.8071L12.7734 12.8189L12.1735 12.2297L12.8982 12.6581L14.229 13.8071Z" fill="#271D70"/>
<path d="M9.58154 10.2432L11.0365 11.2337L11.6364 11.8217L10.9105 11.3933L9.58154 10.2432Z" fill="#271D70"/>
<path d="M10.1221 14.3471L11.112 12.8922L11.7012 12.2922L11.2716 13.017L10.1221 14.3471Z" fill="#271D70"/>
<path d="M13.6884 9.70386L12.6984 11.1564L12.1086 11.7606L12.5388 11.0352L13.6884 9.70386Z" fill="#271D70"/>
<path d="M11.1085 9.05578C11.0712 9.06644 11.0396 9.09121 11.0203 9.12482C11.001 9.15844 10.9957 9.19824 11.0053 9.23577C11.0103 9.25434 11.019 9.27171 11.0308 9.28692C11.0426 9.30212 11.0573 9.31486 11.074 9.32438C11.0907 9.33391 11.1091 9.34005 11.1282 9.34245C11.1473 9.34485 11.1667 9.34346 11.1853 9.33837C11.204 9.33358 11.2216 9.32508 11.237 9.31337C11.2524 9.30166 11.2653 9.28697 11.2749 9.27019C11.2845 9.25341 11.2907 9.23486 11.293 9.21566C11.2953 9.19645 11.2938 9.17697 11.2885 9.15838C11.2785 9.12062 11.2539 9.08837 11.2202 9.06869C11.1864 9.04901 11.1463 9.0435 11.1085 9.05338" fill="#271D70"/>
<path d="M12.6246 14.7106C12.5965 14.7181 12.5713 14.7338 12.5521 14.7556C12.5329 14.7774 12.5206 14.8045 12.5168 14.8333C12.513 14.8621 12.5177 14.8914 12.5305 14.9175C12.5434 14.9435 12.5636 14.9652 12.5887 14.9798C12.6139 14.9944 12.6428 15.0012 12.6718 14.9994C12.7008 14.9975 12.7286 14.9871 12.7517 14.9695C12.7748 14.9519 12.7921 14.9278 12.8016 14.9003C12.811 14.8728 12.812 14.8431 12.8046 14.815C12.7945 14.7774 12.7698 14.7453 12.7361 14.7257C12.7024 14.7062 12.6623 14.7007 12.6246 14.7106Z" fill="#271D70"/>
<path d="M10.3669 9.36311C10.3333 9.38279 10.3088 9.41491 10.2987 9.45253C10.2885 9.49014 10.2937 9.53022 10.3129 9.56409C10.3227 9.58071 10.3356 9.59524 10.351 9.60683C10.3664 9.61842 10.384 9.62686 10.4026 9.63166C10.4213 9.63645 10.4408 9.63751 10.4598 9.63477C10.4789 9.63203 10.4973 9.62555 10.5139 9.61569C10.5305 9.60642 10.5451 9.5939 10.5569 9.57887C10.5686 9.56383 10.5772 9.5466 10.5821 9.52818C10.587 9.50977 10.5882 9.49055 10.5855 9.47168C10.5829 9.4528 10.5765 9.43465 10.5667 9.4183C10.5572 9.40148 10.5446 9.3867 10.5294 9.37481C10.5142 9.36291 10.4969 9.35415 10.4783 9.34901C10.4597 9.34388 10.4403 9.34248 10.4212 9.3449C10.402 9.34732 10.3836 9.35351 10.3669 9.36311Z" fill="#271D70"/>
<path d="M13.2965 14.4328C13.2627 14.4523 13.2379 14.4846 13.2278 14.5224C13.2177 14.5602 13.223 14.6005 13.2425 14.6344C13.2632 14.6659 13.2951 14.6883 13.3317 14.697C13.3684 14.7056 13.4069 14.6999 13.4395 14.681C13.472 14.6621 13.4961 14.6314 13.5067 14.5952C13.5172 14.5591 13.5135 14.5203 13.4963 14.4868C13.477 14.4531 13.4451 14.4285 13.4076 14.4184C13.3702 14.4083 13.3302 14.4134 13.2965 14.4328Z" fill="#271D70"/>
<path d="M9.73036 9.85274C9.7167 9.86629 9.70586 9.88241 9.69846 9.90018C9.69107 9.91794 9.68726 9.93699 9.68726 9.95623C9.68726 9.97547 9.69107 9.99453 9.69846 10.0123C9.70586 10.0301 9.7167 10.0462 9.73036 10.0597C9.74385 10.0738 9.76001 10.085 9.77788 10.0927C9.79576 10.1004 9.81499 10.1045 9.83446 10.1047C9.85393 10.1049 9.87324 10.1012 9.89126 10.0938C9.90929 10.0865 9.92566 10.0756 9.93943 10.0618C9.9532 10.048 9.96408 10.0317 9.97144 10.0136C9.9788 9.99561 9.98249 9.9763 9.9823 9.95684C9.98211 9.93737 9.97803 9.91813 9.97031 9.90026C9.9626 9.88238 9.95139 9.86623 9.93735 9.85274C9.92397 9.83878 9.9079 9.82768 9.89012 9.82009C9.87233 9.8125 9.85319 9.80859 9.83386 9.80859C9.81452 9.80859 9.79539 9.8125 9.7776 9.82009C9.75981 9.82768 9.74375 9.83878 9.73036 9.85274Z" fill="#271D70"/>
<path d="M13.8726 13.9913C13.8451 14.0188 13.8297 14.056 13.8297 14.0948C13.8297 14.1336 13.8451 14.1709 13.8726 14.1983C13.9003 14.2254 13.9376 14.2405 13.9764 14.2405C14.0151 14.2405 14.0524 14.2254 14.0802 14.1983C14.0937 14.1847 14.1045 14.1685 14.1119 14.1507C14.1192 14.1329 14.123 14.1139 14.1229 14.0946C14.1229 14.0754 14.1191 14.0563 14.1117 14.0385C14.1043 14.0208 14.0935 14.0046 14.0799 13.991C14.0662 13.9774 14.0501 13.9667 14.0323 13.9593C14.0145 13.952 13.9954 13.9482 13.9762 13.9482C13.9569 13.9483 13.9378 13.9521 13.9201 13.9595C13.9023 13.9669 13.8862 13.9777 13.8726 13.9913Z" fill="#271D70"/>
<path d="M9.24073 10.4879C9.22151 10.5218 9.21641 10.5619 9.22651 10.5995C9.23662 10.6371 9.26112 10.6692 9.29473 10.6889C9.31983 10.7032 9.3486 10.7097 9.37742 10.7077C9.40624 10.7057 9.43381 10.6952 9.45667 10.6775C9.47953 10.6599 9.49666 10.6358 9.50589 10.6085C9.51512 10.5811 9.51605 10.5516 9.50855 10.5237C9.50106 10.4958 9.48547 10.4707 9.46377 10.4517C9.44206 10.4326 9.4152 10.4204 9.38657 10.4166C9.35793 10.4127 9.32881 10.4175 9.30286 10.4302C9.27691 10.4429 9.25529 10.4629 9.24073 10.4879Z" fill="#271D70"/>
<path d="M14.3123 13.4154C14.2977 13.4404 14.2908 13.4691 14.2925 13.498C14.2942 13.5269 14.3044 13.5547 14.3219 13.5778C14.3393 13.6008 14.3633 13.6182 14.3906 13.6277C14.418 13.6372 14.4475 13.6384 14.4755 13.6311C14.5035 13.6238 14.5288 13.6084 14.548 13.5867C14.5673 13.5651 14.5796 13.5382 14.5836 13.5096C14.5876 13.4809 14.583 13.4517 14.5704 13.4256C14.5578 13.3996 14.5377 13.3778 14.5127 13.3632C14.4792 13.3437 14.4393 13.3382 14.4018 13.348C14.3643 13.3578 14.3321 13.382 14.3123 13.4154Z" fill="#271D70"/>
<path d="M8.93363 11.2301C8.92352 11.2677 8.92875 11.3077 8.94816 11.3414C8.96757 11.3751 8.99957 11.3997 9.03712 11.4098C9.07467 11.4199 9.1147 11.4147 9.1484 11.3953C9.1821 11.3759 9.20671 11.3439 9.21681 11.3063C9.22181 11.2877 9.22311 11.2683 9.22061 11.2492C9.21812 11.2301 9.21189 11.2117 9.20228 11.195C9.19267 11.1783 9.17987 11.1637 9.1646 11.152C9.14934 11.1402 9.13191 11.1316 9.11332 11.1266C9.09472 11.1216 9.07532 11.1203 9.05623 11.1228C9.03714 11.1253 9.01872 11.1315 9.00204 11.1412C8.98535 11.1508 8.97072 11.1636 8.95898 11.1788C8.94724 11.1941 8.93863 11.2115 8.93363 11.2301Z" fill="#271D70"/>
<path d="M14.5925 12.7456C14.5869 12.7643 14.5851 12.7838 14.5874 12.8032C14.5896 12.8225 14.5958 12.8412 14.6055 12.858C14.6152 12.8749 14.6283 12.8896 14.6439 12.9012C14.6595 12.9128 14.6773 12.9211 14.6963 12.9256C14.7148 12.931 14.7342 12.9326 14.7533 12.9303C14.7725 12.9281 14.791 12.922 14.8077 12.9125C14.8245 12.903 14.8392 12.8903 14.851 12.875C14.8627 12.8597 14.8713 12.8423 14.8762 12.8236C14.8812 12.805 14.8824 12.7856 14.8798 12.7666C14.8772 12.7475 14.871 12.7291 14.8613 12.7125C14.8516 12.6959 14.8388 12.6813 14.8235 12.6697C14.8082 12.658 14.7907 12.6495 14.7721 12.6445C14.7536 12.6396 14.7342 12.6384 14.7151 12.641C14.696 12.6435 14.6777 12.6498 14.661 12.6595C14.6444 12.6692 14.6298 12.682 14.6182 12.6973C14.6065 12.7126 14.598 12.73 14.5931 12.7486" fill="#271D70"/>
<path d="M8.82862 12.0246C8.82827 12.0537 8.83658 12.0823 8.85252 12.1067C8.86845 12.1311 8.89128 12.1503 8.91811 12.1617C8.94493 12.1731 8.97454 12.1762 9.00317 12.1708C9.03181 12.1653 9.05817 12.1514 9.0789 12.131C9.09964 12.1105 9.11382 12.0843 9.11964 12.0557C9.12546 12.0272 9.12265 11.9975 9.11158 11.9706C9.10051 11.9436 9.08168 11.9205 9.05747 11.9043C9.03326 11.8881 9.00476 11.8794 8.97562 11.8794C8.93694 11.8794 8.89982 11.8946 8.87231 11.9218C8.84479 11.949 8.8291 11.9859 8.82862 12.0246Z" fill="#271D70"/>
<path d="M14.6879 12.0246C14.6876 12.0536 14.696 12.082 14.712 12.1062C14.7279 12.1305 14.7507 12.1494 14.7774 12.1607C14.8041 12.172 14.8336 12.175 14.8621 12.1695C14.8906 12.164 14.9168 12.1502 14.9373 12.1297C14.9579 12.1093 14.972 12.0832 14.9777 12.0548C14.9835 12.0264 14.9807 11.9969 14.9696 11.97C14.9586 11.9432 14.9398 11.9203 14.9157 11.9042C14.8916 11.888 14.8633 11.8794 14.8343 11.8794C14.7956 11.8794 14.7586 11.8947 14.7312 11.9218C14.7037 11.949 14.6882 11.986 14.6879 12.0246Z" fill="#271D70"/>
<path d="M8.93359 12.8207C8.94354 12.8582 8.96799 12.8903 9.00158 12.9098C9.03517 12.9294 9.07513 12.9347 9.11268 12.9248C9.15024 12.9148 9.1823 12.8904 9.20182 12.8568C9.22134 12.8232 9.22672 12.7832 9.21678 12.7457C9.20683 12.7081 9.18238 12.6761 9.14879 12.6566C9.11521 12.637 9.07524 12.6317 9.03769 12.6416C9.00013 12.6515 8.96807 12.676 8.94855 12.7096C8.92903 12.7432 8.92365 12.7831 8.93359 12.8207Z" fill="#271D70"/>
<path d="M14.5924 11.3064C14.603 11.3438 14.6277 11.3755 14.6614 11.3948C14.695 11.4141 14.7349 11.4194 14.7724 11.4096C14.791 11.4046 14.8085 11.396 14.8238 11.3842C14.839 11.3724 14.8518 11.3578 14.8614 11.3411C14.871 11.3243 14.8772 11.3059 14.8796 11.2868C14.8821 11.2676 14.8807 11.2482 14.8756 11.2296C14.8706 11.211 14.862 11.1936 14.8503 11.1783C14.8385 11.1631 14.8239 11.1503 14.8072 11.1407C14.7905 11.1311 14.7721 11.1248 14.753 11.1223C14.7339 11.1198 14.7145 11.1211 14.6959 11.1261C14.6773 11.1311 14.6599 11.1397 14.6446 11.1515C14.6294 11.1632 14.6166 11.1779 14.607 11.1945C14.5974 11.2112 14.5911 11.2296 14.5886 11.2487C14.5861 11.2678 14.5874 11.2878 14.5924 11.3064Z" fill="#271D70"/>
<path d="M9.24079 13.5616C9.25506 13.5869 9.27652 13.6074 9.30245 13.6204C9.32838 13.6335 9.3576 13.6385 9.38641 13.6349C9.41521 13.6313 9.44229 13.6192 9.46422 13.6002C9.48614 13.5812 9.50191 13.5561 9.50953 13.5281C9.51714 13.5001 9.51626 13.4704 9.50699 13.4429C9.49772 13.4154 9.48048 13.3913 9.45747 13.3736C9.43445 13.3559 9.40669 13.3454 9.37773 13.3436C9.34876 13.3417 9.31989 13.3485 9.29478 13.363C9.27817 13.3725 9.26358 13.3852 9.25187 13.4003C9.24015 13.4154 9.23154 13.4327 9.22652 13.4511C9.22151 13.4696 9.22018 13.4888 9.22263 13.5078C9.22508 13.5268 9.23125 13.5451 9.24079 13.5616Z" fill="#271D70"/>
<path d="M14.3123 10.6343C14.3267 10.6594 14.3482 10.6797 14.3742 10.6926C14.4001 10.7054 14.4293 10.7103 14.458 10.7066C14.4867 10.7029 14.5137 10.6908 14.5355 10.6717C14.5573 10.6527 14.573 10.6276 14.5806 10.5996C14.5881 10.5717 14.5872 10.5421 14.578 10.5147C14.5687 10.4872 14.5515 10.4631 14.5286 10.4455C14.5056 10.4278 14.478 10.4173 14.4491 10.4154C14.4202 10.4134 14.3914 10.4201 14.3663 10.4345C14.3326 10.4539 14.308 10.4858 14.2979 10.5232C14.2878 10.5607 14.293 10.6007 14.3123 10.6343Z" fill="#271D70"/>
<path d="M9.73029 14.1988C9.74378 14.2128 9.75994 14.224 9.77781 14.2317C9.79569 14.2394 9.81492 14.2435 9.83439 14.2437C9.85386 14.2439 9.87317 14.2402 9.89119 14.2328C9.90922 14.2255 9.92559 14.2146 9.93936 14.2008C9.95313 14.1871 9.96401 14.1707 9.97137 14.1527C9.97873 14.1346 9.98242 14.1153 9.98223 14.0959C9.98204 14.0764 9.97796 14.0572 9.97024 14.0393C9.96253 14.0214 9.95132 14.0053 9.93728 13.9918C9.90965 13.9652 9.87271 13.9506 9.83439 13.9509C9.79607 13.9513 9.75943 13.9667 9.73233 13.9938C9.70523 14.0209 9.68984 14.0575 9.68946 14.0959C9.68908 14.1342 9.70374 14.1711 9.73029 14.1988Z" fill="#271D70"/>
<path d="M13.8726 10.0597C13.9003 10.0867 13.9376 10.1019 13.9763 10.1019C14.0151 10.1019 14.0524 10.0867 14.0801 10.0597C14.1005 10.0392 14.1144 10.0131 14.12 9.98472C14.1256 9.95634 14.1226 9.92695 14.1115 9.90025C14.1004 9.87354 14.0817 9.85073 14.0576 9.83468C14.0335 9.81863 14.0053 9.81006 13.9763 9.81006C13.9474 9.81006 13.9192 9.81863 13.8951 9.83468C13.871 9.85073 13.8523 9.87354 13.8412 9.90025C13.8301 9.92695 13.8271 9.95634 13.8327 9.98472C13.8383 10.0131 13.8522 10.0392 13.8726 10.0597Z" fill="#271D70"/>
<path d="M10.367 14.6867C10.3835 14.6965 10.4018 14.7029 10.4208 14.7056C10.4398 14.7083 10.4592 14.7071 10.4777 14.7023C10.4963 14.6974 10.5138 14.6889 10.529 14.6773C10.5443 14.6657 10.5571 14.6511 10.5667 14.6345C10.5862 14.6008 10.5914 14.5608 10.5813 14.5233C10.5713 14.4858 10.5467 14.4538 10.513 14.4344C10.4794 14.415 10.4394 14.4097 10.4019 14.4198C10.3644 14.4299 10.3324 14.4544 10.313 14.4881C10.2939 14.5216 10.2888 14.5613 10.2989 14.5985C10.3091 14.6358 10.3335 14.6675 10.367 14.6867Z" fill="#271D70"/>
<path d="M13.2966 9.61561C13.313 9.62568 13.3313 9.63234 13.3503 9.6352C13.3693 9.63805 13.3888 9.63704 13.4074 9.63223C13.4261 9.62741 13.4435 9.61889 13.4588 9.60717C13.4741 9.59545 13.4869 9.58077 13.4964 9.56401C13.5071 9.5473 13.5144 9.52858 13.5176 9.50899C13.5209 9.48939 13.5202 9.46933 13.5155 9.45003C13.5108 9.43073 13.5022 9.41259 13.4902 9.39672C13.4783 9.38084 13.4632 9.36757 13.446 9.3577C13.4287 9.34784 13.4096 9.34158 13.3899 9.33933C13.3702 9.33707 13.3502 9.33885 13.3311 9.34457C13.3121 9.35029 13.2944 9.35982 13.2792 9.37259C13.264 9.38535 13.2515 9.40108 13.2426 9.41882C13.2327 9.43517 13.2263 9.45334 13.2237 9.47224C13.2211 9.49114 13.2224 9.51038 13.2274 9.52877C13.2325 9.54717 13.2412 9.56435 13.2531 9.57928C13.265 9.59421 13.2798 9.60656 13.2966 9.61561Z" fill="#271D70"/>
<path d="M11.1085 14.9951C11.1366 15.0028 11.1663 15.0019 11.1939 14.9927C11.2215 14.9835 11.2457 14.9663 11.2635 14.9432C11.2813 14.9202 11.2919 14.8924 11.2939 14.8634C11.2959 14.8344 11.2892 14.8054 11.2748 14.7802C11.2603 14.7549 11.2386 14.7346 11.2126 14.7216C11.1865 14.7087 11.1572 14.7038 11.1283 14.7075C11.0995 14.7113 11.0724 14.7235 11.0505 14.7426C11.0286 14.7618 11.0129 14.787 11.0053 14.8151C10.9952 14.8526 11.0004 14.8927 11.0197 14.9264C11.0391 14.9601 11.071 14.9848 11.1085 14.9951Z" fill="#271D70"/>
<path d="M12.6246 9.33903C12.6526 9.34654 12.6821 9.34561 12.7095 9.33635C12.7369 9.32709 12.7609 9.30992 12.7786 9.28701C12.7963 9.26409 12.8067 9.23646 12.8087 9.2076C12.8106 9.17874 12.804 9.14994 12.7896 9.12485C12.7752 9.09975 12.7537 9.07948 12.7278 9.0666C12.7019 9.05371 12.6728 9.04879 12.6441 9.05245C12.6154 9.0561 12.5885 9.06818 12.5666 9.08715C12.5448 9.10612 12.5291 9.13114 12.5214 9.15904C12.5163 9.17764 12.515 9.19705 12.5174 9.21618C12.5198 9.2353 12.526 9.25375 12.5356 9.27048C12.5452 9.2872 12.558 9.30187 12.5733 9.31363C12.5886 9.3254 12.606 9.33403 12.6246 9.33903Z" fill="#271D70"/>
<path d="M11.9052 15.0987C11.9341 15.0986 11.9623 15.0899 11.9863 15.0737C12.0103 15.0576 12.029 15.0347 12.04 15.0079C12.051 14.9811 12.0538 14.9517 12.0481 14.9234C12.0424 14.895 12.0284 14.869 12.0079 14.8486C11.9874 14.8282 11.9613 14.8143 11.9329 14.8087C11.9045 14.8031 11.8751 14.806 11.8484 14.8171C11.8217 14.8282 11.7989 14.847 11.7828 14.871C11.7668 14.8951 11.7582 14.9234 11.7582 14.9523C11.7581 14.9716 11.7619 14.9907 11.7692 15.0086C11.7766 15.0264 11.7874 15.0426 11.8011 15.0562C11.8148 15.0698 11.831 15.0806 11.8489 15.0879C11.8667 15.0952 11.8859 15.0989 11.9052 15.0987Z" fill="#271D70"/>
<path d="M11.9052 9.24373C11.934 9.24349 11.9621 9.23472 11.9859 9.21853C12.0097 9.20234 12.0282 9.17946 12.0391 9.15276C12.0499 9.12607 12.0526 9.09676 12.0468 9.06854C12.041 9.04033 12.0269 9.01446 12.0064 8.99422C11.9859 8.97397 11.9599 8.96025 11.9316 8.95479C11.9033 8.94933 11.874 8.95237 11.8475 8.96353C11.8209 8.97469 11.7983 8.99347 11.7824 9.0175C11.7665 9.04153 11.7581 9.06973 11.7582 9.09854C11.7583 9.11773 11.7621 9.13672 11.7696 9.15442C11.777 9.17212 11.7879 9.18817 11.8015 9.20166C11.8152 9.21515 11.8314 9.22582 11.8492 9.23303C11.8669 9.24025 11.886 9.24389 11.9052 9.24373Z" fill="#271D70"/>
</g>
</g>
<defs>
<clipPath id="clip0_266_45450">
<rect width="24" height="23.997" fill="white"/>
</clipPath>
</defs>
</svg>
