<svg width="32" height="32" viewBox="0 0 32 32" fill="none" xmlns="http://www.w3.org/2000/svg">
<g clip-path="url(#clip0_266_48246)">
<mask id="mask0_266_48246" style="mask-type:luminance" maskUnits="userSpaceOnUse" x="0" y="0" width="32" height="32">
<path d="M15.9968 0H15.6432C11.8032 0.08 9.8304 0.3816 8.0032 1.0088C6.23661 1.61666 4.64631 2.64902 3.372 4.0152C2.31341 5.24376 1.50324 6.66604 0.9864 8.2032C0.377317 10.1294 0.0538789 12.1344 0.0264 14.1544C-5.96046e-09 14.948 0 15.0584 0 15.9984C0 16.9384 -5.96046e-09 17.0472 0.0264 17.8384C0.0538699 19.8586 0.377308 21.864 0.9864 23.7904C1.50249 25.3291 2.31271 26.7528 3.372 27.9824C4.64641 29.3498 6.23773 30.3826 8.0056 30.9896C9.8328 31.6176 11.804 31.92 15.6456 32H16.3544C20.1944 31.92 22.168 31.6176 23.9944 30.9896C25.7626 30.3828 27.3542 29.35 28.6288 27.9824C29.687 26.754 30.4969 25.332 31.0136 23.7952C31.6231 21.8689 31.9465 19.8635 31.9736 17.8432C32 17.0488 32 16.94 32 16.0032C32 15.0664 32 14.9528 31.9736 14.1592C31.9466 12.1392 31.6231 10.1341 31.0136 8.208C30.4966 6.66915 29.6858 5.24523 28.6264 4.0152C27.3514 2.6479 25.76 1.61493 23.992 1.0072C22.1656 0.3816 20.1936 0.08 16.352 0H15.9968Z" fill="white"/>
</mask>
<g mask="url(#mask0_266_48246)">
<path d="M-0.228027 25.7258V-0.224609H10.592V32.225H-0.228027V25.7258Z" fill="#F67E0B"/>
<path d="M32.2232 6.27459V25.7258C32.2243 26.5793 32.057 27.4246 31.731 28.2134C31.4049 29.0022 30.9265 29.719 30.3231 30.3226C29.7198 30.9263 29.0033 31.4051 28.2146 31.7315C27.426 32.0579 26.5807 32.2256 25.7272 32.225H21.4072V-0.224608H25.7272C26.5807 -0.225239 27.426 -0.0575405 28.2146 0.26889C29.0033 0.595321 29.7198 1.07408 30.3231 1.67775C30.9265 2.28142 31.4049 2.99817 31.731 3.78695C32.057 4.57574 32.2243 5.42108 32.2232 6.27459Z" fill="#009D60"/>
<path d="M21.404 -0.217285H10.584V32.2171H21.404V-0.217285Z" fill="white"/>
</g>
</g>
<defs>
<clipPath id="clip0_266_48246">
<rect width="32" height="32" fill="white"/>
</clipPath>
</defs>
</svg>
