<svg width="32" height="32" viewBox="0 0 32 32" fill="none" xmlns="http://www.w3.org/2000/svg">
<g clip-path="url(#clip0_266_48660)">
<mask id="mask0_266_48660" style="mask-type:luminance" maskUnits="userSpaceOnUse" x="0" y="0" width="32" height="33">
<path d="M15.9992 0H15.6456C11.8056 0.08 9.832 0.3816 8.0056 1.0112C6.23732 1.61708 4.64559 2.64938 3.3712 4.0168C2.31294 5.2456 1.50281 6.66781 0.9856 8.2048C0.376125 10.1311 0.0526781 12.1365 0.0256001 14.1568C5.06639e-08 14.9512 0 15.0616 0 16.0008C0 16.94 5.06639e-08 17.0496 0.0256001 17.8408C0.0525706 19.8619 0.376017 21.8681 0.9856 23.7952C1.50235 25.3324 2.31253 26.7547 3.3712 27.9832C4.64555 29.3509 6.23727 30.3834 8.0056 30.9896C9.832 31.6192 11.804 31.9208 15.6456 32.0008H16.3536C20.1936 31.9208 22.168 31.6192 23.9944 30.9896C25.7625 30.383 27.3542 29.3505 28.6288 27.9832C29.6872 26.7545 30.4973 25.3323 31.0144 23.7952C31.6231 21.8684 31.9465 19.8629 31.9744 17.8424C32 17.0488 32 16.9392 32 16.0024C32 15.0656 32 14.9528 31.9744 14.1584C31.9465 12.1382 31.6231 10.1329 31.0144 8.2064C30.4969 6.66955 29.6868 5.2474 28.6288 4.0184C27.3543 2.65073 25.7627 1.61793 23.9944 1.0112C22.168 0.3816 20.196 0.0792 16.3536 0H15.9992Z" fill="white"/>
</mask>
<g mask="url(#mask0_266_48660)">
<path d="M51.6409 20.6787H-3.2207V32.4251H51.6409V20.6787Z" fill="#D81E05"/>
<path d="M51.6409 -0.20459H-3.2207V11.5418H51.6409V-0.20459Z" fill="white"/>
<path d="M51.6411 10.6714H-3.21973V21.5482H51.6411V10.6714Z" fill="#0051BA"/>
<path d="M5.52645 7.465C4.86965 7.5146 5.05285 8.31221 4.97365 8.76421C4.73925 11.8842 4.41845 15.1034 5.37365 18.1426C6.18797 20.5835 7.8709 22.6399 10.1025 23.921C10.6166 24.2648 11.1705 24.545 11.7521 24.7554C12.362 24.5319 12.9432 24.2365 13.4833 23.8754C15.6762 22.5917 17.328 20.5549 18.1313 18.1442C19.0993 15.0546 18.7545 11.7826 18.5209 8.61221C18.4857 8.17461 18.5521 7.4178 17.9065 7.4666L5.52645 7.465Z" fill="white"/>
<path d="M17.9791 7.95557H5.52625C5.02705 14.5596 4.20145 20.6132 11.7519 24.2676C19.3023 20.6132 18.4767 14.5596 17.9791 7.95557Z" fill="#D81E05"/>
<path d="M15.7042 13.7224C14.9209 13.8982 14.1226 13.9982 13.3202 14.0208H12.4402V12.4264H12.6314C13.4334 12.4489 14.2313 12.5496 15.0138 12.7272C14.7833 12.0885 14.7833 11.3892 15.0138 10.7504C14.2312 10.9274 13.4333 11.0279 12.6314 11.0504H12.4402V10.9464C12.4633 10.1489 12.564 9.35559 12.741 8.57764C12.099 8.80724 11.3973 8.80724 10.7554 8.57764C10.9323 9.35559 11.0331 10.1489 11.0562 10.9464V11.0504H10.8666C10.0646 11.0281 9.26665 10.9276 8.48416 10.7504C8.71459 11.3892 8.71459 12.0885 8.48416 12.7272C9.26656 12.5494 10.0645 12.4486 10.8666 12.4264H11.0562V14.0208H10.1842C9.38228 13.9982 8.58446 13.8982 7.80176 13.7224C8.03134 14.3608 8.03134 15.0593 7.80176 15.6976C8.58418 15.5199 9.38211 15.4191 10.1842 15.3968H11.0602V21.052H12.4442V15.3952H13.3242C14.1267 15.4175 14.9252 15.5183 15.7082 15.696C15.4761 15.0581 15.4761 14.3588 15.7082 13.7208" fill="white"/>
<path d="M16.5099 20.2104C16.5084 19.8865 16.4098 19.5704 16.227 19.3029C16.0442 19.0355 15.7855 18.8289 15.4842 18.7098C15.1829 18.5908 14.8529 18.5647 14.5366 18.635C14.2204 18.7052 13.9324 18.8686 13.7099 19.104C13.582 18.6839 13.3224 18.3159 12.9695 18.0544C12.6166 17.793 12.1891 17.6519 11.7499 17.6519C11.3107 17.6519 10.8831 17.793 10.5302 18.0544C10.1773 18.3159 9.91777 18.6839 9.78987 19.104C9.56753 18.8695 9.28008 18.7069 8.96453 18.6372C8.64899 18.5675 8.31981 18.5939 8.01938 18.7129C7.71895 18.8319 7.46102 19.0382 7.27882 19.3051C7.09663 19.5719 6.9985 19.8873 6.99707 20.2104C6.99907 20.2769 7.00548 20.3432 7.01627 20.4088C7.09627 20.528 7.19147 20.6424 7.27947 20.7592H7.27067C7.31707 20.8208 7.36987 20.8816 7.41787 20.9432C7.46587 21.0048 7.52907 21.0848 7.58667 21.1544C8.7346 22.4778 10.1532 23.5393 11.7467 24.2672C13.3359 23.5457 14.752 22.4919 15.8995 21.1768C15.9795 21.084 16.0523 20.988 16.1259 20.8936C16.1611 20.848 16.1995 20.804 16.2339 20.7592H16.2275C16.3163 20.6408 16.4107 20.5248 16.4923 20.4048C16.5037 20.3406 16.5107 20.2756 16.5131 20.2104" fill="#0051BA"/>
<path d="M16.3447 0.5L17.6914 0.540039C20.4297 0.650313 22.0533 0.912786 23.5029 1.37305L23.834 1.48242C25.5174 2.06184 27.033 3.0455 28.248 4.34668H28.249C29.138 5.37863 29.8452 6.55258 30.3408 7.81836L30.54 8.36719C31.0582 10.0093 31.3638 11.71 31.4502 13.4277L31.4736 14.166V14.1758C31.4998 14.9627 31.5 15.0696 31.5 16.0029C31.5 16.9363 31.4998 17.0395 31.4736 17.8262V17.8359C31.4469 19.8046 31.1325 21.7592 30.54 23.6367C30.0439 25.1111 29.2658 26.4745 28.251 27.6533C27.1107 28.8735 25.7069 29.8149 24.1475 30.4043L23.832 30.5176C22.0767 31.1217 20.1634 31.4204 16.3447 31.5H15.6572C11.8373 31.4212 9.92528 31.1217 8.16992 30.5176H8.16895C6.48512 29.9397 4.96855 28.9577 3.75293 27.6572H3.75391C2.73634 26.4767 1.9565 25.1099 1.45898 23.6328C0.866986 21.7554 0.552543 19.8014 0.525391 17.833V17.8242L0.50293 16.9688C0.499769 16.7278 0.5 16.4679 0.5 16C0.5 15.0644 0.499632 14.9602 0.527344 14.1738L0.52832 14.1631C0.555541 12.1947 0.869818 10.2407 1.46191 8.36328C1.89716 7.0723 2.54729 5.86567 3.38379 4.79395L3.75391 4.34277C4.96934 3.04255 6.48546 2.06041 8.16895 1.48242H8.16992C9.70586 0.953808 11.3629 0.658775 14.3115 0.540039L15.6572 0.5H16.3447Z" stroke="#F6F6F6"/>
</g>
</g>
<defs>
<clipPath id="clip0_266_48660">
<rect width="32" height="32.0008" fill="white"/>
</clipPath>
</defs>
</svg>
