<svg width="32" height="32" viewBox="0 0 32 32" fill="none" xmlns="http://www.w3.org/2000/svg">
<g clip-path="url(#clip0_266_47340)">
<mask id="mask0_266_47340" style="mask-type:luminance" maskUnits="userSpaceOnUse" x="0" y="0" width="32" height="32">
<path d="M16 0H15.6456C11.8056 0.080016 9.8328 0.382477 8.0056 1.0114C6.23746 1.6177 4.64581 2.65017 3.3712 4.0176C2.31294 5.24665 1.50281 6.66914 0.9856 8.20644C0.376498 10.1335 0.0530613 12.1395 0.0256004 14.1604C4.32134e-07 14.9542 0 15.0646 0 16.0008C0 16.937 4.32134e-07 17.0506 0.0256004 17.8412C0.0530793 19.8616 0.376518 21.867 0.9856 23.7936C1.50244 25.331 2.31261 26.7536 3.3712 27.9824C4.6455 29.3506 6.23721 30.3836 8.0056 30.9902C9.8328 31.6183 11.804 31.92 15.6456 32H16.3544C20.1944 31.92 22.1672 31.6183 23.9944 30.9902C25.7628 30.3836 27.3545 29.3506 28.6288 27.9824C29.6874 26.7536 30.4976 25.331 31.0144 23.7936C31.6231 21.8669 31.9465 19.8615 31.9744 17.8412C32 17.0474 32 16.937 32 16.0008C32 15.0646 32 14.951 31.9744 14.1604C31.9465 12.1396 31.6231 10.1336 31.0144 8.20644C30.4972 6.66914 29.6871 5.24665 28.6288 4.0176C27.3542 2.65017 25.7625 1.6177 23.9944 1.0114C22.1664 0.384077 20.1952 0.080016 16.3536 0H16Z" fill="white"/>
</mask>
<g mask="url(#mask0_266_47340)">
<path d="M52.0912 -1.52051H-7.12V32.9976H52.0912V-1.52051Z" fill="white"/>
<path fill-rule="evenodd" clip-rule="evenodd" d="M8.09436 -1.52051L16.7344 1.93058L8.09436 5.38167L16.7344 8.83597L8.09436 12.2863L16.7344 15.7365L8.09436 19.1908L16.7344 22.6411L8.09436 26.093L16.7344 29.5473L8.09436 32.9976H52.0944V-1.52051H8.09436Z" fill="#BC0030"/>
<path d="M16.3447 0.5L17.6914 0.540039C20.4297 0.650313 22.0533 0.912786 23.5029 1.37305L23.834 1.48242C25.5174 2.06184 27.033 3.0455 28.248 4.34668H28.249C29.138 5.37863 29.8452 6.55258 30.3408 7.81836L30.54 8.36719C31.0582 10.0093 31.3638 11.71 31.4502 13.4277L31.4736 14.166V14.1758C31.4998 14.9627 31.5 15.0696 31.5 16.0029C31.5 16.9363 31.4998 17.0395 31.4736 17.8262V17.8359C31.4469 19.8046 31.1325 21.7592 30.54 23.6367C30.0439 25.1111 29.2658 26.4745 28.251 27.6533C27.1107 28.8735 25.7069 29.8149 24.1475 30.4043L23.832 30.5176C22.0767 31.1217 20.1634 31.4204 16.3447 31.5H15.6572C11.8373 31.4212 9.92528 31.1217 8.16992 30.5176H8.16895C6.48512 29.9397 4.96855 28.9577 3.75293 27.6572H3.75391C2.73634 26.4767 1.9565 25.1099 1.45898 23.6328C0.866986 21.7554 0.552543 19.8014 0.525391 17.833V17.8242L0.50293 16.9688C0.499769 16.7278 0.5 16.4679 0.5 16C0.5 15.0644 0.499632 14.9602 0.527344 14.1738L0.52832 14.1631C0.555541 12.1947 0.869818 10.2407 1.46191 8.36328C1.89716 7.0723 2.54729 5.86567 3.38379 4.79395L3.75391 4.34277C4.96934 3.04255 6.48546 2.06041 8.16895 1.48242H8.16992C9.70586 0.953808 11.3629 0.658775 14.3115 0.540039L15.6572 0.5H16.3447Z" stroke="#F6F6F6"/>
</g>
</g>
<defs>
<clipPath id="clip0_266_47340">
<rect width="32" height="32" fill="white"/>
</clipPath>
</defs>
</svg>
