<svg width="17" height="16" viewBox="0 0 17 16" fill="none" xmlns="http://www.w3.org/2000/svg">
<path d="M16.4721 6.18677C16.4081 6.00624 16.2428 5.88088 16.0455 5.85079L11.1662 5.15373L8.97994 0.785847C8.88928 0.610329 8.70263 0.5 8.5 0.5C8.29737 0.5 8.10538 0.610329 8.02006 0.785847L5.83376 5.15373L0.95453 5.85079C0.757229 5.88088 0.591928 6.01125 0.527939 6.18677C0.463949 6.3673 0.511963 6.56288 0.650608 6.69828L4.19669 10.1033L3.35948 14.9175C3.32749 15.1081 3.41283 15.2987 3.57813 15.409C3.74344 15.5193 3.9674 15.5293 4.14337 15.4391L8.5 13.1824L12.8566 15.4391C12.9366 15.4792 13.0273 15.4992 13.1126 15.4992C13.2193 15.4992 13.3259 15.4692 13.4219 15.409C13.5872 15.2987 13.6725 15.1081 13.6405 14.9175L12.8033 10.1033L16.3494 6.69828C16.488 6.56288 16.5361 6.3673 16.4721 6.18677Z" fill="white"/>
</svg>
