<svg width="56" height="56" viewBox="0 0 56 56" fill="none" xmlns="http://www.w3.org/2000/svg">
<path d="M49.8172 12.107C49.2352 11.937 47.2172 11.336 44.4862 10.384C38.7642 8.46386 33.2427 5.99085 28.0002 3C18.8172 8.532 6.00024 12.161 6.00024 12.161V27.167C5.98423 30.6462 6.77889 34.0813 8.32124 37.2C9.31935 39.2082 10.5823 41.0735 12.0762 42.746C18.5872 50.09 28.0002 53 28.0002 53C28.0002 53 50.0002 46.206 50.0002 27.167V12.161L49.8172 12.107Z" fill="#03CF5D"/>
<path d="M31.066 19V28.524L24.469 19H19V36.794H24.729V27.271L31.329 36.795H36.797V19H31.066Z" fill="white"/>
</svg>
