<svg width="56" height="57" viewBox="0 0 56 57" fill="none" xmlns="http://www.w3.org/2000/svg">
<path d="M36.8219 0.75H11.1781C8.31831 0.75 6 3.0741 6 5.94101V39.559C6 42.4259 8.31831 44.75 11.1781 44.75H36.8219C39.6817 44.75 42 42.4259 42 39.559V5.94101C42 3.0741 39.6817 0.75 36.8219 0.75Z" stroke="#B3B3B3" stroke-width="1.5"/>
<path d="M31.25 11.75H13.75C13.3358 11.75 13 12.0858 13 12.5C13 12.9142 13.3358 13.25 13.75 13.25H31.25C31.6642 13.25 32 12.9142 32 12.5C32 12.0858 31.6642 11.75 31.25 11.75Z" fill="#B3B3B3"/>
<path d="M26.25 17.75H13.75C13.3358 17.75 13 18.0858 13 18.5C13 18.9142 13.3358 19.25 13.75 19.25H26.25C26.6642 19.25 27 18.9142 27 18.5C27 18.0858 26.6642 17.75 26.25 17.75Z" fill="#B3B3B3"/>
<path d="M50.8882 32.2142C50.5182 32.1138 49.2365 31.7512 47.4953 31.1806C43.8645 30.0331 40.3514 28.5497 37.0026 26.75C32.5485 29.074 27.8539 30.9168 23.0001 32.2464V41.2503C22.9916 43.3458 23.4985 45.4119 24.477 47.271C25.1156 48.4822 25.9181 49.6017 26.8626 50.5987C29.7002 53.4135 33.1739 55.5218 36.9975 56.75C36.9975 56.75 51 52.6739 51 41.2503V32.2464L50.8841 32.2142" fill="#19973C"/>
<path d="M37 50.75C38.1046 50.75 39 49.8546 39 48.75C39 47.6454 38.1046 46.75 37 46.75C35.8954 46.75 35 47.6454 35 48.75C35 49.8546 35.8954 50.75 37 50.75Z" fill="white"/>
<path d="M38.5 35.25C38.5 34.4216 37.8284 33.75 37 33.75C36.1716 33.75 35.5 34.4216 35.5 35.25V43.25C35.5 44.0784 36.1716 44.75 37 44.75C37.8284 44.75 38.5 44.0784 38.5 43.25V35.25Z" fill="white"/>
</svg>
