<svg width="32" height="32" viewBox="0 0 32 32" fill="none" xmlns="http://www.w3.org/2000/svg">
<g clip-path="url(#clip0_266_48189)">
<mask id="mask0_266_48189" style="mask-type:luminance" maskUnits="userSpaceOnUse" x="0" y="0" width="32" height="32">
<path d="M16 0H15.6448C11.8048 0.08 9.832 0.3816 8.0056 1.0096C6.23769 1.61704 4.6462 2.64974 3.3712 4.0168C2.313 5.24594 1.50289 6.6684 0.9856 8.2056C0.376964 10.1316 0.0535366 12.1363 0.0256004 14.156C4.32134e-07 14.956 0 15.0608 0 16.0008C0 16.9408 4.32134e-07 17.0488 0.0256004 17.8408C0.0535208 19.8613 0.376946 21.8668 0.9856 23.7936C1.50289 25.3308 2.313 26.7533 3.3712 27.9824C4.64581 29.3501 6.23741 30.3831 8.0056 30.9904C9.832 31.62 11.804 31.9208 15.6448 32H16.3544C20.1944 31.92 22.168 31.62 23.9944 30.9904C25.7624 30.3844 27.3538 29.3521 28.628 27.9848C29.6865 26.7557 30.4969 25.3333 31.0144 23.796C31.6231 21.8692 31.9465 19.8637 31.9744 17.8432C32 17.0488 32 16.94 32 16.0032C32 15.0664 32 14.9544 31.9744 14.1584C31.9465 12.1387 31.623 10.134 31.0144 8.208C30.4969 6.67074 29.6865 5.24827 28.628 4.0192C27.3537 2.65167 25.7624 1.61887 23.9944 1.012C22.168 0.384 20.1952 0.0816 16.3544 0.00240002L16 0Z" fill="white"/>
</mask>
<g mask="url(#mask0_266_48189)">
<path d="M44.6888 -1.44971H-12.6904V31.9967H44.6888V-1.44971Z" fill="#C8172B"/>
<path fill-rule="evenodd" clip-rule="evenodd" d="M18.7049 16.8623L20.3761 22.0039L16.0001 18.8255L11.6241 22.0039L13.2953 16.8623L8.91846 13.6855H14.3281L16.0001 8.54395L17.6721 13.6855H23.0809L18.7049 16.8623Z" fill="#FCFF2C"/>
</g>
</g>
<defs>
<clipPath id="clip0_266_48189">
<rect width="32" height="32" fill="white"/>
</clipPath>
</defs>
</svg>
