<svg width="32" height="32" viewBox="0 0 32 32" fill="none" xmlns="http://www.w3.org/2000/svg">
<g clip-path="url(#clip0_266_47397)">
<mask id="mask0_266_47397" style="mask-type:luminance" maskUnits="userSpaceOnUse" x="0" y="0" width="32" height="32">
<path d="M15.9992 0H15.6448C11.8048 0.08001 9.8328 0.382448 8.0056 1.01133C6.23716 1.61736 4.6454 2.6501 3.3712 4.0181C2.31238 5.24756 1.5022 6.67085 0.9856 8.20903C0.376507 10.1357 0.0530695 12.1413 0.0255997 14.1618C-3.30806e-07 14.9555 0 15.0651 0 16.002C0 16.9389 -3.30806e-07 17.0509 0.0255997 17.8422C0.053187 19.863 0.376621 21.8688 0.9856 23.7958C1.50307 25.3326 2.31318 26.7547 3.3712 27.9835C4.64604 29.3507 6.2376 30.3833 8.0056 30.9903C9.8328 31.6192 11.804 31.9216 15.6448 32H16.3544C20.1944 31.92 22.168 31.6192 23.9944 30.9903C25.7623 30.3835 27.3536 29.3509 28.628 27.9835C29.6865 26.7549 30.4969 25.3328 31.0144 23.7958C31.623 21.8687 31.9464 19.8629 31.9744 17.8422C32 17.0477 32 16.9373 32 16.002C32 15.0667 32 14.9515 31.9744 14.1618C31.9465 12.1413 31.6231 10.1358 31.0144 8.20903C30.4975 6.67179 29.687 5.24956 28.628 4.0213C27.355 2.65072 25.7634 1.6157 23.9944 1.00813C22.168 0.382448 20.1944 0.08001 16.3544 0H15.9992Z" fill="white"/>
</mask>
<g mask="url(#mask0_266_47397)">
<path d="M51.2607 -1.4624H-6.66333V37.1272H51.2607V-1.4624Z" fill="#19307A"/>
<path d="M20.3831 7.75391L20.8511 9.19391H22.3631L21.1391 10.0835L21.6079 11.5235L20.3831 10.6331L19.1591 11.5235L19.6271 10.0835L18.4031 9.19391H19.9151L20.3831 7.75391Z" fill="#FF0000"/>
<path d="M20.3831 7.75391L20.8511 9.19391H22.3631L21.1391 10.0835L21.6079 11.5235L20.3831 10.6331L19.1591 11.5235L19.6271 10.0835L18.4031 9.19391H19.9151L20.3831 7.75391Z" stroke="white" stroke-miterlimit="10"/>
<path d="M14.6327 -2.99219H-8.8457V12.6386H14.6327V-2.99219Z" fill="#19307A"/>
<path d="M7.68152 7.89648H6.41992V8.56608L12.4511 12.6381H14.6327V12.6333L7.68152 7.89648Z" fill="white"/>
<path d="M8.93115 7.89648L14.6328 11.7845V11.3421L9.52955 7.89648H8.93115Z" fill="white"/>
<path d="M0.562411 7.89648L-4.50879 11.2909V12.6237L2.56241 7.89648H0.562411Z" fill="white"/>
<path d="M3.70397 7.979L-3.26562 12.6382H-2.39602L3.70397 8.5582V7.979Z" fill="white"/>
<path d="M1.33512 4.63399L-4.50488 0.721191V1.18599L0.603918 4.63399H1.33512Z" fill="white"/>
<path d="M9.55418 4.63381L14.6294 1.23781V-0.100586L7.57178 4.63381H9.55418Z" fill="white"/>
<path d="M3.70398 4.63373V3.96333L-2.32242 -0.105469H-4.48242L2.59598 4.63373H3.70398Z" fill="white"/>
<path d="M6.41901 4.56173L13.379 -0.105469H12.5142L6.41821 3.97453L6.41901 4.56173Z" fill="white"/>
<path d="M3.70401 7.89648H2.56241L-4.50879 12.6237V12.6381H-3.26559L3.70401 7.97888V7.89648Z" fill="#FF0102"/>
<path d="M6.41919 4.63373H7.57199L14.632 -0.100669V-0.105469H13.3824L6.42239 4.56173L6.41919 4.63373Z" fill="#FF0102"/>
<path d="M7.68164 7.89648L14.6328 12.6333V11.7845L8.93124 7.89648H7.68164Z" fill="#FF0102"/>
<path d="M2.59841 4.63373L-4.47999 -0.105469H-4.50879V0.720931L1.33121 4.63373H2.59841Z" fill="#FF0102"/>
<path d="M4.24401 7.22998H-4.50879V7.89558H3.70481V12.638H4.24401V7.22998Z" fill="white"/>
<path d="M5.90381 5.27231H14.6326V4.63231H6.41901V-0.104492H5.90381V5.27231Z" fill="white"/>
<path d="M6.41901 7.89607H14.6318V7.23047H5.90381V12.6377H6.41901V7.89607Z" fill="white"/>
<path d="M4.24401 5.27231V-0.104492H3.70481V4.63391H-4.50879V5.27391L4.24401 5.27231Z" fill="white"/>
<path d="M5.90401 7.22985H14.6328V5.272H5.90401V-0.105469H4.24321V5.272H-4.50879V7.22985H4.24321V12.6385H5.90401V7.22985Z" fill="#FF0102"/>
</g>
</g>
<defs>
<clipPath id="clip0_266_47397">
<rect width="32" height="32" fill="white"/>
</clipPath>
</defs>
</svg>
