<svg width="24" height="24" viewBox="0 0 24 24" fill="none" xmlns="http://www.w3.org/2000/svg">
<g clip-path="url(#clip0_266_45295)">
<mask id="mask0_266_45295" style="mask-type:luminance" maskUnits="userSpaceOnUse" x="0" y="0" width="24" height="24">
<path d="M11.9988 0H11.7336C8.85376 0.059997 7.37363 0.286786 6.0033 0.758362C4.6774 1.21326 3.48379 1.98737 2.52767 3.01245C1.73442 3.93441 1.12708 5.00117 0.739163 6.15389C0.28245 7.59846 0.0398846 9.10216 0.0191988 10.6171C-2.48092e-07 11.2128 0 11.2956 0 11.997C0 12.6984 -2.48092e-07 12.7842 0.0191988 13.3799C0.0399209 14.895 0.282485 16.3989 0.739163 17.8437C1.1268 18.9962 1.73418 20.0626 2.52767 20.984C3.48359 22.0094 4.67726 22.7837 6.0033 23.2386C7.37363 23.7102 8.85196 23.9364 11.7336 23.997H12.2652C15.145 23.937 16.6252 23.7102 17.9949 23.2386C19.3208 22.7839 20.5143 22.0095 21.4699 20.984C22.2644 20.063 22.8728 18.9968 23.2614 17.8443C23.7179 16.3995 23.9604 14.8956 23.9814 13.3805C24 12.7848 24 12.7026 24 11.9976C24 11.2926 24 11.211 23.9814 10.6177C23.9605 9.10279 23.7179 7.59912 23.2614 6.15449C22.8731 5.00169 22.2654 3.93493 21.4717 3.01305C20.5165 1.9879 19.3237 1.21356 17.9985 0.758362C16.627 0.286786 15.148 0.059997 12.267 0H11.9988Z" fill="white"/>
</mask>
<g mask="url(#mask0_266_45295)">
<path d="M11.7338 0C8.85398 0.060003 7.37389 0.285614 6.0036 0.757238C4.67787 1.21235 3.48462 1.987 2.52926 3.01275C1.73546 3.93426 1.12752 5.00073 0.738991 6.15331C0.282551 7.59829 0.0399996 9.1023 0.0190455 10.6175C-0.00195293 11.2134 -0.00195312 11.2962 -0.00195312 12.0006C-0.00195312 12.705 -0.00195309 12.7872 0.0172455 13.3807C0.0381498 14.8961 0.280702 16.4003 0.737192 17.8455C1.12582 18.9993 1.7344 20.0669 2.52926 20.9891C3.48465 22.0146 4.67791 22.7891 6.0036 23.244C7.37389 23.7156 8.85278 23.9418 11.7338 24.0012H12.2653C15.1451 23.9412 16.6246 23.7156 17.9949 23.244C19.3207 22.7889 20.5141 22.0145 21.4698 20.9891C22.2638 20.0675 22.8716 19.0008 23.2595 17.8479C23.7163 16.4028 23.9588 14.8985 23.9794 13.3831C23.9992 12.7872 23.9992 12.7056 23.9992 12.003C23.9992 11.3004 23.9992 11.2158 23.9794 10.6199C23.9588 9.10468 23.7162 7.60062 23.2595 6.15571C22.8714 5.00305 22.2637 3.93654 21.4698 3.01515C20.5149 1.98888 19.3221 1.21343 17.9967 0.757238C16.6246 0.285614 15.1457 0.060003 12.2653 0H11.7338Z" fill="white"/>
<path d="M16.0648 16.7764L16.0462 24.2256L30.9555 24.2604L16.0648 16.7764Z" fill="#14377D"/>
<path d="M-7.01125 24.1696L7.89681 24.205L7.91481 16.7563L-7.01125 24.1696Z" fill="#14377D"/>
<path d="M31.0136 -0.171033L16.105 -0.207031L16.0876 7.2422L31.0136 -0.171033Z" fill="#14377D"/>
<path d="M7.9376 7.22482L7.955 -0.226209L-6.95365 -0.262207L7.9376 7.22482Z" fill="#14377D"/>
<path d="M36.4584 9.61494L14.4521 9.56454L14.4755 -0.210769L9.58512 -0.222168L9.56232 9.55014L-12.444 9.49855L-12.4554 14.3847L9.55092 14.4369L9.52692 24.2092L14.4173 24.2206L14.4413 14.4477L36.4464 14.5011L36.4584 9.61494Z" fill="#DA1A32"/>
<path d="M23.7864 16.0996L20.141 16.0906L36.4224 24.2736L36.4278 22.4527L23.7864 16.0996Z" fill="#DA1A32"/>
<path d="M3.83921 16.052L-12.48 24.157L-8.83456 24.1648L7.48462 16.0604L3.83921 16.052Z" fill="#DA1A32"/>
<path d="M20.1584 7.9446L36.4818 -0.154993L32.8376 -0.166992L16.5166 7.938L20.1584 7.9446Z" fill="#DA1A32"/>
<path d="M0.215988 7.89909L3.86021 7.90749L-12.42 -0.274902L-12.4254 1.54601L0.215988 7.89909Z" fill="#DA1A32"/>
</g>
</g>
<defs>
<clipPath id="clip0_266_45295">
<rect width="24" height="23.997" fill="white"/>
</clipPath>
</defs>
</svg>
