<svg width="32" height="32" viewBox="0 0 32 32" fill="none" xmlns="http://www.w3.org/2000/svg">
<g clip-path="url(#clip0_266_47160)">
<mask id="mask0_266_47160" style="mask-type:luminance" maskUnits="userSpaceOnUse" x="0" y="0" width="32" height="32">
<path d="M15.9992 0.000800313H15.6448C11.8048 0.0808183 9.832 0.381686 8.0048 1.01063C6.23688 1.61732 4.64551 2.65008 3.3712 4.0177C2.31278 5.24666 1.50263 6.66923 0.985599 8.20665C0.376102 10.1334 0.0526546 12.1392 0.0255997 14.16C-3.30806e-07 14.9538 0 15.0642 0 16.0004C0 16.9366 -3.30806e-07 17.051 0.0255997 17.8408C0.0527815 19.8615 0.376226 21.8673 0.985599 23.7942C1.50263 25.3316 2.31278 26.7541 3.3712 27.9831C4.64591 29.3504 6.23713 30.3834 8.0048 30.991C9.832 31.6191 11.8032 31.9216 15.6448 32H16.3536C20.1936 31.92 22.168 31.6191 23.9944 30.991C25.7622 30.3836 27.3534 29.3506 28.628 27.9831C29.6848 26.7561 30.494 25.336 31.0112 23.8014C31.6202 21.8745 31.9437 19.8687 31.9712 17.848C31.9976 17.0542 31.9976 16.9438 31.9976 16.0076C31.9976 15.0714 31.9976 14.9578 31.9712 14.1672C31.9438 12.1465 31.6203 10.1407 31.0112 8.21385C30.4942 6.67643 29.684 5.25386 28.6256 4.02491C27.353 2.65454 25.7624 1.61899 23.9944 1.00983C22.168 0.380886 20.1952 0.0784176 16.3536 0L15.9992 0.000800313Z" fill="white"/>
</mask>
<g mask="url(#mask0_266_47160)">
<path d="M44.3408 -2.59082H-9.86877V33.5293H44.3408V-2.59082Z" fill="#FF1919"/>
<path d="M44.3408 13.2055H13.7424V-2.59082H8.09443V13.2055H-9.86877V17.6753H8.09443V33.5285H13.7424V17.6753H44.3408V13.2055Z" fill="white"/>
</g>
</g>
<defs>
<clipPath id="clip0_266_47160">
<rect width="31.9976" height="32" fill="white"/>
</clipPath>
</defs>
</svg>
