<svg width="24" height="24" viewBox="0 0 24 24" fill="none" xmlns="http://www.w3.org/2000/svg">
<g clip-path="url(#clip0_266_45283)">
<mask id="mask0_266_45283" style="mask-type:luminance" maskUnits="userSpaceOnUse" x="0" y="0" width="24" height="24">
<path d="M11.9994 0H11.7336C8.85376 0.059997 7.37423 0.284986 6.0033 0.756562C4.67779 1.21214 3.48463 1.98664 2.52887 3.01185C1.73512 3.93343 1.12736 5.00002 0.739163 6.15269C0.282947 7.59759 0.0403943 9.10141 0.019199 10.6165C2.23506e-09 11.2116 0 11.2944 0 11.9964C0 12.6984 2.23506e-09 12.7836 0.019199 13.3763C0.0403943 14.8914 0.282947 16.3952 0.739163 17.8401C1.12666 18.9949 1.73445 20.0636 2.52887 20.9869C3.48434 22.0124 4.67761 22.7867 6.0033 23.2416C7.37423 23.7132 8.85316 23.94 11.7336 23.9988H12.2658C15.1456 23.9388 16.6252 23.7132 17.9949 23.2416C19.3211 22.787 20.5148 22.0126 21.4705 20.9869C22.2641 20.0652 22.8718 18.9987 23.2602 17.8461C23.7168 16.4013 23.9593 14.8974 23.9802 13.3823C24 12.7872 24 12.7044 24 12.0024C24 11.3004 24 11.2146 23.9802 10.6225C23.9593 9.10738 23.7168 7.60351 23.2602 6.15869C22.8718 5.00612 22.2641 3.93958 21.4705 3.01785C20.5145 1.99236 19.3209 1.21783 17.9949 0.762562C16.6252 0.287986 15.1462 0.0587971 12.2658 0H11.9994Z" fill="white"/>
</mask>
<g mask="url(#mask0_266_45283)">
<path d="M35.9646 -4.33179H-0.555573V25.6415H35.9646V-4.33179Z" fill="#E53226"/>
<path d="M5.47653 4.10547L6.15209 6.18316H8.33898L6.57027 7.4671L7.24404 9.546L5.47653 8.26146L3.70421 9.546L4.38038 7.4671L2.61107 6.18316H4.80096L5.47653 4.10547Z" fill="#FDDF2E"/>
<path d="M12.4638 8.11572L12.714 8.80029L13.4423 8.77449L12.8682 9.22267L13.1183 9.90723L12.5136 9.50045L11.94 9.94983L12.1404 9.24967L11.535 8.84289L12.264 8.81649L12.4638 8.11572Z" fill="#FDDF2E"/>
<path d="M12.0576 5.20776L12.5652 5.72974L13.2197 5.40935L12.879 6.05372L13.3859 6.5757L12.666 6.4509L12.3252 7.09467L12.222 6.3747L11.502 6.24931L12.156 5.92893L12.0576 5.20776Z" fill="#FDDF2E"/>
<path d="M9.73631 3.44685L10.4071 3.73183L10.8871 3.18286L10.8229 3.90763L11.4936 4.19321L10.7833 4.3564L10.7197 5.08177L10.3441 4.4578L9.63372 4.62099L10.1137 4.07142L9.73631 3.44685Z" fill="#FDDF2E"/>
<path d="M10.8469 10.1875L10.8127 10.9147L11.4948 11.1726L10.7923 11.3652L10.7581 12.0924L10.3579 11.4834L9.65472 11.6766L10.1095 11.1079L9.70931 10.4995L10.3915 10.7569L10.8469 10.1875Z" fill="#FDDF2E"/>
</g>
</g>
<defs>
<clipPath id="clip0_266_45283">
<rect width="24" height="23.9988" fill="white"/>
</clipPath>
</defs>
</svg>
