<svg width="24" height="24" viewBox="0 0 24 24" fill="none" xmlns="http://www.w3.org/2000/svg">
<g clip-path="url(#clip0_266_45377)">
<mask id="mask0_266_45377" style="mask-type:luminance" maskUnits="userSpaceOnUse" x="0" y="0" width="24" height="25">
<path d="M12.0003 0.00060028H11.7345C8.85426 0.0606183 7.37455 0.286286 6.00405 0.758027C4.67801 1.21308 3.48439 1.98771 2.52859 3.0135C1.73471 3.93529 1.12705 5.0023 0.739255 6.15545C0.282098 7.60064 0.0394939 9.10512 0.0192012 10.6208C-2.48123e-07 11.2162 0 11.299 0 12.0012C0 12.7034 -2.48123e-07 12.7892 0.0192012 13.3816C0.0395891 14.8973 0.28219 16.4017 0.739255 17.847C1.12705 19.0001 1.73471 20.0671 2.52859 20.9889C3.48469 22.0145 4.6782 22.7892 6.00405 23.245C7.37455 23.7161 8.85306 23.943 11.7345 24.0018H12.2661C15.1463 23.9418 16.6272 23.7161 17.9971 23.245C19.3231 22.7894 20.5166 22.0146 21.4726 20.9889C22.2652 20.0686 22.8723 19.0035 23.2601 17.8524C23.717 16.4071 23.9595 14.9027 23.9802 13.387C24 12.7916 24 12.7088 24 12.0066C24 11.3044 24 11.2192 23.9802 10.6262C23.9596 9.11054 23.717 7.6061 23.2601 6.16085C22.8723 5.0077 22.2647 3.94069 21.4708 3.01891C20.5163 1.99106 19.3232 1.21433 17.9971 0.757427C16.6272 0.285686 15.1475 0.0588176 12.2661 0L12.0003 0.00060028Z" fill="white"/>
</mask>
<g mask="url(#mask0_266_45377)">
<path d="M33.2581 -1.94336H-7.40216V25.1488H33.2581V-1.94336Z" fill="#FF1919"/>
<path d="M33.2581 9.9048H10.3076V-1.94336H6.07125V9.9048H-7.40216V13.2574H6.07125V25.1482H10.3076V13.2574H33.2581V9.9048Z" fill="white"/>
</g>
</g>
<defs>
<clipPath id="clip0_266_45377">
<rect width="24" height="24.0018" fill="white"/>
</clipPath>
</defs>
</svg>
