<svg width="32" height="32" viewBox="0 0 32 32" fill="none" xmlns="http://www.w3.org/2000/svg">
<g clip-path="url(#clip0_266_47066)">
<mask id="mask0_266_47066" style="mask-type:luminance" maskUnits="userSpaceOnUse" x="0" y="0" width="33" height="32">
<path d="M16 0H15.6456C11.8056 0.08 9.8328 0.38 8.0048 1.0088C6.23737 1.61627 4.6464 2.64898 3.372 4.016C2.31361 5.24484 1.50322 6.66702 0.9856 8.204C0.377281 10.1306 0.0538618 12.1358 0.0256 14.156C2.98023e-09 14.9496 0 15.06 0 15.996C0 16.932 2.98023e-09 17.0456 0.0256 17.836C0.0538618 19.8562 0.377281 21.8614 0.9856 23.788C1.50228 25.3278 2.31271 26.7528 3.372 27.984C4.64602 29.3513 6.23713 30.3838 8.0048 30.9904C9.8328 31.6192 11.8048 31.9216 15.6456 32H16.3552C20.1952 31.92 22.168 31.6192 23.9944 30.9904C25.7627 30.3842 27.3545 29.3517 28.6288 27.984C29.6869 26.755 30.4973 25.3328 31.0152 23.796C31.6239 21.8695 31.9474 19.8642 31.9752 17.844C32.0016 17.0504 32.0016 16.94 32.0016 16.004C32.0016 15.068 32.0016 14.9536 31.9752 14.164C31.9474 12.1438 31.6239 10.1385 31.0152 8.212C30.4973 6.67516 29.6869 5.25304 28.6288 4.024C27.3541 2.65661 25.7625 1.62385 23.9944 1.0168C22.168 0.384 20.196 0.0784 16.3552 0H16Z" fill="white"/>
</mask>
<g mask="url(#mask0_266_47066)">
<path d="M47.9552 -5.77588H-0.740799V34.1905H47.9552V-5.77588Z" fill="#E53226"/>
<path d="M7.3024 5.47461L8.2032 8.24501H11.1192L8.7608 9.95701L9.6592 12.729L7.3024 11.0162L4.9392 12.729L5.8408 9.95701L3.4816 8.24501H6.4016L7.3024 5.47461Z" fill="#FDDF2E"/>
<path d="M16.6192 10.8218L16.9528 11.7346L17.924 11.7002L17.1584 12.2978L17.492 13.2106L16.6856 12.6682L15.9208 13.2674L16.188 12.3338L15.3808 11.7914L16.3528 11.7562L16.6192 10.8218Z" fill="#FDDF2E"/>
<path d="M16.0776 6.94434L16.7544 7.64034L17.6272 7.21314L17.1728 8.07234L17.8488 8.76834L16.8888 8.60194L16.4344 9.46034L16.2968 8.50034L15.3368 8.33314L16.2088 7.90594L16.0776 6.94434Z" fill="#FDDF2E"/>
<path d="M12.9824 4.59614L13.8768 4.97614L14.5168 4.24414L14.4312 5.21054L15.3256 5.59134L14.3784 5.80894L14.2936 6.77614L13.7928 5.94414L12.8456 6.16174L13.4856 5.42894L12.9824 4.59614Z" fill="#FDDF2E"/>
<path d="M14.4632 13.584L14.4176 14.5536L15.3272 14.8976L14.3904 15.1544L14.3448 16.124L13.8112 15.312L12.8736 15.5696L13.48 14.8112L12.9464 14L13.856 14.3432L14.4632 13.584Z" fill="#FDDF2E"/>
</g>
</g>
<defs>
<clipPath id="clip0_266_47066">
<rect width="32.0016" height="32" fill="white"/>
</clipPath>
</defs>
</svg>
