<svg width="24" height="24" viewBox="0 0 24 24" fill="none" xmlns="http://www.w3.org/2000/svg">
<g clip-path="url(#clip0_266_45311)">
<mask id="mask0_266_45311" style="mask-type:luminance" maskUnits="userSpaceOnUse" x="0" y="0" width="24" height="25">
<path d="M12.0012 0H11.7354C8.85508 0.060006 7.37414 0.286229 6.0042 0.757876C4.67835 1.21293 3.48491 1.98739 2.52925 3.0129C1.73528 3.93455 1.12742 5.00132 0.739274 6.15421C0.282163 7.59892 0.0395541 9.1029 0.0192022 10.6181C3.24133e-07 11.2139 0 11.2961 0 12.0012C0 12.7063 3.24133e-07 12.7879 0.0192022 13.3813C0.0395561 14.8967 0.282164 16.4009 0.739274 17.8458C1.12728 18.9987 1.73516 20.0655 2.52925 20.9871C3.48485 22.0128 4.67829 22.7875 6.0042 23.2427C7.37414 23.7144 8.85388 23.9406 11.7354 24.0006H12.267C15.1473 23.9406 16.6271 23.7144 17.997 23.2427C19.3234 22.7877 20.5174 22.0132 21.4737 20.9877C22.266 20.0661 22.8725 19 23.2601 17.8482C23.717 16.4032 23.9596 14.8991 23.9802 13.3837C24 12.7879 24 12.7057 24 12.0036C24 11.3015 24 11.2163 23.9802 10.6205C23.9596 9.10532 23.717 7.60139 23.2601 6.15662C22.8717 5.00397 22.2641 3.93729 21.4707 3.0153C20.5144 1.98975 19.3204 1.21531 17.994 0.760276C16.6271 0.286229 15.1479 0.0594059 12.267 0H12.0012Z" fill="white"/>
</mask>
<g mask="url(#mask0_266_45311)">
<path d="M-6.47821 -0.339595L-6.50285 24.3013L30.4884 24.3383L30.5131 -0.302604L-6.47821 -0.339595Z" fill="#FF3C30"/>
<path d="M18.432 10.2216L13.8116 10.2168L13.8164 5.86992L10.222 5.86572L10.2172 10.2126L5.59675 10.2072L5.59315 13.8033L10.2136 13.8081L10.2082 18.155L13.8032 18.1586L13.808 13.8123L18.4284 13.8165L18.432 10.2216Z" fill="white"/>
</g>
</g>
<defs>
<clipPath id="clip0_266_45311">
<rect width="24" height="24.0006" fill="white"/>
</clipPath>
</defs>
</svg>
