<svg width="32" height="32" viewBox="0 0 32 32" fill="none" xmlns="http://www.w3.org/2000/svg">
<g clip-path="url(#clip0_266_47292)">
<mask id="mask0_266_47292" style="mask-type:luminance" maskUnits="userSpaceOnUse" x="0" y="0" width="32" height="32">
<path d="M15.9992 0H15.6456C11.8056 0.08001 9.832 0.381648 8.0048 1.01053C6.23671 1.61728 4.64511 2.6499 3.3704 4.0173C2.31271 5.24636 1.50264 6.66837 0.984799 8.20503C0.376146 10.1321 0.0527197 12.1378 0.0247993 14.1586C-6.52671e-07 14.9523 0 15.0627 0 15.9988C0 16.9349 -6.52671e-07 17.0493 0.0247993 17.843C0.0527264 19.8632 0.376154 21.8685 0.984799 23.795C1.50227 25.3318 2.31238 26.7539 3.3704 27.9827C4.64501 29.3506 6.23661 30.3837 8.0048 30.9911C9.832 31.6184 11.8032 31.9208 15.6456 32H16.3536C20.1936 31.92 22.1672 31.6184 23.9936 30.9911C25.7619 30.384 27.3535 29.3508 28.628 27.9827C29.6859 26.7552 30.4958 25.3341 31.0128 23.7982C31.6215 21.8728 31.9449 19.8686 31.9728 17.8494C31.9976 17.0557 31.9976 16.9453 31.9976 16.0052C31.9976 15.0651 31.9976 14.9555 31.9728 14.165C31.9452 12.1442 31.6218 10.1384 31.0128 8.21143C30.4956 6.67449 29.6854 5.25236 28.6272 4.0237C27.3526 2.65613 25.761 1.62347 23.9928 1.01693C22.1672 0.381648 20.1952 0.0792099 16.3536 0H15.9992Z" fill="white"/>
</mask>
<g mask="url(#mask0_266_47292)">
<path fill-rule="evenodd" clip-rule="evenodd" d="M15.8927 15.0221C15.712 15.301 15.5984 15.618 15.5608 15.9483C15.5232 16.2785 15.5626 16.6129 15.6759 16.9253C15.7323 16.9892 15.8045 17.0369 15.8854 17.0636C15.9662 17.0903 16.0527 17.095 16.1359 17.0773C16.2565 16.9822 16.3486 16.8558 16.4024 16.7119C16.4561 16.568 16.4694 16.4122 16.4407 16.2613C16.3559 16.1277 16.2895 16.1061 16.2047 16.2197C16.0255 16.5837 15.9495 16.3341 15.9351 16.1309C15.9141 15.7888 15.9308 15.4454 15.9847 15.1069C16.0287 14.8173 15.9847 14.9053 15.8927 15.0221Z" fill="white"/>
<path d="M44.0408 -0.0727539H-12.0272V32.6113H44.0408V-0.0727539Z" fill="#3D9635"/>
<path fill-rule="evenodd" clip-rule="evenodd" d="M5.72796 10.3141C5.68076 10.9613 5.62236 12.1021 6.17436 12.2197C6.84076 12.2837 6.47276 11.0925 6.71436 10.8757C6.75996 10.7709 6.84476 10.7685 6.85116 10.9045V11.9141C6.84634 12.0277 6.8816 12.1393 6.95077 12.2296C7.01994 12.3198 7.11862 12.3828 7.22956 12.4077C7.40316 12.3941 7.52076 12.3997 7.58956 12.5677L7.66956 14.3165C7.66956 14.3165 8.07516 14.4341 8.09436 13.3341C8.05322 12.8988 8.03932 12.4615 8.05276 12.0245C8.05276 11.8997 8.21276 11.8925 8.32236 11.9533C8.49676 12.0749 8.57436 12.2277 8.84556 12.1677C9.25756 12.0541 9.50396 11.8525 9.51196 11.5373C9.49895 11.228 9.43544 10.9229 9.32396 10.6341C9.34156 10.5805 9.24396 10.4397 9.26156 10.3845C9.33596 10.5013 9.44876 10.4917 9.47436 10.3845C9.42882 10.1638 9.30205 9.96819 9.11916 9.83649C8.97276 9.70929 8.75916 9.73489 8.68076 10.0029C8.67145 10.3569 8.79083 10.7022 9.01676 10.9749C9.08822 11.1262 9.11778 11.2939 9.10236 11.4605C9.04786 11.4935 8.98305 11.505 8.92052 11.4929C8.85798 11.4808 8.80218 11.4458 8.76396 11.3949C8.76396 11.3949 8.43516 11.1493 8.43516 11.0949C8.52156 10.5349 8.45596 10.4757 8.40556 10.3197C8.37196 10.1069 8.27036 10.0397 8.18956 9.89249C8.10956 9.80609 7.99596 9.80609 7.94396 9.89249C7.82761 10.2283 7.83785 10.5949 7.97276 10.9237C8.04876 11.1469 8.16316 11.2861 8.11036 11.2861C8.06396 11.4117 7.97116 11.3845 7.90396 11.2373C7.82323 10.9281 7.78422 10.6096 7.78796 10.2901C7.75836 10.0413 7.72636 9.50929 7.56236 9.37409C7.46316 9.23729 7.31516 9.30449 7.26156 9.42769C7.2483 9.66934 7.25365 9.91166 7.27756 10.1525C7.37421 10.5335 7.44213 10.9213 7.48076 11.3125C7.49596 11.8629 7.16076 11.5525 7.17916 11.2797C7.24985 10.9321 7.24549 10.5734 7.16636 10.2277C7.11276 10.0869 7.04956 10.0533 6.91836 10.0773C6.81356 10.0693 6.54476 10.3621 6.46956 10.8485C6.43058 11.0046 6.39987 11.1627 6.37756 11.3221C6.33996 11.5725 6.17516 11.7493 6.05756 11.2861C5.95676 10.9493 5.89836 10.1197 5.72796 10.3141Z" fill="white"/>
<path fill-rule="evenodd" clip-rule="evenodd" d="M7.54081 12.9738C6.95281 13.261 6.38321 13.529 5.80481 13.8066C5.91534 13.5164 6.10071 13.2605 6.3421 13.0651C6.58349 12.8696 6.8723 12.7416 7.17921 12.6938C7.53521 12.7042 7.44561 12.8322 7.54081 12.9738Z" fill="white"/>
<path fill-rule="evenodd" clip-rule="evenodd" d="M9.7576 9.30273C9.724 9.30753 9.6872 9.32674 9.6448 9.33714C9.60281 9.34836 9.56345 9.36777 9.52899 9.39427C9.49453 9.42076 9.46565 9.45381 9.44401 9.49152C9.42237 9.52922 9.4084 9.57083 9.40291 9.61396C9.39742 9.65708 9.40051 9.70086 9.412 9.74279C9.5784 10.7589 9.6896 11.5342 9.8568 12.5527C9.8824 12.672 9.7824 12.8304 9.6528 12.8136C9.4344 12.6656 9.3808 12.3639 9.0056 12.3783C8.85491 12.3984 8.71427 12.4652 8.60339 12.5692C8.4925 12.6732 8.41691 12.8093 8.3872 12.9584C8.33354 13.177 8.33354 13.4054 8.3872 13.6241C8.46087 13.7117 8.56032 13.7738 8.67138 13.8015C8.78243 13.8293 8.89941 13.8212 9.0056 13.7785C9.1704 13.7105 9.3056 13.5473 9.3632 13.5849C9.39841 13.6465 9.3576 14.1777 8.5888 14.5866C8.1144 14.7978 7.7384 14.8482 7.5352 14.4626C7.4096 14.2225 7.5456 13.3016 7.236 13.5145C6.32001 15.8708 9.3792 16.1988 9.716 13.6105C9.7384 13.5377 9.8072 13.4649 9.856 13.4825C9.876 13.4913 9.8944 13.5193 9.9016 13.5713C9.8296 15.9172 7.536 16.0756 7.1456 15.3387C7.05371 15.0851 7.00845 14.8171 7.012 14.5474C7.00969 14.4543 6.97616 14.3647 6.9168 14.293C6.8248 14.225 6.69841 14.4058 6.67201 14.7226C6.64339 14.9111 6.63401 15.1019 6.64401 15.2923C6.76641 17.1437 9.72001 16.3468 10.1992 14.8178C10.2953 14.3374 10.3222 13.8457 10.2792 13.3576H10.2864C10.5832 13.6721 10.9928 13.3976 11.0864 13.2896C11.0973 13.2735 11.1117 13.26 11.1284 13.25C11.1452 13.24 11.1639 13.2339 11.1833 13.232C11.2027 13.2301 11.2223 13.2325 11.2407 13.239C11.259 13.2455 11.2757 13.2559 11.2896 13.2696C11.3475 13.3112 11.414 13.3392 11.4842 13.3513C11.5544 13.3635 11.6265 13.3597 11.695 13.3401C11.7635 13.3204 11.8267 13.2855 11.8798 13.238C11.9329 13.1905 11.9745 13.1315 12.0016 13.0656C12.055 12.7749 12.0881 12.4808 12.1008 12.1855C11.9865 12.2076 11.8777 12.2522 11.7808 12.3167C11.7695 12.3282 11.7618 12.3426 11.7584 12.3583C11.7464 12.4423 11.7328 12.5263 11.72 12.6119C11.7188 12.6181 11.7167 12.6241 11.7136 12.6296C11.7059 12.6405 11.6958 12.6495 11.684 12.656C11.632 12.6832 11.5416 12.6672 11.536 12.5903C11.4656 12.2703 11.1728 12.2255 10.996 12.7256C10.8768 12.8216 10.6592 12.84 10.6376 12.696C10.6664 12.3615 10.532 12.3167 10.2616 12.4751C10.1744 11.8102 10.088 11.179 10 10.5157C10.1136 10.5117 10.2168 10.5957 10.32 10.4653C10.2221 10.0682 10.06 9.68985 9.84 9.34514C9.83428 9.33835 9.82814 9.33194 9.8216 9.32594L9.812 9.31954L9.8032 9.31394C9.79799 9.31185 9.79292 9.30944 9.788 9.30673C9.77554 9.30485 9.76287 9.30485 9.7504 9.30673M8.93281 12.9416C8.96727 12.937 9.00225 12.9448 9.03153 12.9635C9.06082 12.9823 9.08252 13.0108 9.0928 13.044C9.10409 13.0732 9.10722 13.105 9.10187 13.1358C9.09651 13.1667 9.08287 13.1955 9.0624 13.2192C9.0408 13.2496 8.9592 13.2368 8.9024 13.2368C8.87398 13.2395 8.84536 13.2341 8.81988 13.2212C8.7944 13.2084 8.77308 13.1885 8.7584 13.164C8.7384 13.1008 8.7984 13.04 8.824 12.9936C8.82686 12.9875 8.83094 12.982 8.836 12.9776C8.86404 12.956 8.89704 12.9417 8.932 12.936" fill="white"/>
<path fill-rule="evenodd" clip-rule="evenodd" d="M11.8128 9.24849C11.7404 9.25256 11.6697 9.27221 11.6056 9.30609C11.5319 9.36934 11.4842 9.45766 11.4718 9.55398C11.4594 9.65031 11.4831 9.74782 11.5384 9.82769C11.6544 9.88129 11.7696 9.99889 11.692 10.0677C11.364 10.4189 10.5096 11.0037 10.4672 11.1077V11.1117V11.1157C10.6795 11.1444 10.8948 11.1444 11.1072 11.1157C11.4879 10.7913 11.8408 10.4356 12.1624 10.0525C12.1184 10.0141 12.0768 9.98529 12.0304 9.94689C11.984 9.90849 11.9872 9.86689 12.0304 9.82129C12.0711 9.79181 12.1049 9.75373 12.1292 9.70974C12.1536 9.66574 12.1679 9.61692 12.1713 9.56675C12.1747 9.51658 12.1669 9.46628 12.1487 9.41943C12.1304 9.37258 12.102 9.33033 12.0656 9.29569C11.9842 9.25712 11.8947 9.23873 11.8048 9.24209M11.764 9.55009C11.797 9.55266 11.8285 9.56466 11.8549 9.58466C11.8813 9.60466 11.9014 9.63181 11.9128 9.66289C11.948 9.73729 11.9296 9.80849 11.876 9.82289C11.8224 9.83729 11.7488 9.78609 11.716 9.71329C11.6832 9.64049 11.7008 9.56849 11.7544 9.55329C11.7578 9.55247 11.7613 9.55247 11.7648 9.55329" fill="white"/>
<path fill-rule="evenodd" clip-rule="evenodd" d="M19.8072 13.81C19.492 13.1324 19.0552 12.4612 18.916 12.2044C18.7768 11.9476 17.728 10.4236 17.5728 10.2532C17.2328 9.84839 18.1272 10.422 17.4584 9.61799C17.2056 9.40119 17.1912 9.38759 16.9784 9.21079C16.8728 9.13079 16.612 8.99639 16.5656 9.22519C16.5446 9.38537 16.553 9.54803 16.5904 9.70519C16.659 9.85417 16.7496 9.99198 16.8592 10.114C17.9727 11.5841 18.9493 13.153 19.7768 14.8012C19.92 14.7324 19.8888 13.9212 19.8056 13.8116" fill="white"/>
<path fill-rule="evenodd" clip-rule="evenodd" d="M18.4224 16.0818C18.3592 16.1498 18.5744 16.4491 18.8536 16.4483C19.1325 16.4028 19.3951 16.2862 19.6159 16.1098C19.8367 15.9334 20.0084 15.703 20.1144 15.441C20.2692 15.2091 20.3673 14.9441 20.4008 14.6673C20.4492 13.3527 20.344 12.0369 20.0872 10.7468C20.0734 10.6556 20.078 10.5625 20.1008 10.4731C20.1304 10.4371 20.2336 10.4731 20.288 10.3835C20.368 10.3035 20.076 9.62503 19.9096 9.3666C19.8504 9.24899 19.8296 9.17298 19.7312 9.3802C19.6132 9.6079 19.5566 9.86245 19.5672 10.1187C19.7904 11.6613 19.8592 13.0111 20.0064 14.5553C20.03 14.7148 19.9904 14.8773 19.896 15.0081C19.4861 15.466 18.9839 15.8324 18.4224 16.0818Z" fill="white"/>
<path fill-rule="evenodd" clip-rule="evenodd" d="M24.74 16.0718C24.4032 16.2662 24.4032 16.4886 24.6752 16.4974C24.9455 16.5079 25.2143 16.4524 25.4585 16.3359C25.7026 16.2194 25.9148 16.0453 26.0768 15.8286C26.2098 15.559 26.2871 15.2654 26.304 14.9652C26.37 13.5482 26.2858 12.1281 26.0528 10.7287C26.0251 10.5971 26.0101 10.4631 26.008 10.3287C26.0384 10.2487 26.1896 10.3383 26.248 10.2487C26.328 10.1686 25.8528 9.55817 25.688 9.29733C25.628 9.18212 25.608 9.10451 25.5096 9.31254C25.4002 9.54174 25.3663 9.79974 25.4128 10.0494C25.6641 11.6333 25.8212 13.2307 25.8832 14.8332C25.8697 14.9681 25.8387 15.1007 25.7912 15.2277C25.6579 15.4224 25.5033 15.6016 25.3304 15.7621C25.1784 15.8758 24.8504 15.9846 24.748 16.0678" fill="white"/>
<path fill-rule="evenodd" clip-rule="evenodd" d="M24.992 14.5686C24.992 14.1774 24.9976 13.839 24.984 13.5462C24.9704 13.2534 24.8368 12.1566 24.7928 11.9214C24.7488 11.6862 24.704 11.3286 24.6328 11.0478C24.5991 10.8847 24.5795 10.719 24.5744 10.5526C24.6024 10.4726 24.7064 10.5526 24.7584 10.463C24.6992 10.0265 24.5484 9.60753 24.316 9.23339C24.2536 9.11819 24.1384 9.15339 23.996 9.34379C23.8648 9.46619 23.916 9.74379 23.964 10.0094C24.3294 11.735 24.5072 13.4951 24.4944 15.259C24.4776 15.4014 24.9888 14.8374 24.9864 14.5686" fill="white"/>
<path fill-rule="evenodd" clip-rule="evenodd" d="M22.512 12.4005C22.3 12.3957 21.8584 11.9885 21.7288 11.7517C21.7094 11.6948 21.7017 11.6346 21.7062 11.5746C21.7108 11.5147 21.7274 11.4563 21.7552 11.4029C21.8352 11.3525 21.9536 11.2957 22.0432 11.3509C22.0432 11.3509 22.136 11.4797 22.1184 11.4981C22.2336 11.5509 22.2824 11.5205 22.2944 11.4725C22.3024 11.3925 22.2592 11.3429 22.2592 11.2517C22.2648 11.2037 22.2844 11.1583 22.3155 11.1213C22.3467 11.0844 22.3881 11.0574 22.4345 11.0437C22.4809 11.0301 22.5303 11.0304 22.5765 11.0446C22.6227 11.0588 22.6637 11.0864 22.6944 11.1237C22.7681 11.2575 22.8084 11.4071 22.812 11.5597C22.812 11.6301 22.696 11.5469 22.6328 11.5597C22.5696 11.5725 22.5528 11.6517 22.548 11.7197C22.536 11.8973 22.5152 12.1813 22.512 12.3981" fill="white"/>
<path fill-rule="evenodd" clip-rule="evenodd" d="M18.6128 15.0052C18.6383 14.3603 18.6292 13.7144 18.5856 13.0705C18.5656 12.3272 18.4424 10.895 18.3856 10.655C18.3208 10.203 18.5712 10.703 18.5376 10.4414C18.4219 10.0086 18.2074 9.60846 17.9112 9.27244C17.8176 9.13802 17.82 9.11242 17.6712 9.30444C17.5739 9.5999 17.5804 9.9197 17.6896 10.211C17.8902 11.0793 18.0221 11.9622 18.084 12.8513C18.1467 13.7821 18.1544 14.7159 18.1072 15.6476C18.2672 15.6548 18.5208 15.3916 18.6104 15.0076" fill="white"/>
<path fill-rule="evenodd" clip-rule="evenodd" d="M25.7087 14.1506C25.3327 13.5282 24.7727 12.7954 24.6263 12.545C24.4799 12.2946 23.2055 10.4338 23.0447 10.269C22.5799 9.78338 23.2575 10.189 22.9567 9.81298C22.7922 9.6161 22.6084 9.43627 22.4079 9.27618C22.2975 9.20658 22.2319 9.07218 22.1959 9.30178C22.1766 9.5033 22.1713 9.70592 22.1799 9.90818C22.2069 10.0481 22.27 10.1786 22.3631 10.2866C23.613 11.8018 24.7305 13.4217 25.7031 15.1282C25.8455 15.0538 25.7983 14.2562 25.7087 14.1466" fill="white"/>
<path fill-rule="evenodd" clip-rule="evenodd" d="M21.2008 21.5181C21.1379 21.5285 21.0797 21.5581 21.0342 21.6027C20.9886 21.6473 20.9579 21.7049 20.9461 21.7675C20.9343 21.8302 20.9421 21.895 20.9683 21.9531C20.9945 22.0112 21.038 22.0599 21.0928 22.0925C17.6168 22.0925 12.2816 22.0333 11.1376 22.0333C10.4976 22.0333 8.47358 21.9581 8.43518 21.9581C8.65431 22.2406 8.94358 22.461 9.27423 22.5971C9.60489 22.7332 9.96542 22.7804 10.32 22.7341C11.8648 22.7341 19.0184 22.7157 21.0536 22.7157C21.0027 22.8392 20.9878 22.9745 21.0104 23.1061C21.0331 23.2377 21.0924 23.3603 21.1816 23.4597L21.1888 23.4653L21.2032 23.4701H21.2072C21.3432 23.5029 21.4024 23.4053 21.4472 23.3349C21.9673 23.363 22.4886 23.363 23.0088 23.3349C23.084 23.4445 23.16 23.5509 23.3048 23.5333C23.5584 23.4773 23.7576 23.4533 23.7648 22.9357C23.7648 22.9357 23.74 22.0557 23.1624 22.1141C23.0264 22.1357 22.6448 22.1725 22.6448 22.1725C22.2016 22.1205 21.876 22.1157 21.3792 22.0925C21.4248 22.0349 21.5048 21.7997 21.4072 21.7133C21.3902 21.7009 21.3709 21.6919 21.3504 21.687C21.33 21.6821 21.3088 21.6812 21.288 21.6845H21.2824H21.2768L21.268 21.6749H21.264C21.24 21.6389 21.2256 21.5493 21.2096 21.5261H21.2048H21.2008V21.5181ZM21.4408 22.7709C21.9472 22.7957 22.424 22.7757 22.9312 22.8005C22.9621 22.8361 22.9781 22.8822 22.9759 22.9293C22.9736 22.9764 22.9533 23.0208 22.9192 23.0533L22.9096 23.0581H22.8976C22.7312 23.0525 22.6368 23.0477 22.4712 23.0453C22.4721 23.0368 22.4721 23.0282 22.4712 23.0197C22.432 22.9045 22.1512 22.9125 22.0816 23.0021V23.0077V23.0149L22.0768 23.0229V23.0349V23.0493C21.8612 23.0619 21.645 23.0566 21.4304 23.0333C21.3656 22.9533 21.3728 22.8061 21.4488 22.7709" fill="white"/>
<path fill-rule="evenodd" clip-rule="evenodd" d="M12.4048 9.77959C12.0664 10.7476 12.5992 11.8068 12.9648 11.6996C13.2312 11.8084 13.4008 11.2996 13.5104 10.7468C13.5856 10.5916 13.6416 10.5748 13.6792 10.654C13.6704 11.394 13.7328 11.5572 13.9192 11.7804C14.029 11.8776 14.1698 11.9325 14.3164 11.9353C14.463 11.9381 14.6058 11.8886 14.7192 11.7956L15.0488 11.4644C15.0843 11.4271 15.1329 11.405 15.1844 11.4028C15.2359 11.4005 15.2862 11.4183 15.3248 11.4524C15.4248 11.5436 15.4112 11.702 15.6264 11.8108C15.7389 11.8486 15.8595 11.8557 15.9756 11.8313C16.0918 11.807 16.1993 11.7521 16.2872 11.6724C16.408 11.4636 16.4376 11.394 16.492 11.314C16.58 11.2004 16.7256 11.2508 16.7256 11.2884C16.7128 11.3508 16.6264 11.4148 16.684 11.5284C16.7872 11.6084 16.8128 11.5556 16.872 11.538C17.0872 11.4364 17.2496 10.9684 17.2496 10.9684C17.2584 10.794 17.1608 10.8084 17.0968 10.8444C17.0168 10.8948 17.0104 10.9108 16.9264 10.9628C16.8216 10.9788 16.6184 11.0468 16.5168 10.8916C16.4444 10.6818 16.3838 10.4681 16.3352 10.2516C16.3352 10.238 16.1976 9.95319 16.3248 9.93719C16.3888 9.94599 16.5256 9.98359 16.5464 9.86999C16.6152 9.75479 16.4032 9.43879 16.2592 9.27799C16.2309 9.24398 16.1957 9.21637 16.1559 9.19698C16.1161 9.17758 16.0727 9.16685 16.0285 9.16549C15.9842 9.16413 15.9402 9.17217 15.8993 9.18908C15.8584 9.20599 15.8216 9.23139 15.7912 9.26359C15.6736 9.37159 15.6912 9.49319 15.6672 9.60759C15.6479 9.68868 15.6478 9.77316 15.667 9.85429C15.6862 9.93541 15.724 10.0109 15.7776 10.0748C15.9747 10.3497 16.0671 10.6858 16.0384 11.0228C16.0013 11.079 15.95 11.1245 15.8898 11.1546C15.8296 11.1848 15.7625 11.1987 15.6952 11.1948C15.6048 11.1748 15.4552 11.1356 15.3752 10.5548C15.3911 10.1007 15.333 9.64703 15.2032 9.21159C15.1352 9.03719 15.0872 8.86839 14.9224 9.16679C14.8519 9.2597 14.8061 9.36899 14.7893 9.48441C14.7725 9.59984 14.7853 9.71764 14.8264 9.82679C14.9526 10.1531 14.9893 10.5071 14.9328 10.8524C14.8749 10.9511 14.8088 11.0447 14.7352 11.1324C14.6842 11.1907 14.6137 11.2285 14.5369 11.2388C14.4601 11.2491 14.3822 11.2312 14.3176 11.1884C14.2496 11.1556 14.191 11.1063 14.1471 11.0449C14.1032 10.9835 14.0754 10.9121 14.0664 10.8372C14.0986 10.4589 14.0857 10.0781 14.028 9.70279C14.016 9.66983 13.9958 9.6405 13.9692 9.6176C13.9427 9.59471 13.9107 9.57901 13.8763 9.57203C13.842 9.56504 13.8064 9.567 13.773 9.57771C13.7396 9.58842 13.7095 9.60752 13.6856 9.63319C13.3615 9.99277 13.1452 10.4364 13.0616 10.9132C12.9656 11.2228 12.8624 11.1348 12.7904 11.0108C12.6152 10.846 12.604 9.56359 12.3904 9.77319" fill="white"/>
<path fill-rule="evenodd" clip-rule="evenodd" d="M13.5472 11.7793L13.5384 11.7849H13.5344C13.5112 11.8009 13.4832 11.8401 13.4256 11.8817C13.3256 11.9945 13.3088 12.0721 13.3136 12.2993C13.32 12.3233 13.5024 12.8305 13.6584 13.1873C13.7883 13.5731 13.8326 13.9826 13.788 14.3873C13.5212 14.9217 13.099 15.3629 12.5768 15.6529C12.4971 15.6883 12.4108 15.7067 12.3236 15.7067C12.2364 15.7067 12.1501 15.6883 12.0704 15.6529C12.0246 15.6208 11.988 15.5772 11.9643 15.5265C11.9406 15.4759 11.9305 15.4199 11.9352 15.3641C12.4626 15.0829 12.8885 14.6433 13.1528 14.1073C13.2737 13.8193 13.2856 13.4971 13.1864 13.2009C13.1571 13.045 13.0854 12.9003 12.9792 12.7825C13.0456 12.7513 13.2232 12.8817 13.2512 12.8001C13.1972 12.5583 13.0763 12.3366 12.9024 12.1601C12.8768 12.1291 12.845 12.1037 12.8091 12.0856C12.7732 12.0674 12.734 12.0568 12.6938 12.0545C12.6537 12.0522 12.6134 12.0582 12.5757 12.0721C12.538 12.086 12.5035 12.1075 12.4744 12.1353C12.3264 12.2153 12.2952 12.5097 12.3664 12.7673C12.4464 12.9609 12.6576 12.9929 12.8088 13.3841C12.8088 13.4081 12.86 13.6745 12.7832 13.7841C12.5177 14.1083 12.2108 14.3964 11.8704 14.6409V14.6449C11.8704 14.6297 11.8704 14.5889 11.8704 14.5249C11.8656 14.4073 11.9128 14.1425 11.908 14.0969C11.6456 14.2681 11.5608 14.7865 11.512 14.9393C10.8573 15.3055 10.2367 15.7296 9.65761 16.2065C9.43041 16.5609 11.2176 15.8009 11.4256 15.7081L11.4312 15.7137C11.4704 15.7577 11.4744 15.9089 11.5912 16.0449C11.7056 16.182 11.8565 16.2839 12.0264 16.3388C12.1962 16.3938 12.3782 16.3995 12.5512 16.3553C13.1222 16.1186 13.6082 15.7148 13.9456 15.1969C13.9984 15.1169 14.084 15.0585 14.1616 15.1169C14.3676 15.451 14.6599 15.7233 15.0076 15.9054C15.3553 16.0874 15.7457 16.1723 16.1376 16.1513C16.3624 15.8801 16.2552 15.7465 16.1648 15.6897C16.1376 15.6713 15.6848 15.4937 15.6136 15.3185C15.5688 15.1529 15.676 15.0097 15.892 14.9009C16.5097 14.8425 17.1205 14.7255 17.716 14.5513C17.7394 14.3316 17.8081 14.1191 17.9176 13.9273C17.9413 13.8818 17.9767 13.8435 18.02 13.8161C18.0211 13.8111 18.0211 13.8059 18.02 13.8009L17.9192 13.7409L15.936 13.7345C15.9168 13.7265 15.8984 13.7168 15.8808 13.7057V13.7009V13.6921V13.6865C15.8997 13.6706 15.9214 13.6584 15.9448 13.6505C16.4184 13.5873 17.26 13.4489 17.3168 12.6409C17.3329 12.5445 17.3275 12.4458 17.301 12.3517C17.2746 12.2576 17.2277 12.1705 17.1638 12.0967C17.0999 12.0228 17.0204 11.9639 16.9311 11.9242C16.8419 11.8845 16.7449 11.8649 16.6472 11.867C16.5495 11.869 16.4535 11.8925 16.3659 11.9359C16.2784 11.9793 16.2014 12.0415 16.1406 12.118C16.0798 12.1944 16.0366 12.2834 16.0141 12.3785C15.9916 12.4736 15.9904 12.5725 16.0104 12.6681C15.9928 12.7777 16.048 12.9881 15.936 13.0129C15.2072 13.0817 14.4104 13.5361 14.3848 13.8641H14.3576C14.3223 13.8444 14.2938 13.8144 14.2761 13.7781C14.2583 13.7418 14.2522 13.7008 14.2584 13.6609C14.2243 13.0506 14.0461 12.4571 13.7384 11.9289C13.6344 11.8257 13.5904 11.7849 13.5616 11.7793H13.5472ZM16.4472 12.5033C16.5016 12.5022 16.5551 12.5167 16.6016 12.5449C16.634 12.5587 16.6621 12.5807 16.6833 12.6088C16.7045 12.6369 16.718 12.67 16.7224 12.7049V12.7105V12.7177V12.7289C16.7188 12.7335 16.7148 12.7378 16.7104 12.7417C16.6775 12.7614 16.6395 12.7707 16.6012 12.7684C16.563 12.7661 16.5263 12.7524 16.496 12.7289C16.4639 12.7145 16.4359 12.6924 16.4145 12.6644C16.3931 12.6365 16.3791 12.6037 16.3736 12.5689V12.5641C16.3749 12.5576 16.3774 12.5514 16.3808 12.5457V12.5393C16.3833 12.536 16.3863 12.533 16.3896 12.5305C16.4041 12.5192 16.4217 12.5126 16.44 12.5113M14.5944 14.1857H14.6176C14.8911 14.2359 15.1678 14.2669 15.4456 14.2785C15.676 14.2953 15.792 14.4761 15.576 14.5505C15.36 14.6249 15.1592 14.6809 15.1584 14.9873C15.1856 15.1401 15.1808 15.2193 15.1584 15.2569L15.152 15.2649H15.148C15.145 15.2675 15.1415 15.2695 15.1376 15.2705H15.1312C15.0768 15.2785 15.004 15.2297 14.9488 15.2025C14.8014 15.118 14.6752 15.001 14.5797 14.8604C14.4842 14.7199 14.4219 14.5595 14.3976 14.3913C14.3963 14.3634 14.4007 14.3355 14.4106 14.3093C14.4204 14.2831 14.4355 14.2592 14.4549 14.2391C14.4743 14.2189 14.4976 14.203 14.5234 14.1921C14.5491 14.1813 14.5769 14.1758 14.6048 14.1761" fill="white"/>
<path fill-rule="evenodd" clip-rule="evenodd" d="M8.22798 9.79151C8.45838 9.90031 8.88638 9.85311 8.86798 9.48431C8.86798 9.45151 8.85838 9.34271 8.85598 9.31311C8.80958 9.20431 8.68238 9.23311 8.65358 9.34351C8.64398 9.38031 8.66878 9.43951 8.63518 9.45791C8.61758 9.47791 8.54318 9.46671 8.54718 9.36431C8.5427 9.33215 8.52972 9.30178 8.50958 9.27631C8.49425 9.26693 8.47622 9.26299 8.45838 9.26511C8.42798 9.26511 8.42798 9.27391 8.41038 9.30191C8.4007 9.32759 8.39477 9.35454 8.39278 9.38191C8.38798 9.41791 8.37518 9.42991 8.34798 9.43551C8.32078 9.44111 8.32478 9.43951 8.30078 9.42431C8.27678 9.40911 8.26798 9.40111 8.26798 9.37471C8.26853 9.34423 8.26366 9.31389 8.25358 9.28511C8.23924 9.2689 8.21974 9.25816 8.19838 9.25471C8.07358 9.25471 8.06478 9.39711 8.07198 9.45151C8.06318 9.46111 8.05678 9.71631 8.22638 9.78751" fill="white"/>
<path fill-rule="evenodd" clip-rule="evenodd" d="M14.9247 12.6239C15.1543 12.7319 15.6967 12.6695 15.5647 12.3175C15.5647 12.2839 15.5567 12.1735 15.5527 12.1463C15.5071 12.0367 15.3799 12.0623 15.3511 12.1759C15.3423 12.2111 15.3671 12.2719 15.3343 12.2903C15.3151 12.3095 15.2415 12.2983 15.2447 12.1967C15.2403 12.1643 15.2267 12.1337 15.2055 12.1087C15.191 12.0988 15.1734 12.0943 15.1559 12.0959C15.1247 12.0959 15.1247 12.1055 15.1087 12.1335C15.0977 12.1605 15.0912 12.1892 15.0895 12.2183C15.0847 12.2535 15.0719 12.2679 15.0455 12.2719C15.0191 12.2759 15.0231 12.2719 14.9975 12.2615C14.9719 12.2511 14.9655 12.2383 14.9655 12.2103C14.9662 12.1801 14.9613 12.15 14.9511 12.1215C14.9369 12.1046 14.917 12.0936 14.8951 12.0903C14.7711 12.0903 14.7631 12.2343 14.7695 12.2871C14.7607 12.2967 14.7551 12.5527 14.9247 12.6239Z" fill="white"/>
<path fill-rule="evenodd" clip-rule="evenodd" d="M18.8303 11.4486C19.0583 11.559 19.4871 11.511 19.4703 11.1446C19.4703 11.111 19.4623 11.0022 19.4591 10.9718C19.4111 10.863 19.2847 10.8918 19.2575 11.0022C19.2479 11.0398 19.2727 11.099 19.2383 11.1166C19.2199 11.135 19.1471 11.1238 19.1511 11.0222C19.1466 10.9902 19.133 10.9603 19.1119 10.9358C19.0975 10.925 19.0794 10.9204 19.0615 10.923C19.0295 10.923 19.0295 10.9326 19.0127 10.959C19.0036 10.9865 18.9977 11.0149 18.9951 11.0438C18.9911 11.0806 18.9791 11.0934 18.9511 11.099C18.9231 11.1046 18.9279 11.103 18.9047 11.0862C18.8815 11.0694 18.8719 11.0654 18.8719 11.0398C18.8718 11.0081 18.867 10.9765 18.8575 10.9462C18.8422 10.9314 18.8231 10.9212 18.8023 10.9166C18.6767 10.9166 18.6679 11.0598 18.6751 11.1134C18.6655 11.1238 18.6615 11.379 18.8311 11.4486" fill="white"/>
<path fill-rule="evenodd" clip-rule="evenodd" d="M20.8528 14.3937C20.7169 14.5889 20.6334 14.8158 20.6103 15.0526C20.5872 15.2893 20.6253 15.528 20.7208 15.7459C20.812 15.9857 20.9867 16.1846 21.2128 16.3059C21.2491 16.3387 21.2918 16.3634 21.3383 16.3785C21.3848 16.3936 21.434 16.3986 21.4826 16.3933C21.5311 16.388 21.5781 16.3725 21.6202 16.3478C21.6624 16.3231 21.6988 16.2897 21.7272 16.2499C21.96 16.0099 21.9672 15.3874 22.0736 15.265C22.0815 15.2263 22.1004 15.1906 22.128 15.1623C22.1555 15.134 22.1907 15.1142 22.2292 15.1053C22.2677 15.0963 22.308 15.0986 22.3452 15.1119C22.3824 15.1252 22.415 15.1489 22.4392 15.1802C22.525 15.301 22.6389 15.3991 22.7712 15.4658C22.8669 15.5623 22.9944 15.6207 23.13 15.6301C23.2655 15.6396 23.3999 15.5994 23.508 15.517C23.693 15.4129 23.8325 15.2434 23.8992 15.0418C23.9825 14.1105 23.9919 13.1742 23.9272 12.2414C23.92 12.1758 23.7008 11.0909 23.7008 11.0797C23.7008 11.0685 23.6728 10.526 23.648 10.3972C23.648 10.346 23.632 10.33 23.6864 10.3364C23.7153 10.3663 23.7502 10.3897 23.7888 10.4052C23.8472 10.4164 23.8992 10.3164 23.864 10.2236C23.6816 9.8886 23.5 9.5539 23.3192 9.21945C23.276 9.17625 23.2192 9.12984 23.1496 9.23145C23.1076 9.26883 23.0737 9.31449 23.0502 9.36558C23.0266 9.41666 23.0139 9.47206 23.0128 9.52829C23.0296 9.76832 23.0712 10.0084 23.088 10.2484C23.16 10.654 23.2344 11.0621 23.3056 11.4701C23.3728 12.3406 23.392 13.1375 23.46 14.0081C23.4496 14.3769 23.3368 14.8682 23.228 14.9138C23.228 14.9138 23.064 15.0074 22.9552 14.9026C22.8036 14.74 22.6696 14.5619 22.5552 14.3713C22.5329 14.3407 22.5037 14.3158 22.47 14.2987C22.4363 14.2815 22.399 14.2726 22.3612 14.2726C22.3234 14.2726 22.2861 14.2815 22.2524 14.2987C22.2187 14.3158 22.1895 14.3407 22.1672 14.3713C21.882 14.7672 21.6524 15.2004 21.4848 15.6587C21.428 15.7483 21.2696 15.8243 21.0936 15.6515C20.8638 15.276 20.7785 14.8298 20.8536 14.3961" fill="white"/>
<path fill-rule="evenodd" clip-rule="evenodd" d="M18.9328 9.31421C19.0407 9.39387 19.1254 9.50089 19.1781 9.62423C19.2309 9.74757 19.2497 9.88275 19.2328 10.0158C19.1928 10.2654 19.0848 10.5366 19.0056 10.5014C18.9264 10.4662 19.0648 10.2526 18.9824 10.0214C18.9376 9.87421 18.6624 9.60221 18.6872 9.52301C18.6288 9.35581 18.8056 9.28301 18.9328 9.31181" fill="white"/>
<path fill-rule="evenodd" clip-rule="evenodd" d="M21.5104 14.6406C21.5278 14.2755 21.5139 13.9096 21.4688 13.547C21.4552 13.255 21.1376 10.8854 21.0736 10.667C20.9936 10.2486 21.3832 10.611 21.34 10.367C21.2064 10.0606 20.8728 9.61335 20.7688 9.34775C20.7056 9.23415 20.732 9.13175 20.5912 9.31815C20.4696 9.65048 20.4263 10.0064 20.4648 10.3582C20.8598 11.9997 21.0704 13.6803 21.0928 15.3686C21.2528 15.3686 21.4352 15.0038 21.5128 14.6446" fill="white"/>
<path fill-rule="evenodd" clip-rule="evenodd" d="M25.008 9.90665C25.1944 9.99865 25.3032 10.5179 25.284 10.6667C25.2448 10.9379 25.1472 11.2267 25.076 11.1915C25.0048 11.1563 25.0904 10.7915 25.0536 10.6763C25.012 10.5163 24.7584 10.2219 24.7856 10.1347C24.7739 10.1034 24.7713 10.0694 24.7782 10.0367C24.7851 10.004 24.8011 9.97399 24.8244 9.95008C24.8477 9.92617 24.8774 9.90939 24.9099 9.9017C24.9424 9.89401 24.9764 9.89573 25.008 9.90665Z" fill="white"/>
<path fill-rule="evenodd" clip-rule="evenodd" d="M11.1416 13.7C11.32 13.7688 11.4256 14.1504 11.4048 14.26C11.3704 14.4592 11.2744 14.6752 11.2072 14.6464C11.14 14.6176 11.2216 14.3512 11.1856 14.2672C11.172 14.0632 10.924 13.9568 10.9296 13.8672C10.8816 13.7072 11.032 13.6768 11.1416 13.7Z" fill="white"/>
<path fill-rule="evenodd" clip-rule="evenodd" d="M6.37278 9.19078C6.63518 9.27078 6.65118 9.65558 6.63198 9.76998C6.59598 9.97558 6.50398 10.198 6.43598 10.17C6.36798 10.142 6.43598 9.86358 6.39758 9.77638C6.35998 9.65318 6.13758 9.43158 6.16238 9.36438C6.11118 9.22598 6.26478 9.16518 6.37278 9.19078Z" fill="white"/>
<path fill-rule="evenodd" clip-rule="evenodd" d="M11.5727 11.0143C11.4725 11.0792 11.4007 11.1798 11.372 11.2957C11.3433 11.4117 11.3599 11.5342 11.4183 11.6383C11.4562 11.6866 11.5077 11.7225 11.5662 11.7411C11.6247 11.7598 11.6874 11.7605 11.7463 11.7431C11.9447 11.7679 12.0615 11.3719 12.0615 11.3719C12.0615 11.3719 12.0671 11.2607 11.8319 11.4711C11.7335 11.4887 11.7215 11.4535 11.6959 11.3975C11.6724 11.2934 11.6833 11.1844 11.7271 11.0871C11.7623 10.9903 11.6863 10.9463 11.5727 11.0143Z" fill="white"/>
<path fill-rule="evenodd" clip-rule="evenodd" d="M13.0872 9.04039C13.0018 9.09972 12.93 9.17657 12.8766 9.26582C12.8232 9.35507 12.7895 9.45467 12.7776 9.55799C12.7704 9.69479 12.7448 9.69479 12.8344 9.78119C12.9 9.87319 12.964 9.86119 13.0936 9.79799C13.1262 9.77714 13.1541 9.74984 13.1757 9.71778C13.1973 9.68573 13.2121 9.64959 13.2192 9.61159C13.2512 9.45879 13.0592 9.68599 13.0304 9.51479C12.988 9.35479 13.1104 9.28919 13.2312 9.13479C13.2312 9.02919 13.2312 8.95559 13.0872 9.04039Z" fill="white"/>
<path fill-rule="evenodd" clip-rule="evenodd" d="M14.308 9.25648C14.2596 9.45425 14.2307 9.65628 14.2216 9.85968C14.1864 10.0085 14.3816 10.0725 14.4664 9.87888C14.5533 9.67136 14.6005 9.4494 14.6056 9.22448C14.5656 8.99568 14.4104 9.00368 14.308 9.25648Z" fill="white"/>
<path fill-rule="evenodd" clip-rule="evenodd" d="M22.004 13.1697C22.032 13.1449 23.0896 12.3929 23.0896 12.3929C23.1968 12.3561 23.1696 12.7809 23.124 12.7761C22.796 13.0957 22.4176 13.359 22.004 13.5553C21.9536 13.5937 21.8984 13.2641 22.004 13.1697Z" fill="white"/>
<path fill-rule="evenodd" clip-rule="evenodd" d="M22.9695 13.1666C23.1567 13.2586 23.2303 13.8026 23.2095 13.9522C23.2167 14.2394 23.0303 14.4706 22.9591 14.4322C22.8879 14.3938 22.9663 14.0754 22.9287 13.9594C22.8871 13.7994 22.7303 13.4978 22.7567 13.4098C22.7446 13.3789 22.7412 13.3453 22.747 13.3126C22.7528 13.2799 22.7676 13.2495 22.7896 13.2246C22.8116 13.1998 22.8401 13.1815 22.8718 13.1719C22.9036 13.1622 22.9374 13.1615 22.9695 13.1698" fill="white"/>
<path fill-rule="evenodd" clip-rule="evenodd" d="M16.676 15.5147C16.7635 15.4122 16.866 15.3235 16.98 15.2515C17.0136 15.2387 17.05 15.2351 17.0855 15.2411C17.121 15.2472 17.1542 15.2627 17.1816 15.2859C17.2 15.3915 17.116 15.4883 17.1424 15.6283C17.1656 15.6843 17.1816 15.7475 17.2856 15.7235C17.428 15.6195 17.6014 15.5667 17.7776 15.5739C17.9048 15.5811 17.9112 15.8003 17.828 15.8027C17.5972 15.8583 17.3725 15.9371 17.1576 16.0379C17.1273 16.0571 17.0913 16.0651 17.0558 16.0604C17.0202 16.0557 16.9875 16.0387 16.9632 16.0123C16.9434 15.9835 16.9312 15.95 16.928 15.9151C16.9248 15.8803 16.9306 15.8451 16.9448 15.8131C16.9528 15.7019 16.908 15.6411 16.8144 15.6531C16.7448 15.6907 16.6832 15.7155 16.6488 15.6347C16.6344 15.5755 16.6296 15.5475 16.676 15.5147Z" fill="white"/>
<path fill-rule="evenodd" clip-rule="evenodd" d="M24.0832 15.8086C24.0978 15.8212 24.1095 15.8368 24.1175 15.8543C24.1255 15.8718 24.1296 15.8909 24.1296 15.9102C24.1296 15.9294 24.1255 15.9485 24.1175 15.966C24.1095 15.9835 24.0978 15.9991 24.0832 16.0118C24.0096 16.0814 23.956 16.1182 23.8816 16.1862C23.848 16.247 23.824 16.3374 23.9312 16.3646C24.1296 16.4206 24.5872 16.1246 24.5872 16.1182C24.6101 16.0992 24.6264 16.0736 24.634 16.045C24.6416 16.0163 24.6401 15.9859 24.6296 15.9582C24.5872 15.9102 24.4896 15.9382 24.4232 15.9302C24.392 15.9302 24.292 15.9142 24.3432 15.8238C24.3771 15.7744 24.404 15.7205 24.4232 15.6638C24.4536 15.5966 24.4288 15.5494 24.3168 15.5134C24.2222 15.4981 24.1258 15.4981 24.0312 15.5134C23.964 15.5294 23.9408 15.559 23.9288 15.6406C23.9328 15.7662 24.0088 15.7582 24.0888 15.8094" fill="white"/>
</g>
</g>
<defs>
<clipPath id="clip0_266_47292">
<rect width="31.9976" height="32" fill="white"/>
</clipPath>
</defs>
</svg>
