<svg width="32" height="32" viewBox="0 0 32 32" fill="none" xmlns="http://www.w3.org/2000/svg">
<g clip-path="url(#clip0_266_48313)">
<mask id="mask0_266_48313" style="mask-type:luminance" maskUnits="userSpaceOnUse" x="0" y="0" width="32" height="32">
<path d="M15.9996 0H15.6453C11.8059 0.08 9.83428 0.3808 8.0066 1.0104C6.2378 1.6164 4.64554 2.64897 3.37061 4.0168C2.31246 5.24541 1.5027 6.66769 0.986228 8.2048C0.376587 10.1308 0.0531888 12.136 0.0263954 14.156C-5.95942e-09 14.9504 0 15.06 0 16.0008C0 16.9416 -5.95942e-09 17.0488 0.0263954 17.8408C0.0531915 19.8611 0.376589 21.8665 0.986228 23.7928C1.5027 25.3304 2.31245 26.7532 3.37061 27.9824C4.64639 29.3509 6.23979 30.3838 8.0098 30.9896C9.83748 31.6192 11.8075 31.9208 15.6485 32H16.3571C20.1965 31.92 22.1697 31.6192 23.9958 30.9896C25.7639 30.3837 27.3552 29.3508 28.6286 27.9824C29.6866 26.754 30.4969 25.3324 31.0146 23.796C31.6231 21.8694 31.9464 19.8642 31.9744 17.844C32 17.0488 32 16.94 32 16.004C32 15.068 32 14.9536 31.9744 14.1592C31.9464 12.1393 31.623 10.1343 31.0146 8.208C30.4966 6.66956 29.6853 5.2462 28.6254 4.0168C27.3519 2.64872 25.7606 1.61606 23.9926 1.0104C22.1673 0.3808 20.1957 0.08 16.3539 0H15.9996Z" fill="white"/>
</mask>
<g mask="url(#mask0_266_48313)">
<path d="M41.2264 10.7856H-8.30811V21.7872H41.2264V10.7856Z" fill="white"/>
<path d="M41.2272 21.7871H-8.30737V32.7887H41.2272V21.7871Z" fill="#DA0D15"/>
<path d="M41.2274 -0.215332H-8.30713V10.7863H41.2274V-0.215332Z" fill="#219E3F"/>
<path d="M38.5374 22.8351H38.7621V23.6247H37.6423V23.1007H36.9649V23.6247H36.7409V22.8383H37.8607V23.3623H38.5326V23.1007H38.0847V22.8383H38.5326L38.5374 22.8351ZM37.1928 23.6215H37.4168V23.3599H37.1928V23.6215ZM39.2101 22.5735H39.658V22.3119H36.7449V22.5735H39.2101ZM37.1928 22.0495H38.7621V21.7847H36.7449V22.0463H37.1928V22.0495ZM40.7794 21.7879H38.9861V22.0495H41.0034V21.7847L40.7794 21.7879ZM40.7794 22.5735V23.3591H40.5546V22.3119H40.3307V23.3591H40.1067V22.3119H39.8828V22.8351H38.9861V23.6247H39.658V23.3623H39.2101V23.1007H39.8828V23.6247H41.0026V22.3119H40.7786L40.7794 22.5735ZM33.831 22.8351H33.6055V23.0975H34.0542V23.3591H33.3815V22.8351H32.2617V23.6247H32.4856V23.1007H33.1583V23.6247H34.2781V22.8383H33.8302L33.831 22.8351ZM32.7112 23.6215H32.9352V23.3599H32.7112V23.6215ZM34.7285 22.5735H35.1764V22.3119H32.2617V22.5735H34.7253H34.7285ZM32.7112 22.0495H34.2797V21.7847H32.2617V22.0463H32.7104L32.7112 22.0495ZM36.297 21.7879H34.5029V22.0495H36.5201V21.7847L36.297 21.7879ZM36.297 22.5735V23.3591H36.073V22.3119H35.8451V23.3591H35.6203V22.3119H35.3963V22.8351H34.5029V23.6247H35.1756V23.3623H34.7253V23.1007H35.3971V23.6247H36.5169V22.3119H36.293L36.297 22.5735ZM29.3486 22.8351H29.1262V23.0975H29.5742V23.3591H28.9023V22.8351H27.7825V23.6247H28.0064V23.1007H28.6783V23.6247H29.7981V22.8383H29.3494L29.3486 22.8351ZM28.2288 23.6215H28.4528V23.3599H28.2288V23.6215ZM30.246 22.5735H30.6948V22.3119H27.7793V22.5735H30.246ZM28.2288 22.0495H29.7981V21.7847H27.7793V22.0463H28.2272L28.2288 22.0495ZM31.8138 21.7847H30.0205V22.0463H32.0377V21.7847H31.8138ZM31.8138 22.5703V23.3559H31.589V22.3119H31.3658V23.3591H31.1419V22.3119H30.9179V22.8351H30.0205V23.6247H30.6932V23.3623H30.246V23.1007H30.9187V23.6247H32.0385V22.3119H31.8146L31.8138 22.5703ZM24.8654 22.8319H24.6414V23.0943H25.0893V23.3559H24.4167V22.8319H23.2969V23.6247H23.5208V23.1007H24.1935V23.6247H25.3133V22.8383H24.8654V22.8319ZM23.7456 23.6183H23.9695V23.3567H23.7456V23.6183ZM25.7628 22.5703H26.2107V22.3087H23.2961V22.5703H25.7628ZM23.7456 22.0463H25.3141V21.7847H23.2961V22.0463H23.7448H23.7456ZM27.3313 21.7847H25.5373V22.0463H27.5545V21.7847H27.3313ZM27.3313 22.5703V23.3559H27.1074V22.3119H26.8834V23.3591H26.6595V22.3119H26.4347V22.8351H25.5373V23.6247H26.2099V23.3623H25.762V23.1007H26.4339V23.6247H27.5537V22.3119H27.3298L27.3313 22.5703ZM20.383 22.8319H20.159V23.0943H20.6077V23.3559H19.935V22.8319H18.8152V23.6247H19.0392V23.1007H19.7119V23.6247H20.8317V22.8383H20.383V22.8319ZM19.2632 23.6183H19.4871V23.3567H19.2632V23.6183ZM21.2804 22.5703H21.7291V22.3087H18.8136V22.5703H21.2788H21.2804ZM19.2632 22.0463H20.8325V21.7847H18.8136V22.0463H19.2616H19.2632ZM22.8497 21.7847H21.0548V22.0463H23.0721V21.7847H22.8497ZM22.8497 22.5703V23.3559H22.6258V22.3119H22.3994V23.3591H22.1755V22.3119H21.9515V22.8351H21.0548V23.6247H21.7275V23.3623H21.2788V23.1007H21.9515V23.6247H23.0713V22.3119H22.8473L22.8497 22.5703ZM15.9014 22.8319H15.6774V23.0943H16.1253V23.3559H15.4486V22.8319H14.3288V23.6247H14.5528V23.1007H15.2255V23.6247H16.3453V22.8383H15.8974L15.9014 22.8319ZM14.7815 23.6183H15.0055V23.3567H14.7815V23.6183ZM16.7988 22.5703H17.2467V22.3087H14.3288V22.5703H16.7948H16.7988ZM14.7815 22.0463H16.3501V21.7847H14.3288V22.0463H14.7775H14.7815ZM18.3673 21.7847H16.5684V22.0463H18.5865V21.7847H18.3673ZM18.3673 22.5703V23.3559H18.1434V22.3119H17.9194V23.3591H17.6954V22.3119H17.4707V22.8351H16.5684V23.6247H17.2411V23.3623H16.7932V23.1007H17.4651V23.6247H18.5849V22.3119H18.3601L18.3673 22.5703ZM11.4189 22.8319H11.195V23.0943H11.6437V23.3559H10.9694V22.8319H9.84961V23.6247H10.0736V23.1007H10.7463V23.6247H11.8661V22.8383H11.4173L11.4189 22.8319ZM10.2991 23.6183H10.5231V23.3567H10.2991V23.6183ZM12.3164 22.5703H12.7651V22.3087H9.84961V22.5703H12.3132H12.3164ZM10.2991 22.0463H11.8653V21.7847H9.84961V22.0463H10.2975H10.2991ZM13.8857 21.7847H12.0892V22.0463H14.1065V21.7847H13.8857ZM13.8857 22.5703V23.3559H13.6617V22.3119H13.437V23.3591H13.209V22.3119H12.9851V22.8351H12.0892V23.6247H12.7619V23.3623H12.3132V23.1007H12.9859V23.6247H14.1057V22.3119H13.8817L13.8857 22.5703ZM6.93732 22.8319H6.71336V23.0943H7.16128V23.3559H6.4886V22.8319H5.36879V23.6247H5.59355V23.1007H6.26544V23.6247H7.38524V22.8383H6.93732V22.8319ZM5.81751 23.6183H6.04147V23.3567H5.81751V23.6183ZM7.83476 22.5703H8.28268V22.3087H5.36479V22.5703H7.83076H7.83476ZM5.81751 22.0463H7.38604V21.7847H5.36479V22.0463H5.81351H5.81751ZM9.40329 21.7847H7.61V22.0463H9.62725V21.7847H9.40329ZM9.40329 22.5703V23.3559H9.17933V22.3119H8.95537V23.3591H8.7298V22.3119H8.50504V22.8351H7.61V23.6247H8.28188V23.3623H7.83396V23.1007H8.50584V23.6247H9.62565V22.3119H9.40089L9.40329 22.5703ZM2.4549 22.8319H2.23094V23.0943H2.67966V23.3559H2.00298V22.8319H0.883179V23.6247H1.10714V23.1007H1.77982V23.6247H2.89963V22.8383H2.4509L2.4549 22.8319ZM1.3351 23.6183H1.55906V23.3567H1.3351V23.6183ZM3.35235 22.5703H3.80107V22.3087H0.88238V22.5703H3.34755H3.35235ZM1.3351 22.0463H2.90443V21.7847H0.88238V22.0463H1.3303H1.3351ZM4.92167 21.7847H3.12359V22.0463H5.14083V21.7847H4.92167ZM4.92167 22.5703V23.3559H4.69771V22.3119H4.47295V23.3591H4.24899V22.3119H4.02503V22.8351H3.12359V23.6247H3.79627V23.3623H3.34755V23.1007H4.02023V23.6247H5.14003V22.3119H4.91607L4.92167 22.5703ZM-2.02671 22.8319H-2.25067V23.0943H-1.80275V23.3559H-2.47463V22.8319H-3.59444V23.6247H-3.36968V23.1007H-2.69779V23.6247H-1.57799V22.8383H-2.02591L-2.02671 22.8319ZM-3.14652 23.6183H-2.92256V23.3567H-3.14652V23.6183ZM-1.12927 22.5703H-0.681347V22.3087H-3.60084V22.5703H-1.13487H-1.12927ZM-3.14652 22.0463H-1.58359V21.7847H-3.60084V22.0463H-3.15211H-3.14652ZM0.439257 21.7847H-1.35883V22.0463H0.658418V21.7847H0.439257ZM0.439257 22.5703V23.3559H0.215296V22.3119H-0.00866508V23.3591H-0.232625V22.3119H-0.456587V22.8351H-1.35883V23.6247H-0.686946V23.3623H-1.13487V23.1007H-0.462186V23.6247H0.657619V22.3119H0.432858L0.439257 22.5703ZM-6.50913 22.8319H-6.73309V23.0943H-6.28437V23.3559H-6.96265V22.8319H-8.08325V23.6247H-7.85929V23.1007H-7.18741V23.6247H-6.0676V22.8383H-6.51473L-6.50913 22.8319ZM-7.63533 23.6247H-7.41137V23.3631H-7.63533V23.6247ZM-5.61808 22.5767H-5.16936V22.3151H-8.08325V22.5767H-5.61808ZM-7.63533 22.0495H-6.0676V21.7847H-8.08325V22.0463H-7.63533V22.0495ZM-4.04876 21.7847H-5.84204V22.0463H-3.828V21.7847H-4.04876ZM-4.04876 22.5703V23.3559H-4.27272V22.3119H-4.49668V23.3591H-4.72144V22.3119H-4.9478V22.8351H-5.84204V23.6247H-5.16936V23.3623H-5.61808V23.1007H-4.9478V23.6247H-3.828V22.3119H-4.05196L-4.04876 22.5703Z" fill="white"/>
<path d="M38.5374 9.47584H38.7621V10.2646H37.6423V9.74064H36.9649V10.2646H36.7409V9.47824H37.8607V10.0022H38.5326V9.74064H38.0847V9.47824H38.5326L38.5374 9.47584ZM37.4176 9.99984H37.1936V10.2646H37.4176V9.99984ZM39.2109 9.21424H39.6588V8.95264H36.7449V9.21424H39.2109ZM-4.27272 10.5238H-5.84204V10.7862H-3.828V10.5238H-4.27592H-4.27272ZM-6.51233 10.5238H-8.08325V10.7862H-6.0676V10.5238H-6.51473H-6.51233ZM40.7794 8.95264V9.99984H40.5546V8.95264H40.3307V9.99984H40.1067V8.95264H39.8828V9.47584H38.9861V10.2646H39.658V10.0022H39.2101V9.74064H39.8828V10.2646H41.0026V8.95264H40.7794ZM33.831 9.47584H33.6055V9.73824H34.0542V9.99984H33.3815V9.47584H32.2617V10.2646H32.4856V9.74064H33.1583V10.2646H34.2781V9.47824H33.8302L33.831 9.47584ZM32.9344 9.99984H32.7104V10.2646H32.9344V9.99984ZM34.7277 9.21424H35.1756V8.95264H32.2617V9.21424H34.7253H34.7277ZM0.209697 10.5238H-1.35883V10.7862H0.658418V10.5238H0.209697ZM-2.02991 10.5238H-3.60084V10.7862H-1.58359V10.5238H-2.03151H-2.02991ZM36.2978 9.21424V9.99984H36.0738V8.95264H35.8451V9.99984H35.6203V8.95264H35.3963V9.47584H34.5029V10.2646H35.1756V10.0022H34.7253V9.74064H35.3971V10.2646H36.5169V8.95264H36.293L36.2978 9.21424ZM29.3494 9.47584H29.1262V9.73824H29.5742V9.99984H28.9023V9.47584H27.7825V10.2646H28.0064V9.74064H28.6783V10.2646H29.7981V9.47824H29.3494V9.47584ZM28.4528 9.99984H28.2288V10.2646H28.4528V9.99984ZM30.246 9.21424H30.6948V8.95264H27.7793V9.21424H30.246ZM4.69291 10.5238H3.12359V10.7862H5.14083V10.5238H4.69291ZM2.4533 10.5238H0.88238V10.7862H2.89963V10.5238H2.4509H2.4533ZM31.8162 9.21424V9.99984H31.5914V8.95264H31.3658V9.99984H31.1419V8.95264H30.9179V9.47584H30.0205V10.2646H30.6932V10.0022H30.246V9.74064H30.9187V10.2646H32.0385V8.95264H31.8146L31.8162 9.21424ZM24.8678 9.47584H24.6438V9.73824H25.0917V9.99984H24.4191V9.47584H23.2993V10.2646H23.5232V9.74064H24.1959V10.2646H25.3157V9.47824H24.8678V9.47584ZM23.9711 9.99984H23.7472V10.2646H23.9711V9.99984ZM25.7644 9.21424H26.2123V8.95264H23.2961V9.21424H25.762H25.7644ZM9.17533 10.5238H7.61V10.7862H9.62725V10.5238H9.17853H9.17533ZM6.93572 10.5238H5.36479V10.7862H7.38204V10.5238H6.93412H6.93572ZM27.3321 9.21424V9.99984H27.1082V8.95264H26.8842V9.99984H26.6603V8.95264H26.4355V9.47584H25.5373V10.2646H26.2099V10.0022H25.762V9.74064H26.4339V10.2646H27.5537V8.95264H27.3298L27.3321 9.21424ZM20.3838 9.47584H20.1598V9.73824H20.6085V9.99984H19.9358V9.47584H18.816V10.2646H19.04V9.74064H19.7127V10.2646H20.8325V9.47824H20.3838V9.47584ZM19.4871 9.99984H19.2632V10.2646H19.4871V9.99984ZM21.2804 9.21424H21.7291V8.95264H18.8136V9.21424H21.2788H21.2804ZM13.6601 10.5238H12.0892V10.7862H14.1065V10.5238H13.6585H13.6601ZM11.4205 10.5238H9.84961V10.7862H11.8653V10.5238H11.4165H11.4205ZM22.8521 9.21424V9.99984H22.6282V8.95264H22.3994V9.99984H22.1755V8.95264H21.9515V9.47584H21.0548V10.2646H21.7275V10.0022H21.2788V9.74064H21.9515V10.2646H23.0713V8.95264H22.8473L22.8521 9.21424ZM15.9037 9.47584H15.6798V9.73824H16.1277V9.99984H15.4486V9.47584H14.3288V10.2646H14.5528V9.74064H15.2255V10.2646H16.3453V9.47824H15.8974L15.9037 9.47584ZM15.0071 9.99984H14.7831V10.2646H15.0071V9.99984ZM16.8004 9.21424H17.2483V8.95264H14.3288V9.21424H16.7948H16.8004ZM18.145 10.5238H16.5684V10.7862H18.5865V10.5238H18.1378H18.145ZM15.9053 10.5238H14.3288V10.7862H16.3461V10.5238H15.8981H15.9053ZM18.3705 9.21424V9.99984H18.1466V8.95264H17.9226V9.99984H17.6986V8.95264H17.4739V9.47584H16.5684V10.2646H17.2411V10.0022H16.7932V9.74064H17.4651V10.2646H18.5849V8.95264H18.3601L18.3705 9.21424ZM11.4221 9.47584H11.1982V9.73824H11.6469V9.99984H10.9694V9.47584H9.84961V10.2646H10.0736V9.74064H10.7463V10.2646H11.8661V9.47824H11.4173L11.4221 9.47584ZM10.5255 9.99984H10.3015V10.2646H10.5255V9.99984ZM12.3188 9.21424H12.7675V8.95264H9.84961V9.21424H12.3132H12.3188ZM22.6298 10.5238H21.0548V10.7862H23.0721V10.5238H22.6242H22.6298ZM20.3902 10.5238H18.8136V10.7862H20.8309V10.5238H20.3822H20.3902ZM13.8905 9.21424V9.99984H13.6665V8.95264H13.4418V9.99984H13.209V8.95264H12.9851V9.47584H12.0892V10.2646H12.7619V10.0022H12.3132V9.74064H12.9859V10.2646H14.1057V8.95264H13.8817L13.8905 9.21424ZM6.94212 9.47584H6.71816V9.73824H7.16608V9.99984H6.4934V9.47584H5.37359V10.2646H5.59835V9.74064H6.27024V10.2646H7.39004V9.47824H6.94212V9.47584ZM6.04548 9.99984H5.82151V10.2646H6.04548V9.99984ZM7.83876 9.21424H8.28668V8.95264H5.36479V9.21424H7.83076H7.83876ZM27.1154 10.5238H25.5373V10.7862H27.5545V10.5238H27.1066H27.1154ZM24.8758 10.5238H23.2961V10.7862H25.3133V10.5238H24.8654H24.8758ZM9.39929 9.21424V9.99984H9.17533V8.95264H8.95137V9.99984H8.7298V8.95264H8.50504V9.47584H7.61V10.2646H8.28188V10.0022H7.83396V9.74064H8.50584V10.2646H9.62565V8.95264H9.40089L9.39929 9.21424ZM2.4509 9.47584H2.22694V9.73824H2.67566V9.99984H2.00298V9.47584H0.883179V10.2646H1.10714V9.74064H1.77982V10.2646H2.89963V9.47824H2.4509V9.47584ZM1.55506 9.99984H1.3311V10.2646H1.55506V9.99984ZM3.34755 9.21424H3.79627V8.95264H0.88238V9.21424H3.34755ZM31.589 10.5238H30.0205V10.7862H32.0377V10.5238H31.589ZM29.3494 10.5238H27.7793V10.7862H29.7965V10.5238H29.3478H29.3494ZM4.91687 9.21424V9.99984H4.69291V8.95264H4.46815V9.99984H4.24419V8.95264H4.02023V9.47584H3.12359V10.2646H3.79627V10.0022H3.34755V9.74064H4.02023V10.2646H5.14003V8.95264H4.91607L4.91687 9.21424ZM-2.03151 9.47584H-2.25547V9.73824H-1.80755V9.99984H-2.47943V9.47584H-3.59924V10.2646H-3.37448V9.74064H-2.70259V10.2646H-1.58279V9.47824H-2.03071L-2.03151 9.47584ZM-2.92815 9.99984H-3.15211V10.2646H-2.92815V9.99984ZM-1.13487 9.21424H-0.686946V8.95264H-3.60084V9.21424H-1.13487ZM36.0722 10.5238H34.5029V10.7862H36.5201V10.5238H36.0722ZM33.8326 10.5238H32.2617V10.7862H34.2789V10.5238H33.831H33.8326ZM0.433658 9.21424V9.99984H0.209697V8.95264H-0.0142641V9.99984H-0.238225V8.95264H-0.462186V9.47584H-1.35883V10.2646H-0.686946V10.0022H-1.13487V9.74064H-0.462186V10.2646H0.657619V8.95264H0.432858L0.433658 9.21424ZM-6.51473 9.47584H-6.73869V9.73824H-6.28997V9.99984H-6.96265V9.47584H-8.08325V10.2646H-7.85929V9.74064H-7.18741V10.2646H-6.0676V9.47824H-6.51473V9.47584ZM-7.41057 9.99984H-7.63453V10.2646H-7.41057V9.99984ZM-5.61808 9.21424H-5.16936V8.95264H-8.08325V9.21424H-5.61808ZM40.5546 10.5238H38.9861V10.7862H41.0034V10.5238H40.5546ZM38.315 10.5238H36.7449V10.7862H38.7621V10.5238H38.3134H38.315ZM-4.04876 9.21424V9.99984H-4.27272V8.95264H-4.49668V9.99984H-4.72144V8.95264H-4.9478V9.47584H-5.84204V10.2646H-5.16936V10.0022H-5.61808V9.74064H-4.9478V10.2646H-3.828V8.95264H-4.05196L-4.04876 9.21424Z" fill="white"/>
<path d="M17.0378 18.7143C17.113 18.6759 17.1866 18.6343 17.2578 18.5919C17.7353 18.3043 18.1356 17.9047 18.424 17.4275C18.7124 16.9504 18.8803 16.4102 18.913 15.8536C18.9458 15.297 18.8425 14.7409 18.6121 14.2332C18.3816 13.7255 18.031 13.2816 17.5905 12.9399C18.1678 13.7432 18.4078 14.7405 18.2594 15.7186C18.111 16.6966 17.5858 17.5778 16.7963 18.1735L16.9434 13.1503L16.5219 13.0495L16.4587 13.0343L16.3963 13.0495L15.9748 13.1503L16.122 18.1735C15.3324 17.5778 14.8073 16.6966 14.6588 15.7186C14.5104 14.7405 14.7505 13.7432 15.3277 12.9399C14.8872 13.2816 14.5366 13.7255 14.3062 14.2332C14.0757 14.7409 13.9724 15.297 14.0052 15.8536C14.038 16.4102 14.2058 16.9504 14.4942 17.4275C14.7826 17.9047 15.1829 18.3043 15.6605 18.5919C15.7324 18.6359 15.806 18.6719 15.8812 18.7143C15.4694 18.8622 15.035 18.9377 14.5974 18.9375H14.5726C14.8958 19.0356 15.2316 19.0852 15.5693 19.0847C15.7628 19.0844 15.9559 19.068 16.1468 19.0359V19.1159L16.4563 19.4951L16.7659 19.1159V19.0359C16.957 19.068 17.1504 19.0843 17.3442 19.0847C17.6816 19.0852 18.0171 19.0356 18.34 18.9375H18.316C17.8797 18.9374 17.4468 18.8619 17.0362 18.7143" fill="#DA0D15"/>
<path d="M17.8601 12.9551C18.2749 13.2471 18.6255 13.621 18.8901 14.0539C19.1547 14.4867 19.3277 14.9692 19.3985 15.4715C19.4693 15.9739 19.4363 16.4854 19.3016 16.9745C19.1669 17.4636 18.9333 17.9198 18.6153 18.3151C19.1587 18.0541 19.6049 17.6269 19.8894 17.0955C20.1738 16.564 20.2819 15.9558 20.1978 15.3589C20.1137 14.762 19.8418 14.2073 19.4216 13.7752C19.0013 13.343 18.4544 13.0558 17.8601 12.9551Z" fill="#DA0D15"/>
<path d="M15.9197 13.0053C16.0333 13.0055 16.1446 12.973 16.2403 12.9117C16.3361 12.8505 16.4122 12.763 16.4597 12.6598C16.5253 12.8032 16.6453 12.9146 16.7931 12.9696C16.941 13.0246 17.1046 13.0186 17.2481 12.953C17.3915 12.8873 17.503 12.7673 17.5579 12.6195C17.6129 12.4716 17.6069 12.308 17.5413 12.1646C17.5136 12.2873 17.4449 12.397 17.3467 12.4755C17.2484 12.5541 17.1263 12.5969 17.0005 12.5969C16.8746 12.5969 16.7526 12.5541 16.6543 12.4755C16.556 12.397 16.4874 12.2873 16.4597 12.1646C16.4323 12.2875 16.3639 12.3974 16.2656 12.4762C16.1674 12.555 16.0452 12.598 15.9193 12.598C15.7933 12.598 15.6711 12.555 15.5729 12.4762C15.4746 12.3974 15.4062 12.2875 15.3789 12.1646C15.3428 12.2417 15.3242 12.3258 15.3245 12.411C15.3245 12.4891 15.3399 12.5664 15.3698 12.6386C15.3997 12.7108 15.4436 12.7763 15.4988 12.8315C15.5541 12.8867 15.6197 12.9305 15.692 12.9603C15.7642 12.9902 15.8415 13.0055 15.9197 13.0053Z" fill="#DA0D15"/>
<path d="M15.061 12.9551C14.4667 13.0558 13.9198 13.343 13.4995 13.7752C13.0793 14.2073 12.8074 14.762 12.7233 15.3589C12.6392 15.9558 12.7472 16.564 13.0317 17.0955C13.3162 17.6269 13.7624 18.0541 14.3058 18.3151C13.9876 17.9199 13.7538 17.4637 13.6189 16.9745C13.4841 16.4854 13.4511 15.9738 13.5218 15.4714C13.5926 14.969 13.7657 14.4865 14.0305 14.0537C14.2952 13.6208 14.646 13.2469 15.061 12.9551Z" fill="#DA0D15"/>
</g>
</g>
<defs>
<clipPath id="clip0_266_48313">
<rect width="32" height="32" fill="white"/>
</clipPath>
</defs>
</svg>
