<svg width="24" height="24" viewBox="0 0 24 24" fill="none" xmlns="http://www.w3.org/2000/svg">
<g clip-path="url(#clip0_266_46517)">
<mask id="mask0_266_46517" style="mask-type:luminance" maskUnits="userSpaceOnUse" x="0" y="0" width="24" height="25">
<path d="M12.0012 0H11.7336C8.85344 0.060003 7.37377 0.285614 6.0027 0.756638C4.67775 1.21238 3.48498 1.98648 2.52913 3.01095C1.73536 3.93235 1.12773 4.99887 0.739837 6.15151C0.282674 7.59633 0.0400759 9.10044 0.019801 10.6157C-4.47057e-09 11.211 0 11.2932 0 11.9958C0 12.6984 -4.47057e-09 12.783 0.019801 13.3789C0.0400739 14.894 0.282673 16.3979 0.739837 17.8425C1.12723 18.9968 1.73489 20.065 2.52913 20.9878C3.48498 22.0134 4.67853 22.788 6.0045 23.2434C7.37557 23.712 8.85344 23.9406 11.7336 24.0006H12.2658C15.146 23.9406 16.6256 23.7144 17.9955 23.2434C19.3219 22.7885 20.5157 22.0138 21.4715 20.9878C22.2652 20.0662 22.8729 18.9995 23.2608 17.8467C23.7176 16.402 23.9602 14.8981 23.9808 13.3831C24 12.7872 24 12.705 24 12C24 11.295 24 11.2128 23.9808 10.6199C23.9602 9.10467 23.7176 7.60061 23.2608 6.15571C22.8739 5.00172 22.2669 3.93374 21.4733 3.01095C20.5172 1.98518 19.3235 1.21037 17.9973 0.754838C16.6274 0.285614 15.1484 0.059403 12.2676 0H12.0012Z" fill="white"/>
</mask>
<g mask="url(#mask0_266_46517)">
<path fill-rule="evenodd" clip-rule="evenodd" d="M30.2697 -0.169189H-6.26733V7.94382H30.2697V-0.169189Z" fill="#FFCC00"/>
<path d="M30.2697 16.0569H-6.26733V24.1699H30.2697V16.0569Z" fill="#E3001C"/>
<path d="M30.2697 7.94385H-6.26733V16.0569H30.2697V7.94385Z" fill="#002DA6"/>
<path fill-rule="evenodd" clip-rule="evenodd" d="M10.4622 8.57275L10.8264 9.24059L11.5734 9.09838L11.0502 9.65041L11.4168 10.317L10.7292 9.99002L10.2084 10.5439L10.3068 9.79021L9.61854 9.4662L10.3668 9.32699L10.4622 8.57275ZM19.249 13.5164L19.0426 14.2484L18.2818 14.2754L18.9148 14.6955L18.7054 15.4317L19.3054 14.9607L19.9367 15.3855L19.6732 14.6721L20.2733 14.204L19.5094 14.2316L19.249 13.5164ZM18.7444 11.5759L18.043 11.8711L17.5479 11.2915L17.6121 12.0487L16.9095 12.3415L17.6505 12.5144L17.7105 13.2722L18.1042 12.6218L18.8446 12.7976L18.3472 12.2221L18.7444 11.5759ZM16.4043 9.60781L15.8409 10.119L15.1808 9.73861L15.4928 10.4322L14.9276 10.9411L15.6836 10.8583L15.9939 11.5531L16.1487 10.8085L16.9053 10.7293L16.2453 10.3518L16.4043 9.60781ZM13.5421 8.57275L13.1737 9.24059L12.4261 9.09838L12.9493 9.65041L12.5833 10.317L13.2703 9.99002L13.7912 10.5439L13.6957 9.79141L14.384 9.4674L13.6357 9.32819L13.5421 8.57275ZM4.7541 13.5164L4.96051 14.2484L5.72075 14.2754L5.08772 14.6955L5.29713 15.4317L4.6971 14.9607L4.06587 15.3855L4.32928 14.6721L3.72925 14.204L4.48949 14.234L4.7541 13.5164ZM5.25812 11.5759L5.95956 11.8711L6.45339 11.2915L6.39338 12.0517L7.09542 12.3445L6.35438 12.5174L6.29438 13.2752L5.90076 12.6248L5.16032 12.8006L5.65775 12.2251L5.25812 11.5759ZM7.59824 9.60781L8.16167 10.119L8.8217 9.73861L8.50969 10.4322L9.07492 10.9411L8.31888 10.8583L8.00926 11.5531L7.85445 10.8115L7.09782 10.7323L7.75785 10.3548L7.59824 9.60781Z" fill="#F4F4F4"/>
</g>
</g>
<defs>
<clipPath id="clip0_266_46517">
<rect width="24" height="24.0006" fill="white"/>
</clipPath>
</defs>
</svg>
