<svg width="24" height="24" viewBox="0 0 24 24" fill="none" xmlns="http://www.w3.org/2000/svg">
<g clip-path="url(#clip0_266_45342)">
<mask id="mask0_266_45342" style="mask-type:luminance" maskUnits="userSpaceOnUse" x="0" y="0" width="24" height="25">
<path d="M12 0H11.7342C8.85404 0.060003 7.37377 0.286214 6.0033 0.757838C4.67723 1.21264 3.48361 1.9871 2.52793 3.01275C1.73437 3.93452 1.12676 5.00119 0.738637 6.15391C0.282165 7.5989 0.0395836 9.1029 0.018601 10.6181C8.27056e-08 11.214 0 11.2962 0 11.9982C0 12.7002 8.27056e-08 12.7848 0.018601 13.3783C0.0396781 14.8935 0.282257 16.3975 0.738637 17.8425C1.12613 18.9975 1.73376 20.0664 2.52793 20.9902C3.48361 22.0159 4.67723 22.7904 6.0033 23.2452C7.37377 23.7168 8.85224 23.9436 11.7342 24.003H12.2658C15.146 23.943 16.6262 23.7168 17.9961 23.2452C19.3222 22.7905 20.5159 22.016 21.4715 20.9902C22.2653 20.0686 22.8731 19.0019 23.2614 17.8491C23.7181 16.4042 23.9607 14.9001 23.9814 13.3849C24 12.789 24 12.7068 24 12.0048C24 11.3028 24 11.2176 23.9814 10.6247C23.9608 9.10947 23.7182 7.60542 23.2614 6.16051C22.8733 5.00765 22.2654 3.94094 21.4715 3.01935C20.5159 1.99356 19.3222 1.21909 17.9961 0.764438C16.6262 0.289214 15.1472 0.059403 12.2658 0H12Z" fill="white"/>
</mask>
<g mask="url(#mask0_266_45342)">
<path d="M32.1034 -0.910889H-6.66092V24.9126H32.1034V-0.910889Z" fill="#0067AA"/>
<path d="M32.101 9.40303H10.5149V-0.910889H5.52329V9.40363H-6.66092V14.5735H5.52329V24.912H10.5149V14.5729H32.101V9.40303Z" fill="#FFD500"/>
</g>
</g>
<defs>
<clipPath id="clip0_266_45342">
<rect width="24" height="24.003" fill="white"/>
</clipPath>
</defs>
</svg>
