<svg width="24" height="24" viewBox="0 0 24 24" fill="none" xmlns="http://www.w3.org/2000/svg">
<g clip-path="url(#clip0_266_45255)">
<mask id="mask0_266_45255" style="mask-type:luminance" maskUnits="userSpaceOnUse" x="0" y="0" width="24" height="24">
<path d="M11.7351 0C8.85549 0.06 7.37548 0.2856 6.00525 0.7572C4.67959 1.21229 3.4864 1.9869 2.53108 3.0126C1.73733 3.93406 1.12942 5.00048 0.740907 6.153C0.28449 7.59791 0.0419506 9.10184 0.0209976 10.617C1.94436e-07 11.2128 0 11.2956 0 12C0 12.7044 3.79932e-08 12.7866 0.0191976 13.38C0.0401009 14.8954 0.282641 16.3995 0.739108 17.8446C1.12771 18.9984 1.73626 20.0659 2.53108 20.988C3.48643 22.0135 4.67963 22.7879 6.00525 23.2428C7.37548 23.7144 8.85429 23.9406 11.7351 24H12.2667C15.1463 23.94 16.6257 23.7144 17.9959 23.2428C19.3217 22.7878 20.515 22.0134 21.4707 20.988C22.2646 20.0665 22.8724 18.9998 23.2603 17.847C23.717 16.402 23.9596 14.8978 23.9802 13.3824C24 12.7866 24 12.705 24 12.0024C24 11.2998 24 11.2152 23.9802 10.6194C23.9595 9.10422 23.717 7.60024 23.2603 6.1554C22.8722 5.0028 22.2645 3.93634 21.4707 3.015C20.5158 1.98878 19.3231 1.21337 17.9977 0.7572C16.6257 0.2856 15.1469 0.06 12.2667 0H11.7351Z" fill="white"/>
</mask>
<g mask="url(#mask0_266_45255)">
<path d="M27.4214 0H-3.41959V24H27.4214V0Z" fill="white"/>
<path d="M11.9985 5.98193C13.2175 5.98229 14.409 6.34414 15.4224 7.02174C16.4357 7.69933 17.2255 8.66224 17.6917 9.7887C18.1579 10.9152 18.2797 12.1546 18.0416 13.3503C17.8035 14.5459 17.2163 15.6442 16.3542 16.5061C15.492 17.368 14.3937 17.9548 13.1981 18.1925C12.0025 18.4301 10.7633 18.3079 9.63712 17.8412C8.51098 17.3744 7.5485 16.5842 6.87138 15.5705C6.19426 14.5567 5.83292 13.3649 5.83304 12.1457C5.83367 10.5108 6.48353 8.94299 7.6397 7.78712C8.79587 6.63126 10.3637 5.98193 11.9985 5.98193Z" fill="#ED1C2F"/>
<path d="M12.2559 0.5L13.2637 0.530273C15.4684 0.619079 16.697 0.839345 17.835 1.23047V1.22949C19.0766 1.65684 20.1941 2.38274 21.0908 3.3418H21.0918C21.7493 4.10497 22.2721 4.97309 22.6387 5.90918L22.7861 6.31543C23.2262 7.7108 23.4605 9.16294 23.4805 10.626V10.6357C23.5 11.224 23.5 11.303 23.5 12.002C23.5 12.3515 23.5005 12.5457 23.498 12.7256L23.4805 13.3662V13.376C23.4605 14.8393 23.2263 16.2918 22.7861 17.6875C22.4201 18.7753 21.8475 19.7819 21.0996 20.6523C20.2008 21.6149 19.0796 22.342 17.834 22.7695H17.833C16.5344 23.2165 15.1146 23.4404 12.2559 23.5H11.7451C9.24305 23.4484 7.84375 23.2709 6.66309 22.9277L6.16797 22.7695C4.92609 22.3434 3.80733 21.6196 2.91016 20.6611C2.15756 19.788 1.58086 18.7771 1.21289 17.6846C0.773039 16.2889 0.539716 14.8363 0.519531 13.373L0.518555 13.3643L0.501953 12.7246C0.499596 12.5447 0.5 12.3503 0.5 12C0.5 11.2991 0.499793 11.2226 0.520508 10.6348V10.624C0.540743 9.16075 0.774933 7.70817 1.21484 6.3125C1.53675 5.35765 2.01804 4.46553 2.63672 3.67285L2.91016 3.33887C3.75105 2.44042 4.78641 1.74782 5.93555 1.31348L6.16797 1.23047C7.30423 0.839396 8.5336 0.619085 10.7383 0.530273L11.7451 0.5H12.2559Z" stroke="#F6F6F6"/>
</g>
</g>
<defs>
<clipPath id="clip0_266_45255">
<rect width="24" height="24" fill="white"/>
</clipPath>
</defs>
</svg>
