<svg width="24" height="24" viewBox="0 0 24 24" fill="none" xmlns="http://www.w3.org/2000/svg">
<g clip-path="url(#clip0_266_46874)">
<mask id="mask0_266_46874" style="mask-type:luminance" maskUnits="userSpaceOnUse" x="0" y="0" width="24" height="25">
<path d="M11.9994 0H11.7342C8.8542 0.06 7.374 0.2862 6.0042 0.7584C4.67799 1.21281 3.48419 1.98704 2.5284 3.0126C1.73471 3.9342 1.12711 5.00086 0.7392 6.1536C0.282094 7.59836 0.0395086 9.10239 0.0192 10.6176C3.7998e-08 11.2134 0 11.2962 0 12.0006C0 12.705 3.7998e-08 12.7872 0.0192 13.3806C0.0394279 14.8964 0.282013 16.401 0.7392 17.8464C1.12676 18.9993 1.7344 20.066 2.5284 20.9874C3.48416 22.0131 4.67795 22.7876 6.0042 23.2422C7.374 23.7144 8.853 23.9406 11.7342 24.0006H12.2652C15.1452 23.9406 16.626 23.7144 17.9958 23.2422C19.3219 22.7873 20.5156 22.0129 21.4716 20.9874C22.2654 20.0659 22.873 18.9992 23.2608 17.8464C23.7173 16.4013 23.9599 14.8972 23.9808 13.3818C24 12.7866 24 12.7044 24 12.0018C24 11.2992 24 11.2146 23.9808 10.6188C23.9599 9.10364 23.7173 7.5997 23.2608 6.1548C22.8727 5.00216 22.2651 3.93555 21.4716 3.0138C20.5157 1.98805 19.322 1.21345 17.9958 0.7584C16.626 0.2862 15.147 0.0594 12.2652 0H11.9994Z" fill="white"/>
</mask>
<g mask="url(#mask0_266_46874)">
<path d="M38.7307 15.5088H-2.41553V24.3186H38.7307V15.5088Z" fill="#D81E05"/>
<path d="M38.7307 -0.153564H-2.41553V8.65623H38.7307V-0.153564Z" fill="white"/>
<path d="M38.7306 8.00342H-2.41504V16.161H38.7306V8.00342Z" fill="#0051BA"/>
<path d="M4.14496 5.59863C3.65236 5.63583 3.78976 6.23403 3.73036 6.57303C3.55456 8.91303 3.31396 11.3274 4.03036 13.6068C4.6411 15.4375 5.9033 16.9798 7.57696 17.9406C7.96255 18.1985 8.37798 18.4086 8.81416 18.5664C9.27164 18.3988 9.70752 18.1772 10.1126 17.9064C11.7572 16.9436 12.9961 15.4161 13.5986 13.608C14.3246 11.2908 14.066 8.83683 13.8908 6.45903C13.8644 6.13083 13.9142 5.56323 13.43 5.59983L4.14496 5.59863Z" fill="white"/>
<path d="M13.4844 5.96655H4.14481C3.77041 10.9196 3.15121 15.4598 8.81401 18.2006C14.4768 15.4598 13.8576 10.9196 13.4844 5.96655Z" fill="#D81E05"/>
<path d="M11.7779 10.292C11.1904 10.4238 10.5917 10.4987 9.98987 10.5157H9.32987V9.31995H9.47327C10.0748 9.33679 10.6732 9.41235 11.2601 9.54555C11.0872 9.06646 11.0872 8.54204 11.2601 8.06295C10.6732 8.19566 10.0748 8.27101 9.47327 8.28795H9.32987V8.20995C9.3472 7.61183 9.42276 7.01682 9.55547 6.43335C9.07401 6.60555 8.54774 6.60555 8.06627 6.43335C8.19899 7.01682 8.27455 7.61183 8.29187 8.20995V8.28795H8.14967C7.54818 8.2712 6.94975 8.19584 6.36287 8.06295C6.5357 8.54204 6.5357 9.06646 6.36287 9.54555C6.94967 9.41216 7.54813 9.3366 8.14967 9.31995H8.29187V10.5157H7.63787C7.03647 10.4987 6.4381 10.4238 5.85107 10.292C6.02326 10.7707 6.02326 11.2946 5.85107 11.7734C6.43789 11.64 7.03634 11.5645 7.63787 11.5478H8.29487V15.7891H9.33287V11.5465H9.99287C10.5948 11.5633 11.1937 11.6388 11.7809 11.7721C11.6069 11.2937 11.6069 10.7692 11.7809 10.2907" fill="white"/>
<path d="M12.3822 15.1579C12.381 14.915 12.3071 14.6779 12.17 14.4773C12.0329 14.2767 11.8389 14.1218 11.6129 14.0325C11.3869 13.9432 11.1394 13.9237 10.9022 13.9763C10.665 14.029 10.4491 14.1516 10.2822 14.3281C10.1862 14.013 9.99158 13.7371 9.72691 13.541C9.46224 13.3449 9.14156 13.239 8.81216 13.239C8.48276 13.239 8.16208 13.3449 7.89741 13.541C7.63274 13.7371 7.43808 14.013 7.34216 14.3281C7.1754 14.1523 6.95981 14.0303 6.72316 13.9781C6.4865 13.9258 6.23961 13.9455 6.01429 14.0348C5.78897 14.1241 5.59552 14.2788 5.45887 14.4789C5.32223 14.6791 5.24863 14.9156 5.24756 15.1579C5.24906 15.2078 5.25387 15.2575 5.26196 15.3067C5.32196 15.3961 5.39336 15.4819 5.45936 15.5695H5.45276C5.48756 15.6157 5.52716 15.6613 5.56316 15.7075C5.59916 15.7537 5.64656 15.8137 5.68976 15.8659C6.5507 16.8584 7.61467 17.6546 8.80976 18.2005C10.0017 17.6594 11.0638 16.8691 11.9244 15.8827C11.9844 15.8131 12.039 15.7411 12.0942 15.6703C12.1206 15.6361 12.1494 15.6031 12.1752 15.5695H12.1704C12.237 15.4807 12.3078 15.3937 12.369 15.3037C12.3775 15.2556 12.3828 15.2068 12.3846 15.1579" fill="#0051BA"/>
<path d="M12.2559 0.5L13.2637 0.530273C15.4684 0.619079 16.697 0.839345 17.835 1.23047V1.22949C19.0766 1.65684 20.1941 2.38274 21.0908 3.3418H21.0918C21.7493 4.10497 22.2721 4.97309 22.6387 5.90918L22.7861 6.31543C23.2262 7.7108 23.4605 9.16294 23.4805 10.626V10.6357C23.5 11.224 23.5 11.303 23.5 12.002C23.5 12.3515 23.5005 12.5457 23.498 12.7256L23.4805 13.3662V13.376C23.4605 14.8393 23.2263 16.2918 22.7861 17.6875C22.4201 18.7753 21.8475 19.7819 21.0996 20.6523C20.2008 21.6149 19.0796 22.342 17.834 22.7695H17.833C16.5344 23.2165 15.1146 23.4404 12.2559 23.5H11.7451C9.24305 23.4484 7.84375 23.2709 6.66309 22.9277L6.16797 22.7695C4.92609 22.3434 3.80733 21.6196 2.91016 20.6611C2.15756 19.788 1.58086 18.7771 1.21289 17.6846C0.773039 16.2889 0.539716 14.8363 0.519531 13.373L0.518555 13.3643L0.501953 12.7246C0.499596 12.5447 0.5 12.3503 0.5 12C0.5 11.2991 0.499793 11.2226 0.520508 10.6348V10.624C0.540743 9.16075 0.774933 7.70817 1.21484 6.3125C1.53675 5.35765 2.01804 4.46553 2.63672 3.67285L2.91016 3.33887C3.75105 2.44042 4.78641 1.74782 5.93555 1.31348L6.16797 1.23047C7.30423 0.839396 8.5336 0.619085 10.7383 0.530273L11.7451 0.5H12.2559Z" stroke="#F6F6F6"/>
</g>
</g>
<defs>
<clipPath id="clip0_266_46874">
<rect width="24" height="24.0006" fill="white"/>
</clipPath>
</defs>
</svg>
