<svg width="24" height="24" viewBox="0 0 24 24" fill="none" xmlns="http://www.w3.org/2000/svg">
<g clip-path="url(#clip0_266_45509)">
<mask id="mask0_266_45509" style="mask-type:luminance" maskUnits="userSpaceOnUse" x="0" y="0" width="24" height="25">
<path d="M12.0003 0H11.7351C8.85486 0.060012 7.37455 0.286257 6.00405 0.757952C4.67789 1.21305 3.48409 1.98758 2.52799 3.0132C1.73466 3.93506 1.12707 5.00165 0.738655 6.15423C0.28213 7.59963 0.0395427 9.10407 0.0186009 10.6197C-4.8954e-07 11.215 0 11.2979 0 12C0 12.7021 -4.8954e-07 12.788 0.0186009 13.3833C0.0395478 14.8985 0.282137 16.4026 0.738655 17.8476C1.12679 19.0003 1.73442 20.0669 2.52799 20.9886C3.48402 22.0146 4.67781 22.7895 6.00405 23.2451C7.37455 23.7155 8.85306 23.9424 11.7351 24.0018H12.2661C15.1463 23.9418 16.6266 23.7155 17.9966 23.2451C19.3229 22.7897 20.5167 22.0147 21.4726 20.9886C22.2661 20.0679 22.8736 19.002 23.2613 17.85C23.7179 16.4058 23.9605 14.9026 23.9814 13.3881C24 12.7928 24 12.7099 24 12.0048C24 11.2997 24 11.2174 23.9814 10.6245C23.9607 9.10885 23.7181 7.60437 23.2613 6.15903C22.8734 5.00624 22.2658 3.93956 21.472 3.018C20.516 1.99225 19.3222 1.2177 17.996 0.762753C16.6266 0.286257 15.1475 0.0594119 12.2661 0H12.0003Z" fill="white"/>
</mask>
<g mask="url(#mask0_266_45509)">
<path fill-rule="evenodd" clip-rule="evenodd" d="M11.9205 11.2671C11.7849 11.4763 11.6997 11.7141 11.6715 11.9617C11.6433 12.2094 11.6728 12.4603 11.7579 12.6946C11.8001 12.7425 11.8543 12.7783 11.9149 12.7983C11.9756 12.8183 12.0404 12.8219 12.1029 12.8086C12.1933 12.7372 12.2624 12.6424 12.3027 12.5345C12.343 12.4266 12.353 12.3097 12.3315 12.1965C12.2679 12.0963 12.2181 12.0801 12.1545 12.1653C12.0201 12.4384 11.9631 12.2512 11.9523 12.0987C11.9365 11.8421 11.949 11.5846 11.9895 11.3307C12.0225 11.1135 11.9895 11.1795 11.9205 11.2671Z" fill="white"/>
<path d="M33.033 -0.0546875H-9.02112V24.4602H33.033V-0.0546875Z" fill="#3D9635"/>
<path fill-rule="evenodd" clip-rule="evenodd" d="M4.29634 7.73599C4.26093 8.22143 4.21713 9.07709 4.63116 9.1653C5.131 9.2133 4.85498 8.31983 5.03619 8.15722C5.07039 8.07862 5.134 8.07682 5.1388 8.17882V8.93608C5.13519 9.02128 5.16164 9.10503 5.21352 9.17271C5.2654 9.24038 5.33941 9.28767 5.42262 9.30631C5.55283 9.29611 5.64104 9.30031 5.69264 9.42632L5.75264 10.738C5.75264 10.738 6.05687 10.8262 6.07127 10.0012C6.04041 9.67471 6.02999 9.34664 6.04007 9.01889C6.04007 8.92528 6.16008 8.91988 6.24228 8.96548C6.37309 9.05669 6.4313 9.1713 6.63471 9.1263C6.94373 9.04109 7.12855 8.88988 7.13455 8.65346C7.12479 8.42147 7.07716 8.19263 6.99354 7.97601C7.00674 7.93581 6.93353 7.8302 6.94673 7.78879C7.00254 7.8764 7.08715 7.8692 7.10635 7.78879C7.07219 7.62324 6.97711 7.47655 6.83993 7.37776C6.73012 7.28236 6.56991 7.30156 6.5111 7.50257C6.50412 7.76808 6.59366 8.02711 6.76312 8.23163C6.81672 8.34511 6.83889 8.47089 6.82733 8.59586C6.78645 8.6206 6.73784 8.62926 6.69093 8.62017C6.64403 8.61107 6.60218 8.58487 6.57351 8.54665C6.57351 8.54665 6.32689 8.36244 6.32689 8.32164C6.39169 7.9016 6.34249 7.8572 6.30469 7.74019C6.27948 7.58058 6.20328 7.53018 6.14267 7.41977C6.08267 7.35496 5.99746 7.35496 5.95846 7.41977C5.87119 7.67161 5.87887 7.94665 5.98006 8.19323C6.03707 8.36064 6.12287 8.46505 6.08327 8.46505C6.04847 8.55925 5.97886 8.53885 5.92846 8.42844C5.86791 8.19656 5.83865 7.95763 5.84145 7.71799C5.81925 7.53138 5.79525 7.13235 5.67224 7.03094C5.59783 6.92833 5.48682 6.97873 5.44662 7.07114C5.43668 7.25239 5.44069 7.43414 5.45862 7.61478C5.53112 7.90058 5.58206 8.19142 5.61103 8.48485C5.62244 8.89768 5.37102 8.66486 5.38482 8.46025C5.43784 8.19954 5.43457 7.93052 5.37522 7.67119C5.33501 7.56558 5.28761 7.54038 5.1892 7.55838C5.1106 7.55238 4.90898 7.77199 4.85258 8.13682C4.82334 8.25393 4.80031 8.37251 4.78357 8.49205C4.75537 8.67986 4.63176 8.81247 4.54355 8.46505C4.46795 8.21243 4.42415 7.59018 4.29634 7.73599Z" fill="white"/>
<path fill-rule="evenodd" clip-rule="evenodd" d="M5.65598 9.73077C5.21495 9.94618 4.78771 10.1472 4.35388 10.3554C4.43678 10.1377 4.57582 9.9458 4.75688 9.79921C4.93793 9.65261 5.15456 9.55654 5.38476 9.52075C5.65178 9.52855 5.58457 9.62456 5.65598 9.73077Z" fill="white"/>
<path fill-rule="evenodd" clip-rule="evenodd" d="M7.31875 6.97754C7.29354 6.98114 7.26594 6.99554 7.23414 7.00334C7.20264 7.01176 7.17312 7.02632 7.14727 7.0462C7.12142 7.06607 7.09976 7.09086 7.08353 7.11914C7.0673 7.14742 7.05683 7.17863 7.05271 7.21097C7.04859 7.24332 7.0509 7.27616 7.05953 7.3076C7.18433 8.06976 7.26774 8.65127 7.39315 9.41523C7.41235 9.50464 7.33735 9.62347 7.24014 9.61087C7.07633 9.49984 7.03612 9.2736 6.7547 9.2844C6.64167 9.29948 6.53619 9.34953 6.45302 9.42755C6.36984 9.50556 6.31315 9.60764 6.29087 9.71949C6.25062 9.88349 6.25062 10.0548 6.29087 10.2188C6.34612 10.2845 6.42072 10.3311 6.50401 10.3519C6.58731 10.3727 6.67505 10.3666 6.7547 10.3346C6.87831 10.2836 6.97972 10.1612 7.02292 10.1894C7.04933 10.2356 7.01872 10.6341 6.44208 10.9407C6.08625 11.0992 5.80423 11.137 5.65182 10.8477C5.55761 10.6677 5.65962 9.97694 5.4274 10.1366C4.74035 11.9039 7.03492 12.15 7.28754 10.2086C7.30434 10.154 7.35595 10.0994 7.39255 10.1126C7.40755 10.1192 7.42135 10.1402 7.42675 10.1792C7.37275 11.9387 5.65242 12.0576 5.3596 11.5048C5.29067 11.3147 5.25672 11.1136 5.25939 10.9113C5.25766 10.8415 5.23251 10.7743 5.18799 10.7205C5.11898 10.6695 5.02417 10.8051 5.00437 11.0428C4.98291 11.1841 4.97587 11.3273 4.98337 11.47C5.07518 12.8587 7.29054 12.261 7.64997 11.1142C7.72203 10.7538 7.74224 10.385 7.70997 10.0189H7.71537C7.93799 10.2548 8.24521 10.049 8.31542 9.96794C8.32362 9.95584 8.33439 9.94569 8.34695 9.93822C8.35951 9.93075 8.37356 9.92613 8.38811 9.9247C8.40266 9.92327 8.41734 9.92506 8.43111 9.92993C8.44489 9.93481 8.45743 9.94267 8.46783 9.95293C8.51124 9.98413 8.56115 10.0051 8.61381 10.0142C8.66647 10.0234 8.72052 10.0205 8.7719 10.0058C8.82329 9.99103 8.87067 9.96486 8.9105 9.92921C8.95032 9.89356 8.98156 9.84935 9.00187 9.7999C9.04191 9.58185 9.06677 9.36127 9.07628 9.13977C8.99055 9.15638 8.90897 9.18983 8.83626 9.23819C8.82782 9.24679 8.82199 9.25761 8.81946 9.2694C8.81046 9.33241 8.80026 9.39542 8.79066 9.45964C8.78977 9.46426 8.78815 9.46872 8.78586 9.47284C8.78007 9.48106 8.77248 9.48783 8.76365 9.49264C8.72465 9.51305 8.65685 9.50104 8.65265 9.44343C8.59984 9.20338 8.38022 9.16978 8.24761 9.54485C8.15821 9.61687 7.995 9.63067 7.97879 9.52265C8.0004 9.2718 7.89959 9.23819 7.69677 9.35702C7.63137 8.85832 7.56656 8.38482 7.50056 7.88732C7.58577 7.88432 7.66317 7.94733 7.74058 7.84951C7.66717 7.5517 7.54556 7.2679 7.38055 7.00935C7.37626 7.00426 7.37165 6.99944 7.36675 6.99494L7.35955 6.99014L7.35295 6.98594C7.34904 6.98438 7.34523 6.98257 7.34155 6.98054C7.3322 6.97912 7.32269 6.97912 7.31334 6.98054M6.7001 9.70689C6.72595 9.70345 6.75218 9.70928 6.77415 9.72334C6.79612 9.7374 6.8124 9.75878 6.82011 9.7837C6.82857 9.80562 6.83092 9.82942 6.82691 9.85257C6.82289 9.87572 6.81266 9.89734 6.79731 9.91513C6.7811 9.93793 6.7199 9.92833 6.6773 9.92833C6.65598 9.93036 6.63451 9.9263 6.6154 9.91664C6.59629 9.90697 6.5803 9.89209 6.56929 9.87372C6.55429 9.82631 6.59929 9.7807 6.61849 9.74589C6.62063 9.74131 6.6237 9.73723 6.62749 9.73389C6.64852 9.71766 6.67327 9.70693 6.6995 9.70269" fill="white"/>
<path fill-rule="evenodd" clip-rule="evenodd" d="M8.86023 6.93673C8.80592 6.93979 8.75291 6.95452 8.70482 6.97994C8.64953 7.02738 8.61379 7.09362 8.60448 7.16587C8.59517 7.23812 8.61296 7.31126 8.65441 7.37117C8.74142 7.41137 8.82783 7.49958 8.76962 7.55118C8.5236 7.8146 7.88275 8.25323 7.85095 8.33124V8.33424V8.33724C8.01024 8.35877 8.1717 8.35877 8.33099 8.33724C8.61654 8.09391 8.88128 7.82716 9.12245 7.53978C9.08944 7.51098 9.05824 7.48937 9.02344 7.46057C8.98864 7.43177 8.99104 7.40057 9.02344 7.36637C9.054 7.34426 9.07931 7.31569 9.09759 7.28269C9.11586 7.2497 9.12664 7.21308 9.12916 7.17545C9.13168 7.13781 9.12588 7.10009 9.11217 7.06495C9.09846 7.02981 9.07718 6.99812 9.04984 6.97214C8.98882 6.9432 8.92172 6.92941 8.85423 6.93193M8.82362 7.16295C8.84838 7.16488 8.87205 7.17388 8.89184 7.18888C8.91163 7.20388 8.92669 7.22425 8.93523 7.24756C8.96163 7.30336 8.94783 7.35677 8.90763 7.36757C8.86743 7.37837 8.81222 7.33996 8.78762 7.28536C8.76302 7.23076 8.77622 7.17675 8.81642 7.16535C8.81899 7.16474 8.82166 7.16474 8.82422 7.16535" fill="white"/>
<path fill-rule="evenodd" clip-rule="evenodd" d="M14.8564 10.3581C14.62 9.84989 14.2924 9.34645 14.188 9.15384C14.0836 8.96122 13.2969 7.81814 13.1805 7.69033C12.9255 7.3867 13.5963 7.81694 13.0947 7.21389C12.9051 7.05128 12.8943 7.04108 12.7347 6.90847C12.6555 6.84846 12.4599 6.74766 12.4251 6.91927C12.4093 7.03941 12.4156 7.16141 12.4437 7.2793C12.4951 7.39104 12.5631 7.4944 12.6453 7.58592C13.4805 8.68858 14.213 9.86538 14.8336 11.1016C14.941 11.05 14.9176 10.4415 14.8552 10.3593" fill="white"/>
<path fill-rule="evenodd" clip-rule="evenodd" d="M13.8178 12.0624C13.7704 12.1134 13.9318 12.3378 14.1412 12.3372C14.3504 12.3031 14.5474 12.2157 14.713 12.0833C14.8786 11.951 15.0074 11.7782 15.0869 11.5817C15.203 11.4078 15.2766 11.209 15.3017 11.0014C15.338 10.0154 15.2591 9.02847 15.0665 8.06077C15.0562 7.99236 15.0596 7.92258 15.0767 7.85553C15.0989 7.82853 15.1763 7.85553 15.2171 7.78832C15.2771 7.72831 15.0581 7.21941 14.9333 7.02557C14.8889 6.93735 14.8733 6.88034 14.7994 7.03577C14.711 7.20656 14.6686 7.39748 14.6764 7.58968C14.8438 8.74671 14.8955 9.75912 15.0059 10.9173C15.0236 11.037 14.9939 11.1589 14.9231 11.257C14.6157 11.6004 14.239 11.8753 13.8178 12.0624Z" fill="white"/>
<path fill-rule="evenodd" clip-rule="evenodd" d="M18.5564 12.0545C18.3038 12.2003 18.3038 12.3671 18.5078 12.3737C18.7105 12.3815 18.9122 12.34 19.0953 12.2526C19.2784 12.1652 19.4376 12.0346 19.5591 11.872C19.6588 11.6698 19.7168 11.4496 19.7295 11.2245C19.779 10.1616 19.7158 9.09646 19.541 8.04687C19.5203 7.94815 19.5091 7.84767 19.5074 7.74681C19.5302 7.68679 19.6437 7.75401 19.6875 7.68679C19.7475 7.62678 19.391 7.16889 19.2674 6.97325C19.2224 6.88683 19.2074 6.82862 19.1336 6.98465C19.0516 7.15657 19.0261 7.35009 19.061 7.53736C19.2495 8.72537 19.3673 9.92352 19.4138 11.1255C19.4037 11.2267 19.3805 11.3261 19.3448 11.4213C19.2448 11.5674 19.1289 11.7018 18.9992 11.8222C18.8852 11.9074 18.6392 11.9891 18.5624 12.0515" fill="white"/>
<path fill-rule="evenodd" clip-rule="evenodd" d="M18.7454 10.9269C18.7454 10.6334 18.7496 10.3796 18.7394 10.16C18.7292 9.9404 18.629 9.11773 18.596 8.94132C18.563 8.76491 18.5294 8.49669 18.476 8.28607C18.4507 8.16376 18.436 8.03949 18.4322 7.91464C18.4532 7.85464 18.5312 7.91464 18.5702 7.84744C18.5258 7.52008 18.4127 7.20579 18.2384 6.92517C18.1916 6.83876 18.1051 6.86517 17.9983 7.00798C17.8999 7.09978 17.9383 7.308 17.9743 7.50721C18.2484 8.80155 18.3818 10.1217 18.3722 11.4447C18.3596 11.5515 18.743 11.1285 18.7412 10.9269" fill="white"/>
<path fill-rule="evenodd" clip-rule="evenodd" d="M16.8852 9.30109C16.7262 9.29749 16.395 8.99207 16.2978 8.81445C16.2832 8.77178 16.2775 8.72658 16.2809 8.68161C16.2843 8.63664 16.2968 8.59283 16.3176 8.55283C16.3776 8.51503 16.4664 8.47243 16.5336 8.51383C16.5336 8.51383 16.6032 8.61044 16.59 8.62424C16.6764 8.66384 16.713 8.64104 16.722 8.60504C16.728 8.54503 16.6956 8.50783 16.6956 8.43943C16.6998 8.40339 16.7145 8.36937 16.7379 8.34163C16.7612 8.31388 16.7923 8.29363 16.8271 8.28339C16.8619 8.27315 16.8989 8.27339 16.9336 8.28406C16.9683 8.29473 16.999 8.31538 17.0221 8.34342C17.0773 8.44375 17.1076 8.55593 17.1103 8.67044C17.1103 8.72325 17.0233 8.66084 16.9759 8.67044C16.9285 8.68004 16.9159 8.73945 16.9123 8.79045C16.9033 8.92366 16.8876 9.13668 16.8852 9.29929" fill="white"/>
<path fill-rule="evenodd" clip-rule="evenodd" d="M13.9606 11.2547C13.9798 10.771 13.973 10.2866 13.9402 9.80359C13.9252 9.24608 13.8328 8.17187 13.7902 7.99183C13.7416 7.65276 13.9294 8.02784 13.9042 7.8316C13.8174 7.50696 13.6566 7.20686 13.4344 6.95482C13.3642 6.854 13.366 6.8348 13.2544 6.97883C13.1814 7.20043 13.1863 7.4403 13.2682 7.65877C13.4187 8.31009 13.5176 8.97228 13.564 9.63916C13.611 10.3374 13.6169 11.0377 13.5814 11.7366C13.7014 11.742 13.8916 11.5445 13.9588 11.2565" fill="white"/>
<path fill-rule="evenodd" clip-rule="evenodd" d="M19.283 10.6138C19.001 10.147 18.5809 9.59735 18.4711 9.40953C18.3613 9.22172 17.4054 7.82601 17.2848 7.7024C16.9362 7.33818 17.4444 7.6424 17.2188 7.36038C17.0955 7.21271 16.9576 7.07782 16.8072 6.95775C16.7244 6.90555 16.6752 6.80474 16.6482 6.97695C16.6337 7.1281 16.6297 7.28008 16.6362 7.43178C16.6564 7.53677 16.7038 7.63462 16.7736 7.71561C17.7111 8.85213 18.5492 10.0671 19.2788 11.3471C19.3856 11.2913 19.3502 10.693 19.283 10.6108" fill="white"/>
<path fill-rule="evenodd" clip-rule="evenodd" d="M15.9017 16.1396C15.8545 16.1475 15.8109 16.1697 15.7767 16.2031C15.7426 16.2366 15.7195 16.2798 15.7107 16.3268C15.7018 16.3738 15.7076 16.4223 15.7273 16.4659C15.747 16.5095 15.7796 16.546 15.8207 16.5705C13.2135 16.5705 9.2118 16.5261 8.35373 16.5261C7.8737 16.5261 6.35558 16.4697 6.32678 16.4697C6.49114 16.6816 6.70811 16.8469 6.95612 16.949C7.20413 17.0511 7.47455 17.0865 7.74049 17.0517C8.89918 17.0517 14.2648 17.0379 15.7913 17.0379C15.7532 17.1305 15.7419 17.232 15.7589 17.3308C15.7759 17.4295 15.8204 17.5214 15.8873 17.596L15.8927 17.6002L15.9035 17.6038H15.9065C16.0085 17.6284 16.0529 17.5552 16.0865 17.5024C16.4767 17.5235 16.8677 17.5235 17.2578 17.5024C17.3142 17.5846 17.3712 17.6644 17.4798 17.6512C17.67 17.6092 17.8194 17.5912 17.8248 17.2029C17.8248 17.2029 17.8062 16.5429 17.373 16.5867C17.271 16.6029 16.9848 16.6305 16.9848 16.6305C16.6524 16.5915 16.4081 16.5879 16.0355 16.5705C16.0697 16.5273 16.1297 16.3509 16.0565 16.2861C16.0438 16.2768 16.0293 16.2701 16.014 16.2664C15.9986 16.2626 15.9827 16.262 15.9671 16.2645H15.9629H15.9587L15.9521 16.2573H15.9491C15.9311 16.2303 15.9203 16.1631 15.9083 16.1456H15.9047H15.9017V16.1396ZM16.0817 17.0793C16.4615 17.0979 16.8192 17.0829 17.1996 17.1015C17.2228 17.1282 17.2348 17.1628 17.2331 17.1981C17.2314 17.2334 17.2162 17.2668 17.1906 17.2911L17.1834 17.2947H17.1744C17.0496 17.2905 16.9788 17.2869 16.8546 17.2851C16.8552 17.2788 16.8552 17.2723 16.8546 17.2659C16.8252 17.1795 16.6146 17.1855 16.5624 17.2527V17.2569V17.2623L16.5588 17.2683V17.2773V17.2881C16.3971 17.2976 16.2349 17.2936 16.0739 17.2761C16.0253 17.2161 16.0307 17.1057 16.0877 17.0793" fill="white"/>
<path fill-rule="evenodd" clip-rule="evenodd" d="M9.30422 7.3351C9.05041 8.06116 9.45003 8.85562 9.72426 8.77521C9.92407 8.85682 10.0513 8.47519 10.1335 8.06056C10.1899 7.94415 10.2319 7.93155 10.2601 7.99095C10.2535 8.54599 10.3003 8.6684 10.4401 8.83581C10.5224 8.90873 10.6281 8.94993 10.738 8.95202C10.848 8.9541 10.9551 8.91695 11.0402 8.84722L11.2874 8.5988C11.314 8.57082 11.3505 8.55426 11.3891 8.55258C11.4277 8.5509 11.4654 8.56424 11.4944 8.5898C11.5694 8.6582 11.5592 8.77701 11.7206 8.85862C11.805 8.88696 11.8954 8.89228 11.9825 8.87403C12.0696 8.85578 12.1503 8.81463 12.2162 8.75481C12.3069 8.5982 12.3291 8.54599 12.3699 8.48599C12.4359 8.40078 12.5451 8.43859 12.5451 8.46679C12.5355 8.51359 12.4707 8.56159 12.5139 8.6468C12.5913 8.70681 12.6105 8.6672 12.6549 8.654C12.8163 8.5778 12.9381 8.22677 12.9381 8.22677C12.9447 8.09596 12.8715 8.10676 12.8235 8.13376C12.7635 8.17157 12.7587 8.18357 12.6957 8.22257C12.6171 8.23457 12.4647 8.28557 12.3885 8.16917C12.3342 8.01181 12.2887 7.85155 12.2522 7.68913C12.2522 7.67893 12.149 7.46531 12.2444 7.45331C12.2924 7.45991 12.3951 7.48811 12.4107 7.40291C12.4623 7.3165 12.3033 7.07948 12.1952 6.95887C12.174 6.93337 12.1476 6.91265 12.1178 6.89811C12.0879 6.88356 12.0553 6.87551 12.0222 6.87449C11.989 6.87347 11.956 6.8795 11.9253 6.89219C11.8946 6.90487 11.867 6.92392 11.8442 6.94807C11.756 7.02908 11.7692 7.12029 11.7512 7.20609C11.7367 7.26691 11.7367 7.33028 11.751 7.39113C11.7654 7.45197 11.7938 7.50861 11.834 7.55652C11.9818 7.76268 12.0512 8.01482 12.0296 8.26757C12.0018 8.30973 11.9633 8.34383 11.9182 8.36647C11.873 8.38911 11.8227 8.39949 11.7722 8.39658C11.7044 8.38158 11.5922 8.35218 11.5322 7.91655C11.5441 7.57595 11.5005 7.23568 11.4032 6.90907C11.3522 6.77826 11.3162 6.65165 11.1926 6.87547C11.1397 6.94516 11.1053 7.02713 11.0927 7.1137C11.0801 7.20028 11.0897 7.28864 11.1206 7.37051C11.2152 7.61524 11.2428 7.88081 11.2004 8.13976C11.1569 8.21379 11.1073 8.28404 11.0522 8.34978C11.0139 8.39352 10.961 8.42188 10.9034 8.42961C10.8458 8.43733 10.7874 8.42389 10.7389 8.39178C10.6879 8.36721 10.644 8.33021 10.611 8.28417C10.5781 8.23814 10.5573 8.18455 10.5505 8.12836C10.5747 7.8446 10.565 7.55898 10.5217 7.2775C10.5127 7.25278 10.4976 7.23078 10.4776 7.2136C10.4577 7.19643 10.4337 7.18466 10.4079 7.17942C10.3822 7.17418 10.3555 7.17565 10.3304 7.18368C10.3054 7.19171 10.2828 7.20604 10.2649 7.22529C10.0218 7.495 9.85959 7.82773 9.79686 8.18537C9.72486 8.41758 9.64745 8.35158 9.59345 8.25857C9.46204 8.13496 9.45363 7.17309 9.29342 7.3303" fill="white"/>
<path fill-rule="evenodd" clip-rule="evenodd" d="M10.1611 8.83496L10.1545 8.83916H10.1515C10.1341 8.85116 10.1131 8.88056 10.0699 8.91177C9.99491 8.99637 9.9823 9.05458 9.9859 9.22499C9.99071 9.24299 10.1275 9.62342 10.2445 9.89104C10.342 10.1804 10.3751 10.4876 10.3417 10.7911C10.1416 11.1919 9.82493 11.5229 9.43326 11.7404C9.37348 11.767 9.30878 11.7807 9.24335 11.7807C9.17792 11.7807 9.11322 11.767 9.05343 11.7404C9.01907 11.7163 8.99162 11.6836 8.97383 11.6456C8.95603 11.6076 8.94852 11.5656 8.95203 11.5238C9.34761 11.3129 9.66704 10.9832 9.8653 10.5811C9.95596 10.3651 9.96492 10.1234 9.8905 9.90124C9.86853 9.78433 9.81476 9.67575 9.73509 9.58742C9.78489 9.56402 9.9181 9.66182 9.9391 9.60062C9.89855 9.41927 9.80791 9.25295 9.67748 9.12058C9.65824 9.09734 9.63442 9.07832 9.6075 9.06469C9.58058 9.05106 9.55114 9.04313 9.52102 9.04138C9.4909 9.03964 9.46074 9.04412 9.43243 9.05454C9.40412 9.06497 9.37825 9.08112 9.35646 9.10198C9.24545 9.16199 9.22205 9.3828 9.27545 9.57602C9.33546 9.72123 9.49387 9.74523 9.60728 10.0387C9.60728 10.0567 9.64568 10.2565 9.58808 10.3387C9.38889 10.5819 9.15872 10.7979 8.90342 10.9813V10.9843C8.90342 10.9729 8.90342 10.9423 8.90342 10.8943C8.89982 10.8061 8.93523 10.6075 8.93163 10.5733C8.73481 10.7017 8.67121 11.0905 8.6346 11.2051C8.14354 11.4798 7.67805 11.7979 7.2437 12.1556C7.07329 12.4214 8.41379 11.8514 8.5698 11.7818L8.574 11.786C8.6034 11.819 8.6064 11.9324 8.69401 12.0344C8.77981 12.1372 8.89296 12.2137 9.02039 12.2549C9.14782 12.2961 9.2843 12.3004 9.41406 12.2672C9.84231 12.0897 10.2069 11.7868 10.4599 11.3984C10.4995 11.3383 10.5637 11.2945 10.622 11.3383C10.7765 11.5889 10.9957 11.7932 11.2565 11.9297C11.5173 12.0663 11.8101 12.13 12.1041 12.1142C12.2727 11.9108 12.1923 11.8106 12.1245 11.768C12.1041 11.7542 11.7644 11.621 11.711 11.4896C11.6774 11.3654 11.7578 11.2579 11.9198 11.1763C12.3832 11.1326 12.8413 11.0448 13.288 10.9141C13.3055 10.7493 13.357 10.59 13.4392 10.4461C13.457 10.412 13.4835 10.3832 13.516 10.3627C13.5168 10.3589 13.5168 10.355 13.516 10.3513L13.4404 10.3063L11.9529 10.3015C11.9385 10.2954 11.9246 10.2882 11.9114 10.2799V10.2763V10.2697V10.2655C11.9256 10.2535 11.9419 10.2444 11.9595 10.2385C12.3147 10.1911 12.9459 10.0873 12.9885 9.48121C13.0006 9.40891 12.9965 9.33485 12.9767 9.26429C12.9569 9.19374 12.9217 9.12842 12.8738 9.07299C12.8258 9.01757 12.7662 8.97339 12.6993 8.94362C12.6323 8.91384 12.5596 8.8992 12.4863 8.90072C12.413 8.90225 12.341 8.91991 12.2753 8.95245C12.2096 8.98498 12.1519 9.0316 12.1063 9.08897C12.0607 9.14635 12.0283 9.21307 12.0114 9.28439C11.9946 9.35571 11.9936 9.42988 12.0087 9.50161C11.9955 9.58382 12.0369 9.74163 11.9529 9.76023C11.4062 9.81183 10.8086 10.1527 10.7894 10.3987H10.769C10.7425 10.3839 10.7211 10.3614 10.7078 10.3342C10.6945 10.3069 10.6899 10.2762 10.6946 10.2463C10.669 9.78851 10.5353 9.34332 10.3045 8.94717C10.2265 8.86976 10.1935 8.83916 10.1719 8.83496H10.1611ZM12.3363 9.378C12.3771 9.3772 12.4172 9.38802 12.4521 9.4092C12.4763 9.41957 12.4975 9.43609 12.5134 9.45715C12.5293 9.4782 12.5394 9.50304 12.5427 9.52921V9.53341V9.53881V9.54721C12.54 9.5507 12.537 9.55391 12.5337 9.55682C12.509 9.57158 12.4805 9.57857 12.4518 9.57685C12.4231 9.57514 12.3956 9.56481 12.3729 9.54721C12.3488 9.53644 12.3278 9.51982 12.3117 9.49886C12.2957 9.4779 12.2852 9.45327 12.2811 9.42721V9.4236C12.2821 9.41873 12.2839 9.41406 12.2865 9.4098V9.405C12.2884 9.40251 12.2906 9.40029 12.2931 9.3984C12.304 9.38997 12.3171 9.38495 12.3309 9.384M10.9466 10.6399H10.964C11.1691 10.6775 11.3766 10.7008 11.585 10.7095C11.7578 10.7221 11.8448 10.8577 11.6828 10.9135C11.5208 10.9693 11.3702 11.0113 11.3696 11.2411C11.39 11.3557 11.3864 11.4152 11.3696 11.4434L11.3648 11.4494H11.3618C11.3596 11.4513 11.3569 11.4528 11.354 11.4536H11.3492C11.3084 11.4596 11.2538 11.423 11.2124 11.4026C11.1018 11.3391 11.0072 11.2514 10.9355 11.146C10.8639 11.0406 10.8172 10.9202 10.799 10.7941C10.798 10.7732 10.8013 10.7522 10.8087 10.7326C10.8161 10.713 10.8274 10.6951 10.8419 10.6799C10.8565 10.6648 10.8739 10.6529 10.8933 10.6447C10.9126 10.6366 10.9334 10.6325 10.9544 10.6327" fill="white"/>
<path fill-rule="evenodd" clip-rule="evenodd" d="M6.17136 7.34403C6.34417 7.42564 6.6652 7.39023 6.65139 7.11361C6.65139 7.08901 6.64419 7.0074 6.64239 6.9852C6.60759 6.9036 6.51218 6.9252 6.49058 7.00801C6.48338 7.03561 6.50198 7.08001 6.47678 7.09381C6.46358 7.10881 6.40778 7.10041 6.41078 7.02361C6.40742 6.99949 6.39768 6.9767 6.38257 6.9576C6.37108 6.95057 6.35755 6.94761 6.34417 6.9492C6.32137 6.9492 6.32137 6.9558 6.30817 6.9768C6.30091 6.99607 6.29646 7.01628 6.29497 7.03681C6.29137 7.06381 6.28177 7.07281 6.26137 7.07701C6.24096 7.08121 6.24396 7.08001 6.22596 7.06861C6.20796 7.05721 6.20136 7.05121 6.20136 7.03141C6.20178 7.00854 6.19812 6.98578 6.19056 6.9642C6.17981 6.95204 6.16518 6.94399 6.14916 6.9414C6.05555 6.9414 6.04895 7.04821 6.05435 7.08901C6.04775 7.09621 6.04295 7.28763 6.17016 7.34103" fill="white"/>
<path fill-rule="evenodd" clip-rule="evenodd" d="M11.1944 9.46847C11.3666 9.54948 11.7734 9.50268 11.6744 9.23866C11.6744 9.21346 11.6684 9.13065 11.6654 9.11025C11.6312 9.02804 11.5358 9.04724 11.5142 9.13245C11.5076 9.15885 11.5262 9.20445 11.5016 9.21826C11.4872 9.23266 11.432 9.22426 11.4344 9.14805C11.4311 9.12369 11.4209 9.10078 11.405 9.08205C11.3941 9.07459 11.3809 9.07119 11.3678 9.07244C11.3444 9.07244 11.3444 9.07965 11.3324 9.10065C11.3241 9.1209 11.3192 9.1424 11.318 9.16425C11.3144 9.19065 11.3048 9.20145 11.285 9.20445C11.2652 9.20745 11.2682 9.20445 11.249 9.19665C11.2298 9.18885 11.225 9.17925 11.225 9.15825C11.2255 9.13557 11.2218 9.11299 11.2142 9.09165C11.2035 9.07898 11.1886 9.07065 11.1722 9.06824C11.0792 9.06824 11.0732 9.17625 11.078 9.21586C11.0714 9.22306 11.0672 9.41507 11.1944 9.46847Z" fill="white"/>
<path fill-rule="evenodd" clip-rule="evenodd" d="M14.1239 8.58697C14.2949 8.66978 14.6165 8.63377 14.6039 8.35895C14.6039 8.33375 14.5979 8.25215 14.5955 8.22934C14.5595 8.14774 14.4647 8.16934 14.4443 8.25215C14.4371 8.28035 14.4557 8.32475 14.4299 8.33795C14.4161 8.35175 14.3615 8.34335 14.3645 8.26715C14.3611 8.24318 14.3509 8.22069 14.3351 8.20234C14.3242 8.19426 14.3107 8.19081 14.2973 8.19274C14.2733 8.19274 14.2733 8.19994 14.2607 8.21974C14.2538 8.24036 14.2494 8.2617 14.2475 8.28335C14.2445 8.31095 14.2355 8.32055 14.2145 8.32475C14.1935 8.32895 14.1971 8.32775 14.1797 8.31515C14.1623 8.30255 14.1551 8.29955 14.1551 8.28035C14.155 8.25654 14.1513 8.23288 14.1443 8.21014C14.1328 8.19906 14.1184 8.19138 14.1029 8.18794C14.0087 8.18794 14.0021 8.29535 14.0075 8.33555C14.0003 8.34335 13.9973 8.53477 14.1245 8.58697" fill="white"/>
<path fill-rule="evenodd" clip-rule="evenodd" d="M15.6408 10.7962C15.5389 10.9426 15.4762 11.1128 15.4589 11.2904C15.4416 11.4679 15.4701 11.647 15.5418 11.8104C15.6102 11.9903 15.7412 12.1394 15.9108 12.2305C15.938 12.255 15.9701 12.2736 16.005 12.2849C16.0398 12.2962 16.0767 12.3 16.1131 12.296C16.1496 12.292 16.1848 12.2804 16.2164 12.2619C16.248 12.2433 16.2754 12.2183 16.2966 12.1885C16.4712 12.0084 16.4766 11.5415 16.5564 11.4497C16.5624 11.4207 16.5765 11.3939 16.5972 11.3727C16.6179 11.3514 16.6443 11.3366 16.6731 11.3299C16.702 11.3232 16.7322 11.3249 16.7601 11.3349C16.7881 11.3449 16.8125 11.3626 16.8307 11.3861C16.895 11.4767 16.9805 11.5503 17.0797 11.6003C17.1515 11.6727 17.2471 11.7165 17.3488 11.7236C17.4505 11.7306 17.5512 11.7005 17.6323 11.6387C17.7711 11.5606 17.8757 11.4335 17.9257 11.2823C17.9882 10.5838 17.9952 9.88145 17.9467 9.18186C17.9413 9.13265 17.7769 8.31888 17.7769 8.31048C17.7769 8.30208 17.7559 7.8952 17.7373 7.79858C17.7373 7.76017 17.7253 7.74817 17.7661 7.75297C17.7878 7.77539 17.814 7.79298 17.8429 7.80458C17.8867 7.81298 17.9257 7.73797 17.8993 7.66835C17.7625 7.4171 17.6263 7.16605 17.4907 6.9152C17.4583 6.8828 17.4157 6.84799 17.3635 6.9242C17.332 6.95224 17.3066 6.98649 17.2889 7.0248C17.2713 7.06312 17.2617 7.10467 17.2609 7.14685C17.2735 7.32689 17.3047 7.50692 17.3173 7.68696C17.3713 7.99122 17.4271 8.29728 17.4805 8.60334C17.5309 9.25627 17.5453 9.85399 17.5963 10.5069C17.5885 10.7836 17.5039 11.1521 17.4223 11.1863C17.4223 11.1863 17.2993 11.2565 17.2177 11.1779C17.104 11.0559 17.0034 10.9224 16.9177 10.7794C16.901 10.7564 16.8791 10.7378 16.8538 10.7249C16.8285 10.712 16.8005 10.7053 16.7722 10.7053C16.7438 10.7053 16.7158 10.712 16.6905 10.7249C16.6652 10.7378 16.6434 10.7564 16.6266 10.7794C16.4127 11.0763 16.2405 11.4012 16.1148 11.745C16.0722 11.8122 15.9534 11.8692 15.8214 11.7396C15.649 11.458 15.5851 11.1233 15.6414 10.798" fill="white"/>
<path fill-rule="evenodd" clip-rule="evenodd" d="M14.2006 6.9859C14.2816 7.04565 14.3451 7.12593 14.3847 7.21844C14.4242 7.31094 14.4384 7.41234 14.4257 7.51214C14.3957 7.69935 14.3147 7.90277 14.2553 7.87637C14.1958 7.84996 14.2997 7.68975 14.2378 7.51634C14.2042 7.40593 13.9978 7.20192 14.0164 7.14251C13.9726 7.0171 14.1052 6.9625 14.2006 6.9841" fill="white"/>
<path fill-rule="evenodd" clip-rule="evenodd" d="M16.1339 10.9811C16.147 10.7073 16.1366 10.4329 16.1027 10.1608C16.0925 9.94181 15.8543 8.16448 15.8063 8.00066C15.7463 7.68684 16.0385 7.95866 16.0061 7.77565C15.9059 7.54583 15.6557 7.2104 15.5777 7.01119C15.5303 6.92598 15.5501 6.84918 15.4445 6.98899C15.3533 7.23825 15.3209 7.5052 15.3497 7.76905C15.6459 9.00033 15.8039 10.2608 15.8207 11.5271C15.9407 11.5271 16.0775 11.2535 16.1357 10.9841" fill="white"/>
<path fill-rule="evenodd" clip-rule="evenodd" d="M18.7573 7.4306C18.8971 7.4996 18.9788 7.88903 18.9644 8.00064C18.935 8.20406 18.8617 8.42067 18.8083 8.39427C18.7549 8.36787 18.8191 8.09425 18.7915 8.00784C18.7603 7.88783 18.5701 7.66702 18.5905 7.60161C18.5817 7.57815 18.5798 7.55267 18.585 7.52816C18.5901 7.50365 18.6022 7.48111 18.6197 7.46317C18.6372 7.44524 18.6594 7.43265 18.6838 7.42689C18.7081 7.42112 18.7337 7.42241 18.7573 7.4306Z" fill="white"/>
<path fill-rule="evenodd" clip-rule="evenodd" d="M8.35682 10.2759C8.49063 10.3275 8.56984 10.6137 8.55424 10.6959C8.52844 10.8453 8.45643 11.0073 8.40603 10.9857C8.35562 10.9641 8.41683 10.7643 8.38982 10.7013C8.37962 10.5483 8.19361 10.4685 8.19781 10.4013C8.16181 10.2813 8.27462 10.2585 8.35682 10.2759Z" fill="white"/>
<path fill-rule="evenodd" clip-rule="evenodd" d="M4.77993 6.89345C4.97675 6.95345 4.98875 7.24208 4.97435 7.32788C4.94734 7.48209 4.87834 7.64891 4.82734 7.6279C4.77633 7.6069 4.82734 7.39809 4.79853 7.33268C4.77033 7.24028 4.60352 7.07406 4.62212 7.02366C4.58372 6.91985 4.69893 6.87425 4.77993 6.89345Z" fill="white"/>
<path fill-rule="evenodd" clip-rule="evenodd" d="M8.68026 8.26122C8.60506 8.30988 8.55124 8.38537 8.52972 8.47232C8.50821 8.55926 8.52063 8.65114 8.56445 8.72925C8.59286 8.7655 8.63151 8.79237 8.67537 8.80638C8.71924 8.8204 8.7663 8.82091 8.81047 8.80786C8.95928 8.82646 9.04689 8.52944 9.04689 8.52944C9.04689 8.52944 9.05109 8.44603 8.87467 8.60384C8.80087 8.61705 8.79187 8.59064 8.77266 8.54864C8.755 8.47055 8.76322 8.38884 8.79607 8.31582C8.82247 8.24322 8.76546 8.21021 8.68026 8.26122Z" fill="white"/>
<path fill-rule="evenodd" clip-rule="evenodd" d="M9.81606 6.78066C9.752 6.82516 9.69815 6.88281 9.65811 6.94975C9.61807 7.01669 9.59275 7.0914 9.58385 7.16889C9.57844 7.2715 9.55924 7.2715 9.62645 7.3363C9.67565 7.40531 9.72365 7.39631 9.82086 7.3489C9.84528 7.33326 9.86623 7.31279 9.88243 7.28874C9.89863 7.2647 9.90974 7.23759 9.91507 7.20909C9.93907 7.09448 9.79506 7.2649 9.77346 7.13649C9.74166 7.01648 9.83346 6.96728 9.92407 6.85147C9.92407 6.77226 9.92407 6.71706 9.81606 6.78066Z" fill="white"/>
<path fill-rule="evenodd" clip-rule="evenodd" d="M10.7318 6.94262C10.6955 7.09095 10.6738 7.24249 10.667 7.39505C10.6406 7.50666 10.787 7.55466 10.8506 7.40945C10.9157 7.2538 10.9512 7.08731 10.955 6.91861C10.925 6.747 10.8086 6.753 10.7318 6.94262Z" fill="white"/>
<path fill-rule="evenodd" clip-rule="evenodd" d="M16.5042 9.8778C16.5252 9.85919 17.3184 9.29515 17.3184 9.29515C17.3988 9.26755 17.3784 9.58617 17.3442 9.58257C17.0983 9.82229 16.8144 10.0198 16.5042 10.167C16.4664 10.1958 16.425 9.9486 16.5042 9.8778Z" fill="white"/>
<path fill-rule="evenodd" clip-rule="evenodd" d="M17.2284 9.87547C17.3688 9.94448 17.424 10.3525 17.4084 10.4647C17.4138 10.6801 17.274 10.8535 17.2206 10.8247C17.1672 10.7959 17.226 10.5571 17.1978 10.4701C17.1666 10.3501 17.049 10.1239 17.0688 10.0579C17.0597 10.0347 17.0572 10.0095 17.0615 9.98495C17.0659 9.96044 17.0769 9.9376 17.0934 9.91897C17.11 9.90035 17.1313 9.88665 17.1551 9.87939C17.1789 9.87214 17.2043 9.87161 17.2284 9.87787" fill="white"/>
<path fill-rule="evenodd" clip-rule="evenodd" d="M12.5079 11.6368C12.5735 11.5599 12.6504 11.4933 12.7359 11.4394C12.7611 11.4297 12.7884 11.4271 12.815 11.4316C12.8416 11.4361 12.8665 11.4477 12.8871 11.4652C12.9009 11.5444 12.8379 11.617 12.8577 11.722C12.8751 11.764 12.8871 11.8114 12.9651 11.7934C13.0719 11.7154 13.202 11.6758 13.3342 11.6812C13.4296 11.6866 13.4344 11.851 13.372 11.8528C13.1988 11.8945 13.0303 11.9536 12.8691 12.0292C12.8464 12.0436 12.8194 12.0496 12.7927 12.0461C12.7661 12.0426 12.7415 12.0298 12.7233 12.01C12.7084 11.9884 12.6993 11.9633 12.6969 11.9371C12.6945 11.911 12.6988 11.8846 12.7095 11.8606C12.7155 11.7772 12.6819 11.7316 12.6117 11.7406C12.5595 11.7688 12.5133 11.7874 12.4875 11.7268C12.4767 11.6824 12.4731 11.6614 12.5079 11.6368Z" fill="white"/>
<path fill-rule="evenodd" clip-rule="evenodd" d="M18.0638 11.8572C18.0747 11.8666 18.0835 11.8783 18.0895 11.8915C18.0955 11.9046 18.0986 11.9189 18.0986 11.9334C18.0986 11.9478 18.0955 11.9621 18.0895 11.9753C18.0835 11.9884 18.0747 12.0001 18.0638 12.0096C18.0086 12.0618 17.9684 12.0894 17.9126 12.1404C17.8874 12.186 17.8694 12.2538 17.9498 12.2742C18.0986 12.3162 18.4418 12.0942 18.4418 12.0894C18.459 12.0752 18.4712 12.056 18.4769 12.0345C18.4826 12.013 18.4815 11.9902 18.4736 11.9694C18.4418 11.9334 18.3686 11.9544 18.3188 11.9484C18.2954 11.9484 18.2204 11.9364 18.2588 11.8686C18.2842 11.8315 18.3044 11.7911 18.3188 11.7486C18.3416 11.6982 18.323 11.6628 18.239 11.6358C18.168 11.6243 18.0957 11.6243 18.0248 11.6358C17.9744 11.6478 17.957 11.67 17.948 11.7312C17.951 11.8254 18.008 11.8194 18.068 11.8578" fill="white"/>
</g>
</g>
<defs>
<clipPath id="clip0_266_45509">
<rect width="24" height="24.0018" fill="white"/>
</clipPath>
</defs>
</svg>
