<svg width="24" height="24" viewBox="0 0 24 24" fill="none" xmlns="http://www.w3.org/2000/svg">
<g clip-path="url(#clip0_266_46414)">
<mask id="mask0_266_46414" style="mask-type:luminance" maskUnits="userSpaceOnUse" x="0" y="0" width="24" height="25">
<path d="M11.9979 0H11.7321C8.85186 0.0600045 7.37215 0.287422 6.00165 0.757857C4.67577 1.21312 3.48222 1.98752 2.52619 3.01283C1.73334 3.93495 1.12653 5.00186 0.739256 6.15466C0.282719 7.59906 0.0401272 9.10251 0.0192012 10.6172C-2.48123e-07 11.2136 0 11.2964 0 12.0009C0 12.7054 -2.48123e-07 12.7888 0.0192012 13.381C0.0401222 14.8961 0.282712 16.3999 0.739256 17.8447C1.12736 18.9974 1.73522 20.064 2.52919 20.9854C3.48374 22.0121 4.67629 22.7882 6.00165 23.2451C7.37215 23.7156 8.85126 23.9424 11.7321 24.0018H12.2643C15.1445 23.9418 16.6242 23.7156 17.9947 23.2451C19.3208 22.7897 20.5144 22.0148 21.4702 20.989C22.2644 20.0677 22.8723 19.0011 23.2601 17.8483C23.7164 16.4035 23.959 14.8997 23.9802 13.3846C24 12.7894 24 12.7066 24 12.0045C24 11.3024 24 11.2172 23.9802 10.6208C23.9589 9.10614 23.7164 7.60273 23.2601 6.15826C22.8723 5.00509 22.2644 3.9381 21.4702 3.01643C20.5142 1.99113 19.3206 1.21672 17.9947 0.761457C16.6242 0.291022 15.1451 0.0642048 12.2643 0.0036003L11.9979 0Z" fill="white"/>
</mask>
<g mask="url(#mask0_266_46414)">
<path d="M31.4177 -0.936768H-7.42139V24.9378H31.4177V-0.936768Z" fill="white"/>
<path d="M8.33205 9.65088C8.00454 10.1425 7.88576 10.7442 8.00183 11.3234C8.11791 11.9027 8.45933 12.4121 8.951 12.7396C9.44267 13.0671 10.0443 13.1859 10.6236 13.0698C11.2028 12.9538 11.7122 12.6123 12.0397 12.1207C12.3716 11.6397 12.8793 11.3084 13.4532 11.1982C14.0271 11.0881 14.6214 11.2079 15.1078 11.5319C15.5941 11.8559 15.9337 12.358 16.0533 12.9301C16.1728 13.5021 16.0627 14.0982 15.7468 14.5898C15.0869 15.5613 14.07 16.2329 12.9174 16.4584C11.7648 16.6839 10.5698 16.4452 9.59234 15.7941C8.61489 15.143 7.9341 14.1323 7.69808 12.9818C7.46206 11.8314 7.68991 10.6342 8.33205 9.65088Z" fill="#00437B"/>
<path d="M15.6671 14.7327C15.9945 14.2412 16.1132 13.6396 15.9972 13.0605C15.8811 12.4814 15.5397 11.9721 15.0481 11.6446C14.5565 11.3172 13.955 11.1984 13.3759 11.3145C12.7967 11.4306 12.2874 11.772 11.96 12.2636C11.6325 12.7552 11.1231 13.0967 10.5438 13.2127C9.96457 13.3288 9.36293 13.21 8.87126 12.8825C8.37959 12.555 8.03817 12.0456 7.92209 11.4663C7.80602 10.8871 7.9248 10.2854 8.25231 9.79378C8.91227 8.8223 9.92916 8.15074 11.0817 7.92521C12.2343 7.69968 13.4293 7.93843 14.4068 8.5895C15.3842 9.24058 16.065 10.2513 16.301 11.4018C16.5371 12.5523 16.3092 13.7494 15.6671 14.7327Z" fill="#DA1A32"/>
<path d="M18.3806 16.4771L17.2471 18.174L17.8657 18.5856L18.9986 16.8881L18.3806 16.4771Z" fill="#1D1D1B"/>
<path d="M19.7211 14.4697L18.5898 16.1682L19.2081 16.58L20.3394 14.8815L19.7211 14.4697Z" fill="#1D1D1B"/>
<path d="M19.3101 17.0934L18.1772 18.7915L18.7952 19.2038L19.9281 17.5056L19.3101 17.0934Z" fill="#1D1D1B"/>
<path d="M20.6487 15.0871L19.5164 16.7856L20.134 17.1974L21.2663 15.4989L20.6487 15.0871Z" fill="#1D1D1B"/>
<path d="M17.4563 15.8584L16.3235 17.5566L16.9415 17.9689L18.0743 16.2707L17.4563 15.8584Z" fill="#1D1D1B"/>
<path d="M18.7951 13.8518L17.6624 15.55L18.2804 15.9623L19.4131 14.264L18.7951 13.8518Z" fill="#1D1D1B"/>
<path d="M5.20082 13.8529L4.58301 14.2654L7.05557 17.9688L7.67338 17.5563L5.20082 13.8529Z" fill="#1D1D1B"/>
<path d="M3.35072 15.0855L2.73267 15.4966L5.19856 19.2044L5.81662 18.7934L3.35072 15.0855Z" fill="#1D1D1B"/>
<path d="M5.61333 16.4763L4.99585 16.8882L6.12799 18.5854L6.74547 18.1735L5.61333 16.4763Z" fill="#1D1D1B"/>
<path d="M4.27478 14.4692L3.65723 14.8804L4.78814 16.5788L5.40569 16.1676L4.27478 14.4692Z" fill="#1D1D1B"/>
<path d="M17.8687 5.4147L17.2507 5.8269L19.7216 9.53141L20.3396 9.11921L17.8687 5.4147Z" fill="#1D1D1B"/>
<path d="M20.1334 6.80355L19.5159 7.21533L20.6484 8.91374L21.2659 8.50196L20.1334 6.80355Z" fill="#1D1D1B"/>
<path d="M18.7953 4.79671L18.1772 5.20825L19.3082 6.90666L19.9262 6.49512L18.7953 4.79671Z" fill="#1D1D1B"/>
<path d="M18.2803 8.03821L17.6624 8.45044L18.7952 10.1486L19.4131 9.7364L18.2803 8.03821Z" fill="#1D1D1B"/>
<path d="M16.9428 6.03159L16.3247 6.44263L17.4548 8.1419L18.0729 7.73086L16.9428 6.03159Z" fill="#1D1D1B"/>
<path d="M7.05365 6.03135L4.58496 9.73804L5.20274 10.1495L7.67143 6.4428L7.05365 6.03135Z" fill="#1D1D1B"/>
<path d="M6.12727 5.41432L3.65723 9.11938L4.27532 9.53145L6.74536 5.82638L6.12727 5.41432Z" fill="#1D1D1B"/>
<path d="M5.20014 4.79649L2.73145 8.50317L3.34923 8.91462L5.81792 5.20793L5.20014 4.79649Z" fill="#1D1D1B"/>
<path d="M12.2568 0.5L13.2646 0.530273C15.4692 0.619069 16.6981 0.838477 17.8359 1.22949V1.23047C19.0777 1.65786 20.196 2.38264 21.0928 3.3418H21.0938C21.7514 4.10517 22.274 4.9738 22.6406 5.91016L22.7881 6.31543C23.2283 7.71108 23.4625 9.16361 23.4824 10.627V10.6367C23.502 11.225 23.502 11.3039 23.502 12.0029C23.502 12.7023 23.502 12.7787 23.4824 13.3672V13.377C23.4625 14.8403 23.2283 16.2928 22.7881 17.6885C22.4221 18.7761 21.8493 19.7829 21.1016 20.6533C20.2025 21.6163 19.081 22.3438 17.835 22.7715C16.5362 23.2185 15.1158 23.4424 12.2568 23.502H11.7461C8.88628 23.443 7.4667 23.2185 6.16797 22.7715C4.92191 22.3439 3.80009 21.6166 2.90137 20.6533C2.24667 19.8915 1.72591 19.0253 1.36035 18.0918L1.21289 17.6865C0.772894 16.2905 0.53972 14.8376 0.519531 13.374L0.518555 13.3652L0.501953 12.7256C0.499595 12.5457 0.5 12.3513 0.5 12.001C0.5 11.3001 0.499798 11.2234 0.520508 10.6357V10.625C0.540743 9.16178 0.774997 7.70911 1.21484 6.31348C1.58148 5.22584 2.15354 4.21819 2.90137 3.34766C3.79993 2.38463 4.92222 1.65815 6.16797 1.23047C7.30434 0.839355 8.5343 0.619087 10.7393 0.530273L11.7461 0.5H12.2568Z" stroke="#F6F6F6"/>
</g>
</g>
<defs>
<clipPath id="clip0_266_46414">
<rect width="24" height="24.0018" fill="white"/>
</clipPath>
</defs>
</svg>
