<svg width="32" height="32" viewBox="0 0 32 32" fill="none" xmlns="http://www.w3.org/2000/svg">
<g clip-path="url(#clip0_266_48674)">
<mask id="mask0_266_48674" style="mask-type:luminance" maskUnits="userSpaceOnUse" x="0" y="0" width="32" height="32">
<path d="M16.0008 0H15.6456C11.8056 0.08 9.8336 0.3816 8.0056 1.0112C6.23815 1.61618 4.64718 2.6477 3.3736 4.0144C2.31477 5.24262 1.50432 6.66464 0.9872 8.2016C0.378062 10.128 0.0546238 12.1333 0.0272 14.1536C2.98023e-08 14.948 0 15.0576 0 15.9976C0 16.9376 2.98023e-08 17.0472 0.0272 17.8376C0.0546328 19.8576 0.378072 21.8626 0.9872 23.7888C1.50376 25.3272 2.31424 26.7506 3.3736 27.98C4.64735 29.3476 6.23854 30.3802 8.0064 30.9864C9.8344 31.616 11.8056 31.92 15.6456 32H16.3552C20.1952 31.92 22.168 31.6184 23.9952 30.9888C25.7632 30.3824 27.3546 29.3499 28.6288 27.9824C29.6873 26.7538 30.4974 25.3315 31.0144 23.7944C31.6231 21.8681 31.9465 19.8632 31.9744 17.8432C32 17.0496 32 16.9384 32 16.0032C32 15.068 32 14.9536 31.9744 14.1592C31.9465 12.139 31.6231 10.1337 31.0144 8.2072C30.4981 6.66851 29.6882 5.2446 28.6296 4.0144C27.3556 2.64667 25.7641 1.61408 23.996 1.008C22.1688 0.3784 20.1968 0.076 16.356 0H16.0008Z" fill="white"/>
</mask>
<g mask="url(#mask0_266_48674)">
<path d="M-0.594238 26.048V-0.47998H25.9658C27.2971 -0.480128 28.5979 -0.0808714 29.6999 0.666165C30.8019 1.4132 31.6545 2.47366 32.1474 3.71042C32.4458 4.48885 32.5969 5.31596 32.593 6.14962V26.048C32.5963 26.8816 32.4452 27.7086 32.1474 28.4872C31.6559 29.7262 30.8041 30.7893 29.7022 31.5392C28.6002 32.2891 27.2987 32.6912 25.9658 32.6936H-0.594238V26.048Z" fill="#4289DB"/>
<path d="M16.009 8.80811L17.8162 14.3745H23.677L18.9354 17.8225L20.7506 23.3897L16.009 19.9497L11.2674 23.3897L13.0754 17.8225L8.33301 14.3745H14.1938L16.009 8.80811Z" fill="white"/>
</g>
</g>
<defs>
<clipPath id="clip0_266_48674">
<rect width="32" height="32" fill="white"/>
</clipPath>
</defs>
</svg>
