<svg width="32" height="32" viewBox="0 0 32 32" fill="none" xmlns="http://www.w3.org/2000/svg">
<g clip-path="url(#clip0_266_47078)">
<mask id="mask0_266_47078" style="mask-type:luminance" maskUnits="userSpaceOnUse" x="0" y="0" width="33" height="32">
<path d="M16.0004 0H15.6468C11.8065 0.080006 9.83274 0.382429 8.0054 1.01128C6.23732 1.61789 4.64563 2.65016 3.37065 4.0171C2.31284 5.24653 1.50296 6.66905 0.985674 8.20621C0.376647 10.1325 0.0531861 12.1377 0.0256016 14.1579C-3.30831e-07 14.9523 0 15.0627 0 15.998C0 16.9333 -3.30831e-07 17.0477 0.0256016 17.8421C0.0532345 19.8625 0.376693 21.868 0.985674 23.7946C1.50259 25.3314 2.31253 26.7535 3.37065 27.9821C4.64537 29.3495 6.23712 30.3821 8.0054 30.9887C9.83274 31.6176 11.8041 31.9192 15.6468 32H16.3556C20.1959 31.92 22.1697 31.6176 23.9962 30.9887C25.7643 30.3823 27.3559 29.3497 28.6301 27.9821C29.6895 26.754 30.5008 25.3322 31.0191 23.7954C31.6278 21.8687 31.9512 19.8633 31.9792 17.8429C32.004 17.0485 32.004 16.9389 32.004 15.9988C32.004 15.0587 32.004 14.9499 31.9792 14.1587C31.9513 12.1386 31.6278 10.1334 31.0191 8.20702C30.5013 6.66975 29.6909 5.24723 28.6325 4.0179C27.3588 2.65086 25.7682 1.61829 24.001 1.01128C22.1721 0.382429 20.1999 0.080006 16.358 0H16.0004Z" fill="white"/>
</mask>
<g mask="url(#mask0_266_47078)">
<path d="M15.6484 0C11.8085 0.080008 9.83495 0.380838 8.0078 1.0097C6.24008 1.61654 4.64899 2.64946 3.37512 4.0172C2.31667 5.24594 1.50605 6.66797 0.987975 8.20482C0.379358 10.1316 0.0559398 12.137 0.0279996 14.1574C2.59274e-07 14.9519 0 15.0623 0 16.0016C0 16.9409 5.06627e-08 17.0505 0.0255994 17.8418C0.0534732 19.8625 0.376893 21.8682 0.985576 23.7952C1.50377 25.3337 2.31525 26.7572 3.37512 27.9868C4.64904 29.3543 6.24013 30.3869 8.0078 30.9935C9.83495 31.6224 11.8069 31.924 15.6484 32.0032H16.3572C20.1971 31.9232 22.1698 31.6224 23.997 30.9935C25.7648 30.3868 27.3561 29.3542 28.6305 27.9868C29.6891 26.758 30.4995 25.3357 31.0168 23.7984C31.6259 21.8715 31.9493 19.8657 31.9768 17.845C32.0032 17.0505 32.0032 16.9417 32.0032 16.0048C32.0032 15.0679 32.0032 14.9551 31.9768 14.1606C31.9493 12.1402 31.6258 10.1347 31.0168 8.20802C30.4993 6.67107 29.689 5.24898 28.6305 4.0204C27.3572 2.65197 25.7667 1.61799 23.9994 1.0097C22.1698 0.380838 20.1979 0.080008 16.3572 0H15.6484Z" fill="white"/>
<path d="M21.4224 22.3716L21.3976 32.3051L41.2791 32.3515L21.4224 22.3716Z" fill="#14377D"/>
<path d="M-9.3495 32.2308L10.5304 32.278L10.5544 22.3452L-9.3495 32.2308Z" fill="#14377D"/>
<path d="M41.3567 -0.227875L21.476 -0.275879L21.4528 9.65767L41.3567 -0.227875Z" fill="#14377D"/>
<path d="M10.5848 9.63434L10.608 -0.301606L-9.2727 -0.349609L10.5848 9.63434Z" fill="#14377D"/>
<path d="M48.6172 12.8219L19.2718 12.7547L19.303 -0.280697L12.7818 -0.295898L12.7514 12.7355L-16.594 12.6667L-16.6092 19.1824L12.7362 19.252L12.7041 32.2833L19.2254 32.2985L19.2574 19.2664L48.6012 19.3376L48.6172 12.8219Z" fill="#DA1A32"/>
<path d="M31.7192 21.469L26.858 21.457L48.5692 32.3691L48.5764 29.9409L31.7192 21.469Z" fill="#DA1A32"/>
<path d="M5.11958 21.4058L-16.642 32.2138L-11.7809 32.2242L9.98075 21.417L5.11958 21.4058Z" fill="#DA1A32"/>
<path d="M26.8812 10.5946L48.6485 -0.206167L43.7889 -0.222168L22.0249 10.5858L26.8812 10.5946Z" fill="#DA1A32"/>
<path d="M0.288021 10.5338L5.14759 10.545L-16.562 -0.366211L-16.5692 2.06197L0.288021 10.5338Z" fill="#DA1A32"/>
</g>
</g>
<defs>
<clipPath id="clip0_266_47078">
<rect width="32.004" height="32" fill="white"/>
</clipPath>
</defs>
</svg>
