<svg width="36" height="36" viewBox="0 0 36 36" fill="none" xmlns="http://www.w3.org/2000/svg">
<path d="M28 7H6C4.34315 7 3 8.34315 3 10V24C3 25.6569 4.34315 27 6 27H28C29.6569 27 31 25.6569 31 24V10C31 8.34315 29.6569 7 28 7Z" fill="#19A854"/>
<path d="M32.021 19.999H3V23.95H32.021V19.999Z" fill="#0B6A46"/>
<path d="M26.5 15C27.9834 15 29.4334 15.4399 30.6668 16.264C31.9001 17.0881 32.8614 18.2594 33.4291 19.6299C33.9968 21.0003 34.1453 22.5083 33.8559 23.9632C33.5665 25.418 32.8522 26.7544 31.8033 27.8033C30.7544 28.8522 29.418 29.5665 27.9632 29.8559C26.5083 30.1453 25.0003 29.9968 23.6299 29.4291C22.2594 28.8614 21.0881 27.9001 20.264 26.6668C19.4399 25.4334 19 23.9834 19 22.5C19 20.5109 19.7902 18.6032 21.1967 17.1967C22.6032 15.7902 24.5109 15 26.5 15Z" fill="#F8C315"/>
<path d="M30.316 19.8768C30.0853 19.6174 29.8052 19.4065 29.492 19.2567C29.1789 19.1068 28.8389 19.0208 28.4922 19.0038C28.1454 18.9869 27.7988 19.0393 27.4725 19.158C27.1462 19.2766 26.8469 19.4591 26.592 19.6948L26.498 19.7808L26.4039 19.6948C26.1492 19.459 25.8501 19.2764 25.524 19.1577C25.1979 19.039 24.8514 18.9867 24.5047 19.0036C24.1581 19.0206 23.8183 19.1065 23.5053 19.2565C23.1924 19.4064 22.9124 19.6173 22.682 19.8768C22.2535 20.3584 22.0114 20.9773 21.9995 21.6218C21.9876 22.2663 22.2065 22.8938 22.6169 23.3908C22.692 23.4829 22.7732 23.5697 22.86 23.6508L26.498 27.0008L30.136 23.6508C30.2224 23.5694 30.3036 23.4826 30.379 23.3908C30.7897 22.894 31.0091 22.2666 30.9975 21.6221C30.986 20.9776 30.7442 20.3586 30.316 19.8768Z" fill="#FF0000"/>
</svg>
