<svg width="36" height="36" viewBox="0 0 36 36" fill="none" xmlns="http://www.w3.org/2000/svg">
<path d="M7.6464 11.2181L7.34572 11.5124C7.22982 11.6291 7.09152 11.7212 6.93912 11.783C6.78673 11.8449 6.62339 11.8753 6.45894 11.8724C6.29449 11.8696 6.13232 11.8334 5.98218 11.7663C5.83205 11.6991 5.69705 11.6022 5.58531 11.4815C5.35537 11.2348 5.23025 10.9084 5.23637 10.5712C5.24248 10.234 5.37935 9.9123 5.6181 9.67406L8.60338 6.71631C8.7192 6.59948 8.85749 6.5073 9.00989 6.44535C9.1623 6.38339 9.32567 6.35293 9.49017 6.35582C9.65466 6.3587 9.81687 6.39485 9.96701 6.46211C10.1172 6.52937 10.2521 6.62633 10.3638 6.74715C10.5937 6.99388 10.7188 7.3203 10.7127 7.65752C10.7066 7.99474 10.5697 8.3164 10.331 8.55463L10.0355 8.84741L12.0195 10.9643L9.63208 13.3282L7.6464 11.2181Z" fill="#0C629C"/>
<path d="M6.13836 20.3072C6.1045 16.9756 7.39526 13.7669 9.7268 11.3868C12.0583 9.0067 15.2397 7.65006 18.5714 7.61523C21.903 7.65006 25.0844 9.0067 27.4159 11.3868C29.7474 13.7669 31.0382 16.9756 31.0044 20.3072C31.0385 23.639 29.7478 26.848 27.4163 29.2283C25.0847 31.6086 21.9032 32.9654 18.5714 33.0002C15.2396 32.9654 12.058 31.6086 9.72644 29.2283C7.39488 26.848 6.10423 23.639 6.13836 20.3072Z" fill="#6EC4F6"/>
<path d="M8.39996 20.3083C8.37196 17.5824 9.42787 14.9569 11.3354 13.0094C13.243 11.0619 15.846 9.95184 18.572 9.92334C21.2981 9.95157 23.9013 11.0615 25.8091 13.0091C27.7169 14.9566 28.7729 17.5822 28.745 20.3083C28.7727 23.0343 27.7165 25.6596 25.8088 27.607C23.901 29.5543 21.2979 30.6641 18.572 30.6923C15.8462 30.6638 13.2433 29.5539 11.3358 27.6066C9.42825 25.6593 8.37223 23.0341 8.39996 20.3083Z" fill="#EFF9FF"/>
<path d="M26.0257 21.4623C26.663 21.4623 27.1797 20.9456 27.1797 20.3083C27.1797 19.671 26.663 19.1543 26.0257 19.1543H15.8037C15.1664 19.1543 14.6497 19.671 14.6497 20.3083C14.6497 20.9456 15.1664 21.4623 15.8037 21.4623H26.0257Z" fill="#0C629C"/>
<path d="M16.3117 20.307C16.3085 20.007 16.3645 19.7093 16.4764 19.4309C16.5883 19.1525 16.754 18.8989 16.964 18.6846C17.1739 18.4702 17.4241 18.2994 17.7001 18.1817C17.9761 18.0641 18.2726 18.002 18.5727 17.999C18.8726 18.0022 19.169 18.0643 19.4449 18.182C19.7208 18.2997 19.9708 18.4706 20.1807 18.6849C20.3906 18.8992 20.5561 19.1528 20.668 19.4311C20.7799 19.7094 20.8358 20.0071 20.8327 20.307C20.8388 20.9126 20.6041 21.4959 20.1803 21.9285C19.7565 22.3611 19.1782 22.6077 18.5727 22.614C18.2727 22.611 17.9763 22.549 17.7003 22.4314C17.4244 22.3138 17.1743 22.1431 16.9643 21.9288C16.7544 21.7146 16.5887 21.4611 16.4767 21.1828C16.3647 20.9046 16.3086 20.607 16.3117 20.307Z" fill="#2B9CDE"/>
<path d="M20.8325 3H16.3115V8.769H20.8325V3Z" fill="#6EC4F6"/>
<path d="M22.4909 3H14.6499C13.6939 3 12.9189 3.775 12.9189 4.731C12.9189 5.687 13.6939 6.462 14.6499 6.462H22.4909C23.4469 6.462 24.2219 5.687 24.2219 4.731C24.2219 3.775 23.4469 3 22.4909 3Z" fill="#2B9CDE"/>
</svg>
