<svg width="36" height="36" viewBox="0 0 36 36" fill="none" xmlns="http://www.w3.org/2000/svg">
<path d="M18.0003 21.0149C19.8481 21.0162 21.6311 21.6956 23.011 22.9244C24.3909 24.1531 25.2717 25.8457 25.4863 27.6809C25.511 27.9198 25.6228 28.1411 25.8005 28.3026C25.9782 28.464 26.2093 28.5542 26.4493 28.5559H32.5333C32.6667 28.5559 32.7987 28.5286 32.9211 28.4756C33.0435 28.4226 33.1538 28.3451 33.245 28.2478C33.3363 28.1505 33.4067 28.0356 33.4518 27.91C33.4969 27.7845 33.5158 27.6511 33.5073 27.5179C33.2376 23.5882 31.4862 19.9073 28.6071 17.2191C25.728 14.5308 21.9359 13.0356 17.9968 13.0356C14.0578 13.0356 10.2657 14.5308 7.38656 17.2191C4.50747 19.9073 2.7561 23.5882 2.48635 27.5179C2.47787 27.6511 2.49678 27.7845 2.54189 27.91C2.587 28.0356 2.65737 28.1505 2.74865 28.2478C2.83992 28.3451 2.95017 28.4226 3.07257 28.4756C3.19498 28.5286 3.32696 28.5559 3.46035 28.5559H9.54635C9.78644 28.5542 10.0175 28.464 10.1952 28.3026C10.3729 28.1411 10.4847 27.9198 10.5093 27.6809C10.7241 25.8449 11.6056 24.1516 12.9866 22.9227C14.3676 21.6938 16.1518 21.0149 18.0003 21.0149Z" fill="#E6E6E6"/>
<path d="M32.5392 29.0422H26.4542C26.0957 29.0403 25.7505 28.9068 25.4839 28.6672C25.2174 28.4275 25.0481 28.0984 25.0082 27.7422C24.8078 26.024 23.9832 24.4393 22.6911 23.2891C21.3991 22.139 19.7295 21.5036 17.9997 21.5036C16.2698 21.5036 14.6003 22.139 13.3082 23.2891C12.0161 24.4393 11.1915 26.024 10.9912 27.7422C10.9512 28.0984 10.7819 28.4275 10.5154 28.6672C10.2488 28.9068 9.90359 29.0403 9.54516 29.0422H3.46216C3.26195 29.0428 3.06377 29.0022 2.8799 28.9229C2.69604 28.8437 2.53042 28.7275 2.39333 28.5816C2.25623 28.4357 2.15059 28.2632 2.08296 28.0748C2.01533 27.8863 1.98714 27.686 2.00016 27.4862C2.27069 23.4278 4.07364 19.624 7.04381 16.8452C10.014 14.0665 13.9293 12.5205 17.9967 12.5205C22.064 12.5205 25.9793 14.0665 28.9495 16.8452C31.9197 19.624 33.7226 23.4278 33.9932 27.4862C34.0062 27.6856 33.9781 27.8856 33.9107 28.0738C33.8433 28.262 33.738 28.4343 33.6014 28.5802C33.4647 28.726 33.2996 28.8423 33.1162 28.9217C32.9328 29.0012 32.735 29.0422 32.5352 29.0422M18.0002 20.5292C19.969 20.5277 21.8697 21.2504 23.3401 22.5597C24.8106 23.869 25.7481 25.6734 25.9742 27.6292C25.9859 27.7492 26.0413 27.8606 26.1297 27.9425C26.2182 28.0243 26.3337 28.0708 26.4542 28.0732H32.5382C32.605 28.0732 32.6712 28.0595 32.7326 28.033C32.7939 28.0064 32.8492 27.9676 32.895 27.9189C32.9408 27.8702 32.9762 27.8126 32.9989 27.7497C33.0216 27.6868 33.0313 27.6199 33.0272 27.5532C32.7725 23.7411 31.0785 20.1682 28.2883 17.5582C25.4981 14.9482 21.8203 13.4962 17.9997 13.4962C14.179 13.4962 10.5012 14.9482 7.71101 17.5582C4.92082 20.1682 3.22685 23.7411 2.97216 27.5532C2.96807 27.6199 2.97768 27.6868 3.0004 27.7497C3.02312 27.8126 3.05848 27.8702 3.10428 27.9189C3.15009 27.9676 3.20539 28.0064 3.26676 28.033C3.32814 28.0595 3.39429 28.0732 3.46116 28.0732H9.54616C9.66667 28.0708 9.78211 28.0243 9.87059 27.9425C9.95907 27.8606 10.0144 27.7492 10.0262 27.6292C10.2522 25.6734 11.1898 23.869 12.6602 22.5597C14.1307 21.2504 16.0313 20.5277 18.0002 20.5292Z" fill="#111111"/>
<path d="M26.2529 16.577L22.7329 21.54C22.5932 21.7418 22.5343 21.9886 22.5678 22.2317C22.6013 22.4749 22.7248 22.6966 22.9139 22.853C24.3485 24.0794 25.268 25.8016 25.4889 27.676C25.5133 27.9157 25.6252 28.1381 25.8032 28.3004C25.9813 28.4628 26.213 28.5538 26.4539 28.556H32.5419C32.6748 28.5561 32.8064 28.529 32.9285 28.4763C33.0506 28.4237 33.1605 28.3466 33.2517 28.2498C33.3429 28.153 33.4132 28.0386 33.4585 27.9136C33.5038 27.7886 33.523 27.6557 33.5149 27.523C33.3719 25.3589 32.7765 23.2489 31.7673 21.3292C30.7581 19.4094 29.3575 17.7228 27.6559 16.378C27.5521 16.296 27.4327 16.236 27.305 16.2016C27.1773 16.1672 27.044 16.1591 26.913 16.1778C26.7821 16.1965 26.6563 16.2416 26.5434 16.3104C26.4304 16.3792 26.3326 16.4702 26.2559 16.578" fill="#2B9AC9"/>
<path d="M32.5391 29.0421H26.4571C26.0972 29.0393 25.751 28.9044 25.484 28.6631C25.2171 28.4218 25.0481 28.0908 25.0091 27.7331C24.8033 25.9796 23.9429 24.3684 22.6001 23.2221C22.3184 22.9872 22.1353 22.655 22.087 22.2915C22.0386 21.9279 22.1286 21.5594 22.3391 21.2591L25.8591 16.2961C25.9739 16.1342 26.1206 15.9974 26.29 15.8941C26.4594 15.7907 26.6481 15.7229 26.8446 15.6949C27.0411 15.6668 27.2412 15.679 27.4328 15.7308C27.6244 15.7826 27.8035 15.8729 27.9591 15.9961C29.7109 17.3856 31.153 19.126 32.1928 21.1055C33.2326 23.0851 33.8472 25.2601 33.9971 27.4911C34.0097 27.6902 33.9813 27.8898 33.9137 28.0775C33.8461 28.2652 33.7407 28.437 33.604 28.5824C33.4674 28.7278 33.3024 28.8436 33.1192 28.9226C32.936 29.0017 32.7386 29.0423 32.5391 29.0421ZM26.6491 16.8581L23.1291 21.8211C23.0604 21.9244 23.0326 22.0496 23.051 22.1724C23.0695 22.2951 23.133 22.4066 23.2291 22.4851C24.757 23.7908 25.7359 25.625 25.9701 27.6211C25.98 27.7426 26.0349 27.8561 26.1241 27.9393C26.2132 28.0225 26.3302 28.0695 26.4521 28.0711H32.5361C32.6034 28.0714 32.67 28.0578 32.7318 28.0311C32.7936 28.0044 32.8492 27.9653 32.8951 27.9161C32.9404 27.8683 32.9753 27.8116 32.9977 27.7497C33.0201 27.6877 33.0294 27.6218 33.0251 27.5561C32.8844 25.4599 32.3071 23.4164 31.3301 21.5565C30.3532 19.6966 28.9982 18.0615 27.3521 16.7561C27.3 16.7156 27.2403 16.6861 27.1765 16.6692C27.1127 16.6523 27.0462 16.6484 26.9809 16.6577C26.9156 16.6671 26.8528 16.6894 26.7963 16.7235C26.7399 16.7576 26.6908 16.8027 26.6521 16.8561" fill="#111111"/>
<path d="M17.6543 8.77508L15.0063 23.4261C14.9098 23.9611 15.0288 24.5125 15.3373 24.9601L17.7113 28.4041C17.7437 28.4509 17.787 28.4892 17.8374 28.5156C17.8878 28.542 17.9439 28.5558 18.0008 28.5558C18.0578 28.5558 18.1139 28.542 18.1643 28.5156C18.2147 28.4892 18.258 28.4509 18.2903 28.4041L20.6643 24.9601C20.9728 24.5125 21.0918 23.9611 20.9953 23.4261L18.3463 8.77508C18.3312 8.69435 18.2884 8.62144 18.2252 8.56898C18.162 8.51651 18.0825 8.48779 18.0003 8.48779C17.9182 8.48779 17.8387 8.51651 17.7755 8.56898C17.7123 8.62144 17.6694 8.69435 17.6543 8.77508Z" fill="white"/>
<path d="M18.0006 29.0411C17.8649 29.041 17.7312 29.008 17.6112 28.9447C17.4912 28.8815 17.3883 28.79 17.3116 28.6781L14.9376 25.2351C14.7472 24.9611 14.6131 24.6522 14.5429 24.326C14.4726 23.9999 14.4678 23.6631 14.5286 23.3351L17.1776 8.6881C17.2121 8.49465 17.3135 8.31951 17.4642 8.19335C17.6148 8.06718 17.8051 7.99805 18.0016 7.99805C18.1981 7.99805 18.3883 8.06718 18.5389 8.19335C18.6896 8.31951 18.7911 8.49465 18.8256 8.6881L21.4736 23.3391C21.5343 23.6671 21.5295 24.0039 21.4593 24.33C21.3891 24.6562 21.2549 24.9651 21.0646 25.2391L18.6856 28.6791C18.6086 28.7907 18.5057 28.882 18.3857 28.9451C18.2657 29.0081 18.1321 29.0411 17.9966 29.0411M17.9966 9.5921L15.4856 23.5121C15.4485 23.7145 15.4518 23.9222 15.4952 24.1233C15.5386 24.3244 15.6213 24.515 15.7386 24.6841L18.0016 27.9681L20.2646 24.6841C20.3818 24.515 20.4645 24.3244 20.5079 24.1233C20.5513 23.9222 20.5546 23.7145 20.5176 23.5121L17.9966 9.5921Z" fill="#111111"/>
</svg>
