<svg width="36" height="36" viewBox="0 0 36 36" fill="none" xmlns="http://www.w3.org/2000/svg">
<path d="M18 32.002C25.732 32.002 32 25.7331 32 18C32 10.267 25.732 3.99805 18 3.99805C10.268 3.99805 4 10.267 4 18C4 25.7331 10.268 32.002 18 32.002Z" fill="#6EC4F6"/>
<path d="M17.9998 26.6168C22.7577 26.6168 26.6148 22.7589 26.6148 17.9998C26.6148 13.2408 22.7577 9.38281 17.9998 9.38281C13.2418 9.38281 9.38477 13.2408 9.38477 17.9998C9.38477 22.7589 13.2418 26.6168 17.9998 26.6168Z" fill="#6EC4F6"/>
<path d="M18.0002 23.9089C21.2725 23.9089 23.9252 21.2629 23.9252 17.9989C23.9252 14.7349 21.2725 12.0889 18.0002 12.0889C14.7279 12.0889 12.0752 14.7349 12.0752 17.9989C12.0752 21.2629 14.7279 23.9089 18.0002 23.9089Z" fill="#6EC4F6"/>
<path d="M17.9996 21.231C19.784 21.231 21.2306 19.7845 21.2306 18C21.2306 16.2156 19.784 14.769 17.9996 14.769C16.2151 14.769 14.7686 16.2156 14.7686 18C14.7686 19.7845 16.2151 21.231 17.9996 21.231Z" fill="#6EC4F6"/>
<path d="M18.0004 28.771C23.948 28.771 28.7694 23.9487 28.7694 18C28.7694 12.0513 23.948 7.229 18.0004 7.229C12.0529 7.229 7.23145 12.0513 7.23145 18C7.23145 23.9487 12.0529 28.771 18.0004 28.771Z" fill="#D6F0FF"/>
<path d="M17.9999 25.54C22.163 25.54 25.5379 22.1642 25.5379 18C25.5379 13.8357 22.163 10.46 17.9999 10.46C13.8368 10.46 10.4619 13.8357 10.4619 18C10.4619 22.1642 13.8368 25.54 17.9999 25.54Z" fill="#6EC4F6"/>
<path d="M17.9996 21.231C19.784 21.231 21.2306 19.7845 21.2306 18C21.2306 16.2156 19.784 14.769 17.9996 14.769C16.2151 14.769 14.7686 16.2156 14.7686 18C14.7686 19.7845 16.2151 21.231 17.9996 21.231Z" fill="#D6F0FF"/>
<path d="M26.1047 24.2395C25.9193 24.1273 25.7753 23.958 25.6945 23.757C25.6136 23.556 25.6002 23.3341 25.6563 23.1248C25.7124 22.9155 25.835 22.7301 26.0056 22.5965C26.1762 22.4629 26.3855 22.3883 26.6022 22.384L30.4525 22.3106C30.607 22.3084 30.7598 22.3419 30.8991 22.4087C31.0384 22.4754 31.1604 22.5735 31.2554 22.6953C31.3504 22.817 31.416 22.9592 31.4469 23.1105C31.4778 23.2618 31.4732 23.4183 31.4335 23.5675L30.8803 25.6307C30.8402 25.78 30.7659 25.918 30.6634 26.0338C30.5609 26.1496 30.4329 26.2401 30.2895 26.2981C30.1462 26.356 29.9913 26.38 29.8371 26.368C29.6829 26.356 29.5336 26.3084 29.4009 26.229L26.1047 24.2395Z" fill="#F46562"/>
<path d="M30.3034 26.8513C30.7386 27.1025 31.2951 26.9536 31.5462 26.5186C31.7974 26.0836 31.6481 25.5272 31.2129 25.276L18.3541 17.852C17.9189 17.6007 17.3625 17.7496 17.1113 18.1846C16.8602 18.6196 17.0094 19.176 17.4446 19.4273L30.3034 26.8513Z" fill="#F5B92C"/>
<path d="M24.8971 25.1381C24.7609 24.9153 24.7036 24.653 24.7345 24.3937C24.7654 24.1343 24.8826 23.8928 25.0673 23.7081C25.252 23.5234 25.4934 23.4062 25.7528 23.3753C26.0122 23.3445 26.2744 23.4018 26.4973 23.538L29.5195 25.3878C29.6695 25.4796 29.7967 25.6043 29.8916 25.7525C29.9865 25.9006 30.0466 26.0683 30.0674 26.243C30.0881 26.4177 30.069 26.5949 30.0115 26.7611C29.9539 26.9274 29.8595 27.0784 29.7351 27.2029L28.5621 28.376C28.4376 28.5003 28.2865 28.5948 28.1203 28.6523C27.954 28.7099 27.7769 28.729 27.6022 28.7082C27.4275 28.6875 27.2598 28.6274 27.1116 28.5325C26.9635 28.4376 26.8388 28.3103 26.7469 28.1603L24.8971 25.1381Z" fill="#F46562"/>
</svg>
