<svg width="36" height="36" viewBox="0 0 36 36" fill="none" xmlns="http://www.w3.org/2000/svg">
<path d="M18.0003 20.0159C19.8481 20.0171 21.6311 20.6966 23.011 21.9254C24.3909 23.1541 25.2717 24.8467 25.4863 26.6819C25.511 26.9207 25.6228 27.1421 25.8005 27.3036C25.9782 27.465 26.2093 27.5552 26.4493 27.5569H32.5333C32.6667 27.5569 32.7987 27.5296 32.9211 27.4766C33.0435 27.4236 33.1538 27.346 33.245 27.2488C33.3363 27.1515 33.4067 27.0365 33.4518 26.911C33.4969 26.7855 33.5158 26.652 33.5073 26.5189C33.2376 22.5891 31.4862 18.9083 28.6071 16.22C25.728 13.5318 21.9359 12.0366 17.9968 12.0366C14.0578 12.0366 10.2657 13.5318 7.38656 16.22C4.50747 18.9083 2.7561 22.5891 2.48635 26.5189C2.47787 26.652 2.49678 26.7855 2.54189 26.911C2.587 27.0365 2.65737 27.1515 2.74865 27.2488C2.83992 27.346 2.95017 27.4236 3.07257 27.4766C3.19498 27.5296 3.32696 27.5569 3.46035 27.5569H9.54635C9.78644 27.5552 10.0175 27.465 10.1952 27.3036C10.3729 27.1421 10.4847 26.9207 10.5093 26.6819C10.7241 24.8458 11.6056 23.1526 12.9866 21.9237C14.3676 20.6948 16.1518 20.0159 18.0003 20.0159Z" fill="#E6E6E6"/>
<path d="M32.5392 28.043H26.4542C26.0957 28.0411 25.7505 27.9076 25.4839 27.668C25.2174 27.4284 25.0481 27.0992 25.0082 26.743C24.8078 25.0248 23.9832 23.4401 22.6911 22.29C21.3991 21.1398 19.7295 20.5044 17.9997 20.5044C16.2698 20.5044 14.6003 21.1398 13.3082 22.29C12.0161 23.4401 11.1915 25.0248 10.9912 26.743C10.9512 27.0992 10.7819 27.4284 10.5154 27.668C10.2488 27.9076 9.90359 28.0411 9.54516 28.043H3.46216C3.26195 28.0436 3.06377 28.003 2.8799 27.9238C2.69604 27.8445 2.53042 27.7284 2.39333 27.5824C2.25623 27.4365 2.15059 27.264 2.08296 27.0756C2.01533 26.8871 1.98714 26.6868 2.00016 26.487C2.27251 22.4298 4.07629 18.6277 7.04635 15.8503C10.0164 13.0729 13.9308 11.5278 17.9972 11.5278C22.0635 11.5278 25.9779 13.0729 28.948 15.8503C31.918 18.6277 33.7218 22.4298 33.9942 26.487C34.007 26.6864 33.9788 26.8864 33.9114 27.0745C33.844 27.2626 33.7387 27.4348 33.602 27.5807C33.4654 27.7265 33.3003 27.8427 33.117 27.9223C32.9337 28.0018 32.736 28.0429 32.5362 28.043M18.0002 19.53C19.969 19.5285 21.8697 20.2512 23.3401 21.5605C24.8106 22.8698 25.7481 24.6742 25.9742 26.63C25.9859 26.75 26.0413 26.8614 26.1297 26.9433C26.2182 27.0251 26.3337 27.0716 26.4542 27.074H32.5392C32.6059 27.0739 32.672 27.0601 32.7333 27.0335C32.7945 27.0069 32.8497 26.968 32.8954 26.9193C32.9411 26.8706 32.9763 26.8131 32.999 26.7503C33.0217 26.6875 33.0313 26.6207 33.0272 26.554C32.7725 22.7419 31.0785 19.169 28.2883 16.559C25.4981 13.949 21.8203 12.497 17.9997 12.497C14.179 12.497 10.5012 13.949 7.71101 16.559C4.92082 19.169 3.22685 22.7419 2.97216 26.554C2.96807 26.6208 2.97768 26.6876 3.0004 26.7505C3.02312 26.8134 3.05848 26.871 3.10428 26.9197C3.15009 26.9684 3.20539 27.0072 3.26676 27.0338C3.32814 27.0603 3.39429 27.074 3.46116 27.074H9.54616C9.66682 27.0716 9.78239 27.025 9.8709 26.9429C9.9594 26.8609 10.0147 26.7492 10.0262 26.629C10.2525 24.6734 11.1901 22.8692 12.6605 21.5601C14.1309 20.2511 16.0315 19.5285 18.0002 19.53Z" fill="#111111"/>
<path d="M24.9149 24.5612C25.2094 25.233 25.4028 25.9447 25.4889 26.6732C25.513 26.9136 25.6251 27.1367 25.8035 27.2997C25.982 27.4626 26.2143 27.554 26.4559 27.5562H32.5389C32.6718 27.5563 32.8032 27.5292 32.9252 27.4766C33.0472 27.424 33.1572 27.347 33.2483 27.2504C33.3395 27.1537 33.4099 27.0394 33.4552 26.9145C33.5005 26.7896 33.5198 26.6568 33.5119 26.5242C33.3917 24.6862 32.9436 22.8844 32.1889 21.2042C32.1358 21.0857 32.0596 20.979 31.9647 20.8903C31.8699 20.8016 31.7583 20.7327 31.6365 20.6877C31.5147 20.6426 31.3852 20.6223 31.2554 20.6279C31.1257 20.6334 30.9984 20.6648 30.8809 20.7202L25.3979 23.3142C25.1713 23.419 24.9944 23.6078 24.9044 23.8407C24.8145 24.0736 24.8186 24.3323 24.9159 24.5622" fill="#015AAC"/>
<path d="M32.5424 28.043H26.4564C26.0962 28.0395 25.7497 27.904 25.4827 27.6622C25.2156 27.4204 25.0465 27.0891 25.0074 26.731C24.9272 26.0501 24.7466 25.3849 24.4714 24.757C24.3258 24.411 24.3195 24.0221 24.4536 23.6715C24.5877 23.3208 24.852 23.0355 25.1914 22.875L30.6744 20.281C30.8503 20.198 31.0409 20.1509 31.2352 20.1425C31.4295 20.1341 31.6235 20.1644 31.8059 20.2318C31.9883 20.2992 32.1554 20.4023 32.2975 20.5351C32.4396 20.6678 32.5538 20.8276 32.6334 21.005C33.4127 22.7391 33.8747 24.5988 33.9974 26.496C34.0098 26.6949 33.9814 26.8943 33.9138 27.0818C33.8461 27.2694 33.7408 27.441 33.6043 27.5863C33.4678 27.7315 33.3029 27.8472 33.12 27.9263C32.937 28.0054 32.7397 28.0461 32.5404 28.046M25.3624 24.37C25.6759 25.0858 25.8818 25.844 25.9734 26.62C25.9833 26.7423 26.0384 26.8565 26.1278 26.9404C26.2173 27.0243 26.3348 27.0719 26.4574 27.074H32.5424C32.6098 27.0742 32.6765 27.0605 32.7383 27.0337C32.8001 27.0068 32.8556 26.9674 32.9014 26.918C32.9468 26.8704 32.9818 26.814 33.0041 26.7522C33.0265 26.6904 33.0358 26.6246 33.0314 26.559C32.9136 24.7774 32.477 23.0314 31.7424 21.404C31.7158 21.3444 31.6775 21.2908 31.6299 21.2461C31.5823 21.2015 31.5263 21.1668 31.4651 21.1441C31.4039 21.1214 31.3388 21.1111 31.2737 21.1138C31.2085 21.1166 31.1445 21.1323 31.0854 21.16L25.6014 23.754C25.4895 23.8053 25.4017 23.8977 25.3562 24.0121C25.3108 24.1264 25.3112 24.2539 25.3574 24.368" fill="#111111"/>
<path d="M17.6543 7.77605L15.0063 22.4271C14.9098 22.962 15.0288 23.5135 15.3373 23.9611L17.7113 27.4051C17.7437 27.4519 17.787 27.4901 17.8374 27.5166C17.8878 27.543 17.9439 27.5568 18.0008 27.5568C18.0578 27.5568 18.1139 27.543 18.1643 27.5166C18.2147 27.4901 18.258 27.4519 18.2903 27.4051L20.6643 23.9611C20.9728 23.5135 21.0918 22.962 20.9953 22.4271L18.3463 7.77605C18.3312 7.69533 18.2884 7.62242 18.2252 7.56995C18.162 7.51749 18.0825 7.48877 18.0003 7.48877C17.9182 7.48877 17.8387 7.51749 17.7755 7.56995C17.7123 7.62242 17.6694 7.69533 17.6543 7.77605Z" fill="white"/>
<path d="M18.0004 28.0421C17.8649 28.0421 17.7313 28.0091 17.6113 27.946C17.4913 27.883 17.3884 27.7917 17.3114 27.6801L14.9374 24.2361C14.7472 23.9621 14.6131 23.6531 14.5429 23.327C14.4727 23.0009 14.4678 22.6641 14.5284 22.3361L17.1774 7.68908C17.2119 7.49563 17.3134 7.32048 17.4641 7.19432C17.6147 7.06816 17.8049 6.99902 18.0014 6.99902C18.1979 6.99902 18.3882 7.06816 18.5388 7.19432C18.6895 7.32048 18.7909 7.49563 18.8254 7.68908L21.4734 22.3401C21.5342 22.6681 21.5294 23.0049 21.4592 23.331C21.3889 23.6571 21.2548 23.9661 21.0644 24.2401L18.6854 27.6801C18.6085 27.7917 18.5056 27.883 18.3856 27.946C18.2656 28.0091 18.132 28.0421 17.9964 28.0421M17.9964 8.59308L15.4854 22.5131C15.4484 22.7155 15.4517 22.9232 15.4951 23.1243C15.5385 23.3254 15.6212 23.516 15.7384 23.6851L18.0014 26.9691L20.2644 23.6851C20.3817 23.516 20.4644 23.3254 20.5078 23.1243C20.5512 22.9232 20.5545 22.7155 20.5174 22.5131L17.9964 8.59308Z" fill="#111111"/>
</svg>
