<svg width="36" height="36" viewBox="0 0 36 36" fill="none" xmlns="http://www.w3.org/2000/svg">
<path d="M18.0736 25.3953C18.0736 25.3953 8.83163 24.7303 4.95963 20.8833C4.76469 20.6918 4.62375 20.4523 4.55105 20.1889C4.47836 19.9255 4.47649 19.6476 4.54563 19.3833C5.33063 16.3713 6.61163 5.72727 18.0736 5.79327C29.4266 5.72727 30.8956 16.4153 31.4676 19.4063C31.517 19.6608 31.5019 19.9236 31.4236 20.1708C31.3454 20.4179 31.2065 20.6416 31.0196 20.8213C29.6466 22.1453 26.6746 25.1073 18.0736 25.3953Z" fill="#111111"/>
<path d="M16.8444 32.6339C14.9211 32.399 13.0907 31.6726 11.5296 30.5249C9.96845 29.3771 8.72926 27.8466 7.93138 26.0809C7.7278 26.2339 7.48989 26.3349 7.23838 26.3749C6.04638 26.5589 4.87438 25.2749 4.62238 23.5079C4.37038 21.7409 5.13238 20.1609 6.32238 19.9779C6.41432 19.9637 6.50741 19.9584 6.60038 19.9619C6.61484 18.9441 6.74161 17.9309 6.97838 16.9409C7.00571 16.5516 7.04305 16.1516 7.09038 15.7409C7.84138 9.26991 13.9744 7.14891 16.4004 6.55991C17.0543 6.39909 17.7322 6.35944 18.4004 6.44291C20.2881 6.66349 22.1042 7.29683 23.7198 8.29799C25.3353 9.29915 26.7107 10.6436 27.7484 12.2359C28.3256 13.1567 28.6489 14.2138 28.6854 15.2999C28.7024 15.7569 28.7144 16.2999 28.7134 16.9079C28.9334 17.8167 29.0604 18.7455 29.0924 19.6799C29.2838 19.6334 29.4825 19.6246 29.6774 19.6539C30.8704 19.8379 31.6314 21.4179 31.3774 23.1849C31.1234 24.9519 29.9544 26.2349 28.7624 26.0519C28.4651 26.0025 28.1877 25.8701 27.9624 25.6699C27.1485 27.6849 25.7671 29.4202 23.9859 30.6651C22.2047 31.91 20.1003 32.611 17.9284 32.6829H17.8284C17.4998 32.6835 17.1713 32.6671 16.8444 32.6339Z" fill="#FAD7C4"/>
<path d="M12.3389 21.6332C12.3389 20.7392 12.7729 20.0132 13.3099 20.0132C13.8469 20.0132 14.2809 20.7382 14.2809 21.6332C14.2809 22.5282 13.8469 23.2532 13.3099 23.2532C12.7729 23.2532 12.3389 22.5282 12.3389 21.6332Z" fill="black"/>
<path d="M21.7227 21.6332C21.7227 20.7392 22.1567 20.0132 22.6937 20.0132C23.2307 20.0132 23.6637 20.7382 23.6637 21.6332C23.6637 22.5282 23.2297 23.2532 22.6937 23.2532C22.1577 23.2532 21.7227 22.5282 21.7227 21.6332Z" fill="black"/>
<path d="M5.11931 20.5504C5.41031 17.0134 7.04931 6.94039 18.2423 6.95439C18.2423 6.95439 30.4653 5.97039 31.1673 20.8204C31.1666 20.9106 31.1383 20.9985 31.0861 21.0721C31.0339 21.1458 30.9604 21.2016 30.8755 21.2322C30.7906 21.2627 30.6983 21.2664 30.6112 21.2429C30.5241 21.2193 30.4463 21.1696 30.3883 21.1004C28.8583 19.3104 24.8673 17.6944 18.2413 17.6944C11.4663 17.6944 7.51931 19.2304 5.87631 20.8674C5.81477 20.9314 5.73531 20.9753 5.64837 20.9933C5.56143 21.0113 5.47108 21.0026 5.38919 20.9683C5.30729 20.934 5.23769 20.8757 5.18952 20.8011C5.14136 20.7266 5.11688 20.6391 5.11931 20.5504Z" fill="#111111"/>
<path opacity="0.5" d="M9.33887 25.0132C9.33887 24.4612 10.2389 24.0132 11.3389 24.0132C12.4389 24.0132 13.3389 24.4612 13.3389 25.0132C13.3389 25.5652 12.4389 26.0132 11.3389 26.0132C10.2389 26.0132 9.33887 25.5652 9.33887 25.0132Z" fill="#FF7B7B"/>
<path opacity="0.5" d="M22.3389 25.0132C22.3389 24.4612 23.2389 24.0132 24.3389 24.0132C25.4389 24.0132 26.3389 24.4612 26.3389 25.0132C26.3389 25.5652 25.4389 26.0132 24.3389 26.0132C23.2389 26.0132 22.3389 25.5652 22.3389 25.0132Z" fill="#FF7B7B"/>
<path d="M5.87725 15.4708C7.1473 16.741 7.60802 15.977 7.60802 15.977L9.47761 13.3048C10.1048 12.2076 11.0763 11.348 12.2417 10.8592C12.9352 10.5623 13.6878 10.4293 14.441 10.4705C15.1943 10.5117 15.9279 10.7259 16.5849 11.0966L24.3038 15.5531C24.3038 15.5531 25.699 16.3586 27.1515 13.8428C28.897 10.8195 26.2217 7.93317 23.8973 6.59117C21.5729 5.24917 19.4204 4.67733 16.8633 5.88448C15.2325 5.58539 13.5491 5.79497 12.0415 6.48481C10.5338 7.17465 9.27468 8.31139 8.43483 9.74093C5.52933 14.7734 5.87725 15.4708 5.87725 15.4708Z" fill="#111111"/>
<path d="M11.3019 16.4595C11.3127 16.4162 11.3377 16.3779 11.3728 16.3504C11.408 16.323 11.4513 16.3081 11.4959 16.3081C11.5404 16.3081 11.5837 16.323 11.6189 16.3504C11.654 16.3779 11.679 16.4162 11.6899 16.4595L12.4339 19.4345C12.4413 19.464 12.4419 19.4948 12.4357 19.5246C12.4294 19.5544 12.4164 19.5824 12.3977 19.6064C12.379 19.6304 12.3551 19.6498 12.3277 19.6632C12.3003 19.6766 12.2703 19.6835 12.2399 19.6835H10.7519C10.7214 19.6835 10.6914 19.6766 10.664 19.6632C10.6366 19.6498 10.6127 19.6304 10.594 19.6064C10.5753 19.5824 10.5623 19.5544 10.556 19.5246C10.5498 19.4948 10.5504 19.464 10.5579 19.4345L11.3019 16.4595Z" fill="#FAD7C4"/>
<path d="M24.3019 16.4595C24.3127 16.4162 24.3377 16.3779 24.3728 16.3504C24.408 16.323 24.4513 16.3081 24.4959 16.3081C24.5404 16.3081 24.5837 16.323 24.6189 16.3504C24.654 16.3779 24.679 16.4162 24.6899 16.4595L25.4339 19.4345C25.4413 19.464 25.4419 19.4948 25.4357 19.5246C25.4294 19.5544 25.4164 19.5824 25.3977 19.6064C25.379 19.6304 25.3551 19.6498 25.3277 19.6632C25.3003 19.6766 25.2703 19.6835 25.2399 19.6835H23.7519C23.7214 19.6835 23.6914 19.6766 23.664 19.6632C23.6366 19.6498 23.6127 19.6304 23.594 19.6064C23.5753 19.5824 23.5623 19.5544 23.556 19.5246C23.5498 19.4948 23.5504 19.464 23.5579 19.4345L24.3019 16.4595Z" fill="#FAD7C4"/>
<path d="M17.8019 15.9595C17.8127 15.9162 17.8377 15.8779 17.8728 15.8504C17.908 15.823 17.9513 15.8081 17.9959 15.8081C18.0404 15.8081 18.0837 15.823 18.1189 15.8504C18.154 15.8779 18.179 15.9162 18.1899 15.9595L18.9339 18.9345C18.9413 18.964 18.9419 18.9948 18.9357 19.0246C18.9294 19.0544 18.9164 19.0824 18.8977 19.1064C18.879 19.1304 18.8551 19.1498 18.8277 19.1632C18.8003 19.1766 18.7703 19.1835 18.7399 19.1835H17.2519C17.2214 19.1835 17.1914 19.1766 17.164 19.1632C17.1366 19.1498 17.1127 19.1304 17.094 19.1064C17.0753 19.0824 17.0623 19.0544 17.056 19.0246C17.0498 18.9948 17.0504 18.964 17.0579 18.9345L17.8019 15.9595Z" fill="#FAD7C4"/>
</svg>
