<svg width="32" height="32" viewBox="0 0 32 32" fill="none" xmlns="http://www.w3.org/2000/svg">
<path d="M28 15L25 18.5V26.5C25 27.6046 24.1046 28.5 23 28.5H10C8.89543 28.5 8 27.6068 8 26.5022C8 24.3799 8 20.9936 8 18.5L5 15" stroke="white" stroke-width="1.5" stroke-linecap="round"/>
<path d="M18.5 22L16.5 24L14.5 22" stroke="white" stroke-width="1.5" stroke-linecap="round" stroke-linejoin="round"/>
<path d="M16.5 24V17.5" stroke="white" stroke-width="1.5" stroke-linecap="round" stroke-linejoin="round"/>
<circle cx="16.5" cy="11" r="7" fill="white"/>
<path d="M15.961 15V14.048C15.4734 13.953 15.0616 13.7712 14.7257 13.5026C14.3897 13.234 14.1478 12.8591 14 12.3777L15.1494 11.9969C15.2718 12.3606 15.4544 12.6288 15.6973 12.8016C15.9401 12.9743 16.2506 13.0607 16.6288 13.0607C16.962 13.0607 17.2338 13.0029 17.4443 12.8874C17.6547 12.7719 17.76 12.5915 17.76 12.3461C17.76 12.1214 17.6643 11.936 17.473 11.7896C17.2818 11.6433 16.8518 11.4822 16.1833 11.3063C15.4734 11.1191 14.978 10.8806 14.6972 10.5908C14.4163 10.301 14.2759 9.95253 14.2759 9.54538C14.2759 9.09133 14.4479 8.7238 14.7919 8.44279C15.136 8.16185 15.5257 7.99103 15.961 7.93031V7H17.0861V7.93031C17.5291 8.00456 17.8955 8.15299 18.1853 8.3756C18.4752 8.5982 18.6886 8.87422 18.8253 9.20365L17.6903 9.61235C17.5933 9.38895 17.4504 9.21732 17.2615 9.09748C17.0727 8.97757 16.8243 8.91761 16.5165 8.91761C16.1771 8.91761 15.9255 8.9759 15.7617 9.09249C15.5979 9.20908 15.5159 9.35389 15.5159 9.52692C15.5159 9.73715 15.6251 9.90487 15.8435 10.0301C16.0619 10.1553 16.4943 10.2981 17.1407 10.4582C17.7448 10.6111 18.2057 10.8501 18.5234 11.1751C18.8411 11.5001 19 11.8832 19 12.3244C19 12.8545 18.8172 13.2597 18.4516 13.5397C18.086 13.8197 17.6308 13.9964 17.0861 14.0697V15H15.961Z" fill="#212121"/>
</svg>
