<svg width="32" height="32" viewBox="0 0 32 32" fill="none" xmlns="http://www.w3.org/2000/svg">
<path d="M27.5 15L24.5 18.5V26.5C24.5 27.6046 23.6046 28.5 22.5 28.5H9.5C8.39543 28.5 7.5 27.6068 7.5 26.5022C7.5 24.3799 7.5 20.9936 7.5 18.5L4.5 15" stroke="white" stroke-width="1.5" stroke-linecap="round"/>
<path d="M14 6L16 4L18 6" stroke="white" stroke-width="1.5" stroke-linecap="round" stroke-linejoin="round"/>
<path d="M16 4L16 10.5" stroke="white" stroke-width="1.5" stroke-linecap="round" stroke-linejoin="round"/>
<circle cx="16" cy="17" r="7" transform="rotate(-180 16 17)" fill="white"/>
<path d="M15.461 21V20.048C14.9734 19.953 14.5616 19.7712 14.2257 19.5026C13.8897 19.234 13.6478 18.8591 13.5 18.3777L14.6494 17.9969C14.7718 18.3606 14.9544 18.6288 15.1973 18.8016C15.4401 18.9743 15.7506 19.0607 16.1288 19.0607C16.462 19.0607 16.7338 19.0029 16.9443 18.8874C17.1547 18.7719 17.26 18.5915 17.26 18.3461C17.26 18.1214 17.1643 17.936 16.973 17.7896C16.7818 17.6433 16.3518 17.4822 15.6833 17.3063C14.9734 17.1191 14.478 16.8806 14.1972 16.5908C13.9163 16.301 13.7759 15.9525 13.7759 15.5454C13.7759 15.0913 13.9479 14.7238 14.2919 14.4428C14.636 14.1619 15.0257 13.991 15.461 13.9303V13H16.5861V13.9303C17.0291 14.0046 17.3955 14.153 17.6853 14.3756C17.9752 14.5982 18.1886 14.8742 18.3253 15.2036L17.1903 15.6124C17.0933 15.3889 16.9504 15.2173 16.7615 15.0975C16.5727 14.9776 16.3243 14.9176 16.0165 14.9176C15.6771 14.9176 15.4255 14.9759 15.2617 15.0925C15.0979 15.2091 15.0159 15.3539 15.0159 15.5269C15.0159 15.7372 15.1251 15.9049 15.3435 16.0301C15.5619 16.1553 15.9943 16.2981 16.6407 16.4582C17.2448 16.6111 17.7057 16.8501 18.0234 17.1751C18.3411 17.5001 18.5 17.8832 18.5 18.3244C18.5 18.8545 18.3172 19.2597 17.9516 19.5397C17.586 19.8197 17.1308 19.9964 16.5861 20.0697V21H15.461Z" fill="#212121"/>
</svg>
