<svg width="32" height="32" viewBox="0 0 32 32" fill="none" xmlns="http://www.w3.org/2000/svg">
<rect x="5.5" y="6" width="21" height="5" rx="1" stroke="#111111" stroke-width="1.5" stroke-linecap="round"/>
<path d="M5 26H28" stroke="#111111" stroke-width="1.5" stroke-linecap="round"/>
<rect x="7" y="11" width="18" height="15" stroke="#111111" stroke-width="1.5" stroke-linecap="round"/>
<path d="M14.5 23V22.25C14.0858 22.25 13.75 22.5858 13.75 23H14.5ZM17.5 23H18.25C18.25 22.5858 17.9142 22.25 17.5 22.25V23ZM17.5 26V26.75H18.25V26H17.5ZM14.5 26H13.75V26.75H14.5V26ZM14.5 23V23.75H17.5V23V22.25H14.5V23ZM17.5 23H16.75V26H17.5H18.25V23H17.5ZM17.5 26V25.25H14.5V26V26.75H17.5V26ZM14.5 26H15.25V23H14.5H13.75V26H14.5Z" fill="#111111"/>
<path d="M22.4989 19.4018V15.5925C22.5184 15.2888 22.2656 15.0298 21.9297 15L21.9042 15.2262V15.0033H20.8595V16.8121H18.1404V15.0033H17.083L17.0703 15.0045C16.7344 15.0343 16.4815 15.2933 16.5011 15.597V19.4063C16.4815 19.71 16.7344 19.9691 17.0703 19.9989L17.083 20H18.1404V18.0521H20.8595V19.9955H21.9167L21.9291 19.9944C22.2732 19.9646 22.5184 19.7032 22.4989 19.4018Z" fill="#111111"/>
<path d="M10.5399 15H9.50104V19.4059C9.4819 19.7099 9.72977 19.969 10.059 19.9989L10.0714 20H11.1079V16.9424L13.0071 19.1801L13.012 19.1853C13.4038 19.5936 13.8239 20 14.5245 20H15.499V15.5941C15.5181 15.2901 15.2702 15.031 14.941 15.0011L14.9286 15H13.8921V18.0327L12.0084 15.7846L11.9683 15.7426C11.7938 15.5598 11.6183 15.3759 11.4098 15.241C11.174 15.0885 10.9012 15 10.5399 15Z" fill="#111111"/>
</svg>
