<svg width="32" height="32" viewBox="0 0 32 32" fill="none" xmlns="http://www.w3.org/2000/svg">
<path d="M13.245 29.5C13.02 29.5 12.8 29.4 12.655 29.21C12.4 28.885 12.455 28.41 12.785 28.155L18.74 23.495H26.25C27.215 23.495 28 22.71 28 21.745V7.245C28 6.28 27.215 5.495 26.25 5.495H3.5V21.745C3.5 22.71 4.285 23.495 5.25 23.495H13.25C13.665 23.495 14 23.83 14 24.245C14 24.66 13.665 24.995 13.25 24.995H5.25C3.46 24.995 2 23.535 2 21.745V4H26.25C28.04 4 29.5 5.46 29.5 7.25V21.75C29.5 23.54 28.04 25 26.25 25H19.26L13.715 29.34C13.58 29.445 13.415 29.5 13.255 29.5H13.245Z" fill="#212121"/>
<path d="M15.75 16.5C16.7165 16.5 17.5 15.7165 17.5 14.75C17.5 13.7835 16.7165 13 15.75 13C14.7835 13 14 13.7835 14 14.75C14 15.7165 14.7835 16.5 15.75 16.5Z" fill="#212121"/>
<path d="M9.25 16.5C10.2165 16.5 11 15.7165 11 14.75C11 13.7835 10.2165 13 9.25 13C8.2835 13 7.5 13.7835 7.5 14.75C7.5 15.7165 8.2835 16.5 9.25 16.5Z" fill="#212121"/>
<path d="M22.25 16.5C23.2165 16.5 24 15.7165 24 14.75C24 13.7835 23.2165 13 22.25 13C21.2835 13 20.5 13.7835 20.5 14.75C20.5 15.7165 21.2835 16.5 22.25 16.5Z" fill="#212121"/>
</svg>
