<svg width="32" height="32" viewBox="0 0 32 32" fill="none" xmlns="http://www.w3.org/2000/svg">
<g clip-path="url(#clip0_262_3915)">
<path d="M27 10.25C24.9617 6.81264 21.152 4.5 16.7885 4.5C10.2779 4.5 5 9.64873 5 16C5 22.3513 10.2779 27.5 16.7885 27.5C21.152 27.5 24.9617 25.1874 27 21.75" stroke="#111111" stroke-width="1.5" stroke-linecap="round"/>
<path d="M5 7C2.55887 9.12849 1 12.3696 1 16C1 19.6304 2.55887 22.8715 5 25" stroke="#111111" stroke-width="1.5" stroke-linecap="round"/>
<path d="M16.1376 22.5V20.953C15.3574 20.7986 14.6986 20.5031 14.1611 20.0667C13.6236 19.6303 13.2365 19.021 13 18.2387L14.839 17.6199C15.0348 18.2109 15.327 18.6468 15.7156 18.9275C16.1042 19.2083 16.601 19.3486 17.2061 19.3486C17.7391 19.3486 18.174 19.2548 18.5108 19.0671C18.8476 18.8794 19.016 18.5861 19.016 18.1874C19.016 17.8223 18.8629 17.5209 18.5568 17.2831C18.2508 17.0453 17.5629 16.7836 16.4932 16.4978C15.3574 16.1936 14.5649 15.806 14.1155 15.335C13.6662 14.8641 13.4415 14.2979 13.4415 13.6362C13.4415 12.8984 13.7167 12.3012 14.2671 11.8445C14.8176 11.388 15.4411 11.1104 16.1376 11.0118V9.5H17.9377V11.0118C18.6465 11.1324 19.2328 11.3736 19.6965 11.7353C20.1604 12.0971 20.5017 12.5456 20.7205 13.0809L18.9045 13.7451C18.7493 13.382 18.5206 13.1032 18.2185 12.9084C17.9163 12.7135 17.5189 12.6161 17.0264 12.6161C16.4834 12.6161 16.0808 12.7108 15.8188 12.9003C15.5566 13.0897 15.4255 13.3251 15.4255 13.6062C15.4255 13.9479 15.6002 14.2204 15.9496 14.4239C16.299 14.6274 16.9908 14.8593 18.0252 15.1196C18.9917 15.3681 19.7291 15.7564 20.2375 16.2845C20.7458 16.8127 21 17.4352 21 18.1521C21 19.0136 20.7075 19.672 20.1225 20.1271C19.5375 20.5821 18.8093 20.8691 17.9377 20.9882V22.5H16.1376Z" fill="#111111"/>
<path d="M24.5 16H29.5" stroke="#111111" stroke-width="1.5" stroke-linecap="round"/>
<path d="M28.5 13.5L31 16L28.5 18.5" stroke="#111111" stroke-width="1.5" stroke-linecap="round" stroke-linejoin="round"/>
</g>
<defs>
<clipPath id="clip0_262_3915">
<rect width="32" height="32" fill="white"/>
</clipPath>
</defs>
</svg>
