<svg width="32" height="32" viewBox="0 0 32 32" fill="none" xmlns="http://www.w3.org/2000/svg">
<path d="M15.5 24H2V25.5C2 27.1568 3.34314 28.5 5 28.5H14.6" stroke="#111111" stroke-width="1.5" stroke-linecap="round"/>
<path d="M24 16.5217V8.56522L19.0238 4H6C5.44772 4 5 4.44772 5 5V24" stroke="#111111" stroke-width="1.5" stroke-linecap="round" stroke-linejoin="round"/>
<path d="M10 13H19" stroke="#111111" stroke-width="1.5" stroke-linecap="round"/>
<path d="M10 17H19" stroke="#111111" stroke-width="1.5" stroke-linecap="round"/>
<path d="M25.7005 19.6148L26.8852 20.7995M20.3694 28.5L29.2546 19.6148C29.5818 19.2876 29.5818 18.7572 29.2546 18.4301L28.0699 17.2454C27.7428 16.9182 27.2124 16.9182 26.8852 17.2454L18 26.1306V28.5H20.3694Z" stroke="#111111" stroke-width="1.5" stroke-linecap="round"/>
<path d="M19 4V8.49999H23.5" stroke="#111111" stroke-width="1.5" stroke-linecap="round" stroke-linejoin="round"/>
</svg>
