<svg width="32" height="32" viewBox="0 0 32 32" fill="none" xmlns="http://www.w3.org/2000/svg">
<path d="M12.4658 24.9941C12.0582 25.4007 11.5652 25.7114 11.0225 25.9036C10.4799 26.0958 9.90122 26.1646 9.32862 26.1052C8.75601 26.0457 8.20386 25.8594 7.71228 25.5598C7.2207 25.2602 6.80205 24.8548 6.48676 24.3731C6.0059 23.6036 5.80428 22.6922 5.91571 21.7916C6.02714 20.8911 6.44484 20.0562 7.09876 19.4271L11.5228 15.0081C12.0618 14.4513 12.7521 14.0645 13.5085 13.8957C14.2649 13.7269 15.0541 13.7833 15.7788 14.0581C16.4955 14.3365 17.1104 14.8266 17.5418 15.4631C17.6928 15.6636 17.9153 15.7982 18.163 15.8388C18.4107 15.8795 18.6645 15.8232 18.8718 15.6816C19.0791 15.54 19.2238 15.324 19.2759 15.0785C19.3281 14.8329 19.2836 14.5767 19.1518 14.3631C18.5966 13.5493 17.8423 12.891 16.9608 12.4511C15.8387 11.9092 14.5747 11.7335 13.3474 11.9488C12.12 12.1641 10.9914 12.7596 10.1208 13.6511L5.74476 18.0261C4.77997 18.9587 4.16068 20.1914 3.98843 21.5222C3.81619 22.8529 4.10121 24.2027 4.79676 25.3501C5.2631 26.0897 5.88974 26.7149 6.63033 27.1795C7.37092 27.6442 8.20651 27.9364 9.07527 28.0345C9.94403 28.1327 10.8237 28.0342 11.6493 27.7464C12.4749 27.4587 13.2252 26.989 13.8448 26.3721L15.6858 24.5331C15.8684 24.3503 15.9708 24.1024 15.9707 23.8439C15.9705 23.5855 15.8676 23.3377 15.6848 23.1551C15.5019 22.9725 15.254 22.8701 14.9956 22.8702C14.7371 22.8704 14.4894 22.9733 14.3068 23.1561L12.4658 24.9941Z" fill="white" stroke="white" stroke-width="0.5"/>
<path d="M19.5336 7.00495C19.9411 6.59837 20.434 6.2877 20.9766 6.09552C21.5192 5.90334 22.0977 5.83448 22.6703 5.89396C23.2428 5.95343 23.7949 6.13974 24.2864 6.43934C24.7779 6.73894 25.1964 7.1443 25.5116 7.62595C25.9926 8.39541 26.1944 9.30692 26.0829 10.2075C25.9715 11.1081 25.5537 11.9429 24.8996 12.5719L20.4756 16.9909C19.9367 17.5479 19.2463 17.9347 18.4899 18.1036C17.7335 18.2724 16.9442 18.2159 16.2196 17.9409C15.5031 17.6622 14.8885 17.1717 14.4576 16.5349C14.3065 16.3345 14.084 16.1999 13.8363 16.1592C13.5887 16.1186 13.3348 16.1749 13.1276 16.3165C12.9203 16.4581 12.7756 16.6741 12.7234 16.9196C12.6713 17.1652 12.7158 17.4213 12.8476 17.6349C13.4028 18.4488 14.1571 19.107 15.0386 19.5469C16.1606 20.089 17.4247 20.2648 18.652 20.0495C19.8794 19.8342 21.0081 19.2386 21.8786 18.3469L26.2576 13.9739C27.2224 13.0414 27.8417 11.8087 28.0139 10.4779C28.1862 9.1472 27.9012 7.79743 27.2056 6.64995C26.7393 5.91042 26.1126 5.2852 25.372 4.82055C24.6314 4.35589 23.7959 4.06369 22.9271 3.96556C22.0583 3.86743 21.1786 3.96589 20.353 4.25364C19.5275 4.54139 18.7772 5.01107 18.1576 5.62795L16.3136 7.46695C16.131 7.64981 16.0285 7.89773 16.0287 8.15616C16.0289 8.41458 16.1317 8.66235 16.3146 8.84495C16.4975 9.02755 16.7454 9.13003 17.0038 9.12984C17.2622 9.12965 17.51 9.02681 17.6926 8.84395L19.5336 7.00495Z" fill="white" stroke="white" stroke-width="0.5"/>
</svg>
