<svg width="32" height="32" viewBox="0 0 32 32" fill="none" xmlns="http://www.w3.org/2000/svg">
<path d="M8.71459 23.701V25.0006H19.0702C19.0472 25.0008 19.0241 25.001 19.001 25.001H7.00098C3.68727 25.001 1.00098 22.3147 1.00098 19.001V17.2866H2.30098V19.001C2.30098 21.5967 4.40524 23.701 7.00098 23.701H8.71459Z" fill="#111111"/>
<path d="M23.701 8.71459H25.0006V19.0702C25.0008 19.0472 25.001 19.0241 25.001 19.001V7.00098C25.001 3.68727 22.3147 1.00098 19.001 1.00098H17.2856V2.30098H19.001C21.5967 2.30098 23.701 4.40524 23.701 7.00098V8.71459Z" fill="#111111"/>
<path d="M8.71459 2.30098V1.00098H7.00098C3.68727 1.00098 1.00098 3.68727 1.00098 7.00098V8.71459H2.30098V7.00098C2.30098 4.40524 4.40524 2.30098 7.00098 2.30098H8.71459Z" fill="#111111"/>
<path d="M8.43506 9.65723V11.6932" stroke="#111111" stroke-width="1.3" stroke-linecap="round"/>
<path d="M17.3931 9.65723V11.6932" stroke="#111111" stroke-width="1.3" stroke-linecap="round"/>
<path d="M9.40303 16C9.54338 16.3396 9.83013 16.6765 10.2804 16.9716C10.9474 17.4085 11.9071 17.7 13.0001 17.7C14.0932 17.7 15.0529 17.4085 15.7198 16.9716C16.1702 16.6765 16.4569 16.3396 16.5973 16H17.9495C17.6029 17.6961 15.5191 19 13.0001 19C10.4812 19 8.39737 17.6961 8.05078 16H9.40303Z" fill="#111111"/>
<path d="M17.813 24.5769C17.8067 23.0216 18.3482 21.5138 19.3428 20.318M20.563 19.1959C21.6427 18.4352 22.9437 18.0534 24.2632 18.11C25.5828 18.1666 26.8465 18.6585 27.857 19.5089M29.4571 21.5089C29.9456 22.4584 30.1988 23.5113 30.1959 24.579C30.2076 25.7071 30.0707 26.8318 29.7881 27.924" stroke="#19973C" stroke-width="0.8" stroke-linecap="round"/>
<path d="M26.8159 29.4311C27.3569 28.7516 27.791 27.9936 28.103 27.1831C28.3037 26.4046 28.4012 25.603 28.3931 24.7991C28.399 23.5683 27.9238 22.3839 27.0684 21.499M25.519 20.4701C25.0353 20.2827 24.5208 20.1866 24.002 20.187C23.1922 20.1578 22.3947 20.3891 21.7261 20.8468C21.0574 21.3045 20.5529 21.9646 20.2871 22.7301M19.6182 24.4041C19.562 25.1642 19.2412 25.8807 18.7119 26.4291" stroke="#19973C" stroke-width="0.8" stroke-linecap="round"/>
<path d="M24.79 29.8938C25.6823 28.7626 26.2291 27.398 26.3657 25.9638C26.3657 25.7988 26.3707 25.6248 26.3657 25.4458M26.2158 24.0368C26.1669 23.6031 25.9795 23.1968 25.6816 22.8778C25.3838 22.5589 24.9913 22.3442 24.562 22.2658C22.624 21.9658 22.0508 23.0938 21.8618 25.0398C21.8655 25.6083 21.7468 26.171 21.5137 26.6895C21.2806 27.208 20.9384 27.6702 20.5107 28.0448" stroke="#19973C" stroke-width="0.8" stroke-linecap="round"/>
<path d="M22.7661 29.8951C24.1571 28.0341 24.7854 26.8521 24.5664 24.5781" stroke="#19973C" stroke-width="0.8" stroke-linecap="round"/>
</svg>
