<svg width="32" height="32" viewBox="0 0 32 32" fill="none" xmlns="http://www.w3.org/2000/svg">
<path d="M21 26H22.3963C24.9389 26 27 23.9389 27 21.3963V13.5C27 7.70101 22.299 3 16.5 3C10.701 3 6 7.70101 6 13.5V15.5V18.5" stroke="white" stroke-width="1.5" stroke-linecap="round"/>
<path d="M6 13C4.34315 13 3 14.3431 3 16C3 17.6569 4.34315 19 6 19" stroke="white" stroke-width="1.5" stroke-linecap="square"/>
<path d="M27 13C28.6569 13 30 14.3431 30 16C30 17.6569 28.6569 19 27 19" stroke="white" stroke-width="1.5" stroke-linecap="square"/>
<path d="M15.2627 13.0205C15.0742 13.209 15.0464 13.5052 15.1972 13.7251C15.446 14.0873 15.8963 14.6766 16.6099 15.39C17.3232 16.1034 17.9124 16.5539 18.2747 16.8027C18.4945 16.9536 18.7907 16.9257 18.9793 16.7372L19.5597 16.1567C19.813 15.9034 20.2235 15.9034 20.4767 16.1567L21.6971 17.3771C22.101 17.781 22.101 18.4355 21.6971 18.8391L20.9474 19.5888C20.9474 19.5888 19.0702 21.4662 14.8024 17.1978C10.534 12.9298 12.411 11.0524 12.411 11.0524L13.1607 10.3027C13.5643 9.89909 14.2187 9.89909 14.6226 10.3027L15.843 11.5232C16.0962 11.7764 16.0962 12.1869 15.843 12.4402L15.2625 13.0207L15.2627 13.0205Z" fill="#BB8FE6"/>
<path d="M15 24.25H20C20.1381 24.25 20.25 24.3619 20.25 24.5V27.5C20.25 27.6381 20.1381 27.75 20 27.75H15C14.8619 27.75 14.75 27.6381 14.75 27.5V24.5C14.75 24.3619 14.8619 24.25 15 24.25Z" stroke="white" stroke-width="1.5" stroke-linecap="square"/>
</svg>
