<svg width="32" height="32" viewBox="0 0 32 32" fill="none" xmlns="http://www.w3.org/2000/svg">
<path d="M5.5 11.7061H21.5C22.8261 11.7061 24.0979 12.2328 25.0355 13.1705C25.9732 14.1082 26.5 15.38 26.5 16.7061V24.8421C26.5 26.1681 25.9732 27.4399 25.0355 28.3776C24.0979 29.3153 22.8261 29.8421 21.5 29.8421H10.5C9.17392 29.8421 7.90215 29.3153 6.96447 28.3776C6.02678 27.4399 5.5 26.1681 5.5 24.8421V11.7061Z" stroke="#111111" stroke-width="1.5"/>
<path d="M21.7266 11.7062H9.3208V8.07022C9.39615 6.50492 10.0595 5.02578 11.1782 3.92837C12.2969 2.83097 13.7885 2.19626 15.355 2.15103C16.9214 2.10581 18.4473 2.65345 19.6274 3.68448C20.8076 4.71551 21.5552 6.15397 21.7207 7.71231" stroke="#111111" stroke-width="1.5" stroke-linecap="round"/>
<path d="M11.2268 18.8652C11.7537 18.8652 12.1814 19.2924 12.1814 19.8192C12.1814 20.3468 11.7537 20.7738 11.2268 20.7738C10.6999 20.7738 10.272 20.3468 10.272 19.8192C10.272 19.2924 10.6999 18.8652 11.2268 18.8652ZM15.9995 18.8652C16.5264 18.8652 16.9543 19.2924 16.9543 19.8192C16.9543 20.3468 16.5264 20.7738 15.9995 20.7738C15.4726 20.7738 15.0447 20.3468 15.0447 19.8192C15.0447 19.2924 15.4726 18.8652 15.9995 18.8652ZM20.7722 18.8652C21.2991 18.8652 21.727 19.2924 21.727 19.8192C21.727 20.3468 21.2991 20.7738 20.7722 20.7738C20.2454 20.7738 19.8174 20.3468 19.8174 19.8192C19.8174 19.2924 20.2454 18.8652 20.7722 18.8652Z" fill="#19973C"/>
</svg>
