<svg width="32" height="32" viewBox="0 0 32 32" fill="none" xmlns="http://www.w3.org/2000/svg">
<g clip-path="url(#clip0_266_61312)">
<path d="M0 16C0 16.94 0 17.0486 0.0257143 17.8429C0.0828571 19.6114 0.274286 21.6514 0.985714 23.7943C1.48857 25.3143 2.42857 26.9457 3.37143 27.9829C4.57143 29.2972 6.22 30.3743 8.00571 30.9886C9.83143 31.6172 11.8057 31.92 15.6457 32H16.3543C20.1943 31.92 22.1686 31.6172 23.9943 30.9886C25.78 30.3743 27.4286 29.2972 28.6286 27.9829C29.5743 26.9457 30.5114 25.3143 31.0143 23.7943C31.7257 21.6486 31.9171 19.6114 31.9743 17.8429C32 17.0486 32 16.94 32 16C32 15.06 32 14.9514 31.9743 14.1571C31.9171 12.3886 31.7257 10.3514 31.0143 8.20572C30.5114 6.68572 29.5743 5.05429 28.6286 4.01715C27.4286 2.70286 25.78 1.62571 23.9943 1.00857C22.1686 0.379999 20.1943 0.0771429 16.3543 0H15.6457C11.8057 0.08 9.83143 0.379999 8.00571 1.00857C6.22 1.62286 4.57143 2.7 3.37143 4.01715C2.42857 5.05143 1.48857 6.68572 0.985714 8.20572C0.274286 10.3486 0.0828571 12.3886 0.0257143 14.1571C0 14.9514 0 15.06 0 16Z" fill="#0367B3"/>
<path d="M16.1427 24.8431C20.9933 24.8431 24.9256 20.9108 24.9256 16.0602C24.9256 11.2095 20.9933 7.27734 16.1427 7.27734C11.2921 7.27734 7.35986 11.2095 7.35986 16.0602C7.35986 20.9108 11.2921 24.8431 16.1427 24.8431Z" fill="#0098D5"/>
<path d="M16.1399 10.183C20.1313 10.183 23.5399 12.6401 24.8513 16.0858C24.8513 16.0458 24.8541 16.0058 24.8541 15.9658C24.8541 11.1544 20.937 7.25439 16.1056 7.25439C11.2741 7.25439 7.35986 11.1573 7.35986 15.9658C7.35986 16.0687 7.36272 16.1687 7.36843 16.2687C8.62558 12.7258 12.0799 10.1801 16.1427 10.1801L16.1399 10.183Z" fill="#0083CA"/>
<path d="M16.1455 10.2545C20.1455 10.2545 23.5569 12.7202 24.8512 16.1688C24.8512 16.1402 24.8512 16.1145 24.8512 16.086C23.5398 12.6374 20.1312 10.1831 16.1398 10.1831C12.1483 10.1831 8.62548 12.7288 7.36548 16.2717C7.36548 16.3002 7.36548 16.3317 7.36548 16.3631C8.60548 12.8174 12.0683 10.2574 16.1398 10.2574L16.1455 10.2545Z" fill="#0083CA"/>
<path d="M16.134 10.3373C20.1568 10.3373 23.5768 12.8259 24.8482 16.2888C24.8482 16.2488 24.8482 16.2088 24.8511 16.1716C23.5568 12.7259 20.1454 10.2573 16.1454 10.2573C12.1454 10.2573 8.61109 12.8173 7.37109 16.363C7.37109 16.3945 7.37109 16.423 7.37395 16.4545C8.59395 12.9088 12.0511 10.3402 16.134 10.3402V10.3373Z" fill="#0085CB"/>
<path d="M16.1345 10.3369C12.0517 10.3369 8.59451 12.9083 7.37451 16.4512C7.37451 16.4769 7.38023 16.5055 7.38023 16.5312C8.58594 12.9912 12.0488 10.4141 16.1374 10.4141C20.2259 10.4141 23.5945 12.9169 24.8459 16.3798C24.8459 16.3512 24.8459 16.3198 24.8459 16.2883C23.5774 12.8255 20.1545 10.3369 16.1317 10.3369H16.1345Z" fill="#0086CC"/>
<path d="M16.1373 10.4145C12.0487 10.4145 8.58298 12.9916 7.38013 16.5316C7.38013 16.5602 7.38584 16.5888 7.38584 16.6173C8.57156 13.0773 12.0401 10.4916 16.1373 10.4916C20.2344 10.4916 23.6058 13.0059 24.8401 16.4688C24.8401 16.4373 24.843 16.4088 24.8458 16.3773C23.5944 12.9145 20.1687 10.4116 16.1373 10.4116V10.4145Z" fill="#0088CC"/>
<path d="M16.1369 10.566C20.1826 10.566 23.6169 13.0917 24.8341 16.5546C24.8341 16.526 24.8398 16.4974 24.8398 16.4688C23.6084 13.0031 20.1769 10.4917 16.1369 10.4917C12.0969 10.4917 8.57121 13.0774 7.3855 16.6174C7.3855 16.6431 7.38836 16.6688 7.39121 16.6946C8.56264 13.1603 12.0369 10.566 16.1369 10.566Z" fill="#0089CD"/>
<path d="M16.1368 10.5659C12.0368 10.5659 8.56254 13.1602 7.39111 16.6945C7.39111 16.7231 7.39397 16.7516 7.39683 16.7802C8.54826 13.2488 12.0254 10.6431 16.1311 10.6431C20.2368 10.6431 23.6283 13.1831 24.8225 16.6488C24.8225 16.6173 24.8283 16.5859 24.8311 16.5545C23.6168 13.0916 20.1825 10.5659 16.134 10.5659H16.1368Z" fill="#008BCE"/>
<path d="M16.1344 10.7255C20.1973 10.7255 23.6401 13.2712 24.8201 16.7312C24.8201 16.7055 24.823 16.6769 24.8259 16.6512C23.6316 13.1855 20.1887 10.6455 16.1344 10.6455C12.0801 10.6455 8.55158 13.2512 7.40015 16.7827C7.40015 16.8112 7.403 16.8369 7.40586 16.8655C8.54015 13.3369 12.0173 10.7255 16.1344 10.7255Z" fill="#008DCF"/>
<path d="M16.1343 10.7256C12.0172 10.7256 8.54005 13.337 7.40576 16.8656C7.40576 16.8913 7.41148 16.9142 7.41433 16.9399C8.53148 13.4199 12.0115 10.8056 16.1286 10.8056C20.2458 10.8056 23.6543 13.3656 24.8115 16.8284C24.8143 16.797 24.8172 16.7656 24.8172 16.7342C23.6372 13.2742 20.1943 10.7284 16.1315 10.7284L16.1343 10.7256Z" fill="#008ED0"/>
<path d="M16.1346 10.8827C20.2118 10.8827 23.6632 13.4456 24.806 16.8999C24.806 16.8742 24.8118 16.8484 24.8146 16.8256C23.6575 13.3627 20.206 10.8027 16.1318 10.8027C12.0575 10.8027 8.53462 13.4199 7.41748 16.937C7.42034 16.9656 7.4232 16.9913 7.42891 17.017C8.52891 13.5027 12.0118 10.8799 16.1375 10.8799L16.1346 10.8827Z" fill="#0090D0"/>
<path d="M16.1344 10.8828C12.0086 10.8828 8.52578 13.5057 7.42578 17.02C7.42864 17.0428 7.4315 17.0685 7.43435 17.0914C8.52007 13.5857 12.0029 10.9571 16.1315 10.9571C20.2601 10.9571 23.6744 13.5342 24.7944 16.9857C24.7972 16.9571 24.8029 16.9285 24.8058 16.9C23.6629 13.4457 20.2115 10.8828 16.1344 10.8828Z" fill="#0092D1"/>
<path d="M16.1255 11.0312C20.2198 11.0312 23.6798 13.6141 24.7827 17.0627C24.7855 17.037 24.7884 17.0084 24.7941 16.9827C23.6712 13.5284 20.2169 10.9541 16.1312 10.9541C12.0455 10.9541 8.5198 13.5855 7.43408 17.0884C7.43694 17.1141 7.4398 17.1398 7.44551 17.1655C8.51122 13.6655 11.9941 11.0284 16.1284 11.0284L16.1255 11.0312Z" fill="#0093D2"/>
<path d="M16.1255 11.0317C11.9912 11.0317 8.50834 13.6689 7.44263 17.1689C7.44548 17.1917 7.44834 17.2175 7.4512 17.2403C8.50263 13.7489 11.9855 11.1089 16.1255 11.1089C20.2655 11.1089 23.6855 13.7032 24.7712 17.146C24.7741 17.1203 24.7769 17.0917 24.7826 17.066C23.6798 13.6175 20.2198 11.0346 16.1255 11.0346V11.0317Z" fill="#0095D3"/>
<path d="M16.1315 11.1855C20.2343 11.1855 23.6943 13.7827 24.7658 17.217C24.7686 17.1941 24.7715 17.1684 24.7743 17.1455C23.6886 13.7027 20.2286 11.1084 16.1286 11.1084C12.0286 11.1084 8.50577 13.7513 7.45435 17.2398C7.4572 17.2655 7.46292 17.2913 7.46577 17.317C8.50006 13.8341 11.9886 11.1855 16.1315 11.1855Z" fill="#0097D4"/>
<path d="M16.1318 11.186C11.9889 11.186 8.50035 13.8375 7.46606 17.3175C7.46892 17.3375 7.47464 17.3603 7.47749 17.3803C8.49749 13.9117 11.9832 11.266 16.1232 11.266C20.2632 11.266 23.7032 13.8775 24.7518 17.3117C24.7575 17.2803 24.7604 17.2489 24.7661 17.2175C23.6946 13.7832 20.2346 11.186 16.1318 11.186Z" fill="#0098D5"/>
<path d="M16.1228 11.3428C20.2399 11.3428 23.7056 13.9542 24.7399 17.3742C24.7428 17.3542 24.7485 17.3313 24.7513 17.3113C23.7056 13.8771 20.2371 11.2656 16.1228 11.2656C12.0085 11.2656 8.49419 13.9113 7.47705 17.3799C7.47991 17.3999 7.48562 17.4228 7.48848 17.4428C8.49419 13.9885 11.9799 11.3399 16.1256 11.3399L16.1228 11.3428Z" fill="#009AD5"/>
<path d="M16.1232 11.3428C11.9775 11.3428 8.49466 13.9885 7.48608 17.4456C7.48894 17.4685 7.49466 17.4942 7.49751 17.5171C8.48608 14.0742 11.9747 11.4227 16.1204 11.4227C20.2661 11.4227 23.7061 14.0399 24.7232 17.4485C24.7261 17.4256 24.7318 17.3999 24.7347 17.3771C23.7004 13.957 20.2347 11.3456 16.1175 11.3456L16.1232 11.3428Z" fill="#009CD6"/>
<path d="M16.1198 11.4976C20.2427 11.4976 23.7141 14.1204 24.7141 17.5233C24.7198 17.4976 24.7227 17.4718 24.7284 17.4461C23.7113 14.0376 20.2427 11.4204 16.1255 11.4204C12.0084 11.4204 8.49126 14.0718 7.50269 17.5147C7.50554 17.5376 7.51126 17.5576 7.51411 17.5804C8.4884 14.149 11.9741 11.4947 16.1227 11.4947L16.1198 11.4976Z" fill="#009ED7"/>
<path d="M16.1198 11.4971C11.9712 11.4971 8.48552 14.1514 7.51123 17.5828C7.51694 17.6085 7.5198 17.6314 7.52552 17.6571C8.4798 14.2342 11.9655 11.5714 16.1198 11.5714C20.2741 11.5714 23.7198 14.1999 24.7027 17.5914C24.7055 17.5685 24.7112 17.5456 24.7141 17.5228C23.7141 14.1199 20.2427 11.4971 16.1198 11.4971Z" fill="#00A0D8"/>
<path d="M16.1171 11.6484C20.2542 11.6484 23.7256 14.2856 24.6885 17.6656C24.6942 17.6399 24.6971 17.6141 24.7028 17.5913C23.7228 14.1999 20.2513 11.5713 16.1199 11.5713C11.9885 11.5713 8.47992 14.2341 7.52563 17.657C7.53135 17.6799 7.53421 17.7027 7.53706 17.7227C8.47706 14.3141 11.9571 11.6484 16.1171 11.6484Z" fill="#00A1D9"/>
<path d="M16.1174 11.6489C11.9574 11.6489 8.47735 14.3146 7.53735 17.7232C7.54307 17.7461 7.54878 17.7661 7.55164 17.7889C8.4745 14.3946 11.9545 11.7289 16.1145 11.7289C20.2745 11.7289 23.7288 14.3661 24.6716 17.7375C24.6774 17.7146 24.6802 17.6889 24.6859 17.6661C23.7231 14.2832 20.2516 11.6489 16.1145 11.6489H16.1174Z" fill="#00A3DA"/>
<path d="M16.1171 11.8057C20.2599 11.8057 23.7313 14.4486 24.6599 17.8057C24.6656 17.7829 24.6713 17.7629 24.6742 17.74C23.7285 14.3686 20.2571 11.7314 16.1171 11.7314C11.9771 11.7314 8.47706 14.3972 7.5542 17.7914C7.55991 17.8114 7.56277 17.8314 7.56849 17.8514C8.47991 14.4743 11.9599 11.8086 16.1171 11.8086V11.8057Z" fill="#00A5DB"/>
<path d="M16.1172 11.8056C11.96 11.8056 8.48003 14.4713 7.5686 17.8484C7.57432 17.8684 7.57717 17.8884 7.58289 17.9056C8.48003 14.5484 11.9629 11.8856 16.12 11.8856C20.2772 11.8856 23.7343 14.5284 24.6457 17.8713C24.6515 17.8484 24.6572 17.8256 24.66 17.8027C23.7315 14.4456 20.26 11.8027 16.1172 11.8027V11.8056Z" fill="#00A7DC"/>
<path d="M16.1139 11.9629C20.2597 11.9629 23.7339 14.6143 24.6282 17.9457C24.6339 17.92 24.6397 17.8972 24.6454 17.8715C23.7311 14.5286 20.2625 11.8857 16.1197 11.8857C11.9768 11.8857 8.48252 14.5486 7.58252 17.9057C7.58823 17.9286 7.59109 17.9486 7.59681 17.9715C8.47681 14.6257 11.9568 11.9629 16.1139 11.9629Z" fill="#00A9DD"/>
<path d="M16.1143 11.9629C11.9543 11.9629 8.47717 14.6257 7.59717 17.9715C7.60288 17.9915 7.60574 18.0115 7.61145 18.0315C8.48002 14.7057 11.9543 12.04 16.1143 12.04C20.2743 12.04 23.7343 14.6886 24.6143 18.0057C24.62 17.9857 24.6229 17.9657 24.6286 17.9486C23.7343 14.6172 20.2629 11.9657 16.1143 11.9657V11.9629Z" fill="#00ABDE"/>
<path d="M16.1144 12.1172C20.263 12.1172 23.7344 14.7715 24.6001 18.0715C24.6059 18.0486 24.6087 18.0286 24.6144 18.0058C23.7344 14.6915 20.263 12.04 16.1144 12.04C11.9659 12.04 8.47729 14.7058 7.61157 18.0315C7.61729 18.0543 7.62014 18.0743 7.62586 18.0972C8.47729 14.7858 11.9516 12.1172 16.1144 12.1172Z" fill="#00ADDE"/>
<path d="M16.1141 12.1171C11.9512 12.1171 8.47692 14.7828 7.62549 18.0971C7.6312 18.1171 7.63406 18.1343 7.63977 18.1543C8.47692 14.86 11.9512 12.1943 16.1112 12.1943C20.2712 12.1943 23.7398 14.8514 24.5826 18.14C24.5883 18.1171 24.5941 18.0943 24.5998 18.0685C23.7341 14.7685 20.2655 12.1143 16.1141 12.1143V12.1171Z" fill="#00AFDF"/>
<path d="M16.1059 12.2685C20.263 12.2685 23.7344 14.9257 24.5659 18.1971C24.5716 18.1771 24.5773 18.1571 24.583 18.1371C23.7401 14.8485 20.2659 12.1914 16.1116 12.1914C11.9573 12.1914 8.47728 14.8543 7.64014 18.1514C7.64585 18.1714 7.65157 18.1914 7.65728 18.2085C8.48014 14.9343 11.9459 12.2685 16.1087 12.2685H16.1059Z" fill="#00B1E0"/>
<path d="M16.1055 12.2685C11.9426 12.2685 8.47691 14.9342 7.65405 18.2085C7.65977 18.2256 7.66548 18.2428 7.66834 18.2599C8.47977 15.0056 11.9483 12.3428 16.1083 12.3428C20.2683 12.3428 23.7312 14.9971 24.5483 18.2456C24.554 18.2285 24.5598 18.2113 24.5626 18.1942C23.7341 14.9228 20.2626 12.2656 16.1026 12.2656L16.1055 12.2685Z" fill="#00B3E1"/>
<path d="M16.1085 12.4229C20.2627 12.4229 23.7285 15.0743 24.5313 18.3086C24.537 18.2886 24.5427 18.2686 24.5485 18.2515C23.7313 15.0029 20.2627 12.3486 16.1085 12.3486C11.9542 12.3486 8.47989 15.0086 7.66846 18.2658C7.67417 18.2858 7.67989 18.3058 7.6856 18.3258C8.48274 15.0858 11.9485 12.4286 16.1085 12.4286V12.4229Z" fill="#0DB5E2"/>
<path d="M16.1086 12.4233C11.9486 12.4233 8.48008 15.0833 7.68579 18.3204C7.69151 18.3376 7.69722 18.3576 7.70293 18.3747C8.48579 15.1576 11.9544 12.5004 16.1115 12.5004C20.2686 12.5004 23.7286 15.1547 24.5172 18.369C24.5229 18.349 24.5286 18.3261 24.5344 18.3061C23.7315 15.0747 20.2629 12.4204 16.1115 12.4204L16.1086 12.4233Z" fill="#19B7E3"/>
<path d="M16.106 12.5772C20.2631 12.5772 23.7288 15.2372 24.4974 18.4372C24.5031 18.4144 24.5088 18.3915 24.5174 18.3715C23.7288 15.1572 20.266 12.5029 16.1117 12.5029C11.9574 12.5029 8.48884 15.1601 7.70312 18.3772C7.70884 18.3944 7.71455 18.4144 7.71741 18.4315C8.48884 15.2344 11.9517 12.5772 16.106 12.5772Z" fill="#21B9E4"/>
<path d="M16.1056 12.5771C11.9513 12.5771 8.48847 15.2343 7.71704 18.4314C7.7199 18.4457 7.72561 18.46 7.72847 18.4743C8.49418 15.2943 11.9513 12.6514 16.1056 12.6514C20.2599 12.6514 23.7199 15.2943 24.4856 18.4743C24.4885 18.4629 24.4913 18.4514 24.497 18.4371C23.7313 15.2371 20.2656 12.5771 16.1056 12.5771Z" fill="#28BBE5"/>
<path d="M16.1054 12.7257C20.254 12.7257 23.7111 15.3542 24.474 18.5114C24.4768 18.4999 24.4797 18.4885 24.4854 18.4742C23.7197 15.2942 20.2597 12.6514 16.1054 12.6514C11.9511 12.6514 8.49399 15.2942 7.72827 18.4742C7.73113 18.4857 7.73399 18.4971 7.7397 18.5085C8.50256 15.3514 11.9568 12.7228 16.1054 12.7228V12.7257Z" fill="#37BDE6"/>
<path d="M16.1057 12.7256C11.9571 12.7256 8.50285 15.3542 7.73999 18.5113C7.74285 18.5227 7.7457 18.5342 7.75142 18.5484C8.51428 15.4084 11.9657 12.7913 16.1086 12.7913C20.2514 12.7913 23.7086 15.4113 24.4657 18.5542C24.4686 18.5399 24.4743 18.5284 24.4771 18.5142C23.7114 15.3542 20.2571 12.7284 16.1086 12.7284L16.1057 12.7256Z" fill="#43BFE6"/>
<path d="M16.1054 12.8658C20.2426 12.8658 23.6911 15.4658 24.4511 18.5886C24.454 18.5772 24.4597 18.5658 24.4626 18.5544C23.7054 15.4086 20.2511 12.7915 16.1054 12.7915C11.9597 12.7915 8.51115 15.4086 7.74829 18.5486C7.75115 18.5629 7.75686 18.5744 7.76258 18.5886C8.52258 15.4686 11.9683 12.8686 16.1054 12.8686V12.8658Z" fill="#4DC0E7"/>
<path d="M16.1058 12.8657C11.9687 12.8657 8.52294 15.4656 7.76294 18.5856C7.7658 18.5971 7.77151 18.6056 7.77437 18.6171C8.53437 15.5199 11.9715 12.9314 16.1058 12.9314C20.2401 12.9314 23.6829 15.5171 24.4429 18.6171C24.4458 18.6056 24.4515 18.5971 24.4544 18.5856C23.6944 15.4628 20.2458 12.8628 16.1087 12.8628L16.1058 12.8657Z" fill="#56C2E8"/>
<path d="M16.1089 12.9997C20.2347 12.9997 23.6718 15.5683 24.4318 18.6483C24.4347 18.6369 24.4404 18.6283 24.4432 18.6169C23.6832 15.5169 20.2404 12.9312 16.1061 12.9312C11.9718 12.9312 8.53466 15.5197 7.77466 18.6169C7.77752 18.6283 7.78323 18.6397 7.78609 18.6512C8.54609 15.5712 11.9861 13.0026 16.1118 13.0026L16.1089 12.9997Z" fill="#5EC4E8"/>
<path d="M16.1087 13C11.9858 13 8.54582 15.5714 7.78296 18.6486C7.78582 18.6629 7.79153 18.6743 7.79724 18.6886C8.55439 15.6286 11.9858 13.0743 16.1058 13.0743C20.2258 13.0743 23.6601 15.6286 24.4172 18.6886C24.423 18.6743 24.4258 18.6629 24.4315 18.6486C23.6715 15.5686 20.2344 13 16.1087 13Z" fill="#65C6E9"/>
<path d="M16.1054 13.1428C20.2197 13.1428 23.6483 15.6799 24.4054 18.7199C24.4083 18.7085 24.414 18.6971 24.4169 18.6885C23.6597 15.6285 20.2254 13.0742 16.1054 13.0742C11.9854 13.0742 8.55687 15.6285 7.79688 18.6885C7.79973 18.6999 7.80545 18.7085 7.8083 18.7199C8.56545 15.6828 11.9912 13.1428 16.1054 13.1428Z" fill="#6DC7EA"/>
<path d="M16.1057 13.1431C11.9915 13.1431 8.56574 15.6831 7.80859 18.7202C7.81145 18.7316 7.81717 18.7431 7.82002 18.7545C8.58002 15.7374 12.0057 13.2174 16.1086 13.2174C20.2115 13.2174 23.6343 15.7374 24.3943 18.7545C24.3972 18.7431 24.4029 18.7316 24.4057 18.7202C23.6486 15.6831 20.22 13.1431 16.1057 13.1431Z" fill="#74C9EA"/>
<path d="M16.1059 13.2887C20.2087 13.2887 23.6259 15.7973 24.383 18.7944C24.3887 18.7801 24.3916 18.7687 24.3973 18.7544C23.6373 15.7373 20.2144 13.2173 16.1116 13.2173C12.0087 13.2173 8.583 15.7373 7.823 18.7544C7.82871 18.7659 7.83157 18.7801 7.83728 18.7916C8.59443 15.7944 12.0087 13.2859 16.1087 13.2859L16.1059 13.2887Z" fill="#7ACBEB"/>
<path d="M16.1057 13.2886C12.0057 13.2886 8.58851 15.7971 7.83423 18.7943C7.83709 18.8057 7.8428 18.8143 7.84566 18.8257C8.6028 15.8514 12.0142 13.36 16.1085 13.36C20.2028 13.36 23.6171 15.8514 24.3742 18.8257C24.3771 18.8143 24.3799 18.8057 24.3857 18.7943C23.6285 15.7971 20.2114 13.2886 16.1085 13.2886H16.1057Z" fill="#81CDEC"/>
<path d="M16.109 13.4313C20.1947 13.4313 23.6033 15.9027 24.3604 18.857C24.3633 18.8456 24.369 18.8341 24.3718 18.8256C23.6147 15.8484 20.2004 13.3599 16.1061 13.3599C12.0118 13.3599 8.6004 15.8513 7.84326 18.8256C7.84612 18.837 7.85183 18.8484 7.85469 18.857C8.61183 15.9027 12.0233 13.4313 16.109 13.4313Z" fill="#87CFEC"/>
<path d="M16.1085 13.4316C12.0228 13.4316 8.61139 15.903 7.85425 18.8573C7.85711 18.8687 7.86282 18.8801 7.86568 18.8887C8.62282 15.9573 12.0257 13.5001 16.1057 13.5001C20.1857 13.5001 23.5914 15.9601 24.3457 18.8944C24.3514 18.8801 24.3542 18.8687 24.36 18.8544C23.6028 15.9001 20.1971 13.4287 16.1085 13.4287V13.4316Z" fill="#8ED1ED"/>
<path d="M16.1027 13.5743C20.1827 13.5743 23.5827 16.02 24.3341 18.9343C24.3398 18.9229 24.3427 18.9086 24.3484 18.8943C23.5941 15.96 20.1884 13.5 16.1084 13.5C12.0284 13.5 8.62555 15.9571 7.86841 18.8886C7.87412 18.9 7.87698 18.9143 7.87984 18.9257C8.63412 16.0143 12.0256 13.5743 16.1027 13.5743Z" fill="#94D3EE"/>
<path d="M16.103 13.5742C12.0258 13.5742 8.63441 16.0171 7.88013 18.9256C7.88298 18.9371 7.8887 18.9485 7.89156 18.9599C8.64584 16.0685 12.0401 13.6399 16.1058 13.6399C20.1716 13.6399 23.5716 16.0714 24.323 18.9656C24.3258 18.9542 24.3287 18.9456 24.3344 18.9342C23.583 16.0199 20.183 13.5742 16.103 13.5742Z" fill="#9AD5EF"/>
<path d="M16.1054 13.7144C20.1654 13.7144 23.5568 16.1258 24.3111 18.9973C24.314 18.9858 24.3197 18.9773 24.3225 18.9658C23.5711 16.0716 20.174 13.6401 16.1054 13.6401C12.0368 13.6401 8.6454 16.0687 7.89111 18.9601C7.89397 18.9716 7.89968 18.9801 7.90254 18.9916C8.65969 16.123 12.0483 13.7144 16.1054 13.7144Z" fill="#A0D7F0"/>
<path d="M16.1057 13.7144C12.0485 13.7144 8.65997 16.1229 7.90283 18.9915C7.90569 19.0029 7.9114 19.0144 7.91712 19.0258C8.6714 16.1801 12.0485 13.7886 16.1028 13.7886C20.1571 13.7886 23.5428 16.1829 24.2971 19.0315C24.3028 19.0201 24.3057 19.0086 24.3114 18.9972C23.5571 16.1258 20.1657 13.7144 16.1057 13.7144Z" fill="#A6D9F0"/>
<path d="M16.1061 13.8543C20.1518 13.8543 23.5289 16.2314 24.2861 19.06C24.2889 19.0514 24.2946 19.04 24.2975 19.0314C23.5432 16.18 20.1603 13.7886 16.1032 13.7886C12.0461 13.7886 8.67177 16.18 7.91748 19.0257C7.92034 19.0371 7.92605 19.0457 7.92891 19.0571C8.68891 16.2343 12.0632 13.8571 16.1061 13.8571V13.8543Z" fill="#ACDCF1"/>
<path d="M16.1056 13.8545C12.0628 13.8545 8.68561 16.2316 7.92847 19.0545C7.93132 19.0631 7.93704 19.0745 7.9399 19.0831C8.6999 16.2802 12.0685 13.9231 16.1056 13.9231C20.1428 13.9231 23.517 16.2831 24.2742 19.0888C24.277 19.0802 24.2828 19.0688 24.2856 19.0602C23.5285 16.2316 20.1513 13.8545 16.1056 13.8545Z" fill="#B2DEF2"/>
<path d="M16.1054 13.9971C20.1368 13.9971 23.4997 16.3371 24.2626 19.12C24.2654 19.1086 24.2711 19.1 24.274 19.0886C23.5168 16.2829 20.1454 13.9229 16.1054 13.9229C12.0654 13.9229 8.6997 16.28 7.9397 19.0829C7.94541 19.0943 7.94827 19.1057 7.95398 19.1171C8.71398 16.3371 12.0768 13.9943 16.1054 13.9943V13.9971Z" fill="#B8E0F3"/>
<path d="M16.1058 13.9971C12.0743 13.9971 8.71149 16.3371 7.95435 19.1199C7.9572 19.1314 7.96292 19.1399 7.96577 19.1514C8.72863 16.3942 12.0858 14.0685 16.1058 14.0685C20.1258 14.0685 23.4886 16.3942 24.2486 19.1571C24.2543 19.1456 24.2572 19.1342 24.2629 19.1228C23.5029 16.3399 20.1372 13.9999 16.1058 13.9999V13.9971Z" fill="#BDE2F4"/>
<path d="M16.1061 14.1401C20.1203 14.1401 23.4746 16.4458 24.2375 19.183C24.2404 19.1716 24.2461 19.163 24.2489 19.1516C23.4889 16.3887 20.1318 14.063 16.1061 14.063C12.0803 14.063 8.72606 16.3858 7.96606 19.1458C7.96892 19.1544 7.97464 19.1658 7.97749 19.1744C8.74321 16.4373 12.0946 14.1373 16.1061 14.1373V14.1401Z" fill="#C3E5F5"/>
<path d="M16.1056 14.1401C12.0942 14.1401 8.73991 16.443 7.97705 19.1773C7.97991 19.1859 7.98562 19.1973 7.98848 19.2059C8.75419 16.4944 12.0999 14.2087 16.1056 14.2087C20.1113 14.2087 23.4599 16.4973 24.2228 19.2116C24.2256 19.203 24.2313 19.1916 24.2342 19.183C23.4742 16.443 20.1199 14.1401 16.1028 14.1401H16.1056Z" fill="#C9E7F5"/>
<path d="M16.1088 14.28C20.1059 14.28 23.4459 16.5486 24.2116 19.2429C24.2145 19.2343 24.2202 19.2229 24.2231 19.2143C23.4602 16.4971 20.1145 14.2114 16.1059 14.2114C12.0973 14.2114 8.75448 16.4971 7.98877 19.2086C7.99448 19.22 7.99734 19.2314 8.00306 19.2457C8.76877 16.5543 12.1116 14.2829 16.1088 14.2829V14.28Z" fill="#CEE9F6"/>
<path d="M16.1084 14.2803C12.1113 14.2803 8.7684 16.5517 8.00269 19.2431C8.00554 19.2517 8.01126 19.2631 8.01411 19.2717C8.78269 16.6003 12.117 14.3488 16.1055 14.3488C20.0941 14.3488 23.4341 16.6031 24.197 19.2774C24.2027 19.266 24.2055 19.2546 24.2113 19.2431C23.4455 16.5488 20.1055 14.2803 16.1084 14.2803Z" fill="#D4ECF7"/>
<path d="M16.1053 14.4201C20.0911 14.4201 23.4196 16.6573 24.1853 19.3087C24.1882 19.3001 24.1939 19.2887 24.1968 19.2801C23.4311 16.6058 20.0939 14.3516 16.1053 14.3516C12.1168 14.3516 8.78249 16.603 8.01392 19.2744C8.01677 19.283 8.02249 19.2944 8.02534 19.303C8.79392 16.6573 12.1225 14.4201 16.1053 14.4201Z" fill="#DAEEF8"/>
<path d="M16.1056 14.4204C12.1228 14.4204 8.79421 16.6576 8.02563 19.3033C8.03135 19.3147 8.03421 19.3261 8.03992 19.3404C8.80849 16.7147 12.1371 14.4947 16.1085 14.4947C20.0799 14.4947 23.4056 16.7118 24.1742 19.3404C24.1771 19.3318 24.1828 19.3204 24.1856 19.309C23.4199 16.6576 20.0885 14.4204 16.1056 14.4204Z" fill="#DFF1F9"/>
<path d="M16.103 14.5603C20.0744 14.5603 23.3944 16.7661 24.1601 19.3775C24.1658 19.3661 24.1715 19.3518 24.1773 19.3403C23.4087 16.7118 20.083 14.4946 16.1115 14.4946C12.1401 14.4946 8.81154 16.7146 8.04297 19.3403C8.04583 19.3489 8.05154 19.3603 8.0544 19.3689C8.82583 16.7632 12.1373 14.5603 16.103 14.5603Z" fill="#E5F3FA"/>
<path d="M16.1028 14.5601C12.1371 14.5601 8.82277 16.7629 8.0542 19.3686C8.05706 19.3772 8.06277 19.3858 8.06563 19.3972C8.83991 16.8172 12.1456 14.6343 16.1028 14.6343C20.0599 14.6343 23.3771 16.8201 24.1456 19.4058C24.1485 19.3972 24.1542 19.3858 24.1599 19.3772C23.3942 16.7686 20.0742 14.5601 16.1028 14.5601Z" fill="#EBF6FB"/>
<path d="M16.1057 14.7028C20.0572 14.7028 23.36 16.8713 24.1343 19.4313C24.1372 19.4228 24.1429 19.4113 24.1486 19.4028C23.38 16.8171 20.0657 14.6313 16.1057 14.6313C12.1457 14.6313 8.84289 16.8142 8.0686 19.3942C8.07432 19.4056 8.08003 19.4171 8.08289 19.4285C8.85717 16.8713 12.16 14.7028 16.1086 14.7028H16.1057Z" fill="#F1F8FD"/>
<path d="M16.1055 14.7026C12.157 14.7026 8.85412 16.8684 8.07983 19.4284C8.08269 19.4369 8.08841 19.4484 8.09412 19.4569C8.87126 16.9198 12.1684 14.7741 16.1055 14.7741C20.0427 14.7741 23.3455 16.9226 24.1198 19.4598C24.1227 19.4512 24.1284 19.4426 24.1313 19.4312C23.3598 16.8684 20.0541 14.7026 16.1027 14.7026H16.1055Z" fill="#F7FBFE"/>
<path d="M25.2916 15.9657C25.2916 10.9171 21.1859 6.82568 16.1087 6.82568C11.0316 6.82568 6.92017 10.9143 6.92017 15.9657C6.92017 16.4657 6.96302 16.9571 7.04017 17.4343C7.04302 17.46 7.04874 17.4828 7.05445 17.5057C7.06017 17.5314 7.06302 17.56 7.06874 17.5857C7.07445 17.6085 7.07731 17.6343 7.08302 17.6571C7.08874 17.6828 7.09159 17.7114 7.09731 17.7371C7.10302 17.76 7.10588 17.7857 7.10874 17.8085C7.11445 17.8314 7.12017 17.8543 7.12588 17.88C7.13159 17.9 7.13445 17.92 7.14017 17.9428C7.14588 17.9628 7.14874 17.9857 7.15445 18.0057C7.16017 18.0285 7.16588 18.0514 7.17159 18.0771C7.17731 18.0971 7.18017 18.12 7.18588 18.14C7.19159 18.1657 7.19731 18.1914 7.20302 18.2143C7.20874 18.2343 7.21445 18.2571 7.22017 18.2771C7.22588 18.3 7.23445 18.32 7.24017 18.3428C7.24588 18.3628 7.25159 18.38 7.25731 18.4C7.26302 18.42 7.26874 18.4371 7.27445 18.4571C7.28017 18.48 7.28588 18.5 7.29445 18.5228C7.30017 18.5428 7.30588 18.56 7.31159 18.58C7.31731 18.6028 7.32302 18.6228 7.33159 18.6457C7.33731 18.6628 7.34302 18.6828 7.34874 18.7C7.35445 18.72 7.36302 18.7371 7.36874 18.7571C7.37445 18.7743 7.38017 18.7914 7.38588 18.8085C7.39159 18.8257 7.39731 18.8428 7.40302 18.86C7.40874 18.88 7.41731 18.9 7.42302 18.9228C7.42874 18.94 7.43445 18.96 7.44017 18.9771C7.44874 18.9971 7.45445 19.0171 7.46017 19.04C7.46588 19.0571 7.47159 19.0771 7.47731 19.0943C7.48302 19.1143 7.49159 19.1314 7.50017 19.1514C7.50588 19.1685 7.51159 19.1828 7.52017 19.2C7.52588 19.2171 7.53445 19.2371 7.54302 19.2543C7.54874 19.2714 7.55445 19.2857 7.56302 19.3028C7.56874 19.3171 7.57445 19.3343 7.58302 19.3485C7.58874 19.36 7.59159 19.3714 7.59731 19.3828C7.60017 19.3914 7.60302 19.4 7.60874 19.4085C7.61159 19.4171 7.61445 19.4257 7.62017 19.4371C7.62588 19.4485 7.62874 19.46 7.63445 19.4714C7.63731 19.48 7.64017 19.4885 7.64588 19.4971C7.64874 19.5057 7.65159 19.5143 7.65731 19.5257C7.66302 19.5371 7.66588 19.5457 7.67159 19.5571C7.67445 19.5657 7.68017 19.5743 7.68302 19.58C7.68588 19.5885 7.69159 19.5971 7.69445 19.6057C7.70017 19.6171 7.70302 19.6257 7.70874 19.6371C7.71159 19.6457 7.71731 19.6543 7.72017 19.66C7.72302 19.6685 7.72874 19.6771 7.73159 19.6857C7.73445 19.6943 7.74017 19.7028 7.74302 19.7114C7.74874 19.7228 7.75159 19.7314 7.75731 19.7428C7.76017 19.7514 7.76588 19.76 7.76874 19.7685C7.77159 19.7771 7.77731 19.7857 7.78017 19.7943C7.78588 19.8028 7.78874 19.8143 7.79445 19.8257C7.79731 19.8343 7.80302 19.8428 7.80588 19.8514C7.80874 19.86 7.81445 19.8685 7.81731 19.8771C7.82302 19.8857 7.82588 19.8971 7.83159 19.9085C7.83445 19.9171 7.84017 19.9257 7.84302 19.9343C7.84588 19.9428 7.85159 19.9485 7.85445 19.9571C7.85731 19.9657 7.86302 19.9714 7.86588 19.98C7.87159 19.9885 7.87445 19.9971 7.88017 20.0085C7.88302 20.0171 7.88874 20.0228 7.89159 20.0314C7.89445 20.04 7.90017 20.0457 7.90302 20.0543C7.90874 20.0628 7.91159 20.0743 7.91731 20.0828C7.92017 20.0914 7.92588 20.0971 7.92874 20.1057C7.93159 20.1143 7.93731 20.12 7.94017 20.1285C7.94588 20.1371 7.94874 20.1485 7.95445 20.1571C7.95731 20.1657 7.96302 20.1714 7.96588 20.18C8.25445 20.7343 8.59731 21.2571 8.98874 21.7371C8.98874 21.7371 8.98874 21.7371 8.99159 21.74C8.99159 21.74 8.99445 21.7457 8.99731 21.7485C8.99731 21.7485 8.99731 21.7485 9.00017 21.7514C9.00017 21.7514 9.00302 21.7571 9.00588 21.76C9.00588 21.76 9.00874 21.7628 9.01159 21.7657C9.01159 21.7657 9.01445 21.7685 9.01731 21.7714C9.01731 21.7714 9.01731 21.7714 9.02017 21.7743C9.02017 21.7743 9.02017 21.7771 9.02302 21.78C9.02302 21.78 9.02302 21.7828 9.02588 21.7857C9.02588 21.7857 9.02588 21.7885 9.02874 21.7914C9.02874 21.7914 9.02874 21.7943 9.03445 21.7971C9.03445 21.7971 9.03445 21.7971 9.03731 21.8C9.03731 21.8 9.03731 21.8 9.04017 21.8028C9.04017 21.8028 9.04302 21.8057 9.04588 21.8085C9.04588 21.8085 9.04588 21.8085 9.04874 21.8114C9.04874 21.8114 9.04874 21.8143 9.05159 21.8171C9.05159 21.8171 9.05159 21.8171 9.05445 21.82C9.05445 21.82 9.05445 21.82 9.05445 21.8228C9.05445 21.8228 9.05445 21.8257 9.05731 21.8285C9.05731 21.8285 9.05731 21.8285 9.05731 21.8314C9.05731 21.8314 9.06017 21.8343 9.06302 21.8371C9.06302 21.8371 9.06302 21.8371 9.06588 21.84C9.06588 21.84 9.06874 21.8428 9.07159 21.8457C9.07445 21.8514 9.08017 21.8543 9.08302 21.86C9.08588 21.8628 9.08874 21.8685 9.09159 21.8714C9.09731 21.8771 9.10017 21.8828 9.10588 21.8885C9.10874 21.8943 9.11445 21.8971 9.11731 21.9028C9.12017 21.9057 9.12302 21.9085 9.12588 21.9143C9.12874 21.92 9.13445 21.9228 9.13731 21.9285C9.14017 21.9314 9.14588 21.9371 9.14874 21.94C9.15159 21.9428 9.15445 21.9485 9.15731 21.9514C9.16017 21.9543 9.16588 21.96 9.16874 21.9628C9.17159 21.9685 9.17731 21.9714 9.18017 21.9771C9.18302 21.98 9.18588 21.9857 9.18874 21.9885C9.19159 21.9943 9.19731 21.9971 9.20017 22.0028C9.20302 22.0057 9.20588 22.0114 9.21159 22.0143C9.21445 22.0171 9.21731 22.0228 9.22302 22.0257C9.22588 22.0285 9.23159 22.0343 9.23445 22.0371C9.23731 22.0428 9.24302 22.0457 9.24588 22.0514C9.24874 22.0543 9.25159 22.06 9.25445 22.0628C9.25731 22.0657 9.26302 22.0714 9.26588 22.0771C9.26874 22.08 9.27445 22.0857 9.27731 22.0914C9.28017 22.0943 9.28302 22.1 9.28874 22.1028C9.29159 22.1057 9.29731 22.1114 9.30017 22.1171C9.30302 22.1228 9.30874 22.1257 9.31159 22.1314C9.31445 22.1343 9.31731 22.1371 9.32017 22.14C9.32588 22.1457 9.32874 22.1485 9.33445 22.1543C9.33731 22.16 9.34302 22.1628 9.34588 22.1657C9.34874 22.1714 9.35445 22.1743 9.35731 22.1771C9.36017 22.1828 9.36588 22.1857 9.36874 22.1885C9.37159 22.1914 9.37731 22.1971 9.38017 22.2C9.38302 22.2028 9.38874 22.2085 9.39159 22.2114C9.39445 22.2143 9.40017 22.22 9.40302 22.2228C9.40588 22.2285 9.41159 22.2314 9.41445 22.2371C11.0945 24.0114 13.4716 25.12 16.1087 25.12C18.7459 25.12 21.1287 24.0057 22.8059 22.2285C22.8087 22.2257 22.8144 22.22 22.8173 22.2171C22.8202 22.2114 22.8259 22.2085 22.8287 22.2028C22.8316 22.2 22.8373 22.1943 22.8402 22.1914C22.843 22.1857 22.8487 22.1828 22.8516 22.18C22.8544 22.1743 22.8602 22.1714 22.863 22.1685C22.8659 22.1628 22.8716 22.16 22.8745 22.1571C22.8773 22.1543 22.8802 22.1514 22.883 22.1457C22.883 22.1457 22.8859 22.1428 22.8887 22.14C22.8887 22.14 22.8944 22.1343 22.8973 22.1314C22.9002 22.1257 22.9059 22.1228 22.9087 22.1171C22.9116 22.1143 22.9144 22.1114 22.9173 22.1057C22.923 22.1 22.9259 22.0943 22.9316 22.0914C22.9345 22.0885 22.9373 22.0828 22.9402 22.08C22.943 22.0771 22.9459 22.0714 22.9487 22.0685C22.9516 22.0657 22.9573 22.06 22.9602 22.0571C22.963 22.0514 22.9687 22.0485 22.9716 22.0428C22.9744 22.04 22.9773 22.0343 22.983 22.0314C22.9859 22.0285 22.9887 22.0228 22.9944 22.02C23.0002 22.0143 23.003 22.0085 23.0087 22.0057C23.0116 22.0028 23.0144 21.9971 23.0202 21.9943C23.023 21.9914 23.0259 21.9857 23.0316 21.9828C23.0344 21.98 23.0402 21.9743 23.043 21.9714C23.0459 21.9657 23.0516 21.9628 23.0544 21.9571C23.0573 21.9543 23.063 21.9485 23.0659 21.9457C23.0687 21.94 23.0744 21.9371 23.0773 21.9314C23.0802 21.9285 23.083 21.9257 23.0859 21.92C23.0887 21.9171 23.0916 21.9114 23.0973 21.9085C23.1002 21.9028 23.1059 21.9 23.1087 21.8943C23.1116 21.8914 23.1145 21.8857 23.1173 21.8828C23.1202 21.88 23.123 21.8743 23.1287 21.8714C23.1316 21.8657 23.1373 21.8628 23.1402 21.8571C23.1402 21.8571 23.143 21.8543 23.1459 21.8514C23.1459 21.8514 23.1459 21.8514 23.1487 21.8485C23.1487 21.8485 23.1516 21.8457 23.1544 21.8428C23.1544 21.8428 23.1544 21.8428 23.1573 21.84C23.1573 21.84 23.1573 21.84 23.1602 21.8371C23.1602 21.8371 23.1602 21.8371 23.163 21.8343C23.163 21.8343 23.163 21.8314 23.1659 21.8285C23.1659 21.8285 23.1659 21.8257 23.1687 21.8228C23.1687 21.8228 23.1687 21.8228 23.1716 21.82C23.1716 21.82 23.1716 21.8171 23.1744 21.8143C23.1744 21.8143 23.1773 21.8114 23.1802 21.8085C23.1802 21.8085 23.1802 21.8057 23.183 21.8028C23.183 21.8028 23.1859 21.7971 23.1887 21.7971C23.1887 21.7971 23.1887 21.7943 23.1916 21.7914C23.1916 21.7914 23.1944 21.7885 23.1973 21.7857C23.1973 21.7857 23.1973 21.7857 23.2002 21.7828C23.2002 21.7828 23.203 21.78 23.2059 21.7771C23.2059 21.7771 23.2059 21.7743 23.2087 21.7714C23.2087 21.7714 23.2116 21.7657 23.2144 21.7657C23.2144 21.7657 23.2144 21.7657 23.2144 21.7628C23.2144 21.7628 23.2173 21.7571 23.2202 21.7571C23.2202 21.7571 23.223 21.7543 23.2259 21.7514C23.2259 21.7514 23.2287 21.7485 23.2316 21.7457C23.2316 21.7457 23.2344 21.7428 23.2373 21.74C23.2373 21.74 23.2402 21.7371 23.243 21.7343C23.243 21.7343 23.2459 21.7314 23.2487 21.7285C23.2487 21.7285 23.2516 21.7257 23.2544 21.7228C23.2544 21.7228 23.2573 21.72 23.2602 21.7171C23.2602 21.7171 23.2602 21.7171 23.2602 21.7143C23.643 21.2428 23.9773 20.7314 24.2602 20.1885C24.263 20.18 24.2687 20.1743 24.2716 20.1657C24.2745 20.1571 24.2802 20.1514 24.283 20.1428C24.2859 20.1343 24.2916 20.1285 24.2944 20.12C24.3002 20.1085 24.3059 20.0971 24.3116 20.0857C24.3144 20.0771 24.3202 20.0714 24.323 20.0628C24.3259 20.0543 24.3316 20.0485 24.3344 20.04C24.3402 20.0314 24.343 20.0228 24.3487 20.0114C24.3516 20.0028 24.3573 19.9971 24.3602 19.9885C24.363 19.98 24.3687 19.9743 24.3716 19.9657C24.3744 19.9571 24.3802 19.9514 24.383 19.9428C24.3887 19.9343 24.3916 19.9228 24.3973 19.9114C24.4002 19.9028 24.4059 19.8943 24.4087 19.8857C24.4116 19.8771 24.4144 19.8685 24.4202 19.8628C24.423 19.8543 24.4259 19.8457 24.4316 19.84C24.4373 19.8285 24.4402 19.82 24.4459 19.8085C24.4487 19.8 24.4544 19.7914 24.4573 19.7828C24.4602 19.7743 24.4659 19.7657 24.4687 19.76C24.4744 19.7485 24.4773 19.74 24.483 19.7285C24.4887 19.7171 24.4916 19.7085 24.4973 19.6971C24.5002 19.6885 24.5059 19.68 24.5087 19.6714C24.5116 19.6628 24.5173 19.6543 24.5202 19.6485C24.5259 19.6371 24.5287 19.6285 24.5344 19.6171C24.5373 19.6085 24.543 19.6 24.5459 19.5914C24.5487 19.5828 24.5544 19.5743 24.5573 19.5657C24.563 19.5543 24.5659 19.5457 24.5716 19.5343C24.5744 19.5257 24.5773 19.5171 24.583 19.5085C24.5859 19.5 24.5887 19.4914 24.5944 19.4828C24.5973 19.4743 24.603 19.4628 24.6059 19.4543C24.6116 19.4428 24.6144 19.4314 24.6202 19.42C24.623 19.4114 24.6259 19.4028 24.6316 19.3914C24.6344 19.3828 24.6402 19.3743 24.643 19.3628C24.6516 19.3428 24.6602 19.3228 24.6659 19.3028C24.6744 19.2857 24.6802 19.2657 24.6887 19.2485C24.6945 19.2314 24.703 19.2114 24.7116 19.1943C24.7173 19.1771 24.723 19.1628 24.7316 19.1457C24.7402 19.1257 24.7459 19.1085 24.7516 19.0885C24.7602 19.0657 24.7659 19.0428 24.7744 19.02C24.783 19 24.7887 18.98 24.7944 18.9571C24.8002 18.94 24.8059 18.92 24.8116 18.9028C24.8202 18.88 24.8287 18.8571 24.8344 18.8343C24.8402 18.8143 24.8487 18.7943 24.8544 18.7743C24.8602 18.7543 24.8687 18.7371 24.8745 18.7171C24.8802 18.6971 24.8859 18.6771 24.8944 18.6543C24.9002 18.6314 24.9059 18.6114 24.9144 18.5885C24.9202 18.5685 24.9259 18.5457 24.9316 18.5257C24.9402 18.5 24.9459 18.4771 24.9516 18.4514C24.9573 18.4285 24.963 18.4085 24.9716 18.3857C24.9773 18.3657 24.983 18.3485 24.9887 18.3285C24.9973 18.3 25.0059 18.2714 25.0116 18.2428C25.0173 18.2228 25.0202 18.2 25.0259 18.1771C25.0316 18.1543 25.0373 18.1314 25.043 18.1057C25.0487 18.0828 25.0544 18.06 25.0602 18.0343C25.0659 18.0085 25.0716 17.9828 25.0773 17.9571C25.083 17.9371 25.0859 17.9143 25.0916 17.8943C25.0973 17.8685 25.103 17.8428 25.1087 17.8143C25.1145 17.7914 25.1173 17.7657 25.123 17.74C25.1287 17.7085 25.1344 17.68 25.1402 17.6485C25.1459 17.62 25.1487 17.5943 25.1544 17.5657C25.1602 17.54 25.163 17.5114 25.1687 17.4857C25.1716 17.4628 25.1773 17.44 25.1802 17.4171C25.1859 17.3857 25.1916 17.3514 25.1944 17.32C25.1973 17.2943 25.2002 17.2685 25.203 17.2457C25.263 16.8257 25.2944 16.4 25.2944 15.9628H25.2916V15.9657ZM24.8516 16.0857C24.8516 16.1143 24.8516 16.14 24.8516 16.1685C24.8516 16.2085 24.8516 16.2485 24.8487 16.2857C24.8487 16.3171 24.8487 16.3457 24.8487 16.3771C24.8487 16.4085 24.8459 16.4371 24.843 16.4685C24.843 16.4971 24.8373 16.5257 24.8373 16.5543C24.8373 16.5857 24.8316 16.6171 24.8287 16.6485C24.8287 16.6743 24.8259 16.7028 24.823 16.7285C24.823 16.76 24.8202 16.7914 24.8173 16.8228C24.8173 16.8485 24.8116 16.8743 24.8087 16.8971C24.8059 16.9257 24.8002 16.9543 24.7973 16.9828C24.7944 17.0085 24.7916 17.0371 24.7859 17.0628C24.783 17.0885 24.7802 17.1171 24.7744 17.1428C24.7716 17.1657 24.7687 17.1914 24.7659 17.2143C24.7602 17.2457 24.7573 17.2771 24.7516 17.3085C24.7487 17.3285 24.743 17.3514 24.7402 17.3714C24.7373 17.3943 24.7316 17.42 24.7287 17.4428C24.723 17.4685 24.7202 17.4943 24.7144 17.52C24.7116 17.5428 24.7059 17.5657 24.703 17.5885C24.6973 17.6143 24.6945 17.64 24.6887 17.6628C24.683 17.6857 24.6802 17.7114 24.6744 17.7343C24.6687 17.7571 24.663 17.78 24.6602 17.8C24.6544 17.8228 24.6487 17.8457 24.6459 17.8685C24.6402 17.8943 24.6344 17.9171 24.6287 17.9428C24.623 17.9628 24.6202 17.9828 24.6144 18C24.6087 18.0228 24.6059 18.0428 24.6002 18.0657C24.5944 18.0885 24.5887 18.1114 24.583 18.1371C24.5773 18.1571 24.5716 18.1771 24.5659 18.1971C24.5602 18.2143 24.5544 18.2314 24.5516 18.2485C24.5459 18.2685 24.5402 18.2885 24.5344 18.3057C24.5287 18.3257 24.523 18.3485 24.5173 18.3685C24.5116 18.3914 24.5059 18.4143 24.4973 18.4343C24.4944 18.4457 24.4916 18.4571 24.4859 18.4714C24.483 18.4828 24.4802 18.4971 24.4744 18.5085C24.4716 18.5228 24.4659 18.5343 24.463 18.5485C24.4602 18.56 24.4544 18.5714 24.4516 18.5828C24.4487 18.5943 24.443 18.6028 24.4402 18.6143C24.4373 18.6257 24.4316 18.6343 24.4287 18.6457C24.4259 18.66 24.4202 18.6714 24.4144 18.6857C24.4116 18.6971 24.4059 18.7085 24.403 18.7171C24.4002 18.7285 24.3944 18.74 24.3916 18.7514C24.3859 18.7657 24.383 18.7771 24.3773 18.7914C24.3744 18.8028 24.3716 18.8114 24.3659 18.8228C24.363 18.8343 24.3573 18.8457 24.3544 18.8543C24.3487 18.8685 24.3459 18.88 24.3402 18.8943C24.3344 18.9057 24.3316 18.92 24.3259 18.9343C24.323 18.9457 24.3202 18.9543 24.3144 18.9657C24.3116 18.9771 24.3059 18.9857 24.303 18.9971C24.2973 19.0085 24.2944 19.02 24.2887 19.0314C24.2859 19.04 24.2802 19.0514 24.2773 19.06C24.2744 19.0685 24.2687 19.08 24.2659 19.0885C24.263 19.1 24.2573 19.1085 24.2544 19.12C24.2487 19.1314 24.2459 19.1428 24.2402 19.1543C24.2373 19.1657 24.2316 19.1743 24.2287 19.1857C24.2259 19.1943 24.2202 19.2057 24.2173 19.2143C24.2144 19.2228 24.2087 19.2343 24.2059 19.2428C24.2002 19.2543 24.1973 19.2657 24.1916 19.2771C24.1887 19.2857 24.183 19.2971 24.1802 19.3057C24.1773 19.3171 24.1716 19.3257 24.1687 19.3371C24.163 19.3485 24.1573 19.3628 24.1516 19.3743C24.1487 19.3828 24.143 19.3943 24.1373 19.4028C24.1344 19.4114 24.1287 19.4228 24.123 19.4314C24.1202 19.44 24.1144 19.4485 24.1116 19.46C23.7887 20.1943 23.3659 20.8771 22.863 21.4885C22.863 21.4885 22.863 21.4885 22.8602 21.4914C22.8602 21.4914 22.8573 21.4971 22.8544 21.4971C22.8544 21.4971 22.8516 21.5 22.8487 21.5028C22.8487 21.5028 22.8459 21.5057 22.843 21.5085C22.843 21.5085 22.8402 21.5114 22.8373 21.5143C22.8373 21.5143 22.8344 21.5171 22.8316 21.52C22.8316 21.52 22.8287 21.5228 22.8259 21.5257C22.8259 21.5257 22.823 21.5285 22.8202 21.5314C22.8202 21.5314 22.8173 21.5343 22.8144 21.5371C22.8144 21.5371 22.8116 21.5428 22.8087 21.5428C22.8087 21.5428 22.8087 21.5457 22.8059 21.5485C22.8059 21.5485 22.803 21.5514 22.8002 21.5543C22.8002 21.5543 22.8002 21.5543 22.7973 21.5571C22.7973 21.5571 22.7944 21.56 22.7916 21.5628C22.7916 21.5628 22.7916 21.5657 22.7887 21.5685C22.7887 21.5685 22.7859 21.5743 22.783 21.5743C22.783 21.5743 22.7802 21.5771 22.7773 21.58C22.7773 21.58 22.7745 21.5828 22.7716 21.5857C22.7716 21.5857 22.7687 21.5885 22.7659 21.5914C22.7659 21.5914 22.7659 21.5914 22.763 21.5943C22.763 21.5943 22.7602 21.5971 22.7573 21.6C22.7573 21.6 22.7573 21.6028 22.7544 21.6057C22.7544 21.6057 22.7544 21.6057 22.7516 21.6085C22.7516 21.6085 22.7516 21.6085 22.7487 21.6114C22.7487 21.6114 22.7487 21.6114 22.7459 21.6143C22.7459 21.6143 22.7459 21.6171 22.743 21.62C22.743 21.62 22.743 21.62 22.7402 21.6228C22.7402 21.6228 22.7373 21.6257 22.7344 21.6285C22.7316 21.6343 22.7259 21.6371 22.723 21.6428L22.7116 21.6543C22.7116 21.6543 22.703 21.6628 22.7002 21.6657C22.6945 21.6714 22.6916 21.6771 22.6859 21.68C22.683 21.6828 22.6773 21.6885 22.6744 21.6914C22.6716 21.6943 22.6687 21.7 22.6659 21.7028C22.663 21.7085 22.6573 21.7114 22.6544 21.7171C22.6516 21.7228 22.6459 21.7257 22.643 21.7314C22.6402 21.7371 22.6344 21.74 22.6316 21.7457C22.6287 21.7514 22.623 21.7543 22.6202 21.76C22.6173 21.7628 22.6116 21.7685 22.6087 21.7714C22.6059 21.7743 22.603 21.78 22.5973 21.7828C22.5916 21.7885 22.5887 21.7943 22.583 21.8C22.5802 21.8028 22.5744 21.8085 22.5716 21.8114C22.5687 21.8143 22.563 21.82 22.5602 21.8228C22.5544 21.8285 22.5516 21.8314 22.5459 21.8371C22.543 21.8428 22.5373 21.8457 22.5344 21.8514C22.5316 21.8543 22.5259 21.86 22.523 21.8628C22.5202 21.8657 22.5144 21.8714 22.5116 21.8743C22.5059 21.88 22.5002 21.8857 22.4973 21.8914C22.4973 21.8914 22.4916 21.8971 22.4887 21.9C22.4944 21.9028 22.5002 21.9057 22.5059 21.9085C22.5002 21.9085 22.4945 21.9028 22.4859 21.9028C22.4802 21.9085 22.4773 21.9114 22.4716 21.9171C22.4659 21.9228 22.463 21.9257 22.4573 21.9314C22.4544 21.9343 22.4487 21.94 22.4459 21.9428C22.4402 21.9485 22.4373 21.9514 22.4316 21.9571L22.4173 21.9714C22.4173 21.9714 22.4087 21.98 22.403 21.9857C22.4002 21.9885 22.3944 21.9943 22.3916 21.9971C22.3859 22.0028 22.383 22.0057 22.3773 22.0114C22.3716 22.0171 22.3687 22.02 22.363 22.0257C22.0773 22.3171 21.7716 22.5885 21.4487 22.8371C21.4373 22.8457 21.4287 22.8543 21.4173 22.8628C21.2602 22.9828 21.0973 23.0971 20.9316 23.2085C20.923 23.2143 20.9144 23.22 20.9059 23.2257C20.7544 23.3257 20.5973 23.42 20.4373 23.5114C20.4144 23.5257 20.3916 23.5371 20.3659 23.5514C20.1944 23.6457 20.023 23.7371 19.843 23.82C19.8373 23.82 19.8316 23.8257 19.8259 23.8285C19.6544 23.9085 19.4802 23.9828 19.303 24.0514C19.2802 24.06 19.2573 24.0714 19.2316 24.08C18.8545 24.2228 18.4659 24.3428 18.0659 24.4343C18.0545 24.4343 18.043 24.44 18.0316 24.4428C17.4087 24.5828 16.763 24.66 16.1002 24.66H16.0973C14.983 24.66 13.9173 24.4514 12.9373 24.0714C12.5487 23.9228 12.1745 23.7457 11.8145 23.5457C11.8059 23.54 11.7973 23.5343 11.7859 23.5285C11.6145 23.4314 11.4459 23.3285 11.2802 23.22C11.2773 23.22 11.2716 23.2143 11.2687 23.2114C11.103 23.1028 10.943 22.9885 10.7859 22.8685C10.7687 22.8543 10.7516 22.8428 10.7345 22.8285C10.5945 22.72 10.4602 22.6085 10.3287 22.4943C10.3087 22.4771 10.2916 22.4628 10.2716 22.4457C10.1316 22.32 9.99445 22.1914 9.86302 22.0571C9.85731 22.0514 9.85159 22.0457 9.84302 22.04C9.83731 22.0343 9.83445 22.0314 9.82874 22.0257C9.82302 22.02 9.82017 22.0171 9.81731 22.0114C9.81445 22.0085 9.80874 22.0028 9.80588 21.9971C9.80302 21.9943 9.80017 21.9914 9.79731 21.9885C9.79731 21.9885 9.79445 21.9857 9.79159 21.9828C9.78588 21.9771 9.78302 21.9743 9.77731 21.9685C9.77159 21.9628 9.76874 21.96 9.76302 21.9543C9.75731 21.9485 9.75445 21.9457 9.74874 21.94C9.74302 21.9343 9.74017 21.9314 9.73445 21.9257C9.73159 21.9228 9.72874 21.92 9.72302 21.9143C9.71731 21.9085 9.71445 21.9057 9.70874 21.9C9.70302 21.8943 9.70017 21.8914 9.69445 21.8857C9.69159 21.8828 9.68588 21.8771 9.68302 21.8743C9.67731 21.8685 9.67445 21.8657 9.66874 21.86C9.66302 21.8543 9.66017 21.8514 9.65445 21.8457C9.65159 21.8428 9.64588 21.8371 9.64302 21.8343C9.63731 21.8285 9.63445 21.8257 9.62874 21.82C9.62588 21.8143 9.62017 21.8114 9.61445 21.8057C9.61159 21.8028 9.60588 21.7971 9.60302 21.7943C9.60017 21.7914 9.59445 21.7857 9.59159 21.7828C9.58874 21.7771 9.58302 21.7743 9.58017 21.7685C9.57731 21.7657 9.57159 21.76 9.56874 21.7571C9.56588 21.7514 9.56017 21.7485 9.55731 21.7428C9.55445 21.7371 9.54874 21.7343 9.54588 21.7285C9.54302 21.7257 9.54017 21.72 9.53445 21.7171C9.53159 21.7114 9.52588 21.7085 9.52302 21.7028C9.52017 21.6971 9.51445 21.6943 9.51159 21.6885C9.50874 21.6857 9.50588 21.68 9.50302 21.6771C9.50017 21.6714 9.49445 21.6685 9.49159 21.6628C9.48588 21.6571 9.48302 21.6514 9.47731 21.6457C9.47445 21.6428 9.47159 21.6371 9.46874 21.6343C9.46588 21.6285 9.46017 21.6257 9.45731 21.62C9.45731 21.62 9.45445 21.6171 9.45159 21.6143C9.45159 21.6143 9.45159 21.6143 9.44874 21.6114C9.44874 21.6114 9.44588 21.6085 9.44588 21.6057C9.44588 21.6057 9.44588 21.6057 9.44302 21.6028C9.44302 21.6028 9.44017 21.6 9.43731 21.5971C9.43731 21.5971 9.43731 21.5971 9.43445 21.5943C9.43445 21.5943 9.43445 21.5943 9.43159 21.5914C9.43159 21.5914 9.42874 21.5885 9.42588 21.5857C9.42588 21.5857 9.42588 21.5857 9.42302 21.5828C9.42302 21.5828 9.42302 21.58 9.41731 21.5771C9.41731 21.5771 9.41731 21.5771 9.41445 21.5743C9.41445 21.5743 9.41445 21.5714 9.41159 21.5685C9.41159 21.5685 9.40874 21.5657 9.40588 21.5628C9.40588 21.5628 9.40588 21.56 9.40302 21.5571C9.40302 21.5571 9.40302 21.5543 9.40017 21.5514C9.40017 21.5514 9.40017 21.5485 9.39731 21.5457C9.39731 21.5457 9.39731 21.5457 9.39445 21.5428C9.39445 21.5428 9.39159 21.54 9.38874 21.5371C9.38874 21.5371 9.38588 21.5343 9.38302 21.5314C9.38302 21.5314 9.38017 21.5257 9.37731 21.5257C9.37731 21.5257 9.37731 21.5257 9.37445 21.5228C9.37445 21.5228 9.37159 21.5171 9.36874 21.5171C9.36874 21.5171 9.36874 21.5171 9.36588 21.5143C9.26302 21.3914 9.16588 21.2657 9.07159 21.14C9.04874 21.1085 9.02874 21.0771 9.00588 21.0485C8.92017 20.9285 8.83445 20.8057 8.75445 20.68C8.72588 20.6371 8.70017 20.5943 8.67159 20.5543C8.57731 20.4057 8.48874 20.2514 8.40302 20.0971C8.38302 20.06 8.36588 20.0228 8.34588 19.9857C8.28017 19.86 8.21731 19.7285 8.15731 19.6C8.14302 19.5685 8.12588 19.54 8.11445 19.5114C8.11445 19.5114 8.11445 19.5114 8.11731 19.5114C8.11159 19.4971 8.10302 19.48 8.09731 19.4657C8.09445 19.4571 8.08874 19.4457 8.08302 19.4371C8.07731 19.4257 8.07159 19.4143 8.06874 19.4028C8.06588 19.3943 8.06017 19.3857 8.05731 19.3743C8.05445 19.3657 8.04874 19.3543 8.04588 19.3457C8.04017 19.3343 8.03731 19.3228 8.03159 19.3085C8.02874 19.3 8.02302 19.2885 8.02017 19.28C8.01731 19.2714 8.01159 19.26 8.00874 19.2514C8.00302 19.24 8.00017 19.2285 7.99445 19.2143C7.99159 19.2057 7.98588 19.1943 7.98302 19.1857C7.98017 19.1771 7.97445 19.1657 7.97159 19.1571C7.96874 19.1457 7.96302 19.1371 7.96017 19.1257C7.95445 19.1143 7.95159 19.1028 7.94588 19.0914C7.94302 19.0828 7.93731 19.0714 7.93445 19.0628C7.93159 19.0514 7.92588 19.0428 7.92302 19.0314C7.91731 19.02 7.91445 19.0085 7.90874 18.9971C7.90588 18.9857 7.90017 18.9771 7.89731 18.9657C7.89445 18.9543 7.88874 18.9428 7.88588 18.9314C7.88017 18.92 7.87731 18.9057 7.87445 18.8943C7.87159 18.8828 7.86588 18.8714 7.86302 18.8628C7.86017 18.8514 7.85445 18.84 7.85159 18.8314C7.84874 18.82 7.84302 18.8114 7.84017 18.8C7.83445 18.7885 7.83159 18.7743 7.82588 18.7628C7.82302 18.7514 7.81731 18.74 7.81445 18.7285C7.81159 18.7171 7.80588 18.7085 7.80302 18.6971C7.79731 18.6828 7.79445 18.6714 7.78874 18.6571C7.78588 18.6457 7.78017 18.6343 7.77731 18.6228C7.77445 18.6114 7.76874 18.6028 7.76588 18.5914C7.76302 18.5771 7.75731 18.5657 7.75159 18.5514C7.74874 18.54 7.74588 18.5285 7.74017 18.5143C7.73731 18.5028 7.73445 18.4914 7.72874 18.48C7.72302 18.4657 7.72017 18.4514 7.71731 18.4371C7.71159 18.42 7.70588 18.4 7.70302 18.3828C7.69731 18.3657 7.69159 18.3457 7.68588 18.3285C7.68017 18.3085 7.67445 18.2885 7.66874 18.2685C7.66302 18.2514 7.65731 18.2343 7.65445 18.2171C7.64874 18.1971 7.64302 18.1771 7.63731 18.16C7.63159 18.14 7.62874 18.1228 7.62302 18.1028C7.61731 18.08 7.61445 18.06 7.60874 18.0371C7.60302 18.0171 7.60017 17.9971 7.59445 17.9771C7.58874 17.9543 7.58302 17.9343 7.58017 17.9114C7.57445 17.8914 7.57159 17.8743 7.56588 17.8543C7.56017 17.8343 7.55731 17.8143 7.55159 17.7943C7.54588 17.7714 7.54017 17.7514 7.53731 17.7285C7.53159 17.7057 7.52874 17.6857 7.52588 17.6628C7.52017 17.6371 7.51731 17.6143 7.51159 17.5885C7.50874 17.5657 7.50302 17.5457 7.50017 17.5228C7.49731 17.5 7.49159 17.4743 7.48874 17.4514C7.48588 17.4314 7.48017 17.4085 7.47731 17.3885C7.47445 17.3685 7.46874 17.3457 7.46588 17.3257C7.46302 17.3 7.45731 17.2743 7.45445 17.2485C7.45159 17.2257 7.44874 17.2 7.44588 17.1771C7.44302 17.1514 7.44017 17.1257 7.43445 17.1C7.43159 17.0771 7.42874 17.0514 7.42588 17.0285C7.42302 17 7.41731 16.9743 7.41445 16.9485C7.41445 16.9228 7.40874 16.9 7.40588 16.8743C7.40588 16.8457 7.40302 16.82 7.40017 16.7914C7.40017 16.7628 7.39731 16.7343 7.39445 16.7057C7.39445 16.68 7.39159 16.6543 7.38874 16.6285C7.38874 16.6 7.38302 16.5714 7.38302 16.5428C7.38302 16.5171 7.37731 16.4885 7.37731 16.4628C7.37731 16.4314 7.37731 16.4028 7.37445 16.3714C7.37445 16.3428 7.37445 16.3114 7.37445 16.28C7.37159 16.18 7.36588 16.0771 7.36588 15.9771C7.36588 11.1685 11.2802 7.26568 16.1116 7.26568C20.943 7.26568 24.8602 11.1657 24.8602 15.9771C24.8602 16.0171 24.8602 16.0571 24.8573 16.0971L24.8516 16.0857Z" fill="white"/>
<path d="M16.1057 18.163H16.1085C19.0771 18.163 21.8285 18.6601 24.0999 19.5058C23.7771 20.223 23.3599 20.8887 22.8657 21.4858C22.8657 21.4858 22.8685 21.4858 22.8714 21.4887C23.3771 20.8773 23.7971 20.1944 24.1199 19.4601C23.3457 16.9201 20.0457 14.7744 16.1057 14.7744C12.1657 14.7744 8.87138 16.9201 8.09424 19.4573C8.09995 19.4716 8.10852 19.4887 8.11424 19.503C10.3914 18.6573 13.14 18.1601 16.1057 18.1601V18.163Z" fill="white"/>
<path d="M24.1001 19.5059C21.8287 18.6602 19.0773 18.1631 16.1087 18.1631H16.1059C13.1401 18.1631 10.3916 18.6602 8.11443 19.5059C8.11443 19.5059 8.11443 19.5059 8.11157 19.5059C8.12586 19.5374 8.143 19.5659 8.15443 19.5945C8.21443 19.7259 8.27729 19.8545 8.343 19.9802C8.363 20.0174 8.38014 20.0545 8.40014 20.0917C8.48586 20.2459 8.57443 20.4002 8.66871 20.5488C8.69443 20.5917 8.723 20.6345 8.75157 20.6745C8.83157 20.8002 8.91729 20.9231 9.003 21.0431C9.02586 21.0745 9.04586 21.1059 9.06872 21.1345C9.163 21.2631 9.26014 21.3888 9.363 21.5088C9.363 21.5088 9.363 21.5088 9.36586 21.5117C9.36586 21.5117 9.36871 21.5174 9.37157 21.5174C9.37157 21.5174 9.37157 21.5174 9.37443 21.5202C9.37443 21.5202 9.37729 21.5259 9.38014 21.5259C9.38014 21.5259 9.383 21.5288 9.38586 21.5317C9.38586 21.5317 9.38871 21.5345 9.39157 21.5374C9.39157 21.5374 9.39157 21.5374 9.39443 21.5402C9.39443 21.5402 9.39443 21.5431 9.39729 21.5459C9.39729 21.5459 9.39729 21.5488 9.40014 21.5517C9.40014 21.5517 9.40014 21.5545 9.403 21.5574C9.403 21.5574 9.40586 21.5602 9.40871 21.5631C9.40871 21.5631 9.40872 21.5659 9.41157 21.5688C9.41157 21.5688 9.41157 21.5688 9.41443 21.5717C9.41443 21.5717 9.41443 21.5745 9.42014 21.5774C9.42014 21.5774 9.42014 21.5774 9.423 21.5802C9.423 21.5802 9.42586 21.5831 9.42871 21.5859C9.42871 21.5859 9.42872 21.5859 9.43157 21.5888C9.43157 21.5888 9.43157 21.5888 9.43443 21.5917C9.43443 21.5917 9.43729 21.5945 9.44014 21.5974C9.44014 21.5974 9.44014 21.5974 9.443 21.6002C9.443 21.6002 9.44586 21.6031 9.44586 21.6059C9.44586 21.6059 9.44586 21.6059 9.44871 21.6088C9.44871 21.6088 9.45157 21.6117 9.45443 21.6145C9.45729 21.6202 9.463 21.6231 9.46586 21.6288C9.46871 21.6317 9.47157 21.6374 9.47443 21.6402C9.48014 21.6459 9.483 21.6517 9.48871 21.6574C9.49157 21.6631 9.49729 21.6659 9.50014 21.6717C9.503 21.6745 9.50586 21.6802 9.50872 21.6831C9.51157 21.6888 9.51729 21.6917 9.52014 21.6974C9.523 21.7031 9.52871 21.7059 9.53157 21.7117C9.53443 21.7145 9.53729 21.7202 9.543 21.7231C9.54586 21.7288 9.55157 21.7317 9.55443 21.7374C9.55729 21.7431 9.563 21.7459 9.56586 21.7517C9.56871 21.7545 9.57443 21.7602 9.57729 21.7631C9.58014 21.7688 9.58586 21.7717 9.58872 21.7774C9.59157 21.7802 9.59729 21.7859 9.60014 21.7888C9.603 21.7917 9.60871 21.7974 9.61157 21.8002C9.61443 21.8059 9.62014 21.8088 9.62586 21.8145C9.63157 21.8202 9.63443 21.8231 9.64014 21.8288C9.643 21.8317 9.64872 21.8374 9.65157 21.8402C9.65729 21.8459 9.66014 21.8488 9.66586 21.8545C9.67157 21.8602 9.67443 21.8631 9.68014 21.8688C9.683 21.8717 9.68872 21.8774 9.69157 21.8802C9.69729 21.8859 9.70014 21.8888 9.70586 21.8945C9.71157 21.9002 9.71443 21.9031 9.72014 21.9088C9.723 21.9117 9.72586 21.9145 9.73157 21.9202C9.73729 21.9259 9.74014 21.9288 9.74586 21.9345C9.75157 21.9402 9.75443 21.9431 9.76014 21.9488C9.76586 21.9545 9.76871 21.9574 9.77443 21.9631C9.78014 21.9688 9.783 21.9717 9.78872 21.9774C9.78872 21.9774 9.79157 21.9802 9.79443 21.9831C9.79729 21.9859 9.80014 21.9888 9.803 21.9917C9.80586 21.9945 9.81157 22.0002 9.81443 22.0059C9.82014 22.0117 9.823 22.0145 9.82586 22.0202C9.83157 22.0259 9.83443 22.0288 9.84014 22.0345C9.84586 22.0402 9.85157 22.0459 9.86014 22.0517C9.99157 22.1859 10.1287 22.3145 10.2687 22.4402C10.2859 22.4574 10.3059 22.4717 10.3259 22.4888C10.4573 22.6031 10.5944 22.7174 10.7316 22.8231C10.7487 22.8374 10.7659 22.8488 10.783 22.8631C10.9401 22.9831 11.1001 23.0974 11.2659 23.2059C11.2687 23.2059 11.2744 23.2117 11.2773 23.2145C11.443 23.3231 11.6116 23.4259 11.783 23.5231C11.7916 23.5288 11.8001 23.5345 11.8116 23.5402C12.1716 23.7402 12.5459 23.9174 12.9344 24.0659C13.9144 24.4431 14.9801 24.6545 16.0944 24.6545C16.7573 24.6545 17.4059 24.5774 18.0259 24.4374C18.0373 24.4374 18.0487 24.4317 18.0601 24.4288C18.4601 24.3374 18.8487 24.2202 19.2259 24.0745C19.2487 24.0659 19.2716 24.0574 19.2973 24.0459C19.4744 23.9774 19.6487 23.9031 19.8201 23.8231C19.8259 23.8231 19.8316 23.8174 19.8373 23.8145C20.0144 23.7317 20.1887 23.6402 20.3601 23.5459C20.383 23.5317 20.4059 23.5202 20.4316 23.5059C20.5916 23.4145 20.7459 23.3202 20.9001 23.2202C20.9087 23.2145 20.9173 23.2088 20.9259 23.2031C21.0916 23.0945 21.2544 22.9774 21.4116 22.8574C21.423 22.8488 21.4344 22.8402 21.443 22.8317C21.7659 22.5831 22.0716 22.3117 22.3573 22.0202C22.363 22.0145 22.3659 22.0117 22.3716 22.0059C22.3773 22.0002 22.3801 21.9974 22.3859 21.9917C22.3887 21.9888 22.3944 21.9831 22.3973 21.9802C22.403 21.9745 22.4059 21.9717 22.4116 21.9659L22.4259 21.9517C22.4259 21.9517 22.4344 21.9431 22.4401 21.9374C22.443 21.9345 22.4487 21.9288 22.4516 21.9259C22.4573 21.9202 22.4601 21.9174 22.4659 21.9117C22.4716 21.9059 22.4744 21.9031 22.4801 21.8974C22.4859 21.8974 22.4916 21.9031 22.5001 21.9031C22.4944 21.9002 22.4887 21.8974 22.483 21.8945C22.483 21.8945 22.4887 21.8888 22.4916 21.8859C22.4973 21.8802 22.503 21.8745 22.5059 21.8688C22.5087 21.8659 22.5144 21.8602 22.5173 21.8574C22.5201 21.8545 22.5259 21.8488 22.5287 21.8459C22.5316 21.8402 22.5373 21.8374 22.5401 21.8317C22.5459 21.8259 22.5487 21.8231 22.5544 21.8174C22.5573 21.8145 22.563 21.8088 22.5659 21.8059C22.5687 21.8031 22.5744 21.7974 22.5773 21.7945C22.583 21.7888 22.5859 21.7831 22.5916 21.7774C22.5944 21.7745 22.5973 21.7688 22.603 21.7659C22.6059 21.7631 22.6116 21.7574 22.6144 21.7545C22.6173 21.7488 22.623 21.7459 22.6259 21.7402C22.6287 21.7345 22.6344 21.7317 22.6373 21.7259C22.6401 21.7202 22.6459 21.7174 22.6487 21.7117C22.6516 21.7059 22.6573 21.7031 22.6601 21.6974C22.663 21.6945 22.6659 21.6888 22.6687 21.6859C22.6716 21.6831 22.6773 21.6774 22.6801 21.6745C22.6859 21.6688 22.6887 21.6631 22.6944 21.6602C22.6973 21.6574 22.703 21.6517 22.7059 21.6488L22.7173 21.6374C22.7173 21.6374 22.7259 21.6288 22.7287 21.6231C22.7287 21.6231 22.7316 21.6202 22.7344 21.6174C22.7344 21.6174 22.7344 21.6174 22.7373 21.6145C22.7373 21.6145 22.7373 21.6117 22.7401 21.6088C22.7401 21.6088 22.7401 21.6088 22.743 21.6059C22.743 21.6059 22.743 21.6059 22.7459 21.6031C22.7459 21.6031 22.7459 21.6031 22.7487 21.6002C22.7487 21.6002 22.7487 21.5974 22.7516 21.5945C22.7516 21.5945 22.7544 21.5917 22.7573 21.5888C22.7573 21.5888 22.7573 21.5888 22.7601 21.5859C22.7601 21.5859 22.763 21.5831 22.7659 21.5802C22.7659 21.5802 22.7687 21.5774 22.7716 21.5745C22.7716 21.5745 22.7744 21.5717 22.7773 21.5688C22.7773 21.5688 22.7801 21.5631 22.783 21.5631C22.783 21.5631 22.783 21.5602 22.7859 21.5574C22.7859 21.5574 22.7887 21.5545 22.7916 21.5517C22.7916 21.5517 22.7916 21.5517 22.7944 21.5488C22.7944 21.5488 22.7973 21.5459 22.8001 21.5431C22.8001 21.5431 22.8001 21.5402 22.803 21.5374C22.803 21.5374 22.8059 21.5317 22.8087 21.5317C22.8087 21.5317 22.8116 21.5288 22.8144 21.5259C22.8144 21.5259 22.8173 21.5231 22.8201 21.5202C22.8201 21.5202 22.823 21.5174 22.8259 21.5145C22.8259 21.5145 22.8287 21.5117 22.8316 21.5088C22.8316 21.5088 22.8344 21.5059 22.8373 21.5031C22.8373 21.5031 22.8401 21.5002 22.843 21.4974C22.843 21.4974 22.8459 21.4945 22.8487 21.4917C22.8487 21.4917 22.8516 21.4859 22.8544 21.4859C22.8544 21.4859 22.8544 21.4859 22.8573 21.4831C22.8573 21.4831 22.8544 21.4831 22.8516 21.4802C23.3459 20.8802 23.763 20.2174 24.0859 19.5002L24.1001 19.5059Z" fill="#0367B3"/>
</g>
<defs>
<clipPath id="clip0_266_61312">
<rect width="32" height="32" fill="white"/>
</clipPath>
</defs>
</svg>
