<svg width="40" height="40" viewBox="0 0 40 40" fill="none" xmlns="http://www.w3.org/2000/svg">
<g clip-path="url(#clip0_266_61643)">
<path d="M0 20C0 21.1776 0 21.3084 0.0280636 22.3084C0.1029 24.5234 0.336763 27.0654 1.22544 29.7476C1.8522 31.6449 3.03087 33.6916 4.20954 34.9813C5.70629 36.6261 7.77361 37.9718 10.0094 38.7382C12.2919 39.5232 14.7615 39.9064 19.5603 40H20.449C25.2573 39.8971 27.7175 39.5232 30 38.7382C32.2358 37.9718 34.2938 36.6261 35.7904 34.9813C36.9693 33.6823 38.1479 31.6449 38.7746 29.7476C39.6632 27.0654 39.9064 24.514 39.9718 22.3084C40 21.3178 40 21.1776 40 20C40 18.8224 40 18.6916 39.9718 17.6916C39.8971 15.4766 39.6632 12.9346 38.7746 10.2523C38.1479 8.35514 36.9693 6.30839 35.7904 5.01868C34.2938 3.37383 32.2264 2.02804 30 1.26168C27.7175 0.476636 25.2479 0.0934579 20.449 0H19.5603C14.7521 0.102804 12.2919 0.476636 10.0094 1.26168C7.77361 2.02804 5.71561 3.37383 4.20954 5.01868C3.03087 6.31775 1.8522 8.35514 1.22544 10.2523C0.346118 12.9346 0.1029 15.4766 0.0280636 17.6916C0 18.6823 0 18.8224 0 20Z" fill="#1585B4"/>
<path d="M12.4159 6.85021C12.0317 7.02632 11.6864 7.27732 11.4004 7.58857C11.1144 7.89978 10.8934 8.265 10.7503 8.66275L5.43782 23.7384C5.29885 24.1284 5.24328 24.5432 5.2746 24.9561C5.30592 25.3689 5.42349 25.7706 5.61967 26.1352C6.02753 26.8912 6.71767 27.4553 7.53967 27.7046L24.9572 33.2277C25.7946 33.4931 26.7015 33.4314 27.4953 33.0552C27.8796 32.8795 28.2247 32.6285 28.5105 32.3172C28.7962 32.0059 29.0167 31.6406 29.1591 31.2427L34.4716 16.169C34.604 15.7705 34.6543 15.3494 34.6195 14.9309C34.5847 14.5125 34.4655 14.1054 34.2691 13.7343C34.0727 13.3632 33.8031 13.0357 33.4766 12.7716C33.1502 12.5075 32.7736 12.3123 32.3697 12.1977L14.9522 6.6765C14.1151 6.412 13.209 6.47335 12.4153 6.84835" fill="white"/>
<path d="M20.929 21.3324C19.958 22.359 18.7621 23.1465 17.4353 23.633L16.6484 23.9218V16.9343L17.4253 17.2186C18.7534 17.7019 19.9514 18.4864 20.9253 19.5105C21.6201 18.4602 22.0294 17.247 22.1128 15.9905C22.1852 14.3645 21.7326 12.7584 20.822 11.4094C19.9114 10.0604 18.591 9.04011 17.0559 8.49922L14.5415 7.70865C14.0076 7.53307 13.4265 7.57061 12.9196 7.81347C12.4127 8.05629 12.0193 8.48561 11.8215 9.01172L6.49404 24.0967C6.40936 24.3584 6.3785 24.6345 6.40336 24.9085C6.42822 25.1824 6.50825 25.4484 6.63864 25.6906C6.76904 25.9328 6.94707 26.146 7.16207 26.3175C7.37711 26.489 7.62457 26.6153 7.88968 26.6886L19.9797 30.5011C21.2446 29.2456 22.0082 27.5719 22.1272 25.7936C22.229 24.2156 21.8079 22.6481 20.929 21.3336M13.9415 24.3505H12.7397V16.5186H13.9415V24.3505Z" fill="#008AD3"/>
<path d="M20.2296 20.4213C19.5448 19.6596 18.7198 19.0368 17.7996 18.5869V22.2663C18.7215 21.8144 19.5468 21.1882 20.2296 20.4213Z" fill="#EC4315"/>
<path d="M31.9846 13.209L20.8909 9.70898C22.2797 11.1058 23.1237 12.953 23.2705 14.9173C23.4173 16.8816 22.8573 18.8337 21.6915 20.4215C22.8265 21.9563 23.3942 23.8372 23.2978 25.7436C23.2013 27.6501 22.4468 29.4641 21.1628 30.8765L25.3315 32.189C25.8658 32.3633 26.4467 32.3248 26.9532 32.0813C27.4597 31.8378 27.8527 31.4083 28.0503 30.8821L33.379 15.8021C33.4632 15.5403 33.4935 15.2641 33.4684 14.9903C33.4432 14.7164 33.363 14.4504 33.2325 14.2082C33.1021 13.9661 32.9241 13.7528 32.7093 13.5811C32.4944 13.4094 32.2471 13.2828 31.9821 13.209M29.0446 24.3246L27.5446 24.3309L24.4634 20.4121L27.5921 16.4965L29.1028 16.4915L25.9678 20.4178L29.0446 24.3246Z" fill="#004593"/>
</g>
<defs>
<clipPath id="clip0_266_61643">
<rect width="40" height="40" fill="white"/>
</clipPath>
</defs>
</svg>
