<svg width="24" height="24" viewBox="0 0 24 24" fill="none" xmlns="http://www.w3.org/2000/svg">
<g clip-path="url(#clip0_266_60770)">
<path d="M0 12C0 12.7065 0 12.785 0.0168382 13.385C0.06174 14.714 0.202058 16.2393 0.735266 17.8486C1.11132 18.9869 1.81852 20.2149 2.52572 20.9888C3.42377 21.9756 4.66416 22.7831 6.00561 23.2429C7.37511 23.7139 8.85688 23.9439 11.7362 24H12.2694C15.1544 23.9383 16.6305 23.7139 18 23.2429C19.3414 22.7831 20.5763 21.9756 21.4742 20.9888C22.1816 20.2094 22.8887 18.9869 23.2648 17.8486C23.7979 16.2393 23.9439 14.7084 23.9831 13.385C24 12.7907 24 12.7065 24 12C24 11.2935 24 11.2149 23.9831 10.6149C23.9383 9.28599 23.7979 7.76074 23.2648 6.15139C22.8887 5.01309 22.1816 3.78504 21.4742 3.01121C20.5763 2.0243 19.3358 1.21682 18 0.757009C16.6305 0.285981 15.1487 0.0560747 12.2694 0H11.7362C8.85126 0.0616821 7.37511 0.285981 6.00561 0.757009C4.66416 1.21682 3.42936 2.0243 2.52572 3.01121C1.81852 3.79065 1.11132 5.01309 0.735266 6.15139C0.207671 7.76074 0.06174 9.28599 0.0168382 10.6149C0 11.2093 0 11.2935 0 12Z" fill="#003CDC"/>
<path d="M5.02923 11.9363L5.41648 11.4107C5.12898 11.2724 4.8356 11.0622 4.61996 10.78C4.40411 10.509 4.26037 10.1771 4.26037 9.78414V9.33046H3.54116V9.79524C3.54116 10.1936 3.40284 10.5476 3.18155 10.8518C2.96025 11.1618 2.66688 11.4051 2.35715 11.5821L2.78863 12.0857C3.03759 11.9363 3.28087 11.7481 3.48018 11.5325C3.67402 11.3277 3.82867 11.1008 3.92276 10.8852C4.14971 11.3055 4.4982 11.6486 5.02923 11.9363ZM6.44563 10.9568H7.24781V10.3761H6.44542V9.21436H5.75932V12.1354H6.44542L6.44563 10.9568ZM3.54116 14.4535H6.44542V12.3347H3.54116V14.4535ZM5.75953 12.9156V13.8783H4.22158V12.9156H5.75953ZM10.0748 12.0247L10.462 11.4881C10.1688 11.3389 9.87568 11.1396 9.67093 10.8741C9.45532 10.614 9.32244 10.2932 9.32244 9.87823V9.33046H8.59213V9.88957C8.59213 10.2657 8.46493 10.5977 8.2602 10.8854C8.05545 11.1786 7.75117 11.433 7.4138 11.6543L7.8396 12.1689C8.10534 12.0084 8.34318 11.7982 8.54225 11.5935C8.73611 11.3887 8.8853 11.1731 8.96829 10.9738C9.05673 11.1509 9.20613 11.3445 9.39978 11.5271C9.59362 11.7209 9.83124 11.8921 10.0748 12.0247ZM11.0264 12.1631H11.7125V9.21436H11.0264V10.1326H10.0582V10.7412H11.0264V12.1631ZM11.6292 13.3137C11.6292 12.9598 11.4855 12.6609 11.2476 12.4453C11.0042 12.2295 10.6668 12.1023 10.2684 12.1023C9.87003 12.1023 9.53808 12.2295 9.30024 12.4453C9.05673 12.6609 8.9184 12.9598 8.9184 13.3137C8.9184 13.6844 9.05673 13.9833 9.30024 14.1989C9.53808 14.4036 9.87003 14.5254 10.2684 14.5254C10.6668 14.5254 11.0042 14.4036 11.2476 14.1989C11.4855 13.9833 11.6292 13.6844 11.6292 13.3137ZM10.9545 13.3137C10.9545 13.6955 10.6668 13.9499 10.2684 13.9499C9.87003 13.9499 9.5934 13.6955 9.5934 13.3139C9.5934 12.9376 9.87003 12.6832 10.2684 12.6832C10.4675 12.6832 10.6334 12.7496 10.7606 12.8603C10.822 12.9187 10.8708 12.9891 10.9042 13.0671C10.9375 13.145 10.9546 13.229 10.9545 13.3137ZM15.0706 9.917H16.2268V9.34156H13.0511V9.917H14.2129C14.1301 10.1326 13.9197 10.3319 13.6597 10.4868C13.3996 10.6473 13.0955 10.7743 12.8298 10.8244L13.1121 11.3885C13.4144 11.3178 13.705 11.2041 13.9751 11.0509C14.2408 10.9017 14.4841 10.7135 14.6444 10.509C14.8049 10.7081 15.043 10.8852 15.3139 11.0346C15.5794 11.1838 15.8837 11.3001 16.1769 11.372L16.4592 10.8187C16.1492 10.7357 15.8284 10.6251 15.5794 10.4702C15.3305 10.3208 15.1371 10.1383 15.0706 9.917ZM12.3816 12.2184H16.907V11.6375H12.3818L12.3816 12.2184ZM16.0495 13.5849C16.0495 13.2473 15.8946 12.9818 15.6456 12.7881C15.3856 12.6056 15.0425 12.5006 14.6442 12.5006C14.2626 12.5006 13.9141 12.6056 13.654 12.7881C13.3939 12.9709 13.2336 13.2475 13.2336 13.5849C13.2336 13.9391 13.4051 14.21 13.6706 14.3925C13.9363 14.5696 14.2902 14.6583 14.6442 14.6583C14.9927 14.6583 15.3411 14.5642 15.6069 14.3871C15.8726 14.21 16.0495 13.9391 16.0495 13.5849ZM15.3856 13.5849C15.3856 13.7398 15.3026 13.867 15.17 13.9556C15.0371 14.044 14.8489 14.0994 14.6442 14.0994C14.2016 14.0994 13.8973 13.8946 13.8973 13.5849C13.8973 13.2752 14.2016 13.0593 14.6444 13.0593C14.8491 13.0593 15.0371 13.1147 15.1697 13.2031C15.3026 13.2972 15.3856 13.43 15.3856 13.5849ZM17.2836 11.2117L17.3498 11.8311C17.7354 11.8202 18.1209 11.8036 18.5061 11.7815V12.5283H19.1809V11.737C19.7564 11.6928 20.3207 11.6375 20.885 11.571V12.0415H19.8559V12.5614H20.885V13.1369H21.5655V9.21436H20.885V11.0178C20.647 11.0455 20.4091 11.0677 20.1658 11.0897C20.2431 10.6083 20.2765 10.1217 20.2708 9.64584V9.46876H17.693V10.0608H19.574C19.5849 10.3816 19.5575 10.7469 19.5022 11.1396C18.7719 11.1894 18.0304 11.2114 17.2836 11.2114V11.2117ZM18.5834 14.3594H21.6429V13.7731H19.2584V12.8269H18.5834V14.3594Z" fill="white"/>
</g>
<defs>
<clipPath id="clip0_266_60770">
<rect width="24" height="24" fill="white"/>
</clipPath>
</defs>
</svg>
