<svg width="24" height="24" viewBox="0 0 24 24" fill="none" xmlns="http://www.w3.org/2000/svg">
<g clip-path="url(#clip0_266_61023)">
<path d="M0 12C0 12.702 0 12.786 0.0180045 13.386C0.0420105 14.904 0.282071 16.404 0.738184 17.85C1.12828 19.002 1.73443 20.07 2.52662 20.988C3.48088 22.014 4.67518 22.788 6.0015 23.244C7.36984 23.718 8.85221 23.94 11.7329 24H12.2671C15.1478 23.94 16.6302 23.712 17.9985 23.244C19.3248 22.788 20.5191 22.014 21.4734 20.988C22.2656 20.064 22.8778 19.002 23.2618 17.85C23.718 16.404 23.964 14.904 23.982 13.386C24 12.792 24 12.708 24 12.006C24 11.304 24 11.22 23.982 10.626C23.964 9.108 23.718 7.608 23.2618 6.162C22.8718 5.01 22.2656 3.942 21.4734 3.018C20.5191 1.992 19.3248 1.218 17.9985 0.762C16.6302 0.288 15.1478 0.06 12.2671 0H11.7329C8.85221 0.06 7.36984 0.288 6.0015 0.756C4.67518 1.212 3.48088 1.986 2.52662 3.012C1.73443 3.936 1.12228 4.998 0.738184 6.156C0.282071 7.596 0.0420105 9.102 0.0180045 10.62C0 11.214 0 11.298 0 12Z" fill="#00448D"/>
<path d="M14.2542 13.2273H15.449L18.4295 10.5737H14.2542V13.2273Z" fill="#D5B55D"/>
<path d="M13.4551 5.625L10.8123 7.97867V9.77162H13.4551V5.625Z" fill="#D5B55D"/>
<path d="M8.55279 10.5737L5.57227 13.2208H10.8125V18.4823L13.4554 16.1352V10.5737H8.54629H8.55279Z" fill="white"/>
</g>
<defs>
<clipPath id="clip0_266_61023">
<rect width="24" height="24" fill="white"/>
</clipPath>
</defs>
</svg>
