<svg width="32" height="32" viewBox="0 0 32 32" fill="none" xmlns="http://www.w3.org/2000/svg">
<g clip-path="url(#clip0_266_61222)">
<path d="M0 16C0 16.9421 0 17.0467 0.0224509 17.8467C0.08232 19.6187 0.269411 21.6523 0.980354 23.7981C1.48176 25.3159 2.4247 26.9533 3.36763 27.9851C4.56503 29.3009 6.21889 30.3774 8.00749 30.9906C9.83349 31.6186 11.8092 31.9251 15.6483 32H16.3592C20.2058 31.9177 22.174 31.6186 24 30.9906C25.7886 30.3774 27.435 29.3009 28.6323 27.9851C29.5754 26.9458 30.5183 25.3159 31.0197 23.7981C31.7306 21.6523 31.9251 19.6112 31.9774 17.8467C32 17.0542 32 16.9421 32 16C32 15.0579 32 14.9533 31.9774 14.1533C31.9177 12.3813 31.7306 10.3477 31.0197 8.20186C30.5183 6.68411 29.5754 5.04671 28.6323 4.01494C27.435 2.69907 25.7811 1.62243 24 1.00935C22.174 0.381309 20.1983 0.0747663 16.3592 0H15.6483C11.8017 0.0822429 9.83349 0.381309 8.00749 1.00935C6.21889 1.62243 4.57249 2.69907 3.36763 4.01494C2.4247 5.0542 1.48176 6.68411 0.980354 8.20186C0.276894 10.3477 0.08232 12.3813 0.0224509 14.1533C0 14.9458 0 15.0579 0 16Z" fill="#003D76"/>
<path d="M7.71423 12.0083V26.1428H11.7873V20.5543L15.5912 26.1428H20.4722L15.1197 18.2793H11.7873V12.0083H7.71423Z" fill="white"/>
<mask id="mask0_266_61222" style="mask-type:luminance" maskUnits="userSpaceOnUse" x="7" y="6" width="18" height="21">
<path d="M24.2857 6.14307H7.71423V26.1431H24.2857V6.14307Z" fill="white"/>
</mask>
<g mask="url(#mask0_266_61222)">
<path d="M21.7951 19.4111L24.2858 6.14307L11.3028 10.4206C12.9772 10.8609 14.5857 11.52 16.0865 12.3806L10.8579 18.3096L13.9317 20.9431L19.1602 15.0146C20.2319 16.3562 21.1181 17.8349 21.7951 19.4111Z" fill="#E4007F"/>
</g>
</g>
<defs>
<clipPath id="clip0_266_61222">
<rect width="32" height="32" fill="white"/>
</clipPath>
</defs>
</svg>
