<svg width="56" height="56" viewBox="0 0 56 56" fill="none" xmlns="http://www.w3.org/2000/svg">
<g clip-path="url(#clip0_266_62039)">
<path d="M0 28C0 29.645 0 29.8368 0.0448 31.227C0.0936765 34.7624 0.659674 38.2715 1.7248 41.643C2.62943 44.3328 4.04775 46.8214 5.901 48.9706C8.13048 51.3644 10.9155 53.1719 14.0098 54.2332C17.206 55.3336 20.6584 55.8628 27.3798 56H28.6216C35.3416 55.86 38.7968 55.3336 41.9916 54.2332C45.0867 53.1719 47.8727 51.3645 50.1032 48.9706C51.9545 46.8203 53.3722 44.332 54.278 41.643C55.3425 38.2714 55.9084 34.7623 55.958 31.227C56 29.8368 56 29.645 56 28C56 26.355 56 26.1646 55.958 24.78C55.9084 21.2447 55.3425 17.7356 54.278 14.364C53.3719 11.6747 51.9542 9.18603 50.1032 7.035C47.8726 4.64154 45.0866 2.83455 41.9916 1.7738C38.7968 0.6664 35.3444 0.14 28.6216 0H27.3798C20.6598 0.14 17.206 0.6664 14.0098 1.7682C10.9156 2.829 8.13056 4.63601 5.901 7.0294C4.04803 9.17931 2.62976 11.6683 1.7248 14.3584C0.659674 17.7299 0.0936765 21.239 0.0448 24.7744C0 26.1646 0 26.3564 0 28Z" fill="#01448B"/>
<path d="M18.256 29.6199C17.9099 28.3516 18.0174 27.0022 18.56 25.8047C19.1027 24.6073 20.0464 23.6368 21.2282 23.0609C26.6672 20.3449 32.2154 17.8459 37.7482 15.2461C38.099 16.5381 37.981 17.9127 37.4152 19.126C36.8494 20.3394 35.8723 21.3133 34.657 21.8751C29.2768 24.5463 23.7958 27.0187 18.263 29.6199" fill="white"/>
<path d="M19.5412 35.3722C19.2436 34.3594 19.2803 33.2776 19.646 32.2872C20.0117 31.2969 20.6868 30.4508 21.5712 29.8744C23.1154 28.9718 24.7103 28.1589 26.348 27.4398C28.3472 26.4794 30.3688 25.561 32.3806 24.623C32.7049 25.6965 32.6496 26.8489 32.224 27.8863C31.7985 28.9238 31.0287 29.7831 30.044 30.3196C26.586 32.0808 23.0552 33.6936 19.544 35.3764" fill="white"/>
<path d="M20.7703 40.753C20.0983 36.4732 23.2819 35.0886 27.6989 33.459C27.8784 34.221 27.8361 35.0183 27.5771 35.7571C27.3181 36.4958 26.8533 37.145 26.2373 37.6282C24.5741 38.7916 22.7093 39.6638 20.7773 40.753" fill="white"/>
<path d="M0 28C0 29.645 0 29.835 0.045 31.225C0.145 34.32 0.48 37.89 1.725 41.64C2.605 44.3 4.25 47.155 5.9 48.97C8 51.2701 10.885 53.1551 14.01 54.2301C17.205 55.3301 20.66 55.8601 27.38 56.0001H28.62C35.34 55.8601 38.795 55.3301 41.99 54.2301C45.115 53.1551 48 51.2701 50.1 48.97C51.755 47.155 53.395 44.3 54.275 41.64C55.52 37.885 55.855 34.32 55.955 31.225C56 29.835 56 29.645 56 28C56 26.355 56 26.165 55.955 24.775C55.855 21.68 55.52 18.115 54.275 14.36C53.395 11.7 51.755 8.845 50.1 7.03C48 4.73 45.115 2.845 41.99 1.765C38.795 0.664998 35.34 0.135 28.62 0H27.38C20.66 0.14 17.205 0.664998 14.01 1.765C10.885 2.84 8 4.725 5.9 7.03C4.25 8.84 2.605 11.7 1.725 14.36C0.48 18.11 0.145 21.68 0.045 24.775C0 26.165 0 26.355 0 28Z" fill="#0367B3"/>
<path d="M28.2499 43.4753C36.7385 43.4753 43.6199 36.594 43.6199 28.1054C43.6199 19.6167 36.7385 12.7354 28.2499 12.7354C19.7612 12.7354 12.8799 19.6167 12.8799 28.1054C12.8799 36.594 19.7612 43.4753 28.2499 43.4753Z" fill="#0098D5"/>
<path d="M28.2449 17.8203C35.2299 17.8203 41.1949 22.1203 43.4899 28.1503C43.4899 28.0803 43.4949 28.0103 43.4949 27.9403C43.4949 19.5203 36.6399 12.6953 28.1849 12.6953C19.7299 12.6953 12.8799 19.5253 12.8799 27.9403C12.8799 28.1203 12.8849 28.2953 12.8949 28.4703C15.0949 22.2703 21.1399 17.8153 28.2499 17.8153L28.2449 17.8203Z" fill="#0083CA"/>
<path d="M28.2546 17.9453C35.2546 17.9453 41.2246 22.2603 43.4896 28.2953C43.4896 28.2453 43.4896 28.2003 43.4896 28.1503C41.1946 22.1153 35.2296 17.8203 28.2446 17.8203C21.2596 17.8203 15.0946 22.2753 12.8896 28.4753C12.8896 28.5253 12.8896 28.5803 12.8896 28.6353C15.0596 22.4303 21.1196 17.9503 28.2446 17.9503L28.2546 17.9453Z" fill="#0083CA"/>
<path d="M28.2344 18.0902C35.2744 18.0902 41.2594 22.4452 43.4844 28.5052C43.4844 28.4352 43.4844 28.3652 43.4894 28.3002C41.2244 22.2702 35.2544 17.9502 28.2544 17.9502C21.2544 17.9502 15.0694 22.4302 12.8994 28.6352C12.8994 28.6902 12.8994 28.7402 12.9044 28.7952C15.0394 22.5902 21.0894 18.0952 28.2344 18.0952V18.0902Z" fill="#0085CB"/>
<path d="M28.2353 18.0898C21.0903 18.0898 15.0403 22.5898 12.9053 28.7898C12.9053 28.8348 12.9153 28.8848 12.9153 28.9298C15.0253 22.7348 21.0853 18.2248 28.2403 18.2248C35.3953 18.2248 41.2903 22.6048 43.4803 28.6648C43.4803 28.6148 43.4803 28.5598 43.4803 28.5048C41.2603 22.4448 35.2703 18.0898 28.2303 18.0898H28.2353Z" fill="#0086CC"/>
<path d="M28.24 18.2257C21.085 18.2257 15.02 22.7357 12.915 28.9307C12.915 28.9807 12.925 29.0307 12.925 29.0807C15 22.8857 21.07 18.3607 28.24 18.3607C35.41 18.3607 41.31 22.7607 43.47 28.8207C43.47 28.7657 43.475 28.7157 43.48 28.6607C41.29 22.6007 35.295 18.2207 28.24 18.2207V18.2257Z" fill="#0088CC"/>
<path d="M28.2398 18.4904C35.3198 18.4904 41.3298 22.9104 43.4598 28.9704C43.4598 28.9204 43.4698 28.8704 43.4698 28.8204C41.3148 22.7554 35.3098 18.3604 28.2398 18.3604C21.1698 18.3604 14.9998 22.8854 12.9248 29.0804C12.9248 29.1254 12.9298 29.1704 12.9348 29.2154C14.9848 23.0304 21.0648 18.4904 28.2398 18.4904Z" fill="#0089CD"/>
<path d="M28.2396 18.4902C21.0646 18.4902 14.9846 23.0302 12.9346 29.2152C12.9346 29.2652 12.9396 29.3152 12.9446 29.3652C14.9596 23.1852 21.0446 18.6252 28.2296 18.6252C35.4146 18.6252 41.3496 23.0702 43.4396 29.1352C43.4396 29.0802 43.4496 29.0252 43.4546 28.9702C41.3296 22.9102 35.3196 18.4902 28.2346 18.4902H28.2396Z" fill="#008BCE"/>
<path d="M28.2352 18.7699C35.3452 18.7699 41.3702 23.2249 43.4352 29.2799C43.4352 29.2349 43.4402 29.1849 43.4452 29.1399C41.3552 23.0749 35.3302 18.6299 28.2352 18.6299C21.1402 18.6299 14.9652 23.1899 12.9502 29.3699C12.9502 29.4199 12.9552 29.4649 12.9602 29.5149C14.9452 23.3399 21.0302 18.7699 28.2352 18.7699Z" fill="#008DCF"/>
<path d="M28.235 18.7695C21.03 18.7695 14.945 23.3395 12.96 29.5145C12.96 29.5595 12.97 29.5995 12.975 29.6445C14.93 23.4845 21.02 18.9095 28.225 18.9095C35.43 18.9095 41.395 23.3895 43.42 29.4495C43.425 29.3945 43.43 29.3395 43.43 29.2845C41.365 23.2295 35.34 18.7745 28.23 18.7745L28.235 18.7695Z" fill="#008ED0"/>
<path d="M28.2355 19.0443C35.3705 19.0443 41.4105 23.5293 43.4105 29.5743C43.4105 29.5293 43.4205 29.4843 43.4255 29.4443C41.4005 23.3843 35.3605 18.9043 28.2305 18.9043C21.1005 18.9043 14.9355 23.4843 12.9805 29.6393C12.9855 29.6893 12.9905 29.7343 13.0005 29.7793C14.9255 23.6293 21.0205 19.0393 28.2405 19.0393L28.2355 19.0443Z" fill="#0090D0"/>
<path d="M28.2351 19.0449C21.0151 19.0449 14.9201 23.6349 12.9951 29.7849C13.0001 29.8249 13.0051 29.8699 13.0101 29.9099C14.9101 23.7749 21.0051 19.1749 28.2301 19.1749C35.4551 19.1749 41.4301 23.6849 43.3901 29.7249C43.3951 29.6749 43.4051 29.6249 43.4101 29.5749C41.4101 23.5299 35.3701 19.0449 28.2351 19.0449Z" fill="#0092D1"/>
<path d="M28.2198 19.3049C35.3848 19.3049 41.4398 23.8249 43.3698 29.8599C43.3748 29.8149 43.3798 29.7649 43.3898 29.7199C41.4248 23.6749 35.3798 19.1699 28.2298 19.1699C21.0798 19.1699 14.9098 23.7749 13.0098 29.9049C13.0148 29.9499 13.0198 29.9949 13.0298 30.0399C14.8948 23.9149 20.9898 19.2999 28.2248 19.2999L28.2198 19.3049Z" fill="#0093D2"/>
<path d="M28.2194 19.3047C20.9844 19.3047 14.8894 23.9197 13.0244 30.0447C13.0294 30.0847 13.0344 30.1297 13.0394 30.1697C14.8794 24.0597 20.9744 19.4397 28.2194 19.4397C35.4644 19.4397 41.4494 23.9797 43.3494 30.0047C43.3544 29.9597 43.3594 29.9097 43.3694 29.8647C41.4394 23.8297 35.3844 19.3097 28.2194 19.3097V19.3047Z" fill="#0095D3"/>
<path d="M28.2299 19.5745C35.4099 19.5745 41.4649 24.1195 43.3399 30.1295C43.3449 30.0895 43.3499 30.0445 43.3549 30.0045C41.4549 23.9795 35.3999 19.4395 28.2249 19.4395C21.0499 19.4395 14.8849 24.0645 13.0449 30.1695C13.0499 30.2145 13.0599 30.2595 13.0649 30.3045C14.8749 24.2095 20.9799 19.5745 28.2299 19.5745Z" fill="#0097D4"/>
<path d="M28.2304 19.5752C20.9804 19.5752 14.8754 24.2152 13.0654 30.3052C13.0704 30.3402 13.0804 30.3802 13.0854 30.4152C14.8704 24.3452 20.9704 19.7152 28.2154 19.7152C35.4604 19.7152 41.4804 24.2852 43.3154 30.2952C43.3254 30.2402 43.3304 30.1852 43.3404 30.1302C41.4654 24.1202 35.4104 19.5752 28.2304 19.5752Z" fill="#0098D5"/>
<path d="M28.215 19.8498C35.42 19.8498 41.485 24.4198 43.295 30.4048C43.3 30.3698 43.31 30.3298 43.315 30.2948C41.485 24.2848 35.415 19.7148 28.215 19.7148C21.015 19.7148 14.865 24.3448 13.085 30.4148C13.09 30.4498 13.1 30.4898 13.105 30.5248C14.865 24.4798 20.965 19.8448 28.22 19.8448L28.215 19.8498Z" fill="#009AD5"/>
<path d="M28.2156 19.8496C20.9606 19.8496 14.8656 24.4796 13.1006 30.5296C13.1056 30.5696 13.1156 30.6146 13.1206 30.6546C14.8506 24.6296 20.9556 19.9896 28.2106 19.9896C35.4656 19.9896 41.4856 24.5696 43.2656 30.5346C43.2706 30.4946 43.2806 30.4496 43.2856 30.4096C41.4756 24.4246 35.4106 19.8546 28.2056 19.8546L28.2156 19.8496Z" fill="#009CD6"/>
<path d="M28.2099 20.1204C35.4249 20.1204 41.4999 24.7104 43.2499 30.6654C43.2599 30.6204 43.2649 30.5754 43.2749 30.5304C41.4949 24.5654 35.4249 19.9854 28.2199 19.9854C21.0149 19.9854 14.8599 24.6254 13.1299 30.6504C13.1349 30.6904 13.1449 30.7254 13.1499 30.7654C14.8549 24.7604 20.9549 20.1154 28.2149 20.1154L28.2099 20.1204Z" fill="#009ED7"/>
<path d="M28.2095 20.1201C20.9495 20.1201 14.8495 24.7651 13.1445 30.7701C13.1545 30.8151 13.1595 30.8551 13.1695 30.9001C14.8395 24.9101 20.9395 20.2501 28.2095 20.2501C35.4795 20.2501 41.5095 24.8501 43.2295 30.7851C43.2345 30.7451 43.2445 30.7051 43.2495 30.6651C41.4995 24.7101 35.4245 20.1201 28.2095 20.1201Z" fill="#00A0D8"/>
<path d="M28.2049 20.385C35.4449 20.385 41.5199 25 43.2049 30.915C43.2149 30.87 43.2199 30.825 43.2299 30.785C41.5149 24.85 35.4399 20.25 28.2099 20.25C20.9799 20.25 14.8399 24.91 13.1699 30.9C13.1799 30.94 13.1849 30.98 13.1899 31.015C14.8349 25.05 20.9249 20.385 28.2049 20.385Z" fill="#00A1D9"/>
<path d="M28.2054 20.3848C20.9254 20.3848 14.8354 25.0498 13.1904 31.0148C13.2004 31.0548 13.2104 31.0898 13.2154 31.1298C14.8304 25.1898 20.9204 20.5248 28.2004 20.5248C35.4804 20.5248 41.5254 25.1398 43.1754 31.0398C43.1854 30.9998 43.1904 30.9548 43.2004 30.9148C41.5154 24.9948 35.4404 20.3848 28.2004 20.3848H28.2054Z" fill="#00A3DA"/>
<path d="M28.2047 20.6593C35.4547 20.6593 41.5297 25.2843 43.1547 31.1593C43.1647 31.1193 43.1747 31.0843 43.1797 31.0443C41.5247 25.1443 35.4497 20.5293 28.2047 20.5293C20.9597 20.5293 14.8347 25.1943 13.2197 31.1343C13.2297 31.1693 13.2347 31.2043 13.2447 31.2393C14.8397 25.3293 20.9297 20.6643 28.2047 20.6643V20.6593Z" fill="#00A5DB"/>
<path d="M28.2051 20.6593C20.9301 20.6593 14.8401 25.3243 13.2451 31.2343C13.2551 31.2693 13.2601 31.3043 13.2701 31.3343C14.8401 25.4593 20.9351 20.7993 28.2101 20.7993C35.4851 20.7993 41.5351 25.4243 43.1301 31.2743C43.1401 31.2343 43.1501 31.1943 43.1551 31.1543C41.5301 25.2793 35.4551 20.6543 28.2051 20.6543V20.6593Z" fill="#00A7DC"/>
<path d="M28.1995 20.9358C35.4545 20.9358 41.5345 25.5758 43.0995 31.4058C43.1095 31.3608 43.1195 31.3208 43.1295 31.2758C41.5295 25.4258 35.4595 20.8008 28.2095 20.8008C20.9595 20.8008 14.8445 25.4608 13.2695 31.3358C13.2795 31.3758 13.2845 31.4108 13.2945 31.4508C14.8345 25.5958 20.9245 20.9358 28.1995 20.9358Z" fill="#00A9DD"/>
<path d="M28.1999 20.9355C20.9199 20.9355 14.8349 25.5955 13.2949 31.4505C13.3049 31.4855 13.3099 31.5205 13.3199 31.5555C14.8399 25.7355 20.9199 21.0705 28.1999 21.0705C35.4799 21.0705 41.5349 25.7055 43.0749 31.5105C43.0849 31.4755 43.0899 31.4405 43.0999 31.4105C41.5349 25.5805 35.4599 20.9405 28.1999 20.9405V20.9355Z" fill="#00ABDE"/>
<path d="M28.2003 21.2053C35.4603 21.2053 41.5353 25.8503 43.0503 31.6253C43.0603 31.5853 43.0653 31.5503 43.0753 31.5103C41.5353 25.7103 35.4603 21.0703 28.2003 21.0703C20.9403 21.0703 14.8353 25.7353 13.3203 31.5553C13.3303 31.5953 13.3353 31.6303 13.3453 31.6703C14.8353 25.8753 20.9153 21.2053 28.2003 21.2053Z" fill="#00ADDE"/>
<path d="M28.1997 21.2052C20.9147 21.2052 14.8347 25.8702 13.3447 31.6702C13.3547 31.7052 13.3597 31.7352 13.3697 31.7702C14.8347 26.0052 20.9147 21.3402 28.1947 21.3402C35.4747 21.3402 41.5447 25.9902 43.0197 31.7452C43.0297 31.7052 43.0397 31.6652 43.0497 31.6202C41.5347 25.8452 35.4647 21.2002 28.1997 21.2002V21.2052Z" fill="#00AFDF"/>
<path d="M28.1851 21.47C35.4601 21.47 41.5351 26.12 42.9901 31.845C43.0001 31.81 43.0101 31.775 43.0201 31.74C41.5451 25.985 35.4651 21.335 28.1951 21.335C20.9251 21.335 14.8351 25.995 13.3701 31.765C13.3801 31.8 13.3901 31.835 13.4001 31.865C14.8401 26.135 20.9051 21.47 28.1901 21.47H28.1851Z" fill="#00B1E0"/>
<path d="M28.1845 21.4698C20.8995 21.4698 14.8345 26.1348 13.3945 31.8648C13.4045 31.8948 13.4145 31.9248 13.4195 31.9548C14.8395 26.2598 20.9095 21.5998 28.1895 21.5998C35.4695 21.5998 41.5295 26.2448 42.9595 31.9298C42.9695 31.8998 42.9795 31.8698 42.9845 31.8398C41.5345 26.1148 35.4595 21.4648 28.1795 21.4648L28.1845 21.4698Z" fill="#00B3E1"/>
<path d="M28.1899 21.7404C35.4599 21.7404 41.5249 26.3804 42.9299 32.0404C42.9399 32.0054 42.9499 31.9704 42.9599 31.9404C41.5299 26.2554 35.4599 21.6104 28.1899 21.6104C20.9199 21.6104 14.8399 26.2654 13.4199 31.9654C13.4299 32.0004 13.4399 32.0354 13.4499 32.0704C14.8449 26.4004 20.9099 21.7504 28.1899 21.7504V21.7404Z" fill="#0DB5E2"/>
<path d="M28.1902 21.7404C20.9102 21.7404 14.8402 26.3954 13.4502 32.0604C13.4602 32.0904 13.4702 32.1253 13.4802 32.1553C14.8502 26.5253 20.9202 21.8754 28.1952 21.8754C35.4702 21.8754 41.5252 26.5204 42.9052 32.1454C42.9152 32.1104 42.9252 32.0704 42.9352 32.0354C41.5302 26.3804 35.4602 21.7354 28.1952 21.7354L28.1902 21.7404Z" fill="#19B7E3"/>
<path d="M28.1855 22.0099C35.4605 22.0099 41.5255 26.6649 42.8705 32.2649C42.8805 32.2249 42.8905 32.1849 42.9055 32.1499C41.5255 26.5249 35.4655 21.8799 28.1955 21.8799C20.9255 21.8799 14.8555 26.5299 13.4805 32.1599C13.4905 32.1899 13.5005 32.2249 13.5055 32.2549C14.8555 26.6599 20.9155 22.0099 28.1855 22.0099Z" fill="#21B9E4"/>
<path d="M28.1849 22.0098C20.9149 22.0098 14.8549 26.6598 13.5049 32.2548C13.5099 32.2798 13.5199 32.3048 13.5249 32.3298C14.8649 26.7648 20.9149 22.1398 28.1849 22.1398C35.4549 22.1398 41.5099 26.7648 42.8499 32.3298C42.8549 32.3098 42.8599 32.2898 42.8699 32.2648C41.5299 26.6648 35.4649 22.0098 28.1849 22.0098Z" fill="#28BBE5"/>
<path d="M28.1844 22.2706C35.4444 22.2706 41.4944 26.8706 42.8294 32.3956C42.8344 32.3756 42.8394 32.3556 42.8494 32.3306C41.5094 26.7656 35.4544 22.1406 28.1844 22.1406C20.9144 22.1406 14.8644 26.7656 13.5244 32.3306C13.5294 32.3506 13.5344 32.3706 13.5444 32.3906C14.8794 26.8656 20.9244 22.2656 28.1844 22.2656V22.2706Z" fill="#37BDE6"/>
<path d="M28.1849 22.2695C20.9249 22.2695 14.8799 26.8695 13.5449 32.3945C13.5499 32.4145 13.5549 32.4345 13.5649 32.4595C14.8999 26.9645 20.9399 22.3845 28.1899 22.3845C35.4399 22.3845 41.4899 26.9695 42.8149 32.4695C42.8199 32.4445 42.8299 32.4245 42.8349 32.3995C41.4949 26.8695 35.4499 22.2745 28.1899 22.2745L28.1849 22.2695Z" fill="#43BFE6"/>
<path d="M28.1846 22.5148C35.4246 22.5148 41.4596 27.0648 42.7896 32.5298C42.7946 32.5098 42.8046 32.4898 42.8096 32.4698C41.4846 26.9648 35.4396 22.3848 28.1846 22.3848C20.9296 22.3848 14.8946 26.9648 13.5596 32.4598C13.5646 32.4848 13.5746 32.5048 13.5846 32.5298C14.9146 27.0698 20.9446 22.5198 28.1846 22.5198V22.5148Z" fill="#4DC0E7"/>
<path d="M28.185 22.5148C20.945 22.5148 14.915 27.0648 13.585 32.5248C13.59 32.5448 13.6 32.5598 13.605 32.5798C14.935 27.1598 20.95 22.6298 28.185 22.6298C35.42 22.6298 41.445 27.1548 42.775 32.5798C42.78 32.5598 42.79 32.5448 42.795 32.5248C41.465 27.0598 35.43 22.5098 28.19 22.5098L28.185 22.5148Z" fill="#56C2E8"/>
<path d="M28.1905 22.7499C35.4105 22.7499 41.4255 27.2449 42.7555 32.6349C42.7605 32.6149 42.7705 32.5999 42.7755 32.5799C41.4455 27.1549 35.4205 22.6299 28.1855 22.6299C20.9505 22.6299 14.9355 27.1599 13.6055 32.5799C13.6105 32.5999 13.6205 32.6199 13.6255 32.6399C14.9555 27.2499 20.9755 22.7549 28.1955 22.7549L28.1905 22.7499Z" fill="#5EC4E8"/>
<path d="M28.1901 22.75C20.9751 22.75 14.9551 27.25 13.6201 32.635C13.6251 32.66 13.6351 32.68 13.6451 32.705C14.9701 27.35 20.9751 22.88 28.1851 22.88C35.3951 22.88 41.4051 27.35 42.7301 32.705C42.7401 32.68 42.7451 32.66 42.7551 32.635C41.4251 27.245 35.4101 22.75 28.1901 22.75Z" fill="#65C6E9"/>
<path d="M28.1845 22.9999C35.3845 22.9999 41.3845 27.4399 42.7095 32.7599C42.7145 32.7399 42.7245 32.7199 42.7295 32.7049C41.4045 27.3499 35.3945 22.8799 28.1845 22.8799C20.9745 22.8799 14.9745 27.3499 13.6445 32.7049C13.6495 32.7249 13.6595 32.7399 13.6645 32.7599C14.9895 27.4449 20.9845 22.9999 28.1845 22.9999Z" fill="#6DC7EA"/>
<path d="M28.185 23C20.985 23 14.99 27.445 13.665 32.76C13.67 32.78 13.68 32.8 13.685 32.82C15.015 27.54 21.01 23.13 28.19 23.13C35.37 23.13 41.36 27.54 42.69 32.82C42.695 32.8 42.705 32.78 42.71 32.76C41.385 27.445 35.385 23 28.185 23Z" fill="#74C9EA"/>
<path d="M28.1854 23.2549C35.3654 23.2549 41.3454 27.6449 42.6704 32.8899C42.6804 32.8649 42.6854 32.8449 42.6954 32.8199C41.3654 27.5399 35.3754 23.1299 28.1954 23.1299C21.0154 23.1299 15.0204 27.5399 13.6904 32.8199C13.7004 32.8399 13.7054 32.8649 13.7154 32.8849C15.0404 27.6399 21.0154 23.2499 28.1904 23.2499L28.1854 23.2549Z" fill="#7ACBEB"/>
<path d="M28.185 23.2549C21.01 23.2549 15.03 27.6449 13.71 32.8899C13.715 32.9099 13.725 32.9249 13.73 32.9449C15.055 27.7399 21.025 23.3799 28.19 23.3799C35.355 23.3799 41.33 27.7399 42.655 32.9449C42.66 32.9249 42.665 32.9099 42.675 32.8899C41.35 27.6449 35.37 23.2549 28.19 23.2549H28.185Z" fill="#81CDEC"/>
<path d="M28.1906 23.5049C35.3406 23.5049 41.3056 27.8299 42.6306 32.9999C42.6356 32.9799 42.6456 32.9599 42.6506 32.9449C41.3256 27.7349 35.3506 23.3799 28.1856 23.3799C21.0206 23.3799 15.0506 27.7399 13.7256 32.9449C13.7306 32.9649 13.7406 32.9849 13.7456 32.9999C15.0706 27.8299 21.0406 23.5049 28.1906 23.5049Z" fill="#87CFEC"/>
<path d="M28.1901 23.505C21.0401 23.505 15.0701 27.83 13.7451 33C13.7501 33.02 13.7601 33.04 13.7651 33.055C15.0901 27.925 21.0451 23.625 28.1851 23.625C35.3251 23.625 41.2851 27.93 42.6051 33.065C42.6151 33.04 42.6201 33.02 42.6301 32.995C41.3051 27.825 35.3451 23.5 28.1901 23.5V23.505Z" fill="#8ED1ED"/>
<path d="M28.1795 23.755C35.3195 23.755 41.2695 28.035 42.5845 33.135C42.5945 33.115 42.5995 33.09 42.6095 33.065C41.2895 27.93 35.3295 23.625 28.1895 23.625C21.0495 23.625 15.0945 27.925 13.7695 33.055C13.7795 33.075 13.7845 33.1 13.7895 33.12C15.1095 28.025 21.0445 23.755 28.1795 23.755Z" fill="#94D3EE"/>
<path d="M28.18 23.7549C21.045 23.7549 15.11 28.0299 13.79 33.1199C13.795 33.1399 13.805 33.1599 13.81 33.1799C15.13 28.1199 21.07 23.8699 28.185 23.8699C35.3 23.8699 41.25 28.1249 42.565 33.1899C42.57 33.1699 42.575 33.1549 42.585 33.1349C41.27 28.0349 35.32 23.7549 28.18 23.7549Z" fill="#9AD5EF"/>
<path d="M28.1846 24.0001C35.2896 24.0001 41.2246 28.2201 42.5446 33.2451C42.5496 33.2251 42.5596 33.2101 42.5646 33.1901C41.2496 28.1251 35.3046 23.8701 28.1846 23.8701C21.0646 23.8701 15.1296 28.1201 13.8096 33.1801C13.8146 33.2001 13.8246 33.2151 13.8296 33.2351C15.1546 28.2151 21.0846 24.0001 28.1846 24.0001Z" fill="#A0D7F0"/>
<path d="M28.1851 24C21.0851 24 15.1551 28.215 13.8301 33.235C13.8351 33.255 13.8451 33.275 13.8551 33.295C15.1751 28.315 21.0851 24.13 28.1801 24.13C35.2751 24.13 41.2001 28.32 42.5201 33.305C42.5301 33.285 42.5351 33.265 42.5451 33.245C41.2251 28.22 35.2901 24 28.1851 24Z" fill="#A6D9F0"/>
<path d="M28.1855 24.2449C35.2655 24.2449 41.1755 28.4049 42.5005 33.3549C42.5055 33.3399 42.5155 33.3199 42.5205 33.3049C41.2005 28.3149 35.2805 24.1299 28.1805 24.1299C21.0805 24.1299 15.1755 28.3149 13.8555 33.2949C13.8605 33.3149 13.8705 33.3299 13.8755 33.3499C15.2055 28.4099 21.1105 24.2499 28.1855 24.2499V24.2449Z" fill="#ACDCF1"/>
<path d="M28.185 24.2451C21.11 24.2451 15.2 28.4051 13.875 33.3451C13.88 33.3601 13.89 33.3801 13.895 33.3951C15.225 28.4901 21.12 24.3651 28.185 24.3651C35.25 24.3651 41.155 28.4951 42.48 33.4051C42.485 33.3901 42.495 33.3701 42.5 33.3551C41.175 28.4051 35.265 24.2451 28.185 24.2451Z" fill="#B2DEF2"/>
<path d="M28.1845 24.4952C35.2395 24.4952 41.1245 28.5902 42.4595 33.4602C42.4645 33.4402 42.4745 33.4252 42.4795 33.4052C41.1545 28.4952 35.2545 24.3652 28.1845 24.3652C21.1145 24.3652 15.2245 28.4902 13.8945 33.3952C13.9045 33.4152 13.9095 33.4352 13.9195 33.4552C15.2495 28.5902 21.1345 24.4902 28.1845 24.4902V24.4952Z" fill="#B8E0F3"/>
<path d="M28.1849 24.4951C21.1299 24.4951 15.2449 28.5901 13.9199 33.4601C13.9249 33.4801 13.9349 33.4951 13.9399 33.5151C15.2749 28.6901 21.1499 24.6201 28.1849 24.6201C35.2199 24.6201 41.1049 28.6901 42.4349 33.5251C42.4449 33.5051 42.4499 33.4851 42.4599 33.4651C41.1299 28.5951 35.2399 24.5001 28.1849 24.5001V24.4951Z" fill="#BDE2F4"/>
<path d="M28.1854 24.7454C35.2104 24.7454 41.0804 28.7804 42.4154 33.5704C42.4204 33.5504 42.4304 33.5354 42.4354 33.5154C41.1054 28.6804 35.2304 24.6104 28.1854 24.6104C21.1404 24.6104 15.2704 28.6754 13.9404 33.5054C13.9454 33.5204 13.9554 33.5404 13.9604 33.5554C15.3004 28.7654 21.1654 24.7404 28.1854 24.7404V24.7454Z" fill="#C3E5F5"/>
<path d="M28.185 24.7451C21.165 24.7451 15.295 28.7751 13.96 33.5601C13.965 33.5751 13.975 33.5951 13.98 33.6101C15.32 28.8651 21.175 24.8651 28.185 24.8651C35.195 24.8651 41.055 28.8701 42.39 33.6201C42.395 33.6051 42.405 33.5851 42.41 33.5701C41.08 28.7751 35.21 24.7451 28.18 24.7451H28.185Z" fill="#C9E7F5"/>
<path d="M28.1905 24.9901C35.1855 24.9901 41.0305 28.9601 42.3705 33.6751C42.3755 33.6601 42.3855 33.6401 42.3905 33.6251C41.0555 28.8701 35.2005 24.8701 28.1855 24.8701C21.1705 24.8701 15.3205 28.8701 13.9805 33.6151C13.9905 33.6351 13.9955 33.6551 14.0055 33.6801C15.3455 28.9701 21.1955 24.9951 28.1905 24.9951V24.9901Z" fill="#CEE9F6"/>
<path d="M28.1899 24.9902C21.1949 24.9902 15.3449 28.9652 14.0049 33.6752C14.0099 33.6902 14.0199 33.7102 14.0249 33.7252C15.3699 29.0502 21.2049 25.1102 28.1849 25.1102C35.1649 25.1102 41.0099 29.0552 42.3449 33.7352C42.3549 33.7152 42.3599 33.6952 42.3699 33.6752C41.0299 28.9602 35.1849 24.9902 28.1899 24.9902Z" fill="#D4ECF7"/>
<path d="M28.1844 25.2352C35.1594 25.2352 40.9844 29.1502 42.3244 33.7902C42.3294 33.7752 42.3394 33.7552 42.3444 33.7402C41.0044 29.0602 35.1644 25.1152 28.1844 25.1152C21.2044 25.1152 15.3694 29.0552 14.0244 33.7302C14.0294 33.7452 14.0394 33.7652 14.0444 33.7802C15.3894 29.1502 21.2144 25.2352 28.1844 25.2352Z" fill="#DAEEF8"/>
<path d="M28.1849 25.2354C21.2149 25.2354 15.3899 29.1503 14.0449 33.7803C14.0549 33.8004 14.0599 33.8204 14.0699 33.8454C15.4149 29.2504 21.2399 25.3654 28.1899 25.3654C35.1399 25.3654 40.9599 29.2454 42.3049 33.8454C42.3099 33.8304 42.3199 33.8104 42.3249 33.7904C40.9849 29.1504 35.1549 25.2354 28.1849 25.2354Z" fill="#DFF1F9"/>
<path d="M28.1802 25.4802C35.1302 25.4802 40.9402 29.3402 42.2802 33.9102C42.2902 33.8902 42.3002 33.8652 42.3102 33.8452C40.9652 29.2452 35.1452 25.3652 28.1952 25.3652C21.2452 25.3652 15.4202 29.2502 14.0752 33.8452C14.0802 33.8602 14.0902 33.8802 14.0952 33.8952C15.4452 29.3352 21.2402 25.4802 28.1802 25.4802Z" fill="#E5F3FA"/>
<path d="M28.1797 25.4805C21.2397 25.4805 15.4397 29.3355 14.0947 33.8955C14.0997 33.9105 14.1097 33.9255 14.1147 33.9455C15.4697 29.4305 21.2547 25.6105 28.1797 25.6105C35.1047 25.6105 40.9097 29.4355 42.2547 33.9605C42.2597 33.9455 42.2697 33.9255 42.2797 33.9105C40.9397 29.3455 35.1297 25.4805 28.1797 25.4805Z" fill="#EBF6FB"/>
<path d="M28.1851 25.7305C35.1001 25.7305 40.8801 29.5255 42.2351 34.0055C42.2401 33.9905 42.2501 33.9705 42.2601 33.9555C40.9151 29.4305 35.1151 25.6055 28.1851 25.6055C21.2551 25.6055 15.4751 29.4255 14.1201 33.9405C14.1301 33.9605 14.1401 33.9805 14.1451 34.0005C15.5001 29.5255 21.2801 25.7305 28.1901 25.7305H28.1851Z" fill="#F1F8FD"/>
<path d="M28.1846 25.7305C21.2746 25.7305 15.4946 29.5205 14.1396 34.0005C14.1446 34.0155 14.1546 34.0355 14.1646 34.0505C15.5246 29.6105 21.2946 25.8555 28.1846 25.8555C35.0746 25.8555 40.8546 29.6155 42.2096 34.0555C42.2146 34.0405 42.2246 34.0255 42.2296 34.0055C40.8796 29.5205 35.0946 25.7305 28.1796 25.7305H28.1846Z" fill="#F7FBFE"/>
<path d="M44.2604 27.9403C44.2604 19.1053 37.0754 11.9453 28.1904 11.9453C19.3054 11.9453 12.1104 19.1003 12.1104 27.9403C12.1104 28.8153 12.1854 29.6753 12.3204 30.5103C12.3254 30.5553 12.3354 30.5953 12.3454 30.6353C12.3554 30.6803 12.3604 30.7303 12.3704 30.7753C12.3804 30.8153 12.3854 30.8603 12.3954 30.9003C12.4054 30.9453 12.4104 30.9953 12.4204 31.0403C12.4304 31.0803 12.4354 31.1253 12.4404 31.1653C12.4504 31.2053 12.4604 31.2453 12.4704 31.2903C12.4804 31.3253 12.4854 31.3603 12.4954 31.4003C12.5054 31.4353 12.5104 31.4753 12.5204 31.5103C12.5304 31.5503 12.5404 31.5903 12.5504 31.6353C12.5604 31.6703 12.5654 31.7103 12.5754 31.7453C12.5854 31.7903 12.5954 31.8353 12.6054 31.8753C12.6154 31.9103 12.6254 31.9503 12.6354 31.9853C12.6454 32.0253 12.6604 32.0603 12.6704 32.1003C12.6804 32.1353 12.6904 32.1653 12.7004 32.2003C12.7104 32.2353 12.7204 32.2653 12.7304 32.3003C12.7404 32.3403 12.7504 32.3753 12.7654 32.4153C12.7754 32.4503 12.7854 32.4803 12.7954 32.5153C12.8054 32.5553 12.8154 32.5903 12.8304 32.6303C12.8404 32.6603 12.8504 32.6953 12.8604 32.7253C12.8704 32.7603 12.8854 32.7903 12.8954 32.8253C12.9054 32.8553 12.9154 32.8853 12.9254 32.9153C12.9354 32.9453 12.9454 32.9753 12.9554 33.0053C12.9654 33.0403 12.9804 33.0753 12.9904 33.1153C13.0004 33.1453 13.0104 33.1803 13.0204 33.2103C13.0354 33.2453 13.0454 33.2803 13.0554 33.3203C13.0654 33.3503 13.0754 33.3853 13.0854 33.4153C13.0954 33.4503 13.1104 33.4803 13.1254 33.5153C13.1354 33.5453 13.1454 33.5703 13.1604 33.6003C13.1704 33.6303 13.1854 33.6653 13.2004 33.6953C13.2104 33.7253 13.2204 33.7503 13.2354 33.7803C13.2454 33.8053 13.2554 33.8353 13.2704 33.8603C13.2804 33.8803 13.2854 33.9003 13.2954 33.9203C13.3004 33.9353 13.3054 33.9503 13.3154 33.9653C13.3204 33.9803 13.3254 33.9953 13.3354 34.0153C13.3454 34.0353 13.3504 34.0553 13.3604 34.0753C13.3654 34.0903 13.3704 34.1053 13.3804 34.1203C13.3854 34.1353 13.3904 34.1503 13.4004 34.1703C13.4104 34.1903 13.4154 34.2053 13.4254 34.2253C13.4304 34.2403 13.4404 34.2553 13.4454 34.2653C13.4504 34.2803 13.4604 34.2953 13.4654 34.3103C13.4754 34.3303 13.4804 34.3453 13.4904 34.3653C13.4954 34.3803 13.5054 34.3953 13.5104 34.4053C13.5154 34.4203 13.5254 34.4353 13.5304 34.4503C13.5354 34.4653 13.5454 34.4803 13.5504 34.4953C13.5604 34.5153 13.5654 34.5303 13.5754 34.5503C13.5804 34.5653 13.5904 34.5803 13.5954 34.5953C13.6004 34.6103 13.6104 34.6253 13.6154 34.6403C13.6254 34.6553 13.6304 34.6753 13.6404 34.6953C13.6454 34.7103 13.6554 34.7253 13.6604 34.7403C13.6654 34.7553 13.6754 34.7703 13.6804 34.7853C13.6904 34.8003 13.6954 34.8203 13.7054 34.8403C13.7104 34.8553 13.7204 34.8703 13.7254 34.8853C13.7304 34.9003 13.7404 34.9103 13.7454 34.9253C13.7504 34.9403 13.7604 34.9503 13.7654 34.9653C13.7754 34.9803 13.7804 34.9953 13.7904 35.0153C13.7954 35.0303 13.8054 35.0403 13.8104 35.0553C13.8154 35.0703 13.8254 35.0803 13.8304 35.0953C13.8404 35.1103 13.8454 35.1303 13.8554 35.1453C13.8604 35.1603 13.8704 35.1703 13.8754 35.1853C13.8804 35.2003 13.8904 35.2103 13.8954 35.2253C13.9054 35.2403 13.9104 35.2603 13.9204 35.2753C13.9254 35.2903 13.9354 35.3003 13.9404 35.3153C14.4454 36.2853 15.0454 37.2003 15.7304 38.0403C15.7304 38.0403 15.7304 38.0403 15.7354 38.0453C15.7354 38.0453 15.7404 38.0553 15.7454 38.0603C15.7454 38.0603 15.7454 38.0603 15.7504 38.0653C15.7504 38.0653 15.7554 38.0753 15.7604 38.0803C15.7604 38.0803 15.7654 38.0853 15.7704 38.0903C15.7704 38.0903 15.7754 38.0953 15.7804 38.1003C15.7804 38.1003 15.7804 38.1003 15.7854 38.1053C15.7854 38.1053 15.7854 38.1103 15.7904 38.1153C15.7904 38.1153 15.7904 38.1203 15.7954 38.1253C15.7954 38.1253 15.7954 38.1303 15.8004 38.1353C15.8004 38.1353 15.8004 38.1403 15.8104 38.1453C15.8104 38.1453 15.8104 38.1453 15.8154 38.1503C15.8154 38.1503 15.8154 38.1503 15.8204 38.1553C15.8204 38.1553 15.8254 38.1603 15.8304 38.1653C15.8304 38.1653 15.8304 38.1653 15.8354 38.1703C15.8354 38.1703 15.8354 38.1753 15.8404 38.1803C15.8404 38.1803 15.8404 38.1803 15.8454 38.1853C15.8454 38.1853 15.8454 38.1853 15.8454 38.1903C15.8454 38.1903 15.8454 38.1953 15.8504 38.2003C15.8504 38.2003 15.8504 38.2003 15.8504 38.2053C15.8504 38.2053 15.8554 38.2103 15.8604 38.2153C15.8604 38.2153 15.8604 38.2153 15.8654 38.2203C15.8654 38.2203 15.8704 38.2253 15.8754 38.2303C15.8804 38.2403 15.8904 38.2453 15.8954 38.2553C15.9004 38.2603 15.9054 38.2703 15.9104 38.2753C15.9204 38.2853 15.9254 38.2953 15.9354 38.3053C15.9404 38.3153 15.9504 38.3203 15.9554 38.3303C15.9604 38.3353 15.9654 38.3403 15.9704 38.3503C15.9754 38.3603 15.9854 38.3653 15.9904 38.3753C15.9954 38.3803 16.0054 38.3903 16.0104 38.3953C16.0154 38.4003 16.0204 38.4103 16.0254 38.4153C16.0304 38.4203 16.0404 38.4303 16.0454 38.4353C16.0504 38.4453 16.0604 38.4503 16.0654 38.4603C16.0704 38.4653 16.0754 38.4753 16.0804 38.4803C16.0854 38.4903 16.0954 38.4953 16.1004 38.5053C16.1054 38.5103 16.1104 38.5203 16.1204 38.5253C16.1254 38.5303 16.1304 38.5403 16.1404 38.5453C16.1454 38.5503 16.1554 38.5603 16.1604 38.5653C16.1654 38.5753 16.1754 38.5803 16.1804 38.5903C16.1854 38.5953 16.1904 38.6053 16.1954 38.6103C16.2004 38.6153 16.2104 38.6253 16.2154 38.6353C16.2204 38.6403 16.2304 38.6503 16.2354 38.6603C16.2404 38.6653 16.2454 38.6753 16.2554 38.6803C16.2604 38.6853 16.2704 38.6953 16.2754 38.7053C16.2804 38.7153 16.2904 38.7203 16.2954 38.7303C16.3004 38.7353 16.3054 38.7403 16.3104 38.7453C16.3204 38.7553 16.3254 38.7603 16.3354 38.7703C16.3404 38.7803 16.3504 38.7853 16.3554 38.7903C16.3604 38.8003 16.3704 38.8053 16.3754 38.8103C16.3804 38.8203 16.3904 38.8253 16.3954 38.8303C16.4004 38.8353 16.4104 38.8453 16.4154 38.8503C16.4204 38.8553 16.4304 38.8653 16.4354 38.8703C16.4404 38.8753 16.4504 38.8853 16.4554 38.8903C16.4604 38.9003 16.4704 38.9053 16.4754 38.9153C19.4154 42.0203 23.5754 43.9603 28.1904 43.9603C32.8054 43.9603 36.9754 42.0103 39.9104 38.9003C39.9153 38.8953 39.9254 38.8853 39.9304 38.8803C39.9354 38.8703 39.9454 38.8653 39.9504 38.8553C39.9554 38.8503 39.9654 38.8403 39.9704 38.8353C39.9754 38.8253 39.9854 38.8203 39.9904 38.8153C39.9954 38.8053 40.0054 38.8003 40.0104 38.7953C40.0154 38.7853 40.0254 38.7803 40.0304 38.7753C40.0354 38.7703 40.0404 38.7653 40.0454 38.7553C40.0454 38.7553 40.0504 38.7503 40.0554 38.7453C40.0554 38.7453 40.0654 38.7353 40.0704 38.7303C40.0753 38.7203 40.0854 38.7153 40.0904 38.7053C40.0954 38.7003 40.1004 38.6953 40.1054 38.6853C40.1154 38.6753 40.1204 38.6653 40.1304 38.6603C40.1354 38.6553 40.1404 38.6453 40.1454 38.6403C40.1504 38.6353 40.1554 38.6253 40.1604 38.6203C40.1653 38.6153 40.1754 38.6053 40.1804 38.6003C40.1854 38.5903 40.1954 38.5853 40.2004 38.5753C40.2054 38.5703 40.2104 38.5603 40.2204 38.5553C40.2254 38.5503 40.2304 38.5403 40.2404 38.5353C40.2504 38.5253 40.2554 38.5153 40.2654 38.5103C40.2703 38.5053 40.2754 38.4953 40.2854 38.4903C40.2903 38.4853 40.2954 38.4753 40.3054 38.4703C40.3104 38.4653 40.3204 38.4553 40.3254 38.4503C40.3304 38.4403 40.3404 38.4353 40.3454 38.4253C40.3504 38.4203 40.3604 38.4103 40.3654 38.4053C40.3704 38.3953 40.3804 38.3903 40.3854 38.3803C40.3904 38.3753 40.3954 38.3703 40.4004 38.3603C40.4054 38.3553 40.4104 38.3453 40.4204 38.3403C40.4254 38.3303 40.4354 38.3253 40.4404 38.3153C40.4454 38.3103 40.4504 38.3003 40.4554 38.2953C40.4604 38.2903 40.4654 38.2803 40.4754 38.2753C40.4804 38.2653 40.4904 38.2603 40.4953 38.2503C40.4953 38.2503 40.5004 38.2453 40.5054 38.2403C40.5054 38.2403 40.5054 38.2403 40.5104 38.2353C40.5104 38.2353 40.5154 38.2303 40.5204 38.2253C40.5204 38.2253 40.5204 38.2253 40.5254 38.2203C40.5254 38.2203 40.5254 38.2203 40.5304 38.2153C40.5304 38.2153 40.5304 38.2153 40.5354 38.2103C40.5354 38.2103 40.5354 38.2053 40.5404 38.2003C40.5404 38.2003 40.5404 38.1953 40.5454 38.1903C40.5454 38.1903 40.5454 38.1903 40.5504 38.1853C40.5504 38.1853 40.5504 38.1803 40.5554 38.1753C40.5554 38.1753 40.5604 38.1703 40.5654 38.1653C40.5654 38.1653 40.5654 38.1603 40.5704 38.1553C40.5704 38.1553 40.5754 38.1453 40.5804 38.1453C40.5804 38.1453 40.5804 38.1403 40.5854 38.1353C40.5854 38.1353 40.5904 38.1303 40.5954 38.1253C40.5954 38.1253 40.5954 38.1253 40.6004 38.1203C40.6004 38.1203 40.6054 38.1153 40.6104 38.1103C40.6104 38.1103 40.6104 38.1053 40.6154 38.1003C40.6154 38.1003 40.6204 38.0903 40.6254 38.0903C40.6254 38.0903 40.6254 38.0903 40.6254 38.0853C40.6254 38.0853 40.6304 38.0753 40.6354 38.0753C40.6354 38.0753 40.6404 38.0703 40.6454 38.0653C40.6454 38.0653 40.6504 38.0603 40.6554 38.0553C40.6554 38.0553 40.6604 38.0503 40.6654 38.0453C40.6654 38.0453 40.6704 38.0403 40.6754 38.0353C40.6754 38.0353 40.6804 38.0303 40.6854 38.0253C40.6854 38.0253 40.6904 38.0203 40.6954 38.0153C40.6954 38.0153 40.7004 38.0103 40.7054 38.0053C40.7054 38.0053 40.7054 38.0053 40.7054 38.0003C41.3754 37.1753 41.9604 36.2803 42.4554 35.3303C42.4604 35.3153 42.4704 35.3053 42.4754 35.2903C42.4804 35.2753 42.4904 35.2653 42.4953 35.2503C42.5003 35.2353 42.5104 35.2253 42.5154 35.2103C42.5254 35.1903 42.5354 35.1703 42.5454 35.1503C42.5504 35.1353 42.5604 35.1253 42.5654 35.1103C42.5704 35.0953 42.5804 35.0853 42.5854 35.0703C42.5954 35.0553 42.6004 35.0403 42.6104 35.0203C42.6154 35.0053 42.6254 34.9953 42.6304 34.9803C42.6354 34.9653 42.6454 34.9553 42.6504 34.9403C42.6554 34.9253 42.6654 34.9153 42.6704 34.9003C42.6804 34.8853 42.6854 34.8653 42.6954 34.8453C42.7003 34.8303 42.7104 34.8153 42.7154 34.8003C42.7204 34.7853 42.7254 34.7703 42.7354 34.7603C42.7404 34.7453 42.7454 34.7303 42.7554 34.7203C42.7654 34.7003 42.7704 34.6853 42.7804 34.6653C42.7854 34.6503 42.7954 34.6353 42.8004 34.6203C42.8053 34.6053 42.8154 34.5903 42.8204 34.5803C42.8304 34.5603 42.8354 34.5453 42.8454 34.5253C42.8554 34.5053 42.8603 34.4903 42.8703 34.4703C42.8753 34.4553 42.8854 34.4403 42.8904 34.4253C42.8953 34.4103 42.9054 34.3953 42.9104 34.3853C42.9204 34.3653 42.9254 34.3503 42.9354 34.3303C42.9404 34.3153 42.9504 34.3003 42.9554 34.2853C42.9604 34.2703 42.9704 34.2553 42.9754 34.2403C42.9854 34.2203 42.9904 34.2053 43.0004 34.1853C43.0054 34.1703 43.0104 34.1553 43.0204 34.1403C43.0254 34.1253 43.0304 34.1103 43.0404 34.0953C43.0454 34.0803 43.0554 34.0603 43.0604 34.0453C43.0704 34.0253 43.0753 34.0053 43.0854 33.9853C43.0903 33.9703 43.0954 33.9553 43.1054 33.9353C43.1103 33.9203 43.1204 33.9053 43.1254 33.8853C43.1404 33.8503 43.1554 33.8153 43.1654 33.7803C43.1804 33.7503 43.1904 33.7153 43.2054 33.6853C43.2154 33.6553 43.2304 33.6203 43.2453 33.5903C43.2554 33.5603 43.2654 33.5353 43.2804 33.5053C43.2954 33.4703 43.3054 33.4403 43.3154 33.4053C43.3304 33.3653 43.3404 33.3253 43.3554 33.2853C43.3703 33.2503 43.3804 33.2153 43.3904 33.1753C43.4004 33.1453 43.4104 33.1103 43.4204 33.0803C43.4354 33.0403 43.4503 33.0003 43.4604 32.9603C43.4704 32.9253 43.4853 32.8903 43.4953 32.8553C43.5054 32.8203 43.5204 32.7903 43.5304 32.7553C43.5404 32.7203 43.5504 32.6853 43.5654 32.6453C43.5754 32.6053 43.5854 32.5703 43.6004 32.5303C43.6104 32.4953 43.6204 32.4553 43.6304 32.4203C43.6454 32.3753 43.6554 32.3353 43.6654 32.2903C43.6754 32.2503 43.6854 32.2153 43.7004 32.1753C43.7104 32.1403 43.7204 32.1103 43.7304 32.0753C43.7453 32.0253 43.7604 31.9753 43.7704 31.9253C43.7804 31.8903 43.7854 31.8503 43.7954 31.8103C43.8054 31.7703 43.8154 31.7303 43.8254 31.6853C43.8354 31.6453 43.8454 31.6053 43.8554 31.5603C43.8654 31.5153 43.8754 31.4703 43.8854 31.4253C43.8954 31.3903 43.9004 31.3503 43.9104 31.3153C43.9204 31.2703 43.9304 31.2253 43.9404 31.1753C43.9504 31.1353 43.9554 31.0903 43.9654 31.0453C43.9754 30.9903 43.9853 30.9403 43.9953 30.8853C44.0054 30.8353 44.0104 30.7903 44.0204 30.7403C44.0304 30.6953 44.0354 30.6453 44.0454 30.6003C44.0504 30.5603 44.0604 30.5203 44.0654 30.4803C44.0754 30.4253 44.0854 30.3653 44.0904 30.3103C44.0954 30.2653 44.1004 30.2203 44.1054 30.1803C44.2104 29.4453 44.2654 28.7003 44.2654 27.9353H44.2604V27.9403ZM43.4904 28.1503C43.4904 28.2003 43.4904 28.2453 43.4904 28.2953C43.4904 28.3653 43.4904 28.4353 43.4854 28.5003C43.4854 28.5553 43.4854 28.6053 43.4854 28.6603C43.4854 28.7153 43.4804 28.7653 43.4754 28.8203C43.4754 28.8703 43.4654 28.9203 43.4654 28.9703C43.4654 29.0253 43.4554 29.0803 43.4504 29.1353C43.4504 29.1803 43.4454 29.2303 43.4404 29.2753C43.4404 29.3303 43.4354 29.3853 43.4304 29.4403C43.4304 29.4853 43.4204 29.5303 43.4154 29.5703C43.4104 29.6203 43.4004 29.6703 43.3954 29.7203C43.3904 29.7653 43.3854 29.8153 43.3754 29.8603C43.3704 29.9053 43.3654 29.9553 43.3554 30.0003C43.3504 30.0403 43.3454 30.0853 43.3404 30.1253C43.3304 30.1803 43.3254 30.2353 43.3154 30.2903C43.3104 30.3253 43.3004 30.3653 43.2954 30.4003C43.2904 30.4403 43.2804 30.4853 43.2754 30.5253C43.2654 30.5703 43.2604 30.6153 43.2504 30.6603C43.2454 30.7003 43.2353 30.7403 43.2304 30.7803C43.2204 30.8253 43.2154 30.8703 43.2054 30.9103C43.1954 30.9503 43.1904 30.9953 43.1804 31.0353C43.1704 31.0753 43.1604 31.1153 43.1554 31.1503C43.1454 31.1903 43.1354 31.2303 43.1304 31.2703C43.1204 31.3153 43.1104 31.3553 43.1004 31.4003C43.0904 31.4353 43.0854 31.4703 43.0754 31.5003C43.0654 31.5403 43.0604 31.5753 43.0504 31.6153C43.0403 31.6553 43.0304 31.6953 43.0204 31.7403C43.0104 31.7753 43.0004 31.8103 42.9904 31.8453C42.9804 31.8753 42.9704 31.9053 42.9654 31.9353C42.9554 31.9703 42.9454 32.0053 42.9354 32.0353C42.9254 32.0703 42.9154 32.1103 42.9054 32.1453C42.8954 32.1853 42.8853 32.2253 42.8703 32.2603C42.8654 32.2803 42.8604 32.3003 42.8504 32.3253C42.8454 32.3453 42.8404 32.3703 42.8304 32.3903C42.8254 32.4153 42.8154 32.4353 42.8104 32.4603C42.8054 32.4803 42.7954 32.5003 42.7904 32.5203C42.7854 32.5403 42.7754 32.5553 42.7704 32.5753C42.7654 32.5953 42.7554 32.6103 42.7504 32.6303C42.7454 32.6553 42.7354 32.6753 42.7254 32.7003C42.7204 32.7203 42.7104 32.7403 42.7054 32.7553C42.7004 32.7753 42.6904 32.7953 42.6854 32.8153C42.6754 32.8403 42.6704 32.8603 42.6604 32.8853C42.6554 32.9053 42.6504 32.9203 42.6404 32.9403C42.6354 32.9603 42.6253 32.9803 42.6203 32.9953C42.6103 33.0203 42.6054 33.0403 42.5954 33.0653C42.5854 33.0853 42.5804 33.1103 42.5704 33.1353C42.5654 33.1553 42.5604 33.1703 42.5504 33.1903C42.5454 33.2103 42.5354 33.2253 42.5304 33.2453C42.5204 33.2653 42.5154 33.2853 42.5054 33.3053C42.5004 33.3203 42.4904 33.3403 42.4854 33.3553C42.4804 33.3703 42.4704 33.3903 42.4654 33.4053C42.4604 33.4253 42.4503 33.4403 42.4454 33.4603C42.4354 33.4803 42.4304 33.5003 42.4204 33.5203C42.4154 33.5403 42.4054 33.5553 42.4004 33.5753C42.3954 33.5903 42.3854 33.6103 42.3804 33.6253C42.3754 33.6403 42.3654 33.6603 42.3604 33.6753C42.3504 33.6953 42.3454 33.7153 42.3354 33.7353C42.3304 33.7503 42.3204 33.7703 42.3154 33.7853C42.3104 33.8053 42.3004 33.8203 42.2954 33.8403C42.2854 33.8603 42.2754 33.8853 42.2654 33.9053C42.2604 33.9203 42.2504 33.9403 42.2404 33.9553C42.2354 33.9703 42.2254 33.9903 42.2154 34.0053C42.2104 34.0203 42.2003 34.0353 42.1954 34.0553C41.6304 35.3403 40.8904 36.5353 40.0104 37.6053C40.0104 37.6053 40.0104 37.6053 40.0054 37.6103C40.0054 37.6103 40.0003 37.6203 39.9953 37.6203C39.9953 37.6203 39.9904 37.6253 39.9854 37.6303C39.9854 37.6303 39.9804 37.6353 39.9754 37.6403C39.9754 37.6403 39.9704 37.6453 39.9654 37.6503C39.9654 37.6503 39.9604 37.6553 39.9554 37.6603C39.9554 37.6603 39.9503 37.6653 39.9454 37.6703C39.9454 37.6703 39.9404 37.6753 39.9354 37.6803C39.9354 37.6803 39.9303 37.6853 39.9254 37.6903C39.9254 37.6903 39.9204 37.7003 39.9154 37.7003C39.9154 37.7003 39.9153 37.7053 39.9104 37.7103C39.9104 37.7103 39.9054 37.7153 39.9004 37.7203C39.9004 37.7203 39.9004 37.7203 39.8954 37.7253C39.8954 37.7253 39.8904 37.7303 39.8854 37.7353C39.8854 37.7353 39.8854 37.7403 39.8804 37.7453C39.8804 37.7453 39.8753 37.7553 39.8703 37.7553C39.8703 37.7553 39.8654 37.7603 39.8604 37.7653C39.8604 37.7653 39.8554 37.7703 39.8504 37.7753C39.8504 37.7753 39.8454 37.7803 39.8404 37.7853C39.8404 37.7853 39.8403 37.7853 39.8354 37.7903C39.8354 37.7903 39.8304 37.7953 39.8254 37.8003C39.8254 37.8003 39.8253 37.8053 39.8204 37.8103C39.8204 37.8103 39.8204 37.8103 39.8154 37.8153C39.8154 37.8153 39.8154 37.8153 39.8104 37.8203C39.8104 37.8203 39.8104 37.8203 39.8054 37.8253C39.8054 37.8253 39.8053 37.8303 39.8004 37.8353C39.8004 37.8353 39.8004 37.8353 39.7954 37.8403C39.7954 37.8403 39.7903 37.8453 39.7854 37.8503C39.7804 37.8603 39.7703 37.8653 39.7654 37.8753L39.7453 37.8953C39.7453 37.8953 39.7304 37.9103 39.7254 37.9153C39.7154 37.9253 39.7104 37.9353 39.7004 37.9403C39.6954 37.9453 39.6854 37.9553 39.6804 37.9603C39.6754 37.9653 39.6704 37.9753 39.6654 37.9803C39.6604 37.9903 39.6504 37.9953 39.6454 38.0053C39.6404 38.0153 39.6304 38.0203 39.6254 38.0303C39.6204 38.0403 39.6103 38.0453 39.6054 38.0553C39.6004 38.0653 39.5903 38.0703 39.5854 38.0803C39.5804 38.0853 39.5704 38.0953 39.5654 38.1003C39.5604 38.1053 39.5554 38.1153 39.5454 38.1203C39.5354 38.1303 39.5304 38.1403 39.5204 38.1503C39.5154 38.1553 39.5054 38.1653 39.5004 38.1703C39.4954 38.1753 39.4853 38.1853 39.4804 38.1903C39.4704 38.2003 39.4654 38.2053 39.4554 38.2153C39.4504 38.2253 39.4404 38.2303 39.4354 38.2403C39.4304 38.2453 39.4204 38.2553 39.4154 38.2603C39.4104 38.2653 39.4004 38.2753 39.3954 38.2803C39.3854 38.2903 39.3753 38.3003 39.3703 38.3103C39.3703 38.3103 39.3603 38.3203 39.3554 38.3253C39.3654 38.3303 39.3754 38.3353 39.3854 38.3403C39.3754 38.3403 39.3654 38.3303 39.3504 38.3303C39.3404 38.3403 39.3354 38.3453 39.3254 38.3553C39.3154 38.3653 39.3104 38.3703 39.3004 38.3803C39.2954 38.3853 39.2854 38.3953 39.2804 38.4003C39.2704 38.4103 39.2654 38.4153 39.2554 38.4253L39.2304 38.4503C39.2304 38.4503 39.2154 38.4653 39.2054 38.4753C39.2004 38.4803 39.1904 38.4903 39.1854 38.4953C39.1754 38.5053 39.1704 38.5103 39.1604 38.5203C39.1504 38.5303 39.1454 38.5353 39.1354 38.5453C38.6354 39.0553 38.1004 39.5303 37.5354 39.9653C37.5154 39.9803 37.5004 39.9953 37.4804 40.0103C37.2054 40.2203 36.9204 40.4203 36.6304 40.6153C36.6154 40.6253 36.6003 40.6353 36.5854 40.6453C36.3204 40.8203 36.0454 40.9853 35.7654 41.1453C35.7253 41.1703 35.6854 41.1903 35.6404 41.2153C35.3404 41.3803 35.0404 41.5403 34.7254 41.6853C34.7154 41.6853 34.7054 41.6953 34.6954 41.7003C34.3954 41.8403 34.0904 41.9703 33.7804 42.0903C33.7404 42.1053 33.7004 42.1253 33.6554 42.1403C32.9954 42.3903 32.3154 42.6003 31.6154 42.7603C31.5954 42.7603 31.5754 42.7703 31.5554 42.7753C30.4654 43.0203 29.3354 43.1553 28.1754 43.1553H28.1704C26.2204 43.1553 24.3554 42.7903 22.6404 42.1253C21.9604 41.8653 21.3054 41.5553 20.6754 41.2053C20.6604 41.1953 20.6454 41.1853 20.6254 41.1753C20.3254 41.0053 20.0304 40.8253 19.7404 40.6353C19.7354 40.6353 19.7254 40.6253 19.7204 40.6203C19.4304 40.4303 19.1504 40.2303 18.8754 40.0203C18.8454 39.9953 18.8154 39.9753 18.7854 39.9503C18.5404 39.7603 18.3054 39.5653 18.0754 39.3653C18.0404 39.3353 18.0104 39.3103 17.9754 39.2803C17.7304 39.0603 17.4904 38.8353 17.2604 38.6003C17.2504 38.5903 17.2404 38.5803 17.2254 38.5703C17.2154 38.5603 17.2104 38.5553 17.2004 38.5453C17.1904 38.5353 17.1854 38.5303 17.1804 38.5203C17.1754 38.5153 17.1654 38.5053 17.1604 38.4953C17.1554 38.4903 17.1504 38.4853 17.1454 38.4803C17.1454 38.4803 17.1404 38.4753 17.1354 38.4703C17.1254 38.4603 17.1204 38.4553 17.1104 38.4453C17.1004 38.4353 17.0954 38.4303 17.0854 38.4203C17.0754 38.4103 17.0704 38.4053 17.0604 38.3953C17.0504 38.3853 17.0454 38.3803 17.0354 38.3703C17.0304 38.3653 17.0254 38.3603 17.0154 38.3503C17.0054 38.3403 17.0004 38.3353 16.9904 38.3253C16.9804 38.3153 16.9754 38.3103 16.9654 38.3003C16.9604 38.2953 16.9504 38.2853 16.9454 38.2803C16.9354 38.2703 16.9304 38.2653 16.9204 38.2553C16.9104 38.2453 16.9054 38.2403 16.8954 38.2303C16.8904 38.2253 16.8804 38.2153 16.8754 38.2103C16.8654 38.2003 16.8604 38.1953 16.8504 38.1853C16.8454 38.1753 16.8354 38.1703 16.8254 38.1603C16.8204 38.1553 16.8104 38.1453 16.8054 38.1403C16.8004 38.1353 16.7904 38.1253 16.7854 38.1203C16.7804 38.1103 16.7704 38.1053 16.7654 38.0953C16.7604 38.0903 16.7504 38.0803 16.7454 38.0753C16.7404 38.0653 16.7304 38.0603 16.7254 38.0503C16.7204 38.0403 16.7104 38.0353 16.7054 38.0253C16.7004 38.0203 16.6954 38.0103 16.6854 38.0053C16.6804 37.9953 16.6704 37.9903 16.6654 37.9803C16.6604 37.9703 16.6504 37.9653 16.6454 37.9553C16.6404 37.9503 16.6354 37.9403 16.6304 37.9353C16.6254 37.9253 16.6154 37.9203 16.6104 37.9103C16.6004 37.9003 16.5954 37.8903 16.5854 37.8803C16.5804 37.8753 16.5754 37.8653 16.5704 37.8603C16.5654 37.8503 16.5554 37.8453 16.5504 37.8353C16.5504 37.8353 16.5454 37.8303 16.5404 37.8253C16.5404 37.8253 16.5404 37.8253 16.5354 37.8203C16.5354 37.8203 16.5304 37.8153 16.5304 37.8103C16.5304 37.8103 16.5304 37.8103 16.5254 37.8053C16.5254 37.8053 16.5204 37.8003 16.5154 37.7953C16.5154 37.7953 16.5154 37.7953 16.5104 37.7903C16.5104 37.7903 16.5104 37.7903 16.5054 37.7853C16.5054 37.7853 16.5004 37.7803 16.4954 37.7753C16.4954 37.7753 16.4954 37.7753 16.4904 37.7703C16.4904 37.7703 16.4904 37.7653 16.4804 37.7603C16.4804 37.7603 16.4804 37.7603 16.4754 37.7553C16.4754 37.7553 16.4754 37.7503 16.4704 37.7453C16.4704 37.7453 16.4654 37.7403 16.4604 37.7353C16.4604 37.7353 16.4604 37.7303 16.4554 37.7253C16.4554 37.7253 16.4554 37.7203 16.4504 37.7153C16.4504 37.7153 16.4504 37.7103 16.4454 37.7053C16.4454 37.7053 16.4454 37.7053 16.4404 37.7003C16.4404 37.7003 16.4354 37.6953 16.4304 37.6903C16.4304 37.6903 16.4254 37.6853 16.4204 37.6803C16.4204 37.6803 16.4154 37.6703 16.4104 37.6703C16.4104 37.6703 16.4104 37.6703 16.4054 37.6653C16.4054 37.6653 16.4004 37.6553 16.3954 37.6553C16.3954 37.6553 16.3954 37.6553 16.3904 37.6503C16.2104 37.4353 16.0404 37.2153 15.8754 36.9953C15.8354 36.9403 15.8004 36.8853 15.7604 36.8353C15.6104 36.6253 15.4604 36.4103 15.3204 36.1903C15.2704 36.1153 15.2254 36.0403 15.1754 35.9703C15.0104 35.7103 14.8554 35.4403 14.7054 35.1703C14.6704 35.1053 14.6404 35.0403 14.6054 34.9753C14.4904 34.7553 14.3804 34.5253 14.2754 34.3003C14.2504 34.2453 14.2204 34.1953 14.2004 34.1453C14.2004 34.1453 14.2004 34.1453 14.2054 34.1453C14.1954 34.1203 14.1804 34.0903 14.1704 34.0653C14.1654 34.0503 14.1554 34.0303 14.1454 34.0153C14.1354 33.9953 14.1254 33.9753 14.1204 33.9553C14.1154 33.9403 14.1054 33.9253 14.1004 33.9053C14.0954 33.8903 14.0854 33.8703 14.0804 33.8553C14.0704 33.8353 14.0654 33.8153 14.0554 33.7903C14.0504 33.7753 14.0404 33.7553 14.0354 33.7403C14.0304 33.7253 14.0204 33.7053 14.0154 33.6903C14.0054 33.6703 14.0004 33.6503 13.9904 33.6253C13.9854 33.6103 13.9754 33.5903 13.9704 33.5753C13.9654 33.5603 13.9554 33.5403 13.9504 33.5253C13.9454 33.5053 13.9354 33.4903 13.9304 33.4703C13.9204 33.4503 13.9154 33.4303 13.9054 33.4103C13.9004 33.3953 13.8904 33.3753 13.8854 33.3603C13.8804 33.3403 13.8704 33.3253 13.8654 33.3053C13.8554 33.2853 13.8504 33.2653 13.8404 33.2453C13.8354 33.2253 13.8254 33.2103 13.8204 33.1903C13.8154 33.1703 13.8054 33.1503 13.8004 33.1303C13.7904 33.1103 13.7854 33.0853 13.7804 33.0653C13.7754 33.0453 13.7654 33.0253 13.7604 33.0103C13.7554 32.9903 13.7454 32.9703 13.7404 32.9553C13.7354 32.9353 13.7254 32.9203 13.7204 32.9003C13.7104 32.8803 13.7054 32.8553 13.6954 32.8353C13.6904 32.8153 13.6804 32.7953 13.6754 32.7753C13.6704 32.7553 13.6604 32.7403 13.6554 32.7203C13.6454 32.6953 13.6404 32.6753 13.6304 32.6503C13.6254 32.6303 13.6154 32.6103 13.6104 32.5903C13.6054 32.5703 13.5954 32.5553 13.5904 32.5353C13.5854 32.5103 13.5754 32.4903 13.5654 32.4653C13.5604 32.4453 13.5554 32.4253 13.5454 32.4003C13.5404 32.3803 13.5354 32.3603 13.5254 32.3403C13.5154 32.3153 13.5104 32.2903 13.5054 32.2653C13.4954 32.2353 13.4854 32.2003 13.4804 32.1703C13.4704 32.1403 13.4604 32.1053 13.4504 32.0753C13.4404 32.0403 13.4304 32.0053 13.4204 31.9703C13.4104 31.9403 13.4004 31.9103 13.3954 31.8803C13.3854 31.8453 13.3754 31.8103 13.3654 31.7803C13.3554 31.7453 13.3504 31.7153 13.3404 31.6803C13.3304 31.6403 13.3254 31.6053 13.3154 31.5653C13.3054 31.5303 13.3004 31.4953 13.2904 31.4603C13.2804 31.4203 13.2704 31.3853 13.2654 31.3453C13.2554 31.3103 13.2504 31.2803 13.2404 31.2453C13.2304 31.2103 13.2254 31.1753 13.2154 31.1403C13.2054 31.1003 13.1954 31.0653 13.1904 31.0253C13.1804 30.9853 13.1754 30.9503 13.1704 30.9103C13.1604 30.8653 13.1554 30.8253 13.1454 30.7803C13.1404 30.7403 13.1304 30.7053 13.1254 30.6653C13.1204 30.6253 13.1104 30.5803 13.1054 30.5403C13.1004 30.5053 13.0904 30.4653 13.0854 30.4303C13.0804 30.3953 13.0704 30.3553 13.0654 30.3203C13.0604 30.2753 13.0504 30.2303 13.0454 30.1853C13.0404 30.1453 13.0354 30.1003 13.0304 30.0603C13.0254 30.0153 13.0204 29.9703 13.0104 29.9253C13.0054 29.8853 13.0004 29.8403 12.9954 29.8003C12.9904 29.7503 12.9804 29.7053 12.9754 29.6603C12.9754 29.6153 12.9654 29.5753 12.9604 29.5303C12.9604 29.4803 12.9554 29.4353 12.9504 29.3853C12.9504 29.3353 12.9454 29.2853 12.9404 29.2353C12.9404 29.1903 12.9354 29.1453 12.9304 29.1003C12.9304 29.0503 12.9204 29.0003 12.9204 28.9503C12.9204 28.9053 12.9104 28.8553 12.9104 28.8103C12.9104 28.7553 12.9104 28.7053 12.9054 28.6503C12.9054 28.6003 12.9054 28.5453 12.9054 28.4903C12.9004 28.3153 12.8904 28.1353 12.8904 27.9603C12.8904 19.5453 19.7404 12.7153 28.1954 12.7153C36.6504 12.7153 43.5054 19.5403 43.5054 27.9603C43.5054 28.0303 43.5054 28.1003 43.5004 28.1703L43.4904 28.1503Z" fill="white"/>
<path d="M28.185 31.7855H28.19C33.385 31.7855 38.2 32.6555 42.175 34.1355C41.61 35.3905 40.88 36.5555 40.015 37.6005C40.015 37.6005 40.02 37.6005 40.025 37.6055C40.91 36.5355 41.645 35.3405 42.21 34.0555C40.855 29.6105 35.08 25.8555 28.185 25.8555C21.29 25.8555 15.525 29.6105 14.165 34.0505C14.175 34.0755 14.19 34.1055 14.2 34.1305C18.185 32.6505 22.995 31.7805 28.185 31.7805V31.7855Z" fill="white"/>
<path d="M42.1753 34.1352C38.2003 32.6552 33.3853 31.7852 28.1903 31.7852H28.1853C22.9953 31.7852 18.1853 32.6552 14.2003 34.1352C14.2003 34.1352 14.2003 34.1352 14.1953 34.1352C14.2203 34.1902 14.2503 34.2402 14.2703 34.2902C14.3753 34.5202 14.4853 34.7452 14.6003 34.9652C14.6353 35.0302 14.6653 35.0952 14.7003 35.1602C14.8503 35.4302 15.0053 35.7002 15.1703 35.9602C15.2153 36.0352 15.2653 36.1102 15.3153 36.1802C15.4553 36.4002 15.6053 36.6152 15.7553 36.8252C15.7953 36.8802 15.8303 36.9352 15.8703 36.9852C16.0353 37.2102 16.2053 37.4302 16.3853 37.6402C16.3853 37.6402 16.3853 37.6402 16.3903 37.6452C16.3903 37.6452 16.3953 37.6552 16.4003 37.6552C16.4003 37.6552 16.4003 37.6552 16.4053 37.6602C16.4053 37.6602 16.4103 37.6702 16.4153 37.6702C16.4153 37.6702 16.4203 37.6752 16.4253 37.6802C16.4253 37.6802 16.4303 37.6852 16.4353 37.6902C16.4353 37.6902 16.4353 37.6902 16.4403 37.6952C16.4403 37.6952 16.4403 37.7002 16.4453 37.7052C16.4453 37.7052 16.4453 37.7102 16.4503 37.7152C16.4503 37.7152 16.4503 37.7202 16.4553 37.7252C16.4553 37.7252 16.4603 37.7302 16.4653 37.7352C16.4653 37.7352 16.4653 37.7402 16.4703 37.7452C16.4703 37.7452 16.4703 37.7452 16.4753 37.7502C16.4753 37.7502 16.4753 37.7552 16.4853 37.7602C16.4853 37.7602 16.4853 37.7602 16.4903 37.7652C16.4903 37.7652 16.4953 37.7702 16.5003 37.7752C16.5003 37.7752 16.5003 37.7752 16.5053 37.7802C16.5053 37.7802 16.5053 37.7802 16.5103 37.7852C16.5103 37.7852 16.5153 37.7902 16.5203 37.7952C16.5203 37.7952 16.5203 37.7952 16.5253 37.8002C16.5253 37.8002 16.5303 37.8052 16.5303 37.8102C16.5303 37.8102 16.5303 37.8102 16.5353 37.8152C16.5353 37.8152 16.5403 37.8202 16.5453 37.8252C16.5503 37.8352 16.5603 37.8402 16.5653 37.8502C16.5703 37.8552 16.5753 37.8652 16.5803 37.8702C16.5903 37.8802 16.5953 37.8902 16.6053 37.9002C16.6103 37.9102 16.6203 37.9152 16.6253 37.9252C16.6303 37.9302 16.6353 37.9402 16.6403 37.9452C16.6453 37.9552 16.6553 37.9602 16.6603 37.9702C16.6653 37.9802 16.6753 37.9852 16.6803 37.9952C16.6853 38.0002 16.6903 38.0102 16.7003 38.0152C16.7053 38.0252 16.7153 38.0302 16.7203 38.0402C16.7253 38.0502 16.7353 38.0552 16.7403 38.0652C16.7453 38.0702 16.7553 38.0802 16.7603 38.0852C16.7653 38.0952 16.7753 38.1002 16.7803 38.1102C16.7853 38.1152 16.7953 38.1252 16.8003 38.1302C16.8053 38.1352 16.8153 38.1452 16.8203 38.1502C16.8253 38.1602 16.8353 38.1652 16.8453 38.1752C16.8553 38.1852 16.8603 38.1902 16.8703 38.2002C16.8753 38.2052 16.8853 38.2152 16.8903 38.2202C16.9003 38.2302 16.9053 38.2352 16.9153 38.2452C16.9253 38.2552 16.9303 38.2602 16.9403 38.2702C16.9453 38.2752 16.9553 38.2852 16.9603 38.2902C16.9703 38.3002 16.9753 38.3052 16.9853 38.3152C16.9953 38.3252 17.0003 38.3302 17.0103 38.3402C17.0153 38.3452 17.0203 38.3502 17.0303 38.3602C17.0403 38.3702 17.0453 38.3752 17.0553 38.3852C17.0653 38.3952 17.0703 38.4002 17.0803 38.4102C17.0903 38.4202 17.0953 38.4252 17.1053 38.4352C17.1153 38.4452 17.1203 38.4502 17.1303 38.4602C17.1303 38.4602 17.1353 38.4652 17.1403 38.4702C17.1453 38.4752 17.1503 38.4802 17.1553 38.4852C17.1603 38.4902 17.1703 38.5002 17.1753 38.5102C17.1853 38.5202 17.1903 38.5252 17.1953 38.5352C17.2053 38.5452 17.2103 38.5502 17.2203 38.5602C17.2303 38.5702 17.2403 38.5802 17.2553 38.5902C17.4853 38.8252 17.7253 39.0502 17.9703 39.2702C18.0003 39.3002 18.0353 39.3252 18.0703 39.3552C18.3003 39.5552 18.5403 39.7552 18.7803 39.9402C18.8103 39.9652 18.8403 39.9852 18.8703 40.0102C19.1453 40.2202 19.4253 40.4202 19.7153 40.6102C19.7203 40.6102 19.7303 40.6202 19.7353 40.6252C20.0253 40.8152 20.3203 40.9952 20.6203 41.1652C20.6353 41.1752 20.6503 41.1852 20.6703 41.1952C21.3003 41.5452 21.9553 41.8552 22.6353 42.1152C24.3503 42.7752 26.2153 43.1452 28.1653 43.1452C29.3253 43.1452 30.4603 43.0102 31.5453 42.7652C31.5653 42.7652 31.5853 42.7552 31.6053 42.7502C32.3053 42.5902 32.9853 42.3852 33.6453 42.1302C33.6853 42.1152 33.7253 42.1002 33.7703 42.0802C34.0803 41.9602 34.3853 41.8302 34.6853 41.6902C34.6953 41.6902 34.7053 41.6802 34.7153 41.6752C35.0253 41.5302 35.3303 41.3702 35.6303 41.2052C35.6703 41.1802 35.7103 41.1602 35.7553 41.1352C36.0353 40.9752 36.3053 40.8102 36.5753 40.6352C36.5903 40.6252 36.6053 40.6152 36.6203 40.6052C36.9103 40.4152 37.1953 40.2102 37.4703 40.0002C37.4903 39.9852 37.5103 39.9702 37.5253 39.9552C38.0903 39.5202 38.6253 39.0452 39.1253 38.5352C39.1353 38.5252 39.1403 38.5202 39.1503 38.5102C39.1603 38.5002 39.1653 38.4952 39.1753 38.4852C39.1803 38.4802 39.1903 38.4702 39.1953 38.4652C39.2053 38.4552 39.2103 38.4502 39.2203 38.4402L39.2453 38.4152C39.2453 38.4152 39.2603 38.4002 39.2703 38.3902C39.2753 38.3852 39.2853 38.3752 39.2903 38.3702C39.3003 38.3602 39.3053 38.3552 39.3153 38.3452C39.3253 38.3352 39.3303 38.3302 39.3403 38.3202C39.3503 38.3202 39.3603 38.3302 39.3753 38.3302C39.3653 38.3252 39.3553 38.3202 39.3453 38.3152C39.3453 38.3152 39.3553 38.3052 39.3603 38.3002C39.3703 38.2902 39.3803 38.2802 39.3853 38.2702C39.3903 38.2652 39.4003 38.2552 39.4053 38.2502C39.4103 38.2452 39.4203 38.2352 39.4253 38.2302C39.4303 38.2202 39.4403 38.2152 39.4453 38.2052C39.4553 38.1952 39.4603 38.1902 39.4703 38.1802C39.4753 38.1752 39.4853 38.1652 39.4903 38.1602C39.4953 38.1552 39.5053 38.1452 39.5103 38.1402C39.5203 38.1302 39.5253 38.1202 39.5353 38.1102C39.5403 38.1052 39.5453 38.0952 39.5553 38.0902C39.5603 38.0852 39.5703 38.0752 39.5753 38.0702C39.5803 38.0602 39.5903 38.0552 39.5953 38.0452C39.6003 38.0352 39.6103 38.0302 39.6153 38.0202C39.6203 38.0102 39.6303 38.0052 39.6353 37.9952C39.6403 37.9852 39.6503 37.9802 39.6553 37.9702C39.6603 37.9652 39.6653 37.9552 39.6703 37.9502C39.6753 37.9452 39.6853 37.9352 39.6903 37.9302C39.7003 37.9202 39.7053 37.9102 39.7153 37.9052C39.7203 37.9002 39.7303 37.8902 39.7353 37.8852L39.7553 37.8652C39.7553 37.8652 39.7703 37.8502 39.7753 37.8402C39.7753 37.8402 39.7803 37.8352 39.7853 37.8302C39.7853 37.8302 39.7853 37.8302 39.7903 37.8252C39.7903 37.8252 39.7903 37.8202 39.7953 37.8152C39.7953 37.8152 39.7953 37.8152 39.8003 37.8102C39.8003 37.8102 39.8003 37.8102 39.8053 37.8052C39.8053 37.8052 39.8053 37.8052 39.8103 37.8002C39.8103 37.8002 39.8103 37.7952 39.8153 37.7902C39.8153 37.7902 39.8203 37.7852 39.8253 37.7802C39.8253 37.7802 39.8253 37.7802 39.8303 37.7752C39.8303 37.7752 39.8353 37.7702 39.8403 37.7652C39.8403 37.7652 39.8453 37.7602 39.8503 37.7552C39.8503 37.7552 39.8553 37.7502 39.8603 37.7452C39.8603 37.7452 39.8653 37.7352 39.8703 37.7352C39.8703 37.7352 39.8703 37.7302 39.8753 37.7252C39.8753 37.7252 39.8803 37.7202 39.8853 37.7152C39.8853 37.7152 39.8853 37.7152 39.8903 37.7102C39.8903 37.7102 39.8953 37.7052 39.9003 37.7002C39.9003 37.7002 39.9003 37.6952 39.9053 37.6902C39.9053 37.6902 39.9103 37.6802 39.9153 37.6802C39.9153 37.6802 39.9203 37.6752 39.9253 37.6702C39.9253 37.6702 39.9303 37.6652 39.9353 37.6602C39.9353 37.6602 39.9403 37.6552 39.9453 37.6502C39.9453 37.6502 39.9503 37.6452 39.9553 37.6402C39.9553 37.6402 39.9603 37.6352 39.9653 37.6302C39.9653 37.6302 39.9703 37.6252 39.9753 37.6202C39.9753 37.6202 39.9803 37.6152 39.9853 37.6102C39.9853 37.6102 39.9903 37.6002 39.9953 37.6002C39.9953 37.6002 39.9953 37.6002 40.0003 37.5952C40.0003 37.5952 39.9953 37.5952 39.9903 37.5902C40.8553 36.5402 41.5853 35.3802 42.1503 34.1252L42.1753 34.1352Z" fill="#0367B3"/>
</g>
<defs>
<clipPath id="clip0_266_62039">
<rect width="56" height="56" fill="white"/>
</clipPath>
</defs>
</svg>
