<svg width="56" height="56" viewBox="0 0 56 56" fill="none" xmlns="http://www.w3.org/2000/svg">
<g clip-path="url(#clip0_266_61984)">
<path d="M0 28.0005C0 29.649 0 29.8325 0.0395 31.2325C0.1445 34.3335 0.4715 37.8925 1.716 41.6475C2.5935 44.3035 4.2435 47.169 5.8935 48.9745C7.989 51.277 10.883 53.161 14.013 54.234C17.2085 55.333 20.666 55.8695 27.3845 56.0005H28.6285C35.36 55.8565 38.8045 55.333 42 54.234C45.13 53.161 48.011 51.277 50.1065 48.9745C51.757 47.156 53.407 44.3035 54.2845 41.6475C55.5285 37.8925 55.869 34.3205 55.9605 31.2325C56 29.8455 56 29.6495 56 28.0005C56 26.3515 56 26.1685 55.9605 24.7685C55.856 21.6675 55.5285 18.1085 54.2845 14.3535C53.407 11.6975 51.757 8.83199 50.1065 7.02649C48.0115 4.7235 45.117 2.8395 42 1.7665C38.8045 0.667498 35.347 0.131 28.6285 0H27.3845C20.653 0.144 17.2085 0.667498 14.013 1.7665C10.883 2.8395 8.002 4.7235 5.8935 7.02649C4.2435 8.84499 2.593 11.6975 1.716 14.3535C0.4845 18.109 0.144 21.668 0.0395 24.7685C0 26.1555 0 26.3515 0 28.0005Z" fill="#00C4A6"/>
<mask id="mask0_266_61984" style="mask-type:luminance" maskUnits="userSpaceOnUse" x="10" y="19" width="37" height="19">
<path d="M46.0007 19.001H10.0007V37.001H46.0007V19.001Z" fill="white"/>
</mask>
<g mask="url(#mask0_266_61984)">
<path d="M16.3897 25.3887H10.0007V36.9997H16.3897V25.3887Z" fill="white"/>
<path d="M31.1949 26.768C27.9459 22.0765 22.5279 19.001 16.3894 19.001V25.3885C22.7919 25.3885 28.0009 30.597 28.0009 36.9995H34.3899C34.3899 30.597 39.5984 25.3885 46.0009 25.3885V19.001C39.8624 19.001 34.4434 22.0765 31.1949 26.768Z" fill="white"/>
</g>
</g>
<defs>
<clipPath id="clip0_266_61984">
<rect width="56" height="56" fill="white"/>
</clipPath>
</defs>
</svg>
