<svg width="56" height="56" viewBox="0 0 56 56" fill="none" xmlns="http://www.w3.org/2000/svg">
<g clip-path="url(#clip0_266_62026)">
<mask id="mask0_266_62026" style="mask-type:luminance" maskUnits="userSpaceOnUse" x="0" y="0" width="56" height="56">
<path d="M56 0H0V56H56V0Z" fill="white"/>
</mask>
<g mask="url(#mask0_266_62026)">
<path d="M0 28.0019C0 29.6506 0 29.8337 0.0392798 31.2337C0.144026 34.3346 0.471357 37.8935 1.71522 41.6487C2.59247 44.3047 4.24222 47.1701 5.89197 48.9758C7.9869 51.2784 10.8805 53.1628 14.0098 54.2355C17.2045 55.3348 20.6612 55.8709 27.378 56.002H28.6219C35.3518 55.8579 38.7954 55.3348 41.9901 54.2355C45.1194 53.1628 47.9999 51.2784 50.1081 48.9758C51.7575 47.1571 53.4074 44.3047 54.2846 41.6487C55.5284 37.8935 55.869 34.3215 55.9605 31.2337C56 29.8468 56 29.6506 56 28.0019C56 26.3533 56 26.1701 55.9605 24.7702C55.856 21.6692 55.5284 18.1104 54.2846 14.3552C53.4074 11.6991 51.7575 8.8337 50.1081 7.02813C48.013 4.72531 45.1194 2.8412 41.9901 1.76831C38.7954 0.669242 35.3388 0.132794 28.6219 0.00195312H27.378C20.6481 0.145878 17.2045 0.669242 14.0098 1.76831C10.8805 2.8412 8.00001 4.72531 5.89197 7.02813C4.24222 8.8468 2.59247 11.6991 1.71522 14.3552C0.484451 18.1104 0.144026 21.6692 0.0392798 24.7702C0 26.1571 0 26.3533 0 28.0019Z" fill="#E3333F"/>
<path d="M44.4547 32.6372L41.1952 28.7129H41.169L40.292 30.7404C40.292 30.7404 40.292 30.7666 40.292 30.7797L41.7188 32.5849C41.8235 32.7157 41.9283 32.7549 42.0984 32.7549" fill="white"/>
<path d="M42.1378 23.2578C40.7633 23.2578 40.0303 23.6764 39.6114 24.5529L37.0195 30.5178C36.8624 30.871 36.6399 31.0411 36.1818 31.0411V23.3494C36.1818 23.3494 36.1425 23.2578 36.077 23.2578H34.1789C34.1789 23.2578 34.0742 23.2971 34.0742 23.3494V32.5716C34.0742 32.6631 34.1528 32.7416 34.2575 32.7416H36.3912C37.7657 32.7416 38.394 32.323 38.8129 31.4466L41.3655 25.5601C41.5749 25.1415 41.8629 24.9584 42.4651 24.9584" fill="white"/>
<path d="M19.2167 28.0068C19.976 27.7059 20.6174 27.0388 20.6174 25.9269C20.6174 24.2656 19.0989 23.2715 17.2925 23.2715H11.6637C11.6637 23.2715 11.559 23.3107 11.559 23.363V24.8674C11.559 24.8674 11.5982 24.9589 11.6637 24.9589H16.8998C17.7375 24.9589 18.3135 25.4429 18.3135 26.0446C18.3135 26.6464 17.7375 27.1304 16.8998 27.1304H13.7843V26.0054C13.7843 26.0054 13.745 25.9138 13.6796 25.9138H11.6506C11.6506 25.9138 11.5459 25.9531 11.5459 26.0054V32.6506C11.5459 32.6506 11.5851 32.7421 11.6506 32.7421H17.2008C19.2691 32.7421 20.7614 31.8396 20.7614 29.982C20.7614 29.0664 20.1854 28.3208 19.2167 28.0068ZM17.0045 31.0939H13.7843V28.8702H17.0045C17.8684 28.8702 18.4575 29.3672 18.4575 29.982C18.4575 30.5969 17.8684 31.0939 17.0045 31.0939Z" fill="white"/>
<path d="M24.3352 25.9131H22.424C22.424 25.9131 22.3193 25.9523 22.3193 26.0047V32.6498C22.3193 32.6498 22.3586 32.7414 22.424 32.7414H24.3352C24.3352 32.7414 24.4399 32.7022 24.4399 32.6498V26.0047C24.4399 26.0047 24.4007 25.9131 24.3352 25.9131Z" fill="white"/>
<path d="M32.1632 23.2582H30.2651C30.2651 23.2582 30.1604 23.2975 30.1604 23.3498V31.0414C29.7153 31.0414 29.4928 30.8714 29.3357 30.5182L26.7438 24.5532C26.3249 23.6768 25.5919 23.2582 24.2174 23.2582H22.424C22.424 23.2582 22.3193 23.2975 22.3193 23.3498V24.8541C22.3193 24.8541 22.3586 24.9457 22.424 24.9457H23.8771C24.4792 24.9457 24.7803 25.1288 24.9766 25.5474L27.5292 31.4339C27.9481 32.3103 28.5765 32.7289 29.9509 32.7289H32.0846C32.1763 32.7289 32.2548 32.6504 32.2548 32.5588V23.3367C32.2548 23.3367 32.2155 23.2451 32.1501 23.2451" fill="white"/>
</g>
</g>
<defs>
<clipPath id="clip0_266_62026">
<rect width="56" height="56" fill="white"/>
</clipPath>
</defs>
</svg>
