<svg width="24" height="24" viewBox="0 0 24 24" fill="none" xmlns="http://www.w3.org/2000/svg">
<g clip-path="url(#clip0_266_60951)">
<path d="M0 12C0 12.705 0 12.7864 0.0192857 13.3821C0.0621429 14.7086 0.205714 16.2386 0.739286 17.8457C1.11643 18.9857 1.82143 20.2093 2.52857 20.9871C3.42857 21.9729 4.665 22.7807 6.00429 23.2415C7.37357 23.7129 8.85429 23.94 11.7343 24H12.2657C15.1457 23.94 16.6264 23.7129 17.9957 23.2415C19.335 22.7807 20.5714 21.9729 21.4714 20.9871C22.1807 20.2093 22.8836 18.9857 23.2607 17.8457C23.7943 16.2364 23.9379 14.7086 23.9807 13.3821C24 12.7864 24 12.705 24 12C24 11.295 24 11.2136 23.9807 10.6179C23.9379 9.29143 23.7943 7.76357 23.2607 6.15429C22.8836 5.01429 22.1807 3.79072 21.4714 3.01286C20.5714 2.02714 19.335 1.21929 17.9957 0.756428C16.6264 0.284999 15.1457 0.0578571 12.2657 0H11.7343C8.85429 0.06 7.37357 0.284999 6.00429 0.756428C4.665 1.21714 3.42857 2.025 2.52857 3.01286C1.82143 3.78857 1.11643 5.01429 0.739286 6.15429C0.205714 7.76143 0.0621429 9.29143 0.0192857 10.6179C0 11.2136 0 11.295 0 12Z" fill="#0367B3"/>
<path d="M12.1072 18.6323C15.7451 18.6323 18.6943 15.6831 18.6943 12.0452C18.6943 8.40716 15.7451 5.45801 12.1072 5.45801C8.46917 5.45801 5.52002 8.40716 5.52002 12.0452C5.52002 15.6831 8.46917 18.6323 12.1072 18.6323Z" fill="#0098D5"/>
<path d="M12.105 7.63735C15.0986 7.63735 17.655 9.4802 18.6386 12.0645C18.6386 12.0345 18.6407 12.0045 18.6407 11.9745C18.6407 8.36592 15.7029 5.44092 12.0793 5.44092C8.45573 5.44092 5.52002 8.36806 5.52002 11.9745C5.52002 12.0516 5.52216 12.1266 5.52645 12.2016C6.46931 9.54449 9.06002 7.6352 12.1072 7.6352L12.105 7.63735Z" fill="#0083CA"/>
<path d="M12.1092 7.69078C15.1092 7.69078 17.6677 9.54006 18.6385 12.1265C18.6385 12.1051 18.6385 12.0858 18.6385 12.0644C17.6549 9.47792 15.0985 7.63721 12.1049 7.63721C9.11131 7.63721 6.46917 9.54649 5.52417 12.2036C5.52417 12.2251 5.52417 12.2486 5.52417 12.2722C6.45417 9.61292 9.05131 7.69292 12.1049 7.69292L12.1092 7.69078Z" fill="#0083CA"/>
<path d="M12.1005 7.75287C15.1176 7.75287 17.6826 9.6193 18.6362 12.2164C18.6362 12.1864 18.6362 12.1564 18.6383 12.1286C17.6676 9.5443 15.109 7.69287 12.109 7.69287C9.10903 7.69287 6.45832 9.61287 5.52832 12.2722C5.52832 12.2957 5.52832 12.3172 5.53046 12.3407C6.44546 9.68144 9.03832 7.75501 12.1005 7.75501V7.75287Z" fill="#0085CB"/>
<path d="M12.1008 7.75293C9.03862 7.75293 6.44576 9.6815 5.53076 12.3386C5.53076 12.3579 5.53505 12.3794 5.53505 12.3986C6.43933 9.74364 9.03648 7.81079 12.1029 7.81079C15.1693 7.81079 17.6958 9.68793 18.6343 12.2851C18.6343 12.2636 18.6343 12.2401 18.6343 12.2165C17.6829 9.61936 15.1158 7.75293 12.0986 7.75293H12.1008Z" fill="#0086CC"/>
<path d="M12.1028 7.81074C9.03634 7.81074 6.43705 9.74359 5.53491 12.3986C5.53491 12.42 5.5392 12.4415 5.5392 12.4629C6.42848 9.80788 9.02991 7.86859 12.1028 7.86859C15.1756 7.86859 17.7042 9.75431 18.6299 12.3515C18.6299 12.3279 18.6321 12.3065 18.6342 12.2829C17.6956 9.68574 15.1263 7.80859 12.1028 7.80859V7.81074Z" fill="#0088CC"/>
<path d="M12.1029 7.92437C15.1372 7.92437 17.7129 9.81865 18.6257 12.4158C18.6257 12.3944 18.63 12.3729 18.63 12.3515C17.7065 9.75222 15.1329 7.86865 12.1029 7.86865C9.07288 7.86865 6.42859 9.80794 5.53931 12.4629C5.53931 12.4822 5.54145 12.5015 5.54359 12.5208C6.42216 9.87008 9.02788 7.92437 12.1029 7.92437Z" fill="#0089CD"/>
<path d="M12.1027 7.92432C9.02774 7.92432 6.42203 9.87003 5.54346 12.5207C5.54346 12.5422 5.5456 12.5636 5.54774 12.585C6.41131 9.93646 9.01917 7.98217 12.0985 7.98217C15.1777 7.98217 17.7213 9.88717 18.617 12.4865C18.617 12.4629 18.6213 12.4393 18.6235 12.4157C17.7127 9.8186 15.137 7.92432 12.1006 7.92432H12.1027Z" fill="#008BCE"/>
<path d="M12.1008 8.04438C15.1479 8.04438 17.73 9.95366 18.615 12.5487C18.615 12.5294 18.6172 12.5079 18.6193 12.4887C17.7236 9.88938 15.1415 7.98438 12.1008 7.98438C9.06005 7.98438 6.41362 9.93866 5.55005 12.5872C5.55005 12.6087 5.55219 12.6279 5.55433 12.6494C6.40505 10.0029 9.01291 8.04438 12.1008 8.04438Z" fill="#008DCF"/>
<path d="M12.1006 8.04443C9.01277 8.04443 6.40491 10.003 5.5542 12.6494C5.5542 12.6687 5.55848 12.6859 5.56063 12.7051C6.39848 10.0651 9.00849 8.10443 12.0963 8.10443C15.1842 8.10443 17.7406 10.0244 18.6085 12.6216C18.6106 12.598 18.6128 12.5744 18.6128 12.5509C17.7278 9.95586 15.1456 8.04658 12.0985 8.04658L12.1006 8.04443Z" fill="#008ED0"/>
<path d="M12.1008 8.16205C15.1587 8.16205 17.7473 10.0842 18.6044 12.6749C18.6044 12.6556 18.6087 12.6363 18.6108 12.6192C17.743 10.0221 15.1544 8.10205 12.0987 8.10205C9.04299 8.10205 6.40085 10.0649 5.56299 12.7028C5.56513 12.7242 5.56727 12.7435 5.57156 12.7628C6.39656 10.1271 9.0087 8.15991 12.103 8.15991L12.1008 8.16205Z" fill="#0090D0"/>
<path d="M12.1008 8.16211C9.00648 8.16211 6.39434 10.1293 5.56934 12.765C5.57148 12.7821 5.57362 12.8014 5.57576 12.8185C6.39005 10.1893 9.00219 8.21782 12.0986 8.21782C15.1951 8.21782 17.7558 10.1507 18.5958 12.7393C18.5979 12.7178 18.6022 12.6964 18.6043 12.675C17.7472 10.0843 15.1586 8.16211 12.1008 8.16211Z" fill="#0092D1"/>
<path d="M12.0943 8.27368C15.165 8.27368 17.76 10.2108 18.5871 12.7972C18.5893 12.778 18.5914 12.7565 18.5957 12.7372C17.7535 10.1465 15.1628 8.21582 12.0985 8.21582C9.03426 8.21582 6.38997 10.1894 5.57568 12.8165C5.57783 12.8358 5.57997 12.8551 5.58425 12.8744C6.38354 10.2494 8.99568 8.27153 12.0964 8.27153L12.0943 8.27368Z" fill="#0093D2"/>
<path d="M12.0939 8.27344C8.99322 8.27344 6.38107 10.2513 5.58179 12.8763C5.58393 12.8934 5.58607 12.9127 5.58822 12.9299C6.37679 10.3113 8.98893 8.33129 12.0939 8.33129C15.1989 8.33129 17.7639 10.277 18.5782 12.8592C18.5804 12.8399 18.5825 12.8184 18.5868 12.7992C17.7596 10.2127 15.1646 8.27558 12.0939 8.27558V8.27344Z" fill="#0095D3"/>
<path d="M12.0984 8.3894C15.1756 8.3894 17.7706 10.3373 18.5741 12.913C18.5763 12.8958 18.5784 12.8765 18.5806 12.8594C17.7663 10.2773 15.1713 8.33154 12.0963 8.33154C9.02129 8.33154 6.37915 10.3137 5.59058 12.9301C5.59272 12.9494 5.597 12.9687 5.59915 12.988C6.37486 10.3758 8.99129 8.3894 12.0984 8.3894Z" fill="#0097D4"/>
<path d="M12.0987 8.38916C8.99151 8.38916 6.37508 10.3777 5.59937 12.9877C5.60151 13.0027 5.60579 13.0199 5.60794 13.0349C6.37294 10.4334 8.98722 8.44916 12.0922 8.44916C15.1972 8.44916 17.7772 10.4077 18.5637 12.9834C18.5679 12.9599 18.5701 12.9363 18.5744 12.9127C17.7708 10.337 15.1758 8.38916 12.0987 8.38916Z" fill="#0098D5"/>
<path d="M12.0922 8.50708C15.1801 8.50708 17.7793 10.4656 18.5551 13.0306C18.5572 13.0156 18.5615 12.9985 18.5636 12.9835C17.7793 10.4078 15.1779 8.44922 12.0922 8.44922C9.00648 8.44922 6.37077 10.4335 5.60791 13.0349C5.61005 13.0499 5.61434 13.0671 5.61648 13.0821C6.37077 10.4914 8.98505 8.50493 12.0943 8.50493L12.0922 8.50708Z" fill="#009AD5"/>
<path d="M12.0924 8.50732C8.98307 8.50732 6.37093 10.4916 5.6145 13.0845C5.61664 13.1016 5.62093 13.1209 5.62307 13.138C6.3645 10.5559 8.98093 8.5673 12.0902 8.5673C15.1995 8.5673 17.7795 10.5302 18.5424 13.0866C18.5445 13.0695 18.5488 13.0502 18.5509 13.033C17.7752 10.468 15.1759 8.50945 12.0881 8.50945L12.0924 8.50732Z" fill="#009CD6"/>
<path d="M12.0901 8.6228C15.1822 8.6228 17.7858 10.5899 18.5358 13.1421C18.5401 13.1228 18.5422 13.1035 18.5465 13.0842C17.7836 10.5278 15.1822 8.56494 12.0943 8.56494C9.00648 8.56494 6.36863 10.5535 5.6272 13.1357C5.62934 13.1528 5.63363 13.1678 5.63577 13.1849C6.36648 10.6114 8.98077 8.62066 12.0922 8.62066L12.0901 8.6228Z" fill="#009ED7"/>
<path d="M12.0897 8.62305C8.9783 8.62305 6.36402 10.6138 5.6333 13.1873C5.63759 13.2066 5.63973 13.2238 5.64401 13.243C6.35973 10.6759 8.97401 8.67876 12.0897 8.67876C15.2054 8.67876 17.7897 10.6502 18.5269 13.1938C18.529 13.1766 18.5333 13.1595 18.5354 13.1423C17.7854 10.5902 15.1819 8.62305 12.0897 8.62305Z" fill="#00A0D8"/>
<path d="M12.0879 8.73657C15.1907 8.73657 17.7943 10.7144 18.5164 13.2494C18.5207 13.2301 18.5229 13.2109 18.5271 13.1937C17.7921 10.6501 15.1886 8.67871 12.09 8.67871C8.99143 8.67871 6.36 10.6759 5.64429 13.243C5.64857 13.2601 5.65072 13.2773 5.65286 13.2923C6.35786 10.7359 8.96786 8.73657 12.0879 8.73657Z" fill="#00A1D9"/>
<path d="M12.0881 8.73633C8.96808 8.73633 6.35808 10.7356 5.65308 13.292C5.65736 13.3092 5.66165 13.3242 5.66379 13.3413C6.35593 10.7956 8.96593 8.79633 12.0859 8.79633C15.2059 8.79633 17.7966 10.7742 18.5038 13.3028C18.5081 13.2856 18.5102 13.2663 18.5145 13.2492C17.7924 10.712 15.1888 8.73633 12.0859 8.73633H12.0881Z" fill="#00A3DA"/>
<path d="M12.0877 8.85405C15.1948 8.85405 17.7984 10.8362 18.4948 13.3541C18.4991 13.3369 18.5034 13.3219 18.5055 13.3048C17.7962 10.7762 15.1927 8.79834 12.0877 8.79834C8.98267 8.79834 6.35767 10.7976 5.66553 13.3433C5.66981 13.3583 5.67196 13.3733 5.67624 13.3883C6.35981 10.8555 8.96981 8.8562 12.0877 8.8562V8.85405Z" fill="#00A5DB"/>
<path d="M12.0879 8.85419C8.97008 8.85419 6.36009 10.8535 5.67651 13.3863C5.6808 13.4013 5.68294 13.4163 5.68723 13.4292C6.36009 10.9113 8.97223 8.91419 12.0901 8.91419C15.2079 8.91419 17.8008 10.8963 18.4844 13.4035C18.4887 13.3863 18.4929 13.3692 18.4951 13.3521C17.7987 10.8342 15.1951 8.85205 12.0879 8.85205V8.85419Z" fill="#00A7DC"/>
<path d="M12.0856 8.97241C15.1949 8.97241 17.8006 10.961 18.4713 13.4596C18.4756 13.4403 18.4799 13.4231 18.4842 13.4038C17.7984 10.8967 15.197 8.91455 12.0899 8.91455C8.98273 8.91455 6.36201 10.9117 5.68701 13.4296C5.6913 13.4467 5.69344 13.4617 5.69773 13.4788C6.35773 10.9696 8.96773 8.97241 12.0856 8.97241Z" fill="#00A9DD"/>
<path d="M12.0856 8.97217C8.96561 8.97217 6.35775 10.9693 5.69775 13.4786C5.70204 13.4936 5.70418 13.5086 5.70847 13.5236C6.3599 11.0293 8.96561 9.03003 12.0856 9.03003C15.2056 9.03003 17.8006 11.0165 18.4606 13.5043C18.4649 13.4893 18.467 13.4743 18.4713 13.4615C17.8006 10.9629 15.197 8.97431 12.0856 8.97431V8.97217Z" fill="#00ABDE"/>
<path d="M12.0859 9.08813C15.1973 9.08813 17.8009 11.0788 18.4502 13.5538C18.4545 13.5367 18.4566 13.5217 18.4609 13.5046C17.8009 11.0188 15.1973 9.03027 12.0859 9.03027C8.97445 9.03027 6.35803 11.0296 5.70874 13.5238C5.71303 13.541 5.71517 13.556 5.71945 13.5731C6.35803 11.0896 8.96374 9.08813 12.0859 9.08813Z" fill="#00ADDE"/>
<path d="M12.0857 9.08808C8.96352 9.08808 6.35781 11.0874 5.71924 13.5731C5.72352 13.5881 5.72567 13.6009 5.72995 13.6159C6.35781 11.1452 8.96352 9.14594 12.0835 9.14594C15.2035 9.14594 17.805 11.1388 18.4371 13.6052C18.4414 13.5881 18.4457 13.5709 18.45 13.5517C17.8007 11.0767 15.1992 9.08594 12.0857 9.08594V9.08808Z" fill="#00AFDF"/>
<path d="M12.0793 9.20141C15.1971 9.20141 17.8007 11.1943 18.4243 13.6478C18.4286 13.6328 18.4328 13.6178 18.4371 13.6028C17.805 11.1364 15.1993 9.14355 12.0836 9.14355C8.96784 9.14355 6.35784 11.1407 5.72998 13.6136C5.73427 13.6286 5.73855 13.6436 5.74284 13.6564C6.35998 11.2007 8.95927 9.20141 12.0814 9.20141H12.0793Z" fill="#00B1E0"/>
<path d="M12.079 9.20136C8.95691 9.20136 6.35762 11.2006 5.74048 13.6564C5.74476 13.6692 5.74905 13.6821 5.75119 13.6949C6.35976 11.2542 8.96119 9.25708 12.0812 9.25708C15.2012 9.25708 17.7983 11.2478 18.4112 13.6842C18.4155 13.6714 18.4198 13.6585 18.4219 13.6456C17.8005 11.1921 15.1969 9.19922 12.0769 9.19922L12.079 9.20136Z" fill="#00B3E1"/>
<path d="M12.0815 9.31743C15.1972 9.31743 17.7965 11.306 18.3986 13.7317C18.4029 13.7167 18.4072 13.7017 18.4115 13.6889C17.7986 11.2524 15.1972 9.26172 12.0815 9.26172C8.96575 9.26172 6.36004 11.2567 5.75146 13.6996C5.75575 13.7146 5.76004 13.7296 5.76432 13.7446C6.36218 11.3146 8.96146 9.32172 12.0815 9.32172V9.31743Z" fill="#0DB5E2"/>
<path d="M12.0815 9.31708C8.96155 9.31708 6.36012 11.3121 5.7644 13.7399C5.76869 13.7528 5.77298 13.7678 5.77726 13.7807C6.3644 11.3678 8.96583 9.37494 12.0837 9.37494C15.2015 9.37494 17.7965 11.3657 18.388 13.7764C18.3923 13.7614 18.3965 13.7442 18.4008 13.7292C17.7987 11.3057 15.1973 9.31494 12.0837 9.31494L12.0815 9.31708Z" fill="#19B7E3"/>
<path d="M12.0795 9.43267C15.1973 9.43267 17.7966 11.4277 18.3731 13.8277C18.3773 13.8105 18.3816 13.7934 18.3881 13.7784C17.7966 11.3677 15.1995 9.37695 12.0838 9.37695C8.96806 9.37695 6.36663 11.3698 5.77734 13.7827C5.78163 13.7955 5.78592 13.8105 5.78806 13.8234C6.36663 11.4255 8.96377 9.43267 12.0795 9.43267Z" fill="#21B9E4"/>
<path d="M12.0793 9.43311C8.96356 9.43311 6.36641 11.426 5.78784 13.8238C5.78998 13.8345 5.79427 13.8452 5.79641 13.856C6.3707 11.471 8.96356 9.48882 12.0793 9.48882C15.195 9.48882 17.79 11.471 18.3643 13.856C18.3664 13.8474 18.3686 13.8388 18.3728 13.8281C17.7986 11.4281 15.1993 9.43311 12.0793 9.43311Z" fill="#28BBE5"/>
<path d="M12.079 9.54448C15.1904 9.54448 17.7833 11.5159 18.3554 13.8838C18.3576 13.8752 18.3597 13.8666 18.364 13.8559C17.7897 11.4709 15.1947 9.48877 12.079 9.48877C8.96329 9.48877 6.37043 11.4709 5.79614 13.8559C5.79829 13.8645 5.80043 13.8731 5.80471 13.8816C6.37686 11.5138 8.96757 9.54234 12.079 9.54234V9.54448Z" fill="#37BDE6"/>
<path d="M12.0792 9.54443C8.96779 9.54443 6.37707 11.5159 5.80493 13.8837C5.80707 13.8923 5.80922 13.9009 5.8135 13.9116C6.38565 11.5566 8.97422 9.59372 12.0814 9.59372C15.1885 9.59372 17.7814 11.5587 18.3492 13.9159C18.3514 13.9051 18.3556 13.8966 18.3578 13.8859C17.7835 11.5159 15.1928 9.54658 12.0814 9.54658L12.0792 9.54443Z" fill="#43BFE6"/>
<path d="M12.0791 9.64946C15.182 9.64946 17.7684 11.5995 18.3384 13.9416C18.3406 13.933 18.3449 13.9245 18.347 13.9159C17.7791 11.5566 15.1884 9.59375 12.0791 9.59375C8.96985 9.59375 6.38342 11.5566 5.81128 13.9116C5.81342 13.9223 5.81771 13.9309 5.82199 13.9416C6.39199 11.6016 8.97628 9.65161 12.0791 9.65161V9.64946Z" fill="#4DC0E7"/>
<path d="M12.0792 9.6496C8.97631 9.6496 6.39202 11.5996 5.82202 13.9396C5.82416 13.9482 5.82845 13.9546 5.83059 13.9632C6.40059 11.6403 8.97845 9.69889 12.0792 9.69889C15.1799 9.69889 17.762 11.6382 18.332 13.9632C18.3342 13.9546 18.3384 13.9482 18.3406 13.9396C17.7706 11.5975 15.1842 9.64746 12.0813 9.64746L12.0792 9.6496Z" fill="#56C2E8"/>
<path d="M12.0815 9.75016C15.1758 9.75016 17.7537 11.6766 18.3237 13.9866C18.3258 13.978 18.3301 13.9716 18.3322 13.963C17.7622 11.638 15.1801 9.69873 12.0794 9.69873C8.97867 9.69873 6.40081 11.6402 5.83081 13.963C5.83295 13.9716 5.83724 13.9802 5.83938 13.9887C6.40938 11.6787 8.98938 9.7523 12.0837 9.7523L12.0815 9.75016Z" fill="#5EC4E8"/>
<path d="M12.0814 9.75C8.9893 9.75 6.4093 11.6786 5.83716 13.9864C5.8393 13.9971 5.84359 14.0057 5.84787 14.0164C6.41573 11.7214 8.9893 9.80571 12.0793 9.80571C15.1693 9.80571 17.745 11.7214 18.3129 14.0164C18.3172 14.0057 18.3193 13.9971 18.3236 13.9864C17.7536 11.6764 15.1757 9.75 12.0814 9.75Z" fill="#65C6E9"/>
<path d="M12.0791 9.85709C15.1648 9.85709 17.7362 11.7599 18.3041 14.0399C18.3062 14.0314 18.3105 14.0228 18.3127 14.0164C17.7448 11.7214 15.1691 9.80566 12.0791 9.80566C8.98908 9.80566 6.41766 11.7214 5.84766 14.0164C5.8498 14.025 5.85408 14.0314 5.85623 14.0399C6.42408 11.7621 8.99337 9.85709 12.0791 9.85709Z" fill="#6DC7EA"/>
<path d="M12.0793 9.85693C8.99359 9.85693 6.4243 11.7619 5.85645 14.0398C5.85859 14.0484 5.86287 14.0569 5.86502 14.0655C6.43502 11.8026 9.0043 9.91265 12.0814 9.91265C15.1586 9.91265 17.7257 11.8026 18.2957 14.0655C18.2979 14.0569 18.3022 14.0484 18.3043 14.0398C17.7364 11.7619 15.165 9.85693 12.0793 9.85693Z" fill="#74C9EA"/>
<path d="M12.0796 9.96617C15.1567 9.96617 17.7196 11.8476 18.2874 14.0955C18.2917 14.0847 18.2939 14.0762 18.2981 14.0655C17.7281 11.8026 15.161 9.9126 12.0839 9.9126C9.00672 9.9126 6.43743 11.8026 5.86743 14.0655C5.87172 14.074 5.87386 14.0847 5.87815 14.0933C6.446 11.8455 9.00672 9.96403 12.0817 9.96403L12.0796 9.96617Z" fill="#7ACBEB"/>
<path d="M12.0793 9.96631C9.0043 9.96631 6.44145 11.8477 5.87573 14.0956C5.87788 14.1042 5.88216 14.1106 5.8843 14.1192C6.45216 11.8885 9.01073 10.0199 12.0814 10.0199C15.1522 10.0199 17.7129 11.8885 18.2807 14.1192C18.2829 14.1106 18.285 14.1042 18.2893 14.0956C17.7214 11.8477 15.1586 9.96631 12.0814 9.96631H12.0793Z" fill="#81CDEC"/>
<path d="M12.0816 10.0736C15.1459 10.0736 17.7023 11.9272 18.2702 14.1429C18.2723 14.1343 18.2766 14.1257 18.2788 14.1193C17.7109 11.8864 15.1502 10.02 12.0795 10.02C9.00875 10.02 6.45018 11.8886 5.88232 14.1193C5.88447 14.1279 5.88875 14.1364 5.8909 14.1429C6.45875 11.9272 9.01732 10.0736 12.0816 10.0736Z" fill="#87CFEC"/>
<path d="M12.0816 10.0734C9.0173 10.0734 6.45873 11.927 5.89087 14.1427C5.89301 14.1513 5.8973 14.1599 5.89944 14.1663C6.4673 11.9677 9.01944 10.1249 12.0794 10.1249C15.1394 10.1249 17.6937 11.9699 18.2594 14.1706C18.2637 14.1599 18.2659 14.1513 18.2702 14.1406C17.7023 11.9249 15.148 10.0713 12.0816 10.0713V10.0734Z" fill="#8ED1ED"/>
<path d="M12.0768 10.1807C15.1368 10.1807 17.6868 12.015 18.2504 14.2007C18.2547 14.1921 18.2568 14.1814 18.2611 14.1707C17.6954 11.97 15.1411 10.125 12.0811 10.125C9.02112 10.125 6.46898 11.9679 5.90112 14.1664C5.90541 14.175 5.90755 14.1857 5.90969 14.1943C6.47541 12.0107 9.01898 10.1807 12.0768 10.1807Z" fill="#94D3EE"/>
<path d="M12.0771 10.1807C9.0192 10.1807 6.47563 12.0128 5.90991 14.1942C5.91205 14.2028 5.91634 14.2114 5.91848 14.22C6.4842 12.0514 9.02991 10.23 12.0792 10.23C15.1285 10.23 17.6785 12.0535 18.2421 14.2242C18.2442 14.2157 18.2463 14.2092 18.2506 14.2007C17.6871 12.0149 15.1371 10.1807 12.0771 10.1807Z" fill="#9AD5EF"/>
<path d="M12.0792 10.2857C15.1242 10.2857 17.6677 12.0943 18.2335 14.2478C18.2356 14.2393 18.2399 14.2328 18.242 14.2243C17.6785 12.0536 15.1306 10.23 12.0792 10.23C9.02774 10.23 6.48417 12.0514 5.91846 14.22C5.9206 14.2286 5.92489 14.235 5.92703 14.2436C6.49489 12.0921 9.03631 10.2857 12.0792 10.2857Z" fill="#A0D7F0"/>
<path d="M12.0794 10.2856C9.03653 10.2856 6.4951 12.0921 5.92725 14.2435C5.92939 14.2521 5.93367 14.2606 5.93796 14.2692C6.50367 12.1349 9.03653 10.3414 12.0772 10.3414C15.118 10.3414 17.6572 12.1371 18.223 14.2735C18.2272 14.2649 18.2294 14.2564 18.2337 14.2478C17.668 12.0942 15.1244 10.2856 12.0794 10.2856Z" fill="#A6D9F0"/>
<path d="M12.0794 10.3906C15.1137 10.3906 17.6466 12.1735 18.2144 14.2949C18.2166 14.2885 18.2208 14.2799 18.223 14.2735C17.6573 12.1349 15.1201 10.3413 12.0773 10.3413C9.03442 10.3413 6.5037 12.1349 5.93799 14.2692C5.94013 14.2777 5.94442 14.2842 5.94656 14.2927C6.51656 12.1756 9.04727 10.3927 12.0794 10.3927V10.3906Z" fill="#ACDCF1"/>
<path d="M12.0794 10.3906C9.04725 10.3906 6.51439 12.1735 5.94653 14.2906C5.94868 14.2971 5.95296 14.3056 5.9551 14.3121C6.5251 12.2099 9.05153 10.4421 12.0794 10.4421C15.1072 10.4421 17.638 12.2121 18.2058 14.3163C18.208 14.3099 18.2122 14.3013 18.2144 14.2949C17.6465 12.1735 15.1137 10.3906 12.0794 10.3906Z" fill="#B2DEF2"/>
<path d="M12.0791 10.4981C15.1027 10.4981 17.6248 12.2531 18.197 14.3402C18.1991 14.3317 18.2034 14.3252 18.2055 14.3167C17.6377 12.2124 15.1091 10.4424 12.0791 10.4424C9.04912 10.4424 6.52483 12.2102 5.95483 14.3124C5.95912 14.321 5.96126 14.3295 5.96555 14.3381C6.53555 12.2531 9.05769 10.496 12.0791 10.496V10.4981Z" fill="#B8E0F3"/>
<path d="M12.0791 10.498C9.05558 10.498 6.53343 12.253 5.96558 14.3402C5.96772 14.3488 5.972 14.3552 5.97415 14.3638C6.54629 12.2959 9.06415 10.5516 12.0791 10.5516C15.0941 10.5516 17.6163 12.2959 18.1863 14.368C18.1906 14.3595 18.1927 14.3509 18.197 14.3423C17.627 12.2552 15.1027 10.5002 12.0791 10.5002V10.498Z" fill="#BDE2F4"/>
<path d="M12.0794 10.6052C15.0901 10.6052 17.6058 12.3345 18.1779 14.3874C18.1801 14.3788 18.1844 14.3724 18.1865 14.3638C17.6165 12.2916 15.0986 10.5474 12.0794 10.5474C9.06008 10.5474 6.54437 12.2895 5.97437 14.3595C5.97651 14.3659 5.98079 14.3745 5.98294 14.3809C6.55722 12.3281 9.07079 10.6031 12.0794 10.6031V10.6052Z" fill="#C3E5F5"/>
<path d="M12.0793 10.605C9.07077 10.605 6.55505 12.3321 5.98291 14.3828C5.98505 14.3893 5.98934 14.3978 5.99148 14.4043C6.56577 12.3707 9.07505 10.6564 12.0793 10.6564C15.0836 10.6564 17.5951 12.3728 18.1672 14.4086C18.1693 14.4021 18.1736 14.3936 18.1758 14.3871C17.6058 12.3321 15.0901 10.605 12.0772 10.605H12.0793Z" fill="#C9E7F5"/>
<path d="M12.0817 10.7101C15.0796 10.7101 17.5846 12.4115 18.1588 14.4323C18.161 14.4258 18.1653 14.4173 18.1674 14.4108C17.5953 12.373 15.086 10.6587 12.0796 10.6587C9.07313 10.6587 6.56598 12.373 5.9917 14.4065C5.99598 14.4151 5.99813 14.4237 6.00241 14.4344C6.5767 12.4158 9.08384 10.7123 12.0817 10.7123V10.7101Z" fill="#CEE9F6"/>
<path d="M12.0815 10.71C9.08363 10.71 6.57648 12.4135 6.0022 14.4321C6.00434 14.4385 6.00863 14.4471 6.01077 14.4535C6.5872 12.45 9.08791 10.7614 12.0793 10.7614C15.0708 10.7614 17.5758 12.4521 18.1479 14.4578C18.1522 14.4492 18.1543 14.4407 18.1586 14.4321C17.5843 12.4114 15.0793 10.71 12.0815 10.71Z" fill="#D4ECF7"/>
<path d="M12.0791 10.8151C15.0684 10.8151 17.5648 12.493 18.1391 14.4815C18.1412 14.4751 18.1455 14.4665 18.1476 14.4601C17.5734 12.4544 15.0705 10.7637 12.0791 10.7637C9.08764 10.7637 6.58693 12.4522 6.0105 14.4558C6.01264 14.4622 6.01693 14.4708 6.01907 14.4772C6.5955 12.493 9.09193 10.8151 12.0791 10.8151Z" fill="#DAEEF8"/>
<path d="M12.0793 10.8149C9.09214 10.8149 6.59572 12.4928 6.01929 14.4771C6.02357 14.4857 6.02572 14.4942 6.03 14.5049C6.60643 12.5357 9.10286 10.8707 12.0814 10.8707C15.06 10.8707 17.5543 12.5335 18.1307 14.5049C18.1329 14.4985 18.1371 14.4899 18.1393 14.4814C17.565 12.4928 15.0664 10.8149 12.0793 10.8149Z" fill="#DFF1F9"/>
<path d="M12.0772 10.9199C15.0558 10.9199 17.5458 12.5742 18.1201 14.5327C18.1244 14.5242 18.1287 14.5135 18.1329 14.5049C17.5565 12.5335 15.0622 10.8706 12.0837 10.8706C9.10508 10.8706 6.60866 12.5356 6.03223 14.5049C6.03437 14.5113 6.03865 14.5199 6.0408 14.5263C6.61937 12.572 9.10294 10.9199 12.0772 10.9199Z" fill="#E5F3FA"/>
<path d="M12.077 10.9199C9.10267 10.9199 6.61696 12.5721 6.04053 14.5264C6.04267 14.5328 6.04696 14.5392 6.0491 14.5478C6.62981 12.6128 9.1091 10.9756 12.077 10.9756C15.0448 10.9756 17.5327 12.6149 18.1091 14.5542C18.1112 14.5478 18.1155 14.5392 18.1198 14.5328C17.5455 12.5764 15.0555 10.9199 12.077 10.9199Z" fill="#EBF6FB"/>
<path d="M12.0794 11.0272C15.0429 11.0272 17.5201 12.6536 18.1008 14.5736C18.1029 14.5672 18.1072 14.5586 18.1115 14.5522C17.5351 12.6129 15.0494 10.9736 12.0794 10.9736C9.10937 10.9736 6.63223 12.6108 6.05151 14.5458C6.0558 14.5543 6.06008 14.5629 6.06223 14.5715C6.64294 12.6536 9.12009 11.0272 12.0815 11.0272H12.0794Z" fill="#F1F8FD"/>
<path d="M12.0791 11.0273C9.11767 11.0273 6.64053 12.6516 6.05981 14.5716C6.06196 14.5781 6.06624 14.5866 6.07053 14.5931C6.65339 12.6902 9.12624 11.0809 12.0791 11.0809C15.032 11.0809 17.5091 12.6923 18.0898 14.5952C18.092 14.5888 18.0962 14.5823 18.0984 14.5738C17.5198 12.6516 15.0405 11.0273 12.077 11.0273H12.0791Z" fill="#F7FBFE"/>
<path d="M18.9688 11.9746C18.9688 8.1882 15.8895 5.11963 12.0816 5.11963C8.27376 5.11963 5.19019 8.18606 5.19019 11.9746C5.19019 12.3496 5.22233 12.7182 5.28019 13.0761C5.28233 13.0953 5.28661 13.1125 5.2909 13.1296C5.29519 13.1489 5.29733 13.1703 5.30161 13.1896C5.3059 13.2068 5.30804 13.2261 5.31233 13.2432C5.31661 13.2625 5.31876 13.2839 5.32304 13.3032C5.32733 13.3203 5.32947 13.3396 5.33161 13.3568C5.3359 13.3739 5.34019 13.3911 5.34447 13.4103C5.34876 13.4253 5.3509 13.4403 5.35519 13.4575C5.35947 13.4725 5.36161 13.4896 5.3659 13.5046C5.37019 13.5218 5.37447 13.5389 5.37876 13.5582C5.38304 13.5732 5.38519 13.5903 5.38947 13.6053C5.39376 13.6246 5.39804 13.6439 5.40233 13.6611C5.40661 13.6761 5.4109 13.6932 5.41519 13.7082C5.41947 13.7253 5.4259 13.7403 5.43019 13.7575C5.43447 13.7725 5.43876 13.7853 5.44304 13.8003C5.44733 13.8153 5.45161 13.8282 5.4559 13.8432C5.46019 13.8603 5.46447 13.8753 5.4709 13.8925C5.47519 13.9075 5.47947 13.9203 5.48376 13.9353C5.48804 13.9525 5.49233 13.9675 5.49876 13.9846C5.50304 13.9975 5.50733 14.0125 5.51161 14.0253C5.5159 14.0403 5.52233 14.0532 5.52661 14.0682C5.5309 14.0811 5.53519 14.0939 5.53947 14.1068C5.54376 14.1196 5.54804 14.1325 5.55233 14.1453C5.55661 14.1603 5.56304 14.1753 5.56733 14.1925C5.57161 14.2053 5.5759 14.2203 5.58019 14.2332C5.58661 14.2482 5.5909 14.2632 5.59519 14.2803C5.59947 14.2932 5.60376 14.3082 5.60804 14.3211C5.61233 14.3361 5.61876 14.3489 5.62519 14.3639C5.62947 14.3768 5.63376 14.3875 5.64019 14.4003C5.64447 14.4132 5.6509 14.4282 5.65733 14.4411C5.66161 14.4539 5.6659 14.4646 5.67233 14.4775C5.67661 14.4882 5.6809 14.5011 5.68733 14.5118C5.69161 14.5203 5.69376 14.5289 5.69804 14.5375C5.70019 14.5439 5.70233 14.5503 5.70661 14.5568C5.70876 14.5632 5.7109 14.5696 5.71519 14.5782C5.71947 14.5868 5.72161 14.5953 5.7259 14.6039C5.72804 14.6103 5.73019 14.6168 5.73447 14.6232C5.73661 14.6296 5.73876 14.6361 5.74304 14.6446C5.74733 14.6532 5.74947 14.6596 5.75376 14.6682C5.7559 14.6746 5.76019 14.6811 5.76233 14.6853C5.76447 14.6918 5.76876 14.6982 5.7709 14.7046C5.77519 14.7132 5.77733 14.7196 5.78161 14.7282C5.78376 14.7346 5.78804 14.7411 5.79019 14.7453C5.79233 14.7518 5.79661 14.7582 5.79876 14.7646C5.8009 14.7711 5.80519 14.7775 5.80733 14.7839C5.81161 14.7925 5.81376 14.7989 5.81804 14.8075C5.82019 14.8139 5.82447 14.8203 5.82661 14.8268C5.82876 14.8332 5.83304 14.8396 5.83519 14.8461C5.83947 14.8525 5.84161 14.8611 5.8459 14.8696C5.84804 14.8761 5.85233 14.8825 5.85447 14.8889C5.85661 14.8953 5.8609 14.9018 5.86304 14.9082C5.86733 14.9146 5.86947 14.9232 5.87376 14.9318C5.8759 14.9382 5.88019 14.9446 5.88233 14.9511C5.88447 14.9575 5.88876 14.9618 5.8909 14.9682C5.89304 14.9746 5.89733 14.9789 5.89947 14.9853C5.90376 14.9918 5.9059 14.9982 5.91019 15.0068C5.91233 15.0132 5.91661 15.0175 5.91876 15.0239C5.9209 15.0303 5.92519 15.0346 5.92733 15.0411C5.93161 15.0475 5.93376 15.0561 5.93804 15.0625C5.94019 15.0689 5.94447 15.0732 5.94661 15.0796C5.94876 15.0861 5.95304 15.0903 5.95519 15.0968C5.95947 15.1032 5.96161 15.1118 5.9659 15.1182C5.96804 15.1246 5.97233 15.1289 5.97447 15.1353C6.1909 15.5511 6.44804 15.9432 6.74161 16.3032C6.74161 16.3032 6.74161 16.3032 6.74376 16.3053C6.74376 16.3053 6.7459 16.3096 6.74804 16.3118C6.74804 16.3118 6.74804 16.3118 6.75019 16.3139C6.75019 16.3139 6.75233 16.3182 6.75447 16.3203C6.75447 16.3203 6.75661 16.3225 6.75876 16.3246C6.75876 16.3246 6.7609 16.3268 6.76304 16.3289C6.76304 16.3289 6.76304 16.3289 6.76519 16.3311C6.76519 16.3311 6.76519 16.3332 6.76733 16.3353C6.76733 16.3353 6.76733 16.3375 6.76947 16.3396C6.76947 16.3396 6.76947 16.3418 6.77161 16.3439C6.77161 16.3439 6.77161 16.3461 6.7759 16.3482C6.7759 16.3482 6.7759 16.3482 6.77804 16.3503C6.77804 16.3503 6.77804 16.3503 6.78019 16.3525C6.78019 16.3525 6.78233 16.3546 6.78447 16.3568C6.78447 16.3568 6.78447 16.3568 6.78661 16.3589C6.78661 16.3589 6.78661 16.3611 6.78876 16.3632C6.78876 16.3632 6.78876 16.3632 6.7909 16.3653C6.7909 16.3653 6.7909 16.3653 6.7909 16.3675C6.7909 16.3675 6.7909 16.3696 6.79304 16.3718C6.79304 16.3718 6.79304 16.3718 6.79304 16.3739C6.79304 16.3739 6.79519 16.3761 6.79733 16.3782C6.79733 16.3782 6.79733 16.3782 6.79947 16.3803C6.79947 16.3803 6.80161 16.3825 6.80376 16.3846C6.8059 16.3889 6.81019 16.3911 6.81233 16.3953C6.81447 16.3975 6.81661 16.4018 6.81876 16.4039C6.82304 16.4082 6.82519 16.4125 6.82947 16.4168C6.83161 16.4211 6.8359 16.4232 6.83804 16.4275C6.84019 16.4296 6.84233 16.4318 6.84447 16.4361C6.84661 16.4403 6.8509 16.4425 6.85304 16.4468C6.85519 16.4489 6.85947 16.4532 6.86161 16.4553C6.86376 16.4575 6.8659 16.4618 6.86804 16.4639C6.87019 16.4661 6.87447 16.4703 6.87661 16.4725C6.87876 16.4768 6.88304 16.4789 6.88519 16.4832C6.88733 16.4853 6.88947 16.4896 6.89161 16.4918C6.89376 16.4961 6.89804 16.4982 6.90019 16.5025C6.90233 16.5046 6.90447 16.5089 6.90876 16.5111C6.9109 16.5132 6.91304 16.5175 6.91733 16.5196C6.91947 16.5218 6.92376 16.5261 6.9259 16.5282C6.92804 16.5325 6.93233 16.5346 6.93447 16.5389C6.93661 16.5411 6.93876 16.5453 6.9409 16.5475C6.94304 16.5496 6.94733 16.5539 6.94947 16.5582C6.95161 16.5603 6.9559 16.5646 6.95804 16.5689C6.96019 16.5711 6.96233 16.5753 6.96661 16.5775C6.96876 16.5796 6.97304 16.5839 6.97519 16.5882C6.97733 16.5925 6.98161 16.5946 6.98376 16.5989C6.9859 16.6011 6.98804 16.6032 6.99019 16.6053C6.99447 16.6096 6.99661 16.6118 7.0009 16.6161C7.00304 16.6203 7.00733 16.6225 7.00947 16.6246C7.01161 16.6289 7.0159 16.6311 7.01804 16.6332C7.02018 16.6375 7.02447 16.6396 7.02661 16.6418C7.02876 16.6439 7.03304 16.6482 7.03519 16.6503C7.03733 16.6525 7.04161 16.6568 7.04376 16.6589C7.0459 16.6611 7.05018 16.6653 7.05233 16.6675C7.05447 16.6718 7.05876 16.6739 7.0609 16.6782C8.3209 18.0089 10.1038 18.8403 12.0816 18.8403C14.0595 18.8403 15.8466 18.0046 17.1045 16.6718C17.1066 16.6696 17.1109 16.6653 17.113 16.6632C17.1152 16.6589 17.1195 16.6568 17.1216 16.6525C17.1238 16.6503 17.128 16.6461 17.1302 16.6439C17.1323 16.6396 17.1366 16.6375 17.1388 16.6353C17.1409 16.6311 17.1452 16.6289 17.1473 16.6268C17.1495 16.6225 17.1538 16.6203 17.1559 16.6182C17.158 16.6161 17.1602 16.6139 17.1623 16.6096C17.1623 16.6096 17.1645 16.6075 17.1666 16.6053C17.1666 16.6053 17.1709 16.6011 17.173 16.5989C17.1752 16.5946 17.1795 16.5925 17.1816 16.5882C17.1838 16.5861 17.1859 16.5839 17.188 16.5796C17.1923 16.5753 17.1945 16.5711 17.1988 16.5689C17.2009 16.5668 17.203 16.5625 17.2052 16.5603C17.2073 16.5582 17.2095 16.5539 17.2116 16.5518C17.2138 16.5496 17.218 16.5453 17.2202 16.5432C17.2223 16.5389 17.2266 16.5368 17.2288 16.5325C17.2309 16.5303 17.233 16.5261 17.2373 16.5239C17.2395 16.5218 17.2416 16.5175 17.2459 16.5153C17.2502 16.5111 17.2523 16.5068 17.2566 16.5046C17.2588 16.5025 17.2609 16.4982 17.2652 16.4961C17.2673 16.4939 17.2695 16.4896 17.2738 16.4875C17.2759 16.4853 17.2802 16.4811 17.2823 16.4789C17.2845 16.4746 17.2888 16.4725 17.2909 16.4682C17.293 16.4661 17.2973 16.4618 17.2995 16.4596C17.3016 16.4553 17.3059 16.4532 17.308 16.4489C17.3102 16.4468 17.3123 16.4446 17.3145 16.4403C17.3166 16.4382 17.3188 16.4339 17.323 16.4318C17.3252 16.4275 17.3295 16.4253 17.3316 16.4211C17.3338 16.4189 17.3359 16.4146 17.338 16.4125C17.3402 16.4103 17.3423 16.4061 17.3466 16.4039C17.3488 16.3996 17.353 16.3975 17.3552 16.3932C17.3552 16.3932 17.3573 16.3911 17.3595 16.3889C17.3595 16.3889 17.3595 16.3889 17.3616 16.3868C17.3616 16.3868 17.3638 16.3846 17.3659 16.3825C17.3659 16.3825 17.3659 16.3825 17.368 16.3803C17.368 16.3803 17.368 16.3803 17.3702 16.3782C17.3702 16.3782 17.3702 16.3782 17.3723 16.3761C17.3723 16.3761 17.3723 16.3739 17.3745 16.3718C17.3745 16.3718 17.3745 16.3696 17.3766 16.3675C17.3766 16.3675 17.3766 16.3675 17.3788 16.3653C17.3788 16.3653 17.3788 16.3632 17.3809 16.3611C17.3809 16.3611 17.383 16.3589 17.3852 16.3568C17.3852 16.3568 17.3852 16.3546 17.3873 16.3525C17.3873 16.3525 17.3895 16.3482 17.3916 16.3482C17.3916 16.3482 17.3916 16.3461 17.3938 16.3439C17.3938 16.3439 17.3959 16.3418 17.398 16.3396C17.398 16.3396 17.398 16.3396 17.4002 16.3375C17.4002 16.3375 17.4023 16.3353 17.4045 16.3332C17.4045 16.3332 17.4045 16.3311 17.4066 16.3289C17.4066 16.3289 17.4088 16.3246 17.4109 16.3246C17.4109 16.3246 17.4109 16.3246 17.4109 16.3225C17.4109 16.3225 17.413 16.3182 17.4152 16.3182C17.4152 16.3182 17.4173 16.3161 17.4195 16.3139C17.4195 16.3139 17.4216 16.3118 17.4238 16.3096C17.4238 16.3096 17.4259 16.3075 17.428 16.3053C17.428 16.3053 17.4302 16.3032 17.4323 16.3011C17.4323 16.3011 17.4345 16.2989 17.4366 16.2968C17.4366 16.2968 17.4388 16.2946 17.4409 16.2925C17.4409 16.2925 17.443 16.2903 17.4452 16.2882C17.4452 16.2882 17.4452 16.2882 17.4452 16.2861C17.7323 15.9325 17.983 15.5489 18.1952 15.1418C18.1973 15.1353 18.2016 15.1311 18.2038 15.1246C18.2059 15.1182 18.2102 15.1139 18.2123 15.1075C18.2145 15.1011 18.2188 15.0968 18.2209 15.0903C18.2252 15.0818 18.2295 15.0732 18.2338 15.0646C18.2359 15.0582 18.2402 15.0539 18.2423 15.0475C18.2445 15.0411 18.2488 15.0368 18.2509 15.0303C18.2552 15.0239 18.2573 15.0175 18.2616 15.0089C18.2638 15.0025 18.268 14.9982 18.2702 14.9918C18.2723 14.9853 18.2766 14.9811 18.2788 14.9746C18.2809 14.9682 18.2852 14.9639 18.2873 14.9575C18.2916 14.9511 18.2938 14.9425 18.298 14.9339C18.3002 14.9275 18.3045 14.9211 18.3066 14.9146C18.3088 14.9082 18.3109 14.9018 18.3152 14.8975C18.3173 14.8911 18.3195 14.8846 18.3238 14.8803C18.328 14.8718 18.3302 14.8653 18.3345 14.8568C18.3366 14.8503 18.3409 14.8439 18.343 14.8375C18.3452 14.8311 18.3495 14.8246 18.3516 14.8203C18.3559 14.8118 18.358 14.8053 18.3623 14.7968C18.3666 14.7882 18.3688 14.7818 18.373 14.7732C18.3752 14.7668 18.3795 14.7603 18.3816 14.7539C18.3838 14.7475 18.388 14.7411 18.3902 14.7368C18.3945 14.7282 18.3966 14.7218 18.4009 14.7132C18.403 14.7068 18.4073 14.7003 18.4095 14.6939C18.4116 14.6875 18.4159 14.6811 18.418 14.6746C18.4223 14.6661 18.4245 14.6596 18.4288 14.6511C18.4309 14.6446 18.433 14.6382 18.4373 14.6318C18.4395 14.6253 18.4416 14.6189 18.4459 14.6125C18.448 14.6061 18.4523 14.5975 18.4545 14.5911C18.4588 14.5825 18.4609 14.5739 18.4652 14.5653C18.4673 14.5589 18.4695 14.5525 18.4738 14.5439C18.4759 14.5375 18.4802 14.5311 18.4823 14.5225C18.4888 14.5075 18.4952 14.4925 18.4995 14.4775C18.5059 14.4646 18.5102 14.4496 18.5166 14.4368C18.5209 14.4239 18.5273 14.4089 18.5338 14.3961C18.538 14.3832 18.5423 14.3725 18.5488 14.3596C18.5552 14.3446 18.5595 14.3318 18.5638 14.3168C18.5702 14.2996 18.5745 14.2825 18.5809 14.2653C18.5873 14.2503 18.5916 14.2353 18.5959 14.2182C18.6002 14.2053 18.6045 14.1903 18.6088 14.1775C18.6152 14.1603 18.6216 14.1432 18.6259 14.1261C18.6302 14.1111 18.6366 14.0961 18.6409 14.0811C18.6452 14.0661 18.6516 14.0532 18.6559 14.0382C18.6602 14.0232 18.6645 14.0082 18.6709 13.9911C18.6752 13.9739 18.6795 13.9589 18.6859 13.9418C18.6902 13.9268 18.6945 13.9096 18.6988 13.8946C18.7052 13.8753 18.7095 13.8582 18.7138 13.8389C18.718 13.8218 18.7223 13.8068 18.7288 13.7896C18.733 13.7746 18.7373 13.7618 18.7416 13.7468C18.748 13.7253 18.7545 13.7039 18.7588 13.6825C18.763 13.6675 18.7652 13.6503 18.7695 13.6332C18.7738 13.6161 18.778 13.5989 18.7823 13.5796C18.7866 13.5625 18.7909 13.5453 18.7952 13.5261C18.7995 13.5068 18.8038 13.4875 18.808 13.4682C18.8123 13.4532 18.8145 13.4361 18.8188 13.4211C18.823 13.4018 18.8273 13.3825 18.8316 13.3611C18.8359 13.3439 18.838 13.3246 18.8423 13.3053C18.8466 13.2818 18.8509 13.2603 18.8552 13.2368C18.8595 13.2153 18.8616 13.1961 18.8659 13.1746C18.8702 13.1553 18.8723 13.1339 18.8766 13.1146C18.8788 13.0975 18.883 13.0803 18.8852 13.0632C18.8895 13.0396 18.8938 13.0139 18.8959 12.9903C18.898 12.9711 18.9002 12.9518 18.9023 12.9346C18.9473 12.6196 18.9709 12.3003 18.9709 11.9725H18.9688V11.9746ZM18.6388 12.0646C18.6388 12.0861 18.6388 12.1053 18.6388 12.1268C18.6388 12.1568 18.6388 12.1868 18.6366 12.2146C18.6366 12.2382 18.6366 12.2596 18.6366 12.2832C18.6366 12.3068 18.6345 12.3282 18.6323 12.3518C18.6323 12.3732 18.628 12.3946 18.628 12.4161C18.628 12.4396 18.6238 12.4632 18.6216 12.4868C18.6216 12.5061 18.6195 12.5275 18.6173 12.5468C18.6173 12.5703 18.6152 12.5939 18.613 12.6175C18.613 12.6368 18.6088 12.6561 18.6066 12.6732C18.6045 12.6946 18.6002 12.7161 18.598 12.7375C18.5959 12.7568 18.5938 12.7782 18.5895 12.7975C18.5873 12.8168 18.5852 12.8382 18.5809 12.8575C18.5788 12.8746 18.5766 12.8939 18.5745 12.9111C18.5702 12.9346 18.568 12.9582 18.5638 12.9818C18.5616 12.9968 18.5573 13.0139 18.5552 13.0289C18.553 13.0461 18.5488 13.0653 18.5466 13.0825C18.5423 13.1018 18.5402 13.1211 18.5359 13.1403C18.5338 13.1575 18.5295 13.1746 18.5273 13.1918C18.523 13.2111 18.5209 13.2303 18.5166 13.2475C18.5123 13.2646 18.5102 13.2839 18.5059 13.3011C18.5016 13.3182 18.4973 13.3353 18.4952 13.3503C18.4909 13.3675 18.4866 13.3846 18.4845 13.4018C18.4802 13.4211 18.4759 13.4382 18.4716 13.4575C18.4673 13.4725 18.4652 13.4875 18.4609 13.5003C18.4566 13.5175 18.4545 13.5325 18.4502 13.5496C18.4459 13.5668 18.4416 13.5839 18.4373 13.6032C18.433 13.6182 18.4288 13.6332 18.4245 13.6482C18.4202 13.6611 18.4159 13.6739 18.4138 13.6868C18.4095 13.7018 18.4052 13.7168 18.4009 13.7296C18.3966 13.7446 18.3923 13.7618 18.388 13.7768C18.3838 13.7939 18.3795 13.8111 18.373 13.8261C18.3709 13.8346 18.3688 13.8432 18.3645 13.8539C18.3623 13.8625 18.3602 13.8732 18.3559 13.8818C18.3538 13.8925 18.3495 13.9011 18.3473 13.9118C18.3452 13.9203 18.3409 13.9289 18.3388 13.9375C18.3366 13.9461 18.3323 13.9525 18.3302 13.9611C18.328 13.9696 18.3238 13.9761 18.3216 13.9846C18.3195 13.9953 18.3152 14.0039 18.3109 14.0146C18.3088 14.0232 18.3045 14.0318 18.3023 14.0382C18.3002 14.0468 18.2959 14.0553 18.2938 14.0639C18.2895 14.0746 18.2873 14.0832 18.283 14.0939C18.2809 14.1025 18.2788 14.1089 18.2745 14.1175C18.2723 14.1261 18.268 14.1346 18.2659 14.1411C18.2616 14.1518 18.2595 14.1603 18.2552 14.1711C18.2509 14.1796 18.2488 14.1903 18.2445 14.2011C18.2423 14.2096 18.2402 14.2161 18.2359 14.2246C18.2338 14.2332 18.2295 14.2396 18.2273 14.2482C18.223 14.2568 18.2209 14.2653 18.2166 14.2739C18.2145 14.2803 18.2102 14.2889 18.208 14.2953C18.2059 14.3018 18.2016 14.3103 18.1995 14.3168C18.1973 14.3253 18.193 14.3318 18.1909 14.3403C18.1866 14.3489 18.1845 14.3575 18.1802 14.3661C18.178 14.3746 18.1738 14.3811 18.1716 14.3896C18.1695 14.3961 18.1652 14.4046 18.163 14.4111C18.1609 14.4175 18.1566 14.4261 18.1545 14.4325C18.1502 14.4411 18.148 14.4496 18.1438 14.4582C18.1416 14.4646 18.1373 14.4732 18.1352 14.4796C18.133 14.4882 18.1288 14.4946 18.1266 14.5032C18.1223 14.5118 18.118 14.5225 18.1138 14.5311C18.1116 14.5375 18.1073 14.5461 18.103 14.5525C18.1009 14.5589 18.0966 14.5675 18.0923 14.5739C18.0902 14.5803 18.0859 14.5868 18.0838 14.5953C17.8416 15.1461 17.5245 15.6582 17.1473 16.1168C17.1473 16.1168 17.1473 16.1168 17.1452 16.1189C17.1452 16.1189 17.143 16.1232 17.1409 16.1232C17.1409 16.1232 17.1388 16.1253 17.1366 16.1275C17.1366 16.1275 17.1345 16.1296 17.1323 16.1318C17.1323 16.1318 17.1302 16.1339 17.128 16.1361C17.128 16.1361 17.1259 16.1382 17.1238 16.1403C17.1238 16.1403 17.1216 16.1425 17.1195 16.1446C17.1195 16.1446 17.1173 16.1468 17.1152 16.1489C17.1152 16.1489 17.113 16.1511 17.1109 16.1532C17.1109 16.1532 17.1088 16.1575 17.1066 16.1575C17.1066 16.1575 17.1066 16.1596 17.1045 16.1618C17.1045 16.1618 17.1023 16.1639 17.1002 16.1661C17.1002 16.1661 17.1002 16.1661 17.098 16.1682C17.098 16.1682 17.0959 16.1703 17.0938 16.1725C17.0938 16.1725 17.0938 16.1746 17.0916 16.1768C17.0916 16.1768 17.0895 16.1811 17.0873 16.1811C17.0873 16.1811 17.0852 16.1832 17.083 16.1853C17.083 16.1853 17.0809 16.1875 17.0788 16.1896C17.0788 16.1896 17.0766 16.1918 17.0745 16.1939C17.0745 16.1939 17.0745 16.1939 17.0723 16.1961C17.0723 16.1961 17.0702 16.1982 17.068 16.2003C17.068 16.2003 17.068 16.2025 17.0659 16.2046C17.0659 16.2046 17.0659 16.2046 17.0638 16.2068C17.0638 16.2068 17.0638 16.2068 17.0616 16.2089C17.0616 16.2089 17.0616 16.2089 17.0595 16.2111C17.0595 16.2111 17.0595 16.2132 17.0573 16.2153C17.0573 16.2153 17.0573 16.2153 17.0552 16.2175C17.0552 16.2175 17.053 16.2196 17.0509 16.2218C17.0488 16.2261 17.0445 16.2282 17.0423 16.2325L17.0338 16.2411C17.0338 16.2411 17.0273 16.2475 17.0252 16.2496C17.0209 16.2539 17.0188 16.2582 17.0145 16.2603C17.0123 16.2625 17.008 16.2668 17.0059 16.2689C17.0038 16.2711 17.0016 16.2753 16.9995 16.2775C16.9973 16.2818 16.993 16.2839 16.9909 16.2882C16.9888 16.2925 16.9845 16.2946 16.9823 16.2989C16.9802 16.3032 16.9759 16.3053 16.9738 16.3096C16.9716 16.3139 16.9673 16.3161 16.9652 16.3203C16.963 16.3225 16.9588 16.3268 16.9566 16.3289C16.9545 16.3311 16.9523 16.3353 16.948 16.3375C16.9438 16.3418 16.9416 16.3461 16.9373 16.3503C16.9352 16.3525 16.9309 16.3568 16.9288 16.3589C16.9266 16.3611 16.9223 16.3653 16.9202 16.3675C16.9159 16.3718 16.9138 16.3739 16.9095 16.3782C16.9073 16.3825 16.903 16.3846 16.9009 16.3889C16.8988 16.3911 16.8945 16.3953 16.8923 16.3975C16.8902 16.3996 16.8859 16.4039 16.8838 16.4061C16.8795 16.4103 16.8752 16.4146 16.873 16.4189C16.873 16.4189 16.8688 16.4232 16.8666 16.4253C16.8709 16.4275 16.8752 16.4296 16.8795 16.4318C16.8752 16.4318 16.8709 16.4275 16.8645 16.4275C16.8602 16.4318 16.858 16.4339 16.8538 16.4382C16.8495 16.4425 16.8473 16.4446 16.843 16.4489C16.8409 16.4511 16.8366 16.4553 16.8345 16.4575C16.8302 16.4618 16.828 16.4639 16.8238 16.4682L16.813 16.4789C16.813 16.4789 16.8066 16.4853 16.8023 16.4896C16.8002 16.4918 16.7959 16.4961 16.7938 16.4982C16.7895 16.5025 16.7873 16.5046 16.783 16.5089C16.7788 16.5132 16.7766 16.5153 16.7723 16.5196C16.558 16.7382 16.3288 16.9418 16.0866 17.1282C16.078 17.1346 16.0716 17.1411 16.063 17.1475C15.9452 17.2375 15.823 17.3232 15.6988 17.4068C15.6923 17.4111 15.6859 17.4153 15.6795 17.4196C15.5659 17.4946 15.448 17.5653 15.328 17.6339C15.3109 17.6446 15.2938 17.6532 15.2745 17.6639C15.1459 17.7346 15.0173 17.8032 14.8823 17.8653C14.878 17.8653 14.8738 17.8696 14.8695 17.8718C14.7409 17.9318 14.6102 17.9875 14.4773 18.0389C14.4602 18.0453 14.443 18.0539 14.4238 18.0603C14.1409 18.1675 13.8495 18.2575 13.5495 18.3261C13.5409 18.3261 13.5323 18.3303 13.5238 18.3325C13.0566 18.4375 12.5723 18.4953 12.0752 18.4953H12.073C11.2373 18.4953 10.438 18.3389 9.70304 18.0539C9.41161 17.9425 9.1309 17.8096 8.8609 17.6596C8.85447 17.6553 8.84804 17.6511 8.83947 17.6468C8.7109 17.5739 8.58447 17.4968 8.46019 17.4153C8.45804 17.4153 8.45376 17.4111 8.45161 17.4089C8.32733 17.3275 8.20733 17.2418 8.08947 17.1518C8.07661 17.1411 8.06376 17.1325 8.0509 17.1218C7.9459 17.0403 7.84519 16.9568 7.74661 16.8711C7.73161 16.8582 7.71876 16.8475 7.70376 16.8346C7.59876 16.7403 7.4959 16.6439 7.39733 16.5432C7.39304 16.5389 7.38876 16.5346 7.38233 16.5303C7.37804 16.5261 7.3759 16.5239 7.37161 16.5196C7.36733 16.5153 7.36519 16.5132 7.36304 16.5089C7.3609 16.5068 7.35661 16.5025 7.35447 16.4982C7.35233 16.4961 7.35019 16.4939 7.34804 16.4918C7.34804 16.4918 7.3459 16.4896 7.34376 16.4875C7.33947 16.4832 7.33733 16.4811 7.33304 16.4768C7.32876 16.4725 7.32661 16.4703 7.32233 16.4661C7.31804 16.4618 7.3159 16.4596 7.31161 16.4553C7.30733 16.4511 7.30519 16.4489 7.3009 16.4446C7.29876 16.4425 7.29661 16.4403 7.29233 16.4361C7.28804 16.4318 7.2859 16.4296 7.28161 16.4253C7.27733 16.4211 7.27519 16.4189 7.2709 16.4146C7.26876 16.4125 7.26447 16.4082 7.26233 16.4061C7.25804 16.4018 7.2559 16.3996 7.25161 16.3953C7.24733 16.3911 7.24519 16.3889 7.2409 16.3846C7.23876 16.3825 7.23447 16.3782 7.23233 16.3761C7.22804 16.3718 7.2259 16.3696 7.22161 16.3653C7.21947 16.3611 7.21519 16.3589 7.2109 16.3546C7.20876 16.3525 7.20447 16.3482 7.20233 16.3461C7.20019 16.3439 7.1959 16.3396 7.19376 16.3375C7.19161 16.3332 7.18733 16.3311 7.18519 16.3268C7.18304 16.3246 7.17876 16.3203 7.17661 16.3182C7.17447 16.3139 7.17019 16.3118 7.16804 16.3075C7.1659 16.3032 7.16161 16.3011 7.15947 16.2968C7.15733 16.2946 7.15519 16.2903 7.1509 16.2882C7.14876 16.2839 7.14447 16.2818 7.14233 16.2775C7.14019 16.2732 7.1359 16.2711 7.13376 16.2668C7.13161 16.2646 7.12947 16.2603 7.12733 16.2582C7.12519 16.2539 7.1209 16.2518 7.11876 16.2475C7.11447 16.2432 7.11233 16.2389 7.10804 16.2346C7.1059 16.2325 7.10376 16.2282 7.10161 16.2261C7.09947 16.2218 7.09519 16.2196 7.09304 16.2153C7.09304 16.2153 7.0909 16.2132 7.08876 16.2111C7.08876 16.2111 7.08876 16.2111 7.08661 16.2089C7.08661 16.2089 7.08447 16.2068 7.08447 16.2046C7.08447 16.2046 7.08447 16.2046 7.08233 16.2025C7.08233 16.2025 7.08019 16.2003 7.07804 16.1982C7.07804 16.1982 7.07804 16.1982 7.0759 16.1961C7.0759 16.1961 7.0759 16.1961 7.07376 16.1939C7.07376 16.1939 7.07161 16.1918 7.06947 16.1896C7.06947 16.1896 7.06947 16.1896 7.06733 16.1875C7.06733 16.1875 7.06733 16.1853 7.06304 16.1832C7.06304 16.1832 7.06304 16.1832 7.0609 16.1811C7.0609 16.1811 7.0609 16.1789 7.05876 16.1768C7.05876 16.1768 7.05661 16.1746 7.05447 16.1725C7.05447 16.1725 7.05447 16.1703 7.05233 16.1682C7.05233 16.1682 7.05233 16.1661 7.05019 16.1639C7.05019 16.1639 7.05019 16.1618 7.04804 16.1596C7.04804 16.1596 7.04804 16.1596 7.0459 16.1575C7.0459 16.1575 7.04376 16.1553 7.04161 16.1532C7.04161 16.1532 7.03947 16.1511 7.03733 16.1489C7.03733 16.1489 7.03519 16.1446 7.03304 16.1446C7.03304 16.1446 7.03304 16.1446 7.0309 16.1425C7.0309 16.1425 7.02876 16.1382 7.02661 16.1382C7.02661 16.1382 7.02661 16.1382 7.02447 16.1361C6.94733 16.0439 6.87447 15.9496 6.80376 15.8553C6.78661 15.8318 6.77161 15.8082 6.75447 15.7868C6.69019 15.6968 6.6259 15.6046 6.5659 15.5103C6.54447 15.4782 6.52519 15.4461 6.50376 15.4161C6.43304 15.3046 6.36661 15.1889 6.30233 15.0732C6.28733 15.0453 6.27447 15.0175 6.25947 14.9896C6.21019 14.8953 6.16304 14.7968 6.11804 14.7003C6.10733 14.6768 6.09447 14.6553 6.0859 14.6339C6.0859 14.6339 6.0859 14.6339 6.08804 14.6339C6.08376 14.6232 6.07733 14.6103 6.07304 14.5996C6.0709 14.5932 6.06661 14.5846 6.06233 14.5782C6.05804 14.5696 6.05376 14.5611 6.05161 14.5525C6.04947 14.5461 6.04519 14.5396 6.04304 14.5311C6.0409 14.5246 6.03661 14.5161 6.03447 14.5096C6.03019 14.5011 6.02804 14.4925 6.02376 14.4818C6.02161 14.4753 6.01733 14.4668 6.01519 14.4603C6.01304 14.4539 6.00876 14.4453 6.00661 14.4389C6.00233 14.4303 6.00019 14.4218 5.9959 14.4111C5.99376 14.4046 5.98947 14.3961 5.98733 14.3896C5.98519 14.3832 5.9809 14.3746 5.97876 14.3682C5.97661 14.3596 5.97233 14.3532 5.97019 14.3446C5.9659 14.3361 5.96376 14.3275 5.95947 14.3189C5.95733 14.3125 5.95304 14.3039 5.9509 14.2975C5.94876 14.2889 5.94447 14.2825 5.94233 14.2739C5.93804 14.2653 5.9359 14.2568 5.93161 14.2482C5.92947 14.2396 5.92519 14.2332 5.92304 14.2246C5.9209 14.2161 5.91661 14.2075 5.91447 14.1989C5.91019 14.1903 5.90804 14.1796 5.9059 14.1711C5.90376 14.1625 5.89947 14.1539 5.89733 14.1475C5.89519 14.1389 5.8909 14.1303 5.88876 14.1239C5.88661 14.1153 5.88233 14.1089 5.88019 14.1003C5.8759 14.0918 5.87376 14.0811 5.86947 14.0725C5.86733 14.0639 5.86304 14.0553 5.8609 14.0468C5.85876 14.0382 5.85447 14.0318 5.85233 14.0232C5.84804 14.0125 5.8459 14.0039 5.84161 13.9932C5.83947 13.9846 5.83519 13.9761 5.83304 13.9675C5.8309 13.9589 5.82661 13.9525 5.82447 13.9439C5.82233 13.9332 5.81804 13.9246 5.81376 13.9139C5.81161 13.9053 5.80947 13.8968 5.80519 13.8861C5.80304 13.8775 5.8009 13.8689 5.79661 13.8603C5.79233 13.8496 5.79019 13.8389 5.78804 13.8282C5.78376 13.8153 5.77947 13.8003 5.77733 13.7875C5.77304 13.7746 5.76876 13.7596 5.76447 13.7468C5.76019 13.7318 5.7559 13.7168 5.75161 13.7018C5.74733 13.6889 5.74304 13.6761 5.7409 13.6632C5.73661 13.6482 5.73233 13.6332 5.72804 13.6203C5.72376 13.6053 5.72161 13.5925 5.71733 13.5775C5.71304 13.5603 5.7109 13.5453 5.70661 13.5282C5.70233 13.5132 5.70019 13.4982 5.6959 13.4832C5.69161 13.4661 5.68733 13.4511 5.68519 13.4339C5.6809 13.4189 5.67876 13.4061 5.67447 13.3911C5.67019 13.3761 5.66804 13.3611 5.66376 13.3461C5.65947 13.3289 5.65519 13.3139 5.65304 13.2968C5.64876 13.2796 5.64661 13.2646 5.64447 13.2475C5.64019 13.2282 5.63804 13.2111 5.63376 13.1918C5.63161 13.1746 5.62733 13.1596 5.62519 13.1425C5.62304 13.1253 5.61876 13.1061 5.61661 13.0889C5.61447 13.0739 5.61019 13.0568 5.60804 13.0418C5.6059 13.0268 5.60161 13.0096 5.59947 12.9946C5.59733 12.9753 5.59304 12.9561 5.5909 12.9368C5.58876 12.9196 5.58661 12.9003 5.58447 12.8832C5.58233 12.8639 5.58019 12.8446 5.5759 12.8253C5.57376 12.8082 5.57161 12.7889 5.56947 12.7718C5.56733 12.7503 5.56304 12.7311 5.5609 12.7118C5.5609 12.6925 5.55661 12.6753 5.55447 12.6561C5.55447 12.6346 5.55233 12.6153 5.55019 12.5939C5.55019 12.5725 5.54804 12.5511 5.5459 12.5296C5.5459 12.5103 5.54376 12.4911 5.54161 12.4718C5.54161 12.4503 5.53733 12.4289 5.53733 12.4075C5.53733 12.3882 5.53304 12.3668 5.53304 12.3475C5.53304 12.3239 5.53304 12.3025 5.5309 12.2789C5.5309 12.2575 5.5309 12.2339 5.5309 12.2103C5.52876 12.1353 5.52447 12.0582 5.52447 11.9832C5.52447 8.37677 8.46019 5.44963 12.0838 5.44963C15.7073 5.44963 18.6452 8.37463 18.6452 11.9832C18.6452 12.0132 18.6452 12.0432 18.643 12.0732L18.6388 12.0646Z" fill="white"/>
<path d="M12.0794 13.622H12.0815C14.3079 13.622 16.3715 13.9949 18.0751 14.6291C17.8329 15.167 17.5201 15.6663 17.1494 16.1141C17.1494 16.1141 17.1515 16.1141 17.1537 16.1163C17.5329 15.6577 17.8479 15.1456 18.0901 14.5949C17.5094 12.6899 15.0344 11.0806 12.0794 11.0806C9.12437 11.0806 6.65366 12.6899 6.0708 14.5927C6.07509 14.6034 6.08152 14.6163 6.0858 14.627C7.79366 13.9927 9.85509 13.6199 12.0794 13.6199V13.622Z" fill="white"/>
<path d="M18.0752 14.6292C16.3716 13.9949 14.308 13.6221 12.0816 13.6221H12.0795C9.85517 13.6221 7.79374 13.9949 6.08588 14.6292C6.08588 14.6292 6.08588 14.6292 6.08374 14.6292C6.09445 14.6528 6.10731 14.6742 6.11588 14.6956C6.16088 14.7942 6.20803 14.8906 6.25731 14.9849C6.27231 15.0128 6.28517 15.0406 6.30017 15.0685C6.36445 15.1842 6.43088 15.2999 6.5016 15.4114C6.52088 15.4435 6.54231 15.4756 6.56374 15.5056C6.62374 15.5999 6.68803 15.6921 6.75231 15.7821C6.76945 15.8056 6.78445 15.8292 6.8016 15.8506C6.87231 15.9471 6.94517 16.0414 7.02231 16.1314C7.02231 16.1314 7.02231 16.1314 7.02445 16.1335C7.02445 16.1335 7.0266 16.1378 7.02874 16.1378C7.02874 16.1378 7.02874 16.1378 7.03088 16.1399C7.03088 16.1399 7.03303 16.1442 7.03517 16.1442C7.03517 16.1442 7.03731 16.1464 7.03945 16.1485C7.03945 16.1485 7.0416 16.1506 7.04374 16.1528C7.04374 16.1528 7.04374 16.1528 7.04588 16.1549C7.04588 16.1549 7.04588 16.1571 7.04803 16.1592C7.04803 16.1592 7.04803 16.1614 7.05017 16.1635C7.05017 16.1635 7.05017 16.1656 7.05231 16.1678C7.05231 16.1678 7.05445 16.1699 7.0566 16.1721C7.0566 16.1721 7.0566 16.1742 7.05874 16.1764C7.05874 16.1764 7.05874 16.1764 7.06088 16.1785C7.06088 16.1785 7.06088 16.1806 7.06517 16.1828C7.06517 16.1828 7.06517 16.1828 7.06731 16.1849C7.06731 16.1849 7.06945 16.1871 7.0716 16.1892C7.0716 16.1892 7.0716 16.1892 7.07374 16.1914C7.07374 16.1914 7.07374 16.1914 7.07588 16.1935C7.07588 16.1935 7.07803 16.1956 7.08017 16.1978C7.08017 16.1978 7.08017 16.1978 7.08231 16.1999C7.08231 16.1999 7.08445 16.2021 7.08445 16.2042C7.08445 16.2042 7.08445 16.2042 7.0866 16.2064C7.0866 16.2064 7.08874 16.2085 7.09088 16.2106C7.09303 16.2149 7.09731 16.2171 7.09945 16.2214C7.1016 16.2235 7.10374 16.2278 7.10588 16.2299C7.11017 16.2342 7.11231 16.2385 7.1166 16.2428C7.11874 16.2471 7.12303 16.2492 7.12517 16.2535C7.12731 16.2556 7.12945 16.2599 7.1316 16.2621C7.13374 16.2664 7.13803 16.2685 7.14017 16.2728C7.14231 16.2771 7.1466 16.2792 7.14874 16.2835C7.15088 16.2856 7.15303 16.2899 7.15731 16.2921C7.15945 16.2964 7.16374 16.2985 7.16588 16.3028C7.16803 16.3071 7.17231 16.3092 7.17445 16.3135C7.1766 16.3156 7.18088 16.3199 7.18303 16.3221C7.18517 16.3264 7.18945 16.3285 7.1916 16.3328C7.19374 16.3349 7.19803 16.3392 7.20017 16.3414C7.20231 16.3435 7.2066 16.3478 7.20874 16.3499C7.21088 16.3542 7.21517 16.3564 7.21945 16.3606C7.22374 16.3649 7.22588 16.3671 7.23017 16.3714C7.23231 16.3735 7.2366 16.3778 7.23874 16.3799C7.24303 16.3842 7.24517 16.3864 7.24945 16.3906C7.25374 16.3949 7.25588 16.3971 7.26017 16.4014C7.26231 16.4035 7.2666 16.4078 7.26874 16.4099C7.27303 16.4142 7.27517 16.4164 7.27945 16.4206C7.28374 16.4249 7.28588 16.4271 7.29017 16.4314C7.29231 16.4335 7.29445 16.4356 7.29874 16.4399C7.30303 16.4442 7.30517 16.4464 7.30945 16.4506C7.31374 16.4549 7.31588 16.4571 7.32017 16.4614C7.32445 16.4656 7.3266 16.4678 7.33088 16.4721C7.33517 16.4764 7.33731 16.4785 7.3416 16.4828C7.3416 16.4828 7.34374 16.4849 7.34588 16.4871C7.34803 16.4892 7.35017 16.4914 7.35231 16.4935C7.35445 16.4956 7.35874 16.4999 7.36088 16.5042C7.36517 16.5085 7.36731 16.5106 7.36945 16.5149C7.37374 16.5192 7.37588 16.5214 7.38017 16.5256C7.38445 16.5299 7.38874 16.5342 7.39517 16.5385C7.49374 16.6392 7.5966 16.7356 7.7016 16.8299C7.71445 16.8428 7.72945 16.8535 7.74445 16.8664C7.84303 16.9521 7.94588 17.0378 8.04874 17.1171C8.0616 17.1278 8.07445 17.1364 8.08731 17.1471C8.20517 17.2371 8.32517 17.3228 8.44945 17.4042C8.4516 17.4042 8.45588 17.4085 8.45803 17.4106C8.58231 17.4921 8.70874 17.5692 8.83731 17.6421C8.84374 17.6464 8.85017 17.6506 8.85874 17.6549C9.12874 17.8049 9.40945 17.9378 9.70088 18.0492C10.4359 18.3321 11.2352 18.4906 12.0709 18.4906C12.568 18.4906 13.0545 18.4328 13.5195 18.3278C13.528 18.3278 13.5366 18.3235 13.5452 18.3214C13.8452 18.2528 14.1366 18.1649 14.4195 18.0556C14.4366 18.0492 14.4537 18.0428 14.473 18.0342C14.6059 17.9828 14.7366 17.9271 14.8652 17.8671C14.8695 17.8671 14.8737 17.8628 14.878 17.8606C15.0109 17.7985 15.1416 17.7299 15.2702 17.6592C15.2873 17.6485 15.3045 17.6399 15.3237 17.6292C15.4437 17.5606 15.5595 17.4899 15.6752 17.4149C15.6816 17.4106 15.688 17.4064 15.6945 17.4021C15.8187 17.3206 15.9409 17.2328 16.0587 17.1428C16.0673 17.1364 16.0759 17.1299 16.0823 17.1235C16.3245 16.9371 16.5537 16.7335 16.768 16.5149C16.7723 16.5106 16.7745 16.5085 16.7787 16.5042C16.783 16.4999 16.7852 16.4978 16.7895 16.4935C16.7916 16.4914 16.7959 16.4871 16.798 16.4849C16.8023 16.4806 16.8045 16.4785 16.8087 16.4742L16.8195 16.4635C16.8195 16.4635 16.8259 16.4571 16.8302 16.4528C16.8323 16.4506 16.8366 16.4464 16.8387 16.4442C16.843 16.4399 16.8452 16.4378 16.8495 16.4335C16.8537 16.4292 16.8559 16.4271 16.8602 16.4228C16.8645 16.4228 16.8687 16.4271 16.8752 16.4271C16.8709 16.4249 16.8666 16.4228 16.8623 16.4206C16.8623 16.4206 16.8666 16.4164 16.8687 16.4142C16.873 16.4099 16.8773 16.4056 16.8795 16.4014C16.8816 16.3992 16.8859 16.3949 16.888 16.3928C16.8902 16.3906 16.8945 16.3864 16.8966 16.3842C16.8987 16.3799 16.903 16.3778 16.9052 16.3735C16.9095 16.3692 16.9116 16.3671 16.9159 16.3628C16.918 16.3606 16.9223 16.3564 16.9245 16.3542C16.9266 16.3521 16.9309 16.3478 16.933 16.3456C16.9373 16.3414 16.9395 16.3371 16.9437 16.3328C16.9459 16.3306 16.948 16.3264 16.9523 16.3242C16.9545 16.3221 16.9587 16.3178 16.9609 16.3156C16.963 16.3114 16.9673 16.3092 16.9695 16.3049C16.9716 16.3006 16.9759 16.2985 16.978 16.2942C16.9802 16.2899 16.9845 16.2878 16.9866 16.2835C16.9887 16.2792 16.993 16.2771 16.9952 16.2728C16.9973 16.2706 16.9995 16.2664 17.0016 16.2642C17.0037 16.2621 17.008 16.2578 17.0102 16.2556C17.0145 16.2514 17.0166 16.2471 17.0209 16.2449C17.023 16.2428 17.0273 16.2385 17.0295 16.2364L17.038 16.2278C17.038 16.2278 17.0445 16.2214 17.0466 16.2171C17.0466 16.2171 17.0487 16.2149 17.0509 16.2128C17.0509 16.2128 17.0509 16.2128 17.053 16.2106C17.053 16.2106 17.053 16.2085 17.0552 16.2064C17.0552 16.2064 17.0552 16.2064 17.0573 16.2042C17.0573 16.2042 17.0573 16.2042 17.0595 16.2021C17.0595 16.2021 17.0595 16.2021 17.0616 16.1999C17.0616 16.1999 17.0616 16.1978 17.0637 16.1956C17.0637 16.1956 17.0659 16.1935 17.068 16.1914C17.068 16.1914 17.068 16.1914 17.0702 16.1892C17.0702 16.1892 17.0723 16.1871 17.0745 16.1849C17.0745 16.1849 17.0766 16.1828 17.0787 16.1806C17.0787 16.1806 17.0809 16.1785 17.083 16.1764C17.083 16.1764 17.0852 16.1721 17.0873 16.1721C17.0873 16.1721 17.0873 16.1699 17.0895 16.1678C17.0895 16.1678 17.0916 16.1656 17.0937 16.1635C17.0937 16.1635 17.0937 16.1635 17.0959 16.1614C17.0959 16.1614 17.098 16.1592 17.1002 16.1571C17.1002 16.1571 17.1002 16.1549 17.1023 16.1528C17.1023 16.1528 17.1045 16.1485 17.1066 16.1485C17.1066 16.1485 17.1087 16.1464 17.1109 16.1442C17.1109 16.1442 17.113 16.1421 17.1152 16.1399C17.1152 16.1399 17.1173 16.1378 17.1195 16.1356C17.1195 16.1356 17.1216 16.1335 17.1237 16.1314C17.1237 16.1314 17.1259 16.1292 17.128 16.1271C17.128 16.1271 17.1302 16.1249 17.1323 16.1228C17.1323 16.1228 17.1345 16.1206 17.1366 16.1185C17.1366 16.1185 17.1387 16.1142 17.1409 16.1142C17.1409 16.1142 17.1409 16.1142 17.143 16.1121C17.143 16.1121 17.1409 16.1121 17.1387 16.1099C17.5095 15.6599 17.8223 15.1628 18.0645 14.6249L18.0752 14.6292Z" fill="#0367B3"/>
</g>
<defs>
<clipPath id="clip0_266_60951">
<rect width="24" height="24" fill="white"/>
</clipPath>
</defs>
</svg>
