<svg width="56" height="56" viewBox="0 0 56 56" fill="none" xmlns="http://www.w3.org/2000/svg">
<g clip-path="url(#clip0_266_62132)">
<path d="M0 28C0 29.6511 0 29.833 0.0420105 31.2323C0.0980245 34.7586 0.658165 38.2708 1.72243 41.6431C2.63266 44.3298 4.04701 46.8205 5.89547 48.9755C8.12203 51.3683 10.9087 53.1734 14.0035 54.2369C17.1963 55.3283 20.6552 55.8601 27.3768 56H28.6232C35.3448 55.8601 38.8037 55.3283 41.9965 54.2369C45.0913 53.1734 47.878 51.3683 50.1045 48.9755C51.953 46.8205 53.3813 44.3438 54.2776 41.6431C55.3418 38.2708 55.902 34.7726 55.958 31.2323C56 29.847 56 29.6511 56 28C56 26.3488 56 26.1669 55.958 24.7816C55.902 21.2553 55.3418 17.7431 54.2776 14.3708C53.3673 11.6841 51.953 9.19339 50.1045 7.03846C47.878 4.64567 45.0913 2.84058 41.9965 1.77711C38.8037 0.671662 35.3448 0.13993 28.6232 0H27.3768C20.6552 0.13993 17.1963 0.671662 14.0035 1.76312C10.9087 2.82658 8.12203 4.63168 5.89547 7.02447C4.04701 9.17939 2.61865 11.6562 1.72243 14.3568C0.658165 17.7431 0.0980245 21.2414 0.0420105 24.7816C0 26.1669 0 26.3628 0 28Z" fill="#0F206C"/>
<path d="M13.0338 23.2012H7.27979C7.27979 23.2012 8.20379 24.1952 8.20379 24.7132V33.0292H12.9498C12.9498 33.0292 17.6678 32.9312 17.6678 28.2552C17.6678 25.6232 15.6518 23.4252 13.0198 23.2012M13.0198 31.6432H9.98179V24.5172C9.98179 24.5172 11.0598 24.4472 12.1938 24.4472C14.0698 24.3772 15.6518 25.8472 15.7078 27.7372C15.7078 27.9052 15.7078 28.0592 15.6938 28.2272C15.6938 31.6572 13.0198 31.6572 13.0198 31.6572" fill="white"/>
<path d="M26.4321 33.1272H28.5041L23.7721 23.2012H21.3641C21.6861 23.4672 21.8961 23.8452 21.9521 24.2652C21.9521 24.8672 17.9341 33.1272 17.9341 33.1272H19.5021L20.4821 30.9712H25.3961L26.4321 33.1272ZM21.0281 29.7812L22.8901 25.7072L24.8361 29.7812H21.0281Z" fill="white"/>
<path d="M34.2442 22.5709C31.2482 22.5289 28.7842 24.9369 28.7422 27.9329C28.7002 30.9289 31.1082 33.3929 34.1042 33.4349C37.1002 33.4769 39.5642 31.0689 39.6062 28.0729C39.6062 28.0449 39.6062 28.0309 39.6062 28.0029C39.6202 25.0209 37.2262 22.5989 34.2442 22.5709ZM34.1322 31.5869C32.1442 31.5869 30.5482 29.9769 30.5482 27.9889C30.5482 26.0009 32.1582 24.4049 34.1462 24.4049C36.1342 24.4049 37.7302 26.0149 37.7302 28.0029C37.7302 29.9909 36.1202 31.5869 34.1322 31.5869Z" fill="white"/>
<path d="M40.5859 23.2012C41.0059 23.5652 41.2719 24.0692 41.3419 24.6152V33.2252H48.7199V31.7552H43.3159V23.2012H40.5999H40.5859Z" fill="white"/>
</g>
<defs>
<clipPath id="clip0_266_62132">
<rect width="56" height="56" fill="white"/>
</clipPath>
</defs>
</svg>
