<svg width="32" height="32" viewBox="0 0 32 32" fill="none" xmlns="http://www.w3.org/2000/svg">
<g clip-path="url(#clip0_266_61212)">
<path d="M0 16.004C0 16.9402 0 17.0523 0.024006 17.8445C0.048012 19.869 0.376094 21.8695 0.984246 23.7979C1.50438 25.3343 2.31258 26.7587 3.36883 27.983C4.64117 29.3514 6.23357 30.3837 8.002 30.9917C9.82646 31.624 11.8029 31.92 15.6439 32H16.3561C20.1971 31.92 22.1735 31.616 23.998 30.9917C25.7664 30.3837 27.3588 29.3514 28.6311 27.983C29.6874 26.7507 30.4957 25.3343 31.0157 23.7979C31.624 21.8695 31.944 19.869 31.976 17.8445C32 17.0523 32 16.9402 32 16.004C32 15.0678 32 14.9557 31.976 14.1635C31.944 12.139 31.624 10.1385 31.0157 8.21006C30.4957 6.67366 29.6874 5.24931 28.6311 4.025C27.3588 2.65666 25.7664 1.62441 23.998 1.01625C22.1735 0.384097 20.1971 0.08002 16.3561 0H15.6439C11.8029 0.08002 9.82646 0.384097 8.002 1.00825C6.23357 1.6164 4.64117 2.64866 3.36883 4.017C2.31258 5.24931 1.49637 6.66566 0.984246 8.20206C0.376094 10.1305 0.056014 12.139 0.024006 14.1635C0 14.9557 0 15.0678 0 16.004Z" fill="#0398E7"/>
<path d="M22.048 16.7148H16.4113V18.3243H22.048V16.7148Z" fill="white"/>
<path d="M18.4296 7.44873H20.2388L22.8572 15.3053H15.684L17.0204 10.6768H18.8296L18.0205 13.6958H20.6479" fill="white"/>
<path d="M12.9928 16.7148H9.16528V18.3243H12.7928C13.3474 18.3243 13.6019 18.5244 13.6019 19.1336C13.6019 19.6883 13.1474 19.9429 12.5928 19.9429H9.16528V24.5714H11.1836V21.5524H12.9928C14.2475 21.5888 15.293 20.6067 15.3384 19.3519C15.3384 19.3064 15.3384 19.2609 15.3384 19.2155C15.4475 17.9515 14.502 16.833 13.2383 16.733C13.1565 16.733 13.0747 16.7239 12.9928 16.733" fill="white"/>
<path d="M11.12 11.4227C11.0836 10.4225 11.7473 9.54044 12.7201 9.29493C12.9292 9.24036 13.1474 9.21307 13.3656 9.21307H14.9838V7.43082C13.8747 7.41262 12.7655 7.51264 11.6745 7.72179C10.0653 8.19464 9.01074 9.73139 9.15619 11.4046C9.02891 13.1686 10.2199 14.7509 11.9473 15.1055C12.5564 15.2601 13.1837 15.3328 13.811 15.3237H14.9748V13.4323H13.2474C13.1292 13.4323 13.0201 13.4232 12.9019 13.4051C11.8655 13.3414 11.0745 12.4594 11.1018 11.4227" fill="white"/>
<path d="M22.0572 21.5434V19.7339H16.4204V24.5715H22.0572V22.7619H18.4296V21.5525H22.0572V21.5434Z" fill="white"/>
</g>
<defs>
<clipPath id="clip0_266_61212">
<rect width="32" height="32" fill="white"/>
</clipPath>
</defs>
</svg>
