<svg width="56" height="56" viewBox="0 0 56 56" fill="none" xmlns="http://www.w3.org/2000/svg">
<g clip-path="url(#clip0_266_61803)">
<path d="M0 28C0 29.6486 0 29.8318 0.052373 31.2318C0.144026 34.3327 0.484452 37.8916 1.72831 41.6467C2.60557 44.3028 4.25532 47.1682 5.90505 48.9739C8 51.2765 10.8936 53.1605 14.0098 54.2335C17.2046 55.3325 20.6612 55.869 27.378 56H28.622C35.3519 55.856 38.7954 55.3325 41.9902 54.2335C45.1194 53.1605 48 51.2765 50.108 48.9739C51.758 47.1552 53.4075 44.3028 54.285 41.6467C55.5285 37.8916 55.869 34.3196 55.9605 31.2318C56 29.8449 56 29.6486 56 28C56 26.3514 56 26.1682 55.9605 24.7682C55.856 21.6673 55.5285 18.1084 54.285 14.3532C53.4075 11.6972 51.758 8.83175 50.108 7.02615C48.0131 4.72337 45.1194 2.83925 41.9902 1.76636C38.7954 0.66729 35.3388 0.143925 28.622 0H27.378C20.6481 0.143925 17.2046 0.66729 14.0098 1.76636C10.8805 2.83925 8 4.72337 5.90505 7.02615C4.25532 8.84485 2.60557 11.6972 1.72831 14.3532C0.484452 18.1084 0.144026 21.6673 0.052373 24.7682C0 26.1551 0 26.3514 0 28Z" fill="#898D8D"/>
<path d="M14.5219 23.5118L23.5184 14.5H41.5V31.6332H32.5086V23.5118H14.5219Z" fill="white"/>
<path d="M23.4965 24.3682H14.5V41.5003H32.4866L41.4781 32.4862H23.4965V24.3682Z" fill="white"/>
</g>
<defs>
<clipPath id="clip0_266_61803">
<rect width="56" height="56" fill="white"/>
</clipPath>
</defs>
</svg>
