<svg width="56" height="56" viewBox="0 0 56 56" fill="none" xmlns="http://www.w3.org/2000/svg">
<g clip-path="url(#clip0_266_62002)">
<path d="M0 28V31.22C0 34.72 0.56 38.22 1.68 41.58C2.52 44.24 4.06 46.76 5.88 48.86C8.12 51.24 10.92 53.06 14 54.18C17.22 55.3 20.58 55.86 27.3 56H28.56C35.28 56 38.78 55.3 42 54.18C45.08 53.06 47.88 51.38 50.12 48.86C51.94 46.76 53.34 44.24 54.32 41.58C55.44 38.22 56 34.72 56 31.22V24.78C56 21.28 55.44 17.78 54.32 14.42C53.48 11.76 51.94 9.24 50.12 7.14C47.88 4.76 45.08 2.94 42 1.82C38.78 0.7 35.42 0.14 28.7 0H27.44C20.72 0.14 17.22 0.7 14 1.82C10.92 2.94 8.12 4.62 5.88 7.14C4.06 9.24 2.66 11.76 1.68 14.42C0.7 17.78 0 21.28 0 24.78V28Z" fill="#7E7266"/>
<path d="M0 28V31.22C0 34.72 0.56 38.22 1.68 41.58C2.52 44.24 4.06 46.76 5.88 48.86C8.12 51.24 10.92 53.06 14 54.18C17.22 55.3 20.58 55.86 27.3 56H28.56C35.28 56 38.78 55.3 42 54.18C45.08 53.06 47.88 51.38 50.12 48.86C51.94 46.76 53.34 44.24 54.32 41.58C55.44 38.22 56 34.72 56 31.22V24.78C56 21.28 55.44 17.78 54.32 14.42C53.48 11.76 51.94 9.24 50.12 7.14C47.88 4.76 45.08 2.94 42 1.82C38.78 0.7 35.42 0.14 28.7 0H27.44C20.72 0.14 17.22 0.7 14 1.82C10.92 2.94 8.12 4.62 5.88 7.14C4.06 9.24 2.66 11.76 1.68 14.42C0.7 17.78 0 21.28 0 24.78V28Z" fill="#60584C"/>
<path d="M44.8002 28.2802H44.5202C43.4002 27.0202 41.7202 26.4602 40.1802 26.7402C38.7802 26.7402 37.5202 27.3002 36.4002 28.0002V24.9202C36.4002 24.3602 36.4002 23.9402 36.1202 23.5202C36.1202 23.5202 35.9802 23.3802 35.8402 23.3802C35.2802 23.3802 34.5802 23.6602 34.0202 23.9402V24.2202C34.0202 25.0602 33.7402 25.7602 33.6002 26.6002C33.3202 28.8402 33.3202 30.8002 33.6002 32.7602C33.6002 32.9002 34.0202 33.1802 34.1602 33.3202C34.7202 33.3202 35.2802 33.3202 35.8402 33.0402H35.9802C36.1202 33.0402 36.2602 32.9002 36.2602 32.7602V32.2002C36.6802 30.5202 38.0802 29.1202 39.9002 28.7002C40.7402 28.5602 41.7202 28.7002 42.2802 29.4002C42.4202 30.2402 42.2802 31.0802 41.8602 31.7802C41.3002 32.7602 40.3202 33.6002 39.2002 33.8802C37.8002 34.3002 36.4002 34.5802 35.0002 34.4402L33.4602 33.4602C32.0602 32.4802 30.6602 31.5002 29.1202 30.8002C28.7002 30.6602 28.4202 30.3802 28.1402 30.1002H28.0002C27.1602 29.2602 25.6202 28.2802 24.2202 27.4402L23.5202 27.0202C23.5202 26.8802 24.3602 26.3202 24.3602 26.3202C25.0602 26.0402 25.6202 25.6202 26.1802 25.2002H26.3202L29.1202 23.6602C31.7802 22.4002 34.3002 20.7202 36.5402 18.9002V17.3602C36.5402 17.3602 36.5402 17.2202 36.2602 17.0802C34.5802 17.0802 33.0402 17.9202 31.9202 19.0402C31.6402 19.3202 31.3602 19.4602 31.0802 19.6002H30.8002C29.1202 20.5802 25.4802 22.9602 23.6602 24.0802C23.8002 21.5602 24.2202 19.1802 24.6402 16.6602V16.3802L24.3602 15.9602V15.6802H24.2202C23.9402 15.5402 23.6602 15.5402 23.2402 15.6802H22.8202C22.8202 15.8202 22.2602 15.9602 22.2602 15.9602C22.2602 15.9602 22.1202 15.9602 21.9802 16.1002C21.0002 18.9002 20.3002 21.8402 20.1602 24.7802C18.7602 23.9402 17.3602 23.1002 15.8202 22.4002C15.4002 22.4002 15.1202 22.1202 14.8402 21.9802L14.1402 21.5602L13.0202 20.8602H12.7402C12.1802 21.0002 11.6202 21.4202 11.2002 21.9802V22.6802C12.1802 23.5202 13.1602 24.2202 14.2802 24.7802L15.6802 25.6202L17.9202 26.8802L18.3402 27.1602H18.6202V27.3002L14.5602 29.9602L12.4602 31.3602C12.0402 31.6402 11.6202 31.7802 11.2002 31.9202C10.7802 31.9202 10.5002 32.3402 10.2202 32.7602V32.9002H10.3602L10.6402 33.1802H10.9202C10.9202 33.3202 11.2002 33.3202 11.2002 33.3202C11.9002 33.3202 12.6002 33.0402 13.1602 32.6202C14.1402 32.2002 16.6602 30.6602 17.7802 29.9602L18.2002 29.6802C18.4802 29.6802 18.6202 29.6802 18.7602 29.4002C19.0402 29.1202 19.4602 28.9802 19.7402 28.8402H20.0202C20.0202 31.5002 20.1602 34.0202 20.5802 36.5402C20.8602 37.1002 21.0002 37.6602 21.1402 38.3602L21.5602 39.7602C21.9802 40.0402 22.5402 40.1802 22.9602 40.1802V37.9402C22.8202 35.5602 22.6802 32.2002 22.6802 29.8202C23.1002 29.8202 24.7802 30.9402 24.7802 30.9402C27.7202 32.9002 32.3402 35.8402 35.0002 36.5402H35.4202L35.8402 36.2602C35.9802 36.1202 36.1202 35.8402 36.1202 35.5602C38.9202 35.5602 41.4402 34.4402 43.4002 32.3402C43.9602 31.5002 44.3802 30.6602 44.3802 29.5402C44.3802 28.9802 44.2402 28.2802 43.8202 27.8602" fill="white"/>
</g>
<defs>
<clipPath id="clip0_266_62002">
<rect width="56" height="56" fill="white"/>
</clipPath>
</defs>
</svg>
