<svg width="56" height="56" viewBox="0 0 56 56" fill="none" xmlns="http://www.w3.org/2000/svg">
<g clip-path="url(#clip0_266_61864)">
<path d="M0 28C0 29.6486 0 29.8318 0.039289 31.2318C0.14406 34.3327 0.471469 37.8916 1.71562 41.6467C2.59308 44.3028 4.24322 47.1682 5.89335 48.9739C7.9888 51.2765 10.883 53.1605 14.0131 54.2335C17.2086 55.3325 20.666 55.869 27.3845 56H28.6287C35.3601 55.856 38.8045 55.3325 42 54.2335C45.1301 53.1605 48.0112 51.2765 50.1065 48.9739C51.757 47.1552 53.407 44.3028 54.2845 41.6467C55.5285 37.8916 55.869 34.3196 55.9605 31.2318C56 29.8449 56 29.6486 56 28C56 26.3514 56 26.1682 55.9605 24.7682C55.856 21.6673 55.5285 18.1084 54.2845 14.3532C53.407 11.6972 51.757 8.83175 50.1065 7.02615C48.0112 4.72337 45.117 2.83925 42 1.76636C38.8045 0.66729 35.347 0.130841 28.6287 0H27.3845C20.653 0.143925 17.2086 0.66729 14.0131 1.76636C10.883 2.83925 8.00185 4.72337 5.89335 7.02615C4.24322 8.84485 2.59308 11.6972 1.71562 14.3532C0.484565 18.1084 0.14406 21.6673 0.039289 24.7682C0 26.1551 0 26.3514 0 28Z" fill="#457C26"/>
<path d="M40.7217 31.1528L38.8831 29.912C38.287 30.3524 37.5686 30.5964 36.8276 30.6102C36.0866 30.624 35.3598 30.4069 34.7477 29.9889C34.7477 29.9889 29.16 26.2135 28.6431 25.8566C28.3453 25.6456 27.9893 25.5322 27.6243 25.5322C27.2593 25.5322 26.9033 25.6456 26.6055 25.8566L20.48 29.9981C19.8677 30.4155 19.1409 30.6323 18.4001 30.6185C17.6592 30.6048 16.9409 30.3611 16.3446 29.9212L14.507 31.162C13.7639 31.6788 13.2489 32.4625 13.0692 33.3496C12.8895 34.2368 13.059 35.159 13.5424 35.9243C13.7722 36.2997 14.0755 36.6247 14.4343 36.8797C14.7931 37.1346 15.1997 37.3142 15.6298 37.4077C16.0599 37.5011 16.5045 37.5065 16.9367 37.4234C17.369 37.3403 17.7799 37.1705 18.1447 36.9243L26.6755 31.1551C26.9449 30.9469 27.2757 30.8339 27.6162 30.8339C27.9567 30.8339 28.2875 30.9469 28.5569 31.1551L37.0855 36.9243C37.4502 37.1709 37.8611 37.3409 38.2934 37.4241C38.7257 37.5074 39.1703 37.5021 39.6005 37.4087C40.0307 37.3152 40.4375 37.1355 40.7962 36.8803C41.155 36.6252 41.4582 36.3 41.6877 35.9243C42.1718 35.159 42.3419 34.2364 42.1625 33.3487C41.9831 32.4611 41.468 31.6769 40.7247 31.1597L40.7217 31.1528Z" fill="white"/>
<path d="M26.9887 20.4648C27.181 20.3435 27.4037 20.2793 27.631 20.2793C27.8583 20.2793 28.0809 20.3435 28.2733 20.4648C28.6225 20.6809 32.3378 23.2279 32.3378 23.2279C32.9205 23.6237 33.6208 23.809 34.3231 23.753C35.0253 23.6971 35.6874 23.4033 36.2001 22.9202L38.3095 24.3471C38.9407 24.787 39.3779 25.4535 39.5302 26.2077C39.6825 26.962 39.5382 27.7459 39.1272 28.3963C38.9316 28.7153 38.6735 28.9914 38.3683 29.2079C38.0631 29.4243 37.7171 29.5767 37.3513 29.6558C36.9856 29.7348 36.6079 29.739 36.2405 29.668C35.8731 29.5969 35.5239 29.4522 35.214 29.2425C35.214 29.2425 29.1556 25.1532 28.5672 24.8032C28.2837 24.6272 27.9566 24.5339 27.6229 24.5339C27.2892 24.5339 26.9621 24.6272 26.6786 24.8032C26.1871 25.1055 20.0018 29.2348 20.0018 29.2348C19.3709 29.6383 18.6061 29.7758 17.8742 29.6173C17.1423 29.4587 16.5028 29.017 16.0955 28.3886C15.686 27.7389 15.5425 26.9565 15.6948 26.2037C15.847 25.451 16.2834 24.7858 16.9132 24.3463L19.0248 22.9202C19.5372 23.4038 20.1993 23.6979 20.9017 23.7539C21.6041 23.8098 22.3046 23.6243 22.8871 23.2279C22.8871 23.2279 26.6233 20.6955 26.9887 20.4648Z" fill="white"/>
<path d="M28.3448 19.4316L32.8133 22.477C33.0754 22.6361 33.3668 22.7406 33.6702 22.7841C33.9737 22.8276 34.283 22.8094 34.5792 22.7303C34.8754 22.6513 35.1524 22.5131 35.3939 22.3241C35.6353 22.1352 35.836 21.8994 35.9839 21.6308C36.2781 21.1149 36.3751 20.5098 36.2568 19.9278C36.1385 19.3457 35.8131 18.8264 35.3409 18.4662L28.3055 13.7109C28.101 13.5759 27.8614 13.5039 27.6163 13.5039C27.3713 13.5039 27.1316 13.5759 26.9271 13.7109L19.8802 18.4662C19.3783 18.8485 19.0429 19.4094 18.9441 20.0325C18.8452 20.6556 18.9904 21.2928 19.3493 21.8116C19.6758 22.2945 20.1759 22.633 20.7454 22.7569C21.315 22.8808 21.9103 22.7806 22.4078 22.477L26.941 19.4316C27.1394 19.2724 27.3861 19.1856 27.6405 19.1856C27.8949 19.1856 28.1417 19.2724 28.3401 19.4316H28.3448Z" fill="white"/>
<path d="M32.4109 40.7625L28.7533 34.581C28.6951 34.4274 28.6068 34.287 28.4936 34.1681C28.3803 34.0492 28.2445 33.9542 28.0939 33.8886C27.9434 33.823 27.7813 33.7882 27.6171 33.7862C27.4529 33.7843 27.2899 33.8152 27.1378 33.8771C26.9834 33.9434 26.8439 34.0398 26.7271 34.1606C26.6104 34.2815 26.5187 34.4244 26.4578 34.581L22.8002 40.7625C22.3271 41.521 22.4394 42.731 23.7471 42.731H31.4533C32.7718 42.7241 32.884 41.5233 32.4109 40.7625Z" fill="white"/>
</g>
<defs>
<clipPath id="clip0_266_61864">
<rect width="56" height="56" fill="white"/>
</clipPath>
</defs>
</svg>
