<svg width="24" height="24" viewBox="0 0 24 24" fill="none" xmlns="http://www.w3.org/2000/svg">
<g clip-path="url(#clip0_266_60938)">
<mask id="mask0_266_60938" style="mask-type:luminance" maskUnits="userSpaceOnUse" x="0" y="0" width="24" height="24">
<path d="M24 0H0V24H24V0Z" fill="white"/>
</mask>
<g mask="url(#mask0_266_60938)">
<path d="M0 11.9995C0 12.7061 0 12.7845 0.0168342 13.3846C0.0617254 14.7135 0.20201 16.2388 0.735094 17.8481C1.11106 18.9864 1.81809 20.2145 2.52513 20.9883C3.42296 21.9751 4.66308 22.7827 6.0042 23.2425C7.37338 23.7136 8.8548 23.9434 11.7334 23.9995H12.2665C15.1508 23.9378 16.6266 23.7136 17.9958 23.2425C19.3369 22.7827 20.5714 21.9751 21.4749 20.9883C22.1818 20.2089 22.8889 18.9864 23.2648 17.8481C23.7979 16.2388 23.9438 14.7079 23.9831 13.3846C24 12.7902 24 12.7061 24 11.9995C24 11.293 24 11.2145 23.9831 10.6145C23.9383 9.28549 23.7979 7.76026 23.2648 6.15092C22.8889 5.01258 22.1818 3.78455 21.4749 3.01073C20.577 2.02381 19.3369 1.21633 17.9958 0.756521C16.6266 0.285493 15.1452 0.0555864 12.2665 -0.000488281H11.7334C8.84918 0.0611939 7.37338 0.285493 6.0042 0.756521C4.66308 1.21633 3.42857 2.02381 2.52513 3.01073C1.81809 3.79016 1.11106 5.01258 0.735094 6.15092C0.207622 7.76026 0.0617254 9.28549 0.0168342 10.6145C0 11.2089 0 11.293 0 11.9995Z" fill="#E3333F"/>
<path d="M19.0521 13.9875L17.6552 12.3057H17.6439L17.2681 13.1746C17.2681 13.1746 17.2681 13.1858 17.2681 13.1914L17.8796 13.9651C17.9244 14.0211 17.9693 14.038 18.0423 14.038" fill="white"/>
<path d="M18.0591 9.96777C17.47 9.96777 17.1559 10.1472 16.9763 10.5228L15.8655 13.0792C15.7982 13.2306 15.7029 13.3035 15.5065 13.3035V10.007C15.5065 10.007 15.4897 9.96777 15.4616 9.96777H14.6481C14.6481 9.96777 14.6033 9.9846 14.6033 10.007V13.9594C14.6033 13.9986 14.6369 14.0323 14.6818 14.0323H15.5963C16.1853 14.0323 16.4546 13.8529 16.6341 13.4772L17.7281 10.9545C17.8179 10.7751 17.9413 10.6966 18.1994 10.6966" fill="white"/>
<path d="M8.23575 12.0026C8.56114 11.8736 8.83603 11.5877 8.83603 11.1112C8.83603 10.3992 8.18526 9.97314 7.41107 9.97314H4.99873C4.99873 9.97314 4.95386 9.98997 4.95386 10.0124V10.6571C4.95386 10.6571 4.97068 10.6963 4.99873 10.6963H7.24277C7.60181 10.6963 7.84866 10.9038 7.84866 11.1616C7.84866 11.4195 7.60181 11.627 7.24277 11.627H5.90756V11.1448C5.90756 11.1448 5.89074 11.1056 5.86269 11.1056H4.99311C4.99311 11.1056 4.94824 11.1224 4.94824 11.1448V13.9928C4.94824 13.9928 4.96506 14.032 4.99311 14.032H7.37179C8.25821 14.032 8.89774 13.6452 8.89774 12.8491C8.89774 12.4567 8.65091 12.1371 8.23575 12.0026ZM7.28764 13.3256H5.90756V12.3726H7.28764C7.65791 12.3726 7.91038 12.5856 7.91038 12.8491C7.91038 13.1126 7.65791 13.3256 7.28764 13.3256Z" fill="white"/>
<path d="M10.4294 11.1055H9.6103C9.6103 11.1055 9.56543 11.1223 9.56543 11.1447V13.9926C9.56543 13.9926 9.58225 14.0319 9.6103 14.0319H10.4294C10.4294 14.0319 10.4743 14.0151 10.4743 13.9926V11.1447C10.4743 11.1447 10.4574 11.1055 10.4294 11.1055Z" fill="white"/>
<path d="M13.7842 9.96753H12.9708C12.9708 9.96753 12.9259 9.98435 12.9259 10.0068V13.3032C12.7351 13.3032 12.6398 13.2303 12.5724 13.0789L11.4616 10.5225C11.2821 10.1469 10.968 9.96753 10.3789 9.96753H9.6103C9.6103 9.96753 9.56543 9.98435 9.56543 10.0068V10.6515C9.56543 10.6515 9.58225 10.6907 9.6103 10.6907H10.233C10.4911 10.6907 10.6201 10.7692 10.7043 10.9486L11.7982 13.4714C11.9778 13.847 12.2471 14.0264 12.8361 14.0264H13.7506C13.7898 14.0264 13.8235 13.9928 13.8235 13.9535V10.0011C13.8235 10.0011 13.8067 9.96191 13.7786 9.96191" fill="white"/>
</g>
</g>
<defs>
<clipPath id="clip0_266_60938">
<rect width="24" height="24" fill="white"/>
</clipPath>
</defs>
</svg>
