<svg width="40" height="40" viewBox="0 0 40 40" fill="none" xmlns="http://www.w3.org/2000/svg">
<g clip-path="url(#clip0_266_61636)">
<path d="M0 20V22.3C0 24.8 0.4 27.3 1.2 29.7C1.8 31.6 2.9 33.4 4.2 34.9C5.8 36.6 7.8 37.9 10 38.7C12.3 39.5 14.7 39.9 19.5 40H20.4C25.2 40 27.7 39.5 30 38.7C32.2 37.9 34.2 36.7 35.8 34.9C37.1 33.4 38.1 31.6 38.8 29.7C39.6 27.3 40 24.8 40 22.3V17.7C40 15.2 39.6 12.7 38.8 10.3C38.2 8.4 37.1 6.6 35.8 5.1C34.2 3.4 32.2 2.1 30 1.3C27.7 0.5 25.3 0.1 20.5 0H19.6C14.8 0.1 12.3 0.5 10 1.3C7.8 2.1 5.8 3.3 4.2 5.1C2.9 6.6 1.9 8.4 1.2 10.3C0.5 12.7 0 15.2 0 17.7V20Z" fill="#7E7266"/>
<path d="M0 20V22.3C0 24.8 0.4 27.3 1.2 29.7C1.8 31.6 2.9 33.4 4.2 34.9C5.8 36.6 7.8 37.9 10 38.7C12.3 39.5 14.7 39.9 19.5 40H20.4C25.2 40 27.7 39.5 30 38.7C32.2 37.9 34.2 36.7 35.8 34.9C37.1 33.4 38.1 31.6 38.8 29.7C39.6 27.3 40 24.8 40 22.3V17.7C40 15.2 39.6 12.7 38.8 10.3C38.2 8.4 37.1 6.6 35.8 5.1C34.2 3.4 32.2 2.1 30 1.3C27.7 0.5 25.3 0.1 20.5 0H19.6C14.8 0.1 12.3 0.5 10 1.3C7.8 2.1 5.8 3.3 4.2 5.1C2.9 6.6 1.9 8.4 1.2 10.3C0.5 12.7 0 15.2 0 17.7V20Z" fill="#60584C"/>
<path d="M32.0002 20.2H31.8002C31.0002 19.3 29.8002 18.9 28.7002 19.1C27.7002 19.1 26.8002 19.5 26.0002 20V17.8C26.0002 17.4 26.0002 17.1 25.8002 16.8C25.8002 16.8 25.7002 16.7 25.6002 16.7C25.2002 16.7 24.7002 16.9 24.3002 17.1V17.3C24.3002 17.9 24.1002 18.4 24.0002 19C23.8002 20.6 23.8002 22 24.0002 23.4C24.0002 23.5 24.3002 23.7 24.4002 23.8C24.8002 23.8 25.2002 23.8 25.6002 23.6H25.7002C25.8002 23.6 25.9002 23.5 25.9002 23.4V23C26.2002 21.8 27.2002 20.8 28.5002 20.5C29.1002 20.4 29.8002 20.5 30.2002 21C30.3002 21.6 30.2002 22.2 29.9002 22.7C29.5002 23.4 28.8002 24 28.0002 24.2C27.0002 24.5 26.0002 24.7 25.0002 24.6L23.9002 23.9C22.9002 23.2 21.9002 22.5 20.8002 22C20.5002 21.9 20.3002 21.7 20.1002 21.5H20.0002C19.4002 20.9 18.3002 20.2 17.3002 19.6L16.8002 19.3C16.8002 19.2 17.4002 18.8 17.4002 18.8C17.9002 18.6 18.3002 18.3 18.7002 18H18.8002L20.8002 16.9C22.7002 16 24.5002 14.8 26.1002 13.5V12.4C26.1002 12.4 26.1002 12.3 25.9002 12.2C24.7002 12.2 23.6002 12.8 22.8002 13.6C22.6002 13.8 22.4002 13.9 22.2002 14H22.0002C20.8002 14.7 18.2002 16.4 16.9002 17.2C17.0002 15.4 17.3002 13.7 17.6002 11.9V11.7L17.4002 11.4V11.2H17.3002C17.1002 11.1 16.9002 11.1 16.6002 11.2H16.3002C16.3002 11.3 15.9002 11.4 15.9002 11.4C15.9002 11.4 15.8002 11.4 15.7002 11.5C15.0002 13.5 14.5002 15.6 14.4002 17.7C13.4002 17.1 12.4002 16.5 11.3002 16C11.0002 16 10.8002 15.8 10.6002 15.7L10.1002 15.4L9.30017 14.9H9.10017C8.70017 15 8.30017 15.3 8.00017 15.7V16.2C8.70017 16.8 9.40017 17.3 10.2002 17.7L11.2002 18.3L12.8002 19.2L13.1002 19.4H13.3002V19.5L10.4002 21.4L8.90017 22.4C8.60017 22.6 8.30017 22.7 8.00017 22.8C7.70017 22.8 7.50017 23.1 7.30017 23.4V23.5H7.40017L7.60017 23.7H7.80017C7.80017 23.8 8.00017 23.8 8.00017 23.8C8.50017 23.8 9.00017 23.6 9.40017 23.3C10.1002 23 11.9002 21.9 12.7002 21.4L13.0002 21.2C13.2002 21.2 13.3002 21.2 13.4002 21C13.6002 20.8 13.9002 20.7 14.1002 20.6H14.3002C14.3002 22.5 14.4002 24.3 14.7002 26.1C14.9002 26.5 15.0002 26.9 15.1002 27.4L15.4002 28.4C15.7002 28.6 16.1002 28.7 16.4002 28.7V27.1C16.3002 25.4 16.2002 23 16.2002 21.3C16.5002 21.3 17.7002 22.1 17.7002 22.1C19.8002 23.5 23.1002 25.6 25.0002 26.1H25.3002L25.6002 25.9C25.7002 25.8 25.8002 25.6 25.8002 25.4C27.8002 25.4 29.6002 24.6 31.0002 23.1C31.4002 22.5 31.7002 21.9 31.7002 21.1C31.7002 20.7 31.6002 20.2 31.3002 19.9" fill="white"/>
</g>
<defs>
<clipPath id="clip0_266_61636">
<rect width="40" height="40" fill="white"/>
</clipPath>
</defs>
</svg>
