<svg width="24" height="24" viewBox="0 0 24 24" fill="none" xmlns="http://www.w3.org/2000/svg">
<g clip-path="url(#clip0_266_60861)">
<path d="M0 12C0 12.7065 0 12.785 0.0168382 13.385C0.06174 14.714 0.202058 16.2393 0.735266 17.8486C1.11132 18.9869 1.81852 20.2149 2.52572 20.9888C3.42377 21.9756 4.66416 22.7831 6.00561 23.2429C7.37511 23.7139 8.85688 23.9439 11.7362 24H12.2694C15.1544 23.9383 16.6305 23.7139 18 23.2429C19.3414 22.7831 20.5763 21.9756 21.4742 20.9888C22.1816 20.2094 22.8887 18.9869 23.2648 17.8486C23.7979 16.2393 23.9439 14.7084 23.9831 13.385C24 12.7907 24 12.7065 24 12C24 11.2935 24 11.2149 23.9831 10.6149C23.9383 9.28599 23.7979 7.76074 23.2648 6.15139C22.8887 5.01309 22.1816 3.78504 21.4742 3.01121C20.5763 2.0243 19.3358 1.21682 18 0.757009C16.6305 0.285981 15.1487 0.0560747 12.2694 0H11.7362C8.85126 0.0616821 7.37511 0.285981 6.00561 0.757009C4.66416 1.21682 3.42936 2.0243 2.52572 3.01121C1.81852 3.79065 1.11132 5.01309 0.735266 6.15139C0.207671 7.76074 0.06174 9.28599 0.0168382 10.6149C0 11.2093 0 11.2935 0 12Z" fill="#003D76"/>
<path d="M5.78577 9.00635V19.6072H8.84056V15.4158L11.6935 19.6072H15.3543L11.3398 13.7096H8.84056V9.00635H5.78577Z" fill="white"/>
<mask id="mask0_266_60861" style="mask-type:luminance" maskUnits="userSpaceOnUse" x="5" y="4" width="14" height="16">
<path d="M18.2143 4.60693H5.78577V19.6069H18.2143V4.60693Z" fill="white"/>
</mask>
<g mask="url(#mask0_266_60861)">
<path d="M16.3464 14.5579L18.2145 4.60693L8.47724 7.81507C9.73304 8.14533 10.9394 8.6396 12.065 9.28507L8.14355 13.7318L10.4489 15.7069L14.3703 11.2606C15.174 12.2668 15.8387 13.3758 16.3464 14.5579Z" fill="#E4007F"/>
</g>
</g>
<defs>
<clipPath id="clip0_266_60861">
<rect width="24" height="24" fill="white"/>
</clipPath>
</defs>
</svg>
