<svg width="24" height="24" viewBox="0 0 24 24" fill="none" xmlns="http://www.w3.org/2000/svg">
<g clip-path="url(#clip0_266_60759)">
<path d="M0 12C0 12.7017 0 12.7856 0.0180045 13.3853C0.0420105 14.8966 0.282071 16.4018 0.738184 17.8471C1.12828 18.9985 1.73443 20.066 2.52662 20.9895C3.48088 22.0151 4.67518 22.7887 6.0015 23.2444C7.36984 23.7122 8.85221 23.94 11.7329 24H12.2671C15.1478 23.94 16.6302 23.7122 17.9985 23.2444C19.3248 22.7887 20.5191 22.0151 21.4734 20.9895C22.2656 20.066 22.8778 19.0045 23.2618 17.8471C23.718 16.4018 23.964 14.9026 23.982 13.3853C24 12.7916 24 12.7077 24 12C24 11.2924 24 11.2144 23.982 10.6147C23.964 9.10345 23.718 7.5982 23.2618 6.15293C22.8718 5.00151 22.2656 3.93402 21.4734 3.01049C20.5191 1.98501 19.3248 1.21139 17.9985 0.755622C16.6302 0.28186 15.1478 0.05997 12.2671 0H11.7329C8.85221 0.05997 7.36984 0.287856 6.0015 0.755622C4.67518 1.21139 3.48088 1.98501 2.52662 3.01049C1.73443 3.93402 1.12228 4.99551 0.738184 6.15293C0.282071 7.5982 0.0420105 9.10345 0.0180045 10.6147C0 11.2084 0 11.2924 0 12Z" fill="#143B9B"/>
<path d="M5.72076 11.8905L6.80666 11.1619V10.332L4.5 11.8838L6.80666 13.4558V12.6259L5.72076 11.8838V11.8905Z" fill="white"/>
<path d="M19.5 11.9107L12 6.85742L6.80664 10.3387V11.1686L12 7.68726L18.2792 11.9175L12 16.1746L6.80664 12.6326V13.4625L12 17.0045L19.5 11.9175V11.9107Z" fill="white"/>
<path d="M13.9492 11.4922L14.3404 11.7486L10.5567 14.3798L12.0337 15.3783L17.1124 11.897L13.5985 9.53564L12.344 10.4262L12.8296 10.7501H12.8363L13.9559 11.4922H13.9492ZM13.5985 9.60985L17.0112 11.9037L12.027 15.3176L10.6511 14.3865L14.4415 11.7553L12.4452 10.433L13.5985 9.6166V9.60985Z" fill="white"/>
<path d="M10.6511 14.3797L12.0337 15.3107L17.018 11.8969L13.6052 9.60303L12.4452 10.4261L14.4416 11.7485L10.6511 14.3797ZM12.5396 10.4261L13.5985 9.67723L16.9101 11.9037L12.027 15.25L10.7455 14.3864L14.536 11.7552L12.5396 10.4329V10.4261Z" fill="white"/>
<path d="M10.1452 14.1032L13.9492 11.4989L12.8296 10.7568L11.9798 11.3168L11.0086 10.6759L13.1331 9.21856L11.973 8.4292L6.90109 11.9038L10.1452 14.1032ZM10.9141 11.9847L10.0711 12.5582L9.18752 11.9577L10.0306 11.3843L10.9141 11.9847Z" fill="white"/>
<path d="M13.9492 11.492L12.8296 10.7432H12.8229L13.9425 11.492H13.9492Z" fill="white"/>
</g>
<defs>
<clipPath id="clip0_266_60759">
<rect width="24" height="24" fill="white"/>
</clipPath>
</defs>
</svg>
