<svg width="40" height="40" viewBox="0 0 40 40" fill="none" xmlns="http://www.w3.org/2000/svg">
<g clip-path="url(#clip0_266_61492)">
<path d="M0 20C0 21.1776 0 21.3084 0.0280636 22.3084C0.1029 24.5234 0.336763 27.0654 1.22544 29.7476C1.8522 31.6449 3.03087 33.6916 4.20954 34.9813C5.70629 36.6261 7.77361 37.9718 10.0094 38.7382C12.2919 39.5232 14.7615 39.9064 19.5603 40H20.449C25.2573 39.8971 27.7175 39.5232 30 38.7382C32.2358 37.9718 34.2938 36.6261 35.7904 34.9813C36.9693 33.6823 38.1479 31.6449 38.7746 29.7476C39.6632 27.0654 39.9064 24.514 39.9718 22.3084C40 21.3178 40 21.1776 40 20C40 18.8224 40 18.6916 39.9718 17.6916C39.8971 15.4766 39.6632 12.9346 38.7746 10.2523C38.1479 8.35514 36.9693 6.30839 35.7904 5.01868C34.2938 3.37383 32.2264 2.02804 30 1.26168C27.7175 0.476636 25.2479 0.0934579 20.449 0H19.5603C14.7521 0.102804 12.2919 0.476636 10.0094 1.26168C7.77361 2.02804 5.71561 3.37383 4.20954 5.01868C3.03087 6.31775 1.8522 8.35514 1.22544 10.2523C0.346118 12.9346 0.1029 15.4766 0.0280636 17.6916C0 18.6823 0 18.8224 0 20Z" fill="#003CDC"/>
<path d="M8.38202 19.894L9.02745 19.0181C8.54827 18.7875 8.05931 18.4372 7.69992 17.9668C7.34017 17.5152 7.10059 16.962 7.10059 16.3071V15.5509H5.90192V16.3256C5.90192 16.9895 5.67138 17.5794 5.30256 18.0866C4.93374 18.6031 4.44477 19.0086 3.92856 19.3037L4.6477 20.143C5.06263 19.894 5.46809 19.5804 5.80027 19.221C6.12334 18.8797 6.38109 18.5015 6.53792 18.1421C6.91617 18.8427 7.49699 19.4145 8.38202 19.894ZM10.7427 18.2615H12.0797V17.2937H10.7423V15.3574H9.59884V20.2258H10.7423L10.7427 18.2615ZM5.90192 24.0894H10.7423V20.558H5.90192V24.0894ZM9.5992 21.5261V23.1306H7.03595V21.5261H9.5992ZM16.7912 20.0414L17.4367 19.1469C16.9481 18.8983 16.4595 18.5661 16.1182 18.1236C15.7588 17.6901 15.5374 17.1554 15.5374 16.4639V15.5509H14.3202V16.4828C14.3202 17.1097 14.1082 17.6629 13.767 18.1425C13.4257 18.6311 12.9186 19.0551 12.3563 19.4239L13.066 20.2817C13.5089 20.0142 13.9053 19.6639 14.2371 19.3226C14.5602 18.9814 14.8088 18.622 14.9471 18.2899C15.0945 18.585 15.3435 18.9077 15.6663 19.2119C15.9893 19.535 16.3854 19.8203 16.7912 20.0414ZM18.3772 20.2719H19.5207V15.3574H18.3772V16.8879H16.7637V17.9021H18.3772V20.2719ZM19.3821 22.1897C19.3821 21.5998 19.1425 21.1017 18.7461 20.7424C18.3402 20.3826 17.7779 20.1706 17.114 20.1706C16.45 20.1706 15.8968 20.3826 15.5004 20.7424C15.0945 21.1017 14.864 21.5998 14.864 22.1897C14.864 22.8076 15.0945 23.3056 15.5004 23.665C15.8968 24.0062 16.45 24.2092 17.114 24.2092C17.7779 24.2092 18.3402 24.0062 18.7461 23.665C19.1425 23.3056 19.3821 22.8076 19.3821 22.1897ZM18.2575 22.1897C18.2575 22.8261 17.7779 23.2501 17.114 23.2501C16.45 23.2501 15.989 22.8261 15.989 22.1901C15.989 21.5628 16.45 21.1388 17.114 21.1388C17.4458 21.1388 17.7224 21.2495 17.9344 21.4339C18.0367 21.5314 18.1181 21.6487 18.1736 21.7786C18.2291 21.9085 18.2577 22.0484 18.2575 22.1897ZM25.1177 16.5285H27.0446V15.5694H21.7518V16.5285H23.6882C23.5502 16.8879 23.1995 17.2201 22.7661 17.4781C22.3327 17.7457 21.8259 17.9573 21.383 18.0408L21.8535 18.981C22.3573 18.8631 22.8416 18.6736 23.2917 18.4183C23.7346 18.1697 24.1401 17.8561 24.4073 17.5152C24.6748 17.847 25.0716 18.1421 25.5232 18.3911C25.9657 18.6398 26.4728 18.8336 26.9615 18.9535L27.4319 18.0314C26.9153 17.8931 26.3806 17.7087 25.9657 17.4506C25.5508 17.2015 25.2284 16.8973 25.1177 16.5285ZM20.6359 20.3641H28.1783V19.396H20.6363L20.6359 20.3641ZM26.7491 22.6417C26.7491 22.079 26.491 21.6365 26.0761 21.3137C25.6426 21.0096 25.0709 20.8346 24.4069 20.8346C23.7709 20.8346 23.1901 21.0096 22.7567 21.3137C22.3232 21.6183 22.056 22.0794 22.056 22.6417C22.056 23.2319 22.3417 23.6835 22.7842 23.9877C23.2271 24.2829 23.817 24.4306 24.4069 24.4306C24.9877 24.4306 25.5686 24.2738 26.0115 23.9786C26.4543 23.6835 26.7491 23.2319 26.7491 22.6417ZM25.6426 22.6417C25.6426 22.8998 25.5043 23.1118 25.2832 23.2595C25.0618 23.4069 24.7482 23.4991 24.4069 23.4991C23.6693 23.4991 23.1621 23.1579 23.1621 22.6417C23.1621 22.1255 23.6693 21.7657 24.4073 21.7657C24.7485 21.7657 25.0618 21.8579 25.2829 22.0053C25.5043 22.1621 25.6426 22.3836 25.6426 22.6417ZM28.8059 18.6863L28.9163 19.7187C29.5591 19.7005 30.2016 19.6729 30.8435 19.6359V20.8807H31.9681V19.5619C32.9272 19.4882 33.8678 19.396 34.8084 19.2852V20.0694H33.0931V20.9359H34.8084V21.895H35.9425V15.3574H34.8084V18.3632C34.4116 18.4093 34.0152 18.4463 33.6097 18.483C33.7386 17.6807 33.7941 16.8697 33.7847 16.0766V15.7814H29.4884V16.7681H32.6234C32.6415 17.3028 32.5958 17.9116 32.5036 18.5661C31.2864 18.6492 30.0507 18.6859 28.8059 18.6859V18.6863ZM30.9724 23.9325H36.0714V22.9553H32.0974V21.3784H30.9724V23.9325Z" fill="white"/>
</g>
<defs>
<clipPath id="clip0_266_61492">
<rect width="40" height="40" fill="white"/>
</clipPath>
</defs>
</svg>
