<svg width="32" height="32" viewBox="0 0 32 32" fill="none" xmlns="http://www.w3.org/2000/svg">
<g clip-path="url(#clip0_266_61147)">
<path d="M0 16C0 16.9421 0 17.0467 0.0224509 17.8467C0.08232 19.6187 0.269411 21.6523 0.980354 23.7981C1.48176 25.3159 2.4247 26.9533 3.36763 27.9851C4.56503 29.3009 6.21889 30.3774 8.00749 30.9906C9.83349 31.6186 11.8092 31.9251 15.6483 32H16.3592C20.2058 31.9177 22.174 31.6186 24 30.9906C25.7886 30.3774 27.435 29.3009 28.6323 27.9851C29.5754 26.9458 30.5183 25.3159 31.0197 23.7981C31.7306 21.6523 31.9251 19.6112 31.9774 17.8467C32 17.0542 32 16.9421 32 16C32 15.0579 32 14.9533 31.9774 14.1533C31.9177 12.3813 31.7306 10.3477 31.0197 8.20186C30.5183 6.68411 29.5754 5.04671 28.6323 4.01494C27.435 2.69907 25.7811 1.62243 24 1.00935C22.174 0.381309 20.1983 0.0747663 16.3592 0H15.6483C11.8017 0.0822429 9.83349 0.381309 8.00749 1.00935C6.21889 1.62243 4.57249 2.69907 3.36763 4.01494C2.4247 5.0542 1.48176 6.68411 0.980354 8.20186C0.276894 10.3477 0.08232 12.3813 0.0224509 14.1533C0 14.9458 0 15.0579 0 16Z" fill="#1D62E5"/>
<path d="M15.5888 6.86637C10.5429 7.09651 6.63922 11.3707 6.86656 16.4137C7.09388 21.4568 11.368 25.3633 16.4139 25.1332C21.457 24.9031 25.3607 20.6317 25.1334 15.5859C24.906 10.5456 20.6319 6.63906 15.5888 6.86637ZM16.658 15.7402C18.283 17.2388 19.1726 18.0443 19.1726 18.0443C22.0379 20.4297 21.0585 22.6103 19.964 23.368C19.1305 23.9461 18.2044 24.2183 16.992 24.2829C16.8826 24.2969 16.6833 24.2352 16.6749 24.0415C16.6665 23.8339 16.9696 23.7833 16.9696 23.7833C19.6749 23.2501 18.8835 21.4765 17.9266 20.5728C17.5252 20.1911 13.759 16.9441 13.759 16.9441C10.1697 13.8543 10.4559 11.4408 10.4559 11.4408C10.6299 8.47163 13.2286 7.73637 15.1959 7.90474C15.426 7.9244 15.5552 8.06471 15.513 8.25834C15.471 8.46603 15.165 8.48286 15.165 8.48286C14.5392 8.51934 13.9808 8.58389 13.5542 8.87014C11.9686 9.93657 12.4372 11.7495 14.5504 13.7673C14.8171 14.0227 15.0977 14.2893 15.3868 14.5615C15.3868 14.5615 15.8105 14.9348 16.6552 15.7402H16.658ZM15.4317 23.4157C15.4485 23.7047 14.7441 23.831 13.9415 23.7525C12.9312 23.6542 11.7244 23.3343 10.6748 22.4278C9.70942 21.5915 9.11168 20.4437 8.81979 19.4362C8.52233 18.4035 8.39885 17.1939 8.88996 17.2893C9.04151 17.3202 9.30251 17.9825 9.58593 18.4652C9.87782 18.9647 10.1192 19.2398 10.3409 19.4082C10.4419 19.4839 10.7871 18.7178 11.2894 18.2828C11.5813 18.0415 11.9012 17.9601 11.9517 18.6785C12.0135 19.5597 11.8563 20.6065 12.1117 20.6065C12.353 20.6065 12.8947 20.4269 14.0846 20.3259C14.5308 20.2866 14.7862 20.3707 14.3596 20.9741C14.1463 21.2744 13.8601 21.6982 13.1866 22.1809C14.1968 23.1294 15.412 23.0144 15.4345 23.4157H15.4317ZM16.2287 14.1995C16.1529 13.902 16.1333 13.5288 16.195 13.0517C16.3213 12.0526 16.5907 11.5839 16.8966 10.8122C17.3091 9.7738 16.3073 9.16483 16.4728 8.78314C16.7002 8.26677 17.4186 8.92346 18.2156 8.97117C18.9032 9.01046 19.3185 8.97397 19.8545 9.04694C20.5646 9.14237 21.4177 9.38371 21.7938 9.82711C22.1418 10.2341 21.6114 10.7308 20.9715 10.4193C20.5056 10.192 19.9163 10.3323 20.2615 10.8178C20.6768 11.2808 20.8761 11.2921 21.297 11.4043C22.4617 11.7102 22.4841 12.8244 21.6983 13.4025C20.8003 14.0592 19.8938 13.7869 19.529 12.4988C19.3466 11.8561 18.892 11.5306 18.4289 11.713C17.9658 11.8954 18.2409 12.7402 18.5917 13.5231C19.2961 15.3192 17.5477 15.2575 17.3428 15.2351C16.4139 15.0386 16.2259 14.1967 16.2259 14.1967L16.2287 14.1995Z" fill="white"/>
</g>
<defs>
<clipPath id="clip0_266_61147">
<rect width="32" height="32" fill="white"/>
</clipPath>
</defs>
</svg>
