<svg width="40" height="40" viewBox="0 0 40 40" fill="none" xmlns="http://www.w3.org/2000/svg">
<g clip-path="url(#clip0_266_61444)">
<path d="M0 20C0 21.1776 0 21.3084 0.0280636 22.3084C0.1029 24.5234 0.336763 27.0654 1.22544 29.7476C1.8522 31.6449 3.03087 33.6916 4.20954 34.9813C5.70629 36.6261 7.77361 37.9718 10.0094 38.7382C12.2919 39.5232 14.7615 39.9064 19.5603 40H20.449C25.2573 39.8971 27.7175 39.5232 30 38.7382C32.2358 37.9718 34.2938 36.6261 35.7904 34.9813C36.9693 33.6823 38.1479 31.6449 38.7746 29.7476C39.6632 27.0654 39.9064 24.514 39.9718 22.3084C40 21.3178 40 21.1776 40 20C40 18.8224 40 18.6916 39.9718 17.6916C39.8971 15.4766 39.6632 12.9346 38.7746 10.2523C38.1479 8.35514 36.9693 6.30839 35.7904 5.01868C34.2938 3.37383 32.2264 2.02804 30 1.26168C27.7175 0.476636 25.2479 0.0934579 20.449 0H19.5603C14.7521 0.102804 12.2919 0.476636 10.0094 1.26168C7.77361 2.02804 5.71561 3.37383 4.20954 5.01868C3.03087 6.31775 1.8522 8.35514 1.22544 10.2523C0.346118 12.9346 0.1029 15.4766 0.0280636 17.6916C0 18.6823 0 18.8224 0 20Z" fill="#E82118"/>
<mask id="mask0_266_61444" style="mask-type:luminance" maskUnits="userSpaceOnUse" x="4" y="15" width="32" height="9">
<path d="M35.3571 15H4.64286V23.873H35.3571V15Z" fill="white"/>
</mask>
<g mask="url(#mask0_266_61444)">
<path d="M11.2389 17.8899C10.9014 17.8675 10.5639 17.9346 10.2606 18.0843C9.95732 18.2341 9.69886 18.4612 9.51147 18.7428C9.34561 18.46 9.10315 18.2298 8.81204 18.0789C8.52097 17.928 8.19315 17.8625 7.8664 17.8899C7.55607 17.8845 7.24897 17.9532 6.97054 18.0902C6.69207 18.2273 6.45036 18.4288 6.26536 18.678V18.0551H4.64286V23.4915H6.34475V20.3682C6.33833 20.2512 6.35515 20.134 6.39418 20.0234C6.43325 19.9128 6.49379 19.8111 6.57229 19.724C6.65082 19.637 6.74575 19.5663 6.85168 19.516C6.95765 19.4658 7.0725 19.437 7.18961 19.4313C7.21393 19.43 7.23829 19.43 7.26261 19.4313C7.48411 19.4153 7.70293 19.4875 7.8714 19.6322C8.0399 19.7769 8.14429 19.9823 8.16193 20.2037C8.16457 20.2526 8.16325 20.3016 8.1579 20.3503V23.5008H9.83825V20.3619C9.83336 20.2449 9.85165 20.1281 9.89197 20.0182C9.93225 19.9082 9.99379 19.8073 10.0731 19.7212C10.1524 19.6351 10.248 19.5655 10.3543 19.5163C10.4605 19.4672 10.5754 19.4394 10.6924 19.4347C10.7173 19.4347 10.7429 19.4347 10.7684 19.4347C10.8899 19.4255 11.012 19.4432 11.1259 19.4866C11.2398 19.5301 11.3426 19.5981 11.4271 19.6859C11.5116 19.7737 11.5758 19.8791 11.6149 19.9946C11.6539 20.11 11.667 20.2327 11.6532 20.3537V23.5043H13.2983V19.9823C13.3214 19.7311 13.2946 19.4777 13.2194 19.2368C13.1442 18.996 13.022 18.7724 12.86 18.579C12.698 18.3856 12.4992 18.2261 12.2753 18.1098C12.0514 17.9936 11.8066 17.9227 11.5552 17.9015C11.4502 17.8892 11.3445 17.8853 11.2389 17.8899Z" fill="white"/>
<path d="M21.7119 18.787V18.0499H20.0645V23.4864H21.7664V21.1106C21.7664 20.0282 22.3829 19.6347 23.0655 19.6347C23.2441 19.6333 23.4223 19.6516 23.5969 19.6892V18.047C23.4506 18.0094 23.3 17.9911 23.149 17.9925C22.8597 17.9808 22.5727 18.0486 22.3193 18.1887C22.0659 18.3288 21.8558 18.5357 21.7119 18.787Z" fill="white"/>
<path d="M25.8863 18.0537H24.1856V23.4902H25.8863V18.0537Z" fill="white"/>
<path d="M28.9657 16.4639H27.4429V17.1633C27.4538 17.2686 27.4438 17.3751 27.4134 17.4766C27.3829 17.5781 27.3328 17.6725 27.2657 17.7545C27.1987 17.8366 27.1161 17.9045 27.0227 17.9545C26.9293 18.0045 26.8269 18.0355 26.7215 18.0458C26.6746 18.0497 26.6275 18.0497 26.5807 18.0458H26.302V19.5008H27.287V21.8308C27.2746 22.0495 27.3054 22.2684 27.3779 22.4751C27.4503 22.6818 27.5629 22.8722 27.709 23.0353C27.8552 23.1983 28.0321 23.3309 28.2297 23.4254C28.4273 23.52 28.6415 23.5745 28.8603 23.586C28.9568 23.5929 29.0538 23.5911 29.15 23.5808C29.4526 23.5953 29.7546 23.5431 30.0348 23.4278V22.0493C29.8878 22.0829 29.7377 22.1012 29.5869 22.1037C29.2178 22.1037 28.9704 21.9832 28.9704 21.5353V19.5014H30.0569V18.0516H28.9657V16.4639Z" fill="white"/>
<path d="M25.0252 15C24.7338 15.0016 24.4548 15.1187 24.2495 15.3257C24.0443 15.5326 23.9295 15.8125 23.9303 16.104C23.9311 16.3955 24.0475 16.6747 24.2539 16.8805C24.4603 17.0864 24.7398 17.2019 25.0313 17.2019C25.3228 17.2019 25.6023 17.0864 25.8087 16.8805C26.0151 16.6747 26.1314 16.3955 26.1322 16.104C26.133 15.8125 26.0183 15.5326 25.813 15.3257C25.6078 15.1187 25.3289 15.0016 25.0374 15H25.0252Z" fill="white"/>
<path d="M16.6608 17.8549C15.8939 17.8804 15.1679 18.2072 14.6403 18.7644C14.1127 19.3216 13.826 20.0643 13.8424 20.8315C13.8588 21.5987 14.1769 22.3284 14.7279 22.8626C15.2788 23.3968 16.0181 23.6922 16.7854 23.6849C17.2968 23.7188 17.8065 23.599 18.2493 23.3409C18.6919 23.0827 19.0473 22.698 19.2695 22.2362L17.8626 21.7147C17.7575 21.8969 17.6025 22.0452 17.4159 22.142C17.2291 22.2389 17.0186 22.2802 16.8091 22.2612C16.5005 22.2814 16.1958 22.1826 15.9578 21.985C15.7198 21.7875 15.5666 21.5062 15.5297 21.199H19.4463C19.4713 21.0263 19.483 20.852 19.4811 20.6775C19.5131 20.338 19.4776 19.9954 19.3767 19.6697C19.2758 19.3439 19.1114 19.0413 18.8931 18.7793C18.6747 18.5174 18.4067 18.3012 18.1045 18.1432C17.8022 17.9853 17.4717 17.8887 17.1319 17.859C16.9753 17.844 16.8177 17.8427 16.6608 17.8549ZM15.5598 20.1113C15.5942 19.8434 15.7291 19.5985 15.9374 19.4263C16.1456 19.2542 16.4115 19.1676 16.6811 19.1842C16.9438 19.1497 17.2095 19.2204 17.4203 19.381C17.631 19.5415 17.7699 19.7788 17.8065 20.0412C17.8065 20.0644 17.8116 20.0893 17.8128 20.1137L15.5598 20.1113Z" fill="white"/>
<path d="M32.771 22.0344L35.3125 19.4199V18.0518H30.7568V19.5068H33.1099L30.6895 22.0228V23.4882H35.3571V22.0332L32.771 22.0344Z" fill="white"/>
</g>
</g>
<defs>
<clipPath id="clip0_266_61444">
<rect width="40" height="40" fill="white"/>
</clipPath>
</defs>
</svg>
