<svg width="32" height="32" viewBox="0 0 32 32" fill="none" xmlns="http://www.w3.org/2000/svg">
<g clip-path="url(#clip0_266_61083)">
<path d="M0 16C0 16.9421 0 17.0467 0.0224509 17.8467C0.08232 19.6187 0.269411 21.6523 0.980354 23.7981C1.48176 25.3159 2.4247 26.9533 3.36763 27.9851C4.56503 29.3009 6.21889 30.3774 8.00749 30.9906C9.83349 31.6186 11.8092 31.9251 15.6483 32H16.3592C20.2058 31.9177 22.174 31.6186 24 30.9906C25.7886 30.3774 27.435 29.3009 28.6323 27.9851C29.5754 26.9458 30.5183 25.3159 31.0197 23.7981C31.7306 21.6523 31.9251 19.6112 31.9774 17.8467C32 17.0542 32 16.9421 32 16C32 15.0579 32 14.9533 31.9774 14.1533C31.9177 12.3813 31.7306 10.3477 31.0197 8.20186C30.5183 6.68411 29.5754 5.04671 28.6323 4.01494C27.435 2.69907 25.7811 1.62243 24 1.00935C22.174 0.381309 20.1983 0.0747663 16.3592 0H15.6483C11.8017 0.0822429 9.83349 0.381309 8.00749 1.00935C6.21889 1.62243 4.57249 2.69907 3.36763 4.01494C2.4247 5.0542 1.48176 6.68411 0.980354 8.20186C0.276894 10.3477 0.08232 12.3813 0.0224509 14.1533C0 14.9458 0 15.0579 0 16Z" fill="#E82118"/>
<mask id="mask0_266_61083" style="mask-type:luminance" maskUnits="userSpaceOnUse" x="3" y="12" width="26" height="8">
<path d="M28.2857 12H3.71429V19.0984H28.2857V12Z" fill="white"/>
</mask>
<g mask="url(#mask0_266_61083)">
<path d="M8.99112 14.312C8.72109 14.2941 8.45114 14.3477 8.20849 14.4676C7.96586 14.5874 7.75909 14.7691 7.60917 14.9944C7.47649 14.7681 7.28252 14.584 7.04963 14.4632C6.81677 14.3425 6.55452 14.2901 6.29312 14.312C6.04486 14.3077 5.79917 14.3626 5.57643 14.4723C5.35366 14.5819 5.16029 14.7431 5.01229 14.9425V14.4441H3.71429V18.7933H5.0758V16.2947C5.07066 16.201 5.08412 16.1073 5.11534 16.0188C5.1466 15.9304 5.19503 15.849 5.25783 15.7793C5.32066 15.7097 5.3966 15.6531 5.48134 15.6129C5.56612 15.5727 5.658 15.5497 5.75169 15.5451C5.77114 15.5441 5.79063 15.5441 5.81009 15.5451C5.98729 15.5323 6.16234 15.5901 6.29712 15.7059C6.43192 15.8216 6.51543 15.9859 6.52954 16.163C6.53166 16.2021 6.5306 16.2414 6.52632 16.2803V18.8007H7.8706V16.2896C7.86669 16.196 7.88132 16.1026 7.91357 16.0146C7.9458 15.9267 7.99503 15.8459 8.05849 15.7771C8.12194 15.7081 8.1984 15.6525 8.28343 15.6131C8.36843 15.5738 8.46032 15.5516 8.55392 15.5479C8.57383 15.5479 8.59429 15.5479 8.61469 15.5479C8.71192 15.5405 8.80957 15.5547 8.90069 15.5894C8.9918 15.6241 9.07406 15.6786 9.14169 15.7488C9.20931 15.8191 9.2606 15.9034 9.29189 15.9957C9.32314 16.0881 9.3336 16.1862 9.32254 16.2831V18.8035H10.6386V15.9859C10.6571 15.7849 10.6357 15.5823 10.5755 15.3896C10.5153 15.1969 10.4176 15.018 10.288 14.8633C10.1584 14.7085 9.99937 14.581 9.82023 14.488C9.64109 14.3949 9.44531 14.3383 9.24417 14.3213C9.16017 14.3115 9.0756 14.3084 8.99112 14.312Z" fill="white"/>
<path d="M17.3695 15.0292V14.4395H16.0516V18.7887H17.4131V16.8881C17.4131 16.0221 17.9063 15.7074 18.4524 15.7074C18.5953 15.7063 18.7378 15.7209 18.8775 15.7509V14.4372C18.7605 14.4071 18.64 14.3925 18.5192 14.3936C18.2877 14.3842 18.0581 14.4385 17.8554 14.5505C17.6527 14.6626 17.4847 14.8282 17.3695 15.0292Z" fill="white"/>
<path d="M20.7091 14.4429H19.3485V18.7921H20.7091V14.4429Z" fill="white"/>
<path d="M23.1726 13.1714H21.9543V13.7309C21.9631 13.8152 21.955 13.9004 21.9307 13.9816C21.9063 14.0628 21.8662 14.1383 21.8126 14.2039C21.7589 14.2696 21.6929 14.3239 21.6181 14.3639C21.5434 14.4039 21.4615 14.4287 21.3772 14.4369C21.3397 14.44 21.302 14.44 21.2645 14.4369H21.0416V15.6009H21.8296V17.465C21.8197 17.6399 21.8443 17.815 21.9023 17.9804C21.9602 18.1457 22.0503 18.298 22.1672 18.4285C22.2842 18.559 22.4257 18.665 22.5838 18.7406C22.7418 18.8163 22.9132 18.8599 23.0882 18.8691C23.1654 18.8746 23.243 18.8732 23.32 18.8649C23.5621 18.8766 23.8037 18.8348 24.0278 18.7425V17.6397C23.9102 17.6666 23.7901 17.6812 23.6695 17.6833C23.3742 17.6833 23.1763 17.5869 23.1763 17.2285V15.6014H24.0455V14.4416H23.1726V13.1714Z" fill="white"/>
<path d="M20.0202 12C19.787 12.0013 19.5638 12.095 19.3996 12.2605C19.2354 12.4261 19.1436 12.65 19.1443 12.8832C19.1449 13.1164 19.238 13.3398 19.4031 13.5044C19.5682 13.6691 19.7919 13.7615 20.0251 13.7615C20.2582 13.7615 20.4818 13.6691 20.6469 13.5044C20.8121 13.3398 20.9051 13.1164 20.9058 12.8832C20.9064 12.65 20.8146 12.4261 20.6504 12.2605C20.4862 12.095 20.2631 12.0013 20.0299 12H20.0202Z" fill="white"/>
<path d="M13.3287 14.284C12.7151 14.3043 12.1343 14.5657 11.7122 15.0115C11.2901 15.4573 11.0608 16.0514 11.0739 16.6652C11.087 17.2789 11.3415 17.8628 11.7823 18.2901C12.223 18.7174 12.8145 18.9538 13.4283 18.9479C13.8374 18.9751 14.2452 18.8792 14.5994 18.6727C14.9535 18.4661 15.2378 18.1584 15.4156 17.789L14.2901 17.3718C14.206 17.5175 14.082 17.6362 13.9327 17.7136C13.7833 17.7911 13.6149 17.8242 13.4473 17.8089C13.2004 17.8252 12.9566 17.7461 12.7662 17.588C12.5758 17.43 12.4533 17.2049 12.4238 16.9592H15.557C15.5771 16.8211 15.5864 16.6816 15.5849 16.542C15.6105 16.2704 15.5821 15.9964 15.5013 15.7358C15.4206 15.4751 15.2891 15.2331 15.1145 15.0235C14.9398 14.8139 14.7254 14.641 14.4836 14.5146C14.2418 14.3882 13.9773 14.3109 13.7055 14.2872C13.5802 14.2752 13.4541 14.2742 13.3287 14.284ZM12.4479 16.0891C12.4753 15.8747 12.5833 15.6788 12.7499 15.5411C12.9165 15.4033 13.1292 15.3341 13.3449 15.3474C13.5551 15.3198 13.7676 15.3764 13.9362 15.5048C14.1048 15.6332 14.2159 15.8231 14.2452 16.033C14.2452 16.0515 14.2493 16.0715 14.2503 16.0909L12.4479 16.0891Z" fill="white"/>
<path d="M26.2168 17.628L28.25 15.5364V14.4419H24.6054V15.6059H26.4879L24.5516 17.6187V18.7911H28.2857V17.6271L26.2168 17.628Z" fill="white"/>
</g>
</g>
<defs>
<clipPath id="clip0_266_61083">
<rect width="32" height="32" fill="white"/>
</clipPath>
</defs>
</svg>
