<svg width="32" height="32" viewBox="0 0 32 32" fill="none" xmlns="http://www.w3.org/2000/svg">
<g clip-path="url(#clip0_266_61384)">
<path d="M0 16C0 16.936 0 17.048 0.024006 17.848C0.056014 19.872 0.376094 21.872 0.984246 23.8C1.50438 25.336 2.31258 26.76 3.36883 27.984C4.64117 29.352 6.23357 30.384 8.002 30.992C9.82646 31.624 11.8029 31.92 15.6439 32H16.3561C20.1971 31.92 22.1735 31.616 23.998 30.992C25.7664 30.384 27.3588 29.352 28.6311 27.984C29.6874 26.752 30.5037 25.336 31.0157 23.8C31.624 21.872 31.952 19.872 31.976 17.848C32 17.056 32 16.944 32 16.008C32 15.072 32 14.96 31.976 14.168C31.952 12.144 31.624 10.144 31.0157 8.216C30.4957 6.68 29.6874 5.256 28.6311 4.024C27.3588 2.656 25.7664 1.624 23.998 1.016C22.1735 0.384 20.1971 0.08 16.3561 0H15.6439C11.8029 0.08 9.82646 0.384 8.002 1.008C6.23357 1.616 4.64117 2.648 3.36883 4.016C2.31258 5.248 1.49637 6.664 0.984246 8.208C0.376094 10.128 0.056014 12.136 0.024006 14.16C0 14.952 0 15.064 0 16Z" fill="#00448D"/>
<path d="M19.0056 17.6362H20.5987L24.5727 14.0981H19.0056V17.6362Z" fill="#D5B55D"/>
<path d="M17.9401 7.5L14.4163 10.6382V13.0288H17.9401V7.5Z" fill="#D5B55D"/>
<path d="M11.4037 14.0981L7.42969 17.6275H14.4167V24.6429L17.9405 21.5134V14.0981H11.3951H11.4037Z" fill="white"/>
</g>
<defs>
<clipPath id="clip0_266_61384">
<rect width="32" height="32" fill="white"/>
</clipPath>
</defs>
</svg>
