<svg width="40" height="40" viewBox="0 0 40 40" fill="none" xmlns="http://www.w3.org/2000/svg">
<g clip-path="url(#clip0_266_61673)">
<path d="M0 20C0 21.175 0 21.312 0.032 22.305C0.0669118 24.8303 0.471195 27.3368 1.232 29.745C1.87817 31.6663 2.89125 33.4439 4.215 34.979C5.80749 36.6889 7.7968 37.9799 10.007 38.738C12.29 39.524 14.756 39.902 19.557 40H20.444C25.244 39.9 27.712 39.524 29.994 38.738C32.2048 37.98 34.1948 36.6889 35.788 34.979C37.1104 33.4431 38.123 31.6657 38.77 29.745C39.5303 27.3367 39.9346 24.8302 39.97 22.305C40 21.312 40 21.175 40 20C40 18.825 40 18.689 39.97 17.7C39.9346 15.1748 39.5303 12.6683 38.77 10.26C38.1228 8.33908 37.1102 6.56145 35.788 5.025C34.1947 3.31539 32.2047 2.02468 29.994 1.267C27.712 0.476 25.246 0.1 20.444 0H19.557C14.757 0.1 12.29 0.476 10.007 1.263C7.79687 2.02071 5.80754 3.31144 4.215 5.021C2.89145 6.55665 1.8784 8.3345 1.232 10.256C0.471195 12.6642 0.0669118 15.1707 0.032 17.696C0 18.689 0 18.826 0 20Z" fill="#01448B"/>
<path d="M13.0399 21.1566C12.7927 20.2507 12.8695 19.2869 13.2571 18.4315C13.6447 17.5762 14.3188 16.883 15.1629 16.4716C19.0479 14.5316 23.0109 12.7466 26.9629 10.8896C27.2135 11.8125 27.1292 12.7943 26.7251 13.661C26.3209 14.5277 25.623 15.2234 24.7549 15.6246C20.9119 17.5326 16.9969 19.2986 13.0449 21.1566" fill="white"/>
<path d="M13.958 25.2659C13.7454 24.5424 13.7716 23.7697 14.0328 23.0623C14.294 22.3549 14.7762 21.7506 15.408 21.3389C16.5109 20.6942 17.6502 20.1135 18.82 19.5999C20.248 18.9139 21.692 18.2579 23.129 17.5879C23.3606 18.3546 23.3211 19.1778 23.0171 19.9188C22.7131 20.6599 22.1633 21.2736 21.46 21.6569C18.99 22.9149 16.468 24.0669 13.96 25.2689" fill="white"/>
<path d="M14.836 29.1094C14.356 26.0524 16.63 25.0634 19.785 23.8994C19.9132 24.4437 19.883 25.0132 19.698 25.5409C19.513 26.0686 19.181 26.5323 18.741 26.8774C17.553 27.7084 16.221 28.3314 14.841 29.1094" fill="white"/>
<path d="M0 20C0 21.175 0 21.3107 0.0321429 22.3036C0.103571 24.5143 0.342857 27.0643 1.23214 29.7429C1.86071 31.6429 3.03571 33.6821 4.21429 34.9786C5.71429 36.6215 7.775 37.9679 10.0071 38.7358C12.2893 39.5215 14.7571 39.9 19.5571 40H20.4429C25.2429 39.9 27.7107 39.5215 29.9929 38.7358C32.225 37.9679 34.2857 36.6215 35.7857 34.9786C36.9679 33.6821 38.1393 31.6429 38.7679 29.7429C39.6571 27.0607 39.8964 24.5143 39.9679 22.3036C40 21.3107 40 21.175 40 20C40 18.825 40 18.6893 39.9679 17.6964C39.8964 15.4857 39.6571 12.9393 38.7679 10.2571C38.1393 8.35715 36.9679 6.31786 35.7857 5.02143C34.2857 3.37857 32.225 2.03214 29.9929 1.26071C27.7107 0.474999 25.2429 0.0964286 20.4429 0H19.5571C14.7571 0.1 12.2893 0.474999 10.0071 1.26071C7.775 2.02857 5.71429 3.375 4.21429 5.02143C3.03571 6.31429 1.86071 8.35715 1.23214 10.2571C0.342857 12.9357 0.103571 15.4857 0.0321429 17.6964C0 18.6893 0 18.825 0 20Z" fill="#0367B3"/>
<path d="M20.1785 31.0538C26.2418 31.0538 31.1571 26.1385 31.1571 20.0753C31.1571 14.0119 26.2418 9.09668 20.1785 9.09668C14.1152 9.09668 9.19995 14.0119 9.19995 20.0753C9.19995 26.1385 14.1152 31.0538 20.1785 31.0538Z" fill="#0098D5"/>
<path d="M20.175 12.7291C25.1642 12.7291 29.425 15.8005 31.0642 20.1076C31.0642 20.0576 31.0678 20.0076 31.0678 19.9576C31.0678 13.9434 26.1714 9.06836 20.1321 9.06836C14.0928 9.06836 9.19995 13.9469 9.19995 19.9576C9.19995 20.0862 9.20352 20.2112 9.21067 20.3362C10.7821 15.9076 15.1 12.7255 20.1785 12.7255L20.175 12.7291Z" fill="#0083CA"/>
<path d="M20.1818 12.8178C25.1818 12.8178 29.4461 15.8999 31.0639 20.2107C31.0639 20.1749 31.0639 20.1428 31.0639 20.1071C29.4246 15.7964 25.1639 12.7285 20.1746 12.7285C15.1854 12.7285 10.7818 15.9107 9.20679 20.3392C9.20679 20.3749 9.20679 20.4142 9.20679 20.4535C10.7568 16.0214 15.0854 12.8214 20.1746 12.8214L20.1818 12.8178Z" fill="#0083CA"/>
<path d="M20.1674 12.9213C25.196 12.9213 29.471 16.032 31.0603 20.3606C31.0603 20.3106 31.0603 20.2606 31.0639 20.2141C29.446 15.907 25.1817 12.8213 20.1817 12.8213C15.1817 12.8213 10.7639 16.0213 9.21387 20.4534C9.21387 20.4927 9.21387 20.5284 9.21744 20.5677C10.7424 16.1356 15.0639 12.9249 20.1674 12.9249V12.9213Z" fill="#0085CB"/>
<path d="M20.168 12.9209C15.0644 12.9209 10.743 16.1352 9.21802 20.5638C9.21802 20.5959 9.22516 20.6316 9.22516 20.6638C10.7323 16.2388 15.0609 13.0173 20.1716 13.0173C25.2823 13.0173 29.493 16.1459 31.0573 20.4745C31.0573 20.4388 31.0573 20.3995 31.0573 20.3602C29.4716 16.0316 25.193 12.9209 20.1644 12.9209H20.168Z" fill="#0086CC"/>
<path d="M20.1715 13.0182C15.0608 13.0182 10.7287 16.2396 9.2251 20.6646C9.2251 20.7004 9.23224 20.7361 9.23224 20.7718C10.7144 16.3468 15.0501 13.1146 20.1715 13.1146C25.293 13.1146 29.5072 16.2575 31.0501 20.5861C31.0501 20.5468 31.0537 20.5111 31.0572 20.4718C29.493 16.1432 25.2108 13.0146 20.1715 13.0146V13.0182Z" fill="#0088CC"/>
<path d="M20.1712 13.2071C25.2284 13.2071 29.5212 16.3643 31.0426 20.6928C31.0426 20.6571 31.0498 20.6214 31.0498 20.5857C29.5105 16.2535 25.2212 13.1143 20.1712 13.1143C15.1212 13.1143 10.7141 16.3464 9.23193 20.7714C9.23193 20.8035 9.23551 20.8357 9.23908 20.8678C10.7034 16.45 15.0462 13.2071 20.1712 13.2071Z" fill="#0089CD"/>
<path d="M20.1712 13.207C15.0462 13.207 10.7033 16.4499 9.23901 20.8677C9.23901 20.9035 9.24259 20.9392 9.24616 20.9749C10.6854 16.5606 15.0319 13.3035 20.164 13.3035C25.2962 13.3035 29.5354 16.4785 31.0283 20.8106C31.0283 20.7713 31.0354 20.732 31.039 20.6927C29.5212 16.3642 25.2283 13.207 20.1676 13.207H20.1712Z" fill="#008BCE"/>
<path d="M20.1681 13.4066C25.2467 13.4066 29.5502 16.5888 31.0252 20.9138C31.0252 20.8816 31.0288 20.8459 31.0324 20.8138C29.5395 16.4816 25.236 13.3066 20.1681 13.3066C15.1002 13.3066 10.6895 16.5638 9.25024 20.9781C9.25024 21.0138 9.25382 21.0459 9.25739 21.0816C10.6752 16.6709 15.0217 13.4066 20.1681 13.4066Z" fill="#008DCF"/>
<path d="M20.1678 13.4072C15.0214 13.4072 10.6749 16.6715 9.25708 21.0822C9.25708 21.1144 9.26422 21.1429 9.26779 21.1751C10.6642 16.7751 15.0142 13.5072 20.1607 13.5072C25.3071 13.5072 29.5678 16.7072 31.0142 21.0358C31.0178 20.9965 31.0214 20.9572 31.0214 20.9179C29.5464 16.5929 25.2428 13.4108 20.1642 13.4108L20.1678 13.4072Z" fill="#008ED0"/>
<path d="M20.1682 13.6039C25.2646 13.6039 29.5789 16.8075 31.0074 21.1253C31.0074 21.0932 31.0146 21.061 31.0182 21.0325C29.5717 16.7039 25.2574 13.5039 20.1646 13.5039C15.0717 13.5039 10.6682 16.7753 9.27173 21.1718C9.2753 21.2075 9.27887 21.2396 9.28601 21.2718C10.661 16.8789 15.0146 13.6003 20.1717 13.6003L20.1682 13.6039Z" fill="#0090D0"/>
<path d="M20.1679 13.6035C15.0108 13.6035 10.6572 16.8821 9.28223 21.2749C9.2858 21.3035 9.28937 21.3357 9.29294 21.3642C10.6501 16.9821 15.0037 13.6964 20.1644 13.6964C25.3251 13.6964 29.5929 16.9178 30.9929 21.2321C30.9965 21.1964 31.0037 21.1607 31.0072 21.1249C29.5787 16.8071 25.2644 13.6035 20.1679 13.6035Z" fill="#0092D1"/>
<path d="M20.157 13.7888C25.2749 13.7888 29.5999 17.0174 30.9784 21.3281C30.982 21.296 30.9856 21.2602 30.9927 21.2281C29.5892 16.9102 25.2713 13.6924 20.1642 13.6924C15.057 13.6924 10.6499 16.9817 9.29272 21.3602C9.2963 21.3924 9.29987 21.4245 9.30701 21.4567C10.6392 17.0817 14.9927 13.7852 20.1606 13.7852L20.157 13.7888Z" fill="#0093D2"/>
<path d="M20.1568 13.7891C14.9889 13.7891 10.6354 17.0855 9.30322 21.4605C9.30679 21.4891 9.31037 21.5212 9.31394 21.5498C10.6282 17.1855 14.9818 13.8855 20.1568 13.8855C25.3318 13.8855 29.6068 17.1283 30.9639 21.4319C30.9675 21.3998 30.9711 21.3641 30.9782 21.3319C29.5997 17.0212 25.2747 13.7926 20.1568 13.7926V13.7891Z" fill="#0095D3"/>
<path d="M20.1643 13.9822C25.2929 13.9822 29.6179 17.2286 30.9572 21.5215C30.9607 21.4929 30.9643 21.4607 30.9679 21.4322C29.6107 17.1286 25.2857 13.8857 20.1607 13.8857C15.0357 13.8857 10.6322 17.1893 9.31787 21.55C9.32144 21.5822 9.32859 21.6143 9.33216 21.6465C10.625 17.2929 14.9857 13.9822 20.1643 13.9822Z" fill="#0097D4"/>
<path d="M20.1647 13.9824C14.9861 13.9824 10.6254 17.2967 9.33252 21.6467C9.33609 21.6717 9.34323 21.7003 9.34681 21.7253C10.6218 17.3896 14.9789 14.0824 20.1539 14.0824C25.3289 14.0824 29.6289 17.3467 30.9397 21.6396C30.9468 21.6003 30.9504 21.561 30.9575 21.5217C29.6182 17.2289 25.2932 13.9824 20.1647 13.9824Z" fill="#0098D5"/>
<path d="M20.1536 14.1785C25.3 14.1785 29.6322 17.4427 30.925 21.7177C30.9286 21.6927 30.9357 21.6642 30.9393 21.6392C29.6322 17.3463 25.2964 14.082 20.1536 14.082C15.0107 14.082 10.6179 17.3892 9.34644 21.7249C9.35001 21.7499 9.35715 21.7785 9.36072 21.8035C10.6179 17.4856 14.975 14.1749 20.1571 14.1749L20.1536 14.1785Z" fill="#009AD5"/>
<path d="M20.1541 14.1787C14.972 14.1787 10.6184 17.4859 9.35767 21.8073C9.36124 21.8359 9.36838 21.868 9.37195 21.8966C10.6077 17.593 14.9684 14.2787 20.1505 14.2787C25.3327 14.2787 29.6327 17.5501 30.9041 21.8109C30.9077 21.7823 30.9148 21.7501 30.9184 21.7216C29.6255 17.4465 25.2934 14.1822 20.147 14.1822L20.1541 14.1787Z" fill="#009CD6"/>
<path d="M20.1498 14.3718C25.3034 14.3718 29.6427 17.6504 30.8927 21.904C30.8998 21.8718 30.9034 21.8397 30.9106 21.8075C29.6391 17.5468 25.3034 14.2754 20.157 14.2754C15.0106 14.2754 10.6141 17.5897 9.37842 21.8932C9.38199 21.9218 9.38913 21.9468 9.3927 21.9754C10.6106 17.6861 14.9677 14.3682 20.1534 14.3682L20.1498 14.3718Z" fill="#009ED7"/>
<path d="M20.1496 14.3711C14.9639 14.3711 10.6068 17.689 9.38892 21.9782C9.39606 22.0104 9.39963 22.0389 9.40677 22.0711C10.5996 17.7925 14.9568 14.464 20.1496 14.464C25.3425 14.464 29.6496 17.7497 30.8782 21.989C30.8818 21.9604 30.8889 21.9318 30.8925 21.9032C29.6425 17.6497 25.3032 14.3711 20.1496 14.3711Z" fill="#00A0D8"/>
<path d="M20.1463 14.5603C25.3177 14.5603 29.657 17.8567 30.8606 22.0817C30.8677 22.0496 30.8713 22.0174 30.8784 21.9889C29.6534 17.7496 25.3141 14.4639 20.1498 14.4639C14.9856 14.4639 10.5998 17.7924 9.40698 22.071C9.41413 22.0996 9.4177 22.1282 9.42127 22.1532C10.5963 17.8924 14.9463 14.5603 20.1463 14.5603Z" fill="#00A1D9"/>
<path d="M20.1466 14.5605C14.9466 14.5605 10.5966 17.8927 9.42163 22.1534C9.42877 22.182 9.43592 22.207 9.43949 22.2355C10.5931 17.9927 14.9431 14.6605 20.1431 14.6605C25.3431 14.6605 29.6609 17.957 30.8395 22.1713C30.8466 22.1427 30.8502 22.1105 30.8573 22.082C29.6538 17.8534 25.3145 14.5605 20.1431 14.5605H20.1466Z" fill="#00A3DA"/>
<path d="M20.1462 14.7569C25.3248 14.7569 29.6641 18.0605 30.8248 22.2569C30.8319 22.2283 30.8391 22.2033 30.8426 22.1748C29.6605 17.9605 25.3212 14.6641 20.1462 14.6641C14.9712 14.6641 10.5962 17.9962 9.44263 22.2391C9.44977 22.2641 9.45334 22.2891 9.46048 22.3141C10.5998 18.0926 14.9498 14.7605 20.1462 14.7605V14.7569Z" fill="#00A5DB"/>
<path d="M20.1464 14.7575C14.95 14.7575 10.6 18.0896 9.46069 22.311C9.46784 22.336 9.47141 22.361 9.47855 22.3825C10.6 18.186 14.9536 14.8575 20.15 14.8575C25.3464 14.8575 29.6678 18.161 30.8071 22.3396C30.8143 22.311 30.8214 22.2825 30.825 22.2539C29.6643 18.0575 25.325 14.7539 20.1464 14.7539V14.7575Z" fill="#00A7DC"/>
<path d="M20.1426 14.9539C25.3247 14.9539 29.6676 18.2681 30.7854 22.4324C30.7926 22.4003 30.7997 22.3717 30.8068 22.3396C29.664 18.161 25.3283 14.8574 20.1497 14.8574C14.9711 14.8574 10.6033 18.186 9.47827 22.3824C9.48541 22.411 9.48899 22.436 9.49613 22.4646C10.5961 18.2824 14.9461 14.9539 20.1426 14.9539Z" fill="#00A9DD"/>
<path d="M20.1428 14.9531C14.9428 14.9531 10.5963 18.2817 9.49634 22.4638C9.50348 22.4888 9.50705 22.5138 9.51419 22.5388C10.5999 18.3817 14.9428 15.0496 20.1428 15.0496C25.3428 15.0496 29.6678 18.3603 30.7678 22.5067C30.7749 22.4817 30.7785 22.4567 30.7856 22.4353C29.6678 18.271 25.3285 14.9567 20.1428 14.9567V14.9531Z" fill="#00ABDE"/>
<path d="M20.143 15.1462C25.3287 15.1462 29.668 18.4641 30.7501 22.5891C30.7573 22.5605 30.7608 22.5355 30.768 22.5069C29.668 18.3641 25.3287 15.0498 20.143 15.0498C14.9573 15.0498 10.5965 18.3819 9.5144 22.5391C9.52155 22.5677 9.52512 22.5927 9.53226 22.6212C10.5965 18.4819 14.9394 15.1462 20.143 15.1462Z" fill="#00ADDE"/>
<path d="M20.1427 15.1462C14.9391 15.1462 10.5963 18.4783 9.53198 22.6212C9.53913 22.6462 9.5427 22.6676 9.54984 22.6926C10.5963 18.5747 14.9391 15.2426 20.1391 15.2426C25.3391 15.2426 29.6748 18.564 30.7284 22.6747C30.7356 22.6461 30.7427 22.6176 30.7498 22.5854C29.6677 18.4604 25.332 15.1426 20.1427 15.1426V15.1462Z" fill="#00AFDF"/>
<path d="M20.1322 15.3357C25.3286 15.3357 29.6679 18.6571 30.7072 22.7464C30.7143 22.7214 30.7215 22.6964 30.7286 22.6714C29.675 18.5607 25.3322 15.2393 20.1393 15.2393C14.9465 15.2393 10.5965 18.5678 9.55005 22.6893C9.55719 22.7143 9.56433 22.7393 9.57148 22.7607C10.6 18.6678 14.9322 15.3357 20.1358 15.3357H20.1322Z" fill="#00B1E0"/>
<path d="M20.1319 15.3356C14.9283 15.3356 10.5962 18.6677 9.56763 22.7606C9.57477 22.782 9.58191 22.8035 9.58548 22.8249C10.5998 18.757 14.9355 15.4285 20.1355 15.4285C25.3355 15.4285 29.6641 18.7463 30.6855 22.807C30.6926 22.7856 30.6998 22.7642 30.7033 22.7427C29.6676 18.6535 25.3283 15.332 20.1283 15.332L20.1319 15.3356Z" fill="#00B3E1"/>
<path d="M20.1357 15.5284C25.3286 15.5284 29.6607 18.8427 30.6643 22.8855C30.6714 22.8605 30.6786 22.8355 30.6857 22.8141C29.6643 18.7534 25.3286 15.4355 20.1357 15.4355C14.9428 15.4355 10.6 18.7605 9.58569 22.832C9.59284 22.857 9.59998 22.882 9.60712 22.907C10.6036 18.857 14.9357 15.5355 20.1357 15.5355V15.5284Z" fill="#0DB5E2"/>
<path d="M20.1357 15.529C14.9357 15.529 10.6 18.854 9.60718 22.9004C9.61432 22.9218 9.62146 22.9468 9.62861 22.9682C10.6072 18.9468 14.9429 15.6254 20.1393 15.6254C25.3357 15.6254 29.6607 18.9432 30.6465 22.9611C30.6536 22.9361 30.6607 22.9075 30.6679 22.8825C29.6643 18.8432 25.3286 15.5254 20.1393 15.5254L20.1357 15.529Z" fill="#19B7E3"/>
<path d="M20.1325 15.7218C25.3289 15.7218 29.661 19.0468 30.6218 23.0468C30.6289 23.0182 30.636 22.9896 30.6468 22.9646C29.661 18.9468 25.3325 15.6289 20.1396 15.6289C14.9468 15.6289 10.611 18.9503 9.62891 22.9718C9.63605 22.9932 9.64319 23.0182 9.64676 23.0396C10.611 19.0432 14.9396 15.7218 20.1325 15.7218Z" fill="#21B9E4"/>
<path d="M20.132 15.7217C14.9391 15.7217 10.6105 19.0431 9.64624 23.0395C9.64981 23.0574 9.65695 23.0753 9.66053 23.0931C10.6177 19.1181 14.9391 15.8145 20.132 15.8145C25.3248 15.8145 29.6498 19.1181 30.607 23.0931C30.6105 23.0788 30.6141 23.0645 30.6212 23.0467C29.6641 19.0467 25.332 15.7217 20.132 15.7217Z" fill="#28BBE5"/>
<path d="M20.1318 15.9073C25.3175 15.9073 29.639 19.193 30.5925 23.1395C30.5961 23.1252 30.5997 23.1109 30.6068 23.093C29.6497 19.118 25.3247 15.8145 20.1318 15.8145C14.939 15.8145 10.6175 19.118 9.6604 23.093C9.66397 23.1073 9.66754 23.1216 9.67469 23.1359C10.6283 19.1895 14.9461 15.9037 20.1318 15.9037V15.9073Z" fill="#37BDE6"/>
<path d="M20.1322 15.9072C14.9465 15.9072 10.6286 19.1929 9.67505 23.1394C9.67862 23.1537 9.68219 23.1679 9.68933 23.1858C10.6429 19.2608 14.9572 15.9894 20.1358 15.9894C25.3143 15.9894 29.6358 19.2644 30.5822 23.1929C30.5858 23.1751 30.5929 23.1608 30.5965 23.1429C29.6393 19.1929 25.3215 15.9108 20.1358 15.9108L20.1322 15.9072Z" fill="#43BFE6"/>
<path d="M20.1317 16.0821C25.3032 16.0821 29.6139 19.3321 30.5639 23.2357C30.5674 23.2214 30.5746 23.2071 30.5782 23.1928C29.6317 19.2607 25.3139 15.9893 20.1317 15.9893C14.9496 15.9893 10.6389 19.2607 9.6853 23.1857C9.68887 23.2035 9.69602 23.2178 9.70316 23.2357C10.6532 19.3357 14.9603 16.0857 20.1317 16.0857V16.0821Z" fill="#4DC0E7"/>
<path d="M20.1322 16.0827C14.9608 16.0827 10.6536 19.3327 9.70361 23.2327C9.70718 23.247 9.71433 23.2577 9.7179 23.272C10.6679 19.4005 14.9643 16.1648 20.1322 16.1648C25.3 16.1648 29.6036 19.397 30.5536 23.272C30.5572 23.2577 30.5643 23.247 30.5679 23.2327C29.6179 19.3291 25.3072 16.0791 20.1358 16.0791L20.1322 16.0827Z" fill="#56C2E8"/>
<path d="M20.1361 16.2498C25.2933 16.2498 29.5897 19.4605 30.5397 23.3105C30.5433 23.2962 30.5504 23.2855 30.554 23.2712C29.604 19.3962 25.3004 16.1641 20.1325 16.1641C14.9647 16.1641 10.6683 19.3998 9.71826 23.2712C9.72183 23.2855 9.72898 23.2998 9.73255 23.3141C10.6825 19.4641 14.9825 16.2533 20.1397 16.2533L20.1361 16.2498Z" fill="#5EC4E8"/>
<path d="M20.1359 16.25C14.9823 16.25 10.6823 19.4643 9.72876 23.3107C9.73233 23.3286 9.73947 23.3429 9.74662 23.3607C10.693 19.5357 14.9823 16.3429 20.1323 16.3429C25.2823 16.3429 29.5752 19.5357 30.5216 23.3607C30.5288 23.3429 30.5323 23.3286 30.5395 23.3107C29.5895 19.4607 25.293 16.25 20.1359 16.25Z" fill="#65C6E9"/>
<path d="M20.1318 16.4285C25.2747 16.4285 29.5604 19.5999 30.5068 23.3999C30.5104 23.3856 30.5175 23.3713 30.5211 23.3606C29.5747 19.5356 25.2818 16.3428 20.1318 16.3428C14.9818 16.3428 10.6961 19.5356 9.74609 23.3606C9.74967 23.3749 9.75681 23.3856 9.76038 23.3999C10.7068 19.6035 14.989 16.4285 20.1318 16.4285Z" fill="#6DC7EA"/>
<path d="M20.1322 16.4287C14.9893 16.4287 10.7072 19.6037 9.76074 23.4001C9.76431 23.4144 9.77146 23.4287 9.77503 23.443C10.725 19.6716 15.0072 16.5216 20.1357 16.5216C25.2643 16.5216 29.5429 19.6716 30.4929 23.443C30.4965 23.4287 30.5036 23.4144 30.5072 23.4001C29.5607 19.6037 25.275 16.4287 20.1322 16.4287Z" fill="#74C9EA"/>
<path d="M20.1324 16.6108C25.261 16.6108 29.5324 19.7465 30.4788 23.4929C30.486 23.4751 30.4895 23.4608 30.4967 23.4429C29.5467 19.6715 25.2681 16.5215 20.1395 16.5215C15.011 16.5215 10.7288 19.6715 9.77881 23.4429C9.78595 23.4572 9.78952 23.4751 9.79667 23.4893C10.7431 19.7429 15.011 16.6072 20.136 16.6072L20.1324 16.6108Z" fill="#7ACBEB"/>
<path d="M20.132 16.6104C15.007 16.6104 10.7356 19.7461 9.79272 23.4925C9.7963 23.5068 9.80344 23.5175 9.80701 23.5318C10.7534 19.8139 15.0177 16.6996 20.1356 16.6996C25.2534 16.6996 29.5213 19.8139 30.4677 23.5318C30.4713 23.5175 30.4749 23.5068 30.482 23.4925C29.5356 19.7461 25.2642 16.6104 20.1356 16.6104H20.132Z" fill="#81CDEC"/>
<path d="M20.1361 16.7895C25.2432 16.7895 29.504 19.8788 30.4504 23.5716C30.454 23.5573 30.4611 23.5431 30.4647 23.5323C29.5182 19.8109 25.2504 16.7002 20.1325 16.7002C15.0147 16.7002 10.7504 19.8145 9.80396 23.5323C9.80753 23.5466 9.81467 23.5609 9.81824 23.5716C10.7647 19.8788 15.029 16.7895 20.1361 16.7895Z" fill="#87CFEC"/>
<path d="M20.1357 16.7897C15.0286 16.7897 10.7643 19.879 9.81787 23.5718C9.82144 23.5861 9.82859 23.6004 9.83216 23.6111C10.7786 19.9468 15.0322 16.8754 20.1322 16.8754C25.2322 16.8754 29.4893 19.9504 30.4322 23.6183C30.4393 23.6004 30.4429 23.5861 30.45 23.5683C29.5036 19.8754 25.2464 16.7861 20.1357 16.7861V16.7897Z" fill="#8ED1ED"/>
<path d="M20.1283 16.9679C25.2283 16.9679 29.4783 20.025 30.4176 23.6679C30.4247 23.6536 30.4283 23.6357 30.4354 23.6179C29.4926 19.95 25.2354 16.875 20.1354 16.875C15.0354 16.875 10.7819 19.9464 9.83545 23.6107C9.84259 23.625 9.84616 23.6429 9.84973 23.6571C10.7926 20.0179 15.0319 16.9679 20.1283 16.9679Z" fill="#94D3EE"/>
<path d="M20.1287 16.9678C15.0322 16.9678 10.793 20.0213 9.8501 23.6571C9.85367 23.6713 9.86081 23.6856 9.86438 23.6999C10.8072 20.0856 15.0501 17.0499 20.1322 17.0499C25.2144 17.0499 29.4644 20.0892 30.4037 23.7071C30.4072 23.6928 30.4108 23.6821 30.418 23.6678C29.4787 20.0249 25.2287 16.9678 20.1287 16.9678Z" fill="#9AD5EF"/>
<path d="M20.1319 17.1427C25.2069 17.1427 29.4462 20.1569 30.389 23.7462C30.3926 23.7319 30.3997 23.7212 30.4033 23.7069C29.464 20.0891 25.2176 17.0498 20.1319 17.0498C15.0462 17.0498 10.8069 20.0855 9.86401 23.6998C9.86759 23.7141 9.87473 23.7248 9.8783 23.7391C10.8247 20.1534 15.0604 17.1427 20.1319 17.1427Z" fill="#A0D7F0"/>
<path d="M20.1322 17.1426C15.0608 17.1426 10.8251 20.1533 9.87866 23.739C9.88223 23.7533 9.88938 23.7676 9.89652 23.7819C10.8394 20.2247 15.0608 17.2354 20.1287 17.2354C25.1965 17.2354 29.4287 20.2283 30.3715 23.789C30.3787 23.7747 30.3822 23.7604 30.3894 23.7461C29.4465 20.1569 25.2072 17.1426 20.1322 17.1426Z" fill="#A6D9F0"/>
<path d="M20.1324 17.3175C25.1896 17.3175 29.411 20.2889 30.3574 23.8246C30.361 23.8139 30.3682 23.7996 30.3717 23.7889C29.4289 20.2246 25.2003 17.2354 20.1289 17.2354C15.0574 17.2354 10.8396 20.2246 9.89673 23.7818C9.9003 23.7961 9.90744 23.8068 9.91101 23.8211C10.861 20.2925 15.0789 17.3211 20.1324 17.3211V17.3175Z" fill="#ACDCF1"/>
<path d="M20.1321 17.3184C15.0785 17.3184 10.8571 20.2898 9.91064 23.8184C9.91422 23.8291 9.92136 23.8434 9.92493 23.8541C10.8749 20.3505 15.0856 17.4041 20.1321 17.4041C25.1785 17.4041 29.3964 20.3541 30.3428 23.8612C30.3464 23.8505 30.3535 23.8362 30.3571 23.8255C29.4106 20.2898 25.1892 17.3184 20.1321 17.3184Z" fill="#B2DEF2"/>
<path d="M20.1317 17.4962C25.171 17.4962 29.3746 20.4212 30.3281 23.8997C30.3317 23.8855 30.3388 23.8747 30.3424 23.8605C29.396 20.3533 25.1817 17.4033 20.1317 17.4033C15.0817 17.4033 10.8746 20.3497 9.92456 23.8533C9.9317 23.8676 9.93527 23.8819 9.94242 23.8962C10.8924 20.4212 15.096 17.4926 20.1317 17.4926V17.4962Z" fill="#B8E0F3"/>
<path d="M20.1322 17.4961C15.0929 17.4961 10.8893 20.4211 9.94287 23.8997C9.94644 23.9139 9.95359 23.9247 9.95716 23.9389C10.9107 20.4925 15.1072 17.5854 20.1322 17.5854C25.1572 17.5854 29.3607 20.4925 30.3107 23.9461C30.3179 23.9318 30.3214 23.9175 30.3286 23.9032C29.3786 20.4247 25.1714 17.4997 20.1322 17.4997V17.4961Z" fill="#BDE2F4"/>
<path d="M20.1325 17.6755C25.1504 17.6755 29.3432 20.5577 30.2968 23.9791C30.3004 23.9648 30.3075 23.9541 30.3111 23.9398C29.3611 20.4862 25.1647 17.5791 20.1325 17.5791C15.1004 17.5791 10.9075 20.4827 9.95752 23.9327C9.96109 23.9434 9.96823 23.9577 9.97181 23.9684C10.9289 20.547 15.1182 17.672 20.1325 17.672V17.6755Z" fill="#C3E5F5"/>
<path d="M20.1321 17.6748C15.1179 17.6748 10.925 20.5534 9.97144 23.9712C9.97501 23.9819 9.98215 23.9962 9.98572 24.0069C10.9429 20.6177 15.125 17.7605 20.1321 17.7605C25.1393 17.7605 29.325 20.6212 30.2786 24.0141C30.2821 24.0034 30.2893 23.9891 30.2929 23.9784C29.3429 20.5534 25.15 17.6748 20.1286 17.6748H20.1321Z" fill="#C9E7F5"/>
<path d="M20.1361 17.8504C25.1325 17.8504 29.3075 20.6861 30.2647 24.0539C30.2682 24.0432 30.2754 24.0289 30.2789 24.0182C29.3254 20.6218 25.1432 17.7646 20.1325 17.7646C15.1218 17.7646 10.9432 20.6218 9.98608 24.0111C9.99323 24.0254 9.9968 24.0396 10.0039 24.0575C10.9611 20.6932 15.1397 17.8539 20.1361 17.8539V17.8504Z" fill="#CEE9F6"/>
<path d="M20.1356 17.8506C15.1391 17.8506 10.9606 20.6899 10.0034 24.0542C10.007 24.0649 10.0141 24.0792 10.0177 24.0899C10.9784 20.7506 15.1463 17.9363 20.132 17.9363C25.1177 17.9363 29.2927 20.7542 30.2463 24.097C30.2534 24.0827 30.257 24.0684 30.2641 24.0542C29.307 20.6863 25.132 17.8506 20.1356 17.8506Z" fill="#D4ECF7"/>
<path d="M20.1316 18.0252C25.1138 18.0252 29.2745 20.8216 30.2316 24.1359C30.2352 24.1252 30.2423 24.1109 30.2459 24.1002C29.2888 20.7573 25.1173 17.9395 20.1316 17.9395C15.1459 17.9395 10.978 20.7537 10.0173 24.093C10.0209 24.1037 10.028 24.118 10.0316 24.1287C10.9923 20.8216 15.153 18.0252 20.1316 18.0252Z" fill="#DAEEF8"/>
<path d="M20.132 18.0254C15.1534 18.0254 10.9927 20.8218 10.032 24.129C10.0391 24.1432 10.0427 24.1575 10.0498 24.1754C11.0106 20.8932 15.1713 18.1182 20.1356 18.1182C25.0998 18.1182 29.257 20.8897 30.2177 24.1754C30.2213 24.1647 30.2284 24.1504 30.232 24.1361C29.2748 20.8218 25.1106 18.0254 20.132 18.0254Z" fill="#DFF1F9"/>
<path d="M20.1287 18.2003C25.093 18.2003 29.243 20.9574 30.2001 24.2217C30.2073 24.2074 30.2144 24.1896 30.2216 24.1753C29.2609 20.8896 25.1037 18.1182 20.1394 18.1182C15.1751 18.1182 11.0144 20.8932 10.0537 24.1753C10.0573 24.186 10.0644 24.2003 10.068 24.211C11.0323 20.9539 15.1716 18.2003 20.1287 18.2003Z" fill="#E5F3FA"/>
<path d="M20.1283 18.2002C15.1712 18.2002 11.0283 20.9538 10.0676 24.2109C10.0712 24.2216 10.0783 24.2323 10.0819 24.2466C11.0498 21.0216 15.1819 18.2931 20.1283 18.2931C25.0748 18.2931 29.2212 21.0252 30.1819 24.2573C30.1855 24.2466 30.1926 24.2323 30.1998 24.2216C29.2426 20.9609 25.0926 18.2002 20.1283 18.2002Z" fill="#EBF6FB"/>
<path d="M20.1321 18.3783C25.0714 18.3783 29.2 21.0891 30.1678 24.2891C30.1714 24.2783 30.1786 24.2641 30.1857 24.2533C29.225 21.0212 25.0821 18.2891 20.1321 18.2891C15.1821 18.2891 11.0536 21.0176 10.0857 24.2426C10.0928 24.2569 10.1 24.2712 10.1036 24.2855C11.0714 21.0891 15.2 18.3783 20.1357 18.3783H20.1321Z" fill="#F1F8FD"/>
<path d="M20.132 18.3789C15.1963 18.3789 11.0677 21.086 10.0999 24.286C10.1034 24.2968 10.1106 24.311 10.1177 24.3218C11.0891 21.1503 15.2106 18.4682 20.132 18.4682C25.0534 18.4682 29.182 21.1539 30.1499 24.3253C30.1534 24.3146 30.1606 24.3039 30.1641 24.2896C29.1999 21.0861 25.0677 18.3789 20.1284 18.3789H20.132Z" fill="#F7FBFE"/>
<path d="M31.6144 19.9572C31.6144 13.6465 26.4823 8.53223 20.1359 8.53223C13.7894 8.53223 8.65015 13.6429 8.65015 19.9572C8.65015 20.5822 8.70372 21.1965 8.80015 21.7929C8.80372 21.8251 8.81086 21.8537 8.818 21.8822C8.82515 21.9144 8.82872 21.9501 8.83586 21.9822C8.843 22.0108 8.84657 22.0429 8.85372 22.0715C8.86086 22.1037 8.86443 22.1394 8.87158 22.1715C8.87872 22.2001 8.88229 22.2322 8.88586 22.2608C8.893 22.2894 8.90015 22.3179 8.90729 22.3501C8.91443 22.3751 8.918 22.4001 8.92515 22.4287C8.93229 22.4537 8.93586 22.4822 8.943 22.5072C8.95015 22.5358 8.95729 22.5644 8.96443 22.5965C8.97158 22.6215 8.97515 22.6501 8.98229 22.6751C8.98943 22.7072 8.99657 22.7394 9.00372 22.7679C9.01086 22.7929 9.018 22.8215 9.02515 22.8465C9.03229 22.8751 9.043 22.9001 9.05015 22.9287C9.05729 22.9537 9.06443 22.9751 9.07158 23.0001C9.07872 23.0251 9.08586 23.0465 9.093 23.0715C9.10015 23.1001 9.10729 23.1251 9.118 23.1537C9.12515 23.1787 9.13229 23.2001 9.13943 23.2251C9.14658 23.2537 9.15372 23.2787 9.16443 23.3072C9.17158 23.3287 9.17872 23.3537 9.18586 23.3751C9.193 23.4001 9.20372 23.4215 9.21086 23.4465C9.218 23.4679 9.22515 23.4894 9.23229 23.5108C9.23943 23.5322 9.24658 23.5537 9.25372 23.5751C9.26086 23.6001 9.27158 23.6251 9.27872 23.6537C9.28586 23.6751 9.293 23.7001 9.30015 23.7215C9.31086 23.7465 9.318 23.7715 9.32515 23.8001C9.33229 23.8215 9.33943 23.8465 9.34658 23.8679C9.35372 23.8929 9.36443 23.9144 9.37515 23.9394C9.38229 23.9608 9.38943 23.9787 9.40015 24.0001C9.40729 24.0215 9.418 24.0465 9.42872 24.0679C9.43586 24.0894 9.443 24.1072 9.45372 24.1287C9.46086 24.1465 9.468 24.1679 9.47872 24.1858C9.48586 24.2001 9.48943 24.2144 9.49658 24.2287C9.50015 24.2394 9.50372 24.2501 9.51086 24.2608C9.51443 24.2715 9.518 24.2822 9.52515 24.2965C9.53229 24.3108 9.53586 24.3251 9.543 24.3394C9.54658 24.3501 9.55015 24.3608 9.55729 24.3715C9.56086 24.3822 9.56443 24.3929 9.57157 24.4072C9.57872 24.4215 9.58229 24.4322 9.58943 24.4465C9.593 24.4572 9.60015 24.4679 9.60372 24.4751C9.60729 24.4858 9.61443 24.4965 9.618 24.5072C9.62515 24.5215 9.62872 24.5322 9.63586 24.5465C9.63943 24.5572 9.64658 24.5679 9.65015 24.5751C9.65372 24.5858 9.66086 24.5965 9.66443 24.6072C9.668 24.6179 9.67515 24.6287 9.67872 24.6394C9.68586 24.6537 9.68943 24.6644 9.69658 24.6787C9.70015 24.6894 9.70729 24.7001 9.71086 24.7108C9.71443 24.7215 9.72158 24.7322 9.72515 24.7429C9.73229 24.7537 9.73586 24.7679 9.743 24.7822C9.74657 24.7929 9.75372 24.8037 9.75729 24.8144C9.76086 24.8251 9.768 24.8358 9.77158 24.8465C9.77872 24.8572 9.78229 24.8715 9.78943 24.8858C9.793 24.8965 9.80015 24.9072 9.80372 24.9179C9.80729 24.9287 9.81443 24.9358 9.818 24.9465C9.82158 24.9572 9.82872 24.9644 9.83229 24.9751C9.83943 24.9858 9.843 24.9965 9.85015 25.0108C9.85372 25.0215 9.86086 25.0287 9.86443 25.0394C9.868 25.0501 9.87515 25.0572 9.87872 25.0679C9.88586 25.0787 9.88943 25.0929 9.89657 25.1037C9.90015 25.1144 9.90729 25.1215 9.91086 25.1322C9.91443 25.1429 9.92157 25.1501 9.92515 25.1608C9.93229 25.1715 9.93586 25.1858 9.943 25.1965C9.94658 25.2072 9.95372 25.2144 9.95729 25.2251C10.318 25.9179 10.7466 26.5715 11.2359 27.1715C11.2359 27.1715 11.2359 27.1715 11.2394 27.1751C11.2394 27.1751 11.243 27.1822 11.2466 27.1858C11.2466 27.1858 11.2466 27.1858 11.2501 27.1894C11.2501 27.1894 11.2537 27.1965 11.2573 27.2001C11.2573 27.2001 11.2609 27.2037 11.2644 27.2072C11.2644 27.2072 11.268 27.2108 11.2716 27.2144C11.2716 27.2144 11.2716 27.2144 11.2751 27.2179C11.2751 27.2179 11.2751 27.2215 11.2787 27.2251C11.2787 27.2251 11.2787 27.2287 11.2823 27.2322C11.2823 27.2322 11.2823 27.2358 11.2859 27.2394C11.2859 27.2394 11.2859 27.2429 11.293 27.2465C11.293 27.2465 11.293 27.2465 11.2966 27.2501C11.2966 27.2501 11.2966 27.2501 11.3001 27.2537C11.3001 27.2537 11.3037 27.2572 11.3073 27.2608C11.3073 27.2608 11.3073 27.2608 11.3109 27.2644C11.3109 27.2644 11.3109 27.2679 11.3144 27.2715C11.3144 27.2715 11.3144 27.2715 11.318 27.2751C11.318 27.2751 11.318 27.2751 11.318 27.2787C11.318 27.2787 11.318 27.2822 11.3216 27.2858C11.3216 27.2858 11.3216 27.2858 11.3216 27.2894C11.3216 27.2894 11.3251 27.2929 11.3287 27.2965C11.3287 27.2965 11.3287 27.2965 11.3323 27.3001C11.3323 27.3001 11.3359 27.3037 11.3394 27.3072C11.343 27.3144 11.3501 27.3179 11.3537 27.3251C11.3573 27.3287 11.3609 27.3358 11.3644 27.3394C11.3716 27.3465 11.3751 27.3537 11.3823 27.3608C11.3859 27.3679 11.393 27.3715 11.3966 27.3787C11.4001 27.3822 11.4037 27.3858 11.4073 27.3929C11.4109 27.4001 11.418 27.4037 11.4216 27.4108C11.4251 27.4144 11.4323 27.4215 11.4359 27.4251C11.4394 27.4287 11.443 27.4358 11.4466 27.4394C11.4501 27.4429 11.4573 27.4501 11.4609 27.4537C11.4644 27.4608 11.4716 27.4644 11.4751 27.4715C11.4787 27.4751 11.4823 27.4822 11.4859 27.4858C11.4894 27.4929 11.4966 27.4965 11.5001 27.5037C11.5037 27.5072 11.5073 27.5144 11.5144 27.5179C11.518 27.5215 11.5216 27.5287 11.5287 27.5322C11.5323 27.5358 11.5394 27.5429 11.543 27.5465C11.5466 27.5537 11.5537 27.5572 11.5573 27.5644C11.5609 27.5679 11.5644 27.5751 11.568 27.5787C11.5716 27.5822 11.5787 27.5894 11.5823 27.5965C11.5859 27.6001 11.593 27.6072 11.5966 27.6144C11.6001 27.6179 11.6037 27.6251 11.6109 27.6287C11.6144 27.6322 11.6216 27.6394 11.6251 27.6465C11.6287 27.6537 11.6359 27.6572 11.6394 27.6644C11.643 27.6679 11.6466 27.6715 11.6501 27.6751C11.6573 27.6822 11.6609 27.6858 11.668 27.6929C11.6716 27.7001 11.6787 27.7037 11.6823 27.7072C11.6859 27.7144 11.693 27.7179 11.6966 27.7215C11.7001 27.7287 11.7073 27.7322 11.7109 27.7358C11.7144 27.7394 11.7216 27.7465 11.7251 27.7501C11.7287 27.7537 11.7359 27.7608 11.7394 27.7644C11.743 27.7679 11.7501 27.7751 11.7537 27.7787C11.7573 27.7858 11.7644 27.7894 11.768 27.7965C13.868 30.0144 16.8394 31.4001 20.1359 31.4001C23.4323 31.4001 26.4109 30.0072 28.5073 27.7858C28.5109 27.7822 28.518 27.7751 28.5216 27.7715C28.5251 27.7644 28.5323 27.7608 28.5359 27.7537C28.5394 27.7501 28.5466 27.7429 28.5501 27.7394C28.5537 27.7322 28.5609 27.7287 28.5644 27.7251C28.568 27.7179 28.5751 27.7144 28.5787 27.7108C28.5823 27.7037 28.5894 27.7001 28.593 27.6965C28.5966 27.6929 28.6001 27.6894 28.6037 27.6822C28.6037 27.6822 28.6073 27.6787 28.6109 27.6751C28.6109 27.6751 28.618 27.6679 28.6216 27.6644C28.6251 27.6572 28.6323 27.6537 28.6359 27.6465C28.6394 27.6429 28.643 27.6394 28.6466 27.6322C28.6537 27.6251 28.6573 27.6179 28.6644 27.6144C28.668 27.6108 28.6716 27.6037 28.6751 27.6001C28.6787 27.5965 28.6823 27.5894 28.6859 27.5858C28.6894 27.5822 28.6966 27.5751 28.7001 27.5715C28.7037 27.5644 28.7109 27.5608 28.7144 27.5537C28.718 27.5501 28.7216 27.5429 28.7287 27.5394C28.7323 27.5358 28.7359 27.5287 28.743 27.5251C28.7501 27.5179 28.7537 27.5108 28.7609 27.5072C28.7644 27.5037 28.768 27.4965 28.7751 27.4929C28.7787 27.4894 28.7823 27.4822 28.7894 27.4787C28.793 27.4751 28.8001 27.4679 28.8037 27.4644C28.8073 27.4572 28.8144 27.4537 28.818 27.4465C28.8216 27.4429 28.8287 27.4358 28.8323 27.4322C28.8359 27.4251 28.843 27.4215 28.8466 27.4144C28.8501 27.4108 28.8537 27.4072 28.8573 27.4001C28.8609 27.3965 28.8644 27.3894 28.8716 27.3858C28.8751 27.3787 28.8823 27.3751 28.8859 27.3679C28.8894 27.3644 28.893 27.3572 28.8966 27.3537C28.9001 27.3501 28.9037 27.3429 28.9109 27.3394C28.9144 27.3322 28.9216 27.3287 28.9251 27.3215C28.9251 27.3215 28.9287 27.3179 28.9323 27.3144C28.9323 27.3144 28.9323 27.3144 28.9359 27.3108C28.9359 27.3108 28.9394 27.3072 28.943 27.3037C28.943 27.3037 28.943 27.3037 28.9466 27.3001C28.9466 27.3001 28.9466 27.3001 28.9501 27.2965C28.9501 27.2965 28.9501 27.2965 28.9537 27.2929C28.9537 27.2929 28.9537 27.2894 28.9573 27.2858C28.9573 27.2858 28.9573 27.2822 28.9609 27.2787C28.9609 27.2787 28.9609 27.2787 28.9644 27.2751C28.9644 27.2751 28.9644 27.2715 28.968 27.2679C28.968 27.2679 28.9716 27.2644 28.9751 27.2608C28.9751 27.2608 28.9751 27.2572 28.9787 27.2537C28.9787 27.2537 28.9823 27.2465 28.9859 27.2465C28.9859 27.2465 28.9859 27.2429 28.9894 27.2394C28.9894 27.2394 28.993 27.2358 28.9966 27.2322C28.9966 27.2322 28.9966 27.2322 29.0001 27.2287C29.0001 27.2287 29.0037 27.2251 29.0073 27.2215C29.0073 27.2215 29.0073 27.2179 29.0109 27.2144C29.0109 27.2144 29.0144 27.2072 29.018 27.2072C29.018 27.2072 29.018 27.2072 29.018 27.2037C29.018 27.2037 29.0216 27.1965 29.0251 27.1965C29.0251 27.1965 29.0287 27.1929 29.0323 27.1894C29.0323 27.1894 29.0359 27.1858 29.0394 27.1822C29.0394 27.1822 29.043 27.1787 29.0466 27.1751C29.0466 27.1751 29.0501 27.1715 29.0537 27.1679C29.0537 27.1679 29.0573 27.1644 29.0609 27.1608C29.0609 27.1608 29.0644 27.1572 29.068 27.1537C29.068 27.1537 29.0716 27.1501 29.0751 27.1465C29.0751 27.1465 29.0751 27.1465 29.0751 27.1429C29.5537 26.5537 29.9716 25.9144 30.3251 25.2358C30.3287 25.2251 30.3359 25.2179 30.3394 25.2072C30.343 25.1965 30.3501 25.1894 30.3537 25.1787C30.3573 25.1679 30.3644 25.1608 30.368 25.1501C30.3751 25.1358 30.3823 25.1215 30.3894 25.1072C30.393 25.0965 30.4001 25.0894 30.4037 25.0787C30.4073 25.0679 30.4144 25.0608 30.418 25.0501C30.4251 25.0394 30.4287 25.0287 30.4359 25.0144C30.4394 25.0037 30.4466 24.9965 30.4501 24.9858C30.4537 24.9751 30.4609 24.9679 30.4644 24.9572C30.468 24.9465 30.4751 24.9394 30.4787 24.9287C30.4859 24.9179 30.4894 24.9037 30.4966 24.8894C30.5001 24.8787 30.5073 24.8679 30.5109 24.8572C30.5144 24.8465 30.518 24.8358 30.5251 24.8287C30.5287 24.8179 30.5323 24.8072 30.5394 24.8001C30.5466 24.7858 30.5501 24.7751 30.5573 24.7608C30.5609 24.7501 30.568 24.7394 30.5716 24.7287C30.5751 24.7179 30.5823 24.7072 30.5859 24.7001C30.593 24.6858 30.5966 24.6751 30.6037 24.6608C30.6109 24.6465 30.6144 24.6358 30.6216 24.6215C30.6251 24.6108 30.6323 24.6001 30.6359 24.5894C30.6394 24.5787 30.6466 24.5679 30.6501 24.5608C30.6573 24.5465 30.6609 24.5358 30.668 24.5215C30.6716 24.5108 30.6787 24.5001 30.6823 24.4894C30.6859 24.4787 30.693 24.4679 30.6966 24.4572C30.7037 24.4429 30.7073 24.4322 30.7144 24.4179C30.718 24.4072 30.7216 24.3965 30.7287 24.3858C30.7323 24.3751 30.7359 24.3644 30.743 24.3537C30.7466 24.3429 30.7537 24.3287 30.7573 24.3179C30.7644 24.3037 30.768 24.2894 30.7751 24.2751C30.7787 24.2644 30.7823 24.2537 30.7894 24.2394C30.793 24.2287 30.8001 24.2179 30.8037 24.2037C30.8144 24.1787 30.8251 24.1537 30.8323 24.1287C30.843 24.1072 30.8501 24.0822 30.8609 24.0608C30.868 24.0394 30.8787 24.0144 30.8894 23.9929C30.8966 23.9715 30.9037 23.9537 30.9144 23.9322C30.9251 23.9072 30.9323 23.8858 30.9394 23.8608C30.9501 23.8322 30.9573 23.8037 30.968 23.7751C30.9787 23.7501 30.9859 23.7251 30.993 23.6965C31.0001 23.6751 31.0073 23.6501 31.0144 23.6287C31.0251 23.6001 31.0359 23.5715 31.043 23.5429C31.0501 23.5179 31.0609 23.4929 31.068 23.4679C31.0751 23.4429 31.0859 23.4215 31.093 23.3965C31.1001 23.3715 31.1073 23.3465 31.118 23.3179C31.1251 23.2894 31.1323 23.2644 31.143 23.2358C31.1501 23.2108 31.1573 23.1822 31.1644 23.1572C31.1751 23.1251 31.1823 23.0965 31.1894 23.0644C31.1966 23.0358 31.2037 23.0108 31.2144 22.9822C31.2216 22.9572 31.2287 22.9358 31.2359 22.9108C31.2466 22.8751 31.2573 22.8394 31.2644 22.8037C31.2716 22.7787 31.2751 22.7501 31.2823 22.7215C31.2894 22.6929 31.2966 22.6644 31.3037 22.6322C31.3109 22.6037 31.318 22.5751 31.3251 22.5429C31.3323 22.5108 31.3394 22.4787 31.3466 22.4465C31.3537 22.4215 31.3573 22.3929 31.3644 22.3679C31.3716 22.3358 31.3787 22.3037 31.3859 22.2679C31.393 22.2394 31.3966 22.2072 31.4037 22.1751C31.4109 22.1358 31.418 22.1001 31.4251 22.0608C31.4323 22.0251 31.4359 21.9929 31.443 21.9572C31.4501 21.9251 31.4537 21.8894 31.4609 21.8572C31.4644 21.8287 31.4716 21.8001 31.4751 21.7715C31.4823 21.7322 31.4894 21.6894 31.493 21.6501C31.4966 21.6179 31.5001 21.5858 31.5037 21.5572C31.5787 21.0322 31.618 20.5001 31.618 19.9537H31.6144V19.9572ZM31.0644 20.1072C31.0644 20.1429 31.0644 20.1751 31.0644 20.2108C31.0644 20.2608 31.0644 20.3108 31.0609 20.3572C31.0609 20.3965 31.0609 20.4322 31.0609 20.4715C31.0609 20.5108 31.0573 20.5465 31.0537 20.5858C31.0537 20.6215 31.0466 20.6572 31.0466 20.6929C31.0466 20.7322 31.0394 20.7715 31.0359 20.8108C31.0359 20.8429 31.0323 20.8787 31.0287 20.9108C31.0287 20.9501 31.0251 20.9894 31.0216 21.0287C31.0216 21.0608 31.0144 21.0929 31.0109 21.1215C31.0073 21.1572 31.0001 21.1929 30.9966 21.2287C30.993 21.2608 30.9894 21.2965 30.9823 21.3287C30.9787 21.3608 30.9751 21.3965 30.968 21.4287C30.9644 21.4572 30.9609 21.4894 30.9573 21.5179C30.9501 21.5572 30.9466 21.5965 30.9394 21.6358C30.9359 21.6608 30.9287 21.6894 30.9251 21.7144C30.9216 21.7429 30.9144 21.7751 30.9109 21.8037C30.9037 21.8358 30.9001 21.8679 30.893 21.9001C30.8894 21.9287 30.8823 21.9572 30.8787 21.9858C30.8716 22.0179 30.868 22.0501 30.8609 22.0787C30.8537 22.1072 30.8501 22.1394 30.843 22.1679C30.8359 22.1965 30.8287 22.2251 30.8251 22.2501C30.818 22.2787 30.8109 22.3072 30.8073 22.3358C30.8001 22.3679 30.793 22.3965 30.7859 22.4287C30.7787 22.4537 30.7751 22.4787 30.768 22.5001C30.7609 22.5287 30.7573 22.5537 30.7501 22.5822C30.743 22.6108 30.7359 22.6394 30.7287 22.6715C30.7216 22.6965 30.7144 22.7215 30.7073 22.7465C30.7001 22.7679 30.693 22.7894 30.6894 22.8108C30.6823 22.8358 30.6751 22.8608 30.668 22.8822C30.6609 22.9072 30.6537 22.9358 30.6466 22.9608C30.6394 22.9894 30.6323 23.0179 30.6216 23.0429C30.618 23.0572 30.6144 23.0715 30.6073 23.0894C30.6037 23.1037 30.6001 23.1215 30.593 23.1358C30.5894 23.1537 30.5823 23.1679 30.5787 23.1858C30.5751 23.2001 30.568 23.2144 30.5644 23.2287C30.5609 23.2429 30.5537 23.2537 30.5501 23.2679C30.5466 23.2822 30.5394 23.2929 30.5359 23.3072C30.5323 23.3251 30.5251 23.3394 30.518 23.3572C30.5144 23.3715 30.5073 23.3858 30.5037 23.3965C30.5001 23.4108 30.493 23.4251 30.4894 23.4394C30.4823 23.4572 30.4787 23.4715 30.4716 23.4894C30.468 23.5037 30.4644 23.5144 30.4573 23.5287C30.4537 23.5429 30.4466 23.5572 30.443 23.5679C30.4359 23.5858 30.4323 23.6001 30.4251 23.6179C30.418 23.6322 30.4144 23.6501 30.4073 23.6679C30.4037 23.6822 30.4001 23.6929 30.393 23.7072C30.3894 23.7215 30.3823 23.7322 30.3787 23.7465C30.3716 23.7608 30.368 23.7751 30.3609 23.7894C30.3573 23.8001 30.3501 23.8144 30.3466 23.8251C30.343 23.8358 30.3359 23.8501 30.3323 23.8608C30.3287 23.8751 30.3216 23.8858 30.318 23.9001C30.3109 23.9144 30.3073 23.9287 30.3001 23.9429C30.2966 23.9572 30.2894 23.9679 30.2859 23.9822C30.2823 23.9929 30.2751 24.0072 30.2716 24.0179C30.268 24.0287 30.2609 24.0429 30.2573 24.0537C30.2501 24.0679 30.2466 24.0822 30.2394 24.0965C30.2359 24.1072 30.2287 24.1215 30.2251 24.1322C30.2216 24.1465 30.2144 24.1572 30.2109 24.1715C30.2037 24.1858 30.1966 24.2037 30.1894 24.2179C30.1859 24.2287 30.1787 24.2429 30.1716 24.2537C30.168 24.2644 30.1609 24.2787 30.1537 24.2894C30.1501 24.3001 30.143 24.3108 30.1394 24.3251C29.7359 25.2429 29.2073 26.0965 28.5787 26.8608C28.5787 26.8608 28.5787 26.8608 28.5751 26.8644C28.5751 26.8644 28.5716 26.8715 28.568 26.8715C28.568 26.8715 28.5644 26.8751 28.5609 26.8787C28.5609 26.8787 28.5573 26.8822 28.5537 26.8858C28.5537 26.8858 28.5501 26.8894 28.5466 26.8929C28.5466 26.8929 28.543 26.8965 28.5394 26.9001C28.5394 26.9001 28.5359 26.9037 28.5323 26.9072C28.5323 26.9072 28.5287 26.9108 28.5251 26.9144C28.5251 26.9144 28.5216 26.9179 28.518 26.9215C28.518 26.9215 28.5144 26.9287 28.5109 26.9287C28.5109 26.9287 28.5109 26.9322 28.5073 26.9358C28.5073 26.9358 28.5037 26.9394 28.5001 26.9429C28.5001 26.9429 28.5001 26.9429 28.4966 26.9465C28.4966 26.9465 28.493 26.9501 28.4894 26.9537C28.4894 26.9537 28.4894 26.9572 28.4859 26.9608C28.4859 26.9608 28.4823 26.9679 28.4787 26.9679C28.4787 26.9679 28.4751 26.9715 28.4716 26.9751C28.4716 26.9751 28.468 26.9787 28.4644 26.9822C28.4644 26.9822 28.4609 26.9858 28.4573 26.9894C28.4573 26.9894 28.4573 26.9894 28.4537 26.9929C28.4537 26.9929 28.4501 26.9965 28.4466 27.0001C28.4466 27.0001 28.4466 27.0037 28.443 27.0072C28.443 27.0072 28.443 27.0072 28.4394 27.0108C28.4394 27.0108 28.4394 27.0108 28.4359 27.0144C28.4359 27.0144 28.4359 27.0144 28.4323 27.0179C28.4323 27.0179 28.4323 27.0215 28.4287 27.0251C28.4287 27.0251 28.4287 27.0251 28.4251 27.0287C28.4251 27.0287 28.4216 27.0322 28.418 27.0358C28.4144 27.0429 28.4073 27.0465 28.4037 27.0537L28.3894 27.0679C28.3894 27.0679 28.3787 27.0787 28.3751 27.0822C28.368 27.0894 28.3644 27.0965 28.3573 27.1001C28.3537 27.1037 28.3466 27.1108 28.343 27.1144C28.3394 27.1179 28.3359 27.1251 28.3323 27.1287C28.3287 27.1358 28.3216 27.1394 28.318 27.1465C28.3144 27.1537 28.3073 27.1572 28.3037 27.1644C28.3001 27.1715 28.293 27.1751 28.2894 27.1822C28.2859 27.1894 28.2787 27.1929 28.2751 27.2001C28.2716 27.2037 28.2644 27.2108 28.2609 27.2144C28.2573 27.2179 28.2537 27.2251 28.2466 27.2287C28.2394 27.2358 28.2359 27.2429 28.2287 27.2501C28.2251 27.2537 28.218 27.2608 28.2144 27.2644C28.2109 27.2679 28.2037 27.2751 28.2001 27.2787C28.193 27.2858 28.1894 27.2894 28.1823 27.2965C28.1787 27.3037 28.1716 27.3072 28.168 27.3144C28.1644 27.3179 28.1573 27.3251 28.1537 27.3287C28.1501 27.3322 28.143 27.3394 28.1394 27.3429C28.1323 27.3501 28.1251 27.3572 28.1216 27.3644C28.1216 27.3644 28.1144 27.3715 28.1109 27.3751C28.118 27.3787 28.1251 27.3822 28.1323 27.3858C28.1251 27.3858 28.118 27.3787 28.1073 27.3787C28.1001 27.3858 28.0966 27.3894 28.0894 27.3965C28.0823 27.4037 28.0787 27.4072 28.0716 27.4144C28.068 27.4179 28.0609 27.4251 28.0573 27.4287C28.0501 27.4358 28.0466 27.4394 28.0394 27.4465L28.0216 27.4644C28.0216 27.4644 28.0109 27.4751 28.0037 27.4822C28.0001 27.4858 27.993 27.4929 27.9894 27.4965C27.9823 27.5037 27.9787 27.5072 27.9716 27.5144C27.9644 27.5215 27.9609 27.5251 27.9537 27.5322C27.5966 27.8965 27.2144 28.2358 26.8109 28.5465C26.7966 28.5572 26.7859 28.5679 26.7716 28.5787C26.5751 28.7287 26.3716 28.8715 26.1644 29.0108C26.1537 29.0179 26.143 29.0251 26.1323 29.0322C25.943 29.1572 25.7466 29.2751 25.5466 29.3894C25.518 29.4072 25.4894 29.4215 25.4573 29.4394C25.243 29.5572 25.0287 29.6715 24.8037 29.7751C24.7966 29.7751 24.7894 29.7822 24.7823 29.7858C24.568 29.8858 24.3501 29.9787 24.1287 30.0644C24.1001 30.0751 24.0716 30.0894 24.0394 30.1001C23.568 30.2787 23.0823 30.4287 22.5823 30.5429C22.568 30.5429 22.5537 30.5501 22.5394 30.5537C21.7609 30.7287 20.9537 30.8251 20.1251 30.8251H20.1216C18.7287 30.8251 17.3966 30.5644 16.1716 30.0894C15.6859 29.9037 15.218 29.6822 14.768 29.4322C14.7573 29.4251 14.7466 29.4179 14.7323 29.4108C14.518 29.2894 14.3073 29.1608 14.1001 29.0251C14.0966 29.0251 14.0894 29.0179 14.0859 29.0144C13.8787 28.8787 13.6787 28.7358 13.4823 28.5858C13.4609 28.5679 13.4394 28.5537 13.418 28.5358C13.243 28.4001 13.0751 28.2608 12.9109 28.1179C12.8859 28.0965 12.8644 28.0787 12.8394 28.0572C12.6644 27.9001 12.493 27.7394 12.3287 27.5715C12.3216 27.5644 12.3144 27.5572 12.3037 27.5501C12.2966 27.5429 12.293 27.5394 12.2859 27.5322C12.2787 27.5251 12.2751 27.5215 12.2716 27.5144C12.268 27.5108 12.2609 27.5037 12.2573 27.4965C12.2537 27.4929 12.2501 27.4894 12.2466 27.4858C12.2466 27.4858 12.243 27.4822 12.2394 27.4787C12.2323 27.4715 12.2287 27.4679 12.2216 27.4608C12.2144 27.4537 12.2109 27.4501 12.2037 27.4429C12.1966 27.4358 12.193 27.4322 12.1859 27.4251C12.1787 27.4179 12.1751 27.4144 12.168 27.4072C12.1644 27.4037 12.1609 27.4001 12.1537 27.3929C12.1466 27.3858 12.143 27.3822 12.1359 27.3751C12.1287 27.3679 12.1251 27.3644 12.118 27.3572C12.1144 27.3537 12.1073 27.3465 12.1037 27.3429C12.0966 27.3358 12.093 27.3322 12.0859 27.3251C12.0787 27.3179 12.0751 27.3144 12.068 27.3072C12.0644 27.3037 12.0573 27.2965 12.0537 27.2929C12.0466 27.2858 12.043 27.2822 12.0359 27.2751C12.0323 27.2679 12.0251 27.2644 12.018 27.2572C12.0144 27.2537 12.0073 27.2465 12.0037 27.2429C12.0001 27.2394 11.993 27.2322 11.9894 27.2287C11.9859 27.2215 11.9787 27.2179 11.9751 27.2108C11.9716 27.2072 11.9644 27.2001 11.9609 27.1965C11.9573 27.1894 11.9501 27.1858 11.9466 27.1787C11.943 27.1715 11.9359 27.1679 11.9323 27.1608C11.9287 27.1572 11.9251 27.1501 11.918 27.1465C11.9144 27.1394 11.9073 27.1358 11.9037 27.1287C11.9001 27.1215 11.893 27.1179 11.8894 27.1108C11.8859 27.1072 11.8823 27.1001 11.8787 27.0965C11.8751 27.0894 11.868 27.0858 11.8644 27.0787C11.8573 27.0715 11.8537 27.0644 11.8466 27.0572C11.843 27.0537 11.8394 27.0465 11.8359 27.0429C11.8323 27.0358 11.8251 27.0322 11.8216 27.0251C11.8216 27.0251 11.818 27.0215 11.8144 27.0179C11.8144 27.0179 11.8144 27.0179 11.8109 27.0144C11.8109 27.0144 11.8073 27.0108 11.8073 27.0072C11.8073 27.0072 11.8073 27.0072 11.8037 27.0037C11.8037 27.0037 11.8001 27.0001 11.7966 26.9965C11.7966 26.9965 11.7966 26.9965 11.793 26.9929C11.793 26.9929 11.793 26.9929 11.7894 26.9894C11.7894 26.9894 11.7859 26.9858 11.7823 26.9822C11.7823 26.9822 11.7823 26.9822 11.7787 26.9787C11.7787 26.9787 11.7787 26.9751 11.7716 26.9715C11.7716 26.9715 11.7716 26.9715 11.768 26.9679C11.768 26.9679 11.768 26.9644 11.7644 26.9608C11.7644 26.9608 11.7609 26.9572 11.7573 26.9537C11.7573 26.9537 11.7573 26.9501 11.7537 26.9465C11.7537 26.9465 11.7537 26.9429 11.7501 26.9394C11.7501 26.9394 11.7501 26.9358 11.7466 26.9322C11.7466 26.9322 11.7466 26.9322 11.743 26.9287C11.743 26.9287 11.7394 26.9251 11.7359 26.9215C11.7359 26.9215 11.7323 26.9179 11.7287 26.9144C11.7287 26.9144 11.7251 26.9072 11.7216 26.9072C11.7216 26.9072 11.7216 26.9072 11.718 26.9037C11.718 26.9037 11.7144 26.8965 11.7109 26.8965C11.7109 26.8965 11.7109 26.8965 11.7073 26.8929C11.5787 26.7394 11.4573 26.5822 11.3394 26.4251C11.3109 26.3858 11.2859 26.3465 11.2573 26.3108C11.1501 26.1608 11.043 26.0072 10.943 25.8501C10.9073 25.7965 10.8751 25.7429 10.8394 25.6929C10.7216 25.5072 10.6109 25.3144 10.5037 25.1215C10.4787 25.0751 10.4573 25.0287 10.4323 24.9822C10.3501 24.8251 10.2716 24.6608 10.1966 24.5001C10.1787 24.4608 10.1573 24.4251 10.143 24.3894C10.143 24.3894 10.143 24.3894 10.1466 24.3894C10.1394 24.3715 10.1287 24.3501 10.1216 24.3322C10.118 24.3215 10.1109 24.3072 10.1037 24.2965C10.0966 24.2822 10.0894 24.2679 10.0859 24.2537C10.0823 24.2429 10.0751 24.2322 10.0716 24.2179C10.068 24.2072 10.0609 24.1929 10.0573 24.1822C10.0501 24.1679 10.0466 24.1537 10.0394 24.1358C10.0359 24.1251 10.0287 24.1108 10.0251 24.1001C10.0216 24.0894 10.0144 24.0751 10.0109 24.0644C10.0037 24.0501 10.0001 24.0358 9.993 24.0179C9.98943 24.0072 9.98229 23.9929 9.97872 23.9822C9.97515 23.9715 9.968 23.9572 9.96443 23.9465C9.96086 23.9322 9.95372 23.9215 9.95015 23.9072C9.943 23.8929 9.93943 23.8787 9.93229 23.8644C9.92872 23.8537 9.92158 23.8394 9.918 23.8287C9.91443 23.8144 9.90729 23.8037 9.90372 23.7894C9.89658 23.7751 9.893 23.7608 9.88586 23.7465C9.88229 23.7322 9.87515 23.7215 9.87157 23.7072C9.868 23.6929 9.86086 23.6787 9.85729 23.6644C9.85015 23.6501 9.84658 23.6322 9.843 23.6179C9.83943 23.6037 9.83229 23.5894 9.82872 23.5787C9.82515 23.5644 9.818 23.5501 9.81443 23.5394C9.81086 23.5251 9.80372 23.5144 9.80015 23.5001C9.793 23.4858 9.78943 23.4679 9.78229 23.4537C9.77872 23.4394 9.77158 23.4251 9.768 23.4108C9.76443 23.3965 9.75729 23.3858 9.75372 23.3715C9.74657 23.3537 9.743 23.3394 9.73586 23.3215C9.73229 23.3072 9.72515 23.2929 9.72158 23.2787C9.718 23.2644 9.71086 23.2537 9.70729 23.2394C9.70372 23.2215 9.69657 23.2072 9.68943 23.1894C9.68586 23.1751 9.68229 23.1608 9.67515 23.1429C9.67158 23.1287 9.668 23.1144 9.66086 23.1001C9.65372 23.0822 9.65015 23.0644 9.64658 23.0465C9.63943 23.0251 9.63229 23.0001 9.62872 22.9787C9.62157 22.9572 9.61443 22.9322 9.60729 22.9108C9.60015 22.8858 9.593 22.8608 9.58586 22.8358C9.57872 22.8144 9.57157 22.7929 9.568 22.7715C9.56086 22.7465 9.55372 22.7215 9.54658 22.7001C9.53943 22.6751 9.53586 22.6537 9.52872 22.6287C9.52158 22.6001 9.518 22.5751 9.51086 22.5465C9.50372 22.5215 9.50015 22.4965 9.493 22.4715C9.48586 22.4429 9.47872 22.4179 9.47515 22.3894C9.468 22.3644 9.46443 22.3429 9.45729 22.3179C9.45015 22.2929 9.44658 22.2679 9.43943 22.2429C9.43229 22.2144 9.42515 22.1894 9.42157 22.1608C9.41443 22.1322 9.41086 22.1072 9.40729 22.0787C9.40015 22.0465 9.39657 22.0179 9.38943 21.9858C9.38586 21.9572 9.37872 21.9322 9.37515 21.9037C9.37158 21.8751 9.36443 21.8429 9.36086 21.8144C9.35729 21.7894 9.35015 21.7608 9.34658 21.7358C9.343 21.7108 9.33586 21.6822 9.33229 21.6572C9.32872 21.6251 9.32158 21.5929 9.318 21.5608C9.31443 21.5322 9.31086 21.5001 9.30729 21.4715C9.30372 21.4394 9.30015 21.4072 9.293 21.3751C9.28943 21.3465 9.28586 21.3144 9.28229 21.2858C9.27872 21.2501 9.27157 21.2179 9.268 21.1858C9.268 21.1537 9.26086 21.1251 9.25729 21.0929C9.25729 21.0572 9.25372 21.0251 9.25015 20.9894C9.25015 20.9537 9.24657 20.9179 9.243 20.8822C9.243 20.8501 9.23943 20.8179 9.23586 20.7858C9.23586 20.7501 9.22872 20.7144 9.22872 20.6787C9.22872 20.6465 9.22158 20.6108 9.22158 20.5787C9.22158 20.5394 9.22158 20.5037 9.218 20.4644C9.218 20.4287 9.218 20.3894 9.218 20.3501C9.21443 20.2251 9.20729 20.0965 9.20729 19.9715C9.20729 13.9608 14.1001 9.08223 20.1394 9.08223C26.1787 9.08223 31.0751 13.9572 31.0751 19.9715C31.0751 20.0215 31.0751 20.0715 31.0716 20.1215L31.0644 20.1072Z" fill="white"/>
<path d="M20.1322 22.7035H20.1358C23.8465 22.7035 27.2858 23.3249 30.1251 24.3821C29.7215 25.2785 29.2001 26.1106 28.5822 26.8571C28.5822 26.8571 28.5858 26.8571 28.5893 26.8606C29.2215 26.0963 29.7465 25.2428 30.1501 24.3249C29.1822 21.1499 25.0572 18.4678 20.1322 18.4678C15.2072 18.4678 11.0893 21.1499 10.1179 24.3213C10.1251 24.3392 10.1358 24.3606 10.1429 24.3785C12.9893 23.3213 16.4251 22.6999 20.1322 22.6999V22.7035Z" fill="white"/>
<path d="M30.1251 24.3827C27.2858 23.3255 23.8465 22.7041 20.1358 22.7041H20.1323C16.4251 22.7041 12.9894 23.3255 10.143 24.3827C10.143 24.3827 10.143 24.3827 10.1394 24.3827C10.1573 24.422 10.1787 24.4577 10.193 24.4934C10.268 24.6577 10.3465 24.8184 10.4287 24.9755C10.4537 25.022 10.4751 25.0684 10.5001 25.1148C10.6073 25.3077 10.718 25.5005 10.8358 25.6862C10.868 25.7398 10.9037 25.7934 10.9394 25.8434C11.0394 26.0005 11.1465 26.1541 11.2537 26.3041C11.2823 26.3434 11.3073 26.3827 11.3358 26.4184C11.4537 26.5791 11.5751 26.7362 11.7037 26.8862C11.7037 26.8862 11.7037 26.8862 11.7073 26.8898C11.7073 26.8898 11.7108 26.897 11.7144 26.897C11.7144 26.897 11.7144 26.897 11.718 26.9005C11.718 26.9005 11.7215 26.9077 11.7251 26.9077C11.7251 26.9077 11.7287 26.9112 11.7323 26.9148C11.7323 26.9148 11.7358 26.9184 11.7394 26.922C11.7394 26.922 11.7394 26.922 11.743 26.9255C11.743 26.9255 11.743 26.9291 11.7465 26.9327C11.7465 26.9327 11.7465 26.9362 11.7501 26.9398C11.7501 26.9398 11.7501 26.9434 11.7537 26.947C11.7537 26.947 11.7573 26.9505 11.7608 26.9541C11.7608 26.9541 11.7608 26.9577 11.7644 26.9612C11.7644 26.9612 11.7644 26.9612 11.768 26.9648C11.768 26.9648 11.768 26.9684 11.7751 26.972C11.7751 26.972 11.7751 26.972 11.7787 26.9755C11.7787 26.9755 11.7823 26.9791 11.7858 26.9827C11.7858 26.9827 11.7858 26.9827 11.7894 26.9862C11.7894 26.9862 11.7894 26.9862 11.793 26.9898C11.793 26.9898 11.7965 26.9934 11.8001 26.997C11.8001 26.997 11.8001 26.997 11.8037 27.0005C11.8037 27.0005 11.8073 27.0041 11.8073 27.0077C11.8073 27.0077 11.8073 27.0077 11.8108 27.0112C11.8108 27.0112 11.8144 27.0148 11.818 27.0184C11.8215 27.0255 11.8287 27.0291 11.8323 27.0362C11.8358 27.0398 11.8394 27.047 11.843 27.0505C11.8501 27.0577 11.8537 27.0648 11.8608 27.072C11.8644 27.0791 11.8715 27.0827 11.8751 27.0898C11.8787 27.0934 11.8823 27.1005 11.8858 27.1041C11.8894 27.1112 11.8965 27.1148 11.9001 27.122C11.9037 27.1291 11.9108 27.1327 11.9144 27.1398C11.918 27.1434 11.9215 27.1505 11.9287 27.1541C11.9323 27.1612 11.9394 27.1648 11.943 27.172C11.9465 27.1791 11.9537 27.1827 11.9573 27.1898C11.9608 27.1934 11.968 27.2005 11.9715 27.2041C11.9751 27.2112 11.9823 27.2148 11.9858 27.222C11.9894 27.2255 11.9965 27.2327 12.0001 27.2362C12.0037 27.2398 12.0108 27.247 12.0144 27.2505C12.018 27.2577 12.0251 27.2612 12.0323 27.2684C12.0394 27.2755 12.043 27.2791 12.0501 27.2862C12.0537 27.2898 12.0608 27.297 12.0644 27.3005C12.0715 27.3077 12.0751 27.3112 12.0823 27.3184C12.0894 27.3255 12.093 27.3291 12.1001 27.3362C12.1037 27.3398 12.1108 27.347 12.1144 27.3505C12.1215 27.3577 12.1251 27.3612 12.1323 27.3684C12.1394 27.3755 12.143 27.3791 12.1501 27.3862C12.1537 27.3898 12.1573 27.3934 12.1644 27.4005C12.1715 27.4077 12.1751 27.4112 12.1823 27.4184C12.1894 27.4255 12.193 27.4291 12.2001 27.4362C12.2073 27.4434 12.2108 27.447 12.218 27.4541C12.2251 27.4612 12.2287 27.4648 12.2358 27.472C12.2358 27.472 12.2394 27.4755 12.243 27.4791C12.2465 27.4827 12.2501 27.4862 12.2537 27.4898C12.2573 27.4934 12.2644 27.5005 12.268 27.5077C12.2751 27.5148 12.2787 27.5184 12.2823 27.5255C12.2894 27.5327 12.293 27.5362 12.3001 27.5434C12.3073 27.5505 12.3144 27.5577 12.3251 27.5648C12.4894 27.7327 12.6608 27.8934 12.8358 28.0505C12.8573 28.072 12.8823 28.0898 12.9073 28.1112C13.0715 28.2541 13.243 28.397 13.4144 28.5291C13.4358 28.547 13.4573 28.5612 13.4787 28.5791C13.6751 28.7291 13.8751 28.872 14.0823 29.0077C14.0858 29.0077 14.093 29.0148 14.0965 29.0184C14.3037 29.1541 14.5144 29.2827 14.7287 29.4041C14.7394 29.4112 14.7501 29.4184 14.7644 29.4255C15.2144 29.6755 15.6823 29.897 16.168 30.0827C17.393 30.5541 18.7251 30.8184 20.118 30.8184C20.9465 30.8184 21.7573 30.722 22.5323 30.547C22.5465 30.547 22.5608 30.5398 22.5751 30.5362C23.0751 30.422 23.5608 30.2755 24.0323 30.0934C24.0608 30.0827 24.0894 30.072 24.1215 30.0577C24.343 29.972 24.5608 29.8791 24.7751 29.7791C24.7823 29.7791 24.7894 29.772 24.7965 29.7684C25.018 29.6648 25.2358 29.5505 25.4501 29.4327C25.4787 29.4148 25.5073 29.4005 25.5394 29.3827C25.7394 29.2684 25.9323 29.1505 26.1251 29.0255C26.1358 29.0184 26.1465 29.0112 26.1573 29.0041C26.3644 28.8684 26.568 28.722 26.7644 28.572C26.7787 28.5612 26.793 28.5505 26.8037 28.5398C27.2073 28.2291 27.5894 27.8898 27.9465 27.5255C27.9537 27.5184 27.9573 27.5148 27.9644 27.5077C27.9715 27.5005 27.9751 27.497 27.9823 27.4898C27.9858 27.4862 27.993 27.4791 27.9965 27.4755C28.0037 27.4684 28.0073 27.4648 28.0144 27.4577L28.0323 27.4398C28.0323 27.4398 28.043 27.4291 28.0501 27.422C28.0537 27.4184 28.0608 27.4112 28.0644 27.4077C28.0715 27.4005 28.0751 27.397 28.0823 27.3898C28.0894 27.3827 28.093 27.3791 28.1001 27.372C28.1073 27.372 28.1144 27.3791 28.1251 27.3791C28.118 27.3755 28.1108 27.372 28.1037 27.3684C28.1037 27.3684 28.1108 27.3612 28.1144 27.3577C28.1215 27.3505 28.1287 27.3434 28.1323 27.3362C28.1358 27.3327 28.143 27.3255 28.1465 27.322C28.1501 27.3184 28.1573 27.3112 28.1608 27.3077C28.1644 27.3005 28.1715 27.297 28.1751 27.2898C28.1823 27.2827 28.1858 27.2791 28.193 27.272C28.1965 27.2684 28.2037 27.2612 28.2073 27.2577C28.2108 27.2541 28.218 27.247 28.2215 27.2434C28.2287 27.2362 28.2323 27.2291 28.2394 27.222C28.243 27.2184 28.2465 27.2112 28.2537 27.2077C28.2573 27.2041 28.2644 27.197 28.268 27.1934C28.2715 27.1862 28.2787 27.1827 28.2823 27.1755C28.2858 27.1684 28.293 27.1648 28.2965 27.1577C28.3001 27.1505 28.3073 27.147 28.3108 27.1398C28.3144 27.1327 28.3215 27.1291 28.3251 27.122C28.3287 27.1184 28.3323 27.1112 28.3358 27.1077C28.3394 27.1041 28.3465 27.097 28.3501 27.0934C28.3573 27.0862 28.3608 27.0791 28.368 27.0755C28.3715 27.072 28.3787 27.0648 28.3823 27.0612L28.3965 27.047C28.3965 27.047 28.4073 27.0362 28.4108 27.0291C28.4108 27.0291 28.4144 27.0255 28.418 27.022C28.418 27.022 28.418 27.022 28.4215 27.0184C28.4215 27.0184 28.4215 27.0148 28.4251 27.0112C28.4251 27.0112 28.4251 27.0112 28.4287 27.0077C28.4287 27.0077 28.4287 27.0077 28.4323 27.0041C28.4323 27.0041 28.4323 27.0041 28.4358 27.0005C28.4358 27.0005 28.4358 26.997 28.4394 26.9934C28.4394 26.9934 28.443 26.9898 28.4465 26.9862C28.4465 26.9862 28.4465 26.9862 28.4501 26.9827C28.4501 26.9827 28.4537 26.9791 28.4573 26.9755C28.4573 26.9755 28.4608 26.972 28.4644 26.9684C28.4644 26.9684 28.468 26.9648 28.4715 26.9612C28.4715 26.9612 28.4751 26.9541 28.4787 26.9541C28.4787 26.9541 28.4787 26.9505 28.4823 26.947C28.4823 26.947 28.4858 26.9434 28.4894 26.9398C28.4894 26.9398 28.4894 26.9398 28.493 26.9362C28.493 26.9362 28.4965 26.9327 28.5001 26.9291C28.5001 26.9291 28.5001 26.9255 28.5037 26.922C28.5037 26.922 28.5073 26.9148 28.5108 26.9148C28.5108 26.9148 28.5144 26.9112 28.518 26.9077C28.518 26.9077 28.5215 26.9041 28.5251 26.9005C28.5251 26.9005 28.5287 26.897 28.5323 26.8934C28.5323 26.8934 28.5358 26.8898 28.5394 26.8862C28.5394 26.8862 28.543 26.8827 28.5465 26.8791C28.5465 26.8791 28.5501 26.8755 28.5537 26.872C28.5537 26.872 28.5573 26.8684 28.5608 26.8648C28.5608 26.8648 28.5644 26.8577 28.568 26.8577C28.568 26.8577 28.568 26.8577 28.5715 26.8541C28.5715 26.8541 28.568 26.8541 28.5644 26.8505C29.1823 26.1005 29.7037 25.272 30.1073 24.3755L30.1251 24.3827Z" fill="#0367B3"/>
</g>
<defs>
<clipPath id="clip0_266_61673">
<rect width="40" height="40" fill="white"/>
</clipPath>
</defs>
</svg>
