<svg width="40" height="40" viewBox="0 0 40 40" fill="none" xmlns="http://www.w3.org/2000/svg">
<g clip-path="url(#clip0_266_61560)">
<path d="M0 20C0 21.1776 0 21.3084 0.0280636 22.3084C0.1029 24.5234 0.336763 27.0654 1.22544 29.7476C1.8522 31.6449 3.03087 33.6916 4.20954 34.9813C5.70629 36.6261 7.77361 37.9718 10.0094 38.7382C12.2919 39.5232 14.7615 39.9064 19.5603 40H20.449C25.2573 39.8971 27.7175 39.5232 30 38.7382C32.2358 37.9718 34.2938 36.6261 35.7904 34.9813C36.9693 33.6823 38.1479 31.6449 38.7746 29.7476C39.6632 27.0654 39.9064 24.514 39.9718 22.3084C40 21.3178 40 21.1776 40 20C40 18.8224 40 18.6916 39.9718 17.6916C39.8971 15.4766 39.6632 12.9346 38.7746 10.2523C38.1479 8.35514 36.9693 6.30839 35.7904 5.01868C34.2938 3.37383 32.2264 2.02804 30 1.26168C27.7175 0.476636 25.2479 0.0934579 20.449 0H19.5603C14.7521 0.102804 12.2919 0.476636 10.0094 1.26168C7.77361 2.02804 5.71561 3.37383 4.20954 5.01868C3.03087 6.31775 1.8522 8.35514 1.22544 10.2523C0.346118 12.9346 0.1029 15.4766 0.0280636 17.6916C0 18.6823 0 18.8224 0 20Z" fill="#FFEB00"/>
<mask id="mask0_266_61560" style="mask-type:luminance" maskUnits="userSpaceOnUse" x="5" y="15" width="30" height="10">
<path d="M35 15.5361H5V24.7724H35V15.5361Z" fill="white"/>
</mask>
<g mask="url(#mask0_266_61560)">
<path fill-rule="evenodd" clip-rule="evenodd" d="M9.58261 15.5361C7.05111 15.5361 5 17.157 5 19.1558C5 20.4404 5.85011 21.5683 7.12629 22.2116L6.69393 23.8241C6.67721 23.8742 6.69186 23.9265 6.72736 23.962C6.75243 23.987 6.78582 23.9996 6.82136 23.9996C6.8485 23.9996 6.87564 23.9891 6.90071 23.9703L8.75757 22.7171C9.027 22.7547 9.30271 22.7777 9.58261 22.7777C12.112 22.7777 14.1652 21.1568 14.1652 19.158C14.1652 17.1591 12.112 15.5361 9.58261 15.5361Z" fill="black"/>
<path d="M18.0253 22.1616V24.4989H16.3606V15.8809H17.5344L17.7391 16.4282C18.0921 16.0752 18.6289 15.6992 19.4957 15.6992C21.127 15.6992 21.9019 16.919 21.8894 18.8908C21.8894 20.9544 20.6926 22.2765 18.9819 22.2765C18.6519 22.2765 18.4012 22.2536 18.0253 22.1616ZM18.0253 17.2699V20.9983C18.1172 21.0087 18.3448 21.0317 18.5621 21.0317C19.7485 21.0317 20.2038 20.2004 20.2038 18.8886C20.2038 17.7378 19.8967 17.0423 18.9506 17.0423C18.6435 17.0423 18.301 17.1341 18.0274 17.2699H18.0253Z" fill="black"/>
<path d="M25.5151 18.308H26.4613V18.1033C26.4613 17.4203 26.0728 17.1007 25.4002 17.1007C24.8864 17.1007 24.2264 17.249 23.6896 17.5122L23.2342 16.3948C23.8275 15.9833 24.7381 15.6992 25.5485 15.6992C27.1443 15.6992 28.0111 16.543 28.0111 18.1514V22.1074H26.8373L26.666 21.5831C25.9934 22.0739 25.3773 22.2786 24.8196 22.2786C23.5998 22.2786 22.9147 21.5497 22.9147 20.3173C22.9147 19.0056 23.8275 18.3101 25.513 18.3101L25.5151 18.308ZM26.4613 20.5074V19.367H25.6968C24.8426 19.367 24.4081 19.674 24.4081 20.2902C24.4081 20.758 24.6483 20.9857 25.1371 20.9857C25.5924 20.9857 26.1751 20.758 26.4592 20.5074H26.4613Z" fill="black"/>
<path d="M33.0492 21.4659C32.4685 23.0157 31.773 24.1457 30.7579 24.7723L29.7323 23.8261C30.3255 23.3123 30.7474 22.811 31.1109 22.1384L28.8989 16.1084L30.5511 15.6635L31.9651 20.5552L33.3666 15.6426L34.9979 16.0979L33.0492 21.468V21.4659Z" fill="black"/>
</g>
</g>
<defs>
<clipPath id="clip0_266_61560">
<rect width="40" height="40" fill="white"/>
</clipPath>
</defs>
</svg>
