<svg width="24" height="24" viewBox="0 0 24 24" fill="none" xmlns="http://www.w3.org/2000/svg">
<g clip-path="url(#clip0_266_60851)">
<path d="M0 12.003C0 12.7052 0 12.7892 0.0180045 13.3833C0.036009 14.9017 0.282071 16.4021 0.738184 17.8485C1.12828 19.0008 1.73443 20.069 2.52662 20.9872C3.48088 22.0136 4.67518 22.7878 6.0015 23.2438C7.36984 23.718 8.85221 23.94 11.7329 24H12.2671C15.1478 23.94 16.6302 23.712 17.9985 23.2438C19.3248 22.7878 20.5191 22.0136 21.4734 20.9872C22.2656 20.063 22.8718 19.0008 23.2618 17.8485C23.718 16.4021 23.958 14.9017 23.982 13.3833C24 12.7892 24 12.7052 24 12.003C24 11.3008 24 11.2168 23.982 10.6227C23.958 9.10427 23.718 7.60391 23.2618 6.15754C22.8718 5.00524 22.2656 3.93699 21.4734 3.01875C20.5191 1.9925 19.3248 1.2183 17.9985 0.762191C16.6302 0.288073 15.1478 0.060015 12.2671 0H11.7329C8.85221 0.060015 7.36984 0.288073 6.0015 0.756189C4.67518 1.2123 3.48088 1.9865 2.52662 3.01275C1.73443 3.93699 1.12228 4.99924 0.738184 6.15154C0.282071 7.59791 0.0420105 9.10427 0.0180045 10.6227C0 11.2168 0 11.3008 0 12.003Z" fill="#0398E7"/>
<path d="M16.536 12.5361H12.3085V13.7432H16.536V12.5361Z" fill="white"/>
<path d="M13.8222 5.58643H15.1791L17.1428 11.4789H11.7629L12.7653 8.00751H14.1222L13.5153 10.2717H15.4859" fill="white"/>
<path d="M9.74468 12.5361H6.87402V13.7432H9.59466C10.0106 13.7432 10.2015 13.8933 10.2015 14.3502C10.2015 14.7662 9.86059 14.9572 9.44466 14.9572H6.87402V18.4285H8.38776V16.1643H9.74468C10.6857 16.1916 11.4698 15.455 11.5039 14.5139C11.5039 14.4798 11.5039 14.4457 11.5039 14.4116C11.5857 13.4636 10.8766 12.6248 9.92877 12.5498C9.8674 12.5498 9.80605 12.5429 9.74468 12.5498" fill="white"/>
<path d="M8.34003 8.5668C8.31276 7.81661 8.81052 7.15509 9.54012 6.97095C9.69693 6.93003 9.86058 6.90956 10.0242 6.90956H11.2379V5.57287C10.4061 5.55922 9.57421 5.63424 8.75596 5.7911C7.54906 6.14574 6.75811 7.2983 6.86721 8.55318C6.77174 9.87624 7.66499 11.0629 8.96052 11.3289C9.41738 11.4448 9.88786 11.4994 10.3583 11.4926H11.2311V10.074H9.93558C9.84696 10.074 9.76512 10.0672 9.67649 10.0536C8.89917 10.0058 8.30594 9.34427 8.32641 8.5668" fill="white"/>
<path d="M16.5429 16.1574V14.8003H12.3153V18.4285H16.5429V17.0713H13.8222V16.1643H16.5429V16.1574Z" fill="white"/>
</g>
<defs>
<clipPath id="clip0_266_60851">
<rect width="24" height="24" fill="white"/>
</clipPath>
</defs>
</svg>
