<svg width="24" height="24" viewBox="0 0 24 24" fill="none" xmlns="http://www.w3.org/2000/svg">
<g clip-path="url(#clip0_266_60776)">
<path d="M0 12C0 12.7065 0 12.785 0.0168382 13.385C0.06174 14.714 0.202058 16.2393 0.735266 17.8486C1.11132 18.9869 1.81852 20.2149 2.52572 20.9888C3.42377 21.9756 4.66416 22.7831 6.00561 23.2429C7.37511 23.7139 8.85688 23.9439 11.7362 24H12.2694C15.1544 23.9383 16.6305 23.7139 18 23.2429C19.3414 22.7831 20.5763 21.9756 21.4742 20.9888C22.1816 20.2094 22.8887 18.9869 23.2648 17.8486C23.7979 16.2393 23.9439 14.7084 23.9831 13.385C24 12.7907 24 12.7065 24 12C24 11.2935 24 11.2149 23.9831 10.6149C23.9383 9.28599 23.7979 7.76074 23.2648 6.15139C22.8887 5.01309 22.1816 3.78504 21.4742 3.01121C20.5763 2.0243 19.3358 1.21682 18 0.757009C16.6305 0.285981 15.1487 0.0560747 12.2694 0H11.7362C8.85126 0.0616821 7.37511 0.285981 6.00561 0.757009C4.66416 1.21682 3.42936 2.0243 2.52572 3.01121C1.81852 3.79065 1.11132 5.01309 0.735266 6.15139C0.207671 7.76074 0.06174 9.28599 0.0168382 10.6149C0 11.2093 0 11.2935 0 12Z" fill="#457C26"/>
<path d="M17.4522 13.3507L16.6642 12.8189C16.4087 13.0077 16.1009 13.1122 15.7833 13.1182C15.4657 13.1241 15.1542 13.031 14.8919 12.8519C14.8919 12.8519 12.4972 11.2339 12.2756 11.0809C12.148 10.9905 11.9954 10.9419 11.839 10.9419C11.6826 10.9419 11.53 10.9905 11.4024 11.0809L8.77715 12.8559C8.51475 13.0347 8.20327 13.1277 7.88576 13.1217C7.56825 13.1158 7.26041 13.0114 7.00483 12.8229L6.21729 13.3546C5.89882 13.5762 5.6781 13.912 5.60109 14.2922C5.52407 14.6724 5.59674 15.0677 5.80391 15.3957C5.90238 15.5565 6.03238 15.6958 6.18613 15.8051C6.3399 15.9144 6.51418 15.9913 6.69851 16.0314C6.88284 16.0714 7.07338 16.0737 7.25861 16.0381C7.44386 16.0025 7.61996 15.9297 7.7763 15.8242L11.4324 13.3517C11.5478 13.2625 11.6896 13.214 11.8355 13.214C11.9814 13.214 12.1232 13.2625 12.2387 13.3517L15.8938 15.8242C16.0501 15.9299 16.2262 16.0027 16.4115 16.0384C16.5967 16.0741 16.7873 16.0719 16.9716 16.0318C17.156 15.9917 17.3304 15.9147 17.4841 15.8054C17.6379 15.696 17.7678 15.5566 17.8662 15.3957C18.0736 15.0676 18.1465 14.6722 18.0696 14.2918C17.9928 13.9114 17.772 13.5753 17.4534 13.3537L17.4522 13.3507Z" fill="white"/>
<path d="M11.5666 8.77042C11.649 8.71845 11.7445 8.69092 11.8419 8.69092C11.9393 8.69092 12.0347 8.71845 12.1171 8.77042C12.2668 8.86305 13.8591 9.9546 13.8591 9.9546C14.1088 10.1243 14.4089 10.2036 14.7099 10.1797C15.0109 10.1557 15.2946 10.0298 15.5144 9.82273L16.4184 10.4343C16.6889 10.6228 16.8763 10.9085 16.9415 11.2317C17.0068 11.5549 16.945 11.8909 16.7688 12.1697C16.685 12.3064 16.5744 12.4247 16.4436 12.5175C16.3128 12.6102 16.1645 12.6755 16.0077 12.7094C15.851 12.7433 15.6891 12.7451 15.5317 12.7146C15.3742 12.6842 15.2245 12.6222 15.0917 12.5323C15.0917 12.5323 12.4953 10.7798 12.2431 10.6298C12.1216 10.5543 11.9814 10.5143 11.8384 10.5143C11.6954 10.5143 11.5552 10.5543 11.4337 10.6298C11.2231 10.7593 8.57221 12.529 8.57221 12.529C8.30184 12.7019 7.97405 12.7608 7.66038 12.6929C7.34673 12.625 7.07266 12.4357 6.8981 12.1664C6.7226 11.8879 6.66108 11.5526 6.72635 11.23C6.7916 10.9074 6.97861 10.6223 7.24854 10.4339L8.15352 9.82273C8.37312 10.03 8.65687 10.1561 8.9579 10.18C9.25891 10.204 9.55914 10.1245 9.80879 9.9546C9.80879 9.9546 11.41 8.86931 11.5666 8.77042Z" fill="white"/>
<path d="M12.1478 8.32755L14.0629 9.63272C14.1752 9.70091 14.3001 9.74567 14.4301 9.76434C14.5602 9.78298 14.6927 9.77516 14.8197 9.74128C14.9466 9.7074 15.0653 9.64817 15.1688 9.5672C15.2723 9.48622 15.3583 9.38516 15.4217 9.27007C15.5478 9.04897 15.5893 8.78962 15.5387 8.54019C15.488 8.29074 15.3485 8.06818 15.1461 7.91381L12.131 5.8758C12.0433 5.81797 11.9406 5.78711 11.8356 5.78711C11.7306 5.78711 11.6279 5.81797 11.5402 5.8758L8.52012 7.91381C8.30502 8.07763 8.16127 8.31804 8.11891 8.58508C8.07654 8.8521 8.13875 9.12521 8.29259 9.34755C8.43251 9.55449 8.64684 9.69956 8.89092 9.75266C9.13501 9.80576 9.39014 9.76282 9.60337 9.63272L11.5462 8.32755C11.6312 8.2593 11.7369 8.2221 11.846 8.2221C11.955 8.2221 12.0607 8.2593 12.1458 8.32755H12.1478Z" fill="white"/>
<path d="M13.8904 17.4694L12.3228 14.8201C12.2979 14.7543 12.2601 14.6942 12.2115 14.6432C12.163 14.5922 12.1048 14.5515 12.0403 14.5234C11.9757 14.4953 11.9063 14.4804 11.8359 14.4795C11.7655 14.4787 11.6957 14.4919 11.6305 14.5185C11.5643 14.5469 11.5045 14.5882 11.4545 14.64C11.4044 14.6918 11.3652 14.753 11.3391 14.8201L9.77153 17.4694C9.56877 17.7944 9.6169 18.313 10.1773 18.313H13.48C14.045 18.31 14.0931 17.7954 13.8904 17.4694Z" fill="white"/>
</g>
<defs>
<clipPath id="clip0_266_60776">
<rect width="24" height="24" fill="white"/>
</clipPath>
</defs>
</svg>
