<svg width="32" height="32" viewBox="0 0 32 32" fill="none" xmlns="http://www.w3.org/2000/svg">
<g clip-path="url(#clip0_266_61291)">
<path d="M0 16.004C0 16.9398 0 17.0517 0.024006 17.8515C0.048012 19.867 0.376094 21.8745 0.984246 23.802C1.50438 25.3377 2.31258 26.7613 3.36883 27.985C4.64117 29.3526 6.23357 30.3843 8.002 30.9923C9.82646 31.624 11.8029 31.92 15.6439 32H16.3561C20.1971 31.92 22.1655 31.616 23.998 30.9923C25.7664 30.3843 27.3588 29.3526 28.6311 27.985C29.6874 26.7533 30.5037 25.3377 31.0157 23.802C31.624 21.8745 31.952 19.875 31.976 17.8515C32 17.0597 32 16.9478 32 16.004C32 15.0602 32 14.9562 31.976 14.1644C31.952 12.149 31.624 10.1415 31.0157 8.21393C30.4957 6.67834 29.6874 5.25468 28.6311 4.02299C27.3588 2.65534 25.7664 1.62359 23.998 1.01575C22.1735 0.383905 20.1971 0.0799801 16.3561 0H15.6439C11.8029 0.0799801 9.82646 0.383905 8.002 1.00775C6.23357 1.6156 4.64117 2.64734 3.36883 4.01499C2.31258 5.24668 1.50438 6.66234 0.984246 8.20594C0.376094 10.1415 0.056014 12.141 0.024006 14.1644C0 14.9562 0 15.0682 0 16.004Z" fill="#00854A"/>
<path d="M13.2843 14.1168C12.7774 13.6473 12.1614 13.2608 11.4174 12.9986C11.0445 12.866 10.4285 12.6738 9.90363 12.6738C9.453 12.6738 9.06897 12.8172 8.96975 13.2694C8.78417 14.1323 8.87052 21.5394 8.93795 22.3954C8.9852 23.0264 9.24897 23.3943 9.98352 23.3797C15.1053 23.2967 16.4485 17.0537 13.2843 14.1168Z" fill="white"/>
<path d="M19.1525 8.16865C18.6925 7.74236 18.1276 7.39125 17.4579 7.15457C17.1181 7.03191 16.5597 6.85742 16.0828 6.85742C15.67 6.85742 15.3238 6.99088 15.2314 7.40074C15.0626 8.18162 15.1434 14.9067 15.2018 15.6871C15.2465 16.2568 15.484 16.5902 16.1511 16.5807C20.8025 16.5025 22.0259 10.8343 19.1525 8.16865Z" fill="white"/>
<path d="M21.2064 14.4198C20.6295 13.8852 19.9177 13.4429 19.0775 13.1453C18.6479 12.992 17.9451 12.7734 17.3489 12.7734C16.8321 12.7734 16.3922 12.938 16.2797 13.4541C16.064 14.4371 16.168 22.8859 16.2423 23.8658C16.2999 24.5862 16.5958 25.0008 17.4326 24.9888C23.2799 24.8946 24.8169 17.7705 21.2064 14.4198Z" fill="white"/>
</g>
<defs>
<clipPath id="clip0_266_61291">
<rect width="32" height="32" fill="white"/>
</clipPath>
</defs>
</svg>
