<svg width="24" height="24" viewBox="0 0 24 24" fill="none" xmlns="http://www.w3.org/2000/svg">
<path d="M8.75769 9.36719L7.94434 11.9538H9.5577L8.771 9.36719H8.75769Z" fill="white"/>
<path d="M11.9967 1C5.37184 1 0 5.34198 0 10.6942C0 14.1397 2.22603 17.157 5.5651 18.8764L4.43875 23.1917C4.39876 23.3188 4.42542 23.466 4.52539 23.5596C4.59204 23.6265 4.67868 23.6667 4.77199 23.6667C4.8453 23.6667 4.91861 23.6332 4.9786 23.5864L9.84394 20.2212C10.5571 20.3282 11.2835 20.3817 12.0033 20.3884C18.6282 20.3884 24 16.0464 24 10.6942C24 5.34198 18.6282 1 12.0033 1H11.9967ZM5.59179 13.7584C5.59179 13.9524 5.53179 14.1464 5.40515 14.2936C5.27186 14.4274 5.08524 14.501 4.89862 14.4943C4.73867 14.4943 4.58539 14.4475 4.45876 14.3538C4.3388 14.2534 4.25217 14.1063 4.22551 13.9524C4.21218 13.8922 4.2055 13.8253 4.21217 13.7651V9.16215H2.90585C2.74589 9.16215 2.58594 9.12201 2.44598 9.04173C2.31934 8.96144 2.23271 8.83432 2.20605 8.68045C2.19939 8.63361 2.19274 8.58677 2.18608 8.54663C2.17941 8.37269 2.25272 8.19874 2.38601 8.0917C2.53264 7.98465 2.71256 7.92445 2.89918 7.93114H6.89144C7.05139 7.93114 7.21135 7.97128 7.35131 8.05156C7.47794 8.13184 7.57124 8.25896 7.5979 8.41284C7.5979 8.45967 7.60457 8.50649 7.5979 8.54663C7.60457 8.72058 7.53122 8.89452 7.39793 9.00157C7.2513 9.1153 7.07139 9.16884 6.89144 9.16215H5.58512V13.7651L5.59179 13.7584ZM11.2902 14.307C11.1702 14.4274 11.0036 14.4943 10.837 14.4943C10.5637 14.5211 10.3038 14.3538 10.2172 14.0929L9.85724 13.0157H7.63122L7.27129 14.0929C7.19132 14.3605 6.9314 14.5278 6.65814 14.4943C6.51152 14.501 6.3649 14.4542 6.2516 14.3672C6.1383 14.2735 6.06498 14.1464 6.03832 14.0059C6.03165 13.9591 6.02498 13.9055 6.02498 13.852C6.02498 13.765 6.0383 13.6781 6.06496 13.5911C6.09162 13.4841 6.12496 13.3837 6.15828 13.29L7.94445 8.25226C7.98444 8.11176 8.07774 7.99135 8.19104 7.90437C8.31767 7.83078 8.46431 7.79733 8.6176 7.79733H8.95084C9.1108 7.79733 9.26408 7.83079 9.39737 7.91107C9.544 8.01142 9.644 8.16529 9.68399 8.33924L11.3568 13.2834C11.4035 13.4105 11.4368 13.5443 11.4702 13.6781C11.4768 13.7517 11.4901 13.8052 11.4968 13.8453C11.4968 14.0193 11.4235 14.1865 11.2969 14.3003L11.2902 14.307ZM15.9089 14.22C15.7623 14.327 15.5823 14.3872 15.3957 14.3806H12.5099C12.3299 14.3872 12.1433 14.3404 11.99 14.2468C11.85 14.1464 11.7501 13.9858 11.7234 13.8119C11.7101 13.7182 11.6967 13.6179 11.6967 13.5242V8.53996C11.6967 8.34594 11.7567 8.15191 11.89 8.00472C12.0233 7.87092 12.2033 7.79064 12.3965 7.80402C12.5565 7.80402 12.7165 7.85084 12.8364 7.95789C12.9564 8.05824 13.043 8.19873 13.0697 8.35261C13.083 8.41282 13.0897 8.47974 13.083 8.53996V13.1429H15.3891C15.5557 13.1362 15.7156 13.1763 15.8622 13.2633C15.9822 13.3436 16.0689 13.4774 16.0955 13.6246C16.1089 13.6714 16.1155 13.7182 16.1222 13.7584C16.1222 13.9323 16.0489 14.1063 15.9156 14.2133L15.9089 14.22ZM21.0942 14.327C20.9542 14.4408 20.7742 14.501 20.5876 14.4943C20.4677 14.4943 20.3477 14.4742 20.241 14.4207C20.1277 14.3404 20.0344 14.2334 19.9744 14.1129L18.3816 11.4904L17.6218 12.2999V13.7651C17.6351 13.9591 17.5684 14.1531 17.4351 14.3003C17.3018 14.4341 17.1219 14.5077 16.9286 14.501C16.7687 14.501 16.6087 14.4542 16.4821 14.3605C16.3621 14.2601 16.2821 14.1129 16.2488 13.9591C16.2355 13.8989 16.2355 13.832 16.2421 13.7717V8.54663C16.2288 8.35261 16.2955 8.15861 16.4288 8.01142C16.5621 7.87092 16.7487 7.79732 16.9353 7.8107C17.0952 7.8107 17.2552 7.85754 17.3752 7.96458C17.4951 8.06494 17.5818 8.20543 17.6084 8.35931C17.6218 8.41952 17.6218 8.48642 17.6218 8.54663V10.6875L19.7945 8.13854C19.8678 8.04487 19.9611 7.96459 20.0611 7.891C20.1477 7.83748 20.2477 7.8107 20.3477 7.8107C20.4943 7.8107 20.6409 7.85754 20.7609 7.94451C20.8809 8.0248 20.9608 8.14521 20.9875 8.2924C20.9875 8.31247 21.0008 8.33255 21.0008 8.34593C21.0008 8.366 21.0008 8.38607 21.0008 8.39945C21.0008 8.49311 20.9808 8.58677 20.9342 8.66705C20.8875 8.75403 20.8342 8.82762 20.7675 8.90122L19.348 10.4868L21.0275 13.2098L21.0808 13.2967C21.1675 13.4239 21.2341 13.5643 21.2807 13.7048C21.2807 13.7182 21.2874 13.7316 21.2874 13.745V13.7918C21.3074 13.9925 21.2274 14.1932 21.0808 14.327H21.0942Z" fill="white"/>
</svg>
