<svg width="24" height="24" viewBox="0 0 24 24" fill="none" xmlns="http://www.w3.org/2000/svg">
<path d="M6.3 8.56055H3.7C3.03726 8.56055 2.5 9.09781 2.5 9.76055V14.3605C2.5 15.0233 3.03726 15.5605 3.7 15.5605H6.3C6.96274 15.5605 7.5 15.0233 7.5 14.3605V9.76055C7.5 9.09781 6.96274 8.56055 6.3 8.56055Z" fill="#F5AC2F"/>
<path d="M5.08594 5.73633V18.2613" stroke="#F5AC2F" stroke-linecap="round"/>
<path d="M13.302 4.56055H10.702C10.0392 4.56055 9.50195 5.09781 9.50195 5.76055V18.3605C9.50195 19.0233 10.0392 19.5605 10.702 19.5605H13.302C13.9647 19.5605 14.502 19.0233 14.502 18.3605V5.76055C14.502 5.09781 13.9647 4.56055 13.302 4.56055Z" fill="#E24949"/>
<path d="M11.9785 2.29102V21.709" stroke="#E24949" stroke-linecap="round"/>
<path d="M20.302 7.56055H17.702C17.0392 7.56055 16.502 8.09781 16.502 8.76055V15.3605C16.502 16.0233 17.0392 16.5605 17.702 16.5605H20.302C20.9647 16.5605 21.502 16.0233 21.502 15.3605V8.76055C21.502 8.09781 20.9647 7.56055 20.302 7.56055Z" fill="#E249AA"/>
<path d="M18.8711 4.87695V19.126" stroke="#E249AA" stroke-linecap="round"/>
</svg>
