<svg width="24" height="24" viewBox="0 0 24 24" fill="none" xmlns="http://www.w3.org/2000/svg">
<path d="M3.74065 11.2202H2.71465C2.05191 11.2202 1.51465 11.7575 1.51465 12.4202V17.4372C1.51465 18.1 2.05191 18.6372 2.71465 18.6372H3.74065C4.40339 18.6372 4.94065 18.1 4.94065 17.4372V12.4202C4.94065 11.7575 4.40339 11.2202 3.74065 11.2202Z" fill="#6EC4F6"/>
<path d="M9.30832 5.98438H7.85332C7.19058 5.98438 6.65332 6.52163 6.65332 7.18438V17.4364C6.65332 18.0991 7.19058 18.6364 7.85332 18.6364H9.30832C9.97106 18.6364 10.5083 18.0991 10.5083 17.4364V7.18438C10.5083 6.52163 9.97106 5.98438 9.30832 5.98438Z" fill="#2B9CDE"/>
<path d="M14.8777 6.85693H13.4227C12.7599 6.85693 12.2227 7.39419 12.2227 8.05693V17.4369C12.2227 18.0997 12.7599 18.6369 13.4227 18.6369H14.8777C15.5404 18.6369 16.0777 18.0997 16.0777 17.4369V8.05693C16.0777 7.39419 15.5404 6.85693 14.8777 6.85693Z" fill="#6EC4F6"/>
<path d="M20.446 2.49414H18.991C18.3283 2.49414 17.791 3.0314 17.791 3.69414V17.4361C17.791 18.0989 18.3283 18.6361 18.991 18.6361H20.446C21.1088 18.6361 21.646 18.0989 21.646 17.4361V3.69414C21.646 3.0314 21.1088 2.49414 20.446 2.49414Z" fill="#2B9CDE"/>
<path d="M18.0537 19.0752L21.4857 22.5072" stroke="#1F3A5E" stroke-width="2" stroke-linecap="round"/>
<path d="M15.7659 20.6812C18.3727 20.6812 20.4859 18.568 20.4859 15.9612C20.4859 13.3544 18.3727 11.2412 15.7659 11.2412C13.1591 11.2412 11.0459 13.3544 11.0459 15.9612C11.0459 18.568 13.1591 20.6812 15.7659 20.6812Z" fill="white" stroke="#1F3A5E" stroke-width="2"/>
</svg>
