<svg width="36" height="36" viewBox="0 0 36 36" fill="none" xmlns="http://www.w3.org/2000/svg">
<path d="M17.9999 21.0164C19.8476 21.0176 21.6306 21.6971 23.0105 22.9258C24.3904 24.1546 25.2712 25.8472 25.4859 27.6824C25.5105 27.9212 25.6224 28.1426 25.8001 28.304C25.9777 28.4655 26.2088 28.5557 26.4489 28.5574H32.5329C32.6663 28.5574 32.7982 28.5301 32.9206 28.4771C33.043 28.4241 33.1533 28.3465 33.2446 28.2492C33.3358 28.152 33.4062 28.037 33.4513 27.9115C33.4964 27.786 33.5153 27.6525 33.5069 27.5194C33.2371 23.5896 31.4857 19.9088 28.6066 17.2205C25.7275 14.5323 21.9354 13.0371 17.9964 13.0371C14.0573 13.0371 10.2652 14.5323 7.38607 17.2205C4.50698 19.9088 2.75561 23.5896 2.48586 27.5194C2.47738 27.6525 2.49629 27.786 2.5414 27.9115C2.58652 28.037 2.65688 28.152 2.74816 28.2492C2.83943 28.3465 2.94968 28.4241 3.07209 28.4771C3.19449 28.5301 3.32647 28.5574 3.45986 28.5574H9.54586C9.78595 28.5557 10.017 28.4655 10.1947 28.304C10.3724 28.1426 10.4842 27.9212 10.5089 27.6824C10.7236 25.8463 11.6051 24.1531 12.9861 22.9242C14.3671 21.6953 16.1513 21.0164 17.9999 21.0164Z" fill="#E6E6E6"/>
<path d="M32.5389 29.0425H26.4539C26.0955 29.0406 25.7502 28.9071 25.4837 28.6675C25.2171 28.4279 25.0478 28.0987 25.0079 27.7425C24.8075 26.0243 23.983 24.4396 22.6909 23.2895C21.3988 22.1393 19.7292 21.5039 17.9994 21.5039C16.2696 21.5039 14.6 22.1393 13.3079 23.2895C12.0159 24.4396 11.1913 26.0243 10.9909 27.7425C10.951 28.0987 10.7817 28.4279 10.5151 28.6675C10.2486 28.9071 9.90334 29.0406 9.54492 29.0425H3.46192C3.26171 29.0431 3.06352 29.0025 2.87966 28.9233C2.69579 28.844 2.53018 28.7279 2.39308 28.582C2.25599 28.436 2.15035 28.2635 2.08271 28.0751C2.01508 27.8866 1.9869 27.6863 1.99992 27.4865C2.27226 23.4293 4.07605 19.6272 7.04611 16.8498C10.0162 14.0724 13.9306 12.5273 17.9969 12.5273C22.0632 12.5273 25.9777 14.0724 28.9477 16.8498C31.9178 19.6272 33.7216 23.4293 33.9939 27.4865C34.0068 27.6859 33.9786 27.8859 33.9112 28.074C33.8437 28.2621 33.7384 28.4344 33.6018 28.5802C33.4652 28.726 33.3001 28.8423 33.1168 28.9218C32.9334 29.0013 32.7357 29.0424 32.5359 29.0425M17.9999 20.5295C19.9688 20.5278 21.8696 21.2505 23.3401 22.5598C24.8106 23.8691 25.7481 25.6736 25.9739 27.6295C25.9854 27.7497 26.0407 27.8614 26.1292 27.9434C26.2177 28.0255 26.3333 28.0721 26.4539 28.0745H32.5389C32.6058 28.0744 32.6719 28.0606 32.7333 28.0339C32.7946 28.0072 32.8498 27.9683 32.8955 27.9195C32.9412 27.8707 32.9765 27.813 32.9991 27.7501C33.0217 27.6872 33.0311 27.6203 33.0269 27.5535C32.7722 23.7414 31.0783 20.1685 28.2881 17.5585C25.4979 14.9485 21.82 13.4965 17.9994 13.4965C14.1788 13.4965 10.5009 14.9485 7.71076 17.5585C4.92058 20.1685 3.2266 23.7414 2.97192 27.5535C2.96768 27.6204 2.97719 27.6873 2.99984 27.7503C3.0225 27.8133 3.05783 27.871 3.10366 27.9199C3.14948 27.9687 3.20482 28.0076 3.26627 28.0342C3.32771 28.0608 3.39396 28.0745 3.46092 28.0745H9.54592C9.66658 28.0721 9.78215 28.0255 9.87065 27.9434C9.95915 27.8614 10.0144 27.7497 10.0259 27.6295C10.2518 25.6736 11.1893 23.8691 12.6597 22.5598C14.1302 21.2505 16.031 20.5278 17.9999 20.5295Z" fill="#111111"/>
<path d="M18.428 14.0569V20.1719C18.4295 20.4033 18.5132 20.6265 18.6641 20.8019C18.8151 20.9772 19.0234 21.0931 19.252 21.1289C20.8602 21.3991 22.3374 22.1836 23.462 23.3646C24.5865 24.5456 25.2978 26.0594 25.489 27.6789C25.5136 27.9181 25.6255 28.1398 25.8034 28.3016C25.9812 28.4634 26.2125 28.554 26.453 28.5559H32.537C32.67 28.556 32.8016 28.5289 32.9238 28.4763C33.046 28.4236 33.1561 28.3466 33.2474 28.2498C33.3387 28.1531 33.4093 28.0387 33.4548 27.9137C33.5003 27.7887 33.5197 27.6557 33.512 27.5229C33.2651 23.8457 31.7199 20.3758 29.152 17.7323C26.584 15.0887 23.1605 13.4434 19.492 13.0899C19.3571 13.0777 19.2211 13.0937 19.0927 13.137C18.9644 13.1802 18.8464 13.2497 18.7464 13.3411C18.6464 13.4324 18.5665 13.5436 18.5119 13.6676C18.4572 13.7915 18.429 13.9255 18.429 14.0609" fill="#12A396"/>
<path d="M32.5389 29.0423H26.4559C26.0964 29.0398 25.7504 28.9055 25.4835 28.6647C25.2166 28.424 25.0473 28.0936 25.0079 27.7363C24.8259 26.2225 24.1594 24.808 23.1079 23.7038C22.0563 22.5996 20.6761 21.865 19.1729 21.6093C18.8306 21.5549 18.5188 21.3805 18.2935 21.1172C18.0681 20.8539 17.9438 20.5189 17.9429 20.1723V14.0573C17.9428 13.8537 17.9853 13.6523 18.0676 13.466C18.1499 13.2798 18.2703 13.1128 18.4209 12.9758C18.5716 12.8388 18.7492 12.7348 18.9424 12.6705C19.1356 12.6062 19.3402 12.583 19.5429 12.6023C23.3316 12.9513 26.8708 14.6434 29.5214 17.373C32.1719 20.1026 33.7593 23.69 33.9969 27.4873C34.0096 27.6867 33.9813 27.8865 33.9138 28.0745C33.8463 28.2625 33.741 28.4346 33.6044 28.5803C33.4677 28.726 33.3027 28.8422 33.1194 28.9217C32.9362 29.0011 32.7386 29.0422 32.5389 29.0423ZM19.3999 13.5673C19.2797 13.5674 19.1641 13.6128 19.0759 13.6943C19.0249 13.7401 18.9843 13.796 18.9565 13.8586C18.9288 13.9212 18.9146 13.9889 18.9149 14.0573V20.1723C18.9167 20.2887 18.9598 20.4007 19.0366 20.4883C19.1133 20.5758 19.2187 20.6333 19.3339 20.6503C21.0444 20.9415 22.6151 21.7777 23.8117 23.0343C25.0083 24.2909 25.7667 25.9006 25.9739 27.6233C25.9841 27.7446 26.0391 27.8577 26.1282 27.9405C26.2174 28.0234 26.3342 28.07 26.4559 28.0713H32.5399C32.6071 28.0714 32.6736 28.0576 32.7352 28.0308C32.7968 28.0039 32.8522 27.9646 32.8979 27.9153C32.9438 27.8671 32.9791 27.8098 33.0017 27.7471C33.0242 27.6844 33.0335 27.6178 33.0289 27.5513C32.8056 23.9834 31.3138 20.6129 28.8228 18.0487C26.3318 15.4845 23.0059 13.8957 19.4459 13.5693H19.3999" fill="#111111"/>
<path d="M17.6539 8.77557L15.0059 23.4266C14.9094 23.9615 15.0283 24.513 15.3368 24.9606L17.7109 28.4046C17.7432 28.4514 17.7865 28.4897 17.8369 28.5161C17.8873 28.5425 17.9434 28.5563 18.0003 28.5563C18.0573 28.5563 18.1134 28.5425 18.1638 28.5161C18.2142 28.4897 18.2575 28.4514 18.2899 28.4046L20.6639 24.9606C20.9724 24.513 21.0913 23.9615 20.9948 23.4266L18.3459 8.77557C18.3308 8.69484 18.2879 8.62193 18.2247 8.56946C18.1615 8.517 18.082 8.48828 17.9998 8.48828C17.9177 8.48828 17.8382 8.517 17.775 8.56946C17.7118 8.62193 17.669 8.69484 17.6539 8.77557Z" fill="white"/>
<path d="M18 29.0411C17.8644 29.0411 17.7308 29.0081 17.6108 28.9451C17.4908 28.882 17.3879 28.7907 17.311 28.6791L14.937 25.2351C14.7467 24.9611 14.6126 24.6521 14.5424 24.326C14.4722 23.9999 14.4673 23.6631 14.528 23.3351L17.177 8.6881C17.2115 8.49465 17.3129 8.31951 17.4636 8.19335C17.6142 8.06718 17.8045 7.99805 18.001 7.99805C18.1975 7.99805 18.3877 8.06718 18.5383 8.19335C18.689 8.31951 18.7905 8.49465 18.825 8.6881L21.473 23.3391C21.5333 23.6671 21.5283 24.0039 21.4581 24.3299C21.3879 24.656 21.254 24.965 21.064 25.2391L18.685 28.6791C18.608 28.7907 18.5051 28.882 18.3851 28.9451C18.2651 29.0081 18.1315 29.0411 17.996 29.0411M17.996 9.5921L15.485 23.5121C15.448 23.7145 15.4514 23.9222 15.4948 24.1233C15.5382 24.3244 15.6208 24.515 15.738 24.6841L18.001 27.9681L20.264 24.6841C20.3811 24.515 20.4637 24.3244 20.5071 24.1233C20.5506 23.9222 20.5539 23.7145 20.517 23.5121L17.996 9.5921Z" fill="#111111"/>
</svg>
