<svg width="36" height="36" viewBox="0 0 36 36" fill="none" xmlns="http://www.w3.org/2000/svg">
<path d="M19.9089 22.775H9.31494V4.70104C9.31494 4.12791 9.54262 3.57825 9.94788 3.17298C10.3532 2.76772 10.9028 2.54004 11.4759 2.54004H17.7479C18.0317 2.54004 18.3127 2.59593 18.5749 2.70454C18.8371 2.81314 19.0753 2.97231 19.276 3.17298C19.4767 3.37365 19.6358 3.61188 19.7444 3.87406C19.853 4.13624 19.9089 4.41725 19.9089 4.70104V22.775Z" fill="white"/>
<path d="M19.91 23.316H9.31503C9.17181 23.316 9.03446 23.2591 8.93319 23.1578C8.83192 23.0566 8.77502 22.9192 8.77502 22.776V4.7C8.77502 4.34535 8.8449 3.99417 8.98065 3.66652C9.1164 3.33888 9.31537 3.04119 9.56619 2.79046C9.81701 2.53973 10.1148 2.34087 10.4425 2.20524C10.7702 2.06961 11.1214 1.99987 11.476 2H17.748C18.4641 2 19.1509 2.28446 19.6572 2.79081C20.1636 3.29716 20.448 3.98392 20.448 4.7V22.776C20.448 22.9192 20.3911 23.0566 20.2899 23.1578C20.1886 23.2591 20.0512 23.316 19.908 23.316M9.85602 22.235H19.37V4.7C19.3695 4.27025 19.1985 3.85825 18.8947 3.55436C18.5908 3.25048 18.1788 3.07953 17.749 3.079H11.476C11.0464 3.07979 10.6347 3.25086 10.331 3.55472C10.0274 3.85857 9.85655 4.27042 9.85602 4.7V22.235Z" fill="#111111"/>
<path d="M23.44 32.7602H5.78204C5.35626 32.7603 4.93462 32.6766 4.54122 32.5137C4.14783 32.3508 3.79038 32.112 3.48931 31.8109C3.18823 31.5099 2.94943 31.1524 2.78655 30.759C2.62367 30.3656 2.53991 29.944 2.54004 29.5182V8.9422C2.53991 8.51641 2.62367 8.09478 2.78655 7.70138C2.94943 7.30798 3.18823 6.95054 3.48931 6.64946C3.79038 6.34839 4.14783 6.10959 4.54122 5.94671C4.93462 5.78383 5.35626 5.70006 5.78204 5.7002H23.44C23.8658 5.70006 24.2875 5.78383 24.6809 5.94671C25.0743 6.10959 25.4317 6.34839 25.7328 6.64946C26.0338 6.95054 26.2726 7.30798 26.4355 7.70138C26.5984 8.09478 26.6822 8.51641 26.682 8.9422V29.5182C26.6822 29.944 26.5984 30.3656 26.4355 30.759C26.2726 31.1524 26.0338 31.5099 25.7328 31.8109C25.4317 32.112 25.0743 32.3508 24.6809 32.5137C24.2875 32.6766 23.8658 32.7603 23.44 32.7602Z" fill="white"/>
<path d="M23.442 33.3002H5.782C4.77928 33.2991 3.81792 32.9003 3.10889 32.1913C2.39986 31.4822 2.00106 30.5209 2 29.5182V8.94216C2.00106 7.93943 2.39986 6.97808 3.10889 6.26905C3.81792 5.56001 4.77928 5.16122 5.782 5.16016H23.442C24.4447 5.16122 25.4061 5.56001 26.1151 6.26905C26.8241 6.97808 27.2229 7.93943 27.224 8.94216V29.5182C27.2229 30.5209 26.8241 31.4822 26.1151 32.1913C25.4061 32.9003 24.4447 33.2991 23.442 33.3002ZM5.782 6.24116C5.06592 6.24116 4.37916 6.52562 3.87281 7.03197C3.36646 7.53832 3.082 8.22507 3.082 8.94116V29.5182C3.082 29.8727 3.15184 30.2238 3.28753 30.5514C3.42321 30.879 3.62209 31.1766 3.87281 31.4273C4.12353 31.6781 4.42118 31.8769 4.74875 32.0126C5.07633 32.1483 5.42743 32.2182 5.782 32.2182H23.442C24.1581 32.2182 24.8448 31.9337 25.3512 31.4273C25.8575 30.921 26.142 30.2342 26.142 29.5182V8.94216C26.142 8.22607 25.8575 7.53932 25.3512 7.03297C24.8448 6.52662 24.1581 6.24216 23.442 6.24216L5.782 6.24116Z" fill="#111111"/>
<path d="M22.2721 18.2265C22.4819 19.8267 22.1853 21.4525 21.4239 22.8756C20.6625 24.2987 19.4746 25.4476 18.0269 26.161C16.5792 26.8745 14.9445 27.1166 13.3521 26.8535C11.7597 26.5904 10.2898 25.8352 9.14852 24.694C8.00728 23.5528 7.2521 22.0828 6.98899 20.4904C6.72587 18.8981 6.96804 17.2633 7.68149 15.8156C8.39495 14.3679 9.54386 13.18 10.9669 12.4186C12.39 11.6572 14.0158 11.3606 15.6161 11.5705C17.3036 11.7922 18.8707 12.5648 20.0742 13.7683C21.2777 14.9718 22.0503 16.539 22.2721 18.2265Z" fill="#B9B5EF"/>
<path d="M16.77 21.9295C16.699 21.9296 16.6288 21.9157 16.5632 21.8886C16.4977 21.8614 16.4381 21.8217 16.388 21.7715L12.07 17.4535C11.9687 17.3522 11.9117 17.2148 11.9117 17.0715C11.9117 16.9282 11.9687 16.7908 12.07 16.6895C12.1713 16.5882 12.3087 16.5312 12.452 16.5312C12.5952 16.5312 12.7327 16.5882 12.834 16.6895L17.152 21.0075C17.2276 21.083 17.279 21.1792 17.2999 21.284C17.3208 21.3888 17.3101 21.4975 17.2692 21.5962C17.2283 21.6949 17.159 21.7792 17.0702 21.8386C16.9813 21.8979 16.8768 21.9295 16.77 21.9295Z" fill="white"/>
<path d="M12.453 21.9295C12.3462 21.9295 12.2417 21.8979 12.1529 21.8386C12.064 21.7792 11.9947 21.6949 11.9538 21.5962C11.9129 21.4975 11.9023 21.3888 11.9231 21.284C11.944 21.1792 11.9955 21.083 12.071 21.0075L16.389 16.6895C16.4392 16.6393 16.4988 16.5995 16.5643 16.5724C16.6299 16.5452 16.7001 16.5313 16.771 16.5312C16.842 16.5313 16.9122 16.5452 16.9778 16.5724C17.0433 16.5995 17.1029 16.6393 17.153 16.6895C17.2032 16.7396 17.243 16.7992 17.2702 16.8647C17.2973 16.9303 17.3113 17.0005 17.3113 17.0715C17.3113 17.1424 17.2973 17.2127 17.2702 17.2782C17.243 17.3438 17.2032 17.4033 17.153 17.4535L12.835 21.7715C12.7849 21.8217 12.7253 21.8614 12.6598 21.8886C12.5942 21.9157 12.524 21.9296 12.453 21.9295Z" fill="white"/>
<path d="M31.088 25.2958H23.457C22.916 25.2956 22.3973 25.0806 22.0148 24.6981C21.6323 24.3155 21.4173 23.7968 21.417 23.2558C21.417 22.7145 21.632 22.1954 22.0148 21.8126C22.3976 21.4299 22.9167 21.2148 23.458 21.2148H31.089C31.6223 21.2267 32.1299 21.4468 32.5029 21.8282C32.8759 22.2096 33.0848 22.7219 33.0848 23.2553C33.0848 23.7888 32.8759 24.3011 32.5029 24.6825C32.1299 25.0639 31.6213 25.284 31.088 25.2958Z" fill="#FEE456"/>
<path d="M31.089 25.8358H23.458C22.7734 25.8358 22.1169 25.5639 21.6329 25.0799C21.1489 24.5958 20.877 23.9394 20.877 23.2548C20.877 22.5703 21.1489 21.9138 21.6329 21.4298C22.1169 20.9458 22.7734 20.6738 23.458 20.6738H31.089C31.7735 20.6738 32.43 20.9458 32.914 21.4298C33.398 21.9138 33.67 22.5703 33.67 23.2548C33.67 23.9394 33.398 24.5958 32.914 25.0799C32.43 25.5639 31.7735 25.8358 31.089 25.8358ZM23.458 21.7548C23.0601 21.7548 22.6786 21.9129 22.3973 22.1942C22.116 22.4755 21.958 22.857 21.958 23.2548C21.958 23.6527 22.116 24.0342 22.3973 24.3155C22.6786 24.5968 23.0601 24.7548 23.458 24.7548H31.089C31.4868 24.7548 31.8683 24.5968 32.1496 24.3155C32.4309 24.0342 32.589 23.6527 32.589 23.2548C32.589 22.857 32.4309 22.4755 32.1496 22.1942C31.8683 21.9129 31.4868 21.7548 31.089 21.7548H23.458Z" fill="#111111"/>
<path d="M31.088 29.3769H23.457C22.9159 29.3767 22.397 29.1615 22.0144 28.7788C21.6319 28.396 21.417 27.8771 21.417 27.3359C21.417 26.7946 21.632 26.2755 22.0148 25.8927C22.3976 25.51 22.9167 25.2949 23.458 25.2949H31.089C31.357 25.2949 31.6223 25.3477 31.8699 25.4503C32.1175 25.5529 32.3424 25.7032 32.5318 25.8928C32.7213 26.0823 32.8715 26.3073 32.974 26.5549C33.0765 26.8026 33.1291 27.0679 33.129 27.3359C33.129 27.8772 32.914 28.3964 32.5312 28.7791C32.1484 29.1619 31.6293 29.3769 31.088 29.3769Z" fill="#FEE456"/>
<path d="M31.0889 29.9189H23.4579C22.7821 29.9056 22.1384 29.6277 21.6651 29.1451C21.1919 28.6624 20.9268 28.0133 20.9268 27.3374C20.9268 26.6614 21.1919 26.0123 21.6651 25.5297C22.1384 25.047 22.7821 24.7692 23.4579 24.7559H31.0889C31.7648 24.7692 32.4085 25.047 32.8818 25.5297C33.355 26.0123 33.6201 26.6614 33.6201 27.3374C33.6201 28.0133 33.355 28.6624 32.8818 29.1451C32.4085 29.6277 31.7648 29.9056 31.0889 29.9189ZM23.4579 25.8369C23.0601 25.8369 22.6786 25.9949 22.3973 26.2762C22.116 26.5575 21.9579 26.939 21.9579 27.3369C21.9579 27.7347 22.116 28.1162 22.3973 28.3975C22.6786 28.6788 23.0601 28.8369 23.4579 28.8369H31.0889C31.4868 28.8369 31.8683 28.6788 32.1496 28.3975C32.4309 28.1162 32.5889 27.7347 32.5889 27.3369C32.5889 26.939 32.4309 26.5575 32.1496 26.2762C31.8683 25.9949 31.4868 25.8369 31.0889 25.8369H23.4579Z" fill="#111111"/>
<path d="M31.088 33.4604H23.458C22.9167 33.4604 22.3976 33.2454 22.0148 32.8626C21.632 32.4799 21.417 31.9607 21.417 31.4194C21.417 31.1514 21.4698 30.8861 21.5724 30.6385C21.675 30.3909 21.8253 30.166 22.0148 29.9766C22.2044 29.7871 22.4294 29.6369 22.677 29.5344C22.9246 29.4319 23.19 29.3793 23.458 29.3794H31.088C31.3598 29.3734 31.63 29.4217 31.8828 29.5216C32.1356 29.6214 32.366 29.7707 32.5603 29.9608C32.7546 30.1509 32.909 30.3779 33.0145 30.6284C33.1199 30.879 33.1742 31.1481 33.1742 31.4199C33.1742 31.6917 33.1199 31.9608 33.0145 32.2114C32.909 32.4619 32.7546 32.6889 32.5603 32.879C32.366 33.0691 32.1356 33.2184 31.8828 33.3183C31.63 33.4181 31.3598 33.4664 31.088 33.4604Z" fill="#FEE456"/>
<path d="M31.089 33.9999H23.458C22.7734 33.9999 22.1169 33.728 21.6329 33.2439C21.1489 32.7599 20.877 32.1034 20.877 31.4189C20.877 30.7344 21.1489 30.0779 21.6329 29.5938C22.1169 29.1098 22.7734 28.8379 23.458 28.8379H31.089C31.7735 28.8379 32.43 29.1098 32.914 29.5938C33.398 30.0779 33.67 30.7344 33.67 31.4189C33.67 32.1034 33.398 32.7599 32.914 33.2439C32.43 33.728 31.7735 33.9999 31.089 33.9999ZM23.458 29.9189C23.0601 29.9189 22.6786 30.0769 22.3973 30.3582C22.116 30.6395 21.958 31.0211 21.958 31.4189C21.958 31.8167 22.116 32.1982 22.3973 32.4796C22.6786 32.7609 23.0601 32.9189 23.458 32.9189H31.089C31.4868 32.9189 31.8683 32.7609 32.1496 32.4796C32.4309 32.1982 32.589 31.8167 32.589 31.4189C32.589 31.0211 32.4309 30.6395 32.1496 30.3582C31.8683 30.0769 31.4868 29.9189 31.089 29.9189H23.458Z" fill="#111111"/>
</svg>
