<svg width="36" height="36" viewBox="0 0 36 36" fill="none" xmlns="http://www.w3.org/2000/svg">
<path d="M24.591 31H6.41098C5.56176 31.051 4.72679 30.7643 4.08804 30.2023C3.44929 29.6404 3.05855 28.8488 3.00098 28V7.99995C3.05855 7.15115 3.44929 6.35951 4.08804 5.79756C4.72679 5.23562 5.56176 4.94892 6.41098 4.99995H24.591C25.44 4.94919 26.2747 5.23601 26.9133 5.79793C27.5518 6.35985 27.9424 7.15133 28 7.99995V28C27.9424 28.8486 27.5518 29.6401 26.9133 30.202C26.2747 30.7639 25.44 31.0507 24.591 31Z" fill="white"/>
<path d="M22.501 31.5H6.50098C5.57272 31.5 4.68248 31.1313 4.0261 30.4749C3.36973 29.8185 3.00098 28.9283 3.00098 28V8C3.00098 7.07174 3.36973 6.1815 4.0261 5.52513C4.68248 4.86875 5.57272 4.5 6.50098 4.5H24.501C24.9606 4.5 25.4157 4.59053 25.8404 4.76642C26.265 4.94231 26.6508 5.20012 26.9758 5.52513C27.3009 5.85013 27.5587 6.23597 27.7346 6.66061C27.9104 7.08525 28.001 7.54037 28.001 8V28C28.001 28.4596 27.9104 28.9148 27.7346 29.3394C27.5587 29.764 27.3009 30.1499 26.9758 30.4749C26.6508 30.7999 26.265 31.0577 25.8404 31.2336C25.4157 31.4095 24.9606 31.5 24.501 31.5M6.50098 5.5C5.83793 5.5 5.20205 5.76339 4.73321 6.23223C4.26437 6.70107 4.00098 7.33696 4.00098 8V28C4.00098 28.663 4.26437 29.2989 4.73321 29.7678C5.20205 30.2366 5.83793 30.5 6.50098 30.5H24.501C25.164 30.5 25.7999 30.2366 26.2687 29.7678C26.7376 29.2989 27.001 28.663 27.001 28V8C27.001 7.33696 26.7376 6.70107 26.2687 6.23223C25.7999 5.76339 25.164 5.5 24.501 5.5H6.50098Z" fill="#111111"/>
<path d="M31.75 23.9873H24.25C23.7859 23.9873 23.3408 23.8029 23.0126 23.4747C22.6844 23.1466 22.5 22.7014 22.5 22.2373C22.5 21.7732 22.6844 21.3281 23.0126 20.9999C23.3408 20.6717 23.7859 20.4873 24.25 20.4873H31.75C32.2141 20.4873 32.6592 20.6717 32.9874 20.9999C33.3156 21.3281 33.5 21.7732 33.5 22.2373C33.5 22.7014 33.3156 23.1466 32.9874 23.4747C32.6592 23.8029 32.2141 23.9873 31.75 23.9873Z" fill="#FEE456"/>
<path d="M31.75 24.4883H24.25C23.6533 24.4883 23.081 24.2512 22.659 23.8293C22.2371 23.4073 22 22.835 22 22.2383C22 21.6415 22.2371 21.0692 22.659 20.6473C23.081 20.2253 23.6533 19.9883 24.25 19.9883H31.75C32.3467 19.9883 32.919 20.2253 33.341 20.6473C33.7629 21.0692 34 21.6415 34 22.2383C34 22.835 33.7629 23.4073 33.341 23.8293C32.919 24.2512 32.3467 24.4883 31.75 24.4883ZM24.25 20.9883C23.9185 20.9883 23.6005 21.12 23.3661 21.3544C23.1317 21.5888 23 21.9068 23 22.2383C23 22.5698 23.1317 22.8877 23.3661 23.1222C23.6005 23.3566 23.9185 23.4883 24.25 23.4883H31.75C32.0815 23.4883 32.3995 23.3566 32.6339 23.1222C32.8683 22.8877 33 22.5698 33 22.2383C33 21.9068 32.8683 21.5888 32.6339 21.3544C32.3995 21.12 32.0815 20.9883 31.75 20.9883H24.25Z" fill="#111111"/>
<path d="M31.75 27.5H24.25C23.7859 27.5 23.3408 27.3156 23.0126 26.9874C22.6844 26.6592 22.5 26.2141 22.5 25.75C22.5 25.2859 22.6844 24.8408 23.0126 24.5126C23.3408 24.1844 23.7859 24 24.25 24H31.75C32.2141 24 32.6592 24.1844 32.9874 24.5126C33.3156 24.8408 33.5 25.2859 33.5 25.75C33.5 26.2141 33.3156 26.6592 32.9874 26.9874C32.6592 27.3156 32.2141 27.5 31.75 27.5Z" fill="#FEE456"/>
<path d="M31.75 28H24.25C23.6533 28 23.081 27.7629 22.659 27.341C22.2371 26.919 22 26.3467 22 25.75C22 25.1533 22.2371 24.581 22.659 24.159C23.081 23.7371 23.6533 23.5 24.25 23.5H31.75C32.3467 23.5 32.919 23.7371 33.341 24.159C33.7629 24.581 34 25.1533 34 25.75C34 26.3467 33.7629 26.919 33.341 27.341C32.919 27.7629 32.3467 28 31.75 28ZM24.25 24.5C23.9185 24.5 23.6005 24.6317 23.3661 24.8661C23.1317 25.1005 23 25.4185 23 25.75C23 26.0815 23.1317 26.3995 23.3661 26.6339C23.6005 26.8683 23.9185 27 24.25 27H31.75C32.0815 27 32.3995 26.8683 32.6339 26.6339C32.8683 26.3995 33 26.0815 33 25.75C33 25.4185 32.8683 25.1005 32.6339 24.8661C32.3995 24.6317 32.0815 24.5 31.75 24.5H24.25Z" fill="#111111"/>
<path d="M31.75 31H24.25C23.7859 31 23.3408 30.8156 23.0126 30.4874C22.6844 30.1592 22.5 29.7141 22.5 29.25C22.5 28.7859 22.6844 28.3408 23.0126 28.0126C23.3408 27.6844 23.7859 27.5 24.25 27.5H31.75C32.2141 27.5 32.6592 27.6844 32.9874 28.0126C33.3156 28.3408 33.5 28.7859 33.5 29.25C33.5 29.7141 33.3156 30.1592 32.9874 30.4874C32.6592 30.8156 32.2141 31 31.75 31Z" fill="#FEE456"/>
<path d="M31.75 31.5H24.25C23.6533 31.5 23.081 31.2629 22.659 30.841C22.2371 30.419 22 29.8467 22 29.25C22 28.6533 22.2371 28.081 22.659 27.659C23.081 27.2371 23.6533 27 24.25 27H31.75C32.3467 27 32.919 27.2371 33.341 27.659C33.7629 28.081 34 28.6533 34 29.25C34 29.8467 33.7629 30.419 33.341 30.841C32.919 31.2629 32.3467 31.5 31.75 31.5ZM24.25 28C23.9185 28 23.6005 28.1317 23.3661 28.3661C23.1317 28.6005 23 28.9185 23 29.25C23 29.5815 23.1317 29.8995 23.3661 30.1339C23.6005 30.3683 23.9185 30.5 24.25 30.5H31.75C32.0815 30.5 32.3995 30.3683 32.6339 30.1339C32.8683 29.8995 33 29.5815 33 29.25C33 28.9185 32.8683 28.6005 32.6339 28.3661C32.3995 28.1317 32.0815 28 31.75 28H24.25Z" fill="#111111"/>
<path d="M13.3538 14.9299C13.3712 15.3369 13.2392 15.7363 12.9828 16.0529C12.8717 16.1911 12.7306 16.3023 12.5702 16.3778C12.4097 16.4534 12.2341 16.4913 12.0568 16.4889C11.8734 16.4909 11.6917 16.4537 11.5238 16.3799C11.3242 16.2811 11.1405 16.153 10.9788 15.9999C10.8476 15.8735 10.7027 15.7621 10.5468 15.6679C10.46 15.6252 10.3645 15.6033 10.2678 15.6039C10.188 15.6007 10.1086 15.6173 10.0367 15.6522C9.96484 15.6871 9.90269 15.7392 9.85581 15.8039C9.74958 15.96 9.69694 16.1463 9.70581 16.3349H8.95181C8.93427 15.9375 9.06028 15.5471 9.30681 15.2349C9.41891 15.0963 9.56156 14.9856 9.7236 14.9113C9.88563 14.8371 10.0627 14.8013 10.2408 14.8069C10.4299 14.806 10.617 14.8452 10.7898 14.9219C10.9894 15.0166 11.1727 15.1425 11.3328 15.2949C11.4581 15.4182 11.597 15.5269 11.7468 15.6189C11.8332 15.6683 11.9303 15.6961 12.0298 15.6999C12.1133 15.7011 12.1959 15.6818 12.2702 15.6436C12.3445 15.6054 12.4082 15.5495 12.4558 15.4809C12.5702 15.3206 12.6279 15.1267 12.6198 14.9299H13.3538ZM14.2908 15.1799L14.5998 12.3129H17.6538V13.1329H15.3888L15.2318 14.4919C15.5034 14.3384 15.8109 14.2601 16.1228 14.2649C16.359 14.2517 16.5951 14.2916 16.8138 14.3815C17.0325 14.4715 17.2283 14.6093 17.3868 14.7849C17.7044 15.1801 17.865 15.6786 17.8378 16.1849C17.8503 16.4367 17.8125 16.6886 17.7266 16.9257C17.6408 17.1627 17.5086 17.3804 17.3378 17.5659C17.157 17.7412 16.9418 17.8772 16.7059 17.9653C16.4699 18.0534 16.2183 18.0918 15.9668 18.0779C15.4953 18.0952 15.034 17.9374 14.6718 17.6349C14.5025 17.4895 14.3655 17.3103 14.2696 17.1088C14.1736 16.9073 14.1209 16.688 14.1148 16.4649H15.0328C15.0519 16.7055 15.1574 16.931 15.3298 17.0999C15.5046 17.252 15.7314 17.3308 15.9628 17.3199C16.0932 17.3262 16.2231 17.3012 16.3418 17.2469C16.4604 17.1926 16.5644 17.1106 16.6448 17.0079C16.8198 16.7595 16.9057 16.4593 16.8888 16.1559C16.9049 15.8577 16.8086 15.5644 16.6188 15.3339C16.5247 15.2325 16.4094 15.1531 16.2812 15.1013C16.153 15.0494 16.0149 15.0264 15.8768 15.0339C15.728 15.0293 15.5796 15.0517 15.4388 15.0999C15.2924 15.1632 15.1597 15.2542 15.0478 15.3679L14.2908 15.1799ZM22.0908 15.6059C22.1359 16.2555 21.9753 16.9027 21.6318 17.4559C21.4679 17.6671 21.2543 17.8346 21.0101 17.9433C20.7658 18.052 20.4984 18.0985 20.2318 18.0789C19.9691 18.096 19.7062 18.0497 19.4651 17.9439C19.2241 17.838 19.012 17.6758 18.8468 17.4709C18.4983 16.9378 18.3303 16.3067 18.3678 15.6709V14.6869C18.3218 14.0404 18.4825 13.396 18.8268 12.8469C18.9926 12.6385 19.2068 12.4737 19.4508 12.3669C19.6948 12.26 19.9612 12.2144 20.2268 12.2339C20.4901 12.2148 20.7541 12.2593 20.9966 12.3638C21.239 12.4682 21.4528 12.6294 21.6198 12.8339C21.9638 13.3646 22.1288 13.9916 22.0908 14.6229V15.6059ZM21.1418 14.5429C21.1686 14.1394 21.0933 13.7356 20.9228 13.3689C20.8528 13.2488 20.7506 13.1506 20.6278 13.0855C20.5051 13.0203 20.3665 12.9906 20.2278 12.9999C20.0924 12.9911 19.9571 13.0194 19.8366 13.0818C19.7161 13.1442 19.6148 13.2382 19.5438 13.3539C19.3742 13.6948 19.295 14.0736 19.3138 14.4539V15.7429C19.2884 16.1508 19.3647 16.5587 19.5358 16.9299C19.6033 17.0548 19.705 17.1579 19.829 17.2271C19.9529 17.2963 20.094 17.3289 20.2358 17.3209C20.3708 17.3287 20.5053 17.2992 20.6246 17.2355C20.7438 17.1718 20.8432 17.0764 20.9118 16.9599C21.0824 16.6082 21.1615 16.2192 21.1418 15.8289V14.5429ZM13.2768 23.0679V20.6259H10.7998V23.0679H13.2768ZM12.7488 22.6479H11.3208V21.0479H12.7488V22.6479ZM15.4488 22.1859V21.7479H14.6628V20.1759H14.1288V23.9859H14.6628V22.1859H15.4488ZM14.8428 25.2519V24.8199H11.8728V23.6139H11.3448V25.2519H14.8428ZM18.7128 21.3999C18.7128 20.8059 18.1308 20.4219 17.3208 20.4219C16.5108 20.4219 15.9288 20.8059 15.9288 21.3939C15.9288 21.9999 16.5168 22.3659 17.3208 22.3659C18.1248 22.3659 18.7128 21.9939 18.7128 21.3999ZM19.9908 24.2079V20.1759H19.4688V23.2539H18.4368V23.6539H19.4688V24.2119L19.9908 24.2079ZM20.0908 25.2879V24.8559H16.8168V23.7559H16.2888V25.2859L20.0908 25.2879ZM17.6328 23.9799V23.0199C18.1548 22.9899 18.7008 22.9479 19.0488 22.8939L19.0128 22.4939C18.5208 22.5479 18.0048 22.5839 17.3328 22.6139C16.7568 22.6379 16.1928 22.6439 15.5868 22.6439L15.6708 23.0819C16.1328 23.0699 16.5888 23.0639 17.0988 23.0459V23.9759L17.6328 23.9799ZM18.1428 21.3999C18.1428 21.7119 17.8188 21.9399 17.3208 21.9399C16.8228 21.9399 16.4998 21.7119 16.4998 21.3999C16.4998 21.0879 16.8238 20.8479 17.3218 20.8479C17.8198 20.8479 18.1428 21.0879 18.1428 21.3999Z" fill="#111111"/>
</svg>
