<svg width="36" height="36" viewBox="0 0 36 36" fill="none" xmlns="http://www.w3.org/2000/svg">
<path d="M12.6728 21.8615L7.00583 16.1975C6.7132 15.9046 6.54883 15.5075 6.54883 15.0935C6.54883 14.6795 6.7132 14.2824 7.00583 13.9895L18.0408 2.95847C18.3338 2.66554 18.7311 2.50098 19.1453 2.50098C19.5596 2.50098 19.9569 2.66554 20.2498 2.95847L25.9128 8.62147C26.0578 8.76643 26.1729 8.93854 26.2514 9.12797C26.3298 9.3174 26.3702 9.52043 26.3702 9.72547C26.3702 9.93052 26.3298 10.1336 26.2514 10.323C26.1729 10.5124 26.0578 10.6845 25.9128 10.8295L14.8818 21.8615C14.5889 22.1544 14.1916 22.319 13.7773 22.319C13.3631 22.319 12.9658 22.1544 12.6728 21.8615Z" fill="white"/>
<path d="M13.7779 22.8392C13.5042 22.84 13.2331 22.7865 12.9803 22.6818C12.7274 22.5771 12.4979 22.4232 12.3049 22.2292L6.6429 16.5662C6.25251 16.1756 6.0332 15.6459 6.0332 15.0937C6.0332 14.5414 6.25251 14.0118 6.6429 13.6212L17.6739 2.59019C18.0705 2.21138 18.5979 2 19.1464 2C19.6949 2 20.2223 2.21138 20.6189 2.59019L26.2859 8.25319C26.6767 8.64401 26.8962 9.17404 26.8962 9.72669C26.8962 10.2794 26.6767 10.8094 26.2859 11.2002L15.2499 22.2292C15.0571 22.4232 14.8277 22.577 14.575 22.6817C14.3224 22.7864 14.0514 22.84 13.7779 22.8392ZM19.1459 3.02219C19.0091 3.02184 18.8737 3.04861 18.7473 3.10096C18.621 3.15332 18.5063 3.23021 18.4099 3.32719L7.3789 14.3572C7.18398 14.5525 7.07451 14.8172 7.07451 15.0932C7.07451 15.3692 7.18398 15.6338 7.3789 15.8292L13.0419 21.4922C13.2401 21.6817 13.5037 21.7874 13.7779 21.7874C14.0521 21.7874 14.3157 21.6817 14.5139 21.4922L25.5449 10.4622C25.7401 10.2668 25.8498 10.0019 25.8498 9.72569C25.8498 9.44949 25.7401 9.18458 25.5449 8.98919L19.8859 3.32719C19.7895 3.23021 19.6748 3.15332 19.5485 3.10096C19.4221 3.04861 19.2866 3.02184 19.1499 3.02219" fill="#111111"/>
<path d="M22.856 8.06182C22.912 8.00582 22.971 7.95482 23.03 7.90482L20.962 5.84082C20.912 5.89982 20.862 5.95882 20.805 6.01482C20.3604 6.45939 19.7697 6.72775 19.1423 6.77023C18.515 6.8127 17.8935 6.6264 17.393 6.24582C17.3199 6.18973 17.2288 6.16216 17.1368 6.16823C17.0448 6.1743 16.9582 6.21361 16.893 6.27882L10.333 12.8388C10.2682 12.9042 10.2291 12.9908 10.2231 13.0827C10.217 13.1745 10.2443 13.2655 10.3 13.3388C10.6806 13.8393 10.8669 14.4608 10.8244 15.0881C10.782 15.7155 10.5136 16.3062 10.069 16.7508C10.013 16.8068 9.95402 16.8588 9.89502 16.9078L11.963 18.9758C12.012 18.9168 12.063 18.8578 12.12 18.8018C12.5647 18.3579 13.155 18.0901 13.7819 18.0478C14.4088 18.0055 15.0298 18.1917 15.53 18.5718C15.6034 18.6276 15.6945 18.6549 15.7864 18.6486C15.8783 18.6423 15.9649 18.603 16.03 18.5378L22.59 11.9778C22.6552 11.9127 22.6945 11.826 22.7006 11.734C22.7067 11.642 22.6791 11.551 22.623 11.4778C22.2416 10.9768 22.055 10.3543 22.0978 9.72605C22.1407 9.0978 22.4101 8.50644 22.856 8.06182Z" fill="#B9B5EF"/>
<path d="M17.7669 13.714C17.5087 13.9721 17.1797 14.1479 16.8217 14.2191C16.4636 14.2903 16.0925 14.2537 15.7552 14.1139C15.4179 13.9742 15.1296 13.7376 14.9268 13.434C14.724 13.1305 14.6157 12.7736 14.6157 12.4085C14.6157 12.0434 14.724 11.6865 14.9268 11.383C15.1296 11.0794 15.4179 10.8428 15.7552 10.7031C16.0925 10.5633 16.4636 10.5267 16.8217 10.5979C17.1797 10.6691 17.5087 10.8449 17.7669 11.103C17.9383 11.2744 18.0744 11.4779 18.1672 11.7019C18.26 11.9259 18.3077 12.166 18.3077 12.4085C18.3077 12.651 18.26 12.8911 18.1672 13.1151C18.0744 13.3391 17.9383 13.5426 17.7669 13.714Z" fill="white"/>
<path d="M26.079 31.7471H5.644C4.81573 31.7471 4.02138 31.4181 3.4357 30.8324C2.85003 30.2467 2.521 29.4524 2.521 28.6241V16.5731C2.52206 15.7455 2.85155 14.9522 3.43711 14.3674C4.02268 13.7826 4.81642 13.4541 5.644 13.4541H26.079C26.9073 13.4541 27.7016 13.7831 28.2873 14.3688C28.873 14.9545 29.202 15.7488 29.202 16.5771V28.6241C29.202 29.4524 28.873 30.2467 28.2873 30.8324C27.7016 31.4181 26.9073 31.7471 26.079 31.7471Z" fill="white"/>
<path d="M26.079 32.2676H5.644C4.67788 32.2665 3.75163 31.8823 3.06847 31.1991C2.38532 30.516 2.00106 29.5897 2 28.6236L2 16.5736C2.00212 15.6082 2.38684 14.6829 3.06988 14.0007C3.75292 13.3184 4.67857 12.9347 5.644 12.9336H26.079C27.0451 12.9347 27.9714 13.3189 28.6545 14.0021C29.3377 14.6852 29.7219 15.6115 29.723 16.5776V28.6236C29.7219 29.5897 29.3377 30.516 28.6545 31.1991C27.9714 31.8823 27.0451 32.2665 26.079 32.2676ZM5.644 13.9706C4.95492 13.9722 4.29452 14.2466 3.80727 14.7339C3.32002 15.2211 3.04558 15.8815 3.044 16.5706V28.6236C3.04558 29.3127 3.32002 29.9731 3.80727 30.4603C4.29452 30.9476 4.95492 31.222 5.644 31.2236H26.079C26.7681 31.222 27.4285 30.9476 27.9157 30.4603C28.403 29.9731 28.6774 29.3127 28.679 28.6236V16.5736C28.6774 15.8845 28.403 15.2241 27.9157 14.7369C27.4285 14.2496 26.7681 13.9752 26.079 13.9736L5.644 13.9706Z" fill="#111111"/>
<path d="M17.8261 25.7219C17.7315 25.722 17.6386 25.6962 17.5576 25.6474C17.4765 25.5986 17.4103 25.5286 17.3661 25.4449L15.7261 22.3389L14.3441 25.4149C14.3012 25.5096 14.2309 25.5894 14.1423 25.6438C14.0536 25.6982 13.9508 25.7249 13.8469 25.7204C13.743 25.7159 13.6428 25.6804 13.5593 25.6185C13.4757 25.5565 13.4126 25.471 13.3781 25.3729L11.5561 20.1679C11.5309 20.1028 11.519 20.0332 11.5213 19.9634C11.5235 19.8936 11.5397 19.825 11.569 19.7616C11.5983 19.6982 11.64 19.6413 11.6917 19.5943C11.7434 19.5474 11.804 19.5113 11.8699 19.4882C11.9358 19.4652 12.0057 19.4556 12.0754 19.4601C12.1451 19.4645 12.2132 19.483 12.2756 19.5143C12.338 19.5456 12.3935 19.5892 12.4388 19.6423C12.484 19.6955 12.5181 19.7573 12.5391 19.8239L13.9261 23.7979L15.2111 20.9389C15.2511 20.8501 15.3153 20.7744 15.3962 20.7203C15.4772 20.6662 15.5717 20.6359 15.6691 20.6329C15.7672 20.626 15.8651 20.6487 15.9501 20.6981C16.0352 20.7475 16.1034 20.8213 16.1461 20.9099L17.7171 23.8829L19.0731 19.8309C19.1168 19.7 19.2108 19.5919 19.3343 19.5303C19.4578 19.4687 19.6007 19.4587 19.7316 19.5024C19.8625 19.5462 19.9706 19.6401 20.0322 19.7636C20.0938 19.8871 20.1038 20.03 20.0601 20.1609L18.3261 25.3669C18.2939 25.4636 18.234 25.5487 18.1538 25.6117C18.0736 25.6746 17.9767 25.7126 17.8751 25.7209H17.8321" fill="#111111"/>
<path d="M12.6551 22.8296H11.1771C11.1068 22.8327 11.0367 22.8215 10.9708 22.7967C10.905 22.772 10.8449 22.7341 10.7941 22.6855C10.7432 22.6368 10.7028 22.5784 10.6752 22.5137C10.6475 22.449 10.6333 22.3794 10.6333 22.3091C10.6333 22.2387 10.6475 22.1691 10.6752 22.1044C10.7028 22.0398 10.7432 21.9813 10.7941 21.9327C10.8449 21.8841 10.905 21.8462 10.9708 21.8215C11.0367 21.7967 11.1068 21.7855 11.1771 21.7886H12.6551C12.7892 21.7945 12.9159 21.8519 13.0087 21.9488C13.1015 22.0458 13.1533 22.1749 13.1533 22.3091C13.1533 22.4433 13.1015 22.5724 13.0087 22.6693C12.9159 22.7663 12.7892 22.8237 12.6551 22.8296Z" fill="#111111"/>
<path d="M20.546 22.8301H19.069C18.9349 22.8242 18.8082 22.7668 18.7154 22.6698C18.6226 22.5728 18.5708 22.4438 18.5708 22.3096C18.5708 22.1753 18.6226 22.0463 18.7154 21.9493C18.8082 21.8523 18.9349 21.7949 19.069 21.7891H20.546C20.6801 21.7949 20.8067 21.8523 20.8995 21.9493C20.9924 22.0463 21.0442 22.1753 21.0442 22.3096C21.0442 22.4438 20.9924 22.5728 20.8995 22.6698C20.8067 22.7668 20.6801 22.8242 20.546 22.8301Z" fill="#111111"/>
<path d="M31.5138 24.6468H24.1608C23.6394 24.6468 23.1393 24.4397 22.7707 24.071C22.402 23.7023 22.1948 23.2023 22.1948 22.6808C22.1948 22.1594 22.402 21.6594 22.7707 21.2907C23.1393 20.922 23.6394 20.7148 24.1608 20.7148H31.5138C32.0352 20.7148 32.5353 20.922 32.904 21.2907C33.2727 21.6594 33.4798 22.1594 33.4798 22.6808C33.4798 23.2023 33.2727 23.7023 32.904 24.071C32.5353 24.4397 32.0352 24.6468 31.5138 24.6468Z" fill="#FEE456"/>
<path d="M31.5128 25.1683H24.1608C23.5099 25.1553 22.8902 24.8876 22.4345 24.4227C21.9789 23.9578 21.7236 23.3328 21.7236 22.6818C21.7236 22.0309 21.9789 21.4058 22.4345 20.941C22.8902 20.4761 23.5099 20.2084 24.1608 20.1953H31.5138C32.1646 20.2084 32.7844 20.4761 33.24 20.941C33.6957 21.4058 33.9509 22.0309 33.9509 22.6818C33.9509 23.3328 33.6957 23.9578 33.24 24.4227C32.7844 24.8876 32.1636 25.1553 31.5128 25.1683ZM24.1618 21.2363C23.9687 21.2312 23.7767 21.2649 23.5968 21.3352C23.417 21.4056 23.2531 21.5113 23.1148 21.646C22.9765 21.7807 22.8665 21.9418 22.7915 22.1197C22.7164 22.2976 22.6777 22.4887 22.6777 22.6818C22.6777 22.8749 22.7164 23.066 22.7915 23.2439C22.8665 23.4218 22.9765 23.5829 23.1148 23.7176C23.2531 23.8524 23.417 23.958 23.5968 24.0284C23.7767 24.0988 23.9687 24.1324 24.1618 24.1273H31.5138C31.8906 24.1174 32.2486 23.9608 32.5116 23.6908C32.7746 23.4208 32.9217 23.0587 32.9217 22.6818C32.9217 22.3049 32.7746 21.9429 32.5116 21.6729C32.2486 21.4029 31.8906 21.2462 31.5138 21.2363H24.1618Z" fill="#111111"/>
<path d="M31.5138 28.5814H24.1608C23.6394 28.5814 23.1393 28.3743 22.7707 28.0056C22.402 27.6369 22.1948 27.1369 22.1948 26.6154C22.1947 26.3572 22.2455 26.1014 22.3442 25.8628C22.4429 25.6241 22.5877 25.4073 22.7703 25.2246C22.9529 25.042 23.1696 24.8971 23.4082 24.7982C23.6468 24.6993 23.9026 24.6484 24.1608 24.6484H31.5138C32.0352 24.6484 32.5353 24.8556 32.904 25.2243C33.2727 25.593 33.4798 26.093 33.4798 26.6144C33.4798 27.1359 33.2727 27.6359 32.904 28.0046C32.5353 28.3733 32.0352 28.5814 31.5138 28.5814Z" fill="#FEE456"/>
<path d="M31.5128 29.102H24.1598C23.5087 29.0889 22.8887 28.8211 22.4328 28.356C21.977 27.8909 21.7217 27.2657 21.7217 26.6145C21.7217 25.9632 21.977 25.338 22.4328 24.8729C22.8887 24.4078 23.5087 24.14 24.1598 24.127H31.5118C32.1629 24.14 32.7829 24.4078 33.2388 24.8729C33.6946 25.338 33.9499 25.9632 33.9499 26.6145C33.9499 27.2657 33.6946 27.8909 33.2388 28.356C32.7829 28.8211 32.1639 29.0889 31.5128 29.102ZM24.1598 25.168C23.7762 25.168 23.4082 25.3204 23.137 25.5916C22.8657 25.8629 22.7133 26.2308 22.7133 26.6145C22.7133 26.9981 22.8657 27.366 23.137 27.6373C23.4082 27.9086 23.7762 28.061 24.1598 28.061H31.5128C31.8964 28.061 32.2644 27.9086 32.5356 27.6373C32.8069 27.366 32.9593 26.9981 32.9593 26.6145C32.9593 26.2308 32.8069 25.8629 32.5356 25.5916C32.2644 25.3204 31.8964 25.168 31.5128 25.168H24.1598Z" fill="#111111"/>
<path d="M31.5138 32.5131H24.1608C23.6394 32.5131 23.1393 32.3059 22.7707 31.9372C22.402 31.5685 22.1948 31.0685 22.1948 30.5471C22.1948 30.0256 22.402 29.5256 22.7707 29.1569C23.1393 28.7882 23.6394 28.5811 24.1608 28.5811H31.5128C32.0342 28.5811 32.5343 28.7882 32.903 29.1569C33.2717 29.5256 33.4788 30.0256 33.4788 30.5471C33.4788 31.0685 33.2717 31.5685 32.903 31.9372C32.5343 32.3059 32.0352 32.5131 31.5138 32.5131Z" fill="#FEE456"/>
<path d="M31.5129 33.0336H24.1599C23.5003 33.0336 22.8677 32.7715 22.4013 32.3051C21.9349 31.8387 21.6729 31.2062 21.6729 30.5466C21.6729 29.887 21.9349 29.2544 22.4013 28.788C22.8677 28.3216 23.5003 28.0596 24.1599 28.0596H31.5129C32.1724 28.0596 32.805 28.3216 33.2714 28.788C33.7378 29.2544 33.9999 29.887 33.9999 30.5466C33.9999 31.2062 33.7378 31.8387 33.2714 32.3051C32.805 32.7715 32.1724 33.0336 31.5129 33.0336ZM24.1599 29.0976C23.7763 29.0976 23.4086 29.2499 23.1374 29.5211C22.8662 29.7923 22.7139 30.1601 22.7139 30.5436C22.7139 30.9271 22.8662 31.2949 23.1374 31.566C23.4086 31.8372 23.7763 31.9896 24.1599 31.9896H31.5129C31.8964 31.9896 32.2642 31.8372 32.5353 31.566C32.8065 31.2949 32.9589 30.9271 32.9589 30.5436C32.9589 30.1601 32.8065 29.7923 32.5353 29.5211C32.2642 29.2499 31.8964 29.0976 31.5129 29.0976H24.1599Z" fill="#111111"/>
</svg>
