<svg width="36" height="36" viewBox="0 0 36 36" fill="none" xmlns="http://www.w3.org/2000/svg">
<path d="M17.9989 21.0154C19.8466 21.0166 21.6296 21.6961 23.0095 22.9249C24.3894 24.1536 25.2703 25.8462 25.4849 27.6814C25.5095 27.9203 25.6214 28.1416 25.7991 28.3031C25.9768 28.4645 26.2078 28.5547 26.4479 28.5564H32.5319C32.6653 28.5564 32.7972 28.5291 32.9197 28.4761C33.0421 28.4231 33.1523 28.3455 33.2436 28.2483C33.3349 28.151 33.4052 28.0361 33.4503 27.9105C33.4955 27.785 33.5144 27.6515 33.5059 27.5184C33.2361 23.5887 31.4848 19.9078 28.6057 17.2195C25.7266 14.5313 21.9344 13.0361 17.9954 13.0361C14.0564 13.0361 10.2642 14.5313 7.3851 17.2195C4.506 19.9078 2.75464 23.5887 2.48488 27.5184C2.47641 27.6515 2.49531 27.785 2.54043 27.9105C2.58554 28.0361 2.65591 28.151 2.74718 28.2483C2.83846 28.3455 2.9487 28.4231 3.07111 28.4761C3.19352 28.5291 3.32549 28.5564 3.45888 28.5564H9.54488C9.78497 28.5547 10.016 28.4645 10.1937 28.3031C10.3714 28.1416 10.4833 27.9203 10.5079 27.6814C10.7226 25.8454 11.6041 24.1521 12.9851 22.9232C14.3661 21.6943 16.1503 21.0154 17.9989 21.0154Z" fill="#E6E6E6"/>
<path d="M32.5379 29.0412H26.4529C26.0945 29.0393 25.7493 28.9058 25.4827 28.6662C25.2162 28.4266 25.0469 28.0974 25.0069 27.7412C24.8066 26.023 23.982 24.4383 22.6899 23.2882C21.3978 22.138 19.7283 21.5026 17.9984 21.5026C16.2686 21.5026 14.599 22.138 13.307 23.2882C12.0149 24.4383 11.1903 26.023 10.9899 27.7412C10.95 28.0974 10.7807 28.4266 10.5142 28.6662C10.2476 28.9058 9.90237 29.0393 9.54394 29.0412H3.46094C3.26073 29.0418 3.06255 29.0012 2.87868 28.922C2.69482 28.8427 2.5292 28.7266 2.39211 28.5807C2.25501 28.4347 2.14937 28.2622 2.08174 28.0738C2.0141 27.8853 1.98592 27.685 1.99894 27.4852C2.26947 23.4269 4.07242 19.623 7.04259 16.8443C10.0128 14.0655 13.9281 12.5195 17.9954 12.5195C22.0628 12.5195 25.9781 14.0655 28.9483 16.8443C31.9185 19.623 33.7214 23.4269 33.9919 27.4852C34.0049 27.6847 33.9769 27.8847 33.9095 28.0728C33.8421 28.261 33.7368 28.4333 33.6001 28.5792C33.4635 28.725 33.2983 28.8413 33.115 28.9208C32.9316 29.0002 32.7338 29.0412 32.5339 29.0412M17.9989 20.5282C19.9679 20.5265 21.8686 21.2492 23.3391 22.5585C24.8096 23.8678 25.7471 25.6723 25.9729 27.6282C25.9844 27.7484 26.0397 27.8601 26.1282 27.9421C26.2167 28.0242 26.3323 28.0708 26.4529 28.0732H32.5369C32.6039 28.0732 32.6701 28.0595 32.7316 28.0329C32.793 28.0063 32.8484 27.9674 32.8942 27.9186C32.94 27.8697 32.9754 27.812 32.998 27.749C33.0207 27.686 33.0302 27.619 33.0259 27.5522C32.7713 23.7401 31.0773 20.1672 28.2871 17.5572C25.4969 14.9472 21.8191 13.4952 17.9984 13.4952C14.1778 13.4952 10.5 14.9472 7.70979 17.5572C4.9196 20.1672 3.22563 23.7401 2.97094 27.5522C2.96671 27.619 2.97621 27.686 2.99887 27.749C3.02153 27.812 3.05686 27.8697 3.10268 27.9186C3.1485 27.9674 3.20385 28.0063 3.26529 28.0329C3.32674 28.0595 3.39298 28.0732 3.45994 28.0732H9.54494C9.6656 28.0708 9.78117 28.0242 9.86968 27.9421C9.95818 27.8601 10.0134 27.7484 10.0249 27.6282C10.2508 25.6723 11.1883 23.8678 12.6588 22.5585C14.1293 21.2492 16.03 20.5265 17.9989 20.5282Z" fill="#111111"/>
<path d="M17.999 13.0088C15.398 13.0062 12.8384 13.6596 10.557 14.9088C10.4361 14.9757 10.3309 15.0674 10.2481 15.178C10.1654 15.2886 10.1072 15.4156 10.0772 15.5504C10.0472 15.6852 10.0462 15.8248 10.0743 15.9601C10.1024 16.0953 10.1588 16.223 10.24 16.3348L13.853 21.3098C13.984 21.4887 14.1723 21.6174 14.3865 21.6747C14.6008 21.732 14.8281 21.7144 15.031 21.6248C16.1098 21.1623 17.2817 20.9581 18.4533 21.0284C19.625 21.0987 20.764 21.4417 21.7797 22.0299C22.7955 22.6181 23.6598 23.4354 24.304 24.4166C24.9481 25.3978 25.3542 26.5159 25.49 27.6818C25.5148 27.9204 25.6268 28.1416 25.8045 28.3028C25.9822 28.4641 26.2131 28.5541 26.453 28.5558H32.537C32.6704 28.5558 32.8023 28.5284 32.9248 28.4754C33.0472 28.4224 33.1574 28.3449 33.2487 28.2476C33.34 28.1504 33.4103 28.0354 33.4554 27.9099C33.5006 27.7844 33.5195 27.6509 33.511 27.5178C33.2477 23.583 31.4989 19.8953 28.6188 17.2015C25.7388 14.5076 21.9426 13.0089 17.999 13.0088Z" fill="#D44B10"/>
<path d="M32.5369 29.0413H26.4529C26.0945 29.0394 25.7493 28.9059 25.4827 28.6663C25.2162 28.4267 25.0469 28.0975 25.0069 27.7413C24.8797 26.6507 24.4995 25.6049 23.8968 24.6871C23.2941 23.7692 22.4855 23.0048 21.5353 22.4546C20.5851 21.9044 19.5195 21.5836 18.4235 21.5177C17.3275 21.4519 16.2312 21.6428 15.2219 22.0753C14.9179 22.2092 14.5772 22.2349 14.2565 22.1483C13.9357 22.0617 13.6543 21.868 13.4589 21.5993L9.84594 16.6243C9.72405 16.4567 9.63924 16.2652 9.59712 16.0623C9.55501 15.8594 9.55656 15.6499 9.60168 15.4476C9.6468 15.2454 9.73446 15.0551 9.85881 14.8893C9.98317 14.7236 10.1414 14.5862 10.3229 14.4863C12.6845 13.1975 15.3324 12.5238 18.0228 12.5274C20.7131 12.5309 23.3593 13.2115 25.7174 14.5066C28.0756 15.8016 30.0698 17.6693 31.5164 19.9377C32.963 22.206 33.8153 24.802 33.9949 27.4863C34.0079 27.6858 33.9799 27.8858 33.9125 28.0739C33.8451 28.2621 33.7398 28.4344 33.6031 28.5803C33.4665 28.7261 33.3013 28.8424 33.1179 28.9219C32.9346 29.0013 32.7368 29.0413 32.5369 29.0413ZM17.9989 20.5283C19.9679 20.5266 21.8686 21.2493 23.3391 22.5586C24.8096 23.8679 25.7471 25.6724 25.9729 27.6283C25.9844 27.7485 26.0397 27.8602 26.1282 27.9422C26.2167 28.0243 26.3323 28.0709 26.4529 28.0733H32.5369C32.6039 28.0733 32.6701 28.0596 32.7316 28.033C32.793 28.0064 32.8484 27.9675 32.8942 27.9187C32.94 27.8698 32.9754 27.8121 32.998 27.7491C33.0207 27.6861 33.0302 27.6191 33.0259 27.5523C32.8581 25.0301 32.058 22.5908 30.6994 20.4591C29.3408 18.3275 27.4675 16.5721 25.252 15.3549C23.0366 14.1377 20.5504 13.4978 18.0226 13.4942C15.4948 13.4906 13.0068 14.1234 10.7879 15.3343C10.7275 15.367 10.6749 15.4123 10.6336 15.4672C10.5924 15.522 10.5635 15.5852 10.5489 15.6523C10.5328 15.721 10.5317 15.7923 10.5459 15.8613C10.5601 15.9304 10.5891 15.9956 10.6309 16.0523L14.2439 21.0283C14.3103 21.1176 14.4051 21.1816 14.5128 21.2096C14.6205 21.2376 14.7345 21.228 14.8359 21.1823C15.8341 20.7519 16.9099 20.5307 17.9969 20.5323" fill="#111111"/>
<path d="M17.6529 8.77361L15.0049 23.4246C14.9084 23.9596 15.0274 24.511 15.3359 24.9586L17.7099 28.4026C17.7423 28.4494 17.7855 28.4877 17.8359 28.5141C17.8864 28.5406 17.9424 28.5544 17.9994 28.5544C18.0563 28.5544 18.1124 28.5406 18.1628 28.5141C18.2132 28.4877 18.2565 28.4494 18.2889 28.4026L20.6629 24.9586C20.9714 24.511 21.0904 23.9596 20.9939 23.4246L18.3449 8.77361C18.3298 8.69288 18.2869 8.61998 18.2237 8.56751C18.1605 8.51505 18.081 8.48633 17.9989 8.48633C17.9167 8.48633 17.8372 8.51505 17.774 8.56751C17.7108 8.61998 17.668 8.69288 17.6529 8.77361Z" fill="white"/>
<path d="M17.999 29.0411C17.8633 29.041 17.7297 29.008 17.6096 28.9447C17.4896 28.8815 17.3867 28.79 17.31 28.6781L14.936 25.2351C14.7457 24.9611 14.6116 24.6521 14.5414 24.326C14.4712 23.9999 14.4663 23.6631 14.527 23.3351L17.176 8.6881C17.2105 8.49465 17.3119 8.31951 17.4626 8.19335C17.6132 8.06718 17.8035 7.99805 18 7.99805C18.1965 7.99805 18.3867 8.06718 18.5374 8.19335C18.688 8.31951 18.7895 8.49465 18.824 8.6881L21.472 23.3381C21.5325 23.6661 21.5276 24.0029 21.4574 24.329C21.3872 24.6551 21.2531 24.964 21.063 25.2381L18.684 28.6781C18.607 28.7897 18.5041 28.881 18.3841 28.9441C18.2641 29.0071 18.1306 29.0401 17.995 29.0401M17.995 9.5911L15.484 23.5111C15.447 23.7135 15.4504 23.9212 15.4938 24.1223C15.5372 24.3234 15.6198 24.514 15.737 24.6831L18 27.9671L20.263 24.6831C20.3801 24.514 20.4628 24.3234 20.5062 24.1223C20.5496 23.9212 20.5529 23.7135 20.516 23.5111L17.995 9.5911Z" fill="#111111"/>
</svg>
