<svg width="36" height="36" viewBox="0 0 36 36" fill="none" xmlns="http://www.w3.org/2000/svg">
<path d="M18.166 3.66895C15.3642 3.66895 12.6254 4.49977 10.2958 6.05635C7.96621 7.61293 6.15052 9.82535 5.07833 12.4139C4.00614 15.0023 3.7256 17.8507 4.2722 20.5986C4.8188 23.3465 6.16798 25.8707 8.14913 27.8518C10.1303 29.833 12.6544 31.1822 15.4024 31.7288C18.1503 32.2753 20.9986 31.9948 23.5871 30.9226C26.1756 29.8504 28.388 28.0347 29.9446 25.7052C31.5012 23.3756 32.332 20.6367 32.332 17.8349C32.332 14.0779 30.8395 10.4747 28.1829 7.81807C25.5262 5.16143 21.9231 3.66895 18.166 3.66895ZM18.166 24.9179C16.7651 24.9179 15.3957 24.5025 14.2309 23.7242C13.0661 22.946 12.1583 21.8397 11.6222 20.5455C11.0861 19.2512 10.9458 17.8271 11.2191 16.4531C11.4924 15.0792 12.167 13.8171 13.1576 12.8265C14.1481 11.8359 15.4102 11.1613 16.7842 10.888C18.1581 10.6147 19.5823 10.755 20.8766 11.2911C22.1708 11.8272 23.277 12.735 24.0553 13.8998C24.8336 15.0646 25.249 16.4341 25.249 17.8349C25.2491 18.7651 25.066 19.6862 24.7101 20.5456C24.3542 21.4051 23.8325 22.1859 23.1747 22.8437C22.517 23.5014 21.7361 24.0231 20.8767 24.3791C20.0173 24.735 19.0962 24.9181 18.166 24.9179Z" fill="white"/>
<path d="M18.166 4.61295C20.7808 4.61314 23.3368 5.38868 25.5108 6.8415C27.6849 8.29432 29.3793 10.3592 30.3798 12.775C31.3804 15.1907 31.6421 17.8489 31.1319 20.4135C30.6218 22.978 29.3626 25.3337 27.5137 27.1826C25.6647 29.0315 23.3091 30.2907 20.7445 30.8009C18.18 31.311 15.5218 31.0493 13.106 30.0487C10.6902 29.0482 8.62538 27.3538 7.17256 25.1798C5.71975 23.0057 4.9442 20.4497 4.94401 17.8349C4.94798 14.3295 6.34228 10.9687 8.82103 8.48996C11.2998 6.01122 14.6605 4.61692 18.166 4.61295ZM18.166 25.8619C19.7536 25.8619 21.3055 25.3912 22.6256 24.5092C23.9456 23.6271 24.9744 22.3735 25.582 20.9067C26.1895 19.44 26.3485 17.826 26.0388 16.269C25.729 14.7119 24.9645 13.2816 23.842 12.159C22.7194 11.0364 21.2891 10.2719 19.732 9.96218C18.1749 9.65246 16.5609 9.81142 15.0942 10.419C13.6275 11.0265 12.3738 12.0554 11.4918 13.3754C10.6098 14.6954 10.139 16.2474 10.139 17.8349C10.1414 19.9631 10.9879 22.0034 12.4927 23.5083C13.9975 25.0131 16.0378 25.8596 18.166 25.8619ZM18.166 3.66895C15.3642 3.66895 12.6254 4.49977 10.2958 6.05635C7.96621 7.61293 6.15052 9.82535 5.07833 12.4139C4.00614 15.0023 3.7256 17.8507 4.2722 20.5986C4.8188 23.3465 6.16798 25.8707 8.14913 27.8518C10.1303 29.833 12.6544 31.1822 15.4024 31.7288C18.1503 32.2753 20.9986 31.9948 23.5871 30.9226C26.1756 29.8504 28.388 28.0347 29.9446 25.7052C31.5012 23.3756 32.332 20.6367 32.332 17.8349C32.332 14.0779 30.8395 10.4747 28.1829 7.81807C25.5262 5.16143 21.9231 3.66895 18.166 3.66895ZM18.166 24.9179C16.7651 24.9179 15.3957 24.5025 14.2309 23.7242C13.0661 22.946 12.1583 21.8397 11.6222 20.5455C11.0861 19.2512 10.9458 17.8271 11.2191 16.4531C11.4924 15.0792 12.167 13.8171 13.1576 12.8265C14.1481 11.8359 15.4102 11.1613 16.7842 10.888C18.1581 10.6147 19.5823 10.755 20.8766 11.2911C22.1708 11.8272 23.277 12.735 24.0553 13.8998C24.8336 15.0646 25.249 16.4341 25.249 17.8349C25.2491 18.7651 25.066 19.6862 24.7101 20.5456C24.3542 21.4051 23.8325 22.1859 23.1747 22.8437C22.517 23.5014 21.7361 24.0231 20.8767 24.3791C20.0173 24.735 19.0962 24.9181 18.166 24.9179Z" fill="#111111"/>
<path d="M18.1661 3.66797V10.753C19.4042 10.7526 20.6207 11.0768 21.6945 11.6931C22.7682 12.3095 23.6616 13.1966 24.2857 14.2659C24.9097 15.3352 25.2425 16.5494 25.251 17.7874C25.2595 19.0255 24.9433 20.2441 24.334 21.3219C23.7247 22.3996 22.8435 23.2989 21.7783 23.9299C20.7131 24.5609 19.5012 24.9017 18.2632 24.9183C17.0252 24.9349 15.8045 24.6268 14.7228 24.0245C13.6411 23.4223 12.7361 22.547 12.0981 21.486L6.05908 25.193C7.34374 27.3061 9.15918 29.046 11.3249 30.2399C13.4906 31.4337 15.9311 32.0398 18.4037 31.9979C20.8762 31.956 23.2948 31.2676 25.4188 30.0011C27.5428 28.7345 29.2983 26.9341 30.5106 24.7787C31.7229 22.6233 32.3499 20.188 32.3292 17.7152C32.3084 15.2423 31.6407 12.818 30.3924 10.6832C29.1441 8.54843 27.3587 6.77764 25.2137 5.54691C23.0688 4.31618 20.639 3.66839 18.1661 3.66797Z" fill="#B9B5EF"/>
<path d="M19.1101 4.64797C21.3329 4.80726 23.4793 5.52578 25.35 6.73677C27.2208 7.94776 28.7551 9.61193 29.8104 11.5747C30.8657 13.5374 31.4078 15.7351 31.3864 17.9635C31.3649 20.1918 30.7806 22.3786 29.6877 24.3207C28.5947 26.2628 27.0287 27.8971 25.135 29.0718C23.2413 30.2466 21.0814 30.9236 18.856 31.0401C16.6305 31.1565 14.4118 30.7086 12.4058 29.738C10.3998 28.7673 8.67174 27.3054 7.38208 25.488L11.8251 22.759C12.6357 23.8047 13.6922 24.634 14.9007 25.1728C16.1091 25.7117 17.432 25.9435 18.7517 25.8477C20.0714 25.7518 21.3469 25.3313 22.4648 24.6234C23.5827 23.9156 24.5083 22.9424 25.1593 21.7905C25.8103 20.6386 26.1665 19.3436 26.1961 18.0208C26.2258 16.6979 25.9281 15.3883 25.3294 14.2083C24.7307 13.0284 23.8496 12.0147 22.7646 11.2574C21.6795 10.5002 20.4241 10.0229 19.1101 9.86797V4.64797ZM18.1661 3.66797V10.753C19.4042 10.7526 20.6207 11.0768 21.6945 11.6931C22.7682 12.3095 23.6616 13.1966 24.2857 14.2659C24.9097 15.3352 25.2425 16.5494 25.251 17.7874C25.2595 19.0255 24.9433 20.2441 24.334 21.3219C23.7247 22.3996 22.8435 23.2989 21.7783 23.9299C20.7131 24.5609 19.5012 24.9017 18.2632 24.9183C17.0252 24.9349 15.8045 24.6268 14.7228 24.0245C13.6411 23.4223 12.7361 22.547 12.0981 21.486L6.05908 25.193C7.34374 27.3061 9.15918 29.046 11.3249 30.2399C13.4906 31.4337 15.9311 32.0398 18.4037 31.9979C20.8762 31.956 23.2948 31.2676 25.4188 30.0011C27.5428 28.7345 29.2983 26.9341 30.5106 24.7787C31.7229 22.6233 32.3499 20.188 32.3292 17.7152C32.3084 15.2423 31.6407 12.818 30.3924 10.6832C29.1441 8.54843 27.3587 6.77764 25.2137 5.54691C23.0688 4.31618 20.639 3.66839 18.1661 3.66797Z" fill="#111111"/>
</svg>
