<svg width="36" height="36" viewBox="0 0 36 36" fill="none" xmlns="http://www.w3.org/2000/svg">
<path d="M34 18C34 21.1645 33.0616 24.2579 31.3035 26.8891C29.5454 29.5203 27.0466 31.5711 24.1229 32.7821C21.1993 33.9931 17.9823 34.3099 14.8786 33.6926C11.7749 33.0752 8.92394 31.5513 6.6863 29.3137C4.44866 27.0761 2.92481 24.2251 2.30744 21.1214C1.69008 18.0177 2.00693 14.8007 3.21793 11.8771C4.42894 8.95345 6.4797 6.45459 9.11088 4.69649C11.7421 2.93838 14.8355 2 18 2C22.2435 2 26.3131 3.68571 29.3137 6.68629C32.3143 9.68687 34 13.7565 34 18Z" fill="#B9B5EF"/>
<path d="M10.8281 16.6277C10.8341 16.9851 10.7266 17.3352 10.5211 17.6277C10.3099 17.9229 10.0208 18.1535 9.68606 18.2937C10.069 18.4342 10.405 18.6791 10.6561 19.0007C10.896 19.3113 11.0233 19.6942 11.0171 20.0867C11.0341 20.3863 10.9806 20.6858 10.861 20.9611C10.7413 21.2363 10.5588 21.4797 10.3281 21.6717C9.81404 22.0572 9.18193 22.252 8.54006 22.2227C7.89438 22.2527 7.25826 22.058 6.74006 21.6717C6.5089 21.4789 6.32629 21.2344 6.20695 20.958C6.08762 20.6817 6.0349 20.3811 6.05306 20.0807C6.04708 19.6891 6.17241 19.3067 6.40906 18.9947C6.66074 18.6701 6.99909 18.4232 7.38506 18.2827C7.04923 18.1492 6.75898 17.9218 6.54906 17.6277C6.34664 17.3341 6.24169 16.9842 6.24906 16.6277C6.23221 16.3413 6.27989 16.0548 6.38859 15.7892C6.49728 15.5237 6.66421 15.286 6.87706 15.0937C7.34454 14.7167 7.93421 14.5245 8.53406 14.5537C9.13357 14.527 9.72237 14.7189 10.1911 15.0937C10.4065 15.2844 10.5757 15.5216 10.6861 15.7874C10.7964 16.0531 10.845 16.3404 10.8281 16.6277ZM9.77806 20.0217C9.78455 19.8573 9.75679 19.6934 9.69654 19.5404C9.63628 19.3873 9.54485 19.2485 9.42806 19.1327C9.30964 19.0185 9.16948 18.9293 9.0159 18.8704C8.86232 18.8114 8.69846 18.784 8.53406 18.7897C8.36986 18.78 8.20548 18.8051 8.05164 18.8633C7.8978 18.9215 7.75795 19.0115 7.64123 19.1273C7.5245 19.2432 7.43352 19.3824 7.37422 19.5358C7.31491 19.6892 7.28862 19.8534 7.29706 20.0177C7.28828 20.1805 7.31384 20.3433 7.37207 20.4956C7.4303 20.6479 7.5199 20.7863 7.63506 20.9017C7.88277 21.1251 8.2089 21.2412 8.54206 21.2247C8.87064 21.2384 9.19132 21.1216 9.43406 20.8997C9.55022 20.7852 9.64083 20.6474 9.69995 20.4954C9.75906 20.3434 9.78534 20.1806 9.77706 20.0177M9.58306 16.6697C9.59435 16.3729 9.48961 16.0835 9.29106 15.8627C9.08943 15.6628 8.81752 15.5498 8.5336 15.5479C8.24967 15.546 7.9763 15.6554 7.77206 15.8527C7.57795 16.0793 7.4781 16.3717 7.49306 16.6697C7.47837 16.967 7.58026 17.2583 7.77706 17.4817C7.87616 17.5831 7.99571 17.6624 8.12778 17.7141C8.25985 17.7658 8.4014 17.7889 8.54306 17.7817C8.68302 17.7884 8.82281 17.7652 8.95304 17.7134C9.08326 17.6617 9.2009 17.5827 9.29806 17.4817C9.49512 17.2584 9.59736 16.9671 9.58306 16.6697Z" fill="#111111"/>
<path d="M16.681 19.2414C16.7359 20.0356 16.5031 20.8229 16.025 21.4594C15.794 21.7008 15.5165 21.8929 15.2092 22.0242C14.9019 22.1554 14.5712 22.2231 14.237 22.2231C13.9029 22.2231 13.5722 22.1554 13.2649 22.0242C12.9576 21.8929 12.6801 21.7008 12.449 21.4594C11.9682 20.8241 11.7334 20.0363 11.7881 19.2414V17.5354C11.734 16.7414 11.9667 15.9543 12.4441 15.3174C12.6743 15.0746 12.9515 14.8813 13.2589 14.7491C13.5664 14.617 13.8974 14.5488 14.2321 14.5488C14.5667 14.5488 14.8977 14.617 15.2052 14.7491C15.5126 14.8813 15.7898 15.0746 16.0201 15.3174C16.5004 15.953 16.7352 16.7406 16.681 17.5354V19.2414ZM15.436 17.3414C15.4696 16.87 15.3627 16.3992 15.129 15.9884C15.0235 15.8515 14.8879 15.7406 14.7327 15.6643C14.5776 15.588 14.407 15.5483 14.234 15.5483C14.0611 15.5483 13.8905 15.588 13.7354 15.6643C13.5802 15.7406 13.4446 15.8515 13.339 15.9884C13.1081 16.4015 13.0037 16.8735 13.039 17.3454V19.4184C13.0047 19.8938 13.1126 20.3686 13.349 20.7824C13.4489 20.9269 13.584 21.0434 13.7415 21.1209C13.899 21.1984 14.0737 21.2344 14.2491 21.2254C14.4229 21.2349 14.5962 21.1994 14.7523 21.1223C14.9084 21.0453 15.0419 20.9292 15.14 20.7854C15.3708 20.3686 15.4751 19.8936 15.4401 19.4184L15.436 17.3414Z" fill="#111111"/>
<path d="M17.4679 16.0915C17.4626 15.8806 17.4996 15.6707 17.5766 15.4743C17.6537 15.2779 17.7692 15.099 17.9165 14.9479C18.0638 14.7969 18.2398 14.6768 18.4342 14.5949C18.6286 14.5129 18.8375 14.4707 19.0484 14.4707C19.2594 14.4707 19.4682 14.5129 19.6626 14.5949C19.857 14.6768 20.033 14.7969 20.1803 14.9479C20.3276 15.099 20.4432 15.2779 20.5202 15.4743C20.5973 15.6707 20.6342 15.8806 20.6289 16.0915V16.4855C20.6371 16.6924 20.6017 16.8986 20.5249 17.091C20.4482 17.2833 20.3319 17.4573 20.1836 17.6018C20.0353 17.7462 19.8582 17.8579 19.664 17.9295C19.4697 18.0011 19.2625 18.0311 19.0559 18.0175C18.8423 18.0289 18.6287 17.9959 18.4285 17.9205C18.2283 17.8451 18.0459 17.729 17.8929 17.5795C17.7526 17.4348 17.6426 17.2634 17.5696 17.0755C17.4966 16.8876 17.462 16.687 17.4679 16.4855V16.0915ZM18.3339 16.4855C18.3281 16.6871 18.3944 16.8843 18.5209 17.0415C18.5863 17.1183 18.6687 17.179 18.7616 17.2185C18.8544 17.2581 18.9552 17.2755 19.0559 17.2695C19.1542 17.2752 19.2524 17.2579 19.3427 17.2188C19.433 17.1798 19.5129 17.12 19.5759 17.0445C19.7002 16.8852 19.7646 16.6874 19.7579 16.4855V16.0915C19.7639 15.8876 19.6977 15.6882 19.5709 15.5285C19.5039 15.4559 19.4225 15.3979 19.332 15.3583C19.2415 15.3187 19.1437 15.2982 19.0449 15.2982C18.9461 15.2982 18.8484 15.3187 18.7578 15.3583C18.6673 15.3979 18.586 15.4559 18.5189 15.5285C18.3934 15.6888 18.328 15.888 18.3339 16.0915V16.4855ZM19.3119 21.5575L18.6719 21.1885L22.3139 15.3585L22.9549 15.7275L19.3119 21.5575ZM21.0539 20.2865C21.0539 19.8673 21.2204 19.4653 21.5168 19.1689C21.8132 18.8725 22.2153 18.706 22.6344 18.706C23.0536 18.706 23.4556 18.8725 23.752 19.1689C24.0484 19.4653 24.2149 19.8673 24.2149 20.2865V20.6865C24.2245 20.8942 24.1902 21.1016 24.1141 21.2951C24.038 21.4886 23.9219 21.6639 23.7735 21.8094C23.625 21.955 23.4474 22.0676 23.2524 22.1398C23.0574 22.212 22.8494 22.2422 22.6419 22.2285C22.4281 22.2397 22.2142 22.2063 22.014 22.1303C21.8138 22.0544 21.6316 21.9376 21.4789 21.7875C21.3383 21.6417 21.2282 21.4693 21.1552 21.2804C21.0823 21.0915 21.0478 20.8899 21.0539 20.6875V20.2865ZM21.9199 20.6865C21.9146 20.8895 21.9828 21.0877 22.1119 21.2445C22.1766 21.3211 22.2581 21.3818 22.35 21.4218C22.4419 21.4619 22.5418 21.4802 22.6419 21.4755C22.7421 21.4831 22.8426 21.4669 22.9353 21.4281C23.0279 21.3893 23.11 21.3291 23.1749 21.2525C23.2957 21.0891 23.3571 20.8894 23.3489 20.6865V20.2865C23.3545 20.0842 23.2882 19.8865 23.1619 19.7285C23.0976 19.6514 23.0163 19.5904 22.9243 19.5503C22.8322 19.5102 22.7322 19.4921 22.6319 19.4975C22.5321 19.4918 22.4324 19.5098 22.3408 19.55C22.2492 19.5901 22.1684 19.6512 22.1049 19.7285C21.9799 19.8871 21.9144 20.0845 21.9199 20.2865V20.6865Z" fill="#111111"/>
<path d="M28.3099 22.2069C28.2409 22.207 28.1726 22.1935 28.1089 22.1672C28.0451 22.1409 27.9872 22.1022 27.9384 22.0534C27.8896 22.0046 27.851 21.9467 27.8246 21.883C27.7983 21.8192 27.7848 21.7509 27.7849 21.6819V15.3819C27.7818 15.3111 27.7931 15.2404 27.8181 15.1741C27.843 15.1077 27.8812 15.0471 27.9302 14.9959C27.9792 14.9447 28.0381 14.904 28.1032 14.8762C28.1684 14.8483 28.2385 14.834 28.3094 14.834C28.3803 14.834 28.4504 14.8483 28.5156 14.8762C28.5808 14.904 28.6397 14.9447 28.6887 14.9959C28.7377 15.0471 28.7758 15.1077 28.8008 15.1741C28.8257 15.2404 28.837 15.3111 28.8339 15.3819V21.6819C28.8341 21.7509 28.8206 21.8192 28.7942 21.883C28.7679 21.9467 28.7292 22.0046 28.6804 22.0534C28.6317 22.1022 28.5737 22.1409 28.51 22.1672C28.4462 22.1935 28.3789 22.207 28.3099 22.2069Z" fill="#111111"/>
<path d="M26.2499 17.1666C26.1465 17.1665 26.0454 17.1359 25.9593 17.0786C25.8733 17.0212 25.806 16.9398 25.7661 16.8444C25.7262 16.749 25.7153 16.6439 25.7348 16.5424C25.7543 16.4408 25.8034 16.3473 25.8759 16.2736L27.9429 14.1736C28.0408 14.0747 28.1738 14.0186 28.3129 14.0176C28.4506 14.0178 28.5827 14.072 28.6809 14.1686L30.8099 16.2686C30.9034 16.3675 30.9549 16.4988 30.9534 16.6349C30.952 16.7709 30.8978 16.9012 30.8022 16.998C30.7066 17.0949 30.5771 17.1509 30.4411 17.1542C30.305 17.1574 30.173 17.1077 30.0729 17.0156L28.3179 15.2856L26.6179 17.0106C26.569 17.0601 26.5108 17.0994 26.4466 17.1262C26.3824 17.153 26.3135 17.1667 26.2439 17.1666" fill="#111111"/>
</svg>
