<svg width="36" height="36" viewBox="0 0 36 36" fill="none" xmlns="http://www.w3.org/2000/svg">
<path d="M8.98 34.0042C8.88693 34.0045 8.79546 33.98 8.715 33.9332C8.5937 33.8628 8.50528 33.7471 8.4691 33.6116C8.43293 33.4761 8.45195 33.3318 8.522 33.2102L11.901 27.3742C11.9342 27.311 11.9799 27.2552 12.0352 27.2101C12.0905 27.165 12.1544 27.1315 12.223 27.1117C12.2915 27.0918 12.3634 27.0861 12.4343 27.0947C12.5052 27.1034 12.5735 27.1262 12.6354 27.162C12.6972 27.1977 12.7511 27.2455 12.794 27.3026C12.8369 27.3597 12.8677 27.4249 12.8848 27.4942C12.9019 27.5635 12.9047 27.6356 12.8933 27.706C12.8818 27.7765 12.8562 27.8439 12.818 27.9042L9.439 33.7412C9.39243 33.8217 9.32549 33.8885 9.24491 33.9348C9.16433 33.9812 9.07296 34.0044 8.98 34.0042Z" fill="#111111"/>
<path d="M26.49 34.0042C26.397 34.0044 26.3056 33.9802 26.225 33.9338C26.1445 33.8875 26.0775 33.8207 26.031 33.7402L22.6529 27.9042C22.6148 27.8439 22.5892 27.7765 22.5777 27.706C22.5662 27.6356 22.5691 27.5635 22.5861 27.4942C22.6032 27.4249 22.6341 27.3597 22.677 27.3026C22.7198 27.2455 22.7738 27.1977 22.8356 27.162C22.8974 27.1262 22.9658 27.1034 23.0367 27.0947C23.1075 27.0861 23.1794 27.0918 23.248 27.1117C23.3166 27.1315 23.3804 27.165 23.4358 27.2101C23.4911 27.2552 23.5367 27.311 23.5699 27.3742L26.948 33.2042C27.018 33.3258 27.037 33.4701 27.0008 33.6056C26.9647 33.7411 26.8762 33.8568 26.755 33.9272C26.6745 33.974 26.583 33.9985 26.49 33.9982" fill="#111111"/>
<path d="M17.8879 11.0293C17.3995 11.028 16.9315 10.8334 16.5862 10.488C16.2408 10.1427 16.0462 9.67466 16.0449 9.18627V4.37327C16.0449 3.88448 16.2391 3.41571 16.5847 3.07008C16.9304 2.72445 17.3991 2.53027 17.8879 2.53027C18.3767 2.53027 18.8455 2.72445 19.1911 3.07008C19.5367 3.41571 19.7309 3.88448 19.7309 4.37327V9.18627C19.7293 9.67458 19.5347 10.1424 19.1894 10.4877C18.8441 10.833 18.3762 11.0277 17.8879 11.0293Z" fill="white"/>
<path d="M17.8889 11.5589C17.2598 11.5581 16.6566 11.3078 16.2118 10.863C15.7669 10.4181 15.5167 9.815 15.5159 9.18588V4.37288C15.5094 4.05722 15.566 3.74344 15.6823 3.44992C15.7986 3.15641 15.9723 2.88905 16.1933 2.66352C16.4142 2.43799 16.678 2.25881 16.969 2.1365C17.2601 2.01418 17.5727 1.95117 17.8884 1.95117C18.2041 1.95117 18.5167 2.01418 18.8077 2.1365C19.0988 2.25881 19.3625 2.43799 19.5835 2.66352C19.8044 2.88905 19.9781 3.15641 20.0945 3.44992C20.2108 3.74344 20.2674 4.05722 20.2609 4.37288V9.18588C20.2601 9.815 20.0098 10.4181 19.565 10.863C19.1201 11.3078 18.518 11.5581 17.8889 11.5589ZM17.8879 3.05888C17.5398 3.05941 17.2062 3.19792 16.96 3.44404C16.7139 3.69016 16.5754 4.02382 16.5749 4.37188V9.18588C16.5749 9.53424 16.7133 9.86834 16.9596 10.1147C17.2059 10.361 17.54 10.4994 17.8884 10.4994C18.2367 10.4994 18.5708 10.361 18.8172 10.1147C19.0635 9.86834 19.2019 9.53424 19.2019 9.18588V4.37288C19.2014 4.02482 19.0628 3.69116 18.8167 3.44504C18.5706 3.19892 18.2369 3.06041 17.8889 3.05988" fill="#111111"/>
<path d="M27.6121 27.943H8.16506C7.74755 27.943 7.33413 27.8607 6.94843 27.7009C6.56273 27.541 6.2123 27.3068 5.91717 27.0114C5.62204 26.7161 5.38799 26.3655 5.2284 25.9797C5.06881 25.5939 4.9868 25.1805 4.98706 24.763V10.763C4.98706 9.9201 5.32189 9.11177 5.91788 8.51578C6.51387 7.91979 7.3222 7.58496 8.16506 7.58496H27.6121C28.4549 7.58496 29.2633 7.91979 29.8592 8.51578C30.4552 9.11177 30.7901 9.9201 30.7901 10.763V24.763C30.7903 25.1805 30.7083 25.5939 30.5487 25.9797C30.3891 26.3655 30.1551 26.7161 29.86 27.0114C29.5648 27.3068 29.2144 27.541 28.8287 27.7009C28.443 27.8607 28.0296 27.943 27.6121 27.943Z" fill="#B9B5EF"/>
<path d="M27.612 28.4698H8.16403C7.1812 28.4687 6.23892 28.0778 5.54396 27.3828C4.84899 26.6879 4.45809 25.7456 4.45703 24.7628V10.7628C4.4573 9.77931 4.84781 8.83617 5.54284 8.14039C6.23786 7.44462 7.18059 7.05308 8.16403 7.05176H27.612C28.5944 7.05361 29.536 7.44483 30.2305 8.13968C30.925 8.83453 31.3157 9.77635 31.317 10.7588V24.7588C31.316 25.7416 30.9251 26.6839 30.2301 27.3788C29.5351 28.0738 28.5929 28.4647 27.61 28.4658M8.16403 8.11276C7.4625 8.11382 6.78999 8.3929 6.29384 8.88886C5.79769 9.38482 5.51835 10.0572 5.51703 10.7588V24.7588C5.51623 25.4617 5.79464 26.1361 6.29102 26.6338C6.7874 27.1315 7.46112 27.4117 8.16403 27.4128H27.612C28.3141 27.412 28.9872 27.1327 29.4836 26.6363C29.98 26.1399 30.2592 25.4668 30.26 24.7648V10.7648C30.2603 10.062 29.9815 9.38792 29.485 8.89063C28.9884 8.39334 28.3148 8.11355 27.612 8.11276H8.16403Z" fill="#111111"/>
<path d="M30.769 10.4141H5.00903C4.35156 10.4141 3.72101 10.1529 3.25611 9.68797C2.79121 9.22307 2.53003 8.59253 2.53003 7.93505C2.53003 7.27758 2.79121 6.64704 3.25611 6.18214C3.72101 5.71723 4.35156 5.45605 5.00903 5.45605H30.769C31.4265 5.45605 32.057 5.71723 32.5219 6.18214C32.9869 6.64704 33.248 7.27758 33.248 7.93505C33.248 8.59253 32.9869 9.22307 32.5219 9.68797C32.057 10.1529 31.4265 10.4141 30.769 10.4141Z" fill="white"/>
<path d="M30.768 10.9438H5.00899C4.61391 10.9438 4.22269 10.8659 3.85769 10.7147C3.49268 10.5636 3.16102 10.342 2.88166 10.0626C2.60229 9.78322 2.38069 9.45157 2.2295 9.08656C2.07831 8.72155 2.00049 8.33034 2.00049 7.93526C2.00049 7.54018 2.07831 7.14896 2.2295 6.78395C2.38069 6.41895 2.60229 6.08729 2.88166 5.80793C3.16102 5.52856 3.49268 5.30696 3.85769 5.15577C4.22269 5.00457 4.61391 4.92676 5.00899 4.92676H30.769C31.1641 4.92676 31.5553 5.00457 31.9203 5.15577C32.2853 5.30696 32.617 5.52856 32.8963 5.80793C33.1757 6.08729 33.3973 6.41895 33.5485 6.78395C33.6997 7.14896 33.7775 7.54018 33.7775 7.93526C33.7775 8.33034 33.6997 8.72155 33.5485 9.08656C33.3973 9.45157 33.1757 9.78322 32.8963 10.0626C32.617 10.342 32.2853 10.5636 31.9203 10.7147C31.5553 10.8659 31.1631 10.9438 30.768 10.9438ZM5.00899 5.98576C4.49182 5.98576 3.99583 6.1912 3.63013 6.5569C3.26443 6.9226 3.05899 7.41859 3.05899 7.93576C3.05899 8.45293 3.26443 8.94892 3.63013 9.31462C3.99583 9.68031 4.49182 9.88576 5.00899 9.88576H30.769C31.2862 9.88576 31.7822 9.68031 32.1478 9.31462C32.5135 8.94892 32.719 8.45293 32.719 7.93576C32.719 7.41859 32.5135 6.9226 32.1478 6.5569C31.7822 6.1912 31.2862 5.98576 30.769 5.98576H5.00899Z" fill="#111111"/>
<path d="M10.5849 10.5156H9.52588V16.3406H10.5849V10.5156Z" fill="#111111"/>
<path d="M11.7681 17.711C11.7683 18.0501 11.6679 18.3817 11.4796 18.6637C11.2914 18.9457 11.0237 19.1655 10.7105 19.2954C10.3972 19.4252 10.0525 19.4593 9.71995 19.3932C9.38737 19.3271 9.08187 19.1638 8.84211 18.924C8.60234 18.6843 8.43908 18.3788 8.37297 18.0462C8.30687 17.7136 8.3409 17.3689 8.47075 17.0557C8.6006 16.7424 8.82045 16.4748 9.10246 16.2865C9.38448 16.0982 9.71601 15.9978 10.0551 15.998C10.5094 15.998 10.9451 16.1785 11.2664 16.4998C11.5876 16.821 11.7681 17.2567 11.7681 17.711Z" fill="white"/>
<path d="M10.056 19.9548C9.61237 19.9548 9.1787 19.8232 8.80985 19.5767C8.44099 19.3303 8.1535 18.98 7.98373 18.5701C7.81396 18.1603 7.76954 17.7093 7.85609 17.2742C7.94263 16.8391 8.15626 16.4394 8.46995 16.1257C8.78364 15.812 9.1833 15.5984 9.6184 15.5118C10.0535 15.4253 10.5045 15.4697 10.9143 15.6395C11.3242 15.8093 11.6745 16.0967 11.921 16.4656C12.1674 16.8345 12.299 17.2681 12.299 17.7118C12.2982 18.3064 12.0616 18.8764 11.6412 19.2969C11.2207 19.7174 10.6506 19.954 10.056 19.9548ZM10.056 16.5278C9.82169 16.5274 9.59254 16.5965 9.39755 16.7264C9.20255 16.8563 9.05049 17.0411 8.9606 17.2575C8.8707 17.4739 8.84703 17.712 8.89257 17.9419C8.93811 18.1717 9.05082 18.3829 9.21642 18.5486C9.38203 18.7144 9.59309 18.8272 9.82288 18.873C10.0527 18.9187 10.2909 18.8952 10.5073 18.8055C10.7238 18.7158 10.9087 18.5639 11.0388 18.369C11.1689 18.1741 11.2382 17.9451 11.238 17.7108C11.2375 17.397 11.1125 17.0962 10.8906 16.8745C10.6686 16.6527 10.3678 16.528 10.054 16.5278" fill="#111111"/>
<path d="M13.589 22.7189C13.4852 22.7178 13.384 22.6863 13.298 22.6282C13.212 22.5702 13.1449 22.4881 13.105 22.3923C13.0652 22.2964 13.0544 22.191 13.0739 22.089C13.0935 21.9871 13.1425 21.8932 13.215 21.8189L18.052 16.9779C18.1046 16.9261 18.1672 16.8858 18.236 16.8593C18.3048 16.8328 18.3783 16.8207 18.452 16.8239C18.5266 16.8283 18.5995 16.8485 18.6658 16.8829C18.7321 16.9174 18.7904 16.9654 18.837 17.0239L21.253 20.0439L27.053 14.8859C27.1591 14.8023 27.2931 14.7625 27.4276 14.7746C27.5622 14.7867 27.6869 14.8498 27.7764 14.9509C27.8659 15.052 27.9134 15.1835 27.909 15.3185C27.9047 15.4535 27.8488 15.5817 27.753 15.6769L21.533 21.2069C21.4792 21.2555 21.4159 21.2924 21.347 21.3152C21.2781 21.3379 21.2052 21.346 21.133 21.3389C21.0611 21.3323 20.9914 21.3112 20.9279 21.2769C20.8645 21.2425 20.8087 21.1955 20.764 21.1389L18.379 18.1439L13.959 22.5639C13.9099 22.613 13.8516 22.652 13.7875 22.6786C13.7233 22.7052 13.6545 22.7189 13.585 22.7189" fill="white"/>
</svg>
