<svg width="36" height="36" viewBox="0 0 36 36" fill="none" xmlns="http://www.w3.org/2000/svg">
<path d="M32.8632 14.7724C32.7769 14.7725 32.6919 14.7519 32.6152 14.7124L22.3682 9.42735H11.0792L2.92219 3.99135C2.80673 3.91016 2.72757 3.78705 2.70161 3.64831C2.67565 3.50956 2.70495 3.36617 2.78325 3.24872C2.86154 3.13128 2.98264 3.04908 3.1207 3.01968C3.25875 2.99028 3.40283 3.016 3.52219 3.09135L11.4072 8.34435H22.6312L33.1122 13.7504C33.2201 13.8059 33.3062 13.8961 33.3566 14.0065C33.4071 14.1169 33.4189 14.241 33.3903 14.3589C33.3617 14.4769 33.2942 14.5817 33.1988 14.6567C33.1034 14.7317 32.9845 14.7724 32.8632 14.7724Z" fill="#111111"/>
<path d="M33.5489 15.4266H28.6489C28.5779 15.4266 28.5075 15.4126 28.4419 15.3854C28.3762 15.3582 28.3166 15.3184 28.2664 15.2682C28.2161 15.2179 28.1763 15.1583 28.1491 15.0926C28.1219 15.027 28.1079 14.9567 28.1079 14.8856C28.1079 14.8146 28.1219 14.7442 28.1491 14.6786C28.1763 14.6129 28.2161 14.5533 28.2664 14.5031C28.3166 14.4528 28.3762 14.413 28.4419 14.3858C28.5075 14.3586 28.5779 14.3446 28.6489 14.3446H32.4489L32.3569 10.3206C32.3552 10.2496 32.3675 10.1789 32.3931 10.1126C32.4187 10.0463 32.4571 9.98566 32.5061 9.93421C32.5552 9.88276 32.6138 9.84148 32.6788 9.81272C32.7438 9.78396 32.8139 9.76829 32.8849 9.76661C33.0278 9.76597 33.1653 9.82072 33.2686 9.91937C33.3719 10.018 33.433 10.1529 33.4389 10.2956L33.5489 15.4266Z" fill="#111111"/>
<path d="M21.856 31.9897H3.623C3.19254 31.9892 2.77988 31.8179 2.4756 31.5134C2.17131 31.209 2.00026 30.7962 2 30.3657V9.96873C2 9.82525 2.057 9.68765 2.15846 9.58619C2.25991 9.48473 2.39752 9.42773 2.541 9.42773C2.68448 9.42773 2.82209 9.48473 2.92354 9.58619C3.025 9.68765 3.082 9.82525 3.082 9.96873V30.3687C3.08226 30.5121 3.13935 30.6496 3.24075 30.751C3.34215 30.8524 3.4796 30.9095 3.623 30.9097H21.856C21.9995 30.9097 22.1371 30.9667 22.2385 31.0682C22.34 31.1696 22.397 31.3073 22.397 31.4507C22.397 31.5942 22.34 31.7318 22.2385 31.8333C22.1371 31.9347 21.9995 31.9917 21.856 31.9917" fill="#111111"/>
<path d="M9.99704 12.1338H8.91504V13.2158H9.99704V12.1338Z" fill="#EEEEEE"/>
<path d="M9.99704 14.543H8.91504V15.625H9.99704V14.543Z" fill="#EEEEEE"/>
<path d="M9.99704 16.9541H8.91504V18.0361H9.99704V16.9541Z" fill="#EEEEEE"/>
<path d="M9.99704 19.3652H8.91504V20.4472H9.99704V19.3652Z" fill="#EEEEEE"/>
<path d="M9.99704 21.7754H8.91504V22.8574H9.99704V21.7754Z" fill="#EEEEEE"/>
<path d="M9.99704 24.1865H8.91504V25.2685H9.99704V24.1865Z" fill="#EEEEEE"/>
<path d="M9.99704 26.5977H8.91504V27.6797H9.99704V26.5977Z" fill="#EEEEEE"/>
<path d="M9.99704 29.0088H8.91504V30.0908H9.99704V29.0088Z" fill="#EEEEEE"/>
<path d="M16.4199 12.1338H15.3379V13.2158H16.4199V12.1338Z" fill="#EEEEEE"/>
<path d="M16.4199 14.543H15.3379V15.625H16.4199V14.543Z" fill="#EEEEEE"/>
<path d="M16.4199 16.9541H15.3379V18.0361H16.4199V16.9541Z" fill="#EEEEEE"/>
<path d="M16.4199 19.3652H15.3379V20.4472H16.4199V19.3652Z" fill="#EEEEEE"/>
<path d="M16.4199 21.7754H15.3379V22.8574H16.4199V21.7754Z" fill="#EEEEEE"/>
<path d="M16.4199 24.1865H15.3379V25.2685H16.4199V24.1865Z" fill="#EEEEEE"/>
<path d="M16.4199 26.5977H15.3379V27.6797H16.4199V26.5977Z" fill="#EEEEEE"/>
<path d="M16.4199 29.0088H15.3379V30.0908H16.4199V29.0088Z" fill="#EEEEEE"/>
<path d="M31.4162 24.0479H23.7732C23.2391 24.0361 22.7308 23.8156 22.3572 23.4337C21.9836 23.0517 21.7744 22.5387 21.7744 22.0044C21.7744 21.4702 21.9836 20.9571 22.3572 20.5752C22.7308 20.1932 23.2391 19.9728 23.7732 19.9609H31.4162C31.6846 19.9608 31.9503 20.0136 32.1983 20.1162C32.4463 20.2188 32.6717 20.3692 32.8615 20.559C33.0513 20.7487 33.2019 20.974 33.3046 21.2219C33.4073 21.4698 33.4602 21.7356 33.4602 22.0039C33.4602 22.546 33.2449 23.0659 32.8615 23.4493C32.4782 23.8326 31.9583 24.0479 31.4162 24.0479Z" fill="#FEE456"/>
<path d="M31.416 24.5894H23.774C23.4303 24.5962 23.0888 24.5343 22.7693 24.4075C22.4498 24.2806 22.1588 24.0913 21.9134 23.8507C21.6679 23.61 21.473 23.3228 21.3398 23.0059C21.2067 22.689 21.1382 22.3487 21.1382 22.0049C21.1382 21.6612 21.2067 21.3209 21.3398 21.004C21.473 20.687 21.6679 20.3998 21.9134 20.1592C22.1588 19.9185 22.4498 19.7292 22.7693 19.6024C23.0888 19.4755 23.4303 19.4137 23.774 19.4204H31.417C32.0937 19.4337 32.7381 19.7119 33.2119 20.1951C33.6858 20.6784 33.9512 21.3281 33.9512 22.0049C33.9512 22.6817 33.6858 23.3315 33.2119 23.8147C32.7381 24.298 32.0927 24.5761 31.416 24.5894ZM23.774 20.5024C23.3755 20.5024 22.9934 20.6607 22.7116 20.9425C22.4298 21.2243 22.2715 21.6064 22.2715 22.0049C22.2715 22.4034 22.4298 22.7856 22.7116 23.0673C22.9934 23.3491 23.3755 23.5074 23.774 23.5074H31.416C31.8145 23.5074 32.1967 23.3491 32.4785 23.0673C32.7602 22.7856 32.9185 22.4034 32.9185 22.0049C32.9185 21.6064 32.7602 21.2243 32.4785 20.9425C32.1967 20.6607 31.8145 20.5024 31.416 20.5024H23.774Z" fill="#111111"/>
<path d="M31.416 28.1369H23.773C23.2311 28.1369 22.7115 27.9216 22.3284 27.5385C21.9452 27.1554 21.73 26.6357 21.73 26.0939C21.7296 25.8252 21.7822 25.5591 21.8847 25.3107C21.9873 25.0624 22.1378 24.8367 22.3276 24.6466C22.5174 24.4565 22.7429 24.3057 22.9911 24.2028C23.2393 24.0998 23.5053 24.0469 23.774 24.0469H31.416C31.9581 24.0469 32.478 24.2622 32.8613 24.6455C33.2446 25.0289 33.46 25.5488 33.46 26.0909C33.4602 26.3595 33.4076 26.6255 33.305 26.8737C33.2024 27.1219 33.0518 27.3475 32.862 27.5375C32.6722 27.7275 32.4468 27.8782 32.1986 27.9811C31.9505 28.0839 31.6846 28.1369 31.416 28.1369Z" fill="#FEE456"/>
<path d="M31.4159 28.6788H23.7739C23.097 28.6655 22.4523 28.3872 21.9783 27.9038C21.5043 27.4204 21.2388 26.7704 21.2388 26.0933C21.2388 25.4163 21.5043 24.7662 21.9783 24.2828C22.4523 23.7994 23.097 23.5211 23.7739 23.5078H31.4159C32.0928 23.5211 32.7375 23.7994 33.2115 24.2828C33.6855 24.7662 33.9511 25.4163 33.9511 26.0933C33.9511 26.7704 33.6855 27.4204 33.2115 27.9038C32.7375 28.3872 32.0928 28.6655 31.4159 28.6788ZM23.7739 24.5898C23.3752 24.5898 22.9927 24.7482 22.7108 25.0302C22.4288 25.3121 22.2704 25.6946 22.2704 26.0933C22.2704 26.4921 22.4288 26.8745 22.7108 27.1564C22.9927 27.4384 23.3752 27.5968 23.7739 27.5968H31.4159C31.8147 27.5968 32.1971 27.4384 32.4791 27.1564C32.761 26.8745 32.9194 26.4921 32.9194 26.0933C32.9194 25.6946 32.761 25.3121 32.4791 25.0302C32.1971 24.7482 31.8147 24.5898 31.4159 24.5898H23.7739Z" fill="#111111"/>
<path d="M31.416 32.2247H23.774C23.5054 32.2249 23.2395 32.1721 22.9914 32.0693C22.7433 31.9666 22.5178 31.8159 22.328 31.626C22.1382 31.4361 21.9876 31.2106 21.885 30.9624C21.7824 30.7142 21.7297 30.4483 21.73 30.1797C21.73 29.6376 21.9453 29.1177 22.3287 28.7344C22.712 28.3511 23.2319 28.1357 23.774 28.1357H31.416C31.9501 28.1476 32.4584 28.368 32.832 28.75C33.2056 29.1319 33.4148 29.645 33.4148 30.1792C33.4148 30.7135 33.2056 31.2266 32.832 31.6085C32.4584 31.9904 31.9501 32.2109 31.416 32.2227" fill="#FEE456"/>
<path d="M31.4159 32.7657H23.7729C23.0963 32.7524 22.4518 32.4742 21.978 31.991C21.5042 31.5077 21.2388 30.858 21.2388 30.1812C21.2388 29.5044 21.5042 28.8546 21.978 28.3714C22.4518 27.8881 23.0963 27.61 23.7729 27.5967H31.4159C32.0926 27.61 32.737 27.8881 33.2108 28.3714C33.6847 28.8546 33.9501 29.5044 33.9501 30.1812C33.9501 30.858 33.6847 31.5077 33.2108 31.991C32.737 32.4742 32.0926 32.7524 31.4159 32.7657ZM23.7729 28.6787C23.3744 28.6787 22.9923 28.837 22.7105 29.1188C22.4287 29.4005 22.2704 29.7827 22.2704 30.1812C22.2704 30.5797 22.4287 30.9618 22.7105 31.2436C22.9923 31.5254 23.3744 31.6837 23.7729 31.6837H31.4159C31.8144 31.6837 32.1966 31.5254 32.4784 31.2436C32.7601 30.9618 32.9184 30.5797 32.9184 30.1812C32.9184 29.7827 32.7601 29.4005 32.4784 29.1188C32.1966 28.837 31.8144 28.6787 31.4159 28.6787H23.7729Z" fill="#111111"/>
</svg>
