<svg width="36" height="36" viewBox="0 0 36 36" fill="none" xmlns="http://www.w3.org/2000/svg">
<mask id="path-1-inside-1_262_10498" fill="white">
<path d="M26.6964 13.818C26.6279 13.8188 26.5599 13.8058 26.4964 13.78L2.74342 4.00002C2.61611 3.94764 2.51483 3.84683 2.46185 3.71978C2.40887 3.59272 2.40854 3.44982 2.46092 3.32252C2.5133 3.19522 2.61411 3.09393 2.74116 3.04096C2.86822 2.98798 3.01111 2.98764 3.13842 3.04002L26.8934 12.821C27.0066 12.8655 27.1005 12.9483 27.1587 13.055C27.2169 13.1617 27.2357 13.2855 27.2119 13.4047C27.1881 13.5239 27.1231 13.6309 27.0283 13.707C26.9335 13.7831 26.815 13.8235 26.6934 13.821"/>
</mask>
<path d="M26.6964 13.818C26.6279 13.8188 26.5599 13.8058 26.4964 13.78L2.74342 4.00002C2.61611 3.94764 2.51483 3.84683 2.46185 3.71978C2.40887 3.59272 2.40854 3.44982 2.46092 3.32252C2.5133 3.19522 2.61411 3.09393 2.74116 3.04096C2.86822 2.98798 3.01111 2.98764 3.13842 3.04002L26.8934 12.821C27.0066 12.8655 27.1005 12.9483 27.1587 13.055C27.2169 13.1617 27.2357 13.2855 27.2119 13.4047C27.1881 13.5239 27.1231 13.6309 27.0283 13.707C26.9335 13.7831 26.815 13.8235 26.6934 13.821" fill="#212121"/>
<path d="M26.4964 13.78L26.1157 14.7047L26.1196 14.7063L26.4964 13.78ZM2.74342 4.00002L3.12415 3.07533L3.12393 3.07524L2.74342 4.00002ZM3.13842 3.04002L3.51915 2.11534L3.51893 2.11524L3.13842 3.04002ZM26.8934 12.821L26.5127 13.7457L26.5201 13.7488L26.5277 13.7517L26.8934 12.821ZM26.6964 13.818L26.6856 12.8181C26.7499 12.8174 26.8137 12.8295 26.8732 12.8537L26.4964 13.78L26.1196 14.7063C26.3061 14.7822 26.5059 14.8201 26.7072 14.818L26.6964 13.818ZM26.4964 13.78L26.8771 12.8553L3.12415 3.07533L2.74342 4.00002L2.36269 4.92471L26.1157 14.7047L26.4964 13.78ZM2.74342 4.00002L3.12393 3.07524C3.24189 3.12378 3.33574 3.21719 3.38483 3.33492L2.46185 3.71978L1.53888 4.10464C1.69393 4.47648 1.99034 4.7715 2.36291 4.9248L2.74342 4.00002ZM2.46185 3.71978L3.38483 3.33492C3.43392 3.45265 3.43423 3.58507 3.3857 3.70303L2.46092 3.32252L1.53614 2.94201C1.38284 3.31458 1.38383 3.73279 1.53888 4.10464L2.46185 3.71978ZM2.46092 3.32252L3.3857 3.70303C3.33716 3.82099 3.24375 3.91484 3.12602 3.96393L2.74116 3.04096L2.3563 2.11798C1.98446 2.27303 1.68944 2.56944 1.53614 2.94201L2.46092 3.32252ZM2.74116 3.04096L3.12602 3.96393C3.00829 4.01302 2.87587 4.01333 2.75791 3.9648L3.13842 3.04002L3.51893 2.11524C3.14636 1.96195 2.72815 1.96293 2.3563 2.11798L2.74116 3.04096ZM3.13842 3.04002L2.75768 3.9647L26.5127 13.7457L26.8934 12.821L27.2742 11.8963L3.51915 2.11534L3.13842 3.04002ZM26.8934 12.821L26.5277 13.7517C26.4224 13.7104 26.335 13.6333 26.2808 13.534L27.1587 13.055L28.0365 12.5761C27.8659 12.2633 27.5907 12.0206 27.2592 11.8903L26.8934 12.821ZM27.1587 13.055L26.2808 13.534C26.2267 13.4347 26.2091 13.3195 26.2313 13.2086L27.2119 13.4047L28.1925 13.6008C28.2623 13.2515 28.2071 12.8888 28.0365 12.5761L27.1587 13.055ZM27.2119 13.4047L26.2313 13.2086C26.2535 13.0977 26.314 12.9981 26.4022 12.9273L27.0283 13.707L27.6544 14.4868C27.9321 14.2638 28.1226 13.9501 28.1925 13.6008L27.2119 13.4047ZM27.0283 13.707L26.4022 12.9273C26.4904 12.8565 26.6007 12.8189 26.7138 12.8212L26.6934 13.821L26.6731 14.8208C27.0292 14.8281 27.3766 14.7098 27.6544 14.4868L27.0283 13.707Z" fill="white" mask="url(#path-1-inside-1_262_10498)"/>
<mask id="path-3-inside-2_262_10498" fill="white">
<path d="M23.8801 16.0626C23.7611 16.0616 23.6462 16.0197 23.5545 15.944C23.4628 15.8683 23.4 15.7633 23.3765 15.6468C23.3531 15.5302 23.3704 15.4091 23.4257 15.3038C23.481 15.1985 23.5708 15.1155 23.6801 15.0686L27.2721 13.5306L25.7581 9.99757C25.7075 9.87197 25.7081 9.73157 25.7598 9.60643C25.8115 9.48129 25.9101 9.38135 26.0345 9.32802C26.159 9.27468 26.2994 9.27219 26.4256 9.32108C26.5519 9.36996 26.654 9.46634 26.7101 9.58957L28.4281 13.5986C28.4821 13.7248 28.4838 13.8674 28.4328 13.9949C28.3818 14.1224 28.2823 14.2244 28.1561 14.2786L24.0881 16.0206C24.0249 16.048 23.9569 16.0623 23.8881 16.0626"/>
</mask>
<path d="M23.8801 16.0626C23.7611 16.0616 23.6462 16.0197 23.5545 15.944C23.4628 15.8683 23.4 15.7633 23.3765 15.6468C23.3531 15.5302 23.3704 15.4091 23.4257 15.3038C23.481 15.1985 23.5708 15.1155 23.6801 15.0686L27.2721 13.5306L25.7581 9.99757C25.7075 9.87197 25.7081 9.73157 25.7598 9.60643C25.8115 9.48129 25.9101 9.38135 26.0345 9.32802C26.159 9.27468 26.2994 9.27219 26.4256 9.32108C26.5519 9.36996 26.654 9.46634 26.7101 9.58957L28.4281 13.5986C28.4821 13.7248 28.4838 13.8674 28.4328 13.9949C28.3818 14.1224 28.2823 14.2244 28.1561 14.2786L24.0881 16.0206C24.0249 16.048 23.9569 16.0623 23.8881 16.0626" fill="#212121"/>
<path d="M23.6801 15.0686L23.2864 14.1493L23.2857 14.1496L23.6801 15.0686ZM27.2721 13.5306L27.6657 14.4498L28.5852 14.0561L28.1912 13.1367L27.2721 13.5306ZM25.7581 9.99757L24.8304 10.371L24.8345 10.3813L24.8389 10.3915L25.7581 9.99757ZM26.7101 9.58957L27.6292 9.19568L27.6248 9.18547L27.6202 9.17536L26.7101 9.58957ZM28.4281 13.5986L29.3473 13.2049L29.3472 13.2047L28.4281 13.5986ZM28.1561 14.2786L28.5497 15.1978L28.5502 15.1976L28.1561 14.2786ZM24.0881 16.0206L23.6944 15.1013L23.6891 15.1036L24.0881 16.0206ZM23.8801 16.0626L23.8883 15.0626C23.999 15.0635 24.1059 15.1025 24.1912 15.1729L23.5545 15.944L22.9178 16.7151C23.1865 16.937 23.5233 17.0597 23.8718 17.0625L23.8801 16.0626ZM23.5545 15.944L24.1912 15.1729C24.2765 15.2434 24.335 15.341 24.3569 15.4495L23.3765 15.6468L22.3962 15.844C22.4649 16.1857 22.6491 16.4932 22.9178 16.7151L23.5545 15.944ZM23.3765 15.6468L24.3569 15.4495C24.3787 15.558 24.3625 15.6707 24.3111 15.7686L23.4257 15.3038L22.5403 14.839C22.3783 15.1475 22.3274 15.5024 22.3962 15.844L23.3765 15.6468ZM23.4257 15.3038L24.3111 15.7686C24.2597 15.8666 24.1761 15.9439 24.0744 15.9875L23.6801 15.0686L23.2857 14.1496C22.9655 14.287 22.7023 14.5304 22.5403 14.839L23.4257 15.3038ZM23.6801 15.0686L24.0737 15.9878L27.6657 14.4498L27.2721 13.5306L26.8784 12.6113L23.2864 14.1493L23.6801 15.0686ZM27.2721 13.5306L28.1912 13.1367L26.6772 9.60368L25.7581 9.99757L24.8389 10.3915L26.3529 13.9245L27.2721 13.5306ZM25.7581 9.99757L26.6857 9.62414C26.7328 9.74099 26.7322 9.87164 26.6841 9.98809L25.7598 9.60643L24.8355 9.22476C24.6841 9.59151 24.6822 10.003 24.8304 10.371L25.7581 9.99757ZM25.7598 9.60643L26.6841 9.98809C26.636 10.1045 26.5442 10.1975 26.4284 10.2472L26.0345 9.32802L25.6406 8.40887C25.2759 8.56516 24.9869 8.85803 24.8355 9.22476L25.7598 9.60643ZM26.0345 9.32802L26.4284 10.2472C26.3127 10.2968 26.182 10.2991 26.0645 10.2536L26.4256 9.32108L26.7867 8.38854C26.4167 8.24528 26.0053 8.25258 25.6406 8.40887L26.0345 9.32802ZM26.4256 9.32108L26.0645 10.2536C25.9471 10.2081 25.8521 10.1184 25.7999 10.0038L26.7101 9.58957L27.6202 9.17536C27.4559 8.81423 27.1567 8.5318 26.7867 8.38854L26.4256 9.32108ZM26.7101 9.58957L25.7909 9.98346L27.5089 13.9925L28.4281 13.5986L29.3472 13.2047L27.6292 9.19568L26.7101 9.58957ZM28.4281 13.5986L27.5088 13.9923C27.4585 13.8748 27.4569 13.7421 27.5044 13.6235L28.4328 13.9949L29.3613 14.3663C29.5108 13.9926 29.5057 13.5748 29.3473 13.2049L28.4281 13.5986ZM28.4328 13.9949L27.5044 13.6235C27.5518 13.5048 27.6445 13.4099 27.7619 13.3595L28.1561 14.2786L28.5502 15.1976C28.9201 15.039 29.2118 14.74 29.3613 14.3663L28.4328 13.9949ZM28.1561 14.2786L27.7624 13.3593L23.6944 15.1013L24.0881 16.0206L24.4817 16.9398L28.5497 15.1978L28.1561 14.2786ZM24.0881 16.0206L23.6891 15.1036C23.7508 15.0768 23.8172 15.0628 23.8844 15.0626L23.8881 16.0626L23.8917 17.0626C24.0966 17.0618 24.2991 17.0193 24.487 16.9376L24.0881 16.0206Z" fill="white" mask="url(#path-3-inside-2_262_10498)"/>
<path d="M8.08999 31.9727H2.91199V12.8137C2.91199 12.4019 3.07561 12.0068 3.36685 11.7156C3.65809 11.4244 4.05311 11.2607 4.46499 11.2607H6.53699C6.94887 11.2607 7.34388 11.4244 7.63512 11.7156C7.92637 12.0068 8.08999 12.4019 8.08999 12.8137V31.9727Z" fill="#B9B5EF"/>
<path d="M8.08955 32.4902H2.91155C2.77417 32.4902 2.64242 32.4356 2.54527 32.3384C2.44813 32.2413 2.39355 32.1095 2.39355 31.9722V12.8142C2.39408 12.2651 2.61245 11.7386 3.00072 11.3503C3.38899 10.9621 3.91545 10.7437 4.46455 10.7432H6.53255C7.08166 10.7437 7.60811 10.9621 7.99639 11.3503C8.38466 11.7386 8.60303 12.2651 8.60355 12.8142V31.9732C8.60355 32.1105 8.54898 32.2423 8.45184 32.3394C8.35469 32.4366 8.22294 32.4912 8.08555 32.4912M3.43255 31.4552H7.57155V12.8142C7.57129 12.678 7.54421 12.5432 7.49185 12.4175C7.4395 12.2918 7.36289 12.1776 7.26641 12.0815C7.16993 11.9854 7.05546 11.9092 6.92955 11.8573C6.80363 11.8055 6.66874 11.7789 6.53255 11.7792H4.46455C4.19074 11.7805 3.92856 11.89 3.73522 12.0839C3.54188 12.2778 3.43308 12.5403 3.43255 12.8142V31.4552Z" fill="#111111"/>
<path d="M15.768 31.9735H10.59V17.9925C10.59 17.5806 10.7536 17.1856 11.0448 16.8943C11.3361 16.6031 11.7311 16.4395 12.143 16.4395H14.214C14.6258 16.4395 15.0209 16.6031 15.3121 16.8943C15.6033 17.1856 15.767 17.5806 15.767 17.9925L15.768 31.9735Z" fill="white"/>
<path d="M15.7683 32.4909H10.5903C10.5218 32.4909 10.4541 32.4773 10.3909 32.451C10.3277 32.4247 10.2704 32.386 10.2222 32.3374C10.1741 32.2888 10.136 32.2311 10.1103 32.1677C10.0845 32.1042 10.0716 32.0363 10.0723 31.9679V17.9919C10.0728 17.4428 10.2912 16.9163 10.6795 16.5281C11.0677 16.1398 11.5942 15.9214 12.1433 15.9209H14.2143C14.763 15.922 15.289 16.1406 15.6768 16.5288C16.0647 16.917 16.2828 17.4431 16.2833 17.9919V31.9679C16.2833 32.1053 16.2287 32.237 16.1316 32.3342C16.0344 32.4313 15.9027 32.4859 15.7653 32.4859M11.1053 31.4499H15.2473V17.9919C15.247 17.7172 15.1378 17.4539 14.9436 17.2596C14.7493 17.0654 14.486 16.9562 14.2113 16.9559H12.1433C11.8686 16.9562 11.6053 17.0654 11.411 17.2596C11.2168 17.4539 11.1076 17.7172 11.1073 17.9919L11.1053 31.4499Z" fill="#111111"/>
<path d="M23.4496 31.9731H18.2676V22.1341C18.2676 21.7222 18.4312 21.3272 18.7224 21.0359C19.0137 20.7447 19.4087 20.5811 19.8206 20.5811H21.8916C22.0959 20.5804 22.2984 20.6201 22.4874 20.6978C22.6764 20.7756 22.8482 20.8899 22.993 21.0342C23.1377 21.1784 23.2525 21.3499 23.3309 21.5386C23.4092 21.7273 23.4496 21.9297 23.4496 22.1341V31.9731Z" fill="white"/>
<path d="M23.446 32.4905H18.268C18.1306 32.4905 17.9989 32.4359 17.9017 32.3388C17.8046 32.2416 17.75 32.1099 17.75 31.9725V22.1345C17.7505 21.5854 17.9689 21.0589 18.3572 20.6706C18.7454 20.2824 19.2719 20.064 19.821 20.0635H21.892C22.4411 20.064 22.9676 20.2824 23.3558 20.6706C23.7441 21.0589 23.9625 21.5854 23.963 22.1345V31.9725C23.963 32.1099 23.9084 32.2416 23.8113 32.3388C23.7141 32.4359 23.5834 32.4905 23.446 32.4905ZM18.785 31.4545H22.932V22.1345C22.9317 21.8598 22.8225 21.5964 22.6283 21.4022C22.434 21.208 22.1707 21.0987 21.896 21.0985H19.821C19.5463 21.0987 19.283 21.208 19.0887 21.4022C18.8945 21.5964 18.7853 21.8598 18.785 22.1345V31.4545Z" fill="#111111"/>
<path d="M28.932 32.4911H2.518C2.38062 32.4911 2.24886 32.4365 2.15172 32.3394C2.05457 32.2422 2 32.1105 2 31.9731C2 31.8357 2.05457 31.7039 2.15172 31.6068C2.24886 31.5097 2.38062 31.4551 2.518 31.4551H28.932C29.0694 31.4551 29.2011 31.5097 29.2983 31.6068C29.3954 31.7039 29.45 31.8357 29.45 31.9731C29.45 32.1105 29.3954 32.2422 29.2983 32.3394C29.2011 32.4365 29.0694 32.4911 28.932 32.4911Z" fill="#111111"/>
<path d="M33.482 26.0902C33.482 27.3702 33.1024 28.6215 32.3912 29.6858C31.6801 30.7501 30.6693 31.5797 29.4867 32.0695C28.3041 32.5594 27.0028 32.6875 25.7473 32.4378C24.4919 32.1881 23.3387 31.5717 22.4336 30.6666C21.5284 29.7614 20.912 28.6082 20.6623 27.3528C20.4126 26.0973 20.5408 24.796 21.0306 23.6134C21.5205 22.4308 22.35 21.42 23.4143 20.7089C24.4786 19.9977 25.7299 19.6182 27.01 19.6182C28.7264 19.6182 30.3726 20.3 31.5864 21.5138C32.8001 22.7275 33.482 24.3737 33.482 26.0902Z" fill="#FEE456"/>
<path d="M27.0086 33.0816C25.6261 33.0816 24.2746 32.6716 23.1251 31.9035C21.9756 31.1355 21.0797 30.0438 20.5506 28.7665C20.0216 27.4893 19.8832 26.0838 20.1529 24.7279C20.4226 23.372 21.0883 22.1265 22.0659 21.1489C23.0435 20.1713 24.2889 19.5056 25.6449 19.2359C27.0008 18.9662 28.4063 19.1046 29.6835 19.6336C30.9608 20.1627 32.0525 21.0586 32.8205 22.2081C33.5886 23.3576 33.9986 24.7091 33.9986 26.0916C33.9959 27.9446 33.2586 29.721 31.9483 31.0313C30.638 32.3416 28.8616 33.0789 27.0086 33.0816ZM27.0086 20.1366C25.8308 20.1366 24.6794 20.4858 23.7001 21.1402C22.7208 21.7945 21.9576 22.7246 21.5069 23.8127C21.0561 24.9008 20.9382 26.0982 21.168 27.2533C21.3978 28.4085 21.9649 29.4696 22.7977 30.3024C23.6306 31.1352 24.6916 31.7024 25.8468 31.9321C27.002 32.1619 28.1993 32.044 29.2874 31.5933C30.3756 31.1425 31.3056 30.3793 31.96 29.4C32.6143 28.4207 32.9636 27.2694 32.9636 26.0916C32.9617 24.5128 32.3337 22.9992 31.2173 21.8828C30.101 20.7664 28.5874 20.1384 27.0086 20.1366Z" fill="#111111"/>
<path d="M25.7763 28.5512H25.7593C25.6566 28.5481 25.5572 28.5144 25.4737 28.4546C25.3901 28.3947 25.3263 28.3114 25.2903 28.2152L24.0393 24.8662C23.9968 24.7389 24.0055 24.6001 24.0634 24.479C24.1212 24.358 24.2239 24.2641 24.3496 24.2172C24.4753 24.1702 24.6143 24.1739 24.7374 24.2275C24.8604 24.281 24.9579 24.3803 25.0093 24.5042L25.8183 26.6702L26.5533 25.0312C26.5939 24.941 26.6594 24.8643 26.7421 24.8101C26.8249 24.7559 26.9214 24.7264 27.0203 24.7252H27.0263C27.1246 24.7258 27.2206 24.7543 27.3033 24.8074C27.386 24.8605 27.4519 24.9361 27.4933 25.0252L28.3373 26.7942L29.3523 24.4822C29.3778 24.4174 29.4162 24.3584 29.4651 24.3088C29.514 24.2592 29.5724 24.2199 29.6368 24.1934C29.7012 24.1668 29.7704 24.1535 29.84 24.1543C29.9097 24.1551 29.9785 24.17 30.0423 24.198C30.1061 24.226 30.1636 24.2665 30.2113 24.3173C30.2591 24.368 30.2961 24.4279 30.3202 24.4932C30.3443 24.5586 30.3549 24.6282 30.3515 24.6978C30.3481 24.7674 30.3307 24.8355 30.3003 24.8982L28.8323 28.2462C28.7923 28.337 28.7272 28.4145 28.6446 28.4694C28.562 28.5244 28.4654 28.5545 28.3663 28.5562C28.2659 28.5642 28.1655 28.5398 28.0799 28.4868C27.9943 28.4337 27.9279 28.3547 27.8903 28.2612L27.0413 26.4802L26.2473 28.2492C26.2065 28.3404 26.1403 28.4178 26.0565 28.4721C25.9728 28.5264 25.8751 28.5552 25.7753 28.5552" fill="#111111"/>
<path d="M25.1059 27.1561H24.1919C24.0546 27.1561 23.9228 27.1015 23.8257 27.0044C23.7285 26.9073 23.674 26.7755 23.674 26.6381C23.674 26.5007 23.7285 26.369 23.8257 26.2718C23.9228 26.1747 24.0546 26.1201 24.1919 26.1201H25.1059C25.2433 26.1201 25.3751 26.1747 25.4722 26.2718C25.5694 26.369 25.6239 26.5007 25.6239 26.6381C25.6239 26.7755 25.5694 26.9073 25.4722 27.0044C25.3751 27.1015 25.2433 27.1561 25.1059 27.1561Z" fill="#111111"/>
<path d="M29.8267 27.1561H29.0707C28.9333 27.1561 28.8016 27.1015 28.7045 27.0044C28.6073 26.9073 28.5527 26.7755 28.5527 26.6381C28.5527 26.5007 28.6073 26.369 28.7045 26.2718C28.8016 26.1747 28.9333 26.1201 29.0707 26.1201H29.8247C29.9621 26.1201 30.0939 26.1747 30.191 26.2718C30.2882 26.369 30.3427 26.5007 30.3427 26.6381C30.3427 26.7755 30.2882 26.9073 30.191 27.0044C30.0939 27.1015 29.9621 27.1561 29.8247 27.1561" fill="#111111"/>
</svg>
