<svg width="36" height="36" viewBox="0 0 36 36" fill="none" xmlns="http://www.w3.org/2000/svg">
<path d="M13 2H23C23.5304 2 24.0391 2.21071 24.4142 2.58579C24.7893 2.96086 25 3.46957 25 4V14H11V4C11 3.46957 11.2107 2.96086 11.5858 2.58579C11.9609 2.21071 12.4696 2 13 2Z" fill="white"/>
<path d="M13 2.5H23C23.3978 2.5 23.7794 2.65804 24.0607 2.93934C24.342 3.22064 24.5 3.60218 24.5 4V13.5H11.5V4C11.5 3.60218 11.658 3.22064 11.9393 2.93934C12.2206 2.65804 12.6022 2.5 13 2.5Z" stroke="#111111"/>
<path d="M22 2H14V14H22V2Z" fill="white"/>
<path d="M21.5 2.5H14.5V13.5H21.5V2.5Z" stroke="#111111"/>
<path d="M29.4019 22.0366C29.4019 24.2989 28.7311 26.5103 27.4742 28.3912C26.2174 30.2722 24.431 31.7383 22.341 32.604C20.251 33.4697 17.9512 33.6962 15.7324 33.2549C13.5137 32.8135 11.4756 31.7242 9.876 30.1245C8.27636 28.5249 7.187 26.4868 6.74566 24.2681C6.30432 22.0493 6.53083 19.7495 7.39655 17.6595C8.26227 15.5695 9.7283 13.7831 11.6093 12.5263C13.4902 11.2695 15.7017 10.5986 17.9639 10.5986C20.9973 10.5989 23.9065 11.8041 26.0515 13.949C28.1965 16.094 29.4016 19.0032 29.4019 22.0366Z" fill="white"/>
<path d="M17.963 34.0012C15.5969 34.0012 13.284 33.2996 11.3167 31.9851C9.34941 30.6706 7.81609 28.8022 6.91063 26.6162C6.00518 24.4303 5.76828 22.0249 6.22987 19.7043C6.69147 17.3837 7.83083 15.2521 9.50389 13.5791C11.1769 11.906 13.3085 10.7667 15.6291 10.3051C17.9497 9.84347 20.3551 10.0804 22.541 10.9858C24.727 11.8913 26.5954 13.4246 27.9099 15.3919C29.2244 17.3592 29.926 19.6721 29.926 22.0382C29.9226 25.2099 28.6611 28.2508 26.4183 30.4935C24.1756 32.7363 21.1347 33.9978 17.963 34.0012ZM17.963 11.1252C15.8043 11.125 13.6941 11.765 11.8991 12.9641C10.1042 14.1633 8.70515 15.8678 7.87898 17.8621C7.0528 19.8564 6.83658 22.051 7.25767 24.1682C7.67875 26.2854 8.71823 28.2302 10.2446 29.7566C11.7711 31.283 13.7158 32.3225 15.833 32.7435C17.9502 33.1646 20.1448 32.9484 22.1391 32.1222C24.1334 31.2961 25.8379 29.897 27.0371 28.1021C28.2363 26.3071 28.8762 24.1969 28.876 22.0382C28.8728 19.1448 27.7221 16.3708 25.6762 14.3247C23.6303 12.2786 20.8564 11.1286 17.963 11.1252Z" fill="#111111"/>
<path d="M27.383 22.0372C27.383 23.9003 26.8305 25.7215 25.7954 27.2707C24.7603 28.8198 23.2891 30.0272 21.5679 30.7401C19.8466 31.4531 17.9525 31.6397 16.1252 31.2762C14.2979 30.9127 12.6194 30.0155 11.302 28.6981C9.98462 27.3807 9.08745 25.7022 8.72398 23.8749C8.3605 22.0476 8.54705 20.1536 9.26003 18.4323C9.97301 16.711 11.1804 15.2398 12.7295 14.2047C14.2786 13.1697 16.0999 12.6172 17.963 12.6172C20.4613 12.6172 22.8573 13.6096 24.6239 15.3762C26.3905 17.1428 27.383 19.5388 27.383 22.0372Z" fill="#D9AE02"/>
<path d="M16.688 21.265H17.7C18.1395 21.2834 18.5706 21.1412 18.913 20.865C19.0661 20.7222 19.1856 20.5473 19.2629 20.3527C19.3402 20.1582 19.3734 19.9489 19.36 19.74C19.3839 19.3387 19.25 18.944 18.987 18.64C18.8352 18.4988 18.6558 18.3907 18.4601 18.3224C18.2644 18.254 18.0566 18.227 17.85 18.243C17.4476 18.2273 17.0543 18.3653 16.75 18.629C16.6086 18.7551 16.4966 18.9107 16.4222 19.085C16.3477 19.2592 16.3124 19.4476 16.319 19.637H14.657C14.6524 19.142 14.7939 18.6568 15.064 18.242C15.3438 17.8157 15.7373 17.4763 16.2 17.262C16.7094 17.0221 17.2669 16.9017 17.83 16.91C18.6761 16.8612 19.5103 17.1281 20.171 17.659C20.4578 17.9213 20.6828 18.2441 20.8298 18.604C20.9768 18.9638 21.0421 19.3518 21.021 19.74C21.0179 20.195 20.8681 20.6368 20.594 21C20.314 21.3906 19.934 21.6987 19.494 21.892C19.9936 22.0449 20.431 22.354 20.742 22.774C21.033 23.1952 21.1825 23.6981 21.169 24.21C21.1858 24.6122 21.1115 25.0131 20.9516 25.3826C20.7918 25.7521 20.5506 26.0807 20.246 26.344C19.565 26.8961 18.7047 27.1784 17.829 27.137C16.9787 27.1723 16.1442 26.9004 15.478 26.371C15.1791 26.1246 14.9409 25.8127 14.7821 25.4594C14.6232 25.1062 14.5479 24.7211 14.562 24.334H16.223C16.2159 24.5329 16.2516 24.731 16.3277 24.9149C16.4037 25.0988 16.5184 25.2642 16.664 25.4C16.9911 25.6854 17.4164 25.8325 17.85 25.81C18.2929 25.8348 18.7284 25.6879 19.066 25.4C19.2203 25.2448 19.3397 25.0584 19.4162 24.8534C19.4928 24.6483 19.5248 24.4293 19.51 24.211C19.5244 23.9876 19.4904 23.7638 19.4103 23.5548C19.3302 23.3457 19.206 23.1565 19.046 23C18.655 22.6907 18.1621 22.5398 17.665 22.577H16.687L16.688 21.265Z" fill="white"/>
</svg>
