<svg width="36" height="36" viewBox="0 0 36 36" fill="none" xmlns="http://www.w3.org/2000/svg">
<path d="M24.591 31H6.41098C5.56176 31.051 4.72679 30.7643 4.08804 30.2023C3.44929 29.6404 3.05855 28.8488 3.00098 28V7.99995C3.05855 7.15115 3.44929 6.35951 4.08804 5.79756C4.72679 5.23562 5.56176 4.94892 6.41098 4.99995H24.591C25.44 4.94919 26.2747 5.23601 26.9133 5.79793C27.5518 6.35985 27.9424 7.15133 28 7.99995V28C27.9424 28.8486 27.5518 29.6401 26.9133 30.202C26.2747 30.7639 25.44 31.0507 24.591 31Z" fill="white"/>
<path d="M22.501 31.5H6.50098C5.57272 31.5 4.68248 31.1313 4.0261 30.4749C3.36973 29.8185 3.00098 28.9283 3.00098 28V8C3.00098 7.07174 3.36973 6.1815 4.0261 5.52513C4.68248 4.86875 5.57272 4.5 6.50098 4.5H24.501C24.9606 4.5 25.4157 4.59053 25.8404 4.76642C26.265 4.94231 26.6508 5.20012 26.9758 5.52513C27.3009 5.85013 27.5587 6.23597 27.7346 6.66061C27.9104 7.08525 28.001 7.54037 28.001 8V28C28.001 28.4596 27.9104 28.9148 27.7346 29.3394C27.5587 29.764 27.3009 30.1499 26.9758 30.4749C26.6508 30.7999 26.265 31.0577 25.8404 31.2336C25.4157 31.4095 24.9606 31.5 24.501 31.5M6.50098 5.5C5.83793 5.5 5.20205 5.76339 4.73321 6.23223C4.26437 6.70107 4.00098 7.33696 4.00098 8V28C4.00098 28.663 4.26437 29.2989 4.73321 29.7678C5.20205 30.2366 5.83793 30.5 6.50098 30.5H24.501C25.164 30.5 25.7999 30.2366 26.2687 29.7678C26.7376 29.2989 27.001 28.663 27.001 28V8C27.001 7.33696 26.7376 6.70107 26.2687 6.23223C25.7999 5.76339 25.164 5.5 24.501 5.5H6.50098Z" fill="#111111"/>
<path d="M31.75 23.9873H24.25C23.7859 23.9873 23.3408 23.8029 23.0126 23.4747C22.6844 23.1466 22.5 22.7014 22.5 22.2373C22.5 21.7732 22.6844 21.3281 23.0126 20.9999C23.3408 20.6717 23.7859 20.4873 24.25 20.4873H31.75C32.2141 20.4873 32.6592 20.6717 32.9874 20.9999C33.3156 21.3281 33.5 21.7732 33.5 22.2373C33.5 22.7014 33.3156 23.1466 32.9874 23.4747C32.6592 23.8029 32.2141 23.9873 31.75 23.9873Z" fill="#FEE456"/>
<path d="M31.75 24.4883H24.25C23.6533 24.4883 23.081 24.2512 22.659 23.8293C22.2371 23.4073 22 22.835 22 22.2383C22 21.6415 22.2371 21.0692 22.659 20.6473C23.081 20.2253 23.6533 19.9883 24.25 19.9883H31.75C32.3467 19.9883 32.919 20.2253 33.341 20.6473C33.7629 21.0692 34 21.6415 34 22.2383C34 22.835 33.7629 23.4073 33.341 23.8293C32.919 24.2512 32.3467 24.4883 31.75 24.4883ZM24.25 20.9883C23.9185 20.9883 23.6005 21.12 23.3661 21.3544C23.1317 21.5888 23 21.9068 23 22.2383C23 22.5698 23.1317 22.8877 23.3661 23.1222C23.6005 23.3566 23.9185 23.4883 24.25 23.4883H31.75C32.0815 23.4883 32.3995 23.3566 32.6339 23.1222C32.8683 22.8877 33 22.5698 33 22.2383C33 21.9068 32.8683 21.5888 32.6339 21.3544C32.3995 21.12 32.0815 20.9883 31.75 20.9883H24.25Z" fill="#111111"/>
<path d="M31.75 27.5H24.25C23.7859 27.5 23.3408 27.3156 23.0126 26.9874C22.6844 26.6592 22.5 26.2141 22.5 25.75C22.5 25.2859 22.6844 24.8408 23.0126 24.5126C23.3408 24.1844 23.7859 24 24.25 24H31.75C32.2141 24 32.6592 24.1844 32.9874 24.5126C33.3156 24.8408 33.5 25.2859 33.5 25.75C33.5 26.2141 33.3156 26.6592 32.9874 26.9874C32.6592 27.3156 32.2141 27.5 31.75 27.5Z" fill="#FEE456"/>
<path d="M31.75 28H24.25C23.6533 28 23.081 27.7629 22.659 27.341C22.2371 26.919 22 26.3467 22 25.75C22 25.1533 22.2371 24.581 22.659 24.159C23.081 23.7371 23.6533 23.5 24.25 23.5H31.75C32.3467 23.5 32.919 23.7371 33.341 24.159C33.7629 24.581 34 25.1533 34 25.75C34 26.3467 33.7629 26.919 33.341 27.341C32.919 27.7629 32.3467 28 31.75 28ZM24.25 24.5C23.9185 24.5 23.6005 24.6317 23.3661 24.8661C23.1317 25.1005 23 25.4185 23 25.75C23 26.0815 23.1317 26.3995 23.3661 26.6339C23.6005 26.8683 23.9185 27 24.25 27H31.75C32.0815 27 32.3995 26.8683 32.6339 26.6339C32.8683 26.3995 33 26.0815 33 25.75C33 25.4185 32.8683 25.1005 32.6339 24.8661C32.3995 24.6317 32.0815 24.5 31.75 24.5H24.25Z" fill="#111111"/>
<path d="M31.75 31H24.25C23.7859 31 23.3408 30.8156 23.0126 30.4874C22.6844 30.1592 22.5 29.7141 22.5 29.25C22.5 28.7859 22.6844 28.3408 23.0126 28.0126C23.3408 27.6844 23.7859 27.5 24.25 27.5H31.75C32.2141 27.5 32.6592 27.6844 32.9874 28.0126C33.3156 28.3408 33.5 28.7859 33.5 29.25C33.5 29.7141 33.3156 30.1592 32.9874 30.4874C32.6592 30.8156 32.2141 31 31.75 31Z" fill="#FEE456"/>
<path d="M31.75 31.5H24.25C23.6533 31.5 23.081 31.2629 22.659 30.841C22.2371 30.419 22 29.8467 22 29.25C22 28.6533 22.2371 28.081 22.659 27.659C23.081 27.2371 23.6533 27 24.25 27H31.75C32.3467 27 32.919 27.2371 33.341 27.659C33.7629 28.081 34 28.6533 34 29.25C34 29.8467 33.7629 30.419 33.341 30.841C32.919 31.2629 32.3467 31.5 31.75 31.5ZM24.25 28C23.9185 28 23.6005 28.1317 23.3661 28.3661C23.1317 28.6005 23 28.9185 23 29.25C23 29.5815 23.1317 29.8995 23.3661 30.1339C23.6005 30.3683 23.9185 30.5 24.25 30.5H31.75C32.0815 30.5 32.3995 30.3683 32.6339 30.1339C32.8683 29.8995 33 29.5815 33 29.25C33 28.9185 32.8683 28.6005 32.6339 28.3661C32.3995 28.1317 32.0815 28 31.75 28H24.25Z" fill="#111111"/>
<path d="M12.2679 14.9304C12.2861 15.337 12.1552 15.7363 11.8999 16.0534C11.7888 16.1916 11.6477 16.3027 11.4872 16.3783C11.3268 16.4538 11.1512 16.4918 10.9739 16.4894C10.7905 16.4914 10.6088 16.4542 10.4409 16.3804C10.2402 16.2819 10.0555 16.1538 9.89287 16.0004C9.76168 15.874 9.61678 15.7626 9.46087 15.6684C9.37409 15.6257 9.27857 15.6038 9.18187 15.6044C9.10204 15.6012 9.02265 15.6178 8.95078 15.6527C8.8789 15.6876 8.81676 15.7397 8.76987 15.8044C8.66364 15.9604 8.611 16.1468 8.61987 16.3354H7.86587C7.84833 15.938 7.97434 15.5475 8.22087 15.2354C8.33297 15.0968 8.47563 14.986 8.63766 14.9118C8.7997 14.8375 8.97672 14.8018 9.15487 14.8074C9.34394 14.8065 9.53105 14.8457 9.70387 14.9224C9.90351 15.0171 10.0868 15.143 10.2469 15.2954C10.3721 15.4187 10.511 15.5274 10.6609 15.6194C10.7486 15.6636 10.8456 15.6862 10.9439 15.6854C11.0274 15.6866 11.1099 15.6673 11.1842 15.6291C11.2585 15.5909 11.3223 15.535 11.3699 15.4664C11.4834 15.3071 11.5411 15.1148 11.5339 14.9194L12.2679 14.9304ZM13.2049 15.1804L13.5139 12.3134H16.5679V13.1334H14.2999L14.1439 14.4924C14.4154 14.3389 14.723 14.2605 15.0349 14.2654C15.2712 14.252 15.5075 14.2918 15.7264 14.3818C15.9453 14.4718 16.1413 14.6097 16.2999 14.7854C16.6174 15.1806 16.778 15.6791 16.7509 16.1854C16.7633 16.4372 16.7255 16.689 16.6397 16.9261C16.5539 17.1632 16.4217 17.3809 16.2509 17.5664C16.07 17.7417 15.8549 17.8777 15.6189 17.9658C15.383 18.0539 15.1314 18.0922 14.8799 18.0784C14.4083 18.0956 13.947 17.9378 13.5849 17.6354C13.4156 17.49 13.2785 17.3108 13.1826 17.1093C13.0867 16.9078 13.034 16.6884 13.0279 16.4654H13.9459C13.9658 16.7063 14.0724 16.9319 14.2459 17.1004C14.4199 17.2517 14.6454 17.3305 14.8759 17.3204C15.0062 17.3267 15.1362 17.3016 15.2548 17.2474C15.3735 17.1931 15.4774 17.1111 15.5579 17.0084C15.7321 16.7597 15.8174 16.4595 15.7999 16.1564C15.816 15.8582 15.7196 15.5649 15.5299 15.3344C15.4358 15.233 15.3205 15.1536 15.1923 15.1017C15.064 15.0499 14.926 15.0269 14.7879 15.0344C14.6393 15.0305 14.4913 15.0536 14.3509 15.1024C14.2045 15.1657 14.0717 15.2567 13.9599 15.3704L13.2049 15.1804ZM21.2719 15.3684C20.8436 15.2822 20.4533 15.0636 20.1562 14.7434C19.859 14.4233 19.67 14.0178 19.6159 13.5844H21.1439V13.0084H17.3279V13.5844H18.8879C18.8302 14.0529 18.6331 14.4933 18.3221 14.8485C18.0112 15.2037 17.6007 15.4573 17.1439 15.5764L17.5359 16.1364C17.9153 16.0011 18.2634 15.7903 18.5591 15.5167C18.8547 15.243 19.0918 14.9123 19.2559 14.5444C19.6173 15.1967 20.2071 15.6925 20.9119 15.9364L21.2719 15.3684ZM22.9119 11.5684H22.1999V13.9684H20.9999V14.5444H22.1999V16.6724H22.9119V11.5684ZM23.0639 18.3444V17.7764H19.0799V16.2324H18.3799V18.3444H23.0639ZM20.2159 12.4004V11.8244H18.2799V12.4004H20.2159ZM13.2769 23.0684V20.6264H10.7999V23.0684H13.2769ZM12.7489 22.6484H11.3209V21.0484H12.7489V22.6484ZM15.4489 22.1864V21.7484H14.6629V20.1764H14.1289V23.9864H14.6629V22.1864H15.4489ZM14.8429 25.2524V24.8204H11.8729V23.6144H11.3449V25.2524H14.8429ZM18.7129 21.4004C18.7129 20.8064 18.1309 20.4224 17.3209 20.4224C16.5109 20.4224 15.9289 20.8064 15.9289 21.3944C15.9289 22.0004 16.5169 22.3664 17.3209 22.3664C18.1249 22.3664 18.7129 21.9944 18.7129 21.4004ZM19.9909 24.2084V20.1764H19.4689V23.2544H18.4369V23.6544H19.4689V24.2124L19.9909 24.2084ZM20.0909 25.2884V24.8564H16.8169V23.7564H16.2889V25.2864L20.0909 25.2884ZM17.6329 23.9804V23.0204C18.1549 22.9904 18.7009 22.9484 19.0489 22.8944L19.0129 22.4944C18.5209 22.5484 18.0049 22.5844 17.3329 22.6144C16.7569 22.6384 16.1929 22.6444 15.5869 22.6444L15.6709 23.0824C16.1329 23.0704 16.5889 23.0644 17.0989 23.0464V23.9764L17.6329 23.9804ZM18.1429 21.4004C18.1429 21.7124 17.8189 21.9404 17.3209 21.9404C16.8229 21.9404 16.4999 21.7124 16.4999 21.4004C16.4999 21.0884 16.8239 20.8484 17.3219 20.8484C17.8199 20.8484 18.1429 21.0884 18.1429 21.4004Z" fill="#111111"/>
</svg>
