<svg width="36" height="36" viewBox="0 0 36 36" fill="none" xmlns="http://www.w3.org/2000/svg">
<path d="M24.591 31H6.41098C5.56176 31.051 4.72679 30.7643 4.08804 30.2023C3.44929 29.6404 3.05855 28.8488 3.00098 28V7.99995C3.05855 7.15115 3.44929 6.35951 4.08804 5.79756C4.72679 5.23562 5.56176 4.94892 6.41098 4.99995H24.591C25.44 4.94919 26.2747 5.23601 26.9133 5.79793C27.5518 6.35985 27.9424 7.15133 28 7.99995V28C27.9424 28.8486 27.5518 29.6401 26.9133 30.202C26.2747 30.7639 25.44 31.0507 24.591 31Z" fill="white"/>
<path d="M22.501 31.5H6.50098C5.57272 31.5 4.68248 31.1313 4.0261 30.4749C3.36973 29.8185 3.00098 28.9283 3.00098 28V8C3.00098 7.07174 3.36973 6.1815 4.0261 5.52513C4.68248 4.86875 5.57272 4.5 6.50098 4.5H24.501C24.9606 4.5 25.4157 4.59053 25.8404 4.76642C26.265 4.94231 26.6508 5.20012 26.9758 5.52513C27.3009 5.85013 27.5587 6.23597 27.7346 6.66061C27.9104 7.08525 28.001 7.54037 28.001 8V28C28.001 28.4596 27.9104 28.9148 27.7346 29.3394C27.5587 29.764 27.3009 30.1499 26.9758 30.4749C26.6508 30.7999 26.265 31.0577 25.8404 31.2336C25.4157 31.4095 24.9606 31.5 24.501 31.5M6.50098 5.5C5.83793 5.5 5.20205 5.76339 4.73321 6.23223C4.26437 6.70107 4.00098 7.33696 4.00098 8V28C4.00098 28.663 4.26437 29.2989 4.73321 29.7678C5.20205 30.2366 5.83793 30.5 6.50098 30.5H24.501C25.164 30.5 25.7999 30.2366 26.2687 29.7678C26.7376 29.2989 27.001 28.663 27.001 28V8C27.001 7.33696 26.7376 6.70107 26.2687 6.23223C25.7999 5.76339 25.164 5.5 24.501 5.5H6.50098Z" fill="#111111"/>
<path d="M31.75 23.9873H24.25C23.7859 23.9873 23.3408 23.8029 23.0126 23.4747C22.6844 23.1466 22.5 22.7014 22.5 22.2373C22.5 21.7732 22.6844 21.3281 23.0126 20.9999C23.3408 20.6717 23.7859 20.4873 24.25 20.4873H31.75C32.2141 20.4873 32.6592 20.6717 32.9874 20.9999C33.3156 21.3281 33.5 21.7732 33.5 22.2373C33.5 22.7014 33.3156 23.1466 32.9874 23.4747C32.6592 23.8029 32.2141 23.9873 31.75 23.9873Z" fill="#FEE456"/>
<path d="M31.75 24.4883H24.25C23.6533 24.4883 23.081 24.2512 22.659 23.8293C22.2371 23.4073 22 22.835 22 22.2383C22 21.6415 22.2371 21.0692 22.659 20.6473C23.081 20.2253 23.6533 19.9883 24.25 19.9883H31.75C32.3467 19.9883 32.919 20.2253 33.341 20.6473C33.7629 21.0692 34 21.6415 34 22.2383C34 22.835 33.7629 23.4073 33.341 23.8293C32.919 24.2512 32.3467 24.4883 31.75 24.4883ZM24.25 20.9883C23.9185 20.9883 23.6005 21.12 23.3661 21.3544C23.1317 21.5888 23 21.9068 23 22.2383C23 22.5698 23.1317 22.8877 23.3661 23.1222C23.6005 23.3566 23.9185 23.4883 24.25 23.4883H31.75C32.0815 23.4883 32.3995 23.3566 32.6339 23.1222C32.8683 22.8877 33 22.5698 33 22.2383C33 21.9068 32.8683 21.5888 32.6339 21.3544C32.3995 21.12 32.0815 20.9883 31.75 20.9883H24.25Z" fill="#111111"/>
<path d="M31.75 27.5H24.25C23.7859 27.5 23.3408 27.3156 23.0126 26.9874C22.6844 26.6592 22.5 26.2141 22.5 25.75C22.5 25.2859 22.6844 24.8408 23.0126 24.5126C23.3408 24.1844 23.7859 24 24.25 24H31.75C32.2141 24 32.6592 24.1844 32.9874 24.5126C33.3156 24.8408 33.5 25.2859 33.5 25.75C33.5 26.2141 33.3156 26.6592 32.9874 26.9874C32.6592 27.3156 32.2141 27.5 31.75 27.5Z" fill="#FEE456"/>
<path d="M31.75 28H24.25C23.6533 28 23.081 27.7629 22.659 27.341C22.2371 26.919 22 26.3467 22 25.75C22 25.1533 22.2371 24.581 22.659 24.159C23.081 23.7371 23.6533 23.5 24.25 23.5H31.75C32.3467 23.5 32.919 23.7371 33.341 24.159C33.7629 24.581 34 25.1533 34 25.75C34 26.3467 33.7629 26.919 33.341 27.341C32.919 27.7629 32.3467 28 31.75 28ZM24.25 24.5C23.9185 24.5 23.6005 24.6317 23.3661 24.8661C23.1317 25.1005 23 25.4185 23 25.75C23 26.0815 23.1317 26.3995 23.3661 26.6339C23.6005 26.8683 23.9185 27 24.25 27H31.75C32.0815 27 32.3995 26.8683 32.6339 26.6339C32.8683 26.3995 33 26.0815 33 25.75C33 25.4185 32.8683 25.1005 32.6339 24.8661C32.3995 24.6317 32.0815 24.5 31.75 24.5H24.25Z" fill="#111111"/>
<path d="M31.75 31H24.25C23.7859 31 23.3408 30.8156 23.0126 30.4874C22.6844 30.1592 22.5 29.7141 22.5 29.25C22.5 28.7859 22.6844 28.3408 23.0126 28.0126C23.3408 27.6844 23.7859 27.5 24.25 27.5H31.75C32.2141 27.5 32.6592 27.6844 32.9874 28.0126C33.3156 28.3408 33.5 28.7859 33.5 29.25C33.5 29.7141 33.3156 30.1592 32.9874 30.4874C32.6592 30.8156 32.2141 31 31.75 31Z" fill="#FEE456"/>
<path d="M31.75 31.5H24.25C23.6533 31.5 23.081 31.2629 22.659 30.841C22.2371 30.419 22 29.8467 22 29.25C22 28.6533 22.2371 28.081 22.659 27.659C23.081 27.2371 23.6533 27 24.25 27H31.75C32.3467 27 32.919 27.2371 33.341 27.659C33.7629 28.081 34 28.6533 34 29.25C34 29.8467 33.7629 30.419 33.341 30.841C32.919 31.2629 32.3467 31.5 31.75 31.5ZM24.25 28C23.9185 28 23.6005 28.1317 23.3661 28.3661C23.1317 28.6005 23 28.9185 23 29.25C23 29.5815 23.1317 29.8995 23.3661 30.1339C23.6005 30.3683 23.9185 30.5 24.25 30.5H31.75C32.0815 30.5 32.3995 30.3683 32.6339 30.1339C32.8683 29.8995 33 29.5815 33 29.25C33 28.9185 32.8683 28.6005 32.6339 28.3661C32.3995 28.1317 32.0815 28 31.75 28H24.25Z" fill="#111111"/>
<path d="M16.817 23.7554V24.856H20.0914V25.2876L16.2897 25.2857V23.7554H16.817Z" fill="#111111"/>
<path d="M11.8737 23.6138V24.8198H14.8434V25.2515H11.3453V23.6138H11.8737Z" fill="#111111"/>
<path d="M19.9908 20.1763V24.2075L19.4694 24.2114V23.6538H18.4371V23.2534H19.4694V20.1763H19.9908Z" fill="#111111"/>
<path d="M14.6637 20.1763V21.7476H15.4489V22.186H14.6637V23.9858H14.1295V20.1763H14.6637Z" fill="#111111"/>
<path d="M19.0494 22.894C18.7015 22.948 18.1554 22.99 17.6334 23.02V23.98L17.0992 23.9761V23.0454C16.5894 23.0634 16.1334 23.0696 15.6715 23.0815L15.5875 22.644C16.1934 22.644 16.7577 22.6378 17.3336 22.6138C18.0054 22.5838 18.5214 22.5476 19.0133 22.4937L19.0494 22.894Z" fill="#111111"/>
<path fill-rule="evenodd" clip-rule="evenodd" d="M13.277 20.6255V23.0679H10.8004V20.6255H13.277ZM11.3209 21.0474V22.648H12.7496V21.0474H11.3209Z" fill="#111111"/>
<path fill-rule="evenodd" clip-rule="evenodd" d="M17.3209 20.4214C18.1309 20.4214 18.7135 20.8059 18.7135 21.3999C18.7134 21.9939 18.1249 22.3657 17.3209 22.3657C16.5172 22.3656 15.9295 21.9998 15.9293 21.394C15.9293 20.8061 16.5111 20.4215 17.3209 20.4214ZM17.3219 20.8482C16.8241 20.8483 16.5006 21.088 16.5006 21.3999C16.5007 21.7118 16.8231 21.9399 17.3209 21.9399C17.8189 21.9399 18.1431 21.7119 18.1432 21.3999C18.1432 21.0879 17.8199 20.8482 17.3219 20.8482Z" fill="#111111"/>
<path fill-rule="evenodd" clip-rule="evenodd" d="M14.9381 16.0601H15.6451V16.8218H14.9381V18.0864H13.9889V16.8208H11.527L11.5006 16.2427L13.9576 12.3999H14.9371L14.9381 16.0601ZM13.9196 13.812L12.5016 16.0601H13.9889V13.687L13.9196 13.812Z" fill="#111111"/>
<path fill-rule="evenodd" clip-rule="evenodd" d="M18.0533 12.2339C18.3166 12.2148 18.5805 12.2594 18.8229 12.3638C19.0652 12.4682 19.279 12.6292 19.4459 12.8335C19.7899 13.3642 19.9556 13.9913 19.9176 14.6226L19.9186 15.606C19.9636 16.2553 19.8029 16.9025 19.4596 17.4556C19.2958 17.6668 19.0817 17.8342 18.8375 17.9429C18.5933 18.0516 18.3258 18.0983 18.0592 18.0786C17.7964 18.0959 17.5329 18.0497 17.2916 17.9439C17.0507 17.8381 16.8387 17.676 16.6735 17.4712C16.3249 16.9381 16.1565 16.3063 16.194 15.6704V14.687C16.1479 14.0407 16.3088 13.3962 16.653 12.8472C16.8187 12.6388 17.0331 12.4735 17.277 12.3667C17.521 12.2599 17.7877 12.2144 18.0533 12.2339ZM18.0543 12.9995C17.9189 12.9907 17.7833 13.0192 17.6627 13.0816C17.5423 13.1439 17.4408 13.2384 17.3698 13.354C17.2003 13.6948 17.1215 14.0735 17.1403 14.4536V15.7427C17.1152 16.1507 17.1915 16.5591 17.3629 16.9302C17.4305 17.055 17.533 17.1578 17.6569 17.2271C17.7807 17.2961 17.9215 17.3288 18.0631 17.3208C18.198 17.3286 18.3326 17.2994 18.4518 17.2358C18.5711 17.1722 18.6703 17.076 18.7389 16.9595C18.9094 16.6079 18.9891 16.2189 18.9694 15.8286L18.9684 14.5425C18.9955 14.1392 18.9207 13.7354 18.7506 13.3687C18.6805 13.2484 18.5777 13.1507 18.4547 13.0855C18.3318 13.0203 18.1932 12.9901 18.0543 12.9995Z" fill="#111111"/>
<path fill-rule="evenodd" clip-rule="evenodd" d="M22.4 12.2349C22.6632 12.2158 22.9272 12.2604 23.1696 12.3648C23.412 12.4692 23.6266 12.63 23.7936 12.8345C24.1375 13.3652 24.3022 13.9923 24.2643 14.6235L24.2682 15.606C24.3132 16.2554 24.1526 16.9025 23.8092 17.4556C23.6453 17.6668 23.4314 17.8342 23.1871 17.9429C22.9429 18.0515 22.6754 18.0983 22.4088 18.0786C22.1456 18.0963 21.8819 18.0506 21.6403 17.9448C21.3986 17.839 21.1857 17.6766 21.0201 17.4712C20.6716 16.9381 20.5042 16.3063 20.5416 15.6704V14.687C20.4958 14.0409 20.6565 13.397 21.0006 12.8482C21.1664 12.6397 21.3807 12.4745 21.6246 12.3677C21.8685 12.261 22.1346 12.2154 22.4 12.2349ZM22.4 12.9995C22.2648 12.9908 22.1298 13.0193 22.0094 13.0816C21.8889 13.1439 21.7875 13.2384 21.7164 13.354C21.5469 13.6949 21.4672 14.0734 21.486 14.4536V15.7427C21.4612 16.1508 21.5388 16.5592 21.7106 16.9302C21.7781 17.0549 21.8797 17.1579 22.0035 17.2271C22.1273 17.2962 22.2682 17.3287 22.4098 17.3208C22.5448 17.3286 22.6802 17.2995 22.7994 17.2358C22.9186 17.1722 23.018 17.076 23.0866 16.9595C23.257 16.6079 23.3357 16.2188 23.316 15.8286L23.3151 14.5425C23.3431 14.1394 23.2693 13.7356 23.1002 13.3687C23.0299 13.248 22.9269 13.1497 22.8033 13.0845C22.6796 13.0192 22.5396 12.9893 22.4 12.9995Z" fill="#111111"/>
<path d="M8.068 14.8071C8.25689 14.8063 8.44414 14.8448 8.61683 14.9214C8.81629 15.0161 8.99982 15.1423 9.15979 15.2944C9.28497 15.4177 9.42415 15.5267 9.57386 15.6187C9.66154 15.6629 9.75888 15.6859 9.85706 15.6851C9.94052 15.6863 10.0231 15.6666 10.0973 15.6284C10.1716 15.5902 10.2353 15.534 10.2828 15.4653C10.3963 15.3061 10.4541 15.1138 10.4469 14.9185L11.1813 14.9302C11.1986 15.3371 11.0665 15.7367 10.8102 16.0532C10.6991 16.1914 10.5574 16.3019 10.3971 16.3774C10.2368 16.4529 10.0616 16.4912 9.8844 16.4888C9.70101 16.4908 9.51909 16.4532 9.3512 16.3794C9.15166 16.2807 8.96791 16.1526 8.80628 15.9995C8.67517 15.8732 8.53045 15.7617 8.37464 15.6675C8.28789 15.6248 8.19201 15.6035 8.09534 15.604C8.01551 15.6008 7.93577 15.617 7.8639 15.6519C7.79206 15.6868 7.7301 15.7395 7.68323 15.8042C7.57719 15.9601 7.52406 16.1461 7.53284 16.3345H6.77894C6.76149 15.9372 6.88795 15.5469 7.1344 15.2349C7.2465 15.0963 7.38938 14.9859 7.5514 14.9116C7.71332 14.8375 7.88998 14.8016 8.068 14.8071Z" fill="#111111"/>
</svg>
