<svg width="36" height="36" viewBox="0 0 36 36" fill="none" xmlns="http://www.w3.org/2000/svg">
<path d="M17.9999 20.0164C19.8476 20.0176 21.6306 20.6971 23.0105 21.9258C24.3904 23.1546 25.2712 24.8472 25.4859 26.6824C25.5105 26.9212 25.6224 27.1426 25.8001 27.304C25.9777 27.4655 26.2088 27.5557 26.4489 27.5574H32.5329C32.6663 27.5574 32.7982 27.5301 32.9206 27.4771C33.043 27.4241 33.1533 27.3465 33.2446 27.2493C33.3358 27.152 33.4062 27.037 33.4513 26.9115C33.4964 26.786 33.5153 26.6525 33.5069 26.5194C33.2371 22.5896 31.4857 18.9088 28.6066 16.2205C25.7275 13.5323 21.9354 12.0371 17.9964 12.0371C14.0573 12.0371 10.2652 13.5323 7.38607 16.2205C4.50698 18.9088 2.75561 22.5896 2.48586 26.5194C2.47738 26.6525 2.49629 26.786 2.5414 26.9115C2.58652 27.037 2.65688 27.152 2.74816 27.2493C2.83943 27.3465 2.94968 27.4241 3.07209 27.4771C3.19449 27.5301 3.32647 27.5574 3.45986 27.5574H9.54586C9.78595 27.5557 10.017 27.4655 10.1947 27.304C10.3724 27.1426 10.4842 26.9212 10.5089 26.6824C10.7236 24.8463 11.6051 23.1531 12.9861 21.9242C14.3671 20.6953 16.1513 20.0164 17.9999 20.0164Z" fill="#E6E6E6"/>
<path d="M32.5389 28.0435H26.4539C26.0955 28.0416 25.7502 27.9081 25.4837 27.6685C25.2171 27.4289 25.0478 27.0997 25.0079 26.7435C24.8075 25.0253 23.983 23.4406 22.6909 22.2904C21.3988 21.1403 19.7292 20.5049 17.9994 20.5049C16.2696 20.5049 14.6 21.1403 13.3079 22.2904C12.0159 23.4406 11.1913 25.0253 10.9909 26.7435C10.951 27.0997 10.7817 27.4289 10.5151 27.6685C10.2486 27.9081 9.90334 28.0416 9.54492 28.0435H3.46192C3.26171 28.0441 3.06352 28.0035 2.87966 27.9242C2.69579 27.845 2.53018 27.7288 2.39308 27.5829C2.25599 27.437 2.15035 27.2645 2.08271 27.0761C2.01508 26.8876 1.9869 26.6873 1.99992 26.4875C2.27226 22.4303 4.07605 18.6282 7.04611 15.8508C10.0162 13.0734 13.9306 11.5283 17.9969 11.5283C22.0632 11.5283 25.9777 13.0734 28.9477 15.8508C31.9178 18.6282 33.7216 22.4303 33.9939 26.4875C34.0068 26.6869 33.9786 26.8869 33.9112 27.075C33.8437 27.2631 33.7384 27.4353 33.6018 27.5812C33.4652 27.727 33.3001 27.8432 33.1168 27.9228C32.9334 28.0023 32.7357 28.0434 32.5359 28.0435M17.9999 19.5305C19.9688 19.529 21.8694 20.2517 23.3399 21.561C24.8103 22.8703 25.7478 24.6747 25.9739 26.6305C25.9857 26.7505 26.041 26.8619 26.1295 26.9438C26.218 27.0256 26.3334 27.0721 26.4539 27.0745H32.5389C32.6057 27.0744 32.6717 27.0606 32.733 27.034C32.7943 27.0074 32.8494 26.9685 32.8951 26.9198C32.9408 26.8711 32.9761 26.8136 32.9988 26.7508C33.0214 26.688 33.031 26.6212 33.0269 26.5545C32.7722 22.7424 31.0783 19.1695 28.2881 16.5595C25.4979 13.9495 21.82 12.4975 17.9994 12.4975C14.1788 12.4975 10.5009 13.9495 7.71076 16.5595C4.92058 19.1695 3.2266 22.7424 2.97192 26.5545C2.96782 26.6212 2.97743 26.6881 3.00016 26.751C3.02288 26.8139 3.05823 26.8715 3.10404 26.9202C3.14985 26.9689 3.20514 27.0077 3.26652 27.0343C3.32789 27.0608 3.39405 27.0745 3.46092 27.0745H9.54592C9.66658 27.0721 9.78215 27.0255 9.87065 26.9434C9.95915 26.8614 10.0144 26.7496 10.0259 26.6295C10.2522 24.6738 11.1898 22.8697 12.6603 21.5606C14.1307 20.2516 16.0312 19.529 17.9999 19.5305Z" fill="#111111"/>
<path d="M24.9149 24.5612C25.2094 25.233 25.4028 25.9447 25.4889 26.6732C25.513 26.9136 25.6251 27.1367 25.8035 27.2997C25.982 27.4626 26.2143 27.554 26.4559 27.5562H32.5389C32.6718 27.5563 32.8032 27.5292 32.9252 27.4766C33.0472 27.424 33.1572 27.347 33.2483 27.2504C33.3395 27.1537 33.4099 27.0394 33.4552 26.9145C33.5005 26.7896 33.5198 26.6568 33.5119 26.5242C33.3917 24.6862 32.9436 22.8844 32.1889 21.2042C32.1358 21.0857 32.0596 20.979 31.9647 20.8903C31.8699 20.8016 31.7583 20.7327 31.6365 20.6877C31.5147 20.6426 31.3852 20.6223 31.2554 20.6279C31.1257 20.6334 30.9984 20.6648 30.8809 20.7202L25.3979 23.3142C25.1713 23.419 24.9944 23.6078 24.9044 23.8407C24.8145 24.0736 24.8186 24.3323 24.9159 24.5622" fill="#015AAC"/>
<path d="M32.5419 28.0435H26.4559C26.0957 28.04 25.7492 27.9045 25.4822 27.6627C25.2152 27.4209 25.0461 27.0896 25.0069 26.7315C24.9267 26.0506 24.7461 25.3854 24.4709 24.7575C24.3254 24.4114 24.319 24.0226 24.4531 23.672C24.5873 23.3213 24.8516 23.036 25.1909 22.8755L30.6739 20.2815C30.8498 20.1985 31.0404 20.1514 31.2347 20.143C31.429 20.1345 31.623 20.1649 31.8054 20.2323C31.9878 20.2997 32.1549 20.4028 32.297 20.5356C32.4391 20.6683 32.5533 20.8281 32.6329 21.0055C33.4122 22.7396 33.8742 24.5993 33.9969 26.4965C34.0093 26.6954 33.9809 26.8948 33.9133 27.0823C33.8457 27.2699 33.7403 27.4415 33.6038 27.5868C33.4673 27.732 33.3025 27.8477 33.1195 27.9268C32.9365 28.0059 32.7392 28.0466 32.5399 28.0465M25.3619 24.3705C25.6754 25.0863 25.8813 25.8445 25.9729 26.6205C25.9828 26.7427 26.0379 26.8569 26.1273 26.9409C26.2168 27.0248 26.3343 27.0724 26.4569 27.0745H32.5419C32.6093 27.0747 32.676 27.061 32.7378 27.0341C32.7996 27.0073 32.8551 26.9679 32.9009 26.9185C32.9463 26.8709 32.9813 26.8145 33.0037 26.7527C33.026 26.6909 33.0353 26.6251 33.0309 26.5595C32.9131 24.7779 32.4765 23.0319 31.7419 21.4045C31.7153 21.3449 31.677 21.2913 31.6294 21.2466C31.5818 21.202 31.5258 21.1673 31.4646 21.1446C31.4034 21.1219 31.3384 21.1116 31.2732 21.1143C31.208 21.1171 31.144 21.1327 31.0849 21.1605L25.6009 23.7545C25.489 23.8057 25.4012 23.8982 25.3557 24.0125C25.3103 24.1269 25.3107 24.2544 25.3569 24.3685" fill="#111111"/>
<path d="M17.6539 7.77654L15.0059 22.4275C14.9094 22.9625 15.0283 23.514 15.3368 23.9615L17.7109 27.4055C17.7432 27.4524 17.7865 27.4906 17.8369 27.5171C17.8873 27.5435 17.9434 27.5573 18.0003 27.5573C18.0573 27.5573 18.1134 27.5435 18.1638 27.5171C18.2142 27.4906 18.2575 27.4524 18.2899 27.4055L20.6639 23.9615C20.9724 23.514 21.0913 22.9625 20.9948 22.4275L18.3459 7.77654C18.3308 7.69581 18.2879 7.62291 18.2247 7.57044C18.1615 7.51798 18.082 7.48926 17.9998 7.48926C17.9177 7.48926 17.8382 7.51798 17.775 7.57044C17.7118 7.62291 17.669 7.69581 17.6539 7.77654Z" fill="white"/>
<path d="M18 28.0421C17.8644 28.0421 17.7308 28.0091 17.6108 27.946C17.4908 27.883 17.3879 27.7917 17.311 27.6801L14.937 24.2361C14.7467 23.9621 14.6126 23.6531 14.5424 23.327C14.4722 23.0009 14.4673 22.6641 14.528 22.3361L17.177 7.68908C17.2115 7.49563 17.3129 7.32048 17.4636 7.19432C17.6142 7.06816 17.8045 6.99902 18.001 6.99902C18.1975 6.99902 18.3877 7.06816 18.5383 7.19432C18.689 7.32048 18.7905 7.49563 18.825 7.68908L21.473 22.3401C21.5337 22.6681 21.5289 23.0049 21.4587 23.331C21.3885 23.6571 21.2543 23.9661 21.064 24.2401L18.685 27.6801C18.608 27.7917 18.5051 27.883 18.3851 27.946C18.2651 28.0091 18.1315 28.0421 17.996 28.0421M17.996 8.59308L15.485 22.5131C15.4479 22.7155 15.4512 22.9232 15.4946 23.1243C15.538 23.3254 15.6207 23.516 15.738 23.6851L18.001 26.9691L20.264 23.6851C20.3812 23.516 20.4639 23.3254 20.5073 23.1243C20.5507 22.9232 20.554 22.7155 20.517 22.5131L17.996 8.59308Z" fill="#111111"/>
</svg>
