<svg width="36" height="36" viewBox="0 0 36 36" fill="none" xmlns="http://www.w3.org/2000/svg">
<path d="M28.501 16.999C28.501 19.5702 27.7385 22.0836 26.3101 24.2214C24.8816 26.3593 22.8513 28.0255 20.4759 29.0095C18.1004 29.9934 15.4866 30.2508 12.9648 29.7492C10.4431 29.2476 8.12668 28.0095 6.30859 26.1914C4.49051 24.3733 3.25238 22.057 2.75077 19.5352C2.24917 17.0134 2.50661 14.3996 3.49055 12.0241C4.47449 9.6487 6.14073 7.61838 8.27857 6.18992C10.4164 4.76146 12.9298 3.99902 15.501 3.99902C18.9488 3.99902 22.2554 5.36866 24.6934 7.80664C27.1313 10.2446 28.501 13.5512 28.501 16.999Z" fill="white" stroke="#111111"/>
<path d="M25.502 16.999C25.502 18.9768 24.9155 20.9102 23.8167 22.5547C22.7178 24.1992 21.1561 25.4809 19.3288 26.2378C17.5015 26.9947 15.4909 27.1927 13.5511 26.8069C11.6112 26.421 9.82942 25.4686 8.43089 24.0701C7.03237 22.6716 6.07996 20.8897 5.6941 18.9499C5.30825 17.0101 5.50629 14.9995 6.26316 13.1722C7.02004 11.3449 8.30176 9.78314 9.94626 8.68433C11.5907 7.58552 13.5241 6.99902 15.502 6.99902C16.8152 6.99902 18.1155 7.25768 19.3288 7.76023C20.5421 8.26278 21.6444 8.99937 22.573 9.92796C23.5016 10.8565 24.2382 11.9589 24.7408 13.1722C25.2433 14.3854 25.502 15.6858 25.502 16.999Z" fill="white" stroke="#111111"/>
<path d="M17.599 20.8316C17.5064 20.8314 17.4157 20.8055 17.3369 20.7568C17.2582 20.7081 17.1945 20.6384 17.153 20.5556L15.353 16.9806L13.834 20.5276C13.7952 20.6214 13.7281 20.7007 13.6421 20.7545C13.556 20.8083 13.4553 20.8339 13.354 20.8276C13.2529 20.8233 13.1554 20.7884 13.0745 20.7275C12.9936 20.6667 12.9331 20.5826 12.901 20.4866L10.957 14.6556C10.9208 14.5315 10.9341 14.3981 10.9941 14.2836C11.0541 14.169 11.1562 14.0822 11.2789 14.0413C11.4016 14.0004 11.5353 14.0086 11.6521 14.0642C11.7688 14.1199 11.8595 14.2186 11.905 14.3396L13.433 18.9226L14.858 15.5966C14.8959 15.5096 14.9578 15.4352 15.0364 15.3821C15.1151 15.329 15.2072 15.2993 15.302 15.2966C15.397 15.2949 15.4906 15.3197 15.5722 15.3683C15.6538 15.4169 15.7203 15.4873 15.764 15.5716L17.495 19.0116L18.982 14.3506C19.0259 14.2294 19.1149 14.1298 19.2305 14.0726C19.3461 14.0155 19.4793 14.0052 19.6023 14.0439C19.7253 14.0826 19.8286 14.1673 19.8906 14.2804C19.9526 14.3935 19.9685 14.5261 19.935 14.6506L18.076 20.4816C18.0457 20.5762 17.988 20.6596 17.9102 20.7212C17.8324 20.7828 17.738 20.8198 17.639 20.8276H17.6" fill="#111111"/>
<path d="M12.078 17.5918H10.5C10.3674 17.5918 10.2402 17.5391 10.1464 17.4453C10.0527 17.3516 10 17.2244 10 17.0918C10 16.9592 10.0527 16.832 10.1464 16.7382C10.2402 16.6445 10.3674 16.5918 10.5 16.5918H12.078C12.2106 16.5918 12.3378 16.6445 12.4316 16.7382C12.5253 16.832 12.578 16.9592 12.578 17.0918C12.578 17.2244 12.5253 17.3516 12.4316 17.4453C12.3378 17.5391 12.2106 17.5918 12.078 17.5918Z" fill="#111111"/>
<path d="M20.4989 17.5918H18.9229C18.7902 17.5918 18.6631 17.5391 18.5693 17.4453C18.4755 17.3516 18.4229 17.2244 18.4229 17.0918C18.4229 16.9592 18.4755 16.832 18.5693 16.7382C18.6631 16.6445 18.7902 16.5918 18.9229 16.5918H20.4989C20.6315 16.5918 20.7586 16.6445 20.8524 16.7382C20.9462 16.832 20.9989 16.9592 20.9989 17.0918C20.9989 17.2244 20.9462 17.3516 20.8524 17.4453C20.7586 17.5391 20.6315 17.5918 20.4989 17.5918Z" fill="#111111"/>
<path d="M30.3309 22.9928H23.2689C22.768 22.9928 22.2877 22.7939 21.9335 22.4397C21.5793 22.0855 21.3804 21.6052 21.3804 21.1043C21.3804 20.6035 21.5793 20.1231 21.9335 19.7689C22.2877 19.4148 22.768 19.2158 23.2689 19.2158H30.3309C30.8317 19.2158 31.3121 19.4148 31.6662 19.7689C32.0204 20.1231 32.2194 20.6035 32.2194 21.1043C32.2194 21.6052 32.0204 22.0855 31.6662 22.4397C31.3121 22.7939 30.8317 22.9928 30.3309 22.9928Z" fill="#FFDE53"/>
<path d="M30.3309 23.4928H23.2689C22.6354 23.4928 22.0279 23.2412 21.5799 22.7932C21.132 22.3453 20.8804 21.7378 20.8804 21.1043C20.8804 20.4709 21.132 19.8633 21.5799 19.4154C22.0279 18.9675 22.6354 18.7158 23.2689 18.7158H30.3309C30.9643 18.7158 31.5719 18.9675 32.0198 19.4154C32.4677 19.8633 32.7194 20.4709 32.7194 21.1043C32.7194 21.7378 32.4677 22.3453 32.0198 22.7932C31.5719 23.2412 30.9643 23.4928 30.3309 23.4928ZM23.2689 19.7158C22.9006 19.7158 22.5475 19.8621 22.2871 20.1225C22.0267 20.3829 21.8804 20.7361 21.8804 21.1043C21.8804 21.4726 22.0267 21.8257 22.2871 22.0861C22.5475 22.3465 22.9006 22.4928 23.2689 22.4928H30.3309C30.6991 22.4928 31.0523 22.3465 31.3127 22.0861C31.5731 21.8257 31.7194 21.4726 31.7194 21.1043C31.7194 20.7361 31.5731 20.3829 31.3127 20.1225C31.0523 19.8621 30.6991 19.7158 30.3309 19.7158H23.2689Z" fill="#111111"/>
<path d="M30.3318 26.7712H23.2708C22.7698 26.7712 22.2894 26.5721 21.9351 26.2179C21.5809 25.8636 21.3818 25.3832 21.3818 24.8822C21.3818 24.3812 21.5809 23.9007 21.9351 23.5464C22.2894 23.1922 22.7698 22.9932 23.2708 22.9932H30.3318C30.8327 22.9934 31.3129 23.1926 31.6669 23.5468C32.021 23.901 32.2198 24.3813 32.2198 24.8822C32.2198 25.3832 32.0208 25.8636 31.6666 26.2179C31.3123 26.5721 30.8328 26.7712 30.3318 26.7712Z" fill="#FFDE53"/>
<path d="M30.3309 30.5485H23.2689C22.7681 30.5485 22.2879 30.3496 21.9338 29.9955C21.5798 29.6414 21.3809 29.1612 21.3809 28.6605C21.3807 28.4125 21.4295 28.1668 21.5243 27.9377C21.6191 27.7085 21.7582 27.5002 21.9335 27.3248C22.1088 27.1494 22.317 27.0102 22.5461 26.9153C22.7753 26.8204 23.0208 26.7715 23.2689 26.7715H30.3309C30.8317 26.7715 31.3121 26.9705 31.6662 27.3246C32.0204 27.6788 32.2194 28.1591 32.2194 28.66C32.2194 29.1608 32.0204 29.6412 31.6662 29.9954C31.3121 30.3495 30.8317 30.5485 30.3309 30.5485Z" fill="#FFDE53"/>
<path d="M30.3309 27.2712H23.2689C22.6353 27.2712 22.0276 27.0195 21.5796 26.5714C21.1316 26.1234 20.8799 25.5158 20.8799 24.8822C20.8799 24.2486 21.1316 23.6409 21.5796 23.1929C22.0276 22.7449 22.6353 22.4932 23.2689 22.4932H30.3289C30.9625 22.4932 31.5701 22.7449 32.0182 23.1929C32.4662 23.6409 32.7179 24.2486 32.7179 24.8822C32.7179 25.5158 32.4662 26.1234 32.0182 26.5714C31.5701 27.0195 30.9625 27.2712 30.3289 27.2712M23.2689 23.4932C22.9005 23.4932 22.5472 23.6395 22.2867 23.9C22.0262 24.1605 21.8799 24.5138 21.8799 24.8822C21.8799 25.2505 22.0262 25.6038 22.2867 25.8643C22.5472 26.1248 22.9005 26.2712 23.2689 26.2712H30.3299C30.6983 26.2712 31.0516 26.1248 31.3121 25.8643C31.5725 25.6038 31.7189 25.2505 31.7189 24.8822C31.7189 24.5138 31.5725 24.1605 31.3121 23.9C31.0516 23.6395 30.6983 23.4932 30.3299 23.4932H23.2689Z" fill="#111111"/>
<path d="M30.3309 31.0485H23.2689C22.6354 31.0485 22.0279 30.7968 21.5799 30.3489C21.132 29.901 20.8804 29.2935 20.8804 28.66C20.8804 28.0265 21.132 27.419 21.5799 26.9711C22.0279 26.5231 22.6354 26.2715 23.2689 26.2715H30.3309C30.9643 26.2715 31.5719 26.5231 32.0198 26.9711C32.4677 27.419 32.7194 28.0265 32.7194 28.66C32.7194 29.2935 32.4677 29.901 32.0198 30.3489C31.5719 30.7968 30.9643 31.0485 30.3309 31.0485ZM23.2689 27.2715C22.9006 27.2715 22.5475 27.4178 22.2871 27.6782C22.0267 27.9386 21.8804 28.2917 21.8804 28.66C21.8804 29.0282 22.0267 29.3814 22.2871 29.6418C22.5475 29.9022 22.9006 30.0485 23.2689 30.0485H30.3309C30.6991 30.0485 31.0523 29.9022 31.3127 29.6418C31.5731 29.3814 31.7194 29.0282 31.7194 28.66C31.7194 28.2917 31.5731 27.9386 31.3127 27.6782C31.0523 27.4178 30.6991 27.2715 30.3309 27.2715H23.2689Z" fill="#111111"/>
</svg>
