<svg width="36" height="36" viewBox="0 0 36 36" fill="none" xmlns="http://www.w3.org/2000/svg">
<path d="M17.9999 21.0154C19.8476 21.0166 21.6306 21.6961 23.0105 22.9249C24.3904 24.1536 25.2712 25.8462 25.4859 27.6814C25.5105 27.9203 25.6224 28.1416 25.8001 28.3031C25.9777 28.4645 26.2088 28.5547 26.4489 28.5564H32.5329C32.6663 28.5564 32.7982 28.5291 32.9206 28.4761C33.043 28.4231 33.1533 28.3455 33.2446 28.2483C33.3358 28.151 33.4062 28.0361 33.4513 27.9105C33.4964 27.785 33.5153 27.6515 33.5069 27.5184C33.2371 23.5887 31.4857 19.9078 28.6066 17.2195C25.7275 14.5313 21.9354 13.0361 17.9964 13.0361C14.0573 13.0361 10.2652 14.5313 7.38607 17.2195C4.50698 19.9078 2.75561 23.5887 2.48586 27.5184C2.47738 27.6515 2.49629 27.785 2.5414 27.9105C2.58652 28.0361 2.65688 28.151 2.74816 28.2483C2.83943 28.3455 2.94968 28.4231 3.07209 28.4761C3.19449 28.5291 3.32647 28.5564 3.45986 28.5564H9.54586C9.78595 28.5547 10.017 28.4645 10.1947 28.3031C10.3724 28.1416 10.4842 27.9203 10.5089 27.6814C10.7236 25.8454 11.6051 24.1521 12.9861 22.9232C14.3671 21.6943 16.1513 21.0154 17.9999 21.0154Z" fill="#E6E6E6"/>
<path d="M32.5389 29.0422H26.4539C26.0955 29.0403 25.7502 28.9068 25.4837 28.6672C25.2171 28.4275 25.0478 28.0984 25.0079 27.7422C24.8075 26.024 23.983 24.4393 22.6909 23.2891C21.3988 22.139 19.7292 21.5036 17.9994 21.5036C16.2696 21.5036 14.6 22.139 13.3079 23.2891C12.0159 24.4393 11.1913 26.024 10.9909 27.7422C10.951 28.0984 10.7817 28.4275 10.5151 28.6672C10.2486 28.9068 9.90334 29.0403 9.54492 29.0422H3.46192C3.26171 29.0428 3.06352 29.0022 2.87966 28.9229C2.69579 28.8437 2.53018 28.7275 2.39308 28.5816C2.25599 28.4357 2.15035 28.2632 2.08271 28.0748C2.01508 27.8863 1.9869 27.686 1.99992 27.4862C2.27044 23.4278 4.0734 19.624 7.04357 16.8452C10.0137 14.0665 13.9291 12.5205 17.9964 12.5205C22.0638 12.5205 25.9791 14.0665 28.9493 16.8452C31.9194 19.624 33.7224 23.4278 33.9929 27.4862C34.0059 27.6856 33.9778 27.8856 33.9105 28.0738C33.8431 28.262 33.7378 28.4343 33.6011 28.5802C33.4645 28.726 33.2993 28.8423 33.1159 28.9217C32.9325 29.0012 32.7348 29.0422 32.5349 29.0422M17.9999 20.5292C19.9688 20.5277 21.8694 21.2504 23.3399 22.5597C24.8103 23.869 25.7478 25.6734 25.9739 27.6292C25.9857 27.7492 26.041 27.8606 26.1295 27.9425C26.218 28.0243 26.3334 28.0708 26.4539 28.0732H32.5379C32.6048 28.0732 32.6709 28.0595 32.7323 28.033C32.7937 28.0064 32.849 27.9676 32.8948 27.9189C32.9406 27.8702 32.976 27.8126 32.9987 27.7497C33.0214 27.6868 33.031 27.6199 33.0269 27.5532C32.7722 23.7411 31.0783 20.1682 28.2881 17.5582C25.4979 14.9482 21.82 13.4962 17.9994 13.4962C14.1788 13.4962 10.5009 14.9482 7.71076 17.5582C4.92058 20.1682 3.2266 23.7411 2.97192 27.5532C2.96782 27.6199 2.97743 27.6868 3.00016 27.7497C3.02288 27.8126 3.05823 27.8702 3.10404 27.9189C3.14985 27.9676 3.20514 28.0064 3.26652 28.033C3.32789 28.0595 3.39405 28.0732 3.46092 28.0732H9.54592C9.66642 28.0708 9.78187 28.0243 9.87035 27.9425C9.95882 27.8606 10.0142 27.7492 10.0259 27.6292C10.252 25.6734 11.1895 23.869 12.66 22.5597C14.1304 21.2504 16.0311 20.5277 17.9999 20.5292Z" fill="#111111"/>
<path d="M26.2529 16.577L22.7329 21.54C22.5932 21.7418 22.5343 21.9886 22.5678 22.2317C22.6013 22.4749 22.7248 22.6966 22.9139 22.853C24.3485 24.0794 25.268 25.8016 25.4889 27.676C25.5133 27.9157 25.6252 28.1381 25.8032 28.3004C25.9813 28.4628 26.213 28.5538 26.4539 28.556H32.5419C32.6748 28.5561 32.8064 28.529 32.9285 28.4763C33.0506 28.4237 33.1605 28.3466 33.2517 28.2498C33.3429 28.153 33.4132 28.0386 33.4585 27.9136C33.5038 27.7886 33.523 27.6557 33.5149 27.523C33.3719 25.3589 32.7765 23.2489 31.7673 21.3292C30.7581 19.4094 29.3575 17.7228 27.6559 16.378C27.5521 16.296 27.4327 16.236 27.305 16.2016C27.1773 16.1672 27.044 16.1591 26.913 16.1778C26.7821 16.1965 26.6563 16.2416 26.5434 16.3104C26.4304 16.3792 26.3326 16.4702 26.2559 16.578" fill="#2B9AC9"/>
<path d="M32.5388 29.0426H26.4568C26.097 29.0398 25.7507 28.9049 25.4838 28.6636C25.2168 28.4223 25.0478 28.0913 25.0088 27.7336C24.803 25.9801 23.9426 24.3689 22.5998 23.2226C22.3182 22.9876 22.1351 22.6555 22.0867 22.2919C22.0384 21.9284 22.1284 21.5599 22.3388 21.2596L25.8588 16.2966C25.9737 16.1347 26.1203 15.9979 26.2898 15.8946C26.4592 15.7912 26.6479 15.7234 26.8444 15.6954C27.0409 15.6673 27.241 15.6795 27.4326 15.7313C27.6242 15.7831 27.8033 15.8733 27.9588 15.9966C29.7107 17.3861 31.1528 19.1265 32.1926 21.106C33.2324 23.0856 33.8469 25.2606 33.9968 27.4916C34.0094 27.6907 33.981 27.8903 33.9134 28.078C33.8458 28.2657 33.7404 28.4375 33.6038 28.5829C33.4671 28.7282 33.3021 28.844 33.119 28.9231C32.9358 29.0022 32.7384 29.0428 32.5388 29.0426ZM26.6488 16.8586L23.1288 21.8216C23.0601 21.9249 23.0323 22.0501 23.0508 22.1729C23.0693 22.2956 23.1327 22.407 23.2288 22.4856C24.7567 23.7913 25.7356 25.6255 25.9698 27.6216C25.9798 27.7431 26.0347 27.8566 26.1238 27.9398C26.213 28.023 26.3299 28.07 26.4518 28.0716H32.5358C32.6031 28.0719 32.6698 28.0583 32.7315 28.0316C32.7933 28.0049 32.8489 27.9658 32.8948 27.9166C32.9401 27.8688 32.9751 27.8121 32.9974 27.7502C33.0198 27.6882 33.0291 27.6223 33.0248 27.5566C32.8842 25.4604 32.3068 23.4168 31.3299 21.557C30.3529 19.6971 28.9979 18.062 27.3518 16.7566C27.2997 16.7161 27.24 16.6866 27.1762 16.6697C27.1125 16.6528 27.046 16.6489 26.9807 16.6582C26.9153 16.6676 26.8526 16.6899 26.7961 16.724C26.7396 16.7581 26.6906 16.8032 26.6518 16.8566" fill="#111111"/>
<path d="M17.6539 8.77557L15.0059 23.4266C14.9094 23.9615 15.0283 24.513 15.3368 24.9606L17.7109 28.4046C17.7432 28.4514 17.7865 28.4897 17.8369 28.5161C17.8873 28.5425 17.9434 28.5563 18.0003 28.5563C18.0573 28.5563 18.1134 28.5425 18.1638 28.5161C18.2142 28.4897 18.2575 28.4514 18.2899 28.4046L20.6639 24.9606C20.9724 24.513 21.0913 23.9615 20.9948 23.4266L18.3459 8.77557C18.3308 8.69484 18.2879 8.62193 18.2247 8.56946C18.1615 8.517 18.082 8.48828 17.9998 8.48828C17.9177 8.48828 17.8382 8.517 17.775 8.56946C17.7118 8.62193 17.669 8.69484 17.6539 8.77557Z" fill="white"/>
<path d="M17.9998 29.0411C17.8641 29.041 17.7305 29.008 17.6105 28.9447C17.4904 28.8815 17.3876 28.79 17.3108 28.6781L14.9368 25.2351C14.7465 24.9611 14.6123 24.6522 14.5421 24.326C14.4719 23.9999 14.4671 23.6631 14.5278 23.3351L17.1768 8.6881C17.2113 8.49465 17.3128 8.31951 17.4634 8.19335C17.6141 8.06718 17.8043 7.99805 18.0008 7.99805C18.1973 7.99805 18.3876 8.06718 18.5382 8.19335C18.6889 8.31951 18.7903 8.49465 18.8248 8.6881L21.4728 23.3391C21.5336 23.6671 21.5287 24.0039 21.4585 24.33C21.3883 24.6562 21.2542 24.9651 21.0638 25.2391L18.6848 28.6791C18.6079 28.7907 18.505 28.882 18.385 28.9451C18.2649 29.0081 18.1314 29.0411 17.9958 29.0411M17.9958 9.5921L15.4848 23.5121C15.4478 23.7145 15.4511 23.9222 15.4945 24.1233C15.5379 24.3244 15.6206 24.515 15.7378 24.6841L18.0008 27.9681L20.2638 24.6841C20.3811 24.515 20.4638 24.3244 20.5072 24.1233C20.5506 23.9222 20.5539 23.7145 20.5168 23.5121L17.9958 9.5921Z" fill="#111111"/>
</svg>
