<svg width="36" height="36" viewBox="0 0 36 36" fill="none" xmlns="http://www.w3.org/2000/svg">
<path d="M24.6581 32.2391H5.77106C4.91388 32.2391 4.09181 31.8985 3.48569 31.2924C2.87958 30.6863 2.53906 29.8642 2.53906 29.0071V5.77106C2.53906 4.91388 2.87958 4.09181 3.48569 3.48569C4.09181 2.87958 4.91388 2.53906 5.77106 2.53906H24.6581C25.5152 2.53906 26.3373 2.87958 26.9434 3.48569C27.5495 4.09181 27.8901 4.91388 27.8901 5.77106V29.0071C27.8901 29.8642 27.5495 30.6863 26.9434 31.2924C26.3373 31.8985 25.5152 32.2391 24.6581 32.2391Z" fill="white"/>
<path d="M24.658 32.778H5.771C4.77119 32.7769 3.81264 32.3793 3.10567 31.6723C2.3987 30.9654 2.00106 30.0068 2 29.007L2 5.771C2.00106 4.77119 2.3987 3.81264 3.10567 3.10567C3.81264 2.3987 4.77119 2.00106 5.771 2L24.658 2C25.6578 2.00106 26.6164 2.3987 27.3233 3.10567C28.0303 3.81264 28.4279 4.77119 28.429 5.771V29.007C28.4279 30.0068 28.0303 30.9654 27.3233 31.6723C26.6164 32.3793 25.6578 32.7769 24.658 32.778ZM5.771 3.077C5.05699 3.07858 4.37268 3.36293 3.86781 3.86781C3.36293 4.37268 3.07858 5.05699 3.077 5.771V29.007C3.07885 29.7208 3.36331 30.4049 3.86816 30.9095C4.37301 31.4142 5.05717 31.6984 5.771 31.7H24.658C25.3717 31.6982 26.0556 31.4138 26.5602 30.9092C27.0648 30.4046 27.3492 29.7207 27.351 29.007V5.771C27.3492 5.05734 27.0648 4.37344 26.5602 3.8688C26.0556 3.36417 25.3717 3.07985 24.658 3.078L5.771 3.077Z" fill="#111111"/>
<path d="M8.917 10.7406H6.598C6.31236 10.7406 6.03842 10.6271 5.83644 10.4252C5.63447 10.2232 5.521 9.94924 5.521 9.6636V7.3456C5.52087 7.20404 5.54862 7.06383 5.60267 6.93299C5.65672 6.80215 5.73602 6.68324 5.83603 6.58305C5.93604 6.48285 6.0548 6.40334 6.18554 6.34904C6.31628 6.29475 6.45643 6.26673 6.598 6.2666H8.917C9.05868 6.26647 9.199 6.2943 9.32992 6.34849C9.46083 6.40268 9.57976 6.48217 9.67991 6.5824C9.78005 6.68263 9.85943 6.80164 9.91349 6.93261C9.96756 7.06357 9.99526 7.20392 9.995 7.3456V9.6646C9.995 9.95024 9.88153 10.2242 9.67955 10.4262C9.47757 10.6281 9.20363 10.7416 8.918 10.7416" fill="white"/>
<path d="M8.91693 11.2785H6.59793C6.16951 11.278 5.75878 11.1076 5.45583 10.8046C5.15289 10.5017 4.98246 10.091 4.98193 9.66254V7.34354C4.98246 6.91511 5.15289 6.50438 5.45583 6.20144C5.75878 5.89849 6.16951 5.72807 6.59793 5.72754H8.91693C9.34536 5.72807 9.75609 5.89849 10.059 6.20144C10.362 6.50438 10.5324 6.91511 10.5329 7.34354V9.66254C10.5324 10.091 10.362 10.5017 10.059 10.8046C9.75609 11.1076 9.34536 11.278 8.91693 11.2785ZM6.59793 6.80654C6.45498 6.80654 6.31789 6.86333 6.2168 6.96441C6.11572 7.06549 6.05893 7.20259 6.05893 7.34554V9.66454C6.05893 9.80749 6.11572 9.94459 6.2168 10.0457C6.31789 10.1468 6.45498 10.2035 6.59793 10.2035H8.91693C9.0598 10.2033 9.19675 10.1464 9.29777 10.0454C9.3988 9.94435 9.45567 9.80741 9.45593 9.66454V7.34354C9.4554 7.20093 9.39838 7.06435 9.29736 6.9637C9.19633 6.86305 9.05954 6.80654 8.91693 6.80654H6.59793Z" fill="#111111"/>
<path d="M16.3731 10.7406H14.0541C13.7684 10.7406 13.4945 10.6271 13.2925 10.4251C13.0905 10.2231 12.9771 9.94919 12.9771 9.66356V7.34556C12.9773 7.06 13.0909 6.78621 13.2928 6.58429C13.4947 6.38237 13.7685 6.26882 14.0541 6.26856H16.3731C16.5146 6.26842 16.6547 6.29618 16.7855 6.35025C16.9163 6.40432 17.0351 6.48363 17.1353 6.58365C17.2354 6.68367 17.3148 6.80244 17.369 6.93317C17.4232 7.06391 17.451 7.20404 17.451 7.34556V9.66456C17.451 9.95019 17.3376 10.2241 17.1356 10.4261C16.9336 10.6281 16.6597 10.7416 16.3741 10.7416" fill="white"/>
<path d="M16.374 11.2785H14.055C13.6265 11.278 13.2158 11.1076 12.9129 10.8046C12.6099 10.5017 12.4395 10.091 12.439 9.66254V7.34354C12.4395 6.91511 12.6099 6.50438 12.9129 6.20144C13.2158 5.89849 13.6265 5.72807 14.055 5.72754H16.374C16.8024 5.72807 17.2131 5.89849 17.5161 6.20144C17.819 6.50438 17.9894 6.91511 17.99 7.34354V9.66254C17.9894 10.091 17.819 10.5017 17.5161 10.8046C17.2131 11.1076 16.8024 11.278 16.374 11.2785ZM14.055 6.80654C13.912 6.80654 13.7749 6.86333 13.6738 6.96441C13.5728 7.06549 13.516 7.20259 13.516 7.34554V9.66454C13.516 9.80749 13.5728 9.94459 13.6738 10.0457C13.7749 10.1468 13.912 10.2035 14.055 10.2035H16.374C16.5168 10.2033 16.6538 10.1464 16.7548 10.0454C16.8558 9.94435 16.9127 9.80741 16.913 9.66454V7.34354C16.9124 7.20093 16.8554 7.06435 16.7544 6.9637C16.6534 6.86305 16.5166 6.80654 16.374 6.80654H14.055Z" fill="#111111"/>
<path d="M23.83 10.7406H21.515C21.2294 10.7406 20.9554 10.6271 20.7534 10.4252C20.5515 10.2232 20.438 9.94924 20.438 9.6636V7.3456C20.4379 7.20404 20.4656 7.06383 20.5197 6.93299C20.5737 6.80215 20.653 6.68324 20.753 6.58305C20.853 6.48285 20.9718 6.40334 21.1025 6.34904C21.2333 6.29475 21.3734 6.26673 21.515 6.2666H23.834C24.1195 6.2674 24.3929 6.38149 24.5943 6.58381C24.7957 6.78614 24.9085 7.06014 24.908 7.3456V9.6646C24.908 9.95024 24.7945 10.2242 24.5925 10.4262C24.3906 10.6281 24.1166 10.7416 23.831 10.7416" fill="white"/>
<path d="M23.83 11.2785H21.511C21.0826 11.278 20.6719 11.1076 20.3689 10.8046C20.066 10.5017 19.8955 10.091 19.895 9.66254V7.34354C19.8955 6.91511 20.066 6.50438 20.3689 6.20144C20.6719 5.89849 21.0826 5.72807 21.511 5.72754H23.83C24.2584 5.72807 24.6692 5.89849 24.9721 6.20144C25.2751 6.50438 25.4455 6.91511 25.446 7.34354V9.66254C25.4455 10.091 25.2751 10.5017 24.9721 10.8046C24.6692 11.1076 24.2584 11.278 23.83 11.2785ZM21.511 6.80654C21.3681 6.80654 21.231 6.86333 21.1299 6.96441C21.0288 7.06549 20.972 7.20259 20.972 7.34554V9.66454C20.972 9.80749 21.0288 9.94459 21.1299 10.0457C21.231 10.1468 21.3681 10.2035 21.511 10.2035H23.83C23.9729 10.2033 24.1098 10.1464 24.2109 10.0454C24.3119 9.94435 24.3688 9.80741 24.369 9.66454V7.34354C24.3685 7.20093 24.3115 7.06435 24.2104 6.9637C24.1094 6.86305 23.9726 6.80654 23.83 6.80654H21.511Z" fill="#111111"/>
<path d="M8.917 18.1967H6.598C6.31236 18.1967 6.03842 18.0832 5.83644 17.8812C5.63447 17.6792 5.521 17.4053 5.521 17.1197V14.7997C5.52126 14.5141 5.63482 14.2403 5.83673 14.0384C6.03865 13.8365 6.31244 13.7229 6.598 13.7227H8.917C9.20263 13.7227 9.47657 13.8361 9.67855 14.0381C9.88053 14.2401 9.994 14.514 9.994 14.7997V17.1187C9.994 17.2601 9.96614 17.4001 9.91201 17.5308C9.85789 17.6615 9.77856 17.7802 9.67855 17.8802C9.57854 17.9802 9.45981 18.0596 9.32915 18.1137C9.19848 18.1678 9.05843 18.1967 8.917 18.1967Z" fill="white"/>
<path d="M8.91693 18.7356H6.59793C6.16985 18.735 5.75943 18.5649 5.45654 18.2624C5.15365 17.9599 4.98299 17.5497 4.98193 17.1216V14.8006C4.98246 14.3721 5.15289 13.9614 5.45583 13.6585C5.75878 13.3555 6.16951 13.1851 6.59793 13.1846H8.91693C9.34536 13.1851 9.75609 13.3555 10.059 13.6585C10.362 13.9614 10.5324 14.3721 10.5329 14.8006V17.1216C10.5324 17.55 10.362 17.9607 10.059 18.2637C9.75609 18.5666 9.34536 18.737 8.91693 18.7376M6.59793 14.2616C6.45498 14.2616 6.31789 14.3184 6.2168 14.4194C6.11572 14.5205 6.05893 14.6576 6.05893 14.8006V17.1216C6.05893 17.2645 6.11572 17.4016 6.2168 17.5027C6.31789 17.6038 6.45498 17.6606 6.59793 17.6606H8.91693C9.0598 17.6603 9.19675 17.6034 9.29777 17.5024C9.3988 17.4014 9.45567 17.2644 9.45593 17.1216V14.8006C9.45593 14.6576 9.39915 14.5205 9.29806 14.4194C9.19698 14.3184 9.05989 14.2616 8.91693 14.2616H6.59793Z" fill="#111111"/>
<path d="M16.3731 18.1967H14.0541C13.7684 18.1967 13.4945 18.0832 13.2925 17.8812C13.0905 17.6792 12.9771 17.4053 12.9771 17.1197V14.7997C12.9773 14.5141 13.0909 14.2403 13.2928 14.0384C13.4947 13.8365 13.7685 13.7229 14.0541 13.7227H16.3731C16.6587 13.7227 16.9326 13.8361 17.1346 14.0381C17.3366 14.2401 17.4501 14.514 17.4501 14.7997V17.1187C17.4501 17.2601 17.4222 17.4001 17.3681 17.5308C17.3139 17.6615 17.2346 17.7802 17.1346 17.8802C17.0346 17.9802 16.9159 18.0596 16.7852 18.1137C16.6545 18.1678 16.5145 18.1967 16.3731 18.1967Z" fill="white"/>
<path d="M16.374 18.7356H14.055C13.6269 18.735 13.2165 18.5649 12.9136 18.2624C12.6107 17.9599 12.44 17.5497 12.439 17.1216V14.8006C12.4395 14.3721 12.6099 13.9614 12.9129 13.6585C13.2158 13.3555 13.6265 13.1851 14.055 13.1846H16.374C16.8024 13.1851 17.2131 13.3555 17.5161 13.6585C17.819 13.9614 17.9894 14.3721 17.99 14.8006V17.1216C17.9894 17.55 17.819 17.9607 17.5161 18.2637C17.2131 18.5666 16.8024 18.737 16.374 18.7376M14.055 14.2616C13.912 14.2616 13.7749 14.3184 13.6738 14.4194C13.5728 14.5205 13.516 14.6576 13.516 14.8006V17.1216C13.516 17.2645 13.5728 17.4016 13.6738 17.5027C13.7749 17.6038 13.912 17.6606 14.055 17.6606H16.374C16.5168 17.6603 16.6538 17.6034 16.7548 17.5024C16.8558 17.4014 16.9127 17.2644 16.913 17.1216V14.8006C16.913 14.6576 16.8562 14.5205 16.7551 14.4194C16.654 14.3184 16.5169 14.2616 16.374 14.2616H14.055Z" fill="#111111"/>
<path d="M23.83 18.1967H21.515C21.2293 18.1967 20.9554 18.0832 20.7534 17.8812C20.5515 17.6792 20.438 17.4053 20.438 17.1197V14.7997C20.4383 14.5141 20.5518 14.2403 20.7537 14.0384C20.9556 13.8365 21.2294 13.7229 21.515 13.7227H23.834C24.1196 13.7227 24.3936 13.8361 24.5955 14.0381C24.7975 14.2401 24.911 14.514 24.911 14.7997V17.1187C24.911 17.4043 24.7975 17.6782 24.5955 17.8802C24.3936 18.0822 24.1196 18.1957 23.834 18.1957" fill="white"/>
<path d="M23.83 18.7356H21.511C21.0829 18.735 20.6725 18.5649 20.3696 18.2624C20.0667 17.9599 19.8961 17.5497 19.895 17.1216V14.8006C19.8955 14.3721 20.066 13.9614 20.3689 13.6585C20.6719 13.3555 21.0826 13.1851 21.511 13.1846H23.83C24.2584 13.1851 24.6692 13.3555 24.9721 13.6585C25.2751 13.9614 25.4455 14.3721 25.446 14.8006V17.1216C25.4455 17.55 25.2751 17.9607 24.9721 18.2637C24.6692 18.5666 24.2584 18.737 23.83 18.7376M21.511 14.2616C21.3681 14.2616 21.231 14.3184 21.1299 14.4194C21.0288 14.5205 20.972 14.6576 20.972 14.8006V17.1216C20.972 17.2645 21.0288 17.4016 21.1299 17.5027C21.231 17.6038 21.3681 17.6606 21.511 17.6606H23.83C23.9729 17.6603 24.1098 17.6034 24.2109 17.5024C24.3119 17.4014 24.3688 17.2644 24.369 17.1216V14.8006C24.369 14.6576 24.3122 14.5205 24.2111 14.4194C24.1101 14.3184 23.973 14.2616 23.83 14.2616H21.511Z" fill="#111111"/>
<path d="M30.9829 24.8502H23.3739C23.1066 24.8505 22.8419 24.7981 22.5949 24.696C22.3479 24.5939 22.1234 24.4441 21.9343 24.2552C21.7453 24.0663 21.5953 23.842 21.4929 23.5951C21.3906 23.3482 21.3379 23.0835 21.3379 22.8162C21.3379 22.2765 21.5523 21.7589 21.9339 21.3773C22.3156 20.9956 22.8332 20.7812 23.3729 20.7812H30.9819C31.5137 20.793 32.0197 21.0126 32.3916 21.3928C32.7635 21.7731 32.9718 22.2838 32.9718 22.8158C32.9718 23.3477 32.7635 23.8584 32.3916 24.2387C32.0197 24.6189 31.5147 24.8385 30.9829 24.8502Z" fill="#FEE456"/>
<path d="M30.9838 25.3892H23.3748C22.7011 25.3759 22.0594 25.0989 21.5876 24.6178C21.1158 24.1366 20.8516 23.4896 20.8516 22.8157C20.8516 22.1418 21.1158 21.4948 21.5876 21.0136C22.0594 20.5324 22.7011 20.2555 23.3748 20.2422H30.9838C31.6576 20.2555 32.2993 20.5324 32.771 21.0136C33.2428 21.4948 33.5071 22.1418 33.5071 22.8157C33.5071 23.4896 33.2428 24.1366 32.771 24.6178C32.2993 25.0989 31.6576 25.3759 30.9838 25.3892ZM23.3748 21.3192C22.997 21.3468 22.6436 21.5165 22.3856 21.794C22.1277 22.0715 21.9843 22.4363 21.9843 22.8152C21.9843 23.1941 22.1277 23.5589 22.3856 23.8364C22.6436 24.1139 22.997 24.2835 23.3748 24.3112H30.9838C31.3617 24.2835 31.7151 24.1139 31.973 23.8364C32.231 23.5589 32.3744 23.1941 32.3744 22.8152C32.3744 22.4363 32.231 22.0715 31.973 21.794C31.7151 21.5165 31.3617 21.3468 30.9838 21.3192H23.3748Z" fill="#111111"/>
<path d="M30.9829 28.9206H23.3739C23.1066 28.9208 22.8419 28.8684 22.5949 28.7663C22.3479 28.6642 22.1234 28.5144 21.9343 28.3255C21.7453 28.1366 21.5953 27.9123 21.4929 27.6654C21.3906 27.4185 21.3379 27.1538 21.3379 26.8866C21.3379 26.3469 21.5523 25.8292 21.9339 25.4476C22.3156 25.066 22.8332 24.8516 23.3729 24.8516H30.9809C31.5206 24.8516 32.0382 25.066 32.4199 25.4476C32.8015 25.8292 33.0159 26.3469 33.0159 26.8866C33.0159 27.4263 32.8015 27.9439 32.4199 28.3255C32.0382 28.7072 31.5206 28.9216 30.9809 28.9216" fill="#FEE456"/>
<path d="M30.9838 29.4595H23.3748C22.6921 29.4595 22.0374 29.1883 21.5547 28.7056C21.072 28.2229 20.8008 27.5682 20.8008 26.8855C20.8008 26.2029 21.072 25.5482 21.5547 25.0654C22.0374 24.5827 22.6921 24.3115 23.3748 24.3115H30.9838C31.6664 24.3115 32.3212 24.5827 32.8039 25.0654C33.2866 25.5482 33.5578 26.2029 33.5578 26.8855C33.5578 27.5682 33.2866 28.2229 32.8039 28.7056C32.3212 29.1883 31.6664 29.4595 30.9838 29.4595ZM23.3758 25.3925C22.9951 25.4166 22.638 25.5848 22.3769 25.8629C22.1159 26.141 21.9706 26.5081 21.9706 26.8895C21.9706 27.2709 22.1159 27.638 22.3769 27.9161C22.638 28.1942 22.9951 28.3624 23.3758 28.3865H30.9848C31.3654 28.3624 31.7226 28.1942 31.9836 27.9161C32.2447 27.638 32.39 27.2709 32.39 26.8895C32.39 26.5081 32.2447 26.141 31.9836 25.8629C31.7226 25.5848 31.3654 25.4166 30.9848 25.3925H23.3758Z" fill="#111111"/>
<path d="M30.9829 32.9899H23.3749C23.1076 32.9902 22.8428 32.9378 22.5957 32.8357C22.3487 32.7336 22.1242 32.5838 21.935 32.3949C21.7458 32.206 21.5957 31.9817 21.4933 31.7348C21.3908 31.4879 21.338 31.2232 21.3379 30.9559C21.3379 30.6887 21.3905 30.424 21.4928 30.1771C21.5951 29.9302 21.745 29.7059 21.9339 29.5169C22.1229 29.328 22.3472 29.1781 22.5941 29.0758C22.841 28.9735 23.1057 28.9209 23.3729 28.9209H30.9819C31.5137 28.9327 32.0197 29.1522 32.3916 29.5325C32.7635 29.9127 32.9718 30.4235 32.9718 30.9554C32.9718 31.4873 32.7635 31.9981 32.3916 32.3783C32.0197 32.7586 31.5147 32.9781 30.9829 32.9899Z" fill="#FEE456"/>
<path d="M30.9838 33.5298H23.3748C22.6922 33.5298 22.0377 33.2587 21.555 32.7761C21.0724 32.2934 20.8013 31.6388 20.8013 30.9563C20.8013 30.2738 21.0724 29.6192 21.555 29.1366C22.0377 28.6539 22.6922 28.3828 23.3748 28.3828H30.9838C31.6663 28.3828 32.3209 28.6539 32.8035 29.1366C33.2861 29.6192 33.5573 30.2738 33.5573 30.9563C33.5573 31.6388 33.2861 32.2934 32.8035 32.7761C32.3209 33.2587 31.6663 33.5298 30.9838 33.5298ZM23.3748 29.4608C23.1691 29.4458 22.9626 29.4733 22.768 29.5416C22.5735 29.61 22.3951 29.7177 22.2441 29.8581C22.093 29.9985 21.9726 30.1685 21.8902 30.3576C21.8078 30.5466 21.7653 30.7506 21.7653 30.9568C21.7653 31.163 21.8078 31.367 21.8902 31.556C21.9726 31.7451 22.093 31.9151 22.2441 32.0555C22.3951 32.1959 22.5735 32.3036 22.768 32.372C22.9626 32.4403 23.1691 32.4679 23.3748 32.4528H30.9838C31.1894 32.4679 31.396 32.4403 31.5905 32.372C31.7851 32.3036 31.9634 32.1959 32.1145 32.0555C32.2655 31.9151 32.386 31.7451 32.4683 31.556C32.5507 31.367 32.5932 31.163 32.5932 30.9568C32.5932 30.7506 32.5507 30.5466 32.4683 30.3576C32.386 30.1685 32.2655 29.9985 32.1145 29.8581C31.9634 29.7177 31.7851 29.61 31.5905 29.5416C31.396 29.4733 31.1894 29.4458 30.9838 29.4608H23.3748Z" fill="#111111"/>
</svg>
