<svg width="36" height="36" viewBox="0 0 36 36" fill="none" xmlns="http://www.w3.org/2000/svg">
<path d="M10.883 31.7411H5.33997V27.0551C5.33997 26.6636 5.49547 26.2882 5.77228 26.0114C6.04908 25.7346 6.42451 25.5791 6.81597 25.5791H9.41097C9.80173 25.5802 10.1761 25.7361 10.4521 26.0128C10.728 26.2895 10.883 26.6643 10.883 27.0551V31.7411Z" fill="white"/>
<path d="M10.8907 32.2309H5.33966C5.20917 32.2309 5.08403 32.1791 4.99176 32.0868C4.89949 31.9946 4.84766 31.8694 4.84766 31.7389V27.0539C4.84819 26.5322 5.0557 26.0319 5.42465 25.6629C5.79361 25.294 6.29387 25.0865 6.81566 25.0859H9.40966C9.93144 25.0865 10.4317 25.294 10.8007 25.6629C11.1696 26.0319 11.3771 26.5322 11.3777 27.0539V31.7399C11.3777 31.8704 11.3258 31.9956 11.2336 32.0878C11.1413 32.1801 11.0161 32.2319 10.8857 32.2319M5.83166 31.2479H10.3907V27.0539C10.3904 26.793 10.2866 26.5429 10.1022 26.3584C9.91768 26.174 9.66755 26.0702 9.40666 26.0699H6.81566C6.55476 26.0702 6.30463 26.174 6.12016 26.3584C5.93568 26.5429 5.83192 26.793 5.83166 27.0539V31.2479Z" fill="#111111"/>
<path d="M20.129 31.738H14.583V20.893C14.583 20.5015 14.7385 20.1261 15.0153 19.8493C15.2921 19.5725 15.6675 19.417 16.059 19.417H18.654C19.0455 19.417 19.4209 19.5725 19.6977 19.8493C19.9745 20.1261 20.13 20.5015 20.13 20.893L20.129 31.738Z" fill="white"/>
<path d="M20.1289 32.2318H14.5829C14.4525 32.2318 14.3273 32.18 14.235 32.0877C14.1428 31.9955 14.0909 31.8703 14.0909 31.7398V20.8918C14.0915 20.37 14.299 19.8698 14.6679 19.5008C15.0369 19.1319 15.5372 18.9244 16.0589 18.9238H18.6539C19.1757 18.9244 19.676 19.1319 20.0449 19.5008C20.4139 19.8698 20.6214 20.37 20.6219 20.8918V31.7398C20.6219 31.8044 20.6092 31.8684 20.5845 31.9281C20.5598 31.9878 20.5235 32.042 20.4778 32.0877C20.4322 32.1334 20.3779 32.1696 20.3182 32.1944C20.2585 32.2191 20.1946 32.2318 20.1299 32.2318M15.0749 31.2458H19.6369V20.8918C19.6367 20.6309 19.5329 20.3808 19.3484 20.1963C19.164 20.0118 18.9138 19.9081 18.6529 19.9078H16.0589C15.798 19.9081 15.5479 20.0118 15.3634 20.1963C15.179 20.3808 15.0752 20.6309 15.0749 20.8918V31.2458Z" fill="#111111"/>
<path d="M8.25 21.2998C9.2165 21.2998 10 20.5163 10 19.5498C10 18.5833 9.2165 17.7998 8.25 17.7998C7.2835 17.7998 6.5 18.5833 6.5 19.5498C6.5 20.5163 7.2835 21.2998 8.25 21.2998Z" fill="white"/>
<path d="M17.551 14.2998C18.5175 14.2998 19.301 13.5163 19.301 12.5498C19.301 11.5833 18.5175 10.7998 17.551 10.7998C16.5845 10.7998 15.801 11.5833 15.801 12.5498C15.801 13.5163 16.5845 14.2998 17.551 14.2998Z" fill="white"/>
<path d="M26.949 7.5C27.9155 7.5 28.699 6.7165 28.699 5.75C28.699 4.7835 27.9155 4 26.949 4C25.9825 4 25.199 4.7835 25.199 5.75C25.199 6.7165 25.9825 7.5 26.949 7.5Z" fill="white"/>
<path d="M32.023 32.233H3.492C3.36151 32.233 3.23637 32.1812 3.1441 32.0889C3.05184 31.9967 3 31.8715 3 31.741C3 31.6105 3.05184 31.4854 3.1441 31.3931C3.23637 31.3009 3.36151 31.249 3.492 31.249H32.023C32.1535 31.249 32.2786 31.3009 32.3709 31.3931C32.4632 31.4854 32.515 31.6105 32.515 31.741C32.515 31.8715 32.4632 31.9967 32.3709 32.0889C32.2786 32.1812 32.1535 32.233 32.023 32.233Z" fill="#111111"/>
<path d="M8.31603 21.426C7.89883 21.426 7.49099 21.3023 7.14413 21.0704C6.79726 20.8386 6.52694 20.5091 6.36738 20.1236C6.20781 19.7381 6.16616 19.314 6.2477 18.9048C6.32924 18.4957 6.5303 18.1199 6.82545 17.825C7.1206 17.5301 7.49658 17.3294 7.90581 17.2483C8.31505 17.1671 8.73916 17.2092 9.1245 17.3691C9.50983 17.5291 9.83907 17.7997 10.0706 18.1468C10.3021 18.4939 10.4254 18.9018 10.425 19.319C10.424 19.8778 10.2014 20.4135 9.80603 20.8084C9.41069 21.2034 8.87486 21.4255 8.31603 21.426ZM8.31603 18.193C8.09357 18.193 7.8761 18.259 7.69112 18.3825C7.50614 18.5061 7.36194 18.6817 7.27676 18.8873C7.19159 19.0928 7.16925 19.3189 7.21258 19.5371C7.2559 19.7553 7.36295 19.9558 7.52018 20.1131C7.67742 20.2705 7.87778 20.3777 8.09594 20.4213C8.31411 20.4648 8.54027 20.4427 8.74586 20.3577C8.95144 20.2727 9.12721 20.1286 9.25095 19.9438C9.37469 19.7589 9.44083 19.5415 9.44103 19.319C9.44103 19.0205 9.32254 18.7343 9.11159 18.5232C8.90064 18.312 8.61449 18.1933 8.31603 18.193Z" fill="#111111"/>
<path d="M17.356 14.4875C16.9388 14.4877 16.5309 14.3642 16.1839 14.1325C15.8369 13.9009 15.5665 13.5715 15.4067 13.1861C15.247 12.8007 15.2051 12.3765 15.2864 11.9673C15.3678 11.5581 15.5687 11.1823 15.8637 10.8872C16.1587 10.5922 16.5346 10.3914 16.9438 10.31C17.353 10.2287 17.7771 10.2705 18.1625 10.4303C18.5479 10.59 18.8773 10.8605 19.109 11.2075C19.3406 11.5544 19.4642 11.9623 19.464 12.3795C19.4632 12.9384 19.2408 13.4741 18.8457 13.8692C18.4505 14.2644 17.9148 14.4867 17.356 14.4875ZM17.356 11.2545C17.1334 11.2543 16.9158 11.3201 16.7307 11.4436C16.5455 11.5671 16.4012 11.7428 16.3159 11.9483C16.2306 12.1539 16.2082 12.3801 16.2515 12.5984C16.2948 12.8167 16.4018 13.0172 16.5591 13.1747C16.7164 13.3321 16.9169 13.4394 17.1351 13.4828C17.3534 13.5263 17.5796 13.5041 17.7853 13.419C17.9909 13.3339 18.1666 13.1897 18.2903 13.0047C18.414 12.8196 18.48 12.6021 18.48 12.3795C18.4797 12.0814 18.3612 11.7956 18.1505 11.5847C17.9398 11.3738 17.6541 11.2551 17.356 11.2545Z" fill="#111111"/>
<path d="M26.7915 7.42889C26.3748 7.4283 25.9675 7.30419 25.6213 7.07224C25.2751 6.84029 25.0053 6.51092 24.8462 6.12574C24.6871 5.74056 24.6457 5.31686 24.7273 4.90817C24.8089 4.49948 25.0098 4.12415 25.3046 3.8296C25.5995 3.53506 25.975 3.33451 26.3838 3.2533C26.7925 3.17209 27.2162 3.21387 27.6012 3.37335C27.9862 3.53284 28.3154 3.80287 28.547 4.14933C28.7786 4.49579 28.9023 4.90314 28.9025 5.31989C28.9017 5.87872 28.6794 6.41444 28.2842 6.80959C27.8891 7.20475 27.3534 7.4271 26.7945 7.42789M26.7945 4.19489C26.5723 4.19509 26.355 4.26118 26.1703 4.3848C25.9856 4.50843 25.8417 4.68404 25.7568 4.88945C25.6719 5.09485 25.6498 5.32081 25.6932 5.53878C25.7367 5.75675 25.8439 5.95694 26.0011 6.11403C26.1583 6.27112 26.3586 6.37808 26.5766 6.42136C26.7946 6.46465 27.0206 6.44234 27.2259 6.35723C27.4312 6.27213 27.6067 6.12807 27.7302 5.94325C27.8536 5.75843 27.9195 5.54115 27.9195 5.31889C27.919 5.02078 27.8003 4.73504 27.5894 4.52433C27.3785 4.31363 27.0926 4.19515 26.7945 4.19489Z" fill="#111111"/>
<mask id="path-12-inside-1_262_10404" fill="white">
<path d="M9.934 18.8255C9.83149 18.8253 9.73163 18.793 9.64835 18.7333C9.56507 18.6735 9.50254 18.5892 9.4695 18.4921C9.43646 18.3951 9.43455 18.2902 9.46404 18.192C9.49353 18.0938 9.55295 18.0073 9.634 17.9446L15.44 13.4325C15.5437 13.3633 15.6697 13.3359 15.7928 13.3561C15.9158 13.3762 16.0266 13.4422 16.1028 13.5409C16.179 13.6396 16.2149 13.7635 16.2032 13.8876C16.1916 14.0117 16.1332 14.1268 16.04 14.2095L10.235 18.7256C10.1488 18.7911 10.0433 18.8263 9.935 18.8255"/>
</mask>
<path d="M9.934 18.8255C9.83149 18.8253 9.73163 18.793 9.64835 18.7333C9.56507 18.6735 9.50254 18.5892 9.4695 18.4921C9.43646 18.3951 9.43455 18.2902 9.46404 18.192C9.49353 18.0938 9.55295 18.0073 9.634 17.9446L15.44 13.4325C15.5437 13.3633 15.6697 13.3359 15.7928 13.3561C15.9158 13.3762 16.0266 13.4422 16.1028 13.5409C16.179 13.6396 16.2149 13.7635 16.2032 13.8876C16.1916 14.0117 16.1332 14.1268 16.04 14.2095L10.235 18.7256C10.1488 18.7911 10.0433 18.8263 9.935 18.8255" fill="#212121"/>
<path d="M9.634 17.9446L10.2463 18.7352L10.2476 18.7342L9.634 17.9446ZM15.44 13.4325L14.8844 12.6011L14.8546 12.621L14.8264 12.6429L15.44 13.4325ZM16.04 14.2095L16.654 14.9988L16.6796 14.9789L16.7039 14.9574L16.04 14.2095ZM10.235 18.7256L10.8405 19.5215L10.849 19.5148L10.235 18.7256ZM9.934 18.8255L9.93651 17.8256C10.0423 17.8258 10.1455 17.8591 10.2315 17.9209L9.64835 18.7333L9.06524 19.5456C9.31779 19.7269 9.62065 19.8248 9.9315 19.8255L9.934 18.8255ZM9.64835 18.7333L10.2315 17.9209C10.3174 17.9826 10.382 18.0696 10.4161 18.1698L9.4695 18.4921L8.52288 18.8145C8.62308 19.1088 8.8127 19.3644 9.06524 19.5456L9.64835 18.7333ZM9.4695 18.4921L10.4161 18.1698C10.4502 18.27 10.4522 18.3783 10.4218 18.4797L9.46404 18.192L8.50632 17.9043C8.41689 18.202 8.42267 18.5202 8.52288 18.8145L9.4695 18.4921ZM9.46404 18.192L10.4218 18.4797C10.3913 18.5811 10.33 18.6704 10.2463 18.7352L9.634 17.9446L9.02174 17.1539C8.77596 17.3442 8.59576 17.6066 8.50632 17.9043L9.46404 18.192ZM9.634 17.9446L10.2476 18.7342L16.0536 14.2222L15.44 13.4325L14.8264 12.6429L9.02038 17.1549L9.634 17.9446ZM15.44 13.4325L15.9956 14.264C15.8886 14.3355 15.7584 14.3637 15.6314 14.343L15.7928 13.3561L15.9541 12.3692C15.581 12.3082 15.1987 12.3911 14.8844 12.6011L15.44 13.4325ZM15.7928 13.3561L15.6314 14.343C15.5044 14.3222 15.39 14.254 15.3113 14.1521L16.1028 13.5409L16.8943 12.9297C16.6632 12.6305 16.3272 12.4302 15.9541 12.3692L15.7928 13.3561ZM16.1028 13.5409L15.3113 14.1521C15.2326 14.0502 15.1956 13.9223 15.2076 13.7941L16.2032 13.8876L17.1988 13.9811C17.2342 13.6047 17.1253 13.2289 16.8943 12.9297L16.1028 13.5409ZM16.2032 13.8876L15.2076 13.7941C15.2196 13.666 15.2799 13.5472 15.3761 13.4617L16.04 14.2095L16.7039 14.9574C16.9866 14.7064 17.1635 14.3575 17.1988 13.9811L16.2032 13.8876ZM16.04 14.2095L15.426 13.4203L9.62098 17.9363L10.235 18.7256L10.849 19.5148L16.654 14.9988L16.04 14.2095ZM10.235 18.7256L9.62957 17.9297C9.71929 17.8614 9.8291 17.8248 9.94181 17.8256L9.935 18.8255L9.92819 19.8255C10.2575 19.8278 10.5783 19.7208 10.8404 19.5214L10.235 18.7256Z" fill="white" mask="url(#path-12-inside-1_262_10404)"/>
<mask id="path-14-inside-2_262_10404" fill="white">
<path d="M18.974 11.743C18.872 11.7431 18.7726 11.7115 18.6893 11.6526C18.6061 11.5937 18.5432 11.5104 18.5094 11.4142C18.4756 11.318 18.4725 11.2137 18.5005 11.1157C18.5286 11.0177 18.5864 10.9308 18.666 10.867L24.866 5.88804C24.9161 5.84582 24.9742 5.81406 25.0368 5.79461C25.0995 5.77516 25.1653 5.76842 25.2306 5.77479C25.2958 5.78115 25.3591 5.8005 25.4168 5.83168C25.4745 5.86287 25.5253 5.90526 25.5664 5.95638C25.6075 6.0075 25.6379 6.0663 25.6559 6.12934C25.6739 6.19238 25.6791 6.25839 25.6712 6.32348C25.6634 6.38856 25.6426 6.45142 25.6101 6.50836C25.5776 6.5653 25.534 6.61517 25.482 6.65504L19.282 11.634C19.195 11.704 19.0866 11.7421 18.975 11.742"/>
</mask>
<path d="M18.974 11.743C18.872 11.7431 18.7726 11.7115 18.6893 11.6526C18.6061 11.5937 18.5432 11.5104 18.5094 11.4142C18.4756 11.318 18.4725 11.2137 18.5005 11.1157C18.5286 11.0177 18.5864 10.9308 18.666 10.867L24.866 5.88804C24.9161 5.84582 24.9742 5.81406 25.0368 5.79461C25.0995 5.77516 25.1653 5.76842 25.2306 5.77479C25.2958 5.78115 25.3591 5.8005 25.4168 5.83168C25.4745 5.86287 25.5253 5.90526 25.5664 5.95638C25.6075 6.0075 25.6379 6.0663 25.6559 6.12934C25.6739 6.19238 25.6791 6.25839 25.6712 6.32348C25.6634 6.38856 25.6426 6.45142 25.6101 6.50836C25.5776 6.5653 25.534 6.61517 25.482 6.65504L19.282 11.634C19.195 11.704 19.0866 11.7421 18.975 11.742" fill="#212121"/>
<path d="M18.666 10.867L19.2912 11.6475L19.2921 11.6467L18.666 10.867ZM24.866 5.88804L25.4921 6.66774L25.5011 6.66053L25.5099 6.65312L24.866 5.88804ZM25.482 6.65504L24.8739 5.86118L24.8648 5.86816L24.8558 5.87534L25.482 6.65504ZM19.282 11.634L18.6558 10.8543L18.6551 10.8549L19.282 11.634ZM18.974 11.743L18.9731 10.743C19.0784 10.7429 19.1811 10.7756 19.267 10.8364L18.6893 11.6526L18.1116 12.4689C18.364 12.6475 18.6656 12.7433 18.9748 12.743L18.974 11.743ZM18.6893 11.6526L19.267 10.8364C19.353 10.8972 19.4179 10.9832 19.4528 11.0825L18.5094 11.4142L17.566 11.7459C17.6686 12.0376 17.8592 12.2902 18.1116 12.4689L18.6893 11.6526ZM18.5094 11.4142L19.4528 11.0825C19.4877 11.1819 19.4909 11.2896 19.462 11.3908L18.5005 11.1157L17.5391 10.8406C17.4541 11.1379 17.4635 11.4542 17.566 11.7459L18.5094 11.4142ZM18.5005 11.1157L19.462 11.3908C19.433 11.492 19.3733 11.5817 19.2912 11.6475L18.666 10.867L18.0408 10.0866C17.7995 10.2798 17.6242 10.5433 17.5391 10.8406L18.5005 11.1157ZM18.666 10.867L19.2921 11.6467L25.4921 6.66774L24.866 5.88804L24.2398 5.10834L18.0398 10.0873L18.666 10.867ZM24.866 5.88804L25.5099 6.65312C25.4581 6.69672 25.3981 6.72952 25.3335 6.74959L25.0368 5.79461L24.7402 4.83962C24.5503 4.8986 24.3742 4.99492 24.2221 5.12295L24.866 5.88804ZM25.0368 5.79461L25.3335 6.74959C25.2688 6.76968 25.2008 6.77663 25.1335 6.77006L25.2306 5.77479L25.3277 4.77951C25.1298 4.76021 24.9301 4.78064 24.7402 4.83962L25.0368 5.79461ZM25.2306 5.77479L25.1335 6.77006C25.0661 6.76349 25.0007 6.74351 24.9412 6.71131L25.4168 5.83168L25.8925 4.95205C25.7176 4.85749 25.5256 4.79882 25.3277 4.77951L25.2306 5.77479ZM25.4168 5.83168L24.9412 6.71131C24.8816 6.67912 24.8291 6.63535 24.7867 6.58256L25.5664 5.95638L26.3461 5.3302C26.2216 5.17517 26.0673 5.04661 25.8925 4.95205L25.4168 5.83168ZM25.5664 5.95638L24.7867 6.58256C24.7443 6.52978 24.7129 6.46906 24.6943 6.40397L25.6559 6.12934L26.6174 5.85472C26.5628 5.66354 26.4706 5.48521 26.3461 5.3302L25.5664 5.95638ZM25.6559 6.12934L24.6943 6.40397C24.6757 6.33885 24.6703 6.2707 24.6785 6.20353L25.6712 6.32348L26.664 6.44343C26.6879 6.24608 26.672 6.04592 26.6174 5.85472L25.6559 6.12934ZM25.6712 6.32348L24.6785 6.20353C24.6866 6.13634 24.708 6.07143 24.7416 6.01263L25.6101 6.50836L26.4786 7.0041C26.5771 6.83142 26.6402 6.64079 26.664 6.44343L25.6712 6.32348ZM25.6101 6.50836L24.7416 6.01263C24.7752 5.95384 24.8201 5.90235 24.8739 5.86118L25.482 6.65504L26.0901 7.4489C26.2479 7.32799 26.38 7.17677 26.4786 7.0041L25.6101 6.50836ZM25.482 6.65504L24.8558 5.87534L18.6558 10.8543L19.282 11.634L19.9081 12.4137L26.1081 7.43474L25.482 6.65504ZM19.282 11.634L18.6551 10.8549C18.746 10.7818 18.8593 10.7419 18.9759 10.742L18.975 11.742L18.974 12.742C19.314 12.7424 19.6439 12.6263 19.9088 12.4132L19.282 11.634Z" fill="white" mask="url(#path-14-inside-2_262_10404)"/>
<path d="M29.4747 31.74H23.9287V12.019C23.9287 11.6275 24.0842 11.2521 24.361 10.9753C24.6378 10.6985 25.0132 10.543 25.4047 10.543H27.9997C28.3912 10.543 28.7666 10.6985 29.0434 10.9753C29.3202 11.2521 29.4757 11.6275 29.4757 12.019L29.4747 31.74Z" fill="#B9B5EF"/>
<path d="M29.9665 32.2328H23.4365V12.0188C23.4371 11.497 23.6446 10.9967 24.0135 10.6278C24.3825 10.2588 24.8827 10.0513 25.4045 10.0508H27.9995C28.5213 10.0513 29.0216 10.2588 29.3905 10.6278C29.7595 10.9967 29.967 11.497 29.9675 12.0188L29.9665 32.2328ZM24.4205 31.2488H28.9825V12.0188C28.9823 11.7579 28.8785 11.5078 28.694 11.3233C28.5095 11.1388 28.2594 11.035 27.9985 11.0348H25.4045C25.1436 11.035 24.8935 11.1388 24.709 11.3233C24.5245 11.5078 24.4208 11.7579 24.4205 12.0188V31.2488Z" fill="#111111"/>
<path d="M30.9141 3.58789H21.9141C21.3836 3.58789 20.8749 3.7986 20.4998 4.17368C20.1248 4.54875 19.9141 5.05746 19.9141 5.58789V12.1749C19.9141 12.7053 20.1248 13.214 20.4998 13.5891C20.8749 13.9642 21.3836 14.1749 21.9141 14.1749H25.2951L26.5221 16.3399L27.6741 14.1749H30.9141C31.4445 14.1749 31.9532 13.9642 32.3283 13.5891C32.7033 13.214 32.9141 12.7053 32.9141 12.1749V5.58789C32.9141 5.05746 32.7033 4.54875 32.3283 4.17368C31.9532 3.7986 31.4445 3.58789 30.9141 3.58789Z" fill="white"/>
<path d="M26.52 16.8327C26.433 16.8327 26.3475 16.8097 26.2724 16.766C26.1972 16.7222 26.1349 16.6593 26.092 16.5837L25.006 14.6677H21.912C21.2512 14.6661 20.6179 14.403 20.1505 13.9358C19.6832 13.4687 19.4198 12.8355 19.418 12.1747V5.5887C19.4198 4.92791 19.6832 4.29473 20.1505 3.82757C20.6179 3.36042 21.2512 3.09729 21.912 3.0957H30.912C31.5728 3.09729 32.206 3.36042 32.6734 3.82757C33.1407 4.29473 33.4041 4.92791 33.406 5.5887V12.1747C33.4041 12.8355 33.1407 13.4687 32.6734 13.9358C32.206 14.403 31.5728 14.6661 30.912 14.6677H27.967L26.954 16.5677C26.9127 16.6455 26.8513 16.7108 26.7762 16.7567C26.7011 16.8026 26.615 16.8275 26.527 16.8287L26.52 16.8327ZM21.912 4.0797C21.5117 4.08023 21.1279 4.23949 20.8448 4.52256C20.5618 4.80562 20.4025 5.18939 20.402 5.5897V12.1747C20.4025 12.575 20.5618 12.9588 20.8448 13.2418C21.1279 13.5249 21.5117 13.6842 21.912 13.6847H25.293C25.38 13.6847 25.4654 13.7077 25.5406 13.7514C25.6158 13.7952 25.678 13.8581 25.721 13.9337L26.506 15.3197L27.237 13.9457C27.2789 13.8669 27.3414 13.801 27.4178 13.7551C27.4943 13.7091 27.5818 13.6848 27.671 13.6847H30.913C31.3135 13.6844 31.6975 13.5253 31.9808 13.2422C32.264 12.9591 32.4234 12.5752 32.424 12.1747V5.5887C32.4232 5.18856 32.2638 4.80505 31.9808 4.5222C31.6977 4.23935 31.3141 4.08023 30.914 4.0797H21.912Z" fill="#111111"/>
<path d="M26.4766 10.2084C26.344 10.2084 26.2168 10.1557 26.123 10.062C26.0292 9.96819 25.9766 9.84101 25.9766 9.70841V6.00841C25.9766 5.8746 26.0297 5.74628 26.1243 5.65167C26.2189 5.55706 26.3473 5.50391 26.4811 5.50391C26.6149 5.50391 26.7432 5.55706 26.8378 5.65167C26.9324 5.74628 26.9856 5.8746 26.9856 6.00841V9.70841C26.9856 9.84101 26.9329 9.96819 26.8391 10.062C26.7453 10.1557 26.6182 10.2084 26.4856 10.2084" fill="#111111"/>
<path d="M26.9756 11.7256C26.9756 11.8245 26.9463 11.9211 26.8913 12.0034C26.8364 12.0856 26.7583 12.1497 26.6669 12.1875C26.5756 12.2254 26.475 12.2353 26.378 12.216C26.2811 12.1967 26.192 12.1491 26.122 12.0791C26.0521 12.0092 26.0045 11.9201 25.9852 11.8231C25.9659 11.7261 25.9758 11.6256 26.0136 11.5342C26.0515 11.4429 26.1156 11.3648 26.1978 11.3099C26.28 11.2549 26.3767 11.2256 26.4756 11.2256C26.6082 11.2256 26.7354 11.2783 26.8291 11.372C26.9229 11.4658 26.9756 11.593 26.9756 11.7256Z" fill="#111111"/>
</svg>
