<svg width="36" height="36" viewBox="0 0 36 36" fill="none" xmlns="http://www.w3.org/2000/svg">
<path d="M13.5001 20.0154C13.5001 20.4011 13.3857 20.7781 13.1715 21.0988C12.9572 21.4195 12.6526 21.6694 12.2963 21.817C11.94 21.9646 11.5479 22.0032 11.1697 21.928C10.7914 21.8527 10.444 21.667 10.1712 21.3943C9.89853 21.1216 9.71281 20.7741 9.63757 20.3959C9.56233 20.0176 9.60094 19.6255 9.74853 19.2692C9.89612 18.9129 10.1461 18.6083 10.4667 18.3941C10.7874 18.1798 11.1644 18.0654 11.5501 18.0654C12.0673 18.0654 12.5633 18.2709 12.929 18.6366C13.2947 19.0023 13.5001 19.4983 13.5001 20.0154Z" fill="white"/>
<path d="M11.5479 21.9654C12.6249 21.9654 13.4979 21.0924 13.4979 20.0154C13.4979 18.9385 12.6249 18.0654 11.5479 18.0654C10.4709 18.0654 9.5979 18.9385 9.5979 20.0154C9.5979 21.0924 10.4709 21.9654 11.5479 21.9654Z" stroke="#111111" stroke-miterlimit="10"/>
<path d="M24.3071 12.3908C24.3071 12.7635 24.1966 13.1277 23.9896 13.4375C23.7825 13.7474 23.4883 13.9888 23.144 14.1314C22.7998 14.274 22.421 14.3113 22.0555 14.2386C21.6901 14.1659 21.3544 13.9865 21.0909 13.723C20.8274 13.4595 20.648 13.1238 20.5753 12.7584C20.5026 12.3929 20.5399 12.0141 20.6825 11.6699C20.8251 11.3256 21.0665 11.0314 21.3764 10.8243C21.6862 10.6173 22.0504 10.5068 22.4231 10.5068C22.9226 10.5071 23.4017 10.7057 23.755 11.0589C24.1082 11.4122 24.3068 11.8912 24.3071 12.3908Z" fill="white"/>
<path d="M22.4231 14.2748C23.4636 14.2748 24.3071 13.4313 24.3071 12.3908C24.3071 11.3503 23.4636 10.5068 22.4231 10.5068C21.3826 10.5068 20.5391 11.3503 20.5391 12.3908C20.5391 13.4313 21.3826 14.2748 22.4231 14.2748Z" stroke="#111111" stroke-miterlimit="10"/>
<path d="M30.848 24.8269H22.6C22.2553 24.8269 21.9246 24.6899 21.6808 24.4461C21.437 24.2023 21.3 23.8717 21.3 23.5269V22.3469C21.3 22.0021 21.437 21.6714 21.6808 21.4276C21.9246 21.1838 22.2553 21.0469 22.6 21.0469H30.844C31.1888 21.0469 31.5195 21.1838 31.7633 21.4276C32.0071 21.6714 32.144 22.0021 32.144 22.3469V23.5299C32.144 23.8747 32.0071 24.2053 31.7633 24.4491C31.5195 24.6929 31.1888 24.8299 30.844 24.8299" fill="#FEE456"/>
<path d="M30.8479 21.0498H22.6029C21.8866 21.0498 21.3059 21.6305 21.3059 22.3468V23.5298C21.3059 24.2461 21.8866 24.8268 22.6029 24.8268H30.8479C31.5642 24.8268 32.1449 24.2461 32.1449 23.5298V22.3468C32.1449 21.6305 31.5642 21.0498 30.8479 21.0498Z" stroke="#111111" stroke-linecap="round" stroke-linejoin="round"/>
<path d="M30.848 28.6002H22.6C22.2553 28.6002 21.9246 28.4632 21.6808 28.2194C21.437 27.9756 21.3 27.645 21.3 27.3002V26.1252C21.3 25.7804 21.437 25.4498 21.6808 25.206C21.9246 24.9622 22.2553 24.8252 22.6 24.8252H30.844C31.1888 24.8252 31.5195 24.9622 31.7633 25.206C32.0071 25.4498 32.144 25.7804 32.144 26.1252V27.3102C32.144 27.655 32.0071 27.9856 31.7633 28.2294C31.5195 28.4732 31.1888 28.6102 30.844 28.6102" fill="#FEE456"/>
<path d="M22.6059 24.8271H30.8479C31.0186 24.8271 31.1877 24.8608 31.3454 24.9261C31.5031 24.9914 31.6464 25.0872 31.7671 25.2079C31.8879 25.3286 31.9836 25.4719 32.049 25.6297C32.1143 25.7874 32.1479 25.9564 32.1479 26.1271V27.3071C32.1479 27.4779 32.1143 27.6469 32.049 27.8046C31.9836 27.9624 31.8879 28.1057 31.7671 28.2264C31.6464 28.3471 31.5031 28.4429 31.3454 28.5082C31.1877 28.5735 31.0186 28.6071 30.8479 28.6071H22.6059C22.2613 28.6071 21.9308 28.4703 21.687 28.2267C21.4433 27.9832 21.3062 27.6528 21.3059 27.3081V26.1271C21.3059 25.7824 21.4429 25.4517 21.6867 25.2079C21.9305 24.9641 22.2611 24.8271 22.6059 24.8271Z" stroke="#111111" stroke-linecap="round" stroke-linejoin="round"/>
<path d="M30.848 32.3816H22.6C22.2553 32.3816 21.9246 32.2446 21.6808 32.0008C21.437 31.757 21.3 31.4264 21.3 31.0816V29.8996C21.3 29.5548 21.437 29.2242 21.6808 28.9804C21.9246 28.7366 22.2553 28.5996 22.6 28.5996H30.845C31.1898 28.5996 31.5205 28.7366 31.7643 28.9804C32.0081 29.2242 32.1451 29.5548 32.1451 29.8996V31.0826C32.1451 31.4274 32.0081 31.7581 31.7643 32.0018C31.5205 32.2456 31.1898 32.3826 30.845 32.3826" fill="#FEE456"/>
<path d="M30.8479 28.6055H22.6029C21.8866 28.6055 21.3059 29.1862 21.3059 29.9025V31.0855C21.3059 31.8018 21.8866 32.3825 22.6029 32.3825H30.8479C31.5642 32.3825 32.1449 31.8018 32.1449 31.0855V29.9025C32.1449 29.1862 31.5642 28.6055 30.8479 28.6055Z" stroke="#111111" stroke-linecap="round" stroke-linejoin="round"/>
<path d="M27.961 31.2757H5.866C4.98707 31.2757 4.14415 30.9266 3.52265 30.3051C2.90115 29.6836 2.552 28.8407 2.552 27.9617V5.86673C2.552 4.98781 2.90115 4.14488 3.52265 3.52338C4.14415 2.90189 4.98707 2.55273 5.866 2.55273H27.961C28.8399 2.55273 29.6829 2.90189 30.3044 3.52338C30.9258 4.14488 31.275 4.98781 31.275 5.86673V27.9617C31.275 28.8407 30.9258 29.6836 30.3044 30.3051C29.6829 30.9266 28.8399 31.2757 27.961 31.2757Z" fill="white"/>
<path d="M27.961 31.827H5.867C4.84191 31.8259 3.85909 31.4183 3.13414 30.6936C2.4092 29.9688 2.00132 28.9861 2 27.961V5.867C2.00106 4.84173 2.40881 3.85876 3.13379 3.13379C3.85876 2.40881 4.84173 2.00106 5.867 2L27.961 2C28.9863 2.00106 29.9692 2.40881 30.6942 3.13379C31.4192 3.85876 31.8269 4.84173 31.828 5.867V27.961C31.8269 28.9863 31.4192 29.9692 30.6942 30.6942C29.9692 31.4192 28.9863 31.8259 27.961 31.827ZM5.867 3.1C5.50356 3.09974 5.14363 3.17113 4.8078 3.31009C4.47198 3.44905 4.16684 3.65286 3.90985 3.90985C3.65286 4.16684 3.44905 4.47198 3.31009 4.8078C3.17113 5.14363 3.09974 5.50356 3.1 5.867V27.961C3.10079 28.6933 3.39204 29.3953 3.90985 29.9132C4.42765 30.431 5.12972 30.7222 5.862 30.723H27.961C28.6933 30.7222 29.3953 30.431 29.9132 29.9132C30.431 29.3953 30.7222 28.6933 30.723 27.961V5.867C30.7235 5.13385 30.4329 4.4305 29.9149 3.91162C29.397 3.39273 28.6942 3.1008 27.961 3.1H5.867Z" fill="#111111"/>
<path d="M2.552 13.3229L10.452 19.7859L22.658 11.1689L31.275 16.1949" fill="white"/>
<path d="M10.4269 20.4796L2.20288 13.7506L2.90288 12.8956L10.4759 19.0956L22.6299 10.5166L31.5539 15.7226L30.9969 16.6756L22.6869 11.8276L10.4269 20.4796Z" fill="#111111"/>
<path d="M12.6051 19.7858C12.6051 20.2119 12.4788 20.6283 12.2421 20.9825C12.0054 21.3368 11.669 21.6128 11.2754 21.7759C10.8818 21.9389 10.4487 21.9816 10.0309 21.8984C9.61306 21.8153 9.22925 21.6102 8.92801 21.3089C8.62677 21.0077 8.42162 20.6239 8.33851 20.2061C8.2554 19.7882 8.29805 19.3551 8.46108 18.9615C8.62412 18.5679 8.9002 18.2315 9.25442 17.9949C9.60865 17.7582 10.0251 17.6318 10.4511 17.6318C11.0223 17.6321 11.57 17.8591 11.9739 18.263C12.3778 18.6669 12.6049 19.2146 12.6051 19.7858Z" fill="white"/>
<path d="M10.4521 22.4931C9.91672 22.4931 9.39335 22.3343 8.94819 22.0369C8.50303 21.7394 8.15606 21.3167 7.95118 20.822C7.74629 20.3274 7.69268 19.7831 7.79713 19.258C7.90158 18.7329 8.1594 18.2505 8.53798 17.872C8.91656 17.4934 9.3989 17.2356 9.92401 17.1311C10.4491 17.0267 10.9934 17.0803 11.488 17.2852C11.9827 17.49 12.4055 17.837 12.7029 18.2822C13.0004 18.7273 13.1591 19.2507 13.1591 19.7861C13.1583 20.5038 12.8729 21.1919 12.3654 21.6994C11.8579 22.2069 11.1698 22.4923 10.4521 22.4931ZM10.4521 18.1851C10.1357 18.1851 9.82632 18.2789 9.56321 18.4548C9.30009 18.6306 9.09501 18.8804 8.97391 19.1728C8.85281 19.4652 8.82113 19.7869 8.88286 20.0972C8.9446 20.4076 9.09698 20.6927 9.32075 20.9165C9.54451 21.1402 9.8296 21.2926 10.14 21.3544C10.4503 21.4161 10.7721 21.3844 11.0644 21.2633C11.3568 21.1422 11.6067 20.9371 11.7825 20.674C11.9583 20.4109 12.0521 20.1016 12.0521 19.7851C12.0521 19.3608 11.8835 18.9538 11.5835 18.6537C11.2834 18.3537 10.8765 18.1851 10.4521 18.1851Z" fill="#111111"/>
<path d="M24.546 11.3642C24.546 11.7758 24.424 12.1781 24.1953 12.5203C23.9667 12.8626 23.6416 13.1293 23.2614 13.2868C22.8811 13.4443 22.4627 13.4855 22.059 13.4052C21.6554 13.3249 21.2846 13.1267 20.9935 12.8357C20.7025 12.5447 20.5043 12.1739 20.424 11.7702C20.3437 11.3665 20.3849 10.9481 20.5424 10.5678C20.6999 10.1876 20.9667 9.86258 21.3089 9.63391C21.6511 9.40525 22.0534 9.2832 22.465 9.2832C23.0169 9.28347 23.546 9.5028 23.9362 9.89301C24.3264 10.2832 24.5458 10.8124 24.546 11.3642Z" fill="white"/>
<path d="M22.4641 13.9965C21.9431 13.9965 21.4338 13.842 21.0006 13.5525C20.5674 13.2631 20.2298 12.8516 20.0305 12.3703C19.8312 11.8889 19.779 11.3593 19.8808 10.8483C19.9825 10.3373 20.2334 9.86798 20.6019 9.49964C20.9704 9.13131 21.4398 8.88053 21.9508 8.77901C22.4618 8.67749 22.9915 8.72979 23.4728 8.9293C23.954 9.12882 24.3653 9.46658 24.6547 9.89987C24.944 10.3332 25.0983 10.8425 25.0981 11.3635C25.097 12.0617 24.8191 12.7309 24.3254 13.2245C23.8316 13.7181 23.1622 13.9957 22.4641 13.9965ZM22.4641 9.83352C22.1617 9.83352 21.8661 9.92319 21.6146 10.0912C21.3632 10.2592 21.1672 10.498 21.0515 10.7774C20.9357 11.0568 20.9055 11.3642 20.9645 11.6608C21.0235 11.9574 21.1691 12.2298 21.3829 12.4437C21.5967 12.6575 21.8692 12.8031 22.1658 12.8621C22.4624 12.9211 22.7698 12.8909 23.0492 12.7751C23.3286 12.6594 23.5674 12.4634 23.7354 12.212C23.9034 11.9605 23.9931 11.6649 23.9931 11.3625C23.9926 10.9572 23.8313 10.5686 23.5447 10.2819C23.258 9.99531 22.8694 9.83405 22.4641 9.83352Z" fill="#111111"/>
<path d="M31.115 25.1017H23.315C22.7618 25.1017 22.2312 24.8819 21.84 24.4907C21.4488 24.0995 21.229 23.569 21.229 23.0157C21.2289 22.7417 21.2827 22.4703 21.3875 22.2171C21.4923 21.9639 21.6459 21.7338 21.8396 21.54C22.0333 21.3462 22.2633 21.1925 22.5165 21.0876C22.7696 20.9827 23.041 20.9287 23.315 20.9287H31.115C31.6684 20.9287 32.1991 21.1485 32.5904 21.5398C32.9817 21.9311 33.2015 22.4618 33.2015 23.0152C33.2015 23.5686 32.9817 24.0993 32.5904 24.4906C32.1991 24.8819 31.6684 25.1017 31.115 25.1017Z" fill="#FEE456"/>
<path d="M31.1181 25.6545H23.3181C22.9672 25.6613 22.6186 25.5981 22.2925 25.4686C21.9664 25.339 21.6694 25.1458 21.4189 24.9001C21.1684 24.6544 20.9694 24.3612 20.8335 24.0377C20.6977 23.7142 20.6277 23.3668 20.6277 23.016C20.6277 22.6651 20.6977 22.3177 20.8335 21.9942C20.9694 21.6707 21.1684 21.3775 21.4189 21.1318C21.6694 20.8861 21.9664 20.6929 22.2925 20.5634C22.6186 20.4338 22.9672 20.3706 23.3181 20.3775H31.1181C31.8089 20.3909 32.467 20.6748 32.9508 21.1681C33.4347 21.6615 33.7057 22.3249 33.7057 23.016C33.7057 23.707 33.4347 24.3704 32.9508 24.8638C32.467 25.3571 31.8089 25.641 31.1181 25.6545ZM23.3181 21.4815C23.1166 21.4815 22.9171 21.5211 22.731 21.5982C22.5449 21.6753 22.3758 21.7883 22.2334 21.9308C22.0909 22.0732 21.9779 22.2423 21.9008 22.4284C21.8237 22.6145 21.7841 22.814 21.7841 23.0155C21.7841 23.2169 21.8237 23.4164 21.9008 23.6025C21.9779 23.7886 22.0909 23.9577 22.2334 24.1002C22.3758 24.2426 22.5449 24.3556 22.731 24.4327C22.9171 24.5098 23.1166 24.5495 23.3181 24.5495H31.1181C31.5249 24.5495 31.9151 24.3878 32.2028 24.1002C32.4904 23.8125 32.6521 23.4223 32.6521 23.0155C32.6521 22.6086 32.4904 22.2184 32.2028 21.9308C31.9151 21.6431 31.5249 21.4815 31.1181 21.4815H23.3181Z" fill="#111111"/>
<path d="M31.115 29.2786H23.315C22.7618 29.2786 22.2312 29.0588 21.84 28.6676C21.4488 28.2764 21.229 27.7458 21.229 27.1926C21.2284 26.9182 21.2818 26.6464 21.3864 26.3927C21.4909 26.1391 21.6444 25.9085 21.8382 25.7143C22.032 25.5201 22.2622 25.366 22.5156 25.2608C22.769 25.1557 23.0407 25.1016 23.315 25.1016H31.115C31.6683 25.1016 32.1988 25.3213 32.59 25.7125C32.9812 26.1037 33.201 26.6343 33.201 27.1876C33.2017 27.4619 33.1482 27.7337 33.0437 27.9874C32.9391 28.241 32.7856 28.4716 32.5918 28.6658C32.398 28.8601 32.1679 29.0142 31.9144 29.1193C31.661 29.2244 31.3894 29.2786 31.115 29.2786Z" fill="#FEE456"/>
<path d="M31.118 29.8259H23.318C22.6179 29.8259 21.9466 29.5478 21.4516 29.0528C20.9566 28.5578 20.6785 27.8864 20.6785 27.1864C20.6785 26.4863 20.9566 25.815 21.4516 25.32C21.9466 24.825 22.6179 24.5469 23.318 24.5469H31.118C31.818 24.5469 32.4894 24.825 32.9844 25.32C33.4794 25.815 33.7575 26.4863 33.7575 27.1864C33.7575 27.8864 33.4794 28.5578 32.9844 29.0528C32.4894 29.5478 31.818 29.8259 31.118 29.8259ZM23.318 25.6519C22.9178 25.6621 22.5374 25.8282 22.258 26.1149C21.9785 26.4016 21.8221 26.7861 21.8221 27.1864C21.8221 27.5867 21.9785 27.9712 22.258 28.2578C22.5374 28.5445 22.9178 28.7107 23.318 28.7209H31.118C31.5182 28.7107 31.8985 28.5445 32.178 28.2578C32.4574 27.9712 32.6138 27.5867 32.6138 27.1864C32.6138 26.7861 32.4574 26.4016 32.178 26.1149C31.8985 25.8282 31.5182 25.6621 31.118 25.6519H23.318Z" fill="#111111"/>
<path d="M31.115 33.4494H23.315C22.7618 33.4494 22.2312 33.2296 21.84 32.8384C21.4488 32.4472 21.229 31.9166 21.229 31.3634C21.2289 31.0893 21.2827 30.818 21.3875 30.5648C21.4923 30.3116 21.6459 30.0815 21.8396 29.8877C22.0333 29.6939 22.2633 29.5401 22.5165 29.4352C22.7696 29.3304 23.041 29.2764 23.315 29.2764H31.115C31.6684 29.2764 32.1991 29.4962 32.5904 29.8875C32.9817 30.2788 33.2015 30.8095 33.2015 31.3629C33.2015 31.9162 32.9817 32.447 32.5904 32.8382C32.1991 33.2295 31.6684 33.4494 31.115 33.4494Z" fill="#FEE456"/>
<path d="M31.1181 34.0002H23.3181C22.9672 34.007 22.6186 33.9438 22.2925 33.8143C21.9664 33.6847 21.6694 33.4915 21.4189 33.2458C21.1684 33.0001 20.9694 32.7069 20.8335 32.3834C20.6977 32.0599 20.6277 31.7125 20.6277 31.3617C20.6277 31.0108 20.6977 30.6634 20.8335 30.3399C20.9694 30.0164 21.1684 29.7232 21.4189 29.4775C21.6694 29.2318 21.9664 29.0386 22.2925 28.9091C22.6186 28.7795 22.9672 28.7163 23.3181 28.7232H31.1181C31.4689 28.7163 31.8175 28.7795 32.1436 28.9091C32.4697 29.0386 32.7667 29.2318 33.0172 29.4775C33.2677 29.7232 33.4667 30.0164 33.6026 30.3399C33.7385 30.6634 33.8084 31.0108 33.8084 31.3617C33.8084 31.7125 33.7385 32.0599 33.6026 32.3834C33.4667 32.7069 33.2677 33.0001 33.0172 33.2458C32.7667 33.4915 32.4697 33.6847 32.1436 33.8143C31.8175 33.9438 31.4689 34.007 31.1181 34.0002ZM23.3181 29.8272C22.9112 29.8272 22.521 29.9888 22.2334 30.2765C21.9457 30.5641 21.7841 30.9543 21.7841 31.3612C21.7841 31.768 21.9457 32.1582 22.2334 32.4459C22.521 32.7335 22.9112 32.8952 23.3181 32.8952H31.1181C31.5249 32.8952 31.9151 32.7335 32.2028 32.4459C32.4904 32.1582 32.6521 31.768 32.6521 31.3612C32.6521 30.9543 32.4904 30.5641 32.2028 30.2765C31.9151 29.9888 31.5249 29.8272 31.1181 29.8272H23.3181Z" fill="#111111"/>
</svg>
