<svg width="36" height="36" viewBox="0 0 36 36" fill="none" xmlns="http://www.w3.org/2000/svg">
<path d="M2.93311 2.33105H1.80811V33.6681H2.93311V2.33105Z" fill="#111111"/>
<path d="M34.0313 32.543H1.96826V33.668H34.0313V32.543Z" fill="#111111"/>
<path d="M12.9618 15.2013L8.74316 19.4199L9.53866 20.2154L13.7573 15.9968L12.9618 15.2013Z" fill="#111111"/>
<path d="M27.7273 15.6237L23.9302 19.4209L24.7257 20.2164L28.5228 16.4192L27.7273 15.6237Z" fill="#111111"/>
<path d="M17.2325 15.3022L16.437 16.0977L20.5545 20.2151L21.35 19.4196L17.2325 15.3022Z" fill="#111111"/>
<path d="M10.4062 21.9284C10.4068 22.4291 10.2589 22.9187 9.98115 23.3354C9.7034 23.752 9.30832 24.0768 8.84589 24.2689C8.38346 24.4609 7.87447 24.5114 7.38331 24.4141C6.89214 24.3168 6.44088 24.076 6.08661 23.7221C5.73235 23.3683 5.49099 22.9173 5.39309 22.4263C5.29519 21.9352 5.34514 21.4262 5.53661 20.9635C5.72809 20.5009 6.05249 20.1054 6.46878 19.8272C6.88506 19.5489 7.37453 19.4004 7.87524 19.4004C8.2077 19.4004 8.5369 19.4659 8.84404 19.5931C9.15118 19.7204 9.43024 19.9069 9.66528 20.1421C9.90032 20.3772 10.0867 20.6563 10.2139 20.9635C10.341 21.2707 10.4064 21.5999 10.4062 21.9324" fill="white"/>
<path d="M7.87527 25.021C7.26325 25.0212 6.66492 24.8399 6.15596 24.5C5.64701 24.1601 5.25028 23.6769 5.01598 23.1115C4.78168 22.5461 4.72033 21.9239 4.83968 21.3236C4.95903 20.7234 5.25372 20.172 5.68649 19.7392C6.11925 19.3065 6.67064 19.0118 7.27091 18.8924C7.87118 18.7731 8.49336 18.8344 9.05876 19.0687C9.62415 19.303 10.1074 19.6997 10.4473 20.2087C10.7872 20.7177 10.9685 21.316 10.9683 21.928C10.9664 22.7478 10.64 23.5334 10.0603 24.113C9.48066 24.6927 8.69502 25.0192 7.87527 25.021ZM7.87527 19.959C7.4858 19.9588 7.10502 20.0741 6.78108 20.2904C6.45715 20.5066 6.20463 20.814 6.05544 21.1738C5.90626 21.5336 5.86713 21.9295 5.94299 22.3115C6.01885 22.6935 6.2063 23.0445 6.48163 23.3199C6.75696 23.5954 7.1078 23.783 7.48977 23.8591C7.87175 23.9352 8.2677 23.8962 8.62755 23.7472C8.98739 23.5982 9.29497 23.3459 9.51137 23.022C9.72777 22.6982 9.84328 22.3175 9.84328 21.928C9.84275 21.4061 9.63527 20.9058 9.26634 20.5367C8.89741 20.1675 8.39715 19.9598 7.87527 19.959Z" fill="#111111"/>
<path d="M17.5781 13.9119C17.5781 14.4124 17.4297 14.9017 17.1516 15.3179C16.8736 15.7341 16.4783 16.0585 16.0159 16.2501C15.5535 16.4417 15.0446 16.4919 14.5537 16.3943C14.0628 16.2967 13.6118 16.0558 13.2578 15.7019C12.9038 15.348 12.6626 14.8971 12.5649 14.4062C12.4671 13.9153 12.5171 13.4065 12.7085 12.944C12.8999 12.4815 13.2241 12.0861 13.6402 11.8079C14.0563 11.5297 14.5456 11.3811 15.0461 11.3809C15.7175 11.3809 16.3613 11.6475 16.8362 12.1221C17.311 12.5967 17.5778 13.2405 17.5781 13.9119Z" fill="#B9B5EF"/>
<path d="M15.0461 17.0064C14.4342 17.0064 13.836 16.8249 13.3272 16.4849C12.8184 16.145 12.4218 15.6617 12.1877 15.0964C11.9535 14.531 11.8922 13.9089 12.0116 13.3088C12.131 12.7086 12.4257 12.1573 12.8584 11.7246C13.2911 11.2919 13.8424 10.9972 14.4425 10.8778C15.0427 10.7584 15.6648 10.8197 16.2302 11.0539C16.7955 11.2881 17.2787 11.6846 17.6187 12.1934C17.9587 12.7022 18.1401 13.3004 18.1401 13.9124C18.1386 14.7325 17.8121 15.5185 17.2322 16.0984C16.6523 16.6783 15.8662 17.0048 15.0461 17.0064ZM15.0461 11.9434C14.6567 11.9434 14.276 12.0588 13.9522 12.2752C13.6284 12.4916 13.3761 12.7991 13.227 13.1589C13.078 13.5186 13.039 13.9145 13.115 14.2965C13.191 14.6784 13.3785 15.0293 13.6539 15.3047C13.9292 15.58 14.2801 15.7676 14.662 15.8435C15.044 15.9195 15.4399 15.8805 15.7997 15.7315C16.1594 15.5825 16.467 15.3301 16.6833 15.0063C16.8997 14.6825 17.0151 14.3018 17.0151 13.9124C17.0146 13.3903 16.807 12.8898 16.4379 12.5207C16.0687 12.1515 15.5682 11.9439 15.0461 11.9434Z" fill="#111111"/>
<path d="M25.1709 21.4998C25.1709 22.0003 25.0225 22.4896 24.7444 22.9058C24.4663 23.322 24.0711 23.6464 23.6087 23.838C23.1463 24.0296 22.6374 24.0798 22.1465 23.9822C21.6555 23.8846 21.2046 23.6437 20.8506 23.2898C20.4965 22.9359 20.2554 22.485 20.1576 21.9941C20.0599 21.5032 20.1098 20.9944 20.3013 20.5319C20.4927 20.0694 20.8169 19.674 21.233 19.3958C21.6491 19.1176 22.1383 18.9689 22.6389 18.9688C23.3102 18.9687 23.9541 19.2354 24.4289 19.71C24.9037 20.1846 25.1706 20.8284 25.1709 21.4998Z" fill="#B9B5EF"/>
<path d="M22.6399 24.6001C22.028 24.6001 21.4298 24.4187 20.921 24.0787C20.4122 23.7387 20.0156 23.2555 19.7814 22.6901C19.5472 22.1248 19.486 21.5027 19.6053 20.9025C19.7247 20.3023 20.0194 19.751 20.4521 19.3183C20.8848 18.8856 21.4361 18.5909 22.0363 18.4716C22.6365 18.3522 23.2586 18.4134 23.8239 18.6476C24.3893 18.8818 24.8725 19.2784 25.2125 19.7872C25.5524 20.296 25.7339 20.8942 25.7339 21.5061C25.7323 22.3262 25.4058 23.1123 24.8259 23.6921C24.246 24.272 23.46 24.5985 22.6399 24.6001ZM22.6399 19.5371C22.2505 19.5371 21.8698 19.6526 21.546 19.8689C21.2222 20.0853 20.9698 20.3928 20.8208 20.7526C20.6718 21.1124 20.6328 21.5083 20.7087 21.8902C20.7847 22.2722 20.9722 22.623 21.2476 22.8984C21.523 23.1738 21.8738 23.3613 22.2558 23.4373C22.6377 23.5133 23.0336 23.4743 23.3934 23.3252C23.7532 23.1762 24.0607 22.9238 24.2771 22.6C24.4934 22.2762 24.6089 21.8955 24.6089 21.5061C24.6084 20.9841 24.4008 20.4835 24.0316 20.1144C23.6625 19.7453 23.1619 19.5376 22.6399 19.5371Z" fill="#111111"/>
<path d="M32.3443 14.3338C32.3439 14.8345 32.195 15.3238 31.9166 15.74C31.6381 16.1561 31.2425 16.4803 30.7798 16.6716C30.3171 16.863 29.8081 16.9128 29.3171 16.8149C28.8261 16.717 28.3751 16.4757 28.0212 16.1215C27.6673 15.7673 27.4263 15.3161 27.3288 14.825C27.2312 14.3339 27.2815 13.8249 27.4732 13.3624C27.6649 12.8998 27.9894 12.5045 28.4058 12.2264C28.8221 11.9483 29.3116 11.7998 29.8123 11.7998C30.4836 11.7998 31.1275 12.0664 31.6023 12.5411C32.0771 13.0157 32.344 13.6594 32.3443 14.3308" fill="white"/>
<path d="M29.8123 17.4273C29.2003 17.4273 28.6021 17.2458 28.0933 16.9058C27.5845 16.5659 27.188 16.0826 26.9538 15.5173C26.7196 14.9519 26.6583 14.3298 26.7777 13.7296C26.8971 13.1295 27.1918 12.5782 27.6245 12.1455C28.0572 11.7128 28.6085 11.4181 29.2087 11.2987C29.8088 11.1793 30.4309 11.2406 30.9963 11.4748C31.5616 11.709 32.0449 12.1055 32.3848 12.6143C32.7248 13.1231 32.9063 13.7213 32.9063 14.3333C32.9047 15.1534 32.5782 15.9394 31.9983 16.5193C31.4184 17.0992 30.6324 17.4257 29.8123 17.4273ZM29.8123 12.3653C29.4228 12.3653 29.0421 12.4808 28.7182 12.6972C28.3944 12.9136 28.142 13.2211 27.993 13.581C27.844 13.9408 27.8051 14.3368 27.8812 14.7188C27.9572 15.1007 28.1449 15.4516 28.4203 15.7269C28.6958 16.0022 29.0467 16.1897 29.4287 16.2655C29.8108 16.3414 30.2067 16.3023 30.5665 16.1531C30.9262 16.0039 31.2337 15.7514 31.4499 15.4274C31.6661 15.1035 31.7815 14.7227 31.7813 14.3333C31.7805 13.8114 31.5727 13.3111 31.2036 12.9422C30.8345 12.5733 30.3341 12.3658 29.8123 12.3653Z" fill="#111111"/>
</svg>
