<svg width="36" height="36" viewBox="0 0 36 36" fill="none" xmlns="http://www.w3.org/2000/svg">
<path d="M24.591 31H6.41098C5.56176 31.051 4.72679 30.7643 4.08804 30.2023C3.44929 29.6404 3.05855 28.8488 3.00098 28V7.99995C3.05855 7.15115 3.44929 6.35951 4.08804 5.79756C4.72679 5.23562 5.56176 4.94892 6.41098 4.99995H24.591C25.44 4.94919 26.2747 5.23601 26.9133 5.79793C27.5518 6.35985 27.9424 7.15133 28 7.99995V28C27.9424 28.8486 27.5518 29.6401 26.9133 30.202C26.2747 30.7639 25.44 31.0507 24.591 31Z" fill="white"/>
<path d="M22.501 31.5H6.50098C5.57272 31.5 4.68248 31.1313 4.0261 30.4749C3.36973 29.8185 3.00098 28.9283 3.00098 28V8C3.00098 7.07174 3.36973 6.1815 4.0261 5.52513C4.68248 4.86875 5.57272 4.5 6.50098 4.5H24.501C24.9606 4.5 25.4157 4.59053 25.8404 4.76642C26.265 4.94231 26.6508 5.20012 26.9758 5.52513C27.3009 5.85013 27.5587 6.23597 27.7346 6.66061C27.9104 7.08525 28.001 7.54037 28.001 8V28C28.001 28.4596 27.9104 28.9148 27.7346 29.3394C27.5587 29.764 27.3009 30.1499 26.9758 30.4749C26.6508 30.7999 26.265 31.0577 25.8404 31.2336C25.4157 31.4095 24.9606 31.5 24.501 31.5M6.50098 5.5C5.83793 5.5 5.20205 5.76339 4.73321 6.23223C4.26437 6.70107 4.00098 7.33696 4.00098 8V28C4.00098 28.663 4.26437 29.2989 4.73321 29.7678C5.20205 30.2366 5.83793 30.5 6.50098 30.5H24.501C25.164 30.5 25.7999 30.2366 26.2687 29.7678C26.7376 29.2989 27.001 28.663 27.001 28V8C27.001 7.33696 26.7376 6.70107 26.2687 6.23223C25.7999 5.76339 25.164 5.5 24.501 5.5H6.50098Z" fill="#111111"/>
<path d="M31.75 23.9873H24.25C23.7859 23.9873 23.3408 23.8029 23.0126 23.4747C22.6844 23.1466 22.5 22.7014 22.5 22.2373C22.5 21.7732 22.6844 21.3281 23.0126 20.9999C23.3408 20.6717 23.7859 20.4873 24.25 20.4873H31.75C32.2141 20.4873 32.6592 20.6717 32.9874 20.9999C33.3156 21.3281 33.5 21.7732 33.5 22.2373C33.5 22.7014 33.3156 23.1466 32.9874 23.4747C32.6592 23.8029 32.2141 23.9873 31.75 23.9873Z" fill="#FEE456"/>
<path d="M31.75 24.4883H24.25C23.6533 24.4883 23.081 24.2512 22.659 23.8293C22.2371 23.4073 22 22.835 22 22.2383C22 21.6415 22.2371 21.0692 22.659 20.6473C23.081 20.2253 23.6533 19.9883 24.25 19.9883H31.75C32.3467 19.9883 32.919 20.2253 33.341 20.6473C33.7629 21.0692 34 21.6415 34 22.2383C34 22.835 33.7629 23.4073 33.341 23.8293C32.919 24.2512 32.3467 24.4883 31.75 24.4883ZM24.25 20.9883C23.9185 20.9883 23.6005 21.12 23.3661 21.3544C23.1317 21.5888 23 21.9068 23 22.2383C23 22.5698 23.1317 22.8877 23.3661 23.1222C23.6005 23.3566 23.9185 23.4883 24.25 23.4883H31.75C32.0815 23.4883 32.3995 23.3566 32.6339 23.1222C32.8683 22.8877 33 22.5698 33 22.2383C33 21.9068 32.8683 21.5888 32.6339 21.3544C32.3995 21.12 32.0815 20.9883 31.75 20.9883H24.25Z" fill="#111111"/>
<path d="M31.75 27.5H24.25C23.7859 27.5 23.3408 27.3156 23.0126 26.9874C22.6844 26.6592 22.5 26.2141 22.5 25.75C22.5 25.2859 22.6844 24.8408 23.0126 24.5126C23.3408 24.1844 23.7859 24 24.25 24H31.75C32.2141 24 32.6592 24.1844 32.9874 24.5126C33.3156 24.8408 33.5 25.2859 33.5 25.75C33.5 26.2141 33.3156 26.6592 32.9874 26.9874C32.6592 27.3156 32.2141 27.5 31.75 27.5Z" fill="#FEE456"/>
<path d="M31.75 28H24.25C23.6533 28 23.081 27.7629 22.659 27.341C22.2371 26.919 22 26.3467 22 25.75C22 25.1533 22.2371 24.581 22.659 24.159C23.081 23.7371 23.6533 23.5 24.25 23.5H31.75C32.3467 23.5 32.919 23.7371 33.341 24.159C33.7629 24.581 34 25.1533 34 25.75C34 26.3467 33.7629 26.919 33.341 27.341C32.919 27.7629 32.3467 28 31.75 28ZM24.25 24.5C23.9185 24.5 23.6005 24.6317 23.3661 24.8661C23.1317 25.1005 23 25.4185 23 25.75C23 26.0815 23.1317 26.3995 23.3661 26.6339C23.6005 26.8683 23.9185 27 24.25 27H31.75C32.0815 27 32.3995 26.8683 32.6339 26.6339C32.8683 26.3995 33 26.0815 33 25.75C33 25.4185 32.8683 25.1005 32.6339 24.8661C32.3995 24.6317 32.0815 24.5 31.75 24.5H24.25Z" fill="#111111"/>
<path d="M31.75 31H24.25C23.7859 31 23.3408 30.8156 23.0126 30.4874C22.6844 30.1592 22.5 29.7141 22.5 29.25C22.5 28.7859 22.6844 28.3408 23.0126 28.0126C23.3408 27.6844 23.7859 27.5 24.25 27.5H31.75C32.2141 27.5 32.6592 27.6844 32.9874 28.0126C33.3156 28.3408 33.5 28.7859 33.5 29.25C33.5 29.7141 33.3156 30.1592 32.9874 30.4874C32.6592 30.8156 32.2141 31 31.75 31Z" fill="#FEE456"/>
<path d="M31.75 31.5H24.25C23.6533 31.5 23.081 31.2629 22.659 30.841C22.2371 30.419 22 29.8467 22 29.25C22 28.6533 22.2371 28.081 22.659 27.659C23.081 27.2371 23.6533 27 24.25 27H31.75C32.3467 27 32.919 27.2371 33.341 27.659C33.7629 28.081 34 28.6533 34 29.25C34 29.8467 33.7629 30.419 33.341 30.841C32.919 31.2629 32.3467 31.5 31.75 31.5ZM24.25 28C23.9185 28 23.6005 28.1317 23.3661 28.3661C23.1317 28.6005 23 28.9185 23 29.25C23 29.5815 23.1317 29.8995 23.3661 30.1339C23.6005 30.3683 23.9185 30.5 24.25 30.5H31.75C32.0815 30.5 32.3995 30.3683 32.6339 30.1339C32.8683 29.8995 33 29.5815 33 29.25C33 28.9185 32.8683 28.6005 32.6339 28.3661C32.3995 28.1317 32.0815 28 31.75 28H24.25Z" fill="#111111"/>
<path d="M11.3331 15.6208C11.1935 15.7781 11.0221 15.904 10.8302 15.9902C10.6384 16.0764 10.4304 16.1209 10.2201 16.1208C9.99327 16.1307 9.76718 16.0885 9.55917 15.9975C9.35117 15.9065 9.16676 15.7691 9.02009 15.5958C8.70944 15.2045 8.55132 14.7138 8.57509 14.2148C8.5719 13.8632 8.65065 13.5157 8.80509 13.1998C8.9468 12.9054 9.17085 12.6584 9.45009 12.4888C9.74316 12.3156 10.0788 12.2276 10.4191 12.2348C10.6809 12.2252 10.9413 12.2784 11.1784 12.3899C11.4155 12.5014 11.6225 12.668 11.7821 12.8758C12.1385 13.3742 12.3148 13.979 12.2821 14.5908V14.8568C12.3406 15.6954 12.0953 16.5271 11.5911 17.1998C11.3271 17.4808 11.0044 17.7 10.6458 17.8418C10.2873 17.9835 9.90185 18.0443 9.51709 18.0198H9.40009V17.2378H9.53709C10.0007 17.2627 10.458 17.1208 10.8261 16.8378C10.9881 16.6794 11.1164 16.49 11.2036 16.2809C11.2907 16.0718 11.3347 15.8473 11.3331 15.6208ZM10.4191 15.3828C10.6098 15.3826 10.7961 15.3255 10.9541 15.2188C11.123 15.107 11.2571 14.9501 11.3411 14.7658V14.3948C11.3581 14.0393 11.2682 13.6868 11.0831 13.3828C11.0146 13.2664 10.917 13.1699 10.7999 13.1027C10.6827 13.0356 10.5501 13.0001 10.4151 12.9998C10.2865 12.9968 10.1592 13.0261 10.0449 13.0852C9.93061 13.1443 9.83301 13.2311 9.76109 13.3378C9.59054 13.5891 9.50502 13.8884 9.51709 14.1918C9.50218 14.4987 9.58862 14.8019 9.76309 15.0548C9.83717 15.1591 9.93574 15.2435 10.0501 15.3007C10.1645 15.3579 10.2912 15.3861 10.4191 15.3828ZM16.7001 15.6048C16.7437 16.2549 16.5813 16.9022 16.2361 17.4548C16.0726 17.6655 15.8597 17.8325 15.6161 17.9412C15.3726 18.0499 15.1061 18.0968 14.8401 18.0778C14.5768 18.0957 14.3131 18.0498 14.0714 17.9442C13.8296 17.8385 13.6168 17.6761 13.4511 17.4708C13.1025 16.9377 12.9346 16.3066 12.9721 15.6708V14.6868C12.926 14.0403 13.0868 13.3959 13.4311 12.8468C13.5969 12.6384 13.8111 12.4736 14.0551 12.3668C14.2991 12.2599 14.5655 12.2143 14.8311 12.2338C15.0944 12.2147 15.3584 12.2592 15.6009 12.3637C15.8433 12.4681 16.0571 12.6294 16.2241 12.8338C16.5694 13.3634 16.7362 13.9896 16.7001 14.6208V15.6048ZM15.7461 14.5428C15.7729 14.1393 15.6976 13.7355 15.5271 13.3688C15.4571 13.2487 15.3549 13.1506 15.2321 13.0854C15.1093 13.0202 14.9708 12.9905 14.8321 12.9998C14.6967 12.991 14.5614 13.0193 14.4409 13.0817C14.3203 13.1441 14.2191 13.2382 14.1481 13.3538C13.9785 13.6947 13.8993 14.0735 13.9181 14.4538V15.7428C13.893 16.1508 13.9696 16.5587 14.1411 16.9298C14.2086 17.0547 14.3103 17.1578 14.4343 17.227C14.5582 17.2963 14.6993 17.3288 14.8411 17.3208C14.9761 17.3286 15.1106 17.2991 15.2299 17.2354C15.3491 17.1717 15.4485 17.0763 15.5171 16.9598C15.6877 16.6082 15.7668 16.2191 15.7471 15.8288L15.7461 14.5428ZM17.3001 13.4058C17.2945 13.2496 17.3211 13.0939 17.3782 12.9483C17.4353 12.8028 17.5217 12.6705 17.6321 12.5598C17.747 12.449 17.8832 12.3627 18.0323 12.306C18.1815 12.2493 18.3406 12.2234 18.5001 12.2298C18.661 12.2223 18.8218 12.2477 18.9726 12.3044C19.1234 12.3612 19.261 12.4481 19.3771 12.5598C19.4881 12.6739 19.5745 12.8095 19.6313 12.9583C19.688 13.107 19.7138 13.2658 19.7071 13.4248V13.7058C19.7125 13.8609 19.686 14.0156 19.6293 14.16C19.5725 14.3045 19.4867 14.4358 19.3771 14.5458C19.262 14.6565 19.1256 14.7426 18.9763 14.799C18.8269 14.8554 18.6676 14.8808 18.5081 14.8738C18.1873 14.8854 17.8749 14.7696 17.6391 14.5518C17.5245 14.4392 17.4351 14.3037 17.3767 14.1541C17.3182 14.0045 17.2921 13.8442 17.3001 13.6838V13.4058ZM17.9641 13.7058C17.9566 13.865 18.0103 14.0209 18.1141 14.1418C18.1645 14.1972 18.2264 14.2408 18.2956 14.2695C18.3647 14.2982 18.4393 14.3112 18.5141 14.3078C18.5865 14.3099 18.6586 14.2963 18.7252 14.2678C18.7919 14.2393 18.8516 14.1966 18.9001 14.1428C19.0043 14.0164 19.0572 13.8554 19.0481 13.6918V13.4068C19.0551 13.2474 19.0015 13.0913 18.8981 12.9698C18.8484 12.9139 18.787 12.8696 18.7181 12.8402C18.6493 12.8108 18.5749 12.797 18.5001 12.7998C18.426 12.7967 18.3522 12.8104 18.2841 12.8398C18.2161 12.8692 18.1556 12.9137 18.1071 12.9698C18.0053 13.0959 17.9533 13.2549 17.9611 13.4168L17.9641 13.7058ZM20.0341 16.6058C20.0279 16.4485 20.0549 16.2916 20.1135 16.1455C20.1721 15.9994 20.2609 15.8672 20.3741 15.7578C20.4901 15.6493 20.6265 15.5648 20.7752 15.5092C20.924 15.4536 21.0824 15.428 21.2411 15.4338C21.4002 15.4275 21.559 15.4528 21.7082 15.5085C21.8574 15.5641 21.994 15.6488 22.1101 15.7578C22.2245 15.8719 22.3136 16.0088 22.3718 16.1595C22.43 16.3102 22.456 16.4714 22.4481 16.6328V16.9098C22.4532 17.0643 22.427 17.2182 22.371 17.3622C22.3149 17.5062 22.2303 17.6374 22.1221 17.7478C22.0069 17.8597 21.87 17.9467 21.7199 18.0034C21.5697 18.0602 21.4095 18.0855 21.2491 18.0778C21.0879 18.0851 20.9269 18.06 20.7756 18.004C20.6243 17.948 20.4857 17.8623 20.3681 17.7518C20.2559 17.6392 20.1684 17.5045 20.1109 17.3563C20.0534 17.2081 20.0272 17.0496 20.0341 16.8908V16.6058ZM20.6981 16.9058C20.6916 17.0655 20.7467 17.2216 20.8521 17.3418C20.9022 17.3978 20.964 17.4421 21.0331 17.4714C21.1023 17.5008 21.177 17.5146 21.2521 17.5118C21.3255 17.5153 21.3987 17.5026 21.4667 17.4746C21.5346 17.4466 21.5955 17.404 21.6451 17.3498C21.7432 17.2211 21.7912 17.0612 21.7801 16.8998V16.6068C21.788 16.4469 21.7335 16.2902 21.6281 16.1698C21.5792 16.115 21.519 16.0714 21.4517 16.0421C21.3844 16.0128 21.3115 15.9983 21.2381 15.9998C21.1646 15.9971 21.0914 16.0103 21.0236 16.0386C20.9557 16.0669 20.8948 16.1097 20.8451 16.1638C20.739 16.2901 20.6853 16.4522 20.6951 16.6168L20.6981 16.9058ZM18.7001 17.5738L18.2141 17.2928L20.9911 12.8478L21.4791 13.1288L18.7001 17.5738Z" fill="#111111"/>
</svg>
