<svg width="20" height="20" viewBox="0 0 20 20" fill="none" xmlns="http://www.w3.org/2000/svg">
<path opacity="0.94" d="M10 1C5.03 1 1 5.03 1 10C1 14.97 5.03 19 10 19C14.97 19 19 14.97 19 10C19 5.03 14.97 1 10 1ZM10.63 14.635C10.48 14.79 10.26 14.87 9.98499 14.87C9.70999 14.87 9.49 14.79 9.34 14.635C9.19 14.48 9.11499 14.285 9.11499 14.055C9.11499 13.805 9.19501 13.605 9.35001 13.45C9.50501 13.295 9.71999 13.22 9.98499 13.22C10.25 13.22 10.47 13.3 10.625 13.455C10.78 13.615 10.86 13.81 10.86 14.055C10.86 14.3 10.785 14.48 10.63 14.635ZM11.875 9.925L11.095 10.695C10.815 11.015 10.67 11.475 10.665 12.085H9.22501C9.22501 11.52 9.295 11.075 9.435 10.74C9.575 10.405 9.85001 10.04 10.265 9.635C10.68 9.235 10.94 8.95 11.05 8.78C11.22 8.52 11.305 8.245 11.305 7.945C11.305 7.55 11.205 7.245 11.01 7.035C10.815 6.825 10.525 6.72 10.145 6.72C9.76499 6.72 9.49002 6.82 9.26501 7.025C9.04501 7.23 8.92999 7.505 8.92999 7.855H7.39001C7.40001 7.105 7.655 6.51 8.155 6.075C8.655 5.64 9.31999 5.42 10.145 5.42C10.97 5.42 11.66 5.635 12.135 6.07C12.61 6.5 12.85 7.105 12.85 7.88C12.85 8.57 12.53 9.25 11.885 9.92L11.875 9.925Z" fill="#E24949"/>
</svg>
