<svg width="24" height="24" viewBox="0 0 24 24" fill="none" xmlns="http://www.w3.org/2000/svg">
<path d="M20.5 10.0001L19.95 9.72513C19.735 9.62013 19.58 9.43013 19.495 9.21013C19.43 9.04013 19.355 8.87012 19.28 8.70012C19.175 8.48012 19.155 8.23012 19.23 7.99512L19.37 7.57512C19.41 7.46012 19.475 7.36012 19.55 7.26012C20.01 6.67012 19.97 5.81512 19.43 5.27512L18.72 4.57013C18.425 4.28013 18.045 4.13013 17.66 4.13013C17.275 4.13013 16.895 4.27513 16.6 4.57013L16.01 4.77013C15.915 4.80013 15.82 4.81512 15.725 4.81512C15.58 4.81512 15.44 4.78012 15.305 4.72012C15.135 4.64012 14.965 4.57012 14.795 4.50012C14.575 4.41512 14.39 4.25512 14.285 4.04512L14.01 3.49512C14.01 2.66512 13.34 1.99512 12.51 1.99512H11.51C10.68 1.99512 10.01 2.66512 10.01 3.49512L9.73502 4.04512C9.63002 4.25512 9.44502 4.41512 9.22502 4.50012C9.05002 4.56512 8.88001 4.64012 8.71501 4.72012C8.58001 4.78512 8.44001 4.81512 8.29501 4.81512C8.20001 4.81512 8.10501 4.80013 8.01001 4.77013L7.59502 4.63013C7.48002 4.59013 7.38001 4.52512 7.28001 4.45012C7.01001 4.24012 6.68001 4.13512 6.35501 4.13512C5.97001 4.13512 5.58501 4.28012 5.29501 4.57512L4.59001 5.28012C4.05001 5.82512 4.01002 6.67512 4.47002 7.26512C4.54502 7.36012 4.61001 7.46512 4.65001 7.58012L4.79001 8.00012C4.87001 8.23012 4.84502 8.48012 4.74002 8.70512C4.66002 8.87012 4.59001 9.04012 4.52501 9.21512C4.44001 9.44012 4.28002 9.62512 4.07002 9.73012L3.52002 10.0051C2.69002 10.0051 2.02002 10.6751 2.02002 11.5051V12.5051C2.02002 13.3351 2.69002 14.0051 3.52002 14.0051L4.07002 14.2801C4.28502 14.3851 4.44501 14.5751 4.53001 14.8001C4.59501 14.9701 4.66501 15.1401 4.74501 15.3051C4.85001 15.5251 4.87501 15.7801 4.79501 16.0101L4.59502 16.6001C4.01002 17.1851 4.01002 18.1351 4.59502 18.7201L5.30002 19.4301C5.59502 19.7201 5.98002 19.8701 6.36002 19.8701C6.68502 19.8701 7.01502 19.7651 7.28502 19.5551C7.38002 19.4801 7.48502 19.4151 7.60002 19.3751L8.01501 19.2351C8.11001 19.2051 8.20502 19.1901 8.30002 19.1901C8.44502 19.1901 8.59002 19.2251 8.72002 19.2851C8.88502 19.3651 9.05502 19.4351 9.22502 19.5001C9.45002 19.5851 9.63501 19.7451 9.74501 19.9601L10.02 20.5101C10.02 21.3401 10.69 22.0101 11.52 22.0101H12.52C13.35 22.0101 14.02 21.3401 14.02 20.5101L14.295 19.9601C14.4 19.7501 14.585 19.5901 14.805 19.5051C14.98 19.4401 15.15 19.3651 15.315 19.2851C15.45 19.2201 15.59 19.1901 15.735 19.1901C15.83 19.1901 15.925 19.2051 16.02 19.2351L16.61 19.4351C16.905 19.7251 17.285 19.8751 17.67 19.8751C18.055 19.8751 18.435 19.7301 18.73 19.4351L19.44 18.7251C20.025 18.1401 20.025 17.1901 19.44 16.6051L19.24 16.0101C19.16 15.7801 19.185 15.5301 19.29 15.3051C19.37 15.1401 19.44 14.9701 19.505 14.7951C19.59 14.5701 19.75 14.3851 19.96 14.2801L20.51 14.0051C21.34 14.0051 22.01 13.3351 22.01 12.5051V11.5051C22.01 10.6751 21.34 10.0051 20.51 10.0051L20.5 10.0001ZM20.5 12.5001H20.15L19.835 12.6551L19.285 12.9301C18.74 13.2001 18.315 13.6701 18.095 14.2551C18.04 14.3951 17.985 14.5301 17.92 14.6651C17.65 15.2451 17.61 15.8901 17.81 16.4801L18.01 17.0751L18.125 17.4101L18.375 17.6601L17.665 18.3701L17.415 18.1201L17.08 18.0101L16.49 17.8101C16.245 17.7301 15.99 17.6851 15.73 17.6851C15.37 17.6851 15.005 17.7701 14.67 17.9251C14.535 17.9901 14.395 18.0501 14.26 18.1001C13.685 18.3251 13.215 18.7451 12.945 19.2851L12.67 19.8351L12.51 20.1501V20.5051H11.51V20.1551L11.355 19.8401L11.08 19.2901C10.81 18.7451 10.335 18.3201 9.75002 18.0951C9.61502 18.0451 9.48002 17.9851 9.35002 17.9251C9.02002 17.7701 8.65001 17.6851 8.29001 17.6851C8.03001 17.6851 7.77501 17.7251 7.53001 17.8101L7.11002 17.9501C6.76502 18.0651 6.51002 18.2451 6.35002 18.3751L5.64001 17.6601L5.89001 17.4101L6.00002 17.0751L6.20001 16.4851C6.40001 15.8901 6.36002 15.2451 6.08502 14.6651C6.02502 14.5351 5.96501 14.4001 5.91501 14.2651C5.69501 13.6801 5.27002 13.2101 4.72002 12.9351L4.17001 12.6601L3.85501 12.5051H3.50502V11.5051H3.85501L4.17001 11.3501L4.72002 11.0751C5.26502 10.8051 5.69002 10.3351 5.91002 9.75012C5.96502 9.61012 6.02002 9.47512 6.08502 9.34012C6.35502 8.76012 6.39502 8.11512 6.19502 7.52512L6.05501 7.10512C5.94001 6.76012 5.76001 6.50512 5.63501 6.34512L6.34502 5.64012C6.50502 5.76512 6.76001 5.94512 7.10501 6.06012L7.52002 6.20012C7.76502 6.28012 8.02001 6.32512 8.28001 6.32512C8.64001 6.32512 9.00501 6.24013 9.34001 6.08513C9.47501 6.02013 9.61502 5.96013 9.75002 5.91013C10.325 5.68513 10.795 5.26513 11.065 4.72513L11.34 4.17513L11.5 3.86012V3.50513H12.5V3.86012L12.66 4.17513L12.935 4.72513C13.205 5.26513 13.67 5.68513 14.25 5.91013C14.385 5.96513 14.525 6.02013 14.66 6.08513C14.99 6.24013 15.36 6.32512 15.72 6.32512C15.98 6.32512 16.235 6.28512 16.48 6.20012L17.07 6.00012L17.405 5.89012L17.655 5.64012L18.36 6.34512C18.235 6.50512 18.055 6.75512 17.94 7.10512L17.8 7.52512C17.6 8.11512 17.64 8.76012 17.91 9.34012C17.97 9.47512 18.03 9.61012 18.085 9.75012C18.31 10.3301 18.73 10.8001 19.275 11.0751L19.825 11.3501L20.14 11.5051H20.49V12.5051L20.5 12.5001Z" fill="#111111"/>
<path d="M11.9997 8C11.7447 8 11.4797 8.025 11.2147 8.075C9.63973 8.375 8.36974 9.645 8.06974 11.22C7.58474 13.775 9.52973 16.005 11.9947 16.005C12.2497 16.005 12.5147 15.98 12.7797 15.93C14.3547 15.63 15.6247 14.36 15.9247 12.785C16.4097 10.23 14.4647 8 11.9997 8ZM14.4497 12.505C14.2647 13.47 13.4647 14.27 12.4997 14.455C12.3297 14.485 12.1597 14.505 11.9947 14.505C11.2497 14.505 10.5447 14.175 10.0697 13.6C9.58474 13.015 9.39973 12.27 9.54473 11.505C9.72973 10.54 10.5297 9.73999 11.4947 9.55499C11.6647 9.52499 11.8347 9.505 11.9997 9.505C12.7447 9.505 13.4497 9.835 13.9247 10.41C14.4097 10.995 14.5947 11.74 14.4497 12.505Z" fill="#111111"/>
</svg>
