<svg width="24" height="24" viewBox="0 0 24 24" fill="none" xmlns="http://www.w3.org/2000/svg">
<path d="M12 2C10.0222 2 8.08879 2.58649 6.44429 3.6853C4.7998 4.78412 3.51807 6.3459 2.76119 8.17316C2.00431 10.0004 1.80631 12.0111 2.19216 13.9509C2.57801 15.8907 3.53039 17.6725 4.92891 19.0711C6.32744 20.4696 8.10928 21.422 10.0491 21.8079C11.9889 22.1937 13.9996 21.9957 15.8269 21.2388C17.6541 20.4819 19.2159 19.2002 20.3147 17.5557C21.4135 15.9112 22 13.9778 22 12C22 9.34784 20.9464 6.8043 19.0711 4.92893C17.1957 3.05357 14.6522 2 12 2ZM12 20.636C10.292 20.636 8.62229 20.1295 7.20211 19.1806C5.78192 18.2316 4.67502 16.8829 4.02138 15.3049C3.36774 13.7268 3.19671 11.9904 3.52993 10.3152C3.86315 8.63998 4.68569 7.10119 5.89345 5.89342C7.10122 4.68566 8.63999 3.86316 10.3152 3.52994C11.9904 3.19672 13.7269 3.36774 15.3049 4.02138C16.8829 4.67502 18.2316 5.78191 19.1806 7.2021C20.1295 8.62228 20.636 10.292 20.636 12C20.6357 14.2903 19.7258 16.4868 18.1063 18.1063C16.4868 19.7258 14.2903 20.6357 12 20.636Z" fill="white"/>
<path d="M10.4225 8.41847L9.45349 7.46447C9.38424 7.39092 9.30074 7.33223 9.20807 7.292C9.1154 7.25177 9.01552 7.23084 8.91449 7.23047C8.43378 7.31343 7.99876 7.56605 7.68848 7.94247C6.45448 9.16947 7.85248 12.2515 9.77448 14.1595C11.4605 15.8265 13.2525 16.7705 14.6005 16.7705C14.8669 16.7816 15.1328 16.7389 15.3824 16.6451C15.6321 16.5513 15.8603 16.4083 16.0535 16.2245C16.3605 15.9245 17.1715 15.1065 16.5375 14.4725L15.5695 13.5175C15.506 13.4242 15.4212 13.3475 15.322 13.2938C15.2229 13.24 15.1123 13.2108 14.9995 13.2085C14.6574 13.2419 14.3424 13.4094 14.1235 13.6745C14.0573 13.7382 13.9788 13.7878 13.8929 13.8203C13.8069 13.8528 13.7153 13.8675 13.6235 13.8635C12.7579 13.6749 11.9729 13.2203 11.3785 12.5635C9.44948 10.6405 10.2535 9.85047 10.2535 9.85047C11.2205 8.90347 10.4225 8.41847 10.4225 8.41847Z" fill="white"/>
</svg>
