<svg width="24" height="24" viewBox="0 0 24 24" fill="none" xmlns="http://www.w3.org/2000/svg">
<path d="M18.222 11.111C18.222 12.5174 17.805 13.8923 17.0236 15.0617C16.2422 16.2311 15.1316 17.1425 13.8323 17.6807C12.5329 18.2189 11.1031 18.3597 9.72372 18.0854C8.34432 17.811 7.07726 17.1337 6.08277 16.1392C5.08828 15.1447 4.41102 13.8777 4.13664 12.4983C3.86226 11.1189 4.00308 9.6891 4.5413 8.38974C5.07951 7.09037 5.99095 5.97979 7.16034 5.19842C8.32974 4.41705 9.70458 4 11.111 4C12.997 4 14.8057 4.74919 16.1392 6.08276C17.4728 7.41633 18.222 9.22505 18.222 11.111Z" stroke="white" stroke-width="1.5" stroke-linecap="round" stroke-linejoin="round"/>
<path d="M20.0008 20.0001L16.1338 16.1331" stroke="white" stroke-width="1.5" stroke-linecap="round" stroke-linejoin="round"/>
</svg>
