<svg width="24" height="24" viewBox="0 0 24 24" fill="none" xmlns="http://www.w3.org/2000/svg">
<path d="M12.025 4.25024C11.6649 4.25024 11.2744 4.36489 10.8325 4.60057L4.74453 8.38354C4.42906 8.6998 4.25 9.14815 4.25 9.63007V18.0687C4.25 18.9959 4.9229 19.7503 5.75 19.7503H18.25C19.0771 19.7503 19.75 18.9959 19.75 18.0687V9.63007C19.75 9.14815 19.5709 8.69979 19.2555 8.38354L13.1524 4.59122C12.7471 4.36182 12.3781 4.25024 12.025 4.25024ZM12.025 2.75024C12.6478 2.75024 13.2709 2.92953 13.92 3.30217L20.17 7.18582C20.86 7.79183 21.25 8.68064 21.25 9.63007V18.0687C21.25 19.8261 19.91 21.2503 18.25 21.2503H5.75C4.09 21.2503 2.75 19.8261 2.75 18.0687V9.63007C2.75 8.68064 3.14 7.79183 3.83 7.18582L10.08 3.30217C10.7465 2.93929 11.3856 2.75024 12.025 2.75024Z" fill="#111111"/>
<path d="M8.13086 17.396H15.8679" stroke="#111111" stroke-width="1.5" stroke-linecap="round"/>
</svg>
