<svg width="24" height="24" viewBox="0 0 24 24" fill="none" xmlns="http://www.w3.org/2000/svg">
<path d="M16.307 5.00097H11.384C10.9518 4.98636 10.5313 5.14338 10.2145 5.43773C9.89767 5.73208 9.71019 6.13984 9.693 6.57197V7.85897H7.693C7.26061 7.84382 6.8398 8.00046 6.52256 8.29465C6.20532 8.58884 6.01744 8.99666 6 9.42897V17.429C6.01693 17.8616 6.20458 18.27 6.52188 18.5646C6.83918 18.8592 7.26028 19.0161 7.693 19.001H12.616C13.0483 19.0158 13.4689 18.8589 13.7858 18.5645C14.1027 18.2701 14.2901 17.8622 14.307 17.43V16.144H16.307C16.7395 16.1589 17.1603 16.002 17.4775 15.7076C17.7947 15.4133 17.9826 15.0054 18 14.573V6.57297C17.9828 6.1404 17.7951 5.73223 17.4778 5.43766C17.1606 5.14309 16.7397 4.98609 16.307 5.00097ZM13.384 17.43C13.3764 17.6266 13.2913 17.8123 13.1472 17.9463C13.003 18.0803 12.8117 18.1517 12.615 18.145H7.693C7.49632 18.1517 7.30497 18.0803 7.16084 17.9463C7.01672 17.8123 6.93155 17.6266 6.924 17.43V9.42997C6.93181 9.23349 7.01709 9.0481 7.16118 8.9143C7.30528 8.78051 7.49648 8.70921 7.693 8.71597H12.616C12.8125 8.70921 13.0037 8.78051 13.1478 8.9143C13.2919 9.0481 13.3772 9.23349 13.385 9.42997L13.384 17.43ZM17.077 14.573C17.0692 14.7694 16.9839 14.9548 16.8398 15.0886C16.6957 15.2224 16.5045 15.2937 16.308 15.287H14.308V9.42897C14.2908 8.99675 14.1032 8.58893 13.7861 8.29471C13.469 8.00049 13.0483 7.84382 12.616 7.85897H10.616V6.57197C10.6238 6.37567 10.7089 6.19043 10.8528 6.05667C10.9967 5.9229 11.1877 5.85148 11.384 5.85797H16.307C16.5035 5.85121 16.6947 5.92251 16.8388 6.0563C16.9829 6.1901 17.0682 6.37549 17.076 6.57197L17.077 14.573Z" fill="white"/>
</svg>
