<svg width="24" height="24" viewBox="0 0 24 24" fill="none" xmlns="http://www.w3.org/2000/svg">
<path d="M5.5 14.5C6.88071 14.5 8 13.3807 8 12C8 10.6193 6.88071 9.5 5.5 9.5C4.11929 9.5 3 10.6193 3 12C3 13.3807 4.11929 14.5 5.5 14.5Z" stroke="#111111" stroke-width="1.5" stroke-linecap="round" stroke-linejoin="round"/>
<path d="M18 8C19.3807 8 20.5 6.88071 20.5 5.5C20.5 4.11929 19.3807 3 18 3C16.6193 3 15.5 4.11929 15.5 5.5C15.5 6.88071 16.6193 8 18 8Z" stroke="#111111" stroke-width="1.5" stroke-linecap="round" stroke-linejoin="round"/>
<path d="M18 21C19.3807 21 20.5 19.8807 20.5 18.5C20.5 17.1193 19.3807 16 18 16C16.6193 16 15.5 17.1193 15.5 18.5C15.5 19.8807 16.6193 21 18 21Z" stroke="#111111" stroke-width="1.5" stroke-linecap="round" stroke-linejoin="round"/>
<path d="M8.5 11L15.5 7" stroke="#111111" stroke-width="1.5" stroke-linecap="round"/>
<path d="M8.5 13L15.5 17" stroke="#111111" stroke-width="1.5" stroke-linecap="round"/>
</svg>
