<svg width="24" height="24" viewBox="0 0 24 24" fill="none" xmlns="http://www.w3.org/2000/svg">
<path d="M18.9843 10.3235C18.9528 10.2185 18.8689 10.138 18.7605 10.1135L14.3992 9.2385L12.2588 5.1645C12.2308 5.1085 12.1854 5.063 12.1259 5.0315C12.0839 5.0105 12.042 5 12 5C11.8951 5 11.7902 5.0595 11.7412 5.161L9.60079 9.235L5.23954 10.11C5.13112 10.1345 5.04718 10.215 5.01571 10.32C4.98073 10.425 5.00522 10.544 5.07866 10.628L8.1109 14.0265L7.56181 18.6465C7.54782 18.7585 7.59329 18.867 7.68072 18.937C7.72968 18.9755 7.79264 18.9965 7.85559 18.9965C7.90106 18.9965 7.94303 18.986 7.9815 18.965L12 16.9875L16.015 18.965C16.057 18.986 16.0989 18.9965 16.1444 18.9965C16.2074 18.9965 16.2668 18.9755 16.3158 18.937C16.4032 18.867 16.4487 18.7585 16.4347 18.6465L15.8856 14.0265L18.9213 10.628C18.9948 10.544 19.0193 10.425 18.9843 10.32V10.3235ZM15.1022 13.33L14.7874 13.6835L14.8434 14.1525L15.2316 17.411L12.4652 16.0495L12.0035 15.822L11.5418 16.0495L8.77191 17.4145L9.16012 14.156L9.21608 13.687L8.90131 13.3335L6.72244 10.8905L9.81413 10.271L10.3038 10.173L10.5346 9.732L12.0035 6.932L13.4724 9.732L13.7032 10.173L14.1929 10.271L17.2846 10.8905L15.1022 13.3335V13.33Z" fill="white"/>
</svg>
