<svg width="24" height="24" viewBox="0 0 24 24" fill="none" xmlns="http://www.w3.org/2000/svg">
<path d="M5 19.5C4.46957 19.5 3.96101 19.2894 3.58594 18.9143C3.21086 18.5392 3 18.0304 3 17.5V8.5C3 7.96957 3.21086 7.46077 3.58594 7.08569C3.96101 6.71062 4.46957 6.5 5 6.5H8C8 5.96957 8.21086 5.46077 8.58594 5.08569C8.96101 4.71062 9.46957 4.5 10 4.5H14C14.5304 4.5 15.039 4.71062 15.4141 5.08569C15.7891 5.46077 16 5.96957 16 6.5H19C19.5304 6.5 20.039 6.71062 20.4141 7.08569C20.7891 7.46077 21 7.96957 21 8.5V17.5C21 18.0304 20.7891 18.5392 20.4141 18.9143C20.039 19.2894 19.5304 19.5 19 19.5H5Z" stroke="#111111" stroke-width="1.5" stroke-linecap="round"/>
<path d="M12 16.5C13.933 16.5 15.5 14.933 15.5 13C15.5 11.067 13.933 9.5 12 9.5C10.067 9.5 8.5 11.067 8.5 13C8.5 14.933 10.067 16.5 12 16.5Z" stroke="#111111" stroke-width="1.5"/>
<path d="M18 10C18.2761 10 18.5 9.77614 18.5 9.5C18.5 9.22386 18.2761 9 18 9C17.7239 9 17.5 9.22386 17.5 9.5C17.5 9.77614 17.7239 10 18 10Z" stroke="#111111"/>
</svg>
