<svg width="24" height="24" viewBox="0 0 24 24" fill="none" xmlns="http://www.w3.org/2000/svg">
<path d="M20.75 5H16V4.5C16 3.12 14.88 2 13.5 2H8V5H3.25C2.835 5 2.5 5.335 2.5 5.75C2.5 6.165 2.835 6.5 3.25 6.5H4.5V19.5C4.5 20.88 5.62 22 7 22H17C18.38 22 19.5 20.88 19.5 19.5V6.5H20.75C21.165 6.5 21.5 6.165 21.5 5.75C21.5 5.335 21.165 5 20.75 5ZM9.5 3.5H13.5C14.05 3.5 14.5 3.95 14.5 4.5V5H9.5V3.5ZM18 19.5C18 20.05 17.55 20.5 17 20.5H7C6.45 20.5 6 20.05 6 19.5V6.5H18V19.5Z" fill="white"/>
<path d="M14.25 16C14.665 16 15 15.665 15 15.25V10.75C15 10.335 14.665 10 14.25 10C13.835 10 13.5 10.335 13.5 10.75V15.25C13.5 15.665 13.835 16 14.25 16Z" fill="white"/>
<path d="M9.75 16C10.165 16 10.5 15.665 10.5 15.25V10.75C10.5 10.335 10.165 10 9.75 10C9.335 10 9 10.335 9 10.75V15.25C9 15.665 9.335 16 9.75 16Z" fill="white"/>
</svg>
