<svg width="24" height="24" viewBox="0 0 24 24" fill="none" xmlns="http://www.w3.org/2000/svg">
<path d="M20.75 19.2852H3.25C2.835 19.2852 2.5 19.6202 2.5 20.0352C2.5 20.4502 2.835 20.7852 3.25 20.7852H20.75C21.165 20.7852 21.5 20.4502 21.5 20.0352C21.5 19.6202 21.165 19.2852 20.75 19.2852Z" fill="white"/>
<path d="M18.13 7.89484L18.14 7.88485C18.72 7.29985 18.715 6.35485 18.13 5.77485L16.01 3.65485L16 3.64484C15.71 3.35984 15.33 3.21484 14.95 3.21484C14.565 3.21484 14.18 3.36485 13.89 3.65485L3.5 14.0398V18.2849H7.74501L18.13 7.89484ZM5 16.7849V14.6599L14.95 4.71484L17.07 6.83485L7.125 16.7849H5Z" fill="white"/>
</svg>
