<svg width="24" height="24" viewBox="0 0 24 24" fill="none" xmlns="http://www.w3.org/2000/svg">
<path d="M18.4474 17.8398H5.55263C5.24684 17.8398 5 18.0867 5 18.3925C5 18.6983 5.24684 18.9451 5.55263 18.9451H18.4474C18.7532 18.9451 19 18.6983 19 18.3925C19 18.0867 18.7532 17.8398 18.4474 17.8398Z" fill="white"/>
<path d="M16.5168 9.44842L16.5242 9.44106C16.9516 9.01 16.9479 8.31369 16.5168 7.88632L14.9547 6.32421L14.9473 6.31684C14.7337 6.10684 14.4537 6 14.1737 6C13.89 6 13.6063 6.11053 13.3926 6.32421L5.73682 13.9763V17.1042H8.86472L16.5168 9.44842ZM6.84208 15.999V14.4332L14.1737 7.10526L15.7358 8.66737L8.40787 15.999H6.84208Z" fill="white"/>
</svg>
