<svg width="24" height="24" viewBox="0 0 24 24" fill="none" xmlns="http://www.w3.org/2000/svg">
<path d="M12 19.5C16.1421 19.5 19.5 16.1421 19.5 12C19.5 7.85786 16.1421 4.5 12 4.5C7.85786 4.5 4.5 7.85786 4.5 12C4.5 16.1421 7.85786 19.5 12 19.5Z" stroke="#B0B0B0"/>
<path d="M11.998 15C11.8992 15.0004 11.8027 15.0301 11.7208 15.0853C11.6388 15.1404 11.575 15.2187 11.5375 15.3101C11.4999 15.4015 11.4903 15.5019 11.5099 15.5988C11.5294 15.6956 11.5771 15.7845 11.6472 15.8543C11.7172 15.924 11.8062 15.9714 11.9032 15.9906C12.0001 16.0097 12.1006 15.9997 12.1918 15.9618C12.283 15.9239 12.361 15.8598 12.4159 15.7776C12.4707 15.6954 12.5 15.5988 12.5 15.5C12.5003 15.4341 12.4874 15.3688 12.4623 15.3079C12.4371 15.247 12.4001 15.1917 12.3534 15.1452C12.3067 15.0986 12.2513 15.0619 12.1903 15.037C12.1293 15.012 12.0639 14.9995 11.998 15Z" fill="#B0B0B0" stroke="#B0B0B0" stroke-width="0.7" stroke-linecap="round" stroke-linejoin="round"/>
<path d="M12 13V8" stroke="#B0B0B0" stroke-width="1.5" stroke-linecap="round" stroke-linejoin="round"/>
</svg>
