<svg width="24" height="24" viewBox="0 0 24 24" fill="none" xmlns="http://www.w3.org/2000/svg">
<path d="M6.75 14C7.7165 14 8.5 13.2165 8.5 12.25C8.5 11.2835 7.7165 10.5 6.75 10.5C5.7835 10.5 5 11.2835 5 12.25C5 13.2165 5.7835 14 6.75 14Z" stroke="white" stroke-linecap="round" stroke-linejoin="round"/>
<path d="M15.75 9.5C16.7165 9.5 17.5 8.7165 17.5 7.75C17.5 6.7835 16.7165 6 15.75 6C14.7835 6 14 6.7835 14 7.75C14 8.7165 14.7835 9.5 15.75 9.5Z" stroke="white" stroke-linecap="round" stroke-linejoin="round"/>
<path d="M15.75 18.5C16.7165 18.5 17.5 17.7165 17.5 16.75C17.5 15.7835 16.7165 15 15.75 15C14.7835 15 14 15.7835 14 16.75C14 17.7165 14.7835 18.5 15.75 18.5Z" stroke="white" stroke-linecap="round" stroke-linejoin="round"/>
<path d="M8.5 12L14 9" stroke="white" stroke-linecap="round"/>
<path d="M8.5 13L14 16" stroke="white" stroke-linecap="round"/>
</svg>
