<svg width="24" height="24" viewBox="0 0 24 24" fill="none" xmlns="http://www.w3.org/2000/svg">
<path d="M17.6348 9.19995H19.0598C19.5902 9.19995 20.0989 9.41066 20.474 9.78574C20.8491 10.1608 21.0598 10.6695 21.0598 11.2V12.821C21.0598 13.0836 21.008 13.3437 20.9075 13.5863C20.807 13.829 20.6597 14.0494 20.474 14.2352C20.2883 14.4209 20.0678 14.5682 19.8251 14.6687C19.5825 14.7692 19.3224 14.821 19.0598 14.821H17.6348V9.19995Z" stroke="white" stroke-width="1.5" stroke-linecap="round" stroke-linejoin="round"/>
<path d="M17.6308 10.585V9.16699C17.6308 7.67241 17.0371 6.23906 15.9804 5.18213C14.9237 4.1252 13.4904 3.53127 11.9958 3.53101C10.5012 3.53127 9.06797 4.1252 8.01123 5.18213C6.95449 6.23906 6.36084 7.67241 6.36084 9.16699V10.585" stroke="white" stroke-width="1.5" stroke-linecap="round" stroke-linejoin="round"/>
<path d="M4.93994 9.19995H6.36494V14.821H4.93994C4.40951 14.821 3.9008 14.6102 3.52573 14.2352C3.15066 13.8601 2.93994 13.3514 2.93994 12.821V11.2C2.93994 10.6695 3.15066 10.1608 3.52573 9.78574C3.9008 9.41066 4.40951 9.19995 4.93994 9.19995Z" stroke="white" stroke-width="1.5" stroke-linecap="round" stroke-linejoin="round"/>
<path d="M17.6362 12.762V14.062C17.6362 15.7466 16.6822 17.2421 15.2075 18.1819" stroke="white" stroke-width="1.5" stroke-linecap="round" stroke-linejoin="round"/>
<path d="M13.7777 16.9961H9.90771C9.21736 16.9961 8.65771 17.5557 8.65771 18.2461V18.7431C8.65771 19.4334 9.21736 19.9931 9.90771 19.9931H13.7777C14.4681 19.9931 15.0277 19.4334 15.0277 18.7431V18.2461C15.0277 17.5557 14.4681 16.9961 13.7777 16.9961Z" stroke="white" stroke-width="1.5"/>
</svg>
