<svg width="24" height="24" viewBox="0 0 24 24" fill="none" xmlns="http://www.w3.org/2000/svg">
<path d="M19.5 5H4.5C3.11929 5 2 6.11929 2 7.5V17.5C2 18.8807 3.11929 20 4.5 20H19.5C20.8807 20 22 18.8807 22 17.5V7.5C22 6.11929 20.8807 5 19.5 5Z" stroke="white" stroke-width="1.5" stroke-linecap="round" stroke-linejoin="round"/>
<path d="M21.9817 11.5905V15.2685C21.9817 15.3443 21.9668 15.4193 21.9378 15.4893C21.9088 15.5593 21.8663 15.6229 21.8127 15.6765C21.7591 15.7301 21.6955 15.7726 21.6255 15.8016C21.5555 15.8306 21.4805 15.8455 21.4048 15.8455H16.5728C16.2425 15.8657 15.9116 15.818 15.6004 15.7055C15.2892 15.593 15.0043 15.418 14.7633 15.1912C14.5223 14.9645 14.3303 14.6908 14.199 14.3871C14.0677 14.0833 14 13.7559 14 13.425C14 13.0941 14.0677 12.7667 14.199 12.4629C14.3303 12.1592 14.5223 11.8855 14.7633 11.6588C15.0043 11.432 15.2892 11.257 15.6004 11.1445C15.9116 11.032 16.2425 10.9843 16.5728 11.0045H21.3957C21.5512 11.0045 21.7002 11.0662 21.8101 11.1761C21.92 11.286 21.9817 11.4351 21.9817 11.5905Z" stroke="white" stroke-width="1.35223" stroke-linecap="round" stroke-linejoin="round"/>
<path d="M2 8H22" stroke="white" stroke-width="1.5" stroke-linecap="round" stroke-linejoin="round"/>
<path d="M16.4 14.3008C16.1683 14.3019 15.9451 14.2126 15.7775 14.0517C15.6098 13.8907 15.5106 13.6706 15.5008 13.4375C15.491 13.2045 15.5713 12.9767 15.7248 12.802C15.8784 12.6274 16.0932 12.5194 16.3242 12.5008H16.4758C16.7068 12.5194 16.9216 12.6274 17.0752 12.802C17.2287 12.9767 17.309 13.2045 17.2992 13.4375C17.2894 13.6706 17.1902 13.8907 17.0225 14.0517C16.8549 14.2126 16.6317 14.3019 16.4 14.3008Z" fill="white"/>
</svg>
