<svg width="24" height="24" viewBox="0 0 24 24" fill="none" xmlns="http://www.w3.org/2000/svg">
<path d="M12 21C16.9706 21 21 16.9706 21 12C21 7.02944 16.9706 3 12 3C7.02944 3 3 7.02944 3 12C3 16.9706 7.02944 21 12 21Z" stroke="#B0B0B0" stroke-width="1.5"/>
<mask id="mask0_262_1601" style="mask-type:luminance" maskUnits="userSpaceOnUse" x="9" y="6" width="7" height="12">
<path d="M15.439 6.6001H9V17.5451H15.439V6.6001Z" fill="white"/>
</mask>
<g mask="url(#mask0_262_1601)">
<path d="M12.737 11.136C13.0549 10.9767 13.3242 10.7349 13.5165 10.4358C13.7088 10.1367 13.8171 9.79135 13.83 9.436C13.8328 9.22937 13.7926 9.02443 13.7119 8.83419C13.6312 8.64395 13.5118 8.47257 13.3614 8.33094C13.2109 8.18931 13.0326 8.08053 12.8378 8.0115C12.6431 7.94248 12.4361 7.91472 12.23 7.93C12.0177 7.92204 11.8059 7.95709 11.6074 8.03302C11.409 8.10896 11.2279 8.22422 11.0751 8.37188C10.9223 8.51955 10.8009 8.69657 10.7183 8.89232C10.6356 9.08807 10.5933 9.2985 10.594 9.511H9C9.00648 9.10275 9.09709 8.70023 9.26618 8.32859C9.43526 7.95695 9.67918 7.62417 9.9827 7.35107C10.2862 7.07796 10.6428 6.87039 11.0302 6.74133C11.4175 6.61228 11.8273 6.5645 12.234 6.601C14.155 6.601 15.439 7.754 15.439 9.437C15.4497 9.96078 15.3145 10.4772 15.0485 10.9286C14.7826 11.38 14.3963 11.7485 13.933 11.993C13.5191 12.2015 13.1777 12.5301 12.9538 12.9359C12.7298 13.3417 12.6337 13.8056 12.678 14.267V14.356H11.17V14.267C11.185 12.332 11.761 11.742 12.737 11.136ZM10.935 16.501C10.9338 16.3628 10.9601 16.2258 11.0123 16.0979C11.0645 15.97 11.1415 15.8538 11.239 15.7559C11.3365 15.658 11.4525 15.5805 11.5802 15.5278C11.7079 15.4751 11.8449 15.4483 11.983 15.449C12.2615 15.449 12.5285 15.5596 12.7255 15.7565C12.9224 15.9534 13.033 16.2205 13.033 16.499C13.033 16.7775 12.9224 17.0445 12.7255 17.2415C12.5285 17.4384 12.2615 17.549 11.983 17.549C11.8452 17.5497 11.7086 17.523 11.5812 17.4706C11.4537 17.4181 11.3379 17.341 11.2405 17.2435C11.143 17.1461 11.0659 17.0303 11.0134 16.9028C10.961 16.7754 10.9343 16.6388 10.935 16.501Z" fill="#B0B0B0"/>
</g>
</svg>
